<?xml version="1.0" encoding="UTF-8" standalone="no"?>
<!DOCTYPE svg PUBLIC "-//W3C//DTD SVG 1.1//EN"
 "http://www.w3.org/Graphics/SVG/1.1/DTD/svg11.dtd">
<!-- Generated by graphviz version 2.43.0 (0)
 -->
<!-- Title: /home/harlen/dev/abcg2/abcg/abcg_vulkan_error.hpp Pages: 1 -->
<svg width="324pt" height="151pt"
 viewBox="0.00 0.00 324.18 151.00" xmlns="http://www.w3.org/2000/svg" xmlns:xlink="http://www.w3.org/1999/xlink">
<g id="graph0" class="graph" transform="scale(1 1) rotate(0) translate(4 147)">
<title>/home/harlen/dev/abcg2/abcg/abcg_vulkan_error.hpp</title>
<!-- Node1 -->
<g id="node1" class="node">
<title>Node1</title>
<g id="a_node1"><a xlink:title="Header file of abcg::VulkanError and derived classes.">
<polygon fill="#bfbfbf" stroke="black" points="5.68,-112.5 5.68,-142.5 160.68,-142.5 160.68,-112.5 5.68,-112.5"/>
<text text-anchor="start" x="13.68" y="-130.5" font-family="Helvetica,sans-Serif" font-size="10.00">/home/harlen/dev/abcg2</text>
<text text-anchor="middle" x="83.18" y="-119.5" font-family="Helvetica,sans-Serif" font-size="10.00">/abcg/abcg_vulkan_error.hpp</text>
</a>
</g>
</g>
<!-- Node2 -->
<g id="node2" class="node">
<title>Node2</title>
<g id="a_node2"><a xlink:title=" ">
<polygon fill="none" stroke="#bfbfbf" points="25.68,-0.5 25.68,-19.5 118.68,-19.5 118.68,-0.5 25.68,-0.5"/>
<text text-anchor="middle" x="72.18" y="-7.5" font-family="Helvetica,sans-Serif" font-size="10.00">source_location</text>
</a>
</g>
</g>
<!-- Node1&#45;&gt;Node2 -->
<g id="edge1" class="edge">
<title>Node1&#45;&gt;Node2</title>
<path fill="none" stroke="midnightblue" d="M45.4,-112.47C29.37,-104.41 12.3,-92.54 3.18,-76 -8.82,-54.24 17.33,-35.54 40.8,-23.86"/>
<polygon fill="midnightblue" stroke="midnightblue" points="42.35,-27 49.91,-19.59 39.37,-20.66 42.35,-27"/>
</g>
<!-- Node3 -->
<g id="node3" class="node">
<title>Node3</title>
<g id="a_node3"><a xlink:title=" ">
<polygon fill="none" stroke="#bfbfbf" points="12.68,-56.5 12.68,-75.5 59.68,-75.5 59.68,-56.5 12.68,-56.5"/>
<text text-anchor="middle" x="36.18" y="-63.5" font-family="Helvetica,sans-Serif" font-size="10.00">volk.h</text>
</a>
</g>
</g>
<!-- Node1&#45;&gt;Node3 -->
<g id="edge2" class="edge">
<title>Node1&#45;&gt;Node3</title>
<path fill="none" stroke="midnightblue" d="M72.04,-112.4C65.21,-103.75 56.43,-92.64 49.27,-83.58"/>
<polygon fill="midnightblue" stroke="midnightblue" points="51.96,-81.34 43.02,-75.66 46.47,-85.67 51.96,-81.34"/>
</g>
<!-- Node4 -->
<g id="node4" class="node">
<title>Node4</title>
<g id="a_node4"><a xlink:title=" ">
<polygon fill="none" stroke="#bfbfbf" points="77.68,-56.5 77.68,-75.5 182.68,-75.5 182.68,-56.5 77.68,-56.5"/>
<text text-anchor="middle" x="130.18" y="-63.5" font-family="Helvetica,sans-Serif" font-size="10.00">vulkan/vulkan.hpp</text>
</a>
</g>
</g>
<!-- Node1&#45;&gt;Node4 -->
<g id="edge3" class="edge">
<title>Node1&#45;&gt;Node4</title>
<path fill="none" stroke="midnightblue" d="M94.32,-112.4C101.15,-103.75 109.92,-92.64 117.08,-83.58"/>
<polygon fill="midnightblue" stroke="midnightblue" points="119.89,-85.67 123.34,-75.66 114.39,-81.34 119.89,-85.67"/>
</g>
<!-- Node5 -->
<g id="node5" class="node">
<title>Node5</title>
<g id="a_node5"><a xlink:href="abcg__exception_8hpp.html" target="_top" xlink:title="Header file of abcg::Exception and derived classes.">
<polygon fill="none" stroke="black" points="201.18,-56.5 201.18,-75.5 315.18,-75.5 315.18,-56.5 201.18,-56.5"/>
<text text-anchor="middle" x="258.18" y="-63.5" font-family="Helvetica,sans-Serif" font-size="10.00">abcg_exception.hpp</text>
</a>
</g>
</g>
<!-- Node1&#45;&gt;Node5 -->
<g id="edge4" class="edge">
<title>Node1&#45;&gt;Node5</title>
<path fill="none" stroke="midnightblue" d="M124.65,-112.4C154.76,-102.16 195.03,-88.47 223.45,-78.81"/>
<polygon fill="midnightblue" stroke="midnightblue" points="224.63,-82.1 232.97,-75.57 222.37,-75.48 224.63,-82.1"/>
</g>
<!-- Node5&#45;&gt;Node2 -->
<g id="edge5" class="edge">
<title>Node5&#45;&gt;Node2</title>
<path fill="none" stroke="midnightblue" d="M228.7,-56.44C197.01,-47.24 146.45,-32.56 111.4,-22.39"/>
<polygon fill="midnightblue" stroke="midnightblue" points="112.09,-18.94 101.51,-19.52 110.14,-25.67 112.09,-18.94"/>
</g>
<!-- Node6 -->
<g id="node6" class="node">
<title>Node6</title>
<g id="a_node6"><a xlink:title=" ">
<polygon fill="none" stroke="#bfbfbf" points="188.68,-0.5 188.68,-19.5 253.68,-19.5 253.68,-0.5 188.68,-0.5"/>
<text text-anchor="middle" x="221.18" y="-7.5" font-family="Helvetica,sans-Serif" font-size="10.00">stdexcept</text>
</a>
</g>
</g>
<!-- Node5&#45;&gt;Node6 -->
<g id="edge6" class="edge">
<title>Node5&#45;&gt;Node6</title>
<path fill="none" stroke="midnightblue" d="M252.07,-56.08C246.89,-48.53 239.33,-37.49 232.98,-28.23"/>
<polygon fill="midnightblue" stroke="midnightblue" points="235.71,-26.02 227.17,-19.75 229.94,-29.98 235.71,-26.02"/>
</g>
<!-- Node7 -->
<g id="node7" class="node">
<title>Node7</title>
<g id="a_node7"><a xlink:title=" ">
<polygon fill="none" stroke="#bfbfbf" points="272.18,-0.5 272.18,-19.5 316.18,-19.5 316.18,-0.5 272.18,-0.5"/>
<text text-anchor="middle" x="294.18" y="-7.5" font-family="Helvetica,sans-Serif" font-size="10.00">string</text>
</a>
</g>
</g>
<!-- Node5&#45;&gt;Node7 -->
<g id="edge7" class="edge">
<title>Node5&#45;&gt;Node7</title>
<path fill="none" stroke="midnightblue" d="M264.12,-56.08C269.15,-48.53 276.51,-37.49 282.69,-28.23"/>
<polygon fill="midnightblue" stroke="midnightblue" points="285.71,-30.01 288.34,-19.75 279.88,-26.13 285.71,-30.01"/>
</g>
</g>
</svg>
