<?xml version="1.0" encoding="UTF-8" standalone="no"?>
<!DOCTYPE svg PUBLIC "-//W3C//DTD SVG 1.1//EN"
 "http://www.w3.org/Graphics/SVG/1.1/DTD/svg11.dtd">
<!-- Generated by graphviz version 2.43.0 (0)
 -->
<!-- Title: /home/harlen/dev/abcg2/abcg/abcg_trackball.hpp Pages: 1 -->
<svg width="264pt" height="151pt"
 viewBox="0.00 0.00 263.50 151.00" xmlns="http://www.w3.org/2000/svg" xmlns:xlink="http://www.w3.org/1999/xlink">
<g id="graph0" class="graph" transform="scale(1 1) rotate(0) translate(4 147)">
<title>/home/harlen/dev/abcg2/abcg/abcg_trackball.hpp</title>
<!-- Node1 -->
<g id="node1" class="node">
<title>Node1</title>
<g id="a_node1"><a xlink:title="Header file of abcg::TrackBall.">
<polygon fill="#bfbfbf" stroke="black" points="64,-112.5 64,-142.5 202,-142.5 202,-112.5 64,-112.5"/>
<text text-anchor="start" x="72" y="-130.5" font-family="Helvetica,sans-Serif" font-size="10.00">/home/harlen/dev/abcg2</text>
<text text-anchor="middle" x="133" y="-119.5" font-family="Helvetica,sans-Serif" font-size="10.00">/abcg/abcg_trackball.hpp</text>
</a>
</g>
</g>
<!-- Node2 -->
<g id="node2" class="node">
<title>Node2</title>
<g id="a_node2"><a xlink:href="abcg__elapsedtimer_8hpp.html" target="_top" xlink:title="Header file of abcg::ElapsedTimer.">
<polygon fill="none" stroke="black" points="0,-56.5 0,-75.5 130,-75.5 130,-56.5 0,-56.5"/>
<text text-anchor="middle" x="65" y="-63.5" font-family="Helvetica,sans-Serif" font-size="10.00">abcg_elapsedtimer.hpp</text>
</a>
</g>
</g>
<!-- Node1&#45;&gt;Node2 -->
<g id="edge1" class="edge">
<title>Node1&#45;&gt;Node2</title>
<path fill="none" stroke="midnightblue" d="M116.88,-112.4C106.6,-103.4 93.25,-91.72 82.67,-82.47"/>
<polygon fill="midnightblue" stroke="midnightblue" points="84.73,-79.61 74.89,-75.66 80.12,-84.88 84.73,-79.61"/>
</g>
<!-- Node4 -->
<g id="node4" class="node">
<title>Node4</title>
<g id="a_node4"><a xlink:href="abcg__external_8hpp.html" target="_top" xlink:title="Header file for including third&#45;party dependencies.">
<polygon fill="none" stroke="black" points="148.5,-56.5 148.5,-75.5 255.5,-75.5 255.5,-56.5 148.5,-56.5"/>
<text text-anchor="middle" x="202" y="-63.5" font-family="Helvetica,sans-Serif" font-size="10.00">abcg_external.hpp</text>
</a>
</g>
</g>
<!-- Node1&#45;&gt;Node4 -->
<g id="edge3" class="edge">
<title>Node1&#45;&gt;Node4</title>
<path fill="none" stroke="midnightblue" d="M149.35,-112.4C159.9,-103.31 173.6,-91.49 184.38,-82.19"/>
<polygon fill="midnightblue" stroke="midnightblue" points="186.67,-84.84 191.96,-75.66 182.1,-79.54 186.67,-84.84"/>
</g>
<!-- Node3 -->
<g id="node3" class="node">
<title>Node3</title>
<g id="a_node3"><a xlink:title=" ">
<polygon fill="none" stroke="#bfbfbf" points="40,-0.5 40,-19.5 90,-19.5 90,-0.5 40,-0.5"/>
<text text-anchor="middle" x="65" y="-7.5" font-family="Helvetica,sans-Serif" font-size="10.00">chrono</text>
</a>
</g>
</g>
<!-- Node2&#45;&gt;Node3 -->
<g id="edge2" class="edge">
<title>Node2&#45;&gt;Node3</title>
<path fill="none" stroke="midnightblue" d="M65,-56.08C65,-49.01 65,-38.86 65,-29.99"/>
<polygon fill="midnightblue" stroke="midnightblue" points="68.5,-29.75 65,-19.75 61.5,-29.75 68.5,-29.75"/>
</g>
</g>
</svg>
