<?xml version="1.0" encoding="UTF-8" standalone="no"?>
<!DOCTYPE svg PUBLIC "-//W3C//DTD SVG 1.1//EN"
 "http://www.w3.org/Graphics/SVG/1.1/DTD/svg11.dtd">
<!-- Generated by graphviz version 2.43.0 (0)
 -->
<!-- Title: /home/harlen/dev/abcg/abcg/abcgVulkanWindow.hpp Pages: 1 -->
<svg width="697pt" height="431pt"
 viewBox="0.00 0.00 696.50 431.00" xmlns="http://www.w3.org/2000/svg" xmlns:xlink="http://www.w3.org/1999/xlink">
<g id="graph0" class="graph" transform="scale(1 1) rotate(0) translate(4 427)">
<title>/home/harlen/dev/abcg/abcg/abcgVulkanWindow.hpp</title>
<!-- Node1 -->
<g id="node1" class="node">
<title>Node1</title>
<g id="a_node1"><a xlink:title="Header file of abcg::VulkanWindow.">
<polygon fill="#bfbfbf" stroke="black" points="271.5,-392.5 271.5,-422.5 432.5,-422.5 432.5,-392.5 271.5,-392.5"/>
<text text-anchor="start" x="279.5" y="-410.5" font-family="Helvetica,sans-Serif" font-size="10.00">/home/harlen/dev/abcg</text>
<text text-anchor="middle" x="352" y="-399.5" font-family="Helvetica,sans-Serif" font-size="10.00">/abcg/abcgVulkanWindow.hpp</text>
</a>
</g>
</g>
<!-- Node2 -->
<g id="node2" class="node">
<title>Node2</title>
<g id="a_node2"><a xlink:href="abcgVulkanDevice_8hpp.html" target="_top" xlink:title="Header file of abcg::VulkanDevice.">
<polygon fill="none" stroke="black" points="208.5,-224.5 208.5,-243.5 335.5,-243.5 335.5,-224.5 208.5,-224.5"/>
<text text-anchor="middle" x="272" y="-231.5" font-family="Helvetica,sans-Serif" font-size="10.00">abcgVulkanDevice.hpp</text>
</a>
</g>
</g>
<!-- Node1&#45;&gt;Node2 -->
<g id="edge1" class="edge">
<title>Node1&#45;&gt;Node2</title>
<path fill="none" stroke="midnightblue" d="M349.21,-392.48C344.02,-368.35 331.4,-317.88 310,-280 304.04,-269.45 295.46,-259.02 287.95,-250.87"/>
<polygon fill="midnightblue" stroke="midnightblue" points="290.39,-248.36 280.95,-243.55 285.33,-253.19 290.39,-248.36"/>
</g>
<!-- Node3 -->
<g id="node3" class="node">
<title>Node3</title>
<g id="a_node3"><a xlink:href="abcgVulkanPhysicalDevice_8hpp.html" target="_top" xlink:title="Header file of abcg::VulkanPhysicalDevice.">
<polygon fill="none" stroke="black" points="188.5,-168.5 188.5,-187.5 355.5,-187.5 355.5,-168.5 188.5,-168.5"/>
<text text-anchor="middle" x="272" y="-175.5" font-family="Helvetica,sans-Serif" font-size="10.00">abcgVulkanPhysicalDevice.hpp</text>
</a>
</g>
</g>
<!-- Node1&#45;&gt;Node3 -->
<g id="edge11" class="edge">
<title>Node1&#45;&gt;Node3</title>
<path fill="none" stroke="midnightblue" d="M355.6,-392.41C363.06,-359.97 376.87,-278.62 344,-224 335.33,-209.6 320.1,-199.1 305.88,-191.88"/>
<polygon fill="midnightblue" stroke="midnightblue" points="307.29,-188.68 296.75,-187.61 304.32,-195.02 307.29,-188.68"/>
</g>
<!-- Node8 -->
<g id="node8" class="node">
<title>Node8</title>
<g id="a_node8"><a xlink:href="abcgVulkanInstance_8hpp.html" target="_top" xlink:title="Header file of abcg::VulkanInstance.">
<polygon fill="none" stroke="black" points="64,-112.5 64,-131.5 198,-131.5 198,-112.5 64,-112.5"/>
<text text-anchor="middle" x="131" y="-119.5" font-family="Helvetica,sans-Serif" font-size="10.00">abcgVulkanInstance.hpp</text>
</a>
</g>
</g>
<!-- Node1&#45;&gt;Node8 -->
<g id="edge10" class="edge">
<title>Node1&#45;&gt;Node8</title>
<path fill="none" stroke="midnightblue" d="M271.24,-396.42C167.32,-381.16 0,-347.76 0,-291 0,-291 0,-291 0,-233 0,-183.04 56.58,-151.23 95.37,-135.3"/>
<polygon fill="midnightblue" stroke="midnightblue" points="96.78,-138.51 104.81,-131.59 94.22,-132 96.78,-138.51"/>
</g>
<!-- Node10 -->
<g id="node10" class="node">
<title>Node10</title>
<g id="a_node10"><a xlink:href="abcgVulkanSwapchain_8hpp.html" target="_top" xlink:title="Header file of abcg::VulkanSwapchain.">
<polygon fill="none" stroke="black" points="174,-336.5 174,-355.5 320,-355.5 320,-336.5 174,-336.5"/>
<text text-anchor="middle" x="247" y="-343.5" font-family="Helvetica,sans-Serif" font-size="10.00">abcgVulkanSwapchain.hpp</text>
</a>
</g>
</g>
<!-- Node1&#45;&gt;Node10 -->
<g id="edge12" class="edge">
<title>Node1&#45;&gt;Node10</title>
<path fill="none" stroke="midnightblue" d="M327.12,-392.4C310.29,-382.86 288.16,-370.32 271.43,-360.84"/>
<polygon fill="midnightblue" stroke="midnightblue" points="272.7,-357.54 262.28,-355.66 269.25,-363.63 272.7,-357.54"/>
</g>
<!-- Node14 -->
<g id="node14" class="node">
<title>Node14</title>
<g id="a_node14"><a xlink:href="abcgWindow_8hpp.html" target="_top" xlink:title="Header file of abcg::Window.">
<polygon fill="none" stroke="black" points="449.5,-336.5 449.5,-355.5 548.5,-355.5 548.5,-336.5 449.5,-336.5"/>
<text text-anchor="middle" x="499" y="-343.5" font-family="Helvetica,sans-Serif" font-size="10.00">abcgWindow.hpp</text>
</a>
</g>
</g>
<!-- Node1&#45;&gt;Node14 -->
<g id="edge19" class="edge">
<title>Node1&#45;&gt;Node14</title>
<path fill="none" stroke="midnightblue" d="M386.84,-392.4C411.5,-382.42 444.29,-369.15 468.03,-359.53"/>
<polygon fill="midnightblue" stroke="midnightblue" points="469.65,-362.65 477.61,-355.66 467.03,-356.17 469.65,-362.65"/>
</g>
<!-- Node2&#45;&gt;Node3 -->
<g id="edge2" class="edge">
<title>Node2&#45;&gt;Node3</title>
<path fill="none" stroke="midnightblue" d="M272,-224.08C272,-217.01 272,-206.86 272,-197.99"/>
<polygon fill="midnightblue" stroke="midnightblue" points="275.5,-197.75 272,-187.75 268.5,-197.75 275.5,-197.75"/>
</g>
<!-- Node9 -->
<g id="node9" class="node">
<title>Node9</title>
<g id="a_node9"><a xlink:title=" ">
<polygon fill="none" stroke="#bfbfbf" points="79.5,-168.5 79.5,-187.5 144.5,-187.5 144.5,-168.5 79.5,-168.5"/>
<text text-anchor="middle" x="112" y="-175.5" font-family="Helvetica,sans-Serif" font-size="10.00">functional</text>
</a>
</g>
</g>
<!-- Node2&#45;&gt;Node9 -->
<g id="edge9" class="edge">
<title>Node2&#45;&gt;Node9</title>
<path fill="none" stroke="midnightblue" d="M246.65,-224.44C219.73,-215.36 177,-200.94 146.91,-190.78"/>
<polygon fill="midnightblue" stroke="midnightblue" points="147.83,-187.4 137.23,-187.52 145.59,-194.03 147.83,-187.4"/>
</g>
<!-- Node4 -->
<g id="node4" class="node">
<title>Node4</title>
<g id="a_node4"><a xlink:title=" ">
<polygon fill="none" stroke="#bfbfbf" points="216,-112.5 216,-131.5 272,-131.5 272,-112.5 216,-112.5"/>
<text text-anchor="middle" x="244" y="-119.5" font-family="Helvetica,sans-Serif" font-size="10.00">optional</text>
</a>
</g>
</g>
<!-- Node3&#45;&gt;Node4 -->
<g id="edge3" class="edge">
<title>Node3&#45;&gt;Node4</title>
<path fill="none" stroke="midnightblue" d="M267.38,-168.08C263.54,-160.69 257.98,-149.95 253.24,-140.81"/>
<polygon fill="midnightblue" stroke="midnightblue" points="256.25,-139.02 248.54,-131.75 250.03,-142.24 256.25,-139.02"/>
</g>
<!-- Node5 -->
<g id="node5" class="node">
<title>Node5</title>
<g id="a_node5"><a xlink:href="abcgVulkanExternal_8hpp.html" target="_top" xlink:title="Header file for including Vulkan&#45;related dependencies.">
<polygon fill="none" stroke="black" points="148,-56.5 148,-75.5 282,-75.5 282,-56.5 148,-56.5"/>
<text text-anchor="middle" x="215" y="-63.5" font-family="Helvetica,sans-Serif" font-size="10.00">abcgVulkanExternal.hpp</text>
</a>
</g>
</g>
<!-- Node3&#45;&gt;Node5 -->
<g id="edge4" class="edge">
<title>Node3&#45;&gt;Node5</title>
<path fill="none" stroke="midnightblue" d="M276.25,-168.44C282.05,-155.45 290.69,-130.33 281,-112 273.58,-97.95 259.58,-87.47 246.38,-80.17"/>
<polygon fill="midnightblue" stroke="midnightblue" points="247.96,-77.04 237.46,-75.62 244.78,-83.28 247.96,-77.04"/>
</g>
<!-- Node3&#45;&gt;Node8 -->
<g id="edge7" class="edge">
<title>Node3&#45;&gt;Node8</title>
<path fill="none" stroke="midnightblue" d="M249.66,-168.44C226.25,-159.48 189.26,-145.31 162.81,-135.18"/>
<polygon fill="midnightblue" stroke="midnightblue" points="163.83,-131.82 153.24,-131.52 161.32,-138.36 163.83,-131.82"/>
</g>
<!-- Node6 -->
<g id="node6" class="node">
<title>Node6</title>
<g id="a_node6"><a xlink:title=" ">
<polygon fill="none" stroke="#bfbfbf" points="144.5,-0.5 144.5,-19.5 191.5,-19.5 191.5,-0.5 144.5,-0.5"/>
<text text-anchor="middle" x="168" y="-7.5" font-family="Helvetica,sans-Serif" font-size="10.00">volk.h</text>
</a>
</g>
</g>
<!-- Node5&#45;&gt;Node6 -->
<g id="edge5" class="edge">
<title>Node5&#45;&gt;Node6</title>
<path fill="none" stroke="midnightblue" d="M207.24,-56.08C200.46,-48.3 190.46,-36.8 182.24,-27.37"/>
<polygon fill="midnightblue" stroke="midnightblue" points="184.82,-25 175.62,-19.75 179.54,-29.59 184.82,-25"/>
</g>
<!-- Node7 -->
<g id="node7" class="node">
<title>Node7</title>
<g id="a_node7"><a xlink:title=" ">
<polygon fill="none" stroke="#bfbfbf" points="209.5,-0.5 209.5,-19.5 314.5,-19.5 314.5,-0.5 209.5,-0.5"/>
<text text-anchor="middle" x="262" y="-7.5" font-family="Helvetica,sans-Serif" font-size="10.00">vulkan/vulkan.hpp</text>
</a>
</g>
</g>
<!-- Node5&#45;&gt;Node7 -->
<g id="edge6" class="edge">
<title>Node5&#45;&gt;Node7</title>
<path fill="none" stroke="midnightblue" d="M222.76,-56.08C229.54,-48.3 239.54,-36.8 247.76,-27.37"/>
<polygon fill="midnightblue" stroke="midnightblue" points="250.46,-29.59 254.38,-19.75 245.18,-25 250.46,-29.59"/>
</g>
<!-- Node8&#45;&gt;Node5 -->
<g id="edge8" class="edge">
<title>Node8&#45;&gt;Node5</title>
<path fill="none" stroke="midnightblue" d="M144.5,-112.32C157.6,-103.9 177.71,-90.97 193.11,-81.07"/>
<polygon fill="midnightblue" stroke="midnightblue" points="195.02,-84.01 201.54,-75.65 191.23,-78.12 195.02,-84.01"/>
</g>
<!-- Node10&#45;&gt;Node2 -->
<g id="edge15" class="edge">
<title>Node10&#45;&gt;Node2</title>
<path fill="none" stroke="midnightblue" d="M261.08,-336.26C272.35,-328.35 287.35,-315.58 294,-300 300.78,-284.13 292.84,-265.41 284.67,-252.15"/>
<polygon fill="midnightblue" stroke="midnightblue" points="287.38,-249.91 278.89,-243.57 281.58,-253.82 287.38,-249.91"/>
</g>
<!-- Node10&#45;&gt;Node9 -->
<g id="edge13" class="edge">
<title>Node10&#45;&gt;Node9</title>
<path fill="none" stroke="midnightblue" d="M173.88,-337.05C126.77,-330.24 71.67,-318.55 57,-300 30.78,-266.85 70.24,-219.19 94.81,-194.76"/>
<polygon fill="midnightblue" stroke="midnightblue" points="97.38,-197.14 102.17,-187.69 92.53,-192.09 97.38,-197.14"/>
</g>
<!-- Node11 -->
<g id="node11" class="node">
<title>Node11</title>
<g id="a_node11"><a xlink:title=" ">
<polygon fill="none" stroke="#bfbfbf" points="208.5,-280.5 208.5,-299.5 285.5,-299.5 285.5,-280.5 208.5,-280.5"/>
<text text-anchor="middle" x="247" y="-287.5" font-family="Helvetica,sans-Serif" font-size="10.00">glm/fwd.hpp</text>
</a>
</g>
</g>
<!-- Node10&#45;&gt;Node11 -->
<g id="edge14" class="edge">
<title>Node10&#45;&gt;Node11</title>
<path fill="none" stroke="midnightblue" d="M247,-336.08C247,-329.01 247,-318.86 247,-309.99"/>
<polygon fill="midnightblue" stroke="midnightblue" points="250.5,-309.75 247,-299.75 243.5,-309.75 250.5,-309.75"/>
</g>
<!-- Node12 -->
<g id="node12" class="node">
<title>Node12</title>
<g id="a_node12"><a xlink:href="abcgVulkanImage_8hpp.html" target="_top" xlink:title="Header file of abcg::VulkanImage.">
<polygon fill="none" stroke="black" points="66,-280.5 66,-299.5 190,-299.5 190,-280.5 66,-280.5"/>
<text text-anchor="middle" x="128" y="-287.5" font-family="Helvetica,sans-Serif" font-size="10.00">abcgVulkanImage.hpp</text>
</a>
</g>
</g>
<!-- Node10&#45;&gt;Node12 -->
<g id="edge16" class="edge">
<title>Node10&#45;&gt;Node12</title>
<path fill="none" stroke="midnightblue" d="M228.14,-336.44C208.73,-327.64 178.27,-313.81 156.04,-303.72"/>
<polygon fill="midnightblue" stroke="midnightblue" points="157.32,-300.46 146.77,-299.52 154.43,-306.84 157.32,-300.46"/>
</g>
<!-- Node12&#45;&gt;Node2 -->
<g id="edge17" class="edge">
<title>Node12&#45;&gt;Node2</title>
<path fill="none" stroke="midnightblue" d="M150.82,-280.44C174.83,-271.44 212.83,-257.19 239.87,-247.05"/>
<polygon fill="midnightblue" stroke="midnightblue" points="241.16,-250.3 249.29,-243.52 238.7,-243.75 241.16,-250.3"/>
</g>
<!-- Node13 -->
<g id="node13" class="node">
<title>Node13</title>
<g id="a_node13"><a xlink:title=" ">
<polygon fill="none" stroke="#bfbfbf" points="91,-224.5 91,-243.5 165,-243.5 165,-224.5 91,-224.5"/>
<text text-anchor="middle" x="128" y="-231.5" font-family="Helvetica,sans-Serif" font-size="10.00">gsl/pointers</text>
</a>
</g>
</g>
<!-- Node12&#45;&gt;Node13 -->
<g id="edge18" class="edge">
<title>Node12&#45;&gt;Node13</title>
<path fill="none" stroke="midnightblue" d="M128,-280.08C128,-273.01 128,-262.86 128,-253.99"/>
<polygon fill="midnightblue" stroke="midnightblue" points="131.5,-253.75 128,-243.75 124.5,-253.75 131.5,-253.75"/>
</g>
<!-- Node15 -->
<g id="node15" class="node">
<title>Node15</title>
<g id="a_node15"><a xlink:title=" ">
<polygon fill="none" stroke="#bfbfbf" points="418,-280.5 418,-299.5 462,-299.5 462,-280.5 418,-280.5"/>
<text text-anchor="middle" x="440" y="-287.5" font-family="Helvetica,sans-Serif" font-size="10.00">string</text>
</a>
</g>
</g>
<!-- Node14&#45;&gt;Node15 -->
<g id="edge20" class="edge">
<title>Node14&#45;&gt;Node15</title>
<path fill="none" stroke="midnightblue" d="M489.52,-336.32C480.8,-328.34 467.66,-316.31 457.1,-306.65"/>
<polygon fill="midnightblue" stroke="midnightblue" points="459.39,-304 449.65,-299.83 454.67,-309.17 459.39,-304"/>
</g>
<!-- Node16 -->
<g id="node16" class="node">
<title>Node16</title>
<g id="a_node16"><a xlink:href="abcgExternal_8hpp.html" target="_top" xlink:title="Header file for including third&#45;party dependencies.">
<polygon fill="none" stroke="black" points="480.5,-280.5 480.5,-299.5 581.5,-299.5 581.5,-280.5 480.5,-280.5"/>
<text text-anchor="middle" x="531" y="-287.5" font-family="Helvetica,sans-Serif" font-size="10.00">abcgExternal.hpp</text>
</a>
</g>
</g>
<!-- Node14&#45;&gt;Node16 -->
<g id="edge21" class="edge">
<title>Node14&#45;&gt;Node16</title>
<path fill="none" stroke="midnightblue" d="M504.28,-336.08C508.71,-328.61 515.16,-317.72 520.62,-308.52"/>
<polygon fill="midnightblue" stroke="midnightblue" points="523.73,-310.14 525.81,-299.75 517.71,-306.57 523.73,-310.14"/>
</g>
<!-- Node17 -->
<g id="node17" class="node">
<title>Node17</title>
<g id="a_node17"><a xlink:href="abcgTimer_8hpp.html" target="_top" xlink:title="Header file of abcg::Timer.">
<polygon fill="none" stroke="black" points="599.5,-280.5 599.5,-299.5 688.5,-299.5 688.5,-280.5 599.5,-280.5"/>
<text text-anchor="middle" x="644" y="-287.5" font-family="Helvetica,sans-Serif" font-size="10.00">abcgTimer.hpp</text>
</a>
</g>
</g>
<!-- Node14&#45;&gt;Node17 -->
<g id="edge22" class="edge">
<title>Node14&#45;&gt;Node17</title>
<path fill="none" stroke="midnightblue" d="M521.98,-336.44C546.16,-327.44 584.42,-313.19 611.65,-303.05"/>
<polygon fill="midnightblue" stroke="midnightblue" points="612.98,-306.29 621.13,-299.52 610.54,-299.73 612.98,-306.29"/>
</g>
<!-- Node18 -->
<g id="node18" class="node">
<title>Node18</title>
<g id="a_node18"><a xlink:title=" ">
<polygon fill="none" stroke="#bfbfbf" points="619,-224.5 619,-243.5 669,-243.5 669,-224.5 619,-224.5"/>
<text text-anchor="middle" x="644" y="-231.5" font-family="Helvetica,sans-Serif" font-size="10.00">chrono</text>
</a>
</g>
</g>
<!-- Node17&#45;&gt;Node18 -->
<g id="edge23" class="edge">
<title>Node17&#45;&gt;Node18</title>
<path fill="none" stroke="midnightblue" d="M644,-280.08C644,-273.01 644,-262.86 644,-253.99"/>
<polygon fill="midnightblue" stroke="midnightblue" points="647.5,-253.75 644,-243.75 640.5,-253.75 647.5,-253.75"/>
</g>
</g>
</svg>
