<?xml version="1.0" encoding="UTF-8" standalone="no"?>
<!DOCTYPE svg PUBLIC "-//W3C//DTD SVG 1.1//EN"
 "http://www.w3.org/Graphics/SVG/1.1/DTD/svg11.dtd">
<!-- Generated by graphviz version 2.43.0 (0)
 -->
<!-- Title: /home/harlen/dev/abcg/abcg/abcgVulkanPhysicalDevice.hpp Pages: 1 -->
<svg width="1238pt" height="434pt"
 viewBox="0.00 0.00 1238.00 434.00" xmlns="http://www.w3.org/2000/svg" xmlns:xlink="http://www.w3.org/1999/xlink">
<g id="graph0" class="graph" transform="scale(1 1) rotate(0) translate(4 430)">
<title>/home/harlen/dev/abcg/abcg/abcgVulkanPhysicalDevice.hpp</title>
<!-- Node1 -->
<g id="Node000001" class="node">
<title>Node1</title>
<g id="a_Node000001"><a xlink:title="Header file of abcg::VulkanPhysicalDevice.">
<polygon fill="#999999" stroke="#666666" points="1085.5,-426 888.5,-426 888.5,-396 1085.5,-396 1085.5,-426"/>
<text text-anchor="start" x="896.5" y="-414" font-family="Helvetica,sans-Serif" font-size="10.00">/home/harlen/dev/abcg</text>
<text text-anchor="middle" x="987" y="-403" font-family="Helvetica,sans-Serif" font-size="10.00">/abcg/abcgVulkanPhysicalDevice.hpp</text>
</a>
</g>
</g>
<!-- Node2 -->
<g id="Node000002" class="node">
<title>Node2</title>
<g id="a_Node000002"><a xlink:href="abcgVulkanDevice_8hpp.html" target="_top" xlink:title="Header file of abcg::VulkanDevice.">
<polygon fill="white" stroke="#666666" points="777,-360 621,-360 621,-330 777,-330 777,-360"/>
<text text-anchor="start" x="629" y="-348" font-family="Helvetica,sans-Serif" font-size="10.00">/home/harlen/dev/abcg</text>
<text text-anchor="middle" x="699" y="-337" font-family="Helvetica,sans-Serif" font-size="10.00">/abcg/abcgVulkanDevice.hpp</text>
</a>
</g>
</g>
<!-- Node1&#45;&gt;Node2 -->
<g id="edge1_Node000001_Node000002" class="edge">
<title>Node1&#45;&gt;Node2</title>
<g id="a_edge1_Node000001_Node000002"><a xlink:title=" ">
<path fill="none" stroke="#63b8ff" d="M914.01,-393.78C867.13,-383.36 806.85,-369.97 762.06,-360.01"/>
<polygon fill="#63b8ff" stroke="#63b8ff" points="913.28,-397.2 923.8,-395.95 914.79,-390.37 913.28,-397.2"/>
</a>
</g>
</g>
<!-- Node13 -->
<g id="Node000013" class="node">
<title>Node13</title>
<g id="a_Node000013"><a xlink:href="abcgVulkanSwapchain_8cpp.html" target="_top" xlink:title="Definition of abcg::VulkanSwapchain.">
<polygon fill="white" stroke="#666666" points="1054,-96 880,-96 880,-66 1054,-66 1054,-96"/>
<text text-anchor="start" x="888" y="-84" font-family="Helvetica,sans-Serif" font-size="10.00">/home/harlen/dev/abcg</text>
<text text-anchor="middle" x="967" y="-73" font-family="Helvetica,sans-Serif" font-size="10.00">/abcg/abcgVulkanSwapchain.cpp</text>
</a>
</g>
</g>
<!-- Node1&#45;&gt;Node13 -->
<g id="edge28_Node000001_Node000013" class="edge">
<title>Node1&#45;&gt;Node13</title>
<g id="a_edge28_Node000001_Node000013"><a xlink:title=" ">
<path fill="none" stroke="#63b8ff" d="M992.73,-385.6C998.32,-359.59 1006,-317.12 1006,-280 1006,-280 1006,-280 1006,-212 1006,-168.17 985.41,-119.41 974.15,-96.01"/>
<polygon fill="#63b8ff" stroke="#63b8ff" points="989.24,-385.15 990.48,-395.67 996.07,-386.67 989.24,-385.15"/>
</a>
</g>
</g>
<!-- Node14 -->
<g id="Node000014" class="node">
<title>Node14</title>
<g id="a_Node000014"><a xlink:href="abcgVulkanWindow_8hpp.html" target="_top" xlink:title="Header file of abcg::VulkanWindow.">
<polygon fill="white" stroke="#666666" points="901.5,-162 740.5,-162 740.5,-132 901.5,-132 901.5,-162"/>
<text text-anchor="start" x="748.5" y="-150" font-family="Helvetica,sans-Serif" font-size="10.00">/home/harlen/dev/abcg</text>
<text text-anchor="middle" x="821" y="-139" font-family="Helvetica,sans-Serif" font-size="10.00">/abcg/abcgVulkanWindow.hpp</text>
</a>
</g>
</g>
<!-- Node1&#45;&gt;Node14 -->
<g id="edge29_Node000001_Node000014" class="edge">
<title>Node1&#45;&gt;Node14</title>
<g id="a_edge29_Node000001_Node000014"><a xlink:title=" ">
<path fill="none" stroke="#63b8ff" d="M976.33,-386.4C962.64,-356.91 937.48,-305.32 911,-264 886.11,-225.16 851.42,-183.25 833.24,-162.03"/>
<polygon fill="#63b8ff" stroke="#63b8ff" points="973.32,-388.23 980.68,-395.85 979.68,-385.3 973.32,-388.23"/>
</a>
</g>
</g>
<!-- Node18 -->
<g id="Node000018" class="node">
<title>Node18</title>
<g id="a_Node000018"><a xlink:href="abcgVulkanPhysicalDevice_8cpp.html" target="_top" xlink:title="Definition of abcg::VulkanPhysicalDevice.">
<polygon fill="white" stroke="#666666" points="1230,-360 1034,-360 1034,-330 1230,-330 1230,-360"/>
<text text-anchor="start" x="1042" y="-348" font-family="Helvetica,sans-Serif" font-size="10.00">/home/harlen/dev/abcg</text>
<text text-anchor="middle" x="1132" y="-337" font-family="Helvetica,sans-Serif" font-size="10.00">/abcg/abcgVulkanPhysicalDevice.cpp</text>
</a>
</g>
</g>
<!-- Node1&#45;&gt;Node18 -->
<g id="edge27_Node000001_Node000018" class="edge">
<title>Node1&#45;&gt;Node18</title>
<g id="a_edge27_Node000001_Node000018"><a xlink:title=" ">
<path fill="none" stroke="#63b8ff" d="M1028.27,-391.78C1051.13,-381.69 1079.12,-369.34 1100.25,-360.01"/>
<polygon fill="#63b8ff" stroke="#63b8ff" points="1026.56,-388.71 1018.82,-395.95 1029.38,-395.12 1026.56,-388.71"/>
</a>
</g>
</g>
<!-- Node3 -->
<g id="Node000003" class="node">
<title>Node3</title>
<g id="a_Node000003"><a xlink:href="abcgVulkanBuffer_8hpp.html" target="_top" xlink:title="Header file of abcg::VulkanBuffer.">
<polygon fill="white" stroke="#666666" points="303.5,-294 152.5,-294 152.5,-264 303.5,-264 303.5,-294"/>
<text text-anchor="start" x="160.5" y="-282" font-family="Helvetica,sans-Serif" font-size="10.00">/home/harlen/dev/abcg</text>
<text text-anchor="middle" x="228" y="-271" font-family="Helvetica,sans-Serif" font-size="10.00">/abcg/abcgVulkanBuffer.hpp</text>
</a>
</g>
</g>
<!-- Node2&#45;&gt;Node3 -->
<g id="edge2_Node000002_Node000003" class="edge">
<title>Node2&#45;&gt;Node3</title>
<g id="a_edge2_Node000002_Node000003"><a xlink:title=" ">
<path fill="none" stroke="#63b8ff" d="M610.95,-332.04C522.52,-320.02 387.68,-301.7 303.85,-290.31"/>
<polygon fill="#63b8ff" stroke="#63b8ff" points="610.58,-335.52 620.96,-333.4 611.52,-328.58 610.58,-335.52"/>
</a>
</g>
</g>
<!-- Node8 -->
<g id="Node000008" class="node">
<title>Node8</title>
<g id="a_Node000008"><a xlink:href="abcgVulkanDevice_8cpp.html" target="_top" xlink:title="Definition of abcg::VulkanDevice.">
<polygon fill="white" stroke="#666666" points="901.5,-294 746.5,-294 746.5,-264 901.5,-264 901.5,-294"/>
<text text-anchor="start" x="754.5" y="-282" font-family="Helvetica,sans-Serif" font-size="10.00">/home/harlen/dev/abcg</text>
<text text-anchor="middle" x="824" y="-271" font-family="Helvetica,sans-Serif" font-size="10.00">/abcg/abcgVulkanDevice.cpp</text>
</a>
</g>
</g>
<!-- Node2&#45;&gt;Node8 -->
<g id="edge7_Node000002_Node000008" class="edge">
<title>Node2&#45;&gt;Node8</title>
<g id="a_edge7_Node000002_Node000008"><a xlink:title=" ">
<path fill="none" stroke="#63b8ff" d="M735.37,-325.38C754.93,-315.36 778.65,-303.22 796.63,-294.01"/>
<polygon fill="#63b8ff" stroke="#63b8ff" points="733.74,-322.28 726.43,-329.95 736.93,-328.51 733.74,-322.28"/>
</a>
</g>
</g>
<!-- Node9 -->
<g id="Node000009" class="node">
<title>Node9</title>
<g id="a_Node000009"><a xlink:href="abcgVulkanImage_8hpp.html" target="_top" xlink:title="Header file of abcg::VulkanImage.">
<polygon fill="white" stroke="#666666" points="642.5,-294 489.5,-294 489.5,-264 642.5,-264 642.5,-294"/>
<text text-anchor="start" x="497.5" y="-282" font-family="Helvetica,sans-Serif" font-size="10.00">/home/harlen/dev/abcg</text>
<text text-anchor="middle" x="566" y="-271" font-family="Helvetica,sans-Serif" font-size="10.00">/abcg/abcgVulkanImage.hpp</text>
</a>
</g>
</g>
<!-- Node2&#45;&gt;Node9 -->
<g id="edge8_Node000002_Node000009" class="edge">
<title>Node2&#45;&gt;Node9</title>
<g id="a_edge8_Node000002_Node000009"><a xlink:title=" ">
<path fill="none" stroke="#63b8ff" d="M660.58,-325.51C639.72,-315.47 614.33,-303.26 595.12,-294.01"/>
<polygon fill="#63b8ff" stroke="#63b8ff" points="659.28,-328.77 669.81,-329.95 662.32,-322.46 659.28,-328.77"/>
</a>
</g>
</g>
<!-- Node10 -->
<g id="Node000010" class="node">
<title>Node10</title>
<g id="a_Node000010"><a xlink:href="abcgVulkanSwapchain_8hpp.html" target="_top" xlink:title="Header file of abcg::VulkanSwapchain.">
<polygon fill="white" stroke="#666666" points="763.5,-228 588.5,-228 588.5,-198 763.5,-198 763.5,-228"/>
<text text-anchor="start" x="596.5" y="-216" font-family="Helvetica,sans-Serif" font-size="10.00">/home/harlen/dev/abcg</text>
<text text-anchor="middle" x="676" y="-205" font-family="Helvetica,sans-Serif" font-size="10.00">/abcg/abcgVulkanSwapchain.hpp</text>
</a>
</g>
</g>
<!-- Node2&#45;&gt;Node10 -->
<g id="edge25_Node000002_Node000010" class="edge">
<title>Node2&#45;&gt;Node10</title>
<g id="a_edge25_Node000002_Node000010"><a xlink:title=" ">
<path fill="none" stroke="#63b8ff" d="M694.7,-319.68C689.92,-292.7 682.39,-250.11 678.5,-228.14"/>
<polygon fill="#63b8ff" stroke="#63b8ff" points="691.31,-320.6 696.49,-329.84 698.2,-319.38 691.31,-320.6"/>
</a>
</g>
</g>
<!-- Node2&#45;&gt;Node13 -->
<g id="edge24_Node000002_Node000013" class="edge">
<title>Node2&#45;&gt;Node13</title>
<g id="a_edge24_Node000002_Node000013"><a xlink:title=" ">
<path fill="none" stroke="#63b8ff" d="M786.97,-332.51C836.96,-324.24 893.06,-311.47 911,-294 967.59,-238.89 969.24,-133.84 967.83,-96.01"/>
<polygon fill="#63b8ff" stroke="#63b8ff" points="786.38,-329.05 777.07,-334.1 787.5,-335.97 786.38,-329.05"/>
</a>
</g>
</g>
<!-- Node2&#45;&gt;Node14 -->
<g id="edge26_Node000002_Node000014" class="edge">
<title>Node2&#45;&gt;Node14</title>
<g id="a_edge26_Node000002_Node000014"><a xlink:title=" ">
<path fill="none" stroke="#63b8ff" d="M708.11,-320.49C715.07,-303.95 725.57,-281.69 738,-264 750.83,-245.74 759.39,-245.69 773,-228 789.59,-206.43 805.08,-178.72 813.77,-162.22"/>
<polygon fill="#63b8ff" stroke="#63b8ff" points="704.79,-319.38 704.25,-329.96 711.27,-322.03 704.79,-319.38"/>
</a>
</g>
</g>
<!-- Node16 -->
<g id="Node000016" class="node">
<title>Node16</title>
<g id="a_Node000016"><a xlink:href="abcgVulkanShader_8hpp.html" target="_top" xlink:title="Declaration of helper functions for creating Vulkan shaders.">
<polygon fill="white" stroke="#666666" points="361.5,-228 206.5,-228 206.5,-198 361.5,-198 361.5,-228"/>
<text text-anchor="start" x="214.5" y="-216" font-family="Helvetica,sans-Serif" font-size="10.00">/home/harlen/dev/abcg</text>
<text text-anchor="middle" x="284" y="-205" font-family="Helvetica,sans-Serif" font-size="10.00">/abcg/abcgVulkanShader.hpp</text>
</a>
</g>
</g>
<!-- Node2&#45;&gt;Node16 -->
<g id="edge20_Node000002_Node000016" class="edge">
<title>Node2&#45;&gt;Node16</title>
<g id="a_edge20_Node000002_Node000016"><a xlink:title=" ">
<path fill="none" stroke="#63b8ff" d="M613.76,-327.91C572.88,-319.34 523.46,-307.73 480,-294 419.72,-274.96 351.96,-245.39 313.99,-228.04"/>
<polygon fill="#63b8ff" stroke="#63b8ff" points="613.19,-331.37 623.69,-329.97 614.61,-324.51 613.19,-331.37"/>
</a>
</g>
</g>
<!-- Node4 -->
<g id="Node000004" class="node">
<title>Node4</title>
<g id="a_Node000004"><a xlink:href="abcgVulkan_8hpp.html" target="_top" xlink:title="Header file for Vulkan&#45;related functions and classes.">
<polygon fill="white" stroke="#666666" points="504,-96 376,-96 376,-66 504,-66 504,-96"/>
<text text-anchor="start" x="384" y="-84" font-family="Helvetica,sans-Serif" font-size="10.00">/home/harlen/dev/abcg</text>
<text text-anchor="middle" x="440" y="-73" font-family="Helvetica,sans-Serif" font-size="10.00">/abcg/abcgVulkan.hpp</text>
</a>
</g>
</g>
<!-- Node3&#45;&gt;Node4 -->
<g id="edge3_Node000003_Node000004" class="edge">
<title>Node3&#45;&gt;Node4</title>
<g id="a_edge3_Node000003_Node000004"><a xlink:title=" ">
<path fill="none" stroke="#63b8ff" d="M209.21,-255.44C198.05,-239.16 187.72,-216.82 197,-198 229.87,-131.34 315.65,-102.73 375.93,-90.63"/>
<polygon fill="#63b8ff" stroke="#63b8ff" points="206.62,-257.84 215.38,-263.81 212.26,-253.68 206.62,-257.84"/>
</a>
</g>
</g>
<!-- Node6 -->
<g id="Node000006" class="node">
<title>Node6</title>
<g id="a_Node000006"><a xlink:href="abcgVulkanBuffer_8cpp.html" target="_top" xlink:title="Definition of abcg::VulkanBuffer.">
<polygon fill="white" stroke="#666666" points="150,-228 0,-228 0,-198 150,-198 150,-228"/>
<text text-anchor="start" x="8" y="-216" font-family="Helvetica,sans-Serif" font-size="10.00">/home/harlen/dev/abcg</text>
<text text-anchor="middle" x="75" y="-205" font-family="Helvetica,sans-Serif" font-size="10.00">/abcg/abcgVulkanBuffer.cpp</text>
</a>
</g>
</g>
<!-- Node3&#45;&gt;Node6 -->
<g id="edge5_Node000003_Node000006" class="edge">
<title>Node3&#45;&gt;Node6</title>
<g id="a_edge5_Node000003_Node000006"><a xlink:title=" ">
<path fill="none" stroke="#63b8ff" d="M185.1,-260.05C160.86,-249.91 131,-237.43 108.5,-228.01"/>
<polygon fill="#63b8ff" stroke="#63b8ff" points="183.85,-263.32 194.42,-263.95 186.55,-256.87 183.85,-263.32"/>
</a>
</g>
</g>
<!-- Node7 -->
<g id="Node000007" class="node">
<title>Node7</title>
<g id="a_Node000007"><a xlink:href="abcgVulkanImage_8cpp.html" target="_top" xlink:title="Definition of abcg::VulkanImage.">
<polygon fill="white" stroke="#666666" points="532,-228 380,-228 380,-198 532,-198 532,-228"/>
<text text-anchor="start" x="388" y="-216" font-family="Helvetica,sans-Serif" font-size="10.00">/home/harlen/dev/abcg</text>
<text text-anchor="middle" x="456" y="-205" font-family="Helvetica,sans-Serif" font-size="10.00">/abcg/abcgVulkanImage.cpp</text>
</a>
</g>
</g>
<!-- Node3&#45;&gt;Node7 -->
<g id="edge6_Node000003_Node000007" class="edge">
<title>Node3&#45;&gt;Node7</title>
<g id="a_edge6_Node000003_Node000007"><a xlink:title=" ">
<path fill="none" stroke="#63b8ff" d="M288.13,-261.12C324.89,-250.8 371.36,-237.76 406.08,-228.01"/>
<polygon fill="#63b8ff" stroke="#63b8ff" points="286.72,-257.88 278.04,-263.95 288.61,-264.62 286.72,-257.88"/>
</a>
</g>
</g>
<!-- Node5 -->
<g id="Node000005" class="node">
<title>Node5</title>
<g id="a_Node000005"><a xlink:href="abcgVulkanInstance_8cpp.html" target="_top" xlink:title="Definition of abcg::VulkanInstance.">
<polygon fill="white" stroke="#666666" points="521.5,-30 358.5,-30 358.5,0 521.5,0 521.5,-30"/>
<text text-anchor="start" x="366.5" y="-18" font-family="Helvetica,sans-Serif" font-size="10.00">/home/harlen/dev/abcg</text>
<text text-anchor="middle" x="440" y="-7" font-family="Helvetica,sans-Serif" font-size="10.00">/abcg/abcgVulkanInstance.cpp</text>
</a>
</g>
</g>
<!-- Node4&#45;&gt;Node5 -->
<g id="edge4_Node000004_Node000005" class="edge">
<title>Node4&#45;&gt;Node5</title>
<g id="a_edge4_Node000004_Node000005"><a xlink:title=" ">
<path fill="none" stroke="#63b8ff" d="M440,-55.54C440,-46.96 440,-37.61 440,-30.16"/>
<polygon fill="#63b8ff" stroke="#63b8ff" points="436.5,-55.8 440,-65.8 443.5,-55.8 436.5,-55.8"/>
</a>
</g>
</g>
<!-- Node9&#45;&gt;Node4 -->
<g id="edge9_Node000009_Node000004" class="edge">
<title>Node9&#45;&gt;Node4</title>
<g id="a_edge9_Node000009_Node000004"><a xlink:title=" ">
<path fill="none" stroke="#63b8ff" d="M561.26,-254.08C557.36,-237.61 550.84,-215.61 541,-198 534.62,-186.58 478.8,-124.65 452.99,-96.25"/>
<polygon fill="#63b8ff" stroke="#63b8ff" points="557.88,-254.99 563.46,-264 564.71,-253.48 557.88,-254.99"/>
</a>
</g>
</g>
<!-- Node9&#45;&gt;Node7 -->
<g id="edge10_Node000009_Node000007" class="edge">
<title>Node9&#45;&gt;Node7</title>
<g id="a_edge10_Node000009_Node000007"><a xlink:title=" ">
<path fill="none" stroke="#63b8ff" d="M532.82,-258.69C515.84,-248.82 495.55,-237.01 480.08,-228.01"/>
<polygon fill="#63b8ff" stroke="#63b8ff" points="531.46,-261.95 541.86,-263.95 534.98,-255.9 531.46,-261.95"/>
</a>
</g>
</g>
<!-- Node9&#45;&gt;Node10 -->
<g id="edge11_Node000009_Node000010" class="edge">
<title>Node9&#45;&gt;Node10</title>
<g id="a_edge11_Node000009_Node000010"><a xlink:title=" ">
<path fill="none" stroke="#63b8ff" d="M599.18,-258.69C616.16,-248.82 636.45,-237.01 651.92,-228.01"/>
<polygon fill="#63b8ff" stroke="#63b8ff" points="597.02,-255.9 590.14,-263.95 600.54,-261.95 597.02,-255.9"/>
</a>
</g>
</g>
<!-- Node11 -->
<g id="Node000011" class="node">
<title>Node11</title>
<g id="a_Node000011"><a xlink:href="abcgVulkanPipeline_8hpp.html" target="_top" xlink:title="Header file of abcg::VulkanPipeline.">
<polygon fill="white" stroke="#666666" points="683.5,-162 522.5,-162 522.5,-132 683.5,-132 683.5,-162"/>
<text text-anchor="start" x="530.5" y="-150" font-family="Helvetica,sans-Serif" font-size="10.00">/home/harlen/dev/abcg</text>
<text text-anchor="middle" x="603" y="-139" font-family="Helvetica,sans-Serif" font-size="10.00">/abcg/abcgVulkanPipeline.hpp</text>
</a>
</g>
</g>
<!-- Node10&#45;&gt;Node11 -->
<g id="edge12_Node000010_Node000011" class="edge">
<title>Node10&#45;&gt;Node11</title>
<g id="a_edge12_Node000010_Node000011"><a xlink:title=" ">
<path fill="none" stroke="#63b8ff" d="M652.28,-191.2C641.44,-181.7 628.88,-170.69 619.16,-162.16"/>
<polygon fill="#63b8ff" stroke="#63b8ff" points="649.97,-193.84 659.8,-197.8 654.59,-188.57 649.97,-193.84"/>
</a>
</g>
</g>
<!-- Node10&#45;&gt;Node13 -->
<g id="edge15_Node000010_Node000013" class="edge">
<title>Node10&#45;&gt;Node13</title>
<g id="a_edge15_Node000010_Node000013"><a xlink:title=" ">
<path fill="none" stroke="#63b8ff" d="M686.26,-188.82C695.56,-170.54 711.03,-145.88 732,-132 745.11,-123.32 824.27,-107.53 887.14,-96"/>
<polygon fill="#63b8ff" stroke="#63b8ff" points="683.04,-187.43 681.84,-197.96 689.34,-190.48 683.04,-187.43"/>
</a>
</g>
</g>
<!-- Node10&#45;&gt;Node14 -->
<g id="edge16_Node000010_Node000014" class="edge">
<title>Node10&#45;&gt;Node14</title>
<g id="a_edge16_Node000010_Node000014"><a xlink:title=" ">
<path fill="none" stroke="#63b8ff" d="M717.27,-193.78C740.13,-183.69 768.12,-171.34 789.25,-162.01"/>
<polygon fill="#63b8ff" stroke="#63b8ff" points="715.56,-190.71 707.82,-197.95 718.38,-197.12 715.56,-190.71"/>
</a>
</g>
</g>
<!-- Node11&#45;&gt;Node4 -->
<g id="edge13_Node000011_Node000004" class="edge">
<title>Node11&#45;&gt;Node4</title>
<g id="a_edge13_Node000011_Node000004"><a xlink:title=" ">
<path fill="none" stroke="#63b8ff" d="M557.64,-128.19C531.75,-118.02 499.77,-105.47 475.69,-96.01"/>
<polygon fill="#63b8ff" stroke="#63b8ff" points="556.64,-131.56 567.23,-131.95 559.2,-125.04 556.64,-131.56"/>
</a>
</g>
</g>
<!-- Node12 -->
<g id="Node000012" class="node">
<title>Node12</title>
<g id="a_Node000012"><a xlink:href="abcgVulkanPipeline_8cpp.html" target="_top" xlink:title="Definition of abcg::VulkanPipeline.">
<polygon fill="white" stroke="#666666" points="683.5,-96 522.5,-96 522.5,-66 683.5,-66 683.5,-96"/>
<text text-anchor="start" x="530.5" y="-84" font-family="Helvetica,sans-Serif" font-size="10.00">/home/harlen/dev/abcg</text>
<text text-anchor="middle" x="603" y="-73" font-family="Helvetica,sans-Serif" font-size="10.00">/abcg/abcgVulkanPipeline.cpp</text>
</a>
</g>
</g>
<!-- Node11&#45;&gt;Node12 -->
<g id="edge14_Node000011_Node000012" class="edge">
<title>Node11&#45;&gt;Node12</title>
<g id="a_edge14_Node000011_Node000012"><a xlink:title=" ">
<path fill="none" stroke="#63b8ff" d="M603,-121.54C603,-112.96 603,-103.61 603,-96.16"/>
<polygon fill="#63b8ff" stroke="#63b8ff" points="599.5,-121.8 603,-131.8 606.5,-121.8 599.5,-121.8"/>
</a>
</g>
</g>
<!-- Node14&#45;&gt;Node4 -->
<g id="edge17_Node000014_Node000004" class="edge">
<title>Node14&#45;&gt;Node4</title>
<g id="a_edge17_Node000014_Node000004"><a xlink:title=" ">
<path fill="none" stroke="#63b8ff" d="M730.43,-131.99C669,-122.32 586.02,-108.93 513,-96 510.08,-95.48 507.09,-94.95 504.07,-94.4"/>
<polygon fill="#63b8ff" stroke="#63b8ff" points="730.06,-135.48 740.48,-133.57 731.14,-128.56 730.06,-135.48"/>
</a>
</g>
</g>
<!-- Node14&#45;&gt;Node13 -->
<g id="edge18_Node000014_Node000013" class="edge">
<title>Node14&#45;&gt;Node13</title>
<g id="a_edge18_Node000014_Node000013"><a xlink:title=" ">
<path fill="none" stroke="#63b8ff" d="M862.25,-127.92C885.32,-117.8 913.66,-105.38 935.03,-96.01"/>
<polygon fill="#63b8ff" stroke="#63b8ff" points="860.79,-124.73 853.04,-131.95 863.6,-131.15 860.79,-124.73"/>
</a>
</g>
</g>
<!-- Node15 -->
<g id="Node000015" class="node">
<title>Node15</title>
<g id="a_Node000015"><a xlink:href="abcgVulkanWindow_8cpp.html" target="_top" xlink:title="Definition of abcg::VulkanWindow members.">
<polygon fill="white" stroke="#666666" points="862,-96 702,-96 702,-66 862,-66 862,-96"/>
<text text-anchor="start" x="710" y="-84" font-family="Helvetica,sans-Serif" font-size="10.00">/home/harlen/dev/abcg</text>
<text text-anchor="middle" x="782" y="-73" font-family="Helvetica,sans-Serif" font-size="10.00">/abcg/abcgVulkanWindow.cpp</text>
</a>
</g>
</g>
<!-- Node14&#45;&gt;Node15 -->
<g id="edge19_Node000014_Node000015" class="edge">
<title>Node14&#45;&gt;Node15</title>
<g id="a_edge19_Node000014_Node000015"><a xlink:title=" ">
<path fill="none" stroke="#63b8ff" d="M807.13,-123.24C801.63,-114.21 795.47,-104.11 790.63,-96.16"/>
<polygon fill="#63b8ff" stroke="#63b8ff" points="804.15,-125.08 812.34,-131.8 810.13,-121.44 804.15,-125.08"/>
</a>
</g>
</g>
<!-- Node16&#45;&gt;Node4 -->
<g id="edge21_Node000016_Node000004" class="edge">
<title>Node16&#45;&gt;Node4</title>
<g id="a_edge21_Node000016_Node000004"><a xlink:title=" ">
<path fill="none" stroke="#63b8ff" d="M283.22,-187.74C283.94,-170.29 287.7,-147.24 301,-132 319.97,-110.26 349.11,-97.97 375.82,-91.03"/>
<polygon fill="#63b8ff" stroke="#63b8ff" points="279.72,-187.72 283.1,-197.76 286.72,-187.8 279.72,-187.72"/>
</a>
</g>
</g>
<!-- Node16&#45;&gt;Node11 -->
<g id="edge22_Node000016_Node000011" class="edge">
<title>Node16&#45;&gt;Node11</title>
<g id="a_edge22_Node000016_Node000011"><a xlink:title=" ">
<path fill="none" stroke="#63b8ff" d="M363.87,-195.98C415.94,-185.53 483.23,-172.03 533.16,-162.01"/>
<polygon fill="#63b8ff" stroke="#63b8ff" points="363.12,-192.56 354.01,-197.95 364.5,-199.42 363.12,-192.56"/>
</a>
</g>
</g>
<!-- Node17 -->
<g id="Node000017" class="node">
<title>Node17</title>
<g id="a_Node000017"><a xlink:href="abcgVulkanShader_8cpp.html" target="_top" xlink:title="Definition of helper functions for creating Vulkan shaders.">
<polygon fill="white" stroke="#666666" points="465.5,-162 310.5,-162 310.5,-132 465.5,-132 465.5,-162"/>
<text text-anchor="start" x="318.5" y="-150" font-family="Helvetica,sans-Serif" font-size="10.00">/home/harlen/dev/abcg</text>
<text text-anchor="middle" x="388" y="-139" font-family="Helvetica,sans-Serif" font-size="10.00">/abcg/abcgVulkanShader.cpp</text>
</a>
</g>
</g>
<!-- Node16&#45;&gt;Node17 -->
<g id="edge23_Node000016_Node000017" class="edge">
<title>Node16&#45;&gt;Node17</title>
<g id="a_edge23_Node000016_Node000017"><a xlink:title=" ">
<path fill="none" stroke="#63b8ff" d="M315.37,-192.69C331.43,-182.82 350.61,-171.01 365.23,-162.01"/>
<polygon fill="#63b8ff" stroke="#63b8ff" points="313.51,-189.73 306.82,-197.95 317.17,-195.69 313.51,-189.73"/>
</a>
</g>
</g>
</g>
</svg>
