<?xml version="1.0" encoding="UTF-8" standalone="no"?>
<!DOCTYPE svg PUBLIC "-//W3C//DTD SVG 1.1//EN"
 "http://www.w3.org/Graphics/SVG/1.1/DTD/svg11.dtd">
<!-- Generated by graphviz version 2.43.0 (0)
 -->
<!-- Title: /home/harlen/dev/abcg/abcg/abcgVulkanSwapchain.cpp Pages: 1 -->
<svg width="1075pt" height="478pt"
 viewBox="0.00 0.00 1075.00 478.00" xmlns="http://www.w3.org/2000/svg" xmlns:xlink="http://www.w3.org/1999/xlink">
<g id="graph0" class="graph" transform="scale(1 1) rotate(0) translate(4 474)">
<title>/home/harlen/dev/abcg/abcg/abcgVulkanSwapchain.cpp</title>
<!-- Node1 -->
<g id="Node000001" class="node">
<title>Node1</title>
<g id="a_Node000001"><a xlink:title="Definition of abcg::VulkanSwapchain.">
<polygon fill="#999999" stroke="#666666" points="631,-470 457,-470 457,-440 631,-440 631,-470"/>
<text text-anchor="start" x="465" y="-458" font-family="Helvetica,sans-Serif" font-size="10.00">/home/harlen/dev/abcg</text>
<text text-anchor="middle" x="544" y="-447" font-family="Helvetica,sans-Serif" font-size="10.00">/abcg/abcgVulkanSwapchain.cpp</text>
</a>
</g>
</g>
<!-- Node2 -->
<g id="Node000002" class="node">
<title>Node2</title>
<g id="a_Node000002"><a xlink:href="abcgVulkanSwapchain_8hpp.html" target="_top" xlink:title="Header file of abcg::VulkanSwapchain.">
<polygon fill="white" stroke="#666666" points="308,-349 162,-349 162,-330 308,-330 308,-349"/>
<text text-anchor="middle" x="235" y="-337" font-family="Helvetica,sans-Serif" font-size="10.00">abcgVulkanSwapchain.hpp</text>
</a>
</g>
</g>
<!-- Node1&#45;&gt;Node2 -->
<g id="edge1_Node000001_Node000002" class="edge">
<title>Node1&#45;&gt;Node2</title>
<g id="a_edge1_Node000001_Node000002"><a xlink:title=" ">
<path fill="none" stroke="#63b8ff" d="M460.66,-439.98C422.4,-431.99 376.97,-420.26 338,-404 307.07,-391.09 274.68,-369.61 254.67,-355.25"/>
<polygon fill="#63b8ff" stroke="#63b8ff" points="256.54,-352.28 246.39,-349.21 252.41,-357.93 256.54,-352.28"/>
</a>
</g>
</g>
<!-- Node3 -->
<g id="Node000003" class="node">
<title>Node3</title>
<g id="a_Node000003"><a xlink:title=" ">
<polygon fill="#e0e0e0" stroke="#999999" points="70.5,-184 5.5,-184 5.5,-165 70.5,-165 70.5,-184"/>
<text text-anchor="middle" x="38" y="-172" font-family="Helvetica,sans-Serif" font-size="10.00">functional</text>
</a>
</g>
</g>
<!-- Node1&#45;&gt;Node3 -->
<g id="edge15_Node000001_Node000003" class="edge">
<title>Node1&#45;&gt;Node3</title>
<g id="a_edge15_Node000001_Node000003"><a xlink:title=" ">
<path fill="none" stroke="#63b8ff" d="M456.9,-453.59C303.22,-450.49 0,-432.7 0,-340.5 0,-340.5 0,-340.5 0,-283.5 0,-250.02 16.45,-213.84 27.7,-193.01"/>
<polygon fill="#63b8ff" stroke="#63b8ff" points="30.87,-194.53 32.72,-184.1 24.76,-191.1 30.87,-194.53"/>
</a>
</g>
</g>
<!-- Node5 -->
<g id="Node000005" class="node">
<title>Node5</title>
<g id="a_Node000005"><a xlink:href="abcgVulkanDevice_8hpp.html" target="_top" xlink:title="Header file of abcg::VulkanDevice.">
<polygon fill="white" stroke="#666666" points="355.5,-239 228.5,-239 228.5,-220 355.5,-220 355.5,-239"/>
<text text-anchor="middle" x="292" y="-227" font-family="Helvetica,sans-Serif" font-size="10.00">abcgVulkanDevice.hpp</text>
</a>
</g>
</g>
<!-- Node1&#45;&gt;Node5 -->
<g id="edge22_Node000001_Node000005" class="edge">
<title>Node1&#45;&gt;Node5</title>
<g id="a_edge22_Node000001_Node000005"><a xlink:title=" ">
<path fill="none" stroke="#63b8ff" d="M456.99,-442.36C430.25,-435.08 402.5,-423.23 382,-404 337.28,-362.03 365.25,-327.16 333,-275 326.54,-264.55 317.42,-254.35 309.42,-246.37"/>
<polygon fill="#63b8ff" stroke="#63b8ff" points="311.57,-243.58 301.94,-239.19 306.73,-248.63 311.57,-243.58"/>
</a>
</g>
</g>
<!-- Node6 -->
<g id="Node000006" class="node">
<title>Node6</title>
<g id="a_Node000006"><a xlink:href="abcgVulkanPhysicalDevice_8hpp.html" target="_top" xlink:title="Header file of abcg::VulkanPhysicalDevice.">
<polygon fill="white" stroke="#666666" points="622.5,-184 455.5,-184 455.5,-165 622.5,-165 622.5,-184"/>
<text text-anchor="middle" x="539" y="-172" font-family="Helvetica,sans-Serif" font-size="10.00">abcgVulkanPhysicalDevice.hpp</text>
</a>
</g>
</g>
<!-- Node1&#45;&gt;Node6 -->
<g id="edge23_Node000001_Node000006" class="edge">
<title>Node1&#45;&gt;Node6</title>
<g id="a_edge23_Node000001_Node000006"><a xlink:title=" ">
<path fill="none" stroke="#63b8ff" d="M629.81,-439.94C721.86,-422.37 855,-388.64 855,-340.5 855,-340.5 855,-340.5 855,-283.5 855,-232.46 705.5,-200.54 612.16,-185.58"/>
<polygon fill="#63b8ff" stroke="#63b8ff" points="612.61,-182.11 602.19,-184.01 611.52,-189.02 612.61,-182.11"/>
</a>
</g>
</g>
<!-- Node14 -->
<g id="Node000014" class="node">
<title>Node14</title>
<g id="a_Node000014"><a xlink:title=" ">
<polygon fill="#e0e0e0" stroke="#999999" points="931,-404 883,-404 883,-385 931,-385 931,-404"/>
<text text-anchor="middle" x="907" y="-392" font-family="Helvetica,sans-Serif" font-size="10.00">gsl/gsl</text>
</a>
</g>
</g>
<!-- Node1&#45;&gt;Node14 -->
<g id="edge16_Node000001_Node000014" class="edge">
<title>Node1&#45;&gt;Node14</title>
<g id="a_edge16_Node000001_Node000014"><a xlink:title=" ">
<path fill="none" stroke="#63b8ff" d="M631.18,-442.22C696.77,-432.95 788.78,-419.13 869,-404 870.27,-403.76 871.56,-403.51 872.87,-403.25"/>
<polygon fill="#63b8ff" stroke="#63b8ff" points="873.86,-406.62 882.93,-401.14 872.42,-399.77 873.86,-406.62"/>
</a>
</g>
</g>
<!-- Node15 -->
<g id="Node000015" class="node">
<title>Node15</title>
<g id="a_Node000015"><a xlink:title=" ">
<polygon fill="#e0e0e0" stroke="#999999" points="1067,-404 949,-404 949,-385 1067,-385 1067,-404"/>
<text text-anchor="middle" x="1008" y="-392" font-family="Helvetica,sans-Serif" font-size="10.00">imgui_impl_vulkan.h</text>
</a>
</g>
</g>
<!-- Node1&#45;&gt;Node15 -->
<g id="edge17_Node000001_Node000015" class="edge">
<title>Node1&#45;&gt;Node15</title>
<g id="a_edge17_Node000001_Node000015"><a xlink:title=" ">
<path fill="none" stroke="#63b8ff" d="M631,-443.03C720.18,-431.79 857.05,-414.53 939.03,-404.2"/>
<polygon fill="#63b8ff" stroke="#63b8ff" points="939.51,-407.66 948.99,-402.94 938.63,-400.72 939.51,-407.66"/>
</a>
</g>
</g>
<!-- Node16 -->
<g id="Node000016" class="node">
<title>Node16</title>
<g id="a_Node000016"><a xlink:href="abcgException_8hpp.html" target="_top" xlink:title="Header file of abcg::Exception and derived classes.">
<polygon fill="white" stroke="#666666" points="706.5,-404 597.5,-404 597.5,-385 706.5,-385 706.5,-404"/>
<text text-anchor="middle" x="652" y="-392" font-family="Helvetica,sans-Serif" font-size="10.00">abcgException.hpp</text>
</a>
</g>
</g>
<!-- Node1&#45;&gt;Node16 -->
<g id="edge18_Node000001_Node000016" class="edge">
<title>Node1&#45;&gt;Node16</title>
<g id="a_edge18_Node000001_Node000016"><a xlink:title=" ">
<path fill="none" stroke="#63b8ff" d="M569.87,-439.99C587.24,-430.58 610.01,-418.24 627.17,-408.95"/>
<polygon fill="#63b8ff" stroke="#63b8ff" points="628.92,-411.98 636.05,-404.14 625.59,-405.82 628.92,-411.98"/>
</a>
</g>
</g>
<!-- Node20 -->
<g id="Node000020" class="node">
<title>Node20</title>
<g id="a_Node000020"><a xlink:href="abcgVulkanWindow_8hpp.html" target="_top" xlink:title="Header file of abcg::VulkanWindow.">
<polygon fill="white" stroke="#666666" points="521.5,-404 390.5,-404 390.5,-385 521.5,-385 521.5,-404"/>
<text text-anchor="middle" x="456" y="-392" font-family="Helvetica,sans-Serif" font-size="10.00">abcgVulkanWindow.hpp</text>
</a>
</g>
</g>
<!-- Node1&#45;&gt;Node20 -->
<g id="edge24_Node000001_Node000020" class="edge">
<title>Node1&#45;&gt;Node20</title>
<g id="a_edge24_Node000001_Node000020"><a xlink:title=" ">
<path fill="none" stroke="#63b8ff" d="M522.7,-439.84C508.93,-430.68 491.07,-418.82 477.3,-409.66"/>
<polygon fill="#63b8ff" stroke="#63b8ff" points="479.19,-406.72 468.93,-404.09 475.32,-412.55 479.19,-406.72"/>
</a>
</g>
</g>
<!-- Node2&#45;&gt;Node3 -->
<g id="edge2_Node000002_Node000003" class="edge">
<title>Node2&#45;&gt;Node3</title>
<g id="a_edge2_Node000002_Node000003"><a xlink:title=" ">
<path fill="none" stroke="#63b8ff" d="M170.57,-329.95C126.13,-322.7 72.4,-310.78 57,-294 31.97,-266.72 32.53,-220.21 35.22,-194.32"/>
<polygon fill="#63b8ff" stroke="#63b8ff" points="38.7,-194.66 36.48,-184.3 31.76,-193.79 38.7,-194.66"/>
</a>
</g>
</g>
<!-- Node4 -->
<g id="Node000004" class="node">
<title>Node4</title>
<g id="a_Node000004"><a xlink:title=" ">
<polygon fill="#e0e0e0" stroke="#999999" points="323.5,-294 246.5,-294 246.5,-275 323.5,-275 323.5,-294"/>
<text text-anchor="middle" x="285" y="-282" font-family="Helvetica,sans-Serif" font-size="10.00">glm/fwd.hpp</text>
</a>
</g>
</g>
<!-- Node2&#45;&gt;Node4 -->
<g id="edge3_Node000002_Node000004" class="edge">
<title>Node2&#45;&gt;Node4</title>
<g id="a_edge3_Node000002_Node000004"><a xlink:title=" ">
<path fill="none" stroke="#63b8ff" d="M243.26,-329.75C250.46,-322.11 261.11,-310.82 269.85,-301.56"/>
<polygon fill="#63b8ff" stroke="#63b8ff" points="272.58,-303.76 276.9,-294.09 267.49,-298.96 272.58,-303.76"/>
</a>
</g>
</g>
<!-- Node2&#45;&gt;Node5 -->
<g id="edge4_Node000002_Node000005" class="edge">
<title>Node2&#45;&gt;Node5</title>
<g id="a_edge4_Node000002_Node000005"><a xlink:title=" ">
<path fill="none" stroke="#63b8ff" d="M233.28,-329.73C231.23,-316.94 229.1,-292.76 238,-275 244.31,-262.4 255.99,-252.08 266.87,-244.57"/>
<polygon fill="#63b8ff" stroke="#63b8ff" points="268.79,-247.5 275.32,-239.15 265.01,-241.6 268.79,-247.5"/>
</a>
</g>
</g>
<!-- Node12 -->
<g id="Node000012" class="node">
<title>Node12</title>
<g id="a_Node000012"><a xlink:href="abcgVulkanImage_8hpp.html" target="_top" xlink:title="Header file of abcg::VulkanImage.">
<polygon fill="white" stroke="#666666" points="190,-294 66,-294 66,-275 190,-275 190,-294"/>
<text text-anchor="middle" x="128" y="-282" font-family="Helvetica,sans-Serif" font-size="10.00">abcgVulkanImage.hpp</text>
</a>
</g>
</g>
<!-- Node2&#45;&gt;Node12 -->
<g id="edge12_Node000002_Node000012" class="edge">
<title>Node2&#45;&gt;Node12</title>
<g id="a_edge12_Node000002_Node000012"><a xlink:title=" ">
<path fill="none" stroke="#63b8ff" d="M217.81,-329.98C200.75,-321.54 174.37,-308.47 154.6,-298.68"/>
<polygon fill="#63b8ff" stroke="#63b8ff" points="156.02,-295.47 145.5,-294.17 152.91,-301.75 156.02,-295.47"/>
</a>
</g>
</g>
<!-- Node5&#45;&gt;Node3 -->
<g id="edge11_Node000005_Node000003" class="edge">
<title>Node5&#45;&gt;Node3</title>
<g id="a_edge11_Node000005_Node000003"><a xlink:title=" ">
<path fill="none" stroke="#63b8ff" d="M251.19,-219.98C204.42,-210.23 128.12,-194.3 80.6,-184.39"/>
<polygon fill="#63b8ff" stroke="#63b8ff" points="81.14,-180.93 70.63,-182.31 79.71,-187.78 81.14,-180.93"/>
</a>
</g>
</g>
<!-- Node5&#45;&gt;Node6 -->
<g id="edge5_Node000005_Node000006" class="edge">
<title>Node5&#45;&gt;Node6</title>
<g id="a_edge5_Node000005_Node000006"><a xlink:title=" ">
<path fill="none" stroke="#63b8ff" d="M331.68,-219.98C374.5,-210.8 442.76,-196.15 489.16,-186.19"/>
<polygon fill="#63b8ff" stroke="#63b8ff" points="489.96,-189.6 499,-184.08 488.49,-182.76 489.96,-189.6"/>
</a>
</g>
</g>
<!-- Node7 -->
<g id="Node000007" class="node">
<title>Node7</title>
<g id="a_Node000007"><a xlink:title=" ">
<polygon fill="#e0e0e0" stroke="#999999" points="569,-129 513,-129 513,-110 569,-110 569,-129"/>
<text text-anchor="middle" x="541" y="-117" font-family="Helvetica,sans-Serif" font-size="10.00">optional</text>
</a>
</g>
</g>
<!-- Node6&#45;&gt;Node7 -->
<g id="edge6_Node000006_Node000007" class="edge">
<title>Node6&#45;&gt;Node7</title>
<g id="a_edge6_Node000006_Node000007"><a xlink:title=" ">
<path fill="none" stroke="#63b8ff" d="M539.33,-164.75C539.59,-157.8 539.97,-147.85 540.3,-139.13"/>
<polygon fill="#63b8ff" stroke="#63b8ff" points="543.8,-139.21 540.68,-129.09 536.8,-138.95 543.8,-139.21"/>
</a>
</g>
</g>
<!-- Node8 -->
<g id="Node000008" class="node">
<title>Node8</title>
<g id="a_Node000008"><a xlink:href="abcgVulkanInstance_8hpp.html" target="_top" xlink:title="Header file of abcg::VulkanInstance.">
<polygon fill="white" stroke="#666666" points="495,-129 361,-129 361,-110 495,-110 495,-129"/>
<text text-anchor="middle" x="428" y="-117" font-family="Helvetica,sans-Serif" font-size="10.00">abcgVulkanInstance.hpp</text>
</a>
</g>
</g>
<!-- Node6&#45;&gt;Node8 -->
<g id="edge7_Node000006_Node000008" class="edge">
<title>Node6&#45;&gt;Node8</title>
<g id="a_edge7_Node000006_Node000008"><a xlink:title=" ">
<path fill="none" stroke="#63b8ff" d="M521.17,-164.98C503.39,-156.5 475.85,-143.35 455.32,-133.54"/>
<polygon fill="#63b8ff" stroke="#63b8ff" points="456.69,-130.32 446.16,-129.17 453.67,-136.64 456.69,-130.32"/>
</a>
</g>
</g>
<!-- Node9 -->
<g id="Node000009" class="node">
<title>Node9</title>
<g id="a_Node000009"><a xlink:href="abcgVulkanExternal_8hpp.html" target="_top" xlink:title="Header file for including Vulkan&#45;related dependencies.">
<polygon fill="white" stroke="#666666" points="495,-74 361,-74 361,-55 495,-55 495,-74"/>
<text text-anchor="middle" x="428" y="-62" font-family="Helvetica,sans-Serif" font-size="10.00">abcgVulkanExternal.hpp</text>
</a>
</g>
</g>
<!-- Node8&#45;&gt;Node9 -->
<g id="edge8_Node000008_Node000009" class="edge">
<title>Node8&#45;&gt;Node9</title>
<g id="a_edge8_Node000008_Node000009"><a xlink:title=" ">
<path fill="none" stroke="#63b8ff" d="M428,-109.75C428,-102.8 428,-92.85 428,-84.13"/>
<polygon fill="#63b8ff" stroke="#63b8ff" points="431.5,-84.09 428,-74.09 424.5,-84.09 431.5,-84.09"/>
</a>
</g>
</g>
<!-- Node10 -->
<g id="Node000010" class="node">
<title>Node10</title>
<g id="a_Node000010"><a xlink:title=" ">
<polygon fill="#e0e0e0" stroke="#999999" points="404.5,-19 357.5,-19 357.5,0 404.5,0 404.5,-19"/>
<text text-anchor="middle" x="381" y="-7" font-family="Helvetica,sans-Serif" font-size="10.00">volk.h</text>
</a>
</g>
</g>
<!-- Node9&#45;&gt;Node10 -->
<g id="edge9_Node000009_Node000010" class="edge">
<title>Node9&#45;&gt;Node10</title>
<g id="a_edge9_Node000009_Node000010"><a xlink:title=" ">
<path fill="none" stroke="#63b8ff" d="M420.24,-54.75C413.53,-47.18 403.66,-36.05 395.49,-26.84"/>
<polygon fill="#63b8ff" stroke="#63b8ff" points="397.87,-24.25 388.62,-19.09 392.63,-28.89 397.87,-24.25"/>
</a>
</g>
</g>
<!-- Node11 -->
<g id="Node000011" class="node">
<title>Node11</title>
<g id="a_Node000011"><a xlink:title=" ">
<polygon fill="#e0e0e0" stroke="#999999" points="527.5,-19 422.5,-19 422.5,0 527.5,0 527.5,-19"/>
<text text-anchor="middle" x="475" y="-7" font-family="Helvetica,sans-Serif" font-size="10.00">vulkan/vulkan.hpp</text>
</a>
</g>
</g>
<!-- Node9&#45;&gt;Node11 -->
<g id="edge10_Node000009_Node000011" class="edge">
<title>Node9&#45;&gt;Node11</title>
<g id="a_edge10_Node000009_Node000011"><a xlink:title=" ">
<path fill="none" stroke="#63b8ff" d="M435.76,-54.75C442.47,-47.18 452.34,-36.05 460.51,-26.84"/>
<polygon fill="#63b8ff" stroke="#63b8ff" points="463.37,-28.89 467.38,-19.09 458.13,-24.25 463.37,-28.89"/>
</a>
</g>
</g>
<!-- Node12&#45;&gt;Node5 -->
<g id="edge13_Node000012_Node000005" class="edge">
<title>Node12&#45;&gt;Node5</title>
<g id="a_edge13_Node000012_Node000005"><a xlink:title=" ">
<path fill="none" stroke="#63b8ff" d="M154.35,-274.98C181.76,-266.13 224.89,-252.19 255.56,-242.28"/>
<polygon fill="#63b8ff" stroke="#63b8ff" points="257,-245.49 265.44,-239.08 254.85,-238.83 257,-245.49"/>
</a>
</g>
</g>
<!-- Node13 -->
<g id="Node000013" class="node">
<title>Node13</title>
<g id="a_Node000013"><a xlink:title=" ">
<polygon fill="#e0e0e0" stroke="#999999" points="165,-239 91,-239 91,-220 165,-220 165,-239"/>
<text text-anchor="middle" x="128" y="-227" font-family="Helvetica,sans-Serif" font-size="10.00">gsl/pointers</text>
</a>
</g>
</g>
<!-- Node12&#45;&gt;Node13 -->
<g id="edge14_Node000012_Node000013" class="edge">
<title>Node12&#45;&gt;Node13</title>
<g id="a_edge14_Node000012_Node000013"><a xlink:title=" ">
<path fill="none" stroke="#63b8ff" d="M128,-274.75C128,-267.8 128,-257.85 128,-249.13"/>
<polygon fill="#63b8ff" stroke="#63b8ff" points="131.5,-249.09 128,-239.09 124.5,-249.09 131.5,-249.09"/>
</a>
</g>
</g>
<!-- Node17 -->
<g id="Node000017" class="node">
<title>Node17</title>
<g id="a_Node000017"><a xlink:title=" ">
<polygon fill="#e0e0e0" stroke="#999999" points="826.5,-349 733.5,-349 733.5,-330 826.5,-330 826.5,-349"/>
<text text-anchor="middle" x="780" y="-337" font-family="Helvetica,sans-Serif" font-size="10.00">source_location</text>
</a>
</g>
</g>
<!-- Node16&#45;&gt;Node17 -->
<g id="edge19_Node000016_Node000017" class="edge">
<title>Node16&#45;&gt;Node17</title>
<g id="a_edge19_Node000016_Node000017"><a xlink:title=" ">
<path fill="none" stroke="#63b8ff" d="M672.57,-384.98C693.43,-376.34 725.97,-362.87 749.77,-353.02"/>
<polygon fill="#63b8ff" stroke="#63b8ff" points="751.16,-356.23 759.06,-349.17 748.48,-349.76 751.16,-356.23"/>
</a>
</g>
</g>
<!-- Node18 -->
<g id="Node000018" class="node">
<title>Node18</title>
<g id="a_Node000018"><a xlink:title=" ">
<polygon fill="#e0e0e0" stroke="#999999" points="715.5,-349 650.5,-349 650.5,-330 715.5,-330 715.5,-349"/>
<text text-anchor="middle" x="683" y="-337" font-family="Helvetica,sans-Serif" font-size="10.00">stdexcept</text>
</a>
</g>
</g>
<!-- Node16&#45;&gt;Node18 -->
<g id="edge20_Node000016_Node000018" class="edge">
<title>Node16&#45;&gt;Node18</title>
<g id="a_edge20_Node000016_Node000018"><a xlink:title=" ">
<path fill="none" stroke="#63b8ff" d="M657.12,-384.75C661.36,-377.49 667.53,-366.95 672.78,-357.98"/>
<polygon fill="#63b8ff" stroke="#63b8ff" points="675.95,-359.49 677.98,-349.09 669.91,-355.95 675.95,-359.49"/>
</a>
</g>
</g>
<!-- Node19 -->
<g id="Node000019" class="node">
<title>Node19</title>
<g id="a_Node000019"><a xlink:title=" ">
<polygon fill="#e0e0e0" stroke="#999999" points="764,-294 720,-294 720,-275 764,-275 764,-294"/>
<text text-anchor="middle" x="742" y="-282" font-family="Helvetica,sans-Serif" font-size="10.00">string</text>
</a>
</g>
</g>
<!-- Node16&#45;&gt;Node19 -->
<g id="edge21_Node000016_Node000019" class="edge">
<title>Node16&#45;&gt;Node19</title>
<g id="a_edge21_Node000016_Node000019"><a xlink:title=" ">
<path fill="none" stroke="#63b8ff" d="M647.2,-384.92C640.66,-371.94 630.94,-347.03 642,-330 649.89,-317.85 683.88,-304.38 710.06,-295.48"/>
<polygon fill="#63b8ff" stroke="#63b8ff" points="711.25,-298.77 719.64,-292.3 709.05,-292.13 711.25,-298.77"/>
</a>
</g>
</g>
<!-- Node20&#45;&gt;Node2 -->
<g id="edge28_Node000020_Node000002" class="edge">
<title>Node20&#45;&gt;Node2</title>
<g id="a_edge28_Node000020_Node000002"><a xlink:title=" ">
<path fill="none" stroke="#63b8ff" d="M420.49,-384.98C382.51,-375.87 322.13,-361.4 280.64,-351.45"/>
<polygon fill="#63b8ff" stroke="#63b8ff" points="281.33,-348.01 270.79,-349.08 279.69,-354.82 281.33,-348.01"/>
</a>
</g>
</g>
<!-- Node20&#45;&gt;Node5 -->
<g id="edge25_Node000020_Node000005" class="edge">
<title>Node20&#45;&gt;Node5</title>
<g id="a_edge25_Node000020_Node000005"><a xlink:title=" ">
<path fill="none" stroke="#63b8ff" d="M446.81,-384.73C437.94,-376.06 424.37,-362.2 414,-349 389.78,-318.17 394.19,-302.24 366,-275 352.74,-262.18 335.13,-251.4 320.41,-243.67"/>
<polygon fill="#63b8ff" stroke="#63b8ff" points="321.74,-240.42 311.24,-239.03 318.59,-246.67 321.74,-240.42"/>
</a>
</g>
</g>
<!-- Node20&#45;&gt;Node6 -->
<g id="edge27_Node000020_Node000006" class="edge">
<title>Node20&#45;&gt;Node6</title>
<g id="a_edge27_Node000020_Node000006"><a xlink:title=" ">
<path fill="none" stroke="#63b8ff" d="M457.43,-384.95C460.9,-365.15 470.63,-314.79 486,-275 497.65,-244.86 516.32,-212.21 528.1,-192.82"/>
<polygon fill="#63b8ff" stroke="#63b8ff" points="531.15,-194.56 533.42,-184.21 525.19,-190.88 531.15,-194.56"/>
</a>
</g>
</g>
<!-- Node20&#45;&gt;Node8 -->
<g id="edge26_Node000020_Node000008" class="edge">
<title>Node20&#45;&gt;Node8</title>
<g id="a_edge26_Node000020_Node000008"><a xlink:title=" ">
<path fill="none" stroke="#63b8ff" d="M452.11,-384.74C444.41,-366.6 428,-323.46 428,-285.5 428,-285.5 428,-285.5 428,-228.5 428,-197.19 428,-160.77 428,-139.23"/>
<polygon fill="#63b8ff" stroke="#63b8ff" points="431.5,-139.18 428,-129.18 424.5,-139.18 431.5,-139.18"/>
</a>
</g>
</g>
<!-- Node21 -->
<g id="Node000021" class="node">
<title>Node21</title>
<g id="a_Node000021"><a xlink:href="abcgWindow_8hpp.html" target="_top" xlink:title="Header file of abcg::Window.">
<polygon fill="white" stroke="#666666" points="593.5,-349 494.5,-349 494.5,-330 593.5,-330 593.5,-349"/>
<text text-anchor="middle" x="544" y="-337" font-family="Helvetica,sans-Serif" font-size="10.00">abcgWindow.hpp</text>
</a>
</g>
</g>
<!-- Node20&#45;&gt;Node21 -->
<g id="edge29_Node000020_Node000021" class="edge">
<title>Node20&#45;&gt;Node21</title>
<g id="a_edge29_Node000020_Node000021"><a xlink:title=" ">
<path fill="none" stroke="#63b8ff" d="M470.14,-384.98C483.79,-376.77 504.69,-364.18 520.78,-354.49"/>
<polygon fill="#63b8ff" stroke="#63b8ff" points="522.84,-357.33 529.6,-349.17 519.23,-351.33 522.84,-357.33"/>
</a>
</g>
</g>
<!-- Node21&#45;&gt;Node19 -->
<g id="edge30_Node000021_Node000019" class="edge">
<title>Node21&#45;&gt;Node19</title>
<g id="a_edge30_Node000021_Node000019"><a xlink:title=" ">
<path fill="none" stroke="#63b8ff" d="M576.88,-329.97C608.73,-321.67 658.64,-308.55 709.82,-294.57"/>
<polygon fill="#63b8ff" stroke="#63b8ff" points="711.01,-297.87 719.73,-291.86 709.16,-291.12 711.01,-297.87"/>
</a>
</g>
</g>
<!-- Node22 -->
<g id="Node000022" class="node">
<title>Node22</title>
<g id="a_Node000022"><a xlink:href="abcgExternal_8hpp.html" target="_top" xlink:title="Header file for including third&#45;party dependencies.">
<polygon fill="white" stroke="#666666" points="595.5,-294 494.5,-294 494.5,-275 595.5,-275 595.5,-294"/>
<text text-anchor="middle" x="545" y="-282" font-family="Helvetica,sans-Serif" font-size="10.00">abcgExternal.hpp</text>
</a>
</g>
</g>
<!-- Node21&#45;&gt;Node22 -->
<g id="edge31_Node000021_Node000022" class="edge">
<title>Node21&#45;&gt;Node22</title>
<g id="a_edge31_Node000021_Node000022"><a xlink:title=" ">
<path fill="none" stroke="#63b8ff" d="M544.17,-329.75C544.3,-322.8 544.48,-312.85 544.65,-304.13"/>
<polygon fill="#63b8ff" stroke="#63b8ff" points="548.15,-304.15 544.84,-294.09 541.15,-304.02 548.15,-304.15"/>
</a>
</g>
</g>
<!-- Node23 -->
<g id="Node000023" class="node">
<title>Node23</title>
<g id="a_Node000023"><a xlink:href="abcgTimer_8hpp.html" target="_top" xlink:title="Header file of abcg::Timer.">
<polygon fill="white" stroke="#666666" points="702.5,-294 613.5,-294 613.5,-275 702.5,-275 702.5,-294"/>
<text text-anchor="middle" x="658" y="-282" font-family="Helvetica,sans-Serif" font-size="10.00">abcgTimer.hpp</text>
</a>
</g>
</g>
<!-- Node21&#45;&gt;Node23 -->
<g id="edge32_Node000021_Node000023" class="edge">
<title>Node21&#45;&gt;Node23</title>
<g id="a_edge32_Node000021_Node000023"><a xlink:title=" ">
<path fill="none" stroke="#63b8ff" d="M562.32,-329.98C580.66,-321.46 609.11,-308.23 630.23,-298.41"/>
<polygon fill="#63b8ff" stroke="#63b8ff" points="631.76,-301.56 639.35,-294.17 628.81,-295.21 631.76,-301.56"/>
</a>
</g>
</g>
<!-- Node24 -->
<g id="Node000024" class="node">
<title>Node24</title>
<g id="a_Node000024"><a xlink:title=" ">
<polygon fill="#e0e0e0" stroke="#999999" points="683,-239 633,-239 633,-220 683,-220 683,-239"/>
<text text-anchor="middle" x="658" y="-227" font-family="Helvetica,sans-Serif" font-size="10.00">chrono</text>
</a>
</g>
</g>
<!-- Node23&#45;&gt;Node24 -->
<g id="edge33_Node000023_Node000024" class="edge">
<title>Node23&#45;&gt;Node24</title>
<g id="a_edge33_Node000023_Node000024"><a xlink:title=" ">
<path fill="none" stroke="#63b8ff" d="M658,-274.75C658,-267.8 658,-257.85 658,-249.13"/>
<polygon fill="#63b8ff" stroke="#63b8ff" points="661.5,-249.09 658,-239.09 654.5,-249.09 661.5,-249.09"/>
</a>
</g>
</g>
</g>
</svg>
