<?xml version="1.0" encoding="UTF-8" standalone="no"?>
<!DOCTYPE svg PUBLIC "-//W3C//DTD SVG 1.1//EN"
 "http://www.w3.org/Graphics/SVG/1.1/DTD/svg11.dtd">
<!-- Generated by graphviz version 2.43.0 (0)
 -->
<!-- Title: /home/harlen/dev/abcg/abcg/abcgException.hpp Pages: 1 -->
<svg width="2466pt" height="236pt"
 viewBox="0.00 0.00 2466.00 236.00" xmlns="http://www.w3.org/2000/svg" xmlns:xlink="http://www.w3.org/1999/xlink">
<g id="graph0" class="graph" transform="scale(1 1) rotate(0) translate(4 232)">
<title>/home/harlen/dev/abcg/abcg/abcgException.hpp</title>
<!-- Node1 -->
<g id="Node000001" class="node">
<title>Node1</title>
<g id="a_Node000001"><a xlink:title="Header file of abcg::Exception and derived classes.">
<polygon fill="#999999" stroke="#666666" points="1324,-228 1186,-228 1186,-198 1324,-198 1324,-228"/>
<text text-anchor="start" x="1194" y="-216" font-family="Helvetica,sans-Serif" font-size="10.00">/home/harlen/dev/abcg</text>
<text text-anchor="middle" x="1255" y="-205" font-family="Helvetica,sans-Serif" font-size="10.00">/abcg/abcgException.hpp</text>
</a>
</g>
</g>
<!-- Node2 -->
<g id="Node000002" class="node">
<title>Node2</title>
<g id="a_Node000002"><a xlink:href="abcg_8hpp.html" target="_top" xlink:title="Shortcut header that includes the most common ABCg headers.">
<polygon fill="white" stroke="#666666" points="274,-162 146,-162 146,-132 274,-132 274,-162"/>
<text text-anchor="start" x="154" y="-150" font-family="Helvetica,sans-Serif" font-size="10.00">/home/harlen/dev/abcg</text>
<text text-anchor="middle" x="210" y="-139" font-family="Helvetica,sans-Serif" font-size="10.00">/abcg/abcg.hpp</text>
</a>
</g>
</g>
<!-- Node1&#45;&gt;Node2 -->
<g id="edge1_Node000001_Node000002" class="edge">
<title>Node1&#45;&gt;Node2</title>
<g id="a_edge1_Node000001_Node000002"><a xlink:title=" ">
<path fill="none" stroke="#63b8ff" d="M1175.78,-211.28C1010.32,-209.02 616.18,-199.78 288,-162 283.49,-161.48 278.85,-160.86 274.18,-160.18"/>
<polygon fill="#63b8ff" stroke="#63b8ff" points="1175.82,-214.78 1185.87,-211.41 1175.92,-207.78 1175.82,-214.78"/>
</a>
</g>
</g>
<!-- Node5 -->
<g id="Node000005" class="node">
<title>Node5</title>
<g id="a_Node000005"><a xlink:href="abcgVulkanInstance_8cpp.html" target="_top" xlink:title="Definition of abcg::VulkanInstance.">
<polygon fill="white" stroke="#666666" points="337.5,-30 174.5,-30 174.5,0 337.5,0 337.5,-30"/>
<text text-anchor="start" x="182.5" y="-18" font-family="Helvetica,sans-Serif" font-size="10.00">/home/harlen/dev/abcg</text>
<text text-anchor="middle" x="256" y="-7" font-family="Helvetica,sans-Serif" font-size="10.00">/abcg/abcgVulkanInstance.cpp</text>
</a>
</g>
</g>
<!-- Node1&#45;&gt;Node5 -->
<g id="edge18_Node000001_Node000005" class="edge">
<title>Node1&#45;&gt;Node5</title>
<g id="a_edge18_Node000001_Node000005"><a xlink:title=" ">
<path fill="none" stroke="#63b8ff" d="M1175.56,-212.59C962.44,-213.5 389.49,-211.28 321,-162 283.75,-135.2 302.38,-107.59 283,-66 277.25,-53.66 269.85,-40.09 264.26,-30.21"/>
<polygon fill="#63b8ff" stroke="#63b8ff" points="1175.76,-216.09 1185.74,-212.54 1175.72,-209.09 1175.76,-216.09"/>
</a>
</g>
</g>
<!-- Node6 -->
<g id="Node000006" class="node">
<title>Node6</title>
<g id="a_Node000006"><a xlink:href="abcgApplication_8cpp.html" target="_top" xlink:title="Definition of abcg::Application members.">
<polygon fill="white" stroke="#666666" points="474,-162 330,-162 330,-132 474,-132 474,-162"/>
<text text-anchor="start" x="338" y="-150" font-family="Helvetica,sans-Serif" font-size="10.00">/home/harlen/dev/abcg</text>
<text text-anchor="middle" x="402" y="-139" font-family="Helvetica,sans-Serif" font-size="10.00">/abcg/abcgApplication.cpp</text>
</a>
</g>
</g>
<!-- Node1&#45;&gt;Node6 -->
<g id="edge5_Node000001_Node000006" class="edge">
<title>Node1&#45;&gt;Node6</title>
<g id="a_edge5_Node000001_Node000006"><a xlink:title=" ">
<path fill="none" stroke="#63b8ff" d="M1175.61,-209.65C1035.41,-204.87 734.94,-191.85 483,-162 480.17,-161.66 477.28,-161.3 474.37,-160.9"/>
<polygon fill="#63b8ff" stroke="#63b8ff" points="1175.72,-213.15 1185.83,-209.99 1175.96,-206.16 1175.72,-213.15"/>
</a>
</g>
</g>
<!-- Node7 -->
<g id="Node000007" class="node">
<title>Node7</title>
<g id="a_Node000007"><a xlink:href="abcgException_8cpp.html" target="_top" xlink:title="Definition of abcg::Exception members.">
<polygon fill="white" stroke="#666666" points="629.5,-162 492.5,-162 492.5,-132 629.5,-132 629.5,-162"/>
<text text-anchor="start" x="500.5" y="-150" font-family="Helvetica,sans-Serif" font-size="10.00">/home/harlen/dev/abcg</text>
<text text-anchor="middle" x="561" y="-139" font-family="Helvetica,sans-Serif" font-size="10.00">/abcg/abcgException.cpp</text>
</a>
</g>
</g>
<!-- Node1&#45;&gt;Node7 -->
<g id="edge6_Node000001_Node000007" class="edge">
<title>Node1&#45;&gt;Node7</title>
<g id="a_edge6_Node000001_Node000007"><a xlink:title=" ">
<path fill="none" stroke="#63b8ff" d="M1175.82,-208.1C1058.15,-201.73 830.32,-187.21 638,-162 635.31,-161.65 632.56,-161.26 629.79,-160.86"/>
<polygon fill="#63b8ff" stroke="#63b8ff" points="1175.65,-211.59 1185.83,-208.63 1176.03,-204.6 1175.65,-211.59"/>
</a>
</g>
</g>
<!-- Node8 -->
<g id="Node000008" class="node">
<title>Node8</title>
<g id="a_Node000008"><a xlink:href="abcgOpenGLError_8hpp.html" target="_top" xlink:title="Header file of abcg::OpenGLError and derived classes.">
<polygon fill="white" stroke="#666666" points="798.5,-162 647.5,-162 647.5,-132 798.5,-132 798.5,-162"/>
<text text-anchor="start" x="655.5" y="-150" font-family="Helvetica,sans-Serif" font-size="10.00">/home/harlen/dev/abcg</text>
<text text-anchor="middle" x="723" y="-139" font-family="Helvetica,sans-Serif" font-size="10.00">/abcg/abcgOpenGLError.hpp</text>
</a>
</g>
</g>
<!-- Node1&#45;&gt;Node8 -->
<g id="edge7_Node000001_Node000008" class="edge">
<title>Node1&#45;&gt;Node8</title>
<g id="a_edge7_Node000001_Node000008"><a xlink:title=" ">
<path fill="none" stroke="#63b8ff" d="M1175.87,-204.4C1086.41,-195.52 936.48,-179.75 808,-162 804.89,-161.57 801.72,-161.12 798.51,-160.65"/>
<polygon fill="#63b8ff" stroke="#63b8ff" points="1175.65,-207.9 1185.94,-205.4 1176.34,-200.93 1175.65,-207.9"/>
</a>
</g>
</g>
<!-- Node11 -->
<g id="Node000011" class="node">
<title>Node11</title>
<g id="a_Node000011"><a xlink:href="abcgOpenGLImage_8cpp.html" target="_top" xlink:title="Definition of OpenGL texture loading helper functions.">
<polygon fill="white" stroke="#666666" points="975,-162 817,-162 817,-132 975,-132 975,-162"/>
<text text-anchor="start" x="825" y="-150" font-family="Helvetica,sans-Serif" font-size="10.00">/home/harlen/dev/abcg</text>
<text text-anchor="middle" x="896" y="-139" font-family="Helvetica,sans-Serif" font-size="10.00">/abcg/abcgOpenGLImage.cpp</text>
</a>
</g>
</g>
<!-- Node1&#45;&gt;Node11 -->
<g id="edge10_Node000001_Node000011" class="edge">
<title>Node1&#45;&gt;Node11</title>
<g id="a_edge10_Node000001_Node000011"><a xlink:title=" ">
<path fill="none" stroke="#63b8ff" d="M1175.63,-197.85C1115.86,-187.19 1034.3,-172.65 974.69,-162.03"/>
<polygon fill="#63b8ff" stroke="#63b8ff" points="1175.32,-201.35 1185.78,-199.66 1176.55,-194.46 1175.32,-201.35"/>
</a>
</g>
</g>
<!-- Node12 -->
<g id="Node000012" class="node">
<title>Node12</title>
<g id="a_Node000012"><a xlink:href="abcgOpenGLShader_8cpp.html" target="_top" xlink:title="Definition of helper functions for building OpenGL shaders.">
<polygon fill="white" stroke="#666666" points="1154.5,-162 993.5,-162 993.5,-132 1154.5,-132 1154.5,-162"/>
<text text-anchor="start" x="1001.5" y="-150" font-family="Helvetica,sans-Serif" font-size="10.00">/home/harlen/dev/abcg</text>
<text text-anchor="middle" x="1074" y="-139" font-family="Helvetica,sans-Serif" font-size="10.00">/abcg/abcgOpenGLShader.cpp</text>
</a>
</g>
</g>
<!-- Node1&#45;&gt;Node12 -->
<g id="edge11_Node000001_Node000012" class="edge">
<title>Node1&#45;&gt;Node12</title>
<g id="a_edge11_Node000001_Node000012"><a xlink:title=" ">
<path fill="none" stroke="#63b8ff" d="M1205.76,-194.59C1176.82,-184.36 1140.72,-171.59 1113.63,-162.01"/>
<polygon fill="#63b8ff" stroke="#63b8ff" points="1204.68,-197.92 1215.28,-197.95 1207.02,-191.32 1204.68,-197.92"/>
</a>
</g>
</g>
<!-- Node13 -->
<g id="Node000013" class="node">
<title>Node13</title>
<g id="a_Node000013"><a xlink:href="abcgOpenGLWindow_8cpp.html" target="_top" xlink:title="Definition of abcg::OpenGLWindow members.">
<polygon fill="white" stroke="#666666" points="1337.5,-162 1172.5,-162 1172.5,-132 1337.5,-132 1337.5,-162"/>
<text text-anchor="start" x="1180.5" y="-150" font-family="Helvetica,sans-Serif" font-size="10.00">/home/harlen/dev/abcg</text>
<text text-anchor="middle" x="1255" y="-139" font-family="Helvetica,sans-Serif" font-size="10.00">/abcg/abcgOpenGLWindow.cpp</text>
</a>
</g>
</g>
<!-- Node1&#45;&gt;Node13 -->
<g id="edge12_Node000001_Node000013" class="edge">
<title>Node1&#45;&gt;Node13</title>
<g id="a_edge12_Node000001_Node000013"><a xlink:title=" ">
<path fill="none" stroke="#63b8ff" d="M1255,-187.54C1255,-178.96 1255,-169.61 1255,-162.16"/>
<polygon fill="#63b8ff" stroke="#63b8ff" points="1251.5,-187.8 1255,-197.8 1258.5,-187.8 1251.5,-187.8"/>
</a>
</g>
</g>
<!-- Node14 -->
<g id="Node000014" class="node">
<title>Node14</title>
<g id="a_Node000014"><a xlink:href="abcgVulkanBuffer_8cpp.html" target="_top" xlink:title="Definition of abcg::VulkanBuffer.">
<polygon fill="white" stroke="#666666" points="1506,-162 1356,-162 1356,-132 1506,-132 1506,-162"/>
<text text-anchor="start" x="1364" y="-150" font-family="Helvetica,sans-Serif" font-size="10.00">/home/harlen/dev/abcg</text>
<text text-anchor="middle" x="1431" y="-139" font-family="Helvetica,sans-Serif" font-size="10.00">/abcg/abcgVulkanBuffer.cpp</text>
</a>
</g>
</g>
<!-- Node1&#45;&gt;Node14 -->
<g id="edge13_Node000001_Node000014" class="edge">
<title>Node1&#45;&gt;Node14</title>
<g id="a_edge13_Node000001_Node000014"><a xlink:title=" ">
<path fill="none" stroke="#63b8ff" d="M1303.24,-194.46C1331.32,-184.25 1366.24,-171.55 1392.47,-162.01"/>
<polygon fill="#63b8ff" stroke="#63b8ff" points="1301.83,-191.25 1293.62,-197.95 1304.22,-197.83 1301.83,-191.25"/>
</a>
</g>
</g>
<!-- Node15 -->
<g id="Node000015" class="node">
<title>Node15</title>
<g id="a_Node000015"><a xlink:href="abcgVulkanError_8hpp.html" target="_top" xlink:title="Header file of abcg::VulkanError and derived classes.">
<polygon fill="white" stroke="#666666" points="1669.5,-162 1524.5,-162 1524.5,-132 1669.5,-132 1669.5,-162"/>
<text text-anchor="start" x="1532.5" y="-150" font-family="Helvetica,sans-Serif" font-size="10.00">/home/harlen/dev/abcg</text>
<text text-anchor="middle" x="1597" y="-139" font-family="Helvetica,sans-Serif" font-size="10.00">/abcg/abcgVulkanError.hpp</text>
</a>
</g>
</g>
<!-- Node1&#45;&gt;Node15 -->
<g id="edge14_Node000001_Node000015" class="edge">
<title>Node1&#45;&gt;Node15</title>
<g id="a_edge14_Node000001_Node000015"><a xlink:title=" ">
<path fill="none" stroke="#63b8ff" d="M1334.32,-197.16C1391.68,-186.42 1468.59,-172.03 1524.35,-161.59"/>
<polygon fill="#63b8ff" stroke="#63b8ff" points="1333.39,-193.77 1324.21,-199.05 1334.68,-200.65 1333.39,-193.77"/>
</a>
</g>
</g>
<!-- Node17 -->
<g id="Node000017" class="node">
<title>Node17</title>
<g id="a_Node000017"><a xlink:href="abcgVulkanWindow_8cpp.html" target="_top" xlink:title="Definition of abcg::VulkanWindow members.">
<polygon fill="white" stroke="#666666" points="1778,-96 1618,-96 1618,-66 1778,-66 1778,-96"/>
<text text-anchor="start" x="1626" y="-84" font-family="Helvetica,sans-Serif" font-size="10.00">/home/harlen/dev/abcg</text>
<text text-anchor="middle" x="1698" y="-73" font-family="Helvetica,sans-Serif" font-size="10.00">/abcg/abcgVulkanWindow.cpp</text>
</a>
</g>
</g>
<!-- Node1&#45;&gt;Node17 -->
<g id="edge22_Node000001_Node000017" class="edge">
<title>Node1&#45;&gt;Node17</title>
<g id="a_edge22_Node000001_Node000017"><a xlink:title=" ">
<path fill="none" stroke="#63b8ff" d="M1334.26,-207.46C1449.59,-200.12 1652.74,-184.23 1678,-162 1696.7,-145.54 1699.22,-114.5 1698.91,-96.3"/>
<polygon fill="#63b8ff" stroke="#63b8ff" points="1333.82,-203.98 1324.06,-208.1 1334.26,-210.96 1333.82,-203.98"/>
</a>
</g>
</g>
<!-- Node18 -->
<g id="Node000018" class="node">
<title>Node18</title>
<g id="a_Node000018"><a xlink:href="abcgVulkanImage_8cpp.html" target="_top" xlink:title="Definition of abcg::VulkanImage.">
<polygon fill="white" stroke="#666666" points="1878,-162 1726,-162 1726,-132 1878,-132 1878,-162"/>
<text text-anchor="start" x="1734" y="-150" font-family="Helvetica,sans-Serif" font-size="10.00">/home/harlen/dev/abcg</text>
<text text-anchor="middle" x="1802" y="-139" font-family="Helvetica,sans-Serif" font-size="10.00">/abcg/abcgVulkanImage.cpp</text>
</a>
</g>
</g>
<!-- Node1&#45;&gt;Node18 -->
<g id="edge17_Node000001_Node000018" class="edge">
<title>Node1&#45;&gt;Node18</title>
<g id="a_edge17_Node000001_Node000018"><a xlink:title=" ">
<path fill="none" stroke="#63b8ff" d="M1334.01,-204.45C1425.22,-195.49 1579.68,-179.52 1712,-162 1716.55,-161.4 1721.22,-160.75 1725.93,-160.08"/>
<polygon fill="#63b8ff" stroke="#63b8ff" points="1333.63,-200.97 1324.02,-205.43 1334.32,-207.94 1333.63,-200.97"/>
</a>
</g>
</g>
<!-- Node19 -->
<g id="Node000019" class="node">
<title>Node19</title>
<g id="a_Node000019"><a xlink:href="abcgVulkanPhysicalDevice_8cpp.html" target="_top" xlink:title="Definition of abcg::VulkanPhysicalDevice.">
<polygon fill="white" stroke="#666666" points="2092,-162 1896,-162 1896,-132 2092,-132 2092,-162"/>
<text text-anchor="start" x="1904" y="-150" font-family="Helvetica,sans-Serif" font-size="10.00">/home/harlen/dev/abcg</text>
<text text-anchor="middle" x="1994" y="-139" font-family="Helvetica,sans-Serif" font-size="10.00">/abcg/abcgVulkanPhysicalDevice.cpp</text>
</a>
</g>
</g>
<!-- Node1&#45;&gt;Node19 -->
<g id="edge19_Node000001_Node000019" class="edge">
<title>Node1&#45;&gt;Node19</title>
<g id="a_edge19_Node000001_Node000019"><a xlink:title=" ">
<path fill="none" stroke="#63b8ff" d="M1334.5,-207.02C1454.41,-199.21 1688.63,-182.81 1887,-162 1889.89,-161.7 1892.82,-161.38 1895.78,-161.05"/>
<polygon fill="#63b8ff" stroke="#63b8ff" points="1334.06,-203.54 1324.31,-207.68 1334.52,-210.53 1334.06,-203.54"/>
</a>
</g>
</g>
<!-- Node20 -->
<g id="Node000020" class="node">
<title>Node20</title>
<g id="a_Node000020"><a xlink:href="abcgVulkanShader_8cpp.html" target="_top" xlink:title="Definition of helper functions for creating Vulkan shaders.">
<polygon fill="white" stroke="#666666" points="2265.5,-162 2110.5,-162 2110.5,-132 2265.5,-132 2265.5,-162"/>
<text text-anchor="start" x="2118.5" y="-150" font-family="Helvetica,sans-Serif" font-size="10.00">/home/harlen/dev/abcg</text>
<text text-anchor="middle" x="2188" y="-139" font-family="Helvetica,sans-Serif" font-size="10.00">/abcg/abcgVulkanShader.cpp</text>
</a>
</g>
</g>
<!-- Node1&#45;&gt;Node20 -->
<g id="edge20_Node000001_Node000020" class="edge">
<title>Node1&#45;&gt;Node20</title>
<g id="a_edge20_Node000001_Node000020"><a xlink:title=" ">
<path fill="none" stroke="#63b8ff" d="M1334.05,-209.98C1483.99,-205.56 1819.89,-192.85 2101,-162 2104.04,-161.67 2107.14,-161.3 2110.26,-160.91"/>
<polygon fill="#63b8ff" stroke="#63b8ff" points="1333.9,-206.48 1324.01,-210.27 1334.11,-213.48 1333.9,-206.48"/>
</a>
</g>
</g>
<!-- Node21 -->
<g id="Node000021" class="node">
<title>Node21</title>
<g id="a_Node000021"><a xlink:href="abcgVulkanSwapchain_8cpp.html" target="_top" xlink:title="Definition of abcg::VulkanSwapchain.">
<polygon fill="white" stroke="#666666" points="2458,-162 2284,-162 2284,-132 2458,-132 2458,-162"/>
<text text-anchor="start" x="2292" y="-150" font-family="Helvetica,sans-Serif" font-size="10.00">/home/harlen/dev/abcg</text>
<text text-anchor="middle" x="2371" y="-139" font-family="Helvetica,sans-Serif" font-size="10.00">/abcg/abcgVulkanSwapchain.cpp</text>
</a>
</g>
</g>
<!-- Node1&#45;&gt;Node21 -->
<g id="edge21_Node000001_Node000021" class="edge">
<title>Node1&#45;&gt;Node21</title>
<g id="a_edge21_Node000001_Node000021"><a xlink:title=" ">
<path fill="none" stroke="#63b8ff" d="M1334.34,-210.7C1506.18,-207.31 1925.46,-195.98 2275,-162 2277.93,-161.71 2280.91,-161.4 2283.92,-161.07"/>
<polygon fill="#63b8ff" stroke="#63b8ff" points="1334.05,-207.2 1324.12,-210.9 1334.19,-214.2 1334.05,-207.2"/>
</a>
</g>
</g>
<!-- Node3 -->
<g id="Node000003" class="node">
<title>Node3</title>
<g id="a_Node000003"><a xlink:href="abcgOpenGL_8hpp.html" target="_top" xlink:title="Header file for OpenGL&#45;related functions and classes.">
<polygon fill="white" stroke="#666666" points="128,-96 0,-96 0,-66 128,-66 128,-96"/>
<text text-anchor="start" x="8" y="-84" font-family="Helvetica,sans-Serif" font-size="10.00">/home/harlen/dev/abcg</text>
<text text-anchor="middle" x="64" y="-73" font-family="Helvetica,sans-Serif" font-size="10.00">/abcg/abcgOpenGL.hpp</text>
</a>
</g>
</g>
<!-- Node2&#45;&gt;Node3 -->
<g id="edge2_Node000002_Node000003" class="edge">
<title>Node2&#45;&gt;Node3</title>
<g id="a_edge2_Node000002_Node000003"><a xlink:title=" ">
<path fill="none" stroke="#63b8ff" d="M168.75,-127.92C145.68,-117.8 117.34,-105.38 95.97,-96.01"/>
<polygon fill="#63b8ff" stroke="#63b8ff" points="167.4,-131.15 177.96,-131.95 170.21,-124.73 167.4,-131.15"/>
</a>
</g>
</g>
<!-- Node4 -->
<g id="Node000004" class="node">
<title>Node4</title>
<g id="a_Node000004"><a xlink:href="abcgVulkan_8hpp.html" target="_top" xlink:title="Header file for Vulkan&#45;related functions and classes.">
<polygon fill="white" stroke="#666666" points="274,-96 146,-96 146,-66 274,-66 274,-96"/>
<text text-anchor="start" x="154" y="-84" font-family="Helvetica,sans-Serif" font-size="10.00">/home/harlen/dev/abcg</text>
<text text-anchor="middle" x="210" y="-73" font-family="Helvetica,sans-Serif" font-size="10.00">/abcg/abcgVulkan.hpp</text>
</a>
</g>
</g>
<!-- Node2&#45;&gt;Node4 -->
<g id="edge3_Node000002_Node000004" class="edge">
<title>Node2&#45;&gt;Node4</title>
<g id="a_edge3_Node000002_Node000004"><a xlink:title=" ">
<path fill="none" stroke="#63b8ff" d="M210,-121.54C210,-112.96 210,-103.61 210,-96.16"/>
<polygon fill="#63b8ff" stroke="#63b8ff" points="206.5,-121.8 210,-131.8 213.5,-121.8 206.5,-121.8"/>
</a>
</g>
</g>
<!-- Node4&#45;&gt;Node5 -->
<g id="edge4_Node000004_Node000005" class="edge">
<title>Node4&#45;&gt;Node5</title>
<g id="a_edge4_Node000004_Node000005"><a xlink:title=" ">
<path fill="none" stroke="#63b8ff" d="M226.15,-57.53C232.69,-48.43 240.05,-38.19 245.82,-30.16"/>
<polygon fill="#63b8ff" stroke="#63b8ff" points="223.2,-55.63 220.21,-65.8 228.89,-59.72 223.2,-55.63"/>
</a>
</g>
</g>
<!-- Node9 -->
<g id="Node000009" class="node">
<title>Node9</title>
<g id="a_Node000009"><a xlink:href="abcgOpenGLError_8cpp.html" target="_top" xlink:title="Definition of abcg::OpenGLError members.">
<polygon fill="white" stroke="#666666" points="710,-96 560,-96 560,-66 710,-66 710,-96"/>
<text text-anchor="start" x="568" y="-84" font-family="Helvetica,sans-Serif" font-size="10.00">/home/harlen/dev/abcg</text>
<text text-anchor="middle" x="635" y="-73" font-family="Helvetica,sans-Serif" font-size="10.00">/abcg/abcgOpenGLError.cpp</text>
</a>
</g>
</g>
<!-- Node8&#45;&gt;Node9 -->
<g id="edge8_Node000008_Node000009" class="edge">
<title>Node8&#45;&gt;Node9</title>
<g id="a_edge8_Node000008_Node000009"><a xlink:title=" ">
<path fill="none" stroke="#63b8ff" d="M695.16,-125.75C681.93,-116.13 666.43,-104.86 654.48,-96.16"/>
<polygon fill="#63b8ff" stroke="#63b8ff" points="693.32,-128.75 703.47,-131.8 697.44,-123.08 693.32,-128.75"/>
</a>
</g>
</g>
<!-- Node10 -->
<g id="Node000010" class="node">
<title>Node10</title>
<g id="a_Node000010"><a xlink:href="abcgOpenGLFunction_8cpp.html" target="_top" xlink:title="Definition of OpenGL&#45;related error checking functions.">
<polygon fill="white" stroke="#666666" points="896.5,-96 727.5,-96 727.5,-66 896.5,-66 896.5,-96"/>
<text text-anchor="start" x="735.5" y="-84" font-family="Helvetica,sans-Serif" font-size="10.00">/home/harlen/dev/abcg</text>
<text text-anchor="middle" x="812" y="-73" font-family="Helvetica,sans-Serif" font-size="10.00">/abcg/abcgOpenGLFunction.cpp</text>
</a>
</g>
</g>
<!-- Node8&#45;&gt;Node10 -->
<g id="edge9_Node000008_Node000010" class="edge">
<title>Node8&#45;&gt;Node10</title>
<g id="a_edge9_Node000008_Node000010"><a xlink:title=" ">
<path fill="none" stroke="#63b8ff" d="M751.16,-125.75C764.54,-116.13 780.22,-104.86 792.3,-96.16"/>
<polygon fill="#63b8ff" stroke="#63b8ff" points="748.83,-123.12 742.75,-131.8 752.91,-128.8 748.83,-123.12"/>
</a>
</g>
</g>
<!-- Node16 -->
<g id="Node000016" class="node">
<title>Node16</title>
<g id="a_Node000016"><a xlink:href="abcgVulkanError_8cpp.html" target="_top" xlink:title="Definition of abcg::VulkanError members.">
<polygon fill="white" stroke="#666666" points="1600,-96 1456,-96 1456,-66 1600,-66 1600,-96"/>
<text text-anchor="start" x="1464" y="-84" font-family="Helvetica,sans-Serif" font-size="10.00">/home/harlen/dev/abcg</text>
<text text-anchor="middle" x="1528" y="-73" font-family="Helvetica,sans-Serif" font-size="10.00">/abcg/abcgVulkanError.cpp</text>
</a>
</g>
</g>
<!-- Node15&#45;&gt;Node16 -->
<g id="edge15_Node000015_Node000016" class="edge">
<title>Node15&#45;&gt;Node16</title>
<g id="a_edge15_Node000015_Node000016"><a xlink:title=" ">
<path fill="none" stroke="#63b8ff" d="M1574.28,-124.92C1564.1,-115.49 1552.37,-104.61 1543.27,-96.16"/>
<polygon fill="#63b8ff" stroke="#63b8ff" points="1571.97,-127.56 1581.69,-131.8 1576.74,-122.43 1571.97,-127.56"/>
</a>
</g>
</g>
<!-- Node15&#45;&gt;Node17 -->
<g id="edge16_Node000015_Node000017" class="edge">
<title>Node15&#45;&gt;Node17</title>
<g id="a_edge16_Node000015_Node000017"><a xlink:title=" ">
<path fill="none" stroke="#63b8ff" d="M1628.09,-126.3C1643.46,-116.56 1661.67,-105.02 1675.65,-96.16"/>
<polygon fill="#63b8ff" stroke="#63b8ff" points="1625.99,-123.49 1619.42,-131.8 1629.74,-129.4 1625.99,-123.49"/>
</a>
</g>
</g>
</g>
</svg>
