<?xml version="1.0" encoding="UTF-8" standalone="no"?>
<!DOCTYPE svg PUBLIC "-//W3C//DTD SVG 1.1//EN"
 "http://www.w3.org/Graphics/SVG/1.1/DTD/svg11.dtd">
<!-- Generated by graphviz version 2.43.0 (0)
 -->
<!-- Title: /home/harlen/dev/abcg/abcg/abcg.hpp Pages: 1 -->
<svg width="641pt" height="203pt"
 viewBox="0.00 0.00 641.11 203.00" xmlns="http://www.w3.org/2000/svg" xmlns:xlink="http://www.w3.org/1999/xlink">
<g id="graph0" class="graph" transform="scale(1 1) rotate(0) translate(4 199)">
<title>/home/harlen/dev/abcg/abcg/abcg.hpp</title>
<!-- Node1 -->
<g id="Node000001" class="node">
<title>Node1</title>
<g id="a_Node000001"><a xlink:title="Shortcut header that includes the most common ABCg headers.">
<polygon fill="#999999" stroke="#666666" points="457.5,-195 329.5,-195 329.5,-165 457.5,-165 457.5,-195"/>
<text text-anchor="start" x="337.5" y="-183" font-family="Helvetica,sans-Serif" font-size="10.00">/home/harlen/dev/abcg</text>
<text text-anchor="middle" x="393.5" y="-172" font-family="Helvetica,sans-Serif" font-size="10.00">/abcg/abcg.hpp</text>
</a>
</g>
</g>
<!-- Node2 -->
<g id="Node000002" class="node">
<title>Node2</title>
<g id="a_Node000002"><a xlink:href="abcgApplication_8hpp.html" target="_top" xlink:title="Header file of abcg::Application.">
<polygon fill="white" stroke="#666666" points="283.5,-129 167.5,-129 167.5,-110 283.5,-110 283.5,-129"/>
<text text-anchor="middle" x="225.5" y="-117" font-family="Helvetica,sans-Serif" font-size="10.00">abcgApplication.hpp</text>
</a>
</g>
</g>
<!-- Node1&#45;&gt;Node2 -->
<g id="edge1_Node000001_Node000002" class="edge">
<title>Node1&#45;&gt;Node2</title>
<g id="a_edge1_Node000001_Node000002"><a xlink:title=" ">
<path fill="none" stroke="#63b8ff" d="M353.26,-164.99C324.73,-155.05 286.85,-141.86 259.77,-132.43"/>
<polygon fill="#63b8ff" stroke="#63b8ff" points="260.9,-129.12 250.31,-129.14 258.6,-135.73 260.9,-129.12"/>
</a>
</g>
</g>
<!-- Node4 -->
<g id="Node000004" class="node">
<title>Node4</title>
<g id="a_Node000004"><a xlink:href="abcgException_8hpp.html" target="_top" xlink:title="Header file of abcg::Exception and derived classes.">
<polygon fill="white" stroke="#666666" points="149,-129 40,-129 40,-110 149,-110 149,-129"/>
<text text-anchor="middle" x="94.5" y="-117" font-family="Helvetica,sans-Serif" font-size="10.00">abcgException.hpp</text>
</a>
</g>
</g>
<!-- Node1&#45;&gt;Node4 -->
<g id="edge3_Node000001_Node000004" class="edge">
<title>Node1&#45;&gt;Node4</title>
<g id="a_edge3_Node000001_Node000004"><a xlink:title=" ">
<path fill="none" stroke="#63b8ff" d="M329.36,-166.45C275.42,-155.9 199.18,-140.98 148.36,-131.04"/>
<polygon fill="#63b8ff" stroke="#63b8ff" points="148.72,-127.54 138.24,-129.06 147.38,-134.41 148.72,-127.54"/>
</a>
</g>
</g>
<!-- Node7 -->
<g id="Node000007" class="node">
<title>Node7</title>
<g id="a_Node000007"><a xlink:href="abcgExternal_8hpp.html" target="_top" xlink:title="Header file for including third&#45;party dependencies.">
<polygon fill="white" stroke="#666666" points="618,-74 517,-74 517,-55 618,-55 618,-74"/>
<text text-anchor="middle" x="567.5" y="-62" font-family="Helvetica,sans-Serif" font-size="10.00">abcgExternal.hpp</text>
</a>
</g>
</g>
<!-- Node1&#45;&gt;Node7 -->
<g id="edge7_Node000001_Node000007" class="edge">
<title>Node1&#45;&gt;Node7</title>
<g id="a_edge7_Node000001_Node000007"><a xlink:title=" ">
<path fill="none" stroke="#63b8ff" d="M457.55,-174.26C519.6,-168.19 607.34,-155.14 628.5,-129 643.38,-110.62 618.01,-91.27 595.59,-78.83"/>
<polygon fill="#63b8ff" stroke="#63b8ff" points="597.09,-75.66 586.61,-74.1 593.83,-81.86 597.09,-75.66"/>
</a>
</g>
</g>
<!-- Node8 -->
<g id="Node000008" class="node">
<title>Node8</title>
<g id="a_Node000008"><a xlink:href="abcgTrackball_8hpp.html" target="_top" xlink:title="Header file of abcg::TrackBall.">
<polygon fill="white" stroke="#666666" points="619.5,-129 515.5,-129 515.5,-110 619.5,-110 619.5,-129"/>
<text text-anchor="middle" x="567.5" y="-117" font-family="Helvetica,sans-Serif" font-size="10.00">abcgTrackball.hpp</text>
</a>
</g>
</g>
<!-- Node1&#45;&gt;Node8 -->
<g id="edge8_Node000001_Node000008" class="edge">
<title>Node1&#45;&gt;Node8</title>
<g id="a_edge8_Node000001_Node000008"><a xlink:title=" ">
<path fill="none" stroke="#63b8ff" d="M435.18,-164.99C464.82,-155.02 504.19,-141.78 532.27,-132.35"/>
<polygon fill="#63b8ff" stroke="#63b8ff" points="533.7,-135.56 542.06,-129.05 531.46,-128.92 533.7,-135.56"/>
</a>
</g>
</g>
<!-- Node11 -->
<g id="Node000011" class="node">
<title>Node11</title>
<g id="a_Node000011"><a xlink:href="abcgUtil_8hpp.html" target="_top" xlink:title="Declaration of general utility functions.">
<polygon fill="white" stroke="#666666" points="379.5,-129 301.5,-129 301.5,-110 379.5,-110 379.5,-129"/>
<text text-anchor="middle" x="340.5" y="-117" font-family="Helvetica,sans-Serif" font-size="10.00">abcgUtil.hpp</text>
</a>
</g>
</g>
<!-- Node1&#45;&gt;Node11 -->
<g id="edge12_Node000001_Node000011" class="edge">
<title>Node1&#45;&gt;Node11</title>
<g id="a_edge12_Node000001_Node000011"><a xlink:title=" ">
<path fill="none" stroke="#63b8ff" d="M380.67,-164.84C372.98,-156.35 363.17,-145.52 355.17,-136.69"/>
<polygon fill="#63b8ff" stroke="#63b8ff" points="357.75,-134.33 348.44,-129.27 352.56,-139.03 357.75,-134.33"/>
</a>
</g>
</g>
<!-- Node13 -->
<g id="Node000013" class="node">
<title>Node13</title>
<g id="a_Node000013"><a xlink:href="abcgWindow_8hpp.html" target="_top" xlink:title="Header file of abcg::Window.">
<polygon fill="white" stroke="#666666" points="497,-129 398,-129 398,-110 497,-110 497,-129"/>
<text text-anchor="middle" x="447.5" y="-117" font-family="Helvetica,sans-Serif" font-size="10.00">abcgWindow.hpp</text>
</a>
</g>
</g>
<!-- Node1&#45;&gt;Node13 -->
<g id="edge15_Node000001_Node000013" class="edge">
<title>Node1&#45;&gt;Node13</title>
<g id="a_edge15_Node000001_Node000013"><a xlink:title=" ">
<path fill="none" stroke="#63b8ff" d="M406.57,-164.84C414.41,-156.35 424.41,-145.52 432.56,-136.69"/>
<polygon fill="#63b8ff" stroke="#63b8ff" points="435.2,-138.99 439.41,-129.27 430.05,-134.24 435.2,-138.99"/>
</a>
</g>
</g>
<!-- Node3 -->
<g id="Node000003" class="node">
<title>Node3</title>
<g id="a_Node000003"><a xlink:title=" ">
<polygon fill="#e0e0e0" stroke="#999999" points="268.5,-74 224.5,-74 224.5,-55 268.5,-55 268.5,-74"/>
<text text-anchor="middle" x="246.5" y="-62" font-family="Helvetica,sans-Serif" font-size="10.00">string</text>
</a>
</g>
</g>
<!-- Node2&#45;&gt;Node3 -->
<g id="edge2_Node000002_Node000003" class="edge">
<title>Node2&#45;&gt;Node3</title>
<g id="a_edge2_Node000002_Node000003"><a xlink:title=" ">
<path fill="none" stroke="#63b8ff" d="M228.97,-109.75C231.78,-102.65 235.84,-92.4 239.35,-83.56"/>
<polygon fill="#63b8ff" stroke="#63b8ff" points="242.67,-84.68 243.1,-74.09 236.16,-82.1 242.67,-84.68"/>
</a>
</g>
</g>
<!-- Node4&#45;&gt;Node3 -->
<g id="edge6_Node000004_Node000003" class="edge">
<title>Node4&#45;&gt;Node3</title>
<g id="a_edge6_Node000004_Node000003"><a xlink:title=" ">
<path fill="none" stroke="#63b8ff" d="M118.92,-109.98C144.9,-100.93 186.09,-86.56 214.61,-76.62"/>
<polygon fill="#63b8ff" stroke="#63b8ff" points="215.83,-79.9 224.12,-73.3 213.53,-73.29 215.83,-79.9"/>
</a>
</g>
</g>
<!-- Node5 -->
<g id="Node000005" class="node">
<title>Node5</title>
<g id="a_Node000005"><a xlink:title=" ">
<polygon fill="#e0e0e0" stroke="#999999" points="93,-74 0,-74 0,-55 93,-55 93,-74"/>
<text text-anchor="middle" x="46.5" y="-62" font-family="Helvetica,sans-Serif" font-size="10.00">source_location</text>
</a>
</g>
</g>
<!-- Node4&#45;&gt;Node5 -->
<g id="edge4_Node000004_Node000005" class="edge">
<title>Node4&#45;&gt;Node5</title>
<g id="a_edge4_Node000004_Node000005"><a xlink:title=" ">
<path fill="none" stroke="#63b8ff" d="M86.57,-109.75C79.65,-102.11 69.43,-90.82 61.05,-81.56"/>
<polygon fill="#63b8ff" stroke="#63b8ff" points="63.59,-79.15 54.28,-74.09 58.4,-83.85 63.59,-79.15"/>
</a>
</g>
</g>
<!-- Node6 -->
<g id="Node000006" class="node">
<title>Node6</title>
<g id="a_Node000006"><a xlink:title=" ">
<polygon fill="#e0e0e0" stroke="#999999" points="176,-74 111,-74 111,-55 176,-55 176,-74"/>
<text text-anchor="middle" x="143.5" y="-62" font-family="Helvetica,sans-Serif" font-size="10.00">stdexcept</text>
</a>
</g>
</g>
<!-- Node4&#45;&gt;Node6 -->
<g id="edge5_Node000004_Node000006" class="edge">
<title>Node4&#45;&gt;Node6</title>
<g id="a_edge5_Node000004_Node000006"><a xlink:title=" ">
<path fill="none" stroke="#63b8ff" d="M102.59,-109.75C109.66,-102.11 120.09,-90.82 128.65,-81.56"/>
<polygon fill="#63b8ff" stroke="#63b8ff" points="131.34,-83.81 135.56,-74.09 126.2,-79.06 131.34,-83.81"/>
</a>
</g>
</g>
<!-- Node8&#45;&gt;Node7 -->
<g id="edge9_Node000008_Node000007" class="edge">
<title>Node8&#45;&gt;Node7</title>
<g id="a_edge9_Node000008_Node000007"><a xlink:title=" ">
<path fill="none" stroke="#63b8ff" d="M567.5,-109.75C567.5,-102.8 567.5,-92.85 567.5,-84.13"/>
<polygon fill="#63b8ff" stroke="#63b8ff" points="571,-84.09 567.5,-74.09 564,-84.09 571,-84.09"/>
</a>
</g>
</g>
<!-- Node9 -->
<g id="Node000009" class="node">
<title>Node9</title>
<g id="a_Node000009"><a xlink:href="abcgTimer_8hpp.html" target="_top" xlink:title="Header file of abcg::Timer.">
<polygon fill="white" stroke="#666666" points="495,-74 406,-74 406,-55 495,-55 495,-74"/>
<text text-anchor="middle" x="450.5" y="-62" font-family="Helvetica,sans-Serif" font-size="10.00">abcgTimer.hpp</text>
</a>
</g>
</g>
<!-- Node8&#45;&gt;Node9 -->
<g id="edge10_Node000008_Node000009" class="edge">
<title>Node8&#45;&gt;Node9</title>
<g id="a_edge10_Node000008_Node000009"><a xlink:title=" ">
<path fill="none" stroke="#63b8ff" d="M548.7,-109.98C529.88,-101.46 500.68,-88.23 479,-78.41"/>
<polygon fill="#63b8ff" stroke="#63b8ff" points="480.19,-75.11 469.64,-74.17 477.3,-81.48 480.19,-75.11"/>
</a>
</g>
</g>
<!-- Node10 -->
<g id="Node000010" class="node">
<title>Node10</title>
<g id="a_Node000010"><a xlink:title=" ">
<polygon fill="#e0e0e0" stroke="#999999" points="475.5,-19 425.5,-19 425.5,0 475.5,0 475.5,-19"/>
<text text-anchor="middle" x="450.5" y="-7" font-family="Helvetica,sans-Serif" font-size="10.00">chrono</text>
</a>
</g>
</g>
<!-- Node9&#45;&gt;Node10 -->
<g id="edge11_Node000009_Node000010" class="edge">
<title>Node9&#45;&gt;Node10</title>
<g id="a_edge11_Node000009_Node000010"><a xlink:title=" ">
<path fill="none" stroke="#63b8ff" d="M450.5,-54.75C450.5,-47.8 450.5,-37.85 450.5,-29.13"/>
<polygon fill="#63b8ff" stroke="#63b8ff" points="454,-29.09 450.5,-19.09 447,-29.09 454,-29.09"/>
</a>
</g>
</g>
<!-- Node11&#45;&gt;Node3 -->
<g id="edge14_Node000011_Node000003" class="edge">
<title>Node11&#45;&gt;Node3</title>
<g id="a_edge14_Node000011_Node000003"><a xlink:title=" ">
<path fill="none" stroke="#63b8ff" d="M325.4,-109.98C310.68,-101.69 288.08,-88.94 270.83,-79.22"/>
<polygon fill="#63b8ff" stroke="#63b8ff" points="272.31,-76.03 261.88,-74.17 268.87,-82.13 272.31,-76.03"/>
</a>
</g>
</g>
<!-- Node12 -->
<g id="Node000012" class="node">
<title>Node12</title>
<g id="a_Node000012"><a xlink:title=" ">
<polygon fill="#e0e0e0" stroke="#999999" points="373,-74 308,-74 308,-55 373,-55 373,-74"/>
<text text-anchor="middle" x="340.5" y="-62" font-family="Helvetica,sans-Serif" font-size="10.00">functional</text>
</a>
</g>
</g>
<!-- Node11&#45;&gt;Node12 -->
<g id="edge13_Node000011_Node000012" class="edge">
<title>Node11&#45;&gt;Node12</title>
<g id="a_edge13_Node000011_Node000012"><a xlink:title=" ">
<path fill="none" stroke="#63b8ff" d="M340.5,-109.75C340.5,-102.8 340.5,-92.85 340.5,-84.13"/>
<polygon fill="#63b8ff" stroke="#63b8ff" points="344,-84.09 340.5,-74.09 337,-84.09 344,-84.09"/>
</a>
</g>
</g>
<!-- Node13&#45;&gt;Node3 -->
<g id="edge16_Node000013_Node000003" class="edge">
<title>Node13&#45;&gt;Node3</title>
<g id="a_edge16_Node000013_Node000003"><a xlink:title=" ">
<path fill="none" stroke="#63b8ff" d="M415.21,-109.98C377.67,-100.09 316.11,-83.86 278.65,-73.98"/>
<polygon fill="#63b8ff" stroke="#63b8ff" points="279.32,-70.53 268.76,-71.37 277.53,-77.3 279.32,-70.53"/>
</a>
</g>
</g>
<!-- Node13&#45;&gt;Node7 -->
<g id="edge17_Node000013_Node000007" class="edge">
<title>Node13&#45;&gt;Node7</title>
<g id="a_edge17_Node000013_Node000007"><a xlink:title=" ">
<path fill="none" stroke="#63b8ff" d="M466.78,-109.98C486.17,-101.42 516.31,-88.11 538.57,-78.28"/>
<polygon fill="#63b8ff" stroke="#63b8ff" points="540.14,-81.41 547.87,-74.17 537.31,-75.01 540.14,-81.41"/>
</a>
</g>
</g>
<!-- Node13&#45;&gt;Node9 -->
<g id="edge18_Node000013_Node000009" class="edge">
<title>Node13&#45;&gt;Node9</title>
<g id="a_edge18_Node000013_Node000009"><a xlink:title=" ">
<path fill="none" stroke="#63b8ff" d="M448,-109.75C448.39,-102.8 448.95,-92.85 449.45,-84.13"/>
<polygon fill="#63b8ff" stroke="#63b8ff" points="452.94,-84.27 450.01,-74.09 445.95,-83.88 452.94,-84.27"/>
</a>
</g>
</g>
</g>
</svg>
