<?xml version="1.0" encoding="UTF-8" standalone="no"?>
<!DOCTYPE svg PUBLIC "-//W3C//DTD SVG 1.1//EN"
 "http://www.w3.org/Graphics/SVG/1.1/DTD/svg11.dtd">
<!-- Generated by graphviz version 2.43.0 (0)
 -->
<!-- Title: /home/harlen/dev/abcg/abcg/abcgOpenGLFunction.cpp Pages: 1 -->
<svg width="549pt" height="207pt"
 viewBox="0.00 0.00 549.24 207.00" xmlns="http://www.w3.org/2000/svg" xmlns:xlink="http://www.w3.org/1999/xlink">
<g id="graph0" class="graph" transform="scale(1 1) rotate(0) translate(4 203)">
<title>/home/harlen/dev/abcg/abcg/abcgOpenGLFunction.cpp</title>
<!-- Node1 -->
<g id="node1" class="node">
<title>Node1</title>
<g id="a_node1"><a xlink:title="Definition of OpenGL&#45;related error checking functions.">
<polygon fill="#bfbfbf" stroke="black" points="167.74,-168.5 167.74,-198.5 336.74,-198.5 336.74,-168.5 167.74,-168.5"/>
<text text-anchor="start" x="175.74" y="-186.5" font-family="Helvetica,sans-Serif" font-size="10.00">/home/harlen/dev/abcg</text>
<text text-anchor="middle" x="252.24" y="-175.5" font-family="Helvetica,sans-Serif" font-size="10.00">/abcg/abcgOpenGLFunction.cpp</text>
</a>
</g>
</g>
<!-- Node2 -->
<g id="node2" class="node">
<title>Node2</title>
<g id="a_node2"><a xlink:href="abcgOpenGLFunction_8hpp.html" target="_top" xlink:title="Declaration of OpenGL&#45;related error checking functions.">
<polygon fill="none" stroke="black" points="72.24,-112.5 72.24,-131.5 212.24,-131.5 212.24,-112.5 72.24,-112.5"/>
<text text-anchor="middle" x="142.24" y="-119.5" font-family="Helvetica,sans-Serif" font-size="10.00">abcgOpenGLFunction.hpp</text>
</a>
</g>
</g>
<!-- Node1&#45;&gt;Node2 -->
<g id="edge1" class="edge">
<title>Node1&#45;&gt;Node2</title>
<path fill="none" stroke="midnightblue" d="M226.17,-168.4C208.37,-158.77 184.93,-146.09 167.34,-136.58"/>
<polygon fill="midnightblue" stroke="midnightblue" points="168.71,-133.34 158.24,-131.66 165.37,-139.49 168.71,-133.34"/>
</g>
<!-- Node7 -->
<g id="node7" class="node">
<title>Node7</title>
<g id="a_node7"><a xlink:href="abcgOpenGLError_8hpp.html" target="_top" xlink:title="Header file of abcg::OpenGLError and derived classes.">
<polygon fill="none" stroke="black" points="302.24,-112.5 302.24,-131.5 424.24,-131.5 424.24,-112.5 302.24,-112.5"/>
<text text-anchor="middle" x="363.24" y="-119.5" font-family="Helvetica,sans-Serif" font-size="10.00">abcgOpenGLError.hpp</text>
</a>
</g>
</g>
<!-- Node1&#45;&gt;Node7 -->
<g id="edge6" class="edge">
<title>Node1&#45;&gt;Node7</title>
<path fill="none" stroke="midnightblue" d="M278.54,-168.4C296.5,-158.77 320.16,-146.09 337.91,-136.58"/>
<polygon fill="midnightblue" stroke="midnightblue" points="339.93,-139.47 347.09,-131.66 336.62,-133.3 339.93,-139.47"/>
</g>
<!-- Node3 -->
<g id="node3" class="node">
<title>Node3</title>
<g id="a_node3"><a xlink:title=" ">
<polygon fill="none" stroke="#bfbfbf" points="302.74,-0.5 302.74,-19.5 395.74,-19.5 395.74,-0.5 302.74,-0.5"/>
<text text-anchor="middle" x="349.24" y="-7.5" font-family="Helvetica,sans-Serif" font-size="10.00">source_location</text>
</a>
</g>
</g>
<!-- Node2&#45;&gt;Node3 -->
<g id="edge2" class="edge">
<title>Node2&#45;&gt;Node3</title>
<path fill="none" stroke="midnightblue" d="M81.52,-112.43C34.34,-103.3 -19,-85.92 7.24,-56 25.72,-34.93 200.11,-20.61 292.46,-14.43"/>
<polygon fill="midnightblue" stroke="midnightblue" points="292.74,-17.92 302.49,-13.78 292.28,-10.94 292.74,-17.92"/>
</g>
<!-- Node4 -->
<g id="node4" class="node">
<title>Node4</title>
<g id="a_node4"><a xlink:title=" ">
<polygon fill="none" stroke="#bfbfbf" points="16.74,-56.5 16.74,-75.5 89.74,-75.5 89.74,-56.5 16.74,-56.5"/>
<text text-anchor="middle" x="53.24" y="-63.5" font-family="Helvetica,sans-Serif" font-size="10.00">string_view</text>
</a>
</g>
</g>
<!-- Node2&#45;&gt;Node4 -->
<g id="edge3" class="edge">
<title>Node2&#45;&gt;Node4</title>
<path fill="none" stroke="midnightblue" d="M127.94,-112.32C114.06,-103.9 92.75,-90.97 76.43,-81.07"/>
<polygon fill="midnightblue" stroke="midnightblue" points="77.87,-77.85 67.5,-75.65 74.24,-83.83 77.87,-77.85"/>
</g>
<!-- Node5 -->
<g id="node5" class="node">
<title>Node5</title>
<g id="a_node5"><a xlink:title=" ">
<polygon fill="none" stroke="#bfbfbf" points="107.74,-56.5 107.74,-75.5 176.74,-75.5 176.74,-56.5 107.74,-56.5"/>
<text text-anchor="middle" x="142.24" y="-63.5" font-family="Helvetica,sans-Serif" font-size="10.00">type_traits</text>
</a>
</g>
</g>
<!-- Node2&#45;&gt;Node5 -->
<g id="edge4" class="edge">
<title>Node2&#45;&gt;Node5</title>
<path fill="none" stroke="midnightblue" d="M142.24,-112.08C142.24,-105.01 142.24,-94.86 142.24,-85.99"/>
<polygon fill="midnightblue" stroke="midnightblue" points="145.74,-85.75 142.24,-75.75 138.74,-85.75 145.74,-85.75"/>
</g>
<!-- Node6 -->
<g id="node6" class="node">
<title>Node6</title>
<g id="a_node6"><a xlink:href="abcgOpenGLExternal_8hpp.html" target="_top" xlink:title="Header file for including OpenGL&#45;related third&#45;party dependencies.">
<polygon fill="none" stroke="black" points="195.24,-56.5 195.24,-75.5 335.24,-75.5 335.24,-56.5 195.24,-56.5"/>
<text text-anchor="middle" x="265.24" y="-63.5" font-family="Helvetica,sans-Serif" font-size="10.00">abcgOpenGLExternal.hpp</text>
</a>
</g>
</g>
<!-- Node2&#45;&gt;Node6 -->
<g id="edge5" class="edge">
<title>Node2&#45;&gt;Node6</title>
<path fill="none" stroke="midnightblue" d="M161.73,-112.44C181.88,-103.6 213.56,-89.69 236.57,-79.59"/>
<polygon fill="midnightblue" stroke="midnightblue" points="238.09,-82.74 245.84,-75.52 235.28,-76.33 238.09,-82.74"/>
</g>
<!-- Node7&#45;&gt;Node3 -->
<g id="edge7" class="edge">
<title>Node7&#45;&gt;Node3</title>
<path fill="none" stroke="midnightblue" d="M362.14,-112.37C359.88,-94.62 354.67,-53.67 351.61,-29.6"/>
<polygon fill="midnightblue" stroke="midnightblue" points="355.07,-29.07 350.33,-19.59 348.12,-29.95 355.07,-29.07"/>
</g>
<!-- Node8 -->
<g id="node8" class="node">
<title>Node8</title>
<g id="a_node8"><a xlink:href="abcgException_8hpp.html" target="_top" xlink:title="Header file of abcg::Exception and derived classes.">
<polygon fill="none" stroke="black" points="391.74,-56.5 391.74,-75.5 500.74,-75.5 500.74,-56.5 391.74,-56.5"/>
<text text-anchor="middle" x="446.24" y="-63.5" font-family="Helvetica,sans-Serif" font-size="10.00">abcgException.hpp</text>
</a>
</g>
</g>
<!-- Node7&#45;&gt;Node8 -->
<g id="edge8" class="edge">
<title>Node7&#45;&gt;Node8</title>
<path fill="none" stroke="midnightblue" d="M376.57,-112.32C389.4,-103.98 409.02,-91.21 424.18,-81.35"/>
<polygon fill="midnightblue" stroke="midnightblue" points="426.46,-84.04 432.94,-75.65 422.65,-78.17 426.46,-84.04"/>
</g>
<!-- Node8&#45;&gt;Node3 -->
<g id="edge9" class="edge">
<title>Node8&#45;&gt;Node3</title>
<path fill="none" stroke="midnightblue" d="M430.65,-56.32C415.24,-47.74 391.43,-34.49 373.53,-24.52"/>
<polygon fill="midnightblue" stroke="midnightblue" points="375.22,-21.46 364.78,-19.65 371.82,-27.58 375.22,-21.46"/>
</g>
<!-- Node9 -->
<g id="node9" class="node">
<title>Node9</title>
<g id="a_node9"><a xlink:title=" ">
<polygon fill="none" stroke="#bfbfbf" points="413.74,-0.5 413.74,-19.5 478.74,-19.5 478.74,-0.5 413.74,-0.5"/>
<text text-anchor="middle" x="446.24" y="-7.5" font-family="Helvetica,sans-Serif" font-size="10.00">stdexcept</text>
</a>
</g>
</g>
<!-- Node8&#45;&gt;Node9 -->
<g id="edge10" class="edge">
<title>Node8&#45;&gt;Node9</title>
<path fill="none" stroke="midnightblue" d="M446.24,-56.08C446.24,-49.01 446.24,-38.86 446.24,-29.99"/>
<polygon fill="midnightblue" stroke="midnightblue" points="449.74,-29.75 446.24,-19.75 442.74,-29.75 449.74,-29.75"/>
</g>
<!-- Node10 -->
<g id="node10" class="node">
<title>Node10</title>
<g id="a_node10"><a xlink:title=" ">
<polygon fill="none" stroke="#bfbfbf" points="497.24,-0.5 497.24,-19.5 541.24,-19.5 541.24,-0.5 497.24,-0.5"/>
<text text-anchor="middle" x="519.24" y="-7.5" font-family="Helvetica,sans-Serif" font-size="10.00">string</text>
</a>
</g>
</g>
<!-- Node8&#45;&gt;Node10 -->
<g id="edge11" class="edge">
<title>Node8&#45;&gt;Node10</title>
<path fill="none" stroke="midnightblue" d="M457.97,-56.32C469.08,-48.11 485.98,-35.6 499.22,-25.81"/>
<polygon fill="midnightblue" stroke="midnightblue" points="501.34,-28.59 507.3,-19.83 497.18,-22.97 501.34,-28.59"/>
</g>
</g>
</svg>
