<?xml version="1.0" encoding="UTF-8" standalone="no"?>
<!DOCTYPE svg PUBLIC "-//W3C//DTD SVG 1.1//EN"
 "http://www.w3.org/Graphics/SVG/1.1/DTD/svg11.dtd">
<!-- Generated by graphviz version 2.43.0 (0)
 -->
<!-- Title: /home/harlen/dev/abcg2/abcg/abcg_vulkan_external.hpp Pages: 1 -->
<svg width="1005pt" height="329pt"
 viewBox="0.00 0.00 1005.48 329.00" xmlns="http://www.w3.org/2000/svg" xmlns:xlink="http://www.w3.org/1999/xlink">
<g id="graph0" class="graph" transform="scale(1 1) rotate(0) translate(4 325)">
<title>/home/harlen/dev/abcg2/abcg/abcg_vulkan_external.hpp</title>
<!-- Node1 -->
<g id="node1" class="node">
<title>Node1</title>
<g id="a_node1"><a xlink:title="Header file for including Vulkan&#45;related dependencies.">
<polygon fill="#bfbfbf" stroke="black" points="402.5,-290.5 402.5,-320.5 575.5,-320.5 575.5,-290.5 402.5,-290.5"/>
<text text-anchor="start" x="410.5" y="-308.5" font-family="Helvetica,sans-Serif" font-size="10.00">/home/harlen/dev/abcg2</text>
<text text-anchor="middle" x="489" y="-297.5" font-family="Helvetica,sans-Serif" font-size="10.00">/abcg/abcg_vulkan_external.hpp</text>
</a>
</g>
</g>
<!-- Node2 -->
<g id="node2" class="node">
<title>Node2</title>
<g id="a_node2"><a xlink:href="abcg__vulkan_8hpp.html" target="_top" xlink:title="Header file for Vulkan&#45;related functions and classes.">
<polygon fill="none" stroke="black" points="422,-223.5 422,-253.5 556,-253.5 556,-223.5 422,-223.5"/>
<text text-anchor="start" x="430" y="-241.5" font-family="Helvetica,sans-Serif" font-size="10.00">/home/harlen/dev/abcg2</text>
<text text-anchor="middle" x="489" y="-230.5" font-family="Helvetica,sans-Serif" font-size="10.00">/abcg/abcg_vulkan.hpp</text>
</a>
</g>
</g>
<!-- Node1&#45;&gt;Node2 -->
<g id="edge1" class="edge">
<title>Node1&#45;&gt;Node2</title>
<path fill="none" stroke="midnightblue" d="M489,-280.11C489,-271.15 489,-261.32 489,-253.58"/>
<polygon fill="midnightblue" stroke="midnightblue" points="485.5,-280.4 489,-290.4 492.5,-280.4 485.5,-280.4"/>
</g>
<!-- Node3 -->
<g id="node3" class="node">
<title>Node3</title>
<g id="a_node3"><a xlink:href="abcg__vulkan_8cpp.html" target="_top" xlink:title=" ">
<polygon fill="none" stroke="black" points="0,-73 0,-103 134,-103 134,-73 0,-73"/>
<text text-anchor="start" x="8" y="-91" font-family="Helvetica,sans-Serif" font-size="10.00">/home/harlen/dev/abcg2</text>
<text text-anchor="middle" x="67" y="-80" font-family="Helvetica,sans-Serif" font-size="10.00">/abcg/abcg_vulkan.cpp</text>
</a>
</g>
</g>
<!-- Node2&#45;&gt;Node3 -->
<g id="edge2" class="edge">
<title>Node2&#45;&gt;Node3</title>
<path fill="none" stroke="midnightblue" d="M411.92,-234.02C320.96,-228.66 176.31,-215.8 131,-187 99.44,-166.94 80.19,-125.09 71.85,-103.14"/>
<polygon fill="midnightblue" stroke="midnightblue" points="411.74,-237.52 421.92,-234.6 412.14,-230.53 411.74,-237.52"/>
</g>
<!-- Node4 -->
<g id="node4" class="node">
<title>Node4</title>
<g id="a_node4"><a xlink:href="abcg__vulkan__device_8hpp.html" target="_top" xlink:title="Header file of abcg::VulkanDevice.">
<polygon fill="none" stroke="black" points="310.5,-151 310.5,-181 475.5,-181 475.5,-151 310.5,-151"/>
<text text-anchor="start" x="318.5" y="-169" font-family="Helvetica,sans-Serif" font-size="10.00">/home/harlen/dev/abcg2</text>
<text text-anchor="middle" x="393" y="-158" font-family="Helvetica,sans-Serif" font-size="10.00">/abcg/abcg_vulkan_device.hpp</text>
</a>
</g>
</g>
<!-- Node2&#45;&gt;Node4 -->
<g id="edge3" class="edge">
<title>Node2&#45;&gt;Node4</title>
<path fill="none" stroke="midnightblue" d="M461.23,-217.11C445.46,-205.53 426.13,-191.33 412.07,-181"/>
<polygon fill="midnightblue" stroke="midnightblue" points="459.44,-220.14 469.57,-223.23 463.58,-214.49 459.44,-220.14"/>
</g>
<!-- Node7 -->
<g id="node7" class="node">
<title>Node7</title>
<g id="a_node7"><a xlink:href="abcg__vulkan__window_8hpp.html" target="_top" xlink:title="Header file of abcg::VulkanWindow.">
<polygon fill="none" stroke="black" points="618,-73 618,-103 788,-103 788,-73 618,-73"/>
<text text-anchor="start" x="626" y="-91" font-family="Helvetica,sans-Serif" font-size="10.00">/home/harlen/dev/abcg2</text>
<text text-anchor="middle" x="703" y="-80" font-family="Helvetica,sans-Serif" font-size="10.00">/abcg/abcg_vulkan_window.hpp</text>
</a>
</g>
</g>
<!-- Node2&#45;&gt;Node7 -->
<g id="edge23" class="edge">
<title>Node2&#45;&gt;Node7</title>
<path fill="none" stroke="midnightblue" d="M566.09,-226.85C614.75,-218.51 671.44,-205.24 688,-187 709.05,-163.81 707.75,-124.06 705.24,-103.02"/>
<polygon fill="midnightblue" stroke="midnightblue" points="565.45,-223.41 556.16,-228.51 566.6,-230.31 565.45,-223.41"/>
</g>
<!-- Node9 -->
<g id="node9" class="node">
<title>Node9</title>
<g id="a_node9"><a xlink:href="abcg__vulkan__instance_8hpp.html" target="_top" xlink:title="Header file of abcg::VulkanInstance.">
<polygon fill="none" stroke="black" points="734,-151 734,-181 908,-181 908,-151 734,-151"/>
<text text-anchor="start" x="742" y="-169" font-family="Helvetica,sans-Serif" font-size="10.00">/home/harlen/dev/abcg2</text>
<text text-anchor="middle" x="821" y="-158" font-family="Helvetica,sans-Serif" font-size="10.00">/abcg/abcg_vulkan_instance.hpp</text>
</a>
</g>
</g>
<!-- Node2&#45;&gt;Node9 -->
<g id="edge9" class="edge">
<title>Node2&#45;&gt;Node9</title>
<path fill="none" stroke="midnightblue" d="M565.08,-221.34C622.37,-209.18 700.13,-192.67 754.85,-181.05"/>
<polygon fill="midnightblue" stroke="midnightblue" points="564.04,-217.99 554.99,-223.49 565.5,-224.83 564.04,-217.99"/>
</g>
<!-- Node12 -->
<g id="node12" class="node">
<title>Node12</title>
<g id="a_node12"><a xlink:href="abcg__vulkan__physical__device_8hpp.html" target="_top" xlink:title="Header file of abcg::VulkanPhysicalDevice.">
<polygon fill="none" stroke="black" points="140,-145.5 140,-186.5 292,-186.5 292,-145.5 140,-145.5"/>
<text text-anchor="start" x="148" y="-174.5" font-family="Helvetica,sans-Serif" font-size="10.00">/home/harlen/dev/abcg2</text>
<text text-anchor="start" x="148" y="-163.5" font-family="Helvetica,sans-Serif" font-size="10.00">/abcg/abcg_vulkan_physical</text>
<text text-anchor="middle" x="216" y="-152.5" font-family="Helvetica,sans-Serif" font-size="10.00">_device.hpp</text>
</a>
</g>
</g>
<!-- Node2&#45;&gt;Node12 -->
<g id="edge14" class="edge">
<title>Node2&#45;&gt;Node12</title>
<path fill="none" stroke="midnightblue" d="M424.86,-220.94C384.97,-210.63 333.48,-197.34 291.61,-186.53"/>
<polygon fill="midnightblue" stroke="midnightblue" points="424.18,-224.38 434.74,-223.49 425.93,-217.6 424.18,-224.38"/>
</g>
<!-- Node13 -->
<g id="node13" class="node">
<title>Node13</title>
<g id="a_node13"><a xlink:href="abcg__vulkan__swapchain_8hpp.html" target="_top" xlink:title="Header file of abcg::VulkanSwapchain.">
<polygon fill="none" stroke="black" points="493.5,-151 493.5,-181 678.5,-181 678.5,-151 493.5,-151"/>
<text text-anchor="start" x="501.5" y="-169" font-family="Helvetica,sans-Serif" font-size="10.00">/home/harlen/dev/abcg2</text>
<text text-anchor="middle" x="586" y="-158" font-family="Helvetica,sans-Serif" font-size="10.00">/abcg/abcg_vulkan_swapchain.hpp</text>
</a>
</g>
</g>
<!-- Node2&#45;&gt;Node13 -->
<g id="edge20" class="edge">
<title>Node2&#45;&gt;Node13</title>
<path fill="none" stroke="midnightblue" d="M517.05,-217.11C532.99,-205.53 552.53,-191.33 566.73,-181"/>
<polygon fill="midnightblue" stroke="midnightblue" points="514.66,-214.52 508.63,-223.23 518.78,-220.19 514.66,-214.52"/>
</g>
<!-- Node5 -->
<g id="node5" class="node">
<title>Node5</title>
<g id="a_node5"><a xlink:href="abcg__vulkan__device_8cpp.html" target="_top" xlink:title="Definition of abcg::VulkanDevice.">
<polygon fill="none" stroke="black" points="190,-73 190,-103 354,-103 354,-73 190,-73"/>
<text text-anchor="start" x="198" y="-91" font-family="Helvetica,sans-Serif" font-size="10.00">/home/harlen/dev/abcg2</text>
<text text-anchor="middle" x="272" y="-80" font-family="Helvetica,sans-Serif" font-size="10.00">/abcg/abcg_vulkan_device.cpp</text>
</a>
</g>
</g>
<!-- Node4&#45;&gt;Node5 -->
<g id="edge4" class="edge">
<title>Node4&#45;&gt;Node5</title>
<path fill="none" stroke="midnightblue" d="M361.9,-145.47C340.78,-132.2 313.34,-114.96 294.36,-103.04"/>
<polygon fill="midnightblue" stroke="midnightblue" points="360.19,-148.53 370.52,-150.88 363.92,-142.6 360.19,-148.53"/>
</g>
<!-- Node6 -->
<g id="node6" class="node">
<title>Node6</title>
<g id="a_node6"><a xlink:href="abcg__vulkan__swapchain_8cpp.html" target="_top" xlink:title="Definition of abcg::VulkanSwapchain.">
<polygon fill="none" stroke="black" points="425,-0.5 425,-30.5 609,-30.5 609,-0.5 425,-0.5"/>
<text text-anchor="start" x="433" y="-18.5" font-family="Helvetica,sans-Serif" font-size="10.00">/home/harlen/dev/abcg2</text>
<text text-anchor="middle" x="517" y="-7.5" font-family="Helvetica,sans-Serif" font-size="10.00">/abcg/abcg_vulkan_swapchain.cpp</text>
</a>
</g>
</g>
<!-- Node4&#45;&gt;Node6 -->
<g id="edge5" class="edge">
<title>Node4&#45;&gt;Node6</title>
<path fill="none" stroke="midnightblue" d="M388.51,-140.9C385.92,-119.5 385.71,-88.38 401,-67 413.46,-49.58 433.25,-38.1 452.99,-30.57"/>
<polygon fill="midnightblue" stroke="midnightblue" points="385.06,-141.44 389.97,-150.83 391.98,-140.42 385.06,-141.44"/>
</g>
<!-- Node4&#45;&gt;Node7 -->
<g id="edge6" class="edge">
<title>Node4&#45;&gt;Node7</title>
<path fill="none" stroke="midnightblue" d="M459.95,-148.59C515.39,-134.99 593.31,-115.89 645.85,-103.01"/>
<polygon fill="midnightblue" stroke="midnightblue" points="459.1,-145.19 450.22,-150.97 460.77,-151.99 459.1,-145.19"/>
</g>
<!-- Node7&#45;&gt;Node6 -->
<g id="edge7" class="edge">
<title>Node7&#45;&gt;Node6</title>
<path fill="none" stroke="midnightblue" d="M656.33,-69.31C624.72,-57.33 583.51,-41.71 554.13,-30.57"/>
<polygon fill="midnightblue" stroke="midnightblue" points="655.22,-72.63 665.81,-72.9 657.7,-66.09 655.22,-72.63"/>
</g>
<!-- Node8 -->
<g id="node8" class="node">
<title>Node8</title>
<g id="a_node8"><a xlink:href="abcg__vulkan__window_8cpp.html" target="_top" xlink:title="Definition of abcg::VulkanWindow members.">
<polygon fill="none" stroke="black" points="690.5,-0.5 690.5,-30.5 859.5,-30.5 859.5,-0.5 690.5,-0.5"/>
<text text-anchor="start" x="698.5" y="-18.5" font-family="Helvetica,sans-Serif" font-size="10.00">/home/harlen/dev/abcg2</text>
<text text-anchor="middle" x="775" y="-7.5" font-family="Helvetica,sans-Serif" font-size="10.00">/abcg/abcg_vulkan_window.cpp</text>
</a>
</g>
</g>
<!-- Node7&#45;&gt;Node8 -->
<g id="edge8" class="edge">
<title>Node7&#45;&gt;Node8</title>
<path fill="none" stroke="midnightblue" d="M724.77,-65.69C736.32,-54.37 750.21,-40.77 760.45,-30.75"/>
<polygon fill="midnightblue" stroke="midnightblue" points="722.27,-63.24 717.57,-72.73 727.16,-68.24 722.27,-63.24"/>
</g>
<!-- Node9&#45;&gt;Node7 -->
<g id="edge13" class="edge">
<title>Node9&#45;&gt;Node7</title>
<path fill="none" stroke="midnightblue" d="M790.67,-145.47C770.07,-132.2 743.31,-114.96 724.8,-103.04"/>
<polygon fill="midnightblue" stroke="midnightblue" points="788.78,-148.41 799.08,-150.88 792.57,-142.53 788.78,-148.41"/>
</g>
<!-- Node9&#45;&gt;Node8 -->
<g id="edge12" class="edge">
<title>Node9&#45;&gt;Node8</title>
<path fill="none" stroke="midnightblue" d="M917.84,-154.14C945.26,-146.07 972.2,-132.31 989,-109 999.91,-93.86 1000.58,-81.64 989,-67 972.71,-46.42 912.19,-33.38 859.64,-25.72"/>
<polygon fill="midnightblue" stroke="midnightblue" points="916.88,-150.77 908.14,-156.76 918.7,-157.53 916.88,-150.77"/>
</g>
<!-- Node10 -->
<g id="node10" class="node">
<title>Node10</title>
<g id="a_node10"><a xlink:href="abcg__vulkan__instance_8cpp.html" target="_top" xlink:title="Definition of abcg::VulkanInstance.">
<polygon fill="none" stroke="black" points="806.5,-73 806.5,-103 979.5,-103 979.5,-73 806.5,-73"/>
<text text-anchor="start" x="814.5" y="-91" font-family="Helvetica,sans-Serif" font-size="10.00">/home/harlen/dev/abcg2</text>
<text text-anchor="middle" x="893" y="-80" font-family="Helvetica,sans-Serif" font-size="10.00">/abcg/abcg_vulkan_instance.cpp</text>
</a>
</g>
</g>
<!-- Node9&#45;&gt;Node10 -->
<g id="edge10" class="edge">
<title>Node9&#45;&gt;Node10</title>
<path fill="none" stroke="midnightblue" d="M841.68,-143.17C853.84,-130.33 868.87,-114.47 879.52,-103.23"/>
<polygon fill="midnightblue" stroke="midnightblue" points="838.88,-141.04 834.54,-150.7 843.96,-145.85 838.88,-141.04"/>
</g>
<!-- Node11 -->
<g id="node11" class="node">
<title>Node11</title>
<g id="a_node11"><a xlink:href="abcg__vulkan__physical__device_8cpp.html" target="_top" xlink:title="Definition of abcg::VulkanPhysicalDevice.">
<polygon fill="none" stroke="black" points="410,-67.5 410,-108.5 562,-108.5 562,-67.5 410,-67.5"/>
<text text-anchor="start" x="418" y="-96.5" font-family="Helvetica,sans-Serif" font-size="10.00">/home/harlen/dev/abcg2</text>
<text text-anchor="start" x="418" y="-85.5" font-family="Helvetica,sans-Serif" font-size="10.00">/abcg/abcg_vulkan_physical</text>
<text text-anchor="middle" x="486" y="-74.5" font-family="Helvetica,sans-Serif" font-size="10.00">_device.cpp</text>
</a>
</g>
</g>
<!-- Node9&#45;&gt;Node11 -->
<g id="edge11" class="edge">
<title>Node9&#45;&gt;Node11</title>
<path fill="none" stroke="midnightblue" d="M749.13,-148.7C694.07,-136.2 618.27,-119.01 562.17,-106.28"/>
<polygon fill="midnightblue" stroke="midnightblue" points="748.64,-152.17 759.17,-150.97 750.19,-145.35 748.64,-152.17"/>
</g>
<!-- Node12&#45;&gt;Node3 -->
<g id="edge15" class="edge">
<title>Node12&#45;&gt;Node3</title>
<path fill="none" stroke="midnightblue" d="M168.57,-140.81C144.29,-128.43 115.58,-113.78 94.89,-103.23"/>
<polygon fill="midnightblue" stroke="midnightblue" points="167.13,-144 177.63,-145.43 170.31,-137.77 167.13,-144"/>
</g>
<!-- Node12&#45;&gt;Node5 -->
<g id="edge16" class="edge">
<title>Node12&#45;&gt;Node5</title>
<path fill="none" stroke="midnightblue" d="M236.4,-137.32C244.92,-125.75 254.46,-112.8 261.52,-103.23"/>
<polygon fill="midnightblue" stroke="midnightblue" points="233.54,-135.3 230.42,-145.43 239.17,-139.45 233.54,-135.3"/>
</g>
<!-- Node12&#45;&gt;Node6 -->
<g id="edge18" class="edge">
<title>Node12&#45;&gt;Node6</title>
<path fill="none" stroke="midnightblue" d="M192.53,-137.19C177.53,-115.92 163.83,-86.94 181,-67 211.93,-31.07 336.5,-20.35 424.92,-17.35"/>
<polygon fill="midnightblue" stroke="midnightblue" points="189.73,-139.29 198.5,-145.22 195.34,-135.11 189.73,-139.29"/>
</g>
<!-- Node12&#45;&gt;Node7 -->
<g id="edge19" class="edge">
<title>Node12&#45;&gt;Node7</title>
<path fill="none" stroke="midnightblue" d="M302.28,-144.85C421.77,-123.25 454.31,-125.62 571,-109 586.14,-106.84 602.25,-104.47 617.82,-102.13"/>
<polygon fill="midnightblue" stroke="midnightblue" points="301.59,-141.41 292.38,-146.65 302.85,-148.3 301.59,-141.41"/>
</g>
<!-- Node12&#45;&gt;Node11 -->
<g id="edge17" class="edge">
<title>Node12&#45;&gt;Node11</title>
<path fill="none" stroke="midnightblue" d="M295.16,-142.72C333.69,-131.87 379.58,-118.96 416.7,-108.51"/>
<polygon fill="midnightblue" stroke="midnightblue" points="294.21,-139.35 285.53,-145.43 296.11,-146.09 294.21,-139.35"/>
</g>
<!-- Node13&#45;&gt;Node6 -->
<g id="edge21" class="edge">
<title>Node13&#45;&gt;Node6</title>
<path fill="none" stroke="midnightblue" d="M586.62,-140.62C586.16,-119.91 583.12,-89.97 571,-67 563.27,-52.35 549.62,-39.65 537.98,-30.64"/>
<polygon fill="midnightblue" stroke="midnightblue" points="583.12,-140.81 586.65,-150.8 590.12,-140.79 583.12,-140.81"/>
</g>
<!-- Node13&#45;&gt;Node7 -->
<g id="edge22" class="edge">
<title>Node13&#45;&gt;Node7</title>
<path fill="none" stroke="midnightblue" d="M616.34,-145.29C636.73,-132.05 663.11,-114.91 681.38,-103.04"/>
<polygon fill="midnightblue" stroke="midnightblue" points="614.21,-142.5 607.73,-150.88 618.03,-148.37 614.21,-142.5"/>
</g>
</g>
</svg>
