<?xml version="1.0" encoding="UTF-8" standalone="no"?>
<!DOCTYPE svg PUBLIC "-//W3C//DTD SVG 1.1//EN"
 "http://www.w3.org/Graphics/SVG/1.1/DTD/svg11.dtd">
<!-- Generated by graphviz version 2.43.0 (0)
 -->
<!-- Title: /home/harlen/dev/abcg/abcg/abcgVulkanImage.cpp Pages: 1 -->
<svg width="864pt" height="368pt"
 viewBox="0.00 0.00 864.00 368.00" xmlns="http://www.w3.org/2000/svg" xmlns:xlink="http://www.w3.org/1999/xlink">
<g id="graph0" class="graph" transform="scale(1 1) rotate(0) translate(4 364)">
<title>/home/harlen/dev/abcg/abcg/abcgVulkanImage.cpp</title>
<!-- Node1 -->
<g id="Node000001" class="node">
<title>Node1</title>
<g id="a_Node000001"><a xlink:title="Definition of abcg::VulkanImage.">
<polygon fill="#999999" stroke="#666666" points="543,-360 391,-360 391,-330 543,-330 543,-360"/>
<text text-anchor="start" x="399" y="-348" font-family="Helvetica,sans-Serif" font-size="10.00">/home/harlen/dev/abcg</text>
<text text-anchor="middle" x="467" y="-337" font-family="Helvetica,sans-Serif" font-size="10.00">/abcg/abcgVulkanImage.cpp</text>
</a>
</g>
</g>
<!-- Node2 -->
<g id="Node000002" class="node">
<title>Node2</title>
<g id="a_Node000002"><a xlink:href="abcgVulkanImage_8hpp.html" target="_top" xlink:title="Header file of abcg::VulkanImage.">
<polygon fill="white" stroke="#666666" points="281,-294 157,-294 157,-275 281,-275 281,-294"/>
<text text-anchor="middle" x="219" y="-282" font-family="Helvetica,sans-Serif" font-size="10.00">abcgVulkanImage.hpp</text>
</a>
</g>
</g>
<!-- Node1&#45;&gt;Node2 -->
<g id="edge1_Node000001_Node000002" class="edge">
<title>Node1&#45;&gt;Node2</title>
<g id="a_edge1_Node000001_Node000002"><a xlink:title=" ">
<path fill="none" stroke="#63b8ff" d="M407.6,-329.99C363.87,-319.67 305.28,-305.85 265.07,-296.37"/>
<polygon fill="#63b8ff" stroke="#63b8ff" points="265.8,-292.94 255.26,-294.05 264.19,-299.76 265.8,-292.94"/>
</a>
</g>
</g>
<!-- Node12 -->
<g id="Node000012" class="node">
<title>Node12</title>
<g id="a_Node000012"><a xlink:href="abcgVulkanBuffer_8hpp.html" target="_top" xlink:title="Header file of abcg::VulkanBuffer.">
<polygon fill="white" stroke="#666666" points="139,-294 17,-294 17,-275 139,-275 139,-294"/>
<text text-anchor="middle" x="78" y="-282" font-family="Helvetica,sans-Serif" font-size="10.00">abcgVulkanBuffer.hpp</text>
</a>
</g>
</g>
<!-- Node1&#45;&gt;Node12 -->
<g id="edge12_Node000001_Node000012" class="edge">
<title>Node1&#45;&gt;Node12</title>
<g id="a_edge12_Node000001_Node000012"><a xlink:title=" ">
<path fill="none" stroke="#63b8ff" d="M390.61,-332.51C319.05,-321.75 213.17,-305.83 144.88,-295.56"/>
<polygon fill="#63b8ff" stroke="#63b8ff" points="145.07,-292.05 134.66,-294.02 144.03,-298.97 145.07,-292.05"/>
</a>
</g>
</g>
<!-- Node13 -->
<g id="Node000013" class="node">
<title>Node13</title>
<g id="a_Node000013"><a xlink:title=" ">
<polygon fill="#e0e0e0" stroke="#999999" points="379,-294 299,-294 299,-275 379,-275 379,-294"/>
<text text-anchor="middle" x="339" y="-282" font-family="Helvetica,sans-Serif" font-size="10.00">SDL_image.h</text>
</a>
</g>
</g>
<!-- Node1&#45;&gt;Node13 -->
<g id="edge15_Node000001_Node000013" class="edge">
<title>Node1&#45;&gt;Node13</title>
<g id="a_edge15_Node000001_Node000013"><a xlink:title=" ">
<path fill="none" stroke="#63b8ff" d="M436.34,-329.99C415.27,-320.36 387.51,-307.67 367.03,-298.31"/>
<polygon fill="#63b8ff" stroke="#63b8ff" points="368.45,-295.11 357.9,-294.14 365.54,-301.48 368.45,-295.11"/>
</a>
</g>
</g>
<!-- Node14 -->
<g id="Node000014" class="node">
<title>Node14</title>
<g id="a_Node000014"><a xlink:title=" ">
<polygon fill="#e0e0e0" stroke="#999999" points="536.5,-294 397.5,-294 397.5,-275 536.5,-275 536.5,-294"/>
<text text-anchor="middle" x="467" y="-282" font-family="Helvetica,sans-Serif" font-size="10.00">cppitertools/itertools.hpp</text>
</a>
</g>
</g>
<!-- Node1&#45;&gt;Node14 -->
<g id="edge16_Node000001_Node000014" class="edge">
<title>Node1&#45;&gt;Node14</title>
<g id="a_edge16_Node000001_Node000014"><a xlink:title=" ">
<path fill="none" stroke="#63b8ff" d="M467,-329.84C467,-322.21 467,-312.7 467,-304.45"/>
<polygon fill="#63b8ff" stroke="#63b8ff" points="470.5,-304.27 467,-294.27 463.5,-304.27 470.5,-304.27"/>
</a>
</g>
</g>
<!-- Node15 -->
<g id="Node000015" class="node">
<title>Node15</title>
<g id="a_Node000015"><a xlink:title=" ">
<polygon fill="#e0e0e0" stroke="#999999" points="621.5,-294 554.5,-294 554.5,-275 621.5,-275 621.5,-294"/>
<text text-anchor="middle" x="588" y="-282" font-family="Helvetica,sans-Serif" font-size="10.00">fmt/core.h</text>
</a>
</g>
</g>
<!-- Node1&#45;&gt;Node15 -->
<g id="edge17_Node000001_Node000015" class="edge">
<title>Node1&#45;&gt;Node15</title>
<g id="a_edge17_Node000001_Node000015"><a xlink:title=" ">
<path fill="none" stroke="#63b8ff" d="M495.98,-329.99C515.72,-320.45 541.67,-307.9 560.97,-298.57"/>
<polygon fill="#63b8ff" stroke="#63b8ff" points="562.65,-301.64 570.13,-294.14 559.6,-295.34 562.65,-301.64"/>
</a>
</g>
</g>
<!-- Node16 -->
<g id="Node000016" class="node">
<title>Node16</title>
<g id="a_Node000016"><a xlink:title=" ">
<polygon fill="#e0e0e0" stroke="#999999" points="688,-294 640,-294 640,-275 688,-275 688,-294"/>
<text text-anchor="middle" x="664" y="-282" font-family="Helvetica,sans-Serif" font-size="10.00">gsl/gsl</text>
</a>
</g>
</g>
<!-- Node1&#45;&gt;Node16 -->
<g id="edge18_Node000001_Node000016" class="edge">
<title>Node1&#45;&gt;Node16</title>
<g id="a_edge18_Node000001_Node000016"><a xlink:title=" ">
<path fill="none" stroke="#63b8ff" d="M514.19,-329.99C549.93,-319.37 598.18,-305.04 630.16,-295.55"/>
<polygon fill="#63b8ff" stroke="#63b8ff" points="631.34,-298.85 639.93,-292.65 629.34,-292.14 631.34,-298.85"/>
</a>
</g>
</g>
<!-- Node17 -->
<g id="Node000017" class="node">
<title>Node17</title>
<g id="a_Node000017"><a xlink:href="abcgException_8hpp.html" target="_top" xlink:title="Header file of abcg::Exception and derived classes.">
<polygon fill="white" stroke="#666666" points="815.5,-294 706.5,-294 706.5,-275 815.5,-275 815.5,-294"/>
<text text-anchor="middle" x="761" y="-282" font-family="Helvetica,sans-Serif" font-size="10.00">abcgException.hpp</text>
</a>
</g>
</g>
<!-- Node1&#45;&gt;Node17 -->
<g id="edge19_Node000001_Node000017" class="edge">
<title>Node1&#45;&gt;Node17</title>
<g id="a_edge19_Node000001_Node000017"><a xlink:title=" ">
<path fill="none" stroke="#63b8ff" d="M537.42,-329.99C589.92,-319.54 660.49,-305.5 708.19,-296.01"/>
<polygon fill="#63b8ff" stroke="#63b8ff" points="708.89,-299.44 718.01,-294.05 707.52,-292.57 708.89,-299.44"/>
</a>
</g>
</g>
<!-- Node3 -->
<g id="Node000003" class="node">
<title>Node3</title>
<g id="a_Node000003"><a xlink:href="abcgVulkanDevice_8hpp.html" target="_top" xlink:title="Header file of abcg::VulkanDevice.">
<polygon fill="white" stroke="#666666" points="271.5,-239 144.5,-239 144.5,-220 271.5,-220 271.5,-239"/>
<text text-anchor="middle" x="208" y="-227" font-family="Helvetica,sans-Serif" font-size="10.00">abcgVulkanDevice.hpp</text>
</a>
</g>
</g>
<!-- Node2&#45;&gt;Node3 -->
<g id="edge2_Node000002_Node000003" class="edge">
<title>Node2&#45;&gt;Node3</title>
<g id="a_edge2_Node000002_Node000003"><a xlink:title=" ">
<path fill="none" stroke="#63b8ff" d="M217.18,-274.75C215.74,-267.8 213.68,-257.85 211.87,-249.13"/>
<polygon fill="#63b8ff" stroke="#63b8ff" points="215.24,-248.17 209.78,-239.09 208.39,-249.59 215.24,-248.17"/>
</a>
</g>
</g>
<!-- Node11 -->
<g id="Node000011" class="node">
<title>Node11</title>
<g id="a_Node000011"><a xlink:title=" ">
<polygon fill="#e0e0e0" stroke="#999999" points="121,-239 47,-239 47,-220 121,-220 121,-239"/>
<text text-anchor="middle" x="84" y="-227" font-family="Helvetica,sans-Serif" font-size="10.00">gsl/pointers</text>
</a>
</g>
</g>
<!-- Node2&#45;&gt;Node11 -->
<g id="edge11_Node000002_Node000011" class="edge">
<title>Node2&#45;&gt;Node11</title>
<g id="a_edge11_Node000002_Node000011"><a xlink:title=" ">
<path fill="none" stroke="#63b8ff" d="M197.31,-274.98C175.2,-266.3 140.68,-252.75 115.55,-242.88"/>
<polygon fill="#63b8ff" stroke="#63b8ff" points="116.67,-239.57 106.08,-239.17 114.11,-246.08 116.67,-239.57"/>
</a>
</g>
</g>
<!-- Node4 -->
<g id="Node000004" class="node">
<title>Node4</title>
<g id="a_Node000004"><a xlink:href="abcgVulkanPhysicalDevice_8hpp.html" target="_top" xlink:title="Header file of abcg::VulkanPhysicalDevice.">
<polygon fill="white" stroke="#666666" points="224.5,-184 57.5,-184 57.5,-165 224.5,-165 224.5,-184"/>
<text text-anchor="middle" x="141" y="-172" font-family="Helvetica,sans-Serif" font-size="10.00">abcgVulkanPhysicalDevice.hpp</text>
</a>
</g>
</g>
<!-- Node3&#45;&gt;Node4 -->
<g id="edge3_Node000003_Node000004" class="edge">
<title>Node3&#45;&gt;Node4</title>
<g id="a_edge3_Node000003_Node000004"><a xlink:title=" ">
<path fill="none" stroke="#63b8ff" d="M197.24,-219.98C187.23,-212.07 172.11,-200.11 160.07,-190.58"/>
<polygon fill="#63b8ff" stroke="#63b8ff" points="161.97,-187.63 151.96,-184.17 157.63,-193.12 161.97,-187.63"/>
</a>
</g>
</g>
<!-- Node10 -->
<g id="Node000010" class="node">
<title>Node10</title>
<g id="a_Node000010"><a xlink:title=" ">
<polygon fill="#e0e0e0" stroke="#999999" points="307.5,-184 242.5,-184 242.5,-165 307.5,-165 307.5,-184"/>
<text text-anchor="middle" x="275" y="-172" font-family="Helvetica,sans-Serif" font-size="10.00">functional</text>
</a>
</g>
</g>
<!-- Node3&#45;&gt;Node10 -->
<g id="edge10_Node000003_Node000010" class="edge">
<title>Node3&#45;&gt;Node10</title>
<g id="a_edge10_Node000003_Node000010"><a xlink:title=" ">
<path fill="none" stroke="#63b8ff" d="M218.76,-219.98C228.77,-212.07 243.89,-200.11 255.93,-190.58"/>
<polygon fill="#63b8ff" stroke="#63b8ff" points="258.37,-193.12 264.04,-184.17 254.03,-187.63 258.37,-193.12"/>
</a>
</g>
</g>
<!-- Node5 -->
<g id="Node000005" class="node">
<title>Node5</title>
<g id="a_Node000005"><a xlink:title=" ">
<polygon fill="#e0e0e0" stroke="#999999" points="56,-129 0,-129 0,-110 56,-110 56,-129"/>
<text text-anchor="middle" x="28" y="-117" font-family="Helvetica,sans-Serif" font-size="10.00">optional</text>
</a>
</g>
</g>
<!-- Node4&#45;&gt;Node5 -->
<g id="edge4_Node000004_Node000005" class="edge">
<title>Node4&#45;&gt;Node5</title>
<g id="a_edge4_Node000004_Node000005"><a xlink:title=" ">
<path fill="none" stroke="#63b8ff" d="M122.84,-164.98C104.75,-156.5 76.72,-143.35 55.81,-133.54"/>
<polygon fill="#63b8ff" stroke="#63b8ff" points="57.03,-130.25 46.49,-129.17 54.05,-136.59 57.03,-130.25"/>
</a>
</g>
</g>
<!-- Node6 -->
<g id="Node000006" class="node">
<title>Node6</title>
<g id="a_Node000006"><a xlink:href="abcgVulkanExternal_8hpp.html" target="_top" xlink:title="Header file for including Vulkan&#45;related dependencies.">
<polygon fill="white" stroke="#666666" points="255,-74 121,-74 121,-55 255,-55 255,-74"/>
<text text-anchor="middle" x="188" y="-62" font-family="Helvetica,sans-Serif" font-size="10.00">abcgVulkanExternal.hpp</text>
</a>
</g>
</g>
<!-- Node4&#45;&gt;Node6 -->
<g id="edge5_Node000004_Node000006" class="edge">
<title>Node4&#45;&gt;Node6</title>
<g id="a_edge5_Node000004_Node000006"><a xlink:title=" ">
<path fill="none" stroke="#63b8ff" d="M169.39,-164.92C186.46,-158.13 206.81,-146.77 217,-129 225.8,-113.65 215.13,-95.15 204.33,-82.09"/>
<polygon fill="#63b8ff" stroke="#63b8ff" points="206.7,-79.49 197.42,-74.38 201.49,-84.16 206.7,-79.49"/>
</a>
</g>
</g>
<!-- Node9 -->
<g id="Node000009" class="node">
<title>Node9</title>
<g id="a_Node000009"><a xlink:href="abcgVulkanInstance_8hpp.html" target="_top" xlink:title="Header file of abcg::VulkanInstance.">
<polygon fill="white" stroke="#666666" points="208,-129 74,-129 74,-110 208,-110 208,-129"/>
<text text-anchor="middle" x="141" y="-117" font-family="Helvetica,sans-Serif" font-size="10.00">abcgVulkanInstance.hpp</text>
</a>
</g>
</g>
<!-- Node4&#45;&gt;Node9 -->
<g id="edge8_Node000004_Node000009" class="edge">
<title>Node4&#45;&gt;Node9</title>
<g id="a_edge8_Node000004_Node000009"><a xlink:title=" ">
<path fill="none" stroke="#63b8ff" d="M141,-164.75C141,-157.8 141,-147.85 141,-139.13"/>
<polygon fill="#63b8ff" stroke="#63b8ff" points="144.5,-139.09 141,-129.09 137.5,-139.09 144.5,-139.09"/>
</a>
</g>
</g>
<!-- Node7 -->
<g id="Node000007" class="node">
<title>Node7</title>
<g id="a_Node000007"><a xlink:title=" ">
<polygon fill="#e0e0e0" stroke="#999999" points="164.5,-19 117.5,-19 117.5,0 164.5,0 164.5,-19"/>
<text text-anchor="middle" x="141" y="-7" font-family="Helvetica,sans-Serif" font-size="10.00">volk.h</text>
</a>
</g>
</g>
<!-- Node6&#45;&gt;Node7 -->
<g id="edge6_Node000006_Node000007" class="edge">
<title>Node6&#45;&gt;Node7</title>
<g id="a_edge6_Node000006_Node000007"><a xlink:title=" ">
<path fill="none" stroke="#63b8ff" d="M180.24,-54.75C173.53,-47.18 163.66,-36.05 155.49,-26.84"/>
<polygon fill="#63b8ff" stroke="#63b8ff" points="157.87,-24.25 148.62,-19.09 152.63,-28.89 157.87,-24.25"/>
</a>
</g>
</g>
<!-- Node8 -->
<g id="Node000008" class="node">
<title>Node8</title>
<g id="a_Node000008"><a xlink:title=" ">
<polygon fill="#e0e0e0" stroke="#999999" points="287.5,-19 182.5,-19 182.5,0 287.5,0 287.5,-19"/>
<text text-anchor="middle" x="235" y="-7" font-family="Helvetica,sans-Serif" font-size="10.00">vulkan/vulkan.hpp</text>
</a>
</g>
</g>
<!-- Node6&#45;&gt;Node8 -->
<g id="edge7_Node000006_Node000008" class="edge">
<title>Node6&#45;&gt;Node8</title>
<g id="a_edge7_Node000006_Node000008"><a xlink:title=" ">
<path fill="none" stroke="#63b8ff" d="M195.76,-54.75C202.47,-47.18 212.34,-36.05 220.51,-26.84"/>
<polygon fill="#63b8ff" stroke="#63b8ff" points="223.37,-28.89 227.38,-19.09 218.13,-24.25 223.37,-28.89"/>
</a>
</g>
</g>
<!-- Node9&#45;&gt;Node6 -->
<g id="edge9_Node000009_Node000006" class="edge">
<title>Node9&#45;&gt;Node6</title>
<g id="a_edge9_Node000009_Node000006"><a xlink:title=" ">
<path fill="none" stroke="#63b8ff" d="M148.76,-109.75C155.47,-102.18 165.34,-91.05 173.51,-81.84"/>
<polygon fill="#63b8ff" stroke="#63b8ff" points="176.37,-83.89 180.38,-74.09 171.13,-79.25 176.37,-83.89"/>
</a>
</g>
</g>
<!-- Node12&#45;&gt;Node3 -->
<g id="edge13_Node000012_Node000003" class="edge">
<title>Node12&#45;&gt;Node3</title>
<g id="a_edge13_Node000012_Node000003"><a xlink:title=" ">
<path fill="none" stroke="#63b8ff" d="M98.89,-274.98C120.08,-266.34 153.13,-252.87 177.3,-243.02"/>
<polygon fill="#63b8ff" stroke="#63b8ff" points="178.79,-246.19 186.73,-239.17 176.15,-239.7 178.79,-246.19"/>
</a>
</g>
</g>
<!-- Node12&#45;&gt;Node11 -->
<g id="edge14_Node000012_Node000011" class="edge">
<title>Node12&#45;&gt;Node11</title>
<g id="a_edge14_Node000012_Node000011"><a xlink:title=" ">
<path fill="none" stroke="#63b8ff" d="M78.99,-274.75C79.78,-267.8 80.9,-257.85 81.89,-249.13"/>
<polygon fill="#63b8ff" stroke="#63b8ff" points="85.38,-249.42 83.03,-239.09 78.42,-248.63 85.38,-249.42"/>
</a>
</g>
</g>
<!-- Node18 -->
<g id="Node000018" class="node">
<title>Node18</title>
<g id="a_Node000018"><a xlink:title=" ">
<polygon fill="#e0e0e0" stroke="#999999" points="710.5,-239 617.5,-239 617.5,-220 710.5,-220 710.5,-239"/>
<text text-anchor="middle" x="664" y="-227" font-family="Helvetica,sans-Serif" font-size="10.00">source_location</text>
</a>
</g>
</g>
<!-- Node17&#45;&gt;Node18 -->
<g id="edge20_Node000017_Node000018" class="edge">
<title>Node17&#45;&gt;Node18</title>
<g id="a_edge20_Node000017_Node000018"><a xlink:title=" ">
<path fill="none" stroke="#63b8ff" d="M745.42,-274.98C730.23,-266.69 706.9,-253.94 689.1,-244.22"/>
<polygon fill="#63b8ff" stroke="#63b8ff" points="690.32,-240.89 679.87,-239.17 686.97,-247.04 690.32,-240.89"/>
</a>
</g>
</g>
<!-- Node19 -->
<g id="Node000019" class="node">
<title>Node19</title>
<g id="a_Node000019"><a xlink:title=" ">
<polygon fill="#e0e0e0" stroke="#999999" points="793.5,-239 728.5,-239 728.5,-220 793.5,-220 793.5,-239"/>
<text text-anchor="middle" x="761" y="-227" font-family="Helvetica,sans-Serif" font-size="10.00">stdexcept</text>
</a>
</g>
</g>
<!-- Node17&#45;&gt;Node19 -->
<g id="edge21_Node000017_Node000019" class="edge">
<title>Node17&#45;&gt;Node19</title>
<g id="a_edge21_Node000017_Node000019"><a xlink:title=" ">
<path fill="none" stroke="#63b8ff" d="M761,-274.75C761,-267.8 761,-257.85 761,-249.13"/>
<polygon fill="#63b8ff" stroke="#63b8ff" points="764.5,-249.09 761,-239.09 757.5,-249.09 764.5,-249.09"/>
</a>
</g>
</g>
<!-- Node20 -->
<g id="Node000020" class="node">
<title>Node20</title>
<g id="a_Node000020"><a xlink:title=" ">
<polygon fill="#e0e0e0" stroke="#999999" points="856,-239 812,-239 812,-220 856,-220 856,-239"/>
<text text-anchor="middle" x="834" y="-227" font-family="Helvetica,sans-Serif" font-size="10.00">string</text>
</a>
</g>
</g>
<!-- Node17&#45;&gt;Node20 -->
<g id="edge22_Node000017_Node000020" class="edge">
<title>Node17&#45;&gt;Node20</title>
<g id="a_edge22_Node000017_Node000020"><a xlink:title=" ">
<path fill="none" stroke="#63b8ff" d="M772.73,-274.98C783.73,-267 800.42,-254.88 813.6,-245.31"/>
<polygon fill="#63b8ff" stroke="#63b8ff" points="816.02,-247.88 822.06,-239.17 811.91,-242.21 816.02,-247.88"/>
</a>
</g>
</g>
</g>
</svg>
