<?xml version="1.0" encoding="UTF-8" standalone="no"?>
<!DOCTYPE svg PUBLIC "-//W3C//DTD SVG 1.1//EN"
 "http://www.w3.org/Graphics/SVG/1.1/DTD/svg11.dtd">
<!-- Generated by graphviz version 2.43.0 (0)
 -->
<!-- Title: /home/harlen/dev/abcg/abcg/abcgVulkanPhysicalDevice.cpp Pages: 1 -->
<svg width="713pt" height="258pt"
 viewBox="0.00 0.00 712.50 258.00" xmlns="http://www.w3.org/2000/svg" xmlns:xlink="http://www.w3.org/1999/xlink">
<g id="graph0" class="graph" transform="scale(1 1) rotate(0) translate(4 254)">
<title>/home/harlen/dev/abcg/abcg/abcgVulkanPhysicalDevice.cpp</title>
<!-- Node1 -->
<g id="Node000001" class="node">
<title>Node1</title>
<g id="a_Node000001"><a xlink:title="Definition of abcg::VulkanPhysicalDevice.">
<polygon fill="#999999" stroke="#666666" points="502.5,-250 306.5,-250 306.5,-220 502.5,-220 502.5,-250"/>
<text text-anchor="start" x="314.5" y="-238" font-family="Helvetica,sans-Serif" font-size="10.00">/home/harlen/dev/abcg</text>
<text text-anchor="middle" x="404.5" y="-227" font-family="Helvetica,sans-Serif" font-size="10.00">/abcg/abcgVulkanPhysicalDevice.cpp</text>
</a>
</g>
</g>
<!-- Node2 -->
<g id="Node000002" class="node">
<title>Node2</title>
<g id="a_Node000002"><a xlink:href="abcgVulkanPhysicalDevice_8hpp.html" target="_top" xlink:title="Header file of abcg::VulkanPhysicalDevice.">
<polygon fill="white" stroke="#666666" points="167,-184 0,-184 0,-165 167,-165 167,-184"/>
<text text-anchor="middle" x="83.5" y="-172" font-family="Helvetica,sans-Serif" font-size="10.00">abcgVulkanPhysicalDevice.hpp</text>
</a>
</g>
</g>
<!-- Node1&#45;&gt;Node2 -->
<g id="edge1_Node000001_Node000002" class="edge">
<title>Node1&#45;&gt;Node2</title>
<g id="a_edge1_Node000001_Node000002"><a xlink:title=" ">
<path fill="none" stroke="#63b8ff" d="M327.61,-219.99C270.06,-209.5 192.6,-195.38 140.5,-185.89"/>
<polygon fill="#63b8ff" stroke="#63b8ff" points="140.9,-182.4 130.44,-184.05 139.65,-189.29 140.9,-182.4"/>
</a>
</g>
</g>
<!-- Node7 -->
<g id="Node000007" class="node">
<title>Node7</title>
<g id="a_Node000007"><a xlink:href="abcgVulkanInstance_8hpp.html" target="_top" xlink:title="Header file of abcg::VulkanInstance.">
<polygon fill="white" stroke="#666666" points="253.5,-129 119.5,-129 119.5,-110 253.5,-110 253.5,-129"/>
<text text-anchor="middle" x="186.5" y="-117" font-family="Helvetica,sans-Serif" font-size="10.00">abcgVulkanInstance.hpp</text>
</a>
</g>
</g>
<!-- Node1&#45;&gt;Node7 -->
<g id="edge16_Node000001_Node000007" class="edge">
<title>Node1&#45;&gt;Node7</title>
<g id="a_edge16_Node000001_Node000007"><a xlink:title=" ">
<path fill="none" stroke="#63b8ff" d="M306.08,-225.68C273.56,-218.68 239.18,-206.18 213.5,-184 200.34,-172.63 193.42,-153.73 189.9,-139.5"/>
<polygon fill="#63b8ff" stroke="#63b8ff" points="193.24,-138.38 187.75,-129.32 186.39,-139.83 193.24,-138.38"/>
</a>
</g>
</g>
<!-- Node8 -->
<g id="Node000008" class="node">
<title>Node8</title>
<g id="a_Node000008"><a xlink:title=" ">
<polygon fill="#e0e0e0" stroke="#999999" points="362,-184 223,-184 223,-165 362,-165 362,-184"/>
<text text-anchor="middle" x="292.5" y="-172" font-family="Helvetica,sans-Serif" font-size="10.00">cppitertools/itertools.hpp</text>
</a>
</g>
</g>
<!-- Node1&#45;&gt;Node8 -->
<g id="edge8_Node000001_Node000008" class="edge">
<title>Node1&#45;&gt;Node8</title>
<g id="a_edge8_Node000001_Node000008"><a xlink:title=" ">
<path fill="none" stroke="#63b8ff" d="M377.67,-219.99C359.65,-210.58 336.04,-198.24 318.25,-188.95"/>
<polygon fill="#63b8ff" stroke="#63b8ff" points="319.52,-185.67 309.04,-184.14 316.28,-191.87 319.52,-185.67"/>
</a>
</g>
</g>
<!-- Node9 -->
<g id="Node000009" class="node">
<title>Node9</title>
<g id="a_Node000009"><a xlink:title=" ">
<polygon fill="#e0e0e0" stroke="#999999" points="428.5,-184 380.5,-184 380.5,-165 428.5,-165 428.5,-184"/>
<text text-anchor="middle" x="404.5" y="-172" font-family="Helvetica,sans-Serif" font-size="10.00">gsl/gsl</text>
</a>
</g>
</g>
<!-- Node1&#45;&gt;Node9 -->
<g id="edge9_Node000001_Node000009" class="edge">
<title>Node1&#45;&gt;Node9</title>
<g id="a_edge9_Node000001_Node000009"><a xlink:title=" ">
<path fill="none" stroke="#63b8ff" d="M404.5,-219.84C404.5,-212.21 404.5,-202.7 404.5,-194.45"/>
<polygon fill="#63b8ff" stroke="#63b8ff" points="408,-194.27 404.5,-184.27 401,-194.27 408,-194.27"/>
</a>
</g>
</g>
<!-- Node10 -->
<g id="Node000010" class="node">
<title>Node10</title>
<g id="a_Node000010"><a xlink:title=" ">
<polygon fill="#e0e0e0" stroke="#999999" points="478.5,-184 446.5,-184 446.5,-165 478.5,-165 478.5,-184"/>
<text text-anchor="middle" x="462.5" y="-172" font-family="Helvetica,sans-Serif" font-size="10.00">set</text>
</a>
</g>
</g>
<!-- Node1&#45;&gt;Node10 -->
<g id="edge10_Node000001_Node000010" class="edge">
<title>Node1&#45;&gt;Node10</title>
<g id="a_edge10_Node000001_Node000010"><a xlink:title=" ">
<path fill="none" stroke="#63b8ff" d="M418.54,-219.84C427.05,-211.26 437.91,-200.3 446.72,-191.42"/>
<polygon fill="#63b8ff" stroke="#63b8ff" points="449.25,-193.83 453.81,-184.27 444.28,-188.9 449.25,-193.83"/>
</a>
</g>
</g>
<!-- Node11 -->
<g id="Node000011" class="node">
<title>Node11</title>
<g id="a_Node000011"><a xlink:title=" ">
<polygon fill="#e0e0e0" stroke="#999999" points="536.5,-184 496.5,-184 496.5,-165 536.5,-165 536.5,-184"/>
<text text-anchor="middle" x="516.5" y="-172" font-family="Helvetica,sans-Serif" font-size="10.00">span</text>
</a>
</g>
</g>
<!-- Node1&#45;&gt;Node11 -->
<g id="edge11_Node000001_Node000011" class="edge">
<title>Node1&#45;&gt;Node11</title>
<g id="a_edge11_Node000001_Node000011"><a xlink:title=" ">
<path fill="none" stroke="#63b8ff" d="M431.33,-219.99C449.35,-210.58 472.96,-198.24 490.75,-188.95"/>
<polygon fill="#63b8ff" stroke="#63b8ff" points="492.72,-191.87 499.96,-184.14 489.48,-185.67 492.72,-191.87"/>
</a>
</g>
</g>
<!-- Node12 -->
<g id="Node000012" class="node">
<title>Node12</title>
<g id="a_Node000012"><a xlink:href="abcgException_8hpp.html" target="_top" xlink:title="Header file of abcg::Exception and derived classes.">
<polygon fill="white" stroke="#666666" points="664,-184 555,-184 555,-165 664,-165 664,-184"/>
<text text-anchor="middle" x="609.5" y="-172" font-family="Helvetica,sans-Serif" font-size="10.00">abcgException.hpp</text>
</a>
</g>
</g>
<!-- Node1&#45;&gt;Node12 -->
<g id="edge12_Node000001_Node000012" class="edge">
<title>Node1&#45;&gt;Node12</title>
<g id="a_edge12_Node000001_Node000012"><a xlink:title=" ">
<path fill="none" stroke="#63b8ff" d="M453.6,-219.99C489.13,-209.85 536.54,-196.32 569.72,-186.85"/>
<polygon fill="#63b8ff" stroke="#63b8ff" points="570.87,-190.16 579.53,-184.05 568.95,-183.43 570.87,-190.16"/>
</a>
</g>
</g>
<!-- Node3 -->
<g id="Node000003" class="node">
<title>Node3</title>
<g id="a_Node000003"><a xlink:title=" ">
<polygon fill="#e0e0e0" stroke="#999999" points="63.5,-129 7.5,-129 7.5,-110 63.5,-110 63.5,-129"/>
<text text-anchor="middle" x="35.5" y="-117" font-family="Helvetica,sans-Serif" font-size="10.00">optional</text>
</a>
</g>
</g>
<!-- Node2&#45;&gt;Node3 -->
<g id="edge2_Node000002_Node000003" class="edge">
<title>Node2&#45;&gt;Node3</title>
<g id="a_edge2_Node000002_Node000003"><a xlink:title=" ">
<path fill="none" stroke="#63b8ff" d="M75.57,-164.75C68.65,-157.11 58.43,-145.82 50.05,-136.56"/>
<polygon fill="#63b8ff" stroke="#63b8ff" points="52.59,-134.15 43.28,-129.09 47.4,-138.85 52.59,-134.15"/>
</a>
</g>
</g>
<!-- Node4 -->
<g id="Node000004" class="node">
<title>Node4</title>
<g id="a_Node000004"><a xlink:href="abcgVulkanExternal_8hpp.html" target="_top" xlink:title="Header file for including Vulkan&#45;related dependencies.">
<polygon fill="white" stroke="#666666" points="205.5,-74 71.5,-74 71.5,-55 205.5,-55 205.5,-74"/>
<text text-anchor="middle" x="138.5" y="-62" font-family="Helvetica,sans-Serif" font-size="10.00">abcgVulkanExternal.hpp</text>
</a>
</g>
</g>
<!-- Node2&#45;&gt;Node4 -->
<g id="edge3_Node000002_Node000004" class="edge">
<title>Node2&#45;&gt;Node4</title>
<g id="a_edge3_Node000002_Node000004"><a xlink:title=" ">
<path fill="none" stroke="#63b8ff" d="M86.74,-164.67C91.43,-152.21 100.62,-128.9 110.5,-110 115.36,-100.7 121.51,-90.77 126.8,-82.66"/>
<polygon fill="#63b8ff" stroke="#63b8ff" points="129.86,-84.38 132.5,-74.12 124.04,-80.5 129.86,-84.38"/>
</a>
</g>
</g>
<!-- Node2&#45;&gt;Node7 -->
<g id="edge6_Node000002_Node000007" class="edge">
<title>Node2&#45;&gt;Node7</title>
<g id="a_edge6_Node000002_Node000007"><a xlink:title=" ">
<path fill="none" stroke="#63b8ff" d="M100.05,-164.98C116.39,-156.57 141.63,-143.59 160.63,-133.81"/>
<polygon fill="#63b8ff" stroke="#63b8ff" points="162.36,-136.86 169.65,-129.17 159.16,-130.63 162.36,-136.86"/>
</a>
</g>
</g>
<!-- Node5 -->
<g id="Node000005" class="node">
<title>Node5</title>
<g id="a_Node000005"><a xlink:title=" ">
<polygon fill="#e0e0e0" stroke="#999999" points="115,-19 68,-19 68,0 115,0 115,-19"/>
<text text-anchor="middle" x="91.5" y="-7" font-family="Helvetica,sans-Serif" font-size="10.00">volk.h</text>
</a>
</g>
</g>
<!-- Node4&#45;&gt;Node5 -->
<g id="edge4_Node000004_Node000005" class="edge">
<title>Node4&#45;&gt;Node5</title>
<g id="a_edge4_Node000004_Node000005"><a xlink:title=" ">
<path fill="none" stroke="#63b8ff" d="M130.74,-54.75C124.03,-47.18 114.16,-36.05 105.99,-26.84"/>
<polygon fill="#63b8ff" stroke="#63b8ff" points="108.37,-24.25 99.12,-19.09 103.13,-28.89 108.37,-24.25"/>
</a>
</g>
</g>
<!-- Node6 -->
<g id="Node000006" class="node">
<title>Node6</title>
<g id="a_Node000006"><a xlink:title=" ">
<polygon fill="#e0e0e0" stroke="#999999" points="238,-19 133,-19 133,0 238,0 238,-19"/>
<text text-anchor="middle" x="185.5" y="-7" font-family="Helvetica,sans-Serif" font-size="10.00">vulkan/vulkan.hpp</text>
</a>
</g>
</g>
<!-- Node4&#45;&gt;Node6 -->
<g id="edge5_Node000004_Node000006" class="edge">
<title>Node4&#45;&gt;Node6</title>
<g id="a_edge5_Node000004_Node000006"><a xlink:title=" ">
<path fill="none" stroke="#63b8ff" d="M146.26,-54.75C152.97,-47.18 162.84,-36.05 171.01,-26.84"/>
<polygon fill="#63b8ff" stroke="#63b8ff" points="173.87,-28.89 177.88,-19.09 168.63,-24.25 173.87,-28.89"/>
</a>
</g>
</g>
<!-- Node7&#45;&gt;Node4 -->
<g id="edge7_Node000007_Node000004" class="edge">
<title>Node7&#45;&gt;Node4</title>
<g id="a_edge7_Node000007_Node000004"><a xlink:title=" ">
<path fill="none" stroke="#63b8ff" d="M178.57,-109.75C171.65,-102.11 161.43,-90.82 153.05,-81.56"/>
<polygon fill="#63b8ff" stroke="#63b8ff" points="155.59,-79.15 146.28,-74.09 150.4,-83.85 155.59,-79.15"/>
</a>
</g>
</g>
<!-- Node13 -->
<g id="Node000013" class="node">
<title>Node13</title>
<g id="a_Node000013"><a xlink:title=" ">
<polygon fill="#e0e0e0" stroke="#999999" points="559,-129 466,-129 466,-110 559,-110 559,-129"/>
<text text-anchor="middle" x="512.5" y="-117" font-family="Helvetica,sans-Serif" font-size="10.00">source_location</text>
</a>
</g>
</g>
<!-- Node12&#45;&gt;Node13 -->
<g id="edge13_Node000012_Node000013" class="edge">
<title>Node12&#45;&gt;Node13</title>
<g id="a_edge13_Node000012_Node000013"><a xlink:title=" ">
<path fill="none" stroke="#63b8ff" d="M593.92,-164.98C578.73,-156.69 555.4,-143.94 537.6,-134.22"/>
<polygon fill="#63b8ff" stroke="#63b8ff" points="538.82,-130.89 528.37,-129.17 535.47,-137.04 538.82,-130.89"/>
</a>
</g>
</g>
<!-- Node14 -->
<g id="Node000014" class="node">
<title>Node14</title>
<g id="a_Node000014"><a xlink:title=" ">
<polygon fill="#e0e0e0" stroke="#999999" points="642,-129 577,-129 577,-110 642,-110 642,-129"/>
<text text-anchor="middle" x="609.5" y="-117" font-family="Helvetica,sans-Serif" font-size="10.00">stdexcept</text>
</a>
</g>
</g>
<!-- Node12&#45;&gt;Node14 -->
<g id="edge14_Node000012_Node000014" class="edge">
<title>Node12&#45;&gt;Node14</title>
<g id="a_edge14_Node000012_Node000014"><a xlink:title=" ">
<path fill="none" stroke="#63b8ff" d="M609.5,-164.75C609.5,-157.8 609.5,-147.85 609.5,-139.13"/>
<polygon fill="#63b8ff" stroke="#63b8ff" points="613,-139.09 609.5,-129.09 606,-139.09 613,-139.09"/>
</a>
</g>
</g>
<!-- Node15 -->
<g id="Node000015" class="node">
<title>Node15</title>
<g id="a_Node000015"><a xlink:title=" ">
<polygon fill="#e0e0e0" stroke="#999999" points="704.5,-129 660.5,-129 660.5,-110 704.5,-110 704.5,-129"/>
<text text-anchor="middle" x="682.5" y="-117" font-family="Helvetica,sans-Serif" font-size="10.00">string</text>
</a>
</g>
</g>
<!-- Node12&#45;&gt;Node15 -->
<g id="edge15_Node000012_Node000015" class="edge">
<title>Node12&#45;&gt;Node15</title>
<g id="a_edge15_Node000012_Node000015"><a xlink:title=" ">
<path fill="none" stroke="#63b8ff" d="M621.23,-164.98C632.23,-157 648.92,-144.88 662.1,-135.31"/>
<polygon fill="#63b8ff" stroke="#63b8ff" points="664.52,-137.88 670.56,-129.17 660.41,-132.21 664.52,-137.88"/>
</a>
</g>
</g>
</g>
</svg>
