<?xml version="1.0" encoding="UTF-8" standalone="no"?>
<!DOCTYPE svg PUBLIC "-//W3C//DTD SVG 1.1//EN"
 "http://www.w3.org/Graphics/SVG/1.1/DTD/svg11.dtd">
<!-- Generated by graphviz version 2.43.0 (0)
 -->
<!-- Title: /home/harlen/dev/abcg/abcg/abcgException.hpp Pages: 1 -->
<svg width="2469pt" height="240pt"
 viewBox="0.00 0.00 2468.50 240.00" xmlns="http://www.w3.org/2000/svg" xmlns:xlink="http://www.w3.org/1999/xlink">
<g id="graph0" class="graph" transform="scale(1 1) rotate(0) translate(4 236)">
<title>/home/harlen/dev/abcg/abcg/abcgException.hpp</title>
<!-- Node1 -->
<g id="node1" class="node">
<title>Node1</title>
<g id="a_node1"><a xlink:title="Header file of abcg::Exception and derived classes.">
<polygon fill="#bfbfbf" stroke="black" points="1138.5,-201.5 1138.5,-231.5 1276.5,-231.5 1276.5,-201.5 1138.5,-201.5"/>
<text text-anchor="start" x="1146.5" y="-219.5" font-family="Helvetica,sans-Serif" font-size="10.00">/home/harlen/dev/abcg</text>
<text text-anchor="middle" x="1207.5" y="-208.5" font-family="Helvetica,sans-Serif" font-size="10.00">/abcg/abcgException.hpp</text>
</a>
</g>
</g>
<!-- Node2 -->
<g id="node2" class="node">
<title>Node2</title>
<g id="a_node2"><a xlink:href="abcg_8hpp.html" target="_top" xlink:title="Shortcut header that includes the most common ABCg headers.">
<polygon fill="none" stroke="black" points="189.5,-134.5 189.5,-164.5 317.5,-164.5 317.5,-134.5 189.5,-134.5"/>
<text text-anchor="start" x="197.5" y="-152.5" font-family="Helvetica,sans-Serif" font-size="10.00">/home/harlen/dev/abcg</text>
<text text-anchor="middle" x="253.5" y="-141.5" font-family="Helvetica,sans-Serif" font-size="10.00">/abcg/abcg.hpp</text>
</a>
</g>
</g>
<!-- Node1&#45;&gt;Node2 -->
<g id="edge1" class="edge">
<title>Node1&#45;&gt;Node2</title>
<path fill="none" stroke="midnightblue" d="M1127.93,-214.27C973.73,-211.15 623.65,-200.43 331.5,-165 326.99,-164.45 322.34,-163.81 317.67,-163.09"/>
<polygon fill="midnightblue" stroke="midnightblue" points="1128.18,-217.78 1138.25,-214.47 1128.32,-210.78 1128.18,-217.78"/>
</g>
<!-- Node5 -->
<g id="node5" class="node">
<title>Node5</title>
<g id="a_node5"><a xlink:href="abcgVulkanInstance_8cpp.html" target="_top" xlink:title="Definition of abcg::VulkanInstance.">
<polygon fill="none" stroke="black" points="0,-0.5 0,-30.5 163,-30.5 163,-0.5 0,-0.5"/>
<text text-anchor="start" x="8" y="-18.5" font-family="Helvetica,sans-Serif" font-size="10.00">/home/harlen/dev/abcg</text>
<text text-anchor="middle" x="81.5" y="-7.5" font-family="Helvetica,sans-Serif" font-size="10.00">/abcg/abcgVulkanInstance.cpp</text>
</a>
</g>
</g>
<!-- Node1&#45;&gt;Node5 -->
<g id="edge20" class="edge">
<title>Node1&#45;&gt;Node5</title>
<path fill="none" stroke="midnightblue" d="M1128.03,-215.48C919.38,-214.79 359.77,-208.81 180.5,-165 111.15,-148.05 73.04,-158.1 34.5,-98 19.69,-74.9 44.56,-47.02 63.41,-30.58"/>
<polygon fill="midnightblue" stroke="midnightblue" points="1128.28,-218.98 1138.29,-215.51 1128.3,-211.98 1128.28,-218.98"/>
</g>
<!-- Node6 -->
<g id="node6" class="node">
<title>Node6</title>
<g id="a_node6"><a xlink:href="abcgVulkanPhysicalDevice_8cpp.html" target="_top" xlink:title="Definition of abcg::VulkanPhysicalDevice.">
<polygon fill="none" stroke="black" points="201.5,-0.5 201.5,-30.5 397.5,-30.5 397.5,-0.5 201.5,-0.5"/>
<text text-anchor="start" x="209.5" y="-18.5" font-family="Helvetica,sans-Serif" font-size="10.00">/home/harlen/dev/abcg</text>
<text text-anchor="middle" x="299.5" y="-7.5" font-family="Helvetica,sans-Serif" font-size="10.00">/abcg/abcgVulkanPhysicalDevice.cpp</text>
</a>
</g>
</g>
<!-- Node1&#45;&gt;Node6 -->
<g id="edge21" class="edge">
<title>Node1&#45;&gt;Node6</title>
<path fill="none" stroke="midnightblue" d="M1128.22,-215.56C930.16,-215.04 425.25,-209.33 364.5,-165 326.76,-137.46 345.99,-109.45 326.5,-67 320.78,-54.53 313.38,-40.83 307.77,-30.85"/>
<polygon fill="midnightblue" stroke="midnightblue" points="1128.26,-219.06 1138.26,-215.58 1128.27,-212.06 1128.26,-219.06"/>
</g>
<!-- Node7 -->
<g id="node7" class="node">
<title>Node7</title>
<g id="a_node7"><a xlink:href="abcgApplication_8cpp.html" target="_top" xlink:title="Definition of abcg::Application members.">
<polygon fill="none" stroke="black" points="373.5,-134.5 373.5,-164.5 517.5,-164.5 517.5,-134.5 373.5,-134.5"/>
<text text-anchor="start" x="381.5" y="-152.5" font-family="Helvetica,sans-Serif" font-size="10.00">/home/harlen/dev/abcg</text>
<text text-anchor="middle" x="445.5" y="-141.5" font-family="Helvetica,sans-Serif" font-size="10.00">/abcg/abcgApplication.cpp</text>
</a>
</g>
</g>
<!-- Node1&#45;&gt;Node7 -->
<g id="edge6" class="edge">
<title>Node1&#45;&gt;Node7</title>
<path fill="none" stroke="midnightblue" d="M1128.09,-212.27C1000.77,-206.5 743.23,-192.36 526.5,-165 523.67,-164.64 520.78,-164.25 517.87,-163.84"/>
<polygon fill="midnightblue" stroke="midnightblue" points="1128,-215.77 1138.15,-212.72 1128.32,-208.78 1128,-215.77"/>
</g>
<!-- Node8 -->
<g id="node8" class="node">
<title>Node8</title>
<g id="a_node8"><a xlink:href="abcgException_8cpp.html" target="_top" xlink:title="Definition of abcg::Exception members.">
<polygon fill="none" stroke="black" points="536,-134.5 536,-164.5 673,-164.5 673,-134.5 536,-134.5"/>
<text text-anchor="start" x="544" y="-152.5" font-family="Helvetica,sans-Serif" font-size="10.00">/home/harlen/dev/abcg</text>
<text text-anchor="middle" x="604.5" y="-141.5" font-family="Helvetica,sans-Serif" font-size="10.00">/abcg/abcgException.cpp</text>
</a>
</g>
</g>
<!-- Node1&#45;&gt;Node8 -->
<g id="edge7" class="edge">
<title>Node1&#45;&gt;Node8</title>
<path fill="none" stroke="midnightblue" d="M1128.31,-210.14C1025.14,-202.64 839.29,-187.38 681.5,-165 678.81,-164.62 676.06,-164.21 673.3,-163.77"/>
<polygon fill="midnightblue" stroke="midnightblue" points="1128.11,-213.63 1138.34,-210.86 1128.61,-206.65 1128.11,-213.63"/>
</g>
<!-- Node9 -->
<g id="node9" class="node">
<title>Node9</title>
<g id="a_node9"><a xlink:href="abcgOpenGLError_8hpp.html" target="_top" xlink:title="Header file of abcg::OpenGLError and derived classes.">
<polygon fill="none" stroke="black" points="691,-134.5 691,-164.5 842,-164.5 842,-134.5 691,-134.5"/>
<text text-anchor="start" x="699" y="-152.5" font-family="Helvetica,sans-Serif" font-size="10.00">/home/harlen/dev/abcg</text>
<text text-anchor="middle" x="766.5" y="-141.5" font-family="Helvetica,sans-Serif" font-size="10.00">/abcg/abcgOpenGLError.hpp</text>
</a>
</g>
</g>
<!-- Node1&#45;&gt;Node9 -->
<g id="edge8" class="edge">
<title>Node1&#45;&gt;Node9</title>
<path fill="none" stroke="midnightblue" d="M1128.23,-204.9C1056.03,-195.1 946.49,-179.84 851.5,-165 848.39,-164.51 845.23,-164.01 842.03,-163.5"/>
<polygon fill="midnightblue" stroke="midnightblue" points="1127.79,-208.38 1138.17,-206.25 1128.73,-201.44 1127.79,-208.38"/>
</g>
<!-- Node12 -->
<g id="node12" class="node">
<title>Node12</title>
<g id="a_node12"><a xlink:href="abcgOpenGLImage_8cpp.html" target="_top" xlink:title="Definition of OpenGL texture loading helper functions.">
<polygon fill="none" stroke="black" points="860.5,-134.5 860.5,-164.5 1018.5,-164.5 1018.5,-134.5 860.5,-134.5"/>
<text text-anchor="start" x="868.5" y="-152.5" font-family="Helvetica,sans-Serif" font-size="10.00">/home/harlen/dev/abcg</text>
<text text-anchor="middle" x="939.5" y="-141.5" font-family="Helvetica,sans-Serif" font-size="10.00">/abcg/abcgOpenGLImage.cpp</text>
</a>
</g>
</g>
<!-- Node1&#45;&gt;Node12 -->
<g id="edge11" class="edge">
<title>Node1&#45;&gt;Node12</title>
<path fill="none" stroke="midnightblue" d="M1139.96,-199.12C1096.11,-188.48 1039.54,-174.76 997.68,-164.61"/>
<polygon fill="midnightblue" stroke="midnightblue" points="1139.13,-202.52 1149.68,-201.48 1140.78,-195.72 1139.13,-202.52"/>
</g>
<!-- Node13 -->
<g id="node13" class="node">
<title>Node13</title>
<g id="a_node13"><a xlink:href="abcgOpenGLShader_8cpp.html" target="_top" xlink:title="Definition of helper functions for building OpenGL shaders.">
<polygon fill="none" stroke="black" points="1037,-134.5 1037,-164.5 1198,-164.5 1198,-134.5 1037,-134.5"/>
<text text-anchor="start" x="1045" y="-152.5" font-family="Helvetica,sans-Serif" font-size="10.00">/home/harlen/dev/abcg</text>
<text text-anchor="middle" x="1117.5" y="-141.5" font-family="Helvetica,sans-Serif" font-size="10.00">/abcg/abcgOpenGLShader.cpp</text>
</a>
</g>
</g>
<!-- Node1&#45;&gt;Node13 -->
<g id="edge12" class="edge">
<title>Node1&#45;&gt;Node13</title>
<path fill="none" stroke="midnightblue" d="M1179.74,-195.45C1165.89,-185.45 1149.48,-173.6 1136.99,-164.58"/>
<polygon fill="midnightblue" stroke="midnightblue" points="1177.82,-198.38 1187.97,-201.4 1181.91,-192.7 1177.82,-198.38"/>
</g>
<!-- Node14 -->
<g id="node14" class="node">
<title>Node14</title>
<g id="a_node14"><a xlink:href="abcgOpenGLWindow_8cpp.html" target="_top" xlink:title="Definition of abcg::OpenGLWindow members.">
<polygon fill="none" stroke="black" points="1216,-134.5 1216,-164.5 1381,-164.5 1381,-134.5 1216,-134.5"/>
<text text-anchor="start" x="1224" y="-152.5" font-family="Helvetica,sans-Serif" font-size="10.00">/home/harlen/dev/abcg</text>
<text text-anchor="middle" x="1298.5" y="-141.5" font-family="Helvetica,sans-Serif" font-size="10.00">/abcg/abcgOpenGLWindow.cpp</text>
</a>
</g>
</g>
<!-- Node1&#45;&gt;Node14 -->
<g id="edge13" class="edge">
<title>Node1&#45;&gt;Node14</title>
<path fill="none" stroke="midnightblue" d="M1235.57,-195.45C1249.57,-185.45 1266.16,-173.6 1278.79,-164.58"/>
<polygon fill="midnightblue" stroke="midnightblue" points="1233.35,-192.74 1227.25,-201.4 1237.42,-198.43 1233.35,-192.74"/>
</g>
<!-- Node15 -->
<g id="node15" class="node">
<title>Node15</title>
<g id="a_node15"><a xlink:href="abcgVulkanBuffer_8cpp.html" target="_top" xlink:title="Definition of abcg::VulkanBuffer.">
<polygon fill="none" stroke="black" points="1399.5,-134.5 1399.5,-164.5 1549.5,-164.5 1549.5,-134.5 1399.5,-134.5"/>
<text text-anchor="start" x="1407.5" y="-152.5" font-family="Helvetica,sans-Serif" font-size="10.00">/home/harlen/dev/abcg</text>
<text text-anchor="middle" x="1474.5" y="-141.5" font-family="Helvetica,sans-Serif" font-size="10.00">/abcg/abcgVulkanBuffer.cpp</text>
</a>
</g>
</g>
<!-- Node1&#45;&gt;Node15 -->
<g id="edge14" class="edge">
<title>Node1&#45;&gt;Node15</title>
<path fill="none" stroke="midnightblue" d="M1275.07,-199.05C1318.72,-188.43 1374.92,-174.74 1416.54,-164.61"/>
<polygon fill="midnightblue" stroke="midnightblue" points="1273.99,-195.71 1265.11,-201.48 1275.65,-202.51 1273.99,-195.71"/>
</g>
<!-- Node16 -->
<g id="node16" class="node">
<title>Node16</title>
<g id="a_node16"><a xlink:href="abcgVulkanDevice_8cpp.html" target="_top" xlink:title="Definition of abcg::VulkanDevice.">
<polygon fill="none" stroke="black" points="1568,-134.5 1568,-164.5 1723,-164.5 1723,-134.5 1568,-134.5"/>
<text text-anchor="start" x="1576" y="-152.5" font-family="Helvetica,sans-Serif" font-size="10.00">/home/harlen/dev/abcg</text>
<text text-anchor="middle" x="1645.5" y="-141.5" font-family="Helvetica,sans-Serif" font-size="10.00">/abcg/abcgVulkanDevice.cpp</text>
</a>
</g>
</g>
<!-- Node1&#45;&gt;Node16 -->
<g id="edge15" class="edge">
<title>Node1&#45;&gt;Node16</title>
<path fill="none" stroke="midnightblue" d="M1286.73,-204.61C1357.92,-194.71 1465.29,-179.47 1558.5,-165 1561.53,-164.53 1564.61,-164.05 1567.73,-163.55"/>
<polygon fill="midnightblue" stroke="midnightblue" points="1285.92,-201.19 1276.5,-206.03 1286.89,-208.13 1285.92,-201.19"/>
</g>
<!-- Node17 -->
<g id="node17" class="node">
<title>Node17</title>
<g id="a_node17"><a xlink:href="abcgVulkanError_8hpp.html" target="_top" xlink:title="Header file of abcg::VulkanError and derived classes.">
<polygon fill="none" stroke="black" points="1741,-134.5 1741,-164.5 1886,-164.5 1886,-134.5 1741,-134.5"/>
<text text-anchor="start" x="1749" y="-152.5" font-family="Helvetica,sans-Serif" font-size="10.00">/home/harlen/dev/abcg</text>
<text text-anchor="middle" x="1813.5" y="-141.5" font-family="Helvetica,sans-Serif" font-size="10.00">/abcg/abcgVulkanError.hpp</text>
</a>
</g>
</g>
<!-- Node1&#45;&gt;Node17 -->
<g id="edge16" class="edge">
<title>Node1&#45;&gt;Node17</title>
<path fill="none" stroke="midnightblue" d="M1286.78,-209.82C1389.61,-202 1574.41,-186.42 1731.5,-165 1734.51,-164.59 1737.57,-164.15 1740.67,-163.69"/>
<polygon fill="midnightblue" stroke="midnightblue" points="1286.49,-206.33 1276.79,-210.57 1287.02,-213.31 1286.49,-206.33"/>
</g>
<!-- Node19 -->
<g id="node19" class="node">
<title>Node19</title>
<g id="a_node19"><a xlink:href="abcgVulkanWindow_8cpp.html" target="_top" xlink:title="Definition of abcg::VulkanWindow members.">
<polygon fill="none" stroke="black" points="1834.5,-67.5 1834.5,-97.5 1994.5,-97.5 1994.5,-67.5 1834.5,-67.5"/>
<text text-anchor="start" x="1842.5" y="-85.5" font-family="Helvetica,sans-Serif" font-size="10.00">/home/harlen/dev/abcg</text>
<text text-anchor="middle" x="1914.5" y="-74.5" font-family="Helvetica,sans-Serif" font-size="10.00">/abcg/abcgVulkanWindow.cpp</text>
</a>
</g>
</g>
<!-- Node1&#45;&gt;Node19 -->
<g id="edge24" class="edge">
<title>Node1&#45;&gt;Node19</title>
<path fill="none" stroke="midnightblue" d="M1286.97,-214.83C1457.95,-212.65 1848.99,-203.47 1894.5,-165 1914.08,-148.45 1916.19,-116.13 1915.6,-97.55"/>
<polygon fill="midnightblue" stroke="midnightblue" points="1286.73,-211.33 1276.77,-214.95 1286.81,-218.33 1286.73,-211.33"/>
</g>
<!-- Node20 -->
<g id="node20" class="node">
<title>Node20</title>
<g id="a_node20"><a xlink:href="abcgVulkanImage_8cpp.html" target="_top" xlink:title="Definition of abcg::VulkanImage.">
<polygon fill="none" stroke="black" points="1942.5,-134.5 1942.5,-164.5 2094.5,-164.5 2094.5,-134.5 1942.5,-134.5"/>
<text text-anchor="start" x="1950.5" y="-152.5" font-family="Helvetica,sans-Serif" font-size="10.00">/home/harlen/dev/abcg</text>
<text text-anchor="middle" x="2018.5" y="-141.5" font-family="Helvetica,sans-Serif" font-size="10.00">/abcg/abcgVulkanImage.cpp</text>
</a>
</g>
</g>
<!-- Node1&#45;&gt;Node20 -->
<g id="edge19" class="edge">
<title>Node1&#45;&gt;Node20</title>
<path fill="none" stroke="midnightblue" d="M1286.63,-212.29C1419.56,-206.36 1696,-191.82 1928.5,-165 1933.06,-164.47 1937.74,-163.88 1942.46,-163.24"/>
<polygon fill="midnightblue" stroke="midnightblue" points="1286.37,-208.79 1276.54,-212.73 1286.68,-215.79 1286.37,-208.79"/>
</g>
<!-- Node21 -->
<g id="node21" class="node">
<title>Node21</title>
<g id="a_node21"><a xlink:href="abcgVulkanShader_8cpp.html" target="_top" xlink:title="Definition of helper functions for creating Vulkan shaders.">
<polygon fill="none" stroke="black" points="2113,-134.5 2113,-164.5 2268,-164.5 2268,-134.5 2113,-134.5"/>
<text text-anchor="start" x="2121" y="-152.5" font-family="Helvetica,sans-Serif" font-size="10.00">/home/harlen/dev/abcg</text>
<text text-anchor="middle" x="2190.5" y="-141.5" font-family="Helvetica,sans-Serif" font-size="10.00">/abcg/abcgVulkanShader.cpp</text>
</a>
</g>
</g>
<!-- Node1&#45;&gt;Node21 -->
<g id="edge22" class="edge">
<title>Node1&#45;&gt;Node21</title>
<path fill="none" stroke="midnightblue" d="M1286.57,-213.93C1443.02,-210.19 1802.92,-198.42 2103.5,-165 2106.54,-164.66 2109.64,-164.29 2112.77,-163.89"/>
<polygon fill="midnightblue" stroke="midnightblue" points="1286.48,-210.43 1276.57,-214.17 1286.65,-217.43 1286.48,-210.43"/>
</g>
<!-- Node22 -->
<g id="node22" class="node">
<title>Node22</title>
<g id="a_node22"><a xlink:href="abcgVulkanSwapchain_8cpp.html" target="_top" xlink:title="Definition of abcg::VulkanSwapchain.">
<polygon fill="none" stroke="black" points="2286.5,-134.5 2286.5,-164.5 2460.5,-164.5 2460.5,-134.5 2286.5,-134.5"/>
<text text-anchor="start" x="2294.5" y="-152.5" font-family="Helvetica,sans-Serif" font-size="10.00">/home/harlen/dev/abcg</text>
<text text-anchor="middle" x="2373.5" y="-141.5" font-family="Helvetica,sans-Serif" font-size="10.00">/abcg/abcgVulkanSwapchain.cpp</text>
</a>
</g>
</g>
<!-- Node1&#45;&gt;Node22 -->
<g id="edge23" class="edge">
<title>Node1&#45;&gt;Node22</title>
<path fill="none" stroke="midnightblue" d="M1286.57,-214.54C1464.16,-211.79 1908.06,-201.52 2277.5,-165 2280.44,-164.71 2283.42,-164.39 2286.43,-164.05"/>
<polygon fill="midnightblue" stroke="midnightblue" points="1286.47,-211.05 1276.53,-214.7 1286.58,-218.05 1286.47,-211.05"/>
</g>
<!-- Node3 -->
<g id="node3" class="node">
<title>Node3</title>
<g id="a_node3"><a xlink:href="abcgOpenGL_8hpp.html" target="_top" xlink:title="Header file for OpenGL&#45;related functions and classes.">
<polygon fill="none" stroke="black" points="43.5,-67.5 43.5,-97.5 171.5,-97.5 171.5,-67.5 43.5,-67.5"/>
<text text-anchor="start" x="51.5" y="-85.5" font-family="Helvetica,sans-Serif" font-size="10.00">/home/harlen/dev/abcg</text>
<text text-anchor="middle" x="107.5" y="-74.5" font-family="Helvetica,sans-Serif" font-size="10.00">/abcg/abcgOpenGL.hpp</text>
</a>
</g>
</g>
<!-- Node2&#45;&gt;Node3 -->
<g id="edge2" class="edge">
<title>Node2&#45;&gt;Node3</title>
<path fill="none" stroke="midnightblue" d="M212.55,-130.27C189.3,-119.92 160.63,-107.15 139.12,-97.58"/>
<polygon fill="midnightblue" stroke="midnightblue" points="211.26,-133.53 221.82,-134.4 214.11,-127.13 211.26,-133.53"/>
</g>
<!-- Node4 -->
<g id="node4" class="node">
<title>Node4</title>
<g id="a_node4"><a xlink:href="abcgVulkan_8hpp.html" target="_top" xlink:title="Header file for Vulkan&#45;related functions and classes.">
<polygon fill="none" stroke="black" points="189.5,-67.5 189.5,-97.5 317.5,-97.5 317.5,-67.5 189.5,-67.5"/>
<text text-anchor="start" x="197.5" y="-85.5" font-family="Helvetica,sans-Serif" font-size="10.00">/home/harlen/dev/abcg</text>
<text text-anchor="middle" x="253.5" y="-74.5" font-family="Helvetica,sans-Serif" font-size="10.00">/abcg/abcgVulkan.hpp</text>
</a>
</g>
</g>
<!-- Node2&#45;&gt;Node4 -->
<g id="edge3" class="edge">
<title>Node2&#45;&gt;Node4</title>
<path fill="none" stroke="midnightblue" d="M253.5,-124.11C253.5,-115.15 253.5,-105.32 253.5,-97.58"/>
<polygon fill="midnightblue" stroke="midnightblue" points="250,-124.4 253.5,-134.4 257,-124.4 250,-124.4"/>
</g>
<!-- Node4&#45;&gt;Node5 -->
<g id="edge4" class="edge">
<title>Node4&#45;&gt;Node5</title>
<path fill="none" stroke="midnightblue" d="M206.71,-63.82C179.07,-53.37 144.54,-40.32 118.75,-30.58"/>
<polygon fill="midnightblue" stroke="midnightblue" points="205.59,-67.13 216.18,-67.4 208.06,-60.59 205.59,-67.13"/>
</g>
<!-- Node4&#45;&gt;Node6 -->
<g id="edge5" class="edge">
<title>Node4&#45;&gt;Node6</title>
<path fill="none" stroke="midnightblue" d="M269.31,-59.16C276.02,-49.68 283.63,-38.92 289.54,-30.58"/>
<polygon fill="midnightblue" stroke="midnightblue" points="266.4,-57.21 263.48,-67.4 272.12,-61.26 266.4,-57.21"/>
</g>
<!-- Node10 -->
<g id="node10" class="node">
<title>Node10</title>
<g id="a_node10"><a xlink:href="abcgOpenGLError_8cpp.html" target="_top" xlink:title="Definition of abcg::OpenGLError members.">
<polygon fill="none" stroke="black" points="603.5,-67.5 603.5,-97.5 753.5,-97.5 753.5,-67.5 603.5,-67.5"/>
<text text-anchor="start" x="611.5" y="-85.5" font-family="Helvetica,sans-Serif" font-size="10.00">/home/harlen/dev/abcg</text>
<text text-anchor="middle" x="678.5" y="-74.5" font-family="Helvetica,sans-Serif" font-size="10.00">/abcg/abcgOpenGLError.cpp</text>
</a>
</g>
</g>
<!-- Node9&#45;&gt;Node10 -->
<g id="edge9" class="edge">
<title>Node9&#45;&gt;Node10</title>
<path fill="none" stroke="midnightblue" d="M739.36,-128.45C725.82,-118.45 709.77,-106.6 697.56,-97.58"/>
<polygon fill="midnightblue" stroke="midnightblue" points="737.28,-131.27 747.41,-134.4 741.44,-125.64 737.28,-131.27"/>
</g>
<!-- Node11 -->
<g id="node11" class="node">
<title>Node11</title>
<g id="a_node11"><a xlink:href="abcgOpenGLFunction_8cpp.html" target="_top" xlink:title="Definition of OpenGL&#45;related error checking functions.">
<polygon fill="none" stroke="black" points="771,-67.5 771,-97.5 940,-97.5 940,-67.5 771,-67.5"/>
<text text-anchor="start" x="779" y="-85.5" font-family="Helvetica,sans-Serif" font-size="10.00">/home/harlen/dev/abcg</text>
<text text-anchor="middle" x="855.5" y="-74.5" font-family="Helvetica,sans-Serif" font-size="10.00">/abcg/abcgOpenGLFunction.cpp</text>
</a>
</g>
</g>
<!-- Node9&#45;&gt;Node11 -->
<g id="edge10" class="edge">
<title>Node9&#45;&gt;Node11</title>
<path fill="none" stroke="midnightblue" d="M793.95,-128.45C807.64,-118.45 823.87,-106.6 836.23,-97.58"/>
<polygon fill="midnightblue" stroke="midnightblue" points="791.82,-125.67 785.81,-134.4 795.95,-131.32 791.82,-125.67"/>
</g>
<!-- Node18 -->
<g id="node18" class="node">
<title>Node18</title>
<g id="a_node18"><a xlink:href="abcgVulkanError_8cpp.html" target="_top" xlink:title="Definition of abcg::VulkanError members.">
<polygon fill="none" stroke="black" points="1672.5,-67.5 1672.5,-97.5 1816.5,-97.5 1816.5,-67.5 1672.5,-67.5"/>
<text text-anchor="start" x="1680.5" y="-85.5" font-family="Helvetica,sans-Serif" font-size="10.00">/home/harlen/dev/abcg</text>
<text text-anchor="middle" x="1744.5" y="-74.5" font-family="Helvetica,sans-Serif" font-size="10.00">/abcg/abcgVulkanError.cpp</text>
</a>
</g>
</g>
<!-- Node17&#45;&gt;Node18 -->
<g id="edge17" class="edge">
<title>Node17&#45;&gt;Node18</title>
<path fill="none" stroke="midnightblue" d="M1791.01,-127.31C1780.66,-117.56 1768.66,-106.26 1759.44,-97.58"/>
<polygon fill="midnightblue" stroke="midnightblue" points="1788.85,-130.09 1798.53,-134.4 1793.65,-124.99 1788.85,-130.09"/>
</g>
<!-- Node17&#45;&gt;Node19 -->
<g id="edge18" class="edge">
<title>Node17&#45;&gt;Node19</title>
<path fill="none" stroke="midnightblue" d="M1844.21,-128.73C1859.84,-118.68 1878.47,-106.68 1892.63,-97.58"/>
<polygon fill="midnightblue" stroke="midnightblue" points="1841.93,-126.04 1835.42,-134.4 1845.72,-131.93 1841.93,-126.04"/>
</g>
</g>
</svg>
