<?xml version="1.0" encoding="UTF-8" standalone="no"?>
<!DOCTYPE svg PUBLIC "-//W3C//DTD SVG 1.1//EN"
 "http://www.w3.org/Graphics/SVG/1.1/DTD/svg11.dtd">
<!-- Generated by graphviz version 2.43.0 (0)
 -->
<!-- Title: /home/harlen/dev/abcg/abcg/abcgVulkanDevice.hpp Pages: 1 -->
<svg width="1210pt" height="374pt"
 viewBox="0.00 0.00 1210.00 374.00" xmlns="http://www.w3.org/2000/svg" xmlns:xlink="http://www.w3.org/1999/xlink">
<g id="graph0" class="graph" transform="scale(1 1) rotate(0) translate(4 370)">
<title>/home/harlen/dev/abcg/abcg/abcgVulkanDevice.hpp</title>
<!-- Node1 -->
<g id="node1" class="node">
<title>Node1</title>
<g id="a_node1"><a xlink:title="Header file of abcg::VulkanDevice.">
<polygon fill="#bfbfbf" stroke="black" points="786.5,-335.5 786.5,-365.5 942.5,-365.5 942.5,-335.5 786.5,-335.5"/>
<text text-anchor="start" x="794.5" y="-353.5" font-family="Helvetica,sans-Serif" font-size="10.00">/home/harlen/dev/abcg</text>
<text text-anchor="middle" x="864.5" y="-342.5" font-family="Helvetica,sans-Serif" font-size="10.00">/abcg/abcgVulkanDevice.hpp</text>
</a>
</g>
</g>
<!-- Node2 -->
<g id="node2" class="node">
<title>Node2</title>
<g id="a_node2"><a xlink:href="abcgVulkanBuffer_8hpp.html" target="_top" xlink:title="Header file of abcg::VulkanBuffer.">
<polygon fill="none" stroke="black" points="454,-268.5 454,-298.5 605,-298.5 605,-268.5 454,-268.5"/>
<text text-anchor="start" x="462" y="-286.5" font-family="Helvetica,sans-Serif" font-size="10.00">/home/harlen/dev/abcg</text>
<text text-anchor="middle" x="529.5" y="-275.5" font-family="Helvetica,sans-Serif" font-size="10.00">/abcg/abcgVulkanBuffer.hpp</text>
</a>
</g>
</g>
<!-- Node1&#45;&gt;Node2 -->
<g id="edge1" class="edge">
<title>Node1&#45;&gt;Node2</title>
<path fill="none" stroke="midnightblue" d="M782.12,-333.52C726.93,-322.81 654.94,-308.84 601.94,-298.55"/>
<polygon fill="midnightblue" stroke="midnightblue" points="781.74,-337.01 792.22,-335.48 783.07,-330.14 781.74,-337.01"/>
</g>
<!-- Node7 -->
<g id="node7" class="node">
<title>Node7</title>
<g id="a_node7"><a xlink:href="abcgVulkanDevice_8cpp.html" target="_top" xlink:title="Definition of abcg::VulkanDevice.">
<polygon fill="none" stroke="black" points="1047,-268.5 1047,-298.5 1202,-298.5 1202,-268.5 1047,-268.5"/>
<text text-anchor="start" x="1055" y="-286.5" font-family="Helvetica,sans-Serif" font-size="10.00">/home/harlen/dev/abcg</text>
<text text-anchor="middle" x="1124.5" y="-275.5" font-family="Helvetica,sans-Serif" font-size="10.00">/abcg/abcgVulkanDevice.cpp</text>
</a>
</g>
</g>
<!-- Node1&#45;&gt;Node7 -->
<g id="edge6" class="edge">
<title>Node1&#45;&gt;Node7</title>
<path fill="none" stroke="midnightblue" d="M930.56,-332.98C973.03,-322.37 1027.62,-308.72 1068.06,-298.61"/>
<polygon fill="midnightblue" stroke="midnightblue" points="929.45,-329.66 920.6,-335.48 931.15,-336.45 929.45,-329.66"/>
</g>
<!-- Node8 -->
<g id="node8" class="node">
<title>Node8</title>
<g id="a_node8"><a xlink:href="abcgVulkanImage_8hpp.html" target="_top" xlink:title="Header file of abcg::VulkanImage.">
<polygon fill="none" stroke="black" points="678,-268.5 678,-298.5 831,-298.5 831,-268.5 678,-268.5"/>
<text text-anchor="start" x="686" y="-286.5" font-family="Helvetica,sans-Serif" font-size="10.00">/home/harlen/dev/abcg</text>
<text text-anchor="middle" x="754.5" y="-275.5" font-family="Helvetica,sans-Serif" font-size="10.00">/abcg/abcgVulkanImage.hpp</text>
</a>
</g>
</g>
<!-- Node1&#45;&gt;Node8 -->
<g id="edge7" class="edge">
<title>Node1&#45;&gt;Node8</title>
<path fill="none" stroke="midnightblue" d="M832,-330.3C814.79,-320.12 794.02,-307.85 778.32,-298.58"/>
<polygon fill="midnightblue" stroke="midnightblue" points="830.24,-333.32 840.63,-335.4 833.8,-327.3 830.24,-333.32"/>
</g>
<!-- Node9 -->
<g id="node9" class="node">
<title>Node9</title>
<g id="a_node9"><a xlink:href="abcgVulkanSwapchain_8hpp.html" target="_top" xlink:title="Header file of abcg::VulkanSwapchain.">
<polygon fill="none" stroke="black" points="777,-201.5 777,-231.5 952,-231.5 952,-201.5 777,-201.5"/>
<text text-anchor="start" x="785" y="-219.5" font-family="Helvetica,sans-Serif" font-size="10.00">/home/harlen/dev/abcg</text>
<text text-anchor="middle" x="864.5" y="-208.5" font-family="Helvetica,sans-Serif" font-size="10.00">/abcg/abcgVulkanSwapchain.hpp</text>
</a>
</g>
</g>
<!-- Node1&#45;&gt;Node9 -->
<g id="edge24" class="edge">
<title>Node1&#45;&gt;Node9</title>
<path fill="none" stroke="midnightblue" d="M864.5,-325.02C864.5,-297.51 864.5,-253.79 864.5,-231.52"/>
<polygon fill="midnightblue" stroke="midnightblue" points="861,-325.37 864.5,-335.37 868,-325.37 861,-325.37"/>
</g>
<!-- Node12 -->
<g id="node12" class="node">
<title>Node12</title>
<g id="a_node12"><a xlink:href="abcgVulkanSwapchain_8cpp.html" target="_top" xlink:title="Definition of abcg::VulkanSwapchain.">
<polygon fill="none" stroke="black" points="910.5,-67.5 910.5,-97.5 1084.5,-97.5 1084.5,-67.5 910.5,-67.5"/>
<text text-anchor="start" x="918.5" y="-85.5" font-family="Helvetica,sans-Serif" font-size="10.00">/home/harlen/dev/abcg</text>
<text text-anchor="middle" x="997.5" y="-74.5" font-family="Helvetica,sans-Serif" font-size="10.00">/abcg/abcgVulkanSwapchain.cpp</text>
</a>
</g>
</g>
<!-- Node1&#45;&gt;Node12 -->
<g id="edge23" class="edge">
<title>Node1&#45;&gt;Node12</title>
<path fill="none" stroke="midnightblue" d="M914.27,-330.76C929.57,-322.94 945.32,-312.47 956.5,-299 1006.74,-238.5 1002.61,-135.38 999.13,-97.77"/>
<polygon fill="midnightblue" stroke="midnightblue" points="912.33,-327.81 904.83,-335.3 915.36,-334.12 912.33,-327.81"/>
</g>
<!-- Node13 -->
<g id="node13" class="node">
<title>Node13</title>
<g id="a_node13"><a xlink:href="abcgVulkanWindow_8hpp.html" target="_top" xlink:title="Header file of abcg::VulkanWindow.">
<polygon fill="none" stroke="black" points="784,-134.5 784,-164.5 945,-164.5 945,-134.5 784,-134.5"/>
<text text-anchor="start" x="792" y="-152.5" font-family="Helvetica,sans-Serif" font-size="10.00">/home/harlen/dev/abcg</text>
<text text-anchor="middle" x="864.5" y="-141.5" font-family="Helvetica,sans-Serif" font-size="10.00">/abcg/abcgVulkanWindow.hpp</text>
</a>
</g>
</g>
<!-- Node1&#45;&gt;Node13 -->
<g id="edge25" class="edge">
<title>Node1&#45;&gt;Node13</title>
<path fill="none" stroke="midnightblue" d="M894.22,-329.39C932.21,-301.09 989.87,-247.75 961.5,-201 951.11,-183.88 932.81,-172.29 914.88,-164.58"/>
<polygon fill="midnightblue" stroke="midnightblue" points="892.02,-326.66 885.99,-335.37 896.13,-332.33 892.02,-326.66"/>
</g>
<!-- Node15 -->
<g id="node15" class="node">
<title>Node15</title>
<g id="a_node15"><a xlink:href="abcgVulkanShader_8hpp.html" target="_top" xlink:title="Declaration of helper functions for creating Vulkan shaders.">
<polygon fill="none" stroke="black" points="160,-201.5 160,-231.5 315,-231.5 315,-201.5 160,-201.5"/>
<text text-anchor="start" x="168" y="-219.5" font-family="Helvetica,sans-Serif" font-size="10.00">/home/harlen/dev/abcg</text>
<text text-anchor="middle" x="237.5" y="-208.5" font-family="Helvetica,sans-Serif" font-size="10.00">/abcg/abcgVulkanShader.hpp</text>
</a>
</g>
</g>
<!-- Node1&#45;&gt;Node15 -->
<g id="edge19" class="edge">
<title>Node1&#45;&gt;Node15</title>
<path fill="none" stroke="midnightblue" d="M776.17,-345.44C690.34,-339.96 556.89,-327.38 444.5,-299 378.59,-282.36 305.47,-250.08 266.2,-231.53"/>
<polygon fill="midnightblue" stroke="midnightblue" points="776.2,-348.95 786.39,-346.07 776.63,-341.96 776.2,-348.95"/>
</g>
<!-- Node3 -->
<g id="node3" class="node">
<title>Node3</title>
<g id="a_node3"><a xlink:href="abcgVulkan_8hpp.html" target="_top" xlink:title="Header file for Vulkan&#45;related functions and classes.">
<polygon fill="none" stroke="black" points="364.5,-67.5 364.5,-97.5 492.5,-97.5 492.5,-67.5 364.5,-67.5"/>
<text text-anchor="start" x="372.5" y="-85.5" font-family="Helvetica,sans-Serif" font-size="10.00">/home/harlen/dev/abcg</text>
<text text-anchor="middle" x="428.5" y="-74.5" font-family="Helvetica,sans-Serif" font-size="10.00">/abcg/abcgVulkan.hpp</text>
</a>
</g>
</g>
<!-- Node2&#45;&gt;Node3 -->
<g id="edge2" class="edge">
<title>Node2&#45;&gt;Node3</title>
<path fill="none" stroke="midnightblue" d="M444.28,-269.02C423.7,-261.54 404.05,-249.95 391.5,-232 361.82,-189.53 398.82,-125.6 418.14,-97.54"/>
<polygon fill="midnightblue" stroke="midnightblue" points="443.18,-272.34 453.78,-272.17 445.39,-265.7 443.18,-272.34"/>
</g>
<!-- Node5 -->
<g id="node5" class="node">
<title>Node5</title>
<g id="a_node5"><a xlink:href="abcgVulkanBuffer_8cpp.html" target="_top" xlink:title="Definition of abcg::VulkanBuffer.">
<polygon fill="none" stroke="black" points="400.5,-201.5 400.5,-231.5 550.5,-231.5 550.5,-201.5 400.5,-201.5"/>
<text text-anchor="start" x="408.5" y="-219.5" font-family="Helvetica,sans-Serif" font-size="10.00">/home/harlen/dev/abcg</text>
<text text-anchor="middle" x="475.5" y="-208.5" font-family="Helvetica,sans-Serif" font-size="10.00">/abcg/abcgVulkanBuffer.cpp</text>
</a>
</g>
</g>
<!-- Node2&#45;&gt;Node5 -->
<g id="edge4" class="edge">
<title>Node2&#45;&gt;Node5</title>
<path fill="none" stroke="midnightblue" d="M511.18,-260.45C503.25,-250.9 494.2,-240 487.19,-231.58"/>
<polygon fill="midnightblue" stroke="midnightblue" points="508.7,-262.94 517.78,-268.4 514.08,-258.47 508.7,-262.94"/>
</g>
<!-- Node6 -->
<g id="node6" class="node">
<title>Node6</title>
<g id="a_node6"><a xlink:href="abcgVulkanImage_8cpp.html" target="_top" xlink:title="Definition of abcg::VulkanImage.">
<polygon fill="none" stroke="black" points="568.5,-201.5 568.5,-231.5 720.5,-231.5 720.5,-201.5 568.5,-201.5"/>
<text text-anchor="start" x="576.5" y="-219.5" font-family="Helvetica,sans-Serif" font-size="10.00">/home/harlen/dev/abcg</text>
<text text-anchor="middle" x="644.5" y="-208.5" font-family="Helvetica,sans-Serif" font-size="10.00">/abcg/abcgVulkanImage.cpp</text>
</a>
</g>
</g>
<!-- Node2&#45;&gt;Node6 -->
<g id="edge5" class="edge">
<title>Node2&#45;&gt;Node6</title>
<path fill="none" stroke="midnightblue" d="M563.48,-263.3C581.47,-253.12 603.18,-240.85 619.6,-231.58"/>
<polygon fill="midnightblue" stroke="midnightblue" points="561.44,-260.43 554.45,-268.4 564.88,-266.52 561.44,-260.43"/>
</g>
<!-- Node4 -->
<g id="node4" class="node">
<title>Node4</title>
<g id="a_node4"><a xlink:href="abcgVulkanInstance_8cpp.html" target="_top" xlink:title="Definition of abcg::VulkanInstance.">
<polygon fill="none" stroke="black" points="347,-0.5 347,-30.5 510,-30.5 510,-0.5 347,-0.5"/>
<text text-anchor="start" x="355" y="-18.5" font-family="Helvetica,sans-Serif" font-size="10.00">/home/harlen/dev/abcg</text>
<text text-anchor="middle" x="428.5" y="-7.5" font-family="Helvetica,sans-Serif" font-size="10.00">/abcg/abcgVulkanInstance.cpp</text>
</a>
</g>
</g>
<!-- Node3&#45;&gt;Node4 -->
<g id="edge3" class="edge">
<title>Node3&#45;&gt;Node4</title>
<path fill="none" stroke="midnightblue" d="M428.5,-57.11C428.5,-48.15 428.5,-38.32 428.5,-30.58"/>
<polygon fill="midnightblue" stroke="midnightblue" points="425,-57.4 428.5,-67.4 432,-57.4 425,-57.4"/>
</g>
<!-- Node8&#45;&gt;Node3 -->
<g id="edge8" class="edge">
<title>Node8&#45;&gt;Node3</title>
<path fill="none" stroke="midnightblue" d="M752.65,-258.3C750.09,-240.44 743.99,-216.61 729.5,-201 666.82,-133.46 560.66,-104.22 492.62,-91.94"/>
<polygon fill="midnightblue" stroke="midnightblue" points="749.18,-258.74 753.81,-268.27 756.13,-257.93 749.18,-258.74"/>
</g>
<!-- Node8&#45;&gt;Node6 -->
<g id="edge9" class="edge">
<title>Node8&#45;&gt;Node6</title>
<path fill="none" stroke="midnightblue" d="M722,-263.3C704.79,-253.12 684.02,-240.85 668.32,-231.58"/>
<polygon fill="midnightblue" stroke="midnightblue" points="720.24,-266.32 730.63,-268.4 723.8,-260.3 720.24,-266.32"/>
</g>
<!-- Node8&#45;&gt;Node9 -->
<g id="edge10" class="edge">
<title>Node8&#45;&gt;Node9</title>
<path fill="none" stroke="midnightblue" d="M787,-263.3C804.21,-253.12 824.98,-240.85 840.68,-231.58"/>
<polygon fill="midnightblue" stroke="midnightblue" points="785.2,-260.3 778.37,-268.4 788.76,-266.32 785.2,-260.3"/>
</g>
<!-- Node10 -->
<g id="node10" class="node">
<title>Node10</title>
<g id="a_node10"><a xlink:href="abcgVulkanPipeline_8hpp.html" target="_top" xlink:title="Header file of abcg::VulkanPipeline.">
<polygon fill="none" stroke="black" points="212,-134.5 212,-164.5 373,-164.5 373,-134.5 212,-134.5"/>
<text text-anchor="start" x="220" y="-152.5" font-family="Helvetica,sans-Serif" font-size="10.00">/home/harlen/dev/abcg</text>
<text text-anchor="middle" x="292.5" y="-141.5" font-family="Helvetica,sans-Serif" font-size="10.00">/abcg/abcgVulkanPipeline.hpp</text>
</a>
</g>
</g>
<!-- Node9&#45;&gt;Node10 -->
<g id="edge11" class="edge">
<title>Node9&#45;&gt;Node10</title>
<path fill="none" stroke="midnightblue" d="M766.5,-204.36C655.53,-191.75 476.78,-171.44 373.41,-159.69"/>
<polygon fill="midnightblue" stroke="midnightblue" points="766.36,-207.87 776.69,-205.52 767.15,-200.91 766.36,-207.87"/>
</g>
<!-- Node9&#45;&gt;Node12 -->
<g id="edge14" class="edge">
<title>Node9&#45;&gt;Node12</title>
<path fill="none" stroke="midnightblue" d="M909.18,-196.87C924.87,-188.76 941.75,-178.09 954.5,-165 973.7,-145.29 986.51,-115.28 992.85,-97.7"/>
<polygon fill="midnightblue" stroke="midnightblue" points="907.54,-193.78 900.12,-201.34 910.64,-200.05 907.54,-193.78"/>
</g>
<!-- Node9&#45;&gt;Node13 -->
<g id="edge15" class="edge">
<title>Node9&#45;&gt;Node13</title>
<path fill="none" stroke="midnightblue" d="M864.5,-191.11C864.5,-182.15 864.5,-172.32 864.5,-164.58"/>
<polygon fill="midnightblue" stroke="midnightblue" points="861,-191.4 864.5,-201.4 868,-191.4 861,-191.4"/>
</g>
<!-- Node10&#45;&gt;Node3 -->
<g id="edge12" class="edge">
<title>Node10&#45;&gt;Node3</title>
<path fill="none" stroke="midnightblue" d="M331.22,-129.99C352.78,-119.69 379.19,-107.07 399.05,-97.58"/>
<polygon fill="midnightblue" stroke="midnightblue" points="329.52,-126.93 322.01,-134.4 332.54,-133.24 329.52,-126.93"/>
</g>
<!-- Node11 -->
<g id="node11" class="node">
<title>Node11</title>
<g id="a_node11"><a xlink:href="abcgVulkanPipeline_8cpp.html" target="_top" xlink:title="Definition of abcg::VulkanPipeline.">
<polygon fill="none" stroke="black" points="185,-67.5 185,-97.5 346,-97.5 346,-67.5 185,-67.5"/>
<text text-anchor="start" x="193" y="-85.5" font-family="Helvetica,sans-Serif" font-size="10.00">/home/harlen/dev/abcg</text>
<text text-anchor="middle" x="265.5" y="-74.5" font-family="Helvetica,sans-Serif" font-size="10.00">/abcg/abcgVulkanPipeline.cpp</text>
</a>
</g>
</g>
<!-- Node10&#45;&gt;Node11 -->
<g id="edge13" class="edge">
<title>Node10&#45;&gt;Node11</title>
<path fill="none" stroke="midnightblue" d="M282.73,-124.99C278.92,-115.8 274.67,-105.58 271.35,-97.58"/>
<polygon fill="midnightblue" stroke="midnightblue" points="279.57,-126.5 286.64,-134.4 286.04,-123.82 279.57,-126.5"/>
</g>
<!-- Node13&#45;&gt;Node3 -->
<g id="edge16" class="edge">
<title>Node13&#45;&gt;Node3</title>
<path fill="none" stroke="midnightblue" d="M773.73,-134.97C689.77,-122.45 567.09,-104.16 492.83,-93.09"/>
<polygon fill="midnightblue" stroke="midnightblue" points="773.36,-138.45 783.77,-136.46 774.39,-131.53 773.36,-138.45"/>
</g>
<!-- Node13&#45;&gt;Node12 -->
<g id="edge17" class="edge">
<title>Node13&#45;&gt;Node12</title>
<path fill="none" stroke="midnightblue" d="M902.37,-129.99C923.45,-119.69 949.28,-107.07 968.7,-97.58"/>
<polygon fill="midnightblue" stroke="midnightblue" points="900.81,-126.86 893.36,-134.4 903.88,-133.15 900.81,-126.86"/>
</g>
<!-- Node14 -->
<g id="node14" class="node">
<title>Node14</title>
<g id="a_node14"><a xlink:href="abcgVulkanWindow_8cpp.html" target="_top" xlink:title="Definition of abcg::VulkanWindow members.">
<polygon fill="none" stroke="black" points="732.5,-67.5 732.5,-97.5 892.5,-97.5 892.5,-67.5 732.5,-67.5"/>
<text text-anchor="start" x="740.5" y="-85.5" font-family="Helvetica,sans-Serif" font-size="10.00">/home/harlen/dev/abcg</text>
<text text-anchor="middle" x="812.5" y="-74.5" font-family="Helvetica,sans-Serif" font-size="10.00">/abcg/abcgVulkanWindow.cpp</text>
</a>
</g>
</g>
<!-- Node13&#45;&gt;Node14 -->
<g id="edge18" class="edge">
<title>Node13&#45;&gt;Node14</title>
<path fill="none" stroke="midnightblue" d="M846.86,-126.45C839.22,-116.9 830.5,-106 823.76,-97.58"/>
<polygon fill="midnightblue" stroke="midnightblue" points="844.24,-128.77 853.22,-134.4 849.7,-124.4 844.24,-128.77"/>
</g>
<!-- Node15&#45;&gt;Node3 -->
<g id="edge20" class="edge">
<title>Node15&#45;&gt;Node3</title>
<path fill="none" stroke="midnightblue" d="M216.16,-193.35C201.98,-175.9 188.35,-151.66 202.5,-134 205.1,-130.76 298.51,-110.66 364.41,-96.82"/>
<polygon fill="midnightblue" stroke="midnightblue" points="213.85,-196.03 223.04,-201.31 219.15,-191.46 213.85,-196.03"/>
</g>
<!-- Node15&#45;&gt;Node10 -->
<g id="edge21" class="edge">
<title>Node15&#45;&gt;Node10</title>
<path fill="none" stroke="midnightblue" d="M255.92,-193.74C264.05,-184.12 273.39,-173.09 280.59,-164.58"/>
<polygon fill="midnightblue" stroke="midnightblue" points="253.22,-191.5 249.43,-201.4 258.57,-196.02 253.22,-191.5"/>
</g>
<!-- Node16 -->
<g id="node16" class="node">
<title>Node16</title>
<g id="a_node16"><a xlink:href="abcgVulkanShader_8cpp.html" target="_top" xlink:title="Definition of helper functions for creating Vulkan shaders.">
<polygon fill="none" stroke="black" points="0,-134.5 0,-164.5 155,-164.5 155,-134.5 0,-134.5"/>
<text text-anchor="start" x="8" y="-152.5" font-family="Helvetica,sans-Serif" font-size="10.00">/home/harlen/dev/abcg</text>
<text text-anchor="middle" x="77.5" y="-141.5" font-family="Helvetica,sans-Serif" font-size="10.00">/abcg/abcgVulkanShader.cpp</text>
</a>
</g>
</g>
<!-- Node15&#45;&gt;Node16 -->
<g id="edge22" class="edge">
<title>Node15&#45;&gt;Node16</title>
<path fill="none" stroke="midnightblue" d="M193.3,-197.54C167.7,-187.14 135.93,-174.24 112.15,-164.58"/>
<polygon fill="midnightblue" stroke="midnightblue" points="192.2,-200.87 202.78,-201.4 194.84,-194.39 192.2,-200.87"/>
</g>
</g>
</svg>
