<?xml version="1.0" encoding="UTF-8" standalone="no"?>
<!DOCTYPE svg PUBLIC "-//W3C//DTD SVG 1.1//EN"
 "http://www.w3.org/Graphics/SVG/1.1/DTD/svg11.dtd">
<!-- Generated by graphviz version 2.43.0 (0)
 -->
<!-- Title: /home/harlen/dev/abcg/abcg/abcgUtil.hpp Pages: 1 -->
<svg width="141pt" height="95pt"
 viewBox="0.00 0.00 140.50 95.00" xmlns="http://www.w3.org/2000/svg" xmlns:xlink="http://www.w3.org/1999/xlink">
<g id="graph0" class="graph" transform="scale(1 1) rotate(0) translate(4 91)">
<title>/home/harlen/dev/abcg/abcg/abcgUtil.hpp</title>
<!-- Node1 -->
<g id="node1" class="node">
<title>Node1</title>
<g id="a_node1"><a xlink:title="Declaration of general utility functions.">
<polygon fill="#bfbfbf" stroke="black" points="4.5,-56.5 4.5,-86.5 132.5,-86.5 132.5,-56.5 4.5,-56.5"/>
<text text-anchor="start" x="12.5" y="-74.5" font-family="Helvetica,sans-Serif" font-size="10.00">/home/harlen/dev/abcg</text>
<text text-anchor="middle" x="68.5" y="-63.5" font-family="Helvetica,sans-Serif" font-size="10.00">/abcg/abcgUtil.hpp</text>
</a>
</g>
</g>
<!-- Node2 -->
<g id="node2" class="node">
<title>Node2</title>
<g id="a_node2"><a xlink:title=" ">
<polygon fill="none" stroke="#bfbfbf" points="0,-0.5 0,-19.5 65,-19.5 65,-0.5 0,-0.5"/>
<text text-anchor="middle" x="32.5" y="-7.5" font-family="Helvetica,sans-Serif" font-size="10.00">functional</text>
</a>
</g>
</g>
<!-- Node1&#45;&gt;Node2 -->
<g id="edge1" class="edge">
<title>Node1&#45;&gt;Node2</title>
<path fill="none" stroke="midnightblue" d="M59.97,-56.4C54.9,-48.02 48.43,-37.33 43.04,-28.42"/>
<polygon fill="midnightblue" stroke="midnightblue" points="45.91,-26.4 37.74,-19.66 39.92,-30.03 45.91,-26.4"/>
</g>
<!-- Node3 -->
<g id="node3" class="node">
<title>Node3</title>
<g id="a_node3"><a xlink:title=" ">
<polygon fill="none" stroke="#bfbfbf" points="83.5,-0.5 83.5,-19.5 127.5,-19.5 127.5,-0.5 83.5,-0.5"/>
<text text-anchor="middle" x="105.5" y="-7.5" font-family="Helvetica,sans-Serif" font-size="10.00">string</text>
</a>
</g>
</g>
<!-- Node1&#45;&gt;Node3 -->
<g id="edge2" class="edge">
<title>Node1&#45;&gt;Node3</title>
<path fill="none" stroke="midnightblue" d="M77.27,-56.4C82.48,-48.02 89.13,-37.33 94.67,-28.42"/>
<polygon fill="midnightblue" stroke="midnightblue" points="97.81,-30 100.12,-19.66 91.86,-26.3 97.81,-30"/>
</g>
</g>
</svg>
