<?xml version="1.0" encoding="UTF-8" standalone="no"?>
<!DOCTYPE svg PUBLIC "-//W3C//DTD SVG 1.1//EN"
 "http://www.w3.org/Graphics/SVG/1.1/DTD/svg11.dtd">
<!-- Generated by graphviz version 2.43.0 (0)
 -->
<!-- Title: /home/harlen/dev/abcg/abcg/abcgVulkanShader.hpp Pages: 1 -->
<svg width="348pt" height="319pt"
 viewBox="0.00 0.00 347.50 319.00" xmlns="http://www.w3.org/2000/svg" xmlns:xlink="http://www.w3.org/1999/xlink">
<g id="graph0" class="graph" transform="scale(1 1) rotate(0) translate(4 315)">
<title>/home/harlen/dev/abcg/abcg/abcgVulkanShader.hpp</title>
<!-- Node1 -->
<g id="node1" class="node">
<title>Node1</title>
<g id="a_node1"><a xlink:title="Declaration of helper functions for creating Vulkan shaders.">
<polygon fill="#bfbfbf" stroke="black" points="33.5,-280.5 33.5,-310.5 188.5,-310.5 188.5,-280.5 33.5,-280.5"/>
<text text-anchor="start" x="41.5" y="-298.5" font-family="Helvetica,sans-Serif" font-size="10.00">/home/harlen/dev/abcg</text>
<text text-anchor="middle" x="111" y="-287.5" font-family="Helvetica,sans-Serif" font-size="10.00">/abcg/abcgVulkanShader.hpp</text>
</a>
</g>
</g>
<!-- Node2 -->
<g id="node2" class="node">
<title>Node2</title>
<g id="a_node2"><a xlink:href="abcgShader_8hpp.html" target="_top" xlink:title="Declaration of a structure for building shaders.">
<polygon fill="none" stroke="black" points="0,-224.5 0,-243.5 94,-243.5 94,-224.5 0,-224.5"/>
<text text-anchor="middle" x="47" y="-231.5" font-family="Helvetica,sans-Serif" font-size="10.00">abcgShader.hpp</text>
</a>
</g>
</g>
<!-- Node1&#45;&gt;Node2 -->
<g id="edge1" class="edge">
<title>Node1&#45;&gt;Node2</title>
<path fill="none" stroke="midnightblue" d="M95.83,-280.4C86.25,-271.49 73.84,-259.95 63.93,-250.74"/>
<polygon fill="midnightblue" stroke="midnightblue" points="66.02,-247.9 56.31,-243.66 61.25,-253.03 66.02,-247.9"/>
</g>
<!-- Node5 -->
<g id="node5" class="node">
<title>Node5</title>
<g id="a_node5"><a xlink:href="abcgVulkanDevice_8hpp.html" target="_top" xlink:title="Header file of abcg::VulkanDevice.">
<polygon fill="none" stroke="black" points="112.5,-224.5 112.5,-243.5 239.5,-243.5 239.5,-224.5 112.5,-224.5"/>
<text text-anchor="middle" x="176" y="-231.5" font-family="Helvetica,sans-Serif" font-size="10.00">abcgVulkanDevice.hpp</text>
</a>
</g>
</g>
<!-- Node1&#45;&gt;Node5 -->
<g id="edge4" class="edge">
<title>Node1&#45;&gt;Node5</title>
<path fill="none" stroke="midnightblue" d="M126.4,-280.4C136.24,-271.4 148.99,-259.72 159.11,-250.47"/>
<polygon fill="midnightblue" stroke="midnightblue" points="161.53,-252.99 166.54,-243.66 156.8,-247.83 161.53,-252.99"/>
</g>
<!-- Node3 -->
<g id="node3" class="node">
<title>Node3</title>
<g id="a_node3"><a xlink:title=" ">
<polygon fill="none" stroke="#bfbfbf" points="30,-112.5 30,-131.5 86,-131.5 86,-112.5 30,-112.5"/>
<text text-anchor="middle" x="58" y="-119.5" font-family="Helvetica,sans-Serif" font-size="10.00">optional</text>
</a>
</g>
</g>
<!-- Node2&#45;&gt;Node3 -->
<g id="edge2" class="edge">
<title>Node2&#45;&gt;Node3</title>
<path fill="none" stroke="midnightblue" d="M38.66,-224.28C27.88,-211.91 11.36,-188.49 19,-168 23.17,-156.81 31.52,-146.56 39.42,-138.68"/>
<polygon fill="midnightblue" stroke="midnightblue" points="42.06,-141 47.01,-131.63 37.3,-135.87 42.06,-141"/>
</g>
<!-- Node4 -->
<g id="node4" class="node">
<title>Node4</title>
<g id="a_node4"><a xlink:title=" ">
<polygon fill="none" stroke="#bfbfbf" points="28,-168.5 28,-187.5 72,-187.5 72,-168.5 28,-168.5"/>
<text text-anchor="middle" x="50" y="-175.5" font-family="Helvetica,sans-Serif" font-size="10.00">string</text>
</a>
</g>
</g>
<!-- Node2&#45;&gt;Node4 -->
<g id="edge3" class="edge">
<title>Node2&#45;&gt;Node4</title>
<path fill="none" stroke="midnightblue" d="M47.5,-224.08C47.89,-217.01 48.45,-206.86 48.95,-197.99"/>
<polygon fill="midnightblue" stroke="midnightblue" points="52.45,-197.93 49.51,-187.75 45.46,-197.54 52.45,-197.93"/>
</g>
<!-- Node6 -->
<g id="node6" class="node">
<title>Node6</title>
<g id="a_node6"><a xlink:href="abcgVulkanPhysicalDevice_8hpp.html" target="_top" xlink:title="Header file of abcg::VulkanPhysicalDevice.">
<polygon fill="none" stroke="black" points="89.5,-168.5 89.5,-187.5 256.5,-187.5 256.5,-168.5 89.5,-168.5"/>
<text text-anchor="middle" x="173" y="-175.5" font-family="Helvetica,sans-Serif" font-size="10.00">abcgVulkanPhysicalDevice.hpp</text>
</a>
</g>
</g>
<!-- Node5&#45;&gt;Node6 -->
<g id="edge5" class="edge">
<title>Node5&#45;&gt;Node6</title>
<path fill="none" stroke="midnightblue" d="M175.5,-224.08C175.11,-217.01 174.55,-206.86 174.05,-197.99"/>
<polygon fill="midnightblue" stroke="midnightblue" points="177.54,-197.54 173.49,-187.75 170.55,-197.93 177.54,-197.54"/>
</g>
<!-- Node11 -->
<g id="node11" class="node">
<title>Node11</title>
<g id="a_node11"><a xlink:title=" ">
<polygon fill="none" stroke="#bfbfbf" points="274.5,-168.5 274.5,-187.5 339.5,-187.5 339.5,-168.5 274.5,-168.5"/>
<text text-anchor="middle" x="307" y="-175.5" font-family="Helvetica,sans-Serif" font-size="10.00">functional</text>
</a>
</g>
</g>
<!-- Node5&#45;&gt;Node11 -->
<g id="edge12" class="edge">
<title>Node5&#45;&gt;Node11</title>
<path fill="none" stroke="midnightblue" d="M196.76,-224.44C218.32,-215.56 252.26,-201.56 276.79,-191.45"/>
<polygon fill="midnightblue" stroke="midnightblue" points="278.43,-194.56 286.34,-187.52 275.76,-188.09 278.43,-194.56"/>
</g>
<!-- Node6&#45;&gt;Node3 -->
<g id="edge6" class="edge">
<title>Node6&#45;&gt;Node3</title>
<path fill="none" stroke="midnightblue" d="M154.78,-168.44C136.1,-159.68 106.84,-145.94 85.38,-135.86"/>
<polygon fill="midnightblue" stroke="midnightblue" points="86.68,-132.6 76.14,-131.52 83.7,-138.93 86.68,-132.6"/>
</g>
<!-- Node7 -->
<g id="node7" class="node">
<title>Node7</title>
<g id="a_node7"><a xlink:href="abcgVulkanExternal_8hpp.html" target="_top" xlink:title="Header file for including Vulkan&#45;related dependencies.">
<polygon fill="none" stroke="black" points="105,-56.5 105,-75.5 239,-75.5 239,-56.5 105,-56.5"/>
<text text-anchor="middle" x="172" y="-63.5" font-family="Helvetica,sans-Serif" font-size="10.00">abcgVulkanExternal.hpp</text>
</a>
</g>
</g>
<!-- Node6&#45;&gt;Node7 -->
<g id="edge7" class="edge">
<title>Node6&#45;&gt;Node7</title>
<path fill="none" stroke="midnightblue" d="M165.33,-168.46C158.22,-159.93 148.15,-146.09 144,-132 138.98,-114.95 148.57,-96.42 157.86,-83.52"/>
<polygon fill="midnightblue" stroke="midnightblue" points="160.67,-85.62 164.07,-75.58 155.15,-81.31 160.67,-85.62"/>
</g>
<!-- Node10 -->
<g id="node10" class="node">
<title>Node10</title>
<g id="a_node10"><a xlink:href="abcgVulkanInstance_8hpp.html" target="_top" xlink:title="Header file of abcg::VulkanInstance.">
<polygon fill="none" stroke="black" points="153,-112.5 153,-131.5 287,-131.5 287,-112.5 153,-112.5"/>
<text text-anchor="middle" x="220" y="-119.5" font-family="Helvetica,sans-Serif" font-size="10.00">abcgVulkanInstance.hpp</text>
</a>
</g>
</g>
<!-- Node6&#45;&gt;Node10 -->
<g id="edge10" class="edge">
<title>Node6&#45;&gt;Node10</title>
<path fill="none" stroke="midnightblue" d="M180.76,-168.08C187.54,-160.3 197.54,-148.8 205.76,-139.37"/>
<polygon fill="midnightblue" stroke="midnightblue" points="208.46,-141.59 212.38,-131.75 203.18,-137 208.46,-141.59"/>
</g>
<!-- Node8 -->
<g id="node8" class="node">
<title>Node8</title>
<g id="a_node8"><a xlink:title=" ">
<polygon fill="none" stroke="#bfbfbf" points="101.5,-0.5 101.5,-19.5 148.5,-19.5 148.5,-0.5 101.5,-0.5"/>
<text text-anchor="middle" x="125" y="-7.5" font-family="Helvetica,sans-Serif" font-size="10.00">volk.h</text>
</a>
</g>
</g>
<!-- Node7&#45;&gt;Node8 -->
<g id="edge8" class="edge">
<title>Node7&#45;&gt;Node8</title>
<path fill="none" stroke="midnightblue" d="M164.24,-56.08C157.46,-48.3 147.46,-36.8 139.24,-27.37"/>
<polygon fill="midnightblue" stroke="midnightblue" points="141.82,-25 132.62,-19.75 136.54,-29.59 141.82,-25"/>
</g>
<!-- Node9 -->
<g id="node9" class="node">
<title>Node9</title>
<g id="a_node9"><a xlink:title=" ">
<polygon fill="none" stroke="#bfbfbf" points="166.5,-0.5 166.5,-19.5 271.5,-19.5 271.5,-0.5 166.5,-0.5"/>
<text text-anchor="middle" x="219" y="-7.5" font-family="Helvetica,sans-Serif" font-size="10.00">vulkan/vulkan.hpp</text>
</a>
</g>
</g>
<!-- Node7&#45;&gt;Node9 -->
<g id="edge9" class="edge">
<title>Node7&#45;&gt;Node9</title>
<path fill="none" stroke="midnightblue" d="M179.76,-56.08C186.54,-48.3 196.54,-36.8 204.76,-27.37"/>
<polygon fill="midnightblue" stroke="midnightblue" points="207.46,-29.59 211.38,-19.75 202.18,-25 207.46,-29.59"/>
</g>
<!-- Node10&#45;&gt;Node7 -->
<g id="edge11" class="edge">
<title>Node10&#45;&gt;Node7</title>
<path fill="none" stroke="midnightblue" d="M212.07,-112.08C205.15,-104.3 194.93,-92.8 186.55,-83.37"/>
<polygon fill="midnightblue" stroke="midnightblue" points="189.04,-80.9 179.78,-75.75 183.81,-85.55 189.04,-80.9"/>
</g>
</g>
</svg>
