<?xml version="1.0" encoding="UTF-8" standalone="no"?>
<!DOCTYPE svg PUBLIC "-//W3C//DTD SVG 1.1//EN"
 "http://www.w3.org/Graphics/SVG/1.1/DTD/svg11.dtd">
<!-- Generated by graphviz version 2.43.0 (0)
 -->
<!-- Title: /home/harlen/dev/abcg/abcg/abcgOpenGLShader.cpp Pages: 1 -->
<svg width="1071pt" height="207pt"
 viewBox="0.00 0.00 1070.50 207.00" xmlns="http://www.w3.org/2000/svg" xmlns:xlink="http://www.w3.org/1999/xlink">
<g id="graph0" class="graph" transform="scale(1 1) rotate(0) translate(4 203)">
<title>/home/harlen/dev/abcg/abcg/abcgOpenGLShader.cpp</title>
<!-- Node1 -->
<g id="node1" class="node">
<title>Node1</title>
<g id="a_node1"><a xlink:title="Definition of helper functions for building OpenGL shaders.">
<polygon fill="#bfbfbf" stroke="black" points="546.5,-168.5 546.5,-198.5 707.5,-198.5 707.5,-168.5 546.5,-168.5"/>
<text text-anchor="start" x="554.5" y="-186.5" font-family="Helvetica,sans-Serif" font-size="10.00">/home/harlen/dev/abcg</text>
<text text-anchor="middle" x="627" y="-175.5" font-family="Helvetica,sans-Serif" font-size="10.00">/abcg/abcgOpenGLShader.cpp</text>
</a>
</g>
</g>
<!-- Node2 -->
<g id="node2" class="node">
<title>Node2</title>
<g id="a_node2"><a xlink:href="abcgOpenGLShader_8hpp.html" target="_top" xlink:title="Declaration of helper functions for building OpenGL shaders.">
<polygon fill="none" stroke="black" points="134,-112.5 134,-131.5 266,-131.5 266,-112.5 134,-112.5"/>
<text text-anchor="middle" x="200" y="-119.5" font-family="Helvetica,sans-Serif" font-size="10.00">abcgOpenGLShader.hpp</text>
</a>
</g>
</g>
<!-- Node1&#45;&gt;Node2 -->
<g id="edge1" class="edge">
<title>Node1&#45;&gt;Node2</title>
<path fill="none" stroke="midnightblue" d="M546.43,-171.27C467.1,-160.22 347.09,-143.5 271.17,-132.92"/>
<polygon fill="midnightblue" stroke="midnightblue" points="271.61,-129.44 261.22,-131.53 270.64,-136.38 271.61,-129.44"/>
</g>
<!-- Node7 -->
<g id="node7" class="node">
<title>Node7</title>
<g id="a_node7"><a xlink:title=" ">
<polygon fill="none" stroke="#bfbfbf" points="270.5,-56.5 270.5,-75.5 317.5,-75.5 317.5,-56.5 270.5,-56.5"/>
<text text-anchor="middle" x="294" y="-63.5" font-family="Helvetica,sans-Serif" font-size="10.00">vector</text>
</a>
</g>
</g>
<!-- Node1&#45;&gt;Node7 -->
<g id="edge14" class="edge">
<title>Node1&#45;&gt;Node7</title>
<path fill="none" stroke="midnightblue" d="M546.15,-179.14C464.82,-174.1 346.74,-161.77 313,-132 299.93,-120.47 295.63,-100.5 294.32,-85.73"/>
<polygon fill="midnightblue" stroke="midnightblue" points="297.81,-85.49 293.81,-75.68 290.82,-85.84 297.81,-85.49"/>
</g>
<!-- Node8 -->
<g id="node8" class="node">
<title>Node8</title>
<g id="a_node8"><a xlink:title=" ">
<polygon fill="none" stroke="#bfbfbf" points="322.5,-112.5 322.5,-131.5 461.5,-131.5 461.5,-112.5 322.5,-112.5"/>
<text text-anchor="middle" x="392" y="-119.5" font-family="Helvetica,sans-Serif" font-size="10.00">cppitertools/itertools.hpp</text>
</a>
</g>
</g>
<!-- Node1&#45;&gt;Node8 -->
<g id="edge7" class="edge">
<title>Node1&#45;&gt;Node8</title>
<path fill="none" stroke="midnightblue" d="M571.61,-168.47C530,-157.94 473.82,-143.72 435.44,-134"/>
<polygon fill="midnightblue" stroke="midnightblue" points="436.15,-130.57 425.6,-131.51 434.43,-137.35 436.15,-130.57"/>
</g>
<!-- Node9 -->
<g id="node9" class="node">
<title>Node9</title>
<g id="a_node9"><a xlink:title=" ">
<polygon fill="none" stroke="#bfbfbf" points="479.5,-112.5 479.5,-131.5 546.5,-131.5 546.5,-112.5 479.5,-112.5"/>
<text text-anchor="middle" x="513" y="-119.5" font-family="Helvetica,sans-Serif" font-size="10.00">fmt/core.h</text>
</a>
</g>
</g>
<!-- Node1&#45;&gt;Node9 -->
<g id="edge8" class="edge">
<title>Node1&#45;&gt;Node9</title>
<path fill="none" stroke="midnightblue" d="M599.98,-168.4C581.37,-158.68 556.79,-145.86 538.51,-136.31"/>
<polygon fill="midnightblue" stroke="midnightblue" points="540.07,-133.18 529.59,-131.66 536.83,-139.39 540.07,-133.18"/>
</g>
<!-- Node10 -->
<g id="node10" class="node">
<title>Node10</title>
<g id="a_node10"><a xlink:title=" ">
<polygon fill="none" stroke="#bfbfbf" points="565,-112.5 565,-131.5 613,-131.5 613,-112.5 565,-112.5"/>
<text text-anchor="middle" x="589" y="-119.5" font-family="Helvetica,sans-Serif" font-size="10.00">gsl/gsl</text>
</a>
</g>
</g>
<!-- Node1&#45;&gt;Node10 -->
<g id="edge9" class="edge">
<title>Node1&#45;&gt;Node10</title>
<path fill="none" stroke="midnightblue" d="M617.99,-168.4C612.59,-159.93 605.67,-149.1 599.95,-140.14"/>
<polygon fill="midnightblue" stroke="midnightblue" points="602.86,-138.2 594.53,-131.66 596.96,-141.97 602.86,-138.2"/>
</g>
<!-- Node11 -->
<g id="node11" class="node">
<title>Node11</title>
<g id="a_node11"><a xlink:title=" ">
<polygon fill="none" stroke="#bfbfbf" points="631,-112.5 631,-131.5 699,-131.5 699,-112.5 631,-112.5"/>
<text text-anchor="middle" x="665" y="-119.5" font-family="Helvetica,sans-Serif" font-size="10.00">filesystem</text>
</a>
</g>
</g>
<!-- Node1&#45;&gt;Node11 -->
<g id="edge10" class="edge">
<title>Node1&#45;&gt;Node11</title>
<path fill="none" stroke="midnightblue" d="M636.01,-168.4C641.41,-159.93 648.33,-149.1 654.05,-140.14"/>
<polygon fill="midnightblue" stroke="midnightblue" points="657.04,-141.97 659.47,-131.66 651.14,-138.2 657.04,-141.97"/>
</g>
<!-- Node12 -->
<g id="node12" class="node">
<title>Node12</title>
<g id="a_node12"><a xlink:title=" ">
<polygon fill="none" stroke="#bfbfbf" points="717.5,-112.5 717.5,-131.5 772.5,-131.5 772.5,-112.5 717.5,-112.5"/>
<text text-anchor="middle" x="745" y="-119.5" font-family="Helvetica,sans-Serif" font-size="10.00">fstream</text>
</a>
</g>
</g>
<!-- Node1&#45;&gt;Node12 -->
<g id="edge11" class="edge">
<title>Node1&#45;&gt;Node12</title>
<path fill="none" stroke="midnightblue" d="M654.96,-168.4C674.32,-158.64 699.91,-145.74 718.86,-136.18"/>
<polygon fill="midnightblue" stroke="midnightblue" points="720.48,-139.29 727.83,-131.66 717.33,-133.04 720.48,-139.29"/>
</g>
<!-- Node13 -->
<g id="node13" class="node">
<title>Node13</title>
<g id="a_node13"><a xlink:title=" ">
<polygon fill="none" stroke="#bfbfbf" points="791,-112.5 791,-131.5 835,-131.5 835,-112.5 791,-112.5"/>
<text text-anchor="middle" x="813" y="-119.5" font-family="Helvetica,sans-Serif" font-size="10.00">regex</text>
</a>
</g>
</g>
<!-- Node1&#45;&gt;Node13 -->
<g id="edge12" class="edge">
<title>Node1&#45;&gt;Node13</title>
<path fill="none" stroke="midnightblue" d="M671.08,-168.4C704.96,-157.56 750.94,-142.85 781.27,-133.15"/>
<polygon fill="midnightblue" stroke="midnightblue" points="782.45,-136.45 790.91,-130.07 780.32,-129.78 782.45,-136.45"/>
</g>
<!-- Node14 -->
<g id="node14" class="node">
<title>Node14</title>
<g id="a_node14"><a xlink:title=" ">
<polygon fill="none" stroke="#bfbfbf" points="853,-112.5 853,-131.5 909,-131.5 909,-112.5 853,-112.5"/>
<text text-anchor="middle" x="881" y="-119.5" font-family="Helvetica,sans-Serif" font-size="10.00">sstream</text>
</a>
</g>
</g>
<!-- Node1&#45;&gt;Node14 -->
<g id="edge13" class="edge">
<title>Node1&#45;&gt;Node14</title>
<path fill="none" stroke="midnightblue" d="M688.3,-168.4C729.41,-158.91 785.02,-146 842.7,-132.29"/>
<polygon fill="midnightblue" stroke="midnightblue" points="843.81,-135.63 852.73,-129.91 842.19,-128.82 843.81,-135.63"/>
</g>
<!-- Node15 -->
<g id="node15" class="node">
<title>Node15</title>
<g id="a_node15"><a xlink:href="abcgException_8hpp.html" target="_top" xlink:title="Header file of abcg::Exception and derived classes.">
<polygon fill="none" stroke="black" points="927.5,-112.5 927.5,-131.5 1036.5,-131.5 1036.5,-112.5 927.5,-112.5"/>
<text text-anchor="middle" x="982" y="-119.5" font-family="Helvetica,sans-Serif" font-size="10.00">abcgException.hpp</text>
</a>
</g>
</g>
<!-- Node1&#45;&gt;Node15 -->
<g id="edge15" class="edge">
<title>Node1&#45;&gt;Node15</title>
<path fill="none" stroke="midnightblue" d="M707.55,-169C772.43,-158.12 862.24,-143.07 921.2,-133.19"/>
<polygon fill="midnightblue" stroke="midnightblue" points="921.83,-136.63 931.11,-131.53 920.67,-129.73 921.83,-136.63"/>
</g>
<!-- Node3 -->
<g id="node3" class="node">
<title>Node3</title>
<g id="a_node3"><a xlink:href="abcgOpenGLExternal_8hpp.html" target="_top" xlink:title="Header file for including OpenGL&#45;related third&#45;party dependencies.">
<polygon fill="none" stroke="black" points="0,-56.5 0,-75.5 140,-75.5 140,-56.5 0,-56.5"/>
<text text-anchor="middle" x="70" y="-63.5" font-family="Helvetica,sans-Serif" font-size="10.00">abcgOpenGLExternal.hpp</text>
</a>
</g>
</g>
<!-- Node2&#45;&gt;Node3 -->
<g id="edge2" class="edge">
<title>Node2&#45;&gt;Node3</title>
<path fill="none" stroke="midnightblue" d="M179.4,-112.44C158.01,-103.56 124.32,-89.56 99.98,-79.45"/>
<polygon fill="midnightblue" stroke="midnightblue" points="101.08,-76.12 90.5,-75.52 98.39,-82.58 101.08,-76.12"/>
</g>
<!-- Node4 -->
<g id="node4" class="node">
<title>Node4</title>
<g id="a_node4"><a xlink:href="abcgShader_8hpp.html" target="_top" xlink:title="Declaration of a structure for building shaders.">
<polygon fill="none" stroke="black" points="158,-56.5 158,-75.5 252,-75.5 252,-56.5 158,-56.5"/>
<text text-anchor="middle" x="205" y="-63.5" font-family="Helvetica,sans-Serif" font-size="10.00">abcgShader.hpp</text>
</a>
</g>
</g>
<!-- Node2&#45;&gt;Node4 -->
<g id="edge3" class="edge">
<title>Node2&#45;&gt;Node4</title>
<path fill="none" stroke="midnightblue" d="M200.83,-112.08C201.48,-105.01 202.42,-94.86 203.24,-85.99"/>
<polygon fill="midnightblue" stroke="midnightblue" points="206.75,-86.03 204.19,-75.75 199.78,-85.39 206.75,-86.03"/>
</g>
<!-- Node2&#45;&gt;Node7 -->
<g id="edge6" class="edge">
<title>Node2&#45;&gt;Node7</title>
<path fill="none" stroke="midnightblue" d="M215.1,-112.32C229.9,-103.82 252.69,-90.73 269.98,-80.8"/>
<polygon fill="midnightblue" stroke="midnightblue" points="272.01,-83.67 278.93,-75.65 268.52,-77.6 272.01,-83.67"/>
</g>
<!-- Node5 -->
<g id="node5" class="node">
<title>Node5</title>
<g id="a_node5"><a xlink:title=" ">
<polygon fill="none" stroke="#bfbfbf" points="177,-0.5 177,-19.5 233,-19.5 233,-0.5 177,-0.5"/>
<text text-anchor="middle" x="205" y="-7.5" font-family="Helvetica,sans-Serif" font-size="10.00">optional</text>
</a>
</g>
</g>
<!-- Node4&#45;&gt;Node5 -->
<g id="edge4" class="edge">
<title>Node4&#45;&gt;Node5</title>
<path fill="none" stroke="midnightblue" d="M205,-56.08C205,-49.01 205,-38.86 205,-29.99"/>
<polygon fill="midnightblue" stroke="midnightblue" points="208.5,-29.75 205,-19.75 201.5,-29.75 208.5,-29.75"/>
</g>
<!-- Node6 -->
<g id="node6" class="node">
<title>Node6</title>
<g id="a_node6"><a xlink:title=" ">
<polygon fill="none" stroke="#bfbfbf" points="519,-0.5 519,-19.5 563,-19.5 563,-0.5 519,-0.5"/>
<text text-anchor="middle" x="541" y="-7.5" font-family="Helvetica,sans-Serif" font-size="10.00">string</text>
</a>
</g>
</g>
<!-- Node4&#45;&gt;Node6 -->
<g id="edge5" class="edge">
<title>Node4&#45;&gt;Node6</title>
<path fill="none" stroke="midnightblue" d="M252.07,-57.43C321.42,-46.29 449.24,-25.75 508.83,-16.17"/>
<polygon fill="midnightblue" stroke="midnightblue" points="509.49,-19.61 518.8,-14.57 508.38,-12.7 509.49,-19.61"/>
</g>
<!-- Node15&#45;&gt;Node6 -->
<g id="edge18" class="edge">
<title>Node15&#45;&gt;Node6</title>
<path fill="none" stroke="midnightblue" d="M947.76,-112.46C864.87,-91.78 654.27,-39.25 573.35,-19.07"/>
<polygon fill="midnightblue" stroke="midnightblue" points="573.81,-15.58 563.26,-16.55 572.11,-22.37 573.81,-15.58"/>
</g>
<!-- Node16 -->
<g id="node16" class="node">
<title>Node16</title>
<g id="a_node16"><a xlink:title=" ">
<polygon fill="none" stroke="#bfbfbf" points="886.5,-56.5 886.5,-75.5 979.5,-75.5 979.5,-56.5 886.5,-56.5"/>
<text text-anchor="middle" x="933" y="-63.5" font-family="Helvetica,sans-Serif" font-size="10.00">source_location</text>
</a>
</g>
</g>
<!-- Node15&#45;&gt;Node16 -->
<g id="edge16" class="edge">
<title>Node15&#45;&gt;Node16</title>
<path fill="none" stroke="midnightblue" d="M973.91,-112.08C966.84,-104.3 956.41,-92.8 947.85,-83.37"/>
<polygon fill="midnightblue" stroke="midnightblue" points="950.25,-80.8 940.94,-75.75 945.07,-85.51 950.25,-80.8"/>
</g>
<!-- Node17 -->
<g id="node17" class="node">
<title>Node17</title>
<g id="a_node17"><a xlink:title=" ">
<polygon fill="none" stroke="#bfbfbf" points="997.5,-56.5 997.5,-75.5 1062.5,-75.5 1062.5,-56.5 997.5,-56.5"/>
<text text-anchor="middle" x="1030" y="-63.5" font-family="Helvetica,sans-Serif" font-size="10.00">stdexcept</text>
</a>
</g>
</g>
<!-- Node15&#45;&gt;Node17 -->
<g id="edge17" class="edge">
<title>Node15&#45;&gt;Node17</title>
<path fill="none" stroke="midnightblue" d="M989.93,-112.08C996.85,-104.3 1007.07,-92.8 1015.45,-83.37"/>
<polygon fill="midnightblue" stroke="midnightblue" points="1018.19,-85.55 1022.22,-75.75 1012.96,-80.9 1018.19,-85.55"/>
</g>
</g>
</svg>
