<?xml version="1.0" encoding="UTF-8" standalone="no"?>
<!DOCTYPE svg PUBLIC "-//W3C//DTD SVG 1.1//EN"
 "http://www.w3.org/Graphics/SVG/1.1/DTD/svg11.dtd">
<!-- Generated by graphviz version 2.43.0 (0)
 -->
<!-- Title: /home/harlen/dev/abcg2/abcg/abcg_opengl_shader.cpp Pages: 1 -->
<svg width="1109pt" height="207pt"
 viewBox="0.00 0.00 1109.00 207.00" xmlns="http://www.w3.org/2000/svg" xmlns:xlink="http://www.w3.org/1999/xlink">
<g id="graph0" class="graph" transform="scale(1 1) rotate(0) translate(4 203)">
<title>/home/harlen/dev/abcg2/abcg/abcg_opengl_shader.cpp</title>
<!-- Node1 -->
<g id="node1" class="node">
<title>Node1</title>
<g id="a_node1"><a xlink:title="Definition of helper functions for building OpenGL shaders.">
<polygon fill="#bfbfbf" stroke="black" points="595,-168.5 595,-198.5 760,-198.5 760,-168.5 595,-168.5"/>
<text text-anchor="start" x="603" y="-186.5" font-family="Helvetica,sans-Serif" font-size="10.00">/home/harlen/dev/abcg2</text>
<text text-anchor="middle" x="677.5" y="-175.5" font-family="Helvetica,sans-Serif" font-size="10.00">/abcg/abcg_opengl_shader.cpp</text>
</a>
</g>
</g>
<!-- Node2 -->
<g id="node2" class="node">
<title>Node2</title>
<g id="a_node2"><a xlink:href="abcg__opengl__shader_8hpp.html" target="_top" xlink:title="Declaration of helper functions for building OpenGL shaders.">
<polygon fill="none" stroke="black" points="244,-112.5 244,-131.5 381,-131.5 381,-112.5 244,-112.5"/>
<text text-anchor="middle" x="312.5" y="-119.5" font-family="Helvetica,sans-Serif" font-size="10.00">abcg_opengl_shader.hpp</text>
</a>
</g>
</g>
<!-- Node1&#45;&gt;Node2 -->
<g id="edge1" class="edge">
<title>Node1&#45;&gt;Node2</title>
<path fill="none" stroke="midnightblue" d="M594.68,-169C527.97,-158.12 435.63,-143.07 375.01,-133.19"/>
<polygon fill="midnightblue" stroke="midnightblue" points="375.25,-129.68 364.82,-131.53 374.13,-136.59 375.25,-129.68"/>
</g>
<!-- Node7 -->
<g id="node7" class="node">
<title>Node7</title>
<g id="a_node7"><a xlink:title=" ">
<polygon fill="none" stroke="#bfbfbf" points="409,-56.5 409,-75.5 456,-75.5 456,-56.5 409,-56.5"/>
<text text-anchor="middle" x="432.5" y="-63.5" font-family="Helvetica,sans-Serif" font-size="10.00">vector</text>
</a>
</g>
</g>
<!-- Node1&#45;&gt;Node7 -->
<g id="edge15" class="edge">
<title>Node1&#45;&gt;Node7</title>
<path fill="none" stroke="midnightblue" d="M594.94,-177.76C553.84,-171.82 505.41,-159.06 469.5,-132 453.98,-120.3 443.96,-100.07 438.31,-85.27"/>
<polygon fill="midnightblue" stroke="midnightblue" points="441.56,-83.95 434.96,-75.66 434.95,-86.26 441.56,-83.95"/>
</g>
<!-- Node8 -->
<g id="node8" class="node">
<title>Node8</title>
<g id="a_node8"><a xlink:href="abcg__application_8hpp.html" target="_top" xlink:title="Header file of abcg::Application.">
<polygon fill="none" stroke="black" points="474.5,-56.5 474.5,-75.5 594.5,-75.5 594.5,-56.5 474.5,-56.5"/>
<text text-anchor="middle" x="534.5" y="-63.5" font-family="Helvetica,sans-Serif" font-size="10.00">abcg_application.hpp</text>
</a>
</g>
</g>
<!-- Node1&#45;&gt;Node8 -->
<g id="edge8" class="edge">
<title>Node1&#45;&gt;Node8</title>
<path fill="none" stroke="midnightblue" d="M594.84,-171.97C546.55,-163.93 492.27,-150.96 477.5,-132 463.14,-113.56 487.35,-93.5 508.51,-80.61"/>
<polygon fill="midnightblue" stroke="midnightblue" points="510.37,-83.58 517.28,-75.56 506.87,-77.52 510.37,-83.58"/>
</g>
<!-- Node9 -->
<g id="node9" class="node">
<title>Node9</title>
<g id="a_node9"><a xlink:title=" ">
<polygon fill="none" stroke="#bfbfbf" points="487,-112.5 487,-131.5 626,-131.5 626,-112.5 487,-112.5"/>
<text text-anchor="middle" x="556.5" y="-119.5" font-family="Helvetica,sans-Serif" font-size="10.00">cppitertools/itertools.hpp</text>
</a>
</g>
</g>
<!-- Node1&#45;&gt;Node9 -->
<g id="edge10" class="edge">
<title>Node1&#45;&gt;Node9</title>
<path fill="none" stroke="midnightblue" d="M648.82,-168.4C628.98,-158.64 602.74,-145.74 583.31,-136.18"/>
<polygon fill="midnightblue" stroke="midnightblue" points="584.62,-132.93 574.11,-131.66 581.54,-139.21 584.62,-132.93"/>
</g>
<!-- Node10 -->
<g id="node10" class="node">
<title>Node10</title>
<g id="a_node10"><a xlink:title=" ">
<polygon fill="none" stroke="#bfbfbf" points="644,-112.5 644,-131.5 711,-131.5 711,-112.5 644,-112.5"/>
<text text-anchor="middle" x="677.5" y="-119.5" font-family="Helvetica,sans-Serif" font-size="10.00">fmt/core.h</text>
</a>
</g>
</g>
<!-- Node1&#45;&gt;Node10 -->
<g id="edge11" class="edge">
<title>Node1&#45;&gt;Node10</title>
<path fill="none" stroke="midnightblue" d="M677.5,-168.4C677.5,-160.47 677.5,-150.46 677.5,-141.86"/>
<polygon fill="midnightblue" stroke="midnightblue" points="681,-141.66 677.5,-131.66 674,-141.66 681,-141.66"/>
</g>
<!-- Node11 -->
<g id="node11" class="node">
<title>Node11</title>
<g id="a_node11"><a xlink:title=" ">
<polygon fill="none" stroke="#bfbfbf" points="729.5,-112.5 729.5,-131.5 797.5,-131.5 797.5,-112.5 729.5,-112.5"/>
<text text-anchor="middle" x="763.5" y="-119.5" font-family="Helvetica,sans-Serif" font-size="10.00">filesystem</text>
</a>
</g>
</g>
<!-- Node1&#45;&gt;Node11 -->
<g id="edge12" class="edge">
<title>Node1&#45;&gt;Node11</title>
<path fill="none" stroke="midnightblue" d="M697.88,-168.4C711.41,-159.04 729.11,-146.79 742.72,-137.38"/>
<polygon fill="midnightblue" stroke="midnightblue" points="744.75,-140.23 750.99,-131.66 740.77,-134.47 744.75,-140.23"/>
</g>
<!-- Node12 -->
<g id="node12" class="node">
<title>Node12</title>
<g id="a_node12"><a xlink:title=" ">
<polygon fill="none" stroke="#bfbfbf" points="816,-112.5 816,-131.5 871,-131.5 871,-112.5 816,-112.5"/>
<text text-anchor="middle" x="843.5" y="-119.5" font-family="Helvetica,sans-Serif" font-size="10.00">fstream</text>
</a>
</g>
</g>
<!-- Node1&#45;&gt;Node12 -->
<g id="edge13" class="edge">
<title>Node1&#45;&gt;Node12</title>
<path fill="none" stroke="midnightblue" d="M716.84,-168.4C745.06,-158.28 782.71,-144.79 809.6,-135.15"/>
<polygon fill="midnightblue" stroke="midnightblue" points="811.11,-138.33 819.35,-131.66 808.75,-131.74 811.11,-138.33"/>
</g>
<!-- Node13 -->
<g id="node13" class="node">
<title>Node13</title>
<g id="a_node13"><a xlink:title=" ">
<polygon fill="none" stroke="#bfbfbf" points="889.5,-112.5 889.5,-131.5 945.5,-131.5 945.5,-112.5 889.5,-112.5"/>
<text text-anchor="middle" x="917.5" y="-119.5" font-family="Helvetica,sans-Serif" font-size="10.00">sstream</text>
</a>
</g>
</g>
<!-- Node1&#45;&gt;Node13 -->
<g id="edge14" class="edge">
<title>Node1&#45;&gt;Node13</title>
<path fill="none" stroke="midnightblue" d="M734.07,-168.47C778.85,-157.37 840.17,-142.17 879.31,-132.47"/>
<polygon fill="midnightblue" stroke="midnightblue" points="880.38,-135.81 889.25,-130 878.7,-129.01 880.38,-135.81"/>
</g>
<!-- Node14 -->
<g id="node14" class="node">
<title>Node14</title>
<g id="a_node14"><a xlink:href="abcg__exception_8hpp.html" target="_top" xlink:title="Header file of abcg::Exception and derived classes.">
<polygon fill="none" stroke="black" points="963.5,-112.5 963.5,-131.5 1077.5,-131.5 1077.5,-112.5 963.5,-112.5"/>
<text text-anchor="middle" x="1020.5" y="-119.5" font-family="Helvetica,sans-Serif" font-size="10.00">abcg_exception.hpp</text>
</a>
</g>
</g>
<!-- Node1&#45;&gt;Node14 -->
<g id="edge16" class="edge">
<title>Node1&#45;&gt;Node14</title>
<path fill="none" stroke="midnightblue" d="M758.35,-168.47C820.63,-157.67 905.28,-142.99 961.34,-133.26"/>
<polygon fill="midnightblue" stroke="midnightblue" points="962.21,-136.66 971.46,-131.51 961.01,-129.77 962.21,-136.66"/>
</g>
<!-- Node3 -->
<g id="node3" class="node">
<title>Node3</title>
<g id="a_node3"><a xlink:href="abcg__opengl__external_8hpp.html" target="_top" xlink:title="Header file for including OpenGL&#45;related third&#45;party dependencies.">
<polygon fill="none" stroke="black" points="0,-56.5 0,-75.5 145,-75.5 145,-56.5 0,-56.5"/>
<text text-anchor="middle" x="72.5" y="-63.5" font-family="Helvetica,sans-Serif" font-size="10.00">abcg_opengl_external.hpp</text>
</a>
</g>
</g>
<!-- Node2&#45;&gt;Node3 -->
<g id="edge2" class="edge">
<title>Node2&#45;&gt;Node3</title>
<path fill="none" stroke="midnightblue" d="M274.47,-112.44C232.69,-103.04 165.52,-87.93 120.23,-77.74"/>
<polygon fill="midnightblue" stroke="midnightblue" points="120.88,-74.3 110.35,-75.52 119.34,-81.13 120.88,-74.3"/>
</g>
<!-- Node4 -->
<g id="node4" class="node">
<title>Node4</title>
<g id="a_node4"><a xlink:href="abcg__shader_8hpp.html" target="_top" xlink:title="Declaration of helper functions for building shaders and programs.">
<polygon fill="none" stroke="black" points="163.5,-56.5 163.5,-75.5 261.5,-75.5 261.5,-56.5 163.5,-56.5"/>
<text text-anchor="middle" x="212.5" y="-63.5" font-family="Helvetica,sans-Serif" font-size="10.00">abcg_shader.hpp</text>
</a>
</g>
</g>
<!-- Node2&#45;&gt;Node4 -->
<g id="edge3" class="edge">
<title>Node2&#45;&gt;Node4</title>
<path fill="none" stroke="midnightblue" d="M296.43,-112.32C280.54,-103.74 255.99,-90.49 237.54,-80.52"/>
<polygon fill="midnightblue" stroke="midnightblue" points="238.99,-77.33 228.53,-75.65 235.66,-83.49 238.99,-77.33"/>
</g>
<!-- Node5 -->
<g id="node5" class="node">
<title>Node5</title>
<g id="a_node5"><a xlink:title=" ">
<polygon fill="none" stroke="#bfbfbf" points="389.5,-0.5 389.5,-19.5 433.5,-19.5 433.5,-0.5 389.5,-0.5"/>
<text text-anchor="middle" x="411.5" y="-7.5" font-family="Helvetica,sans-Serif" font-size="10.00">string</text>
</a>
</g>
</g>
<!-- Node2&#45;&gt;Node5 -->
<g id="edge5" class="edge">
<title>Node2&#45;&gt;Node5</title>
<path fill="none" stroke="midnightblue" d="M308.87,-112.16C304.01,-98.81 297.23,-73.22 308.5,-56 324.04,-32.25 355.18,-20.96 379.17,-15.64"/>
<polygon fill="midnightblue" stroke="midnightblue" points="380.14,-19.01 389.28,-13.65 378.79,-12.15 380.14,-19.01"/>
</g>
<!-- Node6 -->
<g id="node6" class="node">
<title>Node6</title>
<g id="a_node6"><a xlink:title=" ">
<polygon fill="none" stroke="#bfbfbf" points="318,-56.5 318,-75.5 391,-75.5 391,-56.5 318,-56.5"/>
<text text-anchor="middle" x="354.5" y="-63.5" font-family="Helvetica,sans-Serif" font-size="10.00">string_view</text>
</a>
</g>
</g>
<!-- Node2&#45;&gt;Node6 -->
<g id="edge6" class="edge">
<title>Node2&#45;&gt;Node6</title>
<path fill="none" stroke="midnightblue" d="M319.44,-112.08C325.43,-104.38 334.25,-93.03 341.55,-83.65"/>
<polygon fill="midnightblue" stroke="midnightblue" points="344.32,-85.79 347.69,-75.75 338.79,-81.5 344.32,-85.79"/>
</g>
<!-- Node2&#45;&gt;Node7 -->
<g id="edge7" class="edge">
<title>Node2&#45;&gt;Node7</title>
<path fill="none" stroke="midnightblue" d="M331.51,-112.44C351.09,-103.64 381.81,-89.81 404.23,-79.72"/>
<polygon fill="midnightblue" stroke="midnightblue" points="405.89,-82.81 413.57,-75.52 403.02,-76.43 405.89,-82.81"/>
</g>
<!-- Node4&#45;&gt;Node5 -->
<g id="edge4" class="edge">
<title>Node4&#45;&gt;Node5</title>
<path fill="none" stroke="midnightblue" d="M244.03,-56.44C281.1,-46.39 342.27,-29.79 379.52,-19.68"/>
<polygon fill="midnightblue" stroke="midnightblue" points="380.62,-23.01 389.36,-17.01 378.79,-16.25 380.62,-23.01"/>
</g>
<!-- Node8&#45;&gt;Node5 -->
<g id="edge9" class="edge">
<title>Node8&#45;&gt;Node5</title>
<path fill="none" stroke="midnightblue" d="M515.01,-56.44C494.86,-47.6 463.18,-33.69 440.17,-23.59"/>
<polygon fill="midnightblue" stroke="midnightblue" points="441.46,-20.33 430.9,-19.52 438.65,-26.74 441.46,-20.33"/>
</g>
<!-- Node14&#45;&gt;Node5 -->
<g id="edge19" class="edge">
<title>Node14&#45;&gt;Node5</title>
<path fill="none" stroke="midnightblue" d="M973.22,-112.46C854.19,-90.96 544.47,-35.02 443.7,-16.82"/>
<polygon fill="midnightblue" stroke="midnightblue" points="444.26,-13.36 433.8,-15.03 443.02,-20.25 444.26,-13.36"/>
</g>
<!-- Node15 -->
<g id="node15" class="node">
<title>Node15</title>
<g id="a_node15"><a xlink:title=" ">
<polygon fill="none" stroke="#bfbfbf" points="925,-56.5 925,-75.5 1018,-75.5 1018,-56.5 925,-56.5"/>
<text text-anchor="middle" x="971.5" y="-63.5" font-family="Helvetica,sans-Serif" font-size="10.00">source_location</text>
</a>
</g>
</g>
<!-- Node14&#45;&gt;Node15 -->
<g id="edge17" class="edge">
<title>Node14&#45;&gt;Node15</title>
<path fill="none" stroke="midnightblue" d="M1012.41,-112.08C1005.34,-104.3 994.91,-92.8 986.35,-83.37"/>
<polygon fill="midnightblue" stroke="midnightblue" points="988.75,-80.8 979.44,-75.75 983.57,-85.51 988.75,-80.8"/>
</g>
<!-- Node16 -->
<g id="node16" class="node">
<title>Node16</title>
<g id="a_node16"><a xlink:title=" ">
<polygon fill="none" stroke="#bfbfbf" points="1036,-56.5 1036,-75.5 1101,-75.5 1101,-56.5 1036,-56.5"/>
<text text-anchor="middle" x="1068.5" y="-63.5" font-family="Helvetica,sans-Serif" font-size="10.00">stdexcept</text>
</a>
</g>
</g>
<!-- Node14&#45;&gt;Node16 -->
<g id="edge18" class="edge">
<title>Node14&#45;&gt;Node16</title>
<path fill="none" stroke="midnightblue" d="M1028.43,-112.08C1035.35,-104.3 1045.57,-92.8 1053.95,-83.37"/>
<polygon fill="midnightblue" stroke="midnightblue" points="1056.69,-85.55 1060.72,-75.75 1051.46,-80.9 1056.69,-85.55"/>
</g>
</g>
</svg>
