<?xml version="1.0" encoding="UTF-8" standalone="no"?>
<!DOCTYPE svg PUBLIC "-//W3C//DTD SVG 1.1//EN"
 "http://www.w3.org/Graphics/SVG/1.1/DTD/svg11.dtd">
<!-- Generated by graphviz version 2.43.0 (0)
 -->
<!-- Title: /home/harlen/dev/abcg/abcg/abcgVulkanWindow.cpp Pages: 1 -->
<svg width="1441pt" height="487pt"
 viewBox="0.00 0.00 1441.27 487.00" xmlns="http://www.w3.org/2000/svg" xmlns:xlink="http://www.w3.org/1999/xlink">
<g id="graph0" class="graph" transform="scale(1 1) rotate(0) translate(4 483)">
<title>/home/harlen/dev/abcg/abcg/abcgVulkanWindow.cpp</title>
<!-- Node1 -->
<g id="node1" class="node">
<title>Node1</title>
<g id="a_node1"><a xlink:title="Definition of abcg::VulkanWindow members.">
<polygon fill="#bfbfbf" stroke="black" points="857.5,-448.5 857.5,-478.5 1017.5,-478.5 1017.5,-448.5 857.5,-448.5"/>
<text text-anchor="start" x="865.5" y="-466.5" font-family="Helvetica,sans-Serif" font-size="10.00">/home/harlen/dev/abcg</text>
<text text-anchor="middle" x="937.5" y="-455.5" font-family="Helvetica,sans-Serif" font-size="10.00">/abcg/abcgVulkanWindow.cpp</text>
</a>
</g>
</g>
<!-- Node2 -->
<g id="node2" class="node">
<title>Node2</title>
<g id="a_node2"><a xlink:href="abcgVulkanWindow_8hpp.html" target="_top" xlink:title="Header file of abcg::VulkanWindow.">
<polygon fill="none" stroke="black" points="353,-392.5 353,-411.5 484,-411.5 484,-392.5 353,-392.5"/>
<text text-anchor="middle" x="418.5" y="-399.5" font-family="Helvetica,sans-Serif" font-size="10.00">abcgVulkanWindow.hpp</text>
</a>
</g>
</g>
<!-- Node1&#45;&gt;Node2 -->
<g id="edge1" class="edge">
<title>Node1&#45;&gt;Node2</title>
<path fill="none" stroke="midnightblue" d="M857.26,-453.3C758.19,-441.94 590.96,-422.77 494.09,-411.67"/>
<polygon fill="midnightblue" stroke="midnightblue" points="494.4,-408.18 484.07,-410.52 493.61,-415.13 494.4,-408.18"/>
</g>
<!-- Node11 -->
<g id="node11" class="node">
<title>Node11</title>
<g id="a_node11"><a xlink:href="abcgVulkanInstance_8hpp.html" target="_top" xlink:title="Header file of abcg::VulkanInstance.">
<polygon fill="none" stroke="black" points="446.5,-112.5 446.5,-131.5 580.5,-131.5 580.5,-112.5 446.5,-112.5"/>
<text text-anchor="middle" x="513.5" y="-119.5" font-family="Helvetica,sans-Serif" font-size="10.00">abcgVulkanInstance.hpp</text>
</a>
</g>
</g>
<!-- Node1&#45;&gt;Node11 -->
<g id="edge44" class="edge">
<title>Node1&#45;&gt;Node11</title>
<path fill="none" stroke="midnightblue" d="M1017.74,-460.04C1150.13,-455.13 1402.48,-441.94 1429.5,-412 1435.46,-405.4 1432.67,-400.31 1429.5,-392 1405.72,-329.65 1387.54,-312.93 1329.5,-280 1202.87,-208.17 768.7,-152.01 590.63,-131.46"/>
<polygon fill="midnightblue" stroke="midnightblue" points="590.89,-127.97 580.56,-130.31 590.09,-134.93 590.89,-127.97"/>
</g>
<!-- Node17 -->
<g id="node17" class="node">
<title>Node17</title>
<g id="a_node17"><a xlink:href="abcgWindow_8hpp.html" target="_top" xlink:title="Header file of abcg::Window.">
<polygon fill="none" stroke="black" points="485,-336.5 485,-355.5 584,-355.5 584,-336.5 485,-336.5"/>
<text text-anchor="middle" x="534.5" y="-343.5" font-family="Helvetica,sans-Serif" font-size="10.00">abcgWindow.hpp</text>
</a>
</g>
</g>
<!-- Node1&#45;&gt;Node17 -->
<g id="edge45" class="edge">
<title>Node1&#45;&gt;Node17</title>
<path fill="none" stroke="midnightblue" d="M857.46,-458.15C745.32,-451.23 552.69,-435.99 531.5,-412 520.53,-399.59 523.11,-380.07 527.32,-365.66"/>
<polygon fill="midnightblue" stroke="midnightblue" points="530.75,-366.43 530.66,-355.84 524.13,-364.18 530.75,-366.43"/>
</g>
<!-- Node21 -->
<g id="node21" class="node">
<title>Node21</title>
<g id="a_node21"><a xlink:title=" ">
<polygon fill="none" stroke="#bfbfbf" points="698.5,-392.5 698.5,-411.5 780.5,-411.5 780.5,-392.5 698.5,-392.5"/>
<text text-anchor="middle" x="739.5" y="-399.5" font-family="Helvetica,sans-Serif" font-size="10.00">SDL_vulkan.h</text>
</a>
</g>
</g>
<!-- Node1&#45;&gt;Node21 -->
<g id="edge27" class="edge">
<title>Node1&#45;&gt;Node21</title>
<path fill="none" stroke="midnightblue" d="M890.83,-448.47C856.37,-438.12 810.04,-424.2 777.76,-414.5"/>
<polygon fill="midnightblue" stroke="midnightblue" points="778.39,-411.03 767.81,-411.51 776.38,-417.74 778.39,-411.03"/>
</g>
<!-- Node22 -->
<g id="node22" class="node">
<title>Node22</title>
<g id="a_node22"><a xlink:title=" ">
<polygon fill="none" stroke="#bfbfbf" points="798.5,-392.5 798.5,-411.5 862.5,-411.5 862.5,-392.5 798.5,-392.5"/>
<text text-anchor="middle" x="830.5" y="-399.5" font-family="Helvetica,sans-Serif" font-size="10.00">algorithm</text>
</a>
</g>
</g>
<!-- Node1&#45;&gt;Node22 -->
<g id="edge28" class="edge">
<title>Node1&#45;&gt;Node22</title>
<path fill="none" stroke="midnightblue" d="M912.14,-448.4C894.83,-438.77 872.02,-426.09 854.92,-416.58"/>
<polygon fill="midnightblue" stroke="midnightblue" points="856.51,-413.46 846.07,-411.66 853.11,-419.58 856.51,-413.46"/>
</g>
<!-- Node23 -->
<g id="node23" class="node">
<title>Node23</title>
<g id="a_node23"><a xlink:title=" ">
<polygon fill="none" stroke="#bfbfbf" points="881,-392.5 881,-411.5 928,-411.5 928,-392.5 881,-392.5"/>
<text text-anchor="middle" x="904.5" y="-399.5" font-family="Helvetica,sans-Serif" font-size="10.00">cmath</text>
</a>
</g>
</g>
<!-- Node1&#45;&gt;Node23 -->
<g id="edge29" class="edge">
<title>Node1&#45;&gt;Node23</title>
<path fill="none" stroke="midnightblue" d="M929.68,-448.4C925.03,-440.02 919.1,-429.33 914.16,-420.42"/>
<polygon fill="midnightblue" stroke="midnightblue" points="917.21,-418.71 909.3,-411.66 911.09,-422.1 917.21,-418.71"/>
</g>
<!-- Node24 -->
<g id="node24" class="node">
<title>Node24</title>
<g id="a_node24"><a xlink:title=" ">
<polygon fill="none" stroke="#bfbfbf" points="946.5,-392.5 946.5,-411.5 994.5,-411.5 994.5,-392.5 946.5,-392.5"/>
<text text-anchor="middle" x="970.5" y="-399.5" font-family="Helvetica,sans-Serif" font-size="10.00">gsl/gsl</text>
</a>
</g>
</g>
<!-- Node1&#45;&gt;Node24 -->
<g id="edge30" class="edge">
<title>Node1&#45;&gt;Node24</title>
<path fill="none" stroke="midnightblue" d="M945.32,-448.4C949.97,-440.02 955.9,-429.33 960.84,-420.42"/>
<polygon fill="midnightblue" stroke="midnightblue" points="963.91,-422.1 965.7,-411.66 957.79,-418.71 963.91,-422.1"/>
</g>
<!-- Node25 -->
<g id="node25" class="node">
<title>Node25</title>
<g id="a_node25"><a xlink:title=" ">
<polygon fill="none" stroke="#bfbfbf" points="1012.5,-392.5 1012.5,-411.5 1112.5,-411.5 1112.5,-392.5 1012.5,-392.5"/>
<text text-anchor="middle" x="1062.5" y="-399.5" font-family="Helvetica,sans-Serif" font-size="10.00">imgui_impl_sdl.h</text>
</a>
</g>
</g>
<!-- Node1&#45;&gt;Node25 -->
<g id="edge31" class="edge">
<title>Node1&#45;&gt;Node25</title>
<path fill="none" stroke="midnightblue" d="M967.12,-448.4C987.72,-438.59 1014.98,-425.62 1035.08,-416.05"/>
<polygon fill="midnightblue" stroke="midnightblue" points="1036.79,-419.12 1044.31,-411.66 1033.78,-412.8 1036.79,-419.12"/>
</g>
<!-- Node26 -->
<g id="node26" class="node">
<title>Node26</title>
<g id="a_node26"><a xlink:title=" ">
<polygon fill="none" stroke="#bfbfbf" points="1130.5,-392.5 1130.5,-411.5 1248.5,-411.5 1248.5,-392.5 1130.5,-392.5"/>
<text text-anchor="middle" x="1189.5" y="-399.5" font-family="Helvetica,sans-Serif" font-size="10.00">imgui_impl_vulkan.h</text>
</a>
</g>
</g>
<!-- Node1&#45;&gt;Node26 -->
<g id="edge32" class="edge">
<title>Node1&#45;&gt;Node26</title>
<path fill="none" stroke="midnightblue" d="M996.9,-448.47C1041.8,-437.87 1102.53,-423.53 1143.71,-413.81"/>
<polygon fill="midnightblue" stroke="midnightblue" points="1144.54,-417.21 1153.47,-411.51 1142.94,-410.4 1144.54,-417.21"/>
</g>
<!-- Node27 -->
<g id="node27" class="node">
<title>Node27</title>
<g id="a_node27"><a xlink:href="abcgEmbeddedFonts_8hpp.html" target="_top" xlink:title=" ">
<polygon fill="none" stroke="black" points="541,-392.5 541,-411.5 680,-411.5 680,-392.5 541,-392.5"/>
<text text-anchor="middle" x="610.5" y="-399.5" font-family="Helvetica,sans-Serif" font-size="10.00">abcgEmbeddedFonts.hpp</text>
</a>
</g>
</g>
<!-- Node1&#45;&gt;Node27 -->
<g id="edge33" class="edge">
<title>Node1&#45;&gt;Node27</title>
<path fill="none" stroke="midnightblue" d="M860.42,-448.47C801.17,-437.69 720.68,-423.05 667.23,-413.32"/>
<polygon fill="midnightblue" stroke="midnightblue" points="667.71,-409.85 657.25,-411.51 666.46,-416.74 667.71,-409.85"/>
</g>
<!-- Node28 -->
<g id="node28" class="node">
<title>Node28</title>
<g id="a_node28"><a xlink:href="abcgException_8hpp.html" target="_top" xlink:title="Header file of abcg::Exception and derived classes.">
<polygon fill="none" stroke="black" points="1173,-336.5 1173,-355.5 1282,-355.5 1282,-336.5 1173,-336.5"/>
<text text-anchor="middle" x="1227.5" y="-343.5" font-family="Helvetica,sans-Serif" font-size="10.00">abcgException.hpp</text>
</a>
</g>
</g>
<!-- Node1&#45;&gt;Node28 -->
<g id="edge35" class="edge">
<title>Node1&#45;&gt;Node28</title>
<path fill="none" stroke="midnightblue" d="M1017.86,-461.29C1102.38,-458.12 1227.26,-447.38 1257.5,-412 1269.78,-397.62 1256.87,-377.38 1244.37,-363.32"/>
<polygon fill="midnightblue" stroke="midnightblue" points="1246.69,-360.67 1237.25,-355.84 1241.62,-365.5 1246.69,-360.67"/>
</g>
<!-- Node31 -->
<g id="node31" class="node">
<title>Node31</title>
<g id="a_node31"><a xlink:href="abcgVulkanError_8hpp.html" target="_top" xlink:title="Header file of abcg::VulkanError and derived classes.">
<polygon fill="none" stroke="black" points="1304.5,-392.5 1304.5,-411.5 1420.5,-411.5 1420.5,-392.5 1304.5,-392.5"/>
<text text-anchor="middle" x="1362.5" y="-399.5" font-family="Helvetica,sans-Serif" font-size="10.00">abcgVulkanError.hpp</text>
</a>
</g>
</g>
<!-- Node1&#45;&gt;Node31 -->
<g id="edge39" class="edge">
<title>Node1&#45;&gt;Node31</title>
<path fill="none" stroke="midnightblue" d="M1017.69,-451.27C1097.53,-440.1 1218.75,-423.13 1294.15,-412.57"/>
<polygon fill="midnightblue" stroke="midnightblue" points="1295.06,-415.98 1304.48,-411.12 1294.09,-409.04 1295.06,-415.98"/>
</g>
<!-- Node3 -->
<g id="node3" class="node">
<title>Node3</title>
<g id="a_node3"><a xlink:title=" ">
<polygon fill="none" stroke="#bfbfbf" points="640.5,-336.5 640.5,-355.5 682.5,-355.5 682.5,-336.5 640.5,-336.5"/>
<text text-anchor="middle" x="661.5" y="-343.5" font-family="Helvetica,sans-Serif" font-size="10.00">array</text>
</a>
</g>
</g>
<!-- Node2&#45;&gt;Node3 -->
<g id="edge2" class="edge">
<title>Node2&#45;&gt;Node3</title>
<path fill="none" stroke="midnightblue" d="M460.44,-392.42C502.52,-383.7 569.15,-369.57 626.5,-356 627.77,-355.7 629.07,-355.39 630.37,-355.07"/>
<polygon fill="midnightblue" stroke="midnightblue" points="631.58,-358.38 640.43,-352.56 629.88,-351.58 631.58,-358.38"/>
</g>
<!-- Node4 -->
<g id="node4" class="node">
<title>Node4</title>
<g id="a_node4"><a xlink:title=" ">
<polygon fill="none" stroke="#bfbfbf" points="710.5,-280.5 710.5,-299.5 754.5,-299.5 754.5,-280.5 710.5,-280.5"/>
<text text-anchor="middle" x="732.5" y="-287.5" font-family="Helvetica,sans-Serif" font-size="10.00">string</text>
</a>
</g>
</g>
<!-- Node2&#45;&gt;Node4 -->
<g id="edge3" class="edge">
<title>Node2&#45;&gt;Node4</title>
<path fill="none" stroke="midnightblue" d="M462.23,-392.5C497.93,-384.89 549.34,-372.42 592.5,-356 610.71,-349.07 613.93,-344.41 631.5,-336 655.31,-324.6 682.68,-312.47 702.92,-303.67"/>
<polygon fill="midnightblue" stroke="midnightblue" points="704.44,-306.83 712.23,-299.64 701.66,-300.4 704.44,-306.83"/>
</g>
<!-- Node5 -->
<g id="node5" class="node">
<title>Node5</title>
<g id="a_node5"><a xlink:href="abcgVulkanDevice_8hpp.html" target="_top" xlink:title="Header file of abcg::VulkanDevice.">
<polygon fill="none" stroke="black" points="263,-224.5 263,-243.5 390,-243.5 390,-224.5 263,-224.5"/>
<text text-anchor="middle" x="326.5" y="-231.5" font-family="Helvetica,sans-Serif" font-size="10.00">abcgVulkanDevice.hpp</text>
</a>
</g>
</g>
<!-- Node2&#45;&gt;Node5 -->
<g id="edge4" class="edge">
<title>Node2&#45;&gt;Node5</title>
<path fill="none" stroke="midnightblue" d="M413.55,-392.08C398.95,-365.72 355.81,-287.88 336.29,-252.66"/>
<polygon fill="midnightblue" stroke="midnightblue" points="339.16,-250.62 331.25,-243.57 333.03,-254.01 339.16,-250.62"/>
</g>
<!-- Node9 -->
<g id="node9" class="node">
<title>Node9</title>
<g id="a_node9"><a xlink:href="abcgVulkanPhysicalDevice_8hpp.html" target="_top" xlink:title="Header file of abcg::VulkanPhysicalDevice.">
<polygon fill="none" stroke="black" points="299,-168.5 299,-187.5 466,-187.5 466,-168.5 299,-168.5"/>
<text text-anchor="middle" x="382.5" y="-175.5" font-family="Helvetica,sans-Serif" font-size="10.00">abcgVulkanPhysicalDevice.hpp</text>
</a>
</g>
</g>
<!-- Node2&#45;&gt;Node9 -->
<g id="edge14" class="edge">
<title>Node2&#45;&gt;Node9</title>
<path fill="none" stroke="midnightblue" d="M418.22,-392.41C417.25,-366.59 413.19,-287.58 398.5,-224 396.42,-215.01 393.13,-205.34 390.07,-197.27"/>
<polygon fill="midnightblue" stroke="midnightblue" points="393.25,-195.79 386.3,-187.79 386.74,-198.37 393.25,-195.79"/>
</g>
<!-- Node2&#45;&gt;Node11 -->
<g id="edge13" class="edge">
<title>Node2&#45;&gt;Node11</title>
<path fill="none" stroke="midnightblue" d="M421.45,-392.38C434.69,-353.62 488.85,-195.13 507.31,-141.13"/>
<polygon fill="midnightblue" stroke="midnightblue" points="510.67,-142.12 510.59,-131.52 504.04,-139.86 510.67,-142.12"/>
</g>
<!-- Node12 -->
<g id="node12" class="node">
<title>Node12</title>
<g id="a_node12"><a xlink:href="abcgVulkanSwapchain_8hpp.html" target="_top" xlink:title="Header file of abcg::VulkanSwapchain.">
<polygon fill="none" stroke="black" points="167.5,-336.5 167.5,-355.5 313.5,-355.5 313.5,-336.5 167.5,-336.5"/>
<text text-anchor="middle" x="240.5" y="-343.5" font-family="Helvetica,sans-Serif" font-size="10.00">abcgVulkanSwapchain.hpp</text>
</a>
</g>
</g>
<!-- Node2&#45;&gt;Node12 -->
<g id="edge15" class="edge">
<title>Node2&#45;&gt;Node12</title>
<path fill="none" stroke="midnightblue" d="M390.3,-392.44C360.09,-383.28 311.99,-368.69 278.47,-358.52"/>
<polygon fill="midnightblue" stroke="midnightblue" points="279.16,-355.07 268.57,-355.52 277.13,-361.77 279.16,-355.07"/>
</g>
<!-- Node2&#45;&gt;Node17 -->
<g id="edge22" class="edge">
<title>Node2&#45;&gt;Node17</title>
<path fill="none" stroke="midnightblue" d="M436.88,-392.44C455.72,-383.68 485.23,-369.94 506.88,-359.86"/>
<polygon fill="midnightblue" stroke="midnightblue" points="508.62,-362.91 516.21,-355.52 505.66,-356.56 508.62,-362.91"/>
</g>
<!-- Node6 -->
<g id="node6" class="node">
<title>Node6</title>
<g id="a_node6"><a xlink:href="abcgVulkanExternal_8hpp.html" target="_top" xlink:title="Header file for including Vulkan&#45;related dependencies.">
<polygon fill="none" stroke="black" points="446.5,-56.5 446.5,-75.5 580.5,-75.5 580.5,-56.5 446.5,-56.5"/>
<text text-anchor="middle" x="513.5" y="-63.5" font-family="Helvetica,sans-Serif" font-size="10.00">abcgVulkanExternal.hpp</text>
</a>
</g>
</g>
<!-- Node5&#45;&gt;Node6 -->
<g id="edge5" class="edge">
<title>Node5&#45;&gt;Node6</title>
<path fill="none" stroke="midnightblue" d="M316.06,-224.24C307.08,-215.97 294.75,-202.66 289.5,-188 276.89,-152.81 295.02,-133.63 325.5,-112 357.65,-89.19 399.87,-77.83 436.16,-72.23"/>
<polygon fill="midnightblue" stroke="midnightblue" points="436.82,-75.67 446.22,-70.79 435.83,-68.74 436.82,-75.67"/>
</g>
<!-- Node5&#45;&gt;Node9 -->
<g id="edge8" class="edge">
<title>Node5&#45;&gt;Node9</title>
<path fill="none" stroke="midnightblue" d="M335.5,-224.32C343.69,-216.42 356.01,-204.55 365.97,-194.94"/>
<polygon fill="midnightblue" stroke="midnightblue" points="368.57,-197.29 373.34,-187.83 363.71,-192.26 368.57,-197.29"/>
</g>
<!-- Node7 -->
<g id="node7" class="node">
<title>Node7</title>
<g id="a_node7"><a xlink:title=" ">
<polygon fill="none" stroke="#bfbfbf" points="888,-0.5 888,-19.5 935,-19.5 935,-0.5 888,-0.5"/>
<text text-anchor="middle" x="911.5" y="-7.5" font-family="Helvetica,sans-Serif" font-size="10.00">volk.h</text>
</a>
</g>
</g>
<!-- Node6&#45;&gt;Node7 -->
<g id="edge6" class="edge">
<title>Node6&#45;&gt;Node7</title>
<path fill="none" stroke="midnightblue" d="M576.56,-56.44C661.87,-44.87 811.01,-24.63 877.65,-15.59"/>
<polygon fill="midnightblue" stroke="midnightblue" points="878.18,-19.05 887.62,-14.24 877.24,-12.12 878.18,-19.05"/>
</g>
<!-- Node8 -->
<g id="node8" class="node">
<title>Node8</title>
<g id="a_node8"><a xlink:title=" ">
<polygon fill="none" stroke="#bfbfbf" points="1152,-0.5 1152,-19.5 1257,-19.5 1257,-0.5 1152,-0.5"/>
<text text-anchor="middle" x="1204.5" y="-7.5" font-family="Helvetica,sans-Serif" font-size="10.00">vulkan/vulkan.hpp</text>
</a>
</g>
</g>
<!-- Node6&#45;&gt;Node8 -->
<g id="edge7" class="edge">
<title>Node6&#45;&gt;Node8</title>
<path fill="none" stroke="midnightblue" d="M580.7,-59.75C714.27,-49.31 1011.44,-26.09 1141.5,-15.92"/>
<polygon fill="midnightblue" stroke="midnightblue" points="1142,-19.4 1151.69,-15.13 1141.45,-12.42 1142,-19.4"/>
</g>
<!-- Node9&#45;&gt;Node6 -->
<g id="edge10" class="edge">
<title>Node9&#45;&gt;Node6</title>
<path fill="none" stroke="midnightblue" d="M388.48,-168.2C397.82,-154.89 416.95,-129.36 437.5,-112 452.34,-99.46 471.11,-88.31 486.28,-80.25"/>
<polygon fill="midnightblue" stroke="midnightblue" points="487.92,-83.34 495.19,-75.64 484.7,-77.12 487.92,-83.34"/>
</g>
<!-- Node10 -->
<g id="node10" class="node">
<title>Node10</title>
<g id="a_node10"><a xlink:title=" ">
<polygon fill="none" stroke="#bfbfbf" points="334.5,-112.5 334.5,-131.5 390.5,-131.5 390.5,-112.5 334.5,-112.5"/>
<text text-anchor="middle" x="362.5" y="-119.5" font-family="Helvetica,sans-Serif" font-size="10.00">optional</text>
</a>
</g>
</g>
<!-- Node9&#45;&gt;Node10 -->
<g id="edge9" class="edge">
<title>Node9&#45;&gt;Node10</title>
<path fill="none" stroke="midnightblue" d="M379.2,-168.08C376.52,-160.85 372.65,-150.41 369.31,-141.4"/>
<polygon fill="midnightblue" stroke="midnightblue" points="372.5,-139.91 365.74,-131.75 365.93,-142.34 372.5,-139.91"/>
</g>
<!-- Node9&#45;&gt;Node11 -->
<g id="edge11" class="edge">
<title>Node9&#45;&gt;Node11</title>
<path fill="none" stroke="midnightblue" d="M403.26,-168.44C424.82,-159.56 458.76,-145.56 483.29,-135.45"/>
<polygon fill="midnightblue" stroke="midnightblue" points="484.93,-138.56 492.84,-131.52 482.26,-132.09 484.93,-138.56"/>
</g>
<!-- Node11&#45;&gt;Node6 -->
<g id="edge12" class="edge">
<title>Node11&#45;&gt;Node6</title>
<path fill="none" stroke="midnightblue" d="M513.5,-112.08C513.5,-105.01 513.5,-94.86 513.5,-85.99"/>
<polygon fill="midnightblue" stroke="midnightblue" points="517,-85.75 513.5,-75.75 510,-85.75 517,-85.75"/>
</g>
<!-- Node12&#45;&gt;Node5 -->
<g id="edge18" class="edge">
<title>Node12&#45;&gt;Node5</title>
<path fill="none" stroke="midnightblue" d="M262.74,-336.39C278.7,-329.07 299.44,-317.03 311.5,-300 321.02,-286.56 324.59,-268 325.89,-254.15"/>
<polygon fill="midnightblue" stroke="midnightblue" points="329.4,-254.04 326.52,-243.84 322.41,-253.61 329.4,-254.04"/>
</g>
<!-- Node13 -->
<g id="node13" class="node">
<title>Node13</title>
<g id="a_node13"><a xlink:title=" ">
<polygon fill="none" stroke="#bfbfbf" points="0,-280.5 0,-299.5 65,-299.5 65,-280.5 0,-280.5"/>
<text text-anchor="middle" x="32.5" y="-287.5" font-family="Helvetica,sans-Serif" font-size="10.00">functional</text>
</a>
</g>
</g>
<!-- Node12&#45;&gt;Node13 -->
<g id="edge16" class="edge">
<title>Node12&#45;&gt;Node13</title>
<path fill="none" stroke="midnightblue" d="M207.54,-336.44C171.71,-327.14 114.34,-312.25 75.11,-302.06"/>
<polygon fill="midnightblue" stroke="midnightblue" points="75.86,-298.64 65.3,-299.52 74.1,-305.42 75.86,-298.64"/>
</g>
<!-- Node14 -->
<g id="node14" class="node">
<title>Node14</title>
<g id="a_node14"><a xlink:title=" ">
<polygon fill="none" stroke="#bfbfbf" points="83,-280.5 83,-299.5 160,-299.5 160,-280.5 83,-280.5"/>
<text text-anchor="middle" x="121.5" y="-287.5" font-family="Helvetica,sans-Serif" font-size="10.00">glm/fwd.hpp</text>
</a>
</g>
</g>
<!-- Node12&#45;&gt;Node14 -->
<g id="edge17" class="edge">
<title>Node12&#45;&gt;Node14</title>
<path fill="none" stroke="midnightblue" d="M221.64,-336.44C202.23,-327.64 171.77,-313.81 149.54,-303.72"/>
<polygon fill="midnightblue" stroke="midnightblue" points="150.82,-300.46 140.27,-299.52 147.93,-306.84 150.82,-300.46"/>
</g>
<!-- Node15 -->
<g id="node15" class="node">
<title>Node15</title>
<g id="a_node15"><a xlink:href="abcgVulkanImage_8hpp.html" target="_top" xlink:title="Header file of abcg::VulkanImage.">
<polygon fill="none" stroke="black" points="178.5,-280.5 178.5,-299.5 302.5,-299.5 302.5,-280.5 178.5,-280.5"/>
<text text-anchor="middle" x="240.5" y="-287.5" font-family="Helvetica,sans-Serif" font-size="10.00">abcgVulkanImage.hpp</text>
</a>
</g>
</g>
<!-- Node12&#45;&gt;Node15 -->
<g id="edge19" class="edge">
<title>Node12&#45;&gt;Node15</title>
<path fill="none" stroke="midnightblue" d="M240.5,-336.08C240.5,-329.01 240.5,-318.86 240.5,-309.99"/>
<polygon fill="midnightblue" stroke="midnightblue" points="244,-309.75 240.5,-299.75 237,-309.75 244,-309.75"/>
</g>
<!-- Node15&#45;&gt;Node5 -->
<g id="edge20" class="edge">
<title>Node15&#45;&gt;Node5</title>
<path fill="none" stroke="midnightblue" d="M254.32,-280.32C267.73,-271.9 288.32,-258.97 304.09,-249.07"/>
<polygon fill="midnightblue" stroke="midnightblue" points="306.11,-251.94 312.72,-243.65 302.39,-246.01 306.11,-251.94"/>
</g>
<!-- Node16 -->
<g id="node16" class="node">
<title>Node16</title>
<g id="a_node16"><a xlink:title=" ">
<polygon fill="none" stroke="#bfbfbf" points="170.5,-224.5 170.5,-243.5 244.5,-243.5 244.5,-224.5 170.5,-224.5"/>
<text text-anchor="middle" x="207.5" y="-231.5" font-family="Helvetica,sans-Serif" font-size="10.00">gsl/pointers</text>
</a>
</g>
</g>
<!-- Node15&#45;&gt;Node16 -->
<g id="edge21" class="edge">
<title>Node15&#45;&gt;Node16</title>
<path fill="none" stroke="midnightblue" d="M235.05,-280.08C230.49,-272.61 223.83,-261.72 218.21,-252.52"/>
<polygon fill="midnightblue" stroke="midnightblue" points="221.05,-250.46 212.85,-243.75 215.08,-254.11 221.05,-250.46"/>
</g>
<!-- Node17&#45;&gt;Node4 -->
<g id="edge23" class="edge">
<title>Node17&#45;&gt;Node4</title>
<path fill="none" stroke="midnightblue" d="M566.88,-336.47C598.59,-328.08 648.51,-314.75 700.73,-300.18"/>
<polygon fill="midnightblue" stroke="midnightblue" points="701.81,-303.51 710.5,-297.44 699.93,-296.77 701.81,-303.51"/>
</g>
<!-- Node18 -->
<g id="node18" class="node">
<title>Node18</title>
<g id="a_node18"><a xlink:href="abcgExternal_8hpp.html" target="_top" xlink:title="Header file for including third&#45;party dependencies.">
<polygon fill="none" stroke="black" points="485,-280.5 485,-299.5 586,-299.5 586,-280.5 485,-280.5"/>
<text text-anchor="middle" x="535.5" y="-287.5" font-family="Helvetica,sans-Serif" font-size="10.00">abcgExternal.hpp</text>
</a>
</g>
</g>
<!-- Node17&#45;&gt;Node18 -->
<g id="edge24" class="edge">
<title>Node17&#45;&gt;Node18</title>
<path fill="none" stroke="midnightblue" d="M534.67,-336.08C534.8,-329.01 534.98,-318.86 535.15,-309.99"/>
<polygon fill="midnightblue" stroke="midnightblue" points="538.65,-309.81 535.34,-299.75 531.65,-309.68 538.65,-309.81"/>
</g>
<!-- Node19 -->
<g id="node19" class="node">
<title>Node19</title>
<g id="a_node19"><a xlink:href="abcgTimer_8hpp.html" target="_top" xlink:title="Header file of abcg::Timer.">
<polygon fill="none" stroke="black" points="604,-280.5 604,-299.5 693,-299.5 693,-280.5 604,-280.5"/>
<text text-anchor="middle" x="648.5" y="-287.5" font-family="Helvetica,sans-Serif" font-size="10.00">abcgTimer.hpp</text>
</a>
</g>
</g>
<!-- Node17&#45;&gt;Node19 -->
<g id="edge25" class="edge">
<title>Node17&#45;&gt;Node19</title>
<path fill="none" stroke="midnightblue" d="M552.56,-336.44C571.07,-327.68 600.08,-313.94 621.36,-303.86"/>
<polygon fill="midnightblue" stroke="midnightblue" points="622.98,-306.96 630.52,-299.52 619.99,-300.63 622.98,-306.96"/>
</g>
<!-- Node20 -->
<g id="node20" class="node">
<title>Node20</title>
<g id="a_node20"><a xlink:title=" ">
<polygon fill="none" stroke="#bfbfbf" points="623.5,-224.5 623.5,-243.5 673.5,-243.5 673.5,-224.5 623.5,-224.5"/>
<text text-anchor="middle" x="648.5" y="-231.5" font-family="Helvetica,sans-Serif" font-size="10.00">chrono</text>
</a>
</g>
</g>
<!-- Node19&#45;&gt;Node20 -->
<g id="edge26" class="edge">
<title>Node19&#45;&gt;Node20</title>
<path fill="none" stroke="midnightblue" d="M648.5,-280.08C648.5,-273.01 648.5,-262.86 648.5,-253.99"/>
<polygon fill="midnightblue" stroke="midnightblue" points="652,-253.75 648.5,-243.75 645,-253.75 652,-253.75"/>
</g>
<!-- Node27&#45;&gt;Node3 -->
<g id="edge34" class="edge">
<title>Node27&#45;&gt;Node3</title>
<path fill="none" stroke="midnightblue" d="M618.92,-392.08C626.35,-384.22 637.35,-372.57 646.31,-363.08"/>
<polygon fill="midnightblue" stroke="midnightblue" points="648.91,-365.42 653.24,-355.75 643.82,-360.62 648.91,-365.42"/>
</g>
<!-- Node28&#45;&gt;Node4 -->
<g id="edge38" class="edge">
<title>Node28&#45;&gt;Node4</title>
<path fill="none" stroke="midnightblue" d="M1172.64,-339.01C1069.06,-327.72 847.7,-303.57 764.77,-294.52"/>
<polygon fill="midnightblue" stroke="midnightblue" points="765,-291.02 754.68,-293.42 764.24,-297.98 765,-291.02"/>
</g>
<!-- Node29 -->
<g id="node29" class="node">
<title>Node29</title>
<g id="a_node29"><a xlink:title=" ">
<polygon fill="none" stroke="#bfbfbf" points="1227,-280.5 1227,-299.5 1320,-299.5 1320,-280.5 1227,-280.5"/>
<text text-anchor="middle" x="1273.5" y="-287.5" font-family="Helvetica,sans-Serif" font-size="10.00">source_location</text>
</a>
</g>
</g>
<!-- Node28&#45;&gt;Node29 -->
<g id="edge36" class="edge">
<title>Node28&#45;&gt;Node29</title>
<path fill="none" stroke="midnightblue" d="M1235.1,-336.08C1241.73,-328.3 1251.52,-316.8 1259.56,-307.37"/>
<polygon fill="midnightblue" stroke="midnightblue" points="1262.23,-309.63 1266.05,-299.75 1256.9,-305.09 1262.23,-309.63"/>
</g>
<!-- Node30 -->
<g id="node30" class="node">
<title>Node30</title>
<g id="a_node30"><a xlink:title=" ">
<polygon fill="none" stroke="#bfbfbf" points="1144,-280.5 1144,-299.5 1209,-299.5 1209,-280.5 1144,-280.5"/>
<text text-anchor="middle" x="1176.5" y="-287.5" font-family="Helvetica,sans-Serif" font-size="10.00">stdexcept</text>
</a>
</g>
</g>
<!-- Node28&#45;&gt;Node30 -->
<g id="edge37" class="edge">
<title>Node28&#45;&gt;Node30</title>
<path fill="none" stroke="midnightblue" d="M1219.08,-336.08C1211.65,-328.22 1200.65,-316.57 1191.69,-307.08"/>
<polygon fill="midnightblue" stroke="midnightblue" points="1194.18,-304.62 1184.76,-299.75 1189.09,-309.42 1194.18,-304.62"/>
</g>
<!-- Node31&#45;&gt;Node7 -->
<g id="edge41" class="edge">
<title>Node31&#45;&gt;Node7</title>
<path fill="none" stroke="midnightblue" d="M1360.67,-392.49C1356.87,-374.07 1348.5,-329.12 1348.5,-291 1348.5,-291 1348.5,-291 1348.5,-121 1348.5,-37.98 1048.13,-17.01 945.44,-12.27"/>
<polygon fill="midnightblue" stroke="midnightblue" points="945.45,-8.76 935.31,-11.82 945.14,-15.76 945.45,-8.76"/>
</g>
<!-- Node31&#45;&gt;Node8 -->
<g id="edge42" class="edge">
<title>Node31&#45;&gt;Node8</title>
<path fill="none" stroke="midnightblue" d="M1368.22,-392.43C1383.57,-368.58 1424.5,-298.99 1424.5,-235 1424.5,-235 1424.5,-235 1424.5,-121 1424.5,-50.27 1332.4,-25.02 1267.38,-16"/>
<polygon fill="midnightblue" stroke="midnightblue" points="1267.56,-12.5 1257.2,-14.69 1266.67,-19.44 1267.56,-12.5"/>
</g>
<!-- Node31&#45;&gt;Node28 -->
<g id="edge43" class="edge">
<title>Node31&#45;&gt;Node28</title>
<path fill="none" stroke="midnightblue" d="M1341.11,-392.44C1318.79,-383.52 1283.6,-369.44 1258.29,-359.32"/>
<polygon fill="midnightblue" stroke="midnightblue" points="1259.38,-355.98 1248.79,-355.52 1256.78,-362.48 1259.38,-355.98"/>
</g>
<!-- Node31&#45;&gt;Node29 -->
<g id="edge40" class="edge">
<title>Node31&#45;&gt;Node29</title>
<path fill="none" stroke="midnightblue" d="M1355.52,-392.37C1340.76,-374.14 1306.21,-331.43 1286.99,-307.68"/>
<polygon fill="midnightblue" stroke="midnightblue" points="1289.46,-305.16 1280.45,-299.59 1284.02,-309.57 1289.46,-305.16"/>
</g>
</g>
</svg>
