<?xml version="1.0" encoding="UTF-8" standalone="no"?>
<!DOCTYPE svg PUBLIC "-//W3C//DTD SVG 1.1//EN"
 "http://www.w3.org/Graphics/SVG/1.1/DTD/svg11.dtd">
<!-- Generated by graphviz version 2.43.0 (0)
 -->
<!-- Title: /home/harlen/dev/abcg/abcg/abcgOpenGLWindow.cpp Pages: 1 -->
<svg width="961pt" height="258pt"
 viewBox="0.00 0.00 960.50 258.00" xmlns="http://www.w3.org/2000/svg" xmlns:xlink="http://www.w3.org/1999/xlink">
<g id="graph0" class="graph" transform="scale(1 1) rotate(0) translate(4 254)">
<title>/home/harlen/dev/abcg/abcg/abcgOpenGLWindow.cpp</title>
<!-- Node1 -->
<g id="Node000001" class="node">
<title>Node1</title>
<g id="a_Node000001"><a xlink:title="Definition of abcg::OpenGLWindow members.">
<polygon fill="#999999" stroke="#666666" points="519.5,-250 354.5,-250 354.5,-220 519.5,-220 519.5,-250"/>
<text text-anchor="start" x="362.5" y="-238" font-family="Helvetica,sans-Serif" font-size="10.00">/home/harlen/dev/abcg</text>
<text text-anchor="middle" x="437" y="-227" font-family="Helvetica,sans-Serif" font-size="10.00">/abcg/abcgOpenGLWindow.cpp</text>
</a>
</g>
</g>
<!-- Node2 -->
<g id="Node000002" class="node">
<title>Node2</title>
<g id="a_Node000002"><a xlink:href="abcgOpenGLWindow_8hpp.html" target="_top" xlink:title="Header file of abcg::OpenGLWindow.">
<polygon fill="white" stroke="#666666" points="288.5,-184 151.5,-184 151.5,-165 288.5,-165 288.5,-184"/>
<text text-anchor="middle" x="220" y="-172" font-family="Helvetica,sans-Serif" font-size="10.00">abcgOpenGLWindow.hpp</text>
</a>
</g>
</g>
<!-- Node1&#45;&gt;Node2 -->
<g id="edge1_Node000001_Node000002" class="edge">
<title>Node1&#45;&gt;Node2</title>
<g id="a_edge1_Node000001_Node000002"><a xlink:title=" ">
<path fill="none" stroke="#63b8ff" d="M385.02,-219.99C347.25,-209.8 296.79,-196.2 261.66,-186.73"/>
<polygon fill="#63b8ff" stroke="#63b8ff" points="262.3,-183.28 251.73,-184.05 260.47,-190.04 262.3,-183.28"/>
</a>
</g>
</g>
<!-- Node10 -->
<g id="Node000010" class="node">
<title>Node10</title>
<g id="a_Node000010"><a xlink:href="abcgWindow_8hpp.html" target="_top" xlink:title="Header file of abcg::Window.">
<polygon fill="white" stroke="#666666" points="172.5,-129 73.5,-129 73.5,-110 172.5,-110 172.5,-129"/>
<text text-anchor="middle" x="123" y="-117" font-family="Helvetica,sans-Serif" font-size="10.00">abcgWindow.hpp</text>
</a>
</g>
</g>
<!-- Node1&#45;&gt;Node10 -->
<g id="edge24_Node000001_Node000010" class="edge">
<title>Node1&#45;&gt;Node10</title>
<g id="a_edge24_Node000001_Node000010"><a xlink:title=" ">
<path fill="none" stroke="#63b8ff" d="M354.28,-229.61C278.24,-223.9 172.79,-211.22 142,-184 129.48,-172.93 125.05,-154 123.56,-139.67"/>
<polygon fill="#63b8ff" stroke="#63b8ff" points="127.04,-139.17 122.9,-129.42 120.05,-139.62 127.04,-139.17"/>
</a>
</g>
</g>
<!-- Node13 -->
<g id="Node000013" class="node">
<title>Node13</title>
<g id="a_Node000013"><a xlink:title=" ">
<polygon fill="#e0e0e0" stroke="#999999" points="428.5,-184 345.5,-184 345.5,-165 428.5,-165 428.5,-184"/>
<text text-anchor="middle" x="387" y="-172" font-family="Helvetica,sans-Serif" font-size="10.00">SDL_events.h</text>
</a>
</g>
</g>
<!-- Node1&#45;&gt;Node13 -->
<g id="edge14_Node000001_Node000013" class="edge">
<title>Node1&#45;&gt;Node13</title>
<g id="a_edge14_Node000001_Node000013"><a xlink:title=" ">
<path fill="none" stroke="#63b8ff" d="M424.9,-219.84C417.71,-211.43 408.57,-200.74 401.07,-191.96"/>
<polygon fill="#63b8ff" stroke="#63b8ff" points="403.65,-189.59 394.49,-184.27 398.33,-194.14 403.65,-189.59"/>
</a>
</g>
</g>
<!-- Node14 -->
<g id="Node000014" class="node">
<title>Node14</title>
<g id="a_Node000014"><a xlink:title=" ">
<polygon fill="#e0e0e0" stroke="#999999" points="527,-184 447,-184 447,-165 527,-165 527,-184"/>
<text text-anchor="middle" x="487" y="-172" font-family="Helvetica,sans-Serif" font-size="10.00">SDL_image.h</text>
</a>
</g>
</g>
<!-- Node1&#45;&gt;Node14 -->
<g id="edge15_Node000001_Node000014" class="edge">
<title>Node1&#45;&gt;Node14</title>
<g id="a_edge15_Node000001_Node000014"><a xlink:title=" ">
<path fill="none" stroke="#63b8ff" d="M449.1,-219.84C456.29,-211.43 465.43,-200.74 472.93,-191.96"/>
<polygon fill="#63b8ff" stroke="#63b8ff" points="475.67,-194.14 479.51,-184.27 470.35,-189.59 475.67,-194.14"/>
</a>
</g>
</g>
<!-- Node15 -->
<g id="Node000015" class="node">
<title>Node15</title>
<g id="a_Node000015"><a xlink:title=" ">
<polygon fill="#e0e0e0" stroke="#999999" points="670.5,-184 545.5,-184 545.5,-165 670.5,-165 670.5,-184"/>
<text text-anchor="middle" x="608" y="-172" font-family="Helvetica,sans-Serif" font-size="10.00">imgui_impl_opengl3.h</text>
</a>
</g>
</g>
<!-- Node1&#45;&gt;Node15 -->
<g id="edge16_Node000001_Node000015" class="edge">
<title>Node1&#45;&gt;Node15</title>
<g id="a_edge16_Node000001_Node000015"><a xlink:title=" ">
<path fill="none" stroke="#63b8ff" d="M477.96,-219.99C507,-210.05 545.55,-196.86 573.12,-187.43"/>
<polygon fill="#63b8ff" stroke="#63b8ff" points="574.42,-190.69 582.75,-184.14 572.15,-184.06 574.42,-190.69"/>
</a>
</g>
</g>
<!-- Node16 -->
<g id="Node000016" class="node">
<title>Node16</title>
<g id="a_Node000016"><a xlink:title=" ">
<polygon fill="#e0e0e0" stroke="#999999" points="795,-184 689,-184 689,-165 795,-165 795,-184"/>
<text text-anchor="middle" x="742" y="-172" font-family="Helvetica,sans-Serif" font-size="10.00">imgui_impl_sdl2.h</text>
</a>
</g>
</g>
<!-- Node1&#45;&gt;Node16 -->
<g id="edge17_Node000001_Node000016" class="edge">
<title>Node1&#45;&gt;Node16</title>
<g id="a_edge17_Node000001_Node000016"><a xlink:title=" ">
<path fill="none" stroke="#63b8ff" d="M510.06,-219.99C564.63,-209.52 638.03,-195.44 687.53,-185.95"/>
<polygon fill="#63b8ff" stroke="#63b8ff" points="688.24,-189.37 697.4,-184.05 686.92,-182.5 688.24,-189.37"/>
</a>
</g>
</g>
<!-- Node17 -->
<g id="Node000017" class="node">
<title>Node17</title>
<g id="a_Node000017"><a xlink:href="abcgEmbeddedFonts_8hpp.html" target="_top" xlink:title=" ">
<polygon fill="white" stroke="#666666" points="952.5,-184 813.5,-184 813.5,-165 952.5,-165 952.5,-184"/>
<text text-anchor="middle" x="883" y="-172" font-family="Helvetica,sans-Serif" font-size="10.00">abcgEmbeddedFonts.hpp</text>
</a>
</g>
</g>
<!-- Node1&#45;&gt;Node17 -->
<g id="edge18_Node000001_Node000017" class="edge">
<title>Node1&#45;&gt;Node17</title>
<g id="a_edge18_Node000001_Node000017"><a xlink:title=" ">
<path fill="none" stroke="#63b8ff" d="M519.58,-223.17C602.17,-212.34 728.07,-195.82 807.91,-185.35"/>
<polygon fill="#63b8ff" stroke="#63b8ff" points="808.43,-188.81 817.89,-184.04 807.52,-181.87 808.43,-188.81"/>
</a>
</g>
</g>
<!-- Node19 -->
<g id="Node000019" class="node">
<title>Node19</title>
<g id="a_Node000019"><a xlink:href="abcgException_8hpp.html" target="_top" xlink:title="Header file of abcg::Exception and derived classes.">
<polygon fill="white" stroke="#666666" points="373.5,-129 264.5,-129 264.5,-110 373.5,-110 373.5,-129"/>
<text text-anchor="middle" x="319" y="-117" font-family="Helvetica,sans-Serif" font-size="10.00">abcgException.hpp</text>
</a>
</g>
</g>
<!-- Node1&#45;&gt;Node19 -->
<g id="edge20_Node000001_Node000019" class="edge">
<title>Node1&#45;&gt;Node19</title>
<g id="a_edge20_Node000001_Node000019"><a xlink:title=" ">
<path fill="none" stroke="#63b8ff" d="M388.97,-219.9C370.02,-212.12 349.58,-200.57 336,-184 325.72,-171.45 321.61,-153.25 319.99,-139.55"/>
<polygon fill="#63b8ff" stroke="#63b8ff" points="323.46,-139 319.14,-129.32 316.49,-139.58 323.46,-139"/>
</a>
</g>
</g>
<!-- Node3 -->
<g id="Node000003" class="node">
<title>Node3</title>
<g id="a_Node000003"><a xlink:title=" ">
<polygon fill="#e0e0e0" stroke="#999999" points="44,-74 0,-74 0,-55 44,-55 44,-74"/>
<text text-anchor="middle" x="22" y="-62" font-family="Helvetica,sans-Serif" font-size="10.00">string</text>
</a>
</g>
</g>
<!-- Node2&#45;&gt;Node3 -->
<g id="edge2_Node000002_Node000003" class="edge">
<title>Node2&#45;&gt;Node3</title>
<g id="a_edge2_Node000002_Node000003"><a xlink:title=" ">
<path fill="none" stroke="#63b8ff" d="M152.39,-164.96C123.08,-158.68 89.67,-147.8 64,-129 48.21,-117.44 36.64,-98.01 29.68,-83.68"/>
<polygon fill="#63b8ff" stroke="#63b8ff" points="32.76,-81.99 25.44,-74.33 26.39,-84.89 32.76,-81.99"/>
</a>
</g>
</g>
<!-- Node4 -->
<g id="Node000004" class="node">
<title>Node4</title>
<g id="a_Node000004"><a xlink:href="abcgExternal_8hpp.html" target="_top" xlink:title="Header file for including third&#45;party dependencies.">
<polygon fill="white" stroke="#666666" points="270.5,-74 169.5,-74 169.5,-55 270.5,-55 270.5,-74"/>
<text text-anchor="middle" x="220" y="-62" font-family="Helvetica,sans-Serif" font-size="10.00">abcgExternal.hpp</text>
</a>
</g>
</g>
<!-- Node2&#45;&gt;Node4 -->
<g id="edge3_Node000002_Node000004" class="edge">
<title>Node2&#45;&gt;Node4</title>
<g id="a_edge3_Node000002_Node000004"><a xlink:title=" ">
<path fill="none" stroke="#63b8ff" d="M220,-164.66C220,-147.17 220,-107.8 220,-84.27"/>
<polygon fill="#63b8ff" stroke="#63b8ff" points="223.5,-84.16 220,-74.16 216.5,-84.16 223.5,-84.16"/>
</a>
</g>
</g>
<!-- Node5 -->
<g id="Node000005" class="node">
<title>Node5</title>
<g id="a_Node000005"><a xlink:href="abcgOpenGLFunction_8hpp.html" target="_top" xlink:title="Declaration of OpenGL&#45;related error checking functions.">
<polygon fill="white" stroke="#666666" points="589,-129 449,-129 449,-110 589,-110 589,-129"/>
<text text-anchor="middle" x="519" y="-117" font-family="Helvetica,sans-Serif" font-size="10.00">abcgOpenGLFunction.hpp</text>
</a>
</g>
</g>
<!-- Node2&#45;&gt;Node5 -->
<g id="edge4_Node000002_Node000005" class="edge">
<title>Node2&#45;&gt;Node5</title>
<g id="a_edge4_Node000002_Node000005"><a xlink:title=" ">
<path fill="none" stroke="#63b8ff" d="M268.04,-164.98C320.41,-155.7 404.24,-140.84 460.43,-130.88"/>
<polygon fill="#63b8ff" stroke="#63b8ff" points="461.35,-134.27 470.58,-129.08 460.13,-127.38 461.35,-134.27"/>
</a>
</g>
</g>
<!-- Node2&#45;&gt;Node10 -->
<g id="edge9_Node000002_Node000010" class="edge">
<title>Node2&#45;&gt;Node10</title>
<g id="a_edge9_Node000002_Node000010"><a xlink:title=" ">
<path fill="none" stroke="#63b8ff" d="M204.42,-164.98C189.23,-156.69 165.9,-143.94 148.1,-134.22"/>
<polygon fill="#63b8ff" stroke="#63b8ff" points="149.32,-130.89 138.87,-129.17 145.97,-137.04 149.32,-130.89"/>
</a>
</g>
</g>
<!-- Node6 -->
<g id="Node000006" class="node">
<title>Node6</title>
<g id="a_Node000006"><a xlink:title=" ">
<polygon fill="#e0e0e0" stroke="#999999" points="464.5,-74 371.5,-74 371.5,-55 464.5,-55 464.5,-74"/>
<text text-anchor="middle" x="418" y="-62" font-family="Helvetica,sans-Serif" font-size="10.00">source_location</text>
</a>
</g>
</g>
<!-- Node5&#45;&gt;Node6 -->
<g id="edge5_Node000005_Node000006" class="edge">
<title>Node5&#45;&gt;Node6</title>
<g id="a_edge5_Node000005_Node000006"><a xlink:title=" ">
<path fill="none" stroke="#63b8ff" d="M502.77,-109.98C486.82,-101.61 462.22,-88.7 443.62,-78.95"/>
<polygon fill="#63b8ff" stroke="#63b8ff" points="445,-75.72 434.52,-74.17 441.75,-81.92 445,-75.72"/>
</a>
</g>
</g>
<!-- Node7 -->
<g id="Node000007" class="node">
<title>Node7</title>
<g id="a_Node000007"><a xlink:title=" ">
<polygon fill="#e0e0e0" stroke="#999999" points="555.5,-74 482.5,-74 482.5,-55 555.5,-55 555.5,-74"/>
<text text-anchor="middle" x="519" y="-62" font-family="Helvetica,sans-Serif" font-size="10.00">string_view</text>
</a>
</g>
</g>
<!-- Node5&#45;&gt;Node7 -->
<g id="edge6_Node000005_Node000007" class="edge">
<title>Node5&#45;&gt;Node7</title>
<g id="a_edge6_Node000005_Node000007"><a xlink:title=" ">
<path fill="none" stroke="#63b8ff" d="M519,-109.75C519,-102.8 519,-92.85 519,-84.13"/>
<polygon fill="#63b8ff" stroke="#63b8ff" points="522.5,-84.09 519,-74.09 515.5,-84.09 522.5,-84.09"/>
</a>
</g>
</g>
<!-- Node8 -->
<g id="Node000008" class="node">
<title>Node8</title>
<g id="a_Node000008"><a xlink:title=" ">
<polygon fill="#e0e0e0" stroke="#999999" points="642.5,-74 573.5,-74 573.5,-55 642.5,-55 642.5,-74"/>
<text text-anchor="middle" x="608" y="-62" font-family="Helvetica,sans-Serif" font-size="10.00">type_traits</text>
</a>
</g>
</g>
<!-- Node5&#45;&gt;Node8 -->
<g id="edge7_Node000005_Node000008" class="edge">
<title>Node5&#45;&gt;Node8</title>
<g id="a_edge7_Node000005_Node000008"><a xlink:title=" ">
<path fill="none" stroke="#63b8ff" d="M533.3,-109.98C547.1,-101.77 568.24,-89.18 584.51,-79.49"/>
<polygon fill="#63b8ff" stroke="#63b8ff" points="586.64,-82.29 593.44,-74.17 583.06,-76.28 586.64,-82.29"/>
</a>
</g>
</g>
<!-- Node9 -->
<g id="Node000009" class="node">
<title>Node9</title>
<g id="a_Node000009"><a xlink:href="abcgOpenGLExternal_8hpp.html" target="_top" xlink:title="Header file for including OpenGL&#45;related third&#45;party dependencies.">
<polygon fill="white" stroke="#666666" points="801,-74 661,-74 661,-55 801,-55 801,-74"/>
<text text-anchor="middle" x="731" y="-62" font-family="Helvetica,sans-Serif" font-size="10.00">abcgOpenGLExternal.hpp</text>
</a>
</g>
</g>
<!-- Node5&#45;&gt;Node9 -->
<g id="edge8_Node000005_Node000009" class="edge">
<title>Node5&#45;&gt;Node9</title>
<g id="a_edge8_Node000005_Node000009"><a xlink:title=" ">
<path fill="none" stroke="#63b8ff" d="M553.06,-109.98C589.42,-100.89 647.17,-86.46 686.97,-76.51"/>
<polygon fill="#63b8ff" stroke="#63b8ff" points="687.82,-79.9 696.67,-74.08 686.12,-73.11 687.82,-79.9"/>
</a>
</g>
</g>
<!-- Node10&#45;&gt;Node3 -->
<g id="edge10_Node000010_Node000003" class="edge">
<title>Node10&#45;&gt;Node3</title>
<g id="a_edge10_Node000010_Node000003"><a xlink:title=" ">
<path fill="none" stroke="#63b8ff" d="M106.77,-109.98C90.82,-101.61 66.22,-88.7 47.62,-78.95"/>
<polygon fill="#63b8ff" stroke="#63b8ff" points="49,-75.72 38.52,-74.17 45.75,-81.92 49,-75.72"/>
</a>
</g>
</g>
<!-- Node10&#45;&gt;Node4 -->
<g id="edge11_Node000010_Node000004" class="edge">
<title>Node10&#45;&gt;Node4</title>
<g id="a_edge11_Node000010_Node000004"><a xlink:title=" ">
<path fill="none" stroke="#63b8ff" d="M138.58,-109.98C153.77,-101.69 177.1,-88.94 194.9,-79.22"/>
<polygon fill="#63b8ff" stroke="#63b8ff" points="197.03,-82.04 204.13,-74.17 193.68,-75.89 197.03,-82.04"/>
</a>
</g>
</g>
<!-- Node11 -->
<g id="Node000011" class="node">
<title>Node11</title>
<g id="a_Node000011"><a xlink:href="abcgTimer_8hpp.html" target="_top" xlink:title="Header file of abcg::Timer.">
<polygon fill="white" stroke="#666666" points="151.5,-74 62.5,-74 62.5,-55 151.5,-55 151.5,-74"/>
<text text-anchor="middle" x="107" y="-62" font-family="Helvetica,sans-Serif" font-size="10.00">abcgTimer.hpp</text>
</a>
</g>
</g>
<!-- Node10&#45;&gt;Node11 -->
<g id="edge12_Node000010_Node000011" class="edge">
<title>Node10&#45;&gt;Node11</title>
<g id="a_edge12_Node000010_Node000011"><a xlink:title=" ">
<path fill="none" stroke="#63b8ff" d="M120.36,-109.75C118.24,-102.72 115.19,-92.62 112.54,-83.84"/>
<polygon fill="#63b8ff" stroke="#63b8ff" points="115.83,-82.65 109.59,-74.09 109.13,-84.67 115.83,-82.65"/>
</a>
</g>
</g>
<!-- Node12 -->
<g id="Node000012" class="node">
<title>Node12</title>
<g id="a_Node000012"><a xlink:title=" ">
<polygon fill="#e0e0e0" stroke="#999999" points="132,-19 82,-19 82,0 132,0 132,-19"/>
<text text-anchor="middle" x="107" y="-7" font-family="Helvetica,sans-Serif" font-size="10.00">chrono</text>
</a>
</g>
</g>
<!-- Node11&#45;&gt;Node12 -->
<g id="edge13_Node000011_Node000012" class="edge">
<title>Node11&#45;&gt;Node12</title>
<g id="a_edge13_Node000011_Node000012"><a xlink:title=" ">
<path fill="none" stroke="#63b8ff" d="M107,-54.75C107,-47.8 107,-37.85 107,-29.13"/>
<polygon fill="#63b8ff" stroke="#63b8ff" points="110.5,-29.09 107,-19.09 103.5,-29.09 110.5,-29.09"/>
</a>
</g>
</g>
<!-- Node18 -->
<g id="Node000018" class="node">
<title>Node18</title>
<g id="a_Node000018"><a xlink:title=" ">
<polygon fill="#e0e0e0" stroke="#999999" points="904,-129 862,-129 862,-110 904,-110 904,-129"/>
<text text-anchor="middle" x="883" y="-117" font-family="Helvetica,sans-Serif" font-size="10.00">array</text>
</a>
</g>
</g>
<!-- Node17&#45;&gt;Node18 -->
<g id="edge19_Node000017_Node000018" class="edge">
<title>Node17&#45;&gt;Node18</title>
<g id="a_edge19_Node000017_Node000018"><a xlink:title=" ">
<path fill="none" stroke="#63b8ff" d="M883,-164.75C883,-157.8 883,-147.85 883,-139.13"/>
<polygon fill="#63b8ff" stroke="#63b8ff" points="886.5,-139.09 883,-129.09 879.5,-139.09 886.5,-139.09"/>
</a>
</g>
</g>
<!-- Node19&#45;&gt;Node3 -->
<g id="edge23_Node000019_Node000003" class="edge">
<title>Node19&#45;&gt;Node3</title>
<g id="a_edge23_Node000019_Node000003"><a xlink:title=" ">
<path fill="none" stroke="#63b8ff" d="M264.43,-111.03C212.66,-103.57 132.5,-91.06 54.3,-74.1"/>
<polygon fill="#63b8ff" stroke="#63b8ff" points="54.8,-70.63 44.28,-71.9 53.3,-77.47 54.8,-70.63"/>
</a>
</g>
</g>
<!-- Node19&#45;&gt;Node6 -->
<g id="edge21_Node000019_Node000006" class="edge">
<title>Node19&#45;&gt;Node6</title>
<g id="a_edge21_Node000019_Node000006"><a xlink:title=" ">
<path fill="none" stroke="#63b8ff" d="M334.91,-109.98C350.55,-101.61 374.66,-88.7 392.88,-78.95"/>
<polygon fill="#63b8ff" stroke="#63b8ff" points="394.64,-81.98 401.8,-74.17 391.34,-75.8 394.64,-81.98"/>
</a>
</g>
</g>
<!-- Node20 -->
<g id="Node000020" class="node">
<title>Node20</title>
<g id="a_Node000020"><a xlink:title=" ">
<polygon fill="#e0e0e0" stroke="#999999" points="353.5,-74 288.5,-74 288.5,-55 353.5,-55 353.5,-74"/>
<text text-anchor="middle" x="321" y="-62" font-family="Helvetica,sans-Serif" font-size="10.00">stdexcept</text>
</a>
</g>
</g>
<!-- Node19&#45;&gt;Node20 -->
<g id="edge22_Node000019_Node000020" class="edge">
<title>Node19&#45;&gt;Node20</title>
<g id="a_edge22_Node000019_Node000020"><a xlink:title=" ">
<path fill="none" stroke="#63b8ff" d="M319.33,-109.75C319.59,-102.8 319.97,-92.85 320.3,-84.13"/>
<polygon fill="#63b8ff" stroke="#63b8ff" points="323.8,-84.21 320.68,-74.09 316.8,-83.95 323.8,-84.21"/>
</a>
</g>
</g>
</g>
</svg>
