<?xml version="1.0" encoding="UTF-8" standalone="no"?>
<!DOCTYPE svg PUBLIC "-//W3C//DTD SVG 1.1//EN"
 "http://www.w3.org/Graphics/SVG/1.1/DTD/svg11.dtd">
<!-- Generated by graphviz version 2.43.0 (0)
 -->
<!-- Title: /home/harlen/dev/abcg2/abcg/abcg_opengl_external.hpp Pages: 1 -->
<svg width="850pt" height="240pt"
 viewBox="0.00 0.00 849.50 240.00" xmlns="http://www.w3.org/2000/svg" xmlns:xlink="http://www.w3.org/1999/xlink">
<g id="graph0" class="graph" transform="scale(1 1) rotate(0) translate(4 236)">
<title>/home/harlen/dev/abcg2/abcg/abcg_opengl_external.hpp</title>
<!-- Node1 -->
<g id="node1" class="node">
<title>Node1</title>
<g id="a_node1"><a xlink:title="Header file for including OpenGL&#45;related third&#45;party dependencies.">
<polygon fill="#bfbfbf" stroke="black" points="266.5,-201.5 266.5,-231.5 440.5,-231.5 440.5,-201.5 266.5,-201.5"/>
<text text-anchor="start" x="274.5" y="-219.5" font-family="Helvetica,sans-Serif" font-size="10.00">/home/harlen/dev/abcg2</text>
<text text-anchor="middle" x="353.5" y="-208.5" font-family="Helvetica,sans-Serif" font-size="10.00">/abcg/abcg_opengl_external.hpp</text>
</a>
</g>
</g>
<!-- Node2 -->
<g id="node2" class="node">
<title>Node2</title>
<g id="a_node2"><a xlink:href="abcg__opengl__error_8cpp.html" target="_top" xlink:title="Definition of abcg::OpenGLError members.">
<polygon fill="none" stroke="black" points="0,-134.5 0,-164.5 155,-164.5 155,-134.5 0,-134.5"/>
<text text-anchor="start" x="8" y="-152.5" font-family="Helvetica,sans-Serif" font-size="10.00">/home/harlen/dev/abcg2</text>
<text text-anchor="middle" x="77.5" y="-141.5" font-family="Helvetica,sans-Serif" font-size="10.00">/abcg/abcg_opengl_error.cpp</text>
</a>
</g>
</g>
<!-- Node1&#45;&gt;Node2 -->
<g id="edge1" class="edge">
<title>Node1&#45;&gt;Node2</title>
<path fill="none" stroke="midnightblue" d="M283.94,-199.12C238.78,-188.48 180.52,-174.76 137.42,-164.61"/>
<polygon fill="midnightblue" stroke="midnightblue" points="283.42,-202.59 293.95,-201.48 285.02,-195.78 283.42,-202.59"/>
</g>
<!-- Node3 -->
<g id="node3" class="node">
<title>Node3</title>
<g id="a_node3"><a xlink:href="abcg__opengl__function_8hpp.html" target="_top" xlink:title="Declaration of OpenGL&#45;related error checking functions.">
<polygon fill="none" stroke="black" points="173,-134.5 173,-164.5 346,-164.5 346,-134.5 173,-134.5"/>
<text text-anchor="start" x="181" y="-152.5" font-family="Helvetica,sans-Serif" font-size="10.00">/home/harlen/dev/abcg2</text>
<text text-anchor="middle" x="259.5" y="-141.5" font-family="Helvetica,sans-Serif" font-size="10.00">/abcg/abcg_opengl_function.hpp</text>
</a>
</g>
</g>
<!-- Node1&#45;&gt;Node3 -->
<g id="edge2" class="edge">
<title>Node1&#45;&gt;Node3</title>
<path fill="none" stroke="midnightblue" d="M324.51,-195.45C310.05,-185.45 292.91,-173.6 279.86,-164.58"/>
<polygon fill="midnightblue" stroke="midnightblue" points="322.89,-198.59 333.1,-201.4 326.87,-192.83 322.89,-198.59"/>
</g>
<!-- Node8 -->
<g id="node8" class="node">
<title>Node8</title>
<g id="a_node8"><a xlink:href="abcg__opengl__image_8hpp.html" target="_top" xlink:title="Declaration of OpenGL texture loading helper functions.">
<polygon fill="none" stroke="black" points="567.5,-134.5 567.5,-164.5 731.5,-164.5 731.5,-134.5 567.5,-134.5"/>
<text text-anchor="start" x="575.5" y="-152.5" font-family="Helvetica,sans-Serif" font-size="10.00">/home/harlen/dev/abcg2</text>
<text text-anchor="middle" x="649.5" y="-141.5" font-family="Helvetica,sans-Serif" font-size="10.00">/abcg/abcg_opengl_image.hpp</text>
</a>
</g>
</g>
<!-- Node1&#45;&gt;Node8 -->
<g id="edge7" class="edge">
<title>Node1&#45;&gt;Node8</title>
<path fill="none" stroke="midnightblue" d="M427.2,-199.32C475.85,-188.63 538.96,-174.77 585.5,-164.55"/>
<polygon fill="midnightblue" stroke="midnightblue" points="426.38,-195.91 417.36,-201.48 427.88,-202.75 426.38,-195.91"/>
</g>
<!-- Node10 -->
<g id="node10" class="node">
<title>Node10</title>
<g id="a_node10"><a xlink:href="abcg__opengl__shader_8hpp.html" target="_top" xlink:title="Declaration of helper functions for building OpenGL shaders.">
<polygon fill="none" stroke="black" points="364.5,-134.5 364.5,-164.5 530.5,-164.5 530.5,-134.5 364.5,-134.5"/>
<text text-anchor="start" x="372.5" y="-152.5" font-family="Helvetica,sans-Serif" font-size="10.00">/home/harlen/dev/abcg2</text>
<text text-anchor="middle" x="447.5" y="-141.5" font-family="Helvetica,sans-Serif" font-size="10.00">/abcg/abcg_opengl_shader.hpp</text>
</a>
</g>
</g>
<!-- Node1&#45;&gt;Node10 -->
<g id="edge10" class="edge">
<title>Node1&#45;&gt;Node10</title>
<path fill="none" stroke="midnightblue" d="M382.49,-195.45C396.95,-185.45 414.09,-173.6 427.14,-164.58"/>
<polygon fill="midnightblue" stroke="midnightblue" points="380.13,-192.83 373.9,-201.4 384.11,-198.59 380.13,-192.83"/>
</g>
<!-- Node4 -->
<g id="node4" class="node">
<title>Node4</title>
<g id="a_node4"><a xlink:href="abcg__opengl__function_8cpp.html" target="_top" xlink:title="Definition of OpenGL&#45;related error checking functions.">
<polygon fill="none" stroke="black" points="38,-67.5 38,-97.5 211,-97.5 211,-67.5 38,-67.5"/>
<text text-anchor="start" x="46" y="-85.5" font-family="Helvetica,sans-Serif" font-size="10.00">/home/harlen/dev/abcg2</text>
<text text-anchor="middle" x="124.5" y="-74.5" font-family="Helvetica,sans-Serif" font-size="10.00">/abcg/abcg_opengl_function.cpp</text>
</a>
</g>
</g>
<!-- Node3&#45;&gt;Node4 -->
<g id="edge3" class="edge">
<title>Node3&#45;&gt;Node4</title>
<path fill="none" stroke="midnightblue" d="M221.06,-129.99C199.66,-119.69 173.45,-107.07 153.74,-97.58"/>
<polygon fill="midnightblue" stroke="midnightblue" points="219.68,-133.21 230.21,-134.4 222.72,-126.9 219.68,-133.21"/>
</g>
<!-- Node5 -->
<g id="node5" class="node">
<title>Node5</title>
<g id="a_node5"><a xlink:href="abcg__opengl__window_8hpp.html" target="_top" xlink:title="Header file of abcg::OpenGLWindow.">
<polygon fill="none" stroke="black" points="229.5,-67.5 229.5,-97.5 399.5,-97.5 399.5,-67.5 229.5,-67.5"/>
<text text-anchor="start" x="237.5" y="-85.5" font-family="Helvetica,sans-Serif" font-size="10.00">/home/harlen/dev/abcg2</text>
<text text-anchor="middle" x="314.5" y="-74.5" font-family="Helvetica,sans-Serif" font-size="10.00">/abcg/abcg_opengl_window.hpp</text>
</a>
</g>
</g>
<!-- Node3&#45;&gt;Node5 -->
<g id="edge4" class="edge">
<title>Node3&#45;&gt;Node5</title>
<path fill="none" stroke="midnightblue" d="M277.92,-126.74C286.05,-117.12 295.39,-106.09 302.59,-97.58"/>
<polygon fill="midnightblue" stroke="midnightblue" points="275.22,-124.5 271.43,-134.4 280.57,-129.02 275.22,-124.5"/>
</g>
<!-- Node6 -->
<g id="node6" class="node">
<title>Node6</title>
<g id="a_node6"><a xlink:href="abcg__opengl_8hpp.html" target="_top" xlink:title="Header file for OpenGL&#45;related functions and classes.">
<polygon fill="none" stroke="black" points="389.5,-0.5 389.5,-30.5 523.5,-30.5 523.5,-0.5 389.5,-0.5"/>
<text text-anchor="start" x="397.5" y="-18.5" font-family="Helvetica,sans-Serif" font-size="10.00">/home/harlen/dev/abcg2</text>
<text text-anchor="middle" x="456.5" y="-7.5" font-family="Helvetica,sans-Serif" font-size="10.00">/abcg/abcg_opengl.hpp</text>
</a>
</g>
</g>
<!-- Node5&#45;&gt;Node6 -->
<g id="edge5" class="edge">
<title>Node5&#45;&gt;Node6</title>
<path fill="none" stroke="midnightblue" d="M354.63,-63.13C377.19,-52.8 404.92,-40.11 425.75,-30.58"/>
<polygon fill="midnightblue" stroke="midnightblue" points="352.95,-60.05 345.31,-67.4 355.86,-66.42 352.95,-60.05"/>
</g>
<!-- Node7 -->
<g id="node7" class="node">
<title>Node7</title>
<g id="a_node7"><a xlink:href="abcg__opengl__window_8cpp.html" target="_top" xlink:title="Definition of abcg::OpenGLWindow members.">
<polygon fill="none" stroke="black" points="201.5,-0.5 201.5,-30.5 371.5,-30.5 371.5,-0.5 201.5,-0.5"/>
<text text-anchor="start" x="209.5" y="-18.5" font-family="Helvetica,sans-Serif" font-size="10.00">/home/harlen/dev/abcg2</text>
<text text-anchor="middle" x="286.5" y="-7.5" font-family="Helvetica,sans-Serif" font-size="10.00">/abcg/abcg_opengl_window.cpp</text>
</a>
</g>
</g>
<!-- Node5&#45;&gt;Node7 -->
<g id="edge6" class="edge">
<title>Node5&#45;&gt;Node7</title>
<path fill="none" stroke="midnightblue" d="M304.37,-57.99C300.42,-48.8 296.01,-38.58 292.56,-30.58"/>
<polygon fill="midnightblue" stroke="midnightblue" points="301.25,-59.6 308.42,-67.4 307.68,-56.83 301.25,-59.6"/>
</g>
<!-- Node8&#45;&gt;Node6 -->
<g id="edge8" class="edge">
<title>Node8&#45;&gt;Node6</title>
<path fill="none" stroke="midnightblue" d="M650.05,-124.36C649.15,-106.33 644.97,-82.27 630.5,-67 603.02,-38.01 559.98,-25.35 523.58,-19.96"/>
<polygon fill="midnightblue" stroke="midnightblue" points="646.55,-124.49 650.25,-134.42 653.55,-124.35 646.55,-124.49"/>
</g>
<!-- Node9 -->
<g id="node9" class="node">
<title>Node9</title>
<g id="a_node9"><a xlink:href="abcg__opengl__image_8cpp.html" target="_top" xlink:title="Definition of OpenGL texture loading helper functions.">
<polygon fill="none" stroke="black" points="677.5,-67.5 677.5,-97.5 841.5,-97.5 841.5,-67.5 677.5,-67.5"/>
<text text-anchor="start" x="685.5" y="-85.5" font-family="Helvetica,sans-Serif" font-size="10.00">/home/harlen/dev/abcg2</text>
<text text-anchor="middle" x="759.5" y="-74.5" font-family="Helvetica,sans-Serif" font-size="10.00">/abcg/abcg_opengl_image.cpp</text>
</a>
</g>
</g>
<!-- Node8&#45;&gt;Node9 -->
<g id="edge9" class="edge">
<title>Node8&#45;&gt;Node9</title>
<path fill="none" stroke="midnightblue" d="M682,-129.3C699.21,-119.12 719.98,-106.85 735.68,-97.58"/>
<polygon fill="midnightblue" stroke="midnightblue" points="680.2,-126.3 673.37,-134.4 683.76,-132.32 680.2,-126.3"/>
</g>
<!-- Node10&#45;&gt;Node5 -->
<g id="edge13" class="edge">
<title>Node10&#45;&gt;Node5</title>
<path fill="none" stroke="midnightblue" d="M409.63,-129.99C388.55,-119.69 362.72,-107.07 343.3,-97.58"/>
<polygon fill="midnightblue" stroke="midnightblue" points="408.12,-133.15 418.64,-134.4 411.19,-126.86 408.12,-133.15"/>
</g>
<!-- Node10&#45;&gt;Node6 -->
<g id="edge11" class="edge">
<title>Node10&#45;&gt;Node6</title>
<path fill="none" stroke="midnightblue" d="M446.38,-124.09C445.91,-107.87 445.81,-86.12 447.5,-67 448.6,-54.58 451.19,-40.64 453.31,-30.56"/>
<polygon fill="midnightblue" stroke="midnightblue" points="442.89,-124.46 446.75,-134.33 449.89,-124.21 442.89,-124.46"/>
</g>
<!-- Node11 -->
<g id="node11" class="node">
<title>Node11</title>
<g id="a_node11"><a xlink:href="abcg__opengl__shader_8cpp.html" target="_top" xlink:title="Definition of helper functions for building OpenGL shaders.">
<polygon fill="none" stroke="black" points="456,-67.5 456,-97.5 621,-97.5 621,-67.5 456,-67.5"/>
<text text-anchor="start" x="464" y="-85.5" font-family="Helvetica,sans-Serif" font-size="10.00">/home/harlen/dev/abcg2</text>
<text text-anchor="middle" x="538.5" y="-74.5" font-family="Helvetica,sans-Serif" font-size="10.00">/abcg/abcg_opengl_shader.cpp</text>
</a>
</g>
</g>
<!-- Node10&#45;&gt;Node11 -->
<g id="edge12" class="edge">
<title>Node10&#45;&gt;Node11</title>
<path fill="none" stroke="midnightblue" d="M475.57,-128.45C489.57,-118.45 506.16,-106.6 518.79,-97.58"/>
<polygon fill="midnightblue" stroke="midnightblue" points="473.35,-125.74 467.25,-134.4 477.42,-131.43 473.35,-125.74"/>
</g>
</g>
</svg>
