<?xml version="1.0" encoding="UTF-8" standalone="no"?>
<!DOCTYPE svg PUBLIC "-//W3C//DTD SVG 1.1//EN"
 "http://www.w3.org/Graphics/SVG/1.1/DTD/svg11.dtd">
<!-- Generated by graphviz version 2.43.0 (0)
 -->
<!-- Title: /home/harlen/dev/abcg/abcg/abcgOpenGLWindow.hpp Pages: 1 -->
<svg width="727pt" height="207pt"
 viewBox="0.00 0.00 726.50 207.00" xmlns="http://www.w3.org/2000/svg" xmlns:xlink="http://www.w3.org/1999/xlink">
<g id="graph0" class="graph" transform="scale(1 1) rotate(0) translate(4 203)">
<title>/home/harlen/dev/abcg/abcg/abcgOpenGLWindow.hpp</title>
<!-- Node1 -->
<g id="node1" class="node">
<title>Node1</title>
<g id="a_node1"><a xlink:title="Header file of abcg::OpenGLWindow.">
<polygon fill="#bfbfbf" stroke="black" points="89,-168.5 89,-198.5 255,-198.5 255,-168.5 89,-168.5"/>
<text text-anchor="start" x="97" y="-186.5" font-family="Helvetica,sans-Serif" font-size="10.00">/home/harlen/dev/abcg</text>
<text text-anchor="middle" x="172" y="-175.5" font-family="Helvetica,sans-Serif" font-size="10.00">/abcg/abcgOpenGLWindow.hpp</text>
</a>
</g>
</g>
<!-- Node2 -->
<g id="node2" class="node">
<title>Node2</title>
<g id="a_node2"><a xlink:title=" ">
<polygon fill="none" stroke="#bfbfbf" points="0,-56.5 0,-75.5 44,-75.5 44,-56.5 0,-56.5"/>
<text text-anchor="middle" x="22" y="-63.5" font-family="Helvetica,sans-Serif" font-size="10.00">string</text>
</a>
</g>
</g>
<!-- Node1&#45;&gt;Node2 -->
<g id="edge1" class="edge">
<title>Node1&#45;&gt;Node2</title>
<path fill="none" stroke="midnightblue" d="M121.39,-168.47C99.64,-160.51 75.11,-148.71 57,-132 43.19,-119.25 33.72,-99.79 28.14,-85.48"/>
<polygon fill="midnightblue" stroke="midnightblue" points="31.32,-83.96 24.64,-75.74 24.73,-86.33 31.32,-83.96"/>
</g>
<!-- Node3 -->
<g id="node3" class="node">
<title>Node3</title>
<g id="a_node3"><a xlink:href="abcgExternal_8hpp.html" target="_top" xlink:title="Header file for including third&#45;party dependencies.">
<polygon fill="none" stroke="black" points="169.5,-56.5 169.5,-75.5 270.5,-75.5 270.5,-56.5 169.5,-56.5"/>
<text text-anchor="middle" x="220" y="-63.5" font-family="Helvetica,sans-Serif" font-size="10.00">abcgExternal.hpp</text>
</a>
</g>
</g>
<!-- Node1&#45;&gt;Node3 -->
<g id="edge2" class="edge">
<title>Node1&#45;&gt;Node3</title>
<path fill="none" stroke="midnightblue" d="M177.89,-168.34C186.61,-147.34 202.98,-107.96 212.54,-84.96"/>
<polygon fill="midnightblue" stroke="midnightblue" points="215.79,-86.25 216.4,-75.67 209.33,-83.56 215.79,-86.25"/>
</g>
<!-- Node4 -->
<g id="node4" class="node">
<title>Node4</title>
<g id="a_node4"><a xlink:href="abcgOpenGLFunction_8hpp.html" target="_top" xlink:title="Declaration of OpenGL&#45;related error checking functions.">
<polygon fill="none" stroke="black" points="424,-112.5 424,-131.5 564,-131.5 564,-112.5 424,-112.5"/>
<text text-anchor="middle" x="494" y="-119.5" font-family="Helvetica,sans-Serif" font-size="10.00">abcgOpenGLFunction.hpp</text>
</a>
</g>
</g>
<!-- Node1&#45;&gt;Node4 -->
<g id="edge3" class="edge">
<title>Node1&#45;&gt;Node4</title>
<path fill="none" stroke="midnightblue" d="M247.9,-168.47C306.12,-157.72 385.18,-143.11 437.81,-133.38"/>
<polygon fill="midnightblue" stroke="midnightblue" points="438.77,-136.77 447.97,-131.51 437.5,-129.88 438.77,-136.77"/>
</g>
<!-- Node9 -->
<g id="node9" class="node">
<title>Node9</title>
<g id="a_node9"><a xlink:href="abcgWindow_8hpp.html" target="_top" xlink:title="Header file of abcg::Window.">
<polygon fill="none" stroke="black" points="66.5,-112.5 66.5,-131.5 165.5,-131.5 165.5,-112.5 66.5,-112.5"/>
<text text-anchor="middle" x="116" y="-119.5" font-family="Helvetica,sans-Serif" font-size="10.00">abcgWindow.hpp</text>
</a>
</g>
</g>
<!-- Node1&#45;&gt;Node9 -->
<g id="edge8" class="edge">
<title>Node1&#45;&gt;Node9</title>
<path fill="none" stroke="midnightblue" d="M158.73,-168.4C150.42,-159.58 139.7,-148.18 131.08,-139.02"/>
<polygon fill="midnightblue" stroke="midnightblue" points="133.55,-136.54 124.15,-131.66 128.45,-141.34 133.55,-136.54"/>
</g>
<!-- Node5 -->
<g id="node5" class="node">
<title>Node5</title>
<g id="a_node5"><a xlink:title=" ">
<polygon fill="none" stroke="#bfbfbf" points="447.5,-56.5 447.5,-75.5 540.5,-75.5 540.5,-56.5 447.5,-56.5"/>
<text text-anchor="middle" x="494" y="-63.5" font-family="Helvetica,sans-Serif" font-size="10.00">source_location</text>
</a>
</g>
</g>
<!-- Node4&#45;&gt;Node5 -->
<g id="edge4" class="edge">
<title>Node4&#45;&gt;Node5</title>
<path fill="none" stroke="midnightblue" d="M494,-112.08C494,-105.01 494,-94.86 494,-85.99"/>
<polygon fill="midnightblue" stroke="midnightblue" points="497.5,-85.75 494,-75.75 490.5,-85.75 497.5,-85.75"/>
</g>
<!-- Node6 -->
<g id="node6" class="node">
<title>Node6</title>
<g id="a_node6"><a xlink:title=" ">
<polygon fill="none" stroke="#bfbfbf" points="558.5,-56.5 558.5,-75.5 631.5,-75.5 631.5,-56.5 558.5,-56.5"/>
<text text-anchor="middle" x="595" y="-63.5" font-family="Helvetica,sans-Serif" font-size="10.00">string_view</text>
</a>
</g>
</g>
<!-- Node4&#45;&gt;Node6 -->
<g id="edge5" class="edge">
<title>Node4&#45;&gt;Node6</title>
<path fill="none" stroke="midnightblue" d="M510.23,-112.32C526.35,-103.7 551.3,-90.36 569.96,-80.39"/>
<polygon fill="midnightblue" stroke="midnightblue" points="571.64,-83.46 578.81,-75.65 568.34,-77.28 571.64,-83.46"/>
</g>
<!-- Node7 -->
<g id="node7" class="node">
<title>Node7</title>
<g id="a_node7"><a xlink:title=" ">
<polygon fill="none" stroke="#bfbfbf" points="649.5,-56.5 649.5,-75.5 718.5,-75.5 718.5,-56.5 649.5,-56.5"/>
<text text-anchor="middle" x="684" y="-63.5" font-family="Helvetica,sans-Serif" font-size="10.00">type_traits</text>
</a>
</g>
</g>
<!-- Node4&#45;&gt;Node7 -->
<g id="edge6" class="edge">
<title>Node4&#45;&gt;Node7</title>
<path fill="none" stroke="midnightblue" d="M524.11,-112.44C556.63,-103.2 608.58,-88.44 644.39,-78.26"/>
<polygon fill="midnightblue" stroke="midnightblue" points="645.37,-81.62 654.03,-75.52 643.46,-74.88 645.37,-81.62"/>
</g>
<!-- Node8 -->
<g id="node8" class="node">
<title>Node8</title>
<g id="a_node8"><a xlink:href="abcgOpenGLExternal_8hpp.html" target="_top" xlink:title="Header file for including OpenGL&#45;related third&#45;party dependencies.">
<polygon fill="none" stroke="black" points="289,-56.5 289,-75.5 429,-75.5 429,-56.5 289,-56.5"/>
<text text-anchor="middle" x="359" y="-63.5" font-family="Helvetica,sans-Serif" font-size="10.00">abcgOpenGLExternal.hpp</text>
</a>
</g>
</g>
<!-- Node4&#45;&gt;Node8 -->
<g id="edge7" class="edge">
<title>Node4&#45;&gt;Node8</title>
<path fill="none" stroke="midnightblue" d="M472.61,-112.44C450.29,-103.52 415.1,-89.44 389.79,-79.32"/>
<polygon fill="midnightblue" stroke="midnightblue" points="390.88,-75.98 380.29,-75.52 388.28,-82.48 390.88,-75.98"/>
</g>
<!-- Node9&#45;&gt;Node2 -->
<g id="edge9" class="edge">
<title>Node9&#45;&gt;Node2</title>
<path fill="none" stroke="midnightblue" d="M100.9,-112.32C86.1,-103.82 63.31,-90.73 46.02,-80.8"/>
<polygon fill="midnightblue" stroke="midnightblue" points="47.48,-77.6 37.07,-75.65 43.99,-83.67 47.48,-77.6"/>
</g>
<!-- Node9&#45;&gt;Node3 -->
<g id="edge10" class="edge">
<title>Node9&#45;&gt;Node3</title>
<path fill="none" stroke="midnightblue" d="M132.71,-112.32C149.31,-103.7 175,-90.36 194.22,-80.39"/>
<polygon fill="midnightblue" stroke="midnightblue" points="196.07,-83.37 203.33,-75.65 192.84,-77.16 196.07,-83.37"/>
</g>
<!-- Node10 -->
<g id="node10" class="node">
<title>Node10</title>
<g id="a_node10"><a xlink:href="abcgTimer_8hpp.html" target="_top" xlink:title="Header file of abcg::Timer.">
<polygon fill="none" stroke="black" points="62.5,-56.5 62.5,-75.5 151.5,-75.5 151.5,-56.5 62.5,-56.5"/>
<text text-anchor="middle" x="107" y="-63.5" font-family="Helvetica,sans-Serif" font-size="10.00">abcgTimer.hpp</text>
</a>
</g>
</g>
<!-- Node9&#45;&gt;Node10 -->
<g id="edge11" class="edge">
<title>Node9&#45;&gt;Node10</title>
<path fill="none" stroke="midnightblue" d="M114.51,-112.08C113.32,-104.93 111.61,-94.64 110.12,-85.69"/>
<polygon fill="midnightblue" stroke="midnightblue" points="113.55,-85.04 108.46,-75.75 106.65,-86.19 113.55,-85.04"/>
</g>
<!-- Node11 -->
<g id="node11" class="node">
<title>Node11</title>
<g id="a_node11"><a xlink:title=" ">
<polygon fill="none" stroke="#bfbfbf" points="82,-0.5 82,-19.5 132,-19.5 132,-0.5 82,-0.5"/>
<text text-anchor="middle" x="107" y="-7.5" font-family="Helvetica,sans-Serif" font-size="10.00">chrono</text>
</a>
</g>
</g>
<!-- Node10&#45;&gt;Node11 -->
<g id="edge12" class="edge">
<title>Node10&#45;&gt;Node11</title>
<path fill="none" stroke="midnightblue" d="M107,-56.08C107,-49.01 107,-38.86 107,-29.99"/>
<polygon fill="midnightblue" stroke="midnightblue" points="110.5,-29.75 107,-19.75 103.5,-29.75 110.5,-29.75"/>
</g>
</g>
</svg>
