<?xml version="1.0" encoding="UTF-8" standalone="no"?>
<!DOCTYPE svg PUBLIC "-//W3C//DTD SVG 1.1//EN"
 "http://www.w3.org/Graphics/SVG/1.1/DTD/svg11.dtd">
<!-- Generated by graphviz version 2.43.0 (0)
 -->
<!-- Title: /home/harlen/dev/abcg/abcg/abcgOpenGLShader.cpp Pages: 1 -->
<svg width="1071pt" height="203pt"
 viewBox="0.00 0.00 1070.50 203.00" xmlns="http://www.w3.org/2000/svg" xmlns:xlink="http://www.w3.org/1999/xlink">
<g id="graph0" class="graph" transform="scale(1 1) rotate(0) translate(4 199)">
<title>/home/harlen/dev/abcg/abcg/abcgOpenGLShader.cpp</title>
<!-- Node1 -->
<g id="Node000001" class="node">
<title>Node1</title>
<g id="a_Node000001"><a xlink:title="Definition of helper functions for building OpenGL shaders.">
<polygon fill="#999999" stroke="#666666" points="707.5,-195 546.5,-195 546.5,-165 707.5,-165 707.5,-195"/>
<text text-anchor="start" x="554.5" y="-183" font-family="Helvetica,sans-Serif" font-size="10.00">/home/harlen/dev/abcg</text>
<text text-anchor="middle" x="627" y="-172" font-family="Helvetica,sans-Serif" font-size="10.00">/abcg/abcgOpenGLShader.cpp</text>
</a>
</g>
</g>
<!-- Node2 -->
<g id="Node000002" class="node">
<title>Node2</title>
<g id="a_Node000002"><a xlink:href="abcgOpenGLShader_8hpp.html" target="_top" xlink:title="Declaration of helper functions for building OpenGL shaders.">
<polygon fill="white" stroke="#666666" points="266,-129 134,-129 134,-110 266,-110 266,-129"/>
<text text-anchor="middle" x="200" y="-117" font-family="Helvetica,sans-Serif" font-size="10.00">abcgOpenGLShader.hpp</text>
</a>
</g>
</g>
<!-- Node1&#45;&gt;Node2 -->
<g id="edge1_Node000001_Node000002" class="edge">
<title>Node1&#45;&gt;Node2</title>
<g id="a_edge1_Node000001_Node000002"><a xlink:title=" ">
<path fill="none" stroke="#63b8ff" d="M546.43,-167.96C467.45,-157.14 348.14,-140.8 272.17,-130.39"/>
<polygon fill="#63b8ff" stroke="#63b8ff" points="272.59,-126.91 262.21,-129.02 271.64,-133.85 272.59,-126.91"/>
</a>
</g>
</g>
<!-- Node7 -->
<g id="Node000007" class="node">
<title>Node7</title>
<g id="a_Node000007"><a xlink:title=" ">
<polygon fill="#e0e0e0" stroke="#999999" points="317.5,-74 270.5,-74 270.5,-55 317.5,-55 317.5,-74"/>
<text text-anchor="middle" x="294" y="-62" font-family="Helvetica,sans-Serif" font-size="10.00">vector</text>
</a>
</g>
</g>
<!-- Node1&#45;&gt;Node7 -->
<g id="edge14_Node000001_Node000007" class="edge">
<title>Node1&#45;&gt;Node7</title>
<g id="a_edge14_Node000001_Node000007"><a xlink:title=" ">
<path fill="none" stroke="#63b8ff" d="M546.19,-175.73C464.9,-170.8 346.85,-158.63 313,-129 300.43,-118 296.01,-99.05 294.53,-84.71"/>
<polygon fill="#63b8ff" stroke="#63b8ff" points="298.01,-84.19 293.88,-74.43 291.02,-84.63 298.01,-84.19"/>
</a>
</g>
</g>
<!-- Node8 -->
<g id="Node000008" class="node">
<title>Node8</title>
<g id="a_Node000008"><a xlink:title=" ">
<polygon fill="#e0e0e0" stroke="#999999" points="461.5,-129 322.5,-129 322.5,-110 461.5,-110 461.5,-129"/>
<text text-anchor="middle" x="392" y="-117" font-family="Helvetica,sans-Serif" font-size="10.00">cppitertools/itertools.hpp</text>
</a>
</g>
</g>
<!-- Node1&#45;&gt;Node8 -->
<g id="edge7_Node000001_Node000008" class="edge">
<title>Node1&#45;&gt;Node8</title>
<g id="a_edge7_Node000001_Node000008"><a xlink:title=" ">
<path fill="none" stroke="#63b8ff" d="M570.71,-164.99C529.45,-154.72 474.22,-140.97 436.14,-131.49"/>
<polygon fill="#63b8ff" stroke="#63b8ff" points="436.91,-128.07 426.36,-129.05 435.22,-134.87 436.91,-128.07"/>
</a>
</g>
</g>
<!-- Node9 -->
<g id="Node000009" class="node">
<title>Node9</title>
<g id="a_Node000009"><a xlink:title=" ">
<polygon fill="#e0e0e0" stroke="#999999" points="546.5,-129 479.5,-129 479.5,-110 546.5,-110 546.5,-129"/>
<text text-anchor="middle" x="513" y="-117" font-family="Helvetica,sans-Serif" font-size="10.00">fmt/core.h</text>
</a>
</g>
</g>
<!-- Node1&#45;&gt;Node9 -->
<g id="edge8_Node000001_Node000009" class="edge">
<title>Node1&#45;&gt;Node9</title>
<g id="a_edge8_Node000001_Node000009"><a xlink:title=" ">
<path fill="none" stroke="#63b8ff" d="M599.69,-164.99C581.35,-155.58 557.32,-143.24 539.21,-133.95"/>
<polygon fill="#63b8ff" stroke="#63b8ff" points="540.33,-130.59 529.84,-129.14 537.13,-136.82 540.33,-130.59"/>
</a>
</g>
</g>
<!-- Node10 -->
<g id="Node000010" class="node">
<title>Node10</title>
<g id="a_Node000010"><a xlink:title=" ">
<polygon fill="#e0e0e0" stroke="#999999" points="613,-129 565,-129 565,-110 613,-110 613,-129"/>
<text text-anchor="middle" x="589" y="-117" font-family="Helvetica,sans-Serif" font-size="10.00">gsl/gsl</text>
</a>
</g>
</g>
<!-- Node1&#45;&gt;Node10 -->
<g id="edge9_Node000001_Node000010" class="edge">
<title>Node1&#45;&gt;Node10</title>
<g id="a_edge9_Node000001_Node000010"><a xlink:title=" ">
<path fill="none" stroke="#63b8ff" d="M617.8,-164.84C612.51,-156.69 605.82,-146.4 600.22,-137.78"/>
<polygon fill="#63b8ff" stroke="#63b8ff" points="603.08,-135.75 594.69,-129.27 597.21,-139.56 603.08,-135.75"/>
</a>
</g>
</g>
<!-- Node11 -->
<g id="Node000011" class="node">
<title>Node11</title>
<g id="a_Node000011"><a xlink:title=" ">
<polygon fill="#e0e0e0" stroke="#999999" points="699,-129 631,-129 631,-110 699,-110 699,-129"/>
<text text-anchor="middle" x="665" y="-117" font-family="Helvetica,sans-Serif" font-size="10.00">filesystem</text>
</a>
</g>
</g>
<!-- Node1&#45;&gt;Node11 -->
<g id="edge10_Node000001_Node000011" class="edge">
<title>Node1&#45;&gt;Node11</title>
<g id="a_edge10_Node000001_Node000011"><a xlink:title=" ">
<path fill="none" stroke="#63b8ff" d="M636.2,-164.84C641.49,-156.69 648.18,-146.4 653.78,-137.78"/>
<polygon fill="#63b8ff" stroke="#63b8ff" points="656.79,-139.56 659.31,-129.27 650.92,-135.75 656.79,-139.56"/>
</a>
</g>
</g>
<!-- Node12 -->
<g id="Node000012" class="node">
<title>Node12</title>
<g id="a_Node000012"><a xlink:title=" ">
<polygon fill="#e0e0e0" stroke="#999999" points="772.5,-129 717.5,-129 717.5,-110 772.5,-110 772.5,-129"/>
<text text-anchor="middle" x="745" y="-117" font-family="Helvetica,sans-Serif" font-size="10.00">fstream</text>
</a>
</g>
</g>
<!-- Node1&#45;&gt;Node12 -->
<g id="edge11_Node000001_Node000012" class="edge">
<title>Node1&#45;&gt;Node12</title>
<g id="a_edge11_Node000001_Node000012"><a xlink:title=" ">
<path fill="none" stroke="#63b8ff" d="M655.26,-164.99C674.42,-155.49 699.58,-143.02 718.39,-133.69"/>
<polygon fill="#63b8ff" stroke="#63b8ff" points="720.17,-136.72 727.57,-129.14 717.06,-130.45 720.17,-136.72"/>
</a>
</g>
</g>
<!-- Node13 -->
<g id="Node000013" class="node">
<title>Node13</title>
<g id="a_Node000013"><a xlink:title=" ">
<polygon fill="#e0e0e0" stroke="#999999" points="835,-129 791,-129 791,-110 835,-110 835,-129"/>
<text text-anchor="middle" x="813" y="-117" font-family="Helvetica,sans-Serif" font-size="10.00">regex</text>
</a>
</g>
</g>
<!-- Node1&#45;&gt;Node13 -->
<g id="edge12_Node000001_Node000013" class="edge">
<title>Node1&#45;&gt;Node13</title>
<g id="a_edge12_Node000001_Node000013"><a xlink:title=" ">
<path fill="none" stroke="#63b8ff" d="M671.55,-164.99C705.35,-154.36 750.98,-140 781.17,-130.51"/>
<polygon fill="#63b8ff" stroke="#63b8ff" points="782.29,-133.83 790.78,-127.49 780.19,-127.15 782.29,-133.83"/>
</a>
</g>
</g>
<!-- Node14 -->
<g id="Node000014" class="node">
<title>Node14</title>
<g id="a_Node000014"><a xlink:title=" ">
<polygon fill="#e0e0e0" stroke="#999999" points="909,-129 853,-129 853,-110 909,-110 909,-129"/>
<text text-anchor="middle" x="881" y="-117" font-family="Helvetica,sans-Serif" font-size="10.00">sstream</text>
</a>
</g>
</g>
<!-- Node1&#45;&gt;Node14 -->
<g id="edge13_Node000001_Node000014" class="edge">
<title>Node1&#45;&gt;Node14</title>
<g id="a_edge13_Node000001_Node000014"><a xlink:title=" ">
<path fill="none" stroke="#63b8ff" d="M687.84,-164.99C736.01,-153.89 801.79,-138.74 842.81,-129.3"/>
<polygon fill="#63b8ff" stroke="#63b8ff" points="843.72,-132.68 852.68,-127.02 842.15,-125.86 843.72,-132.68"/>
</a>
</g>
</g>
<!-- Node15 -->
<g id="Node000015" class="node">
<title>Node15</title>
<g id="a_Node000015"><a xlink:href="abcgException_8hpp.html" target="_top" xlink:title="Header file of abcg::Exception and derived classes.">
<polygon fill="white" stroke="#666666" points="1036.5,-129 927.5,-129 927.5,-110 1036.5,-110 1036.5,-129"/>
<text text-anchor="middle" x="982" y="-117" font-family="Helvetica,sans-Serif" font-size="10.00">abcgException.hpp</text>
</a>
</g>
</g>
<!-- Node1&#45;&gt;Node15 -->
<g id="edge15_Node000001_Node000015" class="edge">
<title>Node1&#45;&gt;Node15</title>
<g id="a_edge15_Node000001_Node000015"><a xlink:title=" ">
<path fill="none" stroke="#63b8ff" d="M707.55,-165.73C772.14,-155.08 861.44,-140.37 920.41,-130.65"/>
<polygon fill="#63b8ff" stroke="#63b8ff" points="921.03,-134.09 930.33,-129.02 919.89,-127.19 921.03,-134.09"/>
</a>
</g>
</g>
<!-- Node3 -->
<g id="Node000003" class="node">
<title>Node3</title>
<g id="a_Node000003"><a xlink:href="abcgOpenGLExternal_8hpp.html" target="_top" xlink:title="Header file for including OpenGL&#45;related third&#45;party dependencies.">
<polygon fill="white" stroke="#666666" points="140,-74 0,-74 0,-55 140,-55 140,-74"/>
<text text-anchor="middle" x="70" y="-62" font-family="Helvetica,sans-Serif" font-size="10.00">abcgOpenGLExternal.hpp</text>
</a>
</g>
</g>
<!-- Node2&#45;&gt;Node3 -->
<g id="edge2_Node000002_Node000003" class="edge">
<title>Node2&#45;&gt;Node3</title>
<g id="a_edge2_Node000002_Node000003"><a xlink:title=" ">
<path fill="none" stroke="#63b8ff" d="M179.11,-109.98C157.92,-101.34 124.87,-87.87 100.7,-78.02"/>
<polygon fill="#63b8ff" stroke="#63b8ff" points="101.85,-74.7 91.27,-74.17 99.21,-81.19 101.85,-74.7"/>
</a>
</g>
</g>
<!-- Node4 -->
<g id="Node000004" class="node">
<title>Node4</title>
<g id="a_Node000004"><a xlink:href="abcgShader_8hpp.html" target="_top" xlink:title="Declaration of a structure for building shaders.">
<polygon fill="white" stroke="#666666" points="252,-74 158,-74 158,-55 252,-55 252,-74"/>
<text text-anchor="middle" x="205" y="-62" font-family="Helvetica,sans-Serif" font-size="10.00">abcgShader.hpp</text>
</a>
</g>
</g>
<!-- Node2&#45;&gt;Node4 -->
<g id="edge3_Node000002_Node000004" class="edge">
<title>Node2&#45;&gt;Node4</title>
<g id="a_edge3_Node000002_Node000004"><a xlink:title=" ">
<path fill="none" stroke="#63b8ff" d="M200.83,-109.75C201.48,-102.8 202.42,-92.85 203.24,-84.13"/>
<polygon fill="#63b8ff" stroke="#63b8ff" points="206.73,-84.37 204.19,-74.09 199.77,-83.72 206.73,-84.37"/>
</a>
</g>
</g>
<!-- Node2&#45;&gt;Node7 -->
<g id="edge6_Node000002_Node000007" class="edge">
<title>Node2&#45;&gt;Node7</title>
<g id="a_edge6_Node000002_Node000007"><a xlink:title=" ">
<path fill="none" stroke="#63b8ff" d="M215.1,-109.98C229.82,-101.69 252.42,-88.94 269.67,-79.22"/>
<polygon fill="#63b8ff" stroke="#63b8ff" points="271.63,-82.13 278.62,-74.17 268.19,-76.03 271.63,-82.13"/>
</a>
</g>
</g>
<!-- Node5 -->
<g id="Node000005" class="node">
<title>Node5</title>
<g id="a_Node000005"><a xlink:title=" ">
<polygon fill="#e0e0e0" stroke="#999999" points="233,-19 177,-19 177,0 233,0 233,-19"/>
<text text-anchor="middle" x="205" y="-7" font-family="Helvetica,sans-Serif" font-size="10.00">optional</text>
</a>
</g>
</g>
<!-- Node4&#45;&gt;Node5 -->
<g id="edge4_Node000004_Node000005" class="edge">
<title>Node4&#45;&gt;Node5</title>
<g id="a_edge4_Node000004_Node000005"><a xlink:title=" ">
<path fill="none" stroke="#63b8ff" d="M205,-54.75C205,-47.8 205,-37.85 205,-29.13"/>
<polygon fill="#63b8ff" stroke="#63b8ff" points="208.5,-29.09 205,-19.09 201.5,-29.09 208.5,-29.09"/>
</a>
</g>
</g>
<!-- Node6 -->
<g id="Node000006" class="node">
<title>Node6</title>
<g id="a_Node000006"><a xlink:title=" ">
<polygon fill="#e0e0e0" stroke="#999999" points="563,-19 519,-19 519,0 563,0 563,-19"/>
<text text-anchor="middle" x="541" y="-7" font-family="Helvetica,sans-Serif" font-size="10.00">string</text>
</a>
</g>
</g>
<!-- Node4&#45;&gt;Node6 -->
<g id="edge5_Node000004_Node000006" class="edge">
<title>Node4&#45;&gt;Node6</title>
<g id="a_edge5_Node000004_Node000006"><a xlink:title=" ">
<path fill="none" stroke="#63b8ff" d="M252.07,-56.07C321.42,-45.14 449.24,-24.97 508.83,-15.57"/>
<polygon fill="#63b8ff" stroke="#63b8ff" points="509.47,-19.02 518.8,-14 508.38,-12.1 509.47,-19.02"/>
</a>
</g>
</g>
<!-- Node15&#45;&gt;Node6 -->
<g id="edge18_Node000015_Node000006" class="edge">
<title>Node15&#45;&gt;Node6</title>
<g id="a_edge18_Node000015_Node000006"><a xlink:title=" ">
<path fill="none" stroke="#63b8ff" d="M947.03,-109.94C863.58,-89.5 653.78,-38.12 573.21,-18.39"/>
<polygon fill="#63b8ff" stroke="#63b8ff" points="573.71,-14.91 563.16,-15.93 572.04,-21.71 573.71,-14.91"/>
</a>
</g>
</g>
<!-- Node16 -->
<g id="Node000016" class="node">
<title>Node16</title>
<g id="a_Node000016"><a xlink:title=" ">
<polygon fill="#e0e0e0" stroke="#999999" points="979.5,-74 886.5,-74 886.5,-55 979.5,-55 979.5,-74"/>
<text text-anchor="middle" x="933" y="-62" font-family="Helvetica,sans-Serif" font-size="10.00">source_location</text>
</a>
</g>
</g>
<!-- Node15&#45;&gt;Node16 -->
<g id="edge16_Node000015_Node000016" class="edge">
<title>Node15&#45;&gt;Node16</title>
<g id="a_edge16_Node000015_Node000016"><a xlink:title=" ">
<path fill="none" stroke="#63b8ff" d="M973.91,-109.75C966.84,-102.11 956.41,-90.82 947.85,-81.56"/>
<polygon fill="#63b8ff" stroke="#63b8ff" points="950.3,-79.06 940.94,-74.09 945.16,-83.81 950.3,-79.06"/>
</a>
</g>
</g>
<!-- Node17 -->
<g id="Node000017" class="node">
<title>Node17</title>
<g id="a_Node000017"><a xlink:title=" ">
<polygon fill="#e0e0e0" stroke="#999999" points="1062.5,-74 997.5,-74 997.5,-55 1062.5,-55 1062.5,-74"/>
<text text-anchor="middle" x="1030" y="-62" font-family="Helvetica,sans-Serif" font-size="10.00">stdexcept</text>
</a>
</g>
</g>
<!-- Node15&#45;&gt;Node17 -->
<g id="edge17_Node000015_Node000017" class="edge">
<title>Node15&#45;&gt;Node17</title>
<g id="a_edge17_Node000015_Node000017"><a xlink:title=" ">
<path fill="none" stroke="#63b8ff" d="M989.93,-109.75C996.85,-102.11 1007.07,-90.82 1015.45,-81.56"/>
<polygon fill="#63b8ff" stroke="#63b8ff" points="1018.1,-83.85 1022.22,-74.09 1012.91,-79.15 1018.1,-83.85"/>
</a>
</g>
</g>
</g>
</svg>
