<?xml version="1.0" encoding="UTF-8" standalone="no"?>
<!DOCTYPE svg PUBLIC "-//W3C//DTD SVG 1.1//EN"
 "http://www.w3.org/Graphics/SVG/1.1/DTD/svg11.dtd">
<!-- Generated by graphviz version 2.43.0 (0)
 -->
<!-- Title: /home/harlen/dev/abcg/abcg/abcgVulkanError.cpp Pages: 1 -->
<svg width="472pt" height="203pt"
 viewBox="0.00 0.00 471.61 203.00" xmlns="http://www.w3.org/2000/svg" xmlns:xlink="http://www.w3.org/1999/xlink">
<g id="graph0" class="graph" transform="scale(1 1) rotate(0) translate(4 199)">
<title>/home/harlen/dev/abcg/abcg/abcgVulkanError.cpp</title>
<!-- Node1 -->
<g id="Node000001" class="node">
<title>Node1</title>
<g id="a_Node000001"><a xlink:title="Definition of abcg::VulkanError members.">
<polygon fill="#999999" stroke="#666666" points="411.11,-195 267.11,-195 267.11,-165 411.11,-165 411.11,-195"/>
<text text-anchor="start" x="275.11" y="-183" font-family="Helvetica,sans-Serif" font-size="10.00">/home/harlen/dev/abcg</text>
<text text-anchor="middle" x="339.11" y="-172" font-family="Helvetica,sans-Serif" font-size="10.00">/abcg/abcgVulkanError.cpp</text>
</a>
</g>
</g>
<!-- Node2 -->
<g id="Node000002" class="node">
<title>Node2</title>
<g id="a_Node000002"><a xlink:href="abcgVulkanError_8hpp.html" target="_top" xlink:title="Header file of abcg::VulkanError and derived classes.">
<polygon fill="white" stroke="#666666" points="189.11,-129 73.11,-129 73.11,-110 189.11,-110 189.11,-129"/>
<text text-anchor="middle" x="131.11" y="-117" font-family="Helvetica,sans-Serif" font-size="10.00">abcgVulkanError.hpp</text>
</a>
</g>
</g>
<!-- Node1&#45;&gt;Node2 -->
<g id="edge1_Node000001_Node000002" class="edge">
<title>Node1&#45;&gt;Node2</title>
<g id="a_edge1_Node000001_Node000002"><a xlink:title=" ">
<path fill="none" stroke="#63b8ff" d="M289.29,-164.99C253.24,-154.85 205.13,-141.32 171.48,-131.85"/>
<polygon fill="#63b8ff" stroke="#63b8ff" points="172.1,-128.39 161.52,-129.05 170.2,-135.13 172.1,-128.39"/>
</a>
</g>
</g>
<!-- Node9 -->
<g id="Node000009" class="node">
<title>Node9</title>
<g id="a_Node000009"><a xlink:href="abcgUtil_8hpp.html" target="_top" xlink:title="Declaration of general utility functions.">
<polygon fill="white" stroke="#666666" points="378.11,-129 300.11,-129 300.11,-110 378.11,-110 378.11,-129"/>
<text text-anchor="middle" x="339.11" y="-117" font-family="Helvetica,sans-Serif" font-size="10.00">abcgUtil.hpp</text>
</a>
</g>
</g>
<!-- Node1&#45;&gt;Node9 -->
<g id="edge9_Node000001_Node000009" class="edge">
<title>Node1&#45;&gt;Node9</title>
<g id="a_edge9_Node000001_Node000009"><a xlink:title=" ">
<path fill="none" stroke="#63b8ff" d="M339.11,-164.84C339.11,-157.21 339.11,-147.7 339.11,-139.45"/>
<polygon fill="#63b8ff" stroke="#63b8ff" points="342.61,-139.27 339.11,-129.27 335.61,-139.27 342.61,-139.27"/>
</a>
</g>
</g>
<!-- Node11 -->
<g id="Node000011" class="node">
<title>Node11</title>
<g id="a_Node000011"><a xlink:title=" ">
<polygon fill="#e0e0e0" stroke="#999999" points="463.61,-129 396.61,-129 396.61,-110 463.61,-110 463.61,-129"/>
<text text-anchor="middle" x="430.11" y="-117" font-family="Helvetica,sans-Serif" font-size="10.00">fmt/core.h</text>
</a>
</g>
</g>
<!-- Node1&#45;&gt;Node11 -->
<g id="edge12_Node000001_Node000011" class="edge">
<title>Node1&#45;&gt;Node11</title>
<g id="a_edge12_Node000001_Node000011"><a xlink:title=" ">
<path fill="none" stroke="#63b8ff" d="M361.14,-164.84C375.38,-155.68 393.84,-143.82 408.08,-134.66"/>
<polygon fill="#63b8ff" stroke="#63b8ff" points="410.22,-137.45 416.74,-129.09 406.44,-131.56 410.22,-137.45"/>
</a>
</g>
</g>
<!-- Node3 -->
<g id="Node000003" class="node">
<title>Node3</title>
<g id="a_Node000003"><a xlink:title=" ">
<polygon fill="#e0e0e0" stroke="#999999" points="118.61,-19 25.61,-19 25.61,0 118.61,0 118.61,-19"/>
<text text-anchor="middle" x="72.11" y="-7" font-family="Helvetica,sans-Serif" font-size="10.00">source_location</text>
</a>
</g>
</g>
<!-- Node2&#45;&gt;Node3 -->
<g id="edge2_Node000002_Node000003" class="edge">
<title>Node2&#45;&gt;Node3</title>
<g id="a_edge2_Node000002_Node000003"><a xlink:title=" ">
<path fill="none" stroke="#63b8ff" d="M73.1,-113.04C47.57,-107.41 19.86,-96.2 4.11,-74 -10.16,-53.88 16.8,-35.16 40.87,-23.34"/>
<polygon fill="#63b8ff" stroke="#63b8ff" points="42.61,-26.39 50.2,-19.01 39.66,-20.04 42.61,-26.39"/>
</a>
</g>
</g>
<!-- Node4 -->
<g id="Node000004" class="node">
<title>Node4</title>
<g id="a_Node000004"><a xlink:title=" ">
<polygon fill="#e0e0e0" stroke="#999999" points="60.61,-74 13.61,-74 13.61,-55 60.61,-55 60.61,-74"/>
<text text-anchor="middle" x="37.11" y="-62" font-family="Helvetica,sans-Serif" font-size="10.00">volk.h</text>
</a>
</g>
</g>
<!-- Node2&#45;&gt;Node4 -->
<g id="edge3_Node000002_Node000004" class="edge">
<title>Node2&#45;&gt;Node4</title>
<g id="a_edge3_Node000002_Node000004"><a xlink:title=" ">
<path fill="none" stroke="#63b8ff" d="M116.01,-109.98C101.29,-101.69 78.69,-88.94 61.44,-79.22"/>
<polygon fill="#63b8ff" stroke="#63b8ff" points="62.92,-76.03 52.49,-74.17 59.48,-82.13 62.92,-76.03"/>
</a>
</g>
</g>
<!-- Node5 -->
<g id="Node000005" class="node">
<title>Node5</title>
<g id="a_Node000005"><a xlink:title=" ">
<polygon fill="#e0e0e0" stroke="#999999" points="183.61,-74 78.61,-74 78.61,-55 183.61,-55 183.61,-74"/>
<text text-anchor="middle" x="131.11" y="-62" font-family="Helvetica,sans-Serif" font-size="10.00">vulkan/vulkan.hpp</text>
</a>
</g>
</g>
<!-- Node2&#45;&gt;Node5 -->
<g id="edge4_Node000002_Node000005" class="edge">
<title>Node2&#45;&gt;Node5</title>
<g id="a_edge4_Node000002_Node000005"><a xlink:title=" ">
<path fill="none" stroke="#63b8ff" d="M131.11,-109.75C131.11,-102.8 131.11,-92.85 131.11,-84.13"/>
<polygon fill="#63b8ff" stroke="#63b8ff" points="134.61,-84.09 131.11,-74.09 127.61,-84.09 134.61,-84.09"/>
</a>
</g>
</g>
<!-- Node6 -->
<g id="Node000006" class="node">
<title>Node6</title>
<g id="a_Node000006"><a xlink:href="abcgException_8hpp.html" target="_top" xlink:title="Header file of abcg::Exception and derived classes.">
<polygon fill="white" stroke="#666666" points="310.61,-74 201.61,-74 201.61,-55 310.61,-55 310.61,-74"/>
<text text-anchor="middle" x="256.11" y="-62" font-family="Helvetica,sans-Serif" font-size="10.00">abcgException.hpp</text>
</a>
</g>
</g>
<!-- Node2&#45;&gt;Node6 -->
<g id="edge5_Node000002_Node000006" class="edge">
<title>Node2&#45;&gt;Node6</title>
<g id="a_edge5_Node000002_Node000006"><a xlink:title=" ">
<path fill="none" stroke="#63b8ff" d="M151.19,-109.98C171.48,-101.38 203.07,-87.99 226.28,-78.15"/>
<polygon fill="#63b8ff" stroke="#63b8ff" points="227.82,-81.3 235.66,-74.17 225.09,-74.85 227.82,-81.3"/>
</a>
</g>
</g>
<!-- Node6&#45;&gt;Node3 -->
<g id="edge6_Node000006_Node000003" class="edge">
<title>Node6&#45;&gt;Node3</title>
<g id="a_edge6_Node000006_Node000003"><a xlink:title=" ">
<path fill="none" stroke="#63b8ff" d="M226.55,-54.98C195.39,-46.01 146.14,-31.82 111.65,-21.89"/>
<polygon fill="#63b8ff" stroke="#63b8ff" points="112.48,-18.49 101.9,-19.08 110.55,-25.21 112.48,-18.49"/>
</a>
</g>
</g>
<!-- Node7 -->
<g id="Node000007" class="node">
<title>Node7</title>
<g id="a_Node000007"><a xlink:title=" ">
<polygon fill="#e0e0e0" stroke="#999999" points="288.61,-19 223.61,-19 223.61,0 288.61,0 288.61,-19"/>
<text text-anchor="middle" x="256.11" y="-7" font-family="Helvetica,sans-Serif" font-size="10.00">stdexcept</text>
</a>
</g>
</g>
<!-- Node6&#45;&gt;Node7 -->
<g id="edge7_Node000006_Node000007" class="edge">
<title>Node6&#45;&gt;Node7</title>
<g id="a_edge7_Node000006_Node000007"><a xlink:title=" ">
<path fill="none" stroke="#63b8ff" d="M256.11,-54.75C256.11,-47.8 256.11,-37.85 256.11,-29.13"/>
<polygon fill="#63b8ff" stroke="#63b8ff" points="259.61,-29.09 256.11,-19.09 252.61,-29.09 259.61,-29.09"/>
</a>
</g>
</g>
<!-- Node8 -->
<g id="Node000008" class="node">
<title>Node8</title>
<g id="a_Node000008"><a xlink:title=" ">
<polygon fill="#e0e0e0" stroke="#999999" points="356.11,-19 312.11,-19 312.11,0 356.11,0 356.11,-19"/>
<text text-anchor="middle" x="334.11" y="-7" font-family="Helvetica,sans-Serif" font-size="10.00">string</text>
</a>
</g>
</g>
<!-- Node6&#45;&gt;Node8 -->
<g id="edge8_Node000006_Node000008" class="edge">
<title>Node6&#45;&gt;Node8</title>
<g id="a_edge8_Node000006_Node000008"><a xlink:title=" ">
<path fill="none" stroke="#63b8ff" d="M268.64,-54.98C280.51,-46.92 298.57,-34.65 312.72,-25.03"/>
<polygon fill="#63b8ff" stroke="#63b8ff" points="315.05,-27.69 321.35,-19.17 311.11,-21.9 315.05,-27.69"/>
</a>
</g>
</g>
<!-- Node9&#45;&gt;Node8 -->
<g id="edge11_Node000009_Node000008" class="edge">
<title>Node9&#45;&gt;Node8</title>
<g id="a_edge11_Node000009_Node000008"><a xlink:title=" ">
<path fill="none" stroke="#63b8ff" d="M338.7,-109.66C337.89,-92.17 336.07,-52.8 334.98,-29.27"/>
<polygon fill="#63b8ff" stroke="#63b8ff" points="338.47,-28.99 334.51,-19.16 331.48,-29.31 338.47,-28.99"/>
</a>
</g>
</g>
<!-- Node10 -->
<g id="Node000010" class="node">
<title>Node10</title>
<g id="a_Node000010"><a xlink:title=" ">
<polygon fill="#e0e0e0" stroke="#999999" points="432.61,-74 367.61,-74 367.61,-55 432.61,-55 432.61,-74"/>
<text text-anchor="middle" x="400.11" y="-62" font-family="Helvetica,sans-Serif" font-size="10.00">functional</text>
</a>
</g>
</g>
<!-- Node9&#45;&gt;Node10 -->
<g id="edge10_Node000009_Node000010" class="edge">
<title>Node9&#45;&gt;Node10</title>
<g id="a_edge10_Node000009_Node000010"><a xlink:title=" ">
<path fill="none" stroke="#63b8ff" d="M348.91,-109.98C357.93,-102.15 371.52,-90.34 382.43,-80.86"/>
<polygon fill="#63b8ff" stroke="#63b8ff" points="384.88,-83.37 390.13,-74.17 380.29,-78.09 384.88,-83.37"/>
</a>
</g>
</g>
</g>
</svg>
