<?xml version="1.0" encoding="UTF-8" standalone="no"?>
<!DOCTYPE svg PUBLIC "-//W3C//DTD SVG 1.1//EN"
 "http://www.w3.org/Graphics/SVG/1.1/DTD/svg11.dtd">
<!-- Generated by graphviz version 2.43.0 (0)
 -->
<!-- Title: /home/harlen/dev/abcg2/abcg/abcg_vulkan_error.cpp Pages: 1 -->
<svg width="324pt" height="207pt"
 viewBox="0.00 0.00 324.41 207.00" xmlns="http://www.w3.org/2000/svg" xmlns:xlink="http://www.w3.org/1999/xlink">
<g id="graph0" class="graph" transform="scale(1 1) rotate(0) translate(4 203)">
<title>/home/harlen/dev/abcg2/abcg/abcg_vulkan_error.cpp</title>
<!-- Node1 -->
<g id="node1" class="node">
<title>Node1</title>
<g id="a_node1"><a xlink:title="Definition of abcg::VulkanError members.">
<polygon fill="#bfbfbf" stroke="black" points="62.91,-168.5 62.91,-198.5 217.91,-198.5 217.91,-168.5 62.91,-168.5"/>
<text text-anchor="start" x="70.91" y="-186.5" font-family="Helvetica,sans-Serif" font-size="10.00">/home/harlen/dev/abcg2</text>
<text text-anchor="middle" x="140.41" y="-175.5" font-family="Helvetica,sans-Serif" font-size="10.00">/abcg/abcg_vulkan_error.cpp</text>
</a>
</g>
</g>
<!-- Node2 -->
<g id="node2" class="node">
<title>Node2</title>
<g id="a_node2"><a xlink:href="abcg__vulkan__error_8hpp.html" target="_top" xlink:title="Header file of abcg::VulkanError and derived classes.">
<polygon fill="none" stroke="black" points="20.41,-112.5 20.41,-131.5 146.41,-131.5 146.41,-112.5 20.41,-112.5"/>
<text text-anchor="middle" x="83.41" y="-119.5" font-family="Helvetica,sans-Serif" font-size="10.00">abcg_vulkan_error.hpp</text>
</a>
</g>
</g>
<!-- Node1&#45;&gt;Node2 -->
<g id="edge1" class="edge">
<title>Node1&#45;&gt;Node2</title>
<path fill="none" stroke="midnightblue" d="M126.9,-168.4C118.44,-159.58 107.53,-148.18 98.75,-139.02"/>
<polygon fill="midnightblue" stroke="midnightblue" points="101.15,-136.46 91.7,-131.66 96.09,-141.3 101.15,-136.46"/>
</g>
<!-- Node9 -->
<g id="node9" class="node">
<title>Node9</title>
<g id="a_node9"><a xlink:title=" ">
<polygon fill="none" stroke="#bfbfbf" points="164.91,-112.5 164.91,-131.5 231.91,-131.5 231.91,-112.5 164.91,-112.5"/>
<text text-anchor="middle" x="198.41" y="-119.5" font-family="Helvetica,sans-Serif" font-size="10.00">fmt/core.h</text>
</a>
</g>
</g>
<!-- Node1&#45;&gt;Node9 -->
<g id="edge9" class="edge">
<title>Node1&#45;&gt;Node9</title>
<path fill="none" stroke="midnightblue" d="M154.15,-168.4C162.75,-159.58 173.86,-148.18 182.79,-139.02"/>
<polygon fill="midnightblue" stroke="midnightblue" points="185.49,-141.26 189.97,-131.66 180.48,-136.38 185.49,-141.26"/>
</g>
<!-- Node3 -->
<g id="node3" class="node">
<title>Node3</title>
<g id="a_node3"><a xlink:title=" ">
<polygon fill="none" stroke="#bfbfbf" points="25.91,-0.5 25.91,-19.5 118.91,-19.5 118.91,-0.5 25.91,-0.5"/>
<text text-anchor="middle" x="72.41" y="-7.5" font-family="Helvetica,sans-Serif" font-size="10.00">source_location</text>
</a>
</g>
</g>
<!-- Node2&#45;&gt;Node3 -->
<g id="edge2" class="edge">
<title>Node2&#45;&gt;Node3</title>
<path fill="none" stroke="midnightblue" d="M53.16,-112.49C35.28,-105.73 14.11,-94.29 3.41,-76 -9.21,-54.43 17.42,-35.58 41.17,-23.81"/>
<polygon fill="midnightblue" stroke="midnightblue" points="42.8,-26.91 50.38,-19.51 39.84,-20.57 42.8,-26.91"/>
</g>
<!-- Node4 -->
<g id="node4" class="node">
<title>Node4</title>
<g id="a_node4"><a xlink:title=" ">
<polygon fill="none" stroke="#bfbfbf" points="12.91,-56.5 12.91,-75.5 59.91,-75.5 59.91,-56.5 12.91,-56.5"/>
<text text-anchor="middle" x="36.41" y="-63.5" font-family="Helvetica,sans-Serif" font-size="10.00">volk.h</text>
</a>
</g>
</g>
<!-- Node2&#45;&gt;Node4 -->
<g id="edge3" class="edge">
<title>Node2&#45;&gt;Node4</title>
<path fill="none" stroke="midnightblue" d="M75.65,-112.08C68.87,-104.3 58.86,-92.8 50.65,-83.37"/>
<polygon fill="midnightblue" stroke="midnightblue" points="53.23,-81 44.02,-75.75 47.95,-85.59 53.23,-81"/>
</g>
<!-- Node5 -->
<g id="node5" class="node">
<title>Node5</title>
<g id="a_node5"><a xlink:title=" ">
<polygon fill="none" stroke="#bfbfbf" points="77.91,-56.5 77.91,-75.5 182.91,-75.5 182.91,-56.5 77.91,-56.5"/>
<text text-anchor="middle" x="130.41" y="-63.5" font-family="Helvetica,sans-Serif" font-size="10.00">vulkan/vulkan.hpp</text>
</a>
</g>
</g>
<!-- Node2&#45;&gt;Node5 -->
<g id="edge4" class="edge">
<title>Node2&#45;&gt;Node5</title>
<path fill="none" stroke="midnightblue" d="M91.17,-112.08C97.94,-104.3 107.95,-92.8 116.16,-83.37"/>
<polygon fill="midnightblue" stroke="midnightblue" points="118.86,-85.59 122.79,-75.75 113.58,-81 118.86,-85.59"/>
</g>
<!-- Node6 -->
<g id="node6" class="node">
<title>Node6</title>
<g id="a_node6"><a xlink:href="abcg__exception_8hpp.html" target="_top" xlink:title="Header file of abcg::Exception and derived classes.">
<polygon fill="none" stroke="black" points="201.41,-56.5 201.41,-75.5 315.41,-75.5 315.41,-56.5 201.41,-56.5"/>
<text text-anchor="middle" x="258.41" y="-63.5" font-family="Helvetica,sans-Serif" font-size="10.00">abcg_exception.hpp</text>
</a>
</g>
</g>
<!-- Node2&#45;&gt;Node6 -->
<g id="edge5" class="edge">
<title>Node2&#45;&gt;Node6</title>
<path fill="none" stroke="midnightblue" d="M111.14,-112.44C140.83,-103.28 188.12,-88.69 221.08,-78.52"/>
<polygon fill="midnightblue" stroke="midnightblue" points="222.28,-81.81 230.81,-75.52 220.22,-75.12 222.28,-81.81"/>
</g>
<!-- Node6&#45;&gt;Node3 -->
<g id="edge6" class="edge">
<title>Node6&#45;&gt;Node3</title>
<path fill="none" stroke="midnightblue" d="M228.93,-56.44C197.24,-47.24 146.67,-32.56 111.63,-22.39"/>
<polygon fill="midnightblue" stroke="midnightblue" points="112.32,-18.94 101.74,-19.52 110.37,-25.67 112.32,-18.94"/>
</g>
<!-- Node7 -->
<g id="node7" class="node">
<title>Node7</title>
<g id="a_node7"><a xlink:title=" ">
<polygon fill="none" stroke="#bfbfbf" points="188.91,-0.5 188.91,-19.5 253.91,-19.5 253.91,-0.5 188.91,-0.5"/>
<text text-anchor="middle" x="221.41" y="-7.5" font-family="Helvetica,sans-Serif" font-size="10.00">stdexcept</text>
</a>
</g>
</g>
<!-- Node6&#45;&gt;Node7 -->
<g id="edge7" class="edge">
<title>Node6&#45;&gt;Node7</title>
<path fill="none" stroke="midnightblue" d="M252.3,-56.08C247.12,-48.53 239.56,-37.49 233.21,-28.23"/>
<polygon fill="midnightblue" stroke="midnightblue" points="235.94,-26.02 227.4,-19.75 230.17,-29.98 235.94,-26.02"/>
</g>
<!-- Node8 -->
<g id="node8" class="node">
<title>Node8</title>
<g id="a_node8"><a xlink:title=" ">
<polygon fill="none" stroke="#bfbfbf" points="272.41,-0.5 272.41,-19.5 316.41,-19.5 316.41,-0.5 272.41,-0.5"/>
<text text-anchor="middle" x="294.41" y="-7.5" font-family="Helvetica,sans-Serif" font-size="10.00">string</text>
</a>
</g>
</g>
<!-- Node6&#45;&gt;Node8 -->
<g id="edge8" class="edge">
<title>Node6&#45;&gt;Node8</title>
<path fill="none" stroke="midnightblue" d="M264.35,-56.08C269.38,-48.53 276.74,-37.49 282.92,-28.23"/>
<polygon fill="midnightblue" stroke="midnightblue" points="285.94,-30.01 288.57,-19.75 280.11,-26.13 285.94,-30.01"/>
</g>
</g>
</svg>
