<?xml version="1.0" encoding="UTF-8" standalone="no"?>
<!DOCTYPE svg PUBLIC "-//W3C//DTD SVG 1.1//EN"
 "http://www.w3.org/Graphics/SVG/1.1/DTD/svg11.dtd">
<!-- Generated by graphviz version 2.43.0 (0)
 -->
<!-- Title: /home/harlen/dev/abcg/abcg/abcgWindow.hpp Pages: 1 -->
<svg width="1050pt" height="240pt"
 viewBox="0.00 0.00 1050.00 240.00" xmlns="http://www.w3.org/2000/svg" xmlns:xlink="http://www.w3.org/1999/xlink">
<g id="graph0" class="graph" transform="scale(1 1) rotate(0) translate(4 236)">
<title>/home/harlen/dev/abcg/abcg/abcgWindow.hpp</title>
<!-- Node1 -->
<g id="node1" class="node">
<title>Node1</title>
<g id="a_node1"><a xlink:title="Header file of abcg::Window.">
<polygon fill="#bfbfbf" stroke="black" points="351.5,-201.5 351.5,-231.5 479.5,-231.5 479.5,-201.5 351.5,-201.5"/>
<text text-anchor="start" x="359.5" y="-219.5" font-family="Helvetica,sans-Serif" font-size="10.00">/home/harlen/dev/abcg</text>
<text text-anchor="middle" x="415.5" y="-208.5" font-family="Helvetica,sans-Serif" font-size="10.00">/abcg/abcgWindow.hpp</text>
</a>
</g>
</g>
<!-- Node2 -->
<g id="node2" class="node">
<title>Node2</title>
<g id="a_node2"><a xlink:href="abcg_8hpp.html" target="_top" xlink:title="Shortcut header that includes the most common ABCg headers.">
<polygon fill="none" stroke="black" points="240.5,-134.5 240.5,-164.5 368.5,-164.5 368.5,-134.5 240.5,-134.5"/>
<text text-anchor="start" x="248.5" y="-152.5" font-family="Helvetica,sans-Serif" font-size="10.00">/home/harlen/dev/abcg</text>
<text text-anchor="middle" x="304.5" y="-141.5" font-family="Helvetica,sans-Serif" font-size="10.00">/abcg/abcg.hpp</text>
</a>
</g>
</g>
<!-- Node1&#45;&gt;Node2 -->
<g id="edge1" class="edge">
<title>Node1&#45;&gt;Node2</title>
<path fill="none" stroke="midnightblue" d="M382.7,-196.3C365.34,-186.12 344.38,-173.85 328.54,-164.58"/>
<polygon fill="midnightblue" stroke="midnightblue" points="381.02,-199.36 391.41,-201.4 384.55,-193.32 381.02,-199.36"/>
</g>
<!-- Node5 -->
<g id="node5" class="node">
<title>Node5</title>
<g id="a_node5"><a xlink:href="abcgVulkanInstance_8cpp.html" target="_top" xlink:title="Definition of abcg::VulkanInstance.">
<polygon fill="none" stroke="black" points="261,-0.5 261,-30.5 424,-30.5 424,-0.5 261,-0.5"/>
<text text-anchor="start" x="269" y="-18.5" font-family="Helvetica,sans-Serif" font-size="10.00">/home/harlen/dev/abcg</text>
<text text-anchor="middle" x="342.5" y="-7.5" font-family="Helvetica,sans-Serif" font-size="10.00">/abcg/abcgVulkanInstance.cpp</text>
</a>
</g>
</g>
<!-- Node1&#45;&gt;Node5 -->
<g id="edge11" class="edge">
<title>Node1&#45;&gt;Node5</title>
<path fill="none" stroke="midnightblue" d="M404.57,-192.03C389.27,-159.14 363.14,-102.79 361.5,-98 353.59,-74.91 347.88,-47.03 344.89,-30.58"/>
<polygon fill="midnightblue" stroke="midnightblue" points="401.54,-193.82 408.93,-201.4 407.88,-190.86 401.54,-193.82"/>
</g>
<!-- Node7 -->
<g id="node7" class="node">
<title>Node7</title>
<g id="a_node7"><a xlink:href="abcgApplication_8cpp.html" target="_top" xlink:title="Definition of abcg::Application members.">
<polygon fill="none" stroke="black" points="642.5,-134.5 642.5,-164.5 786.5,-164.5 786.5,-134.5 642.5,-134.5"/>
<text text-anchor="start" x="650.5" y="-152.5" font-family="Helvetica,sans-Serif" font-size="10.00">/home/harlen/dev/abcg</text>
<text text-anchor="middle" x="714.5" y="-141.5" font-family="Helvetica,sans-Serif" font-size="10.00">/abcg/abcgApplication.cpp</text>
</a>
</g>
</g>
<!-- Node1&#45;&gt;Node7 -->
<g id="edge6" class="edge">
<title>Node1&#45;&gt;Node7</title>
<path fill="none" stroke="midnightblue" d="M489.6,-199.39C538.82,-188.69 602.81,-174.78 649.95,-164.53"/>
<polygon fill="midnightblue" stroke="midnightblue" points="488.67,-196.01 479.64,-201.56 490.16,-202.85 488.67,-196.01"/>
</g>
<!-- Node8 -->
<g id="node8" class="node">
<title>Node8</title>
<g id="a_node8"><a xlink:href="abcgOpenGLWindow_8cpp.html" target="_top" xlink:title="Definition of abcg::OpenGLWindow members.">
<polygon fill="none" stroke="black" points="0,-67.5 0,-97.5 165,-97.5 165,-67.5 0,-67.5"/>
<text text-anchor="start" x="8" y="-85.5" font-family="Helvetica,sans-Serif" font-size="10.00">/home/harlen/dev/abcg</text>
<text text-anchor="middle" x="82.5" y="-74.5" font-family="Helvetica,sans-Serif" font-size="10.00">/abcg/abcgOpenGLWindow.cpp</text>
</a>
</g>
</g>
<!-- Node1&#45;&gt;Node8 -->
<g id="edge7" class="edge">
<title>Node1&#45;&gt;Node8</title>
<path fill="none" stroke="midnightblue" d="M341.21,-216.32C244.9,-215.61 84.82,-207.79 47.5,-165 30.09,-145.04 51.87,-115.11 68.04,-97.62"/>
<polygon fill="midnightblue" stroke="midnightblue" points="341.46,-219.82 351.48,-216.37 341.5,-212.82 341.46,-219.82"/>
</g>
<!-- Node9 -->
<g id="node9" class="node">
<title>Node9</title>
<g id="a_node9"><a xlink:href="abcgOpenGLWindow_8hpp.html" target="_top" xlink:title="Header file of abcg::OpenGLWindow.">
<polygon fill="none" stroke="black" points="56.5,-134.5 56.5,-164.5 222.5,-164.5 222.5,-134.5 56.5,-134.5"/>
<text text-anchor="start" x="64.5" y="-152.5" font-family="Helvetica,sans-Serif" font-size="10.00">/home/harlen/dev/abcg</text>
<text text-anchor="middle" x="139.5" y="-141.5" font-family="Helvetica,sans-Serif" font-size="10.00">/abcg/abcgOpenGLWindow.hpp</text>
</a>
</g>
</g>
<!-- Node1&#45;&gt;Node9 -->
<g id="edge8" class="edge">
<title>Node1&#45;&gt;Node9</title>
<path fill="none" stroke="midnightblue" d="M345.94,-199.12C300.78,-188.48 242.52,-174.76 199.42,-164.61"/>
<polygon fill="midnightblue" stroke="midnightblue" points="345.42,-202.59 355.95,-201.48 347.02,-195.78 345.42,-202.59"/>
</g>
<!-- Node10 -->
<g id="node10" class="node">
<title>Node10</title>
<g id="a_node10"><a xlink:href="abcgVulkanWindow_8cpp.html" target="_top" xlink:title="Definition of abcg::VulkanWindow members.">
<polygon fill="none" stroke="black" points="516.5,-67.5 516.5,-97.5 676.5,-97.5 676.5,-67.5 516.5,-67.5"/>
<text text-anchor="start" x="524.5" y="-85.5" font-family="Helvetica,sans-Serif" font-size="10.00">/home/harlen/dev/abcg</text>
<text text-anchor="middle" x="596.5" y="-74.5" font-family="Helvetica,sans-Serif" font-size="10.00">/abcg/abcgVulkanWindow.cpp</text>
</a>
</g>
</g>
<!-- Node1&#45;&gt;Node10 -->
<g id="edge12" class="edge">
<title>Node1&#45;&gt;Node10</title>
<path fill="none" stroke="midnightblue" d="M421.23,-191.57C426.71,-173.49 436.69,-149.26 453.5,-134 472.7,-116.57 498.3,-105.08 522.53,-97.53"/>
<polygon fill="midnightblue" stroke="midnightblue" points="417.81,-190.82 418.51,-201.39 424.55,-192.69 417.81,-190.82"/>
</g>
<!-- Node11 -->
<g id="node11" class="node">
<title>Node11</title>
<g id="a_node11"><a xlink:href="abcgVulkanWindow_8hpp.html" target="_top" xlink:title="Header file of abcg::VulkanWindow.">
<polygon fill="none" stroke="black" points="463,-134.5 463,-164.5 624,-164.5 624,-134.5 463,-134.5"/>
<text text-anchor="start" x="471" y="-152.5" font-family="Helvetica,sans-Serif" font-size="10.00">/home/harlen/dev/abcg</text>
<text text-anchor="middle" x="543.5" y="-141.5" font-family="Helvetica,sans-Serif" font-size="10.00">/abcg/abcgVulkanWindow.hpp</text>
</a>
</g>
</g>
<!-- Node1&#45;&gt;Node11 -->
<g id="edge13" class="edge">
<title>Node1&#45;&gt;Node11</title>
<path fill="none" stroke="midnightblue" d="M452.22,-196.85C472.46,-186.58 497.17,-174.03 515.78,-164.58"/>
<polygon fill="midnightblue" stroke="midnightblue" points="450.61,-193.75 443.27,-201.4 453.78,-199.99 450.61,-193.75"/>
</g>
<!-- Node14 -->
<g id="node14" class="node">
<title>Node14</title>
<g id="a_node14"><a xlink:href="abcgWindow_8cpp.html" target="_top" xlink:title="Definition of abcg::Window members.">
<polygon fill="none" stroke="black" points="804.5,-134.5 804.5,-164.5 932.5,-164.5 932.5,-134.5 804.5,-134.5"/>
<text text-anchor="start" x="812.5" y="-152.5" font-family="Helvetica,sans-Serif" font-size="10.00">/home/harlen/dev/abcg</text>
<text text-anchor="middle" x="868.5" y="-141.5" font-family="Helvetica,sans-Serif" font-size="10.00">/abcg/abcgWindow.cpp</text>
</a>
</g>
</g>
<!-- Node1&#45;&gt;Node14 -->
<g id="edge18" class="edge">
<title>Node1&#45;&gt;Node14</title>
<path fill="none" stroke="midnightblue" d="M489.61,-207.07C566.35,-198.02 689.62,-182.53 795.5,-165 798.43,-164.51 801.43,-164 804.45,-163.46"/>
<polygon fill="midnightblue" stroke="midnightblue" points="489.08,-203.61 479.56,-208.25 489.9,-210.56 489.08,-203.61"/>
</g>
<!-- Node3 -->
<g id="node3" class="node">
<title>Node3</title>
<g id="a_node3"><a xlink:href="abcgOpenGL_8hpp.html" target="_top" xlink:title="Header file for OpenGL&#45;related functions and classes.">
<polygon fill="none" stroke="black" points="185.5,-67.5 185.5,-97.5 313.5,-97.5 313.5,-67.5 185.5,-67.5"/>
<text text-anchor="start" x="193.5" y="-85.5" font-family="Helvetica,sans-Serif" font-size="10.00">/home/harlen/dev/abcg</text>
<text text-anchor="middle" x="249.5" y="-74.5" font-family="Helvetica,sans-Serif" font-size="10.00">/abcg/abcgOpenGL.hpp</text>
</a>
</g>
</g>
<!-- Node2&#45;&gt;Node3 -->
<g id="edge2" class="edge">
<title>Node2&#45;&gt;Node3</title>
<path fill="none" stroke="midnightblue" d="M286.08,-126.74C277.95,-117.12 268.61,-106.09 261.41,-97.58"/>
<polygon fill="midnightblue" stroke="midnightblue" points="283.43,-129.02 292.57,-134.4 288.78,-124.5 283.43,-129.02"/>
</g>
<!-- Node4 -->
<g id="node4" class="node">
<title>Node4</title>
<g id="a_node4"><a xlink:href="abcgVulkan_8hpp.html" target="_top" xlink:title="Header file for Vulkan&#45;related functions and classes.">
<polygon fill="none" stroke="black" points="370.5,-67.5 370.5,-97.5 498.5,-97.5 498.5,-67.5 370.5,-67.5"/>
<text text-anchor="start" x="378.5" y="-85.5" font-family="Helvetica,sans-Serif" font-size="10.00">/home/harlen/dev/abcg</text>
<text text-anchor="middle" x="434.5" y="-74.5" font-family="Helvetica,sans-Serif" font-size="10.00">/abcg/abcgVulkan.hpp</text>
</a>
</g>
</g>
<!-- Node2&#45;&gt;Node4 -->
<g id="edge3" class="edge">
<title>Node2&#45;&gt;Node4</title>
<path fill="none" stroke="midnightblue" d="M341.79,-129.85C362.35,-119.58 387.45,-107.03 406.35,-97.58"/>
<polygon fill="midnightblue" stroke="midnightblue" points="340.09,-126.79 332.71,-134.4 343.22,-133.05 340.09,-126.79"/>
</g>
<!-- Node4&#45;&gt;Node5 -->
<g id="edge4" class="edge">
<title>Node4&#45;&gt;Node5</title>
<path fill="none" stroke="midnightblue" d="M406.12,-61.45C391.97,-51.45 375.19,-39.6 362.42,-30.58"/>
<polygon fill="midnightblue" stroke="midnightblue" points="404.35,-64.48 414.54,-67.4 408.39,-58.77 404.35,-64.48"/>
</g>
<!-- Node6 -->
<g id="node6" class="node">
<title>Node6</title>
<g id="a_node6"><a xlink:href="abcgVulkanPhysicalDevice_8cpp.html" target="_top" xlink:title="Definition of abcg::VulkanPhysicalDevice.">
<polygon fill="none" stroke="black" points="442.5,-0.5 442.5,-30.5 638.5,-30.5 638.5,-0.5 442.5,-0.5"/>
<text text-anchor="start" x="450.5" y="-18.5" font-family="Helvetica,sans-Serif" font-size="10.00">/home/harlen/dev/abcg</text>
<text text-anchor="middle" x="540.5" y="-7.5" font-family="Helvetica,sans-Serif" font-size="10.00">/abcg/abcgVulkanPhysicalDevice.cpp</text>
</a>
</g>
</g>
<!-- Node4&#45;&gt;Node6 -->
<g id="edge5" class="edge">
<title>Node4&#45;&gt;Node6</title>
<path fill="none" stroke="midnightblue" d="M466.28,-62.02C482.77,-51.9 502.55,-39.77 517.54,-30.58"/>
<polygon fill="midnightblue" stroke="midnightblue" points="464.2,-59.18 457.5,-67.4 467.85,-65.15 464.2,-59.18"/>
</g>
<!-- Node9&#45;&gt;Node3 -->
<g id="edge9" class="edge">
<title>Node9&#45;&gt;Node3</title>
<path fill="none" stroke="midnightblue" d="M172,-129.3C189.21,-119.12 209.98,-106.85 225.68,-97.58"/>
<polygon fill="midnightblue" stroke="midnightblue" points="170.2,-126.3 163.37,-134.4 173.76,-132.32 170.2,-126.3"/>
</g>
<!-- Node9&#45;&gt;Node8 -->
<g id="edge10" class="edge">
<title>Node9&#45;&gt;Node8</title>
<path fill="none" stroke="midnightblue" d="M120.41,-126.74C111.98,-117.12 102.31,-106.09 94.84,-97.58"/>
<polygon fill="midnightblue" stroke="midnightblue" points="117.91,-129.18 127.13,-134.4 123.17,-124.57 117.91,-129.18"/>
</g>
<!-- Node11&#45;&gt;Node4 -->
<g id="edge14" class="edge">
<title>Node11&#45;&gt;Node4</title>
<path fill="none" stroke="midnightblue" d="M510.83,-129.02C493.86,-118.9 473.52,-106.77 458.11,-97.58"/>
<polygon fill="midnightblue" stroke="midnightblue" points="509.47,-132.28 519.85,-134.4 513.05,-126.27 509.47,-132.28"/>
</g>
<!-- Node11&#45;&gt;Node10 -->
<g id="edge17" class="edge">
<title>Node11&#45;&gt;Node10</title>
<path fill="none" stroke="midnightblue" d="M561.48,-126.45C569.27,-116.9 578.15,-106 585.02,-97.58"/>
<polygon fill="midnightblue" stroke="midnightblue" points="558.61,-124.43 555,-134.4 564.03,-128.86 558.61,-124.43"/>
</g>
<!-- Node12 -->
<g id="node12" class="node">
<title>Node12</title>
<g id="a_node12"><a xlink:href="abcgVulkanShader_8cpp.html" target="_top" xlink:title="Definition of helper functions for creating Vulkan shaders.">
<polygon fill="none" stroke="black" points="887,-67.5 887,-97.5 1042,-97.5 1042,-67.5 887,-67.5"/>
<text text-anchor="start" x="895" y="-85.5" font-family="Helvetica,sans-Serif" font-size="10.00">/home/harlen/dev/abcg</text>
<text text-anchor="middle" x="964.5" y="-74.5" font-family="Helvetica,sans-Serif" font-size="10.00">/abcg/abcgVulkanShader.cpp</text>
</a>
</g>
</g>
<!-- Node11&#45;&gt;Node12 -->
<g id="edge15" class="edge">
<title>Node11&#45;&gt;Node12</title>
<path fill="none" stroke="midnightblue" d="M634.54,-133.85C743.51,-117.14 772.38,-114.51 877.5,-98 880.53,-97.52 883.61,-97.04 886.72,-96.54"/>
<polygon fill="midnightblue" stroke="midnightblue" points="633.8,-130.43 624.45,-135.41 634.86,-137.34 633.8,-130.43"/>
</g>
<!-- Node13 -->
<g id="node13" class="node">
<title>Node13</title>
<g id="a_node13"><a xlink:href="abcgVulkanSwapchain_8cpp.html" target="_top" xlink:title="Definition of abcg::VulkanSwapchain.">
<polygon fill="none" stroke="black" points="694.5,-67.5 694.5,-97.5 868.5,-97.5 868.5,-67.5 694.5,-67.5"/>
<text text-anchor="start" x="702.5" y="-85.5" font-family="Helvetica,sans-Serif" font-size="10.00">/home/harlen/dev/abcg</text>
<text text-anchor="middle" x="781.5" y="-74.5" font-family="Helvetica,sans-Serif" font-size="10.00">/abcg/abcgVulkanSwapchain.cpp</text>
</a>
</g>
</g>
<!-- Node11&#45;&gt;Node13 -->
<g id="edge16" class="edge">
<title>Node11&#45;&gt;Node13</title>
<path fill="none" stroke="midnightblue" d="M604.96,-131.71C643.69,-121.14 693.13,-107.63 729.83,-97.61"/>
<polygon fill="midnightblue" stroke="midnightblue" points="603.57,-128.46 594.85,-134.48 605.42,-135.22 603.57,-128.46"/>
</g>
</g>
</svg>
