<?xml version="1.0" encoding="UTF-8" standalone="no"?>
<!DOCTYPE svg PUBLIC "-//W3C//DTD SVG 1.1//EN"
 "http://www.w3.org/Graphics/SVG/1.1/DTD/svg11.dtd">
<!-- Generated by graphviz version 2.43.0 (0)
 -->
<!-- Title: /home/harlen/dev/abcg/abcg/abcgOpenGL.hpp Pages: 1 -->
<svg width="1246pt" height="258pt"
 viewBox="0.00 0.00 1246.00 258.00" xmlns="http://www.w3.org/2000/svg" xmlns:xlink="http://www.w3.org/1999/xlink">
<g id="graph0" class="graph" transform="scale(1 1) rotate(0) translate(4 254)">
<title>/home/harlen/dev/abcg/abcg/abcgOpenGL.hpp</title>
<!-- Node1 -->
<g id="Node000001" class="node">
<title>Node1</title>
<g id="a_Node000001"><a xlink:title="Header file for OpenGL&#45;related functions and classes.">
<polygon fill="#999999" stroke="#666666" points="721,-250 593,-250 593,-220 721,-220 721,-250"/>
<text text-anchor="start" x="601" y="-238" font-family="Helvetica,sans-Serif" font-size="10.00">/home/harlen/dev/abcg</text>
<text text-anchor="middle" x="657" y="-227" font-family="Helvetica,sans-Serif" font-size="10.00">/abcg/abcgOpenGL.hpp</text>
</a>
</g>
</g>
<!-- Node2 -->
<g id="Node000002" class="node">
<title>Node2</title>
<g id="a_Node000002"><a xlink:href="abcg_8hpp.html" target="_top" xlink:title="Shortcut header that includes the most common ABCg headers.">
<polygon fill="white" stroke="#666666" points="385.5,-184 324.5,-184 324.5,-165 385.5,-165 385.5,-184"/>
<text text-anchor="middle" x="355" y="-172" font-family="Helvetica,sans-Serif" font-size="10.00">abcg.hpp</text>
</a>
</g>
</g>
<!-- Node1&#45;&gt;Node2 -->
<g id="edge1_Node000001_Node000002" class="edge">
<title>Node1&#45;&gt;Node2</title>
<g id="a_edge1_Node000001_Node000002"><a xlink:title=" ">
<path fill="none" stroke="#63b8ff" d="M592.95,-221.59C533.34,-210.05 446.31,-193.19 395.68,-183.38"/>
<polygon fill="#63b8ff" stroke="#63b8ff" points="396.24,-179.92 385.76,-181.46 394.91,-186.8 396.24,-179.92"/>
</a>
</g>
</g>
<!-- Node15 -->
<g id="Node000015" class="node">
<title>Node15</title>
<g id="a_Node000015"><a xlink:href="abcgOpenGLImage_8hpp.html" target="_top" xlink:title="Declaration of OpenGL texture loading helper functions.">
<polygon fill="white" stroke="#666666" points="1216,-129 1086,-129 1086,-110 1216,-110 1216,-129"/>
<text text-anchor="middle" x="1151" y="-117" font-family="Helvetica,sans-Serif" font-size="10.00">abcgOpenGLImage.hpp</text>
</a>
</g>
</g>
<!-- Node1&#45;&gt;Node15 -->
<g id="edge20_Node000001_Node000015" class="edge">
<title>Node1&#45;&gt;Node15</title>
<g id="a_edge20_Node000001_Node000015"><a xlink:title=" ">
<path fill="none" stroke="#63b8ff" d="M721.18,-222.29C772.03,-212.76 844.78,-198.54 908,-184 979.81,-167.48 1062.69,-145.1 1110.75,-131.8"/>
<polygon fill="#63b8ff" stroke="#63b8ff" points="1111.76,-135.15 1120.46,-129.1 1109.88,-128.4 1111.76,-135.15"/>
</a>
</g>
</g>
<!-- Node18 -->
<g id="Node000018" class="node">
<title>Node18</title>
<g id="a_Node000018"><a xlink:href="abcgOpenGLShader_8hpp.html" target="_top" xlink:title="Declaration of helper functions for building OpenGL shaders.">
<polygon fill="white" stroke="#666666" points="899,-184 767,-184 767,-165 899,-165 899,-184"/>
<text text-anchor="middle" x="833" y="-172" font-family="Helvetica,sans-Serif" font-size="10.00">abcgOpenGLShader.hpp</text>
</a>
</g>
</g>
<!-- Node1&#45;&gt;Node18 -->
<g id="edge24_Node000001_Node000018" class="edge">
<title>Node1&#45;&gt;Node18</title>
<g id="a_edge24_Node000001_Node000018"><a xlink:title=" ">
<path fill="none" stroke="#63b8ff" d="M699.16,-219.99C729.27,-209.98 769.31,-196.67 797.73,-187.22"/>
<polygon fill="#63b8ff" stroke="#63b8ff" points="798.88,-190.53 807.27,-184.05 796.67,-183.89 798.88,-190.53"/>
</a>
</g>
</g>
<!-- Node22 -->
<g id="Node000022" class="node">
<title>Node22</title>
<g id="a_Node000022"><a xlink:href="abcgOpenGLWindow_8hpp.html" target="_top" xlink:title="Header file of abcg::OpenGLWindow.">
<polygon fill="white" stroke="#666666" points="624.5,-184 487.5,-184 487.5,-165 624.5,-165 624.5,-184"/>
<text text-anchor="middle" x="556" y="-172" font-family="Helvetica,sans-Serif" font-size="10.00">abcgOpenGLWindow.hpp</text>
</a>
</g>
</g>
<!-- Node1&#45;&gt;Node22 -->
<g id="edge30_Node000001_Node000022" class="edge">
<title>Node1&#45;&gt;Node22</title>
<g id="a_edge30_Node000001_Node000022"><a xlink:title=" ">
<path fill="none" stroke="#63b8ff" d="M632.81,-219.99C616.71,-210.66 595.66,-198.47 579.67,-189.21"/>
<polygon fill="#63b8ff" stroke="#63b8ff" points="581.32,-186.12 570.92,-184.14 577.81,-192.18 581.32,-186.12"/>
</a>
</g>
</g>
<!-- Node3 -->
<g id="Node000003" class="node">
<title>Node3</title>
<g id="a_Node000003"><a xlink:href="abcgApplication_8hpp.html" target="_top" xlink:title="Header file of abcg::Application.">
<polygon fill="white" stroke="#666666" points="528,-129 412,-129 412,-110 528,-110 528,-129"/>
<text text-anchor="middle" x="470" y="-117" font-family="Helvetica,sans-Serif" font-size="10.00">abcgApplication.hpp</text>
</a>
</g>
</g>
<!-- Node2&#45;&gt;Node3 -->
<g id="edge2_Node000002_Node000003" class="edge">
<title>Node2&#45;&gt;Node3</title>
<g id="a_edge2_Node000002_Node000003"><a xlink:title=" ">
<path fill="none" stroke="#63b8ff" d="M373.48,-164.98C391.98,-156.46 420.68,-143.23 441.98,-133.41"/>
<polygon fill="#63b8ff" stroke="#63b8ff" points="443.57,-136.53 451.19,-129.17 440.64,-130.18 443.57,-136.53"/>
</a>
</g>
</g>
<!-- Node5 -->
<g id="Node000005" class="node">
<title>Node5</title>
<g id="a_Node000005"><a xlink:href="abcgException_8hpp.html" target="_top" xlink:title="Header file of abcg::Exception and derived classes.">
<polygon fill="white" stroke="#666666" points="693.5,-129 584.5,-129 584.5,-110 693.5,-110 693.5,-129"/>
<text text-anchor="middle" x="639" y="-117" font-family="Helvetica,sans-Serif" font-size="10.00">abcgException.hpp</text>
</a>
</g>
</g>
<!-- Node2&#45;&gt;Node5 -->
<g id="edge4_Node000002_Node000005" class="edge">
<title>Node2&#45;&gt;Node5</title>
<g id="a_edge4_Node000002_Node000005"><a xlink:title=" ">
<path fill="none" stroke="#63b8ff" d="M385.66,-167.78C432.91,-158.96 524.24,-141.92 583.37,-130.88"/>
<polygon fill="#63b8ff" stroke="#63b8ff" points="584.1,-134.31 593.29,-129.03 582.82,-127.42 584.1,-134.31"/>
</a>
</g>
</g>
<!-- Node8 -->
<g id="Node000008" class="node">
<title>Node8</title>
<g id="a_Node000008"><a xlink:href="abcgExternal_8hpp.html" target="_top" xlink:title="Header file for including third&#45;party dependencies.">
<polygon fill="white" stroke="#666666" points="249.5,-74 148.5,-74 148.5,-55 249.5,-55 249.5,-74"/>
<text text-anchor="middle" x="199" y="-62" font-family="Helvetica,sans-Serif" font-size="10.00">abcgExternal.hpp</text>
</a>
</g>
</g>
<!-- Node2&#45;&gt;Node8 -->
<g id="edge8_Node000002_Node000008" class="edge">
<title>Node2&#45;&gt;Node8</title>
<g id="a_edge8_Node000002_Node000008"><a xlink:title=" ">
<path fill="none" stroke="#63b8ff" d="M324.4,-171.4C272.91,-167.16 172.43,-155.61 151,-129 137.67,-112.44 157.69,-92.86 175.79,-79.86"/>
<polygon fill="#63b8ff" stroke="#63b8ff" points="178.06,-82.55 184.37,-74.05 174.13,-76.76 178.06,-82.55"/>
</a>
</g>
</g>
<!-- Node9 -->
<g id="Node000009" class="node">
<title>Node9</title>
<g id="a_Node000009"><a xlink:href="abcgTrackball_8hpp.html" target="_top" xlink:title="Header file of abcg::TrackBall.">
<polygon fill="white" stroke="#666666" points="104,-129 0,-129 0,-110 104,-110 104,-129"/>
<text text-anchor="middle" x="52" y="-117" font-family="Helvetica,sans-Serif" font-size="10.00">abcgTrackball.hpp</text>
</a>
</g>
</g>
<!-- Node2&#45;&gt;Node9 -->
<g id="edge9_Node000002_Node000009" class="edge">
<title>Node2&#45;&gt;Node9</title>
<g id="a_edge9_Node000002_Node000009"><a xlink:title=" ">
<path fill="none" stroke="#63b8ff" d="M324.28,-168.13C274.3,-159.38 174.54,-141.93 110.64,-130.76"/>
<polygon fill="#63b8ff" stroke="#63b8ff" points="111.16,-127.3 100.71,-129.02 109.96,-134.19 111.16,-127.3"/>
</a>
</g>
</g>
<!-- Node12 -->
<g id="Node000012" class="node">
<title>Node12</title>
<g id="a_Node000012"><a xlink:href="abcgUtil_8hpp.html" target="_top" xlink:title="Declaration of general utility functions.">
<polygon fill="white" stroke="#666666" points="394,-129 316,-129 316,-110 394,-110 394,-129"/>
<text text-anchor="middle" x="355" y="-117" font-family="Helvetica,sans-Serif" font-size="10.00">abcgUtil.hpp</text>
</a>
</g>
</g>
<!-- Node2&#45;&gt;Node12 -->
<g id="edge13_Node000002_Node000012" class="edge">
<title>Node2&#45;&gt;Node12</title>
<g id="a_edge13_Node000002_Node000012"><a xlink:title=" ">
<path fill="none" stroke="#63b8ff" d="M355,-164.75C355,-157.8 355,-147.85 355,-139.13"/>
<polygon fill="#63b8ff" stroke="#63b8ff" points="358.5,-139.09 355,-129.09 351.5,-139.09 358.5,-139.09"/>
</a>
</g>
</g>
<!-- Node14 -->
<g id="Node000014" class="node">
<title>Node14</title>
<g id="a_Node000014"><a xlink:href="abcgWindow_8hpp.html" target="_top" xlink:title="Header file of abcg::Window.">
<polygon fill="white" stroke="#666666" points="259.5,-129 160.5,-129 160.5,-110 259.5,-110 259.5,-129"/>
<text text-anchor="middle" x="210" y="-117" font-family="Helvetica,sans-Serif" font-size="10.00">abcgWindow.hpp</text>
</a>
</g>
</g>
<!-- Node2&#45;&gt;Node14 -->
<g id="edge16_Node000002_Node000014" class="edge">
<title>Node2&#45;&gt;Node14</title>
<g id="a_edge16_Node000002_Node000014"><a xlink:title=" ">
<path fill="none" stroke="#63b8ff" d="M331.7,-164.98C307.75,-156.23 270.22,-142.51 243.17,-132.62"/>
<polygon fill="#63b8ff" stroke="#63b8ff" points="244.31,-129.32 233.72,-129.17 241.91,-135.89 244.31,-129.32"/>
</a>
</g>
</g>
<!-- Node4 -->
<g id="Node000004" class="node">
<title>Node4</title>
<g id="a_Node000004"><a xlink:title=" ">
<polygon fill="#e0e0e0" stroke="#999999" points="578,-74 534,-74 534,-55 578,-55 578,-74"/>
<text text-anchor="middle" x="556" y="-62" font-family="Helvetica,sans-Serif" font-size="10.00">string</text>
</a>
</g>
</g>
<!-- Node3&#45;&gt;Node4 -->
<g id="edge3_Node000003_Node000004" class="edge">
<title>Node3&#45;&gt;Node4</title>
<g id="a_edge3_Node000003_Node000004"><a xlink:title=" ">
<path fill="none" stroke="#63b8ff" d="M483.82,-109.98C497.15,-101.77 517.58,-89.18 533.31,-79.49"/>
<polygon fill="#63b8ff" stroke="#63b8ff" points="535.25,-82.4 541.93,-74.17 531.58,-76.44 535.25,-82.4"/>
</a>
</g>
</g>
<!-- Node5&#45;&gt;Node4 -->
<g id="edge7_Node000005_Node000004" class="edge">
<title>Node5&#45;&gt;Node4</title>
<g id="a_edge7_Node000005_Node000004"><a xlink:title=" ">
<path fill="none" stroke="#63b8ff" d="M625.66,-109.98C612.91,-101.84 593.45,-89.41 578.33,-79.76"/>
<polygon fill="#63b8ff" stroke="#63b8ff" points="579.89,-76.6 569.58,-74.17 576.12,-82.5 579.89,-76.6"/>
</a>
</g>
</g>
<!-- Node6 -->
<g id="Node000006" class="node">
<title>Node6</title>
<g id="a_Node000006"><a xlink:title=" ">
<polygon fill="#e0e0e0" stroke="#999999" points="841.5,-74 748.5,-74 748.5,-55 841.5,-55 841.5,-74"/>
<text text-anchor="middle" x="795" y="-62" font-family="Helvetica,sans-Serif" font-size="10.00">source_location</text>
</a>
</g>
</g>
<!-- Node5&#45;&gt;Node6 -->
<g id="edge5_Node000005_Node000006" class="edge">
<title>Node5&#45;&gt;Node6</title>
<g id="a_edge5_Node000005_Node000006"><a xlink:title=" ">
<path fill="none" stroke="#63b8ff" d="M664.06,-109.98C690.03,-101.16 730.81,-87.31 759.96,-77.41"/>
<polygon fill="#63b8ff" stroke="#63b8ff" points="761.4,-80.61 769.74,-74.08 759.15,-73.99 761.4,-80.61"/>
</a>
</g>
</g>
<!-- Node7 -->
<g id="Node000007" class="node">
<title>Node7</title>
<g id="a_Node000007"><a xlink:title=" ">
<polygon fill="#e0e0e0" stroke="#999999" points="661.5,-74 596.5,-74 596.5,-55 661.5,-55 661.5,-74"/>
<text text-anchor="middle" x="629" y="-62" font-family="Helvetica,sans-Serif" font-size="10.00">stdexcept</text>
</a>
</g>
</g>
<!-- Node5&#45;&gt;Node7 -->
<g id="edge6_Node000005_Node000007" class="edge">
<title>Node5&#45;&gt;Node7</title>
<g id="a_edge6_Node000005_Node000007"><a xlink:title=" ">
<path fill="none" stroke="#63b8ff" d="M637.35,-109.75C636.04,-102.8 634.16,-92.85 632.52,-84.13"/>
<polygon fill="#63b8ff" stroke="#63b8ff" points="635.91,-83.27 630.62,-74.09 629.04,-84.56 635.91,-83.27"/>
</a>
</g>
</g>
<!-- Node9&#45;&gt;Node8 -->
<g id="edge10_Node000009_Node000008" class="edge">
<title>Node9&#45;&gt;Node8</title>
<g id="a_edge10_Node000009_Node000008"><a xlink:title=" ">
<path fill="none" stroke="#63b8ff" d="M75.62,-109.98C99.9,-101.23 137.95,-87.51 165.37,-77.62"/>
<polygon fill="#63b8ff" stroke="#63b8ff" points="166.73,-80.85 174.95,-74.17 164.36,-74.27 166.73,-80.85"/>
</a>
</g>
</g>
<!-- Node10 -->
<g id="Node000010" class="node">
<title>Node10</title>
<g id="a_Node000010"><a xlink:href="abcgTimer_8hpp.html" target="_top" xlink:title="Header file of abcg::Timer.">
<polygon fill="white" stroke="#666666" points="108.5,-74 19.5,-74 19.5,-55 108.5,-55 108.5,-74"/>
<text text-anchor="middle" x="64" y="-62" font-family="Helvetica,sans-Serif" font-size="10.00">abcgTimer.hpp</text>
</a>
</g>
</g>
<!-- Node9&#45;&gt;Node10 -->
<g id="edge11_Node000009_Node000010" class="edge">
<title>Node9&#45;&gt;Node10</title>
<g id="a_edge11_Node000009_Node000010"><a xlink:title=" ">
<path fill="none" stroke="#63b8ff" d="M53.98,-109.75C55.57,-102.72 57.86,-92.62 59.85,-83.84"/>
<polygon fill="#63b8ff" stroke="#63b8ff" points="63.26,-84.62 62.06,-74.09 56.43,-83.07 63.26,-84.62"/>
</a>
</g>
</g>
<!-- Node11 -->
<g id="Node000011" class="node">
<title>Node11</title>
<g id="a_Node000011"><a xlink:title=" ">
<polygon fill="#e0e0e0" stroke="#999999" points="89,-19 39,-19 39,0 89,0 89,-19"/>
<text text-anchor="middle" x="64" y="-7" font-family="Helvetica,sans-Serif" font-size="10.00">chrono</text>
</a>
</g>
</g>
<!-- Node10&#45;&gt;Node11 -->
<g id="edge12_Node000010_Node000011" class="edge">
<title>Node10&#45;&gt;Node11</title>
<g id="a_edge12_Node000010_Node000011"><a xlink:title=" ">
<path fill="none" stroke="#63b8ff" d="M64,-54.75C64,-47.8 64,-37.85 64,-29.13"/>
<polygon fill="#63b8ff" stroke="#63b8ff" points="67.5,-29.09 64,-19.09 60.5,-29.09 67.5,-29.09"/>
</a>
</g>
</g>
<!-- Node12&#45;&gt;Node4 -->
<g id="edge15_Node000012_Node000004" class="edge">
<title>Node12&#45;&gt;Node4</title>
<g id="a_edge15_Node000012_Node000004"><a xlink:title=" ">
<path fill="none" stroke="#63b8ff" d="M387.29,-109.98C424.83,-100.09 486.39,-83.86 523.85,-73.98"/>
<polygon fill="#63b8ff" stroke="#63b8ff" points="524.97,-77.3 533.74,-71.37 523.18,-70.53 524.97,-77.3"/>
</a>
</g>
</g>
<!-- Node13 -->
<g id="Node000013" class="node">
<title>Node13</title>
<g id="a_Node000013"><a xlink:title=" ">
<polygon fill="#e0e0e0" stroke="#999999" points="387.5,-74 322.5,-74 322.5,-55 387.5,-55 387.5,-74"/>
<text text-anchor="middle" x="355" y="-62" font-family="Helvetica,sans-Serif" font-size="10.00">functional</text>
</a>
</g>
</g>
<!-- Node12&#45;&gt;Node13 -->
<g id="edge14_Node000012_Node000013" class="edge">
<title>Node12&#45;&gt;Node13</title>
<g id="a_edge14_Node000012_Node000013"><a xlink:title=" ">
<path fill="none" stroke="#63b8ff" d="M355,-109.75C355,-102.8 355,-92.85 355,-84.13"/>
<polygon fill="#63b8ff" stroke="#63b8ff" points="358.5,-84.09 355,-74.09 351.5,-84.09 358.5,-84.09"/>
</a>
</g>
</g>
<!-- Node14&#45;&gt;Node4 -->
<g id="edge17_Node000014_Node000004" class="edge">
<title>Node14&#45;&gt;Node4</title>
<g id="a_edge17_Node000014_Node000004"><a xlink:title=" ">
<path fill="none" stroke="#63b8ff" d="M259.57,-110.91C331.49,-99.89 462.8,-79.78 523.56,-70.47"/>
<polygon fill="#63b8ff" stroke="#63b8ff" points="524.36,-73.89 533.71,-68.91 523.3,-66.97 524.36,-73.89"/>
</a>
</g>
</g>
<!-- Node14&#45;&gt;Node8 -->
<g id="edge18_Node000014_Node000008" class="edge">
<title>Node14&#45;&gt;Node8</title>
<g id="a_edge18_Node000014_Node000008"><a xlink:title=" ">
<path fill="none" stroke="#63b8ff" d="M208.18,-109.75C206.74,-102.8 204.68,-92.85 202.87,-84.13"/>
<polygon fill="#63b8ff" stroke="#63b8ff" points="206.24,-83.17 200.78,-74.09 199.39,-84.59 206.24,-83.17"/>
</a>
</g>
</g>
<!-- Node14&#45;&gt;Node10 -->
<g id="edge19_Node000014_Node000010" class="edge">
<title>Node14&#45;&gt;Node10</title>
<g id="a_edge19_Node000014_Node000010"><a xlink:title=" ">
<path fill="none" stroke="#63b8ff" d="M186.54,-109.98C162.42,-101.23 124.63,-87.51 97.4,-77.62"/>
<polygon fill="#63b8ff" stroke="#63b8ff" points="98.48,-74.29 87.88,-74.17 96.09,-80.87 98.48,-74.29"/>
</a>
</g>
</g>
<!-- Node15&#45;&gt;Node4 -->
<g id="edge23_Node000015_Node000004" class="edge">
<title>Node15&#45;&gt;Node4</title>
<g id="a_edge23_Node000015_Node000004"><a xlink:title=" ">
<path fill="none" stroke="#63b8ff" d="M1085.89,-113.51C951.1,-103.15 649.56,-79.89 588.19,-73.23"/>
<polygon fill="#63b8ff" stroke="#63b8ff" points="588.63,-69.76 578.27,-71.96 587.74,-76.7 588.63,-69.76"/>
</a>
</g>
</g>
<!-- Node16 -->
<g id="Node000016" class="node">
<title>Node16</title>
<g id="a_Node000016"><a xlink:href="abcgOpenGLExternal_8hpp.html" target="_top" xlink:title="Header file for including OpenGL&#45;related third&#45;party dependencies.">
<polygon fill="white" stroke="#666666" points="1178,-74 1038,-74 1038,-55 1178,-55 1178,-74"/>
<text text-anchor="middle" x="1108" y="-62" font-family="Helvetica,sans-Serif" font-size="10.00">abcgOpenGLExternal.hpp</text>
</a>
</g>
</g>
<!-- Node15&#45;&gt;Node16 -->
<g id="edge21_Node000015_Node000016" class="edge">
<title>Node15&#45;&gt;Node16</title>
<g id="a_edge21_Node000015_Node000016"><a xlink:title=" ">
<path fill="none" stroke="#63b8ff" d="M1143.9,-109.75C1137.83,-102.26 1128.91,-91.28 1121.49,-82.13"/>
<polygon fill="#63b8ff" stroke="#63b8ff" points="1123.99,-79.65 1114.97,-74.09 1118.55,-84.06 1123.99,-79.65"/>
</a>
</g>
</g>
<!-- Node17 -->
<g id="Node000017" class="node">
<title>Node17</title>
<g id="a_Node000017"><a xlink:title=" ">
<polygon fill="#e0e0e0" stroke="#999999" points="1238,-74 1196,-74 1196,-55 1238,-55 1238,-74"/>
<text text-anchor="middle" x="1217" y="-62" font-family="Helvetica,sans-Serif" font-size="10.00">array</text>
</a>
</g>
</g>
<!-- Node15&#45;&gt;Node17 -->
<g id="edge22_Node000015_Node000017" class="edge">
<title>Node15&#45;&gt;Node17</title>
<g id="a_edge22_Node000015_Node000017"><a xlink:title=" ">
<path fill="none" stroke="#63b8ff" d="M1161.6,-109.98C1171.46,-102.07 1186.35,-90.11 1198.22,-80.58"/>
<polygon fill="#63b8ff" stroke="#63b8ff" points="1200.6,-83.16 1206.2,-74.17 1196.21,-77.7 1200.6,-83.16"/>
</a>
</g>
</g>
<!-- Node18&#45;&gt;Node16 -->
<g id="edge25_Node000018_Node000016" class="edge">
<title>Node18&#45;&gt;Node16</title>
<g id="a_edge25_Node000018_Node000016"><a xlink:title=" ">
<path fill="none" stroke="#63b8ff" d="M899.11,-168.19C941.07,-162.7 995.47,-151.57 1039,-129 1061.47,-117.35 1082.1,-96.43 1094.83,-81.79"/>
<polygon fill="#63b8ff" stroke="#63b8ff" points="1097.61,-83.93 1101.37,-74.02 1092.26,-79.42 1097.61,-83.93"/>
</a>
</g>
</g>
<!-- Node19 -->
<g id="Node000019" class="node">
<title>Node19</title>
<g id="a_Node000019"><a xlink:href="abcgShader_8hpp.html" target="_top" xlink:title="Declaration of a structure for building shaders.">
<polygon fill="white" stroke="#666666" points="806,-129 712,-129 712,-110 806,-110 806,-129"/>
<text text-anchor="middle" x="759" y="-117" font-family="Helvetica,sans-Serif" font-size="10.00">abcgShader.hpp</text>
</a>
</g>
</g>
<!-- Node18&#45;&gt;Node19 -->
<g id="edge26_Node000018_Node000019" class="edge">
<title>Node18&#45;&gt;Node19</title>
<g id="a_edge26_Node000018_Node000019"><a xlink:title=" ">
<path fill="none" stroke="#63b8ff" d="M821.11,-164.98C809.85,-156.92 792.71,-144.65 779.29,-135.03"/>
<polygon fill="#63b8ff" stroke="#63b8ff" points="781.27,-132.15 771.11,-129.17 777.2,-137.84 781.27,-132.15"/>
</a>
</g>
</g>
<!-- Node21 -->
<g id="Node000021" class="node">
<title>Node21</title>
<g id="a_Node000021"><a xlink:title=" ">
<polygon fill="#e0e0e0" stroke="#999999" points="1029.5,-129 982.5,-129 982.5,-110 1029.5,-110 1029.5,-129"/>
<text text-anchor="middle" x="1006" y="-117" font-family="Helvetica,sans-Serif" font-size="10.00">vector</text>
</a>
</g>
</g>
<!-- Node18&#45;&gt;Node21 -->
<g id="edge29_Node000018_Node000021" class="edge">
<title>Node18&#45;&gt;Node21</title>
<g id="a_edge29_Node000018_Node000021"><a xlink:title=" ">
<path fill="none" stroke="#63b8ff" d="M860.8,-164.98C891.22,-155.66 939.99,-140.72 972.5,-130.76"/>
<polygon fill="#63b8ff" stroke="#63b8ff" points="973.91,-133.99 982.44,-127.72 971.86,-127.3 973.91,-133.99"/>
</a>
</g>
</g>
<!-- Node19&#45;&gt;Node4 -->
<g id="edge28_Node000019_Node000004" class="edge">
<title>Node19&#45;&gt;Node4</title>
<g id="a_edge28_Node000019_Node000004"><a xlink:title=" ">
<path fill="none" stroke="#63b8ff" d="M725.89,-109.94C691.43,-101.01 635.91,-86.6 588,-74 587.9,-73.97 587.8,-73.95 587.7,-73.92"/>
<polygon fill="#63b8ff" stroke="#63b8ff" points="588.59,-70.54 578.03,-71.37 586.8,-77.3 588.59,-70.54"/>
</a>
</g>
</g>
<!-- Node20 -->
<g id="Node000020" class="node">
<title>Node20</title>
<g id="a_Node000020"><a xlink:title=" ">
<polygon fill="#e0e0e0" stroke="#999999" points="730,-74 680,-74 680,-55 730,-55 730,-74"/>
<text text-anchor="middle" x="705" y="-62" font-family="Helvetica,sans-Serif" font-size="10.00">cstdint</text>
</a>
</g>
</g>
<!-- Node19&#45;&gt;Node20 -->
<g id="edge27_Node000019_Node000020" class="edge">
<title>Node19&#45;&gt;Node20</title>
<g id="a_edge27_Node000019_Node000020"><a xlink:title=" ">
<path fill="none" stroke="#63b8ff" d="M750.08,-109.75C742.22,-102.03 730.57,-90.6 721.08,-81.28"/>
<polygon fill="#63b8ff" stroke="#63b8ff" points="723.34,-78.6 713.75,-74.09 718.44,-83.59 723.34,-78.6"/>
</a>
</g>
</g>
<!-- Node22&#45;&gt;Node4 -->
<g id="edge31_Node000022_Node000004" class="edge">
<title>Node22&#45;&gt;Node4</title>
<g id="a_edge31_Node000022_Node000004"><a xlink:title=" ">
<path fill="none" stroke="#63b8ff" d="M556,-164.66C556,-147.17 556,-107.8 556,-84.27"/>
<polygon fill="#63b8ff" stroke="#63b8ff" points="559.5,-84.16 556,-74.16 552.5,-84.16 559.5,-84.16"/>
</a>
</g>
</g>
<!-- Node22&#45;&gt;Node8 -->
<g id="edge32_Node000022_Node000008" class="edge">
<title>Node22&#45;&gt;Node8</title>
<g id="a_edge32_Node000022_Node000008"><a xlink:title=" ">
<path fill="none" stroke="#63b8ff" d="M487.44,-167.84C436.44,-162.07 365.8,-150.74 307,-129 289.48,-122.52 246.86,-96.15 220.7,-79.5"/>
<polygon fill="#63b8ff" stroke="#63b8ff" points="222.51,-76.51 212.2,-74.06 218.74,-82.4 222.51,-76.51"/>
</a>
</g>
</g>
<!-- Node22&#45;&gt;Node14 -->
<g id="edge38_Node000022_Node000014" class="edge">
<title>Node22&#45;&gt;Node14</title>
<g id="a_edge38_Node000022_Node000014"><a xlink:title=" ">
<path fill="none" stroke="#63b8ff" d="M500.41,-164.98C437.22,-155.3 334.45,-139.56 269.63,-129.63"/>
<polygon fill="#63b8ff" stroke="#63b8ff" points="269.98,-126.15 259.56,-128.09 268.92,-133.07 269.98,-126.15"/>
</a>
</g>
</g>
<!-- Node23 -->
<g id="Node000023" class="node">
<title>Node23</title>
<g id="a_Node000023"><a xlink:href="abcgOpenGLFunction_8hpp.html" target="_top" xlink:title="Declaration of OpenGL&#45;related error checking functions.">
<polygon fill="white" stroke="#666666" points="964,-129 824,-129 824,-110 964,-110 964,-129"/>
<text text-anchor="middle" x="894" y="-117" font-family="Helvetica,sans-Serif" font-size="10.00">abcgOpenGLFunction.hpp</text>
</a>
</g>
</g>
<!-- Node22&#45;&gt;Node23 -->
<g id="edge33_Node000022_Node000023" class="edge">
<title>Node22&#45;&gt;Node23</title>
<g id="a_edge33_Node000022_Node000023"><a xlink:title=" ">
<path fill="none" stroke="#63b8ff" d="M610.31,-164.98C670.09,-155.61 766.13,-140.55 829.64,-130.59"/>
<polygon fill="#63b8ff" stroke="#63b8ff" points="830.21,-134.05 839.55,-129.04 829.13,-127.13 830.21,-134.05"/>
</a>
</g>
</g>
<!-- Node23&#45;&gt;Node6 -->
<g id="edge34_Node000023_Node000006" class="edge">
<title>Node23&#45;&gt;Node6</title>
<g id="a_edge34_Node000023_Node000006"><a xlink:title=" ">
<path fill="none" stroke="#63b8ff" d="M878.09,-109.98C862.45,-101.61 838.34,-88.7 820.12,-78.95"/>
<polygon fill="#63b8ff" stroke="#63b8ff" points="821.66,-75.8 811.2,-74.17 818.36,-81.98 821.66,-75.8"/>
</a>
</g>
</g>
<!-- Node23&#45;&gt;Node16 -->
<g id="edge37_Node000023_Node000016" class="edge">
<title>Node23&#45;&gt;Node16</title>
<g id="a_edge37_Node000023_Node000016"><a xlink:title=" ">
<path fill="none" stroke="#63b8ff" d="M928.38,-109.98C965.09,-100.89 1023.38,-86.46 1063.55,-76.51"/>
<polygon fill="#63b8ff" stroke="#63b8ff" points="1064.48,-79.88 1073.35,-74.08 1062.8,-73.09 1064.48,-79.88"/>
</a>
</g>
</g>
<!-- Node24 -->
<g id="Node000024" class="node">
<title>Node24</title>
<g id="a_Node000024"><a xlink:title=" ">
<polygon fill="#e0e0e0" stroke="#999999" points="1019.5,-74 946.5,-74 946.5,-55 1019.5,-55 1019.5,-74"/>
<text text-anchor="middle" x="983" y="-62" font-family="Helvetica,sans-Serif" font-size="10.00">string_view</text>
</a>
</g>
</g>
<!-- Node23&#45;&gt;Node24 -->
<g id="edge35_Node000023_Node000024" class="edge">
<title>Node23&#45;&gt;Node24</title>
<g id="a_edge35_Node000023_Node000024"><a xlink:title=" ">
<path fill="none" stroke="#63b8ff" d="M908.3,-109.98C922.1,-101.77 943.24,-89.18 959.51,-79.49"/>
<polygon fill="#63b8ff" stroke="#63b8ff" points="961.64,-82.29 968.44,-74.17 958.06,-76.28 961.64,-82.29"/>
</a>
</g>
</g>
<!-- Node25 -->
<g id="Node000025" class="node">
<title>Node25</title>
<g id="a_Node000025"><a xlink:title=" ">
<polygon fill="#e0e0e0" stroke="#999999" points="928.5,-74 859.5,-74 859.5,-55 928.5,-55 928.5,-74"/>
<text text-anchor="middle" x="894" y="-62" font-family="Helvetica,sans-Serif" font-size="10.00">type_traits</text>
</a>
</g>
</g>
<!-- Node23&#45;&gt;Node25 -->
<g id="edge36_Node000023_Node000025" class="edge">
<title>Node23&#45;&gt;Node25</title>
<g id="a_edge36_Node000023_Node000025"><a xlink:title=" ">
<path fill="none" stroke="#63b8ff" d="M894,-109.75C894,-102.8 894,-92.85 894,-84.13"/>
<polygon fill="#63b8ff" stroke="#63b8ff" points="897.5,-84.09 894,-74.09 890.5,-84.09 897.5,-84.09"/>
</a>
</g>
</g>
</g>
</svg>
