<?xml version="1.0" encoding="UTF-8" standalone="no"?>
<!DOCTYPE svg PUBLIC "-//W3C//DTD SVG 1.1//EN"
 "http://www.w3.org/Graphics/SVG/1.1/DTD/svg11.dtd">
<!-- Generated by graphviz version 2.43.0 (0)
 -->
<!-- Title: /home/harlen/dev/abcg/abcg/abcgVulkanWindow.hpp Pages: 1 -->
<svg width="697pt" height="423pt"
 viewBox="0.00 0.00 696.50 423.00" xmlns="http://www.w3.org/2000/svg" xmlns:xlink="http://www.w3.org/1999/xlink">
<g id="graph0" class="graph" transform="scale(1 1) rotate(0) translate(4 419)">
<title>/home/harlen/dev/abcg/abcg/abcgVulkanWindow.hpp</title>
<!-- Node1 -->
<g id="Node000001" class="node">
<title>Node1</title>
<g id="a_Node000001"><a xlink:title="Header file of abcg::VulkanWindow.">
<polygon fill="#999999" stroke="#666666" points="432.5,-415 271.5,-415 271.5,-385 432.5,-385 432.5,-415"/>
<text text-anchor="start" x="279.5" y="-403" font-family="Helvetica,sans-Serif" font-size="10.00">/home/harlen/dev/abcg</text>
<text text-anchor="middle" x="352" y="-392" font-family="Helvetica,sans-Serif" font-size="10.00">/abcg/abcgVulkanWindow.hpp</text>
</a>
</g>
</g>
<!-- Node2 -->
<g id="Node000002" class="node">
<title>Node2</title>
<g id="a_Node000002"><a xlink:href="abcgVulkanDevice_8hpp.html" target="_top" xlink:title="Header file of abcg::VulkanDevice.">
<polygon fill="white" stroke="#666666" points="335.5,-239 208.5,-239 208.5,-220 335.5,-220 335.5,-239"/>
<text text-anchor="middle" x="272" y="-227" font-family="Helvetica,sans-Serif" font-size="10.00">abcgVulkanDevice.hpp</text>
</a>
</g>
</g>
<!-- Node1&#45;&gt;Node2 -->
<g id="edge1_Node000001_Node000002" class="edge">
<title>Node1&#45;&gt;Node2</title>
<g id="a_edge1_Node000001_Node000002"><a xlink:title=" ">
<path fill="none" stroke="#63b8ff" d="M349.09,-384.87C343.79,-361.05 331.11,-311.89 310,-275 304.1,-264.68 295.65,-254.5 288.22,-246.49"/>
<polygon fill="#63b8ff" stroke="#63b8ff" points="290.72,-244.04 281.26,-239.27 285.68,-248.9 290.72,-244.04"/>
</a>
</g>
</g>
<!-- Node3 -->
<g id="Node000003" class="node">
<title>Node3</title>
<g id="a_Node000003"><a xlink:href="abcgVulkanPhysicalDevice_8hpp.html" target="_top" xlink:title="Header file of abcg::VulkanPhysicalDevice.">
<polygon fill="white" stroke="#666666" points="355.5,-184 188.5,-184 188.5,-165 355.5,-165 355.5,-184"/>
<text text-anchor="middle" x="272" y="-172" font-family="Helvetica,sans-Serif" font-size="10.00">abcgVulkanPhysicalDevice.hpp</text>
</a>
</g>
</g>
<!-- Node1&#45;&gt;Node3 -->
<g id="edge11_Node000001_Node000003" class="edge">
<title>Node1&#45;&gt;Node3</title>
<g id="a_edge11_Node000001_Node000003"><a xlink:title=" ">
<path fill="none" stroke="#63b8ff" d="M355.61,-384.71C362.89,-352.59 376.01,-273.35 344,-220 335.44,-205.74 320.37,-195.38 306.23,-188.28"/>
<polygon fill="#63b8ff" stroke="#63b8ff" points="307.68,-185.09 297.14,-184.06 304.74,-191.45 307.68,-185.09"/>
</a>
</g>
</g>
<!-- Node8 -->
<g id="Node000008" class="node">
<title>Node8</title>
<g id="a_Node000008"><a xlink:href="abcgVulkanInstance_8hpp.html" target="_top" xlink:title="Header file of abcg::VulkanInstance.">
<polygon fill="white" stroke="#666666" points="198,-129 64,-129 64,-110 198,-110 198,-129"/>
<text text-anchor="middle" x="131" y="-117" font-family="Helvetica,sans-Serif" font-size="10.00">abcgVulkanInstance.hpp</text>
</a>
</g>
</g>
<!-- Node1&#45;&gt;Node8 -->
<g id="edge10_Node000001_Node000008" class="edge">
<title>Node1&#45;&gt;Node8</title>
<g id="a_edge10_Node000001_Node000008"><a xlink:title=" ">
<path fill="none" stroke="#63b8ff" d="M271.24,-389.35C167.32,-374.65 0,-342.16 0,-285.5 0,-285.5 0,-285.5 0,-228.5 0,-179.18 55.96,-148.2 94.73,-132.65"/>
<polygon fill="#63b8ff" stroke="#63b8ff" points="96.09,-135.87 104.17,-129.02 93.58,-129.34 96.09,-135.87"/>
</a>
</g>
</g>
<!-- Node10 -->
<g id="Node000010" class="node">
<title>Node10</title>
<g id="a_Node000010"><a xlink:href="abcgVulkanSwapchain_8hpp.html" target="_top" xlink:title="Header file of abcg::VulkanSwapchain.">
<polygon fill="white" stroke="#666666" points="320,-349 174,-349 174,-330 320,-330 320,-349"/>
<text text-anchor="middle" x="247" y="-337" font-family="Helvetica,sans-Serif" font-size="10.00">abcgVulkanSwapchain.hpp</text>
</a>
</g>
</g>
<!-- Node1&#45;&gt;Node10 -->
<g id="edge12_Node000001_Node000010" class="edge">
<title>Node1&#45;&gt;Node10</title>
<g id="a_edge12_Node000001_Node000010"><a xlink:title=" ">
<path fill="none" stroke="#63b8ff" d="M326.85,-384.99C310.11,-375.66 288.23,-363.47 271.61,-354.21"/>
<polygon fill="#63b8ff" stroke="#63b8ff" points="272.95,-350.95 262.51,-349.14 269.54,-357.06 272.95,-350.95"/>
</a>
</g>
</g>
<!-- Node14 -->
<g id="Node000014" class="node">
<title>Node14</title>
<g id="a_Node000014"><a xlink:href="abcgWindow_8hpp.html" target="_top" xlink:title="Header file of abcg::Window.">
<polygon fill="white" stroke="#666666" points="548.5,-349 449.5,-349 449.5,-330 548.5,-330 548.5,-349"/>
<text text-anchor="middle" x="499" y="-337" font-family="Helvetica,sans-Serif" font-size="10.00">abcgWindow.hpp</text>
</a>
</g>
</g>
<!-- Node1&#45;&gt;Node14 -->
<g id="edge19_Node000001_Node000014" class="edge">
<title>Node1&#45;&gt;Node14</title>
<g id="a_edge19_Node000001_Node000014"><a xlink:title=" ">
<path fill="none" stroke="#63b8ff" d="M387.21,-384.99C411.74,-375.23 444.15,-362.33 467.76,-352.93"/>
<polygon fill="#63b8ff" stroke="#63b8ff" points="469.29,-356.09 477.29,-349.14 466.71,-349.58 469.29,-356.09"/>
</a>
</g>
</g>
<!-- Node2&#45;&gt;Node3 -->
<g id="edge2_Node000002_Node000003" class="edge">
<title>Node2&#45;&gt;Node3</title>
<g id="a_edge2_Node000002_Node000003"><a xlink:title=" ">
<path fill="none" stroke="#63b8ff" d="M272,-219.75C272,-212.8 272,-202.85 272,-194.13"/>
<polygon fill="#63b8ff" stroke="#63b8ff" points="275.5,-194.09 272,-184.09 268.5,-194.09 275.5,-194.09"/>
</a>
</g>
</g>
<!-- Node9 -->
<g id="Node000009" class="node">
<title>Node9</title>
<g id="a_Node000009"><a xlink:title=" ">
<polygon fill="#e0e0e0" stroke="#999999" points="144.5,-184 79.5,-184 79.5,-165 144.5,-165 144.5,-184"/>
<text text-anchor="middle" x="112" y="-172" font-family="Helvetica,sans-Serif" font-size="10.00">functional</text>
</a>
</g>
</g>
<!-- Node2&#45;&gt;Node9 -->
<g id="edge9_Node000002_Node000009" class="edge">
<title>Node2&#45;&gt;Node9</title>
<g id="a_edge9_Node000002_Node000009"><a xlink:title=" ">
<path fill="none" stroke="#63b8ff" d="M246.29,-219.98C219.55,-211.13 177.47,-197.19 147.55,-187.28"/>
<polygon fill="#63b8ff" stroke="#63b8ff" points="148.5,-183.9 137.91,-184.08 146.3,-190.55 148.5,-183.9"/>
</a>
</g>
</g>
<!-- Node4 -->
<g id="Node000004" class="node">
<title>Node4</title>
<g id="a_Node000004"><a xlink:title=" ">
<polygon fill="#e0e0e0" stroke="#999999" points="272,-129 216,-129 216,-110 272,-110 272,-129"/>
<text text-anchor="middle" x="244" y="-117" font-family="Helvetica,sans-Serif" font-size="10.00">optional</text>
</a>
</g>
</g>
<!-- Node3&#45;&gt;Node4 -->
<g id="edge3_Node000003_Node000004" class="edge">
<title>Node3&#45;&gt;Node4</title>
<g id="a_edge3_Node000003_Node000004"><a xlink:title=" ">
<path fill="none" stroke="#63b8ff" d="M267.38,-164.75C263.54,-157.49 257.98,-146.95 253.24,-137.98"/>
<polygon fill="#63b8ff" stroke="#63b8ff" points="256.3,-136.3 248.54,-129.09 250.11,-139.57 256.3,-136.3"/>
</a>
</g>
</g>
<!-- Node5 -->
<g id="Node000005" class="node">
<title>Node5</title>
<g id="a_Node000005"><a xlink:href="abcgVulkanExternal_8hpp.html" target="_top" xlink:title="Header file for including Vulkan&#45;related dependencies.">
<polygon fill="white" stroke="#666666" points="282,-74 148,-74 148,-55 282,-55 282,-74"/>
<text text-anchor="middle" x="215" y="-62" font-family="Helvetica,sans-Serif" font-size="10.00">abcgVulkanExternal.hpp</text>
</a>
</g>
</g>
<!-- Node3&#45;&gt;Node5 -->
<g id="edge4_Node000003_Node000005" class="edge">
<title>Node3&#45;&gt;Node5</title>
<g id="a_edge4_Node000003_Node000005"><a xlink:title=" ">
<path fill="none" stroke="#63b8ff" d="M276.4,-164.71C282.14,-151.9 290.41,-127.7 281,-110 273.69,-96.25 260.03,-85.99 247.03,-78.8"/>
<polygon fill="#63b8ff" stroke="#63b8ff" points="248.28,-75.51 237.78,-74.11 245.11,-81.75 248.28,-75.51"/>
</a>
</g>
</g>
<!-- Node3&#45;&gt;Node8 -->
<g id="edge7_Node000003_Node000008" class="edge">
<title>Node3&#45;&gt;Node8</title>
<g id="a_edge7_Node000003_Node000008"><a xlink:title=" ">
<path fill="none" stroke="#63b8ff" d="M249.35,-164.98C226.15,-156.27 189.88,-142.63 163.6,-132.75"/>
<polygon fill="#63b8ff" stroke="#63b8ff" points="164.66,-129.41 154.07,-129.17 162.2,-135.97 164.66,-129.41"/>
</a>
</g>
</g>
<!-- Node6 -->
<g id="Node000006" class="node">
<title>Node6</title>
<g id="a_Node000006"><a xlink:title=" ">
<polygon fill="#e0e0e0" stroke="#999999" points="191.5,-19 144.5,-19 144.5,0 191.5,0 191.5,-19"/>
<text text-anchor="middle" x="168" y="-7" font-family="Helvetica,sans-Serif" font-size="10.00">volk.h</text>
</a>
</g>
</g>
<!-- Node5&#45;&gt;Node6 -->
<g id="edge5_Node000005_Node000006" class="edge">
<title>Node5&#45;&gt;Node6</title>
<g id="a_edge5_Node000005_Node000006"><a xlink:title=" ">
<path fill="none" stroke="#63b8ff" d="M207.24,-54.75C200.53,-47.18 190.66,-36.05 182.49,-26.84"/>
<polygon fill="#63b8ff" stroke="#63b8ff" points="184.87,-24.25 175.62,-19.09 179.63,-28.89 184.87,-24.25"/>
</a>
</g>
</g>
<!-- Node7 -->
<g id="Node000007" class="node">
<title>Node7</title>
<g id="a_Node000007"><a xlink:title=" ">
<polygon fill="#e0e0e0" stroke="#999999" points="314.5,-19 209.5,-19 209.5,0 314.5,0 314.5,-19"/>
<text text-anchor="middle" x="262" y="-7" font-family="Helvetica,sans-Serif" font-size="10.00">vulkan/vulkan.hpp</text>
</a>
</g>
</g>
<!-- Node5&#45;&gt;Node7 -->
<g id="edge6_Node000005_Node000007" class="edge">
<title>Node5&#45;&gt;Node7</title>
<g id="a_edge6_Node000005_Node000007"><a xlink:title=" ">
<path fill="none" stroke="#63b8ff" d="M222.76,-54.75C229.47,-47.18 239.34,-36.05 247.51,-26.84"/>
<polygon fill="#63b8ff" stroke="#63b8ff" points="250.37,-28.89 254.38,-19.09 245.13,-24.25 250.37,-28.89"/>
</a>
</g>
</g>
<!-- Node8&#45;&gt;Node5 -->
<g id="edge8_Node000008_Node000005" class="edge">
<title>Node8&#45;&gt;Node5</title>
<g id="a_edge8_Node000008_Node000005"><a xlink:title=" ">
<path fill="none" stroke="#63b8ff" d="M144.5,-109.98C157.4,-101.84 177.1,-89.41 192.4,-79.76"/>
<polygon fill="#63b8ff" stroke="#63b8ff" points="194.67,-82.47 201.26,-74.17 190.93,-76.55 194.67,-82.47"/>
</a>
</g>
</g>
<!-- Node10&#45;&gt;Node2 -->
<g id="edge15_Node000010_Node000002" class="edge">
<title>Node10&#45;&gt;Node2</title>
<g id="a_edge15_Node000010_Node000002"><a xlink:title=" ">
<path fill="none" stroke="#63b8ff" d="M261.07,-329.89C272.35,-322.1 287.34,-309.48 294,-294 300.61,-278.65 292.93,-260.6 284.89,-247.67"/>
<polygon fill="#63b8ff" stroke="#63b8ff" points="287.69,-245.57 279.17,-239.28 281.91,-249.51 287.69,-245.57"/>
</a>
</g>
</g>
<!-- Node10&#45;&gt;Node9 -->
<g id="edge13_Node000010_Node000009" class="edge">
<title>Node10&#45;&gt;Node9</title>
<g id="a_edge13_Node000010_Node000009"><a xlink:title=" ">
<path fill="none" stroke="#63b8ff" d="M173.89,-330.74C126.78,-324.07 71.68,-312.52 57,-294 31.32,-261.61 70.09,-215.27 94.55,-191.26"/>
<polygon fill="#63b8ff" stroke="#63b8ff" points="97.04,-193.72 101.89,-184.3 92.23,-188.64 97.04,-193.72"/>
</a>
</g>
</g>
<!-- Node11 -->
<g id="Node000011" class="node">
<title>Node11</title>
<g id="a_Node000011"><a xlink:title=" ">
<polygon fill="#e0e0e0" stroke="#999999" points="285.5,-294 208.5,-294 208.5,-275 285.5,-275 285.5,-294"/>
<text text-anchor="middle" x="247" y="-282" font-family="Helvetica,sans-Serif" font-size="10.00">glm/fwd.hpp</text>
</a>
</g>
</g>
<!-- Node10&#45;&gt;Node11 -->
<g id="edge14_Node000010_Node000011" class="edge">
<title>Node10&#45;&gt;Node11</title>
<g id="a_edge14_Node000010_Node000011"><a xlink:title=" ">
<path fill="none" stroke="#63b8ff" d="M247,-329.75C247,-322.8 247,-312.85 247,-304.13"/>
<polygon fill="#63b8ff" stroke="#63b8ff" points="250.5,-304.09 247,-294.09 243.5,-304.09 250.5,-304.09"/>
</a>
</g>
</g>
<!-- Node12 -->
<g id="Node000012" class="node">
<title>Node12</title>
<g id="a_Node000012"><a xlink:href="abcgVulkanImage_8hpp.html" target="_top" xlink:title="Header file of abcg::VulkanImage.">
<polygon fill="white" stroke="#666666" points="190,-294 66,-294 66,-275 190,-275 190,-294"/>
<text text-anchor="middle" x="128" y="-282" font-family="Helvetica,sans-Serif" font-size="10.00">abcgVulkanImage.hpp</text>
</a>
</g>
</g>
<!-- Node10&#45;&gt;Node12 -->
<g id="edge16_Node000010_Node000012" class="edge">
<title>Node10&#45;&gt;Node12</title>
<g id="a_edge16_Node000010_Node000012"><a xlink:title=" ">
<path fill="none" stroke="#63b8ff" d="M227.88,-329.98C208.65,-321.42 178.77,-308.11 156.69,-298.28"/>
<polygon fill="#63b8ff" stroke="#63b8ff" points="158.03,-295.04 147.47,-294.17 155.18,-301.44 158.03,-295.04"/>
</a>
</g>
</g>
<!-- Node12&#45;&gt;Node2 -->
<g id="edge17_Node000012_Node000002" class="edge">
<title>Node12&#45;&gt;Node2</title>
<g id="a_edge17_Node000012_Node000002"><a xlink:title=" ">
<path fill="none" stroke="#63b8ff" d="M151.14,-274.98C174.82,-266.27 211.87,-252.63 238.71,-242.75"/>
<polygon fill="#63b8ff" stroke="#63b8ff" points="240.27,-245.91 248.44,-239.17 237.85,-239.34 240.27,-245.91"/>
</a>
</g>
</g>
<!-- Node13 -->
<g id="Node000013" class="node">
<title>Node13</title>
<g id="a_Node000013"><a xlink:title=" ">
<polygon fill="#e0e0e0" stroke="#999999" points="165,-239 91,-239 91,-220 165,-220 165,-239"/>
<text text-anchor="middle" x="128" y="-227" font-family="Helvetica,sans-Serif" font-size="10.00">gsl/pointers</text>
</a>
</g>
</g>
<!-- Node12&#45;&gt;Node13 -->
<g id="edge18_Node000012_Node000013" class="edge">
<title>Node12&#45;&gt;Node13</title>
<g id="a_edge18_Node000012_Node000013"><a xlink:title=" ">
<path fill="none" stroke="#63b8ff" d="M128,-274.75C128,-267.8 128,-257.85 128,-249.13"/>
<polygon fill="#63b8ff" stroke="#63b8ff" points="131.5,-249.09 128,-239.09 124.5,-249.09 131.5,-249.09"/>
</a>
</g>
</g>
<!-- Node15 -->
<g id="Node000015" class="node">
<title>Node15</title>
<g id="a_Node000015"><a xlink:title=" ">
<polygon fill="#e0e0e0" stroke="#999999" points="462,-294 418,-294 418,-275 462,-275 462,-294"/>
<text text-anchor="middle" x="440" y="-282" font-family="Helvetica,sans-Serif" font-size="10.00">string</text>
</a>
</g>
</g>
<!-- Node14&#45;&gt;Node15 -->
<g id="edge20_Node000014_Node000015" class="edge">
<title>Node14&#45;&gt;Node15</title>
<g id="a_edge20_Node000014_Node000015"><a xlink:title=" ">
<path fill="none" stroke="#63b8ff" d="M489.52,-329.98C480.8,-322.15 467.66,-310.34 457.1,-300.86"/>
<polygon fill="#63b8ff" stroke="#63b8ff" points="459.43,-298.25 449.65,-294.17 454.75,-303.46 459.43,-298.25"/>
</a>
</g>
</g>
<!-- Node16 -->
<g id="Node000016" class="node">
<title>Node16</title>
<g id="a_Node000016"><a xlink:href="abcgExternal_8hpp.html" target="_top" xlink:title="Header file for including third&#45;party dependencies.">
<polygon fill="white" stroke="#666666" points="581.5,-294 480.5,-294 480.5,-275 581.5,-275 581.5,-294"/>
<text text-anchor="middle" x="531" y="-282" font-family="Helvetica,sans-Serif" font-size="10.00">abcgExternal.hpp</text>
</a>
</g>
</g>
<!-- Node14&#45;&gt;Node16 -->
<g id="edge21_Node000014_Node000016" class="edge">
<title>Node14&#45;&gt;Node16</title>
<g id="a_edge21_Node000014_Node000016"><a xlink:title=" ">
<path fill="none" stroke="#63b8ff" d="M504.28,-329.75C508.71,-322.42 515.16,-311.73 520.62,-302.7"/>
<polygon fill="#63b8ff" stroke="#63b8ff" points="523.64,-304.46 525.81,-294.09 517.65,-300.84 523.64,-304.46"/>
</a>
</g>
</g>
<!-- Node17 -->
<g id="Node000017" class="node">
<title>Node17</title>
<g id="a_Node000017"><a xlink:href="abcgTimer_8hpp.html" target="_top" xlink:title="Header file of abcg::Timer.">
<polygon fill="white" stroke="#666666" points="688.5,-294 599.5,-294 599.5,-275 688.5,-275 688.5,-294"/>
<text text-anchor="middle" x="644" y="-282" font-family="Helvetica,sans-Serif" font-size="10.00">abcgTimer.hpp</text>
</a>
</g>
</g>
<!-- Node14&#45;&gt;Node17 -->
<g id="edge22_Node000014_Node000017" class="edge">
<title>Node14&#45;&gt;Node17</title>
<g id="a_edge22_Node000014_Node000017"><a xlink:title=" ">
<path fill="none" stroke="#63b8ff" d="M522.3,-329.98C546.25,-321.23 583.78,-307.51 610.83,-297.62"/>
<polygon fill="#63b8ff" stroke="#63b8ff" points="612.09,-300.89 620.28,-294.17 609.69,-294.32 612.09,-300.89"/>
</a>
</g>
</g>
<!-- Node18 -->
<g id="Node000018" class="node">
<title>Node18</title>
<g id="a_Node000018"><a xlink:title=" ">
<polygon fill="#e0e0e0" stroke="#999999" points="669,-239 619,-239 619,-220 669,-220 669,-239"/>
<text text-anchor="middle" x="644" y="-227" font-family="Helvetica,sans-Serif" font-size="10.00">chrono</text>
</a>
</g>
</g>
<!-- Node17&#45;&gt;Node18 -->
<g id="edge23_Node000017_Node000018" class="edge">
<title>Node17&#45;&gt;Node18</title>
<g id="a_edge23_Node000017_Node000018"><a xlink:title=" ">
<path fill="none" stroke="#63b8ff" d="M644,-274.75C644,-267.8 644,-257.85 644,-249.13"/>
<polygon fill="#63b8ff" stroke="#63b8ff" points="647.5,-249.09 644,-239.09 640.5,-249.09 647.5,-249.09"/>
</a>
</g>
</g>
</g>
</svg>
