<?xml version="1.0" encoding="UTF-8" standalone="no"?>
<!DOCTYPE svg PUBLIC "-//W3C//DTD SVG 1.1//EN"
 "http://www.w3.org/Graphics/SVG/1.1/DTD/svg11.dtd">
<!-- Generated by graphviz version 2.43.0 (0)
 -->
<!-- Title: /home/harlen/dev/abcg/abcg/abcgShader.hpp Pages: 1 -->
<svg width="707pt" height="307pt"
 viewBox="0.00 0.00 706.50 307.00" xmlns="http://www.w3.org/2000/svg" xmlns:xlink="http://www.w3.org/1999/xlink">
<g id="graph0" class="graph" transform="scale(1 1) rotate(0) translate(4 303)">
<title>/home/harlen/dev/abcg/abcg/abcgShader.hpp</title>
<!-- Node1 -->
<g id="node1" class="node">
<title>Node1</title>
<g id="a_node1"><a xlink:title="Declaration of a structure for building shaders.">
<polygon fill="#bfbfbf" stroke="black" points="251,-268.5 251,-298.5 379,-298.5 379,-268.5 251,-268.5"/>
<text text-anchor="start" x="259" y="-286.5" font-family="Helvetica,sans-Serif" font-size="10.00">/home/harlen/dev/abcg</text>
<text text-anchor="middle" x="315" y="-275.5" font-family="Helvetica,sans-Serif" font-size="10.00">/abcg/abcgShader.hpp</text>
</a>
</g>
</g>
<!-- Node2 -->
<g id="node2" class="node">
<title>Node2</title>
<g id="a_node2"><a xlink:href="abcgOpenGLShader_8hpp.html" target="_top" xlink:title="Declaration of helper functions for building OpenGL shaders.">
<polygon fill="none" stroke="black" points="146.5,-201.5 146.5,-231.5 307.5,-231.5 307.5,-201.5 146.5,-201.5"/>
<text text-anchor="start" x="154.5" y="-219.5" font-family="Helvetica,sans-Serif" font-size="10.00">/home/harlen/dev/abcg</text>
<text text-anchor="middle" x="227" y="-208.5" font-family="Helvetica,sans-Serif" font-size="10.00">/abcg/abcgOpenGLShader.hpp</text>
</a>
</g>
</g>
<!-- Node1&#45;&gt;Node2 -->
<g id="edge1" class="edge">
<title>Node1&#45;&gt;Node2</title>
<path fill="none" stroke="midnightblue" d="M287.86,-262.45C274.32,-252.45 258.27,-240.6 246.06,-231.58"/>
<polygon fill="midnightblue" stroke="midnightblue" points="285.78,-265.27 295.91,-268.4 289.94,-259.64 285.78,-265.27"/>
</g>
<!-- Node5 -->
<g id="node5" class="node">
<title>Node5</title>
<g id="a_node5"><a xlink:href="abcgVulkanShader_8hpp.html" target="_top" xlink:title="Declaration of helper functions for creating Vulkan shaders.">
<polygon fill="none" stroke="black" points="346.5,-201.5 346.5,-231.5 501.5,-231.5 501.5,-201.5 346.5,-201.5"/>
<text text-anchor="start" x="354.5" y="-219.5" font-family="Helvetica,sans-Serif" font-size="10.00">/home/harlen/dev/abcg</text>
<text text-anchor="middle" x="424" y="-208.5" font-family="Helvetica,sans-Serif" font-size="10.00">/abcg/abcgVulkanShader.hpp</text>
</a>
</g>
</g>
<!-- Node1&#45;&gt;Node5 -->
<g id="edge4" class="edge">
<title>Node1&#45;&gt;Node5</title>
<path fill="none" stroke="midnightblue" d="M347.67,-263.02C364.64,-252.9 384.98,-240.77 400.39,-231.58"/>
<polygon fill="midnightblue" stroke="midnightblue" points="345.45,-260.27 338.65,-268.4 349.03,-266.28 345.45,-260.27"/>
</g>
<!-- Node3 -->
<g id="node3" class="node">
<title>Node3</title>
<g id="a_node3"><a xlink:href="abcgOpenGL_8hpp.html" target="_top" xlink:title="Header file for OpenGL&#45;related functions and classes.">
<polygon fill="none" stroke="black" points="0,-134.5 0,-164.5 128,-164.5 128,-134.5 0,-134.5"/>
<text text-anchor="start" x="8" y="-152.5" font-family="Helvetica,sans-Serif" font-size="10.00">/home/harlen/dev/abcg</text>
<text text-anchor="middle" x="64" y="-141.5" font-family="Helvetica,sans-Serif" font-size="10.00">/abcg/abcgOpenGL.hpp</text>
</a>
</g>
</g>
<!-- Node2&#45;&gt;Node3 -->
<g id="edge2" class="edge">
<title>Node2&#45;&gt;Node3</title>
<path fill="none" stroke="midnightblue" d="M182.32,-197.68C156.17,-187.26 123.63,-174.28 99.3,-164.58"/>
<polygon fill="midnightblue" stroke="midnightblue" points="181.05,-200.94 191.63,-201.4 183.64,-194.44 181.05,-200.94"/>
</g>
<!-- Node4 -->
<g id="node4" class="node">
<title>Node4</title>
<g id="a_node4"><a xlink:href="abcgOpenGLShader_8cpp.html" target="_top" xlink:title="Definition of helper functions for building OpenGL shaders.">
<polygon fill="none" stroke="black" points="146.5,-134.5 146.5,-164.5 307.5,-164.5 307.5,-134.5 146.5,-134.5"/>
<text text-anchor="start" x="154.5" y="-152.5" font-family="Helvetica,sans-Serif" font-size="10.00">/home/harlen/dev/abcg</text>
<text text-anchor="middle" x="227" y="-141.5" font-family="Helvetica,sans-Serif" font-size="10.00">/abcg/abcgOpenGLShader.cpp</text>
</a>
</g>
</g>
<!-- Node2&#45;&gt;Node4 -->
<g id="edge3" class="edge">
<title>Node2&#45;&gt;Node4</title>
<path fill="none" stroke="midnightblue" d="M227,-191.11C227,-182.15 227,-172.32 227,-164.58"/>
<polygon fill="midnightblue" stroke="midnightblue" points="223.5,-191.4 227,-201.4 230.5,-191.4 223.5,-191.4"/>
</g>
<!-- Node6 -->
<g id="node6" class="node">
<title>Node6</title>
<g id="a_node6"><a xlink:href="abcgVulkan_8hpp.html" target="_top" xlink:title="Header file for Vulkan&#45;related functions and classes.">
<polygon fill="none" stroke="black" points="272,-67.5 272,-97.5 400,-97.5 400,-67.5 272,-67.5"/>
<text text-anchor="start" x="280" y="-85.5" font-family="Helvetica,sans-Serif" font-size="10.00">/home/harlen/dev/abcg</text>
<text text-anchor="middle" x="336" y="-74.5" font-family="Helvetica,sans-Serif" font-size="10.00">/abcg/abcgVulkan.hpp</text>
</a>
</g>
</g>
<!-- Node5&#45;&gt;Node6 -->
<g id="edge5" class="edge">
<title>Node5&#45;&gt;Node6</title>
<path fill="none" stroke="midnightblue" d="M388.29,-195.88C376.43,-187.76 364.18,-177.32 356,-165 342.22,-144.25 337.92,-114.86 336.59,-97.62"/>
<polygon fill="midnightblue" stroke="midnightblue" points="386.5,-198.89 396.79,-201.39 390.3,-193.02 386.5,-198.89"/>
</g>
<!-- Node8 -->
<g id="node8" class="node">
<title>Node8</title>
<g id="a_node8"><a xlink:href="abcgVulkanPipeline_8hpp.html" target="_top" xlink:title="Header file of abcg::VulkanPipeline.">
<polygon fill="none" stroke="black" points="364.5,-134.5 364.5,-164.5 525.5,-164.5 525.5,-134.5 364.5,-134.5"/>
<text text-anchor="start" x="372.5" y="-152.5" font-family="Helvetica,sans-Serif" font-size="10.00">/home/harlen/dev/abcg</text>
<text text-anchor="middle" x="445" y="-141.5" font-family="Helvetica,sans-Serif" font-size="10.00">/abcg/abcgVulkanPipeline.hpp</text>
</a>
</g>
</g>
<!-- Node5&#45;&gt;Node8 -->
<g id="edge7" class="edge">
<title>Node5&#45;&gt;Node8</title>
<path fill="none" stroke="midnightblue" d="M431.69,-191.7C434.63,-182.59 437.89,-172.49 440.45,-164.58"/>
<polygon fill="midnightblue" stroke="midnightblue" points="428.3,-190.8 428.56,-201.4 434.96,-192.96 428.3,-190.8"/>
</g>
<!-- Node10 -->
<g id="node10" class="node">
<title>Node10</title>
<g id="a_node10"><a xlink:href="abcgVulkanShader_8cpp.html" target="_top" xlink:title="Definition of helper functions for creating Vulkan shaders.">
<polygon fill="none" stroke="black" points="543.5,-134.5 543.5,-164.5 698.5,-164.5 698.5,-134.5 543.5,-134.5"/>
<text text-anchor="start" x="551.5" y="-152.5" font-family="Helvetica,sans-Serif" font-size="10.00">/home/harlen/dev/abcg</text>
<text text-anchor="middle" x="621" y="-141.5" font-family="Helvetica,sans-Serif" font-size="10.00">/abcg/abcgVulkanShader.cpp</text>
</a>
</g>
</g>
<!-- Node5&#45;&gt;Node10 -->
<g id="edge10" class="edge">
<title>Node5&#45;&gt;Node10</title>
<path fill="none" stroke="midnightblue" d="M476.35,-198.23C508.22,-187.71 548.41,-174.45 578.34,-164.58"/>
<polygon fill="midnightblue" stroke="midnightblue" points="475.15,-194.94 466.75,-201.4 477.34,-201.59 475.15,-194.94"/>
</g>
<!-- Node7 -->
<g id="node7" class="node">
<title>Node7</title>
<g id="a_node7"><a xlink:href="abcgVulkanInstance_8cpp.html" target="_top" xlink:title="Definition of abcg::VulkanInstance.">
<polygon fill="none" stroke="black" points="254.5,-0.5 254.5,-30.5 417.5,-30.5 417.5,-0.5 254.5,-0.5"/>
<text text-anchor="start" x="262.5" y="-18.5" font-family="Helvetica,sans-Serif" font-size="10.00">/home/harlen/dev/abcg</text>
<text text-anchor="middle" x="336" y="-7.5" font-family="Helvetica,sans-Serif" font-size="10.00">/abcg/abcgVulkanInstance.cpp</text>
</a>
</g>
</g>
<!-- Node6&#45;&gt;Node7 -->
<g id="edge6" class="edge">
<title>Node6&#45;&gt;Node7</title>
<path fill="none" stroke="midnightblue" d="M336,-57.11C336,-48.15 336,-38.32 336,-30.58"/>
<polygon fill="midnightblue" stroke="midnightblue" points="332.5,-57.4 336,-67.4 339.5,-57.4 332.5,-57.4"/>
</g>
<!-- Node8&#45;&gt;Node6 -->
<g id="edge8" class="edge">
<title>Node8&#45;&gt;Node6</title>
<path fill="none" stroke="midnightblue" d="M412.33,-129.02C395.36,-118.9 375.02,-106.77 359.61,-97.58"/>
<polygon fill="midnightblue" stroke="midnightblue" points="410.97,-132.28 421.35,-134.4 414.55,-126.27 410.97,-132.28"/>
</g>
<!-- Node9 -->
<g id="node9" class="node">
<title>Node9</title>
<g id="a_node9"><a xlink:href="abcgVulkanPipeline_8cpp.html" target="_top" xlink:title="Definition of abcg::VulkanPipeline.">
<polygon fill="none" stroke="black" points="418.5,-67.5 418.5,-97.5 579.5,-97.5 579.5,-67.5 418.5,-67.5"/>
<text text-anchor="start" x="426.5" y="-85.5" font-family="Helvetica,sans-Serif" font-size="10.00">/home/harlen/dev/abcg</text>
<text text-anchor="middle" x="499" y="-74.5" font-family="Helvetica,sans-Serif" font-size="10.00">/abcg/abcgVulkanPipeline.cpp</text>
</a>
</g>
</g>
<!-- Node8&#45;&gt;Node9 -->
<g id="edge9" class="edge">
<title>Node8&#45;&gt;Node9</title>
<path fill="none" stroke="midnightblue" d="M463.32,-126.45C471.25,-116.9 480.3,-106 487.31,-97.58"/>
<polygon fill="midnightblue" stroke="midnightblue" points="460.42,-124.47 456.72,-134.4 465.8,-128.94 460.42,-124.47"/>
</g>
</g>
</svg>
