<?xml version="1.0" encoding="UTF-8" standalone="no"?>
<!DOCTYPE svg PUBLIC "-//W3C//DTD SVG 1.1//EN"
 "http://www.w3.org/Graphics/SVG/1.1/DTD/svg11.dtd">
<!-- Generated by graphviz version 2.43.0 (0)
 -->
<!-- Title: /home/harlen/dev/abcg/abcg/abcgVulkanError.cpp Pages: 1 -->
<svg width="321pt" height="207pt"
 viewBox="0.00 0.00 321.39 207.00" xmlns="http://www.w3.org/2000/svg" xmlns:xlink="http://www.w3.org/1999/xlink">
<g id="graph0" class="graph" transform="scale(1 1) rotate(0) translate(4 203)">
<title>/home/harlen/dev/abcg/abcg/abcgVulkanError.cpp</title>
<!-- Node1 -->
<g id="node1" class="node">
<title>Node1</title>
<g id="a_node1"><a xlink:title="Definition of abcg::VulkanError members.">
<polygon fill="#bfbfbf" stroke="black" points="66.39,-168.5 66.39,-198.5 210.39,-198.5 210.39,-168.5 66.39,-168.5"/>
<text text-anchor="start" x="74.39" y="-186.5" font-family="Helvetica,sans-Serif" font-size="10.00">/home/harlen/dev/abcg</text>
<text text-anchor="middle" x="138.39" y="-175.5" font-family="Helvetica,sans-Serif" font-size="10.00">/abcg/abcgVulkanError.cpp</text>
</a>
</g>
</g>
<!-- Node2 -->
<g id="node2" class="node">
<title>Node2</title>
<g id="a_node2"><a xlink:href="abcgVulkanError_8hpp.html" target="_top" xlink:title="Header file of abcg::VulkanError and derived classes.">
<polygon fill="none" stroke="black" points="25.39,-112.5 25.39,-131.5 141.39,-131.5 141.39,-112.5 25.39,-112.5"/>
<text text-anchor="middle" x="83.39" y="-119.5" font-family="Helvetica,sans-Serif" font-size="10.00">abcgVulkanError.hpp</text>
</a>
</g>
</g>
<!-- Node1&#45;&gt;Node2 -->
<g id="edge1" class="edge">
<title>Node1&#45;&gt;Node2</title>
<path fill="none" stroke="midnightblue" d="M125.36,-168.4C117.2,-159.58 106.67,-148.18 98.2,-139.02"/>
<polygon fill="midnightblue" stroke="midnightblue" points="100.75,-136.63 91.4,-131.66 95.61,-141.38 100.75,-136.63"/>
</g>
<!-- Node9 -->
<g id="node9" class="node">
<title>Node9</title>
<g id="a_node9"><a xlink:title=" ">
<polygon fill="none" stroke="#bfbfbf" points="159.89,-112.5 159.89,-131.5 226.89,-131.5 226.89,-112.5 159.89,-112.5"/>
<text text-anchor="middle" x="193.39" y="-119.5" font-family="Helvetica,sans-Serif" font-size="10.00">fmt/core.h</text>
</a>
</g>
</g>
<!-- Node1&#45;&gt;Node9 -->
<g id="edge9" class="edge">
<title>Node1&#45;&gt;Node9</title>
<path fill="none" stroke="midnightblue" d="M151.43,-168.4C159.58,-159.58 170.11,-148.18 178.59,-139.02"/>
<polygon fill="midnightblue" stroke="midnightblue" points="181.17,-141.38 185.39,-131.66 176.03,-136.63 181.17,-141.38"/>
</g>
<!-- Node3 -->
<g id="node3" class="node">
<title>Node3</title>
<g id="a_node3"><a xlink:title=" ">
<polygon fill="none" stroke="#bfbfbf" points="24.89,-0.5 24.89,-19.5 117.89,-19.5 117.89,-0.5 24.89,-0.5"/>
<text text-anchor="middle" x="71.39" y="-7.5" font-family="Helvetica,sans-Serif" font-size="10.00">source_location</text>
</a>
</g>
</g>
<!-- Node2&#45;&gt;Node3 -->
<g id="edge2" class="edge">
<title>Node2&#45;&gt;Node3</title>
<path fill="none" stroke="midnightblue" d="M53.15,-112.49C35.27,-105.73 14.09,-94.29 3.39,-76 -9.13,-54.59 17.13,-35.71 40.57,-23.89"/>
<polygon fill="midnightblue" stroke="midnightblue" points="42.13,-27.03 49.65,-19.57 39.12,-20.71 42.13,-27.03"/>
</g>
<!-- Node4 -->
<g id="node4" class="node">
<title>Node4</title>
<g id="a_node4"><a xlink:title=" ">
<polygon fill="none" stroke="#bfbfbf" points="12.89,-56.5 12.89,-75.5 59.89,-75.5 59.89,-56.5 12.89,-56.5"/>
<text text-anchor="middle" x="36.39" y="-63.5" font-family="Helvetica,sans-Serif" font-size="10.00">volk.h</text>
</a>
</g>
</g>
<!-- Node2&#45;&gt;Node4 -->
<g id="edge3" class="edge">
<title>Node2&#45;&gt;Node4</title>
<path fill="none" stroke="midnightblue" d="M75.63,-112.08C68.86,-104.3 58.85,-92.8 50.64,-83.37"/>
<polygon fill="midnightblue" stroke="midnightblue" points="53.21,-81 44.01,-75.75 47.93,-85.59 53.21,-81"/>
</g>
<!-- Node5 -->
<g id="node5" class="node">
<title>Node5</title>
<g id="a_node5"><a xlink:title=" ">
<polygon fill="none" stroke="#bfbfbf" points="77.89,-56.5 77.89,-75.5 182.89,-75.5 182.89,-56.5 77.89,-56.5"/>
<text text-anchor="middle" x="130.39" y="-63.5" font-family="Helvetica,sans-Serif" font-size="10.00">vulkan/vulkan.hpp</text>
</a>
</g>
</g>
<!-- Node2&#45;&gt;Node5 -->
<g id="edge4" class="edge">
<title>Node2&#45;&gt;Node5</title>
<path fill="none" stroke="midnightblue" d="M91.15,-112.08C97.93,-104.3 107.94,-92.8 116.15,-83.37"/>
<polygon fill="midnightblue" stroke="midnightblue" points="118.85,-85.59 122.78,-75.75 113.57,-81 118.85,-85.59"/>
</g>
<!-- Node6 -->
<g id="node6" class="node">
<title>Node6</title>
<g id="a_node6"><a xlink:href="abcgException_8hpp.html" target="_top" xlink:title="Header file of abcg::Exception and derived classes.">
<polygon fill="none" stroke="black" points="200.89,-56.5 200.89,-75.5 309.89,-75.5 309.89,-56.5 200.89,-56.5"/>
<text text-anchor="middle" x="255.39" y="-63.5" font-family="Helvetica,sans-Serif" font-size="10.00">abcgException.hpp</text>
</a>
</g>
</g>
<!-- Node2&#45;&gt;Node6 -->
<g id="edge5" class="edge">
<title>Node2&#45;&gt;Node6</title>
<path fill="none" stroke="midnightblue" d="M110.65,-112.44C139.83,-103.28 186.31,-88.69 218.7,-78.52"/>
<polygon fill="midnightblue" stroke="midnightblue" points="219.77,-81.85 228.27,-75.52 217.68,-75.17 219.77,-81.85"/>
</g>
<!-- Node6&#45;&gt;Node3 -->
<g id="edge6" class="edge">
<title>Node6&#45;&gt;Node3</title>
<path fill="none" stroke="midnightblue" d="M226.24,-56.44C194.88,-47.24 144.86,-32.56 110.2,-22.39"/>
<polygon fill="midnightblue" stroke="midnightblue" points="110.99,-18.97 100.41,-19.52 109.02,-25.69 110.99,-18.97"/>
</g>
<!-- Node7 -->
<g id="node7" class="node">
<title>Node7</title>
<g id="a_node7"><a xlink:title=" ">
<polygon fill="none" stroke="#bfbfbf" points="185.89,-0.5 185.89,-19.5 250.89,-19.5 250.89,-0.5 185.89,-0.5"/>
<text text-anchor="middle" x="218.39" y="-7.5" font-family="Helvetica,sans-Serif" font-size="10.00">stdexcept</text>
</a>
</g>
</g>
<!-- Node6&#45;&gt;Node7 -->
<g id="edge7" class="edge">
<title>Node6&#45;&gt;Node7</title>
<path fill="none" stroke="midnightblue" d="M249.28,-56.08C244.11,-48.53 236.55,-37.49 230.2,-28.23"/>
<polygon fill="midnightblue" stroke="midnightblue" points="232.93,-26.02 224.39,-19.75 227.15,-29.98 232.93,-26.02"/>
</g>
<!-- Node8 -->
<g id="node8" class="node">
<title>Node8</title>
<g id="a_node8"><a xlink:title=" ">
<polygon fill="none" stroke="#bfbfbf" points="269.39,-0.5 269.39,-19.5 313.39,-19.5 313.39,-0.5 269.39,-0.5"/>
<text text-anchor="middle" x="291.39" y="-7.5" font-family="Helvetica,sans-Serif" font-size="10.00">string</text>
</a>
</g>
</g>
<!-- Node6&#45;&gt;Node8 -->
<g id="edge8" class="edge">
<title>Node6&#45;&gt;Node8</title>
<path fill="none" stroke="midnightblue" d="M261.34,-56.08C266.37,-48.53 273.73,-37.49 279.91,-28.23"/>
<polygon fill="midnightblue" stroke="midnightblue" points="282.92,-30.01 285.56,-19.75 277.1,-26.13 282.92,-30.01"/>
</g>
</g>
</svg>
