<?xml version="1.0" encoding="UTF-8" standalone="no"?>
<!DOCTYPE svg PUBLIC "-//W3C//DTD SVG 1.1//EN"
 "http://www.w3.org/Graphics/SVG/1.1/DTD/svg11.dtd">
<!-- Generated by graphviz version 2.43.0 (0)
 -->
<!-- Title: /home/harlen/dev/abcg2/abcg/abcg_opengl_shader.hpp Pages: 1 -->
<svg width="464pt" height="151pt"
 viewBox="0.00 0.00 464.00 151.00" xmlns="http://www.w3.org/2000/svg" xmlns:xlink="http://www.w3.org/1999/xlink">
<g id="graph0" class="graph" transform="scale(1 1) rotate(0) translate(4 147)">
<title>/home/harlen/dev/abcg2/abcg/abcg_opengl_shader.hpp</title>
<!-- Node1 -->
<g id="node1" class="node">
<title>Node1</title>
<g id="a_node1"><a xlink:title="Declaration of helper functions for building OpenGL shaders.">
<polygon fill="#bfbfbf" stroke="black" points="206.5,-112.5 206.5,-142.5 372.5,-142.5 372.5,-112.5 206.5,-112.5"/>
<text text-anchor="start" x="214.5" y="-130.5" font-family="Helvetica,sans-Serif" font-size="10.00">/home/harlen/dev/abcg2</text>
<text text-anchor="middle" x="289.5" y="-119.5" font-family="Helvetica,sans-Serif" font-size="10.00">/abcg/abcg_opengl_shader.hpp</text>
</a>
</g>
</g>
<!-- Node2 -->
<g id="node2" class="node">
<title>Node2</title>
<g id="a_node2"><a xlink:href="abcg__opengl__external_8hpp.html" target="_top" xlink:title="Header file for including OpenGL&#45;related third&#45;party dependencies.">
<polygon fill="none" stroke="black" points="0,-56.5 0,-75.5 145,-75.5 145,-56.5 0,-56.5"/>
<text text-anchor="middle" x="72.5" y="-63.5" font-family="Helvetica,sans-Serif" font-size="10.00">abcg_opengl_external.hpp</text>
</a>
</g>
</g>
<!-- Node1&#45;&gt;Node2 -->
<g id="edge1" class="edge">
<title>Node1&#45;&gt;Node2</title>
<path fill="none" stroke="midnightblue" d="M238.35,-112.47C200.26,-102.03 148.93,-87.96 113.52,-78.25"/>
<polygon fill="midnightblue" stroke="midnightblue" points="114.09,-74.78 103.52,-75.51 112.24,-81.53 114.09,-74.78"/>
</g>
<!-- Node3 -->
<g id="node3" class="node">
<title>Node3</title>
<g id="a_node3"><a xlink:href="abcg__shader_8hpp.html" target="_top" xlink:title="Declaration of helper functions for building shaders and programs.">
<polygon fill="none" stroke="black" points="163.5,-56.5 163.5,-75.5 261.5,-75.5 261.5,-56.5 163.5,-56.5"/>
<text text-anchor="middle" x="212.5" y="-63.5" font-family="Helvetica,sans-Serif" font-size="10.00">abcg_shader.hpp</text>
</a>
</g>
</g>
<!-- Node1&#45;&gt;Node3 -->
<g id="edge2" class="edge">
<title>Node1&#45;&gt;Node3</title>
<path fill="none" stroke="midnightblue" d="M271.25,-112.4C259.37,-103.22 243.89,-91.26 231.81,-81.92"/>
<polygon fill="midnightblue" stroke="midnightblue" points="233.76,-79 223.7,-75.66 229.48,-84.54 233.76,-79"/>
</g>
<!-- Node4 -->
<g id="node4" class="node">
<title>Node4</title>
<g id="a_node4"><a xlink:title=" ">
<polygon fill="none" stroke="#bfbfbf" points="228.5,-0.5 228.5,-19.5 272.5,-19.5 272.5,-0.5 228.5,-0.5"/>
<text text-anchor="middle" x="250.5" y="-7.5" font-family="Helvetica,sans-Serif" font-size="10.00">string</text>
</a>
</g>
</g>
<!-- Node1&#45;&gt;Node4 -->
<g id="edge4" class="edge">
<title>Node1&#45;&gt;Node4</title>
<path fill="none" stroke="midnightblue" d="M286.35,-112.26C283.01,-97.88 277.28,-75.12 270.5,-56 267.29,-46.93 263.03,-37.15 259.28,-29.02"/>
<polygon fill="midnightblue" stroke="midnightblue" points="262.35,-27.33 254.9,-19.8 256.03,-30.33 262.35,-27.33"/>
</g>
<!-- Node5 -->
<g id="node5" class="node">
<title>Node5</title>
<g id="a_node5"><a xlink:title=" ">
<polygon fill="none" stroke="#bfbfbf" points="318,-56.5 318,-75.5 391,-75.5 391,-56.5 318,-56.5"/>
<text text-anchor="middle" x="354.5" y="-63.5" font-family="Helvetica,sans-Serif" font-size="10.00">string_view</text>
</a>
</g>
</g>
<!-- Node1&#45;&gt;Node5 -->
<g id="edge5" class="edge">
<title>Node1&#45;&gt;Node5</title>
<path fill="none" stroke="midnightblue" d="M304.9,-112.4C314.74,-103.4 327.49,-91.72 337.61,-82.47"/>
<polygon fill="midnightblue" stroke="midnightblue" points="340.03,-84.99 345.04,-75.66 335.3,-79.83 340.03,-84.99"/>
</g>
<!-- Node6 -->
<g id="node6" class="node">
<title>Node6</title>
<g id="a_node6"><a xlink:title=" ">
<polygon fill="none" stroke="#bfbfbf" points="409,-56.5 409,-75.5 456,-75.5 456,-56.5 409,-56.5"/>
<text text-anchor="middle" x="432.5" y="-63.5" font-family="Helvetica,sans-Serif" font-size="10.00">vector</text>
</a>
</g>
</g>
<!-- Node1&#45;&gt;Node6 -->
<g id="edge6" class="edge">
<title>Node1&#45;&gt;Node6</title>
<path fill="none" stroke="midnightblue" d="M323.39,-112.4C347.38,-102.42 379.27,-89.15 402.38,-79.53"/>
<polygon fill="midnightblue" stroke="midnightblue" points="403.8,-82.73 411.69,-75.66 401.11,-76.27 403.8,-82.73"/>
</g>
<!-- Node3&#45;&gt;Node4 -->
<g id="edge3" class="edge">
<title>Node3&#45;&gt;Node4</title>
<path fill="none" stroke="midnightblue" d="M218.77,-56.08C224.14,-48.46 232.02,-37.26 238.58,-27.94"/>
<polygon fill="midnightblue" stroke="midnightblue" points="241.45,-29.94 244.34,-19.75 235.72,-25.91 241.45,-29.94"/>
</g>
</g>
</svg>
