<?xml version="1.0" encoding="UTF-8" standalone="no"?>
<!DOCTYPE svg PUBLIC "-//W3C//DTD SVG 1.1//EN"
 "http://www.w3.org/Graphics/SVG/1.1/DTD/svg11.dtd">
<!-- Generated by graphviz version 2.43.0 (0)
 -->
<!-- Title: /home/harlen/dev/abcg/abcg/abcgOpenGLImage.cpp Pages: 1 -->
<svg width="870pt" height="151pt"
 viewBox="0.00 0.00 870.00 151.00" xmlns="http://www.w3.org/2000/svg" xmlns:xlink="http://www.w3.org/1999/xlink">
<g id="graph0" class="graph" transform="scale(1 1) rotate(0) translate(4 147)">
<title>/home/harlen/dev/abcg/abcg/abcgOpenGLImage.cpp</title>
<!-- Node1 -->
<g id="node1" class="node">
<title>Node1</title>
<g id="a_node1"><a xlink:title="Definition of OpenGL texture loading helper functions.">
<polygon fill="#bfbfbf" stroke="black" points="454,-112.5 454,-142.5 612,-142.5 612,-112.5 454,-112.5"/>
<text text-anchor="start" x="462" y="-130.5" font-family="Helvetica,sans-Serif" font-size="10.00">/home/harlen/dev/abcg</text>
<text text-anchor="middle" x="533" y="-119.5" font-family="Helvetica,sans-Serif" font-size="10.00">/abcg/abcgOpenGLImage.cpp</text>
</a>
</g>
</g>
<!-- Node2 -->
<g id="node2" class="node">
<title>Node2</title>
<g id="a_node2"><a xlink:href="abcgOpenGLImage_8hpp.html" target="_top" xlink:title="Declaration of OpenGL texture loading helper functions.">
<polygon fill="none" stroke="black" points="135,-56.5 135,-75.5 265,-75.5 265,-56.5 135,-56.5"/>
<text text-anchor="middle" x="200" y="-63.5" font-family="Helvetica,sans-Serif" font-size="10.00">abcgOpenGLImage.hpp</text>
</a>
</g>
</g>
<!-- Node1&#45;&gt;Node2 -->
<g id="edge1" class="edge">
<title>Node1&#45;&gt;Node2</title>
<path fill="none" stroke="midnightblue" d="M454.51,-112.47C394.17,-101.69 312.2,-87.05 257.77,-77.32"/>
<polygon fill="midnightblue" stroke="midnightblue" points="258.07,-73.82 247.61,-75.51 256.84,-80.71 258.07,-73.82"/>
</g>
<!-- Node6 -->
<g id="node6" class="node">
<title>Node6</title>
<g id="a_node6"><a xlink:href="abcgImage_8hpp.html" target="_top" xlink:title="Declaration of image manipulation helper functions.">
<polygon fill="none" stroke="black" points="293,-56.5 293,-75.5 385,-75.5 385,-56.5 293,-56.5"/>
<text text-anchor="middle" x="339" y="-63.5" font-family="Helvetica,sans-Serif" font-size="10.00">abcgImage.hpp</text>
</a>
</g>
</g>
<!-- Node1&#45;&gt;Node6 -->
<g id="edge5" class="edge">
<title>Node1&#45;&gt;Node6</title>
<path fill="none" stroke="midnightblue" d="M487.02,-112.4C453.36,-102.07 408.22,-88.23 376.68,-78.56"/>
<polygon fill="midnightblue" stroke="midnightblue" points="377.53,-75.16 366.95,-75.57 375.48,-81.85 377.53,-75.16"/>
</g>
<!-- Node8 -->
<g id="node8" class="node">
<title>Node8</title>
<g id="a_node8"><a xlink:title=" ">
<polygon fill="none" stroke="#bfbfbf" points="403.5,-56.5 403.5,-75.5 542.5,-75.5 542.5,-56.5 403.5,-56.5"/>
<text text-anchor="middle" x="473" y="-63.5" font-family="Helvetica,sans-Serif" font-size="10.00">cppitertools/itertools.hpp</text>
</a>
</g>
</g>
<!-- Node1&#45;&gt;Node8 -->
<g id="edge7" class="edge">
<title>Node1&#45;&gt;Node8</title>
<path fill="none" stroke="midnightblue" d="M518.78,-112.4C509.79,-103.49 498.16,-91.95 488.87,-82.74"/>
<polygon fill="midnightblue" stroke="midnightblue" points="491.3,-80.21 481.73,-75.66 486.37,-85.18 491.3,-80.21"/>
</g>
<!-- Node9 -->
<g id="node9" class="node">
<title>Node9</title>
<g id="a_node9"><a xlink:title=" ">
<polygon fill="none" stroke="#bfbfbf" points="560.5,-56.5 560.5,-75.5 627.5,-75.5 627.5,-56.5 560.5,-56.5"/>
<text text-anchor="middle" x="594" y="-63.5" font-family="Helvetica,sans-Serif" font-size="10.00">fmt/core.h</text>
</a>
</g>
</g>
<!-- Node1&#45;&gt;Node9 -->
<g id="edge8" class="edge">
<title>Node1&#45;&gt;Node9</title>
<path fill="none" stroke="midnightblue" d="M547.46,-112.4C556.59,-103.49 568.42,-91.95 577.86,-82.74"/>
<polygon fill="midnightblue" stroke="midnightblue" points="580.41,-85.15 585.12,-75.66 575.52,-80.13 580.41,-85.15"/>
</g>
<!-- Node10 -->
<g id="node10" class="node">
<title>Node10</title>
<g id="a_node10"><a xlink:title=" ">
<polygon fill="none" stroke="#bfbfbf" points="646,-56.5 646,-75.5 694,-75.5 694,-56.5 646,-56.5"/>
<text text-anchor="middle" x="670" y="-63.5" font-family="Helvetica,sans-Serif" font-size="10.00">gsl/gsl</text>
</a>
</g>
</g>
<!-- Node1&#45;&gt;Node10 -->
<g id="edge9" class="edge">
<title>Node1&#45;&gt;Node10</title>
<path fill="none" stroke="midnightblue" d="M565.47,-112.4C588.35,-102.46 618.73,-89.26 640.84,-79.66"/>
<polygon fill="midnightblue" stroke="midnightblue" points="642.29,-82.85 650.07,-75.66 639.5,-76.43 642.29,-82.85"/>
</g>
<!-- Node11 -->
<g id="node11" class="node">
<title>Node11</title>
<g id="a_node11"><a xlink:href="abcgException_8hpp.html" target="_top" xlink:title="Header file of abcg::Exception and derived classes.">
<polygon fill="none" stroke="black" points="712.5,-56.5 712.5,-75.5 821.5,-75.5 821.5,-56.5 712.5,-56.5"/>
<text text-anchor="middle" x="767" y="-63.5" font-family="Helvetica,sans-Serif" font-size="10.00">abcgException.hpp</text>
</a>
</g>
</g>
<!-- Node1&#45;&gt;Node11 -->
<g id="edge10" class="edge">
<title>Node1&#45;&gt;Node11</title>
<path fill="none" stroke="midnightblue" d="M588.16,-112.47C629.59,-101.94 685.53,-87.72 723.75,-78"/>
<polygon fill="midnightblue" stroke="midnightblue" points="724.72,-81.36 733.55,-75.51 722.99,-74.58 724.72,-81.36"/>
</g>
<!-- Node3 -->
<g id="node3" class="node">
<title>Node3</title>
<g id="a_node3"><a xlink:href="abcgOpenGLExternal_8hpp.html" target="_top" xlink:title="Header file for including OpenGL&#45;related third&#45;party dependencies.">
<polygon fill="none" stroke="black" points="0,-0.5 0,-19.5 140,-19.5 140,-0.5 0,-0.5"/>
<text text-anchor="middle" x="70" y="-7.5" font-family="Helvetica,sans-Serif" font-size="10.00">abcgOpenGLExternal.hpp</text>
</a>
</g>
</g>
<!-- Node2&#45;&gt;Node3 -->
<g id="edge2" class="edge">
<title>Node2&#45;&gt;Node3</title>
<path fill="none" stroke="midnightblue" d="M179.4,-56.44C158.01,-47.56 124.32,-33.56 99.98,-23.45"/>
<polygon fill="midnightblue" stroke="midnightblue" points="101.08,-20.12 90.5,-19.52 98.39,-26.58 101.08,-20.12"/>
</g>
<!-- Node4 -->
<g id="node4" class="node">
<title>Node4</title>
<g id="a_node4"><a xlink:title=" ">
<polygon fill="none" stroke="#bfbfbf" points="158,-0.5 158,-19.5 200,-19.5 200,-0.5 158,-0.5"/>
<text text-anchor="middle" x="179" y="-7.5" font-family="Helvetica,sans-Serif" font-size="10.00">array</text>
</a>
</g>
</g>
<!-- Node2&#45;&gt;Node4 -->
<g id="edge3" class="edge">
<title>Node2&#45;&gt;Node4</title>
<path fill="none" stroke="midnightblue" d="M196.53,-56.08C193.69,-48.77 189.57,-38.18 186.04,-29.1"/>
<polygon fill="midnightblue" stroke="midnightblue" points="189.29,-27.8 182.4,-19.75 182.77,-30.34 189.29,-27.8"/>
</g>
<!-- Node5 -->
<g id="node5" class="node">
<title>Node5</title>
<g id="a_node5"><a xlink:title=" ">
<polygon fill="none" stroke="#bfbfbf" points="218.5,-0.5 218.5,-19.5 291.5,-19.5 291.5,-0.5 218.5,-0.5"/>
<text text-anchor="middle" x="255" y="-7.5" font-family="Helvetica,sans-Serif" font-size="10.00">string_view</text>
</a>
</g>
</g>
<!-- Node2&#45;&gt;Node5 -->
<g id="edge4" class="edge">
<title>Node2&#45;&gt;Node5</title>
<path fill="none" stroke="midnightblue" d="M209.08,-56.08C217.17,-48.14 229.2,-36.34 238.91,-26.8"/>
<polygon fill="midnightblue" stroke="midnightblue" points="241.4,-29.25 246.09,-19.75 236.5,-24.26 241.4,-29.25"/>
</g>
<!-- Node7 -->
<g id="node7" class="node">
<title>Node7</title>
<g id="a_node7"><a xlink:title=" ">
<polygon fill="none" stroke="#bfbfbf" points="310,-0.5 310,-19.5 390,-19.5 390,-0.5 310,-0.5"/>
<text text-anchor="middle" x="350" y="-7.5" font-family="Helvetica,sans-Serif" font-size="10.00">SDL_image.h</text>
</a>
</g>
</g>
<!-- Node6&#45;&gt;Node7 -->
<g id="edge6" class="edge">
<title>Node6&#45;&gt;Node7</title>
<path fill="none" stroke="midnightblue" d="M340.82,-56.08C342.27,-48.93 344.37,-38.64 346.19,-29.69"/>
<polygon fill="midnightblue" stroke="midnightblue" points="349.65,-30.25 348.22,-19.75 342.79,-28.85 349.65,-30.25"/>
</g>
<!-- Node12 -->
<g id="node12" class="node">
<title>Node12</title>
<g id="a_node12"><a xlink:title=" ">
<polygon fill="none" stroke="#bfbfbf" points="623.5,-0.5 623.5,-19.5 716.5,-19.5 716.5,-0.5 623.5,-0.5"/>
<text text-anchor="middle" x="670" y="-7.5" font-family="Helvetica,sans-Serif" font-size="10.00">source_location</text>
</a>
</g>
</g>
<!-- Node11&#45;&gt;Node12 -->
<g id="edge11" class="edge">
<title>Node11&#45;&gt;Node12</title>
<path fill="none" stroke="midnightblue" d="M751.42,-56.32C736,-47.74 712.19,-34.49 694.29,-24.52"/>
<polygon fill="midnightblue" stroke="midnightblue" points="695.99,-21.46 685.55,-19.65 692.58,-27.58 695.99,-21.46"/>
</g>
<!-- Node13 -->
<g id="node13" class="node">
<title>Node13</title>
<g id="a_node13"><a xlink:title=" ">
<polygon fill="none" stroke="#bfbfbf" points="734.5,-0.5 734.5,-19.5 799.5,-19.5 799.5,-0.5 734.5,-0.5"/>
<text text-anchor="middle" x="767" y="-7.5" font-family="Helvetica,sans-Serif" font-size="10.00">stdexcept</text>
</a>
</g>
</g>
<!-- Node11&#45;&gt;Node13 -->
<g id="edge12" class="edge">
<title>Node11&#45;&gt;Node13</title>
<path fill="none" stroke="midnightblue" d="M767,-56.08C767,-49.01 767,-38.86 767,-29.99"/>
<polygon fill="midnightblue" stroke="midnightblue" points="770.5,-29.75 767,-19.75 763.5,-29.75 770.5,-29.75"/>
</g>
<!-- Node14 -->
<g id="node14" class="node">
<title>Node14</title>
<g id="a_node14"><a xlink:title=" ">
<polygon fill="none" stroke="#bfbfbf" points="818,-0.5 818,-19.5 862,-19.5 862,-0.5 818,-0.5"/>
<text text-anchor="middle" x="840" y="-7.5" font-family="Helvetica,sans-Serif" font-size="10.00">string</text>
</a>
</g>
</g>
<!-- Node11&#45;&gt;Node14 -->
<g id="edge13" class="edge">
<title>Node11&#45;&gt;Node14</title>
<path fill="none" stroke="midnightblue" d="M778.73,-56.32C789.84,-48.11 806.74,-35.6 819.98,-25.81"/>
<polygon fill="midnightblue" stroke="midnightblue" points="822.1,-28.59 828.06,-19.83 817.94,-22.97 822.1,-28.59"/>
</g>
</g>
</svg>
