<?xml version="1.0" encoding="UTF-8" standalone="no"?>
<!DOCTYPE svg PUBLIC "-//W3C//DTD SVG 1.1//EN"
 "http://www.w3.org/Graphics/SVG/1.1/DTD/svg11.dtd">
<!-- Generated by graphviz version 2.43.0 (0)
 -->
<!-- Title: /home/harlen/dev/abcg2/abcg/abcg_opengl_error.cpp Pages: 1 -->
<svg width="454pt" height="207pt"
 viewBox="0.00 0.00 454.00 207.00" xmlns="http://www.w3.org/2000/svg" xmlns:xlink="http://www.w3.org/1999/xlink">
<g id="graph0" class="graph" transform="scale(1 1) rotate(0) translate(4 203)">
<title>/home/harlen/dev/abcg2/abcg/abcg_opengl_error.cpp</title>
<!-- Node1 -->
<g id="node1" class="node">
<title>Node1</title>
<g id="a_node1"><a xlink:title="Definition of abcg::OpenGLError members.">
<polygon fill="#bfbfbf" stroke="black" points="152,-168.5 152,-198.5 307,-198.5 307,-168.5 152,-168.5"/>
<text text-anchor="start" x="160" y="-186.5" font-family="Helvetica,sans-Serif" font-size="10.00">/home/harlen/dev/abcg2</text>
<text text-anchor="middle" x="229.5" y="-175.5" font-family="Helvetica,sans-Serif" font-size="10.00">/abcg/abcg_opengl_error.cpp</text>
</a>
</g>
</g>
<!-- Node2 -->
<g id="node2" class="node">
<title>Node2</title>
<g id="a_node2"><a xlink:href="abcg__opengl__error_8hpp.html" target="_top" xlink:title="Header file of abcg::OpenGLError and derived classes.">
<polygon fill="none" stroke="black" points="31,-112.5 31,-131.5 158,-131.5 158,-112.5 31,-112.5"/>
<text text-anchor="middle" x="94.5" y="-119.5" font-family="Helvetica,sans-Serif" font-size="10.00">abcg_opengl_error.hpp</text>
</a>
</g>
</g>
<!-- Node1&#45;&gt;Node2 -->
<g id="edge1" class="edge">
<title>Node1&#45;&gt;Node2</title>
<path fill="none" stroke="midnightblue" d="M197.51,-168.4C175.06,-158.51 145.29,-145.38 123.52,-135.79"/>
<polygon fill="midnightblue" stroke="midnightblue" points="124.71,-132.49 114.14,-131.66 121.88,-138.89 124.71,-132.49"/>
</g>
<!-- Node7 -->
<g id="node7" class="node">
<title>Node7</title>
<g id="a_node7"><a xlink:href="abcg__external_8hpp.html" target="_top" xlink:title="Header file for including third&#45;party dependencies.">
<polygon fill="none" stroke="black" points="176,-112.5 176,-131.5 283,-131.5 283,-112.5 176,-112.5"/>
<text text-anchor="middle" x="229.5" y="-119.5" font-family="Helvetica,sans-Serif" font-size="10.00">abcg_external.hpp</text>
</a>
</g>
</g>
<!-- Node1&#45;&gt;Node7 -->
<g id="edge7" class="edge">
<title>Node1&#45;&gt;Node7</title>
<path fill="none" stroke="midnightblue" d="M229.5,-168.4C229.5,-160.47 229.5,-150.46 229.5,-141.86"/>
<polygon fill="midnightblue" stroke="midnightblue" points="233,-141.66 229.5,-131.66 226,-141.66 233,-141.66"/>
</g>
<!-- Node8 -->
<g id="node8" class="node">
<title>Node8</title>
<g id="a_node8"><a xlink:href="abcg__opengl__external_8hpp.html" target="_top" xlink:title="Header file for including OpenGL&#45;related third&#45;party dependencies.">
<polygon fill="none" stroke="black" points="301,-112.5 301,-131.5 446,-131.5 446,-112.5 301,-112.5"/>
<text text-anchor="middle" x="373.5" y="-119.5" font-family="Helvetica,sans-Serif" font-size="10.00">abcg_opengl_external.hpp</text>
</a>
</g>
</g>
<!-- Node1&#45;&gt;Node8 -->
<g id="edge8" class="edge">
<title>Node1&#45;&gt;Node8</title>
<path fill="none" stroke="midnightblue" d="M263.63,-168.4C287.79,-158.42 319.9,-145.15 343.17,-135.53"/>
<polygon fill="midnightblue" stroke="midnightblue" points="344.64,-138.71 352.55,-131.66 341.97,-132.24 344.64,-138.71"/>
</g>
<!-- Node3 -->
<g id="node3" class="node">
<title>Node3</title>
<g id="a_node3"><a xlink:title=" ">
<polygon fill="none" stroke="#bfbfbf" points="0,-0.5 0,-19.5 93,-19.5 93,-0.5 0,-0.5"/>
<text text-anchor="middle" x="46.5" y="-7.5" font-family="Helvetica,sans-Serif" font-size="10.00">source_location</text>
</a>
</g>
</g>
<!-- Node2&#45;&gt;Node3 -->
<g id="edge2" class="edge">
<title>Node2&#45;&gt;Node3</title>
<path fill="none" stroke="midnightblue" d="M90.64,-112.39C86.59,-103.34 80.05,-88.69 74.5,-76 67.58,-60.19 59.83,-42.16 54.24,-29.11"/>
<polygon fill="midnightblue" stroke="midnightblue" points="57.42,-27.66 50.27,-19.85 50.99,-30.42 57.42,-27.66"/>
</g>
<!-- Node4 -->
<g id="node4" class="node">
<title>Node4</title>
<g id="a_node4"><a xlink:href="abcg__exception_8hpp.html" target="_top" xlink:title="Header file of abcg::Exception and derived classes.">
<polygon fill="none" stroke="black" points="83.5,-56.5 83.5,-75.5 197.5,-75.5 197.5,-56.5 83.5,-56.5"/>
<text text-anchor="middle" x="140.5" y="-63.5" font-family="Helvetica,sans-Serif" font-size="10.00">abcg_exception.hpp</text>
</a>
</g>
</g>
<!-- Node2&#45;&gt;Node4 -->
<g id="edge3" class="edge">
<title>Node2&#45;&gt;Node4</title>
<path fill="none" stroke="midnightblue" d="M102.1,-112.08C108.73,-104.3 118.52,-92.8 126.56,-83.37"/>
<polygon fill="midnightblue" stroke="midnightblue" points="129.23,-85.63 133.05,-75.75 123.9,-81.09 129.23,-85.63"/>
</g>
<!-- Node4&#45;&gt;Node3 -->
<g id="edge4" class="edge">
<title>Node4&#45;&gt;Node3</title>
<path fill="none" stroke="midnightblue" d="M125.4,-56.32C110.6,-47.82 87.81,-34.73 70.52,-24.8"/>
<polygon fill="midnightblue" stroke="midnightblue" points="71.98,-21.6 61.57,-19.65 68.49,-27.67 71.98,-21.6"/>
</g>
<!-- Node5 -->
<g id="node5" class="node">
<title>Node5</title>
<g id="a_node5"><a xlink:title=" ">
<polygon fill="none" stroke="#bfbfbf" points="111,-0.5 111,-19.5 176,-19.5 176,-0.5 111,-0.5"/>
<text text-anchor="middle" x="143.5" y="-7.5" font-family="Helvetica,sans-Serif" font-size="10.00">stdexcept</text>
</a>
</g>
</g>
<!-- Node4&#45;&gt;Node5 -->
<g id="edge5" class="edge">
<title>Node4&#45;&gt;Node5</title>
<path fill="none" stroke="midnightblue" d="M141,-56.08C141.39,-49.01 141.95,-38.86 142.45,-29.99"/>
<polygon fill="midnightblue" stroke="midnightblue" points="145.95,-29.93 143.01,-19.75 138.96,-29.54 145.95,-29.93"/>
</g>
<!-- Node6 -->
<g id="node6" class="node">
<title>Node6</title>
<g id="a_node6"><a xlink:title=" ">
<polygon fill="none" stroke="#bfbfbf" points="194.5,-0.5 194.5,-19.5 238.5,-19.5 238.5,-0.5 194.5,-0.5"/>
<text text-anchor="middle" x="216.5" y="-7.5" font-family="Helvetica,sans-Serif" font-size="10.00">string</text>
</a>
</g>
</g>
<!-- Node4&#45;&gt;Node6 -->
<g id="edge6" class="edge">
<title>Node4&#45;&gt;Node6</title>
<path fill="none" stroke="midnightblue" d="M152.71,-56.32C164.28,-48.11 181.88,-35.6 195.66,-25.81"/>
<polygon fill="midnightblue" stroke="midnightblue" points="197.94,-28.48 204.07,-19.83 193.89,-22.77 197.94,-28.48"/>
</g>
</g>
</svg>
