<?xml version="1.0" encoding="UTF-8" standalone="no"?>
<!DOCTYPE svg PUBLIC "-//W3C//DTD SVG 1.1//EN"
 "http://www.w3.org/Graphics/SVG/1.1/DTD/svg11.dtd">
<!-- Generated by graphviz version 2.43.0 (0)
 -->
<!-- Title: /home/harlen/dev/abcg/abcg/abcgVulkanShader.cpp Pages: 1 -->
<svg width="979pt" height="375pt"
 viewBox="0.00 0.00 979.00 375.00" xmlns="http://www.w3.org/2000/svg" xmlns:xlink="http://www.w3.org/1999/xlink">
<g id="graph0" class="graph" transform="scale(1 1) rotate(0) translate(4 371)">
<title>/home/harlen/dev/abcg/abcg/abcgVulkanShader.cpp</title>
<!-- Node1 -->
<g id="node1" class="node">
<title>Node1</title>
<g id="a_node1"><a xlink:title="Definition of helper functions for creating Vulkan shaders.">
<polygon fill="#bfbfbf" stroke="black" points="634,-336.5 634,-366.5 789,-366.5 789,-336.5 634,-336.5"/>
<text text-anchor="start" x="642" y="-354.5" font-family="Helvetica,sans-Serif" font-size="10.00">/home/harlen/dev/abcg</text>
<text text-anchor="middle" x="711.5" y="-343.5" font-family="Helvetica,sans-Serif" font-size="10.00">/abcg/abcgVulkanShader.cpp</text>
</a>
</g>
</g>
<!-- Node2 -->
<g id="node2" class="node">
<title>Node2</title>
<g id="a_node2"><a xlink:href="abcgVulkanShader_8hpp.html" target="_top" xlink:title="Declaration of helper functions for creating Vulkan shaders.">
<polygon fill="none" stroke="black" points="216.5,-280.5 216.5,-299.5 342.5,-299.5 342.5,-280.5 216.5,-280.5"/>
<text text-anchor="middle" x="279.5" y="-287.5" font-family="Helvetica,sans-Serif" font-size="10.00">abcgVulkanShader.hpp</text>
</a>
</g>
</g>
<!-- Node1&#45;&gt;Node2 -->
<g id="edge1" class="edge">
<title>Node1&#45;&gt;Node2</title>
<path fill="none" stroke="midnightblue" d="M633.77,-339.79C553.56,-328.75 429.47,-311.66 351.46,-300.91"/>
<polygon fill="midnightblue" stroke="midnightblue" points="351.62,-297.4 341.23,-299.5 350.66,-304.33 351.62,-297.4"/>
</g>
<!-- Node13 -->
<g id="node13" class="node">
<title>Node13</title>
<g id="a_node13"><a xlink:href="abcgException_8hpp.html" target="_top" xlink:title="Header file of abcg::Exception and derived classes.">
<polygon fill="none" stroke="black" points="372,-280.5 372,-299.5 481,-299.5 481,-280.5 372,-280.5"/>
<text text-anchor="middle" x="426.5" y="-287.5" font-family="Helvetica,sans-Serif" font-size="10.00">abcgException.hpp</text>
</a>
</g>
</g>
<!-- Node1&#45;&gt;Node13 -->
<g id="edge14" class="edge">
<title>Node1&#45;&gt;Node13</title>
<path fill="none" stroke="midnightblue" d="M644.32,-336.47C593.11,-325.78 523.69,-311.29 477.11,-301.57"/>
<polygon fill="midnightblue" stroke="midnightblue" points="477.75,-298.12 467.24,-299.51 476.32,-304.98 477.75,-298.12"/>
</g>
<!-- Node16 -->
<g id="node16" class="node">
<title>Node16</title>
<g id="a_node16"><a xlink:title=" ">
<polygon fill="none" stroke="#bfbfbf" points="499.5,-280.5 499.5,-299.5 659.5,-299.5 659.5,-280.5 499.5,-280.5"/>
<text text-anchor="middle" x="579.5" y="-287.5" font-family="Helvetica,sans-Serif" font-size="10.00">glslang/SPIRV/GlslangToSpv.h</text>
</a>
</g>
</g>
<!-- Node1&#45;&gt;Node16 -->
<g id="edge18" class="edge">
<title>Node1&#45;&gt;Node16</title>
<path fill="none" stroke="midnightblue" d="M680.22,-336.4C658.27,-326.51 629.16,-313.38 607.88,-303.79"/>
<polygon fill="midnightblue" stroke="midnightblue" points="609.26,-300.58 598.71,-299.66 606.39,-306.96 609.26,-300.58"/>
</g>
<!-- Node17 -->
<g id="node17" class="node">
<title>Node17</title>
<g id="a_node17"><a xlink:title=" ">
<polygon fill="none" stroke="#bfbfbf" points="678,-280.5 678,-299.5 745,-299.5 745,-280.5 678,-280.5"/>
<text text-anchor="middle" x="711.5" y="-287.5" font-family="Helvetica,sans-Serif" font-size="10.00">fmt/core.h</text>
</a>
</g>
</g>
<!-- Node1&#45;&gt;Node17 -->
<g id="edge19" class="edge">
<title>Node1&#45;&gt;Node17</title>
<path fill="none" stroke="midnightblue" d="M711.5,-336.4C711.5,-328.47 711.5,-318.46 711.5,-309.86"/>
<polygon fill="midnightblue" stroke="midnightblue" points="715,-309.66 711.5,-299.66 708,-309.66 715,-309.66"/>
</g>
<!-- Node18 -->
<g id="node18" class="node">
<title>Node18</title>
<g id="a_node18"><a xlink:title=" ">
<polygon fill="none" stroke="#bfbfbf" points="763.5,-280.5 763.5,-299.5 811.5,-299.5 811.5,-280.5 763.5,-280.5"/>
<text text-anchor="middle" x="787.5" y="-287.5" font-family="Helvetica,sans-Serif" font-size="10.00">gsl/gsl</text>
</a>
</g>
</g>
<!-- Node1&#45;&gt;Node18 -->
<g id="edge20" class="edge">
<title>Node1&#45;&gt;Node18</title>
<path fill="none" stroke="midnightblue" d="M729.51,-336.4C741.24,-327.22 756.52,-315.26 768.44,-305.92"/>
<polygon fill="midnightblue" stroke="midnightblue" points="770.72,-308.58 776.44,-299.66 766.41,-303.07 770.72,-308.58"/>
</g>
<!-- Node19 -->
<g id="node19" class="node">
<title>Node19</title>
<g id="a_node19"><a xlink:title=" ">
<polygon fill="none" stroke="#bfbfbf" points="829.5,-280.5 829.5,-299.5 897.5,-299.5 897.5,-280.5 829.5,-280.5"/>
<text text-anchor="middle" x="863.5" y="-287.5" font-family="Helvetica,sans-Serif" font-size="10.00">filesystem</text>
</a>
</g>
</g>
<!-- Node1&#45;&gt;Node19 -->
<g id="edge21" class="edge">
<title>Node1&#45;&gt;Node19</title>
<path fill="none" stroke="midnightblue" d="M747.52,-336.4C773.14,-326.37 807.23,-313.03 831.81,-303.4"/>
<polygon fill="midnightblue" stroke="midnightblue" points="833.35,-306.56 841.38,-299.66 830.79,-300.04 833.35,-306.56"/>
</g>
<!-- Node20 -->
<g id="node20" class="node">
<title>Node20</title>
<g id="a_node20"><a xlink:title=" ">
<polygon fill="none" stroke="#bfbfbf" points="916,-280.5 916,-299.5 971,-299.5 971,-280.5 916,-280.5"/>
<text text-anchor="middle" x="943.5" y="-287.5" font-family="Helvetica,sans-Serif" font-size="10.00">fstream</text>
</a>
</g>
</g>
<!-- Node1&#45;&gt;Node20 -->
<g id="edge22" class="edge">
<title>Node1&#45;&gt;Node20</title>
<path fill="none" stroke="midnightblue" d="M766.19,-336.47C809.17,-325.45 867.91,-310.39 905.78,-300.67"/>
<polygon fill="midnightblue" stroke="midnightblue" points="907.06,-303.96 915.88,-298.08 905.32,-297.18 907.06,-303.96"/>
</g>
<!-- Node3 -->
<g id="node3" class="node">
<title>Node3</title>
<g id="a_node3"><a xlink:href="abcgShader_8hpp.html" target="_top" xlink:title="Declaration of a structure for building shaders.">
<polygon fill="none" stroke="black" points="232.5,-224.5 232.5,-243.5 326.5,-243.5 326.5,-224.5 232.5,-224.5"/>
<text text-anchor="middle" x="279.5" y="-231.5" font-family="Helvetica,sans-Serif" font-size="10.00">abcgShader.hpp</text>
</a>
</g>
</g>
<!-- Node2&#45;&gt;Node3 -->
<g id="edge2" class="edge">
<title>Node2&#45;&gt;Node3</title>
<path fill="none" stroke="midnightblue" d="M279.5,-280.08C279.5,-273.01 279.5,-262.86 279.5,-253.99"/>
<polygon fill="midnightblue" stroke="midnightblue" points="283,-253.75 279.5,-243.75 276,-253.75 283,-253.75"/>
</g>
<!-- Node6 -->
<g id="node6" class="node">
<title>Node6</title>
<g id="a_node6"><a xlink:href="abcgVulkanDevice_8hpp.html" target="_top" xlink:title="Header file of abcg::VulkanDevice.">
<polygon fill="none" stroke="black" points="87,-224.5 87,-243.5 214,-243.5 214,-224.5 87,-224.5"/>
<text text-anchor="middle" x="150.5" y="-231.5" font-family="Helvetica,sans-Serif" font-size="10.00">abcgVulkanDevice.hpp</text>
</a>
</g>
</g>
<!-- Node2&#45;&gt;Node6 -->
<g id="edge5" class="edge">
<title>Node2&#45;&gt;Node6</title>
<path fill="none" stroke="midnightblue" d="M259.06,-280.44C237.83,-271.56 204.4,-257.56 180.25,-247.45"/>
<polygon fill="midnightblue" stroke="midnightblue" points="181.42,-244.15 170.84,-243.52 178.72,-250.61 181.42,-244.15"/>
</g>
<!-- Node4 -->
<g id="node4" class="node">
<title>Node4</title>
<g id="a_node4"><a xlink:title=" ">
<polygon fill="none" stroke="#bfbfbf" points="251.5,-112.5 251.5,-131.5 307.5,-131.5 307.5,-112.5 251.5,-112.5"/>
<text text-anchor="middle" x="279.5" y="-119.5" font-family="Helvetica,sans-Serif" font-size="10.00">optional</text>
</a>
</g>
</g>
<!-- Node3&#45;&gt;Node4 -->
<g id="edge3" class="edge">
<title>Node3&#45;&gt;Node4</title>
<path fill="none" stroke="midnightblue" d="M279.5,-224.37C279.5,-206.62 279.5,-165.67 279.5,-141.6"/>
<polygon fill="midnightblue" stroke="midnightblue" points="283,-141.59 279.5,-131.59 276,-141.59 283,-141.59"/>
</g>
<!-- Node5 -->
<g id="node5" class="node">
<title>Node5</title>
<g id="a_node5"><a xlink:title=" ">
<polygon fill="none" stroke="#bfbfbf" points="362.5,-168.5 362.5,-187.5 406.5,-187.5 406.5,-168.5 362.5,-168.5"/>
<text text-anchor="middle" x="384.5" y="-175.5" font-family="Helvetica,sans-Serif" font-size="10.00">string</text>
</a>
</g>
</g>
<!-- Node3&#45;&gt;Node5 -->
<g id="edge4" class="edge">
<title>Node3&#45;&gt;Node5</title>
<path fill="none" stroke="midnightblue" d="M296.37,-224.32C313.21,-215.66 339.31,-202.24 358.74,-192.25"/>
<polygon fill="midnightblue" stroke="midnightblue" points="360.38,-195.34 367.67,-187.65 357.18,-189.12 360.38,-195.34"/>
</g>
<!-- Node7 -->
<g id="node7" class="node">
<title>Node7</title>
<g id="a_node7"><a xlink:href="abcgVulkanPhysicalDevice_8hpp.html" target="_top" xlink:title="Header file of abcg::VulkanPhysicalDevice.">
<polygon fill="none" stroke="black" points="83,-168.5 83,-187.5 250,-187.5 250,-168.5 83,-168.5"/>
<text text-anchor="middle" x="166.5" y="-175.5" font-family="Helvetica,sans-Serif" font-size="10.00">abcgVulkanPhysicalDevice.hpp</text>
</a>
</g>
</g>
<!-- Node6&#45;&gt;Node7 -->
<g id="edge6" class="edge">
<title>Node6&#45;&gt;Node7</title>
<path fill="none" stroke="midnightblue" d="M153.14,-224.08C155.29,-216.85 158.38,-206.41 161.05,-197.4"/>
<polygon fill="midnightblue" stroke="midnightblue" points="164.42,-198.33 163.91,-187.75 157.71,-196.34 164.42,-198.33"/>
</g>
<!-- Node12 -->
<g id="node12" class="node">
<title>Node12</title>
<g id="a_node12"><a xlink:title=" ">
<polygon fill="none" stroke="#bfbfbf" points="0,-168.5 0,-187.5 65,-187.5 65,-168.5 0,-168.5"/>
<text text-anchor="middle" x="32.5" y="-175.5" font-family="Helvetica,sans-Serif" font-size="10.00">functional</text>
</a>
</g>
</g>
<!-- Node6&#45;&gt;Node12 -->
<g id="edge13" class="edge">
<title>Node6&#45;&gt;Node12</title>
<path fill="none" stroke="midnightblue" d="M131.8,-224.44C112.56,-215.64 82.35,-201.81 60.3,-191.72"/>
<polygon fill="midnightblue" stroke="midnightblue" points="61.66,-188.5 51.11,-187.52 58.75,-194.86 61.66,-188.5"/>
</g>
<!-- Node7&#45;&gt;Node4 -->
<g id="edge7" class="edge">
<title>Node7&#45;&gt;Node4</title>
<path fill="none" stroke="midnightblue" d="M184.41,-168.44C202.75,-159.68 231.51,-145.94 252.59,-135.86"/>
<polygon fill="midnightblue" stroke="midnightblue" points="254.17,-138.99 261.68,-131.52 251.15,-132.67 254.17,-138.99"/>
</g>
<!-- Node8 -->
<g id="node8" class="node">
<title>Node8</title>
<g id="a_node8"><a xlink:href="abcgVulkanExternal_8hpp.html" target="_top" xlink:title="Header file for including Vulkan&#45;related dependencies.">
<polygon fill="none" stroke="black" points="51.5,-56.5 51.5,-75.5 185.5,-75.5 185.5,-56.5 51.5,-56.5"/>
<text text-anchor="middle" x="118.5" y="-63.5" font-family="Helvetica,sans-Serif" font-size="10.00">abcgVulkanExternal.hpp</text>
</a>
</g>
</g>
<!-- Node7&#45;&gt;Node8 -->
<g id="edge8" class="edge">
<title>Node7&#45;&gt;Node8</title>
<path fill="none" stroke="midnightblue" d="M138.48,-168.4C121.33,-161.51 100.75,-149.98 90.5,-132 81.52,-116.24 92.21,-97.03 102.87,-83.6"/>
<polygon fill="midnightblue" stroke="midnightblue" points="105.8,-85.57 109.67,-75.7 100.49,-81 105.8,-85.57"/>
</g>
<!-- Node11 -->
<g id="node11" class="node">
<title>Node11</title>
<g id="a_node11"><a xlink:href="abcgVulkanInstance_8hpp.html" target="_top" xlink:title="Header file of abcg::VulkanInstance.">
<polygon fill="none" stroke="black" points="99.5,-112.5 99.5,-131.5 233.5,-131.5 233.5,-112.5 99.5,-112.5"/>
<text text-anchor="middle" x="166.5" y="-119.5" font-family="Helvetica,sans-Serif" font-size="10.00">abcgVulkanInstance.hpp</text>
</a>
</g>
</g>
<!-- Node7&#45;&gt;Node11 -->
<g id="edge11" class="edge">
<title>Node7&#45;&gt;Node11</title>
<path fill="none" stroke="midnightblue" d="M166.5,-168.08C166.5,-161.01 166.5,-150.86 166.5,-141.99"/>
<polygon fill="midnightblue" stroke="midnightblue" points="170,-141.75 166.5,-131.75 163,-141.75 170,-141.75"/>
</g>
<!-- Node9 -->
<g id="node9" class="node">
<title>Node9</title>
<g id="a_node9"><a xlink:title=" ">
<polygon fill="none" stroke="#bfbfbf" points="48,-0.5 48,-19.5 95,-19.5 95,-0.5 48,-0.5"/>
<text text-anchor="middle" x="71.5" y="-7.5" font-family="Helvetica,sans-Serif" font-size="10.00">volk.h</text>
</a>
</g>
</g>
<!-- Node8&#45;&gt;Node9 -->
<g id="edge9" class="edge">
<title>Node8&#45;&gt;Node9</title>
<path fill="none" stroke="midnightblue" d="M110.74,-56.08C103.96,-48.3 93.96,-36.8 85.74,-27.37"/>
<polygon fill="midnightblue" stroke="midnightblue" points="88.32,-25 79.12,-19.75 83.04,-29.59 88.32,-25"/>
</g>
<!-- Node10 -->
<g id="node10" class="node">
<title>Node10</title>
<g id="a_node10"><a xlink:title=" ">
<polygon fill="none" stroke="#bfbfbf" points="113,-0.5 113,-19.5 218,-19.5 218,-0.5 113,-0.5"/>
<text text-anchor="middle" x="165.5" y="-7.5" font-family="Helvetica,sans-Serif" font-size="10.00">vulkan/vulkan.hpp</text>
</a>
</g>
</g>
<!-- Node8&#45;&gt;Node10 -->
<g id="edge10" class="edge">
<title>Node8&#45;&gt;Node10</title>
<path fill="none" stroke="midnightblue" d="M126.26,-56.08C133.04,-48.3 143.04,-36.8 151.26,-27.37"/>
<polygon fill="midnightblue" stroke="midnightblue" points="153.96,-29.59 157.88,-19.75 148.68,-25 153.96,-29.59"/>
</g>
<!-- Node11&#45;&gt;Node8 -->
<g id="edge12" class="edge">
<title>Node11&#45;&gt;Node8</title>
<path fill="none" stroke="midnightblue" d="M158.57,-112.08C151.65,-104.3 141.43,-92.8 133.05,-83.37"/>
<polygon fill="midnightblue" stroke="midnightblue" points="135.54,-80.9 126.28,-75.75 130.31,-85.55 135.54,-80.9"/>
</g>
<!-- Node13&#45;&gt;Node5 -->
<g id="edge17" class="edge">
<title>Node13&#45;&gt;Node5</title>
<path fill="none" stroke="midnightblue" d="M427.04,-280.22C427.51,-267.38 427.16,-242.94 419.5,-224 415.21,-213.38 407.64,-203.16 400.63,-195.15"/>
<polygon fill="midnightblue" stroke="midnightblue" points="403.07,-192.63 393.7,-187.68 397.94,-197.39 403.07,-192.63"/>
</g>
<!-- Node14 -->
<g id="node14" class="node">
<title>Node14</title>
<g id="a_node14"><a xlink:title=" ">
<polygon fill="none" stroke="#bfbfbf" points="467,-224.5 467,-243.5 560,-243.5 560,-224.5 467,-224.5"/>
<text text-anchor="middle" x="513.5" y="-231.5" font-family="Helvetica,sans-Serif" font-size="10.00">source_location</text>
</a>
</g>
</g>
<!-- Node13&#45;&gt;Node14 -->
<g id="edge15" class="edge">
<title>Node13&#45;&gt;Node14</title>
<path fill="none" stroke="midnightblue" d="M440.48,-280.32C454.05,-271.9 474.88,-258.97 490.82,-249.07"/>
<polygon fill="midnightblue" stroke="midnightblue" points="492.91,-251.9 499.56,-243.65 489.21,-245.95 492.91,-251.9"/>
</g>
<!-- Node15 -->
<g id="node15" class="node">
<title>Node15</title>
<g id="a_node15"><a xlink:title=" ">
<polygon fill="none" stroke="#bfbfbf" points="345,-224.5 345,-243.5 410,-243.5 410,-224.5 345,-224.5"/>
<text text-anchor="middle" x="377.5" y="-231.5" font-family="Helvetica,sans-Serif" font-size="10.00">stdexcept</text>
</a>
</g>
</g>
<!-- Node13&#45;&gt;Node15 -->
<g id="edge16" class="edge">
<title>Node13&#45;&gt;Node15</title>
<path fill="none" stroke="midnightblue" d="M418.41,-280.08C411.34,-272.3 400.91,-260.8 392.35,-251.37"/>
<polygon fill="midnightblue" stroke="midnightblue" points="394.75,-248.8 385.44,-243.75 389.57,-253.51 394.75,-248.8"/>
</g>
</g>
</svg>
