<?xml version="1.0" encoding="UTF-8" standalone="no"?>
<!DOCTYPE svg PUBLIC "-//W3C//DTD SVG 1.1//EN"
 "http://www.w3.org/Graphics/SVG/1.1/DTD/svg11.dtd">
<!-- Generated by graphviz version 2.43.0 (0)
 -->
<!-- Title: /home/harlen/dev/abcg/abcg/abcgVulkanPhysicalDevice.cpp Pages: 1 -->
<svg width="1795pt" height="543pt"
 viewBox="0.00 0.00 1794.50 543.00" xmlns="http://www.w3.org/2000/svg" xmlns:xlink="http://www.w3.org/1999/xlink">
<g id="graph0" class="graph" transform="scale(1 1) rotate(0) translate(4 539)">
<title>/home/harlen/dev/abcg/abcg/abcgVulkanPhysicalDevice.cpp</title>
<!-- Node1 -->
<g id="node1" class="node">
<title>Node1</title>
<g id="a_node1"><a xlink:title="Definition of abcg::VulkanPhysicalDevice.">
<polygon fill="#bfbfbf" stroke="black" points="1412.5,-504.5 1412.5,-534.5 1608.5,-534.5 1608.5,-504.5 1412.5,-504.5"/>
<text text-anchor="start" x="1420.5" y="-522.5" font-family="Helvetica,sans-Serif" font-size="10.00">/home/harlen/dev/abcg</text>
<text text-anchor="middle" x="1510.5" y="-511.5" font-family="Helvetica,sans-Serif" font-size="10.00">/abcg/abcgVulkanPhysicalDevice.cpp</text>
</a>
</g>
</g>
<!-- Node2 -->
<g id="node2" class="node">
<title>Node2</title>
<g id="a_node2"><a xlink:href="abcgVulkanPhysicalDevice_8hpp.html" target="_top" xlink:title="Header file of abcg::VulkanPhysicalDevice.">
<polygon fill="none" stroke="black" points="0,-168.5 0,-187.5 167,-187.5 167,-168.5 0,-168.5"/>
<text text-anchor="middle" x="83.5" y="-175.5" font-family="Helvetica,sans-Serif" font-size="10.00">abcgVulkanPhysicalDevice.hpp</text>
</a>
</g>
</g>
<!-- Node1&#45;&gt;Node2 -->
<g id="edge1" class="edge">
<title>Node1&#45;&gt;Node2</title>
<path fill="none" stroke="midnightblue" d="M1412.25,-515.8C1086.79,-506.23 64.5,-470.76 64.5,-403 64.5,-403 64.5,-403 64.5,-289 64.5,-256.49 72.66,-219.35 78.28,-197.61"/>
<polygon fill="midnightblue" stroke="midnightblue" points="81.72,-198.32 80.94,-187.75 74.96,-196.5 81.72,-198.32"/>
</g>
<!-- Node7 -->
<g id="node7" class="node">
<title>Node7</title>
<g id="a_node7"><a xlink:href="abcgVulkanInstance_8hpp.html" target="_top" xlink:title="Header file of abcg::VulkanInstance.">
<polygon fill="none" stroke="black" points="185.5,-112.5 185.5,-131.5 319.5,-131.5 319.5,-112.5 185.5,-112.5"/>
<text text-anchor="middle" x="252.5" y="-119.5" font-family="Helvetica,sans-Serif" font-size="10.00">abcgVulkanInstance.hpp</text>
</a>
</g>
</g>
<!-- Node1&#45;&gt;Node7 -->
<g id="edge60" class="edge">
<title>Node1&#45;&gt;Node7</title>
<path fill="none" stroke="midnightblue" d="M1510.5,-504.28C1510.5,-482.48 1510.5,-439.49 1510.5,-403 1510.5,-403 1510.5,-403 1510.5,-233 1510.5,-173.44 603.85,-135.73 329.94,-125.69"/>
<polygon fill="midnightblue" stroke="midnightblue" points="329.81,-122.19 319.69,-125.32 329.56,-129.18 329.81,-122.19"/>
</g>
<!-- Node8 -->
<g id="node8" class="node">
<title>Node8</title>
<g id="a_node8"><a xlink:title=" ">
<polygon fill="none" stroke="#bfbfbf" points="1539,-448.5 1539,-467.5 1678,-467.5 1678,-448.5 1539,-448.5"/>
<text text-anchor="middle" x="1608.5" y="-455.5" font-family="Helvetica,sans-Serif" font-size="10.00">cppitertools/itertools.hpp</text>
</a>
</g>
</g>
<!-- Node1&#45;&gt;Node8 -->
<g id="edge8" class="edge">
<title>Node1&#45;&gt;Node8</title>
<path fill="none" stroke="midnightblue" d="M1533.72,-504.4C1549.29,-494.95 1569.7,-482.56 1585.26,-473.11"/>
<polygon fill="midnightblue" stroke="midnightblue" points="1587.51,-475.84 1594.24,-467.66 1583.88,-469.86 1587.51,-475.84"/>
</g>
<!-- Node9 -->
<g id="node9" class="node">
<title>Node9</title>
<g id="a_node9"><a xlink:title=" ">
<polygon fill="none" stroke="#bfbfbf" points="1696.5,-448.5 1696.5,-467.5 1728.5,-467.5 1728.5,-448.5 1696.5,-448.5"/>
<text text-anchor="middle" x="1712.5" y="-455.5" font-family="Helvetica,sans-Serif" font-size="10.00">set</text>
</a>
</g>
</g>
<!-- Node1&#45;&gt;Node9 -->
<g id="edge9" class="edge">
<title>Node1&#45;&gt;Node9</title>
<path fill="none" stroke="midnightblue" d="M1563.45,-504.4C1596.49,-495.37 1640.08,-483.04 1686.73,-468.1"/>
<polygon fill="midnightblue" stroke="midnightblue" points="1687.98,-471.37 1696.42,-464.97 1685.83,-464.71 1687.98,-471.37"/>
</g>
<!-- Node10 -->
<g id="node10" class="node">
<title>Node10</title>
<g id="a_node10"><a xlink:title=" ">
<polygon fill="none" stroke="#bfbfbf" points="1746.5,-448.5 1746.5,-467.5 1786.5,-467.5 1786.5,-448.5 1746.5,-448.5"/>
<text text-anchor="middle" x="1766.5" y="-455.5" font-family="Helvetica,sans-Serif" font-size="10.00">span</text>
</a>
</g>
</g>
<!-- Node1&#45;&gt;Node10 -->
<g id="edge10" class="edge">
<title>Node1&#45;&gt;Node10</title>
<path fill="none" stroke="midnightblue" d="M1580.4,-504.5C1623.01,-495.6 1678.73,-483.33 1736.28,-468.17"/>
<polygon fill="midnightblue" stroke="midnightblue" points="1737.52,-471.46 1746.28,-465.51 1735.72,-464.7 1737.52,-471.46"/>
</g>
<!-- Node11 -->
<g id="node11" class="node">
<title>Node11</title>
<g id="a_node11"><a xlink:href="abcgException_8hpp.html" target="_top" xlink:title="Header file of abcg::Exception and derived classes.">
<polygon fill="none" stroke="black" points="1351,-336.5 1351,-355.5 1460,-355.5 1460,-336.5 1351,-336.5"/>
<text text-anchor="middle" x="1405.5" y="-343.5" font-family="Helvetica,sans-Serif" font-size="10.00">abcgException.hpp</text>
</a>
</g>
</g>
<!-- Node1&#45;&gt;Node11 -->
<g id="edge11" class="edge">
<title>Node1&#45;&gt;Node11</title>
<path fill="none" stroke="midnightblue" d="M1501.91,-504.47C1482.83,-473.3 1436.97,-398.41 1416.13,-364.37"/>
<polygon fill="midnightblue" stroke="midnightblue" points="1418.95,-362.26 1410.74,-355.56 1412.98,-365.92 1418.95,-362.26"/>
</g>
<!-- Node15 -->
<g id="node15" class="node">
<title>Node15</title>
<g id="a_node15"><a xlink:href="abcgVulkan_8hpp.html" target="_top" xlink:title="Header file for Vulkan&#45;related functions and classes.">
<polygon fill="none" stroke="black" points="624,-448.5 624,-467.5 717,-467.5 717,-448.5 624,-448.5"/>
<text text-anchor="middle" x="670.5" y="-455.5" font-family="Helvetica,sans-Serif" font-size="10.00">abcgVulkan.hpp</text>
</a>
</g>
</g>
<!-- Node1&#45;&gt;Node15 -->
<g id="edge15" class="edge">
<title>Node1&#45;&gt;Node15</title>
<path fill="none" stroke="midnightblue" d="M1412.5,-511.56C1235.59,-499.03 868.2,-473 727.25,-463.02"/>
<polygon fill="midnightblue" stroke="midnightblue" points="727.32,-459.52 717.1,-462.3 726.83,-466.5 727.32,-459.52"/>
</g>
<!-- Node3 -->
<g id="node3" class="node">
<title>Node3</title>
<g id="a_node3"><a xlink:title=" ">
<polygon fill="none" stroke="#bfbfbf" points="111.5,-112.5 111.5,-131.5 167.5,-131.5 167.5,-112.5 111.5,-112.5"/>
<text text-anchor="middle" x="139.5" y="-119.5" font-family="Helvetica,sans-Serif" font-size="10.00">optional</text>
</a>
</g>
</g>
<!-- Node2&#45;&gt;Node3 -->
<g id="edge2" class="edge">
<title>Node2&#45;&gt;Node3</title>
<path fill="none" stroke="midnightblue" d="M92.5,-168.32C100.69,-160.42 113.01,-148.55 122.97,-138.94"/>
<polygon fill="midnightblue" stroke="midnightblue" points="125.57,-141.29 130.34,-131.83 120.71,-136.26 125.57,-141.29"/>
</g>
<!-- Node4 -->
<g id="node4" class="node">
<title>Node4</title>
<g id="a_node4"><a xlink:href="abcgVulkanExternal_8hpp.html" target="_top" xlink:title="Header file for including Vulkan&#45;related dependencies.">
<polygon fill="none" stroke="black" points="185.5,-56.5 185.5,-75.5 319.5,-75.5 319.5,-56.5 185.5,-56.5"/>
<text text-anchor="middle" x="252.5" y="-63.5" font-family="Helvetica,sans-Serif" font-size="10.00">abcgVulkanExternal.hpp</text>
</a>
</g>
</g>
<!-- Node2&#45;&gt;Node4 -->
<g id="edge3" class="edge">
<title>Node2&#45;&gt;Node4</title>
<path fill="none" stroke="midnightblue" d="M83.55,-168.11C84.11,-154.21 87.26,-127.35 102.5,-112 121.86,-92.5 149.32,-81.38 175.47,-75.07"/>
<polygon fill="midnightblue" stroke="midnightblue" points="176.39,-78.45 185.4,-72.88 174.88,-71.61 176.39,-78.45"/>
</g>
<!-- Node2&#45;&gt;Node7 -->
<g id="edge6" class="edge">
<title>Node2&#45;&gt;Node7</title>
<path fill="none" stroke="midnightblue" d="M110.28,-168.44C138.83,-159.32 184.23,-144.81 216.04,-134.65"/>
<polygon fill="midnightblue" stroke="midnightblue" points="217.39,-137.89 225.85,-131.52 215.26,-131.23 217.39,-137.89"/>
</g>
<!-- Node5 -->
<g id="node5" class="node">
<title>Node5</title>
<g id="a_node5"><a xlink:title=" ">
<polygon fill="none" stroke="#bfbfbf" points="182,-0.5 182,-19.5 229,-19.5 229,-0.5 182,-0.5"/>
<text text-anchor="middle" x="205.5" y="-7.5" font-family="Helvetica,sans-Serif" font-size="10.00">volk.h</text>
</a>
</g>
</g>
<!-- Node4&#45;&gt;Node5 -->
<g id="edge4" class="edge">
<title>Node4&#45;&gt;Node5</title>
<path fill="none" stroke="midnightblue" d="M244.74,-56.08C237.96,-48.3 227.96,-36.8 219.74,-27.37"/>
<polygon fill="midnightblue" stroke="midnightblue" points="222.32,-25 213.12,-19.75 217.04,-29.59 222.32,-25"/>
</g>
<!-- Node6 -->
<g id="node6" class="node">
<title>Node6</title>
<g id="a_node6"><a xlink:title=" ">
<polygon fill="none" stroke="#bfbfbf" points="247,-0.5 247,-19.5 352,-19.5 352,-0.5 247,-0.5"/>
<text text-anchor="middle" x="299.5" y="-7.5" font-family="Helvetica,sans-Serif" font-size="10.00">vulkan/vulkan.hpp</text>
</a>
</g>
</g>
<!-- Node4&#45;&gt;Node6 -->
<g id="edge5" class="edge">
<title>Node4&#45;&gt;Node6</title>
<path fill="none" stroke="midnightblue" d="M260.26,-56.08C267.04,-48.3 277.04,-36.8 285.26,-27.37"/>
<polygon fill="midnightblue" stroke="midnightblue" points="287.96,-29.59 291.88,-19.75 282.68,-25 287.96,-29.59"/>
</g>
<!-- Node7&#45;&gt;Node4 -->
<g id="edge7" class="edge">
<title>Node7&#45;&gt;Node4</title>
<path fill="none" stroke="midnightblue" d="M252.5,-112.08C252.5,-105.01 252.5,-94.86 252.5,-85.99"/>
<polygon fill="midnightblue" stroke="midnightblue" points="256,-85.75 252.5,-75.75 249,-85.75 256,-85.75"/>
</g>
<!-- Node12 -->
<g id="node12" class="node">
<title>Node12</title>
<g id="a_node12"><a xlink:title=" ">
<polygon fill="none" stroke="#bfbfbf" points="1389,-280.5 1389,-299.5 1482,-299.5 1482,-280.5 1389,-280.5"/>
<text text-anchor="middle" x="1435.5" y="-287.5" font-family="Helvetica,sans-Serif" font-size="10.00">source_location</text>
</a>
</g>
</g>
<!-- Node11&#45;&gt;Node12 -->
<g id="edge12" class="edge">
<title>Node11&#45;&gt;Node12</title>
<path fill="none" stroke="midnightblue" d="M1410.45,-336.08C1414.6,-328.61 1420.65,-317.72 1425.77,-308.52"/>
<polygon fill="midnightblue" stroke="midnightblue" points="1428.84,-310.19 1430.64,-299.75 1422.72,-306.79 1428.84,-310.19"/>
</g>
<!-- Node13 -->
<g id="node13" class="node">
<title>Node13</title>
<g id="a_node13"><a xlink:title=" ">
<polygon fill="none" stroke="#bfbfbf" points="1306,-280.5 1306,-299.5 1371,-299.5 1371,-280.5 1306,-280.5"/>
<text text-anchor="middle" x="1338.5" y="-287.5" font-family="Helvetica,sans-Serif" font-size="10.00">stdexcept</text>
</a>
</g>
</g>
<!-- Node11&#45;&gt;Node13 -->
<g id="edge13" class="edge">
<title>Node11&#45;&gt;Node13</title>
<path fill="none" stroke="midnightblue" d="M1394.74,-336.32C1384.73,-328.26 1369.61,-316.08 1357.57,-306.37"/>
<polygon fill="midnightblue" stroke="midnightblue" points="1359.44,-303.38 1349.46,-299.83 1355.05,-308.83 1359.44,-303.38"/>
</g>
<!-- Node14 -->
<g id="node14" class="node">
<title>Node14</title>
<g id="a_node14"><a xlink:title=" ">
<polygon fill="none" stroke="#bfbfbf" points="952.5,-224.5 952.5,-243.5 996.5,-243.5 996.5,-224.5 952.5,-224.5"/>
<text text-anchor="middle" x="974.5" y="-231.5" font-family="Helvetica,sans-Serif" font-size="10.00">string</text>
</a>
</g>
</g>
<!-- Node11&#45;&gt;Node14 -->
<g id="edge14" class="edge">
<title>Node11&#45;&gt;Node14</title>
<path fill="none" stroke="midnightblue" d="M1383.35,-336.37C1361.36,-327.66 1326.8,-313.59 1297.5,-300 1279.83,-291.8 1277.02,-286.04 1258.5,-280 1212.08,-264.85 1070.79,-246.58 1006.71,-238.8"/>
<polygon fill="midnightblue" stroke="midnightblue" points="1007.1,-235.32 996.75,-237.6 1006.26,-242.27 1007.1,-235.32"/>
</g>
<!-- Node16 -->
<g id="node16" class="node">
<title>Node16</title>
<g id="a_node16"><a xlink:href="abcg_8hpp.html" target="_top" xlink:title="Shortcut header that includes the most common ABCg headers.">
<polygon fill="none" stroke="black" points="1092,-392.5 1092,-411.5 1153,-411.5 1153,-392.5 1092,-392.5"/>
<text text-anchor="middle" x="1122.5" y="-399.5" font-family="Helvetica,sans-Serif" font-size="10.00">abcg.hpp</text>
</a>
</g>
</g>
<!-- Node15&#45;&gt;Node16 -->
<g id="edge16" class="edge">
<title>Node15&#45;&gt;Node16</title>
<path fill="none" stroke="midnightblue" d="M717.17,-451.42C805.96,-440.82 997.83,-417.89 1081.78,-407.86"/>
<polygon fill="midnightblue" stroke="midnightblue" points="1082.43,-411.31 1091.94,-406.65 1081.6,-404.36 1082.43,-411.31"/>
</g>
<!-- Node25 -->
<g id="node25" class="node">
<title>Node25</title>
<g id="a_node25"><a xlink:href="abcgVulkanBuffer_8hpp.html" target="_top" xlink:title="Header file of abcg::VulkanBuffer.">
<polygon fill="none" stroke="black" points="168.5,-280.5 168.5,-299.5 290.5,-299.5 290.5,-280.5 168.5,-280.5"/>
<text text-anchor="middle" x="229.5" y="-287.5" font-family="Helvetica,sans-Serif" font-size="10.00">abcgVulkanBuffer.hpp</text>
</a>
</g>
</g>
<!-- Node15&#45;&gt;Node25 -->
<g id="edge31" class="edge">
<title>Node15&#45;&gt;Node25</title>
<path fill="none" stroke="midnightblue" d="M623.69,-454.57C544.47,-449.81 387.88,-437.44 339.5,-412 293.17,-387.64 256.52,-335.61 239.64,-308.4"/>
<polygon fill="midnightblue" stroke="midnightblue" points="242.49,-306.35 234.33,-299.6 236.5,-309.97 242.49,-306.35"/>
</g>
<!-- Node28 -->
<g id="node28" class="node">
<title>Node28</title>
<g id="a_node28"><a xlink:href="abcgVulkanImage_8hpp.html" target="_top" xlink:title="Header file of abcg::VulkanImage.">
<polygon fill="none" stroke="black" points="308.5,-280.5 308.5,-299.5 432.5,-299.5 432.5,-280.5 308.5,-280.5"/>
<text text-anchor="middle" x="370.5" y="-287.5" font-family="Helvetica,sans-Serif" font-size="10.00">abcgVulkanImage.hpp</text>
</a>
</g>
</g>
<!-- Node15&#45;&gt;Node28 -->
<g id="edge36" class="edge">
<title>Node15&#45;&gt;Node28</title>
<path fill="none" stroke="midnightblue" d="M623.78,-454.48C568.87,-450.33 475.69,-439.55 400.5,-412 354.84,-395.27 330.53,-398.28 306.5,-356 294.66,-335.16 319.2,-316.24 341.23,-304.25"/>
<polygon fill="midnightblue" stroke="midnightblue" points="343.1,-307.23 350.41,-299.56 339.91,-301 343.1,-307.23"/>
</g>
<!-- Node29 -->
<g id="node29" class="node">
<title>Node29</title>
<g id="a_node29"><a xlink:href="abcgVulkanPipeline_8hpp.html" target="_top" xlink:title="Header file of abcg::VulkanPipeline.">
<polygon fill="none" stroke="black" points="604.5,-392.5 604.5,-411.5 736.5,-411.5 736.5,-392.5 604.5,-392.5"/>
<text text-anchor="middle" x="670.5" y="-399.5" font-family="Helvetica,sans-Serif" font-size="10.00">abcgVulkanPipeline.hpp</text>
</a>
</g>
</g>
<!-- Node15&#45;&gt;Node29 -->
<g id="edge39" class="edge">
<title>Node15&#45;&gt;Node29</title>
<path fill="none" stroke="midnightblue" d="M670.5,-448.08C670.5,-441.01 670.5,-430.86 670.5,-421.99"/>
<polygon fill="midnightblue" stroke="midnightblue" points="674,-421.75 670.5,-411.75 667,-421.75 674,-421.75"/>
</g>
<!-- Node30 -->
<g id="node30" class="node">
<title>Node30</title>
<g id="a_node30"><a xlink:href="abcgVulkanShader_8hpp.html" target="_top" xlink:title="Declaration of helper functions for creating Vulkan shaders.">
<polygon fill="none" stroke="black" points="794.5,-336.5 794.5,-355.5 920.5,-355.5 920.5,-336.5 794.5,-336.5"/>
<text text-anchor="middle" x="857.5" y="-343.5" font-family="Helvetica,sans-Serif" font-size="10.00">abcgVulkanShader.hpp</text>
</a>
</g>
</g>
<!-- Node15&#45;&gt;Node30 -->
<g id="edge51" class="edge">
<title>Node15&#45;&gt;Node30</title>
<path fill="none" stroke="midnightblue" d="M685.17,-448.37C717.4,-429.41 794.6,-384 833.8,-360.94"/>
<polygon fill="midnightblue" stroke="midnightblue" points="836.05,-363.68 842.89,-355.59 832.5,-357.64 836.05,-363.68"/>
</g>
<!-- Node34 -->
<g id="node34" class="node">
<title>Node34</title>
<g id="a_node34"><a xlink:href="abcgVulkanWindow_8hpp.html" target="_top" xlink:title="Header file of abcg::VulkanWindow.">
<polygon fill="none" stroke="black" points="410,-392.5 410,-411.5 541,-411.5 541,-392.5 410,-392.5"/>
<text text-anchor="middle" x="475.5" y="-399.5" font-family="Helvetica,sans-Serif" font-size="10.00">abcgVulkanWindow.hpp</text>
</a>
</g>
</g>
<!-- Node15&#45;&gt;Node34 -->
<g id="edge52" class="edge">
<title>Node15&#45;&gt;Node34</title>
<path fill="none" stroke="midnightblue" d="M639.6,-448.44C606.23,-439.2 552.91,-424.44 516.15,-414.26"/>
<polygon fill="midnightblue" stroke="midnightblue" points="516.83,-410.81 506.25,-411.52 514.96,-417.56 516.83,-410.81"/>
</g>
<!-- Node16&#45;&gt;Node11 -->
<g id="edge19" class="edge">
<title>Node16&#45;&gt;Node11</title>
<path fill="none" stroke="midnightblue" d="M1153.05,-395.17C1200.34,-386.15 1291.93,-368.67 1350.82,-357.43"/>
<polygon fill="midnightblue" stroke="midnightblue" points="1351.53,-360.86 1360.7,-355.55 1350.22,-353.99 1351.53,-360.86"/>
</g>
<!-- Node17 -->
<g id="node17" class="node">
<title>Node17</title>
<g id="a_node17"><a xlink:href="abcgApplication_8hpp.html" target="_top" xlink:title="Header file of abcg::Application.">
<polygon fill="none" stroke="black" points="938.5,-336.5 938.5,-355.5 1054.5,-355.5 1054.5,-336.5 938.5,-336.5"/>
<text text-anchor="middle" x="996.5" y="-343.5" font-family="Helvetica,sans-Serif" font-size="10.00">abcgApplication.hpp</text>
</a>
</g>
</g>
<!-- Node16&#45;&gt;Node17 -->
<g id="edge17" class="edge">
<title>Node16&#45;&gt;Node17</title>
<path fill="none" stroke="midnightblue" d="M1102.53,-392.44C1081.89,-383.6 1049.44,-369.69 1025.87,-359.59"/>
<polygon fill="midnightblue" stroke="midnightblue" points="1026.94,-356.24 1016.37,-355.52 1024.18,-362.67 1026.94,-356.24"/>
</g>
<!-- Node18 -->
<g id="node18" class="node">
<title>Node18</title>
<g id="a_node18"><a xlink:href="abcgExternal_8hpp.html" target="_top" xlink:title="Header file for including third&#45;party dependencies.">
<polygon fill="none" stroke="black" points="1148,-280.5 1148,-299.5 1249,-299.5 1249,-280.5 1148,-280.5"/>
<text text-anchor="middle" x="1198.5" y="-287.5" font-family="Helvetica,sans-Serif" font-size="10.00">abcgExternal.hpp</text>
</a>
</g>
</g>
<!-- Node16&#45;&gt;Node18 -->
<g id="edge20" class="edge">
<title>Node16&#45;&gt;Node18</title>
<path fill="none" stroke="midnightblue" d="M1153.04,-397.89C1199.67,-392.45 1285.15,-379.47 1303.5,-356 1323.23,-330.76 1284.14,-312.84 1248.18,-302.29"/>
<polygon fill="midnightblue" stroke="midnightblue" points="1248.75,-298.81 1238.18,-299.51 1246.87,-305.56 1248.75,-298.81"/>
</g>
<!-- Node19 -->
<g id="node19" class="node">
<title>Node19</title>
<g id="a_node19"><a xlink:href="abcgTrackball_8hpp.html" target="_top" xlink:title="Header file of abcg::TrackBall.">
<polygon fill="none" stroke="black" points="1190.5,-336.5 1190.5,-355.5 1294.5,-355.5 1294.5,-336.5 1190.5,-336.5"/>
<text text-anchor="middle" x="1242.5" y="-343.5" font-family="Helvetica,sans-Serif" font-size="10.00">abcgTrackball.hpp</text>
</a>
</g>
</g>
<!-- Node16&#45;&gt;Node19 -->
<g id="edge21" class="edge">
<title>Node16&#45;&gt;Node19</title>
<path fill="none" stroke="midnightblue" d="M1141.51,-392.44C1161.09,-383.64 1191.81,-369.81 1214.23,-359.72"/>
<polygon fill="midnightblue" stroke="midnightblue" points="1215.89,-362.81 1223.57,-355.52 1213.02,-356.43 1215.89,-362.81"/>
</g>
<!-- Node22 -->
<g id="node22" class="node">
<title>Node22</title>
<g id="a_node22"><a xlink:href="abcgUtil_8hpp.html" target="_top" xlink:title="Declaration of general utility functions.">
<polygon fill="none" stroke="black" points="698.5,-336.5 698.5,-355.5 776.5,-355.5 776.5,-336.5 698.5,-336.5"/>
<text text-anchor="middle" x="737.5" y="-343.5" font-family="Helvetica,sans-Serif" font-size="10.00">abcgUtil.hpp</text>
</a>
</g>
</g>
<!-- Node16&#45;&gt;Node22 -->
<g id="edge25" class="edge">
<title>Node16&#45;&gt;Node22</title>
<path fill="none" stroke="midnightblue" d="M1091.75,-397.44C1034.03,-390.65 905.28,-374.93 786.5,-356.09"/>
<polygon fill="midnightblue" stroke="midnightblue" points="786.93,-352.61 776.5,-354.49 785.83,-359.52 786.93,-352.61"/>
</g>
<!-- Node24 -->
<g id="node24" class="node">
<title>Node24</title>
<g id="a_node24"><a xlink:href="abcgWindow_8hpp.html" target="_top" xlink:title="Header file of abcg::Window.">
<polygon fill="none" stroke="black" points="1073,-336.5 1073,-355.5 1172,-355.5 1172,-336.5 1073,-336.5"/>
<text text-anchor="middle" x="1122.5" y="-343.5" font-family="Helvetica,sans-Serif" font-size="10.00">abcgWindow.hpp</text>
</a>
</g>
</g>
<!-- Node16&#45;&gt;Node24 -->
<g id="edge27" class="edge">
<title>Node16&#45;&gt;Node24</title>
<path fill="none" stroke="midnightblue" d="M1122.5,-392.08C1122.5,-385.01 1122.5,-374.86 1122.5,-365.99"/>
<polygon fill="midnightblue" stroke="midnightblue" points="1126,-365.75 1122.5,-355.75 1119,-365.75 1126,-365.75"/>
</g>
<!-- Node17&#45;&gt;Node14 -->
<g id="edge18" class="edge">
<title>Node17&#45;&gt;Node14</title>
<path fill="none" stroke="midnightblue" d="M994.77,-336.37C991.22,-318.62 983.03,-277.67 978.22,-253.6"/>
<polygon fill="midnightblue" stroke="midnightblue" points="981.61,-252.71 976.22,-243.59 974.75,-254.08 981.61,-252.71"/>
</g>
<!-- Node19&#45;&gt;Node18 -->
<g id="edge22" class="edge">
<title>Node19&#45;&gt;Node18</title>
<path fill="none" stroke="midnightblue" d="M1235.23,-336.08C1228.96,-328.38 1219.71,-317.03 1212.07,-307.65"/>
<polygon fill="midnightblue" stroke="midnightblue" points="1214.66,-305.29 1205.63,-299.75 1209.23,-309.71 1214.66,-305.29"/>
</g>
<!-- Node20 -->
<g id="node20" class="node">
<title>Node20</title>
<g id="a_node20"><a xlink:href="abcgTimer_8hpp.html" target="_top" xlink:title="Header file of abcg::Timer.">
<polygon fill="none" stroke="black" points="1041,-280.5 1041,-299.5 1130,-299.5 1130,-280.5 1041,-280.5"/>
<text text-anchor="middle" x="1085.5" y="-287.5" font-family="Helvetica,sans-Serif" font-size="10.00">abcgTimer.hpp</text>
</a>
</g>
</g>
<!-- Node19&#45;&gt;Node20 -->
<g id="edge23" class="edge">
<title>Node19&#45;&gt;Node20</title>
<path fill="none" stroke="midnightblue" d="M1217.62,-336.44C1191.21,-327.36 1149.28,-312.94 1119.76,-302.78"/>
<polygon fill="midnightblue" stroke="midnightblue" points="1120.86,-299.46 1110.26,-299.52 1118.58,-306.08 1120.86,-299.46"/>
</g>
<!-- Node21 -->
<g id="node21" class="node">
<title>Node21</title>
<g id="a_node21"><a xlink:title=" ">
<polygon fill="none" stroke="#bfbfbf" points="1060.5,-224.5 1060.5,-243.5 1110.5,-243.5 1110.5,-224.5 1060.5,-224.5"/>
<text text-anchor="middle" x="1085.5" y="-231.5" font-family="Helvetica,sans-Serif" font-size="10.00">chrono</text>
</a>
</g>
</g>
<!-- Node20&#45;&gt;Node21 -->
<g id="edge24" class="edge">
<title>Node20&#45;&gt;Node21</title>
<path fill="none" stroke="midnightblue" d="M1085.5,-280.08C1085.5,-273.01 1085.5,-262.86 1085.5,-253.99"/>
<polygon fill="midnightblue" stroke="midnightblue" points="1089,-253.75 1085.5,-243.75 1082,-253.75 1089,-253.75"/>
</g>
<!-- Node23 -->
<g id="node23" class="node">
<title>Node23</title>
<g id="a_node23"><a xlink:title=" ">
<polygon fill="none" stroke="#bfbfbf" points="699,-280.5 699,-299.5 764,-299.5 764,-280.5 699,-280.5"/>
<text text-anchor="middle" x="731.5" y="-287.5" font-family="Helvetica,sans-Serif" font-size="10.00">functional</text>
</a>
</g>
</g>
<!-- Node22&#45;&gt;Node23 -->
<g id="edge26" class="edge">
<title>Node22&#45;&gt;Node23</title>
<path fill="none" stroke="midnightblue" d="M736.51,-336.08C735.71,-328.93 734.57,-318.64 733.58,-309.69"/>
<polygon fill="midnightblue" stroke="midnightblue" points="737.06,-309.3 732.47,-299.75 730.1,-310.08 737.06,-309.3"/>
</g>
<!-- Node24&#45;&gt;Node14 -->
<g id="edge28" class="edge">
<title>Node24&#45;&gt;Node14</title>
<path fill="none" stroke="midnightblue" d="M1099.69,-336.43C1080.64,-328.63 1053.31,-315.92 1032.5,-300 1014.37,-286.13 997.45,-266.02 986.63,-251.85"/>
<polygon fill="midnightblue" stroke="midnightblue" points="989.21,-249.46 980.44,-243.52 983.59,-253.63 989.21,-249.46"/>
</g>
<!-- Node24&#45;&gt;Node18 -->
<g id="edge29" class="edge">
<title>Node24&#45;&gt;Node18</title>
<path fill="none" stroke="midnightblue" d="M1134.71,-336.32C1146.28,-328.11 1163.88,-315.6 1177.66,-305.81"/>
<polygon fill="midnightblue" stroke="midnightblue" points="1179.94,-308.48 1186.07,-299.83 1175.89,-302.77 1179.94,-308.48"/>
</g>
<!-- Node24&#45;&gt;Node20 -->
<g id="edge30" class="edge">
<title>Node24&#45;&gt;Node20</title>
<path fill="none" stroke="midnightblue" d="M1116.39,-336.08C1111.22,-328.53 1103.65,-317.49 1097.31,-308.23"/>
<polygon fill="midnightblue" stroke="midnightblue" points="1100.04,-306.02 1091.5,-299.75 1094.26,-309.98 1100.04,-306.02"/>
</g>
<!-- Node26 -->
<g id="node26" class="node">
<title>Node26</title>
<g id="a_node26"><a xlink:href="abcgVulkanDevice_8hpp.html" target="_top" xlink:title="Header file of abcg::VulkanDevice.">
<polygon fill="none" stroke="black" points="366,-224.5 366,-243.5 493,-243.5 493,-224.5 366,-224.5"/>
<text text-anchor="middle" x="429.5" y="-231.5" font-family="Helvetica,sans-Serif" font-size="10.00">abcgVulkanDevice.hpp</text>
</a>
</g>
</g>
<!-- Node25&#45;&gt;Node26 -->
<g id="edge32" class="edge">
<title>Node25&#45;&gt;Node26</title>
<path fill="none" stroke="midnightblue" d="M261.19,-280.44C295.57,-271.16 350.58,-256.31 388.29,-246.13"/>
<polygon fill="midnightblue" stroke="midnightblue" points="389.22,-249.5 397.96,-243.52 387.39,-242.74 389.22,-249.5"/>
</g>
<!-- Node27 -->
<g id="node27" class="node">
<title>Node27</title>
<g id="a_node27"><a xlink:title=" ">
<polygon fill="none" stroke="#bfbfbf" points="257.5,-224.5 257.5,-243.5 331.5,-243.5 331.5,-224.5 257.5,-224.5"/>
<text text-anchor="middle" x="294.5" y="-231.5" font-family="Helvetica,sans-Serif" font-size="10.00">gsl/pointers</text>
</a>
</g>
</g>
<!-- Node25&#45;&gt;Node27 -->
<g id="edge35" class="edge">
<title>Node25&#45;&gt;Node27</title>
<path fill="none" stroke="midnightblue" d="M239.94,-280.32C249.65,-272.26 264.32,-260.08 276,-250.37"/>
<polygon fill="midnightblue" stroke="midnightblue" points="278.41,-252.92 283.87,-243.83 273.94,-247.53 278.41,-252.92"/>
</g>
<!-- Node26&#45;&gt;Node2 -->
<g id="edge34" class="edge">
<title>Node26&#45;&gt;Node2</title>
<path fill="none" stroke="midnightblue" d="M374.68,-224.44C313.18,-214.85 213.52,-199.29 148.24,-189.1"/>
<polygon fill="midnightblue" stroke="midnightblue" points="148.49,-185.6 138.07,-187.52 147.41,-192.52 148.49,-185.6"/>
</g>
<!-- Node26&#45;&gt;Node4 -->
<g id="edge33" class="edge">
<title>Node26&#45;&gt;Node4</title>
<path fill="none" stroke="midnightblue" d="M423.75,-224.22C409.53,-202.99 370.81,-147.99 328.5,-112 313.7,-99.41 294.94,-88.26 279.75,-80.21"/>
<polygon fill="midnightblue" stroke="midnightblue" points="281.32,-77.08 270.83,-75.61 278.12,-83.3 281.32,-77.08"/>
</g>
<!-- Node28&#45;&gt;Node26 -->
<g id="edge37" class="edge">
<title>Node28&#45;&gt;Node26</title>
<path fill="none" stroke="midnightblue" d="M379.98,-280.32C388.7,-272.34 401.84,-260.31 412.4,-250.65"/>
<polygon fill="midnightblue" stroke="midnightblue" points="414.83,-253.17 419.85,-243.83 410.11,-248 414.83,-253.17"/>
</g>
<!-- Node28&#45;&gt;Node27 -->
<g id="edge38" class="edge">
<title>Node28&#45;&gt;Node27</title>
<path fill="none" stroke="midnightblue" d="M358.29,-280.32C346.72,-272.11 329.12,-259.6 315.34,-249.81"/>
<polygon fill="midnightblue" stroke="midnightblue" points="317.11,-246.77 306.93,-243.83 313.06,-252.48 317.11,-246.77"/>
</g>
<!-- Node29&#45;&gt;Node26 -->
<g id="edge40" class="edge">
<title>Node29&#45;&gt;Node26</title>
<path fill="none" stroke="midnightblue" d="M667.41,-392.45C658.95,-370.27 633.21,-310.52 591.5,-280 565.89,-261.26 532.82,-250.32 503.24,-243.94"/>
<polygon fill="midnightblue" stroke="midnightblue" points="503.85,-240.49 493.36,-241.94 502.47,-247.35 503.85,-240.49"/>
</g>
<!-- Node29&#45;&gt;Node30 -->
<g id="edge41" class="edge">
<title>Node29&#45;&gt;Node30</title>
<path fill="none" stroke="midnightblue" d="M700.13,-392.44C732,-383.24 782.83,-368.56 818.06,-358.39"/>
<polygon fill="midnightblue" stroke="midnightblue" points="819.37,-361.65 828.01,-355.52 817.43,-354.93 819.37,-361.65"/>
</g>
<!-- Node32 -->
<g id="node32" class="node">
<title>Node32</title>
<g id="a_node32"><a xlink:href="abcgVulkanSwapchain_8hpp.html" target="_top" xlink:title="Header file of abcg::VulkanSwapchain.">
<polygon fill="none" stroke="black" points="458.5,-336.5 458.5,-355.5 604.5,-355.5 604.5,-336.5 458.5,-336.5"/>
<text text-anchor="middle" x="531.5" y="-343.5" font-family="Helvetica,sans-Serif" font-size="10.00">abcgVulkanSwapchain.hpp</text>
</a>
</g>
</g>
<!-- Node29&#45;&gt;Node32 -->
<g id="edge46" class="edge">
<title>Node29&#45;&gt;Node32</title>
<path fill="none" stroke="midnightblue" d="M648.48,-392.44C625.4,-383.48 588.94,-369.31 562.86,-359.18"/>
<polygon fill="midnightblue" stroke="midnightblue" points="564.01,-355.88 553.42,-355.52 561.48,-362.4 564.01,-355.88"/>
</g>
<!-- Node30&#45;&gt;Node26 -->
<g id="edge45" class="edge">
<title>Node30&#45;&gt;Node26</title>
<path fill="none" stroke="midnightblue" d="M849.64,-336.5C835.8,-322.13 805.51,-293.32 773.5,-280 761.16,-274.87 600.61,-255.22 503.27,-243.66"/>
<polygon fill="midnightblue" stroke="midnightblue" points="503.53,-240.16 493.18,-242.46 502.7,-247.11 503.53,-240.16"/>
</g>
<!-- Node31 -->
<g id="node31" class="node">
<title>Node31</title>
<g id="a_node31"><a xlink:href="abcgShader_8hpp.html" target="_top" xlink:title="Declaration of a structure for building shaders.">
<polygon fill="none" stroke="black" points="820.5,-280.5 820.5,-299.5 914.5,-299.5 914.5,-280.5 820.5,-280.5"/>
<text text-anchor="middle" x="867.5" y="-287.5" font-family="Helvetica,sans-Serif" font-size="10.00">abcgShader.hpp</text>
</a>
</g>
</g>
<!-- Node30&#45;&gt;Node31 -->
<g id="edge42" class="edge">
<title>Node30&#45;&gt;Node31</title>
<path fill="none" stroke="midnightblue" d="M859.15,-336.08C860.48,-328.93 862.38,-318.64 864.04,-309.69"/>
<polygon fill="midnightblue" stroke="midnightblue" points="867.5,-310.22 865.88,-299.75 860.62,-308.95 867.5,-310.22"/>
</g>
<!-- Node31&#45;&gt;Node3 -->
<g id="edge43" class="edge">
<title>Node31&#45;&gt;Node3</title>
<path fill="none" stroke="midnightblue" d="M828.87,-280.44C725.24,-257.43 432.26,-192.07 177.58,-132.23"/>
<polygon fill="midnightblue" stroke="midnightblue" points="178.31,-128.81 167.77,-129.92 176.7,-135.62 178.31,-128.81"/>
</g>
<!-- Node31&#45;&gt;Node14 -->
<g id="edge44" class="edge">
<title>Node31&#45;&gt;Node14</title>
<path fill="none" stroke="midnightblue" d="M884.69,-280.32C901.85,-271.66 928.45,-258.24 948.25,-248.25"/>
<polygon fill="midnightblue" stroke="midnightblue" points="950,-251.28 957.35,-243.65 946.85,-245.04 950,-251.28"/>
</g>
<!-- Node32&#45;&gt;Node23 -->
<g id="edge47" class="edge">
<title>Node32&#45;&gt;Node23</title>
<path fill="none" stroke="midnightblue" d="M563.19,-336.44C597.57,-327.16 652.58,-312.31 690.29,-302.13"/>
<polygon fill="midnightblue" stroke="midnightblue" points="691.22,-305.5 699.96,-299.52 689.39,-298.74 691.22,-305.5"/>
</g>
<!-- Node32&#45;&gt;Node26 -->
<g id="edge49" class="edge">
<title>Node32&#45;&gt;Node26</title>
<path fill="none" stroke="midnightblue" d="M544.44,-336.4C561.82,-323.78 588.95,-299.61 574.5,-280 563.78,-265.45 522.95,-253.58 487.34,-245.69"/>
<polygon fill="midnightblue" stroke="midnightblue" points="487.97,-242.25 477.46,-243.57 486.51,-249.09 487.97,-242.25"/>
</g>
<!-- Node32&#45;&gt;Node28 -->
<g id="edge50" class="edge">
<title>Node32&#45;&gt;Node28</title>
<path fill="none" stroke="midnightblue" d="M505.99,-336.44C478.9,-327.36 435.91,-312.94 405.63,-302.78"/>
<polygon fill="midnightblue" stroke="midnightblue" points="406.49,-299.38 395.89,-299.52 404.26,-306.01 406.49,-299.38"/>
</g>
<!-- Node33 -->
<g id="node33" class="node">
<title>Node33</title>
<g id="a_node33"><a xlink:title=" ">
<polygon fill="none" stroke="#bfbfbf" points="489,-280.5 489,-299.5 566,-299.5 566,-280.5 489,-280.5"/>
<text text-anchor="middle" x="527.5" y="-287.5" font-family="Helvetica,sans-Serif" font-size="10.00">glm/fwd.hpp</text>
</a>
</g>
</g>
<!-- Node32&#45;&gt;Node33 -->
<g id="edge48" class="edge">
<title>Node32&#45;&gt;Node33</title>
<path fill="none" stroke="midnightblue" d="M530.84,-336.08C530.32,-329.01 529.56,-318.86 528.91,-309.99"/>
<polygon fill="midnightblue" stroke="midnightblue" points="532.38,-309.47 528.15,-299.75 525.4,-309.98 532.38,-309.47"/>
</g>
<!-- Node34&#45;&gt;Node2 -->
<g id="edge57" class="edge">
<title>Node34&#45;&gt;Node2</title>
<path fill="none" stroke="midnightblue" d="M409.98,-399.62C332.35,-394.46 203.82,-374.3 126.5,-300 97.79,-272.42 88.21,-224.44 85.04,-197.94"/>
<polygon fill="midnightblue" stroke="midnightblue" points="88.5,-197.32 84.02,-187.72 81.53,-198.02 88.5,-197.32"/>
</g>
<!-- Node34&#45;&gt;Node7 -->
<g id="edge56" class="edge">
<title>Node34&#45;&gt;Node7</title>
<path fill="none" stroke="midnightblue" d="M464.13,-392.27C445.05,-378.1 404.93,-350.24 366.5,-336 278.94,-303.55 219.61,-371.46 159.5,-300 115.25,-247.39 195.11,-170.27 233.54,-138.03"/>
<polygon fill="midnightblue" stroke="midnightblue" points="235.97,-140.56 241.48,-131.51 231.53,-135.15 235.97,-140.56"/>
</g>
<!-- Node34&#45;&gt;Node14 -->
<g id="edge54" class="edge">
<title>Node34&#45;&gt;Node14</title>
<path fill="none" stroke="midnightblue" d="M518.43,-392.43C546.84,-385.5 584.12,-373.89 613.5,-356 654.57,-330.99 647.59,-301.69 690.5,-280 734.18,-257.92 877.56,-243.26 942.29,-237.61"/>
<polygon fill="midnightblue" stroke="midnightblue" points="942.67,-241.09 952.34,-236.75 942.07,-234.12 942.67,-241.09"/>
</g>
<!-- Node34&#45;&gt;Node24 -->
<g id="edge59" class="edge">
<title>Node34&#45;&gt;Node24</title>
<path fill="none" stroke="midnightblue" d="M541.24,-396.03C680.79,-385.48 998.56,-361.41 1062.66,-355.81"/>
<polygon fill="midnightblue" stroke="midnightblue" points="1063.34,-359.26 1072.96,-354.83 1062.68,-352.29 1063.34,-359.26"/>
</g>
<!-- Node34&#45;&gt;Node26 -->
<g id="edge55" class="edge">
<title>Node34&#45;&gt;Node26</title>
<path fill="none" stroke="midnightblue" d="M468.92,-392.23C462.78,-383.52 453.91,-369.56 449.5,-356 439,-323.7 447.67,-313.4 441.5,-280 439.86,-271.14 437.38,-261.48 435.1,-253.38"/>
<polygon fill="midnightblue" stroke="midnightblue" points="438.38,-252.14 432.2,-243.54 431.66,-254.12 438.38,-252.14"/>
</g>
<!-- Node34&#45;&gt;Node32 -->
<g id="edge58" class="edge">
<title>Node34&#45;&gt;Node32</title>
<path fill="none" stroke="midnightblue" d="M484.5,-392.32C492.69,-384.42 505.01,-372.55 514.97,-362.94"/>
<polygon fill="midnightblue" stroke="midnightblue" points="517.57,-365.29 522.34,-355.83 512.71,-360.26 517.57,-365.29"/>
</g>
<!-- Node35 -->
<g id="node35" class="node">
<title>Node35</title>
<g id="a_node35"><a xlink:title=" ">
<polygon fill="none" stroke="#bfbfbf" points="315.5,-336.5 315.5,-355.5 357.5,-355.5 357.5,-336.5 315.5,-336.5"/>
<text text-anchor="middle" x="336.5" y="-343.5" font-family="Helvetica,sans-Serif" font-size="10.00">array</text>
</a>
</g>
</g>
<!-- Node34&#45;&gt;Node35 -->
<g id="edge53" class="edge">
<title>Node34&#45;&gt;Node35</title>
<path fill="none" stroke="midnightblue" d="M453.48,-392.44C430.12,-383.37 393.08,-368.98 366.94,-358.83"/>
<polygon fill="midnightblue" stroke="midnightblue" points="368.1,-355.52 357.51,-355.16 365.57,-362.05 368.1,-355.52"/>
</g>
</g>
</svg>
