<?xml version="1.0" encoding="UTF-8" standalone="no"?>
<!DOCTYPE svg PUBLIC "-//W3C//DTD SVG 1.1//EN"
 "http://www.w3.org/Graphics/SVG/1.1/DTD/svg11.dtd">
<!-- Generated by graphviz version 2.43.0 (0)
 -->
<!-- Title: /home/harlen/dev/abcg/abcg/abcgApplication.cpp Pages: 1 -->
<svg width="697pt" height="207pt"
 viewBox="0.00 0.00 696.50 207.00" xmlns="http://www.w3.org/2000/svg" xmlns:xlink="http://www.w3.org/1999/xlink">
<g id="graph0" class="graph" transform="scale(1 1) rotate(0) translate(4 203)">
<title>/home/harlen/dev/abcg/abcg/abcgApplication.cpp</title>
<!-- Node1 -->
<g id="node1" class="node">
<title>Node1</title>
<g id="a_node1"><a xlink:title="Definition of abcg::Application members.">
<polygon fill="#bfbfbf" stroke="black" points="346.5,-168.5 346.5,-198.5 490.5,-198.5 490.5,-168.5 346.5,-168.5"/>
<text text-anchor="start" x="354.5" y="-186.5" font-family="Helvetica,sans-Serif" font-size="10.00">/home/harlen/dev/abcg</text>
<text text-anchor="middle" x="418.5" y="-175.5" font-family="Helvetica,sans-Serif" font-size="10.00">/abcg/abcgApplication.cpp</text>
</a>
</g>
</g>
<!-- Node2 -->
<g id="node2" class="node">
<title>Node2</title>
<g id="a_node2"><a xlink:href="abcgApplication_8hpp.html" target="_top" xlink:title="Header file of abcg::Application.">
<polygon fill="none" stroke="black" points="180.5,-112.5 180.5,-131.5 296.5,-131.5 296.5,-112.5 180.5,-112.5"/>
<text text-anchor="middle" x="238.5" y="-119.5" font-family="Helvetica,sans-Serif" font-size="10.00">abcgApplication.hpp</text>
</a>
</g>
</g>
<!-- Node1&#45;&gt;Node2 -->
<g id="edge1" class="edge">
<title>Node1&#45;&gt;Node2</title>
<path fill="none" stroke="midnightblue" d="M375.84,-168.4C344.87,-158.16 303.45,-144.47 274.22,-134.81"/>
<polygon fill="midnightblue" stroke="midnightblue" points="275.02,-131.39 264.43,-131.57 272.83,-138.03 275.02,-131.39"/>
</g>
<!-- Node4 -->
<g id="node4" class="node">
<title>Node4</title>
<g id="a_node4"><a xlink:title=" ">
<polygon fill="none" stroke="#bfbfbf" points="432.5,-112.5 432.5,-131.5 512.5,-131.5 512.5,-112.5 432.5,-112.5"/>
<text text-anchor="middle" x="472.5" y="-119.5" font-family="Helvetica,sans-Serif" font-size="10.00">SDL_image.h</text>
</a>
</g>
</g>
<!-- Node1&#45;&gt;Node4 -->
<g id="edge3" class="edge">
<title>Node1&#45;&gt;Node4</title>
<path fill="none" stroke="midnightblue" d="M431.3,-168.4C439.22,-159.66 449.44,-148.41 457.71,-139.3"/>
<polygon fill="midnightblue" stroke="midnightblue" points="460.51,-141.42 464.64,-131.66 455.33,-136.71 460.51,-141.42"/>
</g>
<!-- Node5 -->
<g id="node5" class="node">
<title>Node5</title>
<g id="a_node5"><a xlink:title=" ">
<polygon fill="none" stroke="#bfbfbf" points="530.5,-112.5 530.5,-131.5 570.5,-131.5 570.5,-112.5 530.5,-112.5"/>
<text text-anchor="middle" x="550.5" y="-119.5" font-family="Helvetica,sans-Serif" font-size="10.00">span</text>
</a>
</g>
</g>
<!-- Node1&#45;&gt;Node5 -->
<g id="edge4" class="edge">
<title>Node1&#45;&gt;Node5</title>
<path fill="none" stroke="midnightblue" d="M449.78,-168.4C471.73,-158.51 500.84,-145.38 522.12,-135.79"/>
<polygon fill="midnightblue" stroke="midnightblue" points="523.61,-138.96 531.29,-131.66 520.74,-132.58 523.61,-138.96"/>
</g>
<!-- Node6 -->
<g id="node6" class="node">
<title>Node6</title>
<g id="a_node6"><a xlink:href="abcgException_8hpp.html" target="_top" xlink:title="Header file of abcg::Exception and derived classes.">
<polygon fill="none" stroke="black" points="53,-112.5 53,-131.5 162,-131.5 162,-112.5 53,-112.5"/>
<text text-anchor="middle" x="107.5" y="-119.5" font-family="Helvetica,sans-Serif" font-size="10.00">abcgException.hpp</text>
</a>
</g>
</g>
<!-- Node1&#45;&gt;Node6 -->
<g id="edge5" class="edge">
<title>Node1&#45;&gt;Node6</title>
<path fill="none" stroke="midnightblue" d="M346.37,-168.7C290.18,-157.95 213.38,-143.26 162.19,-133.46"/>
<polygon fill="midnightblue" stroke="midnightblue" points="162.79,-130.01 152.31,-131.57 161.47,-136.89 162.79,-130.01"/>
</g>
<!-- Node9 -->
<g id="node9" class="node">
<title>Node9</title>
<g id="a_node9"><a xlink:href="abcgWindow_8hpp.html" target="_top" xlink:title="Header file of abcg::Window.">
<polygon fill="none" stroke="black" points="315,-112.5 315,-131.5 414,-131.5 414,-112.5 315,-112.5"/>
<text text-anchor="middle" x="364.5" y="-119.5" font-family="Helvetica,sans-Serif" font-size="10.00">abcgWindow.hpp</text>
</a>
</g>
</g>
<!-- Node1&#45;&gt;Node9 -->
<g id="edge9" class="edge">
<title>Node1&#45;&gt;Node9</title>
<path fill="none" stroke="midnightblue" d="M405.7,-168.4C397.78,-159.66 387.56,-148.41 379.29,-139.3"/>
<polygon fill="midnightblue" stroke="midnightblue" points="381.67,-136.71 372.36,-131.66 376.49,-141.42 381.67,-136.71"/>
</g>
<!-- Node13 -->
<g id="node13" class="node">
<title>Node13</title>
<g id="a_node13"><a xlink:title=" ">
<polygon fill="none" stroke="#bfbfbf" points="588.5,-112.5 588.5,-131.5 688.5,-131.5 688.5,-112.5 588.5,-112.5"/>
<text text-anchor="middle" x="638.5" y="-119.5" font-family="Helvetica,sans-Serif" font-size="10.00">tiny_obj_loader.h</text>
</a>
</g>
</g>
<!-- Node1&#45;&gt;Node13 -->
<g id="edge14" class="edge">
<title>Node1&#45;&gt;Node13</title>
<path fill="none" stroke="midnightblue" d="M470.36,-168.47C509.14,-157.99 561.46,-143.84 597.38,-134.12"/>
<polygon fill="midnightblue" stroke="midnightblue" points="598.31,-137.5 607.05,-131.51 596.48,-130.74 598.31,-137.5"/>
</g>
<!-- Node3 -->
<g id="node3" class="node">
<title>Node3</title>
<g id="a_node3"><a xlink:title=" ">
<polygon fill="none" stroke="#bfbfbf" points="216.5,-56.5 216.5,-75.5 260.5,-75.5 260.5,-56.5 216.5,-56.5"/>
<text text-anchor="middle" x="238.5" y="-63.5" font-family="Helvetica,sans-Serif" font-size="10.00">string</text>
</a>
</g>
</g>
<!-- Node2&#45;&gt;Node3 -->
<g id="edge2" class="edge">
<title>Node2&#45;&gt;Node3</title>
<path fill="none" stroke="midnightblue" d="M238.5,-112.08C238.5,-105.01 238.5,-94.86 238.5,-85.99"/>
<polygon fill="midnightblue" stroke="midnightblue" points="242,-85.75 238.5,-75.75 235,-85.75 242,-85.75"/>
</g>
<!-- Node6&#45;&gt;Node3 -->
<g id="edge8" class="edge">
<title>Node6&#45;&gt;Node3</title>
<path fill="none" stroke="midnightblue" d="M128.26,-112.44C149.82,-103.56 183.76,-89.56 208.29,-79.45"/>
<polygon fill="midnightblue" stroke="midnightblue" points="209.93,-82.56 217.84,-75.52 207.26,-76.09 209.93,-82.56"/>
</g>
<!-- Node7 -->
<g id="node7" class="node">
<title>Node7</title>
<g id="a_node7"><a xlink:title=" ">
<polygon fill="none" stroke="#bfbfbf" points="83,-56.5 83,-75.5 176,-75.5 176,-56.5 83,-56.5"/>
<text text-anchor="middle" x="129.5" y="-63.5" font-family="Helvetica,sans-Serif" font-size="10.00">source_location</text>
</a>
</g>
</g>
<!-- Node6&#45;&gt;Node7 -->
<g id="edge6" class="edge">
<title>Node6&#45;&gt;Node7</title>
<path fill="none" stroke="midnightblue" d="M111.13,-112.08C114.11,-104.77 118.43,-94.18 122.12,-85.1"/>
<polygon fill="midnightblue" stroke="midnightblue" points="125.4,-86.33 125.93,-75.75 118.92,-83.69 125.4,-86.33"/>
</g>
<!-- Node8 -->
<g id="node8" class="node">
<title>Node8</title>
<g id="a_node8"><a xlink:title=" ">
<polygon fill="none" stroke="#bfbfbf" points="0,-56.5 0,-75.5 65,-75.5 65,-56.5 0,-56.5"/>
<text text-anchor="middle" x="32.5" y="-63.5" font-family="Helvetica,sans-Serif" font-size="10.00">stdexcept</text>
</a>
</g>
</g>
<!-- Node6&#45;&gt;Node8 -->
<g id="edge7" class="edge">
<title>Node6&#45;&gt;Node8</title>
<path fill="none" stroke="midnightblue" d="M95.45,-112.32C84.04,-104.11 66.67,-91.6 53.07,-81.81"/>
<polygon fill="midnightblue" stroke="midnightblue" points="54.93,-78.84 44.77,-75.83 50.84,-84.52 54.93,-78.84"/>
</g>
<!-- Node9&#45;&gt;Node3 -->
<g id="edge10" class="edge">
<title>Node9&#45;&gt;Node3</title>
<path fill="none" stroke="midnightblue" d="M344.53,-112.44C323.89,-103.6 291.44,-89.69 267.87,-79.59"/>
<polygon fill="midnightblue" stroke="midnightblue" points="268.94,-76.24 258.37,-75.52 266.18,-82.67 268.94,-76.24"/>
</g>
<!-- Node10 -->
<g id="node10" class="node">
<title>Node10</title>
<g id="a_node10"><a xlink:href="abcgExternal_8hpp.html" target="_top" xlink:title="Header file for including third&#45;party dependencies.">
<polygon fill="none" stroke="black" points="407,-56.5 407,-75.5 508,-75.5 508,-56.5 407,-56.5"/>
<text text-anchor="middle" x="457.5" y="-63.5" font-family="Helvetica,sans-Serif" font-size="10.00">abcgExternal.hpp</text>
</a>
</g>
</g>
<!-- Node9&#45;&gt;Node10 -->
<g id="edge11" class="edge">
<title>Node9&#45;&gt;Node10</title>
<path fill="none" stroke="midnightblue" d="M379.44,-112.32C394.09,-103.82 416.63,-90.73 433.74,-80.8"/>
<polygon fill="midnightblue" stroke="midnightblue" points="435.7,-83.7 442.6,-75.65 432.19,-77.65 435.7,-83.7"/>
</g>
<!-- Node11 -->
<g id="node11" class="node">
<title>Node11</title>
<g id="a_node11"><a xlink:href="abcgTimer_8hpp.html" target="_top" xlink:title="Header file of abcg::Timer.">
<polygon fill="none" stroke="black" points="300,-56.5 300,-75.5 389,-75.5 389,-56.5 300,-56.5"/>
<text text-anchor="middle" x="344.5" y="-63.5" font-family="Helvetica,sans-Serif" font-size="10.00">abcgTimer.hpp</text>
</a>
</g>
</g>
<!-- Node9&#45;&gt;Node11 -->
<g id="edge12" class="edge">
<title>Node9&#45;&gt;Node11</title>
<path fill="none" stroke="midnightblue" d="M361.2,-112.08C358.52,-104.85 354.65,-94.41 351.31,-85.4"/>
<polygon fill="midnightblue" stroke="midnightblue" points="354.5,-83.91 347.74,-75.75 347.93,-86.34 354.5,-83.91"/>
</g>
<!-- Node12 -->
<g id="node12" class="node">
<title>Node12</title>
<g id="a_node12"><a xlink:title=" ">
<polygon fill="none" stroke="#bfbfbf" points="319.5,-0.5 319.5,-19.5 369.5,-19.5 369.5,-0.5 319.5,-0.5"/>
<text text-anchor="middle" x="344.5" y="-7.5" font-family="Helvetica,sans-Serif" font-size="10.00">chrono</text>
</a>
</g>
</g>
<!-- Node11&#45;&gt;Node12 -->
<g id="edge13" class="edge">
<title>Node11&#45;&gt;Node12</title>
<path fill="none" stroke="midnightblue" d="M344.5,-56.08C344.5,-49.01 344.5,-38.86 344.5,-29.99"/>
<polygon fill="midnightblue" stroke="midnightblue" points="348,-29.75 344.5,-19.75 341,-29.75 348,-29.75"/>
</g>
</g>
</svg>
