<?xml version="1.0" encoding="UTF-8" standalone="no"?>
<!DOCTYPE svg PUBLIC "-//W3C//DTD SVG 1.1//EN"
 "http://www.w3.org/Graphics/SVG/1.1/DTD/svg11.dtd">
<!-- Generated by graphviz version 2.43.0 (0)
 -->
<!-- Title: /home/harlen/dev/abcg/abcg/abcgVulkanDevice.hpp Pages: 1 -->
<svg width="259pt" height="263pt"
 viewBox="0.00 0.00 258.50 263.00" xmlns="http://www.w3.org/2000/svg" xmlns:xlink="http://www.w3.org/1999/xlink">
<g id="graph0" class="graph" transform="scale(1 1) rotate(0) translate(4 259)">
<title>/home/harlen/dev/abcg/abcg/abcgVulkanDevice.hpp</title>
<!-- Node1 -->
<g id="node1" class="node">
<title>Node1</title>
<g id="a_node1"><a xlink:title="Header file of abcg::VulkanDevice.">
<polygon fill="#bfbfbf" stroke="black" points="73,-224.5 73,-254.5 229,-254.5 229,-224.5 73,-224.5"/>
<text text-anchor="start" x="81" y="-242.5" font-family="Helvetica,sans-Serif" font-size="10.00">/home/harlen/dev/abcg</text>
<text text-anchor="middle" x="151" y="-231.5" font-family="Helvetica,sans-Serif" font-size="10.00">/abcg/abcgVulkanDevice.hpp</text>
</a>
</g>
</g>
<!-- Node2 -->
<g id="node2" class="node">
<title>Node2</title>
<g id="a_node2"><a xlink:href="abcgVulkanPhysicalDevice_8hpp.html" target="_top" xlink:title="Header file of abcg::VulkanPhysicalDevice.">
<polygon fill="none" stroke="black" points="0.5,-168.5 0.5,-187.5 167.5,-187.5 167.5,-168.5 0.5,-168.5"/>
<text text-anchor="middle" x="84" y="-175.5" font-family="Helvetica,sans-Serif" font-size="10.00">abcgVulkanPhysicalDevice.hpp</text>
</a>
</g>
</g>
<!-- Node1&#45;&gt;Node2 -->
<g id="edge1" class="edge">
<title>Node1&#45;&gt;Node2</title>
<path fill="none" stroke="midnightblue" d="M135.12,-224.4C124.98,-215.4 111.84,-203.72 101.41,-194.47"/>
<polygon fill="midnightblue" stroke="midnightblue" points="103.55,-191.68 93.75,-187.66 98.9,-196.92 103.55,-191.68"/>
</g>
<!-- Node8 -->
<g id="node8" class="node">
<title>Node8</title>
<g id="a_node8"><a xlink:title=" ">
<polygon fill="none" stroke="#bfbfbf" points="185.5,-168.5 185.5,-187.5 250.5,-187.5 250.5,-168.5 185.5,-168.5"/>
<text text-anchor="middle" x="218" y="-175.5" font-family="Helvetica,sans-Serif" font-size="10.00">functional</text>
</a>
</g>
</g>
<!-- Node1&#45;&gt;Node8 -->
<g id="edge8" class="edge">
<title>Node1&#45;&gt;Node8</title>
<path fill="none" stroke="midnightblue" d="M166.88,-224.4C177.02,-215.4 190.16,-203.72 200.59,-194.47"/>
<polygon fill="midnightblue" stroke="midnightblue" points="203.1,-196.92 208.25,-187.66 198.45,-191.68 203.1,-196.92"/>
</g>
<!-- Node3 -->
<g id="node3" class="node">
<title>Node3</title>
<g id="a_node3"><a xlink:title=" ">
<polygon fill="none" stroke="#bfbfbf" points="0,-112.5 0,-131.5 56,-131.5 56,-112.5 0,-112.5"/>
<text text-anchor="middle" x="28" y="-119.5" font-family="Helvetica,sans-Serif" font-size="10.00">optional</text>
</a>
</g>
</g>
<!-- Node2&#45;&gt;Node3 -->
<g id="edge2" class="edge">
<title>Node2&#45;&gt;Node3</title>
<path fill="none" stroke="midnightblue" d="M75,-168.32C66.81,-160.42 54.49,-148.55 44.53,-138.94"/>
<polygon fill="midnightblue" stroke="midnightblue" points="46.79,-136.26 37.16,-131.83 41.93,-141.29 46.79,-136.26"/>
</g>
<!-- Node4 -->
<g id="node4" class="node">
<title>Node4</title>
<g id="a_node4"><a xlink:href="abcgVulkanExternal_8hpp.html" target="_top" xlink:title="Header file for including Vulkan&#45;related dependencies.">
<polygon fill="none" stroke="black" points="64,-56.5 64,-75.5 198,-75.5 198,-56.5 64,-56.5"/>
<text text-anchor="middle" x="131" y="-63.5" font-family="Helvetica,sans-Serif" font-size="10.00">abcgVulkanExternal.hpp</text>
</a>
</g>
</g>
<!-- Node2&#45;&gt;Node4 -->
<g id="edge3" class="edge">
<title>Node2&#45;&gt;Node4</title>
<path fill="none" stroke="midnightblue" d="M85.75,-168.32C88.48,-155.61 94.36,-131.32 103,-112 107.37,-102.24 113.54,-92.06 118.98,-83.86"/>
<polygon fill="midnightblue" stroke="midnightblue" points="121.9,-85.79 124.68,-75.57 116.13,-81.83 121.9,-85.79"/>
</g>
<!-- Node7 -->
<g id="node7" class="node">
<title>Node7</title>
<g id="a_node7"><a xlink:href="abcgVulkanInstance_8hpp.html" target="_top" xlink:title="Header file of abcg::VulkanInstance.">
<polygon fill="none" stroke="black" points="112,-112.5 112,-131.5 246,-131.5 246,-112.5 112,-112.5"/>
<text text-anchor="middle" x="179" y="-119.5" font-family="Helvetica,sans-Serif" font-size="10.00">abcgVulkanInstance.hpp</text>
</a>
</g>
</g>
<!-- Node2&#45;&gt;Node7 -->
<g id="edge6" class="edge">
<title>Node2&#45;&gt;Node7</title>
<path fill="none" stroke="midnightblue" d="M99.26,-168.32C114.22,-159.82 137.25,-146.73 154.73,-136.8"/>
<polygon fill="midnightblue" stroke="midnightblue" points="156.81,-139.64 163.77,-131.65 153.35,-133.55 156.81,-139.64"/>
</g>
<!-- Node5 -->
<g id="node5" class="node">
<title>Node5</title>
<g id="a_node5"><a xlink:title=" ">
<polygon fill="none" stroke="#bfbfbf" points="60.5,-0.5 60.5,-19.5 107.5,-19.5 107.5,-0.5 60.5,-0.5"/>
<text text-anchor="middle" x="84" y="-7.5" font-family="Helvetica,sans-Serif" font-size="10.00">volk.h</text>
</a>
</g>
</g>
<!-- Node4&#45;&gt;Node5 -->
<g id="edge4" class="edge">
<title>Node4&#45;&gt;Node5</title>
<path fill="none" stroke="midnightblue" d="M123.24,-56.08C116.46,-48.3 106.46,-36.8 98.24,-27.37"/>
<polygon fill="midnightblue" stroke="midnightblue" points="100.82,-25 91.62,-19.75 95.54,-29.59 100.82,-25"/>
</g>
<!-- Node6 -->
<g id="node6" class="node">
<title>Node6</title>
<g id="a_node6"><a xlink:title=" ">
<polygon fill="none" stroke="#bfbfbf" points="125.5,-0.5 125.5,-19.5 230.5,-19.5 230.5,-0.5 125.5,-0.5"/>
<text text-anchor="middle" x="178" y="-7.5" font-family="Helvetica,sans-Serif" font-size="10.00">vulkan/vulkan.hpp</text>
</a>
</g>
</g>
<!-- Node4&#45;&gt;Node6 -->
<g id="edge5" class="edge">
<title>Node4&#45;&gt;Node6</title>
<path fill="none" stroke="midnightblue" d="M138.76,-56.08C145.54,-48.3 155.54,-36.8 163.76,-27.37"/>
<polygon fill="midnightblue" stroke="midnightblue" points="166.46,-29.59 170.38,-19.75 161.18,-25 166.46,-29.59"/>
</g>
<!-- Node7&#45;&gt;Node4 -->
<g id="edge7" class="edge">
<title>Node7&#45;&gt;Node4</title>
<path fill="none" stroke="midnightblue" d="M171.07,-112.08C164.15,-104.3 153.93,-92.8 145.55,-83.37"/>
<polygon fill="midnightblue" stroke="midnightblue" points="148.04,-80.9 138.78,-75.75 142.81,-85.55 148.04,-80.9"/>
</g>
</g>
</svg>
