<?xml version="1.0" encoding="UTF-8" standalone="no"?>
<!DOCTYPE svg PUBLIC "-//W3C//DTD SVG 1.1//EN"
 "http://www.w3.org/Graphics/SVG/1.1/DTD/svg11.dtd">
<!-- Generated by graphviz version 2.43.0 (0)
 -->
<!-- Title: /home/harlen/dev/abcg/abcg/abcgVulkanWindow.hpp Pages: 1 -->
<svg width="688pt" height="423pt"
 viewBox="0.00 0.00 688.00 423.00" xmlns="http://www.w3.org/2000/svg" xmlns:xlink="http://www.w3.org/1999/xlink">
<g id="graph0" class="graph" transform="scale(1 1) rotate(0) translate(4 419)">
<title>/home/harlen/dev/abcg/abcg/abcgVulkanWindow.hpp</title>
<!-- Node1 -->
<g id="Node000001" class="node">
<title>Node1</title>
<g id="a_Node000001"><a xlink:title="Header file of abcg::VulkanWindow.">
<polygon fill="#999999" stroke="#666666" points="297,-415 136,-415 136,-385 297,-385 297,-415"/>
<text text-anchor="start" x="144" y="-403" font-family="Helvetica,sans-Serif" font-size="10.00">/home/harlen/dev/abcg</text>
<text text-anchor="middle" x="216.5" y="-392" font-family="Helvetica,sans-Serif" font-size="10.00">/abcg/abcgVulkanWindow.hpp</text>
</a>
</g>
</g>
<!-- Node2 -->
<g id="Node000002" class="node">
<title>Node2</title>
<g id="a_Node000002"><a xlink:href="abcgVulkanDevice_8hpp.html" target="_top" xlink:title="Header file of abcg::VulkanDevice.">
<polygon fill="white" stroke="#666666" points="147,-239 20,-239 20,-220 147,-220 147,-239"/>
<text text-anchor="middle" x="83.5" y="-227" font-family="Helvetica,sans-Serif" font-size="10.00">abcgVulkanDevice.hpp</text>
</a>
</g>
</g>
<!-- Node1&#45;&gt;Node2 -->
<g id="edge1_Node000001_Node000002" class="edge">
<title>Node1&#45;&gt;Node2</title>
<g id="a_edge1_Node000001_Node000002"><a xlink:title=" ">
<path fill="none" stroke="#63b8ff" d="M180.76,-384.97C145.81,-368.97 95.1,-339.06 75.5,-294 69.27,-279.67 72.3,-261.92 76.29,-248.84"/>
<polygon fill="#63b8ff" stroke="#63b8ff" points="79.69,-249.71 79.69,-239.12 73.09,-247.4 79.69,-249.71"/>
</a>
</g>
</g>
<!-- Node3 -->
<g id="Node000003" class="node">
<title>Node3</title>
<g id="a_Node000003"><a xlink:href="abcgVulkanPhysicalDevice_8hpp.html" target="_top" xlink:title="Header file of abcg::VulkanPhysicalDevice.">
<polygon fill="white" stroke="#666666" points="167,-184 0,-184 0,-165 167,-165 167,-184"/>
<text text-anchor="middle" x="83.5" y="-172" font-family="Helvetica,sans-Serif" font-size="10.00">abcgVulkanPhysicalDevice.hpp</text>
</a>
</g>
</g>
<!-- Node1&#45;&gt;Node3 -->
<g id="edge10_Node000001_Node000003" class="edge">
<title>Node1&#45;&gt;Node3</title>
<g id="a_edge10_Node000001_Node000003"><a xlink:title=" ">
<path fill="none" stroke="#63b8ff" d="M168.84,-384.9C146.13,-376.72 119.43,-364.86 98.5,-349 48.6,-311.19 31.22,-298.08 10.5,-239 7.7,-231.03 6.37,-227.36 10.5,-220 18.61,-205.56 33.51,-195.26 47.75,-188.22"/>
<polygon fill="#63b8ff" stroke="#63b8ff" points="49.27,-191.38 56.93,-184.06 46.38,-185 49.27,-191.38"/>
</a>
</g>
</g>
<!-- Node5 -->
<g id="Node000005" class="node">
<title>Node5</title>
<g id="a_Node000005"><a xlink:href="abcgVulkanInstance_8hpp.html" target="_top" xlink:title="Header file of abcg::VulkanInstance.">
<polygon fill="white" stroke="#666666" points="355.5,-129 221.5,-129 221.5,-110 355.5,-110 355.5,-129"/>
<text text-anchor="middle" x="288.5" y="-117" font-family="Helvetica,sans-Serif" font-size="10.00">abcgVulkanInstance.hpp</text>
</a>
</g>
</g>
<!-- Node1&#45;&gt;Node5 -->
<g id="edge9_Node000001_Node000005" class="edge">
<title>Node1&#45;&gt;Node5</title>
<g id="a_edge9_Node000001_Node000005"><a xlink:title=" ">
<path fill="none" stroke="#63b8ff" d="M273.75,-384.95C321.4,-369.44 381.5,-339.22 381.5,-285.5 381.5,-285.5 381.5,-285.5 381.5,-228.5 381.5,-186.48 340.58,-152.69 313.03,-134.7"/>
<polygon fill="#63b8ff" stroke="#63b8ff" points="314.61,-131.56 304.28,-129.21 310.89,-137.49 314.61,-131.56"/>
</a>
</g>
</g>
<!-- Node10 -->
<g id="Node000010" class="node">
<title>Node10</title>
<g id="a_Node000010"><a xlink:href="abcgVulkanSwapchain_8hpp.html" target="_top" xlink:title="Header file of abcg::VulkanSwapchain.">
<polygon fill="white" stroke="#666666" points="289.5,-349 143.5,-349 143.5,-330 289.5,-330 289.5,-349"/>
<text text-anchor="middle" x="216.5" y="-337" font-family="Helvetica,sans-Serif" font-size="10.00">abcgVulkanSwapchain.hpp</text>
</a>
</g>
</g>
<!-- Node1&#45;&gt;Node10 -->
<g id="edge11_Node000001_Node000010" class="edge">
<title>Node1&#45;&gt;Node10</title>
<g id="a_edge11_Node000001_Node000010"><a xlink:title=" ">
<path fill="none" stroke="#63b8ff" d="M216.5,-384.84C216.5,-377.21 216.5,-367.7 216.5,-359.45"/>
<polygon fill="#63b8ff" stroke="#63b8ff" points="220,-359.27 216.5,-349.27 213,-359.27 220,-359.27"/>
</a>
</g>
</g>
<!-- Node14 -->
<g id="Node000014" class="node">
<title>Node14</title>
<g id="a_Node000014"><a xlink:href="abcgWindow_8hpp.html" target="_top" xlink:title="Header file of abcg::Window.">
<polygon fill="white" stroke="#666666" points="540,-349 441,-349 441,-330 540,-330 540,-349"/>
<text text-anchor="middle" x="490.5" y="-337" font-family="Helvetica,sans-Serif" font-size="10.00">abcgWindow.hpp</text>
</a>
</g>
</g>
<!-- Node1&#45;&gt;Node14 -->
<g id="edge18_Node000001_Node000014" class="edge">
<title>Node1&#45;&gt;Node14</title>
<g id="a_edge18_Node000001_Node000014"><a xlink:title=" ">
<path fill="none" stroke="#63b8ff" d="M282.13,-384.99C330.75,-374.61 396,-360.68 440.45,-351.19"/>
<polygon fill="#63b8ff" stroke="#63b8ff" points="441.39,-354.56 450.44,-349.05 439.93,-347.72 441.39,-354.56"/>
</a>
</g>
</g>
<!-- Node2&#45;&gt;Node3 -->
<g id="edge2_Node000002_Node000003" class="edge">
<title>Node2&#45;&gt;Node3</title>
<g id="a_edge2_Node000002_Node000003"><a xlink:title=" ">
<path fill="none" stroke="#63b8ff" d="M83.5,-219.75C83.5,-212.8 83.5,-202.85 83.5,-194.13"/>
<polygon fill="#63b8ff" stroke="#63b8ff" points="87,-194.09 83.5,-184.09 80,-194.09 87,-194.09"/>
</a>
</g>
</g>
<!-- Node9 -->
<g id="Node000009" class="node">
<title>Node9</title>
<g id="a_Node000009"><a xlink:title=" ">
<polygon fill="#e0e0e0" stroke="#999999" points="302,-184 237,-184 237,-165 302,-165 302,-184"/>
<text text-anchor="middle" x="269.5" y="-172" font-family="Helvetica,sans-Serif" font-size="10.00">functional</text>
</a>
</g>
</g>
<!-- Node2&#45;&gt;Node9 -->
<g id="edge8_Node000002_Node000009" class="edge">
<title>Node2&#45;&gt;Node9</title>
<g id="a_edge8_Node000002_Node000009"><a xlink:title=" ">
<path fill="none" stroke="#63b8ff" d="M113.38,-219.98C144.88,-211.01 194.67,-196.82 229.53,-186.89"/>
<polygon fill="#63b8ff" stroke="#63b8ff" points="230.72,-190.19 239.38,-184.08 228.81,-183.46 230.72,-190.19"/>
</a>
</g>
</g>
<!-- Node4 -->
<g id="Node000004" class="node">
<title>Node4</title>
<g id="a_Node000004"><a xlink:title=" ">
<polygon fill="#e0e0e0" stroke="#999999" points="111.5,-129 55.5,-129 55.5,-110 111.5,-110 111.5,-129"/>
<text text-anchor="middle" x="83.5" y="-117" font-family="Helvetica,sans-Serif" font-size="10.00">optional</text>
</a>
</g>
</g>
<!-- Node3&#45;&gt;Node4 -->
<g id="edge3_Node000003_Node000004" class="edge">
<title>Node3&#45;&gt;Node4</title>
<g id="a_edge3_Node000003_Node000004"><a xlink:title=" ">
<path fill="none" stroke="#63b8ff" d="M83.5,-164.75C83.5,-157.8 83.5,-147.85 83.5,-139.13"/>
<polygon fill="#63b8ff" stroke="#63b8ff" points="87,-139.09 83.5,-129.09 80,-139.09 87,-139.09"/>
</a>
</g>
</g>
<!-- Node3&#45;&gt;Node5 -->
<g id="edge4_Node000003_Node000005" class="edge">
<title>Node3&#45;&gt;Node5</title>
<g id="a_edge4_Node000003_Node000005"><a xlink:title=" ">
<path fill="none" stroke="#63b8ff" d="M116.44,-164.98C151.45,-155.93 206.97,-141.58 245.43,-131.64"/>
<polygon fill="#63b8ff" stroke="#63b8ff" points="246.5,-134.97 255.31,-129.08 244.75,-128.2 246.5,-134.97"/>
</a>
</g>
</g>
<!-- Node6 -->
<g id="Node000006" class="node">
<title>Node6</title>
<g id="a_Node000006"><a xlink:href="abcgVulkanExternal_8hpp.html" target="_top" xlink:title="Header file for including Vulkan&#45;related dependencies.">
<polygon fill="white" stroke="#666666" points="355.5,-74 221.5,-74 221.5,-55 355.5,-55 355.5,-74"/>
<text text-anchor="middle" x="288.5" y="-62" font-family="Helvetica,sans-Serif" font-size="10.00">abcgVulkanExternal.hpp</text>
</a>
</g>
</g>
<!-- Node5&#45;&gt;Node6 -->
<g id="edge5_Node000005_Node000006" class="edge">
<title>Node5&#45;&gt;Node6</title>
<g id="a_edge5_Node000005_Node000006"><a xlink:title=" ">
<path fill="none" stroke="#63b8ff" d="M288.5,-109.75C288.5,-102.8 288.5,-92.85 288.5,-84.13"/>
<polygon fill="#63b8ff" stroke="#63b8ff" points="292,-84.09 288.5,-74.09 285,-84.09 292,-84.09"/>
</a>
</g>
</g>
<!-- Node7 -->
<g id="Node000007" class="node">
<title>Node7</title>
<g id="a_Node000007"><a xlink:title=" ">
<polygon fill="#e0e0e0" stroke="#999999" points="265,-19 218,-19 218,0 265,0 265,-19"/>
<text text-anchor="middle" x="241.5" y="-7" font-family="Helvetica,sans-Serif" font-size="10.00">volk.h</text>
</a>
</g>
</g>
<!-- Node6&#45;&gt;Node7 -->
<g id="edge6_Node000006_Node000007" class="edge">
<title>Node6&#45;&gt;Node7</title>
<g id="a_edge6_Node000006_Node000007"><a xlink:title=" ">
<path fill="none" stroke="#63b8ff" d="M280.74,-54.75C274.03,-47.18 264.16,-36.05 255.99,-26.84"/>
<polygon fill="#63b8ff" stroke="#63b8ff" points="258.37,-24.25 249.12,-19.09 253.13,-28.89 258.37,-24.25"/>
</a>
</g>
</g>
<!-- Node8 -->
<g id="Node000008" class="node">
<title>Node8</title>
<g id="a_Node000008"><a xlink:title=" ">
<polygon fill="#e0e0e0" stroke="#999999" points="388,-19 283,-19 283,0 388,0 388,-19"/>
<text text-anchor="middle" x="335.5" y="-7" font-family="Helvetica,sans-Serif" font-size="10.00">vulkan/vulkan.hpp</text>
</a>
</g>
</g>
<!-- Node6&#45;&gt;Node8 -->
<g id="edge7_Node000006_Node000008" class="edge">
<title>Node6&#45;&gt;Node8</title>
<g id="a_edge7_Node000006_Node000008"><a xlink:title=" ">
<path fill="none" stroke="#63b8ff" d="M296.26,-54.75C302.97,-47.18 312.84,-36.05 321.01,-26.84"/>
<polygon fill="#63b8ff" stroke="#63b8ff" points="323.87,-28.89 327.88,-19.09 318.63,-24.25 323.87,-28.89"/>
</a>
</g>
</g>
<!-- Node10&#45;&gt;Node2 -->
<g id="edge14_Node000010_Node000002" class="edge">
<title>Node10&#45;&gt;Node2</title>
<g id="a_edge14_Node000010_Node000002"><a xlink:title=" ">
<path fill="none" stroke="#63b8ff" d="M145.11,-329.93C122.88,-323.6 100.54,-312.69 86.5,-294 77.08,-281.45 77.2,-263.25 79.16,-249.55"/>
<polygon fill="#63b8ff" stroke="#63b8ff" points="82.68,-249.8 81.08,-239.32 75.8,-248.51 82.68,-249.8"/>
</a>
</g>
</g>
<!-- Node10&#45;&gt;Node9 -->
<g id="edge12_Node000010_Node000009" class="edge">
<title>Node10&#45;&gt;Node9</title>
<g id="a_edge12_Node000010_Node000009"><a xlink:title=" ">
<path fill="none" stroke="#63b8ff" d="M267.83,-329.98C288.75,-323.7 310.94,-312.83 323.5,-294 346.27,-259.87 309.62,-214.58 286.35,-191.1"/>
<polygon fill="#63b8ff" stroke="#63b8ff" points="288.69,-188.49 279.08,-184.02 283.8,-193.5 288.69,-188.49"/>
</a>
</g>
</g>
<!-- Node11 -->
<g id="Node000011" class="node">
<title>Node11</title>
<g id="a_Node000011"><a xlink:title=" ">
<polygon fill="#e0e0e0" stroke="#999999" points="315,-294 238,-294 238,-275 315,-275 315,-294"/>
<text text-anchor="middle" x="276.5" y="-282" font-family="Helvetica,sans-Serif" font-size="10.00">glm/fwd.hpp</text>
</a>
</g>
</g>
<!-- Node10&#45;&gt;Node11 -->
<g id="edge13_Node000010_Node000011" class="edge">
<title>Node10&#45;&gt;Node11</title>
<g id="a_edge13_Node000010_Node000011"><a xlink:title=" ">
<path fill="none" stroke="#63b8ff" d="M226.14,-329.98C235.01,-322.15 248.37,-310.34 259.11,-300.86"/>
<polygon fill="#63b8ff" stroke="#63b8ff" points="261.51,-303.41 266.68,-294.17 256.87,-298.17 261.51,-303.41"/>
</a>
</g>
</g>
<!-- Node12 -->
<g id="Node000012" class="node">
<title>Node12</title>
<g id="a_Node000012"><a xlink:href="abcgVulkanImage_8hpp.html" target="_top" xlink:title="Header file of abcg::VulkanImage.">
<polygon fill="white" stroke="#666666" points="219.5,-294 95.5,-294 95.5,-275 219.5,-275 219.5,-294"/>
<text text-anchor="middle" x="157.5" y="-282" font-family="Helvetica,sans-Serif" font-size="10.00">abcgVulkanImage.hpp</text>
</a>
</g>
</g>
<!-- Node10&#45;&gt;Node12 -->
<g id="edge15_Node000010_Node000012" class="edge">
<title>Node10&#45;&gt;Node12</title>
<g id="a_edge15_Node000010_Node000012"><a xlink:title=" ">
<path fill="none" stroke="#63b8ff" d="M207.02,-329.98C198.3,-322.15 185.16,-310.34 174.6,-300.86"/>
<polygon fill="#63b8ff" stroke="#63b8ff" points="176.93,-298.25 167.15,-294.17 172.25,-303.46 176.93,-298.25"/>
</a>
</g>
</g>
<!-- Node12&#45;&gt;Node2 -->
<g id="edge16_Node000012_Node000002" class="edge">
<title>Node12&#45;&gt;Node2</title>
<g id="a_edge16_Node000012_Node000002"><a xlink:title=" ">
<path fill="none" stroke="#63b8ff" d="M145.61,-274.98C134.35,-266.92 117.21,-254.65 103.79,-245.03"/>
<polygon fill="#63b8ff" stroke="#63b8ff" points="105.77,-242.15 95.61,-239.17 101.7,-247.84 105.77,-242.15"/>
</a>
</g>
</g>
<!-- Node13 -->
<g id="Node000013" class="node">
<title>Node13</title>
<g id="a_Node000013"><a xlink:title=" ">
<polygon fill="#e0e0e0" stroke="#999999" points="239.5,-239 165.5,-239 165.5,-220 239.5,-220 239.5,-239"/>
<text text-anchor="middle" x="202.5" y="-227" font-family="Helvetica,sans-Serif" font-size="10.00">gsl/pointers</text>
</a>
</g>
</g>
<!-- Node12&#45;&gt;Node13 -->
<g id="edge17_Node000012_Node000013" class="edge">
<title>Node12&#45;&gt;Node13</title>
<g id="a_edge17_Node000012_Node000013"><a xlink:title=" ">
<path fill="none" stroke="#63b8ff" d="M164.93,-274.75C171.35,-267.18 180.81,-256.05 188.62,-246.84"/>
<polygon fill="#63b8ff" stroke="#63b8ff" points="191.4,-248.98 195.21,-239.09 186.07,-244.45 191.4,-248.98"/>
</a>
</g>
</g>
<!-- Node15 -->
<g id="Node000015" class="node">
<title>Node15</title>
<g id="a_Node000015"><a xlink:title=" ">
<polygon fill="#e0e0e0" stroke="#999999" points="453.5,-294 409.5,-294 409.5,-275 453.5,-275 453.5,-294"/>
<text text-anchor="middle" x="431.5" y="-282" font-family="Helvetica,sans-Serif" font-size="10.00">string</text>
</a>
</g>
</g>
<!-- Node14&#45;&gt;Node15 -->
<g id="edge19_Node000014_Node000015" class="edge">
<title>Node14&#45;&gt;Node15</title>
<g id="a_edge19_Node000014_Node000015"><a xlink:title=" ">
<path fill="none" stroke="#63b8ff" d="M481.02,-329.98C472.3,-322.15 459.16,-310.34 448.6,-300.86"/>
<polygon fill="#63b8ff" stroke="#63b8ff" points="450.93,-298.25 441.15,-294.17 446.25,-303.46 450.93,-298.25"/>
</a>
</g>
</g>
<!-- Node16 -->
<g id="Node000016" class="node">
<title>Node16</title>
<g id="a_Node000016"><a xlink:href="abcgExternal_8hpp.html" target="_top" xlink:title="Header file for including third&#45;party dependencies.">
<polygon fill="white" stroke="#666666" points="573,-294 472,-294 472,-275 573,-275 573,-294"/>
<text text-anchor="middle" x="522.5" y="-282" font-family="Helvetica,sans-Serif" font-size="10.00">abcgExternal.hpp</text>
</a>
</g>
</g>
<!-- Node14&#45;&gt;Node16 -->
<g id="edge20_Node000014_Node000016" class="edge">
<title>Node14&#45;&gt;Node16</title>
<g id="a_edge20_Node000014_Node000016"><a xlink:title=" ">
<path fill="none" stroke="#63b8ff" d="M495.78,-329.75C500.21,-322.42 506.66,-311.73 512.12,-302.7"/>
<polygon fill="#63b8ff" stroke="#63b8ff" points="515.14,-304.46 517.31,-294.09 509.15,-300.84 515.14,-304.46"/>
</a>
</g>
</g>
<!-- Node17 -->
<g id="Node000017" class="node">
<title>Node17</title>
<g id="a_Node000017"><a xlink:href="abcgTimer_8hpp.html" target="_top" xlink:title="Header file of abcg::Timer.">
<polygon fill="white" stroke="#666666" points="680,-294 591,-294 591,-275 680,-275 680,-294"/>
<text text-anchor="middle" x="635.5" y="-282" font-family="Helvetica,sans-Serif" font-size="10.00">abcgTimer.hpp</text>
</a>
</g>
</g>
<!-- Node14&#45;&gt;Node17 -->
<g id="edge21_Node000014_Node000017" class="edge">
<title>Node14&#45;&gt;Node17</title>
<g id="a_edge21_Node000014_Node000017"><a xlink:title=" ">
<path fill="none" stroke="#63b8ff" d="M513.8,-329.98C537.75,-321.23 575.28,-307.51 602.33,-297.62"/>
<polygon fill="#63b8ff" stroke="#63b8ff" points="603.59,-300.89 611.78,-294.17 601.19,-294.32 603.59,-300.89"/>
</a>
</g>
</g>
<!-- Node18 -->
<g id="Node000018" class="node">
<title>Node18</title>
<g id="a_Node000018"><a xlink:title=" ">
<polygon fill="#e0e0e0" stroke="#999999" points="660.5,-239 610.5,-239 610.5,-220 660.5,-220 660.5,-239"/>
<text text-anchor="middle" x="635.5" y="-227" font-family="Helvetica,sans-Serif" font-size="10.00">chrono</text>
</a>
</g>
</g>
<!-- Node17&#45;&gt;Node18 -->
<g id="edge22_Node000017_Node000018" class="edge">
<title>Node17&#45;&gt;Node18</title>
<g id="a_edge22_Node000017_Node000018"><a xlink:title=" ">
<path fill="none" stroke="#63b8ff" d="M635.5,-274.75C635.5,-267.8 635.5,-257.85 635.5,-249.13"/>
<polygon fill="#63b8ff" stroke="#63b8ff" points="639,-249.09 635.5,-239.09 632,-249.09 639,-249.09"/>
</a>
</g>
</g>
</g>
</svg>
