<?xml version="1.0" encoding="UTF-8" standalone="no"?>
<!DOCTYPE svg PUBLIC "-//W3C//DTD SVG 1.1//EN"
 "http://www.w3.org/Graphics/SVG/1.1/DTD/svg11.dtd">
<!-- Generated by graphviz version 2.43.0 (0)
 -->
<!-- Title: /home/harlen/dev/abcg/abcg/abcgVulkanPipeline.hpp Pages: 1 -->
<svg width="459pt" height="423pt"
 viewBox="0.00 0.00 458.50 423.00" xmlns="http://www.w3.org/2000/svg" xmlns:xlink="http://www.w3.org/1999/xlink">
<g id="graph0" class="graph" transform="scale(1 1) rotate(0) translate(4 419)">
<title>/home/harlen/dev/abcg/abcg/abcgVulkanPipeline.hpp</title>
<!-- Node1 -->
<g id="Node000001" class="node">
<title>Node1</title>
<g id="a_Node000001"><a xlink:title="Header file of abcg::VulkanPipeline.">
<polygon fill="#999999" stroke="#666666" points="276.5,-415 115.5,-415 115.5,-385 276.5,-385 276.5,-415"/>
<text text-anchor="start" x="123.5" y="-403" font-family="Helvetica,sans-Serif" font-size="10.00">/home/harlen/dev/abcg</text>
<text text-anchor="middle" x="196" y="-392" font-family="Helvetica,sans-Serif" font-size="10.00">/abcg/abcgVulkanPipeline.hpp</text>
</a>
</g>
</g>
<!-- Node2 -->
<g id="Node000002" class="node">
<title>Node2</title>
<g id="a_Node000002"><a xlink:href="abcgVulkanShader_8hpp.html" target="_top" xlink:title="Declaration of helper functions for creating Vulkan shaders.">
<polygon fill="white" stroke="#666666" points="182,-349 56,-349 56,-330 182,-330 182,-349"/>
<text text-anchor="middle" x="119" y="-337" font-family="Helvetica,sans-Serif" font-size="10.00">abcgVulkanShader.hpp</text>
</a>
</g>
</g>
<!-- Node1&#45;&gt;Node2 -->
<g id="edge1_Node000001_Node000002" class="edge">
<title>Node1&#45;&gt;Node2</title>
<g id="a_edge1_Node000001_Node000002"><a xlink:title=" ">
<path fill="none" stroke="#63b8ff" d="M177.36,-384.84C165.61,-375.91 150.47,-364.41 138.55,-355.35"/>
<polygon fill="#63b8ff" stroke="#63b8ff" points="140.62,-352.53 130.54,-349.27 136.38,-358.1 140.62,-352.53"/>
</a>
</g>
</g>
<!-- Node14 -->
<g id="Node000014" class="node">
<title>Node14</title>
<g id="a_Node000014"><a xlink:href="abcgVulkanSwapchain_8hpp.html" target="_top" xlink:title="Header file of abcg::VulkanSwapchain.">
<polygon fill="white" stroke="#666666" points="346,-349 200,-349 200,-330 346,-330 346,-349"/>
<text text-anchor="middle" x="273" y="-337" font-family="Helvetica,sans-Serif" font-size="10.00">abcgVulkanSwapchain.hpp</text>
</a>
</g>
</g>
<!-- Node1&#45;&gt;Node14 -->
<g id="edge13_Node000001_Node000014" class="edge">
<title>Node1&#45;&gt;Node14</title>
<g id="a_edge13_Node000001_Node000014"><a xlink:title=" ">
<path fill="none" stroke="#63b8ff" d="M214.64,-384.84C226.39,-375.91 241.53,-364.41 253.45,-355.35"/>
<polygon fill="#63b8ff" stroke="#63b8ff" points="255.62,-358.1 261.46,-349.27 251.38,-352.53 255.62,-358.1"/>
</a>
</g>
</g>
<!-- Node3 -->
<g id="Node000003" class="node">
<title>Node3</title>
<g id="a_Node000003"><a xlink:href="abcgShader_8hpp.html" target="_top" xlink:title="Declaration of a structure for building shaders.">
<polygon fill="white" stroke="#666666" points="101,-294 7,-294 7,-275 101,-275 101,-294"/>
<text text-anchor="middle" x="54" y="-282" font-family="Helvetica,sans-Serif" font-size="10.00">abcgShader.hpp</text>
</a>
</g>
</g>
<!-- Node2&#45;&gt;Node3 -->
<g id="edge2_Node000002_Node000003" class="edge">
<title>Node2&#45;&gt;Node3</title>
<g id="a_edge2_Node000002_Node000003"><a xlink:title=" ">
<path fill="none" stroke="#63b8ff" d="M108.56,-329.98C98.85,-322.07 84.18,-310.11 72.5,-300.58"/>
<polygon fill="#63b8ff" stroke="#63b8ff" points="74.6,-297.78 64.63,-294.17 70.17,-303.2 74.6,-297.78"/>
</a>
</g>
</g>
<!-- Node6 -->
<g id="Node000006" class="node">
<title>Node6</title>
<g id="a_Node000006"><a xlink:href="abcgVulkanDevice_8hpp.html" target="_top" xlink:title="Header file of abcg::VulkanDevice.">
<polygon fill="white" stroke="#666666" points="322.5,-239 195.5,-239 195.5,-220 322.5,-220 322.5,-239"/>
<text text-anchor="middle" x="259" y="-227" font-family="Helvetica,sans-Serif" font-size="10.00">abcgVulkanDevice.hpp</text>
</a>
</g>
</g>
<!-- Node2&#45;&gt;Node6 -->
<g id="edge5_Node000002_Node000006" class="edge">
<title>Node2&#45;&gt;Node6</title>
<g id="a_edge5_Node000002_Node000006"><a xlink:title=" ">
<path fill="none" stroke="#63b8ff" d="M120.76,-329.91C123.94,-316.46 131.86,-290.39 148,-275 164.54,-259.23 187.37,-248.79 208.03,-242.02"/>
<polygon fill="#63b8ff" stroke="#63b8ff" points="209.12,-245.35 217.65,-239.07 207.07,-238.65 209.12,-245.35"/>
</a>
</g>
</g>
<!-- Node4 -->
<g id="Node000004" class="node">
<title>Node4</title>
<g id="a_Node000004"><a xlink:title=" ">
<polygon fill="#e0e0e0" stroke="#999999" points="112,-239 62,-239 62,-220 112,-220 112,-239"/>
<text text-anchor="middle" x="87" y="-227" font-family="Helvetica,sans-Serif" font-size="10.00">cstdint</text>
</a>
</g>
</g>
<!-- Node3&#45;&gt;Node4 -->
<g id="edge3_Node000003_Node000004" class="edge">
<title>Node3&#45;&gt;Node4</title>
<g id="a_edge3_Node000003_Node000004"><a xlink:title=" ">
<path fill="none" stroke="#63b8ff" d="M59.45,-274.75C64.01,-267.42 70.67,-256.73 76.29,-247.7"/>
<polygon fill="#63b8ff" stroke="#63b8ff" points="79.34,-249.43 81.65,-239.09 73.4,-245.73 79.34,-249.43"/>
</a>
</g>
</g>
<!-- Node5 -->
<g id="Node000005" class="node">
<title>Node5</title>
<g id="a_Node000005"><a xlink:title=" ">
<polygon fill="#e0e0e0" stroke="#999999" points="44,-239 0,-239 0,-220 44,-220 44,-239"/>
<text text-anchor="middle" x="22" y="-227" font-family="Helvetica,sans-Serif" font-size="10.00">string</text>
</a>
</g>
</g>
<!-- Node3&#45;&gt;Node5 -->
<g id="edge4_Node000003_Node000005" class="edge">
<title>Node3&#45;&gt;Node5</title>
<g id="a_edge4_Node000003_Node000005"><a xlink:title=" ">
<path fill="none" stroke="#63b8ff" d="M48.72,-274.75C44.29,-267.42 37.84,-256.73 32.38,-247.7"/>
<polygon fill="#63b8ff" stroke="#63b8ff" points="35.35,-245.84 27.19,-239.09 29.36,-249.46 35.35,-245.84"/>
</a>
</g>
</g>
<!-- Node7 -->
<g id="Node000007" class="node">
<title>Node7</title>
<g id="a_Node000007"><a xlink:href="abcgVulkanPhysicalDevice_8hpp.html" target="_top" xlink:title="Header file of abcg::VulkanPhysicalDevice.">
<polygon fill="white" stroke="#666666" points="342.5,-184 175.5,-184 175.5,-165 342.5,-165 342.5,-184"/>
<text text-anchor="middle" x="259" y="-172" font-family="Helvetica,sans-Serif" font-size="10.00">abcgVulkanPhysicalDevice.hpp</text>
</a>
</g>
</g>
<!-- Node6&#45;&gt;Node7 -->
<g id="edge6_Node000006_Node000007" class="edge">
<title>Node6&#45;&gt;Node7</title>
<g id="a_edge6_Node000006_Node000007"><a xlink:title=" ">
<path fill="none" stroke="#63b8ff" d="M259,-219.75C259,-212.8 259,-202.85 259,-194.13"/>
<polygon fill="#63b8ff" stroke="#63b8ff" points="262.5,-194.09 259,-184.09 255.5,-194.09 262.5,-194.09"/>
</a>
</g>
</g>
<!-- Node13 -->
<g id="Node000013" class="node">
<title>Node13</title>
<g id="a_Node000013"><a xlink:title=" ">
<polygon fill="#e0e0e0" stroke="#999999" points="450.5,-184 385.5,-184 385.5,-165 450.5,-165 450.5,-184"/>
<text text-anchor="middle" x="418" y="-172" font-family="Helvetica,sans-Serif" font-size="10.00">functional</text>
</a>
</g>
</g>
<!-- Node6&#45;&gt;Node13 -->
<g id="edge12_Node000006_Node000013" class="edge">
<title>Node6&#45;&gt;Node13</title>
<g id="a_edge12_Node000006_Node000013"><a xlink:title=" ">
<path fill="none" stroke="#63b8ff" d="M284.55,-219.98C311.12,-211.13 352.94,-197.19 382.67,-187.28"/>
<polygon fill="#63b8ff" stroke="#63b8ff" points="383.87,-190.56 392.25,-184.08 381.66,-183.92 383.87,-190.56"/>
</a>
</g>
</g>
<!-- Node8 -->
<g id="Node000008" class="node">
<title>Node8</title>
<g id="a_Node000008"><a xlink:title=" ">
<polygon fill="#e0e0e0" stroke="#999999" points="231,-129 175,-129 175,-110 231,-110 231,-129"/>
<text text-anchor="middle" x="203" y="-117" font-family="Helvetica,sans-Serif" font-size="10.00">optional</text>
</a>
</g>
</g>
<!-- Node7&#45;&gt;Node8 -->
<g id="edge7_Node000007_Node000008" class="edge">
<title>Node7&#45;&gt;Node8</title>
<g id="a_edge7_Node000007_Node000008"><a xlink:title=" ">
<path fill="none" stroke="#63b8ff" d="M250,-164.98C241.81,-157.23 229.49,-145.58 219.53,-136.14"/>
<polygon fill="#63b8ff" stroke="#63b8ff" points="221.83,-133.5 212.16,-129.17 217.02,-138.59 221.83,-133.5"/>
</a>
</g>
</g>
<!-- Node9 -->
<g id="Node000009" class="node">
<title>Node9</title>
<g id="a_Node000009"><a xlink:href="abcgVulkanInstance_8hpp.html" target="_top" xlink:title="Header file of abcg::VulkanInstance.">
<polygon fill="white" stroke="#666666" points="383,-129 249,-129 249,-110 383,-110 383,-129"/>
<text text-anchor="middle" x="316" y="-117" font-family="Helvetica,sans-Serif" font-size="10.00">abcgVulkanInstance.hpp</text>
</a>
</g>
</g>
<!-- Node7&#45;&gt;Node9 -->
<g id="edge8_Node000007_Node000009" class="edge">
<title>Node7&#45;&gt;Node9</title>
<g id="a_edge8_Node000007_Node000009"><a xlink:title=" ">
<path fill="none" stroke="#63b8ff" d="M268.16,-164.98C276.5,-157.23 289.03,-145.58 299.18,-136.14"/>
<polygon fill="#63b8ff" stroke="#63b8ff" points="301.74,-138.54 306.68,-129.17 296.97,-133.42 301.74,-138.54"/>
</a>
</g>
</g>
<!-- Node10 -->
<g id="Node000010" class="node">
<title>Node10</title>
<g id="a_Node000010"><a xlink:href="abcgVulkanExternal_8hpp.html" target="_top" xlink:title="Header file for including Vulkan&#45;related dependencies.">
<polygon fill="white" stroke="#666666" points="383,-74 249,-74 249,-55 383,-55 383,-74"/>
<text text-anchor="middle" x="316" y="-62" font-family="Helvetica,sans-Serif" font-size="10.00">abcgVulkanExternal.hpp</text>
</a>
</g>
</g>
<!-- Node9&#45;&gt;Node10 -->
<g id="edge9_Node000009_Node000010" class="edge">
<title>Node9&#45;&gt;Node10</title>
<g id="a_edge9_Node000009_Node000010"><a xlink:title=" ">
<path fill="none" stroke="#63b8ff" d="M316,-109.75C316,-102.8 316,-92.85 316,-84.13"/>
<polygon fill="#63b8ff" stroke="#63b8ff" points="319.5,-84.09 316,-74.09 312.5,-84.09 319.5,-84.09"/>
</a>
</g>
</g>
<!-- Node11 -->
<g id="Node000011" class="node">
<title>Node11</title>
<g id="a_Node000011"><a xlink:title=" ">
<polygon fill="#e0e0e0" stroke="#999999" points="292.5,-19 245.5,-19 245.5,0 292.5,0 292.5,-19"/>
<text text-anchor="middle" x="269" y="-7" font-family="Helvetica,sans-Serif" font-size="10.00">volk.h</text>
</a>
</g>
</g>
<!-- Node10&#45;&gt;Node11 -->
<g id="edge10_Node000010_Node000011" class="edge">
<title>Node10&#45;&gt;Node11</title>
<g id="a_edge10_Node000010_Node000011"><a xlink:title=" ">
<path fill="none" stroke="#63b8ff" d="M308.24,-54.75C301.53,-47.18 291.66,-36.05 283.49,-26.84"/>
<polygon fill="#63b8ff" stroke="#63b8ff" points="285.87,-24.25 276.62,-19.09 280.63,-28.89 285.87,-24.25"/>
</a>
</g>
</g>
<!-- Node12 -->
<g id="Node000012" class="node">
<title>Node12</title>
<g id="a_Node000012"><a xlink:title=" ">
<polygon fill="#e0e0e0" stroke="#999999" points="415.5,-19 310.5,-19 310.5,0 415.5,0 415.5,-19"/>
<text text-anchor="middle" x="363" y="-7" font-family="Helvetica,sans-Serif" font-size="10.00">vulkan/vulkan.hpp</text>
</a>
</g>
</g>
<!-- Node10&#45;&gt;Node12 -->
<g id="edge11_Node000010_Node000012" class="edge">
<title>Node10&#45;&gt;Node12</title>
<g id="a_edge11_Node000010_Node000012"><a xlink:title=" ">
<path fill="none" stroke="#63b8ff" d="M323.76,-54.75C330.47,-47.18 340.34,-36.05 348.51,-26.84"/>
<polygon fill="#63b8ff" stroke="#63b8ff" points="351.37,-28.89 355.38,-19.09 346.13,-24.25 351.37,-28.89"/>
</a>
</g>
</g>
<!-- Node14&#45;&gt;Node6 -->
<g id="edge16_Node000014_Node000006" class="edge">
<title>Node14&#45;&gt;Node6</title>
<g id="a_edge16_Node000014_Node000006"><a xlink:title=" ">
<path fill="none" stroke="#63b8ff" d="M271.85,-329.66C269.59,-312.17 264.48,-272.8 261.43,-249.27"/>
<polygon fill="#63b8ff" stroke="#63b8ff" points="264.88,-248.63 260.12,-239.16 257.94,-249.53 264.88,-248.63"/>
</a>
</g>
</g>
<!-- Node14&#45;&gt;Node13 -->
<g id="edge14_Node000014_Node000013" class="edge">
<title>Node14&#45;&gt;Node13</title>
<g id="a_edge14_Node000014_Node000013"><a xlink:title=" ">
<path fill="none" stroke="#63b8ff" d="M346.36,-335.15C375.31,-329.78 405.91,-318.18 424,-294 446.02,-264.55 434.42,-218.56 425.37,-193.41"/>
<polygon fill="#63b8ff" stroke="#63b8ff" points="428.61,-192.09 421.76,-184.02 422.08,-194.61 428.61,-192.09"/>
</a>
</g>
</g>
<!-- Node15 -->
<g id="Node000015" class="node">
<title>Node15</title>
<g id="a_Node000015"><a xlink:title=" ">
<polygon fill="#e0e0e0" stroke="#999999" points="234.5,-294 157.5,-294 157.5,-275 234.5,-275 234.5,-294"/>
<text text-anchor="middle" x="196" y="-282" font-family="Helvetica,sans-Serif" font-size="10.00">glm/fwd.hpp</text>
</a>
</g>
</g>
<!-- Node14&#45;&gt;Node15 -->
<g id="edge15_Node000014_Node000015" class="edge">
<title>Node14&#45;&gt;Node15</title>
<g id="a_edge15_Node000014_Node000015"><a xlink:title=" ">
<path fill="none" stroke="#63b8ff" d="M260.63,-329.98C248.91,-321.92 231.08,-309.65 217.11,-300.03"/>
<polygon fill="#63b8ff" stroke="#63b8ff" points="218.82,-296.96 208.6,-294.17 214.85,-302.72 218.82,-296.96"/>
</a>
</g>
</g>
<!-- Node16 -->
<g id="Node000016" class="node">
<title>Node16</title>
<g id="a_Node000016"><a xlink:href="abcgVulkanImage_8hpp.html" target="_top" xlink:title="Header file of abcg::VulkanImage.">
<polygon fill="white" stroke="#666666" points="415,-294 291,-294 291,-275 415,-275 415,-294"/>
<text text-anchor="middle" x="353" y="-282" font-family="Helvetica,sans-Serif" font-size="10.00">abcgVulkanImage.hpp</text>
</a>
</g>
</g>
<!-- Node14&#45;&gt;Node16 -->
<g id="edge17_Node000014_Node000016" class="edge">
<title>Node14&#45;&gt;Node16</title>
<g id="a_edge17_Node000014_Node000016"><a xlink:title=" ">
<path fill="none" stroke="#63b8ff" d="M285.85,-329.98C298.14,-321.84 316.91,-309.41 331.48,-299.76"/>
<polygon fill="#63b8ff" stroke="#63b8ff" points="333.51,-302.61 339.91,-294.17 329.64,-296.78 333.51,-302.61"/>
</a>
</g>
</g>
<!-- Node16&#45;&gt;Node6 -->
<g id="edge18_Node000016_Node000006" class="edge">
<title>Node16&#45;&gt;Node6</title>
<g id="a_edge18_Node000016_Node000006"><a xlink:title=" ">
<path fill="none" stroke="#63b8ff" d="M337.9,-274.98C323.18,-266.69 300.58,-253.94 283.33,-244.22"/>
<polygon fill="#63b8ff" stroke="#63b8ff" points="284.81,-241.03 274.38,-239.17 281.37,-247.13 284.81,-241.03"/>
</a>
</g>
</g>
<!-- Node17 -->
<g id="Node000017" class="node">
<title>Node17</title>
<g id="a_Node000017"><a xlink:title=" ">
<polygon fill="#e0e0e0" stroke="#999999" points="415,-239 341,-239 341,-220 415,-220 415,-239"/>
<text text-anchor="middle" x="378" y="-227" font-family="Helvetica,sans-Serif" font-size="10.00">gsl/pointers</text>
</a>
</g>
</g>
<!-- Node16&#45;&gt;Node17 -->
<g id="edge19_Node000016_Node000017" class="edge">
<title>Node16&#45;&gt;Node17</title>
<g id="a_edge19_Node000016_Node000017"><a xlink:title=" ">
<path fill="none" stroke="#63b8ff" d="M357.13,-274.75C360.51,-267.57 365.42,-257.18 369.62,-248.27"/>
<polygon fill="#63b8ff" stroke="#63b8ff" points="372.85,-249.63 373.95,-239.09 366.52,-246.64 372.85,-249.63"/>
</a>
</g>
</g>
</g>
</svg>
