<?xml version="1.0" encoding="UTF-8" standalone="no"?>
<!DOCTYPE svg PUBLIC "-//W3C//DTD SVG 1.1//EN"
 "http://www.w3.org/Graphics/SVG/1.1/DTD/svg11.dtd">
<!-- Generated by graphviz version 2.43.0 (0)
 -->
<!-- Title: /home/harlen/dev/abcg/abcg/abcgVulkanImage.cpp Pages: 1 -->
<svg width="869pt" height="375pt"
 viewBox="0.00 0.00 869.00 375.00" xmlns="http://www.w3.org/2000/svg" xmlns:xlink="http://www.w3.org/1999/xlink">
<g id="graph0" class="graph" transform="scale(1 1) rotate(0) translate(4 371)">
<title>/home/harlen/dev/abcg/abcg/abcgVulkanImage.cpp</title>
<!-- Node1 -->
<g id="node1" class="node">
<title>Node1</title>
<g id="a_node1"><a xlink:title="Definition of abcg::VulkanImage.">
<polygon fill="#bfbfbf" stroke="black" points="396,-336.5 396,-366.5 548,-366.5 548,-336.5 396,-336.5"/>
<text text-anchor="start" x="404" y="-354.5" font-family="Helvetica,sans-Serif" font-size="10.00">/home/harlen/dev/abcg</text>
<text text-anchor="middle" x="472" y="-343.5" font-family="Helvetica,sans-Serif" font-size="10.00">/abcg/abcgVulkanImage.cpp</text>
</a>
</g>
</g>
<!-- Node2 -->
<g id="node2" class="node">
<title>Node2</title>
<g id="a_node2"><a xlink:href="abcgVulkanImage_8hpp.html" target="_top" xlink:title="Header file of abcg::VulkanImage.">
<polygon fill="none" stroke="black" points="162,-280.5 162,-299.5 286,-299.5 286,-280.5 162,-280.5"/>
<text text-anchor="middle" x="224" y="-287.5" font-family="Helvetica,sans-Serif" font-size="10.00">abcgVulkanImage.hpp</text>
</a>
</g>
</g>
<!-- Node1&#45;&gt;Node2 -->
<g id="edge1" class="edge">
<title>Node1&#45;&gt;Node2</title>
<path fill="none" stroke="midnightblue" d="M413.54,-336.47C369.45,-325.9 309.84,-311.59 269.32,-301.87"/>
<polygon fill="midnightblue" stroke="midnightblue" points="270,-298.44 259.46,-299.51 268.36,-305.24 270,-298.44"/>
</g>
<!-- Node11 -->
<g id="node11" class="node">
<title>Node11</title>
<g id="a_node11"><a xlink:href="abcgVulkanBuffer_8hpp.html" target="_top" xlink:title="Header file of abcg::VulkanBuffer.">
<polygon fill="none" stroke="black" points="22,-280.5 22,-299.5 144,-299.5 144,-280.5 22,-280.5"/>
<text text-anchor="middle" x="83" y="-287.5" font-family="Helvetica,sans-Serif" font-size="10.00">abcgVulkanBuffer.hpp</text>
</a>
</g>
</g>
<!-- Node1&#45;&gt;Node11 -->
<g id="edge12" class="edge">
<title>Node1&#45;&gt;Node11</title>
<path fill="none" stroke="midnightblue" d="M395.61,-338.82C323.74,-327.82 217.24,-311.53 148.97,-301.09"/>
<polygon fill="midnightblue" stroke="midnightblue" points="149.19,-297.58 138.77,-299.53 148.13,-304.5 149.19,-297.58"/>
</g>
<!-- Node12 -->
<g id="node12" class="node">
<title>Node12</title>
<g id="a_node12"><a xlink:title=" ">
<polygon fill="none" stroke="#bfbfbf" points="304,-280.5 304,-299.5 384,-299.5 384,-280.5 304,-280.5"/>
<text text-anchor="middle" x="344" y="-287.5" font-family="Helvetica,sans-Serif" font-size="10.00">SDL_image.h</text>
</a>
</g>
</g>
<!-- Node1&#45;&gt;Node12 -->
<g id="edge15" class="edge">
<title>Node1&#45;&gt;Node12</title>
<path fill="none" stroke="midnightblue" d="M441.67,-336.4C420.48,-326.55 392.41,-313.5 371.8,-303.92"/>
<polygon fill="midnightblue" stroke="midnightblue" points="373.17,-300.7 362.63,-299.66 370.22,-307.05 373.17,-300.7"/>
</g>
<!-- Node13 -->
<g id="node13" class="node">
<title>Node13</title>
<g id="a_node13"><a xlink:title=" ">
<polygon fill="none" stroke="#bfbfbf" points="402.5,-280.5 402.5,-299.5 541.5,-299.5 541.5,-280.5 402.5,-280.5"/>
<text text-anchor="middle" x="472" y="-287.5" font-family="Helvetica,sans-Serif" font-size="10.00">cppitertools/itertools.hpp</text>
</a>
</g>
</g>
<!-- Node1&#45;&gt;Node13 -->
<g id="edge16" class="edge">
<title>Node1&#45;&gt;Node13</title>
<path fill="none" stroke="midnightblue" d="M472,-336.4C472,-328.47 472,-318.46 472,-309.86"/>
<polygon fill="midnightblue" stroke="midnightblue" points="475.5,-309.66 472,-299.66 468.5,-309.66 475.5,-309.66"/>
</g>
<!-- Node14 -->
<g id="node14" class="node">
<title>Node14</title>
<g id="a_node14"><a xlink:title=" ">
<polygon fill="none" stroke="#bfbfbf" points="559.5,-280.5 559.5,-299.5 626.5,-299.5 626.5,-280.5 559.5,-280.5"/>
<text text-anchor="middle" x="593" y="-287.5" font-family="Helvetica,sans-Serif" font-size="10.00">fmt/core.h</text>
</a>
</g>
</g>
<!-- Node1&#45;&gt;Node14 -->
<g id="edge17" class="edge">
<title>Node1&#45;&gt;Node14</title>
<path fill="none" stroke="midnightblue" d="M500.68,-336.4C520.52,-326.64 546.76,-313.74 566.19,-304.18"/>
<polygon fill="midnightblue" stroke="midnightblue" points="567.96,-307.21 575.39,-299.66 564.88,-300.93 567.96,-307.21"/>
</g>
<!-- Node15 -->
<g id="node15" class="node">
<title>Node15</title>
<g id="a_node15"><a xlink:title=" ">
<polygon fill="none" stroke="#bfbfbf" points="645,-280.5 645,-299.5 693,-299.5 693,-280.5 645,-280.5"/>
<text text-anchor="middle" x="669" y="-287.5" font-family="Helvetica,sans-Serif" font-size="10.00">gsl/gsl</text>
</a>
</g>
</g>
<!-- Node1&#45;&gt;Node15 -->
<g id="edge18" class="edge">
<title>Node1&#45;&gt;Node15</title>
<path fill="none" stroke="midnightblue" d="M518.69,-336.4C554.42,-325.61 602.86,-310.98 634.98,-301.27"/>
<polygon fill="midnightblue" stroke="midnightblue" points="636.24,-304.55 644.8,-298.31 634.22,-297.85 636.24,-304.55"/>
</g>
<!-- Node16 -->
<g id="node16" class="node">
<title>Node16</title>
<g id="a_node16"><a xlink:href="abcgException_8hpp.html" target="_top" xlink:title="Header file of abcg::Exception and derived classes.">
<polygon fill="none" stroke="black" points="711.5,-280.5 711.5,-299.5 820.5,-299.5 820.5,-280.5 711.5,-280.5"/>
<text text-anchor="middle" x="766" y="-287.5" font-family="Helvetica,sans-Serif" font-size="10.00">abcgException.hpp</text>
</a>
</g>
</g>
<!-- Node1&#45;&gt;Node16 -->
<g id="edge19" class="edge">
<title>Node1&#45;&gt;Node16</title>
<path fill="none" stroke="midnightblue" d="M541.3,-336.47C594.24,-325.76 666.04,-311.23 714.09,-301.51"/>
<polygon fill="midnightblue" stroke="midnightblue" points="714.86,-304.92 723.97,-299.51 713.47,-298.06 714.86,-304.92"/>
</g>
<!-- Node3 -->
<g id="node3" class="node">
<title>Node3</title>
<g id="a_node3"><a xlink:href="abcgVulkanDevice_8hpp.html" target="_top" xlink:title="Header file of abcg::VulkanDevice.">
<polygon fill="none" stroke="black" points="149.5,-224.5 149.5,-243.5 276.5,-243.5 276.5,-224.5 149.5,-224.5"/>
<text text-anchor="middle" x="213" y="-231.5" font-family="Helvetica,sans-Serif" font-size="10.00">abcgVulkanDevice.hpp</text>
</a>
</g>
</g>
<!-- Node2&#45;&gt;Node3 -->
<g id="edge2" class="edge">
<title>Node2&#45;&gt;Node3</title>
<path fill="none" stroke="midnightblue" d="M222.18,-280.08C220.73,-272.93 218.63,-262.64 216.81,-253.69"/>
<polygon fill="midnightblue" stroke="midnightblue" points="220.21,-252.85 214.78,-243.75 213.35,-254.25 220.21,-252.85"/>
</g>
<!-- Node10 -->
<g id="node10" class="node">
<title>Node10</title>
<g id="a_node10"><a xlink:title=" ">
<polygon fill="none" stroke="#bfbfbf" points="52,-224.5 52,-243.5 126,-243.5 126,-224.5 52,-224.5"/>
<text text-anchor="middle" x="89" y="-231.5" font-family="Helvetica,sans-Serif" font-size="10.00">gsl/pointers</text>
</a>
</g>
</g>
<!-- Node2&#45;&gt;Node10 -->
<g id="edge11" class="edge">
<title>Node2&#45;&gt;Node10</title>
<path fill="none" stroke="midnightblue" d="M202.61,-280.44C180.29,-271.52 145.1,-257.44 119.79,-247.32"/>
<polygon fill="midnightblue" stroke="midnightblue" points="120.88,-243.98 110.29,-243.52 118.28,-250.48 120.88,-243.98"/>
</g>
<!-- Node4 -->
<g id="node4" class="node">
<title>Node4</title>
<g id="a_node4"><a xlink:href="abcgVulkanExternal_8hpp.html" target="_top" xlink:title="Header file for including Vulkan&#45;related dependencies.">
<polygon fill="none" stroke="black" points="169,-56.5 169,-75.5 303,-75.5 303,-56.5 169,-56.5"/>
<text text-anchor="middle" x="236" y="-63.5" font-family="Helvetica,sans-Serif" font-size="10.00">abcgVulkanExternal.hpp</text>
</a>
</g>
</g>
<!-- Node3&#45;&gt;Node4 -->
<g id="edge3" class="edge">
<title>Node3&#45;&gt;Node4</title>
<path fill="none" stroke="midnightblue" d="M221.48,-224.23C229.05,-215.75 239.6,-202.13 244,-188 254.85,-153.12 247.32,-109.93 241.34,-85.73"/>
<polygon fill="midnightblue" stroke="midnightblue" points="244.64,-84.53 238.69,-75.76 237.87,-86.32 244.64,-84.53"/>
</g>
<!-- Node7 -->
<g id="node7" class="node">
<title>Node7</title>
<g id="a_node7"><a xlink:href="abcgVulkanPhysicalDevice_8hpp.html" target="_top" xlink:title="Header file of abcg::VulkanPhysicalDevice.">
<polygon fill="none" stroke="black" points="68.5,-168.5 68.5,-187.5 235.5,-187.5 235.5,-168.5 68.5,-168.5"/>
<text text-anchor="middle" x="152" y="-175.5" font-family="Helvetica,sans-Serif" font-size="10.00">abcgVulkanPhysicalDevice.hpp</text>
</a>
</g>
</g>
<!-- Node3&#45;&gt;Node7 -->
<g id="edge6" class="edge">
<title>Node3&#45;&gt;Node7</title>
<path fill="none" stroke="midnightblue" d="M203.2,-224.32C194.18,-216.34 180.59,-204.31 169.68,-194.65"/>
<polygon fill="midnightblue" stroke="midnightblue" points="171.79,-191.84 161.98,-187.83 167.15,-197.08 171.79,-191.84"/>
</g>
<!-- Node5 -->
<g id="node5" class="node">
<title>Node5</title>
<g id="a_node5"><a xlink:title=" ">
<polygon fill="none" stroke="#bfbfbf" points="165.5,-0.5 165.5,-19.5 212.5,-19.5 212.5,-0.5 165.5,-0.5"/>
<text text-anchor="middle" x="189" y="-7.5" font-family="Helvetica,sans-Serif" font-size="10.00">volk.h</text>
</a>
</g>
</g>
<!-- Node4&#45;&gt;Node5 -->
<g id="edge4" class="edge">
<title>Node4&#45;&gt;Node5</title>
<path fill="none" stroke="midnightblue" d="M228.24,-56.08C221.46,-48.3 211.46,-36.8 203.24,-27.37"/>
<polygon fill="midnightblue" stroke="midnightblue" points="205.82,-25 196.62,-19.75 200.54,-29.59 205.82,-25"/>
</g>
<!-- Node6 -->
<g id="node6" class="node">
<title>Node6</title>
<g id="a_node6"><a xlink:title=" ">
<polygon fill="none" stroke="#bfbfbf" points="230.5,-0.5 230.5,-19.5 335.5,-19.5 335.5,-0.5 230.5,-0.5"/>
<text text-anchor="middle" x="283" y="-7.5" font-family="Helvetica,sans-Serif" font-size="10.00">vulkan/vulkan.hpp</text>
</a>
</g>
</g>
<!-- Node4&#45;&gt;Node6 -->
<g id="edge5" class="edge">
<title>Node4&#45;&gt;Node6</title>
<path fill="none" stroke="midnightblue" d="M243.76,-56.08C250.54,-48.3 260.54,-36.8 268.76,-27.37"/>
<polygon fill="midnightblue" stroke="midnightblue" points="271.46,-29.59 275.38,-19.75 266.18,-25 271.46,-29.59"/>
</g>
<!-- Node7&#45;&gt;Node4 -->
<g id="edge8" class="edge">
<title>Node7&#45;&gt;Node4</title>
<path fill="none" stroke="midnightblue" d="M170.9,-168.37C185.52,-160.77 205.2,-148.36 217,-132 226.78,-118.44 231.56,-99.89 233.87,-86.08"/>
<polygon fill="midnightblue" stroke="midnightblue" points="237.39,-86.19 235.29,-75.8 230.46,-85.23 237.39,-86.19"/>
</g>
<!-- Node8 -->
<g id="node8" class="node">
<title>Node8</title>
<g id="a_node8"><a xlink:title=" ">
<polygon fill="none" stroke="#bfbfbf" points="0,-112.5 0,-131.5 56,-131.5 56,-112.5 0,-112.5"/>
<text text-anchor="middle" x="28" y="-119.5" font-family="Helvetica,sans-Serif" font-size="10.00">optional</text>
</a>
</g>
</g>
<!-- Node7&#45;&gt;Node8 -->
<g id="edge7" class="edge">
<title>Node7&#45;&gt;Node8</title>
<path fill="none" stroke="midnightblue" d="M132.35,-168.44C112.04,-159.6 80.1,-145.69 56.9,-135.59"/>
<polygon fill="midnightblue" stroke="midnightblue" points="58.12,-132.3 47.56,-131.52 55.33,-138.72 58.12,-132.3"/>
</g>
<!-- Node9 -->
<g id="node9" class="node">
<title>Node9</title>
<g id="a_node9"><a xlink:href="abcgVulkanInstance_8hpp.html" target="_top" xlink:title="Header file of abcg::VulkanInstance.">
<polygon fill="none" stroke="black" points="74,-112.5 74,-131.5 208,-131.5 208,-112.5 74,-112.5"/>
<text text-anchor="middle" x="141" y="-119.5" font-family="Helvetica,sans-Serif" font-size="10.00">abcgVulkanInstance.hpp</text>
</a>
</g>
</g>
<!-- Node7&#45;&gt;Node9 -->
<g id="edge9" class="edge">
<title>Node7&#45;&gt;Node9</title>
<path fill="none" stroke="midnightblue" d="M150.18,-168.08C148.73,-160.93 146.63,-150.64 144.81,-141.69"/>
<polygon fill="midnightblue" stroke="midnightblue" points="148.21,-140.85 142.78,-131.75 141.35,-142.25 148.21,-140.85"/>
</g>
<!-- Node9&#45;&gt;Node4 -->
<g id="edge10" class="edge">
<title>Node9&#45;&gt;Node4</title>
<path fill="none" stroke="midnightblue" d="M156.26,-112.32C171.22,-103.82 194.25,-90.73 211.73,-80.8"/>
<polygon fill="midnightblue" stroke="midnightblue" points="213.81,-83.64 220.77,-75.65 210.35,-77.55 213.81,-83.64"/>
</g>
<!-- Node11&#45;&gt;Node3 -->
<g id="edge13" class="edge">
<title>Node11&#45;&gt;Node3</title>
<path fill="none" stroke="midnightblue" d="M103.6,-280.44C124.99,-271.56 158.68,-257.56 183.02,-247.45"/>
<polygon fill="midnightblue" stroke="midnightblue" points="184.61,-250.58 192.5,-243.52 181.92,-244.12 184.61,-250.58"/>
</g>
<!-- Node11&#45;&gt;Node10 -->
<g id="edge14" class="edge">
<title>Node11&#45;&gt;Node10</title>
<path fill="none" stroke="midnightblue" d="M83.99,-280.08C84.79,-272.93 85.93,-262.64 86.92,-253.69"/>
<polygon fill="midnightblue" stroke="midnightblue" points="90.4,-254.08 88.03,-243.75 83.44,-253.3 90.4,-254.08"/>
</g>
<!-- Node17 -->
<g id="node17" class="node">
<title>Node17</title>
<g id="a_node17"><a xlink:title=" ">
<polygon fill="none" stroke="#bfbfbf" points="622.5,-224.5 622.5,-243.5 715.5,-243.5 715.5,-224.5 622.5,-224.5"/>
<text text-anchor="middle" x="669" y="-231.5" font-family="Helvetica,sans-Serif" font-size="10.00">source_location</text>
</a>
</g>
</g>
<!-- Node16&#45;&gt;Node17 -->
<g id="edge20" class="edge">
<title>Node16&#45;&gt;Node17</title>
<path fill="none" stroke="midnightblue" d="M750.42,-280.32C735,-271.74 711.19,-258.49 693.29,-248.52"/>
<polygon fill="midnightblue" stroke="midnightblue" points="694.99,-245.46 684.55,-243.65 691.58,-251.58 694.99,-245.46"/>
</g>
<!-- Node18 -->
<g id="node18" class="node">
<title>Node18</title>
<g id="a_node18"><a xlink:title=" ">
<polygon fill="none" stroke="#bfbfbf" points="733.5,-224.5 733.5,-243.5 798.5,-243.5 798.5,-224.5 733.5,-224.5"/>
<text text-anchor="middle" x="766" y="-231.5" font-family="Helvetica,sans-Serif" font-size="10.00">stdexcept</text>
</a>
</g>
</g>
<!-- Node16&#45;&gt;Node18 -->
<g id="edge21" class="edge">
<title>Node16&#45;&gt;Node18</title>
<path fill="none" stroke="midnightblue" d="M766,-280.08C766,-273.01 766,-262.86 766,-253.99"/>
<polygon fill="midnightblue" stroke="midnightblue" points="769.5,-253.75 766,-243.75 762.5,-253.75 769.5,-253.75"/>
</g>
<!-- Node19 -->
<g id="node19" class="node">
<title>Node19</title>
<g id="a_node19"><a xlink:title=" ">
<polygon fill="none" stroke="#bfbfbf" points="817,-224.5 817,-243.5 861,-243.5 861,-224.5 817,-224.5"/>
<text text-anchor="middle" x="839" y="-231.5" font-family="Helvetica,sans-Serif" font-size="10.00">string</text>
</a>
</g>
</g>
<!-- Node16&#45;&gt;Node19 -->
<g id="edge22" class="edge">
<title>Node16&#45;&gt;Node19</title>
<path fill="none" stroke="midnightblue" d="M777.73,-280.32C788.84,-272.11 805.74,-259.6 818.98,-249.81"/>
<polygon fill="midnightblue" stroke="midnightblue" points="821.1,-252.59 827.06,-243.83 816.94,-246.97 821.1,-252.59"/>
</g>
</g>
</svg>
