<?xml version="1.0" encoding="UTF-8" standalone="no"?>
<!DOCTYPE svg PUBLIC "-//W3C//DTD SVG 1.1//EN"
 "http://www.w3.org/Graphics/SVG/1.1/DTD/svg11.dtd">
<!-- Generated by graphviz version 2.43.0 (0)
 -->
<!-- Title: /home/harlen/dev/abcg/abcg/abcgVulkanExternal.hpp Pages: 1 -->
<svg width="1106pt" height="575pt"
 viewBox="0.00 0.00 1106.00 575.00" xmlns="http://www.w3.org/2000/svg" xmlns:xlink="http://www.w3.org/1999/xlink">
<g id="graph0" class="graph" transform="scale(1 1) rotate(0) translate(4 571)">
<title>/home/harlen/dev/abcg/abcg/abcgVulkanExternal.hpp</title>
<!-- Node1 -->
<g id="node1" class="node">
<title>Node1</title>
<g id="a_node1"><a xlink:title="Header file for including Vulkan&#45;related dependencies.">
<polygon fill="#bfbfbf" stroke="black" points="68.5,-536.5 68.5,-566.5 231.5,-566.5 231.5,-536.5 68.5,-536.5"/>
<text text-anchor="start" x="76.5" y="-554.5" font-family="Helvetica,sans-Serif" font-size="10.00">/home/harlen/dev/abcg</text>
<text text-anchor="middle" x="150" y="-543.5" font-family="Helvetica,sans-Serif" font-size="10.00">/abcg/abcgVulkanExternal.hpp</text>
</a>
</g>
</g>
<!-- Node2 -->
<g id="node2" class="node">
<title>Node2</title>
<g id="a_node2"><a xlink:href="abcgVulkanInstance_8hpp.html" target="_top" xlink:title="Header file of abcg::VulkanInstance.">
<polygon fill="none" stroke="black" points="13,-469.5 13,-499.5 177,-499.5 177,-469.5 13,-469.5"/>
<text text-anchor="start" x="21" y="-487.5" font-family="Helvetica,sans-Serif" font-size="10.00">/home/harlen/dev/abcg</text>
<text text-anchor="middle" x="95" y="-476.5" font-family="Helvetica,sans-Serif" font-size="10.00">/abcg/abcgVulkanInstance.hpp</text>
</a>
</g>
</g>
<!-- Node1&#45;&gt;Node2 -->
<g id="edge1" class="edge">
<title>Node1&#45;&gt;Node2</title>
<path fill="none" stroke="midnightblue" d="M131.58,-528.74C123.45,-519.12 114.11,-508.09 106.91,-499.58"/>
<polygon fill="midnightblue" stroke="midnightblue" points="128.93,-531.02 138.07,-536.4 134.28,-526.5 128.93,-531.02"/>
</g>
<!-- Node5 -->
<g id="node5" class="node">
<title>Node5</title>
<g id="a_node5"><a xlink:href="abcgVulkanPhysicalDevice_8hpp.html" target="_top" xlink:title="Header file of abcg::VulkanPhysicalDevice.">
<polygon fill="none" stroke="black" points="207.5,-402.5 207.5,-432.5 404.5,-432.5 404.5,-402.5 207.5,-402.5"/>
<text text-anchor="start" x="215.5" y="-420.5" font-family="Helvetica,sans-Serif" font-size="10.00">/home/harlen/dev/abcg</text>
<text text-anchor="middle" x="306" y="-409.5" font-family="Helvetica,sans-Serif" font-size="10.00">/abcg/abcgVulkanPhysicalDevice.hpp</text>
</a>
</g>
</g>
<!-- Node1&#45;&gt;Node5 -->
<g id="edge36" class="edge">
<title>Node1&#45;&gt;Node5</title>
<path fill="none" stroke="midnightblue" d="M174.71,-529.59C206.8,-502.44 261.94,-455.78 289.43,-432.52"/>
<polygon fill="midnightblue" stroke="midnightblue" points="172.07,-527.24 166.69,-536.37 176.59,-532.59 172.07,-527.24"/>
</g>
<!-- Node3 -->
<g id="node3" class="node">
<title>Node3</title>
<g id="a_node3"><a xlink:href="abcgVulkanInstance_8cpp.html" target="_top" xlink:title="Definition of abcg::VulkanInstance.">
<polygon fill="none" stroke="black" points="222.5,-0.5 222.5,-30.5 385.5,-30.5 385.5,-0.5 222.5,-0.5"/>
<text text-anchor="start" x="230.5" y="-18.5" font-family="Helvetica,sans-Serif" font-size="10.00">/home/harlen/dev/abcg</text>
<text text-anchor="middle" x="304" y="-7.5" font-family="Helvetica,sans-Serif" font-size="10.00">/abcg/abcgVulkanInstance.cpp</text>
</a>
</g>
</g>
<!-- Node2&#45;&gt;Node3 -->
<g id="edge2" class="edge">
<title>Node2&#45;&gt;Node3</title>
<path fill="none" stroke="midnightblue" d="M67.39,-462.87C39.34,-439.32 0,-398.01 0,-351.5 0,-351.5 0,-351.5 0,-148.5 0,-108.34 7.19,-91.51 39,-67 67.2,-45.28 155.33,-31.55 222.29,-23.98"/>
<polygon fill="midnightblue" stroke="midnightblue" points="65.35,-465.72 75.32,-469.31 69.76,-460.29 65.35,-465.72"/>
</g>
<!-- Node4 -->
<g id="node4" class="node">
<title>Node4</title>
<g id="a_node4"><a xlink:href="abcgVulkanPhysicalDevice_8cpp.html" target="_top" xlink:title="Definition of abcg::VulkanPhysicalDevice.">
<polygon fill="none" stroke="black" points="104,-335.5 104,-365.5 300,-365.5 300,-335.5 104,-335.5"/>
<text text-anchor="start" x="112" y="-353.5" font-family="Helvetica,sans-Serif" font-size="10.00">/home/harlen/dev/abcg</text>
<text text-anchor="middle" x="202" y="-342.5" font-family="Helvetica,sans-Serif" font-size="10.00">/abcg/abcgVulkanPhysicalDevice.cpp</text>
</a>
</g>
</g>
<!-- Node2&#45;&gt;Node4 -->
<g id="edge3" class="edge">
<title>Node2&#45;&gt;Node4</title>
<path fill="none" stroke="midnightblue" d="M112.8,-461.54C134.92,-434.25 172.02,-388.48 190.63,-365.52"/>
<polygon fill="midnightblue" stroke="midnightblue" points="110.03,-459.4 106.45,-469.37 115.47,-463.81 110.03,-459.4"/>
</g>
<!-- Node2&#45;&gt;Node5 -->
<g id="edge4" class="edge">
<title>Node2&#45;&gt;Node5</title>
<path fill="none" stroke="midnightblue" d="M150.37,-466.44C184.57,-455.91 227.93,-442.55 260.19,-432.61"/>
<polygon fill="midnightblue" stroke="midnightblue" points="149.05,-463.19 140.52,-469.48 151.11,-469.88 149.05,-463.19"/>
</g>
<!-- Node17 -->
<g id="node17" class="node">
<title>Node17</title>
<g id="a_node17"><a xlink:href="abcgVulkanWindow_8hpp.html" target="_top" xlink:title="Header file of abcg::VulkanWindow.">
<polygon fill="none" stroke="black" points="66.5,-134.5 66.5,-164.5 227.5,-164.5 227.5,-134.5 66.5,-134.5"/>
<text text-anchor="start" x="74.5" y="-152.5" font-family="Helvetica,sans-Serif" font-size="10.00">/home/harlen/dev/abcg</text>
<text text-anchor="middle" x="147" y="-141.5" font-family="Helvetica,sans-Serif" font-size="10.00">/abcg/abcgVulkanWindow.hpp</text>
</a>
</g>
</g>
<!-- Node2&#45;&gt;Node17 -->
<g id="edge35" class="edge">
<title>Node2&#45;&gt;Node17</title>
<path fill="none" stroke="midnightblue" d="M89.44,-459.49C83.83,-433.15 76,-389.55 76,-351.5 76,-351.5 76,-351.5 76,-282.5 76,-234.62 112.68,-187.38 133.31,-164.59"/>
<polygon fill="midnightblue" stroke="midnightblue" points="86.04,-460.32 91.6,-469.34 92.87,-458.82 86.04,-460.32"/>
</g>
<!-- Node18 -->
<g id="node18" class="node">
<title>Node18</title>
<g id="a_node18"><a xlink:href="abcgVulkanWindow_8cpp.html" target="_top" xlink:title="Definition of abcg::VulkanWindow members.">
<polygon fill="none" stroke="black" points="48,-67.5 48,-97.5 208,-97.5 208,-67.5 48,-67.5"/>
<text text-anchor="start" x="56" y="-85.5" font-family="Helvetica,sans-Serif" font-size="10.00">/home/harlen/dev/abcg</text>
<text text-anchor="middle" x="128" y="-74.5" font-family="Helvetica,sans-Serif" font-size="10.00">/abcg/abcgVulkanWindow.cpp</text>
</a>
</g>
</g>
<!-- Node2&#45;&gt;Node18 -->
<g id="edge34" class="edge">
<title>Node2&#45;&gt;Node18</title>
<path fill="none" stroke="midnightblue" d="M78.44,-460.83C61.61,-435.5 38,-392.63 38,-351.5 38,-351.5 38,-351.5 38,-215.5 38,-178.31 36.28,-164.89 57,-134 67.45,-118.42 84.43,-106.09 99.17,-97.51"/>
<polygon fill="midnightblue" stroke="midnightblue" points="75.73,-463.06 84.28,-469.33 81.5,-459.1 75.73,-463.06"/>
</g>
<!-- Node5&#45;&gt;Node4 -->
<g id="edge31" class="edge">
<title>Node5&#45;&gt;Node4</title>
<path fill="none" stroke="midnightblue" d="M274.82,-397.02C258.64,-386.9 239.23,-374.77 224.52,-365.58"/>
<polygon fill="midnightblue" stroke="midnightblue" points="273.1,-400.06 283.43,-402.4 276.81,-394.13 273.1,-400.06"/>
</g>
<!-- Node6 -->
<g id="node6" class="node">
<title>Node6</title>
<g id="a_node6"><a xlink:href="abcgVulkanDevice_8hpp.html" target="_top" xlink:title="Header file of abcg::VulkanDevice.">
<polygon fill="none" stroke="black" points="433,-335.5 433,-365.5 589,-365.5 589,-335.5 433,-335.5"/>
<text text-anchor="start" x="441" y="-353.5" font-family="Helvetica,sans-Serif" font-size="10.00">/home/harlen/dev/abcg</text>
<text text-anchor="middle" x="511" y="-342.5" font-family="Helvetica,sans-Serif" font-size="10.00">/abcg/abcgVulkanDevice.hpp</text>
</a>
</g>
</g>
<!-- Node5&#45;&gt;Node6 -->
<g id="edge5" class="edge">
<title>Node5&#45;&gt;Node6</title>
<path fill="none" stroke="midnightblue" d="M359.79,-399.44C393.02,-388.91 435.15,-375.55 466.5,-365.61"/>
<polygon fill="midnightblue" stroke="midnightblue" points="358.7,-396.12 350.23,-402.48 360.82,-402.79 358.7,-396.12"/>
</g>
<!-- Node16 -->
<g id="node16" class="node">
<title>Node16</title>
<g id="a_node16"><a xlink:href="abcgVulkanSwapchain_8cpp.html" target="_top" xlink:title="Definition of abcg::VulkanSwapchain.">
<polygon fill="none" stroke="black" points="921,-67.5 921,-97.5 1095,-97.5 1095,-67.5 921,-67.5"/>
<text text-anchor="start" x="929" y="-85.5" font-family="Helvetica,sans-Serif" font-size="10.00">/home/harlen/dev/abcg</text>
<text text-anchor="middle" x="1008" y="-74.5" font-family="Helvetica,sans-Serif" font-size="10.00">/abcg/abcgVulkanSwapchain.cpp</text>
</a>
</g>
</g>
<!-- Node5&#45;&gt;Node16 -->
<g id="edge32" class="edge">
<title>Node5&#45;&gt;Node16</title>
<path fill="none" stroke="midnightblue" d="M414.85,-409.49C631.93,-394.05 1098,-352.94 1098,-284.5 1098,-284.5 1098,-284.5 1098,-215.5 1098,-165.02 1052.51,-119.6 1026.21,-97.56"/>
<polygon fill="midnightblue" stroke="midnightblue" points="414.43,-406.01 404.71,-410.21 414.93,-413 414.43,-406.01"/>
</g>
<!-- Node5&#45;&gt;Node17 -->
<g id="edge33" class="edge">
<title>Node5&#45;&gt;Node17</title>
<path fill="none" stroke="midnightblue" d="M312.79,-392.19C316.15,-375.26 317.83,-352.66 309,-335 297.07,-311.15 279.96,-317.75 261,-299 216.16,-254.66 173.82,-192.24 155.93,-164.61"/>
<polygon fill="midnightblue" stroke="midnightblue" points="309.28,-391.84 310.43,-402.38 316.1,-393.42 309.28,-391.84"/>
</g>
<!-- Node7 -->
<g id="node7" class="node">
<title>Node7</title>
<g id="a_node7"><a xlink:href="abcgVulkanBuffer_8hpp.html" target="_top" xlink:title="Header file of abcg::VulkanBuffer.">
<polygon fill="none" stroke="black" points="759.5,-268.5 759.5,-298.5 910.5,-298.5 910.5,-268.5 759.5,-268.5"/>
<text text-anchor="start" x="767.5" y="-286.5" font-family="Helvetica,sans-Serif" font-size="10.00">/home/harlen/dev/abcg</text>
<text text-anchor="middle" x="835" y="-275.5" font-family="Helvetica,sans-Serif" font-size="10.00">/abcg/abcgVulkanBuffer.hpp</text>
</a>
</g>
</g>
<!-- Node6&#45;&gt;Node7 -->
<g id="edge6" class="edge">
<title>Node6&#45;&gt;Node7</title>
<path fill="none" stroke="midnightblue" d="M591.01,-333.45C644.34,-322.75 713.79,-308.82 764.94,-298.55"/>
<polygon fill="midnightblue" stroke="midnightblue" points="590.02,-330.08 580.9,-335.48 591.4,-336.94 590.02,-330.08"/>
</g>
<!-- Node11 -->
<g id="node11" class="node">
<title>Node11</title>
<g id="a_node11"><a xlink:href="abcgVulkanDevice_8cpp.html" target="_top" xlink:title="Definition of abcg::VulkanDevice.">
<polygon fill="none" stroke="black" points="308.5,-268.5 308.5,-298.5 463.5,-298.5 463.5,-268.5 308.5,-268.5"/>
<text text-anchor="start" x="316.5" y="-286.5" font-family="Helvetica,sans-Serif" font-size="10.00">/home/harlen/dev/abcg</text>
<text text-anchor="middle" x="386" y="-275.5" font-family="Helvetica,sans-Serif" font-size="10.00">/abcg/abcgVulkanDevice.cpp</text>
</a>
</g>
</g>
<!-- Node6&#45;&gt;Node11 -->
<g id="edge11" class="edge">
<title>Node6&#45;&gt;Node11</title>
<path fill="none" stroke="midnightblue" d="M474.87,-330.71C455.16,-320.46 431.16,-307.98 413.07,-298.58"/>
<polygon fill="midnightblue" stroke="midnightblue" points="473.39,-333.89 483.88,-335.4 476.62,-327.68 473.39,-333.89"/>
</g>
<!-- Node12 -->
<g id="node12" class="node">
<title>Node12</title>
<g id="a_node12"><a xlink:href="abcgVulkanImage_8hpp.html" target="_top" xlink:title="Header file of abcg::VulkanImage.">
<polygon fill="none" stroke="black" points="564.5,-268.5 564.5,-298.5 717.5,-298.5 717.5,-268.5 564.5,-268.5"/>
<text text-anchor="start" x="572.5" y="-286.5" font-family="Helvetica,sans-Serif" font-size="10.00">/home/harlen/dev/abcg</text>
<text text-anchor="middle" x="641" y="-275.5" font-family="Helvetica,sans-Serif" font-size="10.00">/abcg/abcgVulkanImage.hpp</text>
</a>
</g>
</g>
<!-- Node6&#45;&gt;Node12 -->
<g id="edge12" class="edge">
<title>Node6&#45;&gt;Node12</title>
<path fill="none" stroke="midnightblue" d="M548.29,-330.85C568.85,-320.58 593.95,-308.03 612.85,-298.58"/>
<polygon fill="midnightblue" stroke="midnightblue" points="546.59,-327.79 539.21,-335.4 549.72,-334.05 546.59,-327.79"/>
</g>
<!-- Node13 -->
<g id="node13" class="node">
<title>Node13</title>
<g id="a_node13"><a xlink:href="abcgVulkanSwapchain_8hpp.html" target="_top" xlink:title="Header file of abcg::VulkanSwapchain.">
<polygon fill="none" stroke="black" points="442.5,-201.5 442.5,-231.5 617.5,-231.5 617.5,-201.5 442.5,-201.5"/>
<text text-anchor="start" x="450.5" y="-219.5" font-family="Helvetica,sans-Serif" font-size="10.00">/home/harlen/dev/abcg</text>
<text text-anchor="middle" x="530" y="-208.5" font-family="Helvetica,sans-Serif" font-size="10.00">/abcg/abcgVulkanSwapchain.hpp</text>
</a>
</g>
</g>
<!-- Node6&#45;&gt;Node13 -->
<g id="edge29" class="edge">
<title>Node6&#45;&gt;Node13</title>
<path fill="none" stroke="midnightblue" d="M514.47,-325.39C518.43,-297.9 524.76,-253.89 527.98,-231.52"/>
<polygon fill="midnightblue" stroke="midnightblue" points="510.99,-324.98 513.03,-335.37 517.92,-325.97 510.99,-324.98"/>
</g>
<!-- Node6&#45;&gt;Node16 -->
<g id="edge28" class="edge">
<title>Node6&#45;&gt;Node16</title>
<path fill="none" stroke="midnightblue" d="M599.08,-348.27C683.36,-344.87 813.1,-333.75 920,-299 978.46,-280 1009.79,-284.96 1041,-232 1067.01,-187.86 1034.65,-125.34 1017.45,-97.64"/>
<polygon fill="midnightblue" stroke="midnightblue" points="598.89,-344.77 589.03,-348.65 599.16,-351.77 598.89,-344.77"/>
</g>
<!-- Node6&#45;&gt;Node17 -->
<g id="edge30" class="edge">
<title>Node6&#45;&gt;Node17</title>
<path fill="none" stroke="midnightblue" d="M422.83,-341.29C382.73,-334.46 336.08,-321.94 299,-299 250.7,-269.12 258.57,-239.69 217,-201 202.3,-187.32 183.81,-174.12 169.53,-164.66"/>
<polygon fill="midnightblue" stroke="midnightblue" points="422.44,-344.77 432.87,-342.91 423.55,-337.86 422.44,-344.77"/>
</g>
<!-- Node19 -->
<g id="node19" class="node">
<title>Node19</title>
<g id="a_node19"><a xlink:href="abcgVulkanShader_8hpp.html" target="_top" xlink:title="Declaration of helper functions for creating Vulkan shaders.">
<polygon fill="none" stroke="black" points="269.5,-201.5 269.5,-231.5 424.5,-231.5 424.5,-201.5 269.5,-201.5"/>
<text text-anchor="start" x="277.5" y="-219.5" font-family="Helvetica,sans-Serif" font-size="10.00">/home/harlen/dev/abcg</text>
<text text-anchor="middle" x="347" y="-208.5" font-family="Helvetica,sans-Serif" font-size="10.00">/abcg/abcgVulkanShader.hpp</text>
</a>
</g>
</g>
<!-- Node6&#45;&gt;Node19 -->
<g id="edge24" class="edge">
<title>Node6&#45;&gt;Node19</title>
<path fill="none" stroke="midnightblue" d="M504.99,-325.45C499.4,-307.51 489.4,-283.52 473,-268 454.86,-250.83 430.14,-239.22 407.39,-231.51"/>
<polygon fill="midnightblue" stroke="midnightblue" points="501.67,-326.56 507.79,-335.21 508.4,-324.63 501.67,-326.56"/>
</g>
<!-- Node8 -->
<g id="node8" class="node">
<title>Node8</title>
<g id="a_node8"><a xlink:href="abcgVulkan_8hpp.html" target="_top" xlink:title="Header file for Vulkan&#45;related functions and classes.">
<polygon fill="none" stroke="black" points="544,-67.5 544,-97.5 672,-97.5 672,-67.5 544,-67.5"/>
<text text-anchor="start" x="552" y="-85.5" font-family="Helvetica,sans-Serif" font-size="10.00">/home/harlen/dev/abcg</text>
<text text-anchor="middle" x="608" y="-74.5" font-family="Helvetica,sans-Serif" font-size="10.00">/abcg/abcgVulkan.hpp</text>
</a>
</g>
</g>
<!-- Node7&#45;&gt;Node8 -->
<g id="edge7" class="edge">
<title>Node7&#45;&gt;Node8</title>
<path fill="none" stroke="midnightblue" d="M841.24,-258.48C844.31,-241.24 845.41,-218.12 835,-201 799.83,-143.19 726,-112.56 672.06,-97.24"/>
<polygon fill="midnightblue" stroke="midnightblue" points="837.8,-257.84 839.16,-268.35 844.65,-259.28 837.8,-257.84"/>
</g>
<!-- Node9 -->
<g id="node9" class="node">
<title>Node9</title>
<g id="a_node9"><a xlink:href="abcgVulkanBuffer_8cpp.html" target="_top" xlink:title="Definition of abcg::VulkanBuffer.">
<polygon fill="none" stroke="black" points="882,-201.5 882,-231.5 1032,-231.5 1032,-201.5 882,-201.5"/>
<text text-anchor="start" x="890" y="-219.5" font-family="Helvetica,sans-Serif" font-size="10.00">/home/harlen/dev/abcg</text>
<text text-anchor="middle" x="957" y="-208.5" font-family="Helvetica,sans-Serif" font-size="10.00">/abcg/abcgVulkanBuffer.cpp</text>
</a>
</g>
</g>
<!-- Node7&#45;&gt;Node9 -->
<g id="edge9" class="edge">
<title>Node7&#45;&gt;Node9</title>
<path fill="none" stroke="midnightblue" d="M870.52,-263.57C889.71,-253.35 913,-240.94 930.58,-231.58"/>
<polygon fill="midnightblue" stroke="midnightblue" points="868.65,-260.6 861.47,-268.4 871.94,-266.78 868.65,-260.6"/>
</g>
<!-- Node10 -->
<g id="node10" class="node">
<title>Node10</title>
<g id="a_node10"><a xlink:href="abcgVulkanImage_8cpp.html" target="_top" xlink:title="Definition of abcg::VulkanImage.">
<polygon fill="none" stroke="black" points="674,-201.5 674,-231.5 826,-231.5 826,-201.5 674,-201.5"/>
<text text-anchor="start" x="682" y="-219.5" font-family="Helvetica,sans-Serif" font-size="10.00">/home/harlen/dev/abcg</text>
<text text-anchor="middle" x="750" y="-208.5" font-family="Helvetica,sans-Serif" font-size="10.00">/abcg/abcgVulkanImage.cpp</text>
</a>
</g>
</g>
<!-- Node7&#45;&gt;Node10 -->
<g id="edge10" class="edge">
<title>Node7&#45;&gt;Node10</title>
<path fill="none" stroke="midnightblue" d="M808.41,-262.17C795.41,-252.23 780.1,-240.51 768.41,-231.58"/>
<polygon fill="midnightblue" stroke="midnightblue" points="806.49,-265.1 816.56,-268.4 810.74,-259.54 806.49,-265.1"/>
</g>
<!-- Node8&#45;&gt;Node3 -->
<g id="edge8" class="edge">
<title>Node8&#45;&gt;Node3</title>
<path fill="none" stroke="midnightblue" d="M534.07,-65.69C483.83,-54.95 417.96,-40.87 369.58,-30.52"/>
<polygon fill="midnightblue" stroke="midnightblue" points="533.39,-69.13 543.9,-67.79 534.85,-62.28 533.39,-69.13"/>
</g>
<!-- Node12&#45;&gt;Node8 -->
<g id="edge13" class="edge">
<title>Node12&#45;&gt;Node8</title>
<path fill="none" stroke="midnightblue" d="M636.98,-258.27C630.02,-216.29 615.93,-131.33 610.35,-97.68"/>
<polygon fill="midnightblue" stroke="midnightblue" points="633.54,-258.9 638.63,-268.19 640.44,-257.75 633.54,-258.9"/>
</g>
<!-- Node12&#45;&gt;Node10 -->
<g id="edge14" class="edge">
<title>Node12&#45;&gt;Node10</title>
<path fill="none" stroke="midnightblue" d="M673.67,-263.02C690.64,-252.9 710.98,-240.77 726.39,-231.58"/>
<polygon fill="midnightblue" stroke="midnightblue" points="671.45,-260.27 664.65,-268.4 675.03,-266.28 671.45,-260.27"/>
</g>
<!-- Node12&#45;&gt;Node13 -->
<g id="edge15" class="edge">
<title>Node12&#45;&gt;Node13</title>
<path fill="none" stroke="midnightblue" d="M608.2,-263.3C590.84,-253.12 569.88,-240.85 554.04,-231.58"/>
<polygon fill="midnightblue" stroke="midnightblue" points="606.52,-266.36 616.91,-268.4 610.05,-260.32 606.52,-266.36"/>
</g>
<!-- Node14 -->
<g id="node14" class="node">
<title>Node14</title>
<g id="a_node14"><a xlink:href="abcgVulkanPipeline_8hpp.html" target="_top" xlink:title="Header file of abcg::VulkanPipeline.">
<polygon fill="none" stroke="black" points="418.5,-134.5 418.5,-164.5 579.5,-164.5 579.5,-134.5 418.5,-134.5"/>
<text text-anchor="start" x="426.5" y="-152.5" font-family="Helvetica,sans-Serif" font-size="10.00">/home/harlen/dev/abcg</text>
<text text-anchor="middle" x="499" y="-141.5" font-family="Helvetica,sans-Serif" font-size="10.00">/abcg/abcgVulkanPipeline.hpp</text>
</a>
</g>
</g>
<!-- Node13&#45;&gt;Node14 -->
<g id="edge16" class="edge">
<title>Node13&#45;&gt;Node14</title>
<path fill="none" stroke="midnightblue" d="M518.93,-192.28C514.51,-183.02 509.57,-172.66 505.71,-164.58"/>
<polygon fill="midnightblue" stroke="midnightblue" points="515.81,-193.88 523.27,-201.4 522.13,-190.86 515.81,-193.88"/>
</g>
<!-- Node13&#45;&gt;Node16 -->
<g id="edge19" class="edge">
<title>Node13&#45;&gt;Node16</title>
<path fill="none" stroke="midnightblue" d="M590.46,-198.8C685.54,-172.55 868.31,-122.08 957.1,-97.56"/>
<polygon fill="midnightblue" stroke="midnightblue" points="589.41,-195.46 580.7,-201.5 591.27,-202.21 589.41,-195.46"/>
</g>
<!-- Node13&#45;&gt;Node17 -->
<g id="edge20" class="edge">
<title>Node13&#45;&gt;Node17</title>
<path fill="none" stroke="midnightblue" d="M437.26,-199.76C373.18,-188.89 288.78,-174.56 227.52,-164.16"/>
<polygon fill="midnightblue" stroke="midnightblue" points="436.92,-203.25 447.37,-201.48 438.09,-196.35 436.92,-203.25"/>
</g>
<!-- Node14&#45;&gt;Node8 -->
<g id="edge17" class="edge">
<title>Node14&#45;&gt;Node8</title>
<path fill="none" stroke="midnightblue" d="M531.67,-129.02C548.64,-118.9 568.98,-106.77 584.39,-97.58"/>
<polygon fill="midnightblue" stroke="midnightblue" points="529.45,-126.27 522.65,-134.4 533.03,-132.28 529.45,-126.27"/>
</g>
<!-- Node15 -->
<g id="node15" class="node">
<title>Node15</title>
<g id="a_node15"><a xlink:href="abcgVulkanPipeline_8cpp.html" target="_top" xlink:title="Definition of abcg::VulkanPipeline.">
<polygon fill="none" stroke="black" points="364.5,-67.5 364.5,-97.5 525.5,-97.5 525.5,-67.5 364.5,-67.5"/>
<text text-anchor="start" x="372.5" y="-85.5" font-family="Helvetica,sans-Serif" font-size="10.00">/home/harlen/dev/abcg</text>
<text text-anchor="middle" x="445" y="-74.5" font-family="Helvetica,sans-Serif" font-size="10.00">/abcg/abcgVulkanPipeline.cpp</text>
</a>
</g>
</g>
<!-- Node14&#45;&gt;Node15 -->
<g id="edge18" class="edge">
<title>Node14&#45;&gt;Node15</title>
<path fill="none" stroke="midnightblue" d="M480.68,-126.45C472.75,-116.9 463.7,-106 456.69,-97.58"/>
<polygon fill="midnightblue" stroke="midnightblue" points="478.2,-128.94 487.28,-134.4 483.58,-124.47 478.2,-128.94"/>
</g>
<!-- Node17&#45;&gt;Node8 -->
<g id="edge21" class="edge">
<title>Node17&#45;&gt;Node8</title>
<path fill="none" stroke="midnightblue" d="M237.65,-133.81C370.26,-115.41 406.04,-118.54 535,-98 537.93,-97.53 540.93,-97.03 543.96,-96.51"/>
<polygon fill="midnightblue" stroke="midnightblue" points="236.92,-130.37 227.51,-135.23 237.9,-137.31 236.92,-130.37"/>
</g>
<!-- Node17&#45;&gt;Node16 -->
<g id="edge22" class="edge">
<title>Node17&#45;&gt;Node16</title>
<path fill="none" stroke="midnightblue" d="M238.09,-133.85C384.21,-118.14 751.94,-97.31 920.89,-88.14"/>
<polygon fill="midnightblue" stroke="midnightblue" points="237.51,-130.39 227.96,-134.97 238.29,-137.35 237.51,-130.39"/>
</g>
<!-- Node17&#45;&gt;Node18 -->
<g id="edge23" class="edge">
<title>Node17&#45;&gt;Node18</title>
<path fill="none" stroke="midnightblue" d="M140.04,-124.7C137.38,-115.59 134.43,-105.49 132.11,-97.58"/>
<polygon fill="midnightblue" stroke="midnightblue" points="136.71,-125.78 142.88,-134.4 143.43,-123.82 136.71,-125.78"/>
</g>
<!-- Node19&#45;&gt;Node8 -->
<g id="edge25" class="edge">
<title>Node19&#45;&gt;Node8</title>
<path fill="none" stroke="midnightblue" d="M434.41,-199.54C501.36,-186.95 583.25,-170.62 589,-165 607.08,-147.33 609.36,-116.03 608.97,-97.79"/>
<polygon fill="midnightblue" stroke="midnightblue" points="433.41,-196.17 424.23,-201.45 434.7,-203.05 433.41,-196.17"/>
</g>
<!-- Node19&#45;&gt;Node14 -->
<g id="edge26" class="edge">
<title>Node19&#45;&gt;Node14</title>
<path fill="none" stroke="midnightblue" d="M389.31,-197.41C413.58,-187.03 443.59,-174.2 466.08,-164.58"/>
<polygon fill="midnightblue" stroke="midnightblue" points="387.8,-194.25 379.98,-201.4 390.55,-200.68 387.8,-194.25"/>
</g>
<!-- Node20 -->
<g id="node20" class="node">
<title>Node20</title>
<g id="a_node20"><a xlink:href="abcgVulkanShader_8cpp.html" target="_top" xlink:title="Definition of helper functions for creating Vulkan shaders.">
<polygon fill="none" stroke="black" points="245.5,-134.5 245.5,-164.5 400.5,-164.5 400.5,-134.5 245.5,-134.5"/>
<text text-anchor="start" x="253.5" y="-152.5" font-family="Helvetica,sans-Serif" font-size="10.00">/home/harlen/dev/abcg</text>
<text text-anchor="middle" x="323" y="-141.5" font-family="Helvetica,sans-Serif" font-size="10.00">/abcg/abcgVulkanShader.cpp</text>
</a>
</g>
</g>
<!-- Node19&#45;&gt;Node20 -->
<g id="edge27" class="edge">
<title>Node19&#45;&gt;Node20</title>
<path fill="none" stroke="midnightblue" d="M338.32,-191.99C334.93,-182.8 331.15,-172.58 328.2,-164.58"/>
<polygon fill="midnightblue" stroke="midnightblue" points="335.05,-193.23 341.79,-201.4 341.61,-190.8 335.05,-193.23"/>
</g>
</g>
</svg>
