<?xml version="1.0" encoding="UTF-8" standalone="no"?>
<!DOCTYPE svg PUBLIC "-//W3C//DTD SVG 1.1//EN"
 "http://www.w3.org/Graphics/SVG/1.1/DTD/svg11.dtd">
<!-- Generated by graphviz version 2.43.0 (0)
 -->
<!-- Title: /home/harlen/dev/abcg/abcg/abcgVulkanImage.cpp Pages: 1 -->
<svg width="847pt" height="368pt"
 viewBox="0.00 0.00 847.00 368.00" xmlns="http://www.w3.org/2000/svg" xmlns:xlink="http://www.w3.org/1999/xlink">
<g id="graph0" class="graph" transform="scale(1 1) rotate(0) translate(4 364)">
<title>/home/harlen/dev/abcg/abcg/abcgVulkanImage.cpp</title>
<!-- Node1 -->
<g id="Node000001" class="node">
<title>Node1</title>
<g id="a_Node000001"><a xlink:title="Definition of abcg::VulkanImage.">
<polygon fill="#999999" stroke="#666666" points="526,-360 374,-360 374,-330 526,-330 526,-360"/>
<text text-anchor="start" x="382" y="-348" font-family="Helvetica,sans-Serif" font-size="10.00">/home/harlen/dev/abcg</text>
<text text-anchor="middle" x="450" y="-337" font-family="Helvetica,sans-Serif" font-size="10.00">/abcg/abcgVulkanImage.cpp</text>
</a>
</g>
</g>
<!-- Node2 -->
<g id="Node000002" class="node">
<title>Node2</title>
<g id="a_Node000002"><a xlink:href="abcgVulkanImage_8hpp.html" target="_top" xlink:title="Header file of abcg::VulkanImage.">
<polygon fill="white" stroke="#666666" points="264,-294 140,-294 140,-275 264,-275 264,-294"/>
<text text-anchor="middle" x="202" y="-282" font-family="Helvetica,sans-Serif" font-size="10.00">abcgVulkanImage.hpp</text>
</a>
</g>
</g>
<!-- Node1&#45;&gt;Node2 -->
<g id="edge1_Node000001_Node000002" class="edge">
<title>Node1&#45;&gt;Node2</title>
<g id="a_edge1_Node000001_Node000002"><a xlink:title=" ">
<path fill="none" stroke="#63b8ff" d="M390.6,-329.99C346.87,-319.67 288.28,-305.85 248.07,-296.37"/>
<polygon fill="#63b8ff" stroke="#63b8ff" points="248.8,-292.94 238.26,-294.05 247.19,-299.76 248.8,-292.94"/>
</a>
</g>
</g>
<!-- Node12 -->
<g id="Node000012" class="node">
<title>Node12</title>
<g id="a_Node000012"><a xlink:href="abcgVulkanBuffer_8hpp.html" target="_top" xlink:title="Header file of abcg::VulkanBuffer.">
<polygon fill="white" stroke="#666666" points="122,-294 0,-294 0,-275 122,-275 122,-294"/>
<text text-anchor="middle" x="61" y="-282" font-family="Helvetica,sans-Serif" font-size="10.00">abcgVulkanBuffer.hpp</text>
</a>
</g>
</g>
<!-- Node1&#45;&gt;Node12 -->
<g id="edge11_Node000001_Node000012" class="edge">
<title>Node1&#45;&gt;Node12</title>
<g id="a_edge11_Node000001_Node000012"><a xlink:title=" ">
<path fill="none" stroke="#63b8ff" d="M373.61,-332.51C302.05,-321.75 196.17,-305.83 127.88,-295.56"/>
<polygon fill="#63b8ff" stroke="#63b8ff" points="128.07,-292.05 117.66,-294.02 127.03,-298.97 128.07,-292.05"/>
</a>
</g>
</g>
<!-- Node13 -->
<g id="Node000013" class="node">
<title>Node13</title>
<g id="a_Node000013"><a xlink:title=" ">
<polygon fill="#e0e0e0" stroke="#999999" points="362,-294 282,-294 282,-275 362,-275 362,-294"/>
<text text-anchor="middle" x="322" y="-282" font-family="Helvetica,sans-Serif" font-size="10.00">SDL_image.h</text>
</a>
</g>
</g>
<!-- Node1&#45;&gt;Node13 -->
<g id="edge14_Node000001_Node000013" class="edge">
<title>Node1&#45;&gt;Node13</title>
<g id="a_edge14_Node000001_Node000013"><a xlink:title=" ">
<path fill="none" stroke="#63b8ff" d="M419.34,-329.99C398.27,-320.36 370.51,-307.67 350.03,-298.31"/>
<polygon fill="#63b8ff" stroke="#63b8ff" points="351.45,-295.11 340.9,-294.14 348.54,-301.48 351.45,-295.11"/>
</a>
</g>
</g>
<!-- Node14 -->
<g id="Node000014" class="node">
<title>Node14</title>
<g id="a_Node000014"><a xlink:title=" ">
<polygon fill="#e0e0e0" stroke="#999999" points="519.5,-294 380.5,-294 380.5,-275 519.5,-275 519.5,-294"/>
<text text-anchor="middle" x="450" y="-282" font-family="Helvetica,sans-Serif" font-size="10.00">cppitertools/itertools.hpp</text>
</a>
</g>
</g>
<!-- Node1&#45;&gt;Node14 -->
<g id="edge15_Node000001_Node000014" class="edge">
<title>Node1&#45;&gt;Node14</title>
<g id="a_edge15_Node000001_Node000014"><a xlink:title=" ">
<path fill="none" stroke="#63b8ff" d="M450,-329.84C450,-322.21 450,-312.7 450,-304.45"/>
<polygon fill="#63b8ff" stroke="#63b8ff" points="453.5,-304.27 450,-294.27 446.5,-304.27 453.5,-304.27"/>
</a>
</g>
</g>
<!-- Node15 -->
<g id="Node000015" class="node">
<title>Node15</title>
<g id="a_Node000015"><a xlink:title=" ">
<polygon fill="#e0e0e0" stroke="#999999" points="604.5,-294 537.5,-294 537.5,-275 604.5,-275 604.5,-294"/>
<text text-anchor="middle" x="571" y="-282" font-family="Helvetica,sans-Serif" font-size="10.00">fmt/core.h</text>
</a>
</g>
</g>
<!-- Node1&#45;&gt;Node15 -->
<g id="edge16_Node000001_Node000015" class="edge">
<title>Node1&#45;&gt;Node15</title>
<g id="a_edge16_Node000001_Node000015"><a xlink:title=" ">
<path fill="none" stroke="#63b8ff" d="M478.98,-329.99C498.72,-320.45 524.67,-307.9 543.97,-298.57"/>
<polygon fill="#63b8ff" stroke="#63b8ff" points="545.65,-301.64 553.13,-294.14 542.6,-295.34 545.65,-301.64"/>
</a>
</g>
</g>
<!-- Node16 -->
<g id="Node000016" class="node">
<title>Node16</title>
<g id="a_Node000016"><a xlink:title=" ">
<polygon fill="#e0e0e0" stroke="#999999" points="671,-294 623,-294 623,-275 671,-275 671,-294"/>
<text text-anchor="middle" x="647" y="-282" font-family="Helvetica,sans-Serif" font-size="10.00">gsl/gsl</text>
</a>
</g>
</g>
<!-- Node1&#45;&gt;Node16 -->
<g id="edge17_Node000001_Node000016" class="edge">
<title>Node1&#45;&gt;Node16</title>
<g id="a_edge17_Node000001_Node000016"><a xlink:title=" ">
<path fill="none" stroke="#63b8ff" d="M497.19,-329.99C532.93,-319.37 581.18,-305.04 613.16,-295.55"/>
<polygon fill="#63b8ff" stroke="#63b8ff" points="614.34,-298.85 622.93,-292.65 612.34,-292.14 614.34,-298.85"/>
</a>
</g>
</g>
<!-- Node17 -->
<g id="Node000017" class="node">
<title>Node17</title>
<g id="a_Node000017"><a xlink:href="abcgException_8hpp.html" target="_top" xlink:title="Header file of abcg::Exception and derived classes.">
<polygon fill="white" stroke="#666666" points="798.5,-294 689.5,-294 689.5,-275 798.5,-275 798.5,-294"/>
<text text-anchor="middle" x="744" y="-282" font-family="Helvetica,sans-Serif" font-size="10.00">abcgException.hpp</text>
</a>
</g>
</g>
<!-- Node1&#45;&gt;Node17 -->
<g id="edge18_Node000001_Node000017" class="edge">
<title>Node1&#45;&gt;Node17</title>
<g id="a_edge18_Node000001_Node000017"><a xlink:title=" ">
<path fill="none" stroke="#63b8ff" d="M520.42,-329.99C572.92,-319.54 643.49,-305.5 691.19,-296.01"/>
<polygon fill="#63b8ff" stroke="#63b8ff" points="691.89,-299.44 701.01,-294.05 690.52,-292.57 691.89,-299.44"/>
</a>
</g>
</g>
<!-- Node3 -->
<g id="Node000003" class="node">
<title>Node3</title>
<g id="a_Node000003"><a xlink:href="abcgVulkanDevice_8hpp.html" target="_top" xlink:title="Header file of abcg::VulkanDevice.">
<polygon fill="white" stroke="#666666" points="254.5,-239 127.5,-239 127.5,-220 254.5,-220 254.5,-239"/>
<text text-anchor="middle" x="191" y="-227" font-family="Helvetica,sans-Serif" font-size="10.00">abcgVulkanDevice.hpp</text>
</a>
</g>
</g>
<!-- Node2&#45;&gt;Node3 -->
<g id="edge2_Node000002_Node000003" class="edge">
<title>Node2&#45;&gt;Node3</title>
<g id="a_edge2_Node000002_Node000003"><a xlink:title=" ">
<path fill="none" stroke="#63b8ff" d="M200.18,-274.75C198.74,-267.8 196.68,-257.85 194.87,-249.13"/>
<polygon fill="#63b8ff" stroke="#63b8ff" points="198.24,-248.17 192.78,-239.09 191.39,-249.59 198.24,-248.17"/>
</a>
</g>
</g>
<!-- Node11 -->
<g id="Node000011" class="node">
<title>Node11</title>
<g id="a_Node000011"><a xlink:title=" ">
<polygon fill="#e0e0e0" stroke="#999999" points="104,-239 30,-239 30,-220 104,-220 104,-239"/>
<text text-anchor="middle" x="67" y="-227" font-family="Helvetica,sans-Serif" font-size="10.00">gsl/pointers</text>
</a>
</g>
</g>
<!-- Node2&#45;&gt;Node11 -->
<g id="edge10_Node000002_Node000011" class="edge">
<title>Node2&#45;&gt;Node11</title>
<g id="a_edge10_Node000002_Node000011"><a xlink:title=" ">
<path fill="none" stroke="#63b8ff" d="M180.31,-274.98C158.2,-266.3 123.68,-252.75 98.55,-242.88"/>
<polygon fill="#63b8ff" stroke="#63b8ff" points="99.67,-239.57 89.08,-239.17 97.11,-246.08 99.67,-239.57"/>
</a>
</g>
</g>
<!-- Node4 -->
<g id="Node000004" class="node">
<title>Node4</title>
<g id="a_Node000004"><a xlink:href="abcgVulkanPhysicalDevice_8hpp.html" target="_top" xlink:title="Header file of abcg::VulkanPhysicalDevice.">
<polygon fill="white" stroke="#666666" points="207.5,-184 40.5,-184 40.5,-165 207.5,-165 207.5,-184"/>
<text text-anchor="middle" x="124" y="-172" font-family="Helvetica,sans-Serif" font-size="10.00">abcgVulkanPhysicalDevice.hpp</text>
</a>
</g>
</g>
<!-- Node3&#45;&gt;Node4 -->
<g id="edge3_Node000003_Node000004" class="edge">
<title>Node3&#45;&gt;Node4</title>
<g id="a_edge3_Node000003_Node000004"><a xlink:title=" ">
<path fill="none" stroke="#63b8ff" d="M180.24,-219.98C170.23,-212.07 155.11,-200.11 143.07,-190.58"/>
<polygon fill="#63b8ff" stroke="#63b8ff" points="144.97,-187.63 134.96,-184.17 140.63,-193.12 144.97,-187.63"/>
</a>
</g>
</g>
<!-- Node10 -->
<g id="Node000010" class="node">
<title>Node10</title>
<g id="a_Node000010"><a xlink:title=" ">
<polygon fill="#e0e0e0" stroke="#999999" points="290.5,-184 225.5,-184 225.5,-165 290.5,-165 290.5,-184"/>
<text text-anchor="middle" x="258" y="-172" font-family="Helvetica,sans-Serif" font-size="10.00">functional</text>
</a>
</g>
</g>
<!-- Node3&#45;&gt;Node10 -->
<g id="edge9_Node000003_Node000010" class="edge">
<title>Node3&#45;&gt;Node10</title>
<g id="a_edge9_Node000003_Node000010"><a xlink:title=" ">
<path fill="none" stroke="#63b8ff" d="M201.76,-219.98C211.77,-212.07 226.89,-200.11 238.93,-190.58"/>
<polygon fill="#63b8ff" stroke="#63b8ff" points="241.37,-193.12 247.04,-184.17 237.03,-187.63 241.37,-193.12"/>
</a>
</g>
</g>
<!-- Node5 -->
<g id="Node000005" class="node">
<title>Node5</title>
<g id="a_Node000005"><a xlink:title=" ">
<polygon fill="#e0e0e0" stroke="#999999" points="96,-129 40,-129 40,-110 96,-110 96,-129"/>
<text text-anchor="middle" x="68" y="-117" font-family="Helvetica,sans-Serif" font-size="10.00">optional</text>
</a>
</g>
</g>
<!-- Node4&#45;&gt;Node5 -->
<g id="edge4_Node000004_Node000005" class="edge">
<title>Node4&#45;&gt;Node5</title>
<g id="a_edge4_Node000004_Node000005"><a xlink:title=" ">
<path fill="none" stroke="#63b8ff" d="M115,-164.98C106.81,-157.23 94.49,-145.58 84.53,-136.14"/>
<polygon fill="#63b8ff" stroke="#63b8ff" points="86.83,-133.5 77.16,-129.17 82.02,-138.59 86.83,-133.5"/>
</a>
</g>
</g>
<!-- Node6 -->
<g id="Node000006" class="node">
<title>Node6</title>
<g id="a_Node000006"><a xlink:href="abcgVulkanInstance_8hpp.html" target="_top" xlink:title="Header file of abcg::VulkanInstance.">
<polygon fill="white" stroke="#666666" points="248,-129 114,-129 114,-110 248,-110 248,-129"/>
<text text-anchor="middle" x="181" y="-117" font-family="Helvetica,sans-Serif" font-size="10.00">abcgVulkanInstance.hpp</text>
</a>
</g>
</g>
<!-- Node4&#45;&gt;Node6 -->
<g id="edge5_Node000004_Node000006" class="edge">
<title>Node4&#45;&gt;Node6</title>
<g id="a_edge5_Node000004_Node000006"><a xlink:title=" ">
<path fill="none" stroke="#63b8ff" d="M133.16,-164.98C141.5,-157.23 154.03,-145.58 164.18,-136.14"/>
<polygon fill="#63b8ff" stroke="#63b8ff" points="166.74,-138.54 171.68,-129.17 161.97,-133.42 166.74,-138.54"/>
</a>
</g>
</g>
<!-- Node7 -->
<g id="Node000007" class="node">
<title>Node7</title>
<g id="a_Node000007"><a xlink:href="abcgVulkanExternal_8hpp.html" target="_top" xlink:title="Header file for including Vulkan&#45;related dependencies.">
<polygon fill="white" stroke="#666666" points="248,-74 114,-74 114,-55 248,-55 248,-74"/>
<text text-anchor="middle" x="181" y="-62" font-family="Helvetica,sans-Serif" font-size="10.00">abcgVulkanExternal.hpp</text>
</a>
</g>
</g>
<!-- Node6&#45;&gt;Node7 -->
<g id="edge6_Node000006_Node000007" class="edge">
<title>Node6&#45;&gt;Node7</title>
<g id="a_edge6_Node000006_Node000007"><a xlink:title=" ">
<path fill="none" stroke="#63b8ff" d="M181,-109.75C181,-102.8 181,-92.85 181,-84.13"/>
<polygon fill="#63b8ff" stroke="#63b8ff" points="184.5,-84.09 181,-74.09 177.5,-84.09 184.5,-84.09"/>
</a>
</g>
</g>
<!-- Node8 -->
<g id="Node000008" class="node">
<title>Node8</title>
<g id="a_Node000008"><a xlink:title=" ">
<polygon fill="#e0e0e0" stroke="#999999" points="157.5,-19 110.5,-19 110.5,0 157.5,0 157.5,-19"/>
<text text-anchor="middle" x="134" y="-7" font-family="Helvetica,sans-Serif" font-size="10.00">volk.h</text>
</a>
</g>
</g>
<!-- Node7&#45;&gt;Node8 -->
<g id="edge7_Node000007_Node000008" class="edge">
<title>Node7&#45;&gt;Node8</title>
<g id="a_edge7_Node000007_Node000008"><a xlink:title=" ">
<path fill="none" stroke="#63b8ff" d="M173.24,-54.75C166.53,-47.18 156.66,-36.05 148.49,-26.84"/>
<polygon fill="#63b8ff" stroke="#63b8ff" points="150.87,-24.25 141.62,-19.09 145.63,-28.89 150.87,-24.25"/>
</a>
</g>
</g>
<!-- Node9 -->
<g id="Node000009" class="node">
<title>Node9</title>
<g id="a_Node000009"><a xlink:title=" ">
<polygon fill="#e0e0e0" stroke="#999999" points="280.5,-19 175.5,-19 175.5,0 280.5,0 280.5,-19"/>
<text text-anchor="middle" x="228" y="-7" font-family="Helvetica,sans-Serif" font-size="10.00">vulkan/vulkan.hpp</text>
</a>
</g>
</g>
<!-- Node7&#45;&gt;Node9 -->
<g id="edge8_Node000007_Node000009" class="edge">
<title>Node7&#45;&gt;Node9</title>
<g id="a_edge8_Node000007_Node000009"><a xlink:title=" ">
<path fill="none" stroke="#63b8ff" d="M188.76,-54.75C195.47,-47.18 205.34,-36.05 213.51,-26.84"/>
<polygon fill="#63b8ff" stroke="#63b8ff" points="216.37,-28.89 220.38,-19.09 211.13,-24.25 216.37,-28.89"/>
</a>
</g>
</g>
<!-- Node12&#45;&gt;Node3 -->
<g id="edge12_Node000012_Node000003" class="edge">
<title>Node12&#45;&gt;Node3</title>
<g id="a_edge12_Node000012_Node000003"><a xlink:title=" ">
<path fill="none" stroke="#63b8ff" d="M81.89,-274.98C103.08,-266.34 136.13,-252.87 160.3,-243.02"/>
<polygon fill="#63b8ff" stroke="#63b8ff" points="161.79,-246.19 169.73,-239.17 159.15,-239.7 161.79,-246.19"/>
</a>
</g>
</g>
<!-- Node12&#45;&gt;Node11 -->
<g id="edge13_Node000012_Node000011" class="edge">
<title>Node12&#45;&gt;Node11</title>
<g id="a_edge13_Node000012_Node000011"><a xlink:title=" ">
<path fill="none" stroke="#63b8ff" d="M61.99,-274.75C62.78,-267.8 63.9,-257.85 64.89,-249.13"/>
<polygon fill="#63b8ff" stroke="#63b8ff" points="68.38,-249.42 66.03,-239.09 61.42,-248.63 68.38,-249.42"/>
</a>
</g>
</g>
<!-- Node18 -->
<g id="Node000018" class="node">
<title>Node18</title>
<g id="a_Node000018"><a xlink:title=" ">
<polygon fill="#e0e0e0" stroke="#999999" points="693.5,-239 600.5,-239 600.5,-220 693.5,-220 693.5,-239"/>
<text text-anchor="middle" x="647" y="-227" font-family="Helvetica,sans-Serif" font-size="10.00">source_location</text>
</a>
</g>
</g>
<!-- Node17&#45;&gt;Node18 -->
<g id="edge19_Node000017_Node000018" class="edge">
<title>Node17&#45;&gt;Node18</title>
<g id="a_edge19_Node000017_Node000018"><a xlink:title=" ">
<path fill="none" stroke="#63b8ff" d="M728.42,-274.98C713.23,-266.69 689.9,-253.94 672.1,-244.22"/>
<polygon fill="#63b8ff" stroke="#63b8ff" points="673.32,-240.89 662.87,-239.17 669.97,-247.04 673.32,-240.89"/>
</a>
</g>
</g>
<!-- Node19 -->
<g id="Node000019" class="node">
<title>Node19</title>
<g id="a_Node000019"><a xlink:title=" ">
<polygon fill="#e0e0e0" stroke="#999999" points="776.5,-239 711.5,-239 711.5,-220 776.5,-220 776.5,-239"/>
<text text-anchor="middle" x="744" y="-227" font-family="Helvetica,sans-Serif" font-size="10.00">stdexcept</text>
</a>
</g>
</g>
<!-- Node17&#45;&gt;Node19 -->
<g id="edge20_Node000017_Node000019" class="edge">
<title>Node17&#45;&gt;Node19</title>
<g id="a_edge20_Node000017_Node000019"><a xlink:title=" ">
<path fill="none" stroke="#63b8ff" d="M744,-274.75C744,-267.8 744,-257.85 744,-249.13"/>
<polygon fill="#63b8ff" stroke="#63b8ff" points="747.5,-249.09 744,-239.09 740.5,-249.09 747.5,-249.09"/>
</a>
</g>
</g>
<!-- Node20 -->
<g id="Node000020" class="node">
<title>Node20</title>
<g id="a_Node000020"><a xlink:title=" ">
<polygon fill="#e0e0e0" stroke="#999999" points="839,-239 795,-239 795,-220 839,-220 839,-239"/>
<text text-anchor="middle" x="817" y="-227" font-family="Helvetica,sans-Serif" font-size="10.00">string</text>
</a>
</g>
</g>
<!-- Node17&#45;&gt;Node20 -->
<g id="edge21_Node000017_Node000020" class="edge">
<title>Node17&#45;&gt;Node20</title>
<g id="a_edge21_Node000017_Node000020"><a xlink:title=" ">
<path fill="none" stroke="#63b8ff" d="M755.73,-274.98C766.73,-267 783.42,-254.88 796.6,-245.31"/>
<polygon fill="#63b8ff" stroke="#63b8ff" points="799.02,-247.88 805.06,-239.17 794.91,-242.21 799.02,-247.88"/>
</a>
</g>
</g>
</g>
</svg>
