<?xml version="1.0" encoding="UTF-8" standalone="no"?>
<!DOCTYPE svg PUBLIC "-//W3C//DTD SVG 1.1//EN"
 "http://www.w3.org/Graphics/SVG/1.1/DTD/svg11.dtd">
<!-- Generated by graphviz version 2.43.0 (0)
 -->
<!-- Title: /home/harlen/dev/abcg/abcg/abcgEmbeddedFonts.hpp Pages: 1 -->
<svg width="352pt" height="104pt"
 viewBox="0.00 0.00 351.50 104.00" xmlns="http://www.w3.org/2000/svg" xmlns:xlink="http://www.w3.org/1999/xlink">
<g id="graph0" class="graph" transform="scale(1 1) rotate(0) translate(4 100)">
<title>/home/harlen/dev/abcg/abcg/abcgEmbeddedFonts.hpp</title>
<!-- Node1 -->
<g id="Node000001" class="node">
<title>Node1</title>
<g id="a_Node000001"><a xlink:title=" ">
<polygon fill="#999999" stroke="#666666" points="256.5,-96 88.5,-96 88.5,-66 256.5,-66 256.5,-96"/>
<text text-anchor="start" x="96.5" y="-84" font-family="Helvetica,sans-Serif" font-size="10.00">/home/harlen/dev/abcg</text>
<text text-anchor="middle" x="172.5" y="-73" font-family="Helvetica,sans-Serif" font-size="10.00">/abcg/abcgEmbeddedFonts.hpp</text>
</a>
</g>
</g>
<!-- Node2 -->
<g id="Node000002" class="node">
<title>Node2</title>
<g id="a_Node000002"><a xlink:href="abcgOpenGLWindow_8cpp.html" target="_top" xlink:title="Definition of abcg::OpenGLWindow members.">
<polygon fill="white" stroke="#666666" points="165,-30 0,-30 0,0 165,0 165,-30"/>
<text text-anchor="start" x="8" y="-18" font-family="Helvetica,sans-Serif" font-size="10.00">/home/harlen/dev/abcg</text>
<text text-anchor="middle" x="82.5" y="-7" font-family="Helvetica,sans-Serif" font-size="10.00">/abcg/abcgOpenGLWindow.cpp</text>
</a>
</g>
</g>
<!-- Node1&#45;&gt;Node2 -->
<g id="edge1_Node000001_Node000002" class="edge">
<title>Node1&#45;&gt;Node2</title>
<g id="a_edge1_Node000001_Node000002"><a xlink:title=" ">
<path fill="none" stroke="#63b8ff" d="M144.03,-59.75C130.49,-50.13 114.64,-38.86 102.42,-30.16"/>
<polygon fill="#63b8ff" stroke="#63b8ff" points="142.35,-62.85 152.53,-65.8 146.4,-57.15 142.35,-62.85"/>
</a>
</g>
</g>
<!-- Node3 -->
<g id="Node000003" class="node">
<title>Node3</title>
<g id="a_Node000003"><a xlink:href="abcgVulkanWindow_8cpp.html" target="_top" xlink:title="Definition of abcg::VulkanWindow members.">
<polygon fill="white" stroke="#666666" points="343.5,-30 183.5,-30 183.5,0 343.5,0 343.5,-30"/>
<text text-anchor="start" x="191.5" y="-18" font-family="Helvetica,sans-Serif" font-size="10.00">/home/harlen/dev/abcg</text>
<text text-anchor="middle" x="263.5" y="-7" font-family="Helvetica,sans-Serif" font-size="10.00">/abcg/abcgVulkanWindow.cpp</text>
</a>
</g>
</g>
<!-- Node1&#45;&gt;Node3 -->
<g id="edge2_Node000001_Node000003" class="edge">
<title>Node1&#45;&gt;Node3</title>
<g id="a_edge2_Node000001_Node000003"><a xlink:title=" ">
<path fill="none" stroke="#63b8ff" d="M200.9,-60.03C214.67,-50.34 230.88,-38.94 243.36,-30.16"/>
<polygon fill="#63b8ff" stroke="#63b8ff" points="198.86,-57.18 192.7,-65.8 202.89,-62.91 198.86,-57.18"/>
</a>
</g>
</g>
</g>
</svg>
