<?xml version="1.0" encoding="UTF-8" standalone="no"?>
<!DOCTYPE svg PUBLIC "-//W3C//DTD SVG 1.1//EN"
 "http://www.w3.org/Graphics/SVG/1.1/DTD/svg11.dtd">
<!-- Generated by graphviz version 2.43.0 (0)
 -->
<!-- Title: /home/harlen/dev/abcg/abcg/abcgUtil.hpp Pages: 1 -->
<svg width="841pt" height="236pt"
 viewBox="0.00 0.00 841.00 236.00" xmlns="http://www.w3.org/2000/svg" xmlns:xlink="http://www.w3.org/1999/xlink">
<g id="graph0" class="graph" transform="scale(1 1) rotate(0) translate(4 232)">
<title>/home/harlen/dev/abcg/abcg/abcgUtil.hpp</title>
<!-- Node1 -->
<g id="Node000001" class="node">
<title>Node1</title>
<g id="a_Node000001"><a xlink:title="Declaration of general utility functions.">
<polygon fill="#999999" stroke="#666666" points="514,-228 386,-228 386,-198 514,-198 514,-228"/>
<text text-anchor="start" x="394" y="-216" font-family="Helvetica,sans-Serif" font-size="10.00">/home/harlen/dev/abcg</text>
<text text-anchor="middle" x="450" y="-205" font-family="Helvetica,sans-Serif" font-size="10.00">/abcg/abcgUtil.hpp</text>
</a>
</g>
</g>
<!-- Node2 -->
<g id="Node000002" class="node">
<title>Node2</title>
<g id="a_Node000002"><a xlink:href="abcg_8hpp.html" target="_top" xlink:title="Shortcut header that includes the most common ABCg headers.">
<polygon fill="white" stroke="#666666" points="201,-162 73,-162 73,-132 201,-132 201,-162"/>
<text text-anchor="start" x="81" y="-150" font-family="Helvetica,sans-Serif" font-size="10.00">/home/harlen/dev/abcg</text>
<text text-anchor="middle" x="137" y="-139" font-family="Helvetica,sans-Serif" font-size="10.00">/abcg/abcg.hpp</text>
</a>
</g>
</g>
<!-- Node1&#45;&gt;Node2 -->
<g id="edge1_Node000001_Node000002" class="edge">
<title>Node1&#45;&gt;Node2</title>
<g id="a_edge1_Node000001_Node000002"><a xlink:title=" ">
<path fill="none" stroke="#63b8ff" d="M375.85,-196.84C322.66,-185.96 251.73,-171.46 201.01,-161.09"/>
<polygon fill="#63b8ff" stroke="#63b8ff" points="375.41,-200.32 385.9,-198.89 376.81,-193.46 375.41,-200.32"/>
</a>
</g>
</g>
<!-- Node6 -->
<g id="Node000006" class="node">
<title>Node6</title>
<g id="a_Node000006"><a xlink:href="abcgException_8cpp.html" target="_top" xlink:title="Definition of abcg::Exception members.">
<polygon fill="white" stroke="#666666" points="356.5,-162 219.5,-162 219.5,-132 356.5,-132 356.5,-162"/>
<text text-anchor="start" x="227.5" y="-150" font-family="Helvetica,sans-Serif" font-size="10.00">/home/harlen/dev/abcg</text>
<text text-anchor="middle" x="288" y="-139" font-family="Helvetica,sans-Serif" font-size="10.00">/abcg/abcgException.cpp</text>
</a>
</g>
</g>
<!-- Node1&#45;&gt;Node6 -->
<g id="edge5_Node000001_Node000006" class="edge">
<title>Node1&#45;&gt;Node6</title>
<g id="a_edge5_Node000001_Node000006"><a xlink:title=" ">
<path fill="none" stroke="#63b8ff" d="M404.91,-194.19C379.19,-184.02 347.4,-171.47 323.47,-162.01"/>
<polygon fill="#63b8ff" stroke="#63b8ff" points="403.86,-197.54 414.45,-197.95 406.43,-191.03 403.86,-197.54"/>
</a>
</g>
</g>
<!-- Node7 -->
<g id="Node000007" class="node">
<title>Node7</title>
<g id="a_Node000007"><a xlink:href="abcgOpenGLError_8cpp.html" target="_top" xlink:title="Definition of abcg::OpenGLError members.">
<polygon fill="white" stroke="#666666" points="525,-162 375,-162 375,-132 525,-132 525,-162"/>
<text text-anchor="start" x="383" y="-150" font-family="Helvetica,sans-Serif" font-size="10.00">/home/harlen/dev/abcg</text>
<text text-anchor="middle" x="450" y="-139" font-family="Helvetica,sans-Serif" font-size="10.00">/abcg/abcgOpenGLError.cpp</text>
</a>
</g>
</g>
<!-- Node1&#45;&gt;Node7 -->
<g id="edge6_Node000001_Node000007" class="edge">
<title>Node1&#45;&gt;Node7</title>
<g id="a_edge6_Node000001_Node000007"><a xlink:title=" ">
<path fill="none" stroke="#63b8ff" d="M450,-187.54C450,-178.96 450,-169.61 450,-162.16"/>
<polygon fill="#63b8ff" stroke="#63b8ff" points="446.5,-187.8 450,-197.8 453.5,-187.8 446.5,-187.8"/>
</a>
</g>
</g>
<!-- Node8 -->
<g id="Node000008" class="node">
<title>Node8</title>
<g id="a_Node000008"><a xlink:href="abcgUtil_8cpp.html" target="_top" xlink:title="General utility functions.">
<polygon fill="white" stroke="#666666" points="671,-162 543,-162 543,-132 671,-132 671,-162"/>
<text text-anchor="start" x="551" y="-150" font-family="Helvetica,sans-Serif" font-size="10.00">/home/harlen/dev/abcg</text>
<text text-anchor="middle" x="607" y="-139" font-family="Helvetica,sans-Serif" font-size="10.00">/abcg/abcgUtil.cpp</text>
</a>
</g>
</g>
<!-- Node1&#45;&gt;Node8 -->
<g id="edge7_Node000001_Node000008" class="edge">
<title>Node1&#45;&gt;Node8</title>
<g id="a_edge7_Node000001_Node000008"><a xlink:title=" ">
<path fill="none" stroke="#63b8ff" d="M494.02,-194.05C518.9,-183.91 549.53,-171.43 572.63,-162.01"/>
<polygon fill="#63b8ff" stroke="#63b8ff" points="492.39,-190.94 484.45,-197.95 495.04,-197.42 492.39,-190.94"/>
</a>
</g>
</g>
<!-- Node9 -->
<g id="Node000009" class="node">
<title>Node9</title>
<g id="a_Node000009"><a xlink:href="abcgVulkanError_8cpp.html" target="_top" xlink:title="Definition of abcg::VulkanError members.">
<polygon fill="white" stroke="#666666" points="833,-162 689,-162 689,-132 833,-132 833,-162"/>
<text text-anchor="start" x="697" y="-150" font-family="Helvetica,sans-Serif" font-size="10.00">/home/harlen/dev/abcg</text>
<text text-anchor="middle" x="761" y="-139" font-family="Helvetica,sans-Serif" font-size="10.00">/abcg/abcgVulkanError.cpp</text>
</a>
</g>
</g>
<!-- Node1&#45;&gt;Node9 -->
<g id="edge8_Node000001_Node000009" class="edge">
<title>Node1&#45;&gt;Node9</title>
<g id="a_edge8_Node000001_Node000009"><a xlink:title=" ">
<path fill="none" stroke="#63b8ff" d="M524.07,-196.76C575.25,-186.22 642.83,-172.32 692.71,-162.05"/>
<polygon fill="#63b8ff" stroke="#63b8ff" points="523.15,-193.37 514.06,-198.82 524.56,-200.23 523.15,-193.37"/>
</a>
</g>
</g>
<!-- Node3 -->
<g id="Node000003" class="node">
<title>Node3</title>
<g id="a_Node000003"><a xlink:href="abcgOpenGL_8hpp.html" target="_top" xlink:title="Header file for OpenGL&#45;related functions and classes.">
<polygon fill="white" stroke="#666666" points="128,-96 0,-96 0,-66 128,-66 128,-96"/>
<text text-anchor="start" x="8" y="-84" font-family="Helvetica,sans-Serif" font-size="10.00">/home/harlen/dev/abcg</text>
<text text-anchor="middle" x="64" y="-73" font-family="Helvetica,sans-Serif" font-size="10.00">/abcg/abcgOpenGL.hpp</text>
</a>
</g>
</g>
<!-- Node2&#45;&gt;Node3 -->
<g id="edge2_Node000002_Node000003" class="edge">
<title>Node2&#45;&gt;Node3</title>
<g id="a_edge2_Node000002_Node000003"><a xlink:title=" ">
<path fill="none" stroke="#63b8ff" d="M113.28,-125.2C102.44,-115.7 89.88,-104.69 80.16,-96.16"/>
<polygon fill="#63b8ff" stroke="#63b8ff" points="110.97,-127.84 120.8,-131.8 115.59,-122.57 110.97,-127.84"/>
</a>
</g>
</g>
<!-- Node4 -->
<g id="Node000004" class="node">
<title>Node4</title>
<g id="a_Node000004"><a xlink:href="abcgVulkan_8hpp.html" target="_top" xlink:title="Header file for Vulkan&#45;related functions and classes.">
<polygon fill="white" stroke="#666666" points="274,-96 146,-96 146,-66 274,-66 274,-96"/>
<text text-anchor="start" x="154" y="-84" font-family="Helvetica,sans-Serif" font-size="10.00">/home/harlen/dev/abcg</text>
<text text-anchor="middle" x="210" y="-73" font-family="Helvetica,sans-Serif" font-size="10.00">/abcg/abcgVulkan.hpp</text>
</a>
</g>
</g>
<!-- Node2&#45;&gt;Node4 -->
<g id="edge3_Node000002_Node000004" class="edge">
<title>Node2&#45;&gt;Node4</title>
<g id="a_edge3_Node000002_Node000004"><a xlink:title=" ">
<path fill="none" stroke="#63b8ff" d="M160.72,-125.2C171.56,-115.7 184.12,-104.69 193.84,-96.16"/>
<polygon fill="#63b8ff" stroke="#63b8ff" points="158.41,-122.57 153.2,-131.8 163.03,-127.84 158.41,-122.57"/>
</a>
</g>
</g>
<!-- Node5 -->
<g id="Node000005" class="node">
<title>Node5</title>
<g id="a_Node000005"><a xlink:href="abcgVulkanInstance_8cpp.html" target="_top" xlink:title="Definition of abcg::VulkanInstance.">
<polygon fill="white" stroke="#666666" points="291.5,-30 128.5,-30 128.5,0 291.5,0 291.5,-30"/>
<text text-anchor="start" x="136.5" y="-18" font-family="Helvetica,sans-Serif" font-size="10.00">/home/harlen/dev/abcg</text>
<text text-anchor="middle" x="210" y="-7" font-family="Helvetica,sans-Serif" font-size="10.00">/abcg/abcgVulkanInstance.cpp</text>
</a>
</g>
</g>
<!-- Node4&#45;&gt;Node5 -->
<g id="edge4_Node000004_Node000005" class="edge">
<title>Node4&#45;&gt;Node5</title>
<g id="a_edge4_Node000004_Node000005"><a xlink:title=" ">
<path fill="none" stroke="#63b8ff" d="M210,-55.54C210,-46.96 210,-37.61 210,-30.16"/>
<polygon fill="#63b8ff" stroke="#63b8ff" points="206.5,-55.8 210,-65.8 213.5,-55.8 206.5,-55.8"/>
</a>
</g>
</g>
</g>
</svg>
