<?xml version="1.0" encoding="UTF-8" standalone="no"?>
<!DOCTYPE svg PUBLIC "-//W3C//DTD SVG 1.1//EN"
 "http://www.w3.org/Graphics/SVG/1.1/DTD/svg11.dtd">
<!-- Generated by graphviz version 2.43.0 (0)
 -->
<!-- Title: /home/harlen/dev/abcg/abcg/abcgOpenGL.hpp Pages: 1 -->
<svg width="1256pt" height="263pt"
 viewBox="0.00 0.00 1256.00 263.00" xmlns="http://www.w3.org/2000/svg" xmlns:xlink="http://www.w3.org/1999/xlink">
<g id="graph0" class="graph" transform="scale(1 1) rotate(0) translate(4 259)">
<title>/home/harlen/dev/abcg/abcg/abcgOpenGL.hpp</title>
<!-- Node1 -->
<g id="node1" class="node">
<title>Node1</title>
<g id="a_node1"><a xlink:title="Header file for OpenGL&#45;related functions and classes.">
<polygon fill="#bfbfbf" stroke="black" points="593,-224.5 593,-254.5 721,-254.5 721,-224.5 593,-224.5"/>
<text text-anchor="start" x="601" y="-242.5" font-family="Helvetica,sans-Serif" font-size="10.00">/home/harlen/dev/abcg</text>
<text text-anchor="middle" x="657" y="-231.5" font-family="Helvetica,sans-Serif" font-size="10.00">/abcg/abcgOpenGL.hpp</text>
</a>
</g>
</g>
<!-- Node2 -->
<g id="node2" class="node">
<title>Node2</title>
<g id="a_node2"><a xlink:href="abcg_8hpp.html" target="_top" xlink:title="Shortcut header that includes the most common ABCg headers.">
<polygon fill="none" stroke="black" points="275.5,-168.5 275.5,-187.5 336.5,-187.5 336.5,-168.5 275.5,-168.5"/>
<text text-anchor="middle" x="306" y="-175.5" font-family="Helvetica,sans-Serif" font-size="10.00">abcg.hpp</text>
</a>
</g>
</g>
<!-- Node1&#45;&gt;Node2 -->
<g id="edge1" class="edge">
<title>Node1&#45;&gt;Node2</title>
<path fill="none" stroke="midnightblue" d="M592.62,-227.59C520.78,-215.41 406.73,-196.08 346.44,-185.86"/>
<polygon fill="midnightblue" stroke="midnightblue" points="346.98,-182.4 336.53,-184.18 345.81,-189.3 346.98,-182.4"/>
</g>
<!-- Node15 -->
<g id="node15" class="node">
<title>Node15</title>
<g id="a_node15"><a xlink:href="abcgOpenGLImage_8hpp.html" target="_top" xlink:title="Declaration of OpenGL texture loading helper functions.">
<polygon fill="none" stroke="black" points="1086,-112.5 1086,-131.5 1216,-131.5 1216,-112.5 1086,-112.5"/>
<text text-anchor="middle" x="1151" y="-119.5" font-family="Helvetica,sans-Serif" font-size="10.00">abcgOpenGLImage.hpp</text>
</a>
</g>
</g>
<!-- Node1&#45;&gt;Node15 -->
<g id="edge19" class="edge">
<title>Node1&#45;&gt;Node15</title>
<path fill="none" stroke="midnightblue" d="M721.2,-226.73C772.06,-217.14 844.81,-202.79 908,-188 980.45,-171.04 1064.1,-147.86 1111.95,-134.26"/>
<polygon fill="midnightblue" stroke="midnightblue" points="1112.94,-137.61 1121.6,-131.51 1111.02,-130.88 1112.94,-137.61"/>
</g>
<!-- Node19 -->
<g id="node19" class="node">
<title>Node19</title>
<g id="a_node19"><a xlink:href="abcgOpenGLShader_8hpp.html" target="_top" xlink:title="Declaration of helper functions for building OpenGL shaders.">
<polygon fill="none" stroke="black" points="767,-168.5 767,-187.5 899,-187.5 899,-168.5 767,-168.5"/>
<text text-anchor="middle" x="833" y="-175.5" font-family="Helvetica,sans-Serif" font-size="10.00">abcgOpenGLShader.hpp</text>
</a>
</g>
</g>
<!-- Node1&#45;&gt;Node19 -->
<g id="edge23" class="edge">
<title>Node1&#45;&gt;Node19</title>
<path fill="none" stroke="midnightblue" d="M698.71,-224.4C728.99,-214.16 769.49,-200.47 798.07,-190.81"/>
<polygon fill="midnightblue" stroke="midnightblue" points="799.3,-194.09 807.65,-187.57 797.05,-187.46 799.3,-194.09"/>
</g>
<!-- Node23 -->
<g id="node23" class="node">
<title>Node23</title>
<g id="a_node23"><a xlink:href="abcgOpenGLWindow_8hpp.html" target="_top" xlink:title="Header file of abcg::OpenGLWindow.">
<polygon fill="none" stroke="black" points="487.5,-168.5 487.5,-187.5 624.5,-187.5 624.5,-168.5 487.5,-168.5"/>
<text text-anchor="middle" x="556" y="-175.5" font-family="Helvetica,sans-Serif" font-size="10.00">abcgOpenGLWindow.hpp</text>
</a>
</g>
</g>
<!-- Node1&#45;&gt;Node23 -->
<g id="edge29" class="edge">
<title>Node1&#45;&gt;Node23</title>
<path fill="none" stroke="midnightblue" d="M633.06,-224.4C616.87,-214.86 595.59,-202.32 579.5,-192.84"/>
<polygon fill="midnightblue" stroke="midnightblue" points="581.09,-189.72 570.7,-187.66 577.54,-195.75 581.09,-189.72"/>
</g>
<!-- Node3 -->
<g id="node3" class="node">
<title>Node3</title>
<g id="a_node3"><a xlink:href="abcgApplication_8hpp.html" target="_top" xlink:title="Header file of abcg::Application.">
<polygon fill="none" stroke="black" points="374,-112.5 374,-131.5 490,-131.5 490,-112.5 374,-112.5"/>
<text text-anchor="middle" x="432" y="-119.5" font-family="Helvetica,sans-Serif" font-size="10.00">abcgApplication.hpp</text>
</a>
</g>
</g>
<!-- Node2&#45;&gt;Node3 -->
<g id="edge2" class="edge">
<title>Node2&#45;&gt;Node3</title>
<path fill="none" stroke="midnightblue" d="M325.97,-168.44C346.61,-159.6 379.06,-145.69 402.63,-135.59"/>
<polygon fill="midnightblue" stroke="midnightblue" points="404.32,-138.67 412.13,-131.52 401.56,-132.24 404.32,-138.67"/>
</g>
<!-- Node5 -->
<g id="node5" class="node">
<title>Node5</title>
<g id="a_node5"><a xlink:href="abcgException_8hpp.html" target="_top" xlink:title="Header file of abcg::Exception and derived classes.">
<polygon fill="none" stroke="black" points="584.5,-112.5 584.5,-131.5 693.5,-131.5 693.5,-112.5 584.5,-112.5"/>
<text text-anchor="middle" x="639" y="-119.5" font-family="Helvetica,sans-Serif" font-size="10.00">abcgException.hpp</text>
</a>
</g>
</g>
<!-- Node2&#45;&gt;Node5 -->
<g id="edge4" class="edge">
<title>Node2&#45;&gt;Node5</title>
<path fill="none" stroke="midnightblue" d="M336.73,-172.02C390.98,-163.22 504.73,-144.77 576.17,-133.19"/>
<polygon fill="midnightblue" stroke="midnightblue" points="577.09,-136.59 586.4,-131.53 575.96,-129.68 577.09,-136.59"/>
</g>
<!-- Node8 -->
<g id="node8" class="node">
<title>Node8</title>
<g id="a_node8"><a xlink:href="abcgExternal_8hpp.html" target="_top" xlink:title="Header file for including third&#45;party dependencies.">
<polygon fill="none" stroke="black" points="244.5,-56.5 244.5,-75.5 345.5,-75.5 345.5,-56.5 244.5,-56.5"/>
<text text-anchor="middle" x="295" y="-63.5" font-family="Helvetica,sans-Serif" font-size="10.00">abcgExternal.hpp</text>
</a>
</g>
</g>
<!-- Node2&#45;&gt;Node8 -->
<g id="edge8" class="edge">
<title>Node2&#45;&gt;Node8</title>
<path fill="none" stroke="midnightblue" d="M287.61,-168.47C273.9,-161 256.19,-148.71 248,-132 238.82,-113.26 256.5,-94.18 272.73,-81.59"/>
<polygon fill="midnightblue" stroke="midnightblue" points="274.9,-84.33 280.94,-75.63 270.79,-78.67 274.9,-84.33"/>
</g>
<!-- Node9 -->
<g id="node9" class="node">
<title>Node9</title>
<g id="a_node9"><a xlink:href="abcgTrackball_8hpp.html" target="_top" xlink:title="Header file of abcg::TrackBall.">
<polygon fill="none" stroke="black" points="96,-112.5 96,-131.5 200,-131.5 200,-112.5 96,-112.5"/>
<text text-anchor="middle" x="148" y="-119.5" font-family="Helvetica,sans-Serif" font-size="10.00">abcgTrackball.hpp</text>
</a>
</g>
</g>
<!-- Node2&#45;&gt;Node9 -->
<g id="edge9" class="edge">
<title>Node2&#45;&gt;Node9</title>
<path fill="none" stroke="midnightblue" d="M280.96,-168.44C254.38,-159.36 212.19,-144.94 182.48,-134.78"/>
<polygon fill="midnightblue" stroke="midnightblue" points="183.51,-131.44 172.92,-131.52 181.25,-138.06 183.51,-131.44"/>
</g>
<!-- Node12 -->
<g id="node12" class="node">
<title>Node12</title>
<g id="a_node12"><a xlink:href="abcgUtil_8hpp.html" target="_top" xlink:title="Declaration of general utility functions.">
<polygon fill="none" stroke="black" points="0,-112.5 0,-131.5 78,-131.5 78,-112.5 0,-112.5"/>
<text text-anchor="middle" x="39" y="-119.5" font-family="Helvetica,sans-Serif" font-size="10.00">abcgUtil.hpp</text>
</a>
</g>
</g>
<!-- Node2&#45;&gt;Node12 -->
<g id="edge13" class="edge">
<title>Node2&#45;&gt;Node12</title>
<path fill="none" stroke="midnightblue" d="M275.37,-170.81C229.59,-161.55 142.87,-144.01 88.16,-132.94"/>
<polygon fill="midnightblue" stroke="midnightblue" points="88.82,-129.51 78.33,-130.95 87.44,-136.37 88.82,-129.51"/>
</g>
<!-- Node14 -->
<g id="node14" class="node">
<title>Node14</title>
<g id="a_node14"><a xlink:href="abcgWindow_8hpp.html" target="_top" xlink:title="Header file of abcg::Window.">
<polygon fill="none" stroke="black" points="256.5,-112.5 256.5,-131.5 355.5,-131.5 355.5,-112.5 256.5,-112.5"/>
<text text-anchor="middle" x="306" y="-119.5" font-family="Helvetica,sans-Serif" font-size="10.00">abcgWindow.hpp</text>
</a>
</g>
</g>
<!-- Node2&#45;&gt;Node14 -->
<g id="edge15" class="edge">
<title>Node2&#45;&gt;Node14</title>
<path fill="none" stroke="midnightblue" d="M306,-168.08C306,-161.01 306,-150.86 306,-141.99"/>
<polygon fill="midnightblue" stroke="midnightblue" points="309.5,-141.75 306,-131.75 302.5,-141.75 309.5,-141.75"/>
</g>
<!-- Node4 -->
<g id="node4" class="node">
<title>Node4</title>
<g id="a_node4"><a xlink:title=" ">
<polygon fill="none" stroke="#bfbfbf" points="534,-56.5 534,-75.5 578,-75.5 578,-56.5 534,-56.5"/>
<text text-anchor="middle" x="556" y="-63.5" font-family="Helvetica,sans-Serif" font-size="10.00">string</text>
</a>
</g>
</g>
<!-- Node3&#45;&gt;Node4 -->
<g id="edge3" class="edge">
<title>Node3&#45;&gt;Node4</title>
<path fill="none" stroke="midnightblue" d="M451.65,-112.44C471.96,-103.6 503.9,-89.69 527.1,-79.59"/>
<polygon fill="midnightblue" stroke="midnightblue" points="528.67,-82.72 536.44,-75.52 525.88,-76.3 528.67,-82.72"/>
</g>
<!-- Node5&#45;&gt;Node4 -->
<g id="edge7" class="edge">
<title>Node5&#45;&gt;Node4</title>
<path fill="none" stroke="midnightblue" d="M625.66,-112.32C612.84,-103.98 593.22,-91.21 578.06,-81.35"/>
<polygon fill="midnightblue" stroke="midnightblue" points="579.59,-78.17 569.3,-75.65 575.78,-84.04 579.59,-78.17"/>
</g>
<!-- Node6 -->
<g id="node6" class="node">
<title>Node6</title>
<g id="a_node6"><a xlink:title=" ">
<polygon fill="none" stroke="#bfbfbf" points="757.5,-56.5 757.5,-75.5 850.5,-75.5 850.5,-56.5 757.5,-56.5"/>
<text text-anchor="middle" x="804" y="-63.5" font-family="Helvetica,sans-Serif" font-size="10.00">source_location</text>
</a>
</g>
</g>
<!-- Node5&#45;&gt;Node6 -->
<g id="edge5" class="edge">
<title>Node5&#45;&gt;Node6</title>
<path fill="none" stroke="midnightblue" d="M665.14,-112.44C693.02,-103.32 737.35,-88.81 768.4,-78.65"/>
<polygon fill="midnightblue" stroke="midnightblue" points="769.56,-81.95 777.98,-75.52 767.38,-75.3 769.56,-81.95"/>
</g>
<!-- Node7 -->
<g id="node7" class="node">
<title>Node7</title>
<g id="a_node7"><a xlink:title=" ">
<polygon fill="none" stroke="#bfbfbf" points="599.5,-56.5 599.5,-75.5 664.5,-75.5 664.5,-56.5 599.5,-56.5"/>
<text text-anchor="middle" x="632" y="-63.5" font-family="Helvetica,sans-Serif" font-size="10.00">stdexcept</text>
</a>
</g>
</g>
<!-- Node5&#45;&gt;Node7 -->
<g id="edge6" class="edge">
<title>Node5&#45;&gt;Node7</title>
<path fill="none" stroke="midnightblue" d="M637.84,-112.08C636.92,-104.93 635.58,-94.64 634.42,-85.69"/>
<polygon fill="midnightblue" stroke="midnightblue" points="637.89,-85.22 633.13,-75.75 630.95,-86.12 637.89,-85.22"/>
</g>
<!-- Node9&#45;&gt;Node8 -->
<g id="edge10" class="edge">
<title>Node9&#45;&gt;Node8</title>
<path fill="none" stroke="midnightblue" d="M171.29,-112.44C195.81,-103.44 234.6,-89.19 262.2,-79.05"/>
<polygon fill="midnightblue" stroke="midnightblue" points="263.64,-82.25 271.82,-75.52 261.22,-75.68 263.64,-82.25"/>
</g>
<!-- Node10 -->
<g id="node10" class="node">
<title>Node10</title>
<g id="a_node10"><a xlink:href="abcgTimer_8hpp.html" target="_top" xlink:title="Header file of abcg::Timer.">
<polygon fill="none" stroke="black" points="125.5,-56.5 125.5,-75.5 214.5,-75.5 214.5,-56.5 125.5,-56.5"/>
<text text-anchor="middle" x="170" y="-63.5" font-family="Helvetica,sans-Serif" font-size="10.00">abcgTimer.hpp</text>
</a>
</g>
</g>
<!-- Node9&#45;&gt;Node10 -->
<g id="edge11" class="edge">
<title>Node9&#45;&gt;Node10</title>
<path fill="none" stroke="midnightblue" d="M151.63,-112.08C154.61,-104.77 158.93,-94.18 162.62,-85.1"/>
<polygon fill="midnightblue" stroke="midnightblue" points="165.9,-86.33 166.43,-75.75 159.42,-83.69 165.9,-86.33"/>
</g>
<!-- Node11 -->
<g id="node11" class="node">
<title>Node11</title>
<g id="a_node11"><a xlink:title=" ">
<polygon fill="none" stroke="#bfbfbf" points="145,-0.5 145,-19.5 195,-19.5 195,-0.5 145,-0.5"/>
<text text-anchor="middle" x="170" y="-7.5" font-family="Helvetica,sans-Serif" font-size="10.00">chrono</text>
</a>
</g>
</g>
<!-- Node10&#45;&gt;Node11 -->
<g id="edge12" class="edge">
<title>Node10&#45;&gt;Node11</title>
<path fill="none" stroke="midnightblue" d="M170,-56.08C170,-49.01 170,-38.86 170,-29.99"/>
<polygon fill="midnightblue" stroke="midnightblue" points="173.5,-29.75 170,-19.75 166.5,-29.75 173.5,-29.75"/>
</g>
<!-- Node13 -->
<g id="node13" class="node">
<title>Node13</title>
<g id="a_node13"><a xlink:title=" ">
<polygon fill="none" stroke="#bfbfbf" points="6.5,-56.5 6.5,-75.5 71.5,-75.5 71.5,-56.5 6.5,-56.5"/>
<text text-anchor="middle" x="39" y="-63.5" font-family="Helvetica,sans-Serif" font-size="10.00">functional</text>
</a>
</g>
</g>
<!-- Node12&#45;&gt;Node13 -->
<g id="edge14" class="edge">
<title>Node12&#45;&gt;Node13</title>
<path fill="none" stroke="midnightblue" d="M39,-112.08C39,-105.01 39,-94.86 39,-85.99"/>
<polygon fill="midnightblue" stroke="midnightblue" points="42.5,-85.75 39,-75.75 35.5,-85.75 42.5,-85.75"/>
</g>
<!-- Node14&#45;&gt;Node4 -->
<g id="edge16" class="edge">
<title>Node14&#45;&gt;Node4</title>
<path fill="none" stroke="midnightblue" d="M345.61,-112.44C394.92,-101.79 478.17,-83.81 523.77,-73.96"/>
<polygon fill="midnightblue" stroke="midnightblue" points="524.67,-77.35 533.7,-71.82 523.19,-70.51 524.67,-77.35"/>
</g>
<!-- Node14&#45;&gt;Node8 -->
<g id="edge17" class="edge">
<title>Node14&#45;&gt;Node8</title>
<path fill="none" stroke="midnightblue" d="M304.18,-112.08C302.73,-104.93 300.63,-94.64 298.81,-85.69"/>
<polygon fill="midnightblue" stroke="midnightblue" points="302.21,-84.85 296.78,-75.75 295.35,-86.25 302.21,-84.85"/>
</g>
<!-- Node14&#45;&gt;Node10 -->
<g id="edge18" class="edge">
<title>Node14&#45;&gt;Node10</title>
<path fill="none" stroke="midnightblue" d="M284.45,-112.44C261.97,-103.52 226.51,-89.44 201.02,-79.32"/>
<polygon fill="midnightblue" stroke="midnightblue" points="202.03,-75.95 191.45,-75.52 199.45,-82.46 202.03,-75.95"/>
</g>
<!-- Node16 -->
<g id="node16" class="node">
<title>Node16</title>
<g id="a_node16"><a xlink:href="abcgOpenGLExternal_8hpp.html" target="_top" xlink:title="Header file for including OpenGL&#45;related third&#45;party dependencies.">
<polygon fill="none" stroke="black" points="956,-56.5 956,-75.5 1096,-75.5 1096,-56.5 956,-56.5"/>
<text text-anchor="middle" x="1026" y="-63.5" font-family="Helvetica,sans-Serif" font-size="10.00">abcgOpenGLExternal.hpp</text>
</a>
</g>
</g>
<!-- Node15&#45;&gt;Node16 -->
<g id="edge20" class="edge">
<title>Node15&#45;&gt;Node16</title>
<path fill="none" stroke="midnightblue" d="M1131.19,-112.44C1110.71,-103.6 1078.52,-89.69 1055.14,-79.59"/>
<polygon fill="midnightblue" stroke="midnightblue" points="1056.28,-76.27 1045.71,-75.52 1053.51,-82.7 1056.28,-76.27"/>
</g>
<!-- Node17 -->
<g id="node17" class="node">
<title>Node17</title>
<g id="a_node17"><a xlink:title=" ">
<polygon fill="none" stroke="#bfbfbf" points="1206,-56.5 1206,-75.5 1248,-75.5 1248,-56.5 1206,-56.5"/>
<text text-anchor="middle" x="1227" y="-63.5" font-family="Helvetica,sans-Serif" font-size="10.00">array</text>
</a>
</g>
</g>
<!-- Node15&#45;&gt;Node17 -->
<g id="edge21" class="edge">
<title>Node15&#45;&gt;Node17</title>
<path fill="none" stroke="midnightblue" d="M1163.21,-112.32C1174.78,-104.11 1192.38,-91.6 1206.16,-81.81"/>
<polygon fill="midnightblue" stroke="midnightblue" points="1208.44,-84.48 1214.57,-75.83 1204.39,-78.77 1208.44,-84.48"/>
</g>
<!-- Node18 -->
<g id="node18" class="node">
<title>Node18</title>
<g id="a_node18"><a xlink:title=" ">
<polygon fill="none" stroke="#bfbfbf" points="1114.5,-56.5 1114.5,-75.5 1187.5,-75.5 1187.5,-56.5 1114.5,-56.5"/>
<text text-anchor="middle" x="1151" y="-63.5" font-family="Helvetica,sans-Serif" font-size="10.00">string_view</text>
</a>
</g>
</g>
<!-- Node15&#45;&gt;Node18 -->
<g id="edge22" class="edge">
<title>Node15&#45;&gt;Node18</title>
<path fill="none" stroke="midnightblue" d="M1151,-112.08C1151,-105.01 1151,-94.86 1151,-85.99"/>
<polygon fill="midnightblue" stroke="midnightblue" points="1154.5,-85.75 1151,-75.75 1147.5,-85.75 1154.5,-85.75"/>
</g>
<!-- Node19&#45;&gt;Node16 -->
<g id="edge24" class="edge">
<title>Node19&#45;&gt;Node16</title>
<path fill="none" stroke="midnightblue" d="M899.26,-171.42C952.66,-165.39 1021.61,-153.6 1039,-132 1049.79,-118.6 1043.54,-98.68 1036.48,-84.43"/>
<polygon fill="midnightblue" stroke="midnightblue" points="1039.53,-82.71 1031.66,-75.62 1033.39,-86.07 1039.53,-82.71"/>
</g>
<!-- Node20 -->
<g id="node20" class="node">
<title>Node20</title>
<g id="a_node20"><a xlink:href="abcgShader_8hpp.html" target="_top" xlink:title="Declaration of a structure for building shaders.">
<polygon fill="none" stroke="black" points="712,-112.5 712,-131.5 806,-131.5 806,-112.5 712,-112.5"/>
<text text-anchor="middle" x="759" y="-119.5" font-family="Helvetica,sans-Serif" font-size="10.00">abcgShader.hpp</text>
</a>
</g>
</g>
<!-- Node19&#45;&gt;Node20 -->
<g id="edge25" class="edge">
<title>Node19&#45;&gt;Node20</title>
<path fill="none" stroke="midnightblue" d="M821.11,-168.32C809.85,-160.11 792.71,-147.6 779.29,-137.81"/>
<polygon fill="midnightblue" stroke="midnightblue" points="781.25,-134.9 771.11,-131.83 777.12,-140.56 781.25,-134.9"/>
</g>
<!-- Node22 -->
<g id="node22" class="node">
<title>Node22</title>
<g id="a_node22"><a xlink:title=" ">
<polygon fill="none" stroke="#bfbfbf" points="982.5,-112.5 982.5,-131.5 1029.5,-131.5 1029.5,-112.5 982.5,-112.5"/>
<text text-anchor="middle" x="1006" y="-119.5" font-family="Helvetica,sans-Serif" font-size="10.00">vector</text>
</a>
</g>
</g>
<!-- Node19&#45;&gt;Node22 -->
<g id="edge28" class="edge">
<title>Node19&#45;&gt;Node22</title>
<path fill="none" stroke="midnightblue" d="M860.41,-168.44C890.89,-158.93 940.12,-143.56 972.77,-133.37"/>
<polygon fill="midnightblue" stroke="midnightblue" points="973.83,-136.71 982.33,-130.39 971.74,-130.03 973.83,-136.71"/>
</g>
<!-- Node20&#45;&gt;Node4 -->
<g id="edge27" class="edge">
<title>Node20&#45;&gt;Node4</title>
<path fill="none" stroke="midnightblue" d="M726.83,-112.44C688.82,-102.33 625.95,-85.61 588.01,-75.51"/>
<polygon fill="midnightblue" stroke="midnightblue" points="588.57,-72.04 578.01,-72.85 586.77,-78.81 588.57,-72.04"/>
</g>
<!-- Node21 -->
<g id="node21" class="node">
<title>Node21</title>
<g id="a_node21"><a xlink:title=" ">
<polygon fill="none" stroke="#bfbfbf" points="683,-56.5 683,-75.5 739,-75.5 739,-56.5 683,-56.5"/>
<text text-anchor="middle" x="711" y="-63.5" font-family="Helvetica,sans-Serif" font-size="10.00">optional</text>
</a>
</g>
</g>
<!-- Node20&#45;&gt;Node21 -->
<g id="edge26" class="edge">
<title>Node20&#45;&gt;Node21</title>
<path fill="none" stroke="midnightblue" d="M751.07,-112.08C744.15,-104.3 733.93,-92.8 725.55,-83.37"/>
<polygon fill="midnightblue" stroke="midnightblue" points="728.04,-80.9 718.78,-75.75 722.81,-85.55 728.04,-80.9"/>
</g>
<!-- Node23&#45;&gt;Node4 -->
<g id="edge30" class="edge">
<title>Node23&#45;&gt;Node4</title>
<path fill="none" stroke="midnightblue" d="M556,-168.37C556,-150.62 556,-109.67 556,-85.6"/>
<polygon fill="midnightblue" stroke="midnightblue" points="559.5,-85.59 556,-75.59 552.5,-85.59 559.5,-85.59"/>
</g>
<!-- Node23&#45;&gt;Node8 -->
<g id="edge31" class="edge">
<title>Node23&#45;&gt;Node8</title>
<path fill="none" stroke="midnightblue" d="M550.94,-168.27C542.23,-154.08 523.03,-126.21 499,-112 455.21,-86.11 398.17,-75.08 355.54,-70.4"/>
<polygon fill="midnightblue" stroke="midnightblue" points="355.88,-66.92 345.58,-69.39 355.18,-73.88 355.88,-66.92"/>
</g>
<!-- Node23&#45;&gt;Node14 -->
<g id="edge37" class="edge">
<title>Node23&#45;&gt;Node14</title>
<path fill="none" stroke="midnightblue" d="M516.39,-168.44C472.77,-159.02 402.6,-143.87 355.42,-133.68"/>
<polygon fill="midnightblue" stroke="midnightblue" points="355.94,-130.21 345.43,-131.52 354.46,-137.05 355.94,-130.21"/>
</g>
<!-- Node24 -->
<g id="node24" class="node">
<title>Node24</title>
<g id="a_node24"><a xlink:href="abcgOpenGLFunction_8hpp.html" target="_top" xlink:title="Declaration of OpenGL&#45;related error checking functions.">
<polygon fill="none" stroke="black" points="824,-112.5 824,-131.5 964,-131.5 964,-112.5 824,-112.5"/>
<text text-anchor="middle" x="894" y="-119.5" font-family="Helvetica,sans-Serif" font-size="10.00">abcgOpenGLFunction.hpp</text>
</a>
</g>
</g>
<!-- Node23&#45;&gt;Node24 -->
<g id="edge32" class="edge">
<title>Node23&#45;&gt;Node24</title>
<path fill="none" stroke="midnightblue" d="M609.56,-168.44C669.63,-158.85 766.99,-143.29 830.76,-133.1"/>
<polygon fill="midnightblue" stroke="midnightblue" points="831.37,-136.55 840.69,-131.52 830.27,-129.64 831.37,-136.55"/>
</g>
<!-- Node24&#45;&gt;Node6 -->
<g id="edge33" class="edge">
<title>Node24&#45;&gt;Node6</title>
<path fill="none" stroke="midnightblue" d="M879.54,-112.32C865.5,-103.9 843.95,-90.97 827.46,-81.07"/>
<polygon fill="midnightblue" stroke="midnightblue" points="828.8,-77.8 818.42,-75.65 825.2,-83.8 828.8,-77.8"/>
</g>
<!-- Node24&#45;&gt;Node16 -->
<g id="edge36" class="edge">
<title>Node24&#45;&gt;Node16</title>
<path fill="none" stroke="midnightblue" d="M914.92,-112.44C936.74,-103.52 971.15,-89.44 995.89,-79.32"/>
<polygon fill="midnightblue" stroke="midnightblue" points="997.25,-82.54 1005.18,-75.52 994.6,-76.06 997.25,-82.54"/>
</g>
<!-- Node24&#45;&gt;Node18 -->
<g id="edge34" class="edge">
<title>Node24&#45;&gt;Node18</title>
<path fill="none" stroke="midnightblue" d="M934.72,-112.44C980.84,-102.75 1055.85,-86.99 1104.3,-76.81"/>
<polygon fill="midnightblue" stroke="midnightblue" points="1105.15,-80.21 1114.22,-74.73 1103.71,-73.36 1105.15,-80.21"/>
</g>
<!-- Node25 -->
<g id="node25" class="node">
<title>Node25</title>
<g id="a_node25"><a xlink:title=" ">
<polygon fill="none" stroke="#bfbfbf" points="868.5,-56.5 868.5,-75.5 937.5,-75.5 937.5,-56.5 868.5,-56.5"/>
<text text-anchor="middle" x="903" y="-63.5" font-family="Helvetica,sans-Serif" font-size="10.00">type_traits</text>
</a>
</g>
</g>
<!-- Node24&#45;&gt;Node25 -->
<g id="edge35" class="edge">
<title>Node24&#45;&gt;Node25</title>
<path fill="none" stroke="midnightblue" d="M895.49,-112.08C896.68,-104.93 898.39,-94.64 899.88,-85.69"/>
<polygon fill="midnightblue" stroke="midnightblue" points="903.35,-86.19 901.54,-75.75 896.45,-85.04 903.35,-86.19"/>
</g>
</g>
</svg>
