<?xml version="1.0" encoding="UTF-8" standalone="no"?>
<!DOCTYPE svg PUBLIC "-//W3C//DTD SVG 1.1//EN"
 "http://www.w3.org/Graphics/SVG/1.1/DTD/svg11.dtd">
<!-- Generated by graphviz version 2.43.0 (0)
 -->
<!-- Title: /home/harlen/dev/abcg2/abcg/abcg_vulkan_swapchain.hpp Pages: 1 -->
<svg width="279pt" height="151pt"
 viewBox="0.00 0.00 278.50 151.00" xmlns="http://www.w3.org/2000/svg" xmlns:xlink="http://www.w3.org/1999/xlink">
<g id="graph0" class="graph" transform="scale(1 1) rotate(0) translate(4 147)">
<title>/home/harlen/dev/abcg2/abcg/abcg_vulkan_swapchain.hpp</title>
<!-- Node1 -->
<g id="node1" class="node">
<title>Node1</title>
<g id="a_node1"><a xlink:title="Header file of abcg::VulkanSwapchain.">
<polygon fill="#bfbfbf" stroke="black" points="0,-112.5 0,-142.5 185,-142.5 185,-112.5 0,-112.5"/>
<text text-anchor="start" x="8" y="-130.5" font-family="Helvetica,sans-Serif" font-size="10.00">/home/harlen/dev/abcg2</text>
<text text-anchor="middle" x="92.5" y="-119.5" font-family="Helvetica,sans-Serif" font-size="10.00">/abcg/abcg_vulkan_swapchain.hpp</text>
</a>
</g>
</g>
<!-- Node2 -->
<g id="node2" class="node">
<title>Node2</title>
<g id="a_node2"><a xlink:href="abcg__external_8hpp.html" target="_top" xlink:title="Header file for including third&#45;party dependencies.">
<polygon fill="none" stroke="black" points="1,-0.5 1,-19.5 108,-19.5 108,-0.5 1,-0.5"/>
<text text-anchor="middle" x="54.5" y="-7.5" font-family="Helvetica,sans-Serif" font-size="10.00">abcg_external.hpp</text>
</a>
</g>
</g>
<!-- Node1&#45;&gt;Node2 -->
<g id="edge1" class="edge">
<title>Node1&#45;&gt;Node2</title>
<path fill="none" stroke="midnightblue" d="M86.89,-112.45C82.94,-102.38 77.65,-88.44 73.5,-76 68.32,-60.49 63.16,-42.65 59.53,-29.59"/>
<polygon fill="midnightblue" stroke="midnightblue" points="62.89,-28.61 56.87,-19.9 56.14,-30.47 62.89,-28.61"/>
</g>
<!-- Node3 -->
<g id="node3" class="node">
<title>Node3</title>
<g id="a_node3"><a xlink:href="abcg__vulkan_8hpp.html" target="_top" xlink:title="Header file for Vulkan&#45;related functions and classes.">
<polygon fill="none" stroke="black" points="82.5,-56.5 82.5,-75.5 180.5,-75.5 180.5,-56.5 82.5,-56.5"/>
<text text-anchor="middle" x="131.5" y="-63.5" font-family="Helvetica,sans-Serif" font-size="10.00">abcg_vulkan.hpp</text>
</a>
</g>
</g>
<!-- Node1&#45;&gt;Node3 -->
<g id="edge2" class="edge">
<title>Node1&#45;&gt;Node3</title>
<path fill="none" stroke="midnightblue" d="M101.74,-112.4C107.29,-103.93 114.39,-93.1 120.27,-84.14"/>
<polygon fill="midnightblue" stroke="midnightblue" points="123.27,-85.94 125.83,-75.66 117.42,-82.1 123.27,-85.94"/>
</g>
<!-- Node3&#45;&gt;Node2 -->
<g id="edge3" class="edge">
<title>Node3&#45;&gt;Node2</title>
<path fill="none" stroke="midnightblue" d="M119.13,-56.32C107.34,-48.06 89.37,-35.45 75.36,-25.63"/>
<polygon fill="midnightblue" stroke="midnightblue" points="77.04,-22.53 66.84,-19.65 73.02,-28.26 77.04,-22.53"/>
</g>
<!-- Node4 -->
<g id="node4" class="node">
<title>Node4</title>
<g id="a_node4"><a xlink:href="abcg__vulkan__external_8hpp.html" target="_top" xlink:title="Header file for including Vulkan&#45;related dependencies.">
<polygon fill="none" stroke="black" points="126.5,-0.5 126.5,-19.5 270.5,-19.5 270.5,-0.5 126.5,-0.5"/>
<text text-anchor="middle" x="198.5" y="-7.5" font-family="Helvetica,sans-Serif" font-size="10.00">abcg_vulkan_external.hpp</text>
</a>
</g>
</g>
<!-- Node3&#45;&gt;Node4 -->
<g id="edge4" class="edge">
<title>Node3&#45;&gt;Node4</title>
<path fill="none" stroke="midnightblue" d="M142.26,-56.32C152.27,-48.26 167.39,-36.08 179.43,-26.37"/>
<polygon fill="midnightblue" stroke="midnightblue" points="181.95,-28.83 187.54,-19.83 177.56,-23.38 181.95,-28.83"/>
</g>
</g>
</svg>
