<?xml version="1.0" encoding="UTF-8" standalone="no"?>
<!DOCTYPE svg PUBLIC "-//W3C//DTD SVG 1.1//EN"
 "http://www.w3.org/Graphics/SVG/1.1/DTD/svg11.dtd">
<!-- Generated by graphviz version 2.43.0 (0)
 -->
<!-- Title: /home/harlen/dev/abcg/abcg/abcgOpenGLFunction.cpp Pages: 1 -->
<svg width="549pt" height="203pt"
 viewBox="0.00 0.00 549.17 203.00" xmlns="http://www.w3.org/2000/svg" xmlns:xlink="http://www.w3.org/1999/xlink">
<g id="graph0" class="graph" transform="scale(1 1) rotate(0) translate(4 199)">
<title>/home/harlen/dev/abcg/abcg/abcgOpenGLFunction.cpp</title>
<!-- Node1 -->
<g id="Node000001" class="node">
<title>Node1</title>
<g id="a_Node000001"><a xlink:title="Definition of OpenGL&#45;related error checking functions.">
<polygon fill="#999999" stroke="#666666" points="336.67,-195 167.67,-195 167.67,-165 336.67,-165 336.67,-195"/>
<text text-anchor="start" x="175.67" y="-183" font-family="Helvetica,sans-Serif" font-size="10.00">/home/harlen/dev/abcg</text>
<text text-anchor="middle" x="252.17" y="-172" font-family="Helvetica,sans-Serif" font-size="10.00">/abcg/abcgOpenGLFunction.cpp</text>
</a>
</g>
</g>
<!-- Node2 -->
<g id="Node000002" class="node">
<title>Node2</title>
<g id="a_Node000002"><a xlink:href="abcgOpenGLFunction_8hpp.html" target="_top" xlink:title="Declaration of OpenGL&#45;related error checking functions.">
<polygon fill="white" stroke="#666666" points="212.17,-129 72.17,-129 72.17,-110 212.17,-110 212.17,-129"/>
<text text-anchor="middle" x="142.17" y="-117" font-family="Helvetica,sans-Serif" font-size="10.00">abcgOpenGLFunction.hpp</text>
</a>
</g>
</g>
<!-- Node1&#45;&gt;Node2 -->
<g id="edge1_Node000001_Node000002" class="edge">
<title>Node1&#45;&gt;Node2</title>
<g id="a_edge1_Node000001_Node000002"><a xlink:title=" ">
<path fill="none" stroke="#63b8ff" d="M225.82,-164.99C208.13,-155.58 184.94,-143.24 167.47,-133.95"/>
<polygon fill="#63b8ff" stroke="#63b8ff" points="168.89,-130.74 158.42,-129.14 165.6,-136.92 168.89,-130.74"/>
</a>
</g>
</g>
<!-- Node7 -->
<g id="Node000007" class="node">
<title>Node7</title>
<g id="a_Node000007"><a xlink:href="abcgOpenGLError_8hpp.html" target="_top" xlink:title="Header file of abcg::OpenGLError and derived classes.">
<polygon fill="white" stroke="#666666" points="424.17,-129 302.17,-129 302.17,-110 424.17,-110 424.17,-129"/>
<text text-anchor="middle" x="363.17" y="-117" font-family="Helvetica,sans-Serif" font-size="10.00">abcgOpenGLError.hpp</text>
</a>
</g>
</g>
<!-- Node1&#45;&gt;Node7 -->
<g id="edge6_Node000001_Node000007" class="edge">
<title>Node1&#45;&gt;Node7</title>
<g id="a_edge6_Node000001_Node000007"><a xlink:title=" ">
<path fill="none" stroke="#63b8ff" d="M278.76,-164.99C296.62,-155.58 320.02,-143.24 337.65,-133.95"/>
<polygon fill="#63b8ff" stroke="#63b8ff" points="339.57,-136.9 346.78,-129.14 336.3,-130.71 339.57,-136.9"/>
</a>
</g>
</g>
<!-- Node3 -->
<g id="Node000003" class="node">
<title>Node3</title>
<g id="a_Node000003"><a xlink:title=" ">
<polygon fill="#e0e0e0" stroke="#999999" points="395.67,-19 302.67,-19 302.67,0 395.67,0 395.67,-19"/>
<text text-anchor="middle" x="349.17" y="-7" font-family="Helvetica,sans-Serif" font-size="10.00">source_location</text>
</a>
</g>
</g>
<!-- Node2&#45;&gt;Node3 -->
<g id="edge2_Node000002_Node000003" class="edge">
<title>Node2&#45;&gt;Node3</title>
<g id="a_edge2_Node000002_Node000003"><a xlink:title=" ">
<path fill="none" stroke="#63b8ff" d="M79.18,-109.96C32.63,-101.09 -18.55,-84.29 7.17,-55 25.67,-33.94 200.05,-19.88 292.4,-13.85"/>
<polygon fill="#63b8ff" stroke="#63b8ff" points="292.67,-17.34 302.43,-13.21 292.22,-10.35 292.67,-17.34"/>
</a>
</g>
</g>
<!-- Node4 -->
<g id="Node000004" class="node">
<title>Node4</title>
<g id="a_Node000004"><a xlink:title=" ">
<polygon fill="#e0e0e0" stroke="#999999" points="89.67,-74 16.67,-74 16.67,-55 89.67,-55 89.67,-74"/>
<text text-anchor="middle" x="53.17" y="-62" font-family="Helvetica,sans-Serif" font-size="10.00">string_view</text>
</a>
</g>
</g>
<!-- Node2&#45;&gt;Node4 -->
<g id="edge3_Node000002_Node000004" class="edge">
<title>Node2&#45;&gt;Node4</title>
<g id="a_edge3_Node000002_Node000004"><a xlink:title=" ">
<path fill="none" stroke="#63b8ff" d="M127.87,-109.98C114.07,-101.77 92.93,-89.18 76.66,-79.49"/>
<polygon fill="#63b8ff" stroke="#63b8ff" points="78.11,-76.28 67.73,-74.17 74.53,-82.29 78.11,-76.28"/>
</a>
</g>
</g>
<!-- Node5 -->
<g id="Node000005" class="node">
<title>Node5</title>
<g id="a_Node000005"><a xlink:title=" ">
<polygon fill="#e0e0e0" stroke="#999999" points="176.67,-74 107.67,-74 107.67,-55 176.67,-55 176.67,-74"/>
<text text-anchor="middle" x="142.17" y="-62" font-family="Helvetica,sans-Serif" font-size="10.00">type_traits</text>
</a>
</g>
</g>
<!-- Node2&#45;&gt;Node5 -->
<g id="edge4_Node000002_Node000005" class="edge">
<title>Node2&#45;&gt;Node5</title>
<g id="a_edge4_Node000002_Node000005"><a xlink:title=" ">
<path fill="none" stroke="#63b8ff" d="M142.17,-109.75C142.17,-102.8 142.17,-92.85 142.17,-84.13"/>
<polygon fill="#63b8ff" stroke="#63b8ff" points="145.67,-84.09 142.17,-74.09 138.67,-84.09 145.67,-84.09"/>
</a>
</g>
</g>
<!-- Node6 -->
<g id="Node000006" class="node">
<title>Node6</title>
<g id="a_Node000006"><a xlink:href="abcgOpenGLExternal_8hpp.html" target="_top" xlink:title="Header file for including OpenGL&#45;related third&#45;party dependencies.">
<polygon fill="white" stroke="#666666" points="335.17,-74 195.17,-74 195.17,-55 335.17,-55 335.17,-74"/>
<text text-anchor="middle" x="265.17" y="-62" font-family="Helvetica,sans-Serif" font-size="10.00">abcgOpenGLExternal.hpp</text>
</a>
</g>
</g>
<!-- Node2&#45;&gt;Node6 -->
<g id="edge5_Node000002_Node000006" class="edge">
<title>Node2&#45;&gt;Node6</title>
<g id="a_edge5_Node000002_Node000006"><a xlink:title=" ">
<path fill="none" stroke="#63b8ff" d="M161.93,-109.98C181.9,-101.38 212.98,-87.99 235.82,-78.15"/>
<polygon fill="#63b8ff" stroke="#63b8ff" points="237.25,-81.34 245.05,-74.17 234.48,-74.91 237.25,-81.34"/>
</a>
</g>
</g>
<!-- Node7&#45;&gt;Node3 -->
<g id="edge7_Node000007_Node000003" class="edge">
<title>Node7&#45;&gt;Node3</title>
<g id="a_edge7_Node000007_Node000003"><a xlink:title=" ">
<path fill="none" stroke="#63b8ff" d="M362.03,-109.66C359.76,-92.17 354.66,-52.8 351.61,-29.27"/>
<polygon fill="#63b8ff" stroke="#63b8ff" points="355.05,-28.63 350.29,-19.16 348.11,-29.53 355.05,-28.63"/>
</a>
</g>
</g>
<!-- Node8 -->
<g id="Node000008" class="node">
<title>Node8</title>
<g id="a_Node000008"><a xlink:href="abcgException_8hpp.html" target="_top" xlink:title="Header file of abcg::Exception and derived classes.">
<polygon fill="white" stroke="#666666" points="500.67,-74 391.67,-74 391.67,-55 500.67,-55 500.67,-74"/>
<text text-anchor="middle" x="446.17" y="-62" font-family="Helvetica,sans-Serif" font-size="10.00">abcgException.hpp</text>
</a>
</g>
</g>
<!-- Node7&#45;&gt;Node8 -->
<g id="edge8_Node000007_Node000008" class="edge">
<title>Node7&#45;&gt;Node8</title>
<g id="a_edge8_Node000007_Node000008"><a xlink:title=" ">
<path fill="none" stroke="#63b8ff" d="M376.51,-109.98C389.26,-101.84 408.73,-89.41 423.84,-79.76"/>
<polygon fill="#63b8ff" stroke="#63b8ff" points="426.05,-82.5 432.59,-74.17 422.28,-76.6 426.05,-82.5"/>
</a>
</g>
</g>
<!-- Node8&#45;&gt;Node3 -->
<g id="edge9_Node000008_Node000003" class="edge">
<title>Node8&#45;&gt;Node3</title>
<g id="a_edge9_Node000008_Node000003"><a xlink:title=" ">
<path fill="none" stroke="#63b8ff" d="M430.59,-54.98C415.41,-46.69 392.07,-33.94 374.27,-24.22"/>
<polygon fill="#63b8ff" stroke="#63b8ff" points="375.49,-20.89 365.04,-19.17 372.14,-27.04 375.49,-20.89"/>
</a>
</g>
</g>
<!-- Node9 -->
<g id="Node000009" class="node">
<title>Node9</title>
<g id="a_Node000009"><a xlink:title=" ">
<polygon fill="#e0e0e0" stroke="#999999" points="478.67,-19 413.67,-19 413.67,0 478.67,0 478.67,-19"/>
<text text-anchor="middle" x="446.17" y="-7" font-family="Helvetica,sans-Serif" font-size="10.00">stdexcept</text>
</a>
</g>
</g>
<!-- Node8&#45;&gt;Node9 -->
<g id="edge10_Node000008_Node000009" class="edge">
<title>Node8&#45;&gt;Node9</title>
<g id="a_edge10_Node000008_Node000009"><a xlink:title=" ">
<path fill="none" stroke="#63b8ff" d="M446.17,-54.75C446.17,-47.8 446.17,-37.85 446.17,-29.13"/>
<polygon fill="#63b8ff" stroke="#63b8ff" points="449.67,-29.09 446.17,-19.09 442.67,-29.09 449.67,-29.09"/>
</a>
</g>
</g>
<!-- Node10 -->
<g id="Node000010" class="node">
<title>Node10</title>
<g id="a_Node000010"><a xlink:title=" ">
<polygon fill="#e0e0e0" stroke="#999999" points="541.17,-19 497.17,-19 497.17,0 541.17,0 541.17,-19"/>
<text text-anchor="middle" x="519.17" y="-7" font-family="Helvetica,sans-Serif" font-size="10.00">string</text>
</a>
</g>
</g>
<!-- Node8&#45;&gt;Node10 -->
<g id="edge11_Node000008_Node000010" class="edge">
<title>Node8&#45;&gt;Node10</title>
<g id="a_edge11_Node000008_Node000010"><a xlink:title=" ">
<path fill="none" stroke="#63b8ff" d="M457.9,-54.98C468.9,-47 485.59,-34.88 498.78,-25.31"/>
<polygon fill="#63b8ff" stroke="#63b8ff" points="501.19,-27.88 507.23,-19.17 497.08,-22.21 501.19,-27.88"/>
</a>
</g>
</g>
</g>
</svg>
