<?xml version="1.0" encoding="UTF-8" standalone="no"?>
<!DOCTYPE svg PUBLIC "-//W3C//DTD SVG 1.1//EN"
 "http://www.w3.org/Graphics/SVG/1.1/DTD/svg11.dtd">
<!-- Generated by graphviz version 2.43.0 (0)
 -->
<!-- Title: /home/harlen/dev/abcg/abcg/abcgVulkanPhysicalDevice.hpp Pages: 1 -->
<svg width="1238pt" height="441pt"
 viewBox="0.00 0.00 1238.00 441.00" xmlns="http://www.w3.org/2000/svg" xmlns:xlink="http://www.w3.org/1999/xlink">
<g id="graph0" class="graph" transform="scale(1 1) rotate(0) translate(4 437)">
<title>/home/harlen/dev/abcg/abcg/abcgVulkanPhysicalDevice.hpp</title>
<!-- Node1 -->
<g id="node1" class="node">
<title>Node1</title>
<g id="a_node1"><a xlink:title="Header file of abcg::VulkanPhysicalDevice.">
<polygon fill="#bfbfbf" stroke="black" points="888.5,-402.5 888.5,-432.5 1085.5,-432.5 1085.5,-402.5 888.5,-402.5"/>
<text text-anchor="start" x="896.5" y="-420.5" font-family="Helvetica,sans-Serif" font-size="10.00">/home/harlen/dev/abcg</text>
<text text-anchor="middle" x="987" y="-409.5" font-family="Helvetica,sans-Serif" font-size="10.00">/abcg/abcgVulkanPhysicalDevice.hpp</text>
</a>
</g>
</g>
<!-- Node2 -->
<g id="node2" class="node">
<title>Node2</title>
<g id="a_node2"><a xlink:href="abcgVulkanDevice_8hpp.html" target="_top" xlink:title="Header file of abcg::VulkanDevice.">
<polygon fill="none" stroke="black" points="621,-335.5 621,-365.5 777,-365.5 777,-335.5 621,-335.5"/>
<text text-anchor="start" x="629" y="-353.5" font-family="Helvetica,sans-Serif" font-size="10.00">/home/harlen/dev/abcg</text>
<text text-anchor="middle" x="699" y="-342.5" font-family="Helvetica,sans-Serif" font-size="10.00">/abcg/abcgVulkanDevice.hpp</text>
</a>
</g>
</g>
<!-- Node1&#45;&gt;Node2 -->
<g id="edge1" class="edge">
<title>Node1&#45;&gt;Node2</title>
<path fill="none" stroke="midnightblue" d="M915.01,-400.25C867.8,-389.6 806.69,-375.81 761.52,-365.61"/>
<polygon fill="midnightblue" stroke="midnightblue" points="914.34,-403.69 924.86,-402.48 915.88,-396.86 914.34,-403.69"/>
</g>
<!-- Node13 -->
<g id="node13" class="node">
<title>Node13</title>
<g id="a_node13"><a xlink:href="abcgVulkanSwapchain_8cpp.html" target="_top" xlink:title="Definition of abcg::VulkanSwapchain.">
<polygon fill="none" stroke="black" points="880,-67.5 880,-97.5 1054,-97.5 1054,-67.5 880,-67.5"/>
<text text-anchor="start" x="888" y="-85.5" font-family="Helvetica,sans-Serif" font-size="10.00">/home/harlen/dev/abcg</text>
<text text-anchor="middle" x="967" y="-74.5" font-family="Helvetica,sans-Serif" font-size="10.00">/abcg/abcgVulkanSwapchain.cpp</text>
</a>
</g>
</g>
<!-- Node1&#45;&gt;Node13 -->
<g id="edge28" class="edge">
<title>Node1&#45;&gt;Node13</title>
<path fill="none" stroke="midnightblue" d="M992.56,-392.49C998.17,-366.15 1006,-322.55 1006,-284.5 1006,-284.5 1006,-284.5 1006,-215.5 1006,-171.05 985.41,-121.51 974.15,-97.74"/>
<polygon fill="midnightblue" stroke="midnightblue" points="989.13,-391.82 990.4,-402.34 995.96,-393.32 989.13,-391.82"/>
</g>
<!-- Node14 -->
<g id="node14" class="node">
<title>Node14</title>
<g id="a_node14"><a xlink:href="abcgVulkanWindow_8hpp.html" target="_top" xlink:title="Header file of abcg::VulkanWindow.">
<polygon fill="none" stroke="black" points="740.5,-134.5 740.5,-164.5 901.5,-164.5 901.5,-134.5 740.5,-134.5"/>
<text text-anchor="start" x="748.5" y="-152.5" font-family="Helvetica,sans-Serif" font-size="10.00">/home/harlen/dev/abcg</text>
<text text-anchor="middle" x="821" y="-141.5" font-family="Helvetica,sans-Serif" font-size="10.00">/abcg/abcgVulkanWindow.hpp</text>
</a>
</g>
</g>
<!-- Node1&#45;&gt;Node14 -->
<g id="edge29" class="edge">
<title>Node1&#45;&gt;Node14</title>
<path fill="none" stroke="midnightblue" d="M976.53,-392.89C962.91,-362.98 937.68,-310.24 911,-268 886.16,-228.68 851.46,-186.22 833.25,-164.72"/>
<polygon fill="midnightblue" stroke="midnightblue" points="973.39,-394.44 980.69,-402.11 979.77,-391.56 973.39,-394.44"/>
</g>
<!-- Node18 -->
<g id="node18" class="node">
<title>Node18</title>
<g id="a_node18"><a xlink:href="abcgVulkanPhysicalDevice_8cpp.html" target="_top" xlink:title="Definition of abcg::VulkanPhysicalDevice.">
<polygon fill="none" stroke="black" points="1034,-335.5 1034,-365.5 1230,-365.5 1230,-335.5 1034,-335.5"/>
<text text-anchor="start" x="1042" y="-353.5" font-family="Helvetica,sans-Serif" font-size="10.00">/home/harlen/dev/abcg</text>
<text text-anchor="middle" x="1132" y="-342.5" font-family="Helvetica,sans-Serif" font-size="10.00">/abcg/abcgVulkanPhysicalDevice.cpp</text>
</a>
</g>
</g>
<!-- Node1&#45;&gt;Node18 -->
<g id="edge27" class="edge">
<title>Node1&#45;&gt;Node18</title>
<path fill="none" stroke="midnightblue" d="M1027.67,-398.27C1050.76,-387.92 1079.24,-375.15 1100.6,-365.58"/>
<polygon fill="midnightblue" stroke="midnightblue" points="1026.16,-395.11 1018.46,-402.4 1029.02,-401.5 1026.16,-395.11"/>
</g>
<!-- Node3 -->
<g id="node3" class="node">
<title>Node3</title>
<g id="a_node3"><a xlink:href="abcgVulkanBuffer_8hpp.html" target="_top" xlink:title="Header file of abcg::VulkanBuffer.">
<polygon fill="none" stroke="black" points="152.5,-268.5 152.5,-298.5 303.5,-298.5 303.5,-268.5 152.5,-268.5"/>
<text text-anchor="start" x="160.5" y="-286.5" font-family="Helvetica,sans-Serif" font-size="10.00">/home/harlen/dev/abcg</text>
<text text-anchor="middle" x="228" y="-275.5" font-family="Helvetica,sans-Serif" font-size="10.00">/abcg/abcgVulkanBuffer.hpp</text>
</a>
</g>
</g>
<!-- Node2&#45;&gt;Node3 -->
<g id="edge2" class="edge">
<title>Node2&#45;&gt;Node3</title>
<path fill="none" stroke="midnightblue" d="M610.95,-337.35C522.52,-325.14 387.68,-306.54 303.85,-294.97"/>
<polygon fill="midnightblue" stroke="midnightblue" points="610.58,-340.83 620.96,-338.73 611.53,-333.9 610.58,-340.83"/>
</g>
<!-- Node8 -->
<g id="node8" class="node">
<title>Node8</title>
<g id="a_node8"><a xlink:href="abcgVulkanDevice_8cpp.html" target="_top" xlink:title="Definition of abcg::VulkanDevice.">
<polygon fill="none" stroke="black" points="746.5,-268.5 746.5,-298.5 901.5,-298.5 901.5,-268.5 746.5,-268.5"/>
<text text-anchor="start" x="754.5" y="-286.5" font-family="Helvetica,sans-Serif" font-size="10.00">/home/harlen/dev/abcg</text>
<text text-anchor="middle" x="824" y="-275.5" font-family="Helvetica,sans-Serif" font-size="10.00">/abcg/abcgVulkanDevice.cpp</text>
</a>
</g>
</g>
<!-- Node2&#45;&gt;Node8 -->
<g id="edge7" class="edge">
<title>Node2&#45;&gt;Node8</title>
<path fill="none" stroke="midnightblue" d="M735.13,-330.71C754.84,-320.46 778.84,-307.98 796.93,-298.58"/>
<polygon fill="midnightblue" stroke="midnightblue" points="733.38,-327.68 726.12,-335.4 736.61,-333.89 733.38,-327.68"/>
</g>
<!-- Node9 -->
<g id="node9" class="node">
<title>Node9</title>
<g id="a_node9"><a xlink:href="abcgVulkanImage_8hpp.html" target="_top" xlink:title="Header file of abcg::VulkanImage.">
<polygon fill="none" stroke="black" points="489.5,-268.5 489.5,-298.5 642.5,-298.5 642.5,-268.5 489.5,-268.5"/>
<text text-anchor="start" x="497.5" y="-286.5" font-family="Helvetica,sans-Serif" font-size="10.00">/home/harlen/dev/abcg</text>
<text text-anchor="middle" x="566" y="-275.5" font-family="Helvetica,sans-Serif" font-size="10.00">/abcg/abcgVulkanImage.hpp</text>
</a>
</g>
</g>
<!-- Node2&#45;&gt;Node9 -->
<g id="edge8" class="edge">
<title>Node2&#45;&gt;Node9</title>
<path fill="none" stroke="midnightblue" d="M661.13,-330.99C640.05,-320.69 614.22,-308.07 594.8,-298.58"/>
<polygon fill="midnightblue" stroke="midnightblue" points="659.62,-334.15 670.14,-335.4 662.69,-327.86 659.62,-334.15"/>
</g>
<!-- Node10 -->
<g id="node10" class="node">
<title>Node10</title>
<g id="a_node10"><a xlink:href="abcgVulkanSwapchain_8hpp.html" target="_top" xlink:title="Header file of abcg::VulkanSwapchain.">
<polygon fill="none" stroke="black" points="588.5,-201.5 588.5,-231.5 763.5,-231.5 763.5,-201.5 588.5,-201.5"/>
<text text-anchor="start" x="596.5" y="-219.5" font-family="Helvetica,sans-Serif" font-size="10.00">/home/harlen/dev/abcg</text>
<text text-anchor="middle" x="676" y="-208.5" font-family="Helvetica,sans-Serif" font-size="10.00">/abcg/abcgVulkanSwapchain.hpp</text>
</a>
</g>
</g>
<!-- Node2&#45;&gt;Node10 -->
<g id="edge25" class="edge">
<title>Node2&#45;&gt;Node10</title>
<path fill="none" stroke="midnightblue" d="M694.8,-325.39C690.01,-297.9 682.34,-253.89 678.44,-231.52"/>
<polygon fill="midnightblue" stroke="midnightblue" points="691.37,-326.12 696.54,-335.37 698.27,-324.92 691.37,-326.12"/>
</g>
<!-- Node2&#45;&gt;Node13 -->
<g id="edge24" class="edge">
<title>Node2&#45;&gt;Node13</title>
<path fill="none" stroke="midnightblue" d="M787,-337.81C837,-329.44 893.11,-316.53 911,-299 968.29,-242.86 969.5,-136.15 967.9,-97.73"/>
<polygon fill="midnightblue" stroke="midnightblue" points="786.4,-334.37 777.1,-339.43 787.53,-341.27 786.4,-334.37"/>
</g>
<!-- Node2&#45;&gt;Node14 -->
<g id="edge26" class="edge">
<title>Node2&#45;&gt;Node14</title>
<path fill="none" stroke="midnightblue" d="M707.91,-325.84C714.84,-308.95 725.37,-286.12 738,-268 750.76,-249.69 759.46,-249.74 773,-232 789.83,-209.94 805.36,-181.49 813.97,-164.7"/>
<polygon fill="midnightblue" stroke="midnightblue" points="704.52,-324.91 704.08,-335.49 711.03,-327.49 704.52,-324.91"/>
</g>
<!-- Node16 -->
<g id="node16" class="node">
<title>Node16</title>
<g id="a_node16"><a xlink:href="abcgVulkanShader_8hpp.html" target="_top" xlink:title="Declaration of helper functions for creating Vulkan shaders.">
<polygon fill="none" stroke="black" points="206.5,-201.5 206.5,-231.5 361.5,-231.5 361.5,-201.5 206.5,-201.5"/>
<text text-anchor="start" x="214.5" y="-219.5" font-family="Helvetica,sans-Serif" font-size="10.00">/home/harlen/dev/abcg</text>
<text text-anchor="middle" x="284" y="-208.5" font-family="Helvetica,sans-Serif" font-size="10.00">/abcg/abcgVulkanShader.hpp</text>
</a>
</g>
</g>
<!-- Node2&#45;&gt;Node16 -->
<g id="edge20" class="edge">
<title>Node2&#45;&gt;Node16</title>
<path fill="none" stroke="midnightblue" d="M614.21,-333.41C573.23,-324.75 523.59,-312.98 480,-299 419.29,-279.53 351.12,-249.16 313.3,-231.51"/>
<polygon fill="midnightblue" stroke="midnightblue" points="613.66,-336.87 624.16,-335.48 615.09,-330.01 613.66,-336.87"/>
</g>
<!-- Node4 -->
<g id="node4" class="node">
<title>Node4</title>
<g id="a_node4"><a xlink:href="abcgVulkan_8hpp.html" target="_top" xlink:title="Header file for Vulkan&#45;related functions and classes.">
<polygon fill="none" stroke="black" points="376,-67.5 376,-97.5 504,-97.5 504,-67.5 376,-67.5"/>
<text text-anchor="start" x="384" y="-85.5" font-family="Helvetica,sans-Serif" font-size="10.00">/home/harlen/dev/abcg</text>
<text text-anchor="middle" x="440" y="-74.5" font-family="Helvetica,sans-Serif" font-size="10.00">/abcg/abcgVulkan.hpp</text>
</a>
</g>
</g>
<!-- Node3&#45;&gt;Node4 -->
<g id="edge3" class="edge">
<title>Node3&#45;&gt;Node4</title>
<path fill="none" stroke="midnightblue" d="M209.36,-259.81C198.1,-243.2 187.58,-220.28 197,-201 229.71,-134.05 315.53,-104.94 375.86,-92.49"/>
<polygon fill="midnightblue" stroke="midnightblue" points="206.85,-262.31 215.57,-268.33 212.51,-258.19 206.85,-262.31"/>
</g>
<!-- Node6 -->
<g id="node6" class="node">
<title>Node6</title>
<g id="a_node6"><a xlink:href="abcgVulkanBuffer_8cpp.html" target="_top" xlink:title="Definition of abcg::VulkanBuffer.">
<polygon fill="none" stroke="black" points="0,-201.5 0,-231.5 150,-231.5 150,-201.5 0,-201.5"/>
<text text-anchor="start" x="8" y="-219.5" font-family="Helvetica,sans-Serif" font-size="10.00">/home/harlen/dev/abcg</text>
<text text-anchor="middle" x="75" y="-208.5" font-family="Helvetica,sans-Serif" font-size="10.00">/abcg/abcgVulkanBuffer.cpp</text>
</a>
</g>
</g>
<!-- Node3&#45;&gt;Node6 -->
<g id="edge5" class="edge">
<title>Node3&#45;&gt;Node6</title>
<path fill="none" stroke="midnightblue" d="M185.41,-264.41C160.98,-254.03 130.78,-241.2 108.13,-231.58"/>
<polygon fill="midnightblue" stroke="midnightblue" points="184.23,-267.71 194.8,-268.4 186.97,-261.26 184.23,-267.71"/>
</g>
<!-- Node7 -->
<g id="node7" class="node">
<title>Node7</title>
<g id="a_node7"><a xlink:href="abcgVulkanImage_8cpp.html" target="_top" xlink:title="Definition of abcg::VulkanImage.">
<polygon fill="none" stroke="black" points="380,-201.5 380,-231.5 532,-231.5 532,-201.5 380,-201.5"/>
<text text-anchor="start" x="388" y="-219.5" font-family="Helvetica,sans-Serif" font-size="10.00">/home/harlen/dev/abcg</text>
<text text-anchor="middle" x="456" y="-208.5" font-family="Helvetica,sans-Serif" font-size="10.00">/abcg/abcgVulkanImage.cpp</text>
</a>
</g>
</g>
<!-- Node3&#45;&gt;Node7 -->
<g id="edge6" class="edge">
<title>Node3&#45;&gt;Node7</title>
<path fill="none" stroke="midnightblue" d="M286.88,-265.71C323.98,-255.14 371.34,-241.63 406.5,-231.61"/>
<polygon fill="midnightblue" stroke="midnightblue" points="285.85,-262.37 277.19,-268.48 287.77,-269.1 285.85,-262.37"/>
</g>
<!-- Node5 -->
<g id="node5" class="node">
<title>Node5</title>
<g id="a_node5"><a xlink:href="abcgVulkanInstance_8cpp.html" target="_top" xlink:title="Definition of abcg::VulkanInstance.">
<polygon fill="none" stroke="black" points="358.5,-0.5 358.5,-30.5 521.5,-30.5 521.5,-0.5 358.5,-0.5"/>
<text text-anchor="start" x="366.5" y="-18.5" font-family="Helvetica,sans-Serif" font-size="10.00">/home/harlen/dev/abcg</text>
<text text-anchor="middle" x="440" y="-7.5" font-family="Helvetica,sans-Serif" font-size="10.00">/abcg/abcgVulkanInstance.cpp</text>
</a>
</g>
</g>
<!-- Node4&#45;&gt;Node5 -->
<g id="edge4" class="edge">
<title>Node4&#45;&gt;Node5</title>
<path fill="none" stroke="midnightblue" d="M440,-57.11C440,-48.15 440,-38.32 440,-30.58"/>
<polygon fill="midnightblue" stroke="midnightblue" points="436.5,-57.4 440,-67.4 443.5,-57.4 436.5,-57.4"/>
</g>
<!-- Node9&#45;&gt;Node4 -->
<g id="edge9" class="edge">
<title>Node9&#45;&gt;Node4</title>
<path fill="none" stroke="midnightblue" d="M561.3,-258.15C557.41,-241.38 550.91,-218.97 541,-201 534.64,-189.46 478.81,-126.71 452.99,-97.94"/>
<polygon fill="midnightblue" stroke="midnightblue" points="557.95,-259.21 563.48,-268.25 564.79,-257.74 557.95,-259.21"/>
</g>
<!-- Node9&#45;&gt;Node7 -->
<g id="edge10" class="edge">
<title>Node9&#45;&gt;Node7</title>
<path fill="none" stroke="midnightblue" d="M533.5,-263.3C516.29,-253.12 495.52,-240.85 479.82,-231.58"/>
<polygon fill="midnightblue" stroke="midnightblue" points="531.74,-266.32 542.13,-268.4 535.3,-260.3 531.74,-266.32"/>
</g>
<!-- Node9&#45;&gt;Node10 -->
<g id="edge11" class="edge">
<title>Node9&#45;&gt;Node10</title>
<path fill="none" stroke="midnightblue" d="M598.5,-263.3C615.71,-253.12 636.48,-240.85 652.18,-231.58"/>
<polygon fill="midnightblue" stroke="midnightblue" points="596.7,-260.3 589.87,-268.4 600.26,-266.32 596.7,-260.3"/>
</g>
<!-- Node11 -->
<g id="node11" class="node">
<title>Node11</title>
<g id="a_node11"><a xlink:href="abcgVulkanPipeline_8hpp.html" target="_top" xlink:title="Header file of abcg::VulkanPipeline.">
<polygon fill="none" stroke="black" points="522.5,-134.5 522.5,-164.5 683.5,-164.5 683.5,-134.5 522.5,-134.5"/>
<text text-anchor="start" x="530.5" y="-152.5" font-family="Helvetica,sans-Serif" font-size="10.00">/home/harlen/dev/abcg</text>
<text text-anchor="middle" x="603" y="-141.5" font-family="Helvetica,sans-Serif" font-size="10.00">/abcg/abcgVulkanPipeline.hpp</text>
</a>
</g>
</g>
<!-- Node10&#45;&gt;Node11 -->
<g id="edge12" class="edge">
<title>Node10&#45;&gt;Node11</title>
<path fill="none" stroke="midnightblue" d="M652.53,-194.6C641.5,-184.78 628.66,-173.34 618.81,-164.58"/>
<polygon fill="midnightblue" stroke="midnightblue" points="650.36,-197.36 660.16,-201.4 655.02,-192.13 650.36,-197.36"/>
</g>
<!-- Node10&#45;&gt;Node13 -->
<g id="edge15" class="edge">
<title>Node10&#45;&gt;Node13</title>
<path fill="none" stroke="midnightblue" d="M686.16,-191.9C695.4,-173.29 710.84,-148.17 732,-134 745.11,-125.22 824.76,-109.19 887.75,-97.54"/>
<polygon fill="midnightblue" stroke="midnightblue" points="682.87,-190.67 681.77,-201.21 689.2,-193.65 682.87,-190.67"/>
</g>
<!-- Node10&#45;&gt;Node14 -->
<g id="edge16" class="edge">
<title>Node10&#45;&gt;Node14</title>
<path fill="none" stroke="midnightblue" d="M716.67,-197.27C739.76,-186.92 768.24,-174.15 789.6,-164.58"/>
<polygon fill="midnightblue" stroke="midnightblue" points="715.16,-194.11 707.46,-201.4 718.02,-200.5 715.16,-194.11"/>
</g>
<!-- Node11&#45;&gt;Node4 -->
<g id="edge13" class="edge">
<title>Node11&#45;&gt;Node4</title>
<path fill="none" stroke="midnightblue" d="M558.32,-130.68C532.17,-120.26 499.63,-107.28 475.3,-97.58"/>
<polygon fill="midnightblue" stroke="midnightblue" points="557.05,-133.94 567.63,-134.4 559.64,-127.44 557.05,-133.94"/>
</g>
<!-- Node12 -->
<g id="node12" class="node">
<title>Node12</title>
<g id="a_node12"><a xlink:href="abcgVulkanPipeline_8cpp.html" target="_top" xlink:title="Definition of abcg::VulkanPipeline.">
<polygon fill="none" stroke="black" points="522.5,-67.5 522.5,-97.5 683.5,-97.5 683.5,-67.5 522.5,-67.5"/>
<text text-anchor="start" x="530.5" y="-85.5" font-family="Helvetica,sans-Serif" font-size="10.00">/home/harlen/dev/abcg</text>
<text text-anchor="middle" x="603" y="-74.5" font-family="Helvetica,sans-Serif" font-size="10.00">/abcg/abcgVulkanPipeline.cpp</text>
</a>
</g>
</g>
<!-- Node11&#45;&gt;Node12 -->
<g id="edge14" class="edge">
<title>Node11&#45;&gt;Node12</title>
<path fill="none" stroke="midnightblue" d="M603,-124.11C603,-115.15 603,-105.32 603,-97.58"/>
<polygon fill="midnightblue" stroke="midnightblue" points="599.5,-124.4 603,-134.4 606.5,-124.4 599.5,-124.4"/>
</g>
<!-- Node14&#45;&gt;Node4 -->
<g id="edge17" class="edge">
<title>Node14&#45;&gt;Node4</title>
<path fill="none" stroke="midnightblue" d="M730.4,-134.47C668.97,-124.75 585.98,-111.23 513,-98 510.08,-97.47 507.09,-96.92 504.07,-96.35"/>
<polygon fill="midnightblue" stroke="midnightblue" points="730.03,-137.95 740.46,-136.05 731.13,-131.04 730.03,-137.95"/>
</g>
<!-- Node14&#45;&gt;Node13 -->
<g id="edge18" class="edge">
<title>Node14&#45;&gt;Node13</title>
<path fill="none" stroke="midnightblue" d="M861.95,-130.27C885.2,-119.92 913.87,-107.15 935.38,-97.58"/>
<polygon fill="midnightblue" stroke="midnightblue" points="860.39,-127.13 852.68,-134.4 863.24,-133.53 860.39,-127.13"/>
</g>
<!-- Node15 -->
<g id="node15" class="node">
<title>Node15</title>
<g id="a_node15"><a xlink:href="abcgVulkanWindow_8cpp.html" target="_top" xlink:title="Definition of abcg::VulkanWindow members.">
<polygon fill="none" stroke="black" points="702,-67.5 702,-97.5 862,-97.5 862,-67.5 702,-67.5"/>
<text text-anchor="start" x="710" y="-85.5" font-family="Helvetica,sans-Serif" font-size="10.00">/home/harlen/dev/abcg</text>
<text text-anchor="middle" x="782" y="-74.5" font-family="Helvetica,sans-Serif" font-size="10.00">/abcg/abcgVulkanWindow.cpp</text>
</a>
</g>
</g>
<!-- Node14&#45;&gt;Node15 -->
<g id="edge19" class="edge">
<title>Node14&#45;&gt;Node15</title>
<path fill="none" stroke="midnightblue" d="M807.25,-125.58C801.64,-116.24 795.35,-105.75 790.45,-97.58"/>
<polygon fill="midnightblue" stroke="midnightblue" points="804.39,-127.62 812.54,-134.4 810.39,-124.02 804.39,-127.62"/>
</g>
<!-- Node16&#45;&gt;Node4 -->
<g id="edge21" class="edge">
<title>Node16&#45;&gt;Node4</title>
<path fill="none" stroke="midnightblue" d="M283.1,-191.11C283.73,-173.31 287.44,-149.65 301,-134 319.91,-112.17 349.05,-99.77 375.77,-92.74"/>
<polygon fill="midnightblue" stroke="midnightblue" points="279.6,-191.29 283.04,-201.31 286.6,-191.33 279.6,-191.29"/>
</g>
<!-- Node16&#45;&gt;Node11 -->
<g id="edge22" class="edge">
<title>Node16&#45;&gt;Node11</title>
<path fill="none" stroke="midnightblue" d="M362.77,-199.45C415.29,-188.75 483.66,-174.82 534.02,-164.55"/>
<polygon fill="midnightblue" stroke="midnightblue" points="361.93,-196.05 352.83,-201.48 363.32,-202.91 361.93,-196.05"/>
</g>
<!-- Node17 -->
<g id="node17" class="node">
<title>Node17</title>
<g id="a_node17"><a xlink:href="abcgVulkanShader_8cpp.html" target="_top" xlink:title="Definition of helper functions for creating Vulkan shaders.">
<polygon fill="none" stroke="black" points="310.5,-134.5 310.5,-164.5 465.5,-164.5 465.5,-134.5 310.5,-134.5"/>
<text text-anchor="start" x="318.5" y="-152.5" font-family="Helvetica,sans-Serif" font-size="10.00">/home/harlen/dev/abcg</text>
<text text-anchor="middle" x="388" y="-141.5" font-family="Helvetica,sans-Serif" font-size="10.00">/abcg/abcgVulkanShader.cpp</text>
</a>
</g>
</g>
<!-- Node16&#45;&gt;Node17 -->
<g id="edge23" class="edge">
<title>Node16&#45;&gt;Node17</title>
<path fill="none" stroke="midnightblue" d="M315.18,-196.02C331.36,-185.9 350.77,-173.77 365.48,-164.58"/>
<polygon fill="midnightblue" stroke="midnightblue" points="313.19,-193.13 306.57,-201.4 316.9,-199.06 313.19,-193.13"/>
</g>
</g>
</svg>
