<?xml version="1.0" encoding="UTF-8" standalone="no"?>
<!DOCTYPE svg PUBLIC "-//W3C//DTD SVG 1.1//EN"
 "http://www.w3.org/Graphics/SVG/1.1/DTD/svg11.dtd">
<!-- Generated by graphviz version 2.43.0 (0)
 -->
<!-- Title: /home/harlen/dev/abcg/abcg/abcgTimer.hpp Pages: 1 -->
<svg width="1036pt" height="302pt"
 viewBox="0.00 0.00 1035.50 302.00" xmlns="http://www.w3.org/2000/svg" xmlns:xlink="http://www.w3.org/1999/xlink">
<g id="graph0" class="graph" transform="scale(1 1) rotate(0) translate(4 298)">
<title>/home/harlen/dev/abcg/abcg/abcgTimer.hpp</title>
<!-- Node1 -->
<g id="Node000001" class="node">
<title>Node1</title>
<g id="a_Node000001"><a xlink:title="Header file of abcg::Timer.">
<polygon fill="#999999" stroke="#666666" points="500,-294 372,-294 372,-264 500,-264 500,-294"/>
<text text-anchor="start" x="380" y="-282" font-family="Helvetica,sans-Serif" font-size="10.00">/home/harlen/dev/abcg</text>
<text text-anchor="middle" x="436" y="-271" font-family="Helvetica,sans-Serif" font-size="10.00">/abcg/abcgTimer.hpp</text>
</a>
</g>
</g>
<!-- Node2 -->
<g id="Node000002" class="node">
<title>Node2</title>
<g id="a_Node000002"><a xlink:href="abcgTimer_8cpp.html" target="_top" xlink:title="Definition of abcg::Timer members.">
<polygon fill="white" stroke="#666666" points="354,-228 226,-228 226,-198 354,-198 354,-228"/>
<text text-anchor="start" x="234" y="-216" font-family="Helvetica,sans-Serif" font-size="10.00">/home/harlen/dev/abcg</text>
<text text-anchor="middle" x="290" y="-205" font-family="Helvetica,sans-Serif" font-size="10.00">/abcg/abcgTimer.cpp</text>
</a>
</g>
</g>
<!-- Node1&#45;&gt;Node2 -->
<g id="edge1_Node000001_Node000002" class="edge">
<title>Node1&#45;&gt;Node2</title>
<g id="a_edge1_Node000001_Node000002"><a xlink:title=" ">
<path fill="none" stroke="#63b8ff" d="M394.75,-259.92C371.68,-249.8 343.34,-237.38 321.97,-228.01"/>
<polygon fill="#63b8ff" stroke="#63b8ff" points="393.4,-263.15 403.96,-263.95 396.21,-256.73 393.4,-263.15"/>
</a>
</g>
</g>
<!-- Node3 -->
<g id="Node000003" class="node">
<title>Node3</title>
<g id="a_Node000003"><a xlink:href="abcgTrackball_8hpp.html" target="_top" xlink:title="Header file of abcg::TrackBall.">
<polygon fill="white" stroke="#666666" points="879,-228 745,-228 745,-198 879,-198 879,-228"/>
<text text-anchor="start" x="753" y="-216" font-family="Helvetica,sans-Serif" font-size="10.00">/home/harlen/dev/abcg</text>
<text text-anchor="middle" x="812" y="-205" font-family="Helvetica,sans-Serif" font-size="10.00">/abcg/abcgTrackball.hpp</text>
</a>
</g>
</g>
<!-- Node1&#45;&gt;Node3 -->
<g id="edge2_Node000001_Node000003" class="edge">
<title>Node1&#45;&gt;Node3</title>
<g id="a_edge2_Node000001_Node000003"><a xlink:title=" ">
<path fill="none" stroke="#63b8ff" d="M510.47,-265.33C578.76,-253.7 679.01,-236.64 744.89,-225.42"/>
<polygon fill="#63b8ff" stroke="#63b8ff" points="509.48,-261.94 500.21,-267.07 510.66,-268.84 509.48,-261.94"/>
</a>
</g>
</g>
<!-- Node9 -->
<g id="Node000009" class="node">
<title>Node9</title>
<g id="a_Node000009"><a xlink:href="abcgWindow_8hpp.html" target="_top" xlink:title="Header file of abcg::Window.">
<polygon fill="white" stroke="#666666" points="500,-228 372,-228 372,-198 500,-198 500,-228"/>
<text text-anchor="start" x="380" y="-216" font-family="Helvetica,sans-Serif" font-size="10.00">/home/harlen/dev/abcg</text>
<text text-anchor="middle" x="436" y="-205" font-family="Helvetica,sans-Serif" font-size="10.00">/abcg/abcgWindow.hpp</text>
</a>
</g>
</g>
<!-- Node1&#45;&gt;Node9 -->
<g id="edge8_Node000001_Node000009" class="edge">
<title>Node1&#45;&gt;Node9</title>
<g id="a_edge8_Node000001_Node000009"><a xlink:title=" ">
<path fill="none" stroke="#63b8ff" d="M436,-253.54C436,-244.96 436,-235.61 436,-228.16"/>
<polygon fill="#63b8ff" stroke="#63b8ff" points="432.5,-253.8 436,-263.8 439.5,-253.8 432.5,-253.8"/>
</a>
</g>
</g>
<!-- Node4 -->
<g id="Node000004" class="node">
<title>Node4</title>
<g id="a_Node000004"><a xlink:href="abcg_8hpp.html" target="_top" xlink:title="Shortcut header that includes the most common ABCg headers.">
<polygon fill="white" stroke="#666666" points="876,-162 748,-162 748,-132 876,-132 876,-162"/>
<text text-anchor="start" x="756" y="-150" font-family="Helvetica,sans-Serif" font-size="10.00">/home/harlen/dev/abcg</text>
<text text-anchor="middle" x="812" y="-139" font-family="Helvetica,sans-Serif" font-size="10.00">/abcg/abcg.hpp</text>
</a>
</g>
</g>
<!-- Node3&#45;&gt;Node4 -->
<g id="edge3_Node000003_Node000004" class="edge">
<title>Node3&#45;&gt;Node4</title>
<g id="a_edge3_Node000003_Node000004"><a xlink:title=" ">
<path fill="none" stroke="#63b8ff" d="M812,-187.54C812,-178.96 812,-169.61 812,-162.16"/>
<polygon fill="#63b8ff" stroke="#63b8ff" points="808.5,-187.8 812,-197.8 815.5,-187.8 808.5,-187.8"/>
</a>
</g>
</g>
<!-- Node8 -->
<g id="Node000008" class="node">
<title>Node8</title>
<g id="a_Node000008"><a xlink:href="abcgTrackball_8cpp.html" target="_top" xlink:title="Definition of abcg::TrackBall members.">
<polygon fill="white" stroke="#666666" points="1027.5,-162 894.5,-162 894.5,-132 1027.5,-132 1027.5,-162"/>
<text text-anchor="start" x="902.5" y="-150" font-family="Helvetica,sans-Serif" font-size="10.00">/home/harlen/dev/abcg</text>
<text text-anchor="middle" x="961" y="-139" font-family="Helvetica,sans-Serif" font-size="10.00">/abcg/abcgTrackball.cpp</text>
</a>
</g>
</g>
<!-- Node3&#45;&gt;Node8 -->
<g id="edge7_Node000003_Node000008" class="edge">
<title>Node3&#45;&gt;Node8</title>
<g id="a_edge7_Node000003_Node000008"><a xlink:title=" ">
<path fill="none" stroke="#63b8ff" d="M854.09,-193.92C877.64,-183.8 906.56,-171.38 928.38,-162.01"/>
<polygon fill="#63b8ff" stroke="#63b8ff" points="852.51,-190.79 844.7,-197.95 855.27,-197.22 852.51,-190.79"/>
</a>
</g>
</g>
<!-- Node5 -->
<g id="Node000005" class="node">
<title>Node5</title>
<g id="a_Node000005"><a xlink:href="abcgOpenGL_8hpp.html" target="_top" xlink:title="Header file for OpenGL&#45;related functions and classes.">
<polygon fill="white" stroke="#666666" points="876,-96 748,-96 748,-66 876,-66 876,-96"/>
<text text-anchor="start" x="756" y="-84" font-family="Helvetica,sans-Serif" font-size="10.00">/home/harlen/dev/abcg</text>
<text text-anchor="middle" x="812" y="-73" font-family="Helvetica,sans-Serif" font-size="10.00">/abcg/abcgOpenGL.hpp</text>
</a>
</g>
</g>
<!-- Node4&#45;&gt;Node5 -->
<g id="edge4_Node000004_Node000005" class="edge">
<title>Node4&#45;&gt;Node5</title>
<g id="a_edge4_Node000004_Node000005"><a xlink:title=" ">
<path fill="none" stroke="#63b8ff" d="M812,-121.54C812,-112.96 812,-103.61 812,-96.16"/>
<polygon fill="#63b8ff" stroke="#63b8ff" points="808.5,-121.8 812,-131.8 815.5,-121.8 808.5,-121.8"/>
</a>
</g>
</g>
<!-- Node6 -->
<g id="Node000006" class="node">
<title>Node6</title>
<g id="a_Node000006"><a xlink:href="abcgVulkan_8hpp.html" target="_top" xlink:title="Header file for Vulkan&#45;related functions and classes.">
<polygon fill="white" stroke="#666666" points="730,-96 602,-96 602,-66 730,-66 730,-96"/>
<text text-anchor="start" x="610" y="-84" font-family="Helvetica,sans-Serif" font-size="10.00">/home/harlen/dev/abcg</text>
<text text-anchor="middle" x="666" y="-73" font-family="Helvetica,sans-Serif" font-size="10.00">/abcg/abcgVulkan.hpp</text>
</a>
</g>
</g>
<!-- Node4&#45;&gt;Node6 -->
<g id="edge5_Node000004_Node000006" class="edge">
<title>Node4&#45;&gt;Node6</title>
<g id="a_edge5_Node000004_Node000006"><a xlink:title=" ">
<path fill="none" stroke="#63b8ff" d="M770.75,-127.92C747.68,-117.8 719.34,-105.38 697.97,-96.01"/>
<polygon fill="#63b8ff" stroke="#63b8ff" points="769.4,-131.15 779.96,-131.95 772.21,-124.73 769.4,-131.15"/>
</a>
</g>
</g>
<!-- Node7 -->
<g id="Node000007" class="node">
<title>Node7</title>
<g id="a_Node000007"><a xlink:href="abcgVulkanInstance_8cpp.html" target="_top" xlink:title="Definition of abcg::VulkanInstance.">
<polygon fill="white" stroke="#666666" points="747.5,-30 584.5,-30 584.5,0 747.5,0 747.5,-30"/>
<text text-anchor="start" x="592.5" y="-18" font-family="Helvetica,sans-Serif" font-size="10.00">/home/harlen/dev/abcg</text>
<text text-anchor="middle" x="666" y="-7" font-family="Helvetica,sans-Serif" font-size="10.00">/abcg/abcgVulkanInstance.cpp</text>
</a>
</g>
</g>
<!-- Node6&#45;&gt;Node7 -->
<g id="edge6_Node000006_Node000007" class="edge">
<title>Node6&#45;&gt;Node7</title>
<g id="a_edge6_Node000006_Node000007"><a xlink:title=" ">
<path fill="none" stroke="#63b8ff" d="M666,-55.54C666,-46.96 666,-37.61 666,-30.16"/>
<polygon fill="#63b8ff" stroke="#63b8ff" points="662.5,-55.8 666,-65.8 669.5,-55.8 662.5,-55.8"/>
</a>
</g>
</g>
<!-- Node9&#45;&gt;Node4 -->
<g id="edge9_Node000009_Node000004" class="edge">
<title>Node9&#45;&gt;Node4</title>
<g id="a_edge9_Node000009_Node000004"><a xlink:title=" ">
<path fill="none" stroke="#63b8ff" d="M510.2,-200.31C571.6,-190.5 661.07,-175.9 739,-162 741.92,-161.48 744.91,-160.94 747.92,-160.39"/>
<polygon fill="#63b8ff" stroke="#63b8ff" points="509.54,-196.87 500.22,-201.9 510.64,-203.78 509.54,-196.87"/>
</a>
</g>
</g>
<!-- Node10 -->
<g id="Node000010" class="node">
<title>Node10</title>
<g id="a_Node000010"><a xlink:href="abcgApplication_8cpp.html" target="_top" xlink:title="Definition of abcg::Application members.">
<polygon fill="white" stroke="#666666" points="144,-162 0,-162 0,-132 144,-132 144,-162"/>
<text text-anchor="start" x="8" y="-150" font-family="Helvetica,sans-Serif" font-size="10.00">/home/harlen/dev/abcg</text>
<text text-anchor="middle" x="72" y="-139" font-family="Helvetica,sans-Serif" font-size="10.00">/abcg/abcgApplication.cpp</text>
</a>
</g>
</g>
<!-- Node9&#45;&gt;Node10 -->
<g id="edge10_Node000009_Node000010" class="edge">
<title>Node9&#45;&gt;Node10</title>
<g id="a_edge10_Node000009_Node000010"><a xlink:title=" ">
<path fill="none" stroke="#63b8ff" d="M361.64,-197.77C281.52,-183.27 200.63,-169.48 144.12,-159.99"/>
<polygon fill="#63b8ff" stroke="#63b8ff" points="361.45,-201.3 371.92,-199.64 362.7,-194.41 361.45,-201.3"/>
</a>
</g>
</g>
<!-- Node11 -->
<g id="Node000011" class="node">
<title>Node11</title>
<g id="a_Node000011"><a xlink:href="abcgOpenGLWindow_8cpp.html" target="_top" xlink:title="Definition of abcg::OpenGLWindow members.">
<polygon fill="white" stroke="#666666" points="583.5,-96 418.5,-96 418.5,-66 583.5,-66 583.5,-96"/>
<text text-anchor="start" x="426.5" y="-84" font-family="Helvetica,sans-Serif" font-size="10.00">/home/harlen/dev/abcg</text>
<text text-anchor="middle" x="501" y="-73" font-family="Helvetica,sans-Serif" font-size="10.00">/abcg/abcgOpenGLWindow.cpp</text>
</a>
</g>
</g>
<!-- Node9&#45;&gt;Node11 -->
<g id="edge11_Node000009_Node000011" class="edge">
<title>Node9&#45;&gt;Node11</title>
<g id="a_edge11_Node000009_Node000011"><a xlink:title=" ">
<path fill="none" stroke="#63b8ff" d="M418.51,-189.39C407.91,-172.74 398.32,-149.97 409,-132 418.94,-115.28 436.65,-103.8 453.88,-96.11"/>
<polygon fill="#63b8ff" stroke="#63b8ff" points="415.83,-191.67 424.38,-197.94 421.6,-187.71 415.83,-191.67"/>
</a>
</g>
</g>
<!-- Node12 -->
<g id="Node000012" class="node">
<title>Node12</title>
<g id="a_Node000012"><a xlink:href="abcgOpenGLWindow_8hpp.html" target="_top" xlink:title="Header file of abcg::OpenGLWindow.">
<polygon fill="white" stroke="#666666" points="730,-162 564,-162 564,-132 730,-132 730,-162"/>
<text text-anchor="start" x="572" y="-150" font-family="Helvetica,sans-Serif" font-size="10.00">/home/harlen/dev/abcg</text>
<text text-anchor="middle" x="647" y="-139" font-family="Helvetica,sans-Serif" font-size="10.00">/abcg/abcgOpenGLWindow.hpp</text>
</a>
</g>
</g>
<!-- Node9&#45;&gt;Node12 -->
<g id="edge12_Node000009_Node000012" class="edge">
<title>Node9&#45;&gt;Node12</title>
<g id="a_edge12_Node000009_Node000012"><a xlink:title=" ">
<path fill="none" stroke="#63b8ff" d="M492.08,-194.99C526.03,-184.69 568.81,-171.72 600.8,-162.01"/>
<polygon fill="#63b8ff" stroke="#63b8ff" points="490.86,-191.7 482.3,-197.95 492.89,-198.4 490.86,-191.7"/>
</a>
</g>
</g>
<!-- Node13 -->
<g id="Node000013" class="node">
<title>Node13</title>
<g id="a_Node000013"><a xlink:href="abcgVulkanWindow_8cpp.html" target="_top" xlink:title="Definition of abcg::VulkanWindow members.">
<polygon fill="white" stroke="#666666" points="208,-96 48,-96 48,-66 208,-66 208,-96"/>
<text text-anchor="start" x="56" y="-84" font-family="Helvetica,sans-Serif" font-size="10.00">/home/harlen/dev/abcg</text>
<text text-anchor="middle" x="128" y="-73" font-family="Helvetica,sans-Serif" font-size="10.00">/abcg/abcgVulkanWindow.cpp</text>
</a>
</g>
</g>
<!-- Node9&#45;&gt;Node13 -->
<g id="edge15_Node000009_Node000013" class="edge">
<title>Node9&#45;&gt;Node13</title>
<g id="a_edge15_Node000009_Node000013"><a xlink:title=" ">
<path fill="none" stroke="#63b8ff" d="M361.46,-197.42C290.76,-183.5 194.72,-164.29 191,-162 164.67,-145.76 144.9,-114.34 135.02,-96.08"/>
<polygon fill="#63b8ff" stroke="#63b8ff" points="361.21,-200.94 371.7,-199.43 362.56,-194.07 361.21,-200.94"/>
</a>
</g>
</g>
<!-- Node14 -->
<g id="Node000014" class="node">
<title>Node14</title>
<g id="a_Node000014"><a xlink:href="abcgVulkanWindow_8hpp.html" target="_top" xlink:title="Header file of abcg::VulkanWindow.">
<polygon fill="white" stroke="#666666" points="361.5,-162 200.5,-162 200.5,-132 361.5,-132 361.5,-162"/>
<text text-anchor="start" x="208.5" y="-150" font-family="Helvetica,sans-Serif" font-size="10.00">/home/harlen/dev/abcg</text>
<text text-anchor="middle" x="281" y="-139" font-family="Helvetica,sans-Serif" font-size="10.00">/abcg/abcgVulkanWindow.hpp</text>
</a>
</g>
</g>
<!-- Node9&#45;&gt;Node14 -->
<g id="edge16_Node000009_Node000014" class="edge">
<title>Node9&#45;&gt;Node14</title>
<g id="a_edge16_Node000009_Node000014"><a xlink:title=" ">
<path fill="none" stroke="#63b8ff" d="M392.54,-194.05C367.98,-183.91 337.73,-171.43 314.94,-162.01"/>
<polygon fill="#63b8ff" stroke="#63b8ff" points="391.41,-197.37 401.98,-197.95 394.08,-190.9 391.41,-197.37"/>
</a>
</g>
</g>
<!-- Node16 -->
<g id="Node000016" class="node">
<title>Node16</title>
<g id="a_Node000016"><a xlink:href="abcgWindow_8cpp.html" target="_top" xlink:title="Definition of abcg::Window members.">
<polygon fill="white" stroke="#666666" points="546,-162 418,-162 418,-132 546,-132 546,-162"/>
<text text-anchor="start" x="426" y="-150" font-family="Helvetica,sans-Serif" font-size="10.00">/home/harlen/dev/abcg</text>
<text text-anchor="middle" x="482" y="-139" font-family="Helvetica,sans-Serif" font-size="10.00">/abcg/abcgWindow.cpp</text>
</a>
</g>
</g>
<!-- Node9&#45;&gt;Node16 -->
<g id="edge20_Node000009_Node000016" class="edge">
<title>Node9&#45;&gt;Node16</title>
<g id="a_edge20_Node000009_Node000016"><a xlink:title=" ">
<path fill="none" stroke="#63b8ff" d="M452.15,-189.53C458.69,-180.43 466.05,-170.19 471.82,-162.16"/>
<polygon fill="#63b8ff" stroke="#63b8ff" points="449.2,-187.63 446.21,-197.8 454.89,-191.72 449.2,-187.63"/>
</a>
</g>
</g>
<!-- Node12&#45;&gt;Node5 -->
<g id="edge13_Node000012_Node000005" class="edge">
<title>Node12&#45;&gt;Node5</title>
<g id="a_edge13_Node000012_Node000005"><a xlink:title=" ">
<path fill="none" stroke="#63b8ff" d="M692.57,-128.32C718.84,-118.14 751.39,-105.51 775.87,-96.01"/>
<polygon fill="#63b8ff" stroke="#63b8ff" points="691.27,-125.08 683.21,-131.95 693.8,-131.6 691.27,-125.08"/>
</a>
</g>
</g>
<!-- Node12&#45;&gt;Node11 -->
<g id="edge14_Node000012_Node000011" class="edge">
<title>Node12&#45;&gt;Node11</title>
<g id="a_edge14_Node000012_Node000011"><a xlink:title=" ">
<path fill="none" stroke="#63b8ff" d="M605.75,-127.92C582.68,-117.8 554.34,-105.38 532.97,-96.01"/>
<polygon fill="#63b8ff" stroke="#63b8ff" points="604.4,-131.15 614.96,-131.95 607.21,-124.73 604.4,-131.15"/>
</a>
</g>
</g>
<!-- Node14&#45;&gt;Node6 -->
<g id="edge17_Node000014_Node000006" class="edge">
<title>Node14&#45;&gt;Node6</title>
<g id="a_edge17_Node000014_Node000006"><a xlink:title=" ">
<path fill="none" stroke="#63b8ff" d="M371.79,-132.2C434.11,-122.54 518.66,-109.08 593,-96 595.92,-95.49 598.91,-94.95 601.93,-94.4"/>
<polygon fill="#63b8ff" stroke="#63b8ff" points="370.94,-128.79 361.59,-133.78 372.01,-135.71 370.94,-128.79"/>
</a>
</g>
</g>
<!-- Node14&#45;&gt;Node13 -->
<g id="edge19_Node000014_Node000013" class="edge">
<title>Node14&#45;&gt;Node13</title>
<g id="a_edge19_Node000014_Node000013"><a xlink:title=" ">
<path fill="none" stroke="#63b8ff" d="M238.1,-128.05C213.86,-117.91 184,-105.43 161.5,-96.01"/>
<polygon fill="#63b8ff" stroke="#63b8ff" points="236.85,-131.32 247.42,-131.95 239.55,-124.87 236.85,-131.32"/>
</a>
</g>
</g>
<!-- Node15 -->
<g id="Node000015" class="node">
<title>Node15</title>
<g id="a_Node000015"><a xlink:href="abcgVulkanSwapchain_8cpp.html" target="_top" xlink:title="Definition of abcg::VulkanSwapchain.">
<polygon fill="white" stroke="#666666" points="400,-96 226,-96 226,-66 400,-66 400,-96"/>
<text text-anchor="start" x="234" y="-84" font-family="Helvetica,sans-Serif" font-size="10.00">/home/harlen/dev/abcg</text>
<text text-anchor="middle" x="313" y="-73" font-family="Helvetica,sans-Serif" font-size="10.00">/abcg/abcgVulkanSwapchain.cpp</text>
</a>
</g>
</g>
<!-- Node14&#45;&gt;Node15 -->
<g id="edge18_Node000014_Node000015" class="edge">
<title>Node14&#45;&gt;Node15</title>
<g id="a_edge18_Node000014_Node000015"><a xlink:title=" ">
<path fill="none" stroke="#63b8ff" d="M292.66,-122.68C297.1,-113.79 302.03,-103.95 305.92,-96.16"/>
<polygon fill="#63b8ff" stroke="#63b8ff" points="289.44,-121.29 288.1,-131.8 295.7,-124.42 289.44,-121.29"/>
</a>
</g>
</g>
</g>
</svg>
