<?xml version="1.0" encoding="UTF-8" standalone="no"?>
<!DOCTYPE svg PUBLIC "-//W3C//DTD SVG 1.1//EN"
 "http://www.w3.org/Graphics/SVG/1.1/DTD/svg11.dtd">
<!-- Generated by graphviz version 2.43.0 (0)
 -->
<!-- Title: /home/harlen/dev/abcg2/abcg/abcg_opengl_error.hpp Pages: 1 -->
<svg width="247pt" height="151pt"
 viewBox="0.00 0.00 246.50 151.00" xmlns="http://www.w3.org/2000/svg" xmlns:xlink="http://www.w3.org/1999/xlink">
<g id="graph0" class="graph" transform="scale(1 1) rotate(0) translate(4 147)">
<title>/home/harlen/dev/abcg2/abcg/abcg_opengl_error.hpp</title>
<!-- Node1 -->
<g id="node1" class="node">
<title>Node1</title>
<g id="a_node1"><a xlink:title="Header file of abcg::OpenGLError and derived classes.">
<polygon fill="#bfbfbf" stroke="black" points="16.5,-112.5 16.5,-142.5 172.5,-142.5 172.5,-112.5 16.5,-112.5"/>
<text text-anchor="start" x="24.5" y="-130.5" font-family="Helvetica,sans-Serif" font-size="10.00">/home/harlen/dev/abcg2</text>
<text text-anchor="middle" x="94.5" y="-119.5" font-family="Helvetica,sans-Serif" font-size="10.00">/abcg/abcg_opengl_error.hpp</text>
</a>
</g>
</g>
<!-- Node2 -->
<g id="node2" class="node">
<title>Node2</title>
<g id="a_node2"><a xlink:title=" ">
<polygon fill="none" stroke="#bfbfbf" points="0,-0.5 0,-19.5 93,-19.5 93,-0.5 0,-0.5"/>
<text text-anchor="middle" x="46.5" y="-7.5" font-family="Helvetica,sans-Serif" font-size="10.00">source_location</text>
</a>
</g>
</g>
<!-- Node1&#45;&gt;Node2 -->
<g id="edge1" class="edge">
<title>Node1&#45;&gt;Node2</title>
<path fill="none" stroke="midnightblue" d="M88.61,-112.34C79.89,-91.34 63.52,-51.96 53.96,-28.96"/>
<polygon fill="midnightblue" stroke="midnightblue" points="57.17,-27.56 50.1,-19.67 50.71,-30.25 57.17,-27.56"/>
</g>
<!-- Node3 -->
<g id="node3" class="node">
<title>Node3</title>
<g id="a_node3"><a xlink:href="abcg__exception_8hpp.html" target="_top" xlink:title="Header file of abcg::Exception and derived classes.">
<polygon fill="none" stroke="black" points="83.5,-56.5 83.5,-75.5 197.5,-75.5 197.5,-56.5 83.5,-56.5"/>
<text text-anchor="middle" x="140.5" y="-63.5" font-family="Helvetica,sans-Serif" font-size="10.00">abcg_exception.hpp</text>
</a>
</g>
</g>
<!-- Node1&#45;&gt;Node3 -->
<g id="edge2" class="edge">
<title>Node1&#45;&gt;Node3</title>
<path fill="none" stroke="midnightblue" d="M105.4,-112.4C112.09,-103.75 120.68,-92.64 127.68,-83.58"/>
<polygon fill="midnightblue" stroke="midnightblue" points="130.46,-85.71 133.81,-75.66 124.92,-81.43 130.46,-85.71"/>
</g>
<!-- Node3&#45;&gt;Node2 -->
<g id="edge3" class="edge">
<title>Node3&#45;&gt;Node2</title>
<path fill="none" stroke="midnightblue" d="M125.4,-56.32C110.6,-47.82 87.81,-34.73 70.52,-24.8"/>
<polygon fill="midnightblue" stroke="midnightblue" points="71.98,-21.6 61.57,-19.65 68.49,-27.67 71.98,-21.6"/>
</g>
<!-- Node4 -->
<g id="node4" class="node">
<title>Node4</title>
<g id="a_node4"><a xlink:title=" ">
<polygon fill="none" stroke="#bfbfbf" points="111,-0.5 111,-19.5 176,-19.5 176,-0.5 111,-0.5"/>
<text text-anchor="middle" x="143.5" y="-7.5" font-family="Helvetica,sans-Serif" font-size="10.00">stdexcept</text>
</a>
</g>
</g>
<!-- Node3&#45;&gt;Node4 -->
<g id="edge4" class="edge">
<title>Node3&#45;&gt;Node4</title>
<path fill="none" stroke="midnightblue" d="M141,-56.08C141.39,-49.01 141.95,-38.86 142.45,-29.99"/>
<polygon fill="midnightblue" stroke="midnightblue" points="145.95,-29.93 143.01,-19.75 138.96,-29.54 145.95,-29.93"/>
</g>
<!-- Node5 -->
<g id="node5" class="node">
<title>Node5</title>
<g id="a_node5"><a xlink:title=" ">
<polygon fill="none" stroke="#bfbfbf" points="194.5,-0.5 194.5,-19.5 238.5,-19.5 238.5,-0.5 194.5,-0.5"/>
<text text-anchor="middle" x="216.5" y="-7.5" font-family="Helvetica,sans-Serif" font-size="10.00">string</text>
</a>
</g>
</g>
<!-- Node3&#45;&gt;Node5 -->
<g id="edge5" class="edge">
<title>Node3&#45;&gt;Node5</title>
<path fill="none" stroke="midnightblue" d="M152.71,-56.32C164.28,-48.11 181.88,-35.6 195.66,-25.81"/>
<polygon fill="midnightblue" stroke="midnightblue" points="197.94,-28.48 204.07,-19.83 193.89,-22.77 197.94,-28.48"/>
</g>
</g>
</svg>
