<?xml version="1.0" encoding="UTF-8" standalone="no"?>
<!DOCTYPE svg PUBLIC "-//W3C//DTD SVG 1.1//EN"
 "http://www.w3.org/Graphics/SVG/1.1/DTD/svg11.dtd">
<!-- Generated by graphviz version 2.43.0 (0)
 -->
<!-- Title: /home/harlen/dev/abcg/abcg/abcgOpenGL.hpp Pages: 1 -->
<svg width="1247pt" height="263pt"
 viewBox="0.00 0.00 1247.00 263.00" xmlns="http://www.w3.org/2000/svg" xmlns:xlink="http://www.w3.org/1999/xlink">
<g id="graph0" class="graph" transform="scale(1 1) rotate(0) translate(4 259)">
<title>/home/harlen/dev/abcg/abcg/abcgOpenGL.hpp</title>
<!-- Node1 -->
<g id="node1" class="node">
<title>Node1</title>
<g id="a_node1"><a xlink:title="Header file for OpenGL&#45;related functions and classes.">
<polygon fill="#bfbfbf" stroke="black" points="568,-224.5 568,-254.5 696,-254.5 696,-224.5 568,-224.5"/>
<text text-anchor="start" x="576" y="-242.5" font-family="Helvetica,sans-Serif" font-size="10.00">/home/harlen/dev/abcg</text>
<text text-anchor="middle" x="632" y="-231.5" font-family="Helvetica,sans-Serif" font-size="10.00">/abcg/abcgOpenGL.hpp</text>
</a>
</g>
</g>
<!-- Node2 -->
<g id="node2" class="node">
<title>Node2</title>
<g id="a_node2"><a xlink:href="abcg_8hpp.html" target="_top" xlink:title="Shortcut header that includes the most common ABCg headers.">
<polygon fill="none" stroke="black" points="324.5,-168.5 324.5,-187.5 385.5,-187.5 385.5,-168.5 324.5,-168.5"/>
<text text-anchor="middle" x="355" y="-175.5" font-family="Helvetica,sans-Serif" font-size="10.00">abcg.hpp</text>
</a>
</g>
</g>
<!-- Node1&#45;&gt;Node2 -->
<g id="edge1" class="edge">
<title>Node1&#45;&gt;Node2</title>
<path fill="none" stroke="midnightblue" d="M567.75,-224.7C514.67,-213.3 440.93,-197.46 395.67,-187.74"/>
<polygon fill="midnightblue" stroke="midnightblue" points="396.15,-184.26 385.64,-185.58 394.68,-191.1 396.15,-184.26"/>
</g>
<!-- Node15 -->
<g id="node15" class="node">
<title>Node15</title>
<g id="a_node15"><a xlink:href="abcgOpenGLImage_8hpp.html" target="_top" xlink:title="Declaration of OpenGL texture loading helper functions.">
<polygon fill="none" stroke="black" points="1086,-112.5 1086,-131.5 1216,-131.5 1216,-112.5 1086,-112.5"/>
<text text-anchor="middle" x="1151" y="-119.5" font-family="Helvetica,sans-Serif" font-size="10.00">abcgOpenGLImage.hpp</text>
</a>
</g>
</g>
<!-- Node1&#45;&gt;Node15 -->
<g id="edge20" class="edge">
<title>Node1&#45;&gt;Node15</title>
<path fill="none" stroke="midnightblue" d="M696.13,-229.51C755.76,-220.67 846.89,-205.91 925,-188 992.93,-172.43 1070.75,-148.72 1115.07,-134.65"/>
<polygon fill="midnightblue" stroke="midnightblue" points="1116.34,-137.92 1124.8,-131.55 1114.21,-131.25 1116.34,-137.92"/>
</g>
<!-- Node19 -->
<g id="node19" class="node">
<title>Node19</title>
<g id="a_node19"><a xlink:href="abcgOpenGLShader_8hpp.html" target="_top" xlink:title="Declaration of helper functions for building OpenGL shaders.">
<polygon fill="none" stroke="black" points="784,-168.5 784,-187.5 916,-187.5 916,-168.5 784,-168.5"/>
<text text-anchor="middle" x="850" y="-175.5" font-family="Helvetica,sans-Serif" font-size="10.00">abcgOpenGLShader.hpp</text>
</a>
</g>
</g>
<!-- Node1&#45;&gt;Node19 -->
<g id="edge24" class="edge">
<title>Node1&#45;&gt;Node19</title>
<path fill="none" stroke="midnightblue" d="M683.39,-224.47C721.65,-214.03 773.21,-199.96 808.79,-190.25"/>
<polygon fill="midnightblue" stroke="midnightblue" points="810.11,-193.52 818.83,-187.51 808.27,-186.76 810.11,-193.52"/>
</g>
<!-- Node23 -->
<g id="node23" class="node">
<title>Node23</title>
<g id="a_node23"><a xlink:href="abcgOpenGLWindow_8hpp.html" target="_top" xlink:title="Header file of abcg::OpenGLWindow.">
<polygon fill="none" stroke="black" points="487.5,-168.5 487.5,-187.5 624.5,-187.5 624.5,-168.5 487.5,-168.5"/>
<text text-anchor="middle" x="556" y="-175.5" font-family="Helvetica,sans-Serif" font-size="10.00">abcgOpenGLWindow.hpp</text>
</a>
</g>
</g>
<!-- Node1&#45;&gt;Node23 -->
<g id="edge30" class="edge">
<title>Node1&#45;&gt;Node23</title>
<path fill="none" stroke="midnightblue" d="M613.99,-224.4C602.26,-215.22 586.98,-203.26 575.06,-193.92"/>
<polygon fill="midnightblue" stroke="midnightblue" points="577.09,-191.07 567.06,-187.66 572.78,-196.58 577.09,-191.07"/>
</g>
<!-- Node3 -->
<g id="node3" class="node">
<title>Node3</title>
<g id="a_node3"><a xlink:href="abcgApplication_8hpp.html" target="_top" xlink:title="Header file of abcg::Application.">
<polygon fill="none" stroke="black" points="412,-112.5 412,-131.5 528,-131.5 528,-112.5 412,-112.5"/>
<text text-anchor="middle" x="470" y="-119.5" font-family="Helvetica,sans-Serif" font-size="10.00">abcgApplication.hpp</text>
</a>
</g>
</g>
<!-- Node2&#45;&gt;Node3 -->
<g id="edge2" class="edge">
<title>Node2&#45;&gt;Node3</title>
<path fill="none" stroke="midnightblue" d="M373.22,-168.44C391.9,-159.68 421.16,-145.94 442.62,-135.86"/>
<polygon fill="midnightblue" stroke="midnightblue" points="444.3,-138.93 451.86,-131.52 441.32,-132.6 444.3,-138.93"/>
</g>
<!-- Node5 -->
<g id="node5" class="node">
<title>Node5</title>
<g id="a_node5"><a xlink:href="abcgException_8hpp.html" target="_top" xlink:title="Header file of abcg::Exception and derived classes.">
<polygon fill="none" stroke="black" points="696.5,-112.5 696.5,-131.5 805.5,-131.5 805.5,-112.5 696.5,-112.5"/>
<text text-anchor="middle" x="751" y="-119.5" font-family="Helvetica,sans-Serif" font-size="10.00">abcgException.hpp</text>
</a>
</g>
</g>
<!-- Node2&#45;&gt;Node5 -->
<g id="edge4" class="edge">
<title>Node2&#45;&gt;Node5</title>
<path fill="none" stroke="midnightblue" d="M385.67,-172.89C442.59,-165.26 568.67,-148.31 685.96,-132.14"/>
<polygon fill="midnightblue" stroke="midnightblue" points="686.76,-135.56 696.19,-130.73 685.81,-128.63 686.76,-135.56"/>
</g>
<!-- Node8 -->
<g id="node8" class="node">
<title>Node8</title>
<g id="a_node8"><a xlink:href="abcgExternal_8hpp.html" target="_top" xlink:title="Header file for including third&#45;party dependencies.">
<polygon fill="none" stroke="black" points="148.5,-56.5 148.5,-75.5 249.5,-75.5 249.5,-56.5 148.5,-56.5"/>
<text text-anchor="middle" x="199" y="-63.5" font-family="Helvetica,sans-Serif" font-size="10.00">abcgExternal.hpp</text>
</a>
</g>
</g>
<!-- Node2&#45;&gt;Node8 -->
<g id="edge8" class="edge">
<title>Node2&#45;&gt;Node8</title>
<path fill="none" stroke="midnightblue" d="M324.4,-174.82C272.89,-170.45 172.41,-158.65 151,-132 137.41,-115.08 157.77,-94.88 176.01,-81.53"/>
<polygon fill="midnightblue" stroke="midnightblue" points="178.4,-84.14 184.64,-75.58 174.42,-78.38 178.4,-84.14"/>
</g>
<!-- Node9 -->
<g id="node9" class="node">
<title>Node9</title>
<g id="a_node9"><a xlink:href="abcgTrackball_8hpp.html" target="_top" xlink:title="Header file of abcg::TrackBall.">
<polygon fill="none" stroke="black" points="0,-112.5 0,-131.5 104,-131.5 104,-112.5 0,-112.5"/>
<text text-anchor="middle" x="52" y="-119.5" font-family="Helvetica,sans-Serif" font-size="10.00">abcgTrackball.hpp</text>
</a>
</g>
</g>
<!-- Node2&#45;&gt;Node9 -->
<g id="edge9" class="edge">
<title>Node2&#45;&gt;Node9</title>
<path fill="none" stroke="midnightblue" d="M324.28,-171.53C274.08,-162.58 173.68,-144.69 109.82,-133.31"/>
<polygon fill="midnightblue" stroke="midnightblue" points="110.36,-129.85 99.9,-131.54 109.13,-136.74 110.36,-129.85"/>
</g>
<!-- Node12 -->
<g id="node12" class="node">
<title>Node12</title>
<g id="a_node12"><a xlink:href="abcgUtil_8hpp.html" target="_top" xlink:title="Declaration of general utility functions.">
<polygon fill="none" stroke="black" points="316,-112.5 316,-131.5 394,-131.5 394,-112.5 316,-112.5"/>
<text text-anchor="middle" x="355" y="-119.5" font-family="Helvetica,sans-Serif" font-size="10.00">abcgUtil.hpp</text>
</a>
</g>
</g>
<!-- Node2&#45;&gt;Node12 -->
<g id="edge13" class="edge">
<title>Node2&#45;&gt;Node12</title>
<path fill="none" stroke="midnightblue" d="M355,-168.08C355,-161.01 355,-150.86 355,-141.99"/>
<polygon fill="midnightblue" stroke="midnightblue" points="358.5,-141.75 355,-131.75 351.5,-141.75 358.5,-141.75"/>
</g>
<!-- Node14 -->
<g id="node14" class="node">
<title>Node14</title>
<g id="a_node14"><a xlink:href="abcgWindow_8hpp.html" target="_top" xlink:title="Header file of abcg::Window.">
<polygon fill="none" stroke="black" points="160.5,-112.5 160.5,-131.5 259.5,-131.5 259.5,-112.5 160.5,-112.5"/>
<text text-anchor="middle" x="210" y="-119.5" font-family="Helvetica,sans-Serif" font-size="10.00">abcgWindow.hpp</text>
</a>
</g>
</g>
<!-- Node2&#45;&gt;Node14 -->
<g id="edge16" class="edge">
<title>Node2&#45;&gt;Node14</title>
<path fill="none" stroke="midnightblue" d="M332.02,-168.44C307.84,-159.44 269.58,-145.19 242.35,-135.05"/>
<polygon fill="midnightblue" stroke="midnightblue" points="243.46,-131.73 232.87,-131.52 241.02,-138.29 243.46,-131.73"/>
</g>
<!-- Node4 -->
<g id="node4" class="node">
<title>Node4</title>
<g id="a_node4"><a xlink:title=" ">
<polygon fill="none" stroke="#bfbfbf" points="488,-56.5 488,-75.5 532,-75.5 532,-56.5 488,-56.5"/>
<text text-anchor="middle" x="510" y="-63.5" font-family="Helvetica,sans-Serif" font-size="10.00">string</text>
</a>
</g>
</g>
<!-- Node3&#45;&gt;Node4 -->
<g id="edge3" class="edge">
<title>Node3&#45;&gt;Node4</title>
<path fill="none" stroke="midnightblue" d="M476.61,-112.08C482.26,-104.46 490.54,-93.26 497.45,-83.94"/>
<polygon fill="midnightblue" stroke="midnightblue" points="500.38,-85.87 503.52,-75.75 494.75,-81.7 500.38,-85.87"/>
</g>
<!-- Node5&#45;&gt;Node4 -->
<g id="edge7" class="edge">
<title>Node5&#45;&gt;Node4</title>
<path fill="none" stroke="midnightblue" d="M712.81,-112.44C665.63,-101.87 586.19,-84.07 542.04,-74.18"/>
<polygon fill="midnightblue" stroke="midnightblue" points="542.66,-70.73 532.13,-71.96 541.13,-77.56 542.66,-70.73"/>
</g>
<!-- Node6 -->
<g id="node6" class="node">
<title>Node6</title>
<g id="a_node6"><a xlink:title=" ">
<polygon fill="none" stroke="#bfbfbf" points="748.5,-56.5 748.5,-75.5 841.5,-75.5 841.5,-56.5 748.5,-56.5"/>
<text text-anchor="middle" x="795" y="-63.5" font-family="Helvetica,sans-Serif" font-size="10.00">source_location</text>
</a>
</g>
</g>
<!-- Node5&#45;&gt;Node6 -->
<g id="edge5" class="edge">
<title>Node5&#45;&gt;Node6</title>
<path fill="none" stroke="midnightblue" d="M758.27,-112.08C764.54,-104.38 773.79,-93.03 781.43,-83.65"/>
<polygon fill="midnightblue" stroke="midnightblue" points="784.27,-85.71 787.87,-75.75 778.84,-81.29 784.27,-85.71"/>
</g>
<!-- Node7 -->
<g id="node7" class="node">
<title>Node7</title>
<g id="a_node7"><a xlink:title=" ">
<polygon fill="none" stroke="#bfbfbf" points="665.5,-56.5 665.5,-75.5 730.5,-75.5 730.5,-56.5 665.5,-56.5"/>
<text text-anchor="middle" x="698" y="-63.5" font-family="Helvetica,sans-Serif" font-size="10.00">stdexcept</text>
</a>
</g>
</g>
<!-- Node5&#45;&gt;Node7 -->
<g id="edge6" class="edge">
<title>Node5&#45;&gt;Node7</title>
<path fill="none" stroke="midnightblue" d="M742.25,-112.08C734.53,-104.22 723.1,-92.57 713.78,-83.08"/>
<polygon fill="midnightblue" stroke="midnightblue" points="716.09,-80.44 706.59,-75.75 711.1,-85.34 716.09,-80.44"/>
</g>
<!-- Node9&#45;&gt;Node8 -->
<g id="edge10" class="edge">
<title>Node9&#45;&gt;Node8</title>
<path fill="none" stroke="midnightblue" d="M75.29,-112.44C99.81,-103.44 138.6,-89.19 166.2,-79.05"/>
<polygon fill="midnightblue" stroke="midnightblue" points="167.64,-82.25 175.82,-75.52 165.22,-75.68 167.64,-82.25"/>
</g>
<!-- Node10 -->
<g id="node10" class="node">
<title>Node10</title>
<g id="a_node10"><a xlink:href="abcgTimer_8hpp.html" target="_top" xlink:title="Header file of abcg::Timer.">
<polygon fill="none" stroke="black" points="19.5,-56.5 19.5,-75.5 108.5,-75.5 108.5,-56.5 19.5,-56.5"/>
<text text-anchor="middle" x="64" y="-63.5" font-family="Helvetica,sans-Serif" font-size="10.00">abcgTimer.hpp</text>
</a>
</g>
</g>
<!-- Node9&#45;&gt;Node10 -->
<g id="edge11" class="edge">
<title>Node9&#45;&gt;Node10</title>
<path fill="none" stroke="midnightblue" d="M53.98,-112.08C55.57,-104.93 57.86,-94.64 59.85,-85.69"/>
<polygon fill="midnightblue" stroke="midnightblue" points="63.3,-86.27 62.06,-75.75 56.47,-84.75 63.3,-86.27"/>
</g>
<!-- Node11 -->
<g id="node11" class="node">
<title>Node11</title>
<g id="a_node11"><a xlink:title=" ">
<polygon fill="none" stroke="#bfbfbf" points="39,-0.5 39,-19.5 89,-19.5 89,-0.5 39,-0.5"/>
<text text-anchor="middle" x="64" y="-7.5" font-family="Helvetica,sans-Serif" font-size="10.00">chrono</text>
</a>
</g>
</g>
<!-- Node10&#45;&gt;Node11 -->
<g id="edge12" class="edge">
<title>Node10&#45;&gt;Node11</title>
<path fill="none" stroke="midnightblue" d="M64,-56.08C64,-49.01 64,-38.86 64,-29.99"/>
<polygon fill="midnightblue" stroke="midnightblue" points="67.5,-29.75 64,-19.75 60.5,-29.75 67.5,-29.75"/>
</g>
<!-- Node12&#45;&gt;Node4 -->
<g id="edge15" class="edge">
<title>Node12&#45;&gt;Node4</title>
<path fill="none" stroke="midnightblue" d="M379.56,-112.44C406.13,-103.19 448.61,-88.39 477.83,-78.21"/>
<polygon fill="midnightblue" stroke="midnightblue" points="479.28,-81.41 487.57,-74.82 476.97,-74.8 479.28,-81.41"/>
</g>
<!-- Node13 -->
<g id="node13" class="node">
<title>Node13</title>
<g id="a_node13"><a xlink:title=" ">
<polygon fill="none" stroke="#bfbfbf" points="322.5,-56.5 322.5,-75.5 387.5,-75.5 387.5,-56.5 322.5,-56.5"/>
<text text-anchor="middle" x="355" y="-63.5" font-family="Helvetica,sans-Serif" font-size="10.00">functional</text>
</a>
</g>
</g>
<!-- Node12&#45;&gt;Node13 -->
<g id="edge14" class="edge">
<title>Node12&#45;&gt;Node13</title>
<path fill="none" stroke="midnightblue" d="M355,-112.08C355,-105.01 355,-94.86 355,-85.99"/>
<polygon fill="midnightblue" stroke="midnightblue" points="358.5,-85.75 355,-75.75 351.5,-85.75 358.5,-85.75"/>
</g>
<!-- Node14&#45;&gt;Node4 -->
<g id="edge17" class="edge">
<title>Node14&#45;&gt;Node4</title>
<path fill="none" stroke="midnightblue" d="M257.54,-112.44C319.18,-101.35 425.06,-82.29 477.96,-72.77"/>
<polygon fill="midnightblue" stroke="midnightblue" points="478.58,-76.21 487.81,-71 477.34,-69.32 478.58,-76.21"/>
</g>
<!-- Node14&#45;&gt;Node8 -->
<g id="edge18" class="edge">
<title>Node14&#45;&gt;Node8</title>
<path fill="none" stroke="midnightblue" d="M208.18,-112.08C206.73,-104.93 204.63,-94.64 202.81,-85.69"/>
<polygon fill="midnightblue" stroke="midnightblue" points="206.21,-84.85 200.78,-75.75 199.35,-86.25 206.21,-84.85"/>
</g>
<!-- Node14&#45;&gt;Node10 -->
<g id="edge19" class="edge">
<title>Node14&#45;&gt;Node10</title>
<path fill="none" stroke="midnightblue" d="M186.87,-112.44C162.52,-103.44 123.99,-89.19 96.58,-79.05"/>
<polygon fill="midnightblue" stroke="midnightblue" points="97.62,-75.7 87.03,-75.52 95.19,-82.27 97.62,-75.7"/>
</g>
<!-- Node16 -->
<g id="node16" class="node">
<title>Node16</title>
<g id="a_node16"><a xlink:href="abcgOpenGLExternal_8hpp.html" target="_top" xlink:title="Header file for including OpenGL&#45;related third&#45;party dependencies.">
<polygon fill="none" stroke="black" points="947,-56.5 947,-75.5 1087,-75.5 1087,-56.5 947,-56.5"/>
<text text-anchor="middle" x="1017" y="-63.5" font-family="Helvetica,sans-Serif" font-size="10.00">abcgOpenGLExternal.hpp</text>
</a>
</g>
</g>
<!-- Node15&#45;&gt;Node16 -->
<g id="edge21" class="edge">
<title>Node15&#45;&gt;Node16</title>
<path fill="none" stroke="midnightblue" d="M1129.77,-112.44C1107.62,-103.52 1072.68,-89.44 1047.56,-79.32"/>
<polygon fill="midnightblue" stroke="midnightblue" points="1048.72,-76.01 1038.13,-75.52 1046.1,-82.5 1048.72,-76.01"/>
</g>
<!-- Node17 -->
<g id="node17" class="node">
<title>Node17</title>
<g id="a_node17"><a xlink:title=" ">
<polygon fill="none" stroke="#bfbfbf" points="1197,-56.5 1197,-75.5 1239,-75.5 1239,-56.5 1197,-56.5"/>
<text text-anchor="middle" x="1218" y="-63.5" font-family="Helvetica,sans-Serif" font-size="10.00">array</text>
</a>
</g>
</g>
<!-- Node15&#45;&gt;Node17 -->
<g id="edge22" class="edge">
<title>Node15&#45;&gt;Node17</title>
<path fill="none" stroke="midnightblue" d="M1161.76,-112.32C1171.77,-104.26 1186.89,-92.08 1198.93,-82.37"/>
<polygon fill="midnightblue" stroke="midnightblue" points="1201.45,-84.83 1207.04,-75.83 1197.06,-79.38 1201.45,-84.83"/>
</g>
<!-- Node18 -->
<g id="node18" class="node">
<title>Node18</title>
<g id="a_node18"><a xlink:title=" ">
<polygon fill="none" stroke="#bfbfbf" points="1105.5,-56.5 1105.5,-75.5 1178.5,-75.5 1178.5,-56.5 1105.5,-56.5"/>
<text text-anchor="middle" x="1142" y="-63.5" font-family="Helvetica,sans-Serif" font-size="10.00">string_view</text>
</a>
</g>
</g>
<!-- Node15&#45;&gt;Node18 -->
<g id="edge23" class="edge">
<title>Node15&#45;&gt;Node18</title>
<path fill="none" stroke="midnightblue" d="M1149.51,-112.08C1148.32,-104.93 1146.61,-94.64 1145.12,-85.69"/>
<polygon fill="midnightblue" stroke="midnightblue" points="1148.55,-85.04 1143.46,-75.75 1141.65,-86.19 1148.55,-85.04"/>
</g>
<!-- Node19&#45;&gt;Node16 -->
<g id="edge25" class="edge">
<title>Node19&#45;&gt;Node16</title>
<path fill="none" stroke="midnightblue" d="M892.26,-168.48C917.63,-161.78 949.44,-150.41 973,-132 989.05,-119.46 1001.36,-99.4 1008.83,-84.88"/>
<polygon fill="midnightblue" stroke="midnightblue" points="1011.98,-86.39 1013.21,-75.87 1005.68,-83.33 1011.98,-86.39"/>
</g>
<!-- Node20 -->
<g id="node20" class="node">
<title>Node20</title>
<g id="a_node20"><a xlink:href="abcgShader_8hpp.html" target="_top" xlink:title="Declaration of a structure for building shaders.">
<polygon fill="none" stroke="black" points="584,-112.5 584,-131.5 678,-131.5 678,-112.5 584,-112.5"/>
<text text-anchor="middle" x="631" y="-119.5" font-family="Helvetica,sans-Serif" font-size="10.00">abcgShader.hpp</text>
</a>
</g>
</g>
<!-- Node19&#45;&gt;Node20 -->
<g id="edge26" class="edge">
<title>Node19&#45;&gt;Node20</title>
<path fill="none" stroke="midnightblue" d="M815.3,-168.44C777.42,-159.1 716.65,-144.12 675.34,-133.93"/>
<polygon fill="midnightblue" stroke="midnightblue" points="676.09,-130.51 665.54,-131.52 674.41,-137.31 676.09,-130.51"/>
</g>
<!-- Node22 -->
<g id="node22" class="node">
<title>Node22</title>
<g id="a_node22"><a xlink:title=" ">
<polygon fill="none" stroke="#bfbfbf" points="1020.5,-112.5 1020.5,-131.5 1067.5,-131.5 1067.5,-112.5 1020.5,-112.5"/>
<text text-anchor="middle" x="1044" y="-119.5" font-family="Helvetica,sans-Serif" font-size="10.00">vector</text>
</a>
</g>
</g>
<!-- Node19&#45;&gt;Node22 -->
<g id="edge29" class="edge">
<title>Node19&#45;&gt;Node22</title>
<path fill="none" stroke="midnightblue" d="M880.74,-168.44C916.19,-158.58 974.26,-142.41 1010.74,-132.26"/>
<polygon fill="midnightblue" stroke="midnightblue" points="1011.73,-135.62 1020.42,-129.56 1009.85,-128.87 1011.73,-135.62"/>
</g>
<!-- Node20&#45;&gt;Node4 -->
<g id="edge28" class="edge">
<title>Node20&#45;&gt;Node4</title>
<path fill="none" stroke="midnightblue" d="M611.83,-112.44C592.09,-103.64 561.11,-89.81 538.51,-79.72"/>
<polygon fill="midnightblue" stroke="midnightblue" points="539.64,-76.4 529.08,-75.52 536.79,-82.79 539.64,-76.4"/>
</g>
<!-- Node21 -->
<g id="node21" class="node">
<title>Node21</title>
<g id="a_node21"><a xlink:title=" ">
<polygon fill="none" stroke="#bfbfbf" points="591,-56.5 591,-75.5 647,-75.5 647,-56.5 591,-56.5"/>
<text text-anchor="middle" x="619" y="-63.5" font-family="Helvetica,sans-Serif" font-size="10.00">optional</text>
</a>
</g>
</g>
<!-- Node20&#45;&gt;Node21 -->
<g id="edge27" class="edge">
<title>Node20&#45;&gt;Node21</title>
<path fill="none" stroke="midnightblue" d="M629.02,-112.08C627.43,-104.93 625.14,-94.64 623.15,-85.69"/>
<polygon fill="midnightblue" stroke="midnightblue" points="626.53,-84.75 620.94,-75.75 619.7,-86.27 626.53,-84.75"/>
</g>
<!-- Node23&#45;&gt;Node4 -->
<g id="edge31" class="edge">
<title>Node23&#45;&gt;Node4</title>
<path fill="none" stroke="midnightblue" d="M554.21,-168.34C551.43,-155.65 545.48,-131.39 537,-112 532.8,-102.4 526.93,-92.35 521.73,-84.18"/>
<polygon fill="midnightblue" stroke="midnightblue" points="524.5,-82.03 516.08,-75.6 518.66,-85.88 524.5,-82.03"/>
</g>
<!-- Node23&#45;&gt;Node8 -->
<g id="edge32" class="edge">
<title>Node23&#45;&gt;Node8</title>
<path fill="none" stroke="midnightblue" d="M487.38,-171.35C436.34,-165.55 365.68,-154.11 307,-132 289.32,-125.34 246.37,-98.1 220.27,-81.07"/>
<polygon fill="midnightblue" stroke="midnightblue" points="222.09,-78.08 211.81,-75.52 218.25,-83.93 222.09,-78.08"/>
</g>
<!-- Node23&#45;&gt;Node14 -->
<g id="edge38" class="edge">
<title>Node23&#45;&gt;Node14</title>
<path fill="none" stroke="midnightblue" d="M501.18,-168.44C438.05,-158.59 334.71,-142.46 269.63,-132.31"/>
<polygon fill="midnightblue" stroke="midnightblue" points="269.94,-128.81 259.52,-130.73 268.86,-135.73 269.94,-128.81"/>
</g>
<!-- Node24 -->
<g id="node24" class="node">
<title>Node24</title>
<g id="a_node24"><a xlink:href="abcgOpenGLFunction_8hpp.html" target="_top" xlink:title="Declaration of OpenGL&#45;related error checking functions.">
<polygon fill="none" stroke="black" points="824,-112.5 824,-131.5 964,-131.5 964,-112.5 824,-112.5"/>
<text text-anchor="middle" x="894" y="-119.5" font-family="Helvetica,sans-Serif" font-size="10.00">abcgOpenGLFunction.hpp</text>
</a>
</g>
</g>
<!-- Node23&#45;&gt;Node24 -->
<g id="edge33" class="edge">
<title>Node23&#45;&gt;Node24</title>
<path fill="none" stroke="midnightblue" d="M609.56,-168.44C669.63,-158.85 766.99,-143.29 830.76,-133.1"/>
<polygon fill="midnightblue" stroke="midnightblue" points="831.37,-136.55 840.69,-131.52 830.27,-129.64 831.37,-136.55"/>
</g>
<!-- Node24&#45;&gt;Node6 -->
<g id="edge34" class="edge">
<title>Node24&#45;&gt;Node6</title>
<path fill="none" stroke="midnightblue" d="M878.09,-112.32C862.36,-103.74 838.06,-90.49 819.79,-80.52"/>
<polygon fill="midnightblue" stroke="midnightblue" points="821.32,-77.37 810.87,-75.65 817.97,-83.52 821.32,-77.37"/>
</g>
<!-- Node24&#45;&gt;Node16 -->
<g id="edge37" class="edge">
<title>Node24&#45;&gt;Node16</title>
<path fill="none" stroke="midnightblue" d="M913.49,-112.44C933.64,-103.6 965.32,-89.69 988.33,-79.59"/>
<polygon fill="midnightblue" stroke="midnightblue" points="989.85,-82.74 997.6,-75.52 987.04,-76.33 989.85,-82.74"/>
</g>
<!-- Node24&#45;&gt;Node18 -->
<g id="edge35" class="edge">
<title>Node24&#45;&gt;Node18</title>
<path fill="none" stroke="midnightblue" d="M933.3,-112.44C977.32,-102.86 1048.64,-87.33 1095.43,-77.14"/>
<polygon fill="midnightblue" stroke="midnightblue" points="1096.29,-80.54 1105.31,-74.99 1094.8,-73.7 1096.29,-80.54"/>
</g>
<!-- Node25 -->
<g id="node25" class="node">
<title>Node25</title>
<g id="a_node25"><a xlink:title=" ">
<polygon fill="none" stroke="#bfbfbf" points="859.5,-56.5 859.5,-75.5 928.5,-75.5 928.5,-56.5 859.5,-56.5"/>
<text text-anchor="middle" x="894" y="-63.5" font-family="Helvetica,sans-Serif" font-size="10.00">type_traits</text>
</a>
</g>
</g>
<!-- Node24&#45;&gt;Node25 -->
<g id="edge36" class="edge">
<title>Node24&#45;&gt;Node25</title>
<path fill="none" stroke="midnightblue" d="M894,-112.08C894,-105.01 894,-94.86 894,-85.99"/>
<polygon fill="midnightblue" stroke="midnightblue" points="897.5,-85.75 894,-75.75 890.5,-85.75 897.5,-85.75"/>
</g>
</g>
</svg>
