<?xml version="1.0" encoding="UTF-8" standalone="no"?>
<!DOCTYPE svg PUBLIC "-//W3C//DTD SVG 1.1//EN"
 "http://www.w3.org/Graphics/SVG/1.1/DTD/svg11.dtd">
<!-- Generated by graphviz version 2.43.0 (0)
 -->
<!-- Title: /home/harlen/dev/abcg/abcg/abcgVulkanInstance.cpp Pages: 1 -->
<svg width="1557pt" height="543pt"
 viewBox="0.00 0.00 1556.50 543.00" xmlns="http://www.w3.org/2000/svg" xmlns:xlink="http://www.w3.org/1999/xlink">
<g id="graph0" class="graph" transform="scale(1 1) rotate(0) translate(4 539)">
<title>/home/harlen/dev/abcg/abcg/abcgVulkanInstance.cpp</title>
<!-- Node1 -->
<g id="node1" class="node">
<title>Node1</title>
<g id="a_node1"><a xlink:title="Definition of abcg::VulkanInstance.">
<polygon fill="#bfbfbf" stroke="black" points="1202.5,-504.5 1202.5,-534.5 1365.5,-534.5 1365.5,-504.5 1202.5,-504.5"/>
<text text-anchor="start" x="1210.5" y="-522.5" font-family="Helvetica,sans-Serif" font-size="10.00">/home/harlen/dev/abcg</text>
<text text-anchor="middle" x="1284" y="-511.5" font-family="Helvetica,sans-Serif" font-size="10.00">/abcg/abcgVulkanInstance.cpp</text>
</a>
</g>
</g>
<!-- Node2 -->
<g id="node2" class="node">
<title>Node2</title>
<g id="a_node2"><a xlink:href="abcgVulkanInstance_8hpp.html" target="_top" xlink:title="Header file of abcg::VulkanInstance.">
<polygon fill="none" stroke="black" points="705,-112.5 705,-131.5 839,-131.5 839,-112.5 705,-112.5"/>
<text text-anchor="middle" x="772" y="-119.5" font-family="Helvetica,sans-Serif" font-size="10.00">abcgVulkanInstance.hpp</text>
</a>
</g>
</g>
<!-- Node1&#45;&gt;Node2 -->
<g id="edge1" class="edge">
<title>Node1&#45;&gt;Node2</title>
<path fill="none" stroke="midnightblue" d="M1288.45,-504.44C1294.88,-482.86 1306,-440.15 1306,-403 1306,-403 1306,-403 1306,-233 1306,-140.91 997.5,-125.26 849.47,-123.05"/>
<polygon fill="midnightblue" stroke="midnightblue" points="849.14,-119.55 839.09,-122.92 849.04,-126.55 849.14,-119.55"/>
</g>
<!-- Node6 -->
<g id="node6" class="node">
<title>Node6</title>
<g id="a_node6"><a xlink:title=" ">
<polygon fill="none" stroke="#bfbfbf" points="1372,-448.5 1372,-467.5 1412,-467.5 1412,-448.5 1372,-448.5"/>
<text text-anchor="middle" x="1392" y="-455.5" font-family="Helvetica,sans-Serif" font-size="10.00">span</text>
</a>
</g>
</g>
<!-- Node1&#45;&gt;Node6 -->
<g id="edge5" class="edge">
<title>Node1&#45;&gt;Node6</title>
<path fill="none" stroke="midnightblue" d="M1309.59,-504.4C1327.07,-494.77 1350.09,-482.09 1367.36,-472.58"/>
<polygon fill="midnightblue" stroke="midnightblue" points="1369.22,-475.55 1376.29,-467.66 1365.84,-469.42 1369.22,-475.55"/>
</g>
<!-- Node7 -->
<g id="node7" class="node">
<title>Node7</title>
<g id="a_node7"><a xlink:href="abcgApplication_8hpp.html" target="_top" xlink:title="Header file of abcg::Application.">
<polygon fill="none" stroke="black" points="1162,-336.5 1162,-355.5 1278,-355.5 1278,-336.5 1162,-336.5"/>
<text text-anchor="middle" x="1220" y="-343.5" font-family="Helvetica,sans-Serif" font-size="10.00">abcgApplication.hpp</text>
</a>
</g>
</g>
<!-- Node1&#45;&gt;Node7 -->
<g id="edge6" class="edge">
<title>Node1&#45;&gt;Node7</title>
<path fill="none" stroke="midnightblue" d="M1278.76,-504.47C1267.23,-473.57 1239.66,-399.69 1226.81,-365.25"/>
<polygon fill="midnightblue" stroke="midnightblue" points="1229.97,-363.7 1223.19,-355.56 1223.41,-366.15 1229.97,-363.7"/>
</g>
<!-- Node9 -->
<g id="node9" class="node">
<title>Node9</title>
<g id="a_node9"><a xlink:href="abcgException_8hpp.html" target="_top" xlink:title="Header file of abcg::Exception and derived classes.">
<polygon fill="none" stroke="black" points="1334.5,-336.5 1334.5,-355.5 1443.5,-355.5 1443.5,-336.5 1334.5,-336.5"/>
<text text-anchor="middle" x="1389" y="-343.5" font-family="Helvetica,sans-Serif" font-size="10.00">abcgException.hpp</text>
</a>
</g>
</g>
<!-- Node1&#45;&gt;Node9 -->
<g id="edge8" class="edge">
<title>Node1&#45;&gt;Node9</title>
<path fill="none" stroke="midnightblue" d="M1294.79,-504.18C1302.16,-494.22 1312,-480.52 1320,-468 1342.91,-432.17 1366.91,-388.46 1379.69,-364.61"/>
<polygon fill="midnightblue" stroke="midnightblue" points="1382.83,-366.16 1384.44,-355.68 1376.65,-362.86 1382.83,-366.16"/>
</g>
<!-- Node12 -->
<g id="node12" class="node">
<title>Node12</title>
<g id="a_node12"><a xlink:href="abcgVulkan_8hpp.html" target="_top" xlink:title="Header file for Vulkan&#45;related functions and classes.">
<polygon fill="none" stroke="black" points="448.5,-448.5 448.5,-467.5 541.5,-467.5 541.5,-448.5 448.5,-448.5"/>
<text text-anchor="middle" x="495" y="-455.5" font-family="Helvetica,sans-Serif" font-size="10.00">abcgVulkan.hpp</text>
</a>
</g>
</g>
<!-- Node1&#45;&gt;Node12 -->
<g id="edge12" class="edge">
<title>Node1&#45;&gt;Node12</title>
<path fill="none" stroke="midnightblue" d="M1202.17,-512.33C1041.76,-500.23 689.67,-473.68 551.88,-463.29"/>
<polygon fill="midnightblue" stroke="midnightblue" points="551.79,-459.77 541.56,-462.51 551.27,-466.75 551.79,-459.77"/>
</g>
<!-- Node20 -->
<g id="node20" class="node">
<title>Node20</title>
<g id="a_node20"><a xlink:href="abcgWindow_8hpp.html" target="_top" xlink:title="Header file of abcg::Window.">
<polygon fill="none" stroke="black" points="846.5,-336.5 846.5,-355.5 945.5,-355.5 945.5,-336.5 846.5,-336.5"/>
<text text-anchor="middle" x="896" y="-343.5" font-family="Helvetica,sans-Serif" font-size="10.00">abcgWindow.hpp</text>
</a>
</g>
</g>
<!-- Node1&#45;&gt;Node20 -->
<g id="edge59" class="edge">
<title>Node1&#45;&gt;Node20</title>
<path fill="none" stroke="midnightblue" d="M1224.92,-504.47C1161.19,-487.88 1057.97,-456.77 977,-412 952.5,-398.46 927.93,-377.43 912.38,-362.98"/>
<polygon fill="midnightblue" stroke="midnightblue" points="914.39,-360.07 904.73,-355.72 909.57,-365.15 914.39,-360.07"/>
</g>
<!-- Node3 -->
<g id="node3" class="node">
<title>Node3</title>
<g id="a_node3"><a xlink:href="abcgVulkanExternal_8hpp.html" target="_top" xlink:title="Header file for including Vulkan&#45;related dependencies.">
<polygon fill="none" stroke="black" points="525,-56.5 525,-75.5 659,-75.5 659,-56.5 525,-56.5"/>
<text text-anchor="middle" x="592" y="-63.5" font-family="Helvetica,sans-Serif" font-size="10.00">abcgVulkanExternal.hpp</text>
</a>
</g>
</g>
<!-- Node2&#45;&gt;Node3 -->
<g id="edge2" class="edge">
<title>Node2&#45;&gt;Node3</title>
<path fill="none" stroke="midnightblue" d="M743.48,-112.44C712.93,-103.28 664.29,-88.69 630.4,-78.52"/>
<polygon fill="midnightblue" stroke="midnightblue" points="630.97,-75.04 620.39,-75.52 628.96,-81.74 630.97,-75.04"/>
</g>
<!-- Node4 -->
<g id="node4" class="node">
<title>Node4</title>
<g id="a_node4"><a xlink:title=" ">
<polygon fill="none" stroke="#bfbfbf" points="521.5,-0.5 521.5,-19.5 568.5,-19.5 568.5,-0.5 521.5,-0.5"/>
<text text-anchor="middle" x="545" y="-7.5" font-family="Helvetica,sans-Serif" font-size="10.00">volk.h</text>
</a>
</g>
</g>
<!-- Node3&#45;&gt;Node4 -->
<g id="edge3" class="edge">
<title>Node3&#45;&gt;Node4</title>
<path fill="none" stroke="midnightblue" d="M584.24,-56.08C577.46,-48.3 567.46,-36.8 559.24,-27.37"/>
<polygon fill="midnightblue" stroke="midnightblue" points="561.82,-25 552.62,-19.75 556.54,-29.59 561.82,-25"/>
</g>
<!-- Node5 -->
<g id="node5" class="node">
<title>Node5</title>
<g id="a_node5"><a xlink:title=" ">
<polygon fill="none" stroke="#bfbfbf" points="586.5,-0.5 586.5,-19.5 691.5,-19.5 691.5,-0.5 586.5,-0.5"/>
<text text-anchor="middle" x="639" y="-7.5" font-family="Helvetica,sans-Serif" font-size="10.00">vulkan/vulkan.hpp</text>
</a>
</g>
</g>
<!-- Node3&#45;&gt;Node5 -->
<g id="edge4" class="edge">
<title>Node3&#45;&gt;Node5</title>
<path fill="none" stroke="midnightblue" d="M599.76,-56.08C606.54,-48.3 616.54,-36.8 624.76,-27.37"/>
<polygon fill="midnightblue" stroke="midnightblue" points="627.46,-29.59 631.38,-19.75 622.18,-25 627.46,-29.59"/>
</g>
<!-- Node8 -->
<g id="node8" class="node">
<title>Node8</title>
<g id="a_node8"><a xlink:title=" ">
<polygon fill="none" stroke="#bfbfbf" points="1074,-224.5 1074,-243.5 1118,-243.5 1118,-224.5 1074,-224.5"/>
<text text-anchor="middle" x="1096" y="-231.5" font-family="Helvetica,sans-Serif" font-size="10.00">string</text>
</a>
</g>
</g>
<!-- Node7&#45;&gt;Node8 -->
<g id="edge7" class="edge">
<title>Node7&#45;&gt;Node8</title>
<path fill="none" stroke="midnightblue" d="M1210.27,-336.37C1189.35,-317.81 1139.87,-273.91 1113.4,-250.44"/>
<polygon fill="midnightblue" stroke="midnightblue" points="1115.49,-247.61 1105.68,-243.59 1110.84,-252.85 1115.49,-247.61"/>
</g>
<!-- Node9&#45;&gt;Node8 -->
<g id="edge11" class="edge">
<title>Node9&#45;&gt;Node8</title>
<path fill="none" stroke="midnightblue" d="M1366.01,-336.37C1313.98,-316.83 1187.12,-269.21 1127.69,-246.9"/>
<polygon fill="midnightblue" stroke="midnightblue" points="1128.67,-243.53 1118.08,-243.29 1126.21,-250.08 1128.67,-243.53"/>
</g>
<!-- Node10 -->
<g id="node10" class="node">
<title>Node10</title>
<g id="a_node10"><a xlink:title=" ">
<polygon fill="none" stroke="#bfbfbf" points="1455.5,-280.5 1455.5,-299.5 1548.5,-299.5 1548.5,-280.5 1455.5,-280.5"/>
<text text-anchor="middle" x="1502" y="-287.5" font-family="Helvetica,sans-Serif" font-size="10.00">source_location</text>
</a>
</g>
</g>
<!-- Node9&#45;&gt;Node10 -->
<g id="edge9" class="edge">
<title>Node9&#45;&gt;Node10</title>
<path fill="none" stroke="midnightblue" d="M1406.91,-336.44C1425.25,-327.68 1454.01,-313.94 1475.09,-303.86"/>
<polygon fill="midnightblue" stroke="midnightblue" points="1476.67,-306.99 1484.18,-299.52 1473.65,-300.67 1476.67,-306.99"/>
</g>
<!-- Node11 -->
<g id="node11" class="node">
<title>Node11</title>
<g id="a_node11"><a xlink:title=" ">
<polygon fill="none" stroke="#bfbfbf" points="1372.5,-280.5 1372.5,-299.5 1437.5,-299.5 1437.5,-280.5 1372.5,-280.5"/>
<text text-anchor="middle" x="1405" y="-287.5" font-family="Helvetica,sans-Serif" font-size="10.00">stdexcept</text>
</a>
</g>
</g>
<!-- Node9&#45;&gt;Node11 -->
<g id="edge10" class="edge">
<title>Node9&#45;&gt;Node11</title>
<path fill="none" stroke="midnightblue" d="M1391.64,-336.08C1393.79,-328.85 1396.88,-318.41 1399.55,-309.4"/>
<polygon fill="midnightblue" stroke="midnightblue" points="1402.92,-310.33 1402.41,-299.75 1396.21,-308.34 1402.92,-310.33"/>
</g>
<!-- Node13 -->
<g id="node13" class="node">
<title>Node13</title>
<g id="a_node13"><a xlink:href="abcg_8hpp.html" target="_top" xlink:title="Shortcut header that includes the most common ABCg headers.">
<polygon fill="none" stroke="black" points="985.5,-392.5 985.5,-411.5 1046.5,-411.5 1046.5,-392.5 985.5,-392.5"/>
<text text-anchor="middle" x="1016" y="-399.5" font-family="Helvetica,sans-Serif" font-size="10.00">abcg.hpp</text>
</a>
</g>
</g>
<!-- Node12&#45;&gt;Node13 -->
<g id="edge13" class="edge">
<title>Node12&#45;&gt;Node13</title>
<path fill="none" stroke="midnightblue" d="M541.69,-452.16C642.68,-441.69 879.98,-417.1 975.3,-407.22"/>
<polygon fill="midnightblue" stroke="midnightblue" points="975.82,-410.68 985.41,-406.17 975.1,-403.72 975.82,-410.68"/>
</g>
<!-- Node21 -->
<g id="node21" class="node">
<title>Node21</title>
<g id="a_node21"><a xlink:href="abcgVulkanBuffer_8hpp.html" target="_top" xlink:title="Header file of abcg::VulkanBuffer.">
<polygon fill="none" stroke="black" points="0,-280.5 0,-299.5 122,-299.5 122,-280.5 0,-280.5"/>
<text text-anchor="middle" x="61" y="-287.5" font-family="Helvetica,sans-Serif" font-size="10.00">abcgVulkanBuffer.hpp</text>
</a>
</g>
</g>
<!-- Node12&#45;&gt;Node21 -->
<g id="edge27" class="edge">
<title>Node12&#45;&gt;Node21</title>
<path fill="none" stroke="midnightblue" d="M448.31,-452.26C401.72,-446.49 328.68,-434.58 269,-412 195.11,-384.04 116.89,-331.37 81.05,-305.74"/>
<polygon fill="midnightblue" stroke="midnightblue" points="82.65,-302.58 72.49,-299.56 78.55,-308.25 82.65,-302.58"/>
</g>
<!-- Node26 -->
<g id="node26" class="node">
<title>Node26</title>
<g id="a_node26"><a xlink:href="abcgVulkanImage_8hpp.html" target="_top" xlink:title="Header file of abcg::VulkanImage.">
<polygon fill="none" stroke="black" points="140,-280.5 140,-299.5 264,-299.5 264,-280.5 140,-280.5"/>
<text text-anchor="middle" x="202" y="-287.5" font-family="Helvetica,sans-Serif" font-size="10.00">abcgVulkanImage.hpp</text>
</a>
</g>
</g>
<!-- Node12&#45;&gt;Node26 -->
<g id="edge35" class="edge">
<title>Node12&#45;&gt;Node26</title>
<path fill="none" stroke="midnightblue" d="M448.19,-455.21C405.57,-451.64 342.41,-441.33 296,-412 254.92,-386.04 224.61,-335.52 210.61,-308.71"/>
<polygon fill="midnightblue" stroke="midnightblue" points="213.69,-307.04 206.06,-299.69 207.44,-310.2 213.69,-307.04"/>
</g>
<!-- Node27 -->
<g id="node27" class="node">
<title>Node27</title>
<g id="a_node27"><a xlink:href="abcgVulkanPipeline_8hpp.html" target="_top" xlink:title="Header file of abcg::VulkanPipeline.">
<polygon fill="none" stroke="black" points="305,-392.5 305,-411.5 437,-411.5 437,-392.5 305,-392.5"/>
<text text-anchor="middle" x="371" y="-399.5" font-family="Helvetica,sans-Serif" font-size="10.00">abcgVulkanPipeline.hpp</text>
</a>
</g>
</g>
<!-- Node12&#45;&gt;Node27 -->
<g id="edge38" class="edge">
<title>Node12&#45;&gt;Node27</title>
<path fill="none" stroke="midnightblue" d="M475.35,-448.44C455.04,-439.6 423.1,-425.69 399.9,-415.59"/>
<polygon fill="midnightblue" stroke="midnightblue" points="401.12,-412.3 390.56,-411.52 398.33,-418.72 401.12,-412.3"/>
</g>
<!-- Node28 -->
<g id="node28" class="node">
<title>Node28</title>
<g id="a_node28"><a xlink:href="abcgVulkanShader_8hpp.html" target="_top" xlink:title="Declaration of helper functions for creating Vulkan shaders.">
<polygon fill="none" stroke="black" points="432,-336.5 432,-355.5 558,-355.5 558,-336.5 432,-336.5"/>
<text text-anchor="middle" x="495" y="-343.5" font-family="Helvetica,sans-Serif" font-size="10.00">abcgVulkanShader.hpp</text>
</a>
</g>
</g>
<!-- Node12&#45;&gt;Node28 -->
<g id="edge50" class="edge">
<title>Node12&#45;&gt;Node28</title>
<path fill="none" stroke="midnightblue" d="M495,-448.37C495,-430.62 495,-389.67 495,-365.6"/>
<polygon fill="midnightblue" stroke="midnightblue" points="498.5,-365.59 495,-355.59 491.5,-365.59 498.5,-365.59"/>
</g>
<!-- Node32 -->
<g id="node32" class="node">
<title>Node32</title>
<g id="a_node32"><a xlink:href="abcgVulkanWindow_8hpp.html" target="_top" xlink:title="Header file of abcg::VulkanWindow.">
<polygon fill="none" stroke="black" points="583.5,-392.5 583.5,-411.5 714.5,-411.5 714.5,-392.5 583.5,-392.5"/>
<text text-anchor="middle" x="649" y="-399.5" font-family="Helvetica,sans-Serif" font-size="10.00">abcgVulkanWindow.hpp</text>
</a>
</g>
</g>
<!-- Node12&#45;&gt;Node32 -->
<g id="edge51" class="edge">
<title>Node12&#45;&gt;Node32</title>
<path fill="none" stroke="midnightblue" d="M519.4,-448.44C545.2,-439.4 586.08,-425.06 615.02,-414.92"/>
<polygon fill="midnightblue" stroke="midnightblue" points="616.43,-418.13 624.71,-411.52 614.12,-411.52 616.43,-418.13"/>
</g>
<!-- Node13&#45;&gt;Node7 -->
<g id="edge14" class="edge">
<title>Node13&#45;&gt;Node7</title>
<path fill="none" stroke="midnightblue" d="M1046.54,-392.92C1081.41,-383.69 1138.66,-368.53 1177.78,-358.17"/>
<polygon fill="midnightblue" stroke="midnightblue" points="1178.79,-361.53 1187.56,-355.59 1177,-354.76 1178.79,-361.53"/>
</g>
<!-- Node13&#45;&gt;Node9 -->
<g id="edge15" class="edge">
<title>Node13&#45;&gt;Node9</title>
<path fill="none" stroke="midnightblue" d="M1046.52,-396.58C1106.93,-387.84 1242.86,-368.16 1324.14,-356.39"/>
<polygon fill="midnightblue" stroke="midnightblue" points="1324.86,-359.82 1334.26,-354.93 1323.86,-352.89 1324.86,-359.82"/>
</g>
<!-- Node14 -->
<g id="node14" class="node">
<title>Node14</title>
<g id="a_node14"><a xlink:href="abcgExternal_8hpp.html" target="_top" xlink:title="Header file for including third&#45;party dependencies.">
<polygon fill="none" stroke="black" points="966.5,-280.5 966.5,-299.5 1067.5,-299.5 1067.5,-280.5 966.5,-280.5"/>
<text text-anchor="middle" x="1017" y="-287.5" font-family="Helvetica,sans-Serif" font-size="10.00">abcgExternal.hpp</text>
</a>
</g>
</g>
<!-- Node13&#45;&gt;Node14 -->
<g id="edge16" class="edge">
<title>Node13&#45;&gt;Node14</title>
<path fill="none" stroke="midnightblue" d="M1035.91,-392.41C1050.22,-385.04 1068.46,-372.92 1077,-356 1087.43,-335.34 1064.79,-316.48 1044.4,-304.46"/>
<polygon fill="midnightblue" stroke="midnightblue" points="1046.05,-301.37 1035.61,-299.59 1042.66,-307.5 1046.05,-301.37"/>
</g>
<!-- Node15 -->
<g id="node15" class="node">
<title>Node15</title>
<g id="a_node15"><a xlink:href="abcgTrackball_8hpp.html" target="_top" xlink:title="Header file of abcg::TrackBall.">
<polygon fill="none" stroke="black" points="964,-336.5 964,-355.5 1068,-355.5 1068,-336.5 964,-336.5"/>
<text text-anchor="middle" x="1016" y="-343.5" font-family="Helvetica,sans-Serif" font-size="10.00">abcgTrackball.hpp</text>
</a>
</g>
</g>
<!-- Node13&#45;&gt;Node15 -->
<g id="edge17" class="edge">
<title>Node13&#45;&gt;Node15</title>
<path fill="none" stroke="midnightblue" d="M1016,-392.08C1016,-385.01 1016,-374.86 1016,-365.99"/>
<polygon fill="midnightblue" stroke="midnightblue" points="1019.5,-365.75 1016,-355.75 1012.5,-365.75 1019.5,-365.75"/>
</g>
<!-- Node18 -->
<g id="node18" class="node">
<title>Node18</title>
<g id="a_node18"><a xlink:href="abcgUtil_8hpp.html" target="_top" xlink:title="Declaration of general utility functions.">
<polygon fill="none" stroke="black" points="750,-336.5 750,-355.5 828,-355.5 828,-336.5 750,-336.5"/>
<text text-anchor="middle" x="789" y="-343.5" font-family="Helvetica,sans-Serif" font-size="10.00">abcgUtil.hpp</text>
</a>
</g>
</g>
<!-- Node13&#45;&gt;Node18 -->
<g id="edge21" class="edge">
<title>Node13&#45;&gt;Node18</title>
<path fill="none" stroke="midnightblue" d="M985.39,-393.72C946.68,-384.51 879.71,-368.58 834.88,-357.91"/>
<polygon fill="midnightblue" stroke="midnightblue" points="835.65,-354.5 825.11,-355.59 834.03,-361.31 835.65,-354.5"/>
</g>
<!-- Node13&#45;&gt;Node20 -->
<g id="edge23" class="edge">
<title>Node13&#45;&gt;Node20</title>
<path fill="none" stroke="midnightblue" d="M996.99,-392.44C977.41,-383.64 946.69,-369.81 924.27,-359.72"/>
<polygon fill="midnightblue" stroke="midnightblue" points="925.48,-356.43 914.93,-355.52 922.61,-362.81 925.48,-356.43"/>
</g>
<!-- Node15&#45;&gt;Node14 -->
<g id="edge18" class="edge">
<title>Node15&#45;&gt;Node14</title>
<path fill="none" stroke="midnightblue" d="M1016.17,-336.08C1016.3,-329.01 1016.48,-318.86 1016.65,-309.99"/>
<polygon fill="midnightblue" stroke="midnightblue" points="1020.15,-309.81 1016.84,-299.75 1013.15,-309.68 1020.15,-309.81"/>
</g>
<!-- Node16 -->
<g id="node16" class="node">
<title>Node16</title>
<g id="a_node16"><a xlink:href="abcgTimer_8hpp.html" target="_top" xlink:title="Header file of abcg::Timer.">
<polygon fill="none" stroke="black" points="859.5,-280.5 859.5,-299.5 948.5,-299.5 948.5,-280.5 859.5,-280.5"/>
<text text-anchor="middle" x="904" y="-287.5" font-family="Helvetica,sans-Serif" font-size="10.00">abcgTimer.hpp</text>
</a>
</g>
</g>
<!-- Node15&#45;&gt;Node16 -->
<g id="edge19" class="edge">
<title>Node15&#45;&gt;Node16</title>
<path fill="none" stroke="midnightblue" d="M998.01,-336.32C979.96,-327.62 951.95,-314.12 931.2,-304.11"/>
<polygon fill="midnightblue" stroke="midnightblue" points="932.48,-300.84 921.95,-299.65 929.44,-307.15 932.48,-300.84"/>
</g>
<!-- Node17 -->
<g id="node17" class="node">
<title>Node17</title>
<g id="a_node17"><a xlink:title=" ">
<polygon fill="none" stroke="#bfbfbf" points="879,-224.5 879,-243.5 929,-243.5 929,-224.5 879,-224.5"/>
<text text-anchor="middle" x="904" y="-231.5" font-family="Helvetica,sans-Serif" font-size="10.00">chrono</text>
</a>
</g>
</g>
<!-- Node16&#45;&gt;Node17 -->
<g id="edge20" class="edge">
<title>Node16&#45;&gt;Node17</title>
<path fill="none" stroke="midnightblue" d="M904,-280.08C904,-273.01 904,-262.86 904,-253.99"/>
<polygon fill="midnightblue" stroke="midnightblue" points="907.5,-253.75 904,-243.75 900.5,-253.75 907.5,-253.75"/>
</g>
<!-- Node19 -->
<g id="node19" class="node">
<title>Node19</title>
<g id="a_node19"><a xlink:title=" ">
<polygon fill="none" stroke="#bfbfbf" points="492.5,-280.5 492.5,-299.5 557.5,-299.5 557.5,-280.5 492.5,-280.5"/>
<text text-anchor="middle" x="525" y="-287.5" font-family="Helvetica,sans-Serif" font-size="10.00">functional</text>
</a>
</g>
</g>
<!-- Node18&#45;&gt;Node19 -->
<g id="edge22" class="edge">
<title>Node18&#45;&gt;Node19</title>
<path fill="none" stroke="midnightblue" d="M749.76,-336.97C700.98,-327 618.03,-310.03 567.7,-299.73"/>
<polygon fill="midnightblue" stroke="midnightblue" points="568.28,-296.28 557.78,-297.7 566.87,-303.14 568.28,-296.28"/>
</g>
<!-- Node20&#45;&gt;Node8 -->
<g id="edge24" class="edge">
<title>Node20&#45;&gt;Node8</title>
<path fill="none" stroke="midnightblue" d="M882.58,-336.45C864.18,-323.68 835.1,-299.09 851,-280 877.7,-247.95 1003.29,-238.65 1063.57,-236.01"/>
<polygon fill="midnightblue" stroke="midnightblue" points="1063.83,-239.5 1073.68,-235.61 1063.55,-232.51 1063.83,-239.5"/>
</g>
<!-- Node20&#45;&gt;Node14 -->
<g id="edge25" class="edge">
<title>Node20&#45;&gt;Node14</title>
<path fill="none" stroke="midnightblue" d="M915.17,-336.44C934.91,-327.64 965.89,-313.81 988.49,-303.72"/>
<polygon fill="midnightblue" stroke="midnightblue" points="990.21,-306.79 997.92,-299.52 987.36,-300.4 990.21,-306.79"/>
</g>
<!-- Node20&#45;&gt;Node16 -->
<g id="edge26" class="edge">
<title>Node20&#45;&gt;Node16</title>
<path fill="none" stroke="midnightblue" d="M897.32,-336.08C898.38,-328.93 899.91,-318.64 901.23,-309.69"/>
<polygon fill="midnightblue" stroke="midnightblue" points="904.7,-310.16 902.7,-299.75 897.78,-309.13 904.7,-310.16"/>
</g>
<!-- Node22 -->
<g id="node22" class="node">
<title>Node22</title>
<g id="a_node22"><a xlink:href="abcgVulkanDevice_8hpp.html" target="_top" xlink:title="Header file of abcg::VulkanDevice.">
<polygon fill="none" stroke="black" points="333.5,-224.5 333.5,-243.5 460.5,-243.5 460.5,-224.5 333.5,-224.5"/>
<text text-anchor="middle" x="397" y="-231.5" font-family="Helvetica,sans-Serif" font-size="10.00">abcgVulkanDevice.hpp</text>
</a>
</g>
</g>
<!-- Node21&#45;&gt;Node22 -->
<g id="edge28" class="edge">
<title>Node21&#45;&gt;Node22</title>
<path fill="none" stroke="midnightblue" d="M114.24,-280.44C173.96,-270.85 270.74,-255.29 334.13,-245.1"/>
<polygon fill="midnightblue" stroke="midnightblue" points="334.69,-248.56 344.01,-243.52 333.58,-241.65 334.69,-248.56"/>
</g>
<!-- Node25 -->
<g id="node25" class="node">
<title>Node25</title>
<g id="a_node25"><a xlink:title=" ">
<polygon fill="none" stroke="#bfbfbf" points="95,-224.5 95,-243.5 169,-243.5 169,-224.5 95,-224.5"/>
<text text-anchor="middle" x="132" y="-231.5" font-family="Helvetica,sans-Serif" font-size="10.00">gsl/pointers</text>
</a>
</g>
</g>
<!-- Node21&#45;&gt;Node25 -->
<g id="edge34" class="edge">
<title>Node21&#45;&gt;Node25</title>
<path fill="none" stroke="midnightblue" d="M72.41,-280.32C83.11,-272.18 99.34,-259.84 112.16,-250.09"/>
<polygon fill="midnightblue" stroke="midnightblue" points="114.54,-252.67 120.39,-243.83 110.31,-247.1 114.54,-252.67"/>
</g>
<!-- Node22&#45;&gt;Node3 -->
<g id="edge29" class="edge">
<title>Node22&#45;&gt;Node3</title>
<path fill="none" stroke="midnightblue" d="M407.21,-224.31C438.67,-197.53 534.4,-116.03 574.27,-82.09"/>
<polygon fill="midnightblue" stroke="midnightblue" points="576.55,-84.75 581.89,-75.61 572.01,-79.42 576.55,-84.75"/>
</g>
<!-- Node23 -->
<g id="node23" class="node">
<title>Node23</title>
<g id="a_node23"><a xlink:href="abcgVulkanPhysicalDevice_8hpp.html" target="_top" xlink:title="Header file of abcg::VulkanPhysicalDevice.">
<polygon fill="none" stroke="black" points="508.5,-168.5 508.5,-187.5 675.5,-187.5 675.5,-168.5 508.5,-168.5"/>
<text text-anchor="middle" x="592" y="-175.5" font-family="Helvetica,sans-Serif" font-size="10.00">abcgVulkanPhysicalDevice.hpp</text>
</a>
</g>
</g>
<!-- Node22&#45;&gt;Node23 -->
<g id="edge30" class="edge">
<title>Node22&#45;&gt;Node23</title>
<path fill="none" stroke="midnightblue" d="M427.9,-224.44C461.27,-215.2 514.59,-200.44 551.35,-190.26"/>
<polygon fill="midnightblue" stroke="midnightblue" points="552.54,-193.56 561.25,-187.52 550.67,-186.81 552.54,-193.56"/>
</g>
<!-- Node23&#45;&gt;Node2 -->
<g id="edge33" class="edge">
<title>Node23&#45;&gt;Node2</title>
<path fill="none" stroke="midnightblue" d="M620.52,-168.44C651.07,-159.28 699.71,-144.69 733.6,-134.52"/>
<polygon fill="midnightblue" stroke="midnightblue" points="735.04,-137.74 743.61,-131.52 733.03,-131.04 735.04,-137.74"/>
</g>
<!-- Node23&#45;&gt;Node3 -->
<g id="edge32" class="edge">
<title>Node23&#45;&gt;Node3</title>
<path fill="none" stroke="midnightblue" d="M592,-168.37C592,-150.62 592,-109.67 592,-85.6"/>
<polygon fill="midnightblue" stroke="midnightblue" points="595.5,-85.59 592,-75.59 588.5,-85.59 595.5,-85.59"/>
</g>
<!-- Node24 -->
<g id="node24" class="node">
<title>Node24</title>
<g id="a_node24"><a xlink:title=" ">
<polygon fill="none" stroke="#bfbfbf" points="627,-112.5 627,-131.5 683,-131.5 683,-112.5 627,-112.5"/>
<text text-anchor="middle" x="655" y="-119.5" font-family="Helvetica,sans-Serif" font-size="10.00">optional</text>
</a>
</g>
</g>
<!-- Node23&#45;&gt;Node24 -->
<g id="edge31" class="edge">
<title>Node23&#45;&gt;Node24</title>
<path fill="none" stroke="midnightblue" d="M602.12,-168.32C611.53,-160.26 625.74,-148.08 637.07,-138.37"/>
<polygon fill="midnightblue" stroke="midnightblue" points="639.38,-141 644.69,-131.83 634.82,-135.68 639.38,-141"/>
</g>
<!-- Node26&#45;&gt;Node22 -->
<g id="edge36" class="edge">
<title>Node26&#45;&gt;Node22</title>
<path fill="none" stroke="midnightblue" d="M232.9,-280.44C266.27,-271.2 319.59,-256.44 356.35,-246.26"/>
<polygon fill="midnightblue" stroke="midnightblue" points="357.54,-249.56 366.25,-243.52 355.67,-242.81 357.54,-249.56"/>
</g>
<!-- Node26&#45;&gt;Node25 -->
<g id="edge37" class="edge">
<title>Node26&#45;&gt;Node25</title>
<path fill="none" stroke="midnightblue" d="M190.75,-280.32C180.2,-272.18 164.2,-259.84 151.56,-250.09"/>
<polygon fill="midnightblue" stroke="midnightblue" points="153.51,-247.17 143.45,-243.83 149.23,-252.71 153.51,-247.17"/>
</g>
<!-- Node27&#45;&gt;Node22 -->
<g id="edge39" class="edge">
<title>Node27&#45;&gt;Node22</title>
<path fill="none" stroke="midnightblue" d="M322.18,-392.44C285.37,-383.45 243.64,-366.27 259,-336 281.13,-292.38 331.92,-263.08 365.33,-247.73"/>
<polygon fill="midnightblue" stroke="midnightblue" points="366.94,-250.84 374.67,-243.59 364.11,-244.44 366.94,-250.84"/>
</g>
<!-- Node27&#45;&gt;Node28 -->
<g id="edge40" class="edge">
<title>Node27&#45;&gt;Node28</title>
<path fill="none" stroke="midnightblue" d="M390.65,-392.44C410.96,-383.6 442.9,-369.69 466.1,-359.59"/>
<polygon fill="midnightblue" stroke="midnightblue" points="467.67,-362.72 475.44,-355.52 464.88,-356.3 467.67,-362.72"/>
</g>
<!-- Node30 -->
<g id="node30" class="node">
<title>Node30</title>
<g id="a_node30"><a xlink:href="abcgVulkanSwapchain_8hpp.html" target="_top" xlink:title="Header file of abcg::VulkanSwapchain.">
<polygon fill="none" stroke="black" points="268,-336.5 268,-355.5 414,-355.5 414,-336.5 268,-336.5"/>
<text text-anchor="middle" x="341" y="-343.5" font-family="Helvetica,sans-Serif" font-size="10.00">abcgVulkanSwapchain.hpp</text>
</a>
</g>
</g>
<!-- Node27&#45;&gt;Node30 -->
<g id="edge45" class="edge">
<title>Node27&#45;&gt;Node30</title>
<path fill="none" stroke="midnightblue" d="M366.05,-392.08C361.9,-384.61 355.85,-373.72 350.73,-364.52"/>
<polygon fill="midnightblue" stroke="midnightblue" points="353.78,-362.79 345.86,-355.75 347.66,-366.19 353.78,-362.79"/>
</g>
<!-- Node28&#45;&gt;Node22 -->
<g id="edge44" class="edge">
<title>Node28&#45;&gt;Node22</title>
<path fill="none" stroke="midnightblue" d="M488.95,-336.23C479.94,-323.41 462.22,-298.98 445,-280 435.5,-269.53 423.97,-258.67 414.59,-250.24"/>
<polygon fill="midnightblue" stroke="midnightblue" points="416.82,-247.53 407.01,-243.53 412.18,-252.77 416.82,-247.53"/>
</g>
<!-- Node29 -->
<g id="node29" class="node">
<title>Node29</title>
<g id="a_node29"><a xlink:href="abcgShader_8hpp.html" target="_top" xlink:title="Declaration of a structure for building shaders.">
<polygon fill="none" stroke="black" points="652,-280.5 652,-299.5 746,-299.5 746,-280.5 652,-280.5"/>
<text text-anchor="middle" x="699" y="-287.5" font-family="Helvetica,sans-Serif" font-size="10.00">abcgShader.hpp</text>
</a>
</g>
</g>
<!-- Node28&#45;&gt;Node29 -->
<g id="edge41" class="edge">
<title>Node28&#45;&gt;Node29</title>
<path fill="none" stroke="midnightblue" d="M527.32,-336.44C562.39,-327.16 618.5,-312.31 656.96,-302.13"/>
<polygon fill="midnightblue" stroke="midnightblue" points="658.06,-305.46 666.83,-299.52 656.26,-298.69 658.06,-305.46"/>
</g>
<!-- Node29&#45;&gt;Node8 -->
<g id="edge43" class="edge">
<title>Node29&#45;&gt;Node8</title>
<path fill="none" stroke="midnightblue" d="M746.1,-282.59C827.76,-271.49 993.59,-248.93 1063.63,-239.4"/>
<polygon fill="midnightblue" stroke="midnightblue" points="1064.19,-242.86 1073.63,-238.04 1063.25,-235.92 1064.19,-242.86"/>
</g>
<!-- Node29&#45;&gt;Node24 -->
<g id="edge42" class="edge">
<title>Node29&#45;&gt;Node24</title>
<path fill="none" stroke="midnightblue" d="M699.36,-280.47C699.92,-260.26 699.71,-208.1 685,-168 681.29,-157.88 674.87,-147.79 668.92,-139.73"/>
<polygon fill="midnightblue" stroke="midnightblue" points="671.49,-137.34 662.58,-131.61 665.98,-141.65 671.49,-137.34"/>
</g>
<!-- Node30&#45;&gt;Node19 -->
<g id="edge46" class="edge">
<title>Node30&#45;&gt;Node19</title>
<path fill="none" stroke="midnightblue" d="M370.16,-336.44C401.51,-327.24 451.53,-312.56 486.2,-302.39"/>
<polygon fill="midnightblue" stroke="midnightblue" points="487.37,-305.69 495.98,-299.52 485.4,-298.97 487.37,-305.69"/>
</g>
<!-- Node30&#45;&gt;Node22 -->
<g id="edge48" class="edge">
<title>Node30&#45;&gt;Node22</title>
<path fill="none" stroke="midnightblue" d="M340.27,-336.47C339.54,-323.52 339.63,-298.45 349,-280 355.08,-268.03 365.7,-257.56 375.41,-249.74"/>
<polygon fill="midnightblue" stroke="midnightblue" points="377.69,-252.4 383.56,-243.58 373.48,-246.82 377.69,-252.4"/>
</g>
<!-- Node30&#45;&gt;Node26 -->
<g id="edge49" class="edge">
<title>Node30&#45;&gt;Node26</title>
<path fill="none" stroke="midnightblue" d="M318.98,-336.44C295.9,-327.48 259.44,-313.31 233.36,-303.18"/>
<polygon fill="midnightblue" stroke="midnightblue" points="234.51,-299.88 223.92,-299.52 231.98,-306.4 234.51,-299.88"/>
</g>
<!-- Node31 -->
<g id="node31" class="node">
<title>Node31</title>
<g id="a_node31"><a xlink:title=" ">
<polygon fill="none" stroke="#bfbfbf" points="358.5,-280.5 358.5,-299.5 435.5,-299.5 435.5,-280.5 358.5,-280.5"/>
<text text-anchor="middle" x="397" y="-287.5" font-family="Helvetica,sans-Serif" font-size="10.00">glm/fwd.hpp</text>
</a>
</g>
</g>
<!-- Node30&#45;&gt;Node31 -->
<g id="edge47" class="edge">
<title>Node30&#45;&gt;Node31</title>
<path fill="none" stroke="midnightblue" d="M350,-336.32C358.19,-328.42 370.51,-316.55 380.47,-306.94"/>
<polygon fill="midnightblue" stroke="midnightblue" points="383.07,-309.29 387.84,-299.83 378.21,-304.26 383.07,-309.29"/>
</g>
<!-- Node32&#45;&gt;Node2 -->
<g id="edge55" class="edge">
<title>Node32&#45;&gt;Node2</title>
<path fill="none" stroke="midnightblue" d="M663.71,-392.39C687.94,-377.27 735.53,-343.36 755,-300 778.98,-246.59 776.76,-175.18 774,-141.75"/>
<polygon fill="midnightblue" stroke="midnightblue" points="777.47,-141.22 773.04,-131.6 770.5,-141.88 777.47,-141.22"/>
</g>
<!-- Node32&#45;&gt;Node8 -->
<g id="edge53" class="edge">
<title>Node32&#45;&gt;Node8</title>
<path fill="none" stroke="midnightblue" d="M714.55,-398.44C827.97,-393.39 1051.27,-380.45 1077,-356 1104.78,-329.6 1102.86,-280.39 1099.29,-253.58"/>
<polygon fill="midnightblue" stroke="midnightblue" points="1102.73,-252.94 1097.74,-243.59 1095.82,-254.01 1102.73,-252.94"/>
</g>
<!-- Node32&#45;&gt;Node20 -->
<g id="edge58" class="edge">
<title>Node32&#45;&gt;Node20</title>
<path fill="none" stroke="midnightblue" d="M688.14,-392.44C731.23,-383.02 800.56,-367.87 847.17,-357.68"/>
<polygon fill="midnightblue" stroke="midnightblue" points="848.02,-361.07 857.05,-355.52 846.53,-354.23 848.02,-361.07"/>
</g>
<!-- Node32&#45;&gt;Node22 -->
<g id="edge54" class="edge">
<title>Node32&#45;&gt;Node22</title>
<path fill="none" stroke="midnightblue" d="M640.68,-392.46C632.39,-383.71 619.54,-369.52 610,-356 587.62,-324.29 597.72,-303.71 567,-280 539.63,-258.87 503.21,-247.63 471.1,-241.67"/>
<polygon fill="midnightblue" stroke="midnightblue" points="471.29,-238.15 460.84,-239.91 470.11,-245.05 471.29,-238.15"/>
</g>
<!-- Node32&#45;&gt;Node23 -->
<g id="edge56" class="edge">
<title>Node32&#45;&gt;Node23</title>
<path fill="none" stroke="midnightblue" d="M646.77,-392.3C638.36,-359.56 608.53,-243.38 596.79,-197.67"/>
<polygon fill="midnightblue" stroke="midnightblue" points="600.16,-196.7 594.28,-187.88 593.38,-198.44 600.16,-196.7"/>
</g>
<!-- Node32&#45;&gt;Node30 -->
<g id="edge57" class="edge">
<title>Node32&#45;&gt;Node30</title>
<path fill="none" stroke="midnightblue" d="M600.2,-392.44C545.79,-382.9 457.83,-367.48 399.71,-357.29"/>
<polygon fill="midnightblue" stroke="midnightblue" points="400.03,-353.8 389.58,-355.52 398.82,-360.69 400.03,-353.8"/>
</g>
<!-- Node33 -->
<g id="node33" class="node">
<title>Node33</title>
<g id="a_node33"><a xlink:title=" ">
<polygon fill="none" stroke="#bfbfbf" points="652,-336.5 652,-355.5 694,-355.5 694,-336.5 652,-336.5"/>
<text text-anchor="middle" x="673" y="-343.5" font-family="Helvetica,sans-Serif" font-size="10.00">array</text>
</a>
</g>
</g>
<!-- Node32&#45;&gt;Node33 -->
<g id="edge52" class="edge">
<title>Node32&#45;&gt;Node33</title>
<path fill="none" stroke="midnightblue" d="M652.96,-392.08C656.21,-384.77 660.92,-374.18 664.95,-365.1"/>
<polygon fill="midnightblue" stroke="midnightblue" points="668.25,-366.31 669.11,-355.75 661.85,-363.47 668.25,-366.31"/>
</g>
</g>
</svg>
