<?xml version="1.0" encoding="UTF-8" standalone="no"?>
<!DOCTYPE svg PUBLIC "-//W3C//DTD SVG 1.1//EN"
 "http://www.w3.org/Graphics/SVG/1.1/DTD/svg11.dtd">
<!-- Generated by graphviz version 2.43.0 (0)
 -->
<!-- Title: /home/harlen/dev/abcg/abcg/abcgTrackball.cpp Pages: 1 -->
<svg width="311pt" height="207pt"
 viewBox="0.00 0.00 310.50 207.00" xmlns="http://www.w3.org/2000/svg" xmlns:xlink="http://www.w3.org/1999/xlink">
<g id="graph0" class="graph" transform="scale(1 1) rotate(0) translate(4 203)">
<title>/home/harlen/dev/abcg/abcg/abcgTrackball.cpp</title>
<!-- Node1 -->
<g id="node1" class="node">
<title>Node1</title>
<g id="a_node1"><a xlink:title="Definition of abcg::TrackBall members.">
<polygon fill="#bfbfbf" stroke="black" points="142,-168.5 142,-198.5 275,-198.5 275,-168.5 142,-168.5"/>
<text text-anchor="start" x="150" y="-186.5" font-family="Helvetica,sans-Serif" font-size="10.00">/home/harlen/dev/abcg</text>
<text text-anchor="middle" x="208.5" y="-175.5" font-family="Helvetica,sans-Serif" font-size="10.00">/abcg/abcgTrackball.cpp</text>
</a>
</g>
</g>
<!-- Node2 -->
<g id="node2" class="node">
<title>Node2</title>
<g id="a_node2"><a xlink:href="abcgTrackball_8hpp.html" target="_top" xlink:title="Header file of abcg::TrackBall.">
<polygon fill="none" stroke="black" points="54.5,-112.5 54.5,-131.5 158.5,-131.5 158.5,-112.5 54.5,-112.5"/>
<text text-anchor="middle" x="106.5" y="-119.5" font-family="Helvetica,sans-Serif" font-size="10.00">abcgTrackball.hpp</text>
</a>
</g>
</g>
<!-- Node1&#45;&gt;Node2 -->
<g id="edge1" class="edge">
<title>Node1&#45;&gt;Node2</title>
<path fill="none" stroke="midnightblue" d="M184.33,-168.4C167.98,-158.86 146.49,-146.32 130.23,-136.84"/>
<polygon fill="midnightblue" stroke="midnightblue" points="131.74,-133.67 121.34,-131.66 128.22,-139.72 131.74,-133.67"/>
</g>
<!-- Node6 -->
<g id="node6" class="node">
<title>Node6</title>
<g id="a_node6"><a xlink:title=" ">
<polygon fill="none" stroke="#bfbfbf" points="176.5,-112.5 176.5,-131.5 240.5,-131.5 240.5,-112.5 176.5,-112.5"/>
<text text-anchor="middle" x="208.5" y="-119.5" font-family="Helvetica,sans-Serif" font-size="10.00">algorithm</text>
</a>
</g>
</g>
<!-- Node1&#45;&gt;Node6 -->
<g id="edge5" class="edge">
<title>Node1&#45;&gt;Node6</title>
<path fill="none" stroke="midnightblue" d="M208.5,-168.4C208.5,-160.47 208.5,-150.46 208.5,-141.86"/>
<polygon fill="midnightblue" stroke="midnightblue" points="212,-141.66 208.5,-131.66 205,-141.66 212,-141.66"/>
</g>
<!-- Node7 -->
<g id="node7" class="node">
<title>Node7</title>
<g id="a_node7"><a xlink:title=" ">
<polygon fill="none" stroke="#bfbfbf" points="258.5,-112.5 258.5,-131.5 302.5,-131.5 302.5,-112.5 258.5,-112.5"/>
<text text-anchor="middle" x="280.5" y="-119.5" font-family="Helvetica,sans-Serif" font-size="10.00">limits</text>
</a>
</g>
</g>
<!-- Node1&#45;&gt;Node7 -->
<g id="edge6" class="edge">
<title>Node1&#45;&gt;Node7</title>
<path fill="none" stroke="midnightblue" d="M225.56,-168.4C236.56,-159.31 250.87,-147.49 262.12,-138.19"/>
<polygon fill="midnightblue" stroke="midnightblue" points="264.54,-140.73 270.02,-131.66 260.09,-135.33 264.54,-140.73"/>
</g>
<!-- Node3 -->
<g id="node3" class="node">
<title>Node3</title>
<g id="a_node3"><a xlink:href="abcgExternal_8hpp.html" target="_top" xlink:title="Header file for including third&#45;party dependencies.">
<polygon fill="none" stroke="black" points="0,-56.5 0,-75.5 101,-75.5 101,-56.5 0,-56.5"/>
<text text-anchor="middle" x="50.5" y="-63.5" font-family="Helvetica,sans-Serif" font-size="10.00">abcgExternal.hpp</text>
</a>
</g>
</g>
<!-- Node2&#45;&gt;Node3 -->
<g id="edge2" class="edge">
<title>Node2&#45;&gt;Node3</title>
<path fill="none" stroke="midnightblue" d="M97.5,-112.32C89.31,-104.42 76.99,-92.55 67.03,-82.94"/>
<polygon fill="midnightblue" stroke="midnightblue" points="69.29,-80.26 59.66,-75.83 64.43,-85.29 69.29,-80.26"/>
</g>
<!-- Node4 -->
<g id="node4" class="node">
<title>Node4</title>
<g id="a_node4"><a xlink:href="abcgTimer_8hpp.html" target="_top" xlink:title="Header file of abcg::Timer.">
<polygon fill="none" stroke="black" points="119,-56.5 119,-75.5 208,-75.5 208,-56.5 119,-56.5"/>
<text text-anchor="middle" x="163.5" y="-63.5" font-family="Helvetica,sans-Serif" font-size="10.00">abcgTimer.hpp</text>
</a>
</g>
</g>
<!-- Node2&#45;&gt;Node4 -->
<g id="edge3" class="edge">
<title>Node2&#45;&gt;Node4</title>
<path fill="none" stroke="midnightblue" d="M115.66,-112.32C124,-104.42 136.53,-92.55 146.68,-82.94"/>
<polygon fill="midnightblue" stroke="midnightblue" points="149.32,-85.25 154.18,-75.83 144.51,-80.17 149.32,-85.25"/>
</g>
<!-- Node5 -->
<g id="node5" class="node">
<title>Node5</title>
<g id="a_node5"><a xlink:title=" ">
<polygon fill="none" stroke="#bfbfbf" points="138.5,-0.5 138.5,-19.5 188.5,-19.5 188.5,-0.5 138.5,-0.5"/>
<text text-anchor="middle" x="163.5" y="-7.5" font-family="Helvetica,sans-Serif" font-size="10.00">chrono</text>
</a>
</g>
</g>
<!-- Node4&#45;&gt;Node5 -->
<g id="edge4" class="edge">
<title>Node4&#45;&gt;Node5</title>
<path fill="none" stroke="midnightblue" d="M163.5,-56.08C163.5,-49.01 163.5,-38.86 163.5,-29.99"/>
<polygon fill="midnightblue" stroke="midnightblue" points="167,-29.75 163.5,-19.75 160,-29.75 167,-29.75"/>
</g>
</g>
</svg>
