<?xml version="1.0" encoding="UTF-8" standalone="no"?>
<!DOCTYPE svg PUBLIC "-//W3C//DTD SVG 1.1//EN"
 "http://www.w3.org/Graphics/SVG/1.1/DTD/svg11.dtd">
<!-- Generated by graphviz version 2.43.0 (0)
 -->
<!-- Title: /home/harlen/dev/abcg/abcg/abcgOpenGLImage.cpp Pages: 1 -->
<svg width="1019pt" height="151pt"
 viewBox="0.00 0.00 1019.00 151.00" xmlns="http://www.w3.org/2000/svg" xmlns:xlink="http://www.w3.org/1999/xlink">
<g id="graph0" class="graph" transform="scale(1 1) rotate(0) translate(4 147)">
<title>/home/harlen/dev/abcg/abcg/abcgOpenGLImage.cpp</title>
<!-- Node1 -->
<g id="node1" class="node">
<title>Node1</title>
<g id="a_node1"><a xlink:title="Definition of OpenGL texture loading helper functions.">
<polygon fill="#bfbfbf" stroke="black" points="565,-112.5 565,-142.5 723,-142.5 723,-112.5 565,-112.5"/>
<text text-anchor="start" x="573" y="-130.5" font-family="Helvetica,sans-Serif" font-size="10.00">/home/harlen/dev/abcg</text>
<text text-anchor="middle" x="644" y="-119.5" font-family="Helvetica,sans-Serif" font-size="10.00">/abcg/abcgOpenGLImage.cpp</text>
</a>
</g>
</g>
<!-- Node2 -->
<g id="node2" class="node">
<title>Node2</title>
<g id="a_node2"><a xlink:href="abcgOpenGLImage_8hpp.html" target="_top" xlink:title="Declaration of OpenGL texture loading helper functions.">
<polygon fill="none" stroke="black" points="135,-56.5 135,-75.5 265,-75.5 265,-56.5 135,-56.5"/>
<text text-anchor="middle" x="200" y="-63.5" font-family="Helvetica,sans-Serif" font-size="10.00">abcgOpenGLImage.hpp</text>
</a>
</g>
</g>
<!-- Node1&#45;&gt;Node2 -->
<g id="edge1" class="edge">
<title>Node1&#45;&gt;Node2</title>
<path fill="none" stroke="midnightblue" d="M564.88,-115.9C482.39,-104.84 354.15,-87.66 273.73,-76.88"/>
<polygon fill="midnightblue" stroke="midnightblue" points="274.06,-73.39 263.68,-75.53 273.13,-80.33 274.06,-73.39"/>
</g>
<!-- Node6 -->
<g id="node6" class="node">
<title>Node6</title>
<g id="a_node6"><a xlink:href="abcgImage_8hpp.html" target="_top" xlink:title="Declaration of texture loading helper functions.">
<polygon fill="none" stroke="black" points="304,-56.5 304,-75.5 396,-75.5 396,-56.5 304,-56.5"/>
<text text-anchor="middle" x="350" y="-63.5" font-family="Helvetica,sans-Serif" font-size="10.00">abcgImage.hpp</text>
</a>
</g>
</g>
<!-- Node1&#45;&gt;Node6 -->
<g id="edge5" class="edge">
<title>Node1&#45;&gt;Node6</title>
<path fill="none" stroke="midnightblue" d="M574.7,-112.47C521.76,-101.76 449.96,-87.23 401.91,-77.51"/>
<polygon fill="midnightblue" stroke="midnightblue" points="402.53,-74.06 392.03,-75.51 401.14,-80.92 402.53,-74.06"/>
</g>
<!-- Node9 -->
<g id="node9" class="node">
<title>Node9</title>
<g id="a_node9"><a xlink:title=" ">
<polygon fill="none" stroke="#bfbfbf" points="414.5,-56.5 414.5,-75.5 553.5,-75.5 553.5,-56.5 414.5,-56.5"/>
<text text-anchor="middle" x="484" y="-63.5" font-family="Helvetica,sans-Serif" font-size="10.00">cppitertools/itertools.hpp</text>
</a>
</g>
</g>
<!-- Node1&#45;&gt;Node9 -->
<g id="edge8" class="edge">
<title>Node1&#45;&gt;Node9</title>
<path fill="none" stroke="midnightblue" d="M606.08,-112.4C578.88,-102.28 542.6,-88.79 516.67,-79.15"/>
<polygon fill="midnightblue" stroke="midnightblue" points="517.87,-75.86 507.28,-75.66 515.43,-82.42 517.87,-75.86"/>
</g>
<!-- Node10 -->
<g id="node10" class="node">
<title>Node10</title>
<g id="a_node10"><a xlink:title=" ">
<polygon fill="none" stroke="#bfbfbf" points="571.5,-56.5 571.5,-75.5 638.5,-75.5 638.5,-56.5 571.5,-56.5"/>
<text text-anchor="middle" x="605" y="-63.5" font-family="Helvetica,sans-Serif" font-size="10.00">fmt/core.h</text>
</a>
</g>
</g>
<!-- Node1&#45;&gt;Node10 -->
<g id="edge9" class="edge">
<title>Node1&#45;&gt;Node10</title>
<path fill="none" stroke="midnightblue" d="M634.76,-112.4C629.21,-103.93 622.11,-93.1 616.23,-84.14"/>
<polygon fill="midnightblue" stroke="midnightblue" points="619.08,-82.1 610.67,-75.66 613.23,-85.94 619.08,-82.1"/>
</g>
<!-- Node11 -->
<g id="node11" class="node">
<title>Node11</title>
<g id="a_node11"><a xlink:title=" ">
<polygon fill="none" stroke="#bfbfbf" points="656.5,-56.5 656.5,-75.5 711.5,-75.5 711.5,-56.5 656.5,-56.5"/>
<text text-anchor="middle" x="684" y="-63.5" font-family="Helvetica,sans-Serif" font-size="10.00">fstream</text>
</a>
</g>
</g>
<!-- Node1&#45;&gt;Node11 -->
<g id="edge10" class="edge">
<title>Node1&#45;&gt;Node11</title>
<path fill="none" stroke="midnightblue" d="M653.48,-112.4C659.17,-103.93 666.45,-93.1 672.48,-84.14"/>
<polygon fill="midnightblue" stroke="midnightblue" points="675.51,-85.91 678.18,-75.66 669.7,-82 675.51,-85.91"/>
</g>
<!-- Node12 -->
<g id="node12" class="node">
<title>Node12</title>
<g id="a_node12"><a xlink:title=" ">
<polygon fill="none" stroke="#bfbfbf" points="730,-56.5 730,-75.5 778,-75.5 778,-56.5 730,-56.5"/>
<text text-anchor="middle" x="754" y="-63.5" font-family="Helvetica,sans-Serif" font-size="10.00">gsl/gsl</text>
</a>
</g>
</g>
<!-- Node1&#45;&gt;Node12 -->
<g id="edge11" class="edge">
<title>Node1&#45;&gt;Node12</title>
<path fill="none" stroke="midnightblue" d="M670.07,-112.4C687.87,-102.77 711.31,-90.09 728.9,-80.58"/>
<polygon fill="midnightblue" stroke="midnightblue" points="730.86,-83.49 737.99,-75.66 727.53,-77.34 730.86,-83.49"/>
</g>
<!-- Node13 -->
<g id="node13" class="node">
<title>Node13</title>
<g id="a_node13"><a xlink:title=" ">
<polygon fill="none" stroke="#bfbfbf" points="796.5,-56.5 796.5,-75.5 843.5,-75.5 843.5,-56.5 796.5,-56.5"/>
<text text-anchor="middle" x="820" y="-63.5" font-family="Helvetica,sans-Serif" font-size="10.00">vector</text>
</a>
</g>
</g>
<!-- Node1&#45;&gt;Node13 -->
<g id="edge12" class="edge">
<title>Node1&#45;&gt;Node13</title>
<path fill="none" stroke="midnightblue" d="M685.71,-112.4C716.63,-101.95 758.2,-87.89 786.86,-78.2"/>
<polygon fill="midnightblue" stroke="midnightblue" points="788.07,-81.49 796.42,-74.97 785.82,-74.86 788.07,-81.49"/>
</g>
<!-- Node14 -->
<g id="node14" class="node">
<title>Node14</title>
<g id="a_node14"><a xlink:href="abcgException_8hpp.html" target="_top" xlink:title="Header file of abcg::Exception and derived classes.">
<polygon fill="none" stroke="black" points="861.5,-56.5 861.5,-75.5 970.5,-75.5 970.5,-56.5 861.5,-56.5"/>
<text text-anchor="middle" x="916" y="-63.5" font-family="Helvetica,sans-Serif" font-size="10.00">abcgException.hpp</text>
</a>
</g>
</g>
<!-- Node1&#45;&gt;Node14 -->
<g id="edge13" class="edge">
<title>Node1&#45;&gt;Node14</title>
<path fill="none" stroke="midnightblue" d="M708.12,-112.47C756.78,-101.83 822.68,-87.41 867.14,-77.69"/>
<polygon fill="midnightblue" stroke="midnightblue" points="868.09,-81.06 877.11,-75.51 866.6,-74.22 868.09,-81.06"/>
</g>
<!-- Node3 -->
<g id="node3" class="node">
<title>Node3</title>
<g id="a_node3"><a xlink:href="abcgOpenGLExternal_8hpp.html" target="_top" xlink:title="Header file for including OpenGL&#45;related third&#45;party dependencies.">
<polygon fill="none" stroke="black" points="0,-0.5 0,-19.5 140,-19.5 140,-0.5 0,-0.5"/>
<text text-anchor="middle" x="70" y="-7.5" font-family="Helvetica,sans-Serif" font-size="10.00">abcgOpenGLExternal.hpp</text>
</a>
</g>
</g>
<!-- Node2&#45;&gt;Node3 -->
<g id="edge2" class="edge">
<title>Node2&#45;&gt;Node3</title>
<path fill="none" stroke="midnightblue" d="M179.4,-56.44C158.01,-47.56 124.32,-33.56 99.98,-23.45"/>
<polygon fill="midnightblue" stroke="midnightblue" points="101.08,-20.12 90.5,-19.52 98.39,-26.58 101.08,-20.12"/>
</g>
<!-- Node4 -->
<g id="node4" class="node">
<title>Node4</title>
<g id="a_node4"><a xlink:title=" ">
<polygon fill="none" stroke="#bfbfbf" points="158,-0.5 158,-19.5 200,-19.5 200,-0.5 158,-0.5"/>
<text text-anchor="middle" x="179" y="-7.5" font-family="Helvetica,sans-Serif" font-size="10.00">array</text>
</a>
</g>
</g>
<!-- Node2&#45;&gt;Node4 -->
<g id="edge3" class="edge">
<title>Node2&#45;&gt;Node4</title>
<path fill="none" stroke="midnightblue" d="M196.53,-56.08C193.69,-48.77 189.57,-38.18 186.04,-29.1"/>
<polygon fill="midnightblue" stroke="midnightblue" points="189.29,-27.8 182.4,-19.75 182.77,-30.34 189.29,-27.8"/>
</g>
<!-- Node5 -->
<g id="node5" class="node">
<title>Node5</title>
<g id="a_node5"><a xlink:title=" ">
<polygon fill="none" stroke="#bfbfbf" points="218.5,-0.5 218.5,-19.5 291.5,-19.5 291.5,-0.5 218.5,-0.5"/>
<text text-anchor="middle" x="255" y="-7.5" font-family="Helvetica,sans-Serif" font-size="10.00">string_view</text>
</a>
</g>
</g>
<!-- Node2&#45;&gt;Node5 -->
<g id="edge4" class="edge">
<title>Node2&#45;&gt;Node5</title>
<path fill="none" stroke="midnightblue" d="M209.08,-56.08C217.17,-48.14 229.2,-36.34 238.91,-26.8"/>
<polygon fill="midnightblue" stroke="midnightblue" points="241.4,-29.25 246.09,-19.75 236.5,-24.26 241.4,-29.25"/>
</g>
<!-- Node7 -->
<g id="node7" class="node">
<title>Node7</title>
<g id="a_node7"><a xlink:title=" ">
<polygon fill="none" stroke="#bfbfbf" points="310,-0.5 310,-19.5 390,-19.5 390,-0.5 310,-0.5"/>
<text text-anchor="middle" x="350" y="-7.5" font-family="Helvetica,sans-Serif" font-size="10.00">SDL_image.h</text>
</a>
</g>
</g>
<!-- Node6&#45;&gt;Node7 -->
<g id="edge6" class="edge">
<title>Node6&#45;&gt;Node7</title>
<path fill="none" stroke="midnightblue" d="M350,-56.08C350,-49.01 350,-38.86 350,-29.99"/>
<polygon fill="midnightblue" stroke="midnightblue" points="353.5,-29.75 350,-19.75 346.5,-29.75 353.5,-29.75"/>
</g>
<!-- Node8 -->
<g id="node8" class="node">
<title>Node8</title>
<g id="a_node8"><a xlink:title=" ">
<polygon fill="none" stroke="#bfbfbf" points="408,-0.5 408,-19.5 482,-19.5 482,-0.5 408,-0.5"/>
<text text-anchor="middle" x="445" y="-7.5" font-family="Helvetica,sans-Serif" font-size="10.00">gsl/pointers</text>
</a>
</g>
</g>
<!-- Node6&#45;&gt;Node8 -->
<g id="edge7" class="edge">
<title>Node6&#45;&gt;Node8</title>
<path fill="none" stroke="midnightblue" d="M365.26,-56.32C380.22,-47.82 403.25,-34.73 420.73,-24.8"/>
<polygon fill="midnightblue" stroke="midnightblue" points="422.81,-27.64 429.77,-19.65 419.35,-21.55 422.81,-27.64"/>
</g>
<!-- Node15 -->
<g id="node15" class="node">
<title>Node15</title>
<g id="a_node15"><a xlink:title=" ">
<polygon fill="none" stroke="#bfbfbf" points="772.5,-0.5 772.5,-19.5 865.5,-19.5 865.5,-0.5 772.5,-0.5"/>
<text text-anchor="middle" x="819" y="-7.5" font-family="Helvetica,sans-Serif" font-size="10.00">source_location</text>
</a>
</g>
</g>
<!-- Node14&#45;&gt;Node15 -->
<g id="edge14" class="edge">
<title>Node14&#45;&gt;Node15</title>
<path fill="none" stroke="midnightblue" d="M900.42,-56.32C885,-47.74 861.19,-34.49 843.29,-24.52"/>
<polygon fill="midnightblue" stroke="midnightblue" points="844.99,-21.46 834.55,-19.65 841.58,-27.58 844.99,-21.46"/>
</g>
<!-- Node16 -->
<g id="node16" class="node">
<title>Node16</title>
<g id="a_node16"><a xlink:title=" ">
<polygon fill="none" stroke="#bfbfbf" points="883.5,-0.5 883.5,-19.5 948.5,-19.5 948.5,-0.5 883.5,-0.5"/>
<text text-anchor="middle" x="916" y="-7.5" font-family="Helvetica,sans-Serif" font-size="10.00">stdexcept</text>
</a>
</g>
</g>
<!-- Node14&#45;&gt;Node16 -->
<g id="edge15" class="edge">
<title>Node14&#45;&gt;Node16</title>
<path fill="none" stroke="midnightblue" d="M916,-56.08C916,-49.01 916,-38.86 916,-29.99"/>
<polygon fill="midnightblue" stroke="midnightblue" points="919.5,-29.75 916,-19.75 912.5,-29.75 919.5,-29.75"/>
</g>
<!-- Node17 -->
<g id="node17" class="node">
<title>Node17</title>
<g id="a_node17"><a xlink:title=" ">
<polygon fill="none" stroke="#bfbfbf" points="967,-0.5 967,-19.5 1011,-19.5 1011,-0.5 967,-0.5"/>
<text text-anchor="middle" x="989" y="-7.5" font-family="Helvetica,sans-Serif" font-size="10.00">string</text>
</a>
</g>
</g>
<!-- Node14&#45;&gt;Node17 -->
<g id="edge16" class="edge">
<title>Node14&#45;&gt;Node17</title>
<path fill="none" stroke="midnightblue" d="M927.73,-56.32C938.84,-48.11 955.74,-35.6 968.98,-25.81"/>
<polygon fill="midnightblue" stroke="midnightblue" points="971.1,-28.59 977.06,-19.83 966.94,-22.97 971.1,-28.59"/>
</g>
</g>
</svg>
