<?xml version="1.0" encoding="UTF-8" standalone="no"?>
<!DOCTYPE svg PUBLIC "-//W3C//DTD SVG 1.1//EN"
 "http://www.w3.org/Graphics/SVG/1.1/DTD/svg11.dtd">
<!-- Generated by graphviz version 2.43.0 (0)
 -->
<!-- Title: /home/harlen/dev/abcg2/abcg/abcg_vulkan_physical_device.hpp Pages: 1 -->
<svg width="802pt" height="195pt"
 viewBox="0.00 0.00 801.50 195.00" xmlns="http://www.w3.org/2000/svg" xmlns:xlink="http://www.w3.org/1999/xlink">
<g id="graph0" class="graph" transform="scale(1 1) rotate(0) translate(4 191)">
<title>/home/harlen/dev/abcg2/abcg/abcg_vulkan_physical_device.hpp</title>
<!-- Node1 -->
<g id="node1" class="node">
<title>Node1</title>
<g id="a_node1"><a xlink:title="Header file of abcg::VulkanPhysicalDevice.">
<polygon fill="#bfbfbf" stroke="black" points="334,-145.5 334,-186.5 486,-186.5 486,-145.5 334,-145.5"/>
<text text-anchor="start" x="342" y="-174.5" font-family="Helvetica,sans-Serif" font-size="10.00">/home/harlen/dev/abcg2</text>
<text text-anchor="start" x="342" y="-163.5" font-family="Helvetica,sans-Serif" font-size="10.00">/abcg/abcg_vulkan_physical</text>
<text text-anchor="middle" x="410" y="-152.5" font-family="Helvetica,sans-Serif" font-size="10.00">_device.hpp</text>
</a>
</g>
</g>
<!-- Node2 -->
<g id="node2" class="node">
<title>Node2</title>
<g id="a_node2"><a xlink:href="abcg__vulkan_8cpp.html" target="_top" xlink:title=" ">
<polygon fill="none" stroke="black" points="0,-73 0,-103 134,-103 134,-73 0,-73"/>
<text text-anchor="start" x="8" y="-91" font-family="Helvetica,sans-Serif" font-size="10.00">/home/harlen/dev/abcg2</text>
<text text-anchor="middle" x="67" y="-80" font-family="Helvetica,sans-Serif" font-size="10.00">/abcg/abcg_vulkan.cpp</text>
</a>
</g>
</g>
<!-- Node1&#45;&gt;Node2 -->
<g id="edge1" class="edge">
<title>Node1&#45;&gt;Node2</title>
<path fill="none" stroke="midnightblue" d="M323.88,-148.09C271.45,-137.51 203.19,-123.22 143,-109 135.17,-107.15 126.91,-105.09 118.83,-103.01"/>
<polygon fill="midnightblue" stroke="midnightblue" points="323.32,-151.55 333.81,-150.09 324.7,-144.68 323.32,-151.55"/>
</g>
<!-- Node3 -->
<g id="node3" class="node">
<title>Node3</title>
<g id="a_node3"><a xlink:href="abcg__vulkan__device_8cpp.html" target="_top" xlink:title="Definition of abcg::VulkanDevice.">
<polygon fill="none" stroke="black" points="152,-73 152,-103 316,-103 316,-73 152,-73"/>
<text text-anchor="start" x="160" y="-91" font-family="Helvetica,sans-Serif" font-size="10.00">/home/harlen/dev/abcg2</text>
<text text-anchor="middle" x="234" y="-80" font-family="Helvetica,sans-Serif" font-size="10.00">/abcg/abcg_vulkan_device.cpp</text>
</a>
</g>
</g>
<!-- Node1&#45;&gt;Node3 -->
<g id="edge2" class="edge">
<title>Node1&#45;&gt;Node3</title>
<path fill="none" stroke="midnightblue" d="M355.45,-141.45C326.37,-128.89 291.55,-113.85 266.67,-103.11"/>
<polygon fill="midnightblue" stroke="midnightblue" points="354.11,-144.68 364.68,-145.43 356.88,-138.25 354.11,-144.68"/>
</g>
<!-- Node4 -->
<g id="node4" class="node">
<title>Node4</title>
<g id="a_node4"><a xlink:href="abcg__vulkan__physical__device_8cpp.html" target="_top" xlink:title="Definition of abcg::VulkanPhysicalDevice.">
<polygon fill="none" stroke="black" points="334,-67.5 334,-108.5 486,-108.5 486,-67.5 334,-67.5"/>
<text text-anchor="start" x="342" y="-96.5" font-family="Helvetica,sans-Serif" font-size="10.00">/home/harlen/dev/abcg2</text>
<text text-anchor="start" x="342" y="-85.5" font-family="Helvetica,sans-Serif" font-size="10.00">/abcg/abcg_vulkan_physical</text>
<text text-anchor="middle" x="410" y="-74.5" font-family="Helvetica,sans-Serif" font-size="10.00">_device.cpp</text>
</a>
</g>
</g>
<!-- Node1&#45;&gt;Node4 -->
<g id="edge3" class="edge">
<title>Node1&#45;&gt;Node4</title>
<path fill="none" stroke="midnightblue" d="M410,-135.3C410,-126.3 410,-116.65 410,-108.51"/>
<polygon fill="midnightblue" stroke="midnightblue" points="406.5,-135.43 410,-145.43 413.5,-135.43 406.5,-135.43"/>
</g>
<!-- Node5 -->
<g id="node5" class="node">
<title>Node5</title>
<g id="a_node5"><a xlink:href="abcg__vulkan__swapchain_8cpp.html" target="_top" xlink:title="Definition of abcg::VulkanSwapchain.">
<polygon fill="none" stroke="black" points="422,-0.5 422,-30.5 606,-30.5 606,-0.5 422,-0.5"/>
<text text-anchor="start" x="430" y="-18.5" font-family="Helvetica,sans-Serif" font-size="10.00">/home/harlen/dev/abcg2</text>
<text text-anchor="middle" x="514" y="-7.5" font-family="Helvetica,sans-Serif" font-size="10.00">/abcg/abcg_vulkan_swapchain.cpp</text>
</a>
</g>
</g>
<!-- Node1&#45;&gt;Node5 -->
<g id="edge4" class="edge">
<title>Node1&#45;&gt;Node5</title>
<path fill="none" stroke="midnightblue" d="M462.06,-139.92C474.52,-131.67 486.63,-121.36 495,-109 511.27,-84.98 514.13,-49.95 514.34,-30.63"/>
<polygon fill="midnightblue" stroke="midnightblue" points="460.05,-137.05 453.41,-145.31 463.75,-142.99 460.05,-137.05"/>
</g>
<!-- Node6 -->
<g id="node6" class="node">
<title>Node6</title>
<g id="a_node6"><a xlink:href="abcg__vulkan__window_8hpp.html" target="_top" xlink:title="Header file of abcg::VulkanWindow.">
<polygon fill="none" stroke="black" points="542,-73 542,-103 712,-103 712,-73 542,-73"/>
<text text-anchor="start" x="550" y="-91" font-family="Helvetica,sans-Serif" font-size="10.00">/home/harlen/dev/abcg2</text>
<text text-anchor="middle" x="627" y="-80" font-family="Helvetica,sans-Serif" font-size="10.00">/abcg/abcg_vulkan_window.hpp</text>
</a>
</g>
</g>
<!-- Node1&#45;&gt;Node6 -->
<g id="edge5" class="edge">
<title>Node1&#45;&gt;Node6</title>
<path fill="none" stroke="midnightblue" d="M475.4,-142.1C511.63,-129.41 555.51,-114.04 586.72,-103.11"/>
<polygon fill="midnightblue" stroke="midnightblue" points="474.16,-138.82 465.88,-145.43 476.48,-145.43 474.16,-138.82"/>
</g>
<!-- Node6&#45;&gt;Node5 -->
<g id="edge6" class="edge">
<title>Node6&#45;&gt;Node5</title>
<path fill="none" stroke="midnightblue" d="M595.88,-67.58C577.08,-55.86 553.56,-41.18 536.56,-30.57"/>
<polygon fill="midnightblue" stroke="midnightblue" points="594.07,-70.58 604.4,-72.9 597.77,-64.64 594.07,-70.58"/>
</g>
<!-- Node7 -->
<g id="node7" class="node">
<title>Node7</title>
<g id="a_node7"><a xlink:href="abcg__vulkan__window_8cpp.html" target="_top" xlink:title="Definition of abcg::VulkanWindow members.">
<polygon fill="none" stroke="black" points="624.5,-0.5 624.5,-30.5 793.5,-30.5 793.5,-0.5 624.5,-0.5"/>
<text text-anchor="start" x="632.5" y="-18.5" font-family="Helvetica,sans-Serif" font-size="10.00">/home/harlen/dev/abcg2</text>
<text text-anchor="middle" x="709" y="-7.5" font-family="Helvetica,sans-Serif" font-size="10.00">/abcg/abcg_vulkan_window.cpp</text>
</a>
</g>
</g>
<!-- Node6&#45;&gt;Node7 -->
<g id="edge7" class="edge">
<title>Node6&#45;&gt;Node7</title>
<path fill="none" stroke="midnightblue" d="M651.47,-65.96C664.8,-54.5 680.93,-40.64 692.71,-30.5"/>
<polygon fill="midnightblue" stroke="midnightblue" points="648.89,-63.56 643.59,-72.73 653.46,-68.87 648.89,-63.56"/>
</g>
</g>
</svg>
