<?xml version="1.0" encoding="UTF-8" standalone="no"?>
<!DOCTYPE svg PUBLIC "-//W3C//DTD SVG 1.1//EN"
 "http://www.w3.org/Graphics/SVG/1.1/DTD/svg11.dtd">
<!-- Generated by graphviz version 2.43.0 (0)
 -->
<!-- Title: /home/harlen/dev/abcg/abcg/abcgVulkanDevice.cpp Pages: 1 -->
<svg width="488pt" height="319pt"
 viewBox="0.00 0.00 487.50 319.00" xmlns="http://www.w3.org/2000/svg" xmlns:xlink="http://www.w3.org/1999/xlink">
<g id="graph0" class="graph" transform="scale(1 1) rotate(0) translate(4 315)">
<title>/home/harlen/dev/abcg/abcg/abcgVulkanDevice.cpp</title>
<!-- Node1 -->
<g id="node1" class="node">
<title>Node1</title>
<g id="a_node1"><a xlink:title="Definition of abcg::VulkanDevice.">
<polygon fill="#bfbfbf" stroke="black" points="189,-280.5 189,-310.5 344,-310.5 344,-280.5 189,-280.5"/>
<text text-anchor="start" x="197" y="-298.5" font-family="Helvetica,sans-Serif" font-size="10.00">/home/harlen/dev/abcg</text>
<text text-anchor="middle" x="266.5" y="-287.5" font-family="Helvetica,sans-Serif" font-size="10.00">/abcg/abcgVulkanDevice.cpp</text>
</a>
</g>
</g>
<!-- Node2 -->
<g id="node2" class="node">
<title>Node2</title>
<g id="a_node2"><a xlink:href="abcgVulkanDevice_8hpp.html" target="_top" xlink:title="Header file of abcg::VulkanDevice.">
<polygon fill="none" stroke="black" points="68,-224.5 68,-243.5 195,-243.5 195,-224.5 68,-224.5"/>
<text text-anchor="middle" x="131.5" y="-231.5" font-family="Helvetica,sans-Serif" font-size="10.00">abcgVulkanDevice.hpp</text>
</a>
</g>
</g>
<!-- Node1&#45;&gt;Node2 -->
<g id="edge1" class="edge">
<title>Node1&#45;&gt;Node2</title>
<path fill="none" stroke="midnightblue" d="M234.51,-280.4C212.06,-270.51 182.29,-257.38 160.52,-247.79"/>
<polygon fill="midnightblue" stroke="midnightblue" points="161.71,-244.49 151.14,-243.66 158.88,-250.89 161.71,-244.49"/>
</g>
<!-- Node9 -->
<g id="node9" class="node">
<title>Node9</title>
<g id="a_node9"><a xlink:title=" ">
<polygon fill="none" stroke="#bfbfbf" points="213.5,-224.5 213.5,-243.5 261.5,-243.5 261.5,-224.5 213.5,-224.5"/>
<text text-anchor="middle" x="237.5" y="-231.5" font-family="Helvetica,sans-Serif" font-size="10.00">gsl/gsl</text>
</a>
</g>
</g>
<!-- Node1&#45;&gt;Node9 -->
<g id="edge10" class="edge">
<title>Node1&#45;&gt;Node9</title>
<path fill="none" stroke="midnightblue" d="M259.63,-280.4C255.59,-272.11 250.44,-261.55 246.13,-252.71"/>
<polygon fill="midnightblue" stroke="midnightblue" points="249.25,-251.11 241.72,-243.66 242.95,-254.18 249.25,-251.11"/>
</g>
<!-- Node10 -->
<g id="node10" class="node">
<title>Node10</title>
<g id="a_node10"><a xlink:title=" ">
<polygon fill="none" stroke="#bfbfbf" points="279.5,-224.5 279.5,-243.5 311.5,-243.5 311.5,-224.5 279.5,-224.5"/>
<text text-anchor="middle" x="295.5" y="-231.5" font-family="Helvetica,sans-Serif" font-size="10.00">set</text>
</a>
</g>
</g>
<!-- Node1&#45;&gt;Node10 -->
<g id="edge11" class="edge">
<title>Node1&#45;&gt;Node10</title>
<path fill="none" stroke="midnightblue" d="M273.37,-280.4C277.41,-272.11 282.56,-261.55 286.87,-252.71"/>
<polygon fill="midnightblue" stroke="midnightblue" points="290.05,-254.18 291.28,-243.66 283.75,-251.11 290.05,-254.18"/>
</g>
<!-- Node11 -->
<g id="node11" class="node">
<title>Node11</title>
<g id="a_node11"><a xlink:href="abcgException_8hpp.html" target="_top" xlink:title="Header file of abcg::Exception and derived classes.">
<polygon fill="none" stroke="black" points="330,-224.5 330,-243.5 439,-243.5 439,-224.5 330,-224.5"/>
<text text-anchor="middle" x="384.5" y="-231.5" font-family="Helvetica,sans-Serif" font-size="10.00">abcgException.hpp</text>
</a>
</g>
</g>
<!-- Node1&#45;&gt;Node11 -->
<g id="edge12" class="edge">
<title>Node1&#45;&gt;Node11</title>
<path fill="none" stroke="midnightblue" d="M294.46,-280.4C313.82,-270.64 339.41,-257.74 358.36,-248.18"/>
<polygon fill="midnightblue" stroke="midnightblue" points="359.98,-251.29 367.33,-243.66 356.83,-245.04 359.98,-251.29"/>
</g>
<!-- Node3 -->
<g id="node3" class="node">
<title>Node3</title>
<g id="a_node3"><a xlink:href="abcgVulkanExternal_8hpp.html" target="_top" xlink:title="Header file for including Vulkan&#45;related dependencies.">
<polygon fill="none" stroke="black" points="3.5,-56.5 3.5,-75.5 137.5,-75.5 137.5,-56.5 3.5,-56.5"/>
<text text-anchor="middle" x="70.5" y="-63.5" font-family="Helvetica,sans-Serif" font-size="10.00">abcgVulkanExternal.hpp</text>
</a>
</g>
</g>
<!-- Node2&#45;&gt;Node3 -->
<g id="edge2" class="edge">
<title>Node2&#45;&gt;Node3</title>
<path fill="none" stroke="midnightblue" d="M94.8,-224.35C75.67,-217.77 53.93,-206.58 42.5,-188 22.26,-155.08 44.08,-108.96 58.99,-84.24"/>
<polygon fill="midnightblue" stroke="midnightblue" points="62.06,-85.94 64.45,-75.62 56.14,-82.2 62.06,-85.94"/>
</g>
<!-- Node6 -->
<g id="node6" class="node">
<title>Node6</title>
<g id="a_node6"><a xlink:href="abcgVulkanPhysicalDevice_8hpp.html" target="_top" xlink:title="Header file of abcg::VulkanPhysicalDevice.">
<polygon fill="none" stroke="black" points="52,-168.5 52,-187.5 219,-187.5 219,-168.5 52,-168.5"/>
<text text-anchor="middle" x="135.5" y="-175.5" font-family="Helvetica,sans-Serif" font-size="10.00">abcgVulkanPhysicalDevice.hpp</text>
</a>
</g>
</g>
<!-- Node2&#45;&gt;Node6 -->
<g id="edge5" class="edge">
<title>Node2&#45;&gt;Node6</title>
<path fill="none" stroke="midnightblue" d="M132.16,-224.08C132.68,-217.01 133.44,-206.86 134.09,-197.99"/>
<polygon fill="midnightblue" stroke="midnightblue" points="137.6,-197.98 134.85,-187.75 130.62,-197.47 137.6,-197.98"/>
</g>
<!-- Node4 -->
<g id="node4" class="node">
<title>Node4</title>
<g id="a_node4"><a xlink:title=" ">
<polygon fill="none" stroke="#bfbfbf" points="0,-0.5 0,-19.5 47,-19.5 47,-0.5 0,-0.5"/>
<text text-anchor="middle" x="23.5" y="-7.5" font-family="Helvetica,sans-Serif" font-size="10.00">volk.h</text>
</a>
</g>
</g>
<!-- Node3&#45;&gt;Node4 -->
<g id="edge3" class="edge">
<title>Node3&#45;&gt;Node4</title>
<path fill="none" stroke="midnightblue" d="M62.74,-56.08C55.96,-48.3 45.96,-36.8 37.74,-27.37"/>
<polygon fill="midnightblue" stroke="midnightblue" points="40.32,-25 31.12,-19.75 35.04,-29.59 40.32,-25"/>
</g>
<!-- Node5 -->
<g id="node5" class="node">
<title>Node5</title>
<g id="a_node5"><a xlink:title=" ">
<polygon fill="none" stroke="#bfbfbf" points="65,-0.5 65,-19.5 170,-19.5 170,-0.5 65,-0.5"/>
<text text-anchor="middle" x="117.5" y="-7.5" font-family="Helvetica,sans-Serif" font-size="10.00">vulkan/vulkan.hpp</text>
</a>
</g>
</g>
<!-- Node3&#45;&gt;Node5 -->
<g id="edge4" class="edge">
<title>Node3&#45;&gt;Node5</title>
<path fill="none" stroke="midnightblue" d="M78.26,-56.08C85.04,-48.3 95.04,-36.8 103.26,-27.37"/>
<polygon fill="midnightblue" stroke="midnightblue" points="105.96,-29.59 109.88,-19.75 100.68,-25 105.96,-29.59"/>
</g>
<!-- Node6&#45;&gt;Node3 -->
<g id="edge7" class="edge">
<title>Node6&#45;&gt;Node3</title>
<path fill="none" stroke="midnightblue" d="M123.63,-168.29C113.2,-160.04 98.35,-146.75 89.5,-132 80.9,-117.67 75.99,-99.2 73.33,-85.62"/>
<polygon fill="midnightblue" stroke="midnightblue" points="76.74,-84.81 71.59,-75.55 69.84,-86 76.74,-84.81"/>
</g>
<!-- Node7 -->
<g id="node7" class="node">
<title>Node7</title>
<g id="a_node7"><a xlink:title=" ">
<polygon fill="none" stroke="#bfbfbf" points="98.5,-112.5 98.5,-131.5 154.5,-131.5 154.5,-112.5 98.5,-112.5"/>
<text text-anchor="middle" x="126.5" y="-119.5" font-family="Helvetica,sans-Serif" font-size="10.00">optional</text>
</a>
</g>
</g>
<!-- Node6&#45;&gt;Node7 -->
<g id="edge6" class="edge">
<title>Node6&#45;&gt;Node7</title>
<path fill="none" stroke="midnightblue" d="M134.01,-168.08C132.82,-160.93 131.11,-150.64 129.62,-141.69"/>
<polygon fill="midnightblue" stroke="midnightblue" points="133.05,-141.04 127.96,-131.75 126.15,-142.19 133.05,-141.04"/>
</g>
<!-- Node8 -->
<g id="node8" class="node">
<title>Node8</title>
<g id="a_node8"><a xlink:href="abcgVulkanInstance_8hpp.html" target="_top" xlink:title="Header file of abcg::VulkanInstance.">
<polygon fill="none" stroke="black" points="172.5,-112.5 172.5,-131.5 306.5,-131.5 306.5,-112.5 172.5,-112.5"/>
<text text-anchor="middle" x="239.5" y="-119.5" font-family="Helvetica,sans-Serif" font-size="10.00">abcgVulkanInstance.hpp</text>
</a>
</g>
</g>
<!-- Node6&#45;&gt;Node8 -->
<g id="edge8" class="edge">
<title>Node6&#45;&gt;Node8</title>
<path fill="none" stroke="midnightblue" d="M152.21,-168.32C168.81,-159.7 194.5,-146.36 213.72,-136.39"/>
<polygon fill="midnightblue" stroke="midnightblue" points="215.57,-139.37 222.83,-131.65 212.34,-133.16 215.57,-139.37"/>
</g>
<!-- Node8&#45;&gt;Node3 -->
<g id="edge9" class="edge">
<title>Node8&#45;&gt;Node3</title>
<path fill="none" stroke="midnightblue" d="M212.72,-112.44C184.17,-103.32 138.77,-88.81 106.96,-78.65"/>
<polygon fill="midnightblue" stroke="midnightblue" points="107.74,-75.23 97.15,-75.52 105.61,-81.89 107.74,-75.23"/>
</g>
<!-- Node12 -->
<g id="node12" class="node">
<title>Node12</title>
<g id="a_node12"><a xlink:title=" ">
<polygon fill="none" stroke="#bfbfbf" points="241,-168.5 241,-187.5 334,-187.5 334,-168.5 241,-168.5"/>
<text text-anchor="middle" x="287.5" y="-175.5" font-family="Helvetica,sans-Serif" font-size="10.00">source_location</text>
</a>
</g>
</g>
<!-- Node11&#45;&gt;Node12 -->
<g id="edge13" class="edge">
<title>Node11&#45;&gt;Node12</title>
<path fill="none" stroke="midnightblue" d="M368.92,-224.32C353.5,-215.74 329.69,-202.49 311.79,-192.52"/>
<polygon fill="midnightblue" stroke="midnightblue" points="313.49,-189.46 303.05,-187.65 310.08,-195.58 313.49,-189.46"/>
</g>
<!-- Node13 -->
<g id="node13" class="node">
<title>Node13</title>
<g id="a_node13"><a xlink:title=" ">
<polygon fill="none" stroke="#bfbfbf" points="352,-168.5 352,-187.5 417,-187.5 417,-168.5 352,-168.5"/>
<text text-anchor="middle" x="384.5" y="-175.5" font-family="Helvetica,sans-Serif" font-size="10.00">stdexcept</text>
</a>
</g>
</g>
<!-- Node11&#45;&gt;Node13 -->
<g id="edge14" class="edge">
<title>Node11&#45;&gt;Node13</title>
<path fill="none" stroke="midnightblue" d="M384.5,-224.08C384.5,-217.01 384.5,-206.86 384.5,-197.99"/>
<polygon fill="midnightblue" stroke="midnightblue" points="388,-197.75 384.5,-187.75 381,-197.75 388,-197.75"/>
</g>
<!-- Node14 -->
<g id="node14" class="node">
<title>Node14</title>
<g id="a_node14"><a xlink:title=" ">
<polygon fill="none" stroke="#bfbfbf" points="435.5,-168.5 435.5,-187.5 479.5,-187.5 479.5,-168.5 435.5,-168.5"/>
<text text-anchor="middle" x="457.5" y="-175.5" font-family="Helvetica,sans-Serif" font-size="10.00">string</text>
</a>
</g>
</g>
<!-- Node11&#45;&gt;Node14 -->
<g id="edge15" class="edge">
<title>Node11&#45;&gt;Node14</title>
<path fill="none" stroke="midnightblue" d="M396.23,-224.32C407.34,-216.11 424.24,-203.6 437.48,-193.81"/>
<polygon fill="midnightblue" stroke="midnightblue" points="439.6,-196.59 445.56,-187.83 435.44,-190.97 439.6,-196.59"/>
</g>
</g>
</svg>
