<?xml version="1.0" encoding="UTF-8" standalone="no"?>
<!DOCTYPE svg PUBLIC "-//W3C//DTD SVG 1.1//EN"
 "http://www.w3.org/Graphics/SVG/1.1/DTD/svg11.dtd">
<!-- Generated by graphviz version 2.43.0 (0)
 -->
<!-- Title: /home/harlen/dev/abcg/abcg/abcgOpenGLError.cpp Pages: 1 -->
<svg width="504pt" height="207pt"
 viewBox="0.00 0.00 504.00 207.00" xmlns="http://www.w3.org/2000/svg" xmlns:xlink="http://www.w3.org/1999/xlink">
<g id="graph0" class="graph" transform="scale(1 1) rotate(0) translate(4 203)">
<title>/home/harlen/dev/abcg/abcg/abcgOpenGLError.cpp</title>
<!-- Node1 -->
<g id="node1" class="node">
<title>Node1</title>
<g id="a_node1"><a xlink:title="Definition of abcg::OpenGLError members.">
<polygon fill="#bfbfbf" stroke="black" points="185,-168.5 185,-198.5 335,-198.5 335,-168.5 185,-168.5"/>
<text text-anchor="start" x="193" y="-186.5" font-family="Helvetica,sans-Serif" font-size="10.00">/home/harlen/dev/abcg</text>
<text text-anchor="middle" x="260" y="-175.5" font-family="Helvetica,sans-Serif" font-size="10.00">/abcg/abcgOpenGLError.cpp</text>
</a>
</g>
</g>
<!-- Node2 -->
<g id="node2" class="node">
<title>Node2</title>
<g id="a_node2"><a xlink:href="abcgOpenGLError_8hpp.html" target="_top" xlink:title="Header file of abcg::OpenGLError and derived classes.">
<polygon fill="none" stroke="black" points="0,-112.5 0,-131.5 122,-131.5 122,-112.5 0,-112.5"/>
<text text-anchor="middle" x="61" y="-119.5" font-family="Helvetica,sans-Serif" font-size="10.00">abcgOpenGLError.hpp</text>
</a>
</g>
</g>
<!-- Node1&#45;&gt;Node2 -->
<g id="edge1" class="edge">
<title>Node1&#45;&gt;Node2</title>
<path fill="none" stroke="midnightblue" d="M213.09,-168.47C178.31,-158.08 131.5,-144.08 99.03,-134.37"/>
<polygon fill="midnightblue" stroke="midnightblue" points="100.03,-131.02 89.45,-131.51 98.03,-137.72 100.03,-131.02"/>
</g>
<!-- Node7 -->
<g id="node7" class="node">
<title>Node7</title>
<g id="a_node7"><a xlink:href="abcgExternal_8hpp.html" target="_top" xlink:title="Header file for including third&#45;party dependencies.">
<polygon fill="none" stroke="black" points="140.5,-112.5 140.5,-131.5 241.5,-131.5 241.5,-112.5 140.5,-112.5"/>
<text text-anchor="middle" x="191" y="-119.5" font-family="Helvetica,sans-Serif" font-size="10.00">abcgExternal.hpp</text>
</a>
</g>
</g>
<!-- Node1&#45;&gt;Node7 -->
<g id="edge7" class="edge">
<title>Node1&#45;&gt;Node7</title>
<path fill="none" stroke="midnightblue" d="M243.65,-168.4C233.1,-159.31 219.4,-147.49 208.62,-138.19"/>
<polygon fill="midnightblue" stroke="midnightblue" points="210.9,-135.54 201.04,-131.66 206.33,-140.84 210.9,-135.54"/>
</g>
<!-- Node8 -->
<g id="node8" class="node">
<title>Node8</title>
<g id="a_node8"><a xlink:href="abcgOpenGLExternal_8hpp.html" target="_top" xlink:title="Header file for including OpenGL&#45;related third&#45;party dependencies.">
<polygon fill="none" stroke="black" points="260,-112.5 260,-131.5 400,-131.5 400,-112.5 260,-112.5"/>
<text text-anchor="middle" x="330" y="-119.5" font-family="Helvetica,sans-Serif" font-size="10.00">abcgOpenGLExternal.hpp</text>
</a>
</g>
</g>
<!-- Node1&#45;&gt;Node8 -->
<g id="edge8" class="edge">
<title>Node1&#45;&gt;Node8</title>
<path fill="none" stroke="midnightblue" d="M276.59,-168.4C287.29,-159.31 301.19,-147.49 312.13,-138.19"/>
<polygon fill="midnightblue" stroke="midnightblue" points="314.46,-140.8 319.81,-131.66 309.93,-135.47 314.46,-140.8"/>
</g>
<!-- Node9 -->
<g id="node9" class="node">
<title>Node9</title>
<g id="a_node9"><a xlink:href="abcgUtil_8hpp.html" target="_top" xlink:title="Declaration of general utility functions.">
<polygon fill="none" stroke="black" points="418,-112.5 418,-131.5 496,-131.5 496,-112.5 418,-112.5"/>
<text text-anchor="middle" x="457" y="-119.5" font-family="Helvetica,sans-Serif" font-size="10.00">abcgUtil.hpp</text>
</a>
</g>
</g>
<!-- Node1&#45;&gt;Node9 -->
<g id="edge9" class="edge">
<title>Node1&#45;&gt;Node9</title>
<path fill="none" stroke="midnightblue" d="M306.69,-168.4C340.88,-158.07 386.71,-144.23 418.74,-134.56"/>
<polygon fill="midnightblue" stroke="midnightblue" points="420.06,-137.81 428.62,-131.57 418.04,-131.11 420.06,-137.81"/>
</g>
<!-- Node3 -->
<g id="node3" class="node">
<title>Node3</title>
<g id="a_node3"><a xlink:title=" ">
<polygon fill="none" stroke="#bfbfbf" points="14.5,-0.5 14.5,-19.5 107.5,-19.5 107.5,-0.5 14.5,-0.5"/>
<text text-anchor="middle" x="61" y="-7.5" font-family="Helvetica,sans-Serif" font-size="10.00">source_location</text>
</a>
</g>
</g>
<!-- Node2&#45;&gt;Node3 -->
<g id="edge2" class="edge">
<title>Node2&#45;&gt;Node3</title>
<path fill="none" stroke="midnightblue" d="M61,-112.37C61,-94.62 61,-53.67 61,-29.6"/>
<polygon fill="midnightblue" stroke="midnightblue" points="64.5,-29.59 61,-19.59 57.5,-29.59 64.5,-29.59"/>
</g>
<!-- Node4 -->
<g id="node4" class="node">
<title>Node4</title>
<g id="a_node4"><a xlink:href="abcgException_8hpp.html" target="_top" xlink:title="Header file of abcg::Exception and derived classes.">
<polygon fill="none" stroke="black" points="100.5,-56.5 100.5,-75.5 209.5,-75.5 209.5,-56.5 100.5,-56.5"/>
<text text-anchor="middle" x="155" y="-63.5" font-family="Helvetica,sans-Serif" font-size="10.00">abcgException.hpp</text>
</a>
</g>
</g>
<!-- Node2&#45;&gt;Node4 -->
<g id="edge3" class="edge">
<title>Node2&#45;&gt;Node4</title>
<path fill="none" stroke="midnightblue" d="M76.1,-112.32C90.9,-103.82 113.69,-90.73 130.98,-80.8"/>
<polygon fill="midnightblue" stroke="midnightblue" points="133.01,-83.67 139.93,-75.65 129.52,-77.6 133.01,-83.67"/>
</g>
<!-- Node4&#45;&gt;Node3 -->
<g id="edge4" class="edge">
<title>Node4&#45;&gt;Node3</title>
<path fill="none" stroke="midnightblue" d="M139.9,-56.32C125.1,-47.82 102.31,-34.73 85.02,-24.8"/>
<polygon fill="midnightblue" stroke="midnightblue" points="86.48,-21.6 76.07,-19.65 82.99,-27.67 86.48,-21.6"/>
</g>
<!-- Node5 -->
<g id="node5" class="node">
<title>Node5</title>
<g id="a_node5"><a xlink:title=" ">
<polygon fill="none" stroke="#bfbfbf" points="125.5,-0.5 125.5,-19.5 190.5,-19.5 190.5,-0.5 125.5,-0.5"/>
<text text-anchor="middle" x="158" y="-7.5" font-family="Helvetica,sans-Serif" font-size="10.00">stdexcept</text>
</a>
</g>
</g>
<!-- Node4&#45;&gt;Node5 -->
<g id="edge5" class="edge">
<title>Node4&#45;&gt;Node5</title>
<path fill="none" stroke="midnightblue" d="M155.5,-56.08C155.89,-49.01 156.45,-38.86 156.95,-29.99"/>
<polygon fill="midnightblue" stroke="midnightblue" points="160.45,-29.93 157.51,-19.75 153.46,-29.54 160.45,-29.93"/>
</g>
<!-- Node6 -->
<g id="node6" class="node">
<title>Node6</title>
<g id="a_node6"><a xlink:title=" ">
<polygon fill="none" stroke="#bfbfbf" points="215,-0.5 215,-19.5 259,-19.5 259,-0.5 215,-0.5"/>
<text text-anchor="middle" x="237" y="-7.5" font-family="Helvetica,sans-Serif" font-size="10.00">string</text>
</a>
</g>
</g>
<!-- Node4&#45;&gt;Node6 -->
<g id="edge6" class="edge">
<title>Node4&#45;&gt;Node6</title>
<path fill="none" stroke="midnightblue" d="M168.17,-56.32C180.85,-47.98 200.23,-35.21 215.21,-25.35"/>
<polygon fill="midnightblue" stroke="midnightblue" points="217.43,-28.08 223.86,-19.65 213.58,-22.23 217.43,-28.08"/>
</g>
<!-- Node9&#45;&gt;Node6 -->
<g id="edge11" class="edge">
<title>Node9&#45;&gt;Node6</title>
<path fill="none" stroke="midnightblue" d="M439.74,-112.37C401.34,-93.17 308.68,-46.84 263.15,-24.07"/>
<polygon fill="midnightblue" stroke="midnightblue" points="264.69,-20.93 254.18,-19.59 261.56,-27.19 264.69,-20.93"/>
</g>
<!-- Node10 -->
<g id="node10" class="node">
<title>Node10</title>
<g id="a_node10"><a xlink:title=" ">
<polygon fill="none" stroke="#bfbfbf" points="424.5,-56.5 424.5,-75.5 489.5,-75.5 489.5,-56.5 424.5,-56.5"/>
<text text-anchor="middle" x="457" y="-63.5" font-family="Helvetica,sans-Serif" font-size="10.00">functional</text>
</a>
</g>
</g>
<!-- Node9&#45;&gt;Node10 -->
<g id="edge10" class="edge">
<title>Node9&#45;&gt;Node10</title>
<path fill="none" stroke="midnightblue" d="M457,-112.08C457,-105.01 457,-94.86 457,-85.99"/>
<polygon fill="midnightblue" stroke="midnightblue" points="460.5,-85.75 457,-75.75 453.5,-85.75 460.5,-85.75"/>
</g>
</g>
</svg>
