<?xml version="1.0" encoding="UTF-8" standalone="no"?>
<!DOCTYPE svg PUBLIC "-//W3C//DTD SVG 1.1//EN"
 "http://www.w3.org/Graphics/SVG/1.1/DTD/svg11.dtd">
<!-- Generated by graphviz version 2.43.0 (0)
 -->
<!-- Title: /home/harlen/dev/abcg2/abcg/abcg_vulkan_window.cpp Pages: 1 -->
<svg width="1412pt" height="274pt"
 viewBox="0.00 0.00 1412.00 274.00" xmlns="http://www.w3.org/2000/svg" xmlns:xlink="http://www.w3.org/1999/xlink">
<g id="graph0" class="graph" transform="scale(1 1) rotate(0) translate(4 270)">
<title>/home/harlen/dev/abcg2/abcg/abcg_vulkan_window.cpp</title>
<!-- Node1 -->
<g id="node1" class="node">
<title>Node1</title>
<g id="a_node1"><a xlink:title="Definition of abcg::VulkanWindow members.">
<polygon fill="#bfbfbf" stroke="black" points="591,-235.5 591,-265.5 760,-265.5 760,-235.5 591,-235.5"/>
<text text-anchor="start" x="599" y="-253.5" font-family="Helvetica,sans-Serif" font-size="10.00">/home/harlen/dev/abcg2</text>
<text text-anchor="middle" x="675.5" y="-242.5" font-family="Helvetica,sans-Serif" font-size="10.00">/abcg/abcg_vulkan_window.cpp</text>
</a>
</g>
</g>
<!-- Node2 -->
<g id="node2" class="node">
<title>Node2</title>
<g id="a_node2"><a xlink:href="abcg__vulkan__window_8hpp.html" target="_top" xlink:title="Header file of abcg::VulkanWindow.">
<polygon fill="none" stroke="black" points="273.5,-179.5 273.5,-198.5 413.5,-198.5 413.5,-179.5 273.5,-179.5"/>
<text text-anchor="middle" x="343.5" y="-186.5" font-family="Helvetica,sans-Serif" font-size="10.00">abcg_vulkan_window.hpp</text>
</a>
</g>
</g>
<!-- Node1&#45;&gt;Node2 -->
<g id="edge1" class="edge">
<title>Node1&#45;&gt;Node2</title>
<path fill="none" stroke="midnightblue" d="M597.24,-235.47C537.09,-224.69 455.36,-210.05 401.1,-200.32"/>
<polygon fill="midnightblue" stroke="midnightblue" points="401.42,-196.83 390.96,-198.51 400.19,-203.72 401.42,-196.83"/>
</g>
<!-- Node9 -->
<g id="node9" class="node">
<title>Node9</title>
<g id="a_node9"><a xlink:href="abcg__vulkan__instance_8hpp.html" target="_top" xlink:title="Header file of abcg::VulkanInstance.">
<polygon fill="none" stroke="black" points="0,-118 0,-137 145,-137 145,-118 0,-118"/>
<text text-anchor="middle" x="72.5" y="-125" font-family="Helvetica,sans-Serif" font-size="10.00">abcg_vulkan_instance.hpp</text>
</a>
</g>
</g>
<!-- Node1&#45;&gt;Node9 -->
<g id="edge41" class="edge">
<title>Node1&#45;&gt;Node9</title>
<path fill="none" stroke="midnightblue" d="M590.65,-244.78C506.83,-238.78 375.43,-225.8 264.5,-199 204.71,-184.55 137.93,-157.38 100.99,-141.32"/>
<polygon fill="midnightblue" stroke="midnightblue" points="101.96,-137.92 91.4,-137.1 99.14,-144.33 101.96,-137.92"/>
</g>
<!-- Node13 -->
<g id="node13" class="node">
<title>Node13</title>
<g id="a_node13"><a xlink:href="abcg__window_8hpp.html" target="_top" xlink:title="Header file of abcg::Window.">
<polygon fill="none" stroke="black" points="670,-118 670,-137 773,-137 773,-118 670,-118"/>
<text text-anchor="middle" x="721.5" y="-125" font-family="Helvetica,sans-Serif" font-size="10.00">abcg_window.hpp</text>
</a>
</g>
</g>
<!-- Node1&#45;&gt;Node13 -->
<g id="edge42" class="edge">
<title>Node1&#45;&gt;Node13</title>
<path fill="none" stroke="midnightblue" d="M590.82,-247.56C514.54,-242.75 420.12,-227.29 460.5,-179 489.47,-144.35 616.29,-152.23 660.5,-143 665.89,-141.87 671.54,-140.63 677.13,-139.35"/>
<polygon fill="midnightblue" stroke="midnightblue" points="678.11,-142.71 687.06,-137.04 676.52,-135.9 678.11,-142.71"/>
</g>
<!-- Node16 -->
<g id="node16" class="node">
<title>Node16</title>
<g id="a_node16"><a xlink:title=" ">
<polygon fill="none" stroke="#bfbfbf" points="469.5,-179.5 469.5,-198.5 551.5,-198.5 551.5,-179.5 469.5,-179.5"/>
<text text-anchor="middle" x="510.5" y="-186.5" font-family="Helvetica,sans-Serif" font-size="10.00">SDL_vulkan.h</text>
</a>
</g>
</g>
<!-- Node1&#45;&gt;Node16 -->
<g id="edge25" class="edge">
<title>Node1&#45;&gt;Node16</title>
<path fill="none" stroke="midnightblue" d="M636.4,-235.4C608.34,-225.28 570.93,-211.79 544.19,-202.15"/>
<polygon fill="midnightblue" stroke="midnightblue" points="545.1,-198.76 534.51,-198.66 542.73,-205.34 545.1,-198.76"/>
</g>
<!-- Node17 -->
<g id="node17" class="node">
<title>Node17</title>
<g id="a_node17"><a xlink:title=" ">
<polygon fill="none" stroke="#bfbfbf" points="569.5,-179.5 569.5,-198.5 633.5,-198.5 633.5,-179.5 569.5,-179.5"/>
<text text-anchor="middle" x="601.5" y="-186.5" font-family="Helvetica,sans-Serif" font-size="10.00">algorithm</text>
</a>
</g>
</g>
<!-- Node1&#45;&gt;Node17 -->
<g id="edge26" class="edge">
<title>Node1&#45;&gt;Node17</title>
<path fill="none" stroke="midnightblue" d="M657.96,-235.4C646.66,-226.31 631.96,-214.49 620.39,-205.19"/>
<polygon fill="midnightblue" stroke="midnightblue" points="622.25,-202.2 612.27,-198.66 617.87,-207.65 622.25,-202.2"/>
</g>
<!-- Node18 -->
<g id="node18" class="node">
<title>Node18</title>
<g id="a_node18"><a xlink:title=" ">
<polygon fill="none" stroke="#bfbfbf" points="652,-179.5 652,-198.5 699,-198.5 699,-179.5 652,-179.5"/>
<text text-anchor="middle" x="675.5" y="-186.5" font-family="Helvetica,sans-Serif" font-size="10.00">cmath</text>
</a>
</g>
</g>
<!-- Node1&#45;&gt;Node18 -->
<g id="edge27" class="edge">
<title>Node1&#45;&gt;Node18</title>
<path fill="none" stroke="midnightblue" d="M675.5,-235.4C675.5,-227.47 675.5,-217.46 675.5,-208.86"/>
<polygon fill="midnightblue" stroke="midnightblue" points="679,-208.66 675.5,-198.66 672,-208.66 679,-208.66"/>
</g>
<!-- Node19 -->
<g id="node19" class="node">
<title>Node19</title>
<g id="a_node19"><a xlink:title=" ">
<polygon fill="none" stroke="#bfbfbf" points="717.5,-179.5 717.5,-198.5 817.5,-198.5 817.5,-179.5 717.5,-179.5"/>
<text text-anchor="middle" x="767.5" y="-186.5" font-family="Helvetica,sans-Serif" font-size="10.00">imgui_impl_sdl.h</text>
</a>
</g>
</g>
<!-- Node1&#45;&gt;Node19 -->
<g id="edge28" class="edge">
<title>Node1&#45;&gt;Node19</title>
<path fill="none" stroke="midnightblue" d="M697.3,-235.4C711.91,-225.95 731.07,-213.56 745.68,-204.11"/>
<polygon fill="midnightblue" stroke="midnightblue" points="747.62,-207.03 754.11,-198.66 743.82,-201.15 747.62,-207.03"/>
</g>
<!-- Node20 -->
<g id="node20" class="node">
<title>Node20</title>
<g id="a_node20"><a xlink:title=" ">
<polygon fill="none" stroke="#bfbfbf" points="835.5,-179.5 835.5,-198.5 953.5,-198.5 953.5,-179.5 835.5,-179.5"/>
<text text-anchor="middle" x="894.5" y="-186.5" font-family="Helvetica,sans-Serif" font-size="10.00">imgui_impl_vulkan.h</text>
</a>
</g>
</g>
<!-- Node1&#45;&gt;Node20 -->
<g id="edge29" class="edge">
<title>Node1&#45;&gt;Node20</title>
<path fill="none" stroke="midnightblue" d="M727.12,-235.47C765.56,-225.03 817.36,-210.96 853.1,-201.25"/>
<polygon fill="midnightblue" stroke="midnightblue" points="854.46,-204.51 863.19,-198.51 852.62,-197.75 854.46,-204.51"/>
</g>
<!-- Node21 -->
<g id="node21" class="node">
<title>Node21</title>
<g id="a_node21"><a xlink:href="abcg__embeddedfonts_8hpp.html" target="_top" xlink:title=" ">
<polygon fill="none" stroke="black" points="972,-179.5 972,-198.5 1115,-198.5 1115,-179.5 972,-179.5"/>
<text text-anchor="middle" x="1043.5" y="-186.5" font-family="Helvetica,sans-Serif" font-size="10.00">abcg_embeddedfonts.hpp</text>
</a>
</g>
</g>
<!-- Node1&#45;&gt;Node21 -->
<g id="edge30" class="edge">
<title>Node1&#45;&gt;Node21</title>
<path fill="none" stroke="midnightblue" d="M760.39,-235.77C827.61,-224.91 919.98,-209.97 980.68,-200.16"/>
<polygon fill="midnightblue" stroke="midnightblue" points="981.57,-203.56 990.88,-198.51 980.45,-196.65 981.57,-203.56"/>
</g>
<!-- Node22 -->
<g id="node22" class="node">
<title>Node22</title>
<g id="a_node22"><a xlink:href="abcg__exception_8hpp.html" target="_top" xlink:title="Header file of abcg::Exception and derived classes.">
<polygon fill="none" stroke="black" points="1063.5,-118 1063.5,-137 1177.5,-137 1177.5,-118 1063.5,-118"/>
<text text-anchor="middle" x="1120.5" y="-125" font-family="Helvetica,sans-Serif" font-size="10.00">abcg_exception.hpp</text>
</a>
</g>
</g>
<!-- Node1&#45;&gt;Node22 -->
<g id="edge32" class="edge">
<title>Node1&#45;&gt;Node22</title>
<path fill="none" stroke="midnightblue" d="M760.21,-245.94C883.35,-239.88 1099.77,-225.56 1123.5,-199 1135.97,-185.05 1132.49,-162.64 1127.66,-146.84"/>
<polygon fill="midnightblue" stroke="midnightblue" points="1130.87,-145.43 1124.27,-137.15 1124.26,-147.74 1130.87,-145.43"/>
</g>
<!-- Node25 -->
<g id="node25" class="node">
<title>Node25</title>
<g id="a_node25"><a xlink:href="abcg__vulkan__error_8hpp.html" target="_top" xlink:title="Header file of abcg::VulkanError and derived classes.">
<polygon fill="none" stroke="black" points="1171.5,-179.5 1171.5,-198.5 1297.5,-198.5 1297.5,-179.5 1171.5,-179.5"/>
<text text-anchor="middle" x="1234.5" y="-186.5" font-family="Helvetica,sans-Serif" font-size="10.00">abcg_vulkan_error.hpp</text>
</a>
</g>
</g>
<!-- Node1&#45;&gt;Node25 -->
<g id="edge36" class="edge">
<title>Node1&#45;&gt;Node25</title>
<path fill="none" stroke="midnightblue" d="M760.42,-240.91C856.74,-231.1 1018.47,-214.41 1157.5,-199 1158.78,-198.86 1160.07,-198.71 1161.37,-198.57"/>
<polygon fill="midnightblue" stroke="midnightblue" points="1161.93,-202.03 1171.47,-197.43 1161.15,-195.07 1161.93,-202.03"/>
</g>
<!-- Node3 -->
<g id="node3" class="node">
<title>Node3</title>
<g id="a_node3"><a xlink:title=" ">
<polygon fill="none" stroke="#bfbfbf" points="975.5,-118 975.5,-137 1017.5,-137 1017.5,-118 975.5,-118"/>
<text text-anchor="middle" x="996.5" y="-125" font-family="Helvetica,sans-Serif" font-size="10.00">array</text>
</a>
</g>
</g>
<!-- Node2&#45;&gt;Node3 -->
<g id="edge2" class="edge">
<title>Node2&#45;&gt;Node3</title>
<path fill="none" stroke="midnightblue" d="M413.69,-181.6C554.33,-168.79 865.67,-140.42 965.24,-131.35"/>
<polygon fill="midnightblue" stroke="midnightblue" points="965.62,-134.83 975.26,-130.44 964.98,-127.86 965.62,-134.83"/>
</g>
<!-- Node4 -->
<g id="node4" class="node">
<title>Node4</title>
<g id="a_node4"><a xlink:title=" ">
<polygon fill="none" stroke="#bfbfbf" points="800.5,-56.5 800.5,-75.5 844.5,-75.5 844.5,-56.5 800.5,-56.5"/>
<text text-anchor="middle" x="822.5" y="-63.5" font-family="Helvetica,sans-Serif" font-size="10.00">string</text>
</a>
</g>
</g>
<!-- Node2&#45;&gt;Node4 -->
<g id="edge3" class="edge">
<title>Node2&#45;&gt;Node4</title>
<path fill="none" stroke="midnightblue" d="M413.76,-182.51C533.68,-172.89 766.45,-153.06 781.5,-143 801.32,-129.75 812.33,-103.64 817.84,-85.76"/>
<polygon fill="midnightblue" stroke="midnightblue" points="821.28,-86.45 820.58,-75.88 814.53,-84.58 821.28,-86.45"/>
</g>
<!-- Node5 -->
<g id="node5" class="node">
<title>Node5</title>
<g id="a_node5"><a xlink:href="abcg__vulkan_8hpp.html" target="_top" xlink:title="Header file for Vulkan&#45;related functions and classes.">
<polygon fill="none" stroke="black" points="206.5,-56.5 206.5,-75.5 304.5,-75.5 304.5,-56.5 206.5,-56.5"/>
<text text-anchor="middle" x="255.5" y="-63.5" font-family="Helvetica,sans-Serif" font-size="10.00">abcg_vulkan.hpp</text>
</a>
</g>
</g>
<!-- Node2&#45;&gt;Node5 -->
<g id="edge4" class="edge">
<title>Node2&#45;&gt;Node5</title>
<path fill="none" stroke="midnightblue" d="M273.26,-184.97C243.4,-179.76 211.22,-168.11 192.5,-143 184.27,-131.95 186.2,-124.25 192.5,-112 199.58,-98.25 213.02,-87.77 225.68,-80.39"/>
<polygon fill="midnightblue" stroke="midnightblue" points="227.5,-83.39 234.65,-75.57 224.19,-77.22 227.5,-83.39"/>
</g>
<!-- Node8 -->
<g id="node8" class="node">
<title>Node8</title>
<g id="a_node8"><a xlink:href="abcg__vulkan__device_8hpp.html" target="_top" xlink:title="Header file of abcg::VulkanDevice.">
<polygon fill="none" stroke="black" points="201.5,-118 201.5,-137 337.5,-137 337.5,-118 201.5,-118"/>
<text text-anchor="middle" x="269.5" y="-125" font-family="Helvetica,sans-Serif" font-size="10.00">abcg_vulkan_device.hpp</text>
</a>
</g>
</g>
<!-- Node2&#45;&gt;Node8 -->
<g id="edge7" class="edge">
<title>Node2&#45;&gt;Node8</title>
<path fill="none" stroke="midnightblue" d="M332.9,-179.48C321.25,-170.11 302.31,-154.88 288.17,-143.51"/>
<polygon fill="midnightblue" stroke="midnightblue" points="290.07,-140.55 280.08,-137.01 285.68,-146 290.07,-140.55"/>
</g>
<!-- Node2&#45;&gt;Node9 -->
<g id="edge10" class="edge">
<title>Node2&#45;&gt;Node9</title>
<path fill="none" stroke="midnightblue" d="M304.67,-179.48C256.38,-168.87 173.89,-150.76 121.35,-139.22"/>
<polygon fill="midnightblue" stroke="midnightblue" points="121.77,-135.74 111.26,-137.01 120.27,-142.57 121.77,-135.74"/>
</g>
<!-- Node10 -->
<g id="node10" class="node">
<title>Node10</title>
<g id="a_node10"><a xlink:href="abcg__vulkan__physical__device_8hpp.html" target="_top" xlink:title="Header file of abcg::VulkanPhysicalDevice.">
<polygon fill="none" stroke="black" points="356,-112.5 356,-142.5 479,-142.5 479,-112.5 356,-112.5"/>
<text text-anchor="start" x="364" y="-130.5" font-family="Helvetica,sans-Serif" font-size="10.00">abcg_vulkan_physical</text>
<text text-anchor="middle" x="417.5" y="-119.5" font-family="Helvetica,sans-Serif" font-size="10.00">_device.hpp</text>
</a>
</g>
</g>
<!-- Node2&#45;&gt;Node10 -->
<g id="edge13" class="edge">
<title>Node2&#45;&gt;Node10</title>
<path fill="none" stroke="midnightblue" d="M354.1,-179.48C363.94,-171.57 378.96,-159.48 391.92,-149.07"/>
<polygon fill="midnightblue" stroke="midnightblue" points="394.46,-151.52 400.06,-142.52 390.07,-146.06 394.46,-151.52"/>
</g>
<!-- Node12 -->
<g id="node12" class="node">
<title>Node12</title>
<g id="a_node12"><a xlink:href="abcg__vulkan__swapchain_8hpp.html" target="_top" xlink:title="Header file of abcg::VulkanSwapchain.">
<polygon fill="none" stroke="black" points="497,-118 497,-137 652,-137 652,-118 497,-118"/>
<text text-anchor="middle" x="574.5" y="-125" font-family="Helvetica,sans-Serif" font-size="10.00">abcg_vulkan_swapchain.hpp</text>
</a>
</g>
</g>
<!-- Node2&#45;&gt;Node12 -->
<g id="edge17" class="edge">
<title>Node2&#45;&gt;Node12</title>
<path fill="none" stroke="midnightblue" d="M376.6,-179.48C417.42,-168.96 486.91,-151.06 531.74,-139.51"/>
<polygon fill="midnightblue" stroke="midnightblue" points="532.65,-142.89 541.46,-137.01 530.91,-136.11 532.65,-142.89"/>
</g>
<!-- Node2&#45;&gt;Node13 -->
<g id="edge20" class="edge">
<title>Node2&#45;&gt;Node13</title>
<path fill="none" stroke="midnightblue" d="M413.69,-179.92C478.13,-172.06 576.12,-158.98 660.5,-143 666.26,-141.91 672.29,-140.64 678.22,-139.31"/>
<polygon fill="midnightblue" stroke="midnightblue" points="679.1,-142.7 688.06,-137.04 677.53,-135.88 679.1,-142.7"/>
</g>
<!-- Node6 -->
<g id="node6" class="node">
<title>Node6</title>
<g id="a_node6"><a xlink:href="abcg__external_8hpp.html" target="_top" xlink:title="Header file for including third&#45;party dependencies.">
<polygon fill="none" stroke="black" points="317,-0.5 317,-19.5 424,-19.5 424,-0.5 317,-0.5"/>
<text text-anchor="middle" x="370.5" y="-7.5" font-family="Helvetica,sans-Serif" font-size="10.00">abcg_external.hpp</text>
</a>
</g>
</g>
<!-- Node5&#45;&gt;Node6 -->
<g id="edge5" class="edge">
<title>Node5&#45;&gt;Node6</title>
<path fill="none" stroke="midnightblue" d="M273.72,-56.44C292.4,-47.68 321.66,-33.94 343.12,-23.86"/>
<polygon fill="midnightblue" stroke="midnightblue" points="344.8,-26.93 352.36,-19.52 341.82,-20.6 344.8,-26.93"/>
</g>
<!-- Node7 -->
<g id="node7" class="node">
<title>Node7</title>
<g id="a_node7"><a xlink:href="abcg__vulkan__external_8hpp.html" target="_top" xlink:title="Header file for including Vulkan&#45;related dependencies.">
<polygon fill="none" stroke="black" points="154.5,-0.5 154.5,-19.5 298.5,-19.5 298.5,-0.5 154.5,-0.5"/>
<text text-anchor="middle" x="226.5" y="-7.5" font-family="Helvetica,sans-Serif" font-size="10.00">abcg_vulkan_external.hpp</text>
</a>
</g>
</g>
<!-- Node5&#45;&gt;Node7 -->
<g id="edge6" class="edge">
<title>Node5&#45;&gt;Node7</title>
<path fill="none" stroke="midnightblue" d="M250.71,-56.08C246.74,-48.69 240.97,-37.95 236.07,-28.81"/>
<polygon fill="midnightblue" stroke="midnightblue" points="239.01,-26.91 231.2,-19.75 232.85,-30.22 239.01,-26.91"/>
</g>
<!-- Node8&#45;&gt;Node5 -->
<g id="edge9" class="edge">
<title>Node8&#45;&gt;Node5</title>
<path fill="none" stroke="midnightblue" d="M267.49,-117.98C265.5,-109.49 262.37,-96.2 259.81,-85.32"/>
<polygon fill="midnightblue" stroke="midnightblue" points="263.2,-84.44 257.5,-75.51 256.39,-86.04 263.2,-84.44"/>
</g>
<!-- Node8&#45;&gt;Node6 -->
<g id="edge8" class="edge">
<title>Node8&#45;&gt;Node6</title>
<path fill="none" stroke="midnightblue" d="M277.09,-117.82C293.83,-98.67 334.17,-52.54 355.96,-27.63"/>
<polygon fill="midnightblue" stroke="midnightblue" points="358.87,-29.61 362.82,-19.78 353.6,-25.01 358.87,-29.61"/>
</g>
<!-- Node9&#45;&gt;Node5 -->
<g id="edge12" class="edge">
<title>Node9&#45;&gt;Node5</title>
<path fill="none" stroke="midnightblue" d="M98.72,-117.98C130.52,-107.64 184.27,-90.16 219.82,-78.6"/>
<polygon fill="midnightblue" stroke="midnightblue" points="220.9,-81.93 229.33,-75.51 218.74,-75.27 220.9,-81.93"/>
</g>
<!-- Node9&#45;&gt;Node6 -->
<g id="edge11" class="edge">
<title>Node9&#45;&gt;Node6</title>
<path fill="none" stroke="midnightblue" d="M85.08,-117.93C107.02,-103.34 154.07,-73.55 197.5,-56 235.47,-40.66 280.27,-29.17 314.77,-21.65"/>
<polygon fill="midnightblue" stroke="midnightblue" points="315.61,-25.05 324.66,-19.54 314.15,-18.2 315.61,-25.05"/>
</g>
<!-- Node10&#45;&gt;Node5 -->
<g id="edge15" class="edge">
<title>Node10&#45;&gt;Node5</title>
<path fill="none" stroke="midnightblue" d="M379.11,-112.4C351.56,-102.28 314.83,-88.79 288.58,-79.15"/>
<polygon fill="midnightblue" stroke="midnightblue" points="289.67,-75.82 279.07,-75.66 287.25,-82.39 289.67,-75.82"/>
</g>
<!-- Node10&#45;&gt;Node6 -->
<g id="edge14" class="edge">
<title>Node10&#45;&gt;Node6</title>
<path fill="none" stroke="midnightblue" d="M408.12,-112.41C401.88,-102.54 393.88,-88.87 388.5,-76 382.15,-60.81 377.35,-42.69 374.31,-29.45"/>
<polygon fill="midnightblue" stroke="midnightblue" points="377.72,-28.67 372.17,-19.64 370.88,-30.16 377.72,-28.67"/>
</g>
<!-- Node11 -->
<g id="node11" class="node">
<title>Node11</title>
<g id="a_node11"><a xlink:title=" ">
<polygon fill="none" stroke="#bfbfbf" points="398,-56.5 398,-75.5 547,-75.5 547,-56.5 398,-56.5"/>
<text text-anchor="middle" x="472.5" y="-63.5" font-family="Helvetica,sans-Serif" font-size="10.00">vulkan/vulkan_handles.hpp</text>
</a>
</g>
</g>
<!-- Node10&#45;&gt;Node11 -->
<g id="edge16" class="edge">
<title>Node10&#45;&gt;Node11</title>
<path fill="none" stroke="midnightblue" d="M430.53,-112.4C438.69,-103.58 449.22,-92.18 457.69,-83.02"/>
<polygon fill="midnightblue" stroke="midnightblue" points="460.28,-85.38 464.5,-75.66 455.14,-80.63 460.28,-85.38"/>
</g>
<!-- Node12&#45;&gt;Node5 -->
<g id="edge19" class="edge">
<title>Node12&#45;&gt;Node5</title>
<path fill="none" stroke="midnightblue" d="M528.8,-117.98C471.35,-107.26 372.82,-88.88 311.08,-77.37"/>
<polygon fill="midnightblue" stroke="midnightblue" points="311.59,-73.9 301.12,-75.51 310.31,-80.78 311.59,-73.9"/>
</g>
<!-- Node12&#45;&gt;Node6 -->
<g id="edge18" class="edge">
<title>Node12&#45;&gt;Node6</title>
<path fill="none" stroke="midnightblue" d="M574.8,-117.74C574.81,-102.86 572.56,-72.64 555.5,-56 538.25,-39.17 480.64,-26.92 434.24,-19.48"/>
<polygon fill="midnightblue" stroke="midnightblue" points="434.65,-16 424.23,-17.92 433.57,-22.92 434.65,-16"/>
</g>
<!-- Node13&#45;&gt;Node4 -->
<g id="edge21" class="edge">
<title>Node13&#45;&gt;Node4</title>
<path fill="none" stroke="midnightblue" d="M735.97,-117.98C752.47,-108.25 779.68,-92.23 799.18,-80.74"/>
<polygon fill="midnightblue" stroke="midnightblue" points="801.22,-83.6 808.06,-75.51 797.66,-77.57 801.22,-83.6"/>
</g>
<!-- Node13&#45;&gt;Node6 -->
<g id="edge24" class="edge">
<title>Node13&#45;&gt;Node6</title>
<path fill="none" stroke="midnightblue" d="M706.77,-117.87C681.11,-103.18 626.22,-73.24 576.5,-56 530.01,-39.88 475.55,-28.28 434.3,-20.9"/>
<polygon fill="midnightblue" stroke="midnightblue" points="434.83,-17.44 424.38,-19.16 433.63,-24.33 434.83,-17.44"/>
</g>
<!-- Node14 -->
<g id="node14" class="node">
<title>Node14</title>
<g id="a_node14"><a xlink:href="abcg__elapsedtimer_8hpp.html" target="_top" xlink:title="Header file of abcg::ElapsedTimer.">
<polygon fill="none" stroke="black" points="652.5,-56.5 652.5,-75.5 782.5,-75.5 782.5,-56.5 652.5,-56.5"/>
<text text-anchor="middle" x="717.5" y="-63.5" font-family="Helvetica,sans-Serif" font-size="10.00">abcg_elapsedtimer.hpp</text>
</a>
</g>
</g>
<!-- Node13&#45;&gt;Node14 -->
<g id="edge22" class="edge">
<title>Node13&#45;&gt;Node14</title>
<path fill="none" stroke="midnightblue" d="M720.93,-117.98C720.36,-109.58 719.48,-96.48 718.75,-85.66"/>
<polygon fill="midnightblue" stroke="midnightblue" points="722.24,-85.25 718.07,-75.51 715.25,-85.72 722.24,-85.25"/>
</g>
<!-- Node15 -->
<g id="node15" class="node">
<title>Node15</title>
<g id="a_node15"><a xlink:title=" ">
<polygon fill="none" stroke="#bfbfbf" points="692.5,-0.5 692.5,-19.5 742.5,-19.5 742.5,-0.5 692.5,-0.5"/>
<text text-anchor="middle" x="717.5" y="-7.5" font-family="Helvetica,sans-Serif" font-size="10.00">chrono</text>
</a>
</g>
</g>
<!-- Node14&#45;&gt;Node15 -->
<g id="edge23" class="edge">
<title>Node14&#45;&gt;Node15</title>
<path fill="none" stroke="midnightblue" d="M717.5,-56.08C717.5,-49.01 717.5,-38.86 717.5,-29.99"/>
<polygon fill="midnightblue" stroke="midnightblue" points="721,-29.75 717.5,-19.75 714,-29.75 721,-29.75"/>
</g>
<!-- Node21&#45;&gt;Node3 -->
<g id="edge31" class="edge">
<title>Node21&#45;&gt;Node3</title>
<path fill="none" stroke="midnightblue" d="M1036.77,-179.48C1029.72,-170.55 1018.47,-156.31 1009.65,-145.14"/>
<polygon fill="midnightblue" stroke="midnightblue" points="1012.17,-142.69 1003.22,-137.01 1006.67,-147.03 1012.17,-142.69"/>
</g>
<!-- Node22&#45;&gt;Node4 -->
<g id="edge35" class="edge">
<title>Node22&#45;&gt;Node4</title>
<path fill="none" stroke="midnightblue" d="M1077.8,-117.98C1017.45,-105.93 908.55,-84.18 854.59,-73.41"/>
<polygon fill="midnightblue" stroke="midnightblue" points="855.06,-69.93 844.56,-71.41 853.69,-76.8 855.06,-69.93"/>
</g>
<!-- Node23 -->
<g id="node23" class="node">
<title>Node23</title>
<g id="a_node23"><a xlink:title=" ">
<polygon fill="none" stroke="#bfbfbf" points="1159,-56.5 1159,-75.5 1252,-75.5 1252,-56.5 1159,-56.5"/>
<text text-anchor="middle" x="1205.5" y="-63.5" font-family="Helvetica,sans-Serif" font-size="10.00">source_location</text>
</a>
</g>
</g>
<!-- Node22&#45;&gt;Node23 -->
<g id="edge33" class="edge">
<title>Node22&#45;&gt;Node23</title>
<path fill="none" stroke="midnightblue" d="M1132.68,-117.98C1146.31,-108.43 1168.63,-92.81 1184.97,-81.37"/>
<polygon fill="midnightblue" stroke="midnightblue" points="1187.16,-84.11 1193.34,-75.51 1183.14,-78.38 1187.16,-84.11"/>
</g>
<!-- Node24 -->
<g id="node24" class="node">
<title>Node24</title>
<g id="a_node24"><a xlink:title=" ">
<polygon fill="none" stroke="#bfbfbf" points="1076,-56.5 1076,-75.5 1141,-75.5 1141,-56.5 1076,-56.5"/>
<text text-anchor="middle" x="1108.5" y="-63.5" font-family="Helvetica,sans-Serif" font-size="10.00">stdexcept</text>
</a>
</g>
</g>
<!-- Node22&#45;&gt;Node24 -->
<g id="edge34" class="edge">
<title>Node22&#45;&gt;Node24</title>
<path fill="none" stroke="midnightblue" d="M1118.78,-117.98C1117.07,-109.49 1114.39,-96.2 1112.2,-85.32"/>
<polygon fill="midnightblue" stroke="midnightblue" points="1115.62,-84.62 1110.22,-75.51 1108.76,-86 1115.62,-84.62"/>
</g>
<!-- Node25&#45;&gt;Node22 -->
<g id="edge40" class="edge">
<title>Node25&#45;&gt;Node22</title>
<path fill="none" stroke="midnightblue" d="M1218.17,-179.48C1199.29,-169.62 1167.99,-153.29 1145.92,-141.77"/>
<polygon fill="midnightblue" stroke="midnightblue" points="1147.29,-138.53 1136.8,-137.01 1144.05,-144.74 1147.29,-138.53"/>
</g>
<!-- Node25&#45;&gt;Node23 -->
<g id="edge37" class="edge">
<title>Node25&#45;&gt;Node23</title>
<path fill="none" stroke="midnightblue" d="M1232.41,-179.3C1227.73,-159.76 1216.3,-112.06 1209.95,-85.55"/>
<polygon fill="midnightblue" stroke="midnightblue" points="1213.3,-84.53 1207.57,-75.62 1206.49,-86.16 1213.3,-84.53"/>
</g>
<!-- Node26 -->
<g id="node26" class="node">
<title>Node26</title>
<g id="a_node26"><a xlink:title=" ">
<polygon fill="none" stroke="#bfbfbf" points="1234,-118 1234,-137 1281,-137 1281,-118 1234,-118"/>
<text text-anchor="middle" x="1257.5" y="-125" font-family="Helvetica,sans-Serif" font-size="10.00">volk.h</text>
</a>
</g>
</g>
<!-- Node25&#45;&gt;Node26 -->
<g id="edge38" class="edge">
<title>Node25&#45;&gt;Node26</title>
<path fill="none" stroke="midnightblue" d="M1237.8,-179.48C1241.11,-170.9 1246.32,-157.43 1250.55,-146.48"/>
<polygon fill="midnightblue" stroke="midnightblue" points="1253.87,-147.6 1254.21,-137.01 1247.34,-145.07 1253.87,-147.6"/>
</g>
<!-- Node27 -->
<g id="node27" class="node">
<title>Node27</title>
<g id="a_node27"><a xlink:title=" ">
<polygon fill="none" stroke="#bfbfbf" points="1299,-118 1299,-137 1404,-137 1404,-118 1299,-118"/>
<text text-anchor="middle" x="1351.5" y="-125" font-family="Helvetica,sans-Serif" font-size="10.00">vulkan/vulkan.hpp</text>
</a>
</g>
</g>
<!-- Node25&#45;&gt;Node27 -->
<g id="edge39" class="edge">
<title>Node25&#45;&gt;Node27</title>
<path fill="none" stroke="midnightblue" d="M1251.26,-179.48C1270.72,-169.58 1303.05,-153.14 1325.71,-141.62"/>
<polygon fill="midnightblue" stroke="midnightblue" points="1327.44,-144.66 1334.77,-137.01 1324.27,-138.42 1327.44,-144.66"/>
</g>
</g>
</svg>
