<?xml version="1.0" encoding="UTF-8" standalone="no"?>
<!DOCTYPE svg PUBLIC "-//W3C//DTD SVG 1.1//EN"
 "http://www.w3.org/Graphics/SVG/1.1/DTD/svg11.dtd">
<!-- Generated by graphviz version 2.43.0 (0)
 -->
<!-- Title: /home/harlen/dev/abcg/abcg/abcgVulkanPipeline.hpp Pages: 1 -->
<svg width="333pt" height="173pt"
 viewBox="0.00 0.00 333.00 173.00" xmlns="http://www.w3.org/2000/svg" xmlns:xlink="http://www.w3.org/1999/xlink">
<g id="graph0" class="graph" transform="scale(1 1) rotate(0) translate(4 169)">
<title>/home/harlen/dev/abcg/abcg/abcgVulkanPipeline.hpp</title>
<!-- Node1 -->
<g id="node1" class="node">
<title>Node1</title>
<g id="a_node1"><a xlink:title="Header file of abcg::VulkanPipeline.">
<polygon fill="#bfbfbf" stroke="black" points="82,-134.5 82,-164.5 243,-164.5 243,-134.5 82,-134.5"/>
<text text-anchor="start" x="90" y="-152.5" font-family="Helvetica,sans-Serif" font-size="10.00">/home/harlen/dev/abcg</text>
<text text-anchor="middle" x="162.5" y="-141.5" font-family="Helvetica,sans-Serif" font-size="10.00">/abcg/abcgVulkanPipeline.hpp</text>
</a>
</g>
</g>
<!-- Node2 -->
<g id="node2" class="node">
<title>Node2</title>
<g id="a_node2"><a xlink:href="abcgVulkan_8hpp.html" target="_top" xlink:title="Header file for Vulkan&#45;related functions and classes.">
<polygon fill="none" stroke="black" points="17.5,-67.5 17.5,-97.5 145.5,-97.5 145.5,-67.5 17.5,-67.5"/>
<text text-anchor="start" x="25.5" y="-85.5" font-family="Helvetica,sans-Serif" font-size="10.00">/home/harlen/dev/abcg</text>
<text text-anchor="middle" x="81.5" y="-74.5" font-family="Helvetica,sans-Serif" font-size="10.00">/abcg/abcgVulkan.hpp</text>
</a>
</g>
</g>
<!-- Node1&#45;&gt;Node2 -->
<g id="edge1" class="edge">
<title>Node1&#45;&gt;Node2</title>
<path fill="none" stroke="midnightblue" d="M136.81,-127.88C124.5,-118.01 110.07,-106.43 99.04,-97.58"/>
<polygon fill="midnightblue" stroke="midnightblue" points="134.93,-130.87 144.92,-134.4 139.32,-125.41 134.93,-130.87"/>
</g>
<!-- Node4 -->
<g id="node4" class="node">
<title>Node4</title>
<g id="a_node4"><a xlink:href="abcgVulkanPipeline_8cpp.html" target="_top" xlink:title="Definition of abcg::VulkanPipeline.">
<polygon fill="none" stroke="black" points="164,-67.5 164,-97.5 325,-97.5 325,-67.5 164,-67.5"/>
<text text-anchor="start" x="172" y="-85.5" font-family="Helvetica,sans-Serif" font-size="10.00">/home/harlen/dev/abcg</text>
<text text-anchor="middle" x="244.5" y="-74.5" font-family="Helvetica,sans-Serif" font-size="10.00">/abcg/abcgVulkanPipeline.cpp</text>
</a>
</g>
</g>
<!-- Node1&#45;&gt;Node4 -->
<g id="edge3" class="edge">
<title>Node1&#45;&gt;Node4</title>
<path fill="none" stroke="midnightblue" d="M188.15,-128.17C200.69,-118.23 215.47,-106.51 226.74,-97.58"/>
<polygon fill="midnightblue" stroke="midnightblue" points="185.96,-125.44 180.29,-134.4 190.3,-130.93 185.96,-125.44"/>
</g>
<!-- Node3 -->
<g id="node3" class="node">
<title>Node3</title>
<g id="a_node3"><a xlink:href="abcgVulkanInstance_8cpp.html" target="_top" xlink:title="Definition of abcg::VulkanInstance.">
<polygon fill="none" stroke="black" points="0,-0.5 0,-30.5 163,-30.5 163,-0.5 0,-0.5"/>
<text text-anchor="start" x="8" y="-18.5" font-family="Helvetica,sans-Serif" font-size="10.00">/home/harlen/dev/abcg</text>
<text text-anchor="middle" x="81.5" y="-7.5" font-family="Helvetica,sans-Serif" font-size="10.00">/abcg/abcgVulkanInstance.cpp</text>
</a>
</g>
</g>
<!-- Node2&#45;&gt;Node3 -->
<g id="edge2" class="edge">
<title>Node2&#45;&gt;Node3</title>
<path fill="none" stroke="midnightblue" d="M81.5,-57.11C81.5,-48.15 81.5,-38.32 81.5,-30.58"/>
<polygon fill="midnightblue" stroke="midnightblue" points="78,-57.4 81.5,-67.4 85,-57.4 78,-57.4"/>
</g>
</g>
</svg>
