<?xml version="1.0" encoding="UTF-8" standalone="no"?>
<!DOCTYPE svg PUBLIC "-//W3C//DTD SVG 1.1//EN"
 "http://www.w3.org/Graphics/SVG/1.1/DTD/svg11.dtd">
<!-- Generated by graphviz version 2.43.0 (0)
 -->
<!-- Title: /home/harlen/dev/abcg/abcg/abcgExternal.hpp Pages: 1 -->
<svg width="1256pt" height="307pt"
 viewBox="0.00 0.00 1255.52 307.00" xmlns="http://www.w3.org/2000/svg" xmlns:xlink="http://www.w3.org/1999/xlink">
<g id="graph0" class="graph" transform="scale(1 1) rotate(0) translate(4 303)">
<title>/home/harlen/dev/abcg/abcg/abcgExternal.hpp</title>
<!-- Node1 -->
<g id="node1" class="node">
<title>Node1</title>
<g id="a_node1"><a xlink:title="Header file for including third&#45;party dependencies.">
<polygon fill="#bfbfbf" stroke="black" points="743.02,-268.5 743.02,-298.5 874.02,-298.5 874.02,-268.5 743.02,-268.5"/>
<text text-anchor="start" x="751.02" y="-286.5" font-family="Helvetica,sans-Serif" font-size="10.00">/home/harlen/dev/abcg</text>
<text text-anchor="middle" x="808.52" y="-275.5" font-family="Helvetica,sans-Serif" font-size="10.00">/abcg/abcgExternal.hpp</text>
</a>
</g>
</g>
<!-- Node2 -->
<g id="node2" class="node">
<title>Node2</title>
<g id="a_node2"><a xlink:href="abcg_8hpp.html" target="_top" xlink:title="Shortcut header that includes the most common ABCg headers.">
<polygon fill="none" stroke="black" points="792.52,-134.5 792.52,-164.5 920.52,-164.5 920.52,-134.5 792.52,-134.5"/>
<text text-anchor="start" x="800.52" y="-152.5" font-family="Helvetica,sans-Serif" font-size="10.00">/home/harlen/dev/abcg</text>
<text text-anchor="middle" x="856.52" y="-141.5" font-family="Helvetica,sans-Serif" font-size="10.00">/abcg/abcg.hpp</text>
</a>
</g>
</g>
<!-- Node1&#45;&gt;Node2 -->
<g id="edge1" class="edge">
<title>Node1&#45;&gt;Node2</title>
<path fill="none" stroke="midnightblue" d="M790.97,-259.76C780.28,-242.94 770.44,-219.8 780.52,-201 789.28,-184.66 805.91,-172.71 821.38,-164.55"/>
<polygon fill="midnightblue" stroke="midnightblue" points="788.34,-262.11 796.88,-268.38 794.12,-258.15 788.34,-262.11"/>
</g>
<!-- Node7 -->
<g id="node7" class="node">
<title>Node7</title>
<g id="a_node7"><a xlink:href="abcgException_8cpp.html" target="_top" xlink:title="Definition of abcg::Exception members.">
<polygon fill="none" stroke="black" points="942.02,-201.5 942.02,-231.5 1079.02,-231.5 1079.02,-201.5 942.02,-201.5"/>
<text text-anchor="start" x="950.02" y="-219.5" font-family="Helvetica,sans-Serif" font-size="10.00">/home/harlen/dev/abcg</text>
<text text-anchor="middle" x="1010.52" y="-208.5" font-family="Helvetica,sans-Serif" font-size="10.00">/abcg/abcgException.cpp</text>
</a>
</g>
</g>
<!-- Node1&#45;&gt;Node7 -->
<g id="edge6" class="edge">
<title>Node1&#45;&gt;Node7</title>
<path fill="none" stroke="midnightblue" d="M862.2,-265.23C894.88,-254.71 936.09,-241.45 966.78,-231.58"/>
<polygon fill="midnightblue" stroke="midnightblue" points="860.8,-262 852.35,-268.4 862.95,-268.66 860.8,-262"/>
</g>
<!-- Node8 -->
<g id="node8" class="node">
<title>Node8</title>
<g id="a_node8"><a xlink:href="abcgOpenGLError_8cpp.html" target="_top" xlink:title="Definition of abcg::OpenGLError members.">
<polygon fill="none" stroke="black" points="1097.52,-201.5 1097.52,-231.5 1247.52,-231.5 1247.52,-201.5 1097.52,-201.5"/>
<text text-anchor="start" x="1105.52" y="-219.5" font-family="Helvetica,sans-Serif" font-size="10.00">/home/harlen/dev/abcg</text>
<text text-anchor="middle" x="1172.52" y="-208.5" font-family="Helvetica,sans-Serif" font-size="10.00">/abcg/abcgOpenGLError.cpp</text>
</a>
</g>
</g>
<!-- Node1&#45;&gt;Node8 -->
<g id="edge7" class="edge">
<title>Node1&#45;&gt;Node8</title>
<path fill="none" stroke="midnightblue" d="M884.63,-268.91C947.11,-257.75 1035.13,-242.03 1097.36,-230.92"/>
<polygon fill="midnightblue" stroke="midnightblue" points="883.67,-265.53 874.44,-270.73 884.9,-272.42 883.67,-265.53"/>
</g>
<!-- Node9 -->
<g id="node9" class="node">
<title>Node9</title>
<g id="a_node9"><a xlink:href="abcgOpenGLWindow_8hpp.html" target="_top" xlink:title="Header file of abcg::OpenGLWindow.">
<polygon fill="none" stroke="black" points="608.52,-134.5 608.52,-164.5 774.52,-164.5 774.52,-134.5 608.52,-134.5"/>
<text text-anchor="start" x="616.52" y="-152.5" font-family="Helvetica,sans-Serif" font-size="10.00">/home/harlen/dev/abcg</text>
<text text-anchor="middle" x="691.52" y="-141.5" font-family="Helvetica,sans-Serif" font-size="10.00">/abcg/abcgOpenGLWindow.hpp</text>
</a>
</g>
</g>
<!-- Node1&#45;&gt;Node9 -->
<g id="edge8" class="edge">
<title>Node1&#45;&gt;Node9</title>
<path fill="none" stroke="midnightblue" d="M789.06,-260.54C764.87,-233.25 724.3,-187.48 703.95,-164.52"/>
<polygon fill="midnightblue" stroke="midnightblue" points="786.75,-263.21 796,-268.37 791.99,-258.57 786.75,-263.21"/>
</g>
<!-- Node11 -->
<g id="node11" class="node">
<title>Node11</title>
<g id="a_node11"><a xlink:href="abcgTrackball_8hpp.html" target="_top" xlink:title="Header file of abcg::TrackBall.">
<polygon fill="none" stroke="black" points="789.52,-201.5 789.52,-231.5 923.52,-231.5 923.52,-201.5 789.52,-201.5"/>
<text text-anchor="start" x="797.52" y="-219.5" font-family="Helvetica,sans-Serif" font-size="10.00">/home/harlen/dev/abcg</text>
<text text-anchor="middle" x="856.52" y="-208.5" font-family="Helvetica,sans-Serif" font-size="10.00">/abcg/abcgTrackball.hpp</text>
</a>
</g>
</g>
<!-- Node1&#45;&gt;Node11 -->
<g id="edge11" class="edge">
<title>Node1&#45;&gt;Node11</title>
<path fill="none" stroke="midnightblue" d="M825.02,-260.16C832.02,-250.68 839.97,-239.92 846.13,-231.58"/>
<polygon fill="midnightblue" stroke="midnightblue" points="822.06,-258.27 818.94,-268.4 827.69,-262.43 822.06,-258.27"/>
</g>
<!-- Node13 -->
<g id="node13" class="node">
<title>Node13</title>
<g id="a_node13"><a xlink:href="abcgWindow_8hpp.html" target="_top" xlink:title="Header file of abcg::Window.">
<polygon fill="none" stroke="black" points="407.52,-201.5 407.52,-231.5 535.52,-231.5 535.52,-201.5 407.52,-201.5"/>
<text text-anchor="start" x="415.52" y="-219.5" font-family="Helvetica,sans-Serif" font-size="10.00">/home/harlen/dev/abcg</text>
<text text-anchor="middle" x="471.52" y="-208.5" font-family="Helvetica,sans-Serif" font-size="10.00">/abcg/abcgWindow.hpp</text>
</a>
</g>
</g>
<!-- Node1&#45;&gt;Node13 -->
<g id="edge14" class="edge">
<title>Node1&#45;&gt;Node13</title>
<path fill="none" stroke="midnightblue" d="M732.68,-267.87C673.37,-256.43 591.81,-240.7 535.7,-229.88"/>
<polygon fill="midnightblue" stroke="midnightblue" points="732.26,-271.36 742.75,-269.81 733.59,-264.48 732.26,-271.36"/>
</g>
<!-- Node3 -->
<g id="node3" class="node">
<title>Node3</title>
<g id="a_node3"><a xlink:href="abcgOpenGL_8hpp.html" target="_top" xlink:title="Header file for OpenGL&#45;related functions and classes.">
<polygon fill="none" stroke="black" points="897.52,-67.5 897.52,-97.5 1025.52,-97.5 1025.52,-67.5 897.52,-67.5"/>
<text text-anchor="start" x="905.52" y="-85.5" font-family="Helvetica,sans-Serif" font-size="10.00">/home/harlen/dev/abcg</text>
<text text-anchor="middle" x="961.52" y="-74.5" font-family="Helvetica,sans-Serif" font-size="10.00">/abcg/abcgOpenGL.hpp</text>
</a>
</g>
</g>
<!-- Node2&#45;&gt;Node3 -->
<g id="edge2" class="edge">
<title>Node2&#45;&gt;Node3</title>
<path fill="none" stroke="midnightblue" d="M888,-129.02C904.34,-118.9 923.93,-106.77 938.78,-97.58"/>
<polygon fill="midnightblue" stroke="midnightblue" points="885.97,-126.16 879.31,-134.4 889.65,-132.11 885.97,-126.16"/>
</g>
<!-- Node4 -->
<g id="node4" class="node">
<title>Node4</title>
<g id="a_node4"><a xlink:href="abcgVulkan_8hpp.html" target="_top" xlink:title="Header file for Vulkan&#45;related functions and classes.">
<polygon fill="none" stroke="black" points="567.52,-67.5 567.52,-97.5 695.52,-97.5 695.52,-67.5 567.52,-67.5"/>
<text text-anchor="start" x="575.52" y="-85.5" font-family="Helvetica,sans-Serif" font-size="10.00">/home/harlen/dev/abcg</text>
<text text-anchor="middle" x="631.52" y="-74.5" font-family="Helvetica,sans-Serif" font-size="10.00">/abcg/abcgVulkan.hpp</text>
</a>
</g>
</g>
<!-- Node2&#45;&gt;Node4 -->
<g id="edge3" class="edge">
<title>Node2&#45;&gt;Node4</title>
<path fill="none" stroke="midnightblue" d="M797.95,-131.58C761.41,-121.02 714.92,-107.59 680.37,-97.61"/>
<polygon fill="midnightblue" stroke="midnightblue" points="797.4,-135.06 807.98,-134.48 799.34,-128.34 797.4,-135.06"/>
</g>
<!-- Node5 -->
<g id="node5" class="node">
<title>Node5</title>
<g id="a_node5"><a xlink:href="abcgVulkanInstance_8cpp.html" target="_top" xlink:title="Definition of abcg::VulkanInstance.">
<polygon fill="none" stroke="black" points="133.02,-0.5 133.02,-30.5 296.02,-30.5 296.02,-0.5 133.02,-0.5"/>
<text text-anchor="start" x="141.02" y="-18.5" font-family="Helvetica,sans-Serif" font-size="10.00">/home/harlen/dev/abcg</text>
<text text-anchor="middle" x="214.52" y="-7.5" font-family="Helvetica,sans-Serif" font-size="10.00">/abcg/abcgVulkanInstance.cpp</text>
</a>
</g>
</g>
<!-- Node4&#45;&gt;Node5 -->
<g id="edge4" class="edge">
<title>Node4&#45;&gt;Node5</title>
<path fill="none" stroke="midnightblue" d="M557.83,-67.05C557.73,-67.03 557.62,-67.02 557.52,-67 468.39,-51.71 365.73,-36.98 296.13,-27.41"/>
<polygon fill="midnightblue" stroke="midnightblue" points="556.93,-70.45 567.38,-68.74 558.14,-63.55 556.93,-70.45"/>
</g>
<!-- Node6 -->
<g id="node6" class="node">
<title>Node6</title>
<g id="a_node6"><a xlink:href="abcgVulkanPhysicalDevice_8cpp.html" target="_top" xlink:title="Definition of abcg::VulkanPhysicalDevice.">
<polygon fill="none" stroke="black" points="533.52,-0.5 533.52,-30.5 729.52,-30.5 729.52,-0.5 533.52,-0.5"/>
<text text-anchor="start" x="541.52" y="-18.5" font-family="Helvetica,sans-Serif" font-size="10.00">/home/harlen/dev/abcg</text>
<text text-anchor="middle" x="631.52" y="-7.5" font-family="Helvetica,sans-Serif" font-size="10.00">/abcg/abcgVulkanPhysicalDevice.cpp</text>
</a>
</g>
</g>
<!-- Node4&#45;&gt;Node6 -->
<g id="edge5" class="edge">
<title>Node4&#45;&gt;Node6</title>
<path fill="none" stroke="midnightblue" d="M631.52,-57.11C631.52,-48.15 631.52,-38.32 631.52,-30.58"/>
<polygon fill="midnightblue" stroke="midnightblue" points="628.02,-57.4 631.52,-67.4 635.02,-57.4 628.02,-57.4"/>
</g>
<!-- Node9&#45;&gt;Node3 -->
<g id="edge9" class="edge">
<title>Node9&#45;&gt;Node3</title>
<path fill="none" stroke="midnightblue" d="M759.57,-132.12C803.75,-121.48 860.74,-107.76 902.91,-97.61"/>
<polygon fill="midnightblue" stroke="midnightblue" points="758.68,-128.73 749.78,-134.48 760.32,-135.54 758.68,-128.73"/>
</g>
<!-- Node10 -->
<g id="node10" class="node">
<title>Node10</title>
<g id="a_node10"><a xlink:href="abcgOpenGLWindow_8cpp.html" target="_top" xlink:title="Definition of abcg::OpenGLWindow members.">
<polygon fill="none" stroke="black" points="714.02,-67.5 714.02,-97.5 879.02,-97.5 879.02,-67.5 714.02,-67.5"/>
<text text-anchor="start" x="722.02" y="-85.5" font-family="Helvetica,sans-Serif" font-size="10.00">/home/harlen/dev/abcg</text>
<text text-anchor="middle" x="796.52" y="-74.5" font-family="Helvetica,sans-Serif" font-size="10.00">/abcg/abcgOpenGLWindow.cpp</text>
</a>
</g>
</g>
<!-- Node9&#45;&gt;Node10 -->
<g id="edge10" class="edge">
<title>Node9&#45;&gt;Node10</title>
<path fill="none" stroke="midnightblue" d="M723,-129.02C739.34,-118.9 758.93,-106.77 773.78,-97.58"/>
<polygon fill="midnightblue" stroke="midnightblue" points="720.97,-126.16 714.31,-134.4 724.65,-132.11 720.97,-126.16"/>
</g>
<!-- Node11&#45;&gt;Node2 -->
<g id="edge12" class="edge">
<title>Node11&#45;&gt;Node2</title>
<path fill="none" stroke="midnightblue" d="M856.52,-191.11C856.52,-182.15 856.52,-172.32 856.52,-164.58"/>
<polygon fill="midnightblue" stroke="midnightblue" points="853.02,-191.4 856.52,-201.4 860.02,-191.4 853.02,-191.4"/>
</g>
<!-- Node12 -->
<g id="node12" class="node">
<title>Node12</title>
<g id="a_node12"><a xlink:href="abcgTrackball_8cpp.html" target="_top" xlink:title="Definition of abcg::TrackBall members.">
<polygon fill="none" stroke="black" points="939.02,-134.5 939.02,-164.5 1072.02,-164.5 1072.02,-134.5 939.02,-134.5"/>
<text text-anchor="start" x="947.02" y="-152.5" font-family="Helvetica,sans-Serif" font-size="10.00">/home/harlen/dev/abcg</text>
<text text-anchor="middle" x="1005.52" y="-141.5" font-family="Helvetica,sans-Serif" font-size="10.00">/abcg/abcgTrackball.cpp</text>
</a>
</g>
</g>
<!-- Node11&#45;&gt;Node12 -->
<g id="edge13" class="edge">
<title>Node11&#45;&gt;Node12</title>
<path fill="none" stroke="midnightblue" d="M898.32,-197.27C922.05,-186.92 951.3,-174.15 973.26,-164.58"/>
<polygon fill="midnightblue" stroke="midnightblue" points="896.62,-194.19 888.85,-201.4 899.42,-200.61 896.62,-194.19"/>
</g>
<!-- Node13&#45;&gt;Node2 -->
<g id="edge15" class="edge">
<title>Node13&#45;&gt;Node2</title>
<path fill="none" stroke="midnightblue" d="M545.47,-204.29C608.77,-194.51 702.28,-179.64 783.52,-165 786.45,-164.47 789.44,-163.92 792.45,-163.36"/>
<polygon fill="midnightblue" stroke="midnightblue" points="544.92,-200.83 535.57,-205.82 545.99,-207.75 544.92,-200.83"/>
</g>
<!-- Node13&#45;&gt;Node5 -->
<g id="edge19" class="edge">
<title>Node13&#45;&gt;Node5</title>
<path fill="none" stroke="midnightblue" d="M397.24,-216.36C287.45,-216.1 89.04,-209.28 35.52,-165 1.2,-136.61 -12.85,-102.14 14.52,-67 29.41,-47.89 84.39,-34.88 132.94,-26.85"/>
<polygon fill="midnightblue" stroke="midnightblue" points="397.26,-219.86 407.26,-216.37 397.26,-212.86 397.26,-219.86"/>
</g>
<!-- Node13&#45;&gt;Node9 -->
<g id="edge18" class="edge">
<title>Node13&#45;&gt;Node9</title>
<path fill="none" stroke="midnightblue" d="M528.79,-198.58C564.52,-188.02 609.98,-174.59 643.76,-164.61"/>
<polygon fill="midnightblue" stroke="midnightblue" points="527.59,-195.29 518.99,-201.48 529.57,-202 527.59,-195.29"/>
</g>
<!-- Node13&#45;&gt;Node10 -->
<g id="edge17" class="edge">
<title>Node13&#45;&gt;Node10</title>
<path fill="none" stroke="midnightblue" d="M508.3,-196.31C524.65,-187.36 543.91,-176.22 560.52,-165 578.87,-152.61 579.7,-143.86 599.52,-134 635.09,-116.32 677.44,-104.43 713.75,-96.65"/>
<polygon fill="midnightblue" stroke="midnightblue" points="506.18,-193.48 499.06,-201.31 509.52,-199.63 506.18,-193.48"/>
</g>
<!-- Node14 -->
<g id="node14" class="node">
<title>Node14</title>
<g id="a_node14"><a xlink:href="abcgApplication_8cpp.html" target="_top" xlink:title="Definition of abcg::Application members.">
<polygon fill="none" stroke="black" points="44.52,-134.5 44.52,-164.5 188.52,-164.5 188.52,-134.5 44.52,-134.5"/>
<text text-anchor="start" x="52.52" y="-152.5" font-family="Helvetica,sans-Serif" font-size="10.00">/home/harlen/dev/abcg</text>
<text text-anchor="middle" x="116.52" y="-141.5" font-family="Helvetica,sans-Serif" font-size="10.00">/abcg/abcgApplication.cpp</text>
</a>
</g>
</g>
<!-- Node13&#45;&gt;Node14 -->
<g id="edge16" class="edge">
<title>Node13&#45;&gt;Node14</title>
<path fill="none" stroke="midnightblue" d="M397.23,-201.9C335.88,-190.66 249.31,-174.81 188.58,-163.69"/>
<polygon fill="midnightblue" stroke="midnightblue" points="396.77,-205.37 407.24,-203.73 398.03,-198.49 396.77,-205.37"/>
</g>
<!-- Node15 -->
<g id="node15" class="node">
<title>Node15</title>
<g id="a_node15"><a xlink:href="abcgVulkanWindow_8cpp.html" target="_top" xlink:title="Definition of abcg::VulkanWindow members.">
<polygon fill="none" stroke="black" points="23.52,-67.5 23.52,-97.5 183.52,-97.5 183.52,-67.5 23.52,-67.5"/>
<text text-anchor="start" x="31.52" y="-85.5" font-family="Helvetica,sans-Serif" font-size="10.00">/home/harlen/dev/abcg</text>
<text text-anchor="middle" x="103.52" y="-74.5" font-family="Helvetica,sans-Serif" font-size="10.00">/abcg/abcgVulkanWindow.cpp</text>
</a>
</g>
</g>
<!-- Node13&#45;&gt;Node15 -->
<g id="edge20" class="edge">
<title>Node13&#45;&gt;Node15</title>
<path fill="none" stroke="midnightblue" d="M434.71,-196.71C418.07,-187.75 398.39,-176.49 381.52,-165 363.51,-152.73 363.19,-143.4 343.52,-134 328.64,-126.89 243.8,-109.87 179.17,-97.56"/>
<polygon fill="midnightblue" stroke="midnightblue" points="433.14,-199.84 443.61,-201.44 436.42,-193.66 433.14,-199.84"/>
</g>
<!-- Node16 -->
<g id="node16" class="node">
<title>Node16</title>
<g id="a_node16"><a xlink:href="abcgVulkanWindow_8hpp.html" target="_top" xlink:title="Header file of abcg::VulkanWindow.">
<polygon fill="none" stroke="black" points="391.02,-134.5 391.02,-164.5 552.02,-164.5 552.02,-134.5 391.02,-134.5"/>
<text text-anchor="start" x="399.02" y="-152.5" font-family="Helvetica,sans-Serif" font-size="10.00">/home/harlen/dev/abcg</text>
<text text-anchor="middle" x="471.52" y="-141.5" font-family="Helvetica,sans-Serif" font-size="10.00">/abcg/abcgVulkanWindow.hpp</text>
</a>
</g>
</g>
<!-- Node13&#45;&gt;Node16 -->
<g id="edge21" class="edge">
<title>Node13&#45;&gt;Node16</title>
<path fill="none" stroke="midnightblue" d="M471.52,-191.11C471.52,-182.15 471.52,-172.32 471.52,-164.58"/>
<polygon fill="midnightblue" stroke="midnightblue" points="468.02,-191.4 471.52,-201.4 475.02,-191.4 468.02,-191.4"/>
</g>
<!-- Node19 -->
<g id="node19" class="node">
<title>Node19</title>
<g id="a_node19"><a xlink:href="abcgWindow_8cpp.html" target="_top" xlink:title="Definition of abcg::Window members.">
<polygon fill="none" stroke="black" points="206.52,-134.5 206.52,-164.5 334.52,-164.5 334.52,-134.5 206.52,-134.5"/>
<text text-anchor="start" x="214.52" y="-152.5" font-family="Helvetica,sans-Serif" font-size="10.00">/home/harlen/dev/abcg</text>
<text text-anchor="middle" x="270.52" y="-141.5" font-family="Helvetica,sans-Serif" font-size="10.00">/abcg/abcgWindow.cpp</text>
</a>
</g>
</g>
<!-- Node13&#45;&gt;Node19 -->
<g id="edge26" class="edge">
<title>Node13&#45;&gt;Node19</title>
<path fill="none" stroke="midnightblue" d="M418.11,-198.23C385.6,-187.71 344.59,-174.45 314.05,-164.58"/>
<polygon fill="midnightblue" stroke="midnightblue" points="417.32,-201.65 427.91,-201.4 419.47,-194.99 417.32,-201.65"/>
</g>
<!-- Node16&#45;&gt;Node4 -->
<g id="edge22" class="edge">
<title>Node16&#45;&gt;Node4</title>
<path fill="none" stroke="midnightblue" d="M515.72,-130.54C541.33,-120.14 573.09,-107.24 596.87,-97.58"/>
<polygon fill="midnightblue" stroke="midnightblue" points="514.19,-127.39 506.24,-134.4 516.82,-133.87 514.19,-127.39"/>
</g>
<!-- Node16&#45;&gt;Node15 -->
<g id="edge25" class="edge">
<title>Node16&#45;&gt;Node15</title>
<path fill="none" stroke="midnightblue" d="M382.16,-132.72C321.38,-121.98 241.68,-107.9 183.1,-97.55"/>
<polygon fill="midnightblue" stroke="midnightblue" points="381.67,-136.18 392.13,-134.48 382.89,-129.29 381.67,-136.18"/>
</g>
<!-- Node17 -->
<g id="node17" class="node">
<title>Node17</title>
<g id="a_node17"><a xlink:href="abcgVulkanShader_8cpp.html" target="_top" xlink:title="Definition of helper functions for creating Vulkan shaders.">
<polygon fill="none" stroke="black" points="394.02,-67.5 394.02,-97.5 549.02,-97.5 549.02,-67.5 394.02,-67.5"/>
<text text-anchor="start" x="402.02" y="-85.5" font-family="Helvetica,sans-Serif" font-size="10.00">/home/harlen/dev/abcg</text>
<text text-anchor="middle" x="471.52" y="-74.5" font-family="Helvetica,sans-Serif" font-size="10.00">/abcg/abcgVulkanShader.cpp</text>
</a>
</g>
</g>
<!-- Node16&#45;&gt;Node17 -->
<g id="edge23" class="edge">
<title>Node16&#45;&gt;Node17</title>
<path fill="none" stroke="midnightblue" d="M471.52,-124.11C471.52,-115.15 471.52,-105.32 471.52,-97.58"/>
<polygon fill="midnightblue" stroke="midnightblue" points="468.02,-124.4 471.52,-134.4 475.02,-124.4 468.02,-124.4"/>
</g>
<!-- Node18 -->
<g id="node18" class="node">
<title>Node18</title>
<g id="a_node18"><a xlink:href="abcgVulkanSwapchain_8cpp.html" target="_top" xlink:title="Definition of abcg::VulkanSwapchain.">
<polygon fill="none" stroke="black" points="201.52,-67.5 201.52,-97.5 375.52,-97.5 375.52,-67.5 201.52,-67.5"/>
<text text-anchor="start" x="209.52" y="-85.5" font-family="Helvetica,sans-Serif" font-size="10.00">/home/harlen/dev/abcg</text>
<text text-anchor="middle" x="288.52" y="-74.5" font-family="Helvetica,sans-Serif" font-size="10.00">/abcg/abcgVulkanSwapchain.cpp</text>
</a>
</g>
</g>
<!-- Node16&#45;&gt;Node18 -->
<g id="edge24" class="edge">
<title>Node16&#45;&gt;Node18</title>
<path fill="none" stroke="midnightblue" d="M422.13,-130.96C392.65,-120.48 355.71,-107.37 328.15,-97.58"/>
<polygon fill="midnightblue" stroke="midnightblue" points="421.22,-134.35 431.82,-134.4 423.56,-127.75 421.22,-134.35"/>
</g>
</g>
</svg>
