<?xml version="1.0" encoding="UTF-8" standalone="no"?>
<!DOCTYPE svg PUBLIC "-//W3C//DTD SVG 1.1//EN"
 "http://www.w3.org/Graphics/SVG/1.1/DTD/svg11.dtd">
<!-- Generated by graphviz version 2.43.0 (0)
 -->
<!-- Title: /home/harlen/dev/abcg/abcg/abcgVulkanDevice.hpp Pages: 1 -->
<svg width="259pt" height="258pt"
 viewBox="0.00 0.00 258.50 258.00" xmlns="http://www.w3.org/2000/svg" xmlns:xlink="http://www.w3.org/1999/xlink">
<g id="graph0" class="graph" transform="scale(1 1) rotate(0) translate(4 254)">
<title>/home/harlen/dev/abcg/abcg/abcgVulkanDevice.hpp</title>
<!-- Node1 -->
<g id="Node000001" class="node">
<title>Node1</title>
<g id="a_Node000001"><a xlink:title="Header file of abcg::VulkanDevice.">
<polygon fill="#999999" stroke="#666666" points="229,-250 73,-250 73,-220 229,-220 229,-250"/>
<text text-anchor="start" x="81" y="-238" font-family="Helvetica,sans-Serif" font-size="10.00">/home/harlen/dev/abcg</text>
<text text-anchor="middle" x="151" y="-227" font-family="Helvetica,sans-Serif" font-size="10.00">/abcg/abcgVulkanDevice.hpp</text>
</a>
</g>
</g>
<!-- Node2 -->
<g id="Node000002" class="node">
<title>Node2</title>
<g id="a_Node000002"><a xlink:href="abcgVulkanPhysicalDevice_8hpp.html" target="_top" xlink:title="Header file of abcg::VulkanPhysicalDevice.">
<polygon fill="white" stroke="#666666" points="167.5,-184 0.5,-184 0.5,-165 167.5,-165 167.5,-184"/>
<text text-anchor="middle" x="84" y="-172" font-family="Helvetica,sans-Serif" font-size="10.00">abcgVulkanPhysicalDevice.hpp</text>
</a>
</g>
</g>
<!-- Node1&#45;&gt;Node2 -->
<g id="edge1_Node000001_Node000002" class="edge">
<title>Node1&#45;&gt;Node2</title>
<g id="a_edge1_Node000001_Node000002"><a xlink:title=" ">
<path fill="none" stroke="#63b8ff" d="M134.78,-219.84C124.76,-211.09 111.89,-199.85 101.62,-190.88"/>
<polygon fill="#63b8ff" stroke="#63b8ff" points="103.87,-188.21 94.04,-184.27 99.27,-193.48 103.87,-188.21"/>
</a>
</g>
</g>
<!-- Node8 -->
<g id="Node000008" class="node">
<title>Node8</title>
<g id="a_Node000008"><a xlink:title=" ">
<polygon fill="#e0e0e0" stroke="#999999" points="250.5,-184 185.5,-184 185.5,-165 250.5,-165 250.5,-184"/>
<text text-anchor="middle" x="218" y="-172" font-family="Helvetica,sans-Serif" font-size="10.00">functional</text>
</a>
</g>
</g>
<!-- Node1&#45;&gt;Node8 -->
<g id="edge8_Node000001_Node000008" class="edge">
<title>Node1&#45;&gt;Node8</title>
<g id="a_edge8_Node000001_Node000008"><a xlink:title=" ">
<path fill="none" stroke="#63b8ff" d="M167.22,-219.84C177.24,-211.09 190.11,-199.85 200.38,-190.88"/>
<polygon fill="#63b8ff" stroke="#63b8ff" points="202.73,-193.48 207.96,-184.27 198.13,-188.21 202.73,-193.48"/>
</a>
</g>
</g>
<!-- Node3 -->
<g id="Node000003" class="node">
<title>Node3</title>
<g id="a_Node000003"><a xlink:title=" ">
<polygon fill="#e0e0e0" stroke="#999999" points="56,-129 0,-129 0,-110 56,-110 56,-129"/>
<text text-anchor="middle" x="28" y="-117" font-family="Helvetica,sans-Serif" font-size="10.00">optional</text>
</a>
</g>
</g>
<!-- Node2&#45;&gt;Node3 -->
<g id="edge2_Node000002_Node000003" class="edge">
<title>Node2&#45;&gt;Node3</title>
<g id="a_edge2_Node000002_Node000003"><a xlink:title=" ">
<path fill="none" stroke="#63b8ff" d="M75,-164.98C66.81,-157.23 54.49,-145.58 44.53,-136.14"/>
<polygon fill="#63b8ff" stroke="#63b8ff" points="46.83,-133.5 37.16,-129.17 42.02,-138.59 46.83,-133.5"/>
</a>
</g>
</g>
<!-- Node4 -->
<g id="Node000004" class="node">
<title>Node4</title>
<g id="a_Node000004"><a xlink:href="abcgVulkanExternal_8hpp.html" target="_top" xlink:title="Header file for including Vulkan&#45;related dependencies.">
<polygon fill="white" stroke="#666666" points="198,-74 64,-74 64,-55 198,-55 198,-74"/>
<text text-anchor="middle" x="131" y="-62" font-family="Helvetica,sans-Serif" font-size="10.00">abcgVulkanExternal.hpp</text>
</a>
</g>
</g>
<!-- Node2&#45;&gt;Node4 -->
<g id="edge3_Node000002_Node000004" class="edge">
<title>Node2&#45;&gt;Node4</title>
<g id="a_edge3_Node000002_Node000004"><a xlink:title=" ">
<path fill="none" stroke="#63b8ff" d="M85.86,-164.6C88.65,-152.06 94.53,-128.65 103,-110 107.29,-100.56 113.28,-90.74 118.62,-82.73"/>
<polygon fill="#63b8ff" stroke="#63b8ff" points="121.64,-84.51 124.45,-74.3 115.89,-80.53 121.64,-84.51"/>
</a>
</g>
</g>
<!-- Node7 -->
<g id="Node000007" class="node">
<title>Node7</title>
<g id="a_Node000007"><a xlink:href="abcgVulkanInstance_8hpp.html" target="_top" xlink:title="Header file of abcg::VulkanInstance.">
<polygon fill="white" stroke="#666666" points="246,-129 112,-129 112,-110 246,-110 246,-129"/>
<text text-anchor="middle" x="179" y="-117" font-family="Helvetica,sans-Serif" font-size="10.00">abcgVulkanInstance.hpp</text>
</a>
</g>
</g>
<!-- Node2&#45;&gt;Node7 -->
<g id="edge6_Node000002_Node000007" class="edge">
<title>Node2&#45;&gt;Node7</title>
<g id="a_edge6_Node000002_Node000007"><a xlink:title=" ">
<path fill="none" stroke="#63b8ff" d="M99.26,-164.98C114.13,-156.69 136.98,-143.94 154.42,-134.22"/>
<polygon fill="#63b8ff" stroke="#63b8ff" points="156.43,-137.1 163.46,-129.17 153.02,-130.99 156.43,-137.1"/>
</a>
</g>
</g>
<!-- Node5 -->
<g id="Node000005" class="node">
<title>Node5</title>
<g id="a_Node000005"><a xlink:title=" ">
<polygon fill="#e0e0e0" stroke="#999999" points="107.5,-19 60.5,-19 60.5,0 107.5,0 107.5,-19"/>
<text text-anchor="middle" x="84" y="-7" font-family="Helvetica,sans-Serif" font-size="10.00">volk.h</text>
</a>
</g>
</g>
<!-- Node4&#45;&gt;Node5 -->
<g id="edge4_Node000004_Node000005" class="edge">
<title>Node4&#45;&gt;Node5</title>
<g id="a_edge4_Node000004_Node000005"><a xlink:title=" ">
<path fill="none" stroke="#63b8ff" d="M123.24,-54.75C116.53,-47.18 106.66,-36.05 98.49,-26.84"/>
<polygon fill="#63b8ff" stroke="#63b8ff" points="100.87,-24.25 91.62,-19.09 95.63,-28.89 100.87,-24.25"/>
</a>
</g>
</g>
<!-- Node6 -->
<g id="Node000006" class="node">
<title>Node6</title>
<g id="a_Node000006"><a xlink:title=" ">
<polygon fill="#e0e0e0" stroke="#999999" points="230.5,-19 125.5,-19 125.5,0 230.5,0 230.5,-19"/>
<text text-anchor="middle" x="178" y="-7" font-family="Helvetica,sans-Serif" font-size="10.00">vulkan/vulkan.hpp</text>
</a>
</g>
</g>
<!-- Node4&#45;&gt;Node6 -->
<g id="edge5_Node000004_Node000006" class="edge">
<title>Node4&#45;&gt;Node6</title>
<g id="a_edge5_Node000004_Node000006"><a xlink:title=" ">
<path fill="none" stroke="#63b8ff" d="M138.76,-54.75C145.47,-47.18 155.34,-36.05 163.51,-26.84"/>
<polygon fill="#63b8ff" stroke="#63b8ff" points="166.37,-28.89 170.38,-19.09 161.13,-24.25 166.37,-28.89"/>
</a>
</g>
</g>
<!-- Node7&#45;&gt;Node4 -->
<g id="edge7_Node000007_Node000004" class="edge">
<title>Node7&#45;&gt;Node4</title>
<g id="a_edge7_Node000007_Node000004"><a xlink:title=" ">
<path fill="none" stroke="#63b8ff" d="M171.07,-109.75C164.15,-102.11 153.93,-90.82 145.55,-81.56"/>
<polygon fill="#63b8ff" stroke="#63b8ff" points="148.09,-79.15 138.78,-74.09 142.9,-83.85 148.09,-79.15"/>
</a>
</g>
</g>
</g>
</svg>
