<?xml version="1.0" encoding="UTF-8" standalone="no"?>
<!DOCTYPE svg PUBLIC "-//W3C//DTD SVG 1.1//EN"
 "http://www.w3.org/Graphics/SVG/1.1/DTD/svg11.dtd">
<!-- Generated by graphviz version 2.43.0 (0)
 -->
<!-- Title: /home/harlen/dev/abcg2/abcg/abcg_vulkan_instance.cpp Pages: 1 -->
<svg width="652pt" height="207pt"
 viewBox="0.00 0.00 652.00 207.00" xmlns="http://www.w3.org/2000/svg" xmlns:xlink="http://www.w3.org/1999/xlink">
<g id="graph0" class="graph" transform="scale(1 1) rotate(0) translate(4 203)">
<title>/home/harlen/dev/abcg2/abcg/abcg_vulkan_instance.cpp</title>
<!-- Node1 -->
<g id="node1" class="node">
<title>Node1</title>
<g id="a_node1"><a xlink:title="Definition of abcg::VulkanInstance.">
<polygon fill="#bfbfbf" stroke="black" points="221.5,-168.5 221.5,-198.5 394.5,-198.5 394.5,-168.5 221.5,-168.5"/>
<text text-anchor="start" x="229.5" y="-186.5" font-family="Helvetica,sans-Serif" font-size="10.00">/home/harlen/dev/abcg2</text>
<text text-anchor="middle" x="308" y="-175.5" font-family="Helvetica,sans-Serif" font-size="10.00">/abcg/abcg_vulkan_instance.cpp</text>
</a>
</g>
</g>
<!-- Node2 -->
<g id="node2" class="node">
<title>Node2</title>
<g id="a_node2"><a xlink:href="abcg__vulkan__instance_8hpp.html" target="_top" xlink:title="Header file of abcg::VulkanInstance.">
<polygon fill="none" stroke="black" points="29.5,-112.5 29.5,-131.5 174.5,-131.5 174.5,-112.5 29.5,-112.5"/>
<text text-anchor="middle" x="102" y="-119.5" font-family="Helvetica,sans-Serif" font-size="10.00">abcg_vulkan_instance.hpp</text>
</a>
</g>
</g>
<!-- Node1&#45;&gt;Node2 -->
<g id="edge1" class="edge">
<title>Node1&#45;&gt;Node2</title>
<path fill="none" stroke="midnightblue" d="M259.44,-168.47C223.44,-158.08 174.98,-144.08 141.37,-134.37"/>
<polygon fill="midnightblue" stroke="midnightblue" points="142.03,-130.92 131.45,-131.51 140.09,-137.64 142.03,-130.92"/>
</g>
<!-- Node6 -->
<g id="node6" class="node">
<title>Node6</title>
<g id="a_node6"><a xlink:title=" ">
<polygon fill="none" stroke="#bfbfbf" points="193,-112.5 193,-131.5 233,-131.5 233,-112.5 193,-112.5"/>
<text text-anchor="middle" x="213" y="-119.5" font-family="Helvetica,sans-Serif" font-size="10.00">span</text>
</a>
</g>
</g>
<!-- Node1&#45;&gt;Node6 -->
<g id="edge6" class="edge">
<title>Node1&#45;&gt;Node6</title>
<path fill="none" stroke="midnightblue" d="M285.49,-168.4C270.4,-158.95 250.61,-146.56 235.53,-137.11"/>
<polygon fill="midnightblue" stroke="midnightblue" points="237.16,-134 226.82,-131.66 233.44,-139.93 237.16,-134"/>
</g>
<!-- Node7 -->
<g id="node7" class="node">
<title>Node7</title>
<g id="a_node7"><a xlink:href="abcg__application_8hpp.html" target="_top" xlink:title="Header file of abcg::Application.">
<polygon fill="none" stroke="black" points="383,-112.5 383,-131.5 503,-131.5 503,-112.5 383,-112.5"/>
<text text-anchor="middle" x="443" y="-119.5" font-family="Helvetica,sans-Serif" font-size="10.00">abcg_application.hpp</text>
</a>
</g>
</g>
<!-- Node1&#45;&gt;Node7 -->
<g id="edge7" class="edge">
<title>Node1&#45;&gt;Node7</title>
<path fill="none" stroke="midnightblue" d="M339.99,-168.4C362.44,-158.51 392.21,-145.38 413.98,-135.79"/>
<polygon fill="midnightblue" stroke="midnightblue" points="415.62,-138.89 423.36,-131.66 412.79,-132.49 415.62,-138.89"/>
</g>
<!-- Node9 -->
<g id="node9" class="node">
<title>Node9</title>
<g id="a_node9"><a xlink:href="abcg__exception_8hpp.html" target="_top" xlink:title="Header file of abcg::Exception and derived classes.">
<polygon fill="none" stroke="black" points="251,-112.5 251,-131.5 365,-131.5 365,-112.5 251,-112.5"/>
<text text-anchor="middle" x="308" y="-119.5" font-family="Helvetica,sans-Serif" font-size="10.00">abcg_exception.hpp</text>
</a>
</g>
</g>
<!-- Node1&#45;&gt;Node9 -->
<g id="edge9" class="edge">
<title>Node1&#45;&gt;Node9</title>
<path fill="none" stroke="midnightblue" d="M308,-168.4C308,-160.47 308,-150.46 308,-141.86"/>
<polygon fill="midnightblue" stroke="midnightblue" points="311.5,-141.66 308,-131.66 304.5,-141.66 311.5,-141.66"/>
</g>
<!-- Node12 -->
<g id="node12" class="node">
<title>Node12</title>
<g id="a_node12"><a xlink:href="abcg__window_8hpp.html" target="_top" xlink:title="Header file of abcg::Window.">
<polygon fill="none" stroke="black" points="521.5,-112.5 521.5,-131.5 624.5,-131.5 624.5,-112.5 521.5,-112.5"/>
<text text-anchor="middle" x="573" y="-119.5" font-family="Helvetica,sans-Serif" font-size="10.00">abcg_window.hpp</text>
</a>
</g>
</g>
<!-- Node1&#45;&gt;Node12 -->
<g id="edge13" class="edge">
<title>Node1&#45;&gt;Node12</title>
<path fill="none" stroke="midnightblue" d="M370.47,-168.47C417.78,-157.85 481.82,-143.47 525.12,-133.75"/>
<polygon fill="midnightblue" stroke="midnightblue" points="526.12,-137.11 535.11,-131.51 524.59,-130.28 526.12,-137.11"/>
</g>
<!-- Node3 -->
<g id="node3" class="node">
<title>Node3</title>
<g id="a_node3"><a xlink:href="abcg__external_8hpp.html" target="_top" xlink:title="Header file for including third&#45;party dependencies.">
<polygon fill="none" stroke="black" points="162.5,-0.5 162.5,-19.5 269.5,-19.5 269.5,-0.5 162.5,-0.5"/>
<text text-anchor="middle" x="216" y="-7.5" font-family="Helvetica,sans-Serif" font-size="10.00">abcg_external.hpp</text>
</a>
</g>
</g>
<!-- Node2&#45;&gt;Node3 -->
<g id="edge2" class="edge">
<title>Node2&#45;&gt;Node3</title>
<path fill="none" stroke="midnightblue" d="M114.57,-112.36C126.73,-103.76 145.4,-89.87 160,-76 175.95,-60.85 192.13,-41.55 202.97,-27.93"/>
<polygon fill="midnightblue" stroke="midnightblue" points="205.85,-29.93 209.26,-19.9 200.34,-25.61 205.85,-29.93"/>
</g>
<!-- Node4 -->
<g id="node4" class="node">
<title>Node4</title>
<g id="a_node4"><a xlink:href="abcg__vulkan_8hpp.html" target="_top" xlink:title="Header file for Vulkan&#45;related functions and classes.">
<polygon fill="none" stroke="black" points="53,-56.5 53,-75.5 151,-75.5 151,-56.5 53,-56.5"/>
<text text-anchor="middle" x="102" y="-63.5" font-family="Helvetica,sans-Serif" font-size="10.00">abcg_vulkan.hpp</text>
</a>
</g>
</g>
<!-- Node2&#45;&gt;Node4 -->
<g id="edge3" class="edge">
<title>Node2&#45;&gt;Node4</title>
<path fill="none" stroke="midnightblue" d="M102,-112.08C102,-105.01 102,-94.86 102,-85.99"/>
<polygon fill="midnightblue" stroke="midnightblue" points="105.5,-85.75 102,-75.75 98.5,-85.75 105.5,-85.75"/>
</g>
<!-- Node4&#45;&gt;Node3 -->
<g id="edge4" class="edge">
<title>Node4&#45;&gt;Node3</title>
<path fill="none" stroke="midnightblue" d="M120.06,-56.44C138.57,-47.68 167.58,-33.94 188.86,-23.86"/>
<polygon fill="midnightblue" stroke="midnightblue" points="190.48,-26.96 198.02,-19.52 187.49,-20.63 190.48,-26.96"/>
</g>
<!-- Node5 -->
<g id="node5" class="node">
<title>Node5</title>
<g id="a_node5"><a xlink:href="abcg__vulkan__external_8hpp.html" target="_top" xlink:title="Header file for including Vulkan&#45;related dependencies.">
<polygon fill="none" stroke="black" points="0,-0.5 0,-19.5 144,-19.5 144,-0.5 0,-0.5"/>
<text text-anchor="middle" x="72" y="-7.5" font-family="Helvetica,sans-Serif" font-size="10.00">abcg_vulkan_external.hpp</text>
</a>
</g>
</g>
<!-- Node4&#45;&gt;Node5 -->
<g id="edge5" class="edge">
<title>Node4&#45;&gt;Node5</title>
<path fill="none" stroke="midnightblue" d="M97.05,-56.08C92.9,-48.61 86.85,-37.72 81.73,-28.52"/>
<polygon fill="midnightblue" stroke="midnightblue" points="84.78,-26.79 76.86,-19.75 78.66,-30.19 84.78,-26.79"/>
</g>
<!-- Node8 -->
<g id="node8" class="node">
<title>Node8</title>
<g id="a_node8"><a xlink:title=" ">
<polygon fill="none" stroke="#bfbfbf" points="414,-56.5 414,-75.5 458,-75.5 458,-56.5 414,-56.5"/>
<text text-anchor="middle" x="436" y="-63.5" font-family="Helvetica,sans-Serif" font-size="10.00">string</text>
</a>
</g>
</g>
<!-- Node7&#45;&gt;Node8 -->
<g id="edge8" class="edge">
<title>Node7&#45;&gt;Node8</title>
<path fill="none" stroke="midnightblue" d="M441.84,-112.08C440.92,-104.93 439.58,-94.64 438.42,-85.69"/>
<polygon fill="midnightblue" stroke="midnightblue" points="441.89,-85.22 437.13,-75.75 434.95,-86.12 441.89,-85.22"/>
</g>
<!-- Node9&#45;&gt;Node8 -->
<g id="edge12" class="edge">
<title>Node9&#45;&gt;Node8</title>
<path fill="none" stroke="midnightblue" d="M328.28,-112.44C349.35,-103.56 382.52,-89.56 406.49,-79.45"/>
<polygon fill="midnightblue" stroke="midnightblue" points="407.96,-82.63 415.81,-75.52 405.24,-76.18 407.96,-82.63"/>
</g>
<!-- Node10 -->
<g id="node10" class="node">
<title>Node10</title>
<g id="a_node10"><a xlink:title=" ">
<polygon fill="none" stroke="#bfbfbf" points="218.5,-56.5 218.5,-75.5 311.5,-75.5 311.5,-56.5 218.5,-56.5"/>
<text text-anchor="middle" x="265" y="-63.5" font-family="Helvetica,sans-Serif" font-size="10.00">source_location</text>
</a>
</g>
</g>
<!-- Node9&#45;&gt;Node10 -->
<g id="edge10" class="edge">
<title>Node9&#45;&gt;Node10</title>
<path fill="none" stroke="midnightblue" d="M300.9,-112.08C294.76,-104.38 285.73,-93.03 278.26,-83.65"/>
<polygon fill="midnightblue" stroke="midnightblue" points="280.94,-81.39 271.97,-75.75 275.46,-85.75 280.94,-81.39"/>
</g>
<!-- Node11 -->
<g id="node11" class="node">
<title>Node11</title>
<g id="a_node11"><a xlink:title=" ">
<polygon fill="none" stroke="#bfbfbf" points="329.5,-56.5 329.5,-75.5 394.5,-75.5 394.5,-56.5 329.5,-56.5"/>
<text text-anchor="middle" x="362" y="-63.5" font-family="Helvetica,sans-Serif" font-size="10.00">stdexcept</text>
</a>
</g>
</g>
<!-- Node9&#45;&gt;Node11 -->
<g id="edge11" class="edge">
<title>Node9&#45;&gt;Node11</title>
<path fill="none" stroke="midnightblue" d="M316.92,-112.08C324.78,-104.22 336.43,-92.57 345.92,-83.08"/>
<polygon fill="midnightblue" stroke="midnightblue" points="348.65,-85.3 353.25,-75.75 343.7,-80.35 348.65,-85.3"/>
</g>
<!-- Node12&#45;&gt;Node3 -->
<g id="edge17" class="edge">
<title>Node12&#45;&gt;Node3</title>
<path fill="none" stroke="midnightblue" d="M560.44,-112.47C536.83,-96.59 486.47,-63.41 467,-56 405.91,-32.74 331.79,-21.34 279.99,-15.86"/>
<polygon fill="midnightblue" stroke="midnightblue" points="280.24,-12.37 269.94,-14.84 279.54,-19.33 280.24,-12.37"/>
</g>
<!-- Node12&#45;&gt;Node8 -->
<g id="edge14" class="edge">
<title>Node12&#45;&gt;Node8</title>
<path fill="none" stroke="midnightblue" d="M551.29,-112.44C528.65,-103.52 492.93,-89.44 467.25,-79.32"/>
<polygon fill="midnightblue" stroke="midnightblue" points="468.19,-75.93 457.61,-75.52 465.63,-82.44 468.19,-75.93"/>
</g>
<!-- Node13 -->
<g id="node13" class="node">
<title>Node13</title>
<g id="a_node13"><a xlink:href="abcg__elapsedtimer_8hpp.html" target="_top" xlink:title="Header file of abcg::ElapsedTimer.">
<polygon fill="none" stroke="black" points="514,-56.5 514,-75.5 644,-75.5 644,-56.5 514,-56.5"/>
<text text-anchor="middle" x="579" y="-63.5" font-family="Helvetica,sans-Serif" font-size="10.00">abcg_elapsedtimer.hpp</text>
</a>
</g>
</g>
<!-- Node12&#45;&gt;Node13 -->
<g id="edge15" class="edge">
<title>Node12&#45;&gt;Node13</title>
<path fill="none" stroke="midnightblue" d="M573.99,-112.08C574.79,-104.93 575.93,-94.64 576.92,-85.69"/>
<polygon fill="midnightblue" stroke="midnightblue" points="580.4,-86.08 578.03,-75.75 573.44,-85.3 580.4,-86.08"/>
</g>
<!-- Node14 -->
<g id="node14" class="node">
<title>Node14</title>
<g id="a_node14"><a xlink:title=" ">
<polygon fill="none" stroke="#bfbfbf" points="554,-0.5 554,-19.5 604,-19.5 604,-0.5 554,-0.5"/>
<text text-anchor="middle" x="579" y="-7.5" font-family="Helvetica,sans-Serif" font-size="10.00">chrono</text>
</a>
</g>
</g>
<!-- Node13&#45;&gt;Node14 -->
<g id="edge16" class="edge">
<title>Node13&#45;&gt;Node14</title>
<path fill="none" stroke="midnightblue" d="M579,-56.08C579,-49.01 579,-38.86 579,-29.99"/>
<polygon fill="midnightblue" stroke="midnightblue" points="582.5,-29.75 579,-19.75 575.5,-29.75 582.5,-29.75"/>
</g>
</g>
</svg>
