<?xml version="1.0" encoding="UTF-8" standalone="no"?>
<!DOCTYPE svg PUBLIC "-//W3C//DTD SVG 1.1//EN"
 "http://www.w3.org/Graphics/SVG/1.1/DTD/svg11.dtd">
<!-- Generated by graphviz version 2.43.0 (0)
 -->
<!-- Title: /home/harlen/dev/abcg2/abcg/abcg_image.hpp Pages: 1 -->
<svg width="156pt" height="95pt"
 viewBox="0.00 0.00 156.00 95.00" xmlns="http://www.w3.org/2000/svg" xmlns:xlink="http://www.w3.org/1999/xlink">
<g id="graph0" class="graph" transform="scale(1 1) rotate(0) translate(4 91)">
<title>/home/harlen/dev/abcg2/abcg/abcg_image.hpp</title>
<!-- Node1 -->
<g id="node1" class="node">
<title>Node1</title>
<g id="a_node1"><a xlink:title="Declaration of texture loading helper functions.">
<polygon fill="#bfbfbf" stroke="black" points="0,-56.5 0,-86.5 134,-86.5 134,-56.5 0,-56.5"/>
<text text-anchor="start" x="8" y="-74.5" font-family="Helvetica,sans-Serif" font-size="10.00">/home/harlen/dev/abcg2</text>
<text text-anchor="middle" x="67" y="-63.5" font-family="Helvetica,sans-Serif" font-size="10.00">/abcg/abcg_image.hpp</text>
</a>
</g>
</g>
<!-- Node2 -->
<g id="node2" class="node">
<title>Node2</title>
<g id="a_node2"><a xlink:title=" ">
<polygon fill="none" stroke="#bfbfbf" points="2,-0.5 2,-19.5 50,-19.5 50,-0.5 2,-0.5"/>
<text text-anchor="middle" x="26" y="-7.5" font-family="Helvetica,sans-Serif" font-size="10.00">gsl/gsl</text>
</a>
</g>
</g>
<!-- Node1&#45;&gt;Node2 -->
<g id="edge1" class="edge">
<title>Node1&#45;&gt;Node2</title>
<path fill="none" stroke="midnightblue" d="M57.28,-56.4C51.45,-47.93 43.98,-37.1 37.81,-28.14"/>
<polygon fill="midnightblue" stroke="midnightblue" points="40.52,-25.91 31.97,-19.66 34.76,-29.88 40.52,-25.91"/>
</g>
<!-- Node3 -->
<g id="node3" class="node">
<title>Node3</title>
<g id="a_node3"><a xlink:title=" ">
<polygon fill="none" stroke="#bfbfbf" points="68,-0.5 68,-19.5 148,-19.5 148,-0.5 68,-0.5"/>
<text text-anchor="middle" x="108" y="-7.5" font-family="Helvetica,sans-Serif" font-size="10.00">SDL_image.h</text>
</a>
</g>
</g>
<!-- Node1&#45;&gt;Node3 -->
<g id="edge2" class="edge">
<title>Node1&#45;&gt;Node3</title>
<path fill="none" stroke="midnightblue" d="M76.72,-56.4C82.55,-47.93 90.02,-37.1 96.19,-28.14"/>
<polygon fill="midnightblue" stroke="midnightblue" points="99.24,-29.88 102.03,-19.66 93.48,-25.91 99.24,-29.88"/>
</g>
</g>
</svg>
