<?xml version="1.0" encoding="UTF-8" standalone="no"?>
<!DOCTYPE svg PUBLIC "-//W3C//DTD SVG 1.1//EN"
 "http://www.w3.org/Graphics/SVG/1.1/DTD/svg11.dtd">
<!-- Generated by graphviz version 2.43.0 (0)
 -->
<!-- Title: /home/harlen/dev/abcg2/abcg/abcg_vulkan_swapchain.cpp Pages: 1 -->
<svg width="1205pt" height="274pt"
 viewBox="0.00 0.00 1204.50 274.00" xmlns="http://www.w3.org/2000/svg" xmlns:xlink="http://www.w3.org/1999/xlink">
<g id="graph0" class="graph" transform="scale(1 1) rotate(0) translate(4 270)">
<title>/home/harlen/dev/abcg2/abcg/abcg_vulkan_swapchain.cpp</title>
<!-- Node1 -->
<g id="node1" class="node">
<title>Node1</title>
<g id="a_node1"><a xlink:title="Definition of abcg::VulkanSwapchain.">
<polygon fill="#bfbfbf" stroke="black" points="610.5,-235.5 610.5,-265.5 794.5,-265.5 794.5,-235.5 610.5,-235.5"/>
<text text-anchor="start" x="618.5" y="-253.5" font-family="Helvetica,sans-Serif" font-size="10.00">/home/harlen/dev/abcg2</text>
<text text-anchor="middle" x="702.5" y="-242.5" font-family="Helvetica,sans-Serif" font-size="10.00">/abcg/abcg_vulkan_swapchain.cpp</text>
</a>
</g>
</g>
<!-- Node2 -->
<g id="node2" class="node">
<title>Node2</title>
<g id="a_node2"><a xlink:href="abcg__vulkan__swapchain_8hpp.html" target="_top" xlink:title="Header file of abcg::VulkanSwapchain.">
<polygon fill="none" stroke="black" points="0,-118 0,-137 155,-137 155,-118 0,-118"/>
<text text-anchor="middle" x="77.5" y="-125" font-family="Helvetica,sans-Serif" font-size="10.00">abcg_vulkan_swapchain.hpp</text>
</a>
</g>
</g>
<!-- Node1&#45;&gt;Node2 -->
<g id="edge1" class="edge">
<title>Node1&#45;&gt;Node2</title>
<path fill="none" stroke="midnightblue" d="M610.27,-238.65C540.31,-229.79 441.94,-215.98 356.5,-199 270.19,-181.84 170.56,-154.92 116.81,-139.79"/>
<polygon fill="midnightblue" stroke="midnightblue" points="117.58,-136.37 107,-137.02 115.67,-143.11 117.58,-136.37"/>
</g>
<!-- Node6 -->
<g id="node6" class="node">
<title>Node6</title>
<g id="a_node6"><a xlink:title=" ">
<polygon fill="none" stroke="#bfbfbf" points="1005,-179.5 1005,-198.5 1060,-198.5 1060,-179.5 1005,-179.5"/>
<text text-anchor="middle" x="1032.5" y="-186.5" font-family="Helvetica,sans-Serif" font-size="10.00">fstream</text>
</a>
</g>
</g>
<!-- Node1&#45;&gt;Node6 -->
<g id="edge6" class="edge">
<title>Node1&#45;&gt;Node6</title>
<path fill="none" stroke="midnightblue" d="M793.21,-235.5C848.75,-226.54 921.46,-214.13 994.79,-199.03"/>
<polygon fill="midnightblue" stroke="midnightblue" points="995.58,-202.44 1004.67,-196.99 994.16,-195.59 995.58,-202.44"/>
</g>
<!-- Node7 -->
<g id="node7" class="node">
<title>Node7</title>
<g id="a_node7"><a xlink:title=" ">
<polygon fill="none" stroke="#bfbfbf" points="1078.5,-179.5 1078.5,-198.5 1196.5,-198.5 1196.5,-179.5 1078.5,-179.5"/>
<text text-anchor="middle" x="1137.5" y="-186.5" font-family="Helvetica,sans-Serif" font-size="10.00">imgui_impl_vulkan.h</text>
</a>
</g>
</g>
<!-- Node1&#45;&gt;Node7 -->
<g id="edge7" class="edge">
<title>Node1&#45;&gt;Node7</title>
<path fill="none" stroke="midnightblue" d="M794.75,-236.88C876.57,-225.69 994.26,-209.59 1068.26,-199.47"/>
<polygon fill="midnightblue" stroke="midnightblue" points="1068.97,-202.91 1078.4,-198.08 1068.02,-195.97 1068.97,-202.91"/>
</g>
<!-- Node8 -->
<g id="node8" class="node">
<title>Node8</title>
<g id="a_node8"><a xlink:href="abcg__application_8hpp.html" target="_top" xlink:title="Header file of abcg::Application.">
<polygon fill="none" stroke="black" points="718.5,-179.5 718.5,-198.5 838.5,-198.5 838.5,-179.5 718.5,-179.5"/>
<text text-anchor="middle" x="778.5" y="-186.5" font-family="Helvetica,sans-Serif" font-size="10.00">abcg_application.hpp</text>
</a>
</g>
</g>
<!-- Node1&#45;&gt;Node8 -->
<g id="edge8" class="edge">
<title>Node1&#45;&gt;Node8</title>
<path fill="none" stroke="midnightblue" d="M720.51,-235.4C732.24,-226.22 747.52,-214.26 759.44,-204.92"/>
<polygon fill="midnightblue" stroke="midnightblue" points="761.72,-207.58 767.44,-198.66 757.41,-202.07 761.72,-207.58"/>
</g>
<!-- Node10 -->
<g id="node10" class="node">
<title>Node10</title>
<g id="a_node10"><a xlink:href="abcg__exception_8hpp.html" target="_top" xlink:title="Header file of abcg::Exception and derived classes.">
<polygon fill="none" stroke="black" points="872.5,-179.5 872.5,-198.5 986.5,-198.5 986.5,-179.5 872.5,-179.5"/>
<text text-anchor="middle" x="929.5" y="-186.5" font-family="Helvetica,sans-Serif" font-size="10.00">abcg_exception.hpp</text>
</a>
</g>
</g>
<!-- Node1&#45;&gt;Node10 -->
<g id="edge10" class="edge">
<title>Node1&#45;&gt;Node10</title>
<path fill="none" stroke="midnightblue" d="M756.01,-235.47C796.03,-224.99 850.01,-210.84 887.07,-201.12"/>
<polygon fill="midnightblue" stroke="midnightblue" points="888.26,-204.43 897.05,-198.51 886.49,-197.66 888.26,-204.43"/>
</g>
<!-- Node13 -->
<g id="node13" class="node">
<title>Node13</title>
<g id="a_node13"><a xlink:href="abcg__vulkan__device_8hpp.html" target="_top" xlink:title="Header file of abcg::VulkanDevice.">
<polygon fill="none" stroke="black" points="173.5,-118 173.5,-137 309.5,-137 309.5,-118 173.5,-118"/>
<text text-anchor="middle" x="241.5" y="-125" font-family="Helvetica,sans-Serif" font-size="10.00">abcg_vulkan_device.hpp</text>
</a>
</g>
</g>
<!-- Node1&#45;&gt;Node13 -->
<g id="edge14" class="edge">
<title>Node1&#45;&gt;Node13</title>
<path fill="none" stroke="midnightblue" d="M610.31,-237.82C554.47,-229.58 482.15,-216.8 419.5,-199 364.79,-183.45 303.69,-157.19 269.19,-141.49"/>
<polygon fill="midnightblue" stroke="midnightblue" points="270.33,-138.16 259.78,-137.16 267.41,-144.52 270.33,-138.16"/>
</g>
<!-- Node14 -->
<g id="node14" class="node">
<title>Node14</title>
<g id="a_node14"><a xlink:href="abcg__vulkan__physical__device_8hpp.html" target="_top" xlink:title="Header file of abcg::VulkanPhysicalDevice.">
<polygon fill="none" stroke="black" points="589,-112.5 589,-142.5 712,-142.5 712,-112.5 589,-112.5"/>
<text text-anchor="start" x="597" y="-130.5" font-family="Helvetica,sans-Serif" font-size="10.00">abcg_vulkan_physical</text>
<text text-anchor="middle" x="650.5" y="-119.5" font-family="Helvetica,sans-Serif" font-size="10.00">_device.hpp</text>
</a>
</g>
</g>
<!-- Node1&#45;&gt;Node14 -->
<g id="edge17" class="edge">
<title>Node1&#45;&gt;Node14</title>
<path fill="none" stroke="midnightblue" d="M696.33,-235.14C687.53,-214.68 671.28,-176.86 660.69,-152.2"/>
<polygon fill="midnightblue" stroke="midnightblue" points="663.83,-150.64 656.66,-142.84 657.39,-153.41 663.83,-150.64"/>
</g>
<!-- Node16 -->
<g id="node16" class="node">
<title>Node16</title>
<g id="a_node16"><a xlink:href="abcg__vulkan__window_8hpp.html" target="_top" xlink:title="Header file of abcg::VulkanWindow.">
<polygon fill="none" stroke="black" points="428.5,-179.5 428.5,-198.5 568.5,-198.5 568.5,-179.5 428.5,-179.5"/>
<text text-anchor="middle" x="498.5" y="-186.5" font-family="Helvetica,sans-Serif" font-size="10.00">abcg_vulkan_window.hpp</text>
</a>
</g>
</g>
<!-- Node1&#45;&gt;Node16 -->
<g id="edge21" class="edge">
<title>Node1&#45;&gt;Node16</title>
<path fill="none" stroke="midnightblue" d="M654.41,-235.47C618.76,-225.08 570.77,-211.08 537.49,-201.37"/>
<polygon fill="midnightblue" stroke="midnightblue" points="538.24,-197.95 527.66,-198.51 536.28,-204.67 538.24,-197.95"/>
</g>
<!-- Node3 -->
<g id="node3" class="node">
<title>Node3</title>
<g id="a_node3"><a xlink:href="abcg__external_8hpp.html" target="_top" xlink:title="Header file for including third&#45;party dependencies.">
<polygon fill="none" stroke="black" points="406,-0.5 406,-19.5 513,-19.5 513,-0.5 406,-0.5"/>
<text text-anchor="middle" x="459.5" y="-7.5" font-family="Helvetica,sans-Serif" font-size="10.00">abcg_external.hpp</text>
</a>
</g>
</g>
<!-- Node2&#45;&gt;Node3 -->
<g id="edge2" class="edge">
<title>Node2&#45;&gt;Node3</title>
<path fill="none" stroke="midnightblue" d="M96.71,-117.9C129.4,-103.53 198.18,-74.39 258.5,-56 306.12,-41.49 361.38,-29.45 401.89,-21.49"/>
<polygon fill="midnightblue" stroke="midnightblue" points="402.71,-24.9 411.86,-19.56 401.38,-18.03 402.71,-24.9"/>
</g>
<!-- Node4 -->
<g id="node4" class="node">
<title>Node4</title>
<g id="a_node4"><a xlink:href="abcg__vulkan_8hpp.html" target="_top" xlink:title="Header file for Vulkan&#45;related functions and classes.">
<polygon fill="none" stroke="black" points="288.5,-56.5 288.5,-75.5 386.5,-75.5 386.5,-56.5 288.5,-56.5"/>
<text text-anchor="middle" x="337.5" y="-63.5" font-family="Helvetica,sans-Serif" font-size="10.00">abcg_vulkan.hpp</text>
</a>
</g>
</g>
<!-- Node2&#45;&gt;Node4 -->
<g id="edge3" class="edge">
<title>Node2&#45;&gt;Node4</title>
<path fill="none" stroke="midnightblue" d="M114.75,-117.98C160.99,-107.39 239.9,-89.34 290.32,-77.8"/>
<polygon fill="midnightblue" stroke="midnightblue" points="291.35,-81.15 300.32,-75.51 289.79,-74.33 291.35,-81.15"/>
</g>
<!-- Node4&#45;&gt;Node3 -->
<g id="edge4" class="edge">
<title>Node4&#45;&gt;Node3</title>
<path fill="none" stroke="midnightblue" d="M356.83,-56.44C376.82,-47.6 408.24,-33.69 431.06,-23.59"/>
<polygon fill="midnightblue" stroke="midnightblue" points="432.53,-26.76 440.26,-19.52 429.7,-20.36 432.53,-26.76"/>
</g>
<!-- Node5 -->
<g id="node5" class="node">
<title>Node5</title>
<g id="a_node5"><a xlink:href="abcg__vulkan__external_8hpp.html" target="_top" xlink:title="Header file for including Vulkan&#45;related dependencies.">
<polygon fill="none" stroke="black" points="243.5,-0.5 243.5,-19.5 387.5,-19.5 387.5,-0.5 243.5,-0.5"/>
<text text-anchor="middle" x="315.5" y="-7.5" font-family="Helvetica,sans-Serif" font-size="10.00">abcg_vulkan_external.hpp</text>
</a>
</g>
</g>
<!-- Node4&#45;&gt;Node5 -->
<g id="edge5" class="edge">
<title>Node4&#45;&gt;Node5</title>
<path fill="none" stroke="midnightblue" d="M333.87,-56.08C330.89,-48.77 326.57,-38.18 322.88,-29.1"/>
<polygon fill="midnightblue" stroke="midnightblue" points="326.08,-27.69 319.07,-19.75 319.6,-30.33 326.08,-27.69"/>
</g>
<!-- Node9 -->
<g id="node9" class="node">
<title>Node9</title>
<g id="a_node9"><a xlink:title=" ">
<polygon fill="none" stroke="#bfbfbf" points="877.5,-56.5 877.5,-75.5 921.5,-75.5 921.5,-56.5 877.5,-56.5"/>
<text text-anchor="middle" x="899.5" y="-63.5" font-family="Helvetica,sans-Serif" font-size="10.00">string</text>
</a>
</g>
</g>
<!-- Node8&#45;&gt;Node9 -->
<g id="edge9" class="edge">
<title>Node8&#45;&gt;Node9</title>
<path fill="none" stroke="midnightblue" d="M813.81,-179.35C834.42,-172.62 859.44,-161.26 875.5,-143 889.6,-126.96 895.42,-102.63 897.82,-85.84"/>
<polygon fill="midnightblue" stroke="midnightblue" points="901.33,-85.95 899,-75.61 894.38,-85.15 901.33,-85.95"/>
</g>
<!-- Node10&#45;&gt;Node9 -->
<g id="edge13" class="edge">
<title>Node10&#45;&gt;Node9</title>
<path fill="none" stroke="midnightblue" d="M927.9,-179.04C925.28,-164.77 919.75,-136.01 913.5,-112 911.18,-103.08 908.19,-93.3 905.57,-85.14"/>
<polygon fill="midnightblue" stroke="midnightblue" points="908.87,-83.97 902.43,-75.56 902.22,-86.15 908.87,-83.97"/>
</g>
<!-- Node11 -->
<g id="node11" class="node">
<title>Node11</title>
<g id="a_node11"><a xlink:title=" ">
<polygon fill="none" stroke="#bfbfbf" points="966,-118 966,-137 1059,-137 1059,-118 966,-118"/>
<text text-anchor="middle" x="1012.5" y="-125" font-family="Helvetica,sans-Serif" font-size="10.00">source_location</text>
</a>
</g>
</g>
<!-- Node10&#45;&gt;Node11 -->
<g id="edge11" class="edge">
<title>Node10&#45;&gt;Node11</title>
<path fill="none" stroke="midnightblue" d="M941.39,-179.48C954.7,-169.93 976.5,-154.31 992.46,-142.87"/>
<polygon fill="midnightblue" stroke="midnightblue" points="994.54,-145.68 1000.63,-137.01 990.46,-139.99 994.54,-145.68"/>
</g>
<!-- Node12 -->
<g id="node12" class="node">
<title>Node12</title>
<g id="a_node12"><a xlink:title=" ">
<polygon fill="none" stroke="#bfbfbf" points="1077,-118 1077,-137 1142,-137 1142,-118 1077,-118"/>
<text text-anchor="middle" x="1109.5" y="-125" font-family="Helvetica,sans-Serif" font-size="10.00">stdexcept</text>
</a>
</g>
</g>
<!-- Node10&#45;&gt;Node12 -->
<g id="edge12" class="edge">
<title>Node10&#45;&gt;Node12</title>
<path fill="none" stroke="midnightblue" d="M956.74,-179.42C984.81,-170.52 1029.82,-156.1 1068.5,-143 1070.94,-142.17 1073.46,-141.31 1075.99,-140.43"/>
<polygon fill="midnightblue" stroke="midnightblue" points="1077.4,-143.65 1085.69,-137.04 1075.09,-137.04 1077.4,-143.65"/>
</g>
<!-- Node13&#45;&gt;Node3 -->
<g id="edge15" class="edge">
<title>Node13&#45;&gt;Node3</title>
<path fill="none" stroke="midnightblue" d="M243.75,-117.62C248.04,-102.54 258.86,-72.04 279.5,-56 297.67,-41.88 351.62,-29.5 395.76,-21.32"/>
<polygon fill="midnightblue" stroke="midnightblue" points="396.66,-24.72 405.87,-19.49 395.41,-17.83 396.66,-24.72"/>
</g>
<!-- Node13&#45;&gt;Node4 -->
<g id="edge16" class="edge">
<title>Node13&#45;&gt;Node4</title>
<path fill="none" stroke="midnightblue" d="M255.25,-117.98C270.87,-108.3 296.56,-92.37 315.08,-80.89"/>
<polygon fill="midnightblue" stroke="midnightblue" points="317.12,-83.75 323.77,-75.51 313.43,-77.8 317.12,-83.75"/>
</g>
<!-- Node14&#45;&gt;Node3 -->
<g id="edge18" class="edge">
<title>Node14&#45;&gt;Node3</title>
<path fill="none" stroke="midnightblue" d="M595.38,-112.44C569.95,-104.33 540.21,-92.42 516.5,-76 497.88,-63.1 481.4,-42.82 471.01,-28.34"/>
<polygon fill="midnightblue" stroke="midnightblue" points="473.67,-26.03 465.1,-19.8 467.91,-30.02 473.67,-26.03"/>
</g>
<!-- Node14&#45;&gt;Node4 -->
<g id="edge19" class="edge">
<title>Node14&#45;&gt;Node4</title>
<path fill="none" stroke="midnightblue" d="M588.68,-113.62C585.92,-113.07 583.18,-112.53 580.5,-112 517.41,-99.63 444.93,-86.32 395.66,-77.41"/>
<polygon fill="midnightblue" stroke="midnightblue" points="395.97,-73.91 385.51,-75.58 394.73,-80.8 395.97,-73.91"/>
</g>
<!-- Node15 -->
<g id="node15" class="node">
<title>Node15</title>
<g id="a_node15"><a xlink:title=" ">
<polygon fill="none" stroke="#bfbfbf" points="525,-56.5 525,-75.5 674,-75.5 674,-56.5 525,-56.5"/>
<text text-anchor="middle" x="599.5" y="-63.5" font-family="Helvetica,sans-Serif" font-size="10.00">vulkan/vulkan_handles.hpp</text>
</a>
</g>
</g>
<!-- Node14&#45;&gt;Node15 -->
<g id="edge20" class="edge">
<title>Node14&#45;&gt;Node15</title>
<path fill="none" stroke="midnightblue" d="M638.41,-112.4C630.93,-103.66 621.28,-92.41 613.47,-83.3"/>
<polygon fill="midnightblue" stroke="midnightblue" points="616.09,-80.97 606.92,-75.66 610.77,-85.53 616.09,-80.97"/>
</g>
<!-- Node16&#45;&gt;Node2 -->
<g id="edge30" class="edge">
<title>Node16&#45;&gt;Node2</title>
<path fill="none" stroke="midnightblue" d="M430.6,-179.48C363.06,-170.86 256.49,-156.86 164.5,-143 155.6,-141.66 146.21,-140.17 137.01,-138.67"/>
<polygon fill="midnightblue" stroke="midnightblue" points="137.58,-135.22 127.15,-137.05 136.44,-142.13 137.58,-135.22"/>
</g>
<!-- Node16&#45;&gt;Node4 -->
<g id="edge24" class="edge">
<title>Node16&#45;&gt;Node4</title>
<path fill="none" stroke="midnightblue" d="M428.35,-180.24C402.59,-174.02 375.19,-162.88 356.5,-143 342.12,-127.7 338.17,-103.22 337.31,-86.19"/>
<polygon fill="midnightblue" stroke="midnightblue" points="340.8,-85.73 337.11,-75.8 333.8,-85.86 340.8,-85.73"/>
</g>
<!-- Node16&#45;&gt;Node9 -->
<g id="edge23" class="edge">
<title>Node16&#45;&gt;Node9</title>
<path fill="none" stroke="midnightblue" d="M568.6,-185.2C655.41,-180.66 797.38,-169.36 842.5,-143 865.46,-129.59 882.11,-102.92 891.29,-85.01"/>
<polygon fill="midnightblue" stroke="midnightblue" points="894.51,-86.41 895.72,-75.88 888.21,-83.35 894.51,-86.41"/>
</g>
<!-- Node16&#45;&gt;Node13 -->
<g id="edge25" class="edge">
<title>Node16&#45;&gt;Node13</title>
<path fill="none" stroke="midnightblue" d="M461.68,-179.48C415.97,-168.89 337.97,-150.84 288.13,-139.3"/>
<polygon fill="midnightblue" stroke="midnightblue" points="288.79,-135.85 278.25,-137.01 287.21,-142.67 288.79,-135.85"/>
</g>
<!-- Node16&#45;&gt;Node14 -->
<g id="edge29" class="edge">
<title>Node16&#45;&gt;Node14</title>
<path fill="none" stroke="midnightblue" d="M520.28,-179.48C542.31,-170.85 577.02,-157.26 605.07,-146.29"/>
<polygon fill="midnightblue" stroke="midnightblue" points="606.64,-149.43 614.68,-142.52 604.09,-142.91 606.64,-149.43"/>
</g>
<!-- Node17 -->
<g id="node17" class="node">
<title>Node17</title>
<g id="a_node17"><a xlink:title=" ">
<polygon fill="none" stroke="#bfbfbf" points="365.5,-118 365.5,-137 407.5,-137 407.5,-118 365.5,-118"/>
<text text-anchor="middle" x="386.5" y="-125" font-family="Helvetica,sans-Serif" font-size="10.00">array</text>
</a>
</g>
</g>
<!-- Node16&#45;&gt;Node17 -->
<g id="edge22" class="edge">
<title>Node16&#45;&gt;Node17</title>
<path fill="none" stroke="midnightblue" d="M482.45,-179.48C463.91,-169.62 433.16,-153.29 411.48,-141.77"/>
<polygon fill="midnightblue" stroke="midnightblue" points="412.99,-138.61 402.52,-137.01 409.71,-144.79 412.99,-138.61"/>
</g>
<!-- Node18 -->
<g id="node18" class="node">
<title>Node18</title>
<g id="a_node18"><a xlink:href="abcg__vulkan__instance_8hpp.html" target="_top" xlink:title="Header file of abcg::VulkanInstance.">
<polygon fill="none" stroke="black" points="426,-118 426,-137 571,-137 571,-118 426,-118"/>
<text text-anchor="middle" x="498.5" y="-125" font-family="Helvetica,sans-Serif" font-size="10.00">abcg_vulkan_instance.hpp</text>
</a>
</g>
</g>
<!-- Node16&#45;&gt;Node18 -->
<g id="edge26" class="edge">
<title>Node16&#45;&gt;Node18</title>
<path fill="none" stroke="midnightblue" d="M498.5,-179.48C498.5,-171.08 498.5,-157.98 498.5,-147.16"/>
<polygon fill="midnightblue" stroke="midnightblue" points="502,-147.01 498.5,-137.01 495,-147.01 502,-147.01"/>
</g>
<!-- Node19 -->
<g id="node19" class="node">
<title>Node19</title>
<g id="a_node19"><a xlink:href="abcg__window_8hpp.html" target="_top" xlink:title="Header file of abcg::Window.">
<polygon fill="none" stroke="black" points="730,-118 730,-137 833,-137 833,-118 730,-118"/>
<text text-anchor="middle" x="781.5" y="-125" font-family="Helvetica,sans-Serif" font-size="10.00">abcg_window.hpp</text>
</a>
</g>
</g>
<!-- Node16&#45;&gt;Node19 -->
<g id="edge31" class="edge">
<title>Node16&#45;&gt;Node19</title>
<path fill="none" stroke="midnightblue" d="M543.45,-179.45C588.57,-170.75 660,-156.63 721.5,-143 726.6,-141.87 731.93,-140.64 737.23,-139.4"/>
<polygon fill="midnightblue" stroke="midnightblue" points="738.37,-142.73 747.28,-137.01 736.75,-135.92 738.37,-142.73"/>
</g>
<!-- Node18&#45;&gt;Node3 -->
<g id="edge27" class="edge">
<title>Node18&#45;&gt;Node3</title>
<path fill="none" stroke="midnightblue" d="M495.57,-117.82C489.24,-99.09 474.2,-54.55 465.68,-29.29"/>
<polygon fill="midnightblue" stroke="midnightblue" points="468.98,-28.14 462.47,-19.78 462.35,-30.38 468.98,-28.14"/>
</g>
<!-- Node18&#45;&gt;Node4 -->
<g id="edge28" class="edge">
<title>Node18&#45;&gt;Node4</title>
<path fill="none" stroke="midnightblue" d="M475.43,-117.98C447.82,-107.77 401.38,-90.61 370.1,-79.05"/>
<polygon fill="midnightblue" stroke="midnightblue" points="371.12,-75.69 360.52,-75.51 368.69,-82.26 371.12,-75.69"/>
</g>
<!-- Node19&#45;&gt;Node3 -->
<g id="edge35" class="edge">
<title>Node19&#45;&gt;Node3</title>
<path fill="none" stroke="midnightblue" d="M772.34,-117.79C755.92,-102.71 719.81,-71.82 683.5,-56 632.11,-33.61 569.2,-22.23 523.15,-16.52"/>
<polygon fill="midnightblue" stroke="midnightblue" points="523.34,-13.02 513,-15.32 522.52,-19.97 523.34,-13.02"/>
</g>
<!-- Node19&#45;&gt;Node9 -->
<g id="edge32" class="edge">
<title>Node19&#45;&gt;Node9</title>
<path fill="none" stroke="midnightblue" d="M798.41,-117.98C818.03,-108.08 850.63,-91.64 873.49,-80.12"/>
<polygon fill="midnightblue" stroke="midnightblue" points="875.27,-83.14 882.62,-75.51 872.12,-76.89 875.27,-83.14"/>
</g>
<!-- Node20 -->
<g id="node20" class="node">
<title>Node20</title>
<g id="a_node20"><a xlink:href="abcg__elapsedtimer_8hpp.html" target="_top" xlink:title="Header file of abcg::ElapsedTimer.">
<polygon fill="none" stroke="black" points="729.5,-56.5 729.5,-75.5 859.5,-75.5 859.5,-56.5 729.5,-56.5"/>
<text text-anchor="middle" x="794.5" y="-63.5" font-family="Helvetica,sans-Serif" font-size="10.00">abcg_elapsedtimer.hpp</text>
</a>
</g>
</g>
<!-- Node19&#45;&gt;Node20 -->
<g id="edge33" class="edge">
<title>Node19&#45;&gt;Node20</title>
<path fill="none" stroke="midnightblue" d="M783.36,-117.98C785.22,-109.49 788.12,-96.2 790.5,-85.32"/>
<polygon fill="midnightblue" stroke="midnightblue" points="793.93,-86.03 792.64,-75.51 787.09,-84.53 793.93,-86.03"/>
</g>
<!-- Node21 -->
<g id="node21" class="node">
<title>Node21</title>
<g id="a_node21"><a xlink:title=" ">
<polygon fill="none" stroke="#bfbfbf" points="769.5,-0.5 769.5,-19.5 819.5,-19.5 819.5,-0.5 769.5,-0.5"/>
<text text-anchor="middle" x="794.5" y="-7.5" font-family="Helvetica,sans-Serif" font-size="10.00">chrono</text>
</a>
</g>
</g>
<!-- Node20&#45;&gt;Node21 -->
<g id="edge34" class="edge">
<title>Node20&#45;&gt;Node21</title>
<path fill="none" stroke="midnightblue" d="M794.5,-56.08C794.5,-49.01 794.5,-38.86 794.5,-29.99"/>
<polygon fill="midnightblue" stroke="midnightblue" points="798,-29.75 794.5,-19.75 791,-29.75 798,-29.75"/>
</g>
</g>
</svg>
