<?xml version="1.0" encoding="UTF-8" standalone="no"?>
<!DOCTYPE svg PUBLIC "-//W3C//DTD SVG 1.1//EN"
 "http://www.w3.org/Graphics/SVG/1.1/DTD/svg11.dtd">
<!-- Generated by graphviz version 2.43.0 (0)
 -->
<!-- Title: /home/harlen/dev/abcg/abcg/abcgVulkanShader.hpp Pages: 1 -->
<svg width="452pt" height="236pt"
 viewBox="0.00 0.00 452.00 236.00" xmlns="http://www.w3.org/2000/svg" xmlns:xlink="http://www.w3.org/1999/xlink">
<g id="graph0" class="graph" transform="scale(1 1) rotate(0) translate(4 232)">
<title>/home/harlen/dev/abcg/abcg/abcgVulkanShader.hpp</title>
<!-- Node1 -->
<g id="Node000001" class="node">
<title>Node1</title>
<g id="a_Node000001"><a xlink:title="Declaration of helper functions for creating Vulkan shaders.">
<polygon fill="#999999" stroke="#666666" points="268,-228 113,-228 113,-198 268,-198 268,-228"/>
<text text-anchor="start" x="121" y="-216" font-family="Helvetica,sans-Serif" font-size="10.00">/home/harlen/dev/abcg</text>
<text text-anchor="middle" x="190.5" y="-205" font-family="Helvetica,sans-Serif" font-size="10.00">/abcg/abcgVulkanShader.hpp</text>
</a>
</g>
</g>
<!-- Node2 -->
<g id="Node000002" class="node">
<title>Node2</title>
<g id="a_Node000002"><a xlink:href="abcgVulkan_8hpp.html" target="_top" xlink:title="Header file for Vulkan&#45;related functions and classes.">
<polygon fill="white" stroke="#666666" points="145.5,-96 17.5,-96 17.5,-66 145.5,-66 145.5,-96"/>
<text text-anchor="start" x="25.5" y="-84" font-family="Helvetica,sans-Serif" font-size="10.00">/home/harlen/dev/abcg</text>
<text text-anchor="middle" x="81.5" y="-73" font-family="Helvetica,sans-Serif" font-size="10.00">/abcg/abcgVulkan.hpp</text>
</a>
</g>
</g>
<!-- Node1&#45;&gt;Node2 -->
<g id="edge1_Node000001_Node000002" class="edge">
<title>Node1&#45;&gt;Node2</title>
<g id="a_edge1_Node000001_Node000002"><a xlink:title=" ">
<path fill="none" stroke="#63b8ff" d="M141.4,-193.48C126.68,-185.77 111.74,-175.42 101.5,-162 86.65,-142.54 82.71,-113.38 81.74,-96.17"/>
<polygon fill="#63b8ff" stroke="#63b8ff" points="139.98,-196.68 150.5,-197.95 143.06,-190.4 139.98,-196.68"/>
</a>
</g>
</g>
<!-- Node4 -->
<g id="Node000004" class="node">
<title>Node4</title>
<g id="a_Node000004"><a xlink:href="abcgVulkanPipeline_8hpp.html" target="_top" xlink:title="Header file of abcg::VulkanPipeline.">
<polygon fill="white" stroke="#666666" points="271,-162 110,-162 110,-132 271,-132 271,-162"/>
<text text-anchor="start" x="118" y="-150" font-family="Helvetica,sans-Serif" font-size="10.00">/home/harlen/dev/abcg</text>
<text text-anchor="middle" x="190.5" y="-139" font-family="Helvetica,sans-Serif" font-size="10.00">/abcg/abcgVulkanPipeline.hpp</text>
</a>
</g>
</g>
<!-- Node1&#45;&gt;Node4 -->
<g id="edge3_Node000001_Node000004" class="edge">
<title>Node1&#45;&gt;Node4</title>
<g id="a_edge3_Node000001_Node000004"><a xlink:title=" ">
<path fill="none" stroke="#63b8ff" d="M190.5,-187.54C190.5,-178.96 190.5,-169.61 190.5,-162.16"/>
<polygon fill="#63b8ff" stroke="#63b8ff" points="187,-187.8 190.5,-197.8 194,-187.8 187,-187.8"/>
</a>
</g>
</g>
<!-- Node6 -->
<g id="Node000006" class="node">
<title>Node6</title>
<g id="a_Node000006"><a xlink:href="abcgVulkanShader_8cpp.html" target="_top" xlink:title="Definition of helper functions for creating Vulkan shaders.">
<polygon fill="white" stroke="#666666" points="444,-162 289,-162 289,-132 444,-132 444,-162"/>
<text text-anchor="start" x="297" y="-150" font-family="Helvetica,sans-Serif" font-size="10.00">/home/harlen/dev/abcg</text>
<text text-anchor="middle" x="366.5" y="-139" font-family="Helvetica,sans-Serif" font-size="10.00">/abcg/abcgVulkanShader.cpp</text>
</a>
</g>
</g>
<!-- Node1&#45;&gt;Node6 -->
<g id="edge6_Node000001_Node000006" class="edge">
<title>Node1&#45;&gt;Node6</title>
<g id="a_edge6_Node000001_Node000006"><a xlink:title=" ">
<path fill="none" stroke="#63b8ff" d="M238.74,-194.46C266.82,-184.25 301.74,-171.55 327.97,-162.01"/>
<polygon fill="#63b8ff" stroke="#63b8ff" points="237.33,-191.25 229.12,-197.95 239.72,-197.83 237.33,-191.25"/>
</a>
</g>
</g>
<!-- Node3 -->
<g id="Node000003" class="node">
<title>Node3</title>
<g id="a_Node000003"><a xlink:href="abcgVulkanInstance_8cpp.html" target="_top" xlink:title="Definition of abcg::VulkanInstance.">
<polygon fill="white" stroke="#666666" points="163,-30 0,-30 0,0 163,0 163,-30"/>
<text text-anchor="start" x="8" y="-18" font-family="Helvetica,sans-Serif" font-size="10.00">/home/harlen/dev/abcg</text>
<text text-anchor="middle" x="81.5" y="-7" font-family="Helvetica,sans-Serif" font-size="10.00">/abcg/abcgVulkanInstance.cpp</text>
</a>
</g>
</g>
<!-- Node2&#45;&gt;Node3 -->
<g id="edge2_Node000002_Node000003" class="edge">
<title>Node2&#45;&gt;Node3</title>
<g id="a_edge2_Node000002_Node000003"><a xlink:title=" ">
<path fill="none" stroke="#63b8ff" d="M81.5,-55.54C81.5,-46.96 81.5,-37.61 81.5,-30.16"/>
<polygon fill="#63b8ff" stroke="#63b8ff" points="78,-55.8 81.5,-65.8 85,-55.8 78,-55.8"/>
</a>
</g>
</g>
<!-- Node4&#45;&gt;Node2 -->
<g id="edge4_Node000004_Node000002" class="edge">
<title>Node4&#45;&gt;Node2</title>
<g id="a_edge4_Node000004_Node000002"><a xlink:title=" ">
<path fill="none" stroke="#63b8ff" d="M157.62,-126.69C140.79,-116.82 120.69,-105.01 105.36,-96.01"/>
<polygon fill="#63b8ff" stroke="#63b8ff" points="156.18,-129.91 166.58,-131.95 159.73,-123.87 156.18,-129.91"/>
</a>
</g>
</g>
<!-- Node5 -->
<g id="Node000005" class="node">
<title>Node5</title>
<g id="a_Node000005"><a xlink:href="abcgVulkanPipeline_8cpp.html" target="_top" xlink:title="Definition of abcg::VulkanPipeline.">
<polygon fill="white" stroke="#666666" points="325,-96 164,-96 164,-66 325,-66 325,-96"/>
<text text-anchor="start" x="172" y="-84" font-family="Helvetica,sans-Serif" font-size="10.00">/home/harlen/dev/abcg</text>
<text text-anchor="middle" x="244.5" y="-73" font-family="Helvetica,sans-Serif" font-size="10.00">/abcg/abcgVulkanPipeline.cpp</text>
</a>
</g>
</g>
<!-- Node4&#45;&gt;Node5 -->
<g id="edge5_Node000004_Node000005" class="edge">
<title>Node4&#45;&gt;Node5</title>
<g id="a_edge5_Node000004_Node000005"><a xlink:title=" ">
<path fill="none" stroke="#63b8ff" d="M208.99,-124.09C216.78,-114.85 225.63,-104.36 232.55,-96.16"/>
<polygon fill="#63b8ff" stroke="#63b8ff" points="206.26,-121.9 202.48,-131.8 211.61,-126.41 206.26,-121.9"/>
</a>
</g>
</g>
</g>
</svg>
