<?xml version="1.0" encoding="UTF-8" standalone="no"?>
<!DOCTYPE svg PUBLIC "-//W3C//DTD SVG 1.1//EN"
 "http://www.w3.org/Graphics/SVG/1.1/DTD/svg11.dtd">
<!-- Generated by graphviz version 2.43.0 (0)
 -->
<!-- Title: /home/harlen/dev/abcg/abcg/abcgVulkanPipeline.hpp Pages: 1 -->
<svg width="474pt" height="431pt"
 viewBox="0.00 0.00 473.50 431.00" xmlns="http://www.w3.org/2000/svg" xmlns:xlink="http://www.w3.org/1999/xlink">
<g id="graph0" class="graph" transform="scale(1 1) rotate(0) translate(4 427)">
<title>/home/harlen/dev/abcg/abcg/abcgVulkanPipeline.hpp</title>
<!-- Node1 -->
<g id="node1" class="node">
<title>Node1</title>
<g id="a_node1"><a xlink:title="Header file of abcg::VulkanPipeline.">
<polygon fill="#bfbfbf" stroke="black" points="98.5,-392.5 98.5,-422.5 259.5,-422.5 259.5,-392.5 98.5,-392.5"/>
<text text-anchor="start" x="106.5" y="-410.5" font-family="Helvetica,sans-Serif" font-size="10.00">/home/harlen/dev/abcg</text>
<text text-anchor="middle" x="179" y="-399.5" font-family="Helvetica,sans-Serif" font-size="10.00">/abcg/abcgVulkanPipeline.hpp</text>
</a>
</g>
</g>
<!-- Node2 -->
<g id="node2" class="node">
<title>Node2</title>
<g id="a_node2"><a xlink:href="abcgVulkanShader_8hpp.html" target="_top" xlink:title="Declaration of helper functions for creating Vulkan shaders.">
<polygon fill="none" stroke="black" points="26,-280.5 26,-299.5 152,-299.5 152,-280.5 26,-280.5"/>
<text text-anchor="middle" x="89" y="-287.5" font-family="Helvetica,sans-Serif" font-size="10.00">abcgVulkanShader.hpp</text>
</a>
</g>
</g>
<!-- Node1&#45;&gt;Node2 -->
<g id="edge1" class="edge">
<title>Node1&#45;&gt;Node2</title>
<path fill="none" stroke="midnightblue" d="M167.96,-392.34C151.31,-370.96 119.8,-330.53 102.04,-307.73"/>
<polygon fill="midnightblue" stroke="midnightblue" points="104.66,-305.41 95.76,-299.67 99.14,-309.71 104.66,-305.41"/>
</g>
<!-- Node13 -->
<g id="node13" class="node">
<title>Node13</title>
<g id="a_node13"><a xlink:href="abcgVulkanSwapchain_8hpp.html" target="_top" xlink:title="Header file of abcg::VulkanSwapchain.">
<polygon fill="none" stroke="black" points="197,-336.5 197,-355.5 343,-355.5 343,-336.5 197,-336.5"/>
<text text-anchor="middle" x="270" y="-343.5" font-family="Helvetica,sans-Serif" font-size="10.00">abcgVulkanSwapchain.hpp</text>
</a>
</g>
</g>
<!-- Node1&#45;&gt;Node13 -->
<g id="edge14" class="edge">
<title>Node1&#45;&gt;Node13</title>
<path fill="none" stroke="midnightblue" d="M200.57,-392.4C214.88,-383.04 233.61,-370.79 248.01,-361.38"/>
<polygon fill="midnightblue" stroke="midnightblue" points="250.3,-364.06 256.76,-355.66 246.47,-358.2 250.3,-364.06"/>
</g>
<!-- Node3 -->
<g id="node3" class="node">
<title>Node3</title>
<g id="a_node3"><a xlink:href="abcgShader_8hpp.html" target="_top" xlink:title="Declaration of a structure for building shaders.">
<polygon fill="none" stroke="black" points="0,-224.5 0,-243.5 94,-243.5 94,-224.5 0,-224.5"/>
<text text-anchor="middle" x="47" y="-231.5" font-family="Helvetica,sans-Serif" font-size="10.00">abcgShader.hpp</text>
</a>
</g>
</g>
<!-- Node2&#45;&gt;Node3 -->
<g id="edge2" class="edge">
<title>Node2&#45;&gt;Node3</title>
<path fill="none" stroke="midnightblue" d="M82.06,-280.08C76.07,-272.38 67.25,-261.03 59.95,-251.65"/>
<polygon fill="midnightblue" stroke="midnightblue" points="62.71,-249.5 53.81,-243.75 57.18,-253.79 62.71,-249.5"/>
</g>
<!-- Node6 -->
<g id="node6" class="node">
<title>Node6</title>
<g id="a_node6"><a xlink:href="abcgVulkanDevice_8hpp.html" target="_top" xlink:title="Header file of abcg::VulkanDevice.">
<polygon fill="none" stroke="black" points="112.5,-224.5 112.5,-243.5 239.5,-243.5 239.5,-224.5 112.5,-224.5"/>
<text text-anchor="middle" x="176" y="-231.5" font-family="Helvetica,sans-Serif" font-size="10.00">abcgVulkanDevice.hpp</text>
</a>
</g>
</g>
<!-- Node2&#45;&gt;Node6 -->
<g id="edge5" class="edge">
<title>Node2&#45;&gt;Node6</title>
<path fill="none" stroke="midnightblue" d="M102.98,-280.32C116.55,-271.9 137.38,-258.97 153.32,-249.07"/>
<polygon fill="midnightblue" stroke="midnightblue" points="155.41,-251.9 162.06,-243.65 151.71,-245.95 155.41,-251.9"/>
</g>
<!-- Node4 -->
<g id="node4" class="node">
<title>Node4</title>
<g id="a_node4"><a xlink:title=" ">
<polygon fill="none" stroke="#bfbfbf" points="33,-112.5 33,-131.5 89,-131.5 89,-112.5 33,-112.5"/>
<text text-anchor="middle" x="61" y="-119.5" font-family="Helvetica,sans-Serif" font-size="10.00">optional</text>
</a>
</g>
</g>
<!-- Node3&#45;&gt;Node4 -->
<g id="edge3" class="edge">
<title>Node3&#45;&gt;Node4</title>
<path fill="none" stroke="midnightblue" d="M39.36,-224.19C29.5,-211.71 14.48,-188.16 22,-168 26.17,-156.81 34.52,-146.56 42.42,-138.68"/>
<polygon fill="midnightblue" stroke="midnightblue" points="45.06,-141 50.01,-131.63 40.3,-135.87 45.06,-141"/>
</g>
<!-- Node5 -->
<g id="node5" class="node">
<title>Node5</title>
<g id="a_node5"><a xlink:title=" ">
<polygon fill="none" stroke="#bfbfbf" points="31,-168.5 31,-187.5 75,-187.5 75,-168.5 31,-168.5"/>
<text text-anchor="middle" x="53" y="-175.5" font-family="Helvetica,sans-Serif" font-size="10.00">string</text>
</a>
</g>
</g>
<!-- Node3&#45;&gt;Node5 -->
<g id="edge4" class="edge">
<title>Node3&#45;&gt;Node5</title>
<path fill="none" stroke="midnightblue" d="M47.99,-224.08C48.79,-216.93 49.93,-206.64 50.92,-197.69"/>
<polygon fill="midnightblue" stroke="midnightblue" points="54.4,-198.08 52.03,-187.75 47.44,-197.3 54.4,-198.08"/>
</g>
<!-- Node7 -->
<g id="node7" class="node">
<title>Node7</title>
<g id="a_node7"><a xlink:href="abcgVulkanPhysicalDevice_8hpp.html" target="_top" xlink:title="Header file of abcg::VulkanPhysicalDevice.">
<polygon fill="none" stroke="black" points="92.5,-168.5 92.5,-187.5 259.5,-187.5 259.5,-168.5 92.5,-168.5"/>
<text text-anchor="middle" x="176" y="-175.5" font-family="Helvetica,sans-Serif" font-size="10.00">abcgVulkanPhysicalDevice.hpp</text>
</a>
</g>
</g>
<!-- Node6&#45;&gt;Node7 -->
<g id="edge6" class="edge">
<title>Node6&#45;&gt;Node7</title>
<path fill="none" stroke="midnightblue" d="M176,-224.08C176,-217.01 176,-206.86 176,-197.99"/>
<polygon fill="midnightblue" stroke="midnightblue" points="179.5,-197.75 176,-187.75 172.5,-197.75 179.5,-197.75"/>
</g>
<!-- Node12 -->
<g id="node12" class="node">
<title>Node12</title>
<g id="a_node12"><a xlink:title=" ">
<polygon fill="none" stroke="#bfbfbf" points="302.5,-168.5 302.5,-187.5 367.5,-187.5 367.5,-168.5 302.5,-168.5"/>
<text text-anchor="middle" x="335" y="-175.5" font-family="Helvetica,sans-Serif" font-size="10.00">functional</text>
</a>
</g>
</g>
<!-- Node6&#45;&gt;Node12 -->
<g id="edge13" class="edge">
<title>Node6&#45;&gt;Node12</title>
<path fill="none" stroke="midnightblue" d="M201.19,-224.44C227.94,-215.36 270.4,-200.94 300.31,-190.78"/>
<polygon fill="midnightblue" stroke="midnightblue" points="301.58,-194.05 309.92,-187.52 299.33,-187.42 301.58,-194.05"/>
</g>
<!-- Node7&#45;&gt;Node4 -->
<g id="edge7" class="edge">
<title>Node7&#45;&gt;Node4</title>
<path fill="none" stroke="midnightblue" d="M157.78,-168.44C139.1,-159.68 109.84,-145.94 88.38,-135.86"/>
<polygon fill="midnightblue" stroke="midnightblue" points="89.68,-132.6 79.14,-131.52 86.7,-138.93 89.68,-132.6"/>
</g>
<!-- Node8 -->
<g id="node8" class="node">
<title>Node8</title>
<g id="a_node8"><a xlink:href="abcgVulkanExternal_8hpp.html" target="_top" xlink:title="Header file for including Vulkan&#45;related dependencies.">
<polygon fill="none" stroke="black" points="108,-56.5 108,-75.5 242,-75.5 242,-56.5 108,-56.5"/>
<text text-anchor="middle" x="175" y="-63.5" font-family="Helvetica,sans-Serif" font-size="10.00">abcgVulkanExternal.hpp</text>
</a>
</g>
</g>
<!-- Node7&#45;&gt;Node8 -->
<g id="edge8" class="edge">
<title>Node7&#45;&gt;Node8</title>
<path fill="none" stroke="midnightblue" d="M168.33,-168.46C161.22,-159.93 151.15,-146.09 147,-132 141.98,-114.95 151.57,-96.42 160.86,-83.52"/>
<polygon fill="midnightblue" stroke="midnightblue" points="163.67,-85.62 167.07,-75.58 158.15,-81.31 163.67,-85.62"/>
</g>
<!-- Node11 -->
<g id="node11" class="node">
<title>Node11</title>
<g id="a_node11"><a xlink:href="abcgVulkanInstance_8hpp.html" target="_top" xlink:title="Header file of abcg::VulkanInstance.">
<polygon fill="none" stroke="black" points="156,-112.5 156,-131.5 290,-131.5 290,-112.5 156,-112.5"/>
<text text-anchor="middle" x="223" y="-119.5" font-family="Helvetica,sans-Serif" font-size="10.00">abcgVulkanInstance.hpp</text>
</a>
</g>
</g>
<!-- Node7&#45;&gt;Node11 -->
<g id="edge11" class="edge">
<title>Node7&#45;&gt;Node11</title>
<path fill="none" stroke="midnightblue" d="M183.76,-168.08C190.54,-160.3 200.54,-148.8 208.76,-139.37"/>
<polygon fill="midnightblue" stroke="midnightblue" points="211.46,-141.59 215.38,-131.75 206.18,-137 211.46,-141.59"/>
</g>
<!-- Node9 -->
<g id="node9" class="node">
<title>Node9</title>
<g id="a_node9"><a xlink:title=" ">
<polygon fill="none" stroke="#bfbfbf" points="104.5,-0.5 104.5,-19.5 151.5,-19.5 151.5,-0.5 104.5,-0.5"/>
<text text-anchor="middle" x="128" y="-7.5" font-family="Helvetica,sans-Serif" font-size="10.00">volk.h</text>
</a>
</g>
</g>
<!-- Node8&#45;&gt;Node9 -->
<g id="edge9" class="edge">
<title>Node8&#45;&gt;Node9</title>
<path fill="none" stroke="midnightblue" d="M167.24,-56.08C160.46,-48.3 150.46,-36.8 142.24,-27.37"/>
<polygon fill="midnightblue" stroke="midnightblue" points="144.82,-25 135.62,-19.75 139.54,-29.59 144.82,-25"/>
</g>
<!-- Node10 -->
<g id="node10" class="node">
<title>Node10</title>
<g id="a_node10"><a xlink:title=" ">
<polygon fill="none" stroke="#bfbfbf" points="169.5,-0.5 169.5,-19.5 274.5,-19.5 274.5,-0.5 169.5,-0.5"/>
<text text-anchor="middle" x="222" y="-7.5" font-family="Helvetica,sans-Serif" font-size="10.00">vulkan/vulkan.hpp</text>
</a>
</g>
</g>
<!-- Node8&#45;&gt;Node10 -->
<g id="edge10" class="edge">
<title>Node8&#45;&gt;Node10</title>
<path fill="none" stroke="midnightblue" d="M182.76,-56.08C189.54,-48.3 199.54,-36.8 207.76,-27.37"/>
<polygon fill="midnightblue" stroke="midnightblue" points="210.46,-29.59 214.38,-19.75 205.18,-25 210.46,-29.59"/>
</g>
<!-- Node11&#45;&gt;Node8 -->
<g id="edge12" class="edge">
<title>Node11&#45;&gt;Node8</title>
<path fill="none" stroke="midnightblue" d="M215.07,-112.08C208.15,-104.3 197.93,-92.8 189.55,-83.37"/>
<polygon fill="midnightblue" stroke="midnightblue" points="192.04,-80.9 182.78,-75.75 186.81,-85.55 192.04,-80.9"/>
</g>
<!-- Node13&#45;&gt;Node6 -->
<g id="edge17" class="edge">
<title>Node13&#45;&gt;Node6</title>
<path fill="none" stroke="midnightblue" d="M249.3,-336.44C233.51,-328.95 212.28,-316.66 199,-300 188.28,-286.56 182.35,-267.74 179.21,-253.81"/>
<polygon fill="midnightblue" stroke="midnightblue" points="182.62,-253.02 177.25,-243.88 175.75,-254.37 182.62,-253.02"/>
</g>
<!-- Node13&#45;&gt;Node12 -->
<g id="edge15" class="edge">
<title>Node13&#45;&gt;Node12</title>
<path fill="none" stroke="midnightblue" d="M295.16,-336.38C311.42,-329.34 331.29,-317.65 341,-300 358.93,-267.41 349.23,-222.11 341.51,-197.21"/>
<polygon fill="midnightblue" stroke="midnightblue" points="344.79,-195.98 338.31,-187.6 338.15,-198.19 344.79,-195.98"/>
</g>
<!-- Node14 -->
<g id="node14" class="node">
<title>Node14</title>
<g id="a_node14"><a xlink:title=" ">
<polygon fill="none" stroke="#bfbfbf" points="388.5,-280.5 388.5,-299.5 465.5,-299.5 465.5,-280.5 388.5,-280.5"/>
<text text-anchor="middle" x="427" y="-287.5" font-family="Helvetica,sans-Serif" font-size="10.00">glm/fwd.hpp</text>
</a>
</g>
</g>
<!-- Node13&#45;&gt;Node14 -->
<g id="edge16" class="edge">
<title>Node13&#45;&gt;Node14</title>
<path fill="none" stroke="midnightblue" d="M294.88,-336.44C321.29,-327.36 363.22,-312.94 392.74,-302.78"/>
<polygon fill="midnightblue" stroke="midnightblue" points="393.92,-306.08 402.24,-299.52 391.64,-299.46 393.92,-306.08"/>
</g>
<!-- Node15 -->
<g id="node15" class="node">
<title>Node15</title>
<g id="a_node15"><a xlink:href="abcgVulkanImage_8hpp.html" target="_top" xlink:title="Header file of abcg::VulkanImage.">
<polygon fill="none" stroke="black" points="208,-280.5 208,-299.5 332,-299.5 332,-280.5 208,-280.5"/>
<text text-anchor="middle" x="270" y="-287.5" font-family="Helvetica,sans-Serif" font-size="10.00">abcgVulkanImage.hpp</text>
</a>
</g>
</g>
<!-- Node13&#45;&gt;Node15 -->
<g id="edge18" class="edge">
<title>Node13&#45;&gt;Node15</title>
<path fill="none" stroke="midnightblue" d="M270,-336.08C270,-329.01 270,-318.86 270,-309.99"/>
<polygon fill="midnightblue" stroke="midnightblue" points="273.5,-309.75 270,-299.75 266.5,-309.75 273.5,-309.75"/>
</g>
<!-- Node15&#45;&gt;Node6 -->
<g id="edge19" class="edge">
<title>Node15&#45;&gt;Node6</title>
<path fill="none" stroke="midnightblue" d="M254.9,-280.32C240.1,-271.82 217.31,-258.73 200.02,-248.8"/>
<polygon fill="midnightblue" stroke="midnightblue" points="201.48,-245.6 191.07,-243.65 197.99,-251.67 201.48,-245.6"/>
</g>
<!-- Node16 -->
<g id="node16" class="node">
<title>Node16</title>
<g id="a_node16"><a xlink:title=" ">
<polygon fill="none" stroke="#bfbfbf" points="258,-224.5 258,-243.5 332,-243.5 332,-224.5 258,-224.5"/>
<text text-anchor="middle" x="295" y="-231.5" font-family="Helvetica,sans-Serif" font-size="10.00">gsl/pointers</text>
</a>
</g>
</g>
<!-- Node15&#45;&gt;Node16 -->
<g id="edge20" class="edge">
<title>Node15&#45;&gt;Node16</title>
<path fill="none" stroke="midnightblue" d="M274.13,-280.08C277.51,-272.77 282.42,-262.18 286.62,-253.1"/>
<polygon fill="midnightblue" stroke="midnightblue" points="289.92,-254.3 290.95,-243.75 283.57,-251.36 289.92,-254.3"/>
</g>
</g>
</svg>
