<?xml version="1.0" encoding="UTF-8" standalone="no"?>
<!DOCTYPE svg PUBLIC "-//W3C//DTD SVG 1.1//EN"
 "http://www.w3.org/Graphics/SVG/1.1/DTD/svg11.dtd">
<!-- Generated by graphviz version 2.43.0 (0)
 -->
<!-- Title: /home/harlen/dev/abcg/abcg/abcgVulkanSwapchain.hpp Pages: 1 -->
<svg width="424pt" height="375pt"
 viewBox="0.00 0.00 423.50 375.00" xmlns="http://www.w3.org/2000/svg" xmlns:xlink="http://www.w3.org/1999/xlink">
<g id="graph0" class="graph" transform="scale(1 1) rotate(0) translate(4 371)">
<title>/home/harlen/dev/abcg/abcg/abcgVulkanSwapchain.hpp</title>
<!-- Node1 -->
<g id="node1" class="node">
<title>Node1</title>
<g id="a_node1"><a xlink:title="Header file of abcg::VulkanSwapchain.">
<polygon fill="#bfbfbf" stroke="black" points="67,-336.5 67,-366.5 242,-366.5 242,-336.5 67,-336.5"/>
<text text-anchor="start" x="75" y="-354.5" font-family="Helvetica,sans-Serif" font-size="10.00">/home/harlen/dev/abcg</text>
<text text-anchor="middle" x="154.5" y="-343.5" font-family="Helvetica,sans-Serif" font-size="10.00">/abcg/abcgVulkanSwapchain.hpp</text>
</a>
</g>
</g>
<!-- Node2 -->
<g id="node2" class="node">
<title>Node2</title>
<g id="a_node2"><a xlink:title=" ">
<polygon fill="none" stroke="#bfbfbf" points="0,-280.5 0,-299.5 65,-299.5 65,-280.5 0,-280.5"/>
<text text-anchor="middle" x="32.5" y="-287.5" font-family="Helvetica,sans-Serif" font-size="10.00">functional</text>
</a>
</g>
</g>
<!-- Node1&#45;&gt;Node2 -->
<g id="edge1" class="edge">
<title>Node1&#45;&gt;Node2</title>
<path fill="none" stroke="midnightblue" d="M125.59,-336.4C105.48,-326.59 78.88,-313.62 59.26,-304.05"/>
<polygon fill="midnightblue" stroke="midnightblue" points="60.77,-300.9 50.25,-299.66 57.71,-307.19 60.77,-300.9"/>
</g>
<!-- Node3 -->
<g id="node3" class="node">
<title>Node3</title>
<g id="a_node3"><a xlink:title=" ">
<polygon fill="none" stroke="#bfbfbf" points="83,-280.5 83,-299.5 160,-299.5 160,-280.5 83,-280.5"/>
<text text-anchor="middle" x="121.5" y="-287.5" font-family="Helvetica,sans-Serif" font-size="10.00">glm/fwd.hpp</text>
</a>
</g>
</g>
<!-- Node1&#45;&gt;Node3 -->
<g id="edge2" class="edge">
<title>Node1&#45;&gt;Node3</title>
<path fill="none" stroke="midnightblue" d="M146.68,-336.4C142.03,-328.02 136.1,-317.33 131.16,-308.42"/>
<polygon fill="midnightblue" stroke="midnightblue" points="134.21,-306.71 126.3,-299.66 128.09,-310.1 134.21,-306.71"/>
</g>
<!-- Node4 -->
<g id="node4" class="node">
<title>Node4</title>
<g id="a_node4"><a xlink:href="abcgVulkanDevice_8hpp.html" target="_top" xlink:title="Header file of abcg::VulkanDevice.">
<polygon fill="none" stroke="black" points="125,-224.5 125,-243.5 252,-243.5 252,-224.5 125,-224.5"/>
<text text-anchor="middle" x="188.5" y="-231.5" font-family="Helvetica,sans-Serif" font-size="10.00">abcgVulkanDevice.hpp</text>
</a>
</g>
</g>
<!-- Node1&#45;&gt;Node4 -->
<g id="edge3" class="edge">
<title>Node1&#45;&gt;Node4</title>
<path fill="none" stroke="midnightblue" d="M158.72,-336.36C161.73,-326.23 165.88,-312.28 169.5,-300 174.12,-284.32 179.33,-266.49 183.12,-253.48"/>
<polygon fill="midnightblue" stroke="midnightblue" points="186.49,-254.41 185.93,-243.83 179.77,-252.46 186.49,-254.41"/>
</g>
<!-- Node11 -->
<g id="node11" class="node">
<title>Node11</title>
<g id="a_node11"><a xlink:href="abcgVulkanImage_8hpp.html" target="_top" xlink:title="Header file of abcg::VulkanImage.">
<polygon fill="none" stroke="black" points="216.5,-280.5 216.5,-299.5 340.5,-299.5 340.5,-280.5 216.5,-280.5"/>
<text text-anchor="middle" x="278.5" y="-287.5" font-family="Helvetica,sans-Serif" font-size="10.00">abcgVulkanImage.hpp</text>
</a>
</g>
</g>
<!-- Node1&#45;&gt;Node11 -->
<g id="edge12" class="edge">
<title>Node1&#45;&gt;Node11</title>
<path fill="none" stroke="midnightblue" d="M183.89,-336.4C204.32,-326.59 231.36,-313.62 251.3,-304.05"/>
<polygon fill="midnightblue" stroke="midnightblue" points="252.96,-307.14 260.46,-299.66 249.93,-300.83 252.96,-307.14"/>
</g>
<!-- Node5 -->
<g id="node5" class="node">
<title>Node5</title>
<g id="a_node5"><a xlink:href="abcgVulkanExternal_8hpp.html" target="_top" xlink:title="Header file for including Vulkan&#45;related dependencies.">
<polygon fill="none" stroke="black" points="112.5,-56.5 112.5,-75.5 246.5,-75.5 246.5,-56.5 112.5,-56.5"/>
<text text-anchor="middle" x="179.5" y="-63.5" font-family="Helvetica,sans-Serif" font-size="10.00">abcgVulkanExternal.hpp</text>
</a>
</g>
</g>
<!-- Node4&#45;&gt;Node5 -->
<g id="edge4" class="edge">
<title>Node4&#45;&gt;Node5</title>
<path fill="none" stroke="midnightblue" d="M178.34,-224.19C169.59,-215.87 157.6,-202.54 152.5,-188 139.97,-152.28 157.4,-108.53 169.54,-84.64"/>
<polygon fill="midnightblue" stroke="midnightblue" points="172.69,-86.17 174.31,-75.7 166.51,-82.87 172.69,-86.17"/>
</g>
<!-- Node8 -->
<g id="node8" class="node">
<title>Node8</title>
<g id="a_node8"><a xlink:href="abcgVulkanPhysicalDevice_8hpp.html" target="_top" xlink:title="Header file of abcg::VulkanPhysicalDevice.">
<polygon fill="none" stroke="black" points="161,-168.5 161,-187.5 328,-187.5 328,-168.5 161,-168.5"/>
<text text-anchor="middle" x="244.5" y="-175.5" font-family="Helvetica,sans-Serif" font-size="10.00">abcgVulkanPhysicalDevice.hpp</text>
</a>
</g>
</g>
<!-- Node4&#45;&gt;Node8 -->
<g id="edge7" class="edge">
<title>Node4&#45;&gt;Node8</title>
<path fill="none" stroke="midnightblue" d="M197.5,-224.32C205.69,-216.42 218.01,-204.55 227.97,-194.94"/>
<polygon fill="midnightblue" stroke="midnightblue" points="230.57,-197.29 235.34,-187.83 225.71,-192.26 230.57,-197.29"/>
</g>
<!-- Node6 -->
<g id="node6" class="node">
<title>Node6</title>
<g id="a_node6"><a xlink:title=" ">
<polygon fill="none" stroke="#bfbfbf" points="109,-0.5 109,-19.5 156,-19.5 156,-0.5 109,-0.5"/>
<text text-anchor="middle" x="132.5" y="-7.5" font-family="Helvetica,sans-Serif" font-size="10.00">volk.h</text>
</a>
</g>
</g>
<!-- Node5&#45;&gt;Node6 -->
<g id="edge5" class="edge">
<title>Node5&#45;&gt;Node6</title>
<path fill="none" stroke="midnightblue" d="M171.74,-56.08C164.96,-48.3 154.96,-36.8 146.74,-27.37"/>
<polygon fill="midnightblue" stroke="midnightblue" points="149.32,-25 140.12,-19.75 144.04,-29.59 149.32,-25"/>
</g>
<!-- Node7 -->
<g id="node7" class="node">
<title>Node7</title>
<g id="a_node7"><a xlink:title=" ">
<polygon fill="none" stroke="#bfbfbf" points="174,-0.5 174,-19.5 279,-19.5 279,-0.5 174,-0.5"/>
<text text-anchor="middle" x="226.5" y="-7.5" font-family="Helvetica,sans-Serif" font-size="10.00">vulkan/vulkan.hpp</text>
</a>
</g>
</g>
<!-- Node5&#45;&gt;Node7 -->
<g id="edge6" class="edge">
<title>Node5&#45;&gt;Node7</title>
<path fill="none" stroke="midnightblue" d="M187.26,-56.08C194.04,-48.3 204.04,-36.8 212.26,-27.37"/>
<polygon fill="midnightblue" stroke="midnightblue" points="214.96,-29.59 218.88,-19.75 209.68,-25 214.96,-29.59"/>
</g>
<!-- Node8&#45;&gt;Node5 -->
<g id="edge9" class="edge">
<title>Node8&#45;&gt;Node5</title>
<path fill="none" stroke="midnightblue" d="M232.63,-168.29C222.2,-160.04 207.35,-146.75 198.5,-132 189.9,-117.67 184.99,-99.2 182.33,-85.62"/>
<polygon fill="midnightblue" stroke="midnightblue" points="185.74,-84.81 180.59,-75.55 178.84,-86 185.74,-84.81"/>
</g>
<!-- Node9 -->
<g id="node9" class="node">
<title>Node9</title>
<g id="a_node9"><a xlink:title=" ">
<polygon fill="none" stroke="#bfbfbf" points="207.5,-112.5 207.5,-131.5 263.5,-131.5 263.5,-112.5 207.5,-112.5"/>
<text text-anchor="middle" x="235.5" y="-119.5" font-family="Helvetica,sans-Serif" font-size="10.00">optional</text>
</a>
</g>
</g>
<!-- Node8&#45;&gt;Node9 -->
<g id="edge8" class="edge">
<title>Node8&#45;&gt;Node9</title>
<path fill="none" stroke="midnightblue" d="M243.01,-168.08C241.82,-160.93 240.11,-150.64 238.62,-141.69"/>
<polygon fill="midnightblue" stroke="midnightblue" points="242.05,-141.04 236.96,-131.75 235.15,-142.19 242.05,-141.04"/>
</g>
<!-- Node10 -->
<g id="node10" class="node">
<title>Node10</title>
<g id="a_node10"><a xlink:href="abcgVulkanInstance_8hpp.html" target="_top" xlink:title="Header file of abcg::VulkanInstance.">
<polygon fill="none" stroke="black" points="281.5,-112.5 281.5,-131.5 415.5,-131.5 415.5,-112.5 281.5,-112.5"/>
<text text-anchor="middle" x="348.5" y="-119.5" font-family="Helvetica,sans-Serif" font-size="10.00">abcgVulkanInstance.hpp</text>
</a>
</g>
</g>
<!-- Node8&#45;&gt;Node10 -->
<g id="edge10" class="edge">
<title>Node8&#45;&gt;Node10</title>
<path fill="none" stroke="midnightblue" d="M261.21,-168.32C277.81,-159.7 303.5,-146.36 322.72,-136.39"/>
<polygon fill="midnightblue" stroke="midnightblue" points="324.57,-139.37 331.83,-131.65 321.34,-133.16 324.57,-139.37"/>
</g>
<!-- Node10&#45;&gt;Node5 -->
<g id="edge11" class="edge">
<title>Node10&#45;&gt;Node5</title>
<path fill="none" stroke="midnightblue" d="M321.72,-112.44C293.17,-103.32 247.77,-88.81 215.96,-78.65"/>
<polygon fill="midnightblue" stroke="midnightblue" points="216.74,-75.23 206.15,-75.52 214.61,-81.89 216.74,-75.23"/>
</g>
<!-- Node11&#45;&gt;Node4 -->
<g id="edge13" class="edge">
<title>Node11&#45;&gt;Node4</title>
<path fill="none" stroke="midnightblue" d="M264.04,-280.32C250,-271.9 228.45,-258.97 211.96,-249.07"/>
<polygon fill="midnightblue" stroke="midnightblue" points="213.3,-245.8 202.92,-243.65 209.7,-251.8 213.3,-245.8"/>
</g>
<!-- Node12 -->
<g id="node12" class="node">
<title>Node12</title>
<g id="a_node12"><a xlink:title=" ">
<polygon fill="none" stroke="#bfbfbf" points="270.5,-224.5 270.5,-243.5 344.5,-243.5 344.5,-224.5 270.5,-224.5"/>
<text text-anchor="middle" x="307.5" y="-231.5" font-family="Helvetica,sans-Serif" font-size="10.00">gsl/pointers</text>
</a>
</g>
</g>
<!-- Node11&#45;&gt;Node12 -->
<g id="edge14" class="edge">
<title>Node11&#45;&gt;Node12</title>
<path fill="none" stroke="midnightblue" d="M283.29,-280.08C287.26,-272.69 293.03,-261.95 297.93,-252.81"/>
<polygon fill="midnightblue" stroke="midnightblue" points="301.15,-254.22 302.8,-243.75 294.99,-250.91 301.15,-254.22"/>
</g>
</g>
</svg>
