<?xml version="1.0" encoding="UTF-8" standalone="no"?>
<!DOCTYPE svg PUBLIC "-//W3C//DTD SVG 1.1//EN"
 "http://www.w3.org/Graphics/SVG/1.1/DTD/svg11.dtd">
<!-- Generated by graphviz version 2.43.0 (0)
 -->
<!-- Title: /home/harlen/dev/abcg/abcg/abcgVulkanPhysicalDevice.cpp Pages: 1 -->
<svg width="713pt" height="263pt"
 viewBox="0.00 0.00 712.50 263.00" xmlns="http://www.w3.org/2000/svg" xmlns:xlink="http://www.w3.org/1999/xlink">
<g id="graph0" class="graph" transform="scale(1 1) rotate(0) translate(4 259)">
<title>/home/harlen/dev/abcg/abcg/abcgVulkanPhysicalDevice.cpp</title>
<!-- Node1 -->
<g id="node1" class="node">
<title>Node1</title>
<g id="a_node1"><a xlink:title="Definition of abcg::VulkanPhysicalDevice.">
<polygon fill="#bfbfbf" stroke="black" points="306.5,-224.5 306.5,-254.5 502.5,-254.5 502.5,-224.5 306.5,-224.5"/>
<text text-anchor="start" x="314.5" y="-242.5" font-family="Helvetica,sans-Serif" font-size="10.00">/home/harlen/dev/abcg</text>
<text text-anchor="middle" x="404.5" y="-231.5" font-family="Helvetica,sans-Serif" font-size="10.00">/abcg/abcgVulkanPhysicalDevice.cpp</text>
</a>
</g>
</g>
<!-- Node2 -->
<g id="node2" class="node">
<title>Node2</title>
<g id="a_node2"><a xlink:href="abcgVulkanPhysicalDevice_8hpp.html" target="_top" xlink:title="Header file of abcg::VulkanPhysicalDevice.">
<polygon fill="none" stroke="black" points="0,-168.5 0,-187.5 167,-187.5 167,-168.5 0,-168.5"/>
<text text-anchor="middle" x="83.5" y="-175.5" font-family="Helvetica,sans-Serif" font-size="10.00">abcgVulkanPhysicalDevice.hpp</text>
</a>
</g>
</g>
<!-- Node1&#45;&gt;Node2 -->
<g id="edge1" class="edge">
<title>Node1&#45;&gt;Node2</title>
<path fill="none" stroke="midnightblue" d="M328.83,-224.47C270.79,-213.72 191.99,-199.11 139.52,-189.38"/>
<polygon fill="midnightblue" stroke="midnightblue" points="139.86,-185.89 129.39,-187.51 138.59,-192.77 139.86,-185.89"/>
</g>
<!-- Node7 -->
<g id="node7" class="node">
<title>Node7</title>
<g id="a_node7"><a xlink:href="abcgVulkanInstance_8hpp.html" target="_top" xlink:title="Header file of abcg::VulkanInstance.">
<polygon fill="none" stroke="black" points="119.5,-112.5 119.5,-131.5 253.5,-131.5 253.5,-112.5 119.5,-112.5"/>
<text text-anchor="middle" x="186.5" y="-119.5" font-family="Helvetica,sans-Serif" font-size="10.00">abcgVulkanInstance.hpp</text>
</a>
</g>
</g>
<!-- Node1&#45;&gt;Node7 -->
<g id="edge16" class="edge">
<title>Node1&#45;&gt;Node7</title>
<path fill="none" stroke="midnightblue" d="M306.45,-230.12C273.78,-223.07 239.21,-210.45 213.5,-188 199.86,-176.09 192.96,-156.18 189.57,-141.53"/>
<polygon fill="midnightblue" stroke="midnightblue" points="192.98,-140.7 187.61,-131.57 186.11,-142.06 192.98,-140.7"/>
</g>
<!-- Node8 -->
<g id="node8" class="node">
<title>Node8</title>
<g id="a_node8"><a xlink:title=" ">
<polygon fill="none" stroke="#bfbfbf" points="223,-168.5 223,-187.5 362,-187.5 362,-168.5 223,-168.5"/>
<text text-anchor="middle" x="292.5" y="-175.5" font-family="Helvetica,sans-Serif" font-size="10.00">cppitertools/itertools.hpp</text>
</a>
</g>
</g>
<!-- Node1&#45;&gt;Node8 -->
<g id="edge8" class="edge">
<title>Node1&#45;&gt;Node8</title>
<path fill="none" stroke="midnightblue" d="M377.96,-224.4C359.84,-214.77 335.96,-202.09 318.06,-192.58"/>
<polygon fill="midnightblue" stroke="midnightblue" points="319.27,-189.26 308.8,-187.66 315.99,-195.44 319.27,-189.26"/>
</g>
<!-- Node9 -->
<g id="node9" class="node">
<title>Node9</title>
<g id="a_node9"><a xlink:title=" ">
<polygon fill="none" stroke="#bfbfbf" points="380.5,-168.5 380.5,-187.5 428.5,-187.5 428.5,-168.5 380.5,-168.5"/>
<text text-anchor="middle" x="404.5" y="-175.5" font-family="Helvetica,sans-Serif" font-size="10.00">gsl/gsl</text>
</a>
</g>
</g>
<!-- Node1&#45;&gt;Node9 -->
<g id="edge9" class="edge">
<title>Node1&#45;&gt;Node9</title>
<path fill="none" stroke="midnightblue" d="M404.5,-224.4C404.5,-216.47 404.5,-206.46 404.5,-197.86"/>
<polygon fill="midnightblue" stroke="midnightblue" points="408,-197.66 404.5,-187.66 401,-197.66 408,-197.66"/>
</g>
<!-- Node10 -->
<g id="node10" class="node">
<title>Node10</title>
<g id="a_node10"><a xlink:title=" ">
<polygon fill="none" stroke="#bfbfbf" points="446.5,-168.5 446.5,-187.5 478.5,-187.5 478.5,-168.5 446.5,-168.5"/>
<text text-anchor="middle" x="462.5" y="-175.5" font-family="Helvetica,sans-Serif" font-size="10.00">set</text>
</a>
</g>
</g>
<!-- Node1&#45;&gt;Node10 -->
<g id="edge10" class="edge">
<title>Node1&#45;&gt;Node10</title>
<path fill="none" stroke="midnightblue" d="M418.25,-224.4C426.85,-215.58 437.95,-204.18 446.89,-195.02"/>
<polygon fill="midnightblue" stroke="midnightblue" points="449.59,-197.26 454.06,-187.66 444.57,-192.38 449.59,-197.26"/>
</g>
<!-- Node11 -->
<g id="node11" class="node">
<title>Node11</title>
<g id="a_node11"><a xlink:title=" ">
<polygon fill="none" stroke="#bfbfbf" points="496.5,-168.5 496.5,-187.5 536.5,-187.5 536.5,-168.5 496.5,-168.5"/>
<text text-anchor="middle" x="516.5" y="-175.5" font-family="Helvetica,sans-Serif" font-size="10.00">span</text>
</a>
</g>
</g>
<!-- Node1&#45;&gt;Node11 -->
<g id="edge11" class="edge">
<title>Node1&#45;&gt;Node11</title>
<path fill="none" stroke="midnightblue" d="M431.04,-224.4C449.16,-214.77 473.04,-202.09 490.94,-192.58"/>
<polygon fill="midnightblue" stroke="midnightblue" points="493.01,-195.44 500.2,-187.66 489.73,-189.26 493.01,-195.44"/>
</g>
<!-- Node12 -->
<g id="node12" class="node">
<title>Node12</title>
<g id="a_node12"><a xlink:href="abcgException_8hpp.html" target="_top" xlink:title="Header file of abcg::Exception and derived classes.">
<polygon fill="none" stroke="black" points="555,-168.5 555,-187.5 664,-187.5 664,-168.5 555,-168.5"/>
<text text-anchor="middle" x="609.5" y="-175.5" font-family="Helvetica,sans-Serif" font-size="10.00">abcgException.hpp</text>
</a>
</g>
</g>
<!-- Node1&#45;&gt;Node12 -->
<g id="edge12" class="edge">
<title>Node1&#45;&gt;Node12</title>
<path fill="none" stroke="midnightblue" d="M452.82,-224.47C488.65,-214.08 536.88,-200.08 570.32,-190.37"/>
<polygon fill="midnightblue" stroke="midnightblue" points="571.56,-193.66 580.19,-187.51 569.61,-186.93 571.56,-193.66"/>
</g>
<!-- Node3 -->
<g id="node3" class="node">
<title>Node3</title>
<g id="a_node3"><a xlink:title=" ">
<polygon fill="none" stroke="#bfbfbf" points="7.5,-112.5 7.5,-131.5 63.5,-131.5 63.5,-112.5 7.5,-112.5"/>
<text text-anchor="middle" x="35.5" y="-119.5" font-family="Helvetica,sans-Serif" font-size="10.00">optional</text>
</a>
</g>
</g>
<!-- Node2&#45;&gt;Node3 -->
<g id="edge2" class="edge">
<title>Node2&#45;&gt;Node3</title>
<path fill="none" stroke="midnightblue" d="M75.57,-168.08C68.65,-160.3 58.43,-148.8 50.05,-139.37"/>
<polygon fill="midnightblue" stroke="midnightblue" points="52.54,-136.9 43.28,-131.75 47.31,-141.55 52.54,-136.9"/>
</g>
<!-- Node4 -->
<g id="node4" class="node">
<title>Node4</title>
<g id="a_node4"><a xlink:href="abcgVulkanExternal_8hpp.html" target="_top" xlink:title="Header file for including Vulkan&#45;related dependencies.">
<polygon fill="none" stroke="black" points="71.5,-56.5 71.5,-75.5 205.5,-75.5 205.5,-56.5 71.5,-56.5"/>
<text text-anchor="middle" x="138.5" y="-63.5" font-family="Helvetica,sans-Serif" font-size="10.00">abcgVulkanExternal.hpp</text>
</a>
</g>
</g>
<!-- Node2&#45;&gt;Node4 -->
<g id="edge3" class="edge">
<title>Node2&#45;&gt;Node4</title>
<path fill="none" stroke="midnightblue" d="M86.57,-168.39C91.18,-155.75 100.44,-131.56 110.5,-112 115.39,-102.49 121.62,-92.34 126.95,-84.09"/>
<polygon fill="midnightblue" stroke="midnightblue" points="129.89,-85.99 132.48,-75.72 124.05,-82.13 129.89,-85.99"/>
</g>
<!-- Node2&#45;&gt;Node7 -->
<g id="edge6" class="edge">
<title>Node2&#45;&gt;Node7</title>
<path fill="none" stroke="midnightblue" d="M100.05,-168.32C116.49,-159.7 141.93,-146.36 160.97,-136.39"/>
<polygon fill="midnightblue" stroke="midnightblue" points="162.76,-139.4 169.99,-131.65 159.51,-133.2 162.76,-139.4"/>
</g>
<!-- Node5 -->
<g id="node5" class="node">
<title>Node5</title>
<g id="a_node5"><a xlink:title=" ">
<polygon fill="none" stroke="#bfbfbf" points="68,-0.5 68,-19.5 115,-19.5 115,-0.5 68,-0.5"/>
<text text-anchor="middle" x="91.5" y="-7.5" font-family="Helvetica,sans-Serif" font-size="10.00">volk.h</text>
</a>
</g>
</g>
<!-- Node4&#45;&gt;Node5 -->
<g id="edge4" class="edge">
<title>Node4&#45;&gt;Node5</title>
<path fill="none" stroke="midnightblue" d="M130.74,-56.08C123.96,-48.3 113.96,-36.8 105.74,-27.37"/>
<polygon fill="midnightblue" stroke="midnightblue" points="108.32,-25 99.12,-19.75 103.04,-29.59 108.32,-25"/>
</g>
<!-- Node6 -->
<g id="node6" class="node">
<title>Node6</title>
<g id="a_node6"><a xlink:title=" ">
<polygon fill="none" stroke="#bfbfbf" points="133,-0.5 133,-19.5 238,-19.5 238,-0.5 133,-0.5"/>
<text text-anchor="middle" x="185.5" y="-7.5" font-family="Helvetica,sans-Serif" font-size="10.00">vulkan/vulkan.hpp</text>
</a>
</g>
</g>
<!-- Node4&#45;&gt;Node6 -->
<g id="edge5" class="edge">
<title>Node4&#45;&gt;Node6</title>
<path fill="none" stroke="midnightblue" d="M146.26,-56.08C153.04,-48.3 163.04,-36.8 171.26,-27.37"/>
<polygon fill="midnightblue" stroke="midnightblue" points="173.96,-29.59 177.88,-19.75 168.68,-25 173.96,-29.59"/>
</g>
<!-- Node7&#45;&gt;Node4 -->
<g id="edge7" class="edge">
<title>Node7&#45;&gt;Node4</title>
<path fill="none" stroke="midnightblue" d="M178.57,-112.08C171.65,-104.3 161.43,-92.8 153.05,-83.37"/>
<polygon fill="midnightblue" stroke="midnightblue" points="155.54,-80.9 146.28,-75.75 150.31,-85.55 155.54,-80.9"/>
</g>
<!-- Node13 -->
<g id="node13" class="node">
<title>Node13</title>
<g id="a_node13"><a xlink:title=" ">
<polygon fill="none" stroke="#bfbfbf" points="466,-112.5 466,-131.5 559,-131.5 559,-112.5 466,-112.5"/>
<text text-anchor="middle" x="512.5" y="-119.5" font-family="Helvetica,sans-Serif" font-size="10.00">source_location</text>
</a>
</g>
</g>
<!-- Node12&#45;&gt;Node13 -->
<g id="edge13" class="edge">
<title>Node12&#45;&gt;Node13</title>
<path fill="none" stroke="midnightblue" d="M593.92,-168.32C578.5,-159.74 554.69,-146.49 536.79,-136.52"/>
<polygon fill="midnightblue" stroke="midnightblue" points="538.49,-133.46 528.05,-131.65 535.08,-139.58 538.49,-133.46"/>
</g>
<!-- Node14 -->
<g id="node14" class="node">
<title>Node14</title>
<g id="a_node14"><a xlink:title=" ">
<polygon fill="none" stroke="#bfbfbf" points="577,-112.5 577,-131.5 642,-131.5 642,-112.5 577,-112.5"/>
<text text-anchor="middle" x="609.5" y="-119.5" font-family="Helvetica,sans-Serif" font-size="10.00">stdexcept</text>
</a>
</g>
</g>
<!-- Node12&#45;&gt;Node14 -->
<g id="edge14" class="edge">
<title>Node12&#45;&gt;Node14</title>
<path fill="none" stroke="midnightblue" d="M609.5,-168.08C609.5,-161.01 609.5,-150.86 609.5,-141.99"/>
<polygon fill="midnightblue" stroke="midnightblue" points="613,-141.75 609.5,-131.75 606,-141.75 613,-141.75"/>
</g>
<!-- Node15 -->
<g id="node15" class="node">
<title>Node15</title>
<g id="a_node15"><a xlink:title=" ">
<polygon fill="none" stroke="#bfbfbf" points="660.5,-112.5 660.5,-131.5 704.5,-131.5 704.5,-112.5 660.5,-112.5"/>
<text text-anchor="middle" x="682.5" y="-119.5" font-family="Helvetica,sans-Serif" font-size="10.00">string</text>
</a>
</g>
</g>
<!-- Node12&#45;&gt;Node15 -->
<g id="edge15" class="edge">
<title>Node12&#45;&gt;Node15</title>
<path fill="none" stroke="midnightblue" d="M621.23,-168.32C632.34,-160.11 649.24,-147.6 662.48,-137.81"/>
<polygon fill="midnightblue" stroke="midnightblue" points="664.6,-140.59 670.56,-131.83 660.44,-134.97 664.6,-140.59"/>
</g>
</g>
</svg>
