<?xml version="1.0" encoding="UTF-8" standalone="no"?>
<!DOCTYPE svg PUBLIC "-//W3C//DTD SVG 1.1//EN"
 "http://www.w3.org/Graphics/SVG/1.1/DTD/svg11.dtd">
<!-- Generated by graphviz version 2.43.0 (0)
 -->
<!-- Title: /home/harlen/dev/abcg/abcg/abcgVulkanShader.hpp Pages: 1 -->
<svg width="452pt" height="240pt"
 viewBox="0.00 0.00 452.00 240.00" xmlns="http://www.w3.org/2000/svg" xmlns:xlink="http://www.w3.org/1999/xlink">
<g id="graph0" class="graph" transform="scale(1 1) rotate(0) translate(4 236)">
<title>/home/harlen/dev/abcg/abcg/abcgVulkanShader.hpp</title>
<!-- Node1 -->
<g id="node1" class="node">
<title>Node1</title>
<g id="a_node1"><a xlink:title="Declaration of helper functions for creating Vulkan shaders.">
<polygon fill="#bfbfbf" stroke="black" points="113,-201.5 113,-231.5 268,-231.5 268,-201.5 113,-201.5"/>
<text text-anchor="start" x="121" y="-219.5" font-family="Helvetica,sans-Serif" font-size="10.00">/home/harlen/dev/abcg</text>
<text text-anchor="middle" x="190.5" y="-208.5" font-family="Helvetica,sans-Serif" font-size="10.00">/abcg/abcgVulkanShader.hpp</text>
</a>
</g>
</g>
<!-- Node2 -->
<g id="node2" class="node">
<title>Node2</title>
<g id="a_node2"><a xlink:href="abcgVulkan_8hpp.html" target="_top" xlink:title="Header file for Vulkan&#45;related functions and classes.">
<polygon fill="none" stroke="black" points="17.5,-67.5 17.5,-97.5 145.5,-97.5 145.5,-67.5 17.5,-67.5"/>
<text text-anchor="start" x="25.5" y="-85.5" font-family="Helvetica,sans-Serif" font-size="10.00">/home/harlen/dev/abcg</text>
<text text-anchor="middle" x="81.5" y="-74.5" font-family="Helvetica,sans-Serif" font-size="10.00">/abcg/abcgVulkan.hpp</text>
</a>
</g>
</g>
<!-- Node1&#45;&gt;Node2 -->
<g id="edge1" class="edge">
<title>Node1&#45;&gt;Node2</title>
<path fill="none" stroke="midnightblue" d="M141.75,-196.93C126.9,-189.12 111.8,-178.61 101.5,-165 86.38,-145.02 82.55,-115.09 81.66,-97.61"/>
<polygon fill="midnightblue" stroke="midnightblue" points="140.4,-200.17 150.92,-201.46 143.5,-193.89 140.4,-200.17"/>
</g>
<!-- Node4 -->
<g id="node4" class="node">
<title>Node4</title>
<g id="a_node4"><a xlink:href="abcgVulkanPipeline_8hpp.html" target="_top" xlink:title="Header file of abcg::VulkanPipeline.">
<polygon fill="none" stroke="black" points="110,-134.5 110,-164.5 271,-164.5 271,-134.5 110,-134.5"/>
<text text-anchor="start" x="118" y="-152.5" font-family="Helvetica,sans-Serif" font-size="10.00">/home/harlen/dev/abcg</text>
<text text-anchor="middle" x="190.5" y="-141.5" font-family="Helvetica,sans-Serif" font-size="10.00">/abcg/abcgVulkanPipeline.hpp</text>
</a>
</g>
</g>
<!-- Node1&#45;&gt;Node4 -->
<g id="edge3" class="edge">
<title>Node1&#45;&gt;Node4</title>
<path fill="none" stroke="midnightblue" d="M190.5,-191.11C190.5,-182.15 190.5,-172.32 190.5,-164.58"/>
<polygon fill="midnightblue" stroke="midnightblue" points="187,-191.4 190.5,-201.4 194,-191.4 187,-191.4"/>
</g>
<!-- Node6 -->
<g id="node6" class="node">
<title>Node6</title>
<g id="a_node6"><a xlink:href="abcgVulkanShader_8cpp.html" target="_top" xlink:title="Definition of helper functions for creating Vulkan shaders.">
<polygon fill="none" stroke="black" points="289,-134.5 289,-164.5 444,-164.5 444,-134.5 289,-134.5"/>
<text text-anchor="start" x="297" y="-152.5" font-family="Helvetica,sans-Serif" font-size="10.00">/home/harlen/dev/abcg</text>
<text text-anchor="middle" x="366.5" y="-141.5" font-family="Helvetica,sans-Serif" font-size="10.00">/abcg/abcgVulkanShader.cpp</text>
</a>
</g>
</g>
<!-- Node1&#45;&gt;Node6 -->
<g id="edge6" class="edge">
<title>Node1&#45;&gt;Node6</title>
<path fill="none" stroke="midnightblue" d="M238.38,-197.82C266.67,-187.37 301.99,-174.32 328.39,-164.58"/>
<polygon fill="midnightblue" stroke="midnightblue" points="236.86,-194.65 228.69,-201.4 239.28,-201.21 236.86,-194.65"/>
</g>
<!-- Node3 -->
<g id="node3" class="node">
<title>Node3</title>
<g id="a_node3"><a xlink:href="abcgVulkanInstance_8cpp.html" target="_top" xlink:title="Definition of abcg::VulkanInstance.">
<polygon fill="none" stroke="black" points="0,-0.5 0,-30.5 163,-30.5 163,-0.5 0,-0.5"/>
<text text-anchor="start" x="8" y="-18.5" font-family="Helvetica,sans-Serif" font-size="10.00">/home/harlen/dev/abcg</text>
<text text-anchor="middle" x="81.5" y="-7.5" font-family="Helvetica,sans-Serif" font-size="10.00">/abcg/abcgVulkanInstance.cpp</text>
</a>
</g>
</g>
<!-- Node2&#45;&gt;Node3 -->
<g id="edge2" class="edge">
<title>Node2&#45;&gt;Node3</title>
<path fill="none" stroke="midnightblue" d="M81.5,-57.11C81.5,-48.15 81.5,-38.32 81.5,-30.58"/>
<polygon fill="midnightblue" stroke="midnightblue" points="78,-57.4 81.5,-67.4 85,-57.4 78,-57.4"/>
</g>
<!-- Node4&#45;&gt;Node2 -->
<g id="edge4" class="edge">
<title>Node4&#45;&gt;Node2</title>
<path fill="none" stroke="midnightblue" d="M157.83,-129.02C140.86,-118.9 120.52,-106.77 105.11,-97.58"/>
<polygon fill="midnightblue" stroke="midnightblue" points="156.47,-132.28 166.85,-134.4 160.05,-126.27 156.47,-132.28"/>
</g>
<!-- Node5 -->
<g id="node5" class="node">
<title>Node5</title>
<g id="a_node5"><a xlink:href="abcgVulkanPipeline_8cpp.html" target="_top" xlink:title="Definition of abcg::VulkanPipeline.">
<polygon fill="none" stroke="black" points="164,-67.5 164,-97.5 325,-97.5 325,-67.5 164,-67.5"/>
<text text-anchor="start" x="172" y="-85.5" font-family="Helvetica,sans-Serif" font-size="10.00">/home/harlen/dev/abcg</text>
<text text-anchor="middle" x="244.5" y="-74.5" font-family="Helvetica,sans-Serif" font-size="10.00">/abcg/abcgVulkanPipeline.cpp</text>
</a>
</g>
</g>
<!-- Node4&#45;&gt;Node5 -->
<g id="edge5" class="edge">
<title>Node4&#45;&gt;Node5</title>
<path fill="none" stroke="midnightblue" d="M208.82,-126.45C216.75,-116.9 225.8,-106 232.81,-97.58"/>
<polygon fill="midnightblue" stroke="midnightblue" points="205.92,-124.47 202.22,-134.4 211.3,-128.94 205.92,-124.47"/>
</g>
</g>
</svg>
