<?xml version="1.0" encoding="UTF-8" standalone="no"?>
<!DOCTYPE svg PUBLIC "-//W3C//DTD SVG 1.1//EN"
 "http://www.w3.org/Graphics/SVG/1.1/DTD/svg11.dtd">
<!-- Generated by graphviz version 2.43.0 (0)
 -->
<!-- Title: /home/harlen/dev/abcg/abcg/abcgWindow.cpp Pages: 1 -->
<svg width="390pt" height="207pt"
 viewBox="0.00 0.00 390.00 207.00" xmlns="http://www.w3.org/2000/svg" xmlns:xlink="http://www.w3.org/1999/xlink">
<g id="graph0" class="graph" transform="scale(1 1) rotate(0) translate(4 203)">
<title>/home/harlen/dev/abcg/abcg/abcgWindow.cpp</title>
<!-- Node1 -->
<g id="node1" class="node">
<title>Node1</title>
<g id="a_node1"><a xlink:title="Definition of abcg::Window members.">
<polygon fill="#bfbfbf" stroke="black" points="155,-168.5 155,-198.5 283,-198.5 283,-168.5 155,-168.5"/>
<text text-anchor="start" x="163" y="-186.5" font-family="Helvetica,sans-Serif" font-size="10.00">/home/harlen/dev/abcg</text>
<text text-anchor="middle" x="219" y="-175.5" font-family="Helvetica,sans-Serif" font-size="10.00">/abcg/abcgWindow.cpp</text>
</a>
</g>
</g>
<!-- Node2 -->
<g id="node2" class="node">
<title>Node2</title>
<g id="a_node2"><a xlink:href="abcgWindow_8hpp.html" target="_top" xlink:title="Header file of abcg::Window.">
<polygon fill="none" stroke="black" points="63.5,-112.5 63.5,-131.5 162.5,-131.5 162.5,-112.5 63.5,-112.5"/>
<text text-anchor="middle" x="113" y="-119.5" font-family="Helvetica,sans-Serif" font-size="10.00">abcgWindow.hpp</text>
</a>
</g>
</g>
<!-- Node1&#45;&gt;Node2 -->
<g id="edge1" class="edge">
<title>Node1&#45;&gt;Node2</title>
<path fill="none" stroke="midnightblue" d="M193.88,-168.4C176.73,-158.77 154.14,-146.09 137.19,-136.58"/>
<polygon fill="midnightblue" stroke="midnightblue" points="138.86,-133.5 128.42,-131.66 135.43,-139.6 138.86,-133.5"/>
</g>
<!-- Node7 -->
<g id="node7" class="node">
<title>Node7</title>
<g id="a_node7"><a xlink:title=" ">
<polygon fill="none" stroke="#bfbfbf" points="180.5,-112.5 180.5,-131.5 257.5,-131.5 257.5,-112.5 180.5,-112.5"/>
<text text-anchor="middle" x="219" y="-119.5" font-family="Helvetica,sans-Serif" font-size="10.00">SDL_video.h</text>
</a>
</g>
</g>
<!-- Node1&#45;&gt;Node7 -->
<g id="edge6" class="edge">
<title>Node1&#45;&gt;Node7</title>
<path fill="none" stroke="midnightblue" d="M219,-168.4C219,-160.47 219,-150.46 219,-141.86"/>
<polygon fill="midnightblue" stroke="midnightblue" points="222.5,-141.66 219,-131.66 215.5,-141.66 222.5,-141.66"/>
</g>
<!-- Node8 -->
<g id="node8" class="node">
<title>Node8</title>
<g id="a_node8"><a xlink:title=" ">
<polygon fill="none" stroke="#bfbfbf" points="276,-112.5 276,-131.5 382,-131.5 382,-112.5 276,-112.5"/>
<text text-anchor="middle" x="329" y="-119.5" font-family="Helvetica,sans-Serif" font-size="10.00">imgui_impl_sdl2.h</text>
</a>
</g>
</g>
<!-- Node1&#45;&gt;Node8 -->
<g id="edge7" class="edge">
<title>Node1&#45;&gt;Node8</title>
<path fill="none" stroke="midnightblue" d="M245.07,-168.4C262.87,-158.77 286.31,-146.09 303.9,-136.58"/>
<polygon fill="midnightblue" stroke="midnightblue" points="305.86,-139.49 312.99,-131.66 302.53,-133.34 305.86,-139.49"/>
</g>
<!-- Node3 -->
<g id="node3" class="node">
<title>Node3</title>
<g id="a_node3"><a xlink:title=" ">
<polygon fill="none" stroke="#bfbfbf" points="0,-56.5 0,-75.5 44,-75.5 44,-56.5 0,-56.5"/>
<text text-anchor="middle" x="22" y="-63.5" font-family="Helvetica,sans-Serif" font-size="10.00">string</text>
</a>
</g>
</g>
<!-- Node2&#45;&gt;Node3 -->
<g id="edge2" class="edge">
<title>Node2&#45;&gt;Node3</title>
<path fill="none" stroke="midnightblue" d="M98.38,-112.32C84.05,-103.82 61.99,-90.73 45.25,-80.8"/>
<polygon fill="midnightblue" stroke="midnightblue" points="46.97,-77.75 36.58,-75.65 43.4,-83.77 46.97,-77.75"/>
</g>
<!-- Node4 -->
<g id="node4" class="node">
<title>Node4</title>
<g id="a_node4"><a xlink:href="abcgExternal_8hpp.html" target="_top" xlink:title="Header file for including third&#45;party dependencies.">
<polygon fill="none" stroke="black" points="62.5,-56.5 62.5,-75.5 163.5,-75.5 163.5,-56.5 62.5,-56.5"/>
<text text-anchor="middle" x="113" y="-63.5" font-family="Helvetica,sans-Serif" font-size="10.00">abcgExternal.hpp</text>
</a>
</g>
</g>
<!-- Node2&#45;&gt;Node4 -->
<g id="edge3" class="edge">
<title>Node2&#45;&gt;Node4</title>
<path fill="none" stroke="midnightblue" d="M113,-112.08C113,-105.01 113,-94.86 113,-85.99"/>
<polygon fill="midnightblue" stroke="midnightblue" points="116.5,-85.75 113,-75.75 109.5,-85.75 116.5,-85.75"/>
</g>
<!-- Node5 -->
<g id="node5" class="node">
<title>Node5</title>
<g id="a_node5"><a xlink:href="abcgTimer_8hpp.html" target="_top" xlink:title="Header file of abcg::Timer.">
<polygon fill="none" stroke="black" points="181.5,-56.5 181.5,-75.5 270.5,-75.5 270.5,-56.5 181.5,-56.5"/>
<text text-anchor="middle" x="226" y="-63.5" font-family="Helvetica,sans-Serif" font-size="10.00">abcgTimer.hpp</text>
</a>
</g>
</g>
<!-- Node2&#45;&gt;Node5 -->
<g id="edge4" class="edge">
<title>Node2&#45;&gt;Node5</title>
<path fill="none" stroke="midnightblue" d="M130.91,-112.44C149.25,-103.68 178.01,-89.94 199.09,-79.86"/>
<polygon fill="midnightblue" stroke="midnightblue" points="200.67,-82.99 208.18,-75.52 197.65,-76.67 200.67,-82.99"/>
</g>
<!-- Node6 -->
<g id="node6" class="node">
<title>Node6</title>
<g id="a_node6"><a xlink:title=" ">
<polygon fill="none" stroke="#bfbfbf" points="201,-0.5 201,-19.5 251,-19.5 251,-0.5 201,-0.5"/>
<text text-anchor="middle" x="226" y="-7.5" font-family="Helvetica,sans-Serif" font-size="10.00">chrono</text>
</a>
</g>
</g>
<!-- Node5&#45;&gt;Node6 -->
<g id="edge5" class="edge">
<title>Node5&#45;&gt;Node6</title>
<path fill="none" stroke="midnightblue" d="M226,-56.08C226,-49.01 226,-38.86 226,-29.99"/>
<polygon fill="midnightblue" stroke="midnightblue" points="229.5,-29.75 226,-19.75 222.5,-29.75 229.5,-29.75"/>
</g>
</g>
</svg>
