<?xml version="1.0" encoding="UTF-8" standalone="no"?>
<!DOCTYPE svg PUBLIC "-//W3C//DTD SVG 1.1//EN"
 "http://www.w3.org/Graphics/SVG/1.1/DTD/svg11.dtd">
<!-- Generated by graphviz version 2.43.0 (0)
 -->
<!-- Title: /home/harlen/dev/abcg2/abcg/abcg_vulkan_swapchain.hpp Pages: 1 -->
<svg width="380pt" height="173pt"
 viewBox="0.00 0.00 379.50 173.00" xmlns="http://www.w3.org/2000/svg" xmlns:xlink="http://www.w3.org/1999/xlink">
<g id="graph0" class="graph" transform="scale(1 1) rotate(0) translate(4 169)">
<title>/home/harlen/dev/abcg2/abcg/abcg_vulkan_swapchain.hpp</title>
<!-- Node1 -->
<g id="node1" class="node">
<title>Node1</title>
<g id="a_node1"><a xlink:title="Header file of abcg::VulkanSwapchain.">
<polygon fill="#bfbfbf" stroke="black" points="55.5,-134.5 55.5,-164.5 240.5,-164.5 240.5,-134.5 55.5,-134.5"/>
<text text-anchor="start" x="63.5" y="-152.5" font-family="Helvetica,sans-Serif" font-size="10.00">/home/harlen/dev/abcg2</text>
<text text-anchor="middle" x="148" y="-141.5" font-family="Helvetica,sans-Serif" font-size="10.00">/abcg/abcg_vulkan_swapchain.hpp</text>
</a>
</g>
</g>
<!-- Node2 -->
<g id="node2" class="node">
<title>Node2</title>
<g id="a_node2"><a xlink:href="abcg__vulkan__swapchain_8cpp.html" target="_top" xlink:title="Definition of abcg::VulkanSwapchain.">
<polygon fill="none" stroke="black" points="0,-0.5 0,-30.5 184,-30.5 184,-0.5 0,-0.5"/>
<text text-anchor="start" x="8" y="-18.5" font-family="Helvetica,sans-Serif" font-size="10.00">/home/harlen/dev/abcg2</text>
<text text-anchor="middle" x="92" y="-7.5" font-family="Helvetica,sans-Serif" font-size="10.00">/abcg/abcg_vulkan_swapchain.cpp</text>
</a>
</g>
</g>
<!-- Node1&#45;&gt;Node2 -->
<g id="edge1" class="edge">
<title>Node1&#45;&gt;Node2</title>
<path fill="none" stroke="midnightblue" d="M128.97,-126.6C122.44,-118.14 115.63,-108.07 111,-98 100.75,-75.69 95.75,-47.32 93.54,-30.61"/>
<polygon fill="midnightblue" stroke="midnightblue" points="126.3,-128.87 135.3,-134.47 131.76,-124.48 126.3,-128.87"/>
</g>
<!-- Node3 -->
<g id="node3" class="node">
<title>Node3</title>
<g id="a_node3"><a xlink:href="abcg__vulkan__window_8hpp.html" target="_top" xlink:title="Header file of abcg::VulkanWindow.">
<polygon fill="none" stroke="black" points="120,-67.5 120,-97.5 290,-97.5 290,-67.5 120,-67.5"/>
<text text-anchor="start" x="128" y="-85.5" font-family="Helvetica,sans-Serif" font-size="10.00">/home/harlen/dev/abcg2</text>
<text text-anchor="middle" x="205" y="-74.5" font-family="Helvetica,sans-Serif" font-size="10.00">/abcg/abcg_vulkan_window.hpp</text>
</a>
</g>
</g>
<!-- Node1&#45;&gt;Node3 -->
<g id="edge2" class="edge">
<title>Node1&#45;&gt;Node3</title>
<path fill="none" stroke="midnightblue" d="M167.09,-126.74C175.52,-117.12 185.19,-106.09 192.66,-97.58"/>
<polygon fill="midnightblue" stroke="midnightblue" points="164.33,-124.57 160.37,-134.4 169.59,-129.18 164.33,-124.57"/>
</g>
<!-- Node3&#45;&gt;Node2 -->
<g id="edge3" class="edge">
<title>Node3&#45;&gt;Node2</title>
<path fill="none" stroke="midnightblue" d="M171.61,-62.3C153.93,-52.12 132.6,-39.85 116.47,-30.58"/>
<polygon fill="midnightblue" stroke="midnightblue" points="170.07,-65.44 180.48,-67.4 173.56,-59.38 170.07,-65.44"/>
</g>
<!-- Node4 -->
<g id="node4" class="node">
<title>Node4</title>
<g id="a_node4"><a xlink:href="abcg__vulkan__window_8cpp.html" target="_top" xlink:title="Definition of abcg::VulkanWindow members.">
<polygon fill="none" stroke="black" points="202.5,-0.5 202.5,-30.5 371.5,-30.5 371.5,-0.5 202.5,-0.5"/>
<text text-anchor="start" x="210.5" y="-18.5" font-family="Helvetica,sans-Serif" font-size="10.00">/home/harlen/dev/abcg2</text>
<text text-anchor="middle" x="287" y="-7.5" font-family="Helvetica,sans-Serif" font-size="10.00">/abcg/abcg_vulkan_window.cpp</text>
</a>
</g>
</g>
<!-- Node3&#45;&gt;Node4 -->
<g id="edge4" class="edge">
<title>Node3&#45;&gt;Node4</title>
<path fill="none" stroke="midnightblue" d="M230.65,-61.17C243.19,-51.23 257.97,-39.51 269.24,-30.58"/>
<polygon fill="midnightblue" stroke="midnightblue" points="228.46,-58.44 222.79,-67.4 232.8,-63.93 228.46,-58.44"/>
</g>
</g>
</svg>
