<?xml version="1.0" encoding="UTF-8" standalone="no"?>
<!DOCTYPE svg PUBLIC "-//W3C//DTD SVG 1.1//EN"
 "http://www.w3.org/Graphics/SVG/1.1/DTD/svg11.dtd">
<!-- Generated by graphviz version 2.43.0 (0)
 -->
<!-- Title: /home/harlen/dev/abcg/abcg/abcgTimer.hpp Pages: 1 -->
<svg width="1177pt" height="307pt"
 viewBox="0.00 0.00 1176.58 307.00" xmlns="http://www.w3.org/2000/svg" xmlns:xlink="http://www.w3.org/1999/xlink">
<g id="graph0" class="graph" transform="scale(1 1) rotate(0) translate(4 303)">
<title>/home/harlen/dev/abcg/abcg/abcgTimer.hpp</title>
<!-- Node1 -->
<g id="node1" class="node">
<title>Node1</title>
<g id="a_node1"><a xlink:title="Header file of abcg::Timer.">
<polygon fill="#bfbfbf" stroke="black" points="405.08,-268.5 405.08,-298.5 533.08,-298.5 533.08,-268.5 405.08,-268.5"/>
<text text-anchor="start" x="413.08" y="-286.5" font-family="Helvetica,sans-Serif" font-size="10.00">/home/harlen/dev/abcg</text>
<text text-anchor="middle" x="469.08" y="-275.5" font-family="Helvetica,sans-Serif" font-size="10.00">/abcg/abcgTimer.hpp</text>
</a>
</g>
</g>
<!-- Node2 -->
<g id="node2" class="node">
<title>Node2</title>
<g id="a_node2"><a xlink:href="abcgTimer_8cpp.html" target="_top" xlink:title="Definition of abcg::Timer members.">
<polygon fill="none" stroke="black" points="259.08,-201.5 259.08,-231.5 387.08,-231.5 387.08,-201.5 259.08,-201.5"/>
<text text-anchor="start" x="267.08" y="-219.5" font-family="Helvetica,sans-Serif" font-size="10.00">/home/harlen/dev/abcg</text>
<text text-anchor="middle" x="323.08" y="-208.5" font-family="Helvetica,sans-Serif" font-size="10.00">/abcg/abcgTimer.cpp</text>
</a>
</g>
</g>
<!-- Node1&#45;&gt;Node2 -->
<g id="edge1" class="edge">
<title>Node1&#45;&gt;Node2</title>
<path fill="none" stroke="midnightblue" d="M428.13,-264.27C404.88,-253.92 376.21,-241.15 354.7,-231.58"/>
<polygon fill="midnightblue" stroke="midnightblue" points="426.84,-267.53 437.4,-268.4 429.69,-261.13 426.84,-267.53"/>
</g>
<!-- Node3 -->
<g id="node3" class="node">
<title>Node3</title>
<g id="a_node3"><a xlink:href="abcgTrackball_8hpp.html" target="_top" xlink:title="Header file of abcg::TrackBall.">
<polygon fill="none" stroke="black" points="886.08,-201.5 886.08,-231.5 1020.08,-231.5 1020.08,-201.5 886.08,-201.5"/>
<text text-anchor="start" x="894.08" y="-219.5" font-family="Helvetica,sans-Serif" font-size="10.00">/home/harlen/dev/abcg</text>
<text text-anchor="middle" x="953.08" y="-208.5" font-family="Helvetica,sans-Serif" font-size="10.00">/abcg/abcgTrackball.hpp</text>
</a>
</g>
</g>
<!-- Node1&#45;&gt;Node3 -->
<g id="edge2" class="edge">
<title>Node1&#45;&gt;Node3</title>
<path fill="none" stroke="midnightblue" d="M543.3,-272.53C636.71,-259.99 795.81,-238.62 885.82,-226.53"/>
<polygon fill="midnightblue" stroke="midnightblue" points="542.8,-269.07 533.35,-273.87 543.73,-276.01 542.8,-269.07"/>
</g>
<!-- Node10 -->
<g id="node10" class="node">
<title>Node10</title>
<g id="a_node10"><a xlink:href="abcgWindow_8hpp.html" target="_top" xlink:title="Header file of abcg::Window.">
<polygon fill="none" stroke="black" points="405.08,-201.5 405.08,-231.5 533.08,-231.5 533.08,-201.5 405.08,-201.5"/>
<text text-anchor="start" x="413.08" y="-219.5" font-family="Helvetica,sans-Serif" font-size="10.00">/home/harlen/dev/abcg</text>
<text text-anchor="middle" x="469.08" y="-208.5" font-family="Helvetica,sans-Serif" font-size="10.00">/abcg/abcgWindow.hpp</text>
</a>
</g>
</g>
<!-- Node1&#45;&gt;Node10 -->
<g id="edge9" class="edge">
<title>Node1&#45;&gt;Node10</title>
<path fill="none" stroke="midnightblue" d="M469.08,-258.11C469.08,-249.15 469.08,-239.32 469.08,-231.58"/>
<polygon fill="midnightblue" stroke="midnightblue" points="465.58,-258.4 469.08,-268.4 472.58,-258.4 465.58,-258.4"/>
</g>
<!-- Node4 -->
<g id="node4" class="node">
<title>Node4</title>
<g id="a_node4"><a xlink:href="abcg_8hpp.html" target="_top" xlink:title="Shortcut header that includes the most common ABCg headers.">
<polygon fill="none" stroke="black" points="889.08,-134.5 889.08,-164.5 1017.08,-164.5 1017.08,-134.5 889.08,-134.5"/>
<text text-anchor="start" x="897.08" y="-152.5" font-family="Helvetica,sans-Serif" font-size="10.00">/home/harlen/dev/abcg</text>
<text text-anchor="middle" x="953.08" y="-141.5" font-family="Helvetica,sans-Serif" font-size="10.00">/abcg/abcg.hpp</text>
</a>
</g>
</g>
<!-- Node3&#45;&gt;Node4 -->
<g id="edge3" class="edge">
<title>Node3&#45;&gt;Node4</title>
<path fill="none" stroke="midnightblue" d="M953.08,-191.11C953.08,-182.15 953.08,-172.32 953.08,-164.58"/>
<polygon fill="midnightblue" stroke="midnightblue" points="949.58,-191.4 953.08,-201.4 956.58,-191.4 949.58,-191.4"/>
</g>
<!-- Node9 -->
<g id="node9" class="node">
<title>Node9</title>
<g id="a_node9"><a xlink:href="abcgTrackball_8cpp.html" target="_top" xlink:title="Definition of abcg::TrackBall members.">
<polygon fill="none" stroke="black" points="1035.58,-134.5 1035.58,-164.5 1168.58,-164.5 1168.58,-134.5 1035.58,-134.5"/>
<text text-anchor="start" x="1043.58" y="-152.5" font-family="Helvetica,sans-Serif" font-size="10.00">/home/harlen/dev/abcg</text>
<text text-anchor="middle" x="1102.08" y="-141.5" font-family="Helvetica,sans-Serif" font-size="10.00">/abcg/abcgTrackball.cpp</text>
</a>
</g>
</g>
<!-- Node3&#45;&gt;Node9 -->
<g id="edge8" class="edge">
<title>Node3&#45;&gt;Node9</title>
<path fill="none" stroke="midnightblue" d="M994.87,-197.27C1018.6,-186.92 1047.86,-174.15 1069.81,-164.58"/>
<polygon fill="midnightblue" stroke="midnightblue" points="993.18,-194.19 985.41,-201.4 995.98,-200.61 993.18,-194.19"/>
</g>
<!-- Node5 -->
<g id="node5" class="node">
<title>Node5</title>
<g id="a_node5"><a xlink:href="abcgOpenGL_8hpp.html" target="_top" xlink:title="Header file for OpenGL&#45;related functions and classes.">
<polygon fill="none" stroke="black" points="889.08,-67.5 889.08,-97.5 1017.08,-97.5 1017.08,-67.5 889.08,-67.5"/>
<text text-anchor="start" x="897.08" y="-85.5" font-family="Helvetica,sans-Serif" font-size="10.00">/home/harlen/dev/abcg</text>
<text text-anchor="middle" x="953.08" y="-74.5" font-family="Helvetica,sans-Serif" font-size="10.00">/abcg/abcgOpenGL.hpp</text>
</a>
</g>
</g>
<!-- Node4&#45;&gt;Node5 -->
<g id="edge4" class="edge">
<title>Node4&#45;&gt;Node5</title>
<path fill="none" stroke="midnightblue" d="M953.08,-124.11C953.08,-115.15 953.08,-105.32 953.08,-97.58"/>
<polygon fill="midnightblue" stroke="midnightblue" points="949.58,-124.4 953.08,-134.4 956.58,-124.4 949.58,-124.4"/>
</g>
<!-- Node6 -->
<g id="node6" class="node">
<title>Node6</title>
<g id="a_node6"><a xlink:href="abcgVulkan_8hpp.html" target="_top" xlink:title="Header file for Vulkan&#45;related functions and classes.">
<polygon fill="none" stroke="black" points="743.08,-67.5 743.08,-97.5 871.08,-97.5 871.08,-67.5 743.08,-67.5"/>
<text text-anchor="start" x="751.08" y="-85.5" font-family="Helvetica,sans-Serif" font-size="10.00">/home/harlen/dev/abcg</text>
<text text-anchor="middle" x="807.08" y="-74.5" font-family="Helvetica,sans-Serif" font-size="10.00">/abcg/abcgVulkan.hpp</text>
</a>
</g>
</g>
<!-- Node4&#45;&gt;Node6 -->
<g id="edge5" class="edge">
<title>Node4&#45;&gt;Node6</title>
<path fill="none" stroke="midnightblue" d="M912.13,-130.27C888.88,-119.92 860.21,-107.15 838.7,-97.58"/>
<polygon fill="midnightblue" stroke="midnightblue" points="910.84,-133.53 921.4,-134.4 913.69,-127.13 910.84,-133.53"/>
</g>
<!-- Node7 -->
<g id="node7" class="node">
<title>Node7</title>
<g id="a_node7"><a xlink:href="abcgVulkanInstance_8cpp.html" target="_top" xlink:title="Definition of abcg::VulkanInstance.">
<polygon fill="none" stroke="black" points="216.58,-0.5 216.58,-30.5 379.58,-30.5 379.58,-0.5 216.58,-0.5"/>
<text text-anchor="start" x="224.58" y="-18.5" font-family="Helvetica,sans-Serif" font-size="10.00">/home/harlen/dev/abcg</text>
<text text-anchor="middle" x="298.08" y="-7.5" font-family="Helvetica,sans-Serif" font-size="10.00">/abcg/abcgVulkanInstance.cpp</text>
</a>
</g>
</g>
<!-- Node6&#45;&gt;Node7 -->
<g id="edge6" class="edge">
<title>Node6&#45;&gt;Node7</title>
<path fill="none" stroke="midnightblue" d="M732.97,-66.9C603.94,-46.94 465.5,-32.27 379.91,-23.99"/>
<polygon fill="midnightblue" stroke="midnightblue" points="732.62,-70.39 743.04,-68.48 733.7,-63.47 732.62,-70.39"/>
</g>
<!-- Node8 -->
<g id="node8" class="node">
<title>Node8</title>
<g id="a_node8"><a xlink:href="abcgVulkanPhysicalDevice_8cpp.html" target="_top" xlink:title="Definition of abcg::VulkanPhysicalDevice.">
<polygon fill="none" stroke="black" points="709.08,-0.5 709.08,-30.5 905.08,-30.5 905.08,-0.5 709.08,-0.5"/>
<text text-anchor="start" x="717.08" y="-18.5" font-family="Helvetica,sans-Serif" font-size="10.00">/home/harlen/dev/abcg</text>
<text text-anchor="middle" x="807.08" y="-7.5" font-family="Helvetica,sans-Serif" font-size="10.00">/abcg/abcgVulkanPhysicalDevice.cpp</text>
</a>
</g>
</g>
<!-- Node6&#45;&gt;Node8 -->
<g id="edge7" class="edge">
<title>Node6&#45;&gt;Node8</title>
<path fill="none" stroke="midnightblue" d="M807.08,-57.11C807.08,-48.15 807.08,-38.32 807.08,-30.58"/>
<polygon fill="midnightblue" stroke="midnightblue" points="803.58,-57.4 807.08,-67.4 810.58,-57.4 803.58,-57.4"/>
</g>
<!-- Node10&#45;&gt;Node4 -->
<g id="edge10" class="edge">
<title>Node10&#45;&gt;Node4</title>
<path fill="none" stroke="midnightblue" d="M543.39,-208.04C625.89,-199.37 762.88,-183.81 880.08,-165 883.02,-164.53 886.01,-164.03 889.04,-163.5"/>
<polygon fill="midnightblue" stroke="midnightblue" points="542.94,-204.57 533.36,-209.09 543.67,-211.53 542.94,-204.57"/>
</g>
<!-- Node10&#45;&gt;Node7 -->
<g id="edge16" class="edge">
<title>Node10&#45;&gt;Node7</title>
<path fill="none" stroke="midnightblue" d="M395.02,-200.97C214.86,-174.38 95.99,-249.35 6.08,-98 -0.96,-86.15 -2.79,-77.54 6.08,-67 32.55,-35.56 139.69,-23.7 216.51,-19.22"/>
<polygon fill="midnightblue" stroke="midnightblue" points="394.61,-204.45 405.03,-202.54 395.69,-197.53 394.61,-204.45"/>
</g>
<!-- Node11 -->
<g id="node11" class="node">
<title>Node11</title>
<g id="a_node11"><a xlink:href="abcgApplication_8cpp.html" target="_top" xlink:title="Definition of abcg::Application members.">
<polygon fill="none" stroke="black" points="397.08,-134.5 397.08,-164.5 541.08,-164.5 541.08,-134.5 397.08,-134.5"/>
<text text-anchor="start" x="405.08" y="-152.5" font-family="Helvetica,sans-Serif" font-size="10.00">/home/harlen/dev/abcg</text>
<text text-anchor="middle" x="469.08" y="-141.5" font-family="Helvetica,sans-Serif" font-size="10.00">/abcg/abcgApplication.cpp</text>
</a>
</g>
</g>
<!-- Node10&#45;&gt;Node11 -->
<g id="edge11" class="edge">
<title>Node10&#45;&gt;Node11</title>
<path fill="none" stroke="midnightblue" d="M469.08,-191.11C469.08,-182.15 469.08,-172.32 469.08,-164.58"/>
<polygon fill="midnightblue" stroke="midnightblue" points="465.58,-191.4 469.08,-201.4 472.58,-191.4 465.58,-191.4"/>
</g>
<!-- Node12 -->
<g id="node12" class="node">
<title>Node12</title>
<g id="a_node12"><a xlink:href="abcgOpenGLWindow_8cpp.html" target="_top" xlink:title="Definition of abcg::OpenGLWindow members.">
<polygon fill="none" stroke="black" points="559.58,-67.5 559.58,-97.5 724.58,-97.5 724.58,-67.5 559.58,-67.5"/>
<text text-anchor="start" x="567.58" y="-85.5" font-family="Helvetica,sans-Serif" font-size="10.00">/home/harlen/dev/abcg</text>
<text text-anchor="middle" x="642.08" y="-74.5" font-family="Helvetica,sans-Serif" font-size="10.00">/abcg/abcgOpenGLWindow.cpp</text>
</a>
</g>
</g>
<!-- Node10&#45;&gt;Node12 -->
<g id="edge12" class="edge">
<title>Node10&#45;&gt;Node12</title>
<path fill="none" stroke="midnightblue" d="M421.32,-196.45C408.19,-188.74 395.53,-178.42 388.08,-165 381.4,-152.95 379.34,-144.65 388.08,-134 393.66,-127.2 487.34,-109.84 559.32,-97.38"/>
<polygon fill="midnightblue" stroke="midnightblue" points="419.96,-199.69 430.42,-201.37 423.29,-193.54 419.96,-199.69"/>
</g>
<!-- Node13 -->
<g id="node13" class="node">
<title>Node13</title>
<g id="a_node13"><a xlink:href="abcgOpenGLWindow_8hpp.html" target="_top" xlink:title="Header file of abcg::OpenGLWindow.">
<polygon fill="none" stroke="black" points="705.08,-134.5 705.08,-164.5 871.08,-164.5 871.08,-134.5 705.08,-134.5"/>
<text text-anchor="start" x="713.08" y="-152.5" font-family="Helvetica,sans-Serif" font-size="10.00">/home/harlen/dev/abcg</text>
<text text-anchor="middle" x="788.08" y="-141.5" font-family="Helvetica,sans-Serif" font-size="10.00">/abcg/abcgOpenGLWindow.hpp</text>
</a>
</g>
</g>
<!-- Node10&#45;&gt;Node13 -->
<g id="edge13" class="edge">
<title>Node10&#45;&gt;Node13</title>
<path fill="none" stroke="midnightblue" d="M543.29,-200.38C596.43,-189.55 667.46,-175.08 719.32,-164.51"/>
<polygon fill="midnightblue" stroke="midnightblue" points="542.35,-197 533.25,-202.42 543.75,-203.86 542.35,-197"/>
</g>
<!-- Node14 -->
<g id="node14" class="node">
<title>Node14</title>
<g id="a_node14"><a xlink:href="abcgVulkanWindow_8cpp.html" target="_top" xlink:title="Definition of abcg::VulkanWindow members.">
<polygon fill="none" stroke="black" points="15.08,-67.5 15.08,-97.5 175.08,-97.5 175.08,-67.5 15.08,-67.5"/>
<text text-anchor="start" x="23.08" y="-85.5" font-family="Helvetica,sans-Serif" font-size="10.00">/home/harlen/dev/abcg</text>
<text text-anchor="middle" x="95.08" y="-74.5" font-family="Helvetica,sans-Serif" font-size="10.00">/abcg/abcgVulkanWindow.cpp</text>
</a>
</g>
</g>
<!-- Node10&#45;&gt;Node14 -->
<g id="edge17" class="edge">
<title>Node10&#45;&gt;Node14</title>
<path fill="none" stroke="midnightblue" d="M395,-200.94C293.64,-184.89 256.91,-211.58 170.08,-165 140.26,-149 115.99,-116.48 103.74,-97.72"/>
<polygon fill="midnightblue" stroke="midnightblue" points="394.57,-204.42 405.01,-202.63 395.74,-197.51 394.57,-204.42"/>
</g>
<!-- Node15 -->
<g id="node15" class="node">
<title>Node15</title>
<g id="a_node15"><a xlink:href="abcgVulkanWindow_8hpp.html" target="_top" xlink:title="Header file of abcg::VulkanWindow.">
<polygon fill="none" stroke="black" points="179.58,-134.5 179.58,-164.5 340.58,-164.5 340.58,-134.5 179.58,-134.5"/>
<text text-anchor="start" x="187.58" y="-152.5" font-family="Helvetica,sans-Serif" font-size="10.00">/home/harlen/dev/abcg</text>
<text text-anchor="middle" x="260.08" y="-141.5" font-family="Helvetica,sans-Serif" font-size="10.00">/abcg/abcgVulkanWindow.hpp</text>
</a>
</g>
</g>
<!-- Node10&#45;&gt;Node15 -->
<g id="edge18" class="edge">
<title>Node10&#45;&gt;Node15</title>
<path fill="none" stroke="midnightblue" d="M414.24,-198.44C380.36,-187.91 337.41,-174.55 305.45,-164.61"/>
<polygon fill="midnightblue" stroke="midnightblue" points="413.4,-201.85 423.99,-201.48 415.48,-195.16 413.4,-201.85"/>
</g>
<!-- Node18 -->
<g id="node18" class="node">
<title>Node18</title>
<g id="a_node18"><a xlink:href="abcgWindow_8cpp.html" target="_top" xlink:title="Definition of abcg::Window members.">
<polygon fill="none" stroke="black" points="559.08,-134.5 559.08,-164.5 687.08,-164.5 687.08,-134.5 559.08,-134.5"/>
<text text-anchor="start" x="567.08" y="-152.5" font-family="Helvetica,sans-Serif" font-size="10.00">/home/harlen/dev/abcg</text>
<text text-anchor="middle" x="623.08" y="-141.5" font-family="Helvetica,sans-Serif" font-size="10.00">/abcg/abcgWindow.cpp</text>
</a>
</g>
</g>
<!-- Node10&#45;&gt;Node18 -->
<g id="edge23" class="edge">
<title>Node10&#45;&gt;Node18</title>
<path fill="none" stroke="midnightblue" d="M511.95,-197.41C536.53,-187.03 566.94,-174.2 589.73,-164.58"/>
<polygon fill="midnightblue" stroke="midnightblue" points="510.35,-194.28 502.5,-201.4 513.07,-200.73 510.35,-194.28"/>
</g>
<!-- Node13&#45;&gt;Node5 -->
<g id="edge14" class="edge">
<title>Node13&#45;&gt;Node5</title>
<path fill="none" stroke="midnightblue" d="M833.31,-130.68C859.78,-120.26 892.72,-107.28 917.35,-97.58"/>
<polygon fill="midnightblue" stroke="midnightblue" points="831.9,-127.47 823.88,-134.4 834.47,-133.99 831.9,-127.47"/>
</g>
<!-- Node13&#45;&gt;Node12 -->
<g id="edge15" class="edge">
<title>Node13&#45;&gt;Node12</title>
<path fill="none" stroke="midnightblue" d="M747.13,-130.27C723.88,-119.92 695.21,-107.15 673.7,-97.58"/>
<polygon fill="midnightblue" stroke="midnightblue" points="745.84,-133.53 756.4,-134.4 748.69,-127.13 745.84,-133.53"/>
</g>
<!-- Node15&#45;&gt;Node6 -->
<g id="edge19" class="edge">
<title>Node15&#45;&gt;Node6</title>
<path fill="none" stroke="midnightblue" d="M350.66,-138.13C363.23,-136.73 375.98,-135.32 388.08,-134 541.78,-117.3 581.21,-121.09 734.08,-98 737.02,-97.56 740.02,-97.08 743.05,-96.57"/>
<polygon fill="midnightblue" stroke="midnightblue" points="350.19,-134.67 340.64,-139.26 350.97,-141.62 350.19,-134.67"/>
</g>
<!-- Node15&#45;&gt;Node14 -->
<g id="edge22" class="edge">
<title>Node15&#45;&gt;Node14</title>
<path fill="none" stroke="midnightblue" d="M214.85,-130.68C188.39,-120.26 155.45,-107.28 130.81,-97.58"/>
<polygon fill="midnightblue" stroke="midnightblue" points="213.69,-133.99 224.28,-134.4 216.26,-127.47 213.69,-133.99"/>
</g>
<!-- Node16 -->
<g id="node16" class="node">
<title>Node16</title>
<g id="a_node16"><a xlink:href="abcgVulkanShader_8cpp.html" target="_top" xlink:title="Definition of helper functions for creating Vulkan shaders.">
<polygon fill="none" stroke="black" points="193.58,-67.5 193.58,-97.5 348.58,-97.5 348.58,-67.5 193.58,-67.5"/>
<text text-anchor="start" x="201.58" y="-85.5" font-family="Helvetica,sans-Serif" font-size="10.00">/home/harlen/dev/abcg</text>
<text text-anchor="middle" x="271.08" y="-74.5" font-family="Helvetica,sans-Serif" font-size="10.00">/abcg/abcgVulkanShader.cpp</text>
</a>
</g>
</g>
<!-- Node15&#45;&gt;Node16 -->
<g id="edge20" class="edge">
<title>Node15&#45;&gt;Node16</title>
<path fill="none" stroke="midnightblue" d="M264.16,-124.4C265.69,-115.37 267.37,-105.41 268.7,-97.58"/>
<polygon fill="midnightblue" stroke="midnightblue" points="260.69,-123.95 262.47,-134.4 267.59,-125.12 260.69,-123.95"/>
</g>
<!-- Node17 -->
<g id="node17" class="node">
<title>Node17</title>
<g id="a_node17"><a xlink:href="abcgVulkanSwapchain_8cpp.html" target="_top" xlink:title="Definition of abcg::VulkanSwapchain.">
<polygon fill="none" stroke="black" points="367.08,-67.5 367.08,-97.5 541.08,-97.5 541.08,-67.5 367.08,-67.5"/>
<text text-anchor="start" x="375.08" y="-85.5" font-family="Helvetica,sans-Serif" font-size="10.00">/home/harlen/dev/abcg</text>
<text text-anchor="middle" x="454.08" y="-74.5" font-family="Helvetica,sans-Serif" font-size="10.00">/abcg/abcgVulkanSwapchain.cpp</text>
</a>
</g>
</g>
<!-- Node15&#45;&gt;Node17 -->
<g id="edge21" class="edge">
<title>Node15&#45;&gt;Node17</title>
<path fill="none" stroke="midnightblue" d="M312.04,-131.09C343.36,-120.6 382.72,-107.41 412.07,-97.58"/>
<polygon fill="midnightblue" stroke="midnightblue" points="310.55,-127.9 302.18,-134.4 312.77,-134.54 310.55,-127.9"/>
</g>
</g>
</svg>
