<?xml version="1.0" encoding="UTF-8" standalone="no"?>
<!DOCTYPE svg PUBLIC "-//W3C//DTD SVG 1.1//EN"
 "http://www.w3.org/Graphics/SVG/1.1/DTD/svg11.dtd">
<!-- Generated by graphviz version 2.43.0 (0)
 -->
<!-- Title: /home/harlen/dev/abcg/abcg/abcgVulkanBuffer.hpp Pages: 1 -->
<svg width="492pt" height="170pt"
 viewBox="0.00 0.00 491.50 170.00" xmlns="http://www.w3.org/2000/svg" xmlns:xlink="http://www.w3.org/1999/xlink">
<g id="graph0" class="graph" transform="scale(1 1) rotate(0) translate(4 166)">
<title>/home/harlen/dev/abcg/abcg/abcgVulkanBuffer.hpp</title>
<!-- Node1 -->
<g id="Node000001" class="node">
<title>Node1</title>
<g id="a_Node000001"><a xlink:title="Header file of abcg::VulkanBuffer.">
<polygon fill="#999999" stroke="#666666" points="314,-162 163,-162 163,-132 314,-132 314,-162"/>
<text text-anchor="start" x="171" y="-150" font-family="Helvetica,sans-Serif" font-size="10.00">/home/harlen/dev/abcg</text>
<text text-anchor="middle" x="238.5" y="-139" font-family="Helvetica,sans-Serif" font-size="10.00">/abcg/abcgVulkanBuffer.hpp</text>
</a>
</g>
</g>
<!-- Node2 -->
<g id="Node000002" class="node">
<title>Node2</title>
<g id="a_Node000002"><a xlink:href="abcgVulkan_8hpp.html" target="_top" xlink:title="Header file for Vulkan&#45;related functions and classes.">
<polygon fill="white" stroke="#666666" points="145.5,-96 17.5,-96 17.5,-66 145.5,-66 145.5,-96"/>
<text text-anchor="start" x="25.5" y="-84" font-family="Helvetica,sans-Serif" font-size="10.00">/home/harlen/dev/abcg</text>
<text text-anchor="middle" x="81.5" y="-73" font-family="Helvetica,sans-Serif" font-size="10.00">/abcg/abcgVulkan.hpp</text>
</a>
</g>
</g>
<!-- Node1&#45;&gt;Node2 -->
<g id="edge1_Node000001_Node000002" class="edge">
<title>Node1&#45;&gt;Node2</title>
<g id="a_edge1_Node000001_Node000002"><a xlink:title=" ">
<path fill="none" stroke="#63b8ff" d="M194.48,-128.05C169.6,-117.91 138.97,-105.43 115.87,-96.01"/>
<polygon fill="#63b8ff" stroke="#63b8ff" points="193.46,-131.42 204.05,-131.95 196.11,-124.94 193.46,-131.42"/>
</a>
</g>
</g>
<!-- Node4 -->
<g id="Node000004" class="node">
<title>Node4</title>
<g id="a_Node000004"><a xlink:href="abcgVulkanBuffer_8cpp.html" target="_top" xlink:title="Definition of abcg::VulkanBuffer.">
<polygon fill="white" stroke="#666666" points="313.5,-96 163.5,-96 163.5,-66 313.5,-66 313.5,-96"/>
<text text-anchor="start" x="171.5" y="-84" font-family="Helvetica,sans-Serif" font-size="10.00">/home/harlen/dev/abcg</text>
<text text-anchor="middle" x="238.5" y="-73" font-family="Helvetica,sans-Serif" font-size="10.00">/abcg/abcgVulkanBuffer.cpp</text>
</a>
</g>
</g>
<!-- Node1&#45;&gt;Node4 -->
<g id="edge3_Node000001_Node000004" class="edge">
<title>Node1&#45;&gt;Node4</title>
<g id="a_edge3_Node000001_Node000004"><a xlink:title=" ">
<path fill="none" stroke="#63b8ff" d="M238.5,-121.54C238.5,-112.96 238.5,-103.61 238.5,-96.16"/>
<polygon fill="#63b8ff" stroke="#63b8ff" points="235,-121.8 238.5,-131.8 242,-121.8 235,-121.8"/>
</a>
</g>
</g>
<!-- Node5 -->
<g id="Node000005" class="node">
<title>Node5</title>
<g id="a_Node000005"><a xlink:href="abcgVulkanImage_8cpp.html" target="_top" xlink:title="Definition of abcg::VulkanImage.">
<polygon fill="white" stroke="#666666" points="483.5,-96 331.5,-96 331.5,-66 483.5,-66 483.5,-96"/>
<text text-anchor="start" x="339.5" y="-84" font-family="Helvetica,sans-Serif" font-size="10.00">/home/harlen/dev/abcg</text>
<text text-anchor="middle" x="407.5" y="-73" font-family="Helvetica,sans-Serif" font-size="10.00">/abcg/abcgVulkanImage.cpp</text>
</a>
</g>
</g>
<!-- Node1&#45;&gt;Node5 -->
<g id="edge4_Node000001_Node000005" class="edge">
<title>Node1&#45;&gt;Node5</title>
<g id="a_edge4_Node000001_Node000005"><a xlink:title=" ">
<path fill="none" stroke="#63b8ff" d="M285.18,-128.32C312.08,-118.14 345.42,-105.51 370.5,-96.01"/>
<polygon fill="#63b8ff" stroke="#63b8ff" points="283.7,-125.14 275.59,-131.95 286.18,-131.69 283.7,-125.14"/>
</a>
</g>
</g>
<!-- Node3 -->
<g id="Node000003" class="node">
<title>Node3</title>
<g id="a_Node000003"><a xlink:href="abcgVulkanInstance_8cpp.html" target="_top" xlink:title="Definition of abcg::VulkanInstance.">
<polygon fill="white" stroke="#666666" points="163,-30 0,-30 0,0 163,0 163,-30"/>
<text text-anchor="start" x="8" y="-18" font-family="Helvetica,sans-Serif" font-size="10.00">/home/harlen/dev/abcg</text>
<text text-anchor="middle" x="81.5" y="-7" font-family="Helvetica,sans-Serif" font-size="10.00">/abcg/abcgVulkanInstance.cpp</text>
</a>
</g>
</g>
<!-- Node2&#45;&gt;Node3 -->
<g id="edge2_Node000002_Node000003" class="edge">
<title>Node2&#45;&gt;Node3</title>
<g id="a_edge2_Node000002_Node000003"><a xlink:title=" ">
<path fill="none" stroke="#63b8ff" d="M81.5,-55.54C81.5,-46.96 81.5,-37.61 81.5,-30.16"/>
<polygon fill="#63b8ff" stroke="#63b8ff" points="78,-55.8 81.5,-65.8 85,-55.8 78,-55.8"/>
</a>
</g>
</g>
</g>
</svg>
