<?xml version="1.0" encoding="UTF-8" standalone="no"?>
<!DOCTYPE svg PUBLIC "-//W3C//DTD SVG 1.1//EN"
 "http://www.w3.org/Graphics/SVG/1.1/DTD/svg11.dtd">
<!-- Generated by graphviz version 2.43.0 (0)
 -->
<!-- Title: /home/harlen/dev/abcg/abcg/abcg.hpp Pages: 1 -->
<svg width="641pt" height="207pt"
 viewBox="0.00 0.00 641.19 207.00" xmlns="http://www.w3.org/2000/svg" xmlns:xlink="http://www.w3.org/1999/xlink">
<g id="graph0" class="graph" transform="scale(1 1) rotate(0) translate(4 203)">
<title>/home/harlen/dev/abcg/abcg/abcg.hpp</title>
<!-- Node1 -->
<g id="node1" class="node">
<title>Node1</title>
<g id="a_node1"><a xlink:title="Shortcut header that includes the most common ABCg headers.">
<polygon fill="#bfbfbf" stroke="black" points="329.5,-168.5 329.5,-198.5 457.5,-198.5 457.5,-168.5 329.5,-168.5"/>
<text text-anchor="start" x="337.5" y="-186.5" font-family="Helvetica,sans-Serif" font-size="10.00">/home/harlen/dev/abcg</text>
<text text-anchor="middle" x="393.5" y="-175.5" font-family="Helvetica,sans-Serif" font-size="10.00">/abcg/abcg.hpp</text>
</a>
</g>
</g>
<!-- Node2 -->
<g id="node2" class="node">
<title>Node2</title>
<g id="a_node2"><a xlink:href="abcgApplication_8hpp.html" target="_top" xlink:title="Header file of abcg::Application.">
<polygon fill="none" stroke="black" points="167.5,-112.5 167.5,-131.5 283.5,-131.5 283.5,-112.5 167.5,-112.5"/>
<text text-anchor="middle" x="225.5" y="-119.5" font-family="Helvetica,sans-Serif" font-size="10.00">abcgApplication.hpp</text>
</a>
</g>
</g>
<!-- Node1&#45;&gt;Node2 -->
<g id="edge1" class="edge">
<title>Node1&#45;&gt;Node2</title>
<path fill="none" stroke="midnightblue" d="M353.69,-168.4C325,-158.24 286.69,-144.67 259.44,-135.02"/>
<polygon fill="midnightblue" stroke="midnightblue" points="260.54,-131.7 249.95,-131.66 258.2,-138.3 260.54,-131.7"/>
</g>
<!-- Node4 -->
<g id="node4" class="node">
<title>Node4</title>
<g id="a_node4"><a xlink:href="abcgException_8hpp.html" target="_top" xlink:title="Header file of abcg::Exception and derived classes.">
<polygon fill="none" stroke="black" points="40,-112.5 40,-131.5 149,-131.5 149,-112.5 40,-112.5"/>
<text text-anchor="middle" x="94.5" y="-119.5" font-family="Helvetica,sans-Serif" font-size="10.00">abcgException.hpp</text>
</a>
</g>
</g>
<!-- Node1&#45;&gt;Node4 -->
<g id="edge3" class="edge">
<title>Node1&#45;&gt;Node4</title>
<path fill="none" stroke="midnightblue" d="M329.36,-169.74C275.1,-158.94 198.28,-143.65 147.46,-133.54"/>
<polygon fill="midnightblue" stroke="midnightblue" points="147.83,-130.04 137.34,-131.53 146.47,-136.91 147.83,-130.04"/>
</g>
<!-- Node7 -->
<g id="node7" class="node">
<title>Node7</title>
<g id="a_node7"><a xlink:href="abcgExternal_8hpp.html" target="_top" xlink:title="Header file for including third&#45;party dependencies.">
<polygon fill="none" stroke="black" points="517,-56.5 517,-75.5 618,-75.5 618,-56.5 517,-56.5"/>
<text text-anchor="middle" x="567.5" y="-63.5" font-family="Helvetica,sans-Serif" font-size="10.00">abcgExternal.hpp</text>
</a>
</g>
</g>
<!-- Node1&#45;&gt;Node7 -->
<g id="edge7" class="edge">
<title>Node1&#45;&gt;Node7</title>
<path fill="none" stroke="midnightblue" d="M457.56,-177.62C519.61,-171.41 607.36,-158.17 628.5,-132 643.63,-113.27 617.85,-93.3 595.29,-80.52"/>
<polygon fill="midnightblue" stroke="midnightblue" points="596.72,-77.32 586.26,-75.66 593.41,-83.48 596.72,-77.32"/>
</g>
<!-- Node8 -->
<g id="node8" class="node">
<title>Node8</title>
<g id="a_node8"><a xlink:href="abcgTrackball_8hpp.html" target="_top" xlink:title="Header file of abcg::TrackBall.">
<polygon fill="none" stroke="black" points="515.5,-112.5 515.5,-131.5 619.5,-131.5 619.5,-112.5 515.5,-112.5"/>
<text text-anchor="middle" x="567.5" y="-119.5" font-family="Helvetica,sans-Serif" font-size="10.00">abcgTrackball.hpp</text>
</a>
</g>
</g>
<!-- Node1&#45;&gt;Node8 -->
<g id="edge8" class="edge">
<title>Node1&#45;&gt;Node8</title>
<path fill="none" stroke="midnightblue" d="M434.74,-168.4C464.67,-158.16 504.71,-144.47 532.97,-134.81"/>
<polygon fill="midnightblue" stroke="midnightblue" points="534.11,-138.12 542.44,-131.57 531.84,-131.49 534.11,-138.12"/>
</g>
<!-- Node11 -->
<g id="node11" class="node">
<title>Node11</title>
<g id="a_node11"><a xlink:href="abcgUtil_8hpp.html" target="_top" xlink:title="Declaration of general utility functions.">
<polygon fill="none" stroke="black" points="301.5,-112.5 301.5,-131.5 379.5,-131.5 379.5,-112.5 301.5,-112.5"/>
<text text-anchor="middle" x="340.5" y="-119.5" font-family="Helvetica,sans-Serif" font-size="10.00">abcgUtil.hpp</text>
</a>
</g>
</g>
<!-- Node1&#45;&gt;Node11 -->
<g id="edge12" class="edge">
<title>Node1&#45;&gt;Node11</title>
<path fill="none" stroke="midnightblue" d="M380.94,-168.4C373.16,-159.66 363.14,-148.41 355.02,-139.3"/>
<polygon fill="midnightblue" stroke="midnightblue" points="357.48,-136.8 348.21,-131.66 352.25,-141.45 357.48,-136.8"/>
</g>
<!-- Node13 -->
<g id="node13" class="node">
<title>Node13</title>
<g id="a_node13"><a xlink:href="abcgWindow_8hpp.html" target="_top" xlink:title="Header file of abcg::Window.">
<polygon fill="none" stroke="black" points="398,-112.5 398,-131.5 497,-131.5 497,-112.5 398,-112.5"/>
<text text-anchor="middle" x="447.5" y="-119.5" font-family="Helvetica,sans-Serif" font-size="10.00">abcgWindow.hpp</text>
</a>
</g>
</g>
<!-- Node1&#45;&gt;Node13 -->
<g id="edge15" class="edge">
<title>Node1&#45;&gt;Node13</title>
<path fill="none" stroke="midnightblue" d="M406.3,-168.4C414.22,-159.66 424.44,-148.41 432.71,-139.3"/>
<polygon fill="midnightblue" stroke="midnightblue" points="435.51,-141.42 439.64,-131.66 430.33,-136.71 435.51,-141.42"/>
</g>
<!-- Node3 -->
<g id="node3" class="node">
<title>Node3</title>
<g id="a_node3"><a xlink:title=" ">
<polygon fill="none" stroke="#bfbfbf" points="224.5,-56.5 224.5,-75.5 268.5,-75.5 268.5,-56.5 224.5,-56.5"/>
<text text-anchor="middle" x="246.5" y="-63.5" font-family="Helvetica,sans-Serif" font-size="10.00">string</text>
</a>
</g>
</g>
<!-- Node2&#45;&gt;Node3 -->
<g id="edge2" class="edge">
<title>Node2&#45;&gt;Node3</title>
<path fill="none" stroke="midnightblue" d="M228.97,-112.08C231.81,-104.77 235.93,-94.18 239.46,-85.1"/>
<polygon fill="midnightblue" stroke="midnightblue" points="242.73,-86.34 243.1,-75.75 236.21,-83.8 242.73,-86.34"/>
</g>
<!-- Node4&#45;&gt;Node3 -->
<g id="edge6" class="edge">
<title>Node4&#45;&gt;Node3</title>
<path fill="none" stroke="midnightblue" d="M118.58,-112.44C144.49,-103.24 185.82,-88.56 214.46,-78.38"/>
<polygon fill="midnightblue" stroke="midnightblue" points="215.76,-81.63 224.01,-74.99 213.42,-75.04 215.76,-81.63"/>
</g>
<!-- Node5 -->
<g id="node5" class="node">
<title>Node5</title>
<g id="a_node5"><a xlink:title=" ">
<polygon fill="none" stroke="#bfbfbf" points="0,-56.5 0,-75.5 93,-75.5 93,-56.5 0,-56.5"/>
<text text-anchor="middle" x="46.5" y="-63.5" font-family="Helvetica,sans-Serif" font-size="10.00">source_location</text>
</a>
</g>
</g>
<!-- Node4&#45;&gt;Node5 -->
<g id="edge4" class="edge">
<title>Node4&#45;&gt;Node5</title>
<path fill="none" stroke="midnightblue" d="M86.57,-112.08C79.65,-104.3 69.43,-92.8 61.05,-83.37"/>
<polygon fill="midnightblue" stroke="midnightblue" points="63.54,-80.9 54.28,-75.75 58.31,-85.55 63.54,-80.9"/>
</g>
<!-- Node6 -->
<g id="node6" class="node">
<title>Node6</title>
<g id="a_node6"><a xlink:title=" ">
<polygon fill="none" stroke="#bfbfbf" points="111,-56.5 111,-75.5 176,-75.5 176,-56.5 111,-56.5"/>
<text text-anchor="middle" x="143.5" y="-63.5" font-family="Helvetica,sans-Serif" font-size="10.00">stdexcept</text>
</a>
</g>
</g>
<!-- Node4&#45;&gt;Node6 -->
<g id="edge5" class="edge">
<title>Node4&#45;&gt;Node6</title>
<path fill="none" stroke="midnightblue" d="M102.59,-112.08C109.66,-104.3 120.09,-92.8 128.65,-83.37"/>
<polygon fill="midnightblue" stroke="midnightblue" points="131.43,-85.51 135.56,-75.75 126.25,-80.8 131.43,-85.51"/>
</g>
<!-- Node8&#45;&gt;Node7 -->
<g id="edge9" class="edge">
<title>Node8&#45;&gt;Node7</title>
<path fill="none" stroke="midnightblue" d="M567.5,-112.08C567.5,-105.01 567.5,-94.86 567.5,-85.99"/>
<polygon fill="midnightblue" stroke="midnightblue" points="571,-85.75 567.5,-75.75 564,-85.75 571,-85.75"/>
</g>
<!-- Node9 -->
<g id="node9" class="node">
<title>Node9</title>
<g id="a_node9"><a xlink:href="abcgTimer_8hpp.html" target="_top" xlink:title="Header file of abcg::Timer.">
<polygon fill="none" stroke="black" points="406,-56.5 406,-75.5 495,-75.5 495,-56.5 406,-56.5"/>
<text text-anchor="middle" x="450.5" y="-63.5" font-family="Helvetica,sans-Serif" font-size="10.00">abcgTimer.hpp</text>
</a>
</g>
</g>
<!-- Node8&#45;&gt;Node9 -->
<g id="edge10" class="edge">
<title>Node8&#45;&gt;Node9</title>
<path fill="none" stroke="midnightblue" d="M548.96,-112.44C529.88,-103.64 499.93,-89.81 478.06,-79.72"/>
<polygon fill="midnightblue" stroke="midnightblue" points="479.5,-76.53 468.95,-75.52 476.57,-82.88 479.5,-76.53"/>
</g>
<!-- Node10 -->
<g id="node10" class="node">
<title>Node10</title>
<g id="a_node10"><a xlink:title=" ">
<polygon fill="none" stroke="#bfbfbf" points="425.5,-0.5 425.5,-19.5 475.5,-19.5 475.5,-0.5 425.5,-0.5"/>
<text text-anchor="middle" x="450.5" y="-7.5" font-family="Helvetica,sans-Serif" font-size="10.00">chrono</text>
</a>
</g>
</g>
<!-- Node9&#45;&gt;Node10 -->
<g id="edge11" class="edge">
<title>Node9&#45;&gt;Node10</title>
<path fill="none" stroke="midnightblue" d="M450.5,-56.08C450.5,-49.01 450.5,-38.86 450.5,-29.99"/>
<polygon fill="midnightblue" stroke="midnightblue" points="454,-29.75 450.5,-19.75 447,-29.75 454,-29.75"/>
</g>
<!-- Node11&#45;&gt;Node3 -->
<g id="edge14" class="edge">
<title>Node11&#45;&gt;Node3</title>
<path fill="none" stroke="midnightblue" d="M325.4,-112.32C310.6,-103.82 287.81,-90.73 270.52,-80.8"/>
<polygon fill="midnightblue" stroke="midnightblue" points="271.98,-77.6 261.57,-75.65 268.49,-83.67 271.98,-77.6"/>
</g>
<!-- Node12 -->
<g id="node12" class="node">
<title>Node12</title>
<g id="a_node12"><a xlink:title=" ">
<polygon fill="none" stroke="#bfbfbf" points="308,-56.5 308,-75.5 373,-75.5 373,-56.5 308,-56.5"/>
<text text-anchor="middle" x="340.5" y="-63.5" font-family="Helvetica,sans-Serif" font-size="10.00">functional</text>
</a>
</g>
</g>
<!-- Node11&#45;&gt;Node12 -->
<g id="edge13" class="edge">
<title>Node11&#45;&gt;Node12</title>
<path fill="none" stroke="midnightblue" d="M340.5,-112.08C340.5,-105.01 340.5,-94.86 340.5,-85.99"/>
<polygon fill="midnightblue" stroke="midnightblue" points="344,-85.75 340.5,-75.75 337,-85.75 344,-85.75"/>
</g>
<!-- Node13&#45;&gt;Node3 -->
<g id="edge16" class="edge">
<title>Node13&#45;&gt;Node3</title>
<path fill="none" stroke="midnightblue" d="M415.65,-112.44C378.11,-102.36 316.09,-85.7 278.49,-75.6"/>
<polygon fill="midnightblue" stroke="midnightblue" points="279.14,-72.15 268.58,-72.93 277.33,-78.91 279.14,-72.15"/>
</g>
<!-- Node13&#45;&gt;Node7 -->
<g id="edge17" class="edge">
<title>Node13&#45;&gt;Node7</title>
<path fill="none" stroke="midnightblue" d="M466.51,-112.44C486.09,-103.64 516.81,-89.81 539.23,-79.72"/>
<polygon fill="midnightblue" stroke="midnightblue" points="540.89,-82.81 548.57,-75.52 538.02,-76.43 540.89,-82.81"/>
</g>
<!-- Node13&#45;&gt;Node9 -->
<g id="edge18" class="edge">
<title>Node13&#45;&gt;Node9</title>
<path fill="none" stroke="midnightblue" d="M448,-112.08C448.39,-105.01 448.95,-94.86 449.45,-85.99"/>
<polygon fill="midnightblue" stroke="midnightblue" points="452.95,-85.93 450.01,-75.75 445.96,-85.54 452.95,-85.93"/>
</g>
</g>
</svg>
