<?xml version="1.0" encoding="UTF-8" standalone="no"?>
<!DOCTYPE svg PUBLIC "-//W3C//DTD SVG 1.1//EN"
 "http://www.w3.org/Graphics/SVG/1.1/DTD/svg11.dtd">
<!-- Generated by graphviz version 2.43.0 (0)
 -->
<!-- Title: /home/harlen/dev/abcg/abcg/abcgVulkanError.hpp Pages: 1 -->
<svg width="321pt" height="148pt"
 viewBox="0.00 0.00 321.13 148.00" xmlns="http://www.w3.org/2000/svg" xmlns:xlink="http://www.w3.org/1999/xlink">
<g id="graph0" class="graph" transform="scale(1 1) rotate(0) translate(4 144)">
<title>/home/harlen/dev/abcg/abcg/abcgVulkanError.hpp</title>
<!-- Node1 -->
<g id="Node000001" class="node">
<title>Node1</title>
<g id="a_Node000001"><a xlink:title="Header file of abcg::VulkanError and derived classes.">
<polygon fill="#999999" stroke="#666666" points="155.63,-140 10.63,-140 10.63,-110 155.63,-110 155.63,-140"/>
<text text-anchor="start" x="18.63" y="-128" font-family="Helvetica,sans-Serif" font-size="10.00">/home/harlen/dev/abcg</text>
<text text-anchor="middle" x="83.13" y="-117" font-family="Helvetica,sans-Serif" font-size="10.00">/abcg/abcgVulkanError.hpp</text>
</a>
</g>
</g>
<!-- Node2 -->
<g id="Node000002" class="node">
<title>Node2</title>
<g id="a_Node000002"><a xlink:title=" ">
<polygon fill="#e0e0e0" stroke="#999999" points="117.63,-19 24.63,-19 24.63,0 117.63,0 117.63,-19"/>
<text text-anchor="middle" x="71.13" y="-7" font-family="Helvetica,sans-Serif" font-size="10.00">source_location</text>
</a>
</g>
</g>
<!-- Node1&#45;&gt;Node2 -->
<g id="edge1_Node000001_Node000002" class="edge">
<title>Node1&#45;&gt;Node2</title>
<g id="a_edge1_Node000001_Node000002"><a xlink:title=" ">
<path fill="none" stroke="#63b8ff" d="M44.94,-109.99C29.03,-102.03 12.18,-90.33 3.13,-74 -8.57,-52.89 16.55,-34.79 39.49,-23.38"/>
<polygon fill="#63b8ff" stroke="#63b8ff" points="41.17,-26.46 48.75,-19.05 38.21,-20.12 41.17,-26.46"/>
</a>
</g>
</g>
<!-- Node3 -->
<g id="Node000003" class="node">
<title>Node3</title>
<g id="a_Node000003"><a xlink:title=" ">
<polygon fill="#e0e0e0" stroke="#999999" points="59.63,-74 12.63,-74 12.63,-55 59.63,-55 59.63,-74"/>
<text text-anchor="middle" x="36.13" y="-62" font-family="Helvetica,sans-Serif" font-size="10.00">volk.h</text>
</a>
</g>
</g>
<!-- Node1&#45;&gt;Node3 -->
<g id="edge2_Node000001_Node000003" class="edge">
<title>Node1&#45;&gt;Node3</title>
<g id="a_edge2_Node000001_Node000003"><a xlink:title=" ">
<path fill="none" stroke="#63b8ff" d="M71.75,-109.84C65.06,-101.52 56.58,-90.96 49.57,-82.23"/>
<polygon fill="#63b8ff" stroke="#63b8ff" points="52.16,-79.87 43.17,-74.27 46.7,-84.25 52.16,-79.87"/>
</a>
</g>
</g>
<!-- Node4 -->
<g id="Node000004" class="node">
<title>Node4</title>
<g id="a_Node000004"><a xlink:title=" ">
<polygon fill="#e0e0e0" stroke="#999999" points="182.63,-74 77.63,-74 77.63,-55 182.63,-55 182.63,-74"/>
<text text-anchor="middle" x="130.13" y="-62" font-family="Helvetica,sans-Serif" font-size="10.00">vulkan/vulkan.hpp</text>
</a>
</g>
</g>
<!-- Node1&#45;&gt;Node4 -->
<g id="edge3_Node000001_Node000004" class="edge">
<title>Node1&#45;&gt;Node4</title>
<g id="a_edge3_Node000001_Node000004"><a xlink:title=" ">
<path fill="none" stroke="#63b8ff" d="M94.5,-109.84C101.19,-101.52 109.67,-90.96 116.68,-82.23"/>
<polygon fill="#63b8ff" stroke="#63b8ff" points="119.55,-84.25 123.08,-74.27 114.09,-79.87 119.55,-84.25"/>
</a>
</g>
</g>
<!-- Node5 -->
<g id="Node000005" class="node">
<title>Node5</title>
<g id="a_Node000005"><a xlink:href="abcgException_8hpp.html" target="_top" xlink:title="Header file of abcg::Exception and derived classes.">
<polygon fill="white" stroke="#666666" points="309.63,-74 200.63,-74 200.63,-55 309.63,-55 309.63,-74"/>
<text text-anchor="middle" x="255.13" y="-62" font-family="Helvetica,sans-Serif" font-size="10.00">abcgException.hpp</text>
</a>
</g>
</g>
<!-- Node1&#45;&gt;Node5 -->
<g id="edge4_Node000001_Node000005" class="edge">
<title>Node1&#45;&gt;Node5</title>
<g id="a_edge4_Node000001_Node000005"><a xlink:title=" ">
<path fill="none" stroke="#63b8ff" d="M124.32,-109.99C153.62,-100.02 192.54,-86.78 220.3,-77.35"/>
<polygon fill="#63b8ff" stroke="#63b8ff" points="221.64,-80.59 229.98,-74.05 219.38,-73.96 221.64,-80.59"/>
</a>
</g>
</g>
<!-- Node5&#45;&gt;Node2 -->
<g id="edge5_Node000005_Node000002" class="edge">
<title>Node5&#45;&gt;Node2</title>
<g id="a_edge5_Node000005_Node000002"><a xlink:title=" ">
<path fill="none" stroke="#63b8ff" d="M225.56,-54.98C194.4,-46.01 145.15,-31.82 110.67,-21.89"/>
<polygon fill="#63b8ff" stroke="#63b8ff" points="111.5,-18.49 100.92,-19.08 109.56,-25.21 111.5,-18.49"/>
</a>
</g>
</g>
<!-- Node6 -->
<g id="Node000006" class="node">
<title>Node6</title>
<g id="a_Node000006"><a xlink:title=" ">
<polygon fill="#e0e0e0" stroke="#999999" points="250.63,-19 185.63,-19 185.63,0 250.63,0 250.63,-19"/>
<text text-anchor="middle" x="218.13" y="-7" font-family="Helvetica,sans-Serif" font-size="10.00">stdexcept</text>
</a>
</g>
</g>
<!-- Node5&#45;&gt;Node6 -->
<g id="edge6_Node000005_Node000006" class="edge">
<title>Node5&#45;&gt;Node6</title>
<g id="a_edge6_Node000005_Node000006"><a xlink:title=" ">
<path fill="none" stroke="#63b8ff" d="M249.02,-54.75C243.84,-47.34 236.28,-36.5 229.93,-27.41"/>
<polygon fill="#63b8ff" stroke="#63b8ff" points="232.72,-25.29 224.12,-19.09 226.98,-29.29 232.72,-25.29"/>
</a>
</g>
</g>
<!-- Node7 -->
<g id="Node000007" class="node">
<title>Node7</title>
<g id="a_Node000007"><a xlink:title=" ">
<polygon fill="#e0e0e0" stroke="#999999" points="313.13,-19 269.13,-19 269.13,0 313.13,0 313.13,-19"/>
<text text-anchor="middle" x="291.13" y="-7" font-family="Helvetica,sans-Serif" font-size="10.00">string</text>
</a>
</g>
</g>
<!-- Node5&#45;&gt;Node7 -->
<g id="edge7_Node000005_Node000007" class="edge">
<title>Node5&#45;&gt;Node7</title>
<g id="a_edge7_Node000005_Node000007"><a xlink:title=" ">
<path fill="none" stroke="#63b8ff" d="M261.07,-54.75C266.1,-47.34 273.46,-36.5 279.64,-27.41"/>
<polygon fill="#63b8ff" stroke="#63b8ff" points="282.57,-29.33 285.29,-19.09 276.78,-25.39 282.57,-29.33"/>
</a>
</g>
</g>
</g>
</svg>
