<?xml version="1.0" encoding="UTF-8" standalone="no"?>
<!DOCTYPE svg PUBLIC "-//W3C//DTD SVG 1.1//EN"
 "http://www.w3.org/Graphics/SVG/1.1/DTD/svg11.dtd">
<!-- Generated by graphviz version 2.43.0 (0)
 -->
<!-- Title: /home/harlen/dev/abcg/abcg/abcgOpenGLShader.cpp Pages: 1 -->
<svg width="1009pt" height="207pt"
 viewBox="0.00 0.00 1008.50 207.00" xmlns="http://www.w3.org/2000/svg" xmlns:xlink="http://www.w3.org/1999/xlink">
<g id="graph0" class="graph" transform="scale(1 1) rotate(0) translate(4 203)">
<title>/home/harlen/dev/abcg/abcg/abcgOpenGLShader.cpp</title>
<!-- Node1 -->
<g id="node1" class="node">
<title>Node1</title>
<g id="a_node1"><a xlink:title="Definition of helper functions for building OpenGL shaders.">
<polygon fill="#bfbfbf" stroke="black" points="508.5,-168.5 508.5,-198.5 669.5,-198.5 669.5,-168.5 508.5,-168.5"/>
<text text-anchor="start" x="516.5" y="-186.5" font-family="Helvetica,sans-Serif" font-size="10.00">/home/harlen/dev/abcg</text>
<text text-anchor="middle" x="589" y="-175.5" font-family="Helvetica,sans-Serif" font-size="10.00">/abcg/abcgOpenGLShader.cpp</text>
</a>
</g>
</g>
<!-- Node2 -->
<g id="node2" class="node">
<title>Node2</title>
<g id="a_node2"><a xlink:href="abcgOpenGLShader_8hpp.html" target="_top" xlink:title="Declaration of helper functions for building OpenGL shaders.">
<polygon fill="none" stroke="black" points="134,-112.5 134,-131.5 266,-131.5 266,-112.5 134,-112.5"/>
<text text-anchor="middle" x="200" y="-119.5" font-family="Helvetica,sans-Serif" font-size="10.00">abcgOpenGLShader.hpp</text>
</a>
</g>
</g>
<!-- Node1&#45;&gt;Node2 -->
<g id="edge1" class="edge">
<title>Node1&#45;&gt;Node2</title>
<path fill="none" stroke="midnightblue" d="M508.4,-170.17C436.54,-159.18 332.64,-143.29 265.71,-133.05"/>
<polygon fill="midnightblue" stroke="midnightblue" points="266.12,-129.57 255.7,-131.52 265.06,-136.49 266.12,-129.57"/>
</g>
<!-- Node7 -->
<g id="node7" class="node">
<title>Node7</title>
<g id="a_node7"><a xlink:title=" ">
<polygon fill="none" stroke="#bfbfbf" points="270.5,-56.5 270.5,-75.5 317.5,-75.5 317.5,-56.5 270.5,-56.5"/>
<text text-anchor="middle" x="294" y="-63.5" font-family="Helvetica,sans-Serif" font-size="10.00">vector</text>
</a>
</g>
</g>
<!-- Node1&#45;&gt;Node7 -->
<g id="edge13" class="edge">
<title>Node1&#45;&gt;Node7</title>
<path fill="none" stroke="midnightblue" d="M508.48,-177.05C437.54,-170.63 341.22,-157.44 313,-132 300.06,-120.33 295.73,-100.39 294.39,-85.66"/>
<polygon fill="midnightblue" stroke="midnightblue" points="297.88,-85.43 293.84,-75.64 290.89,-85.81 297.88,-85.43"/>
</g>
<!-- Node8 -->
<g id="node8" class="node">
<title>Node8</title>
<g id="a_node8"><a xlink:title=" ">
<polygon fill="none" stroke="#bfbfbf" points="322.5,-112.5 322.5,-131.5 461.5,-131.5 461.5,-112.5 322.5,-112.5"/>
<text text-anchor="middle" x="392" y="-119.5" font-family="Helvetica,sans-Serif" font-size="10.00">cppitertools/itertools.hpp</text>
</a>
</g>
</g>
<!-- Node1&#45;&gt;Node8 -->
<g id="edge7" class="edge">
<title>Node1&#45;&gt;Node8</title>
<path fill="none" stroke="midnightblue" d="M542.31,-168.4C508.12,-158.07 462.29,-144.23 430.26,-134.56"/>
<polygon fill="midnightblue" stroke="midnightblue" points="430.96,-131.11 420.38,-131.57 428.94,-137.81 430.96,-131.11"/>
</g>
<!-- Node9 -->
<g id="node9" class="node">
<title>Node9</title>
<g id="a_node9"><a xlink:title=" ">
<polygon fill="none" stroke="#bfbfbf" points="479.5,-112.5 479.5,-131.5 546.5,-131.5 546.5,-112.5 479.5,-112.5"/>
<text text-anchor="middle" x="513" y="-119.5" font-family="Helvetica,sans-Serif" font-size="10.00">fmt/core.h</text>
</a>
</g>
</g>
<!-- Node1&#45;&gt;Node9 -->
<g id="edge8" class="edge">
<title>Node1&#45;&gt;Node9</title>
<path fill="none" stroke="midnightblue" d="M570.99,-168.4C559.26,-159.22 543.98,-147.26 532.06,-137.92"/>
<polygon fill="midnightblue" stroke="midnightblue" points="534.09,-135.07 524.06,-131.66 529.78,-140.58 534.09,-135.07"/>
</g>
<!-- Node10 -->
<g id="node10" class="node">
<title>Node10</title>
<g id="a_node10"><a xlink:title=" ">
<polygon fill="none" stroke="#bfbfbf" points="565,-112.5 565,-131.5 613,-131.5 613,-112.5 565,-112.5"/>
<text text-anchor="middle" x="589" y="-119.5" font-family="Helvetica,sans-Serif" font-size="10.00">gsl/gsl</text>
</a>
</g>
</g>
<!-- Node1&#45;&gt;Node10 -->
<g id="edge9" class="edge">
<title>Node1&#45;&gt;Node10</title>
<path fill="none" stroke="midnightblue" d="M589,-168.4C589,-160.47 589,-150.46 589,-141.86"/>
<polygon fill="midnightblue" stroke="midnightblue" points="592.5,-141.66 589,-131.66 585.5,-141.66 592.5,-141.66"/>
</g>
<!-- Node11 -->
<g id="node11" class="node">
<title>Node11</title>
<g id="a_node11"><a xlink:title=" ">
<polygon fill="none" stroke="#bfbfbf" points="631,-112.5 631,-131.5 699,-131.5 699,-112.5 631,-112.5"/>
<text text-anchor="middle" x="665" y="-119.5" font-family="Helvetica,sans-Serif" font-size="10.00">filesystem</text>
</a>
</g>
</g>
<!-- Node1&#45;&gt;Node11 -->
<g id="edge10" class="edge">
<title>Node1&#45;&gt;Node11</title>
<path fill="none" stroke="midnightblue" d="M607.01,-168.4C618.74,-159.22 634.02,-147.26 645.94,-137.92"/>
<polygon fill="midnightblue" stroke="midnightblue" points="648.22,-140.58 653.94,-131.66 643.91,-135.07 648.22,-140.58"/>
</g>
<!-- Node12 -->
<g id="node12" class="node">
<title>Node12</title>
<g id="a_node12"><a xlink:title=" ">
<polygon fill="none" stroke="#bfbfbf" points="717.5,-112.5 717.5,-131.5 772.5,-131.5 772.5,-112.5 717.5,-112.5"/>
<text text-anchor="middle" x="745" y="-119.5" font-family="Helvetica,sans-Serif" font-size="10.00">fstream</text>
</a>
</g>
</g>
<!-- Node1&#45;&gt;Node12 -->
<g id="edge11" class="edge">
<title>Node1&#45;&gt;Node12</title>
<path fill="none" stroke="midnightblue" d="M625.97,-168.4C652.38,-158.33 687.56,-144.91 712.81,-135.28"/>
<polygon fill="midnightblue" stroke="midnightblue" points="714.2,-138.49 722.3,-131.66 711.71,-131.95 714.2,-138.49"/>
</g>
<!-- Node13 -->
<g id="node13" class="node">
<title>Node13</title>
<g id="a_node13"><a xlink:title=" ">
<polygon fill="none" stroke="#bfbfbf" points="791,-112.5 791,-131.5 847,-131.5 847,-112.5 791,-112.5"/>
<text text-anchor="middle" x="819" y="-119.5" font-family="Helvetica,sans-Serif" font-size="10.00">sstream</text>
</a>
</g>
</g>
<!-- Node1&#45;&gt;Node13 -->
<g id="edge12" class="edge">
<title>Node1&#45;&gt;Node13</title>
<path fill="none" stroke="midnightblue" d="M643.22,-168.47C685.58,-157.51 743.4,-142.56 780.96,-132.84"/>
<polygon fill="midnightblue" stroke="midnightblue" points="782.18,-136.14 790.99,-130.25 780.43,-129.36 782.18,-136.14"/>
</g>
<!-- Node14 -->
<g id="node14" class="node">
<title>Node14</title>
<g id="a_node14"><a xlink:href="abcgException_8hpp.html" target="_top" xlink:title="Header file of abcg::Exception and derived classes.">
<polygon fill="none" stroke="black" points="865.5,-112.5 865.5,-131.5 974.5,-131.5 974.5,-112.5 865.5,-112.5"/>
<text text-anchor="middle" x="920" y="-119.5" font-family="Helvetica,sans-Serif" font-size="10.00">abcgException.hpp</text>
</a>
</g>
</g>
<!-- Node1&#45;&gt;Node14 -->
<g id="edge14" class="edge">
<title>Node1&#45;&gt;Node14</title>
<path fill="none" stroke="midnightblue" d="M667.02,-168.47C727,-157.69 808.47,-143.05 862.57,-133.32"/>
<polygon fill="midnightblue" stroke="midnightblue" points="863.46,-136.72 872.68,-131.51 862.22,-129.83 863.46,-136.72"/>
</g>
<!-- Node3 -->
<g id="node3" class="node">
<title>Node3</title>
<g id="a_node3"><a xlink:href="abcgOpenGLExternal_8hpp.html" target="_top" xlink:title="Header file for including OpenGL&#45;related third&#45;party dependencies.">
<polygon fill="none" stroke="black" points="0,-56.5 0,-75.5 140,-75.5 140,-56.5 0,-56.5"/>
<text text-anchor="middle" x="70" y="-63.5" font-family="Helvetica,sans-Serif" font-size="10.00">abcgOpenGLExternal.hpp</text>
</a>
</g>
</g>
<!-- Node2&#45;&gt;Node3 -->
<g id="edge2" class="edge">
<title>Node2&#45;&gt;Node3</title>
<path fill="none" stroke="midnightblue" d="M179.4,-112.44C158.01,-103.56 124.32,-89.56 99.98,-79.45"/>
<polygon fill="midnightblue" stroke="midnightblue" points="101.08,-76.12 90.5,-75.52 98.39,-82.58 101.08,-76.12"/>
</g>
<!-- Node4 -->
<g id="node4" class="node">
<title>Node4</title>
<g id="a_node4"><a xlink:href="abcgShader_8hpp.html" target="_top" xlink:title="Declaration of a structure for building shaders.">
<polygon fill="none" stroke="black" points="158,-56.5 158,-75.5 252,-75.5 252,-56.5 158,-56.5"/>
<text text-anchor="middle" x="205" y="-63.5" font-family="Helvetica,sans-Serif" font-size="10.00">abcgShader.hpp</text>
</a>
</g>
</g>
<!-- Node2&#45;&gt;Node4 -->
<g id="edge3" class="edge">
<title>Node2&#45;&gt;Node4</title>
<path fill="none" stroke="midnightblue" d="M200.83,-112.08C201.48,-105.01 202.42,-94.86 203.24,-85.99"/>
<polygon fill="midnightblue" stroke="midnightblue" points="206.75,-86.03 204.19,-75.75 199.78,-85.39 206.75,-86.03"/>
</g>
<!-- Node2&#45;&gt;Node7 -->
<g id="edge6" class="edge">
<title>Node2&#45;&gt;Node7</title>
<path fill="none" stroke="midnightblue" d="M215.1,-112.32C229.9,-103.82 252.69,-90.73 269.98,-80.8"/>
<polygon fill="midnightblue" stroke="midnightblue" points="272.01,-83.67 278.93,-75.65 268.52,-77.6 272.01,-83.67"/>
</g>
<!-- Node5 -->
<g id="node5" class="node">
<title>Node5</title>
<g id="a_node5"><a xlink:title=" ">
<polygon fill="none" stroke="#bfbfbf" points="177,-0.5 177,-19.5 233,-19.5 233,-0.5 177,-0.5"/>
<text text-anchor="middle" x="205" y="-7.5" font-family="Helvetica,sans-Serif" font-size="10.00">optional</text>
</a>
</g>
</g>
<!-- Node4&#45;&gt;Node5 -->
<g id="edge4" class="edge">
<title>Node4&#45;&gt;Node5</title>
<path fill="none" stroke="midnightblue" d="M205,-56.08C205,-49.01 205,-38.86 205,-29.99"/>
<polygon fill="midnightblue" stroke="midnightblue" points="208.5,-29.75 205,-19.75 201.5,-29.75 208.5,-29.75"/>
</g>
<!-- Node6 -->
<g id="node6" class="node">
<title>Node6</title>
<g id="a_node6"><a xlink:title=" ">
<polygon fill="none" stroke="#bfbfbf" points="488,-0.5 488,-19.5 532,-19.5 532,-0.5 488,-0.5"/>
<text text-anchor="middle" x="510" y="-7.5" font-family="Helvetica,sans-Serif" font-size="10.00">string</text>
</a>
</g>
</g>
<!-- Node4&#45;&gt;Node6 -->
<g id="edge5" class="edge">
<title>Node4&#45;&gt;Node6</title>
<path fill="none" stroke="midnightblue" d="M252.32,-56.62C314.91,-45.54 423.58,-26.3 477.6,-16.74"/>
<polygon fill="midnightblue" stroke="midnightblue" points="478.41,-20.15 487.64,-14.96 477.18,-13.26 478.41,-20.15"/>
</g>
<!-- Node14&#45;&gt;Node6 -->
<g id="edge17" class="edge">
<title>Node14&#45;&gt;Node6</title>
<path fill="none" stroke="midnightblue" d="M888.17,-112.46C811.8,-91.97 618.83,-40.2 542.15,-19.62"/>
<polygon fill="midnightblue" stroke="midnightblue" points="542.69,-16.15 532.12,-16.93 540.87,-22.91 542.69,-16.15"/>
</g>
<!-- Node15 -->
<g id="node15" class="node">
<title>Node15</title>
<g id="a_node15"><a xlink:title=" ">
<polygon fill="none" stroke="#bfbfbf" points="824.5,-56.5 824.5,-75.5 917.5,-75.5 917.5,-56.5 824.5,-56.5"/>
<text text-anchor="middle" x="871" y="-63.5" font-family="Helvetica,sans-Serif" font-size="10.00">source_location</text>
</a>
</g>
</g>
<!-- Node14&#45;&gt;Node15 -->
<g id="edge15" class="edge">
<title>Node14&#45;&gt;Node15</title>
<path fill="none" stroke="midnightblue" d="M911.91,-112.08C904.84,-104.3 894.41,-92.8 885.85,-83.37"/>
<polygon fill="midnightblue" stroke="midnightblue" points="888.25,-80.8 878.94,-75.75 883.07,-85.51 888.25,-80.8"/>
</g>
<!-- Node16 -->
<g id="node16" class="node">
<title>Node16</title>
<g id="a_node16"><a xlink:title=" ">
<polygon fill="none" stroke="#bfbfbf" points="935.5,-56.5 935.5,-75.5 1000.5,-75.5 1000.5,-56.5 935.5,-56.5"/>
<text text-anchor="middle" x="968" y="-63.5" font-family="Helvetica,sans-Serif" font-size="10.00">stdexcept</text>
</a>
</g>
</g>
<!-- Node14&#45;&gt;Node16 -->
<g id="edge16" class="edge">
<title>Node14&#45;&gt;Node16</title>
<path fill="none" stroke="midnightblue" d="M927.93,-112.08C934.85,-104.3 945.07,-92.8 953.45,-83.37"/>
<polygon fill="midnightblue" stroke="midnightblue" points="956.19,-85.55 960.22,-75.75 950.96,-80.9 956.19,-85.55"/>
</g>
</g>
</svg>
