<?xml version="1.0" encoding="UTF-8" standalone="no"?>
<!DOCTYPE svg PUBLIC "-//W3C//DTD SVG 1.1//EN"
 "http://www.w3.org/Graphics/SVG/1.1/DTD/svg11.dtd">
<!-- Generated by graphviz version 2.43.0 (0)
 -->
<!-- Title: /home/harlen/dev/abcg/abcg/abcg.hpp Pages: 1 -->
<svg width="686pt" height="207pt"
 viewBox="0.00 0.00 685.50 207.00" xmlns="http://www.w3.org/2000/svg" xmlns:xlink="http://www.w3.org/1999/xlink">
<g id="graph0" class="graph" transform="scale(1 1) rotate(0) translate(4 203)">
<title>/home/harlen/dev/abcg/abcg/abcg.hpp</title>
<!-- Node1 -->
<g id="node1" class="node">
<title>Node1</title>
<g id="a_node1"><a xlink:title="Shortcut header that includes the most common ABCg headers.">
<polygon fill="#bfbfbf" stroke="black" points="367.5,-168.5 367.5,-198.5 495.5,-198.5 495.5,-168.5 367.5,-168.5"/>
<text text-anchor="start" x="375.5" y="-186.5" font-family="Helvetica,sans-Serif" font-size="10.00">/home/harlen/dev/abcg</text>
<text text-anchor="middle" x="431.5" y="-175.5" font-family="Helvetica,sans-Serif" font-size="10.00">/abcg/abcg.hpp</text>
</a>
</g>
</g>
<!-- Node2 -->
<g id="node2" class="node">
<title>Node2</title>
<g id="a_node2"><a xlink:href="abcgApplication_8hpp.html" target="_top" xlink:title="Header file of abcg::Application.">
<polygon fill="none" stroke="black" points="187.5,-112.5 187.5,-131.5 303.5,-131.5 303.5,-112.5 187.5,-112.5"/>
<text text-anchor="middle" x="245.5" y="-119.5" font-family="Helvetica,sans-Serif" font-size="10.00">abcgApplication.hpp</text>
</a>
</g>
</g>
<!-- Node1&#45;&gt;Node2 -->
<g id="edge1" class="edge">
<title>Node1&#45;&gt;Node2</title>
<path fill="none" stroke="midnightblue" d="M387.42,-168.4C355.28,-158.12 312.24,-144.35 282.02,-134.68"/>
<polygon fill="midnightblue" stroke="midnightblue" points="282.88,-131.28 272.29,-131.57 280.75,-137.95 282.88,-131.28"/>
</g>
<!-- Node4 -->
<g id="node4" class="node">
<title>Node4</title>
<g id="a_node4"><a xlink:href="abcgException_8hpp.html" target="_top" xlink:title="Header file of abcg::Exception and derived classes.">
<polygon fill="none" stroke="black" points="60,-112.5 60,-131.5 169,-131.5 169,-112.5 60,-112.5"/>
<text text-anchor="middle" x="114.5" y="-119.5" font-family="Helvetica,sans-Serif" font-size="10.00">abcgException.hpp</text>
</a>
</g>
</g>
<!-- Node1&#45;&gt;Node4 -->
<g id="edge3" class="edge">
<title>Node1&#45;&gt;Node4</title>
<path fill="none" stroke="midnightblue" d="M367.35,-170.46C309.44,-159.59 225.12,-143.76 170.04,-133.42"/>
<polygon fill="midnightblue" stroke="midnightblue" points="170.58,-129.97 160.11,-131.56 169.29,-136.85 170.58,-129.97"/>
</g>
<!-- Node7 -->
<g id="node7" class="node">
<title>Node7</title>
<g id="a_node7"><a xlink:href="abcgExternal_8hpp.html" target="_top" xlink:title="Header file for including third&#45;party dependencies.">
<polygon fill="none" stroke="black" points="441,-56.5 441,-75.5 542,-75.5 542,-56.5 441,-56.5"/>
<text text-anchor="middle" x="491.5" y="-63.5" font-family="Helvetica,sans-Serif" font-size="10.00">abcgExternal.hpp</text>
</a>
</g>
</g>
<!-- Node1&#45;&gt;Node7 -->
<g id="edge7" class="edge">
<title>Node1&#45;&gt;Node7</title>
<path fill="none" stroke="midnightblue" d="M495.57,-170.86C517.37,-163.5 539.5,-151.51 552.5,-132 565.64,-112.28 541.24,-92.89 519.5,-80.5"/>
<polygon fill="midnightblue" stroke="midnightblue" points="520.93,-77.29 510.47,-75.63 517.61,-83.46 520.93,-77.29"/>
</g>
<!-- Node8 -->
<g id="node8" class="node">
<title>Node8</title>
<g id="a_node8"><a xlink:href="abcgTrackball_8hpp.html" target="_top" xlink:title="Header file of abcg::TrackBall.">
<polygon fill="none" stroke="black" points="439.5,-112.5 439.5,-131.5 543.5,-131.5 543.5,-112.5 439.5,-112.5"/>
<text text-anchor="middle" x="491.5" y="-119.5" font-family="Helvetica,sans-Serif" font-size="10.00">abcgTrackball.hpp</text>
</a>
</g>
</g>
<!-- Node1&#45;&gt;Node8 -->
<g id="edge8" class="edge">
<title>Node1&#45;&gt;Node8</title>
<path fill="none" stroke="midnightblue" d="M445.72,-168.4C454.71,-159.49 466.34,-147.95 475.63,-138.74"/>
<polygon fill="midnightblue" stroke="midnightblue" points="478.13,-141.18 482.77,-131.66 473.2,-136.21 478.13,-141.18"/>
</g>
<!-- Node11 -->
<g id="node11" class="node">
<title>Node11</title>
<g id="a_node11"><a xlink:href="abcgUtil_8hpp.html" target="_top" xlink:title="Declaration of general utility functions.">
<polygon fill="none" stroke="black" points="599.5,-112.5 599.5,-131.5 677.5,-131.5 677.5,-112.5 599.5,-112.5"/>
<text text-anchor="middle" x="638.5" y="-119.5" font-family="Helvetica,sans-Serif" font-size="10.00">abcgUtil.hpp</text>
</a>
</g>
</g>
<!-- Node1&#45;&gt;Node11 -->
<g id="edge12" class="edge">
<title>Node1&#45;&gt;Node11</title>
<path fill="none" stroke="midnightblue" d="M480.29,-168.47C516.47,-158.08 565.17,-144.08 598.94,-134.37"/>
<polygon fill="midnightblue" stroke="midnightblue" points="600.26,-137.63 608.91,-131.51 598.33,-130.91 600.26,-137.63"/>
</g>
<!-- Node13 -->
<g id="node13" class="node">
<title>Node13</title>
<g id="a_node13"><a xlink:href="abcgWindow_8hpp.html" target="_top" xlink:title="Header file of abcg::Window.">
<polygon fill="none" stroke="black" points="322,-112.5 322,-131.5 421,-131.5 421,-112.5 322,-112.5"/>
<text text-anchor="middle" x="371.5" y="-119.5" font-family="Helvetica,sans-Serif" font-size="10.00">abcgWindow.hpp</text>
</a>
</g>
</g>
<!-- Node1&#45;&gt;Node13 -->
<g id="edge14" class="edge">
<title>Node1&#45;&gt;Node13</title>
<path fill="none" stroke="midnightblue" d="M417.28,-168.4C408.29,-159.49 396.66,-147.95 387.37,-138.74"/>
<polygon fill="midnightblue" stroke="midnightblue" points="389.8,-136.21 380.23,-131.66 384.87,-141.18 389.8,-136.21"/>
</g>
<!-- Node3 -->
<g id="node3" class="node">
<title>Node3</title>
<g id="a_node3"><a xlink:title=" ">
<polygon fill="none" stroke="#bfbfbf" points="223.5,-56.5 223.5,-75.5 267.5,-75.5 267.5,-56.5 223.5,-56.5"/>
<text text-anchor="middle" x="245.5" y="-63.5" font-family="Helvetica,sans-Serif" font-size="10.00">string</text>
</a>
</g>
</g>
<!-- Node2&#45;&gt;Node3 -->
<g id="edge2" class="edge">
<title>Node2&#45;&gt;Node3</title>
<path fill="none" stroke="midnightblue" d="M245.5,-112.08C245.5,-105.01 245.5,-94.86 245.5,-85.99"/>
<polygon fill="midnightblue" stroke="midnightblue" points="249,-85.75 245.5,-75.75 242,-85.75 249,-85.75"/>
</g>
<!-- Node4&#45;&gt;Node3 -->
<g id="edge6" class="edge">
<title>Node4&#45;&gt;Node3</title>
<path fill="none" stroke="midnightblue" d="M135.26,-112.44C156.82,-103.56 190.76,-89.56 215.29,-79.45"/>
<polygon fill="midnightblue" stroke="midnightblue" points="216.93,-82.56 224.84,-75.52 214.26,-76.09 216.93,-82.56"/>
</g>
<!-- Node5 -->
<g id="node5" class="node">
<title>Node5</title>
<g id="a_node5"><a xlink:title=" ">
<polygon fill="none" stroke="#bfbfbf" points="0,-56.5 0,-75.5 93,-75.5 93,-56.5 0,-56.5"/>
<text text-anchor="middle" x="46.5" y="-63.5" font-family="Helvetica,sans-Serif" font-size="10.00">source_location</text>
</a>
</g>
</g>
<!-- Node4&#45;&gt;Node5 -->
<g id="edge4" class="edge">
<title>Node4&#45;&gt;Node5</title>
<path fill="none" stroke="midnightblue" d="M103.57,-112.32C93.33,-104.18 77.78,-91.84 65.5,-82.09"/>
<polygon fill="midnightblue" stroke="midnightblue" points="67.63,-79.31 57.62,-75.83 63.28,-84.79 67.63,-79.31"/>
</g>
<!-- Node6 -->
<g id="node6" class="node">
<title>Node6</title>
<g id="a_node6"><a xlink:title=" ">
<polygon fill="none" stroke="#bfbfbf" points="111,-56.5 111,-75.5 176,-75.5 176,-56.5 111,-56.5"/>
<text text-anchor="middle" x="143.5" y="-63.5" font-family="Helvetica,sans-Serif" font-size="10.00">stdexcept</text>
</a>
</g>
</g>
<!-- Node4&#45;&gt;Node6 -->
<g id="edge5" class="edge">
<title>Node4&#45;&gt;Node6</title>
<path fill="none" stroke="midnightblue" d="M119.29,-112.08C123.26,-104.69 129.03,-93.95 133.93,-84.81"/>
<polygon fill="midnightblue" stroke="midnightblue" points="137.15,-86.22 138.8,-75.75 130.99,-82.91 137.15,-86.22"/>
</g>
<!-- Node8&#45;&gt;Node7 -->
<g id="edge9" class="edge">
<title>Node8&#45;&gt;Node7</title>
<path fill="none" stroke="midnightblue" d="M491.5,-112.08C491.5,-105.01 491.5,-94.86 491.5,-85.99"/>
<polygon fill="midnightblue" stroke="midnightblue" points="495,-85.75 491.5,-75.75 488,-85.75 495,-85.75"/>
</g>
<!-- Node9 -->
<g id="node9" class="node">
<title>Node9</title>
<g id="a_node9"><a xlink:href="abcgTimer_8hpp.html" target="_top" xlink:title="Header file of abcg::Timer.">
<polygon fill="none" stroke="black" points="330,-56.5 330,-75.5 419,-75.5 419,-56.5 330,-56.5"/>
<text text-anchor="middle" x="374.5" y="-63.5" font-family="Helvetica,sans-Serif" font-size="10.00">abcgTimer.hpp</text>
</a>
</g>
</g>
<!-- Node8&#45;&gt;Node9 -->
<g id="edge10" class="edge">
<title>Node8&#45;&gt;Node9</title>
<path fill="none" stroke="midnightblue" d="M472.96,-112.44C453.88,-103.64 423.93,-89.81 402.06,-79.72"/>
<polygon fill="midnightblue" stroke="midnightblue" points="403.5,-76.53 392.95,-75.52 400.57,-82.88 403.5,-76.53"/>
</g>
<!-- Node10 -->
<g id="node10" class="node">
<title>Node10</title>
<g id="a_node10"><a xlink:title=" ">
<polygon fill="none" stroke="#bfbfbf" points="349.5,-0.5 349.5,-19.5 399.5,-19.5 399.5,-0.5 349.5,-0.5"/>
<text text-anchor="middle" x="374.5" y="-7.5" font-family="Helvetica,sans-Serif" font-size="10.00">chrono</text>
</a>
</g>
</g>
<!-- Node9&#45;&gt;Node10 -->
<g id="edge11" class="edge">
<title>Node9&#45;&gt;Node10</title>
<path fill="none" stroke="midnightblue" d="M374.5,-56.08C374.5,-49.01 374.5,-38.86 374.5,-29.99"/>
<polygon fill="midnightblue" stroke="midnightblue" points="378,-29.75 374.5,-19.75 371,-29.75 378,-29.75"/>
</g>
<!-- Node12 -->
<g id="node12" class="node">
<title>Node12</title>
<g id="a_node12"><a xlink:title=" ">
<polygon fill="none" stroke="#bfbfbf" points="606,-56.5 606,-75.5 671,-75.5 671,-56.5 606,-56.5"/>
<text text-anchor="middle" x="638.5" y="-63.5" font-family="Helvetica,sans-Serif" font-size="10.00">functional</text>
</a>
</g>
</g>
<!-- Node11&#45;&gt;Node12 -->
<g id="edge13" class="edge">
<title>Node11&#45;&gt;Node12</title>
<path fill="none" stroke="midnightblue" d="M638.5,-112.08C638.5,-105.01 638.5,-94.86 638.5,-85.99"/>
<polygon fill="midnightblue" stroke="midnightblue" points="642,-85.75 638.5,-75.75 635,-85.75 642,-85.75"/>
</g>
<!-- Node13&#45;&gt;Node3 -->
<g id="edge15" class="edge">
<title>Node13&#45;&gt;Node3</title>
<path fill="none" stroke="midnightblue" d="M351.53,-112.44C330.89,-103.6 298.44,-89.69 274.87,-79.59"/>
<polygon fill="midnightblue" stroke="midnightblue" points="275.94,-76.24 265.37,-75.52 273.18,-82.67 275.94,-76.24"/>
</g>
<!-- Node13&#45;&gt;Node7 -->
<g id="edge16" class="edge">
<title>Node13&#45;&gt;Node7</title>
<path fill="none" stroke="midnightblue" d="M390.51,-112.44C410.09,-103.64 440.81,-89.81 463.23,-79.72"/>
<polygon fill="midnightblue" stroke="midnightblue" points="464.89,-82.81 472.57,-75.52 462.02,-76.43 464.89,-82.81"/>
</g>
<!-- Node13&#45;&gt;Node9 -->
<g id="edge17" class="edge">
<title>Node13&#45;&gt;Node9</title>
<path fill="none" stroke="midnightblue" d="M372,-112.08C372.39,-105.01 372.95,-94.86 373.45,-85.99"/>
<polygon fill="midnightblue" stroke="midnightblue" points="376.95,-85.93 374.01,-75.75 369.96,-85.54 376.95,-85.93"/>
</g>
</g>
</svg>
