<?xml version="1.0" encoding="UTF-8" standalone="no"?>
<!DOCTYPE svg PUBLIC "-//W3C//DTD SVG 1.1//EN"
 "http://www.w3.org/Graphics/SVG/1.1/DTD/svg11.dtd">
<!-- Generated by graphviz version 2.43.0 (0)
 -->
<!-- Title: /home/harlen/dev/abcg/abcg/abcgVulkanImage.hpp Pages: 1 -->
<svg width="686pt" height="307pt"
 viewBox="0.00 0.00 685.50 307.00" xmlns="http://www.w3.org/2000/svg" xmlns:xlink="http://www.w3.org/1999/xlink">
<g id="graph0" class="graph" transform="scale(1 1) rotate(0) translate(4 303)">
<title>/home/harlen/dev/abcg/abcg/abcgVulkanImage.hpp</title>
<!-- Node1 -->
<g id="node1" class="node">
<title>Node1</title>
<g id="a_node1"><a xlink:title="Header file of abcg::VulkanImage.">
<polygon fill="#bfbfbf" stroke="black" points="260,-268.5 260,-298.5 413,-298.5 413,-268.5 260,-268.5"/>
<text text-anchor="start" x="268" y="-286.5" font-family="Helvetica,sans-Serif" font-size="10.00">/home/harlen/dev/abcg</text>
<text text-anchor="middle" x="336.5" y="-275.5" font-family="Helvetica,sans-Serif" font-size="10.00">/abcg/abcgVulkanImage.hpp</text>
</a>
</g>
</g>
<!-- Node2 -->
<g id="node2" class="node">
<title>Node2</title>
<g id="a_node2"><a xlink:href="abcgVulkan_8hpp.html" target="_top" xlink:title="Header file for Vulkan&#45;related functions and classes.">
<polygon fill="none" stroke="black" points="179.5,-67.5 179.5,-97.5 307.5,-97.5 307.5,-67.5 179.5,-67.5"/>
<text text-anchor="start" x="187.5" y="-85.5" font-family="Helvetica,sans-Serif" font-size="10.00">/home/harlen/dev/abcg</text>
<text text-anchor="middle" x="243.5" y="-74.5" font-family="Helvetica,sans-Serif" font-size="10.00">/abcg/abcgVulkan.hpp</text>
</a>
</g>
</g>
<!-- Node1&#45;&gt;Node2 -->
<g id="edge1" class="edge">
<title>Node1&#45;&gt;Node2</title>
<path fill="none" stroke="midnightblue" d="M280.73,-264.75C236.55,-247.28 178.28,-215.73 153.5,-165 147.45,-152.62 146.54,-145.89 153.5,-134 163.37,-117.15 181.15,-105.49 198.32,-97.66"/>
<polygon fill="midnightblue" stroke="midnightblue" points="279.62,-268.08 290.21,-268.38 282.11,-261.54 279.62,-268.08"/>
</g>
<!-- Node4 -->
<g id="node4" class="node">
<title>Node4</title>
<g id="a_node4"><a xlink:href="abcgVulkanImage_8cpp.html" target="_top" xlink:title="Definition of abcg::VulkanImage.">
<polygon fill="none" stroke="black" points="442.5,-201.5 442.5,-231.5 594.5,-231.5 594.5,-201.5 442.5,-201.5"/>
<text text-anchor="start" x="450.5" y="-219.5" font-family="Helvetica,sans-Serif" font-size="10.00">/home/harlen/dev/abcg</text>
<text text-anchor="middle" x="518.5" y="-208.5" font-family="Helvetica,sans-Serif" font-size="10.00">/abcg/abcgVulkanImage.cpp</text>
</a>
</g>
</g>
<!-- Node1&#45;&gt;Node4 -->
<g id="edge3" class="edge">
<title>Node1&#45;&gt;Node4</title>
<path fill="none" stroke="midnightblue" d="M385.63,-264.96C414.94,-254.48 451.68,-241.37 479.09,-231.58"/>
<polygon fill="midnightblue" stroke="midnightblue" points="384.23,-261.74 375.99,-268.4 386.59,-268.33 384.23,-261.74"/>
</g>
<!-- Node5 -->
<g id="node5" class="node">
<title>Node5</title>
<g id="a_node5"><a xlink:href="abcgVulkanSwapchain_8hpp.html" target="_top" xlink:title="Header file of abcg::VulkanSwapchain.">
<polygon fill="none" stroke="black" points="249,-201.5 249,-231.5 424,-231.5 424,-201.5 249,-201.5"/>
<text text-anchor="start" x="257" y="-219.5" font-family="Helvetica,sans-Serif" font-size="10.00">/home/harlen/dev/abcg</text>
<text text-anchor="middle" x="336.5" y="-208.5" font-family="Helvetica,sans-Serif" font-size="10.00">/abcg/abcgVulkanSwapchain.hpp</text>
</a>
</g>
</g>
<!-- Node1&#45;&gt;Node5 -->
<g id="edge4" class="edge">
<title>Node1&#45;&gt;Node5</title>
<path fill="none" stroke="midnightblue" d="M336.5,-258.11C336.5,-249.15 336.5,-239.32 336.5,-231.58"/>
<polygon fill="midnightblue" stroke="midnightblue" points="333,-258.4 336.5,-268.4 340,-258.4 333,-258.4"/>
</g>
<!-- Node3 -->
<g id="node3" class="node">
<title>Node3</title>
<g id="a_node3"><a xlink:href="abcgVulkanInstance_8cpp.html" target="_top" xlink:title="Definition of abcg::VulkanInstance.">
<polygon fill="none" stroke="black" points="162,-0.5 162,-30.5 325,-30.5 325,-0.5 162,-0.5"/>
<text text-anchor="start" x="170" y="-18.5" font-family="Helvetica,sans-Serif" font-size="10.00">/home/harlen/dev/abcg</text>
<text text-anchor="middle" x="243.5" y="-7.5" font-family="Helvetica,sans-Serif" font-size="10.00">/abcg/abcgVulkanInstance.cpp</text>
</a>
</g>
</g>
<!-- Node2&#45;&gt;Node3 -->
<g id="edge2" class="edge">
<title>Node2&#45;&gt;Node3</title>
<path fill="none" stroke="midnightblue" d="M243.5,-57.11C243.5,-48.15 243.5,-38.32 243.5,-30.58"/>
<polygon fill="midnightblue" stroke="midnightblue" points="240,-57.4 243.5,-67.4 247,-57.4 240,-57.4"/>
</g>
<!-- Node6 -->
<g id="node6" class="node">
<title>Node6</title>
<g id="a_node6"><a xlink:href="abcgVulkanPipeline_8hpp.html" target="_top" xlink:title="Header file of abcg::VulkanPipeline.">
<polygon fill="none" stroke="black" points="163,-134.5 163,-164.5 324,-164.5 324,-134.5 163,-134.5"/>
<text text-anchor="start" x="171" y="-152.5" font-family="Helvetica,sans-Serif" font-size="10.00">/home/harlen/dev/abcg</text>
<text text-anchor="middle" x="243.5" y="-141.5" font-family="Helvetica,sans-Serif" font-size="10.00">/abcg/abcgVulkanPipeline.hpp</text>
</a>
</g>
</g>
<!-- Node5&#45;&gt;Node6 -->
<g id="edge5" class="edge">
<title>Node5&#45;&gt;Node6</title>
<path fill="none" stroke="midnightblue" d="M307.81,-195.45C293.51,-185.45 276.55,-173.6 263.64,-164.58"/>
<polygon fill="midnightblue" stroke="midnightblue" points="306.12,-198.54 316.32,-201.4 310.13,-192.8 306.12,-198.54"/>
</g>
<!-- Node8 -->
<g id="node8" class="node">
<title>Node8</title>
<g id="a_node8"><a xlink:href="abcgVulkanSwapchain_8cpp.html" target="_top" xlink:title="Definition of abcg::VulkanSwapchain.">
<polygon fill="none" stroke="black" points="503.5,-67.5 503.5,-97.5 677.5,-97.5 677.5,-67.5 503.5,-67.5"/>
<text text-anchor="start" x="511.5" y="-85.5" font-family="Helvetica,sans-Serif" font-size="10.00">/home/harlen/dev/abcg</text>
<text text-anchor="middle" x="590.5" y="-74.5" font-family="Helvetica,sans-Serif" font-size="10.00">/abcg/abcgVulkanSwapchain.cpp</text>
</a>
</g>
</g>
<!-- Node5&#45;&gt;Node8 -->
<g id="edge8" class="edge">
<title>Node5&#45;&gt;Node8</title>
<path fill="none" stroke="midnightblue" d="M428.48,-198.86C456.74,-191.24 487.06,-180.36 512.5,-165 541.67,-147.38 567.22,-116.06 580.6,-97.81"/>
<polygon fill="midnightblue" stroke="midnightblue" points="427.39,-195.53 418.59,-201.42 429.14,-202.3 427.39,-195.53"/>
</g>
<!-- Node9 -->
<g id="node9" class="node">
<title>Node9</title>
<g id="a_node9"><a xlink:href="abcgVulkanWindow_8hpp.html" target="_top" xlink:title="Header file of abcg::VulkanWindow.">
<polygon fill="none" stroke="black" points="342,-134.5 342,-164.5 503,-164.5 503,-134.5 342,-134.5"/>
<text text-anchor="start" x="350" y="-152.5" font-family="Helvetica,sans-Serif" font-size="10.00">/home/harlen/dev/abcg</text>
<text text-anchor="middle" x="422.5" y="-141.5" font-family="Helvetica,sans-Serif" font-size="10.00">/abcg/abcgVulkanWindow.hpp</text>
</a>
</g>
</g>
<!-- Node5&#45;&gt;Node9 -->
<g id="edge9" class="edge">
<title>Node5&#45;&gt;Node9</title>
<path fill="none" stroke="midnightblue" d="M363.4,-195.17C376.55,-185.23 392.05,-173.51 403.88,-164.58"/>
<polygon fill="midnightblue" stroke="midnightblue" points="361.03,-192.57 355.16,-201.4 365.25,-198.16 361.03,-192.57"/>
</g>
<!-- Node6&#45;&gt;Node2 -->
<g id="edge6" class="edge">
<title>Node6&#45;&gt;Node2</title>
<path fill="none" stroke="midnightblue" d="M243.5,-124.11C243.5,-115.15 243.5,-105.32 243.5,-97.58"/>
<polygon fill="midnightblue" stroke="midnightblue" points="240,-124.4 243.5,-134.4 247,-124.4 240,-124.4"/>
</g>
<!-- Node7 -->
<g id="node7" class="node">
<title>Node7</title>
<g id="a_node7"><a xlink:href="abcgVulkanPipeline_8cpp.html" target="_top" xlink:title="Definition of abcg::VulkanPipeline.">
<polygon fill="none" stroke="black" points="0,-67.5 0,-97.5 161,-97.5 161,-67.5 0,-67.5"/>
<text text-anchor="start" x="8" y="-85.5" font-family="Helvetica,sans-Serif" font-size="10.00">/home/harlen/dev/abcg</text>
<text text-anchor="middle" x="80.5" y="-74.5" font-family="Helvetica,sans-Serif" font-size="10.00">/abcg/abcgVulkanPipeline.cpp</text>
</a>
</g>
</g>
<!-- Node6&#45;&gt;Node7 -->
<g id="edge7" class="edge">
<title>Node6&#45;&gt;Node7</title>
<path fill="none" stroke="midnightblue" d="M198.82,-130.68C172.67,-120.26 140.13,-107.28 115.8,-97.58"/>
<polygon fill="midnightblue" stroke="midnightblue" points="197.55,-133.94 208.13,-134.4 200.14,-127.44 197.55,-133.94"/>
</g>
<!-- Node9&#45;&gt;Node2 -->
<g id="edge10" class="edge">
<title>Node9&#45;&gt;Node2</title>
<path fill="none" stroke="midnightblue" d="M374.18,-130.96C345.35,-120.48 309.22,-107.37 282.26,-97.58"/>
<polygon fill="midnightblue" stroke="midnightblue" points="373.07,-134.27 383.66,-134.4 375.45,-127.69 373.07,-134.27"/>
</g>
<!-- Node9&#45;&gt;Node8 -->
<g id="edge11" class="edge">
<title>Node9&#45;&gt;Node8</title>
<path fill="none" stroke="midnightblue" d="M468.55,-130.68C495.5,-120.26 529.04,-107.28 554.12,-97.58"/>
<polygon fill="midnightblue" stroke="midnightblue" points="467.02,-127.52 458.95,-134.4 469.54,-134.05 467.02,-127.52"/>
</g>
<!-- Node10 -->
<g id="node10" class="node">
<title>Node10</title>
<g id="a_node10"><a xlink:href="abcgVulkanWindow_8cpp.html" target="_top" xlink:title="Definition of abcg::VulkanWindow members.">
<polygon fill="none" stroke="black" points="325.5,-67.5 325.5,-97.5 485.5,-97.5 485.5,-67.5 325.5,-67.5"/>
<text text-anchor="start" x="333.5" y="-85.5" font-family="Helvetica,sans-Serif" font-size="10.00">/home/harlen/dev/abcg</text>
<text text-anchor="middle" x="405.5" y="-74.5" font-family="Helvetica,sans-Serif" font-size="10.00">/abcg/abcgVulkanWindow.cpp</text>
</a>
</g>
</g>
<!-- Node9&#45;&gt;Node10 -->
<g id="edge12" class="edge">
<title>Node9&#45;&gt;Node10</title>
<path fill="none" stroke="midnightblue" d="M416.27,-124.7C413.89,-115.59 411.25,-105.49 409.18,-97.58"/>
<polygon fill="midnightblue" stroke="midnightblue" points="412.89,-125.61 418.81,-134.4 419.67,-123.84 412.89,-125.61"/>
</g>
</g>
</svg>
