<?xml version="1.0" encoding="UTF-8" standalone="no"?>
<!DOCTYPE svg PUBLIC "-//W3C//DTD SVG 1.1//EN"
 "http://www.w3.org/Graphics/SVG/1.1/DTD/svg11.dtd">
<!-- Generated by graphviz version 2.43.0 (0)
 -->
<!-- Title: /home/harlen/dev/abcg/abcg/abcgOpenGLImage.hpp Pages: 1 -->
<svg width="270pt" height="93pt"
 viewBox="0.00 0.00 270.00 93.00" xmlns="http://www.w3.org/2000/svg" xmlns:xlink="http://www.w3.org/1999/xlink">
<g id="graph0" class="graph" transform="scale(1 1) rotate(0) translate(4 89)">
<title>/home/harlen/dev/abcg/abcg/abcgOpenGLImage.hpp</title>
<!-- Node1 -->
<g id="Node000001" class="node">
<title>Node1</title>
<g id="a_Node000001"><a xlink:title="Declaration of OpenGL texture loading helper functions.">
<polygon fill="#999999" stroke="#666666" points="258.5,-85 99.5,-85 99.5,-55 258.5,-55 258.5,-85"/>
<text text-anchor="start" x="107.5" y="-73" font-family="Helvetica,sans-Serif" font-size="10.00">/home/harlen/dev/abcg</text>
<text text-anchor="middle" x="179" y="-62" font-family="Helvetica,sans-Serif" font-size="10.00">/abcg/abcgOpenGLImage.hpp</text>
</a>
</g>
</g>
<!-- Node2 -->
<g id="Node000002" class="node">
<title>Node2</title>
<g id="a_Node000002"><a xlink:href="abcgOpenGLExternal_8hpp.html" target="_top" xlink:title="Header file for including OpenGL&#45;related third&#45;party dependencies.">
<polygon fill="white" stroke="#666666" points="140,-19 0,-19 0,0 140,0 140,-19"/>
<text text-anchor="middle" x="70" y="-7" font-family="Helvetica,sans-Serif" font-size="10.00">abcgOpenGLExternal.hpp</text>
</a>
</g>
</g>
<!-- Node1&#45;&gt;Node2 -->
<g id="edge1_Node000001_Node000002" class="edge">
<title>Node1&#45;&gt;Node2</title>
<g id="a_edge1_Node000001_Node000002"><a xlink:title=" ">
<path fill="none" stroke="#63b8ff" d="M152.89,-54.99C135.36,-45.58 112.38,-33.24 95.06,-23.95"/>
<polygon fill="#63b8ff" stroke="#63b8ff" points="96.56,-20.78 86.1,-19.14 93.25,-26.95 96.56,-20.78"/>
</a>
</g>
</g>
<!-- Node3 -->
<g id="Node000003" class="node">
<title>Node3</title>
<g id="a_Node000003"><a xlink:title=" ">
<polygon fill="#e0e0e0" stroke="#999999" points="200,-19 158,-19 158,0 200,0 200,-19"/>
<text text-anchor="middle" x="179" y="-7" font-family="Helvetica,sans-Serif" font-size="10.00">array</text>
</a>
</g>
</g>
<!-- Node1&#45;&gt;Node3 -->
<g id="edge2_Node000001_Node000003" class="edge">
<title>Node1&#45;&gt;Node3</title>
<g id="a_edge2_Node000001_Node000003"><a xlink:title=" ">
<path fill="none" stroke="#63b8ff" d="M179,-54.84C179,-47.21 179,-37.7 179,-29.45"/>
<polygon fill="#63b8ff" stroke="#63b8ff" points="182.5,-29.27 179,-19.27 175.5,-29.27 182.5,-29.27"/>
</a>
</g>
</g>
<!-- Node4 -->
<g id="Node000004" class="node">
<title>Node4</title>
<g id="a_Node000004"><a xlink:title=" ">
<polygon fill="#e0e0e0" stroke="#999999" points="262,-19 218,-19 218,0 262,0 262,-19"/>
<text text-anchor="middle" x="240" y="-7" font-family="Helvetica,sans-Serif" font-size="10.00">string</text>
</a>
</g>
</g>
<!-- Node1&#45;&gt;Node4 -->
<g id="edge3_Node000001_Node000004" class="edge">
<title>Node1&#45;&gt;Node4</title>
<g id="a_edge3_Node000001_Node000004"><a xlink:title=" ">
<path fill="none" stroke="#63b8ff" d="M193.77,-54.84C202.71,-46.26 214.14,-35.3 223.4,-26.42"/>
<polygon fill="#63b8ff" stroke="#63b8ff" points="226.06,-28.71 230.86,-19.27 221.22,-23.66 226.06,-28.71"/>
</a>
</g>
</g>
</g>
</svg>
