<?xml version="1.0" encoding="UTF-8" standalone="no"?>
<!DOCTYPE svg PUBLIC "-//W3C//DTD SVG 1.1//EN"
 "http://www.w3.org/Graphics/SVG/1.1/DTD/svg11.dtd">
<!-- Generated by graphviz version 2.43.0 (0)
 -->
<!-- Title: /home/harlen/dev/abcg/abcg/abcgVulkanInstance.cpp Pages: 1 -->
<svg width="1463pt" height="533pt"
 viewBox="0.00 0.00 1463.00 533.00" xmlns="http://www.w3.org/2000/svg" xmlns:xlink="http://www.w3.org/1999/xlink">
<g id="graph0" class="graph" transform="scale(1 1) rotate(0) translate(4 529)">
<title>/home/harlen/dev/abcg/abcg/abcgVulkanInstance.cpp</title>
<!-- Node1 -->
<g id="Node000001" class="node">
<title>Node1</title>
<g id="a_Node000001"><a xlink:title="Definition of abcg::VulkanInstance.">
<polygon fill="#999999" stroke="#666666" points="919,-525 756,-525 756,-495 919,-495 919,-525"/>
<text text-anchor="start" x="764" y="-513" font-family="Helvetica,sans-Serif" font-size="10.00">/home/harlen/dev/abcg</text>
<text text-anchor="middle" x="837.5" y="-502" font-family="Helvetica,sans-Serif" font-size="10.00">/abcg/abcgVulkanInstance.cpp</text>
</a>
</g>
</g>
<!-- Node2 -->
<g id="Node000002" class="node">
<title>Node2</title>
<g id="a_Node000002"><a xlink:href="abcgVulkanInstance_8hpp.html" target="_top" xlink:title="Header file of abcg::VulkanInstance.">
<polygon fill="white" stroke="#666666" points="137.5,-129 3.5,-129 3.5,-110 137.5,-110 137.5,-129"/>
<text text-anchor="middle" x="70.5" y="-117" font-family="Helvetica,sans-Serif" font-size="10.00">abcgVulkanInstance.hpp</text>
</a>
</g>
</g>
<!-- Node1&#45;&gt;Node2 -->
<g id="edge1_Node000001_Node000002" class="edge">
<title>Node1&#45;&gt;Node2</title>
<g id="a_edge1_Node000001_Node000002"><a xlink:title=" ">
<path fill="none" stroke="#63b8ff" d="M755.98,-505.95C551.58,-497.21 33.5,-467.92 33.5,-395.5 33.5,-395.5 33.5,-395.5 33.5,-228.5 33.5,-195.12 49.52,-158.91 60.48,-138.04"/>
<polygon fill="#63b8ff" stroke="#63b8ff" points="63.63,-139.57 65.36,-129.12 57.49,-136.21 63.63,-139.57"/>
</a>
</g>
</g>
<!-- Node6 -->
<g id="Node000006" class="node">
<title>Node6</title>
<g id="a_Node000006"><a xlink:title=" ">
<polygon fill="#e0e0e0" stroke="#999999" points="1132.5,-459 1092.5,-459 1092.5,-440 1132.5,-440 1132.5,-459"/>
<text text-anchor="middle" x="1112.5" y="-447" font-family="Helvetica,sans-Serif" font-size="10.00">span</text>
</a>
</g>
</g>
<!-- Node1&#45;&gt;Node6 -->
<g id="edge5_Node000001_Node000006" class="edge">
<title>Node1&#45;&gt;Node6</title>
<g id="a_edge5_Node000001_Node000006"><a xlink:title=" ">
<path fill="none" stroke="#63b8ff" d="M908.84,-494.98C956.9,-485.35 1021.64,-472 1078.5,-459 1079.77,-458.71 1081.06,-458.41 1082.37,-458.1"/>
<polygon fill="#63b8ff" stroke="#63b8ff" points="1083.5,-461.43 1092.4,-455.67 1081.85,-454.62 1083.5,-461.43"/>
</a>
</g>
</g>
<!-- Node7 -->
<g id="Node000007" class="node">
<title>Node7</title>
<g id="a_Node000007"><a xlink:href="abcgApplication_8hpp.html" target="_top" xlink:title="Header file of abcg::Application.">
<polygon fill="white" stroke="#666666" points="895.5,-294 779.5,-294 779.5,-275 895.5,-275 895.5,-294"/>
<text text-anchor="middle" x="837.5" y="-282" font-family="Helvetica,sans-Serif" font-size="10.00">abcgApplication.hpp</text>
</a>
</g>
</g>
<!-- Node1&#45;&gt;Node7 -->
<g id="edge6_Node000001_Node000007" class="edge">
<title>Node1&#45;&gt;Node7</title>
<g id="a_edge6_Node000001_Node000007"><a xlink:title=" ">
<path fill="none" stroke="#63b8ff" d="M837.5,-494.68C837.5,-455.76 837.5,-348.07 837.5,-304.33"/>
<polygon fill="#63b8ff" stroke="#63b8ff" points="841,-304.23 837.5,-294.23 834,-304.23 841,-304.23"/>
</a>
</g>
</g>
<!-- Node9 -->
<g id="Node000009" class="node">
<title>Node9</title>
<g id="a_Node000009"><a xlink:href="abcgException_8hpp.html" target="_top" xlink:title="Header file of abcg::Exception and derived classes.">
<polygon fill="white" stroke="#666666" points="1397,-294 1288,-294 1288,-275 1397,-275 1397,-294"/>
<text text-anchor="middle" x="1342.5" y="-282" font-family="Helvetica,sans-Serif" font-size="10.00">abcgException.hpp</text>
</a>
</g>
</g>
<!-- Node1&#45;&gt;Node9 -->
<g id="edge8_Node000001_Node000009" class="edge">
<title>Node1&#45;&gt;Node9</title>
<g id="a_edge8_Node000001_Node000009"><a xlink:title=" ">
<path fill="none" stroke="#63b8ff" d="M869.47,-494.85C961.54,-454.1 1226.26,-336.94 1313.92,-298.15"/>
<polygon fill="#63b8ff" stroke="#63b8ff" points="1315.52,-301.27 1323.25,-294.02 1312.69,-294.87 1315.52,-301.27"/>
</a>
</g>
</g>
<!-- Node12 -->
<g id="Node000012" class="node">
<title>Node12</title>
<g id="a_Node000012"><a xlink:href="abcgVulkan_8hpp.html" target="_top" xlink:title="Header file for Vulkan&#45;related functions and classes.">
<polygon fill="white" stroke="#666666" points="637,-459 544,-459 544,-440 637,-440 637,-459"/>
<text text-anchor="middle" x="590.5" y="-447" font-family="Helvetica,sans-Serif" font-size="10.00">abcgVulkan.hpp</text>
</a>
</g>
</g>
<!-- Node1&#45;&gt;Node12 -->
<g id="edge12_Node000001_Node000012" class="edge">
<title>Node1&#45;&gt;Node12</title>
<g id="a_edge12_Node000001_Node000012"><a xlink:title=" ">
<path fill="none" stroke="#63b8ff" d="M778.34,-494.99C734.79,-484.67 676.43,-470.85 636.38,-461.37"/>
<polygon fill="#63b8ff" stroke="#63b8ff" points="637.15,-457.95 626.62,-459.05 635.54,-464.76 637.15,-457.95"/>
</a>
</g>
</g>
<!-- Node3 -->
<g id="Node000003" class="node">
<title>Node3</title>
<g id="a_Node000003"><a xlink:href="abcgVulkanExternal_8hpp.html" target="_top" xlink:title="Header file for including Vulkan&#45;related dependencies.">
<polygon fill="white" stroke="#666666" points="137.5,-74 3.5,-74 3.5,-55 137.5,-55 137.5,-74"/>
<text text-anchor="middle" x="70.5" y="-62" font-family="Helvetica,sans-Serif" font-size="10.00">abcgVulkanExternal.hpp</text>
</a>
</g>
</g>
<!-- Node2&#45;&gt;Node3 -->
<g id="edge2_Node000002_Node000003" class="edge">
<title>Node2&#45;&gt;Node3</title>
<g id="a_edge2_Node000002_Node000003"><a xlink:title=" ">
<path fill="none" stroke="#63b8ff" d="M70.5,-109.75C70.5,-102.8 70.5,-92.85 70.5,-84.13"/>
<polygon fill="#63b8ff" stroke="#63b8ff" points="74,-84.09 70.5,-74.09 67,-84.09 74,-84.09"/>
</a>
</g>
</g>
<!-- Node4 -->
<g id="Node000004" class="node">
<title>Node4</title>
<g id="a_Node000004"><a xlink:title=" ">
<polygon fill="#e0e0e0" stroke="#999999" points="47,-19 0,-19 0,0 47,0 47,-19"/>
<text text-anchor="middle" x="23.5" y="-7" font-family="Helvetica,sans-Serif" font-size="10.00">volk.h</text>
</a>
</g>
</g>
<!-- Node3&#45;&gt;Node4 -->
<g id="edge3_Node000003_Node000004" class="edge">
<title>Node3&#45;&gt;Node4</title>
<g id="a_edge3_Node000003_Node000004"><a xlink:title=" ">
<path fill="none" stroke="#63b8ff" d="M62.74,-54.75C56.03,-47.18 46.16,-36.05 37.99,-26.84"/>
<polygon fill="#63b8ff" stroke="#63b8ff" points="40.37,-24.25 31.12,-19.09 35.13,-28.89 40.37,-24.25"/>
</a>
</g>
</g>
<!-- Node5 -->
<g id="Node000005" class="node">
<title>Node5</title>
<g id="a_Node000005"><a xlink:title=" ">
<polygon fill="#e0e0e0" stroke="#999999" points="170,-19 65,-19 65,0 170,0 170,-19"/>
<text text-anchor="middle" x="117.5" y="-7" font-family="Helvetica,sans-Serif" font-size="10.00">vulkan/vulkan.hpp</text>
</a>
</g>
</g>
<!-- Node3&#45;&gt;Node5 -->
<g id="edge4_Node000003_Node000005" class="edge">
<title>Node3&#45;&gt;Node5</title>
<g id="a_edge4_Node000003_Node000005"><a xlink:title=" ">
<path fill="none" stroke="#63b8ff" d="M78.26,-54.75C84.97,-47.18 94.84,-36.05 103.01,-26.84"/>
<polygon fill="#63b8ff" stroke="#63b8ff" points="105.87,-28.89 109.88,-19.09 100.63,-24.25 105.87,-28.89"/>
</a>
</g>
</g>
<!-- Node8 -->
<g id="Node000008" class="node">
<title>Node8</title>
<g id="a_Node000008"><a xlink:title=" ">
<polygon fill="#e0e0e0" stroke="#999999" points="974.5,-239 930.5,-239 930.5,-220 974.5,-220 974.5,-239"/>
<text text-anchor="middle" x="952.5" y="-227" font-family="Helvetica,sans-Serif" font-size="10.00">string</text>
</a>
</g>
</g>
<!-- Node7&#45;&gt;Node8 -->
<g id="edge7_Node000007_Node000008" class="edge">
<title>Node7&#45;&gt;Node8</title>
<g id="a_edge7_Node000007_Node000008"><a xlink:title=" ">
<path fill="none" stroke="#63b8ff" d="M855.98,-274.98C874.48,-266.46 903.18,-253.23 924.48,-243.41"/>
<polygon fill="#63b8ff" stroke="#63b8ff" points="926.07,-246.53 933.69,-239.17 923.14,-240.18 926.07,-246.53"/>
</a>
</g>
</g>
<!-- Node9&#45;&gt;Node8 -->
<g id="edge11_Node000009_Node000008" class="edge">
<title>Node9&#45;&gt;Node8</title>
<g id="a_edge11_Node000009_Node000008"><a xlink:title=" ">
<path fill="none" stroke="#63b8ff" d="M1287.96,-276.47C1221.97,-267.9 1107.53,-252.86 1009.5,-239 1001.51,-237.87 992.9,-236.61 984.85,-235.41"/>
<polygon fill="#63b8ff" stroke="#63b8ff" points="985.09,-231.91 974.69,-233.89 984.06,-238.83 985.09,-231.91"/>
</a>
</g>
</g>
<!-- Node10 -->
<g id="Node000010" class="node">
<title>Node10</title>
<g id="a_Node000010"><a xlink:title=" ">
<polygon fill="#e0e0e0" stroke="#999999" points="1455,-239 1362,-239 1362,-220 1455,-220 1455,-239"/>
<text text-anchor="middle" x="1408.5" y="-227" font-family="Helvetica,sans-Serif" font-size="10.00">source_location</text>
</a>
</g>
</g>
<!-- Node9&#45;&gt;Node10 -->
<g id="edge9_Node000009_Node000010" class="edge">
<title>Node9&#45;&gt;Node10</title>
<g id="a_edge9_Node000009_Node000010"><a xlink:title=" ">
<path fill="none" stroke="#63b8ff" d="M1353.1,-274.98C1362.96,-267.07 1377.85,-255.11 1389.72,-245.58"/>
<polygon fill="#63b8ff" stroke="#63b8ff" points="1392.1,-248.16 1397.7,-239.17 1387.71,-242.7 1392.1,-248.16"/>
</a>
</g>
</g>
<!-- Node11 -->
<g id="Node000011" class="node">
<title>Node11</title>
<g id="a_Node000011"><a xlink:title=" ">
<polygon fill="#e0e0e0" stroke="#999999" points="1344,-239 1279,-239 1279,-220 1344,-220 1344,-239"/>
<text text-anchor="middle" x="1311.5" y="-227" font-family="Helvetica,sans-Serif" font-size="10.00">stdexcept</text>
</a>
</g>
</g>
<!-- Node9&#45;&gt;Node11 -->
<g id="edge10_Node000009_Node000011" class="edge">
<title>Node9&#45;&gt;Node11</title>
<g id="a_edge10_Node000009_Node000011"><a xlink:title=" ">
<path fill="none" stroke="#63b8ff" d="M1337.38,-274.75C1333.14,-267.49 1326.97,-256.95 1321.72,-247.98"/>
<polygon fill="#63b8ff" stroke="#63b8ff" points="1324.59,-245.95 1316.52,-239.09 1318.55,-249.49 1324.59,-245.95"/>
</a>
</g>
</g>
<!-- Node13 -->
<g id="Node000013" class="node">
<title>Node13</title>
<g id="a_Node000013"><a xlink:href="abcg_8hpp.html" target="_top" xlink:title="Shortcut header that includes the most common ABCg headers.">
<polygon fill="white" stroke="#666666" points="1036,-349 975,-349 975,-330 1036,-330 1036,-349"/>
<text text-anchor="middle" x="1005.5" y="-337" font-family="Helvetica,sans-Serif" font-size="10.00">abcg.hpp</text>
</a>
</g>
</g>
<!-- Node12&#45;&gt;Node13 -->
<g id="edge13_Node000012_Node000013" class="edge">
<title>Node12&#45;&gt;Node13</title>
<g id="a_edge13_Node000012_Node000013"><a xlink:title=" ">
<path fill="none" stroke="#63b8ff" d="M623.41,-439.94C698.68,-420.35 883.2,-372.33 965.15,-351"/>
<polygon fill="#63b8ff" stroke="#63b8ff" points="966.06,-354.38 974.85,-348.48 964.29,-347.61 966.06,-354.38"/>
</a>
</g>
</g>
<!-- Node21 -->
<g id="Node000021" class="node">
<title>Node21</title>
<g id="a_Node000021"><a xlink:href="abcgVulkanBuffer_8hpp.html" target="_top" xlink:title="Header file of abcg::VulkanBuffer.">
<polygon fill="white" stroke="#666666" points="649.5,-294 527.5,-294 527.5,-275 649.5,-275 649.5,-294"/>
<text text-anchor="middle" x="588.5" y="-282" font-family="Helvetica,sans-Serif" font-size="10.00">abcgVulkanBuffer.hpp</text>
</a>
</g>
</g>
<!-- Node12&#45;&gt;Node21 -->
<g id="edge28_Node000012_Node000021" class="edge">
<title>Node12&#45;&gt;Node21</title>
<g id="a_edge28_Node000012_Node000021"><a xlink:title=" ">
<path fill="none" stroke="#63b8ff" d="M590.47,-439.88C590.39,-420.33 590.14,-371.14 589.5,-330 589.37,-321.49 589.17,-312.07 588.98,-304.1"/>
<polygon fill="#63b8ff" stroke="#63b8ff" points="592.47,-303.94 588.73,-294.03 585.48,-304.11 592.47,-303.94"/>
</a>
</g>
</g>
<!-- Node26 -->
<g id="Node000026" class="node">
<title>Node26</title>
<g id="a_Node000026"><a xlink:href="abcgVulkanImage_8hpp.html" target="_top" xlink:title="Header file of abcg::VulkanImage.">
<polygon fill="white" stroke="#666666" points="471.5,-294 347.5,-294 347.5,-275 471.5,-275 471.5,-294"/>
<text text-anchor="middle" x="409.5" y="-282" font-family="Helvetica,sans-Serif" font-size="10.00">abcgVulkanImage.hpp</text>
</a>
</g>
</g>
<!-- Node12&#45;&gt;Node26 -->
<g id="edge35_Node000012_Node000026" class="edge">
<title>Node12&#45;&gt;Node26</title>
<g id="a_edge35_Node000012_Node000026"><a xlink:title=" ">
<path fill="none" stroke="#63b8ff" d="M543.68,-442.2C499.34,-435.22 437.27,-422.45 421.5,-404 397.63,-376.06 401.12,-329.81 405.48,-304.13"/>
<polygon fill="#63b8ff" stroke="#63b8ff" points="408.94,-304.69 407.39,-294.21 402.06,-303.37 408.94,-304.69"/>
</a>
</g>
</g>
<!-- Node27 -->
<g id="Node000027" class="node">
<title>Node27</title>
<g id="a_Node000027"><a xlink:href="abcgVulkanPipeline_8hpp.html" target="_top" xlink:title="Header file of abcg::VulkanPipeline.">
<polygon fill="white" stroke="#666666" points="562.5,-404 430.5,-404 430.5,-385 562.5,-385 562.5,-404"/>
<text text-anchor="middle" x="496.5" y="-392" font-family="Helvetica,sans-Serif" font-size="10.00">abcgVulkanPipeline.hpp</text>
</a>
</g>
</g>
<!-- Node12&#45;&gt;Node27 -->
<g id="edge38_Node000012_Node000027" class="edge">
<title>Node12&#45;&gt;Node27</title>
<g id="a_edge38_Node000012_Node000027"><a xlink:title=" ">
<path fill="none" stroke="#63b8ff" d="M575.4,-439.98C560.68,-431.69 538.08,-418.94 520.83,-409.22"/>
<polygon fill="#63b8ff" stroke="#63b8ff" points="522.31,-406.03 511.88,-404.17 518.87,-412.13 522.31,-406.03"/>
</a>
</g>
</g>
<!-- Node28 -->
<g id="Node000028" class="node">
<title>Node28</title>
<g id="a_Node000028"><a xlink:href="abcgVulkanShader_8hpp.html" target="_top" xlink:title="Declaration of helper functions for creating Vulkan shaders.">
<polygon fill="white" stroke="#666666" points="580.5,-349 454.5,-349 454.5,-330 580.5,-330 580.5,-349"/>
<text text-anchor="middle" x="517.5" y="-337" font-family="Helvetica,sans-Serif" font-size="10.00">abcgVulkanShader.hpp</text>
</a>
</g>
</g>
<!-- Node12&#45;&gt;Node28 -->
<g id="edge49_Node000012_Node000028" class="edge">
<title>Node12&#45;&gt;Node28</title>
<g id="a_edge49_Node000012_Node000028"><a xlink:title=" ">
<path fill="none" stroke="#63b8ff" d="M589.5,-439.6C587.7,-426.64 582.96,-402.26 571.5,-385 563.63,-373.14 551.64,-362.81 540.97,-355.1"/>
<polygon fill="#63b8ff" stroke="#63b8ff" points="542.65,-352.02 532.42,-349.26 538.7,-357.79 542.65,-352.02"/>
</a>
</g>
</g>
<!-- Node33 -->
<g id="Node000033" class="node">
<title>Node33</title>
<g id="a_Node000033"><a xlink:href="abcgVulkanWindow_8hpp.html" target="_top" xlink:title="Header file of abcg::VulkanWindow.">
<polygon fill="white" stroke="#666666" points="280,-404 149,-404 149,-385 280,-385 280,-404"/>
<text text-anchor="middle" x="214.5" y="-392" font-family="Helvetica,sans-Serif" font-size="10.00">abcgVulkanWindow.hpp</text>
</a>
</g>
</g>
<!-- Node12&#45;&gt;Node33 -->
<g id="edge50_Node000012_Node000033" class="edge">
<title>Node12&#45;&gt;Node33</title>
<g id="a_edge50_Node000012_Node000033"><a xlink:title=" ">
<path fill="none" stroke="#63b8ff" d="M543.64,-441.89C478.64,-432.73 360.6,-416.09 284.95,-405.43"/>
<polygon fill="#63b8ff" stroke="#63b8ff" points="285.42,-401.96 275.03,-404.03 284.44,-408.89 285.42,-401.96"/>
</a>
</g>
</g>
<!-- Node13&#45;&gt;Node7 -->
<g id="edge14_Node000013_Node000007" class="edge">
<title>Node13&#45;&gt;Node7</title>
<g id="a_edge14_Node000013_Node000007"><a xlink:title=" ">
<path fill="none" stroke="#63b8ff" d="M978.51,-329.98C950.3,-321.09 905.86,-307.07 874.42,-297.15"/>
<polygon fill="#63b8ff" stroke="#63b8ff" points="875.29,-293.75 864.7,-294.08 873.19,-300.43 875.29,-293.75"/>
</a>
</g>
</g>
<!-- Node13&#45;&gt;Node9 -->
<g id="edge15_Node000013_Node000009" class="edge">
<title>Node13&#45;&gt;Node9</title>
<g id="a_edge15_Node000013_Node000009"><a xlink:title=" ">
<path fill="none" stroke="#63b8ff" d="M1036.46,-332.5C1041.16,-331.64 1045.95,-330.78 1050.5,-330 1128.51,-316.69 1218.58,-303.26 1277.82,-294.69"/>
<polygon fill="#63b8ff" stroke="#63b8ff" points="1278.39,-298.14 1287.78,-293.25 1277.39,-291.21 1278.39,-298.14"/>
</a>
</g>
</g>
<!-- Node14 -->
<g id="Node000014" class="node">
<title>Node14</title>
<g id="a_Node000014"><a xlink:href="abcgExternal_8hpp.html" target="_top" xlink:title="Header file for including third&#45;party dependencies.">
<polygon fill="white" stroke="#666666" points="1230,-239 1129,-239 1129,-220 1230,-220 1230,-239"/>
<text text-anchor="middle" x="1179.5" y="-227" font-family="Helvetica,sans-Serif" font-size="10.00">abcgExternal.hpp</text>
</a>
</g>
</g>
<!-- Node13&#45;&gt;Node14 -->
<g id="edge16_Node000013_Node000014" class="edge">
<title>Node13&#45;&gt;Node14</title>
<g id="a_edge16_Node000013_Node000014"><a xlink:title=" ">
<path fill="none" stroke="#63b8ff" d="M1036.21,-332.7C1099.88,-320.68 1240.4,-294.12 1240.5,-294 1255.59,-275.79 1230.17,-256.4 1207.69,-243.91"/>
<polygon fill="#63b8ff" stroke="#63b8ff" points="1209.15,-240.73 1198.68,-239.16 1205.89,-246.92 1209.15,-240.73"/>
</a>
</g>
</g>
<!-- Node15 -->
<g id="Node000015" class="node">
<title>Node15</title>
<g id="a_Node000015"><a xlink:href="abcgTrackball_8hpp.html" target="_top" xlink:title="Header file of abcg::TrackBall.">
<polygon fill="white" stroke="#666666" points="1231.5,-294 1127.5,-294 1127.5,-275 1231.5,-275 1231.5,-294"/>
<text text-anchor="middle" x="1179.5" y="-282" font-family="Helvetica,sans-Serif" font-size="10.00">abcgTrackball.hpp</text>
</a>
</g>
</g>
<!-- Node13&#45;&gt;Node15 -->
<g id="edge17_Node000013_Node000015" class="edge">
<title>Node13&#45;&gt;Node15</title>
<g id="a_edge17_Node000013_Node000015"><a xlink:title=" ">
<path fill="none" stroke="#63b8ff" d="M1033.46,-329.98C1062.8,-321.05 1109.1,-306.94 1141.69,-297.02"/>
<polygon fill="#63b8ff" stroke="#63b8ff" points="1142.78,-300.34 1151.32,-294.08 1140.74,-293.65 1142.78,-300.34"/>
</a>
</g>
</g>
<!-- Node18 -->
<g id="Node000018" class="node">
<title>Node18</title>
<g id="a_Node000018"><a xlink:href="abcgUtil_8hpp.html" target="_top" xlink:title="Declaration of general utility functions.">
<polygon fill="white" stroke="#666666" points="991.5,-294 913.5,-294 913.5,-275 991.5,-275 991.5,-294"/>
<text text-anchor="middle" x="952.5" y="-282" font-family="Helvetica,sans-Serif" font-size="10.00">abcgUtil.hpp</text>
</a>
</g>
</g>
<!-- Node13&#45;&gt;Node18 -->
<g id="edge21_Node000013_Node000018" class="edge">
<title>Node13&#45;&gt;Node18</title>
<g id="a_edge21_Node000013_Node000018"><a xlink:title=" ">
<path fill="none" stroke="#63b8ff" d="M996.75,-329.75C989.03,-322.03 977.6,-310.6 968.28,-301.28"/>
<polygon fill="#63b8ff" stroke="#63b8ff" points="970.64,-298.69 961.09,-294.09 965.69,-303.64 970.64,-298.69"/>
</a>
</g>
</g>
<!-- Node20 -->
<g id="Node000020" class="node">
<title>Node20</title>
<g id="a_Node000020"><a xlink:href="abcgWindow_8hpp.html" target="_top" xlink:title="Header file of abcg::Window.">
<polygon fill="white" stroke="#666666" points="1109,-294 1010,-294 1010,-275 1109,-275 1109,-294"/>
<text text-anchor="middle" x="1059.5" y="-282" font-family="Helvetica,sans-Serif" font-size="10.00">abcgWindow.hpp</text>
</a>
</g>
</g>
<!-- Node13&#45;&gt;Node20 -->
<g id="edge24_Node000013_Node000020" class="edge">
<title>Node13&#45;&gt;Node20</title>
<g id="a_edge24_Node000013_Node000020"><a xlink:title=" ">
<path fill="none" stroke="#63b8ff" d="M1014.42,-329.75C1022.28,-322.03 1033.93,-310.6 1043.42,-301.28"/>
<polygon fill="#63b8ff" stroke="#63b8ff" points="1046.06,-303.59 1050.75,-294.09 1041.16,-298.6 1046.06,-303.59"/>
</a>
</g>
</g>
<!-- Node15&#45;&gt;Node14 -->
<g id="edge18_Node000015_Node000014" class="edge">
<title>Node15&#45;&gt;Node14</title>
<g id="a_edge18_Node000015_Node000014"><a xlink:title=" ">
<path fill="none" stroke="#63b8ff" d="M1179.5,-274.75C1179.5,-267.8 1179.5,-257.85 1179.5,-249.13"/>
<polygon fill="#63b8ff" stroke="#63b8ff" points="1183,-249.09 1179.5,-239.09 1176,-249.09 1183,-249.09"/>
</a>
</g>
</g>
<!-- Node16 -->
<g id="Node000016" class="node">
<title>Node16</title>
<g id="a_Node000016"><a xlink:href="abcgTimer_8hpp.html" target="_top" xlink:title="Header file of abcg::Timer.">
<polygon fill="white" stroke="#666666" points="1107,-239 1018,-239 1018,-220 1107,-220 1107,-239"/>
<text text-anchor="middle" x="1062.5" y="-227" font-family="Helvetica,sans-Serif" font-size="10.00">abcgTimer.hpp</text>
</a>
</g>
</g>
<!-- Node15&#45;&gt;Node16 -->
<g id="edge19_Node000015_Node000016" class="edge">
<title>Node15&#45;&gt;Node16</title>
<g id="a_edge19_Node000015_Node000016"><a xlink:title=" ">
<path fill="none" stroke="#63b8ff" d="M1160.7,-274.98C1141.88,-266.46 1112.68,-253.23 1091,-243.41"/>
<polygon fill="#63b8ff" stroke="#63b8ff" points="1092.19,-240.11 1081.64,-239.17 1089.3,-246.48 1092.19,-240.11"/>
</a>
</g>
</g>
<!-- Node17 -->
<g id="Node000017" class="node">
<title>Node17</title>
<g id="a_Node000017"><a xlink:title=" ">
<polygon fill="#e0e0e0" stroke="#999999" points="1087.5,-184 1037.5,-184 1037.5,-165 1087.5,-165 1087.5,-184"/>
<text text-anchor="middle" x="1062.5" y="-172" font-family="Helvetica,sans-Serif" font-size="10.00">chrono</text>
</a>
</g>
</g>
<!-- Node16&#45;&gt;Node17 -->
<g id="edge20_Node000016_Node000017" class="edge">
<title>Node16&#45;&gt;Node17</title>
<g id="a_edge20_Node000016_Node000017"><a xlink:title=" ">
<path fill="none" stroke="#63b8ff" d="M1062.5,-219.75C1062.5,-212.8 1062.5,-202.85 1062.5,-194.13"/>
<polygon fill="#63b8ff" stroke="#63b8ff" points="1066,-194.09 1062.5,-184.09 1059,-194.09 1066,-194.09"/>
</a>
</g>
</g>
<!-- Node18&#45;&gt;Node8 -->
<g id="edge23_Node000018_Node000008" class="edge">
<title>Node18&#45;&gt;Node8</title>
<g id="a_edge23_Node000018_Node000008"><a xlink:title=" ">
<path fill="none" stroke="#63b8ff" d="M952.5,-274.75C952.5,-267.8 952.5,-257.85 952.5,-249.13"/>
<polygon fill="#63b8ff" stroke="#63b8ff" points="956,-249.09 952.5,-239.09 949,-249.09 956,-249.09"/>
</a>
</g>
</g>
<!-- Node19 -->
<g id="Node000019" class="node">
<title>Node19</title>
<g id="a_Node000019"><a xlink:title=" ">
<polygon fill="#e0e0e0" stroke="#999999" points="424,-184 359,-184 359,-165 424,-165 424,-184"/>
<text text-anchor="middle" x="391.5" y="-172" font-family="Helvetica,sans-Serif" font-size="10.00">functional</text>
</a>
</g>
</g>
<!-- Node18&#45;&gt;Node19 -->
<g id="edge22_Node000018_Node000019" class="edge">
<title>Node18&#45;&gt;Node19</title>
<g id="a_edge22_Node000018_Node000019"><a xlink:title=" ">
<path fill="none" stroke="#63b8ff" d="M929.61,-274.9C892.24,-261.2 815.57,-234.5 748.5,-220 636.66,-195.82 502.06,-183.46 434.56,-178.38"/>
<polygon fill="#63b8ff" stroke="#63b8ff" points="434.54,-174.87 424.31,-177.63 434.03,-181.85 434.54,-174.87"/>
</a>
</g>
</g>
<!-- Node20&#45;&gt;Node8 -->
<g id="edge25_Node000020_Node000008" class="edge">
<title>Node20&#45;&gt;Node8</title>
<g id="a_edge25_Node000020_Node000008"><a xlink:title=" ">
<path fill="none" stroke="#63b8ff" d="M1042.31,-274.98C1025.25,-266.54 998.87,-253.47 979.1,-243.68"/>
<polygon fill="#63b8ff" stroke="#63b8ff" points="980.52,-240.47 970,-239.17 977.41,-246.75 980.52,-240.47"/>
</a>
</g>
</g>
<!-- Node20&#45;&gt;Node14 -->
<g id="edge26_Node000020_Node000014" class="edge">
<title>Node20&#45;&gt;Node14</title>
<g id="a_edge26_Node000020_Node000014"><a xlink:title=" ">
<path fill="none" stroke="#63b8ff" d="M1078.78,-274.98C1098.17,-266.42 1128.31,-253.11 1150.57,-243.28"/>
<polygon fill="#63b8ff" stroke="#63b8ff" points="1152.14,-246.41 1159.87,-239.17 1149.31,-240.01 1152.14,-246.41"/>
</a>
</g>
</g>
<!-- Node20&#45;&gt;Node16 -->
<g id="edge27_Node000020_Node000016" class="edge">
<title>Node20&#45;&gt;Node16</title>
<g id="a_edge27_Node000020_Node000016"><a xlink:title=" ">
<path fill="none" stroke="#63b8ff" d="M1060,-274.75C1060.39,-267.8 1060.95,-257.85 1061.45,-249.13"/>
<polygon fill="#63b8ff" stroke="#63b8ff" points="1064.94,-249.27 1062.01,-239.09 1057.95,-248.88 1064.94,-249.27"/>
</a>
</g>
</g>
<!-- Node22 -->
<g id="Node000022" class="node">
<title>Node22</title>
<g id="a_Node000022"><a xlink:href="abcgVulkanDevice_8hpp.html" target="_top" xlink:title="Header file of abcg::VulkanDevice.">
<polygon fill="white" stroke="#666666" points="455,-239 328,-239 328,-220 455,-220 455,-239"/>
<text text-anchor="middle" x="391.5" y="-227" font-family="Helvetica,sans-Serif" font-size="10.00">abcgVulkanDevice.hpp</text>
</a>
</g>
</g>
<!-- Node21&#45;&gt;Node22 -->
<g id="edge29_Node000021_Node000022" class="edge">
<title>Node21&#45;&gt;Node22</title>
<g id="a_edge29_Node000021_Node000022"><a xlink:title=" ">
<path fill="none" stroke="#63b8ff" d="M556.85,-274.98C523.34,-265.97 470.3,-251.7 433.36,-241.76"/>
<polygon fill="#63b8ff" stroke="#63b8ff" points="433.97,-238.3 423.4,-239.08 432.15,-245.06 433.97,-238.3"/>
</a>
</g>
</g>
<!-- Node25 -->
<g id="Node000025" class="node">
<title>Node25</title>
<g id="a_Node000025"><a xlink:title=" ">
<polygon fill="#e0e0e0" stroke="#999999" points="586.5,-239 512.5,-239 512.5,-220 586.5,-220 586.5,-239"/>
<text text-anchor="middle" x="549.5" y="-227" font-family="Helvetica,sans-Serif" font-size="10.00">gsl/pointers</text>
</a>
</g>
</g>
<!-- Node21&#45;&gt;Node25 -->
<g id="edge34_Node000021_Node000025" class="edge">
<title>Node21&#45;&gt;Node25</title>
<g id="a_edge34_Node000021_Node000025"><a xlink:title=" ">
<path fill="none" stroke="#63b8ff" d="M582.06,-274.75C576.61,-267.34 568.64,-256.5 561.94,-247.41"/>
<polygon fill="#63b8ff" stroke="#63b8ff" points="564.57,-245.07 555.82,-239.09 558.93,-249.22 564.57,-245.07"/>
</a>
</g>
</g>
<!-- Node22&#45;&gt;Node19 -->
<g id="edge33_Node000022_Node000019" class="edge">
<title>Node22&#45;&gt;Node19</title>
<g id="a_edge33_Node000022_Node000019"><a xlink:title=" ">
<path fill="none" stroke="#63b8ff" d="M391.5,-219.75C391.5,-212.8 391.5,-202.85 391.5,-194.13"/>
<polygon fill="#63b8ff" stroke="#63b8ff" points="395,-194.09 391.5,-184.09 388,-194.09 395,-194.09"/>
</a>
</g>
</g>
<!-- Node23 -->
<g id="Node000023" class="node">
<title>Node23</title>
<g id="a_Node000023"><a xlink:href="abcgVulkanPhysicalDevice_8hpp.html" target="_top" xlink:title="Header file of abcg::VulkanPhysicalDevice.">
<polygon fill="white" stroke="#666666" points="267,-184 100,-184 100,-165 267,-165 267,-184"/>
<text text-anchor="middle" x="183.5" y="-172" font-family="Helvetica,sans-Serif" font-size="10.00">abcgVulkanPhysicalDevice.hpp</text>
</a>
</g>
</g>
<!-- Node22&#45;&gt;Node23 -->
<g id="edge30_Node000022_Node000023" class="edge">
<title>Node22&#45;&gt;Node23</title>
<g id="a_edge30_Node000022_Node000023"><a xlink:title=" ">
<path fill="none" stroke="#63b8ff" d="M358.08,-219.98C322.56,-210.93 266.23,-196.58 227.2,-186.64"/>
<polygon fill="#63b8ff" stroke="#63b8ff" points="227.74,-183.16 217.18,-184.08 226.01,-189.94 227.74,-183.16"/>
</a>
</g>
</g>
<!-- Node23&#45;&gt;Node2 -->
<g id="edge32_Node000023_Node000002" class="edge">
<title>Node23&#45;&gt;Node2</title>
<g id="a_edge32_Node000023_Node000002"><a xlink:title=" ">
<path fill="none" stroke="#63b8ff" d="M165.34,-164.98C147.25,-156.5 119.22,-143.35 98.31,-133.54"/>
<polygon fill="#63b8ff" stroke="#63b8ff" points="99.53,-130.25 88.99,-129.17 96.55,-136.59 99.53,-130.25"/>
</a>
</g>
</g>
<!-- Node24 -->
<g id="Node000024" class="node">
<title>Node24</title>
<g id="a_Node000024"><a xlink:title=" ">
<polygon fill="#e0e0e0" stroke="#999999" points="211.5,-129 155.5,-129 155.5,-110 211.5,-110 211.5,-129"/>
<text text-anchor="middle" x="183.5" y="-117" font-family="Helvetica,sans-Serif" font-size="10.00">optional</text>
</a>
</g>
</g>
<!-- Node23&#45;&gt;Node24 -->
<g id="edge31_Node000023_Node000024" class="edge">
<title>Node23&#45;&gt;Node24</title>
<g id="a_edge31_Node000023_Node000024"><a xlink:title=" ">
<path fill="none" stroke="#63b8ff" d="M183.5,-164.75C183.5,-157.8 183.5,-147.85 183.5,-139.13"/>
<polygon fill="#63b8ff" stroke="#63b8ff" points="187,-139.09 183.5,-129.09 180,-139.09 187,-139.09"/>
</a>
</g>
</g>
<!-- Node26&#45;&gt;Node22 -->
<g id="edge36_Node000026_Node000022" class="edge">
<title>Node26&#45;&gt;Node22</title>
<g id="a_edge36_Node000026_Node000022"><a xlink:title=" ">
<path fill="none" stroke="#63b8ff" d="M406.53,-274.75C404.14,-267.72 400.71,-257.62 397.73,-248.84"/>
<polygon fill="#63b8ff" stroke="#63b8ff" points="400.95,-247.43 394.42,-239.09 394.32,-249.68 400.95,-247.43"/>
</a>
</g>
</g>
<!-- Node26&#45;&gt;Node25 -->
<g id="edge37_Node000026_Node000025" class="edge">
<title>Node26&#45;&gt;Node25</title>
<g id="a_edge37_Node000026_Node000025"><a xlink:title=" ">
<path fill="none" stroke="#63b8ff" d="M431.99,-274.98C455.02,-266.27 491.04,-252.63 517.13,-242.75"/>
<polygon fill="#63b8ff" stroke="#63b8ff" points="518.48,-245.98 526.6,-239.17 516.01,-239.44 518.48,-245.98"/>
</a>
</g>
</g>
<!-- Node27&#45;&gt;Node28 -->
<g id="edge39_Node000027_Node000028" class="edge">
<title>Node27&#45;&gt;Node28</title>
<g id="a_edge39_Node000027_Node000028"><a xlink:title=" ">
<path fill="none" stroke="#63b8ff" d="M499.97,-384.75C502.78,-377.65 506.84,-367.4 510.35,-358.56"/>
<polygon fill="#63b8ff" stroke="#63b8ff" points="513.67,-359.68 514.1,-349.09 507.16,-357.1 513.67,-359.68"/>
</a>
</g>
</g>
<!-- Node31 -->
<g id="Node000031" class="node">
<title>Node31</title>
<g id="a_Node000031"><a xlink:href="abcgVulkanSwapchain_8hpp.html" target="_top" xlink:title="Header file of abcg::VulkanSwapchain.">
<polygon fill="white" stroke="#666666" points="361.5,-349 215.5,-349 215.5,-330 361.5,-330 361.5,-349"/>
<text text-anchor="middle" x="288.5" y="-337" font-family="Helvetica,sans-Serif" font-size="10.00">abcgVulkanSwapchain.hpp</text>
</a>
</g>
</g>
<!-- Node27&#45;&gt;Node31 -->
<g id="edge44_Node000027_Node000031" class="edge">
<title>Node27&#45;&gt;Node31</title>
<g id="a_edge44_Node000027_Node000031"><a xlink:title=" ">
<path fill="none" stroke="#63b8ff" d="M463.08,-384.98C427.56,-375.93 371.23,-361.58 332.2,-351.64"/>
<polygon fill="#63b8ff" stroke="#63b8ff" points="332.74,-348.16 322.18,-349.08 331.01,-354.94 332.74,-348.16"/>
</a>
</g>
</g>
<!-- Node28&#45;&gt;Node22 -->
<g id="edge43_Node000028_Node000022" class="edge">
<title>Node28&#45;&gt;Node22</title>
<g id="a_edge43_Node000028_Node000022"><a xlink:title=" ">
<path fill="none" stroke="#63b8ff" d="M514.26,-329.63C508.99,-316.28 497.44,-290.89 480.5,-275 465.4,-260.84 444.94,-250.19 427.45,-242.86"/>
<polygon fill="#63b8ff" stroke="#63b8ff" points="428.67,-239.58 418.08,-239.13 426.08,-246.08 428.67,-239.58"/>
</a>
</g>
</g>
<!-- Node29 -->
<g id="Node000029" class="node">
<title>Node29</title>
<g id="a_Node000029"><a xlink:href="abcgShader_8hpp.html" target="_top" xlink:title="Declaration of a structure for building shaders.">
<polygon fill="white" stroke="#666666" points="761.5,-294 667.5,-294 667.5,-275 761.5,-275 761.5,-294"/>
<text text-anchor="middle" x="714.5" y="-282" font-family="Helvetica,sans-Serif" font-size="10.00">abcgShader.hpp</text>
</a>
</g>
</g>
<!-- Node28&#45;&gt;Node29 -->
<g id="edge40_Node000028_Node000029" class="edge">
<title>Node28&#45;&gt;Node29</title>
<g id="a_edge40_Node000028_Node000029"><a xlink:title=" ">
<path fill="none" stroke="#63b8ff" d="M549.15,-329.98C582.66,-320.97 635.7,-306.7 672.64,-296.76"/>
<polygon fill="#63b8ff" stroke="#63b8ff" points="673.85,-300.06 682.6,-294.08 672.03,-293.3 673.85,-300.06"/>
</a>
</g>
</g>
<!-- Node29&#45;&gt;Node8 -->
<g id="edge42_Node000029_Node000008" class="edge">
<title>Node29&#45;&gt;Node8</title>
<g id="a_edge42_Node000029_Node000008"><a xlink:title=" ">
<path fill="none" stroke="#63b8ff" d="M752.74,-274.98C799.23,-264.63 876.87,-247.34 920.4,-237.65"/>
<polygon fill="#63b8ff" stroke="#63b8ff" points="921.43,-241 930.43,-235.41 919.91,-234.17 921.43,-241"/>
</a>
</g>
</g>
<!-- Node30 -->
<g id="Node000030" class="node">
<title>Node30</title>
<g id="a_Node000030"><a xlink:title=" ">
<polygon fill="#e0e0e0" stroke="#999999" points="739.5,-239 689.5,-239 689.5,-220 739.5,-220 739.5,-239"/>
<text text-anchor="middle" x="714.5" y="-227" font-family="Helvetica,sans-Serif" font-size="10.00">cstdint</text>
</a>
</g>
</g>
<!-- Node29&#45;&gt;Node30 -->
<g id="edge41_Node000029_Node000030" class="edge">
<title>Node29&#45;&gt;Node30</title>
<g id="a_edge41_Node000029_Node000030"><a xlink:title=" ">
<path fill="none" stroke="#63b8ff" d="M714.5,-274.75C714.5,-267.8 714.5,-257.85 714.5,-249.13"/>
<polygon fill="#63b8ff" stroke="#63b8ff" points="718,-249.09 714.5,-239.09 711,-249.09 718,-249.09"/>
</a>
</g>
</g>
<!-- Node31&#45;&gt;Node19 -->
<g id="edge45_Node000031_Node000019" class="edge">
<title>Node31&#45;&gt;Node19</title>
<g id="a_edge45_Node000031_Node000019"><a xlink:title=" ">
<path fill="none" stroke="#63b8ff" d="M288.54,-329.82C289.05,-308.87 292.92,-254.67 318.5,-220 328.76,-206.09 344.8,-195.62 359.23,-188.35"/>
<polygon fill="#63b8ff" stroke="#63b8ff" points="360.85,-191.45 368.41,-184.02 357.87,-185.12 360.85,-191.45"/>
</a>
</g>
</g>
<!-- Node31&#45;&gt;Node22 -->
<g id="edge47_Node000031_Node000022" class="edge">
<title>Node31&#45;&gt;Node22</title>
<g id="a_edge47_Node000031_Node000022"><a xlink:title=" ">
<path fill="none" stroke="#63b8ff" d="M294.46,-329.83C303.34,-317.16 320.92,-293.14 338.5,-275 348.82,-264.35 361.51,-253.62 371.89,-245.37"/>
<polygon fill="#63b8ff" stroke="#63b8ff" points="374.22,-247.99 379.95,-239.08 369.92,-242.47 374.22,-247.99"/>
</a>
</g>
</g>
<!-- Node31&#45;&gt;Node26 -->
<g id="edge48_Node000031_Node000026" class="edge">
<title>Node31&#45;&gt;Node26</title>
<g id="a_edge48_Node000031_Node000026"><a xlink:title=" ">
<path fill="none" stroke="#63b8ff" d="M307.94,-329.98C327.49,-321.42 357.88,-308.11 380.32,-298.28"/>
<polygon fill="#63b8ff" stroke="#63b8ff" points="381.95,-301.39 389.71,-294.17 379.14,-294.98 381.95,-301.39"/>
</a>
</g>
</g>
<!-- Node32 -->
<g id="Node000032" class="node">
<title>Node32</title>
<g id="a_Node000032"><a xlink:title=" ">
<polygon fill="#e0e0e0" stroke="#999999" points="253,-294 176,-294 176,-275 253,-275 253,-294"/>
<text text-anchor="middle" x="214.5" y="-282" font-family="Helvetica,sans-Serif" font-size="10.00">glm/fwd.hpp</text>
</a>
</g>
</g>
<!-- Node31&#45;&gt;Node32 -->
<g id="edge46_Node000031_Node000032" class="edge">
<title>Node31&#45;&gt;Node32</title>
<g id="a_edge46_Node000031_Node000032"><a xlink:title=" ">
<path fill="none" stroke="#63b8ff" d="M276.61,-329.98C265.35,-321.92 248.21,-309.65 234.79,-300.03"/>
<polygon fill="#63b8ff" stroke="#63b8ff" points="236.77,-297.15 226.61,-294.17 232.7,-302.84 236.77,-297.15"/>
</a>
</g>
</g>
<!-- Node33&#45;&gt;Node2 -->
<g id="edge52_Node000033_Node000002" class="edge">
<title>Node33&#45;&gt;Node2</title>
<g id="a_edge52_Node000033_Node000002"><a xlink:title=" ">
<path fill="none" stroke="#63b8ff" d="M182.76,-384.95C140.63,-371.46 71.5,-340.88 71.5,-285.5 71.5,-285.5 71.5,-285.5 71.5,-228.5 71.5,-197.19 71.07,-160.77 70.78,-139.23"/>
<polygon fill="#63b8ff" stroke="#63b8ff" points="74.28,-139.13 70.63,-129.18 67.28,-139.23 74.28,-139.13"/>
</a>
</g>
</g>
<!-- Node33&#45;&gt;Node20 -->
<g id="edge55_Node000033_Node000020" class="edge">
<title>Node33&#45;&gt;Node20</title>
<g id="a_edge55_Node000033_Node000020"><a xlink:title=" ">
<path fill="none" stroke="#63b8ff" d="M280.25,-386C355.15,-377.38 481.2,-362.67 589.5,-349 769.13,-326.32 816.31,-319.6 999.94,-294.07"/>
<polygon fill="#63b8ff" stroke="#63b8ff" points="1000.51,-297.52 1009.93,-292.68 999.54,-290.59 1000.51,-297.52"/>
</a>
</g>
</g>
<!-- Node33&#45;&gt;Node22 -->
<g id="edge51_Node000033_Node000022" class="edge">
<title>Node33&#45;&gt;Node22</title>
<g id="a_edge51_Node000033_Node000022"><a xlink:title=" ">
<path fill="none" stroke="#63b8ff" d="M205.5,-384.84C184.84,-363.93 137.9,-309.82 166.5,-275 185.46,-251.93 259.44,-240.61 317.46,-235.2"/>
<polygon fill="#63b8ff" stroke="#63b8ff" points="318.07,-238.66 327.73,-234.29 317.45,-231.69 318.07,-238.66"/>
</a>
</g>
</g>
<!-- Node33&#45;&gt;Node23 -->
<g id="edge53_Node000033_Node000023" class="edge">
<title>Node33&#45;&gt;Node23</title>
<g id="a_edge53_Node000033_Node000023"><a xlink:title=" ">
<path fill="none" stroke="#63b8ff" d="M199.56,-384.96C187.48,-377.2 171.1,-364.61 162.5,-349 134.48,-298.17 160.06,-226.42 174.78,-193.41"/>
<polygon fill="#63b8ff" stroke="#63b8ff" points="178.06,-194.67 179.1,-184.12 171.71,-191.71 178.06,-194.67"/>
</a>
</g>
</g>
<!-- Node33&#45;&gt;Node31 -->
<g id="edge54_Node000033_Node000031" class="edge">
<title>Node33&#45;&gt;Node31</title>
<g id="a_edge54_Node000033_Node000031"><a xlink:title=" ">
<path fill="none" stroke="#63b8ff" d="M226.39,-384.98C237.65,-376.92 254.79,-364.65 268.21,-355.03"/>
<polygon fill="#63b8ff" stroke="#63b8ff" points="270.3,-357.84 276.39,-349.17 266.23,-352.15 270.3,-357.84"/>
</a>
</g>
</g>
</g>
</svg>
