<?xml version="1.0" encoding="UTF-8" standalone="no"?>
<!DOCTYPE svg PUBLIC "-//W3C//DTD SVG 1.1//EN"
 "http://www.w3.org/Graphics/SVG/1.1/DTD/svg11.dtd">
<!-- Generated by graphviz version 2.43.0 (0)
 -->
<!-- Title: /home/harlen/dev/abcg2/abcg/abcg_exception.cpp Pages: 1 -->
<svg width="432pt" height="151pt"
 viewBox="0.00 0.00 432.00 151.00" xmlns="http://www.w3.org/2000/svg" xmlns:xlink="http://www.w3.org/1999/xlink">
<g id="graph0" class="graph" transform="scale(1 1) rotate(0) translate(4 147)">
<title>/home/harlen/dev/abcg2/abcg/abcg_exception.cpp</title>
<!-- Node1 -->
<g id="node1" class="node">
<title>Node1</title>
<g id="a_node1"><a xlink:title="Definition of abcg::Exception members.">
<polygon fill="#bfbfbf" stroke="black" points="187,-112.5 187,-142.5 330,-142.5 330,-112.5 187,-112.5"/>
<text text-anchor="start" x="195" y="-130.5" font-family="Helvetica,sans-Serif" font-size="10.00">/home/harlen/dev/abcg2</text>
<text text-anchor="middle" x="258.5" y="-119.5" font-family="Helvetica,sans-Serif" font-size="10.00">/abcg/abcg_exception.cpp</text>
</a>
</g>
</g>
<!-- Node2 -->
<g id="node2" class="node">
<title>Node2</title>
<g id="a_node2"><a xlink:href="abcg__exception_8hpp.html" target="_top" xlink:title="Header file of abcg::Exception and derived classes.">
<polygon fill="none" stroke="black" points="86.5,-56.5 86.5,-75.5 200.5,-75.5 200.5,-56.5 86.5,-56.5"/>
<text text-anchor="middle" x="143.5" y="-63.5" font-family="Helvetica,sans-Serif" font-size="10.00">abcg_exception.hpp</text>
</a>
</g>
</g>
<!-- Node1&#45;&gt;Node2 -->
<g id="edge1" class="edge">
<title>Node1&#45;&gt;Node2</title>
<path fill="none" stroke="midnightblue" d="M231.25,-112.4C212.47,-102.68 187.67,-89.86 169.23,-80.31"/>
<polygon fill="midnightblue" stroke="midnightblue" points="170.72,-77.14 160.23,-75.66 167.51,-83.36 170.72,-77.14"/>
</g>
<!-- Node6 -->
<g id="node6" class="node">
<title>Node6</title>
<g id="a_node6"><a xlink:title=" ">
<polygon fill="none" stroke="#bfbfbf" points="218.5,-56.5 218.5,-75.5 298.5,-75.5 298.5,-56.5 218.5,-56.5"/>
<text text-anchor="middle" x="258.5" y="-63.5" font-family="Helvetica,sans-Serif" font-size="10.00">SDL_image.h</text>
</a>
</g>
</g>
<!-- Node1&#45;&gt;Node6 -->
<g id="edge5" class="edge">
<title>Node1&#45;&gt;Node6</title>
<path fill="none" stroke="midnightblue" d="M258.5,-112.4C258.5,-104.47 258.5,-94.46 258.5,-85.86"/>
<polygon fill="midnightblue" stroke="midnightblue" points="262,-85.66 258.5,-75.66 255,-85.66 262,-85.66"/>
</g>
<!-- Node7 -->
<g id="node7" class="node">
<title>Node7</title>
<g id="a_node7"><a xlink:href="abcg__external_8hpp.html" target="_top" xlink:title="Header file for including third&#45;party dependencies.">
<polygon fill="none" stroke="black" points="317,-56.5 317,-75.5 424,-75.5 424,-56.5 317,-56.5"/>
<text text-anchor="middle" x="370.5" y="-63.5" font-family="Helvetica,sans-Serif" font-size="10.00">abcg_external.hpp</text>
</a>
</g>
</g>
<!-- Node1&#45;&gt;Node7 -->
<g id="edge6" class="edge">
<title>Node1&#45;&gt;Node7</title>
<path fill="none" stroke="midnightblue" d="M285.04,-112.4C303.16,-102.77 327.04,-90.09 344.94,-80.58"/>
<polygon fill="midnightblue" stroke="midnightblue" points="347.01,-83.44 354.2,-75.66 343.73,-77.26 347.01,-83.44"/>
</g>
<!-- Node3 -->
<g id="node3" class="node">
<title>Node3</title>
<g id="a_node3"><a xlink:title=" ">
<polygon fill="none" stroke="#bfbfbf" points="0,-0.5 0,-19.5 93,-19.5 93,-0.5 0,-0.5"/>
<text text-anchor="middle" x="46.5" y="-7.5" font-family="Helvetica,sans-Serif" font-size="10.00">source_location</text>
</a>
</g>
</g>
<!-- Node2&#45;&gt;Node3 -->
<g id="edge2" class="edge">
<title>Node2&#45;&gt;Node3</title>
<path fill="none" stroke="midnightblue" d="M127.92,-56.32C112.5,-47.74 88.69,-34.49 70.79,-24.52"/>
<polygon fill="midnightblue" stroke="midnightblue" points="72.49,-21.46 62.05,-19.65 69.08,-27.58 72.49,-21.46"/>
</g>
<!-- Node4 -->
<g id="node4" class="node">
<title>Node4</title>
<g id="a_node4"><a xlink:title=" ">
<polygon fill="none" stroke="#bfbfbf" points="111,-0.5 111,-19.5 176,-19.5 176,-0.5 111,-0.5"/>
<text text-anchor="middle" x="143.5" y="-7.5" font-family="Helvetica,sans-Serif" font-size="10.00">stdexcept</text>
</a>
</g>
</g>
<!-- Node2&#45;&gt;Node4 -->
<g id="edge3" class="edge">
<title>Node2&#45;&gt;Node4</title>
<path fill="none" stroke="midnightblue" d="M143.5,-56.08C143.5,-49.01 143.5,-38.86 143.5,-29.99"/>
<polygon fill="midnightblue" stroke="midnightblue" points="147,-29.75 143.5,-19.75 140,-29.75 147,-29.75"/>
</g>
<!-- Node5 -->
<g id="node5" class="node">
<title>Node5</title>
<g id="a_node5"><a xlink:title=" ">
<polygon fill="none" stroke="#bfbfbf" points="194.5,-0.5 194.5,-19.5 238.5,-19.5 238.5,-0.5 194.5,-0.5"/>
<text text-anchor="middle" x="216.5" y="-7.5" font-family="Helvetica,sans-Serif" font-size="10.00">string</text>
</a>
</g>
</g>
<!-- Node2&#45;&gt;Node5 -->
<g id="edge4" class="edge">
<title>Node2&#45;&gt;Node5</title>
<path fill="none" stroke="midnightblue" d="M155.23,-56.32C166.34,-48.11 183.24,-35.6 196.48,-25.81"/>
<polygon fill="midnightblue" stroke="midnightblue" points="198.6,-28.59 204.56,-19.83 194.44,-22.97 198.6,-28.59"/>
</g>
</g>
</svg>
