<?xml version="1.0" encoding="UTF-8" standalone="no"?>
<!DOCTYPE svg PUBLIC "-//W3C//DTD SVG 1.1//EN"
 "http://www.w3.org/Graphics/SVG/1.1/DTD/svg11.dtd">
<!-- Generated by graphviz version 2.43.0 (0)
 -->
<!-- Title: /home/harlen/dev/abcg/abcg/abcgOpenGLShader.hpp Pages: 1 -->
<svg width="316pt" height="104pt"
 viewBox="0.00 0.00 315.50 104.00" xmlns="http://www.w3.org/2000/svg" xmlns:xlink="http://www.w3.org/1999/xlink">
<g id="graph0" class="graph" transform="scale(1 1) rotate(0) translate(4 100)">
<title>/home/harlen/dev/abcg/abcg/abcgOpenGLShader.hpp</title>
<!-- Node1 -->
<g id="Node000001" class="node">
<title>Node1</title>
<g id="a_Node000001"><a xlink:title="Declaration of helper functions for building OpenGL shaders.">
<polygon fill="#999999" stroke="#666666" points="225.5,-96 64.5,-96 64.5,-66 225.5,-66 225.5,-96"/>
<text text-anchor="start" x="72.5" y="-84" font-family="Helvetica,sans-Serif" font-size="10.00">/home/harlen/dev/abcg</text>
<text text-anchor="middle" x="145" y="-73" font-family="Helvetica,sans-Serif" font-size="10.00">/abcg/abcgOpenGLShader.hpp</text>
</a>
</g>
</g>
<!-- Node2 -->
<g id="Node000002" class="node">
<title>Node2</title>
<g id="a_Node000002"><a xlink:href="abcgOpenGL_8hpp.html" target="_top" xlink:title="Header file for OpenGL&#45;related functions and classes.">
<polygon fill="white" stroke="#666666" points="128,-30 0,-30 0,0 128,0 128,-30"/>
<text text-anchor="start" x="8" y="-18" font-family="Helvetica,sans-Serif" font-size="10.00">/home/harlen/dev/abcg</text>
<text text-anchor="middle" x="64" y="-7" font-family="Helvetica,sans-Serif" font-size="10.00">/abcg/abcgOpenGL.hpp</text>
</a>
</g>
</g>
<!-- Node1&#45;&gt;Node2 -->
<g id="edge1_Node000001_Node000002" class="edge">
<title>Node1&#45;&gt;Node2</title>
<g id="a_edge1_Node000001_Node000002"><a xlink:title=" ">
<path fill="none" stroke="#63b8ff" d="M119.03,-59.48C106.92,-49.91 92.82,-38.77 81.93,-30.16"/>
<polygon fill="#63b8ff" stroke="#63b8ff" points="117.01,-62.34 127.02,-65.8 121.35,-56.85 117.01,-62.34"/>
</a>
</g>
</g>
<!-- Node3 -->
<g id="Node000003" class="node">
<title>Node3</title>
<g id="a_Node000003"><a xlink:href="abcgOpenGLShader_8cpp.html" target="_top" xlink:title="Definition of helper functions for building OpenGL shaders.">
<polygon fill="white" stroke="#666666" points="307.5,-30 146.5,-30 146.5,0 307.5,0 307.5,-30"/>
<text text-anchor="start" x="154.5" y="-18" font-family="Helvetica,sans-Serif" font-size="10.00">/home/harlen/dev/abcg</text>
<text text-anchor="middle" x="227" y="-7" font-family="Helvetica,sans-Serif" font-size="10.00">/abcg/abcgOpenGLShader.cpp</text>
</a>
</g>
</g>
<!-- Node1&#45;&gt;Node3 -->
<g id="edge2_Node000001_Node000003" class="edge">
<title>Node1&#45;&gt;Node3</title>
<g id="a_edge2_Node000001_Node000003"><a xlink:title=" ">
<path fill="none" stroke="#63b8ff" d="M171.29,-59.48C183.55,-49.91 197.82,-38.77 208.85,-30.16"/>
<polygon fill="#63b8ff" stroke="#63b8ff" points="168.93,-56.88 163.2,-65.8 173.24,-62.4 168.93,-56.88"/>
</a>
</g>
</g>
</g>
</svg>
