<?xml version="1.0" encoding="UTF-8" standalone="no"?>
<!DOCTYPE svg PUBLIC "-//W3C//DTD SVG 1.1//EN"
 "http://www.w3.org/Graphics/SVG/1.1/DTD/svg11.dtd">
<!-- Generated by graphviz version 2.43.0 (0)
 -->
<!-- Title: /home/harlen/dev/abcg2/abcg/abcg_vulkan_physical_device.cpp Pages: 1 -->
<svg width="695pt" height="229pt"
 viewBox="0.00 0.00 695.00 229.00" xmlns="http://www.w3.org/2000/svg" xmlns:xlink="http://www.w3.org/1999/xlink">
<g id="graph0" class="graph" transform="scale(1 1) rotate(0) translate(4 225)">
<title>/home/harlen/dev/abcg2/abcg/abcg_vulkan_physical_device.cpp</title>
<!-- Node1 -->
<g id="node1" class="node">
<title>Node1</title>
<g id="a_node1"><a xlink:title="Definition of abcg::VulkanPhysicalDevice.">
<polygon fill="#bfbfbf" stroke="black" points="297,-179.5 297,-220.5 449,-220.5 449,-179.5 297,-179.5"/>
<text text-anchor="start" x="305" y="-208.5" font-family="Helvetica,sans-Serif" font-size="10.00">/home/harlen/dev/abcg2</text>
<text text-anchor="start" x="305" y="-197.5" font-family="Helvetica,sans-Serif" font-size="10.00">/abcg/abcg_vulkan_physical</text>
<text text-anchor="middle" x="373" y="-186.5" font-family="Helvetica,sans-Serif" font-size="10.00">_device.cpp</text>
</a>
</g>
</g>
<!-- Node2 -->
<g id="node2" class="node">
<title>Node2</title>
<g id="a_node2"><a xlink:href="abcg__vulkan__physical__device_8hpp.html" target="_top" xlink:title="Header file of abcg::VulkanPhysicalDevice.">
<polygon fill="none" stroke="black" points="215.5,-112.5 215.5,-142.5 338.5,-142.5 338.5,-112.5 215.5,-112.5"/>
<text text-anchor="start" x="223.5" y="-130.5" font-family="Helvetica,sans-Serif" font-size="10.00">abcg_vulkan_physical</text>
<text text-anchor="middle" x="277" y="-119.5" font-family="Helvetica,sans-Serif" font-size="10.00">_device.hpp</text>
</a>
</g>
</g>
<!-- Node1&#45;&gt;Node2 -->
<g id="edge1" class="edge">
<title>Node1&#45;&gt;Node2</title>
<path fill="none" stroke="midnightblue" d="M346.26,-179.36C333.24,-169.8 317.61,-158.33 304.5,-148.69"/>
<polygon fill="midnightblue" stroke="midnightblue" points="306.43,-145.77 296.3,-142.67 302.28,-151.41 306.43,-145.77"/>
</g>
<!-- Node7 -->
<g id="node7" class="node">
<title>Node7</title>
<g id="a_node7"><a xlink:title=" ">
<polygon fill="none" stroke="#bfbfbf" points="357,-118 357,-137 389,-137 389,-118 357,-118"/>
<text text-anchor="middle" x="373" y="-125" font-family="Helvetica,sans-Serif" font-size="10.00">set</text>
</a>
</g>
</g>
<!-- Node1&#45;&gt;Node7 -->
<g id="edge7" class="edge">
<title>Node1&#45;&gt;Node7</title>
<path fill="none" stroke="midnightblue" d="M373,-179.36C373,-169.3 373,-157.1 373,-147.18"/>
<polygon fill="midnightblue" stroke="midnightblue" points="376.5,-147.17 373,-137.17 369.5,-147.17 376.5,-147.17"/>
</g>
<!-- Node8 -->
<g id="node8" class="node">
<title>Node8</title>
<g id="a_node8"><a xlink:title=" ">
<polygon fill="none" stroke="#bfbfbf" points="407,-118 407,-137 447,-137 447,-118 407,-118"/>
<text text-anchor="middle" x="427" y="-125" font-family="Helvetica,sans-Serif" font-size="10.00">span</text>
</a>
</g>
</g>
<!-- Node1&#45;&gt;Node8 -->
<g id="edge8" class="edge">
<title>Node1&#45;&gt;Node8</title>
<path fill="none" stroke="midnightblue" d="M388.04,-179.36C396.25,-168.65 406.3,-155.52 414.14,-145.29"/>
<polygon fill="midnightblue" stroke="midnightblue" points="417.05,-147.24 420.36,-137.17 411.5,-142.98 417.05,-147.24"/>
</g>
<!-- Node9 -->
<g id="node9" class="node">
<title>Node9</title>
<g id="a_node9"><a xlink:href="abcg__exception_8hpp.html" target="_top" xlink:title="Header file of abcg::Exception and derived classes.">
<polygon fill="none" stroke="black" points="511,-118 511,-137 625,-137 625,-118 511,-118"/>
<text text-anchor="middle" x="568" y="-125" font-family="Helvetica,sans-Serif" font-size="10.00">abcg_exception.hpp</text>
</a>
</g>
</g>
<!-- Node1&#45;&gt;Node9 -->
<g id="edge9" class="edge">
<title>Node1&#45;&gt;Node9</title>
<path fill="none" stroke="midnightblue" d="M427.06,-179.46C461.69,-166.93 505.52,-151.09 535.03,-140.42"/>
<polygon fill="midnightblue" stroke="midnightblue" points="536.24,-143.7 544.45,-137.01 533.86,-137.12 536.24,-143.7"/>
</g>
<!-- Node13 -->
<g id="node13" class="node">
<title>Node13</title>
<g id="a_node13"><a xlink:href="abcg__vulkan__instance_8hpp.html" target="_top" xlink:title="Header file of abcg::VulkanInstance.">
<polygon fill="none" stroke="black" points="52.5,-118 52.5,-137 197.5,-137 197.5,-118 52.5,-118"/>
<text text-anchor="middle" x="125" y="-125" font-family="Helvetica,sans-Serif" font-size="10.00">abcg_vulkan_instance.hpp</text>
</a>
</g>
</g>
<!-- Node1&#45;&gt;Node13 -->
<g id="edge13" class="edge">
<title>Node1&#45;&gt;Node13</title>
<path fill="none" stroke="midnightblue" d="M304.25,-179.46C259.44,-166.72 202.52,-150.54 164.99,-139.87"/>
<polygon fill="midnightblue" stroke="midnightblue" points="165.52,-136.38 154.95,-137.01 163.61,-143.11 165.52,-136.38"/>
</g>
<!-- Node3 -->
<g id="node3" class="node">
<title>Node3</title>
<g id="a_node3"><a xlink:href="abcg__external_8hpp.html" target="_top" xlink:title="Header file for including third&#45;party dependencies.">
<polygon fill="none" stroke="black" points="162.5,-0.5 162.5,-19.5 269.5,-19.5 269.5,-0.5 162.5,-0.5"/>
<text text-anchor="middle" x="216" y="-7.5" font-family="Helvetica,sans-Serif" font-size="10.00">abcg_external.hpp</text>
</a>
</g>
</g>
<!-- Node2&#45;&gt;Node3 -->
<g id="edge2" class="edge">
<title>Node2&#45;&gt;Node3</title>
<path fill="none" stroke="midnightblue" d="M269.52,-112.34C258.38,-91.24 237.44,-51.6 225.32,-28.65"/>
<polygon fill="midnightblue" stroke="midnightblue" points="228.34,-26.88 220.58,-19.67 222.15,-30.15 228.34,-26.88"/>
</g>
<!-- Node4 -->
<g id="node4" class="node">
<title>Node4</title>
<g id="a_node4"><a xlink:href="abcg__vulkan_8hpp.html" target="_top" xlink:title="Header file for Vulkan&#45;related functions and classes.">
<polygon fill="none" stroke="black" points="128,-56.5 128,-75.5 226,-75.5 226,-56.5 128,-56.5"/>
<text text-anchor="middle" x="177" y="-63.5" font-family="Helvetica,sans-Serif" font-size="10.00">abcg_vulkan.hpp</text>
</a>
</g>
</g>
<!-- Node2&#45;&gt;Node4 -->
<g id="edge3" class="edge">
<title>Node2&#45;&gt;Node4</title>
<path fill="none" stroke="midnightblue" d="M253.3,-112.4C237.27,-102.86 216.2,-90.32 200.26,-80.84"/>
<polygon fill="midnightblue" stroke="midnightblue" points="201.93,-77.76 191.55,-75.66 198.36,-83.78 201.93,-77.76"/>
</g>
<!-- Node6 -->
<g id="node6" class="node">
<title>Node6</title>
<g id="a_node6"><a xlink:title=" ">
<polygon fill="none" stroke="#bfbfbf" points="281.5,-56.5 281.5,-75.5 430.5,-75.5 430.5,-56.5 281.5,-56.5"/>
<text text-anchor="middle" x="356" y="-63.5" font-family="Helvetica,sans-Serif" font-size="10.00">vulkan/vulkan_handles.hpp</text>
</a>
</g>
</g>
<!-- Node2&#45;&gt;Node6 -->
<g id="edge6" class="edge">
<title>Node2&#45;&gt;Node6</title>
<path fill="none" stroke="midnightblue" d="M295.72,-112.4C307.91,-103.22 323.79,-91.26 336.19,-81.92"/>
<polygon fill="midnightblue" stroke="midnightblue" points="338.62,-84.47 344.5,-75.66 334.41,-78.88 338.62,-84.47"/>
</g>
<!-- Node4&#45;&gt;Node3 -->
<g id="edge4" class="edge">
<title>Node4&#45;&gt;Node3</title>
<path fill="none" stroke="midnightblue" d="M183.44,-56.08C188.95,-48.46 197.03,-37.26 203.76,-27.94"/>
<polygon fill="midnightblue" stroke="midnightblue" points="206.66,-29.91 209.68,-19.75 200.99,-25.81 206.66,-29.91"/>
</g>
<!-- Node5 -->
<g id="node5" class="node">
<title>Node5</title>
<g id="a_node5"><a xlink:href="abcg__vulkan__external_8hpp.html" target="_top" xlink:title="Header file for including Vulkan&#45;related dependencies.">
<polygon fill="none" stroke="black" points="0,-0.5 0,-19.5 144,-19.5 144,-0.5 0,-0.5"/>
<text text-anchor="middle" x="72" y="-7.5" font-family="Helvetica,sans-Serif" font-size="10.00">abcg_vulkan_external.hpp</text>
</a>
</g>
</g>
<!-- Node4&#45;&gt;Node5 -->
<g id="edge5" class="edge">
<title>Node4&#45;&gt;Node5</title>
<path fill="none" stroke="midnightblue" d="M160.13,-56.32C143.29,-47.66 117.19,-34.24 97.76,-24.25"/>
<polygon fill="midnightblue" stroke="midnightblue" points="99.32,-21.12 88.83,-19.65 96.12,-27.34 99.32,-21.12"/>
</g>
<!-- Node10 -->
<g id="node10" class="node">
<title>Node10</title>
<g id="a_node10"><a xlink:title=" ">
<polygon fill="none" stroke="#bfbfbf" points="448.5,-56.5 448.5,-75.5 541.5,-75.5 541.5,-56.5 448.5,-56.5"/>
<text text-anchor="middle" x="495" y="-63.5" font-family="Helvetica,sans-Serif" font-size="10.00">source_location</text>
</a>
</g>
</g>
<!-- Node9&#45;&gt;Node10 -->
<g id="edge10" class="edge">
<title>Node9&#45;&gt;Node10</title>
<path fill="none" stroke="midnightblue" d="M557.54,-117.98C546.05,-108.61 527.37,-93.38 513.41,-82.01"/>
<polygon fill="midnightblue" stroke="midnightblue" points="515.4,-79.11 505.44,-75.51 510.98,-84.54 515.4,-79.11"/>
</g>
<!-- Node11 -->
<g id="node11" class="node">
<title>Node11</title>
<g id="a_node11"><a xlink:title=" ">
<polygon fill="none" stroke="#bfbfbf" points="559.5,-56.5 559.5,-75.5 624.5,-75.5 624.5,-56.5 559.5,-56.5"/>
<text text-anchor="middle" x="592" y="-63.5" font-family="Helvetica,sans-Serif" font-size="10.00">stdexcept</text>
</a>
</g>
</g>
<!-- Node9&#45;&gt;Node11 -->
<g id="edge11" class="edge">
<title>Node9&#45;&gt;Node11</title>
<path fill="none" stroke="midnightblue" d="M571.44,-117.98C574.9,-109.4 580.33,-95.93 584.75,-84.98"/>
<polygon fill="midnightblue" stroke="midnightblue" points="588.07,-86.09 588.57,-75.51 581.58,-83.47 588.07,-86.09"/>
</g>
<!-- Node12 -->
<g id="node12" class="node">
<title>Node12</title>
<g id="a_node12"><a xlink:title=" ">
<polygon fill="none" stroke="#bfbfbf" points="643,-56.5 643,-75.5 687,-75.5 687,-56.5 643,-56.5"/>
<text text-anchor="middle" x="665" y="-63.5" font-family="Helvetica,sans-Serif" font-size="10.00">string</text>
</a>
</g>
</g>
<!-- Node9&#45;&gt;Node12 -->
<g id="edge12" class="edge">
<title>Node9&#45;&gt;Node12</title>
<path fill="none" stroke="midnightblue" d="M581.9,-117.98C597.67,-108.3 623.64,-92.37 642.35,-80.89"/>
<polygon fill="midnightblue" stroke="midnightblue" points="644.43,-83.72 651.13,-75.51 640.77,-77.75 644.43,-83.72"/>
</g>
<!-- Node13&#45;&gt;Node3 -->
<g id="edge14" class="edge">
<title>Node13&#45;&gt;Node3</title>
<path fill="none" stroke="midnightblue" d="M121.14,-117.89C115.44,-103.75 106.7,-75.26 119,-56 129.2,-40.03 146.69,-29.64 164.04,-22.92"/>
<polygon fill="midnightblue" stroke="midnightblue" points="165.34,-26.17 173.61,-19.55 163.02,-19.56 165.34,-26.17"/>
</g>
<!-- Node13&#45;&gt;Node4 -->
<g id="edge15" class="edge">
<title>Node13&#45;&gt;Node4</title>
<path fill="none" stroke="midnightblue" d="M132.45,-117.98C140.33,-108.96 152.94,-94.52 162.74,-83.31"/>
<polygon fill="midnightblue" stroke="midnightblue" points="165.62,-85.34 169.56,-75.51 160.35,-80.74 165.62,-85.34"/>
</g>
</g>
</svg>
