<?xml version="1.0" encoding="UTF-8" standalone="no"?>
<!DOCTYPE svg PUBLIC "-//W3C//DTD SVG 1.1//EN"
 "http://www.w3.org/Graphics/SVG/1.1/DTD/svg11.dtd">
<!-- Generated by graphviz version 2.43.0 (0)
 -->
<!-- Title: /home/harlen/dev/abcg2/abcg/abcg_opengl_window.hpp Pages: 1 -->
<svg width="989pt" height="207pt"
 viewBox="0.00 0.00 989.32 207.00" xmlns="http://www.w3.org/2000/svg" xmlns:xlink="http://www.w3.org/1999/xlink">
<g id="graph0" class="graph" transform="scale(1 1) rotate(0) translate(4 203)">
<title>/home/harlen/dev/abcg2/abcg/abcg_opengl_window.hpp</title>
<!-- Node1 -->
<g id="node1" class="node">
<title>Node1</title>
<g id="a_node1"><a xlink:title="Header file of abcg::OpenGLWindow.">
<polygon fill="#bfbfbf" stroke="black" points="392.82,-168.5 392.82,-198.5 562.82,-198.5 562.82,-168.5 392.82,-168.5"/>
<text text-anchor="start" x="400.82" y="-186.5" font-family="Helvetica,sans-Serif" font-size="10.00">/home/harlen/dev/abcg2</text>
<text text-anchor="middle" x="477.82" y="-175.5" font-family="Helvetica,sans-Serif" font-size="10.00">/abcg/abcg_opengl_window.hpp</text>
</a>
</g>
</g>
<!-- Node2 -->
<g id="node2" class="node">
<title>Node2</title>
<g id="a_node2"><a xlink:title=" ">
<polygon fill="none" stroke="#bfbfbf" points="107.82,-0.5 107.82,-19.5 151.82,-19.5 151.82,-0.5 107.82,-0.5"/>
<text text-anchor="middle" x="129.82" y="-7.5" font-family="Helvetica,sans-Serif" font-size="10.00">string</text>
</a>
</g>
</g>
<!-- Node1&#45;&gt;Node2 -->
<g id="edge1" class="edge">
<title>Node1&#45;&gt;Node2</title>
<path fill="none" stroke="midnightblue" d="M392.66,-176.28C269.41,-165.24 51.06,-137.36 5.82,-76 -20.34,-40.52 52.81,-22.69 97.68,-15.31"/>
<polygon fill="midnightblue" stroke="midnightblue" points="98.25,-18.76 107.59,-13.77 97.17,-11.84 98.25,-18.76"/>
</g>
<!-- Node3 -->
<g id="node3" class="node">
<title>Node3</title>
<g id="a_node3"><a xlink:href="abcg__external_8hpp.html" target="_top" xlink:title="Header file for including third&#45;party dependencies.">
<polygon fill="none" stroke="black" points="874.32,-56.5 874.32,-75.5 981.32,-75.5 981.32,-56.5 874.32,-56.5"/>
<text text-anchor="middle" x="927.82" y="-63.5" font-family="Helvetica,sans-Serif" font-size="10.00">abcg_external.hpp</text>
</a>
</g>
</g>
<!-- Node1&#45;&gt;Node3 -->
<g id="edge2" class="edge">
<title>Node1&#45;&gt;Node3</title>
<path fill="none" stroke="midnightblue" d="M563.16,-175.82C627.89,-169.11 718.44,-156.15 794.82,-132 835.41,-119.16 879.16,-95.72 904.99,-80.78"/>
<polygon fill="midnightblue" stroke="midnightblue" points="906.8,-83.77 913.65,-75.69 903.25,-77.73 906.8,-83.77"/>
</g>
<!-- Node4 -->
<g id="node4" class="node">
<title>Node4</title>
<g id="a_node4"><a xlink:href="abcg__opengl__function_8hpp.html" target="_top" xlink:title="Declaration of OpenGL&#45;related error checking functions.">
<polygon fill="none" stroke="black" points="405.82,-112.5 405.82,-131.5 549.82,-131.5 549.82,-112.5 405.82,-112.5"/>
<text text-anchor="middle" x="477.82" y="-119.5" font-family="Helvetica,sans-Serif" font-size="10.00">abcg_opengl_function.hpp</text>
</a>
</g>
</g>
<!-- Node1&#45;&gt;Node4 -->
<g id="edge3" class="edge">
<title>Node1&#45;&gt;Node4</title>
<path fill="none" stroke="midnightblue" d="M477.82,-168.4C477.82,-160.47 477.82,-150.46 477.82,-141.86"/>
<polygon fill="midnightblue" stroke="midnightblue" points="481.32,-141.66 477.82,-131.66 474.32,-141.66 481.32,-141.66"/>
</g>
<!-- Node9 -->
<g id="node9" class="node">
<title>Node9</title>
<g id="a_node9"><a xlink:href="abcg__opengl__shader_8hpp.html" target="_top" xlink:title="Declaration of helper functions for building OpenGL shaders.">
<polygon fill="none" stroke="black" points="196.32,-112.5 196.32,-131.5 333.32,-131.5 333.32,-112.5 196.32,-112.5"/>
<text text-anchor="middle" x="264.82" y="-119.5" font-family="Helvetica,sans-Serif" font-size="10.00">abcg_opengl_shader.hpp</text>
</a>
</g>
</g>
<!-- Node1&#45;&gt;Node9 -->
<g id="edge8" class="edge">
<title>Node1&#45;&gt;Node9</title>
<path fill="none" stroke="midnightblue" d="M427.61,-168.47C390.22,-158.03 339.85,-143.96 305.08,-134.25"/>
<polygon fill="midnightblue" stroke="midnightblue" points="305.85,-130.83 295.27,-131.51 303.96,-137.57 305.85,-130.83"/>
</g>
<!-- Node12 -->
<g id="node12" class="node">
<title>Node12</title>
<g id="a_node12"><a xlink:href="abcg__window_8hpp.html" target="_top" xlink:title="Header file of abcg::Window.">
<polygon fill="none" stroke="black" points="683.32,-112.5 683.32,-131.5 786.32,-131.5 786.32,-112.5 683.32,-112.5"/>
<text text-anchor="middle" x="734.82" y="-119.5" font-family="Helvetica,sans-Serif" font-size="10.00">abcg_window.hpp</text>
</a>
</g>
</g>
<!-- Node1&#45;&gt;Node12 -->
<g id="edge15" class="edge">
<title>Node1&#45;&gt;Node12</title>
<path fill="none" stroke="midnightblue" d="M538.4,-168.47C584.19,-157.87 646.13,-143.53 688.12,-133.81"/>
<polygon fill="midnightblue" stroke="midnightblue" points="689.13,-137.17 698.08,-131.51 687.55,-130.35 689.13,-137.17"/>
</g>
<!-- Node5 -->
<g id="node5" class="node">
<title>Node5</title>
<g id="a_node5"><a xlink:title=" ">
<polygon fill="none" stroke="#bfbfbf" points="576.32,-56.5 576.32,-75.5 669.32,-75.5 669.32,-56.5 576.32,-56.5"/>
<text text-anchor="middle" x="622.82" y="-63.5" font-family="Helvetica,sans-Serif" font-size="10.00">source_location</text>
</a>
</g>
</g>
<!-- Node4&#45;&gt;Node5 -->
<g id="edge4" class="edge">
<title>Node4&#45;&gt;Node5</title>
<path fill="none" stroke="midnightblue" d="M500.8,-112.44C524.98,-103.44 563.24,-89.19 590.47,-79.05"/>
<polygon fill="midnightblue" stroke="midnightblue" points="591.8,-82.29 599.95,-75.52 589.36,-75.73 591.8,-82.29"/>
</g>
<!-- Node6 -->
<g id="node6" class="node">
<title>Node6</title>
<g id="a_node6"><a xlink:title=" ">
<polygon fill="none" stroke="#bfbfbf" points="398.32,-56.5 398.32,-75.5 471.32,-75.5 471.32,-56.5 398.32,-56.5"/>
<text text-anchor="middle" x="434.82" y="-63.5" font-family="Helvetica,sans-Serif" font-size="10.00">string_view</text>
</a>
</g>
</g>
<!-- Node4&#45;&gt;Node6 -->
<g id="edge5" class="edge">
<title>Node4&#45;&gt;Node6</title>
<path fill="none" stroke="midnightblue" d="M470.72,-112.08C464.58,-104.38 455.55,-93.03 448.08,-83.65"/>
<polygon fill="midnightblue" stroke="midnightblue" points="450.76,-81.39 441.79,-75.75 445.28,-85.75 450.76,-81.39"/>
</g>
<!-- Node7 -->
<g id="node7" class="node">
<title>Node7</title>
<g id="a_node7"><a xlink:title=" ">
<polygon fill="none" stroke="#bfbfbf" points="489.32,-56.5 489.32,-75.5 558.32,-75.5 558.32,-56.5 489.32,-56.5"/>
<text text-anchor="middle" x="523.82" y="-63.5" font-family="Helvetica,sans-Serif" font-size="10.00">type_traits</text>
</a>
</g>
</g>
<!-- Node4&#45;&gt;Node7 -->
<g id="edge6" class="edge">
<title>Node4&#45;&gt;Node7</title>
<path fill="none" stroke="midnightblue" d="M485.42,-112.08C492.05,-104.3 501.84,-92.8 509.88,-83.37"/>
<polygon fill="midnightblue" stroke="midnightblue" points="512.55,-85.63 516.37,-75.75 507.22,-81.09 512.55,-85.63"/>
</g>
<!-- Node8 -->
<g id="node8" class="node">
<title>Node8</title>
<g id="a_node8"><a xlink:href="abcg__opengl__external_8hpp.html" target="_top" xlink:title="Header file for including OpenGL&#45;related third&#45;party dependencies.">
<polygon fill="none" stroke="black" points="235.32,-56.5 235.32,-75.5 380.32,-75.5 380.32,-56.5 235.32,-56.5"/>
<text text-anchor="middle" x="307.82" y="-63.5" font-family="Helvetica,sans-Serif" font-size="10.00">abcg_opengl_external.hpp</text>
</a>
</g>
</g>
<!-- Node4&#45;&gt;Node8 -->
<g id="edge7" class="edge">
<title>Node4&#45;&gt;Node8</title>
<path fill="none" stroke="midnightblue" d="M450.88,-112.44C422.16,-103.32 376.49,-88.81 344.5,-78.65"/>
<polygon fill="midnightblue" stroke="midnightblue" points="345.22,-75.21 334.63,-75.52 343.1,-81.88 345.22,-75.21"/>
</g>
<!-- Node9&#45;&gt;Node2 -->
<g id="edge12" class="edge">
<title>Node9&#45;&gt;Node2</title>
<path fill="none" stroke="midnightblue" d="M211.18,-112.43C171.46,-104.86 122.19,-92.47 109.82,-76 99.24,-61.9 107.8,-42.14 116.78,-28.12"/>
<polygon fill="midnightblue" stroke="midnightblue" points="119.69,-30.05 122.54,-19.85 113.95,-26.05 119.69,-30.05"/>
</g>
<!-- Node9&#45;&gt;Node6 -->
<g id="edge13" class="edge">
<title>Node9&#45;&gt;Node6</title>
<path fill="none" stroke="midnightblue" d="M291.76,-112.44C320.48,-103.32 366.15,-88.81 398.14,-78.65"/>
<polygon fill="midnightblue" stroke="midnightblue" points="399.54,-81.88 408.01,-75.52 397.42,-75.21 399.54,-81.88"/>
</g>
<!-- Node9&#45;&gt;Node8 -->
<g id="edge9" class="edge">
<title>Node9&#45;&gt;Node8</title>
<path fill="none" stroke="midnightblue" d="M271.92,-112.08C278.06,-104.38 287.09,-93.03 294.56,-83.65"/>
<polygon fill="midnightblue" stroke="midnightblue" points="297.36,-85.75 300.85,-75.75 291.89,-81.39 297.36,-85.75"/>
</g>
<!-- Node10 -->
<g id="node10" class="node">
<title>Node10</title>
<g id="a_node10"><a xlink:href="abcg__shader_8hpp.html" target="_top" xlink:title="Declaration of helper functions for building shaders and programs.">
<polygon fill="none" stroke="black" points="118.82,-56.5 118.82,-75.5 216.82,-75.5 216.82,-56.5 118.82,-56.5"/>
<text text-anchor="middle" x="167.82" y="-63.5" font-family="Helvetica,sans-Serif" font-size="10.00">abcg_shader.hpp</text>
</a>
</g>
</g>
<!-- Node9&#45;&gt;Node10 -->
<g id="edge10" class="edge">
<title>Node9&#45;&gt;Node10</title>
<path fill="none" stroke="midnightblue" d="M249.24,-112.32C233.82,-103.74 210.01,-90.49 192.11,-80.52"/>
<polygon fill="midnightblue" stroke="midnightblue" points="193.81,-77.46 183.37,-75.65 190.4,-83.58 193.81,-77.46"/>
</g>
<!-- Node11 -->
<g id="node11" class="node">
<title>Node11</title>
<g id="a_node11"><a xlink:title=" ">
<polygon fill="none" stroke="#bfbfbf" points="15.32,-56.5 15.32,-75.5 62.32,-75.5 62.32,-56.5 15.32,-56.5"/>
<text text-anchor="middle" x="38.82" y="-63.5" font-family="Helvetica,sans-Serif" font-size="10.00">vector</text>
</a>
</g>
</g>
<!-- Node9&#45;&gt;Node11 -->
<g id="edge14" class="edge">
<title>Node9&#45;&gt;Node11</title>
<path fill="none" stroke="midnightblue" d="M229.01,-112.44C185.89,-102.14 114.05,-84.97 72.1,-74.95"/>
<polygon fill="midnightblue" stroke="midnightblue" points="72.9,-71.54 62.36,-72.62 71.27,-78.35 72.9,-71.54"/>
</g>
<!-- Node10&#45;&gt;Node2 -->
<g id="edge11" class="edge">
<title>Node10&#45;&gt;Node2</title>
<path fill="none" stroke="midnightblue" d="M161.55,-56.08C156.18,-48.46 148.3,-37.26 141.74,-27.94"/>
<polygon fill="midnightblue" stroke="midnightblue" points="144.6,-25.91 135.98,-19.75 138.87,-29.94 144.6,-25.91"/>
</g>
<!-- Node12&#45;&gt;Node2 -->
<g id="edge16" class="edge">
<title>Node12&#45;&gt;Node2</title>
<path fill="none" stroke="midnightblue" d="M730.23,-112.36C721.95,-97.8 703.02,-68.69 677.82,-56 586.62,-10.08 265.16,-9.48 161.97,-10.53"/>
<polygon fill="midnightblue" stroke="midnightblue" points="161.81,-7.03 151.85,-10.64 161.89,-14.03 161.81,-7.03"/>
</g>
<!-- Node12&#45;&gt;Node3 -->
<g id="edge19" class="edge">
<title>Node12&#45;&gt;Node3</title>
<path fill="none" stroke="midnightblue" d="M765.4,-112.44C798.44,-103.2 851.21,-88.44 887.59,-78.26"/>
<polygon fill="midnightblue" stroke="midnightblue" points="888.7,-81.58 897.38,-75.52 886.81,-74.84 888.7,-81.58"/>
</g>
<!-- Node13 -->
<g id="node13" class="node">
<title>Node13</title>
<g id="a_node13"><a xlink:href="abcg__elapsedtimer_8hpp.html" target="_top" xlink:title="Header file of abcg::ElapsedTimer.">
<polygon fill="none" stroke="black" points="725.82,-56.5 725.82,-75.5 855.82,-75.5 855.82,-56.5 725.82,-56.5"/>
<text text-anchor="middle" x="790.82" y="-63.5" font-family="Helvetica,sans-Serif" font-size="10.00">abcg_elapsedtimer.hpp</text>
</a>
</g>
</g>
<!-- Node12&#45;&gt;Node13 -->
<g id="edge17" class="edge">
<title>Node12&#45;&gt;Node13</title>
<path fill="none" stroke="midnightblue" d="M743.82,-112.32C752.02,-104.42 764.33,-92.55 774.29,-82.94"/>
<polygon fill="midnightblue" stroke="midnightblue" points="776.89,-85.29 781.66,-75.83 772.03,-80.26 776.89,-85.29"/>
</g>
<!-- Node14 -->
<g id="node14" class="node">
<title>Node14</title>
<g id="a_node14"><a xlink:title=" ">
<polygon fill="none" stroke="#bfbfbf" points="765.82,-0.5 765.82,-19.5 815.82,-19.5 815.82,-0.5 765.82,-0.5"/>
<text text-anchor="middle" x="790.82" y="-7.5" font-family="Helvetica,sans-Serif" font-size="10.00">chrono</text>
</a>
</g>
</g>
<!-- Node13&#45;&gt;Node14 -->
<g id="edge18" class="edge">
<title>Node13&#45;&gt;Node14</title>
<path fill="none" stroke="midnightblue" d="M790.82,-56.08C790.82,-49.01 790.82,-38.86 790.82,-29.99"/>
<polygon fill="midnightblue" stroke="midnightblue" points="794.32,-29.75 790.82,-19.75 787.32,-29.75 794.32,-29.75"/>
</g>
</g>
</svg>
