<?xml version="1.0" encoding="UTF-8" standalone="no"?>
<!DOCTYPE svg PUBLIC "-//W3C//DTD SVG 1.1//EN"
 "http://www.w3.org/Graphics/SVG/1.1/DTD/svg11.dtd">
<!-- Generated by graphviz version 2.43.0 (0)
 -->
<!-- Title: /home/harlen/dev/abcg/abcg/abcgVulkanShader.cpp Pages: 1 -->
<svg width="1320pt" height="379pt"
 viewBox="0.00 0.00 1320.00 379.00" xmlns="http://www.w3.org/2000/svg" xmlns:xlink="http://www.w3.org/1999/xlink">
<g id="graph0" class="graph" transform="scale(1 1) rotate(0) translate(4 375)">
<title>/home/harlen/dev/abcg/abcg/abcgVulkanShader.cpp</title>
<!-- Node1 -->
<g id="Node000001" class="node">
<title>Node1</title>
<g id="a_Node000001"><a xlink:title="Definition of helper functions for creating Vulkan shaders.">
<polygon fill="#999999" stroke="#666666" points="998,-371 843,-371 843,-341 998,-341 998,-371"/>
<text text-anchor="start" x="851" y="-359" font-family="Helvetica,sans-Serif" font-size="10.00">/home/harlen/dev/abcg</text>
<text text-anchor="middle" x="920.5" y="-348" font-family="Helvetica,sans-Serif" font-size="10.00">/abcg/abcgVulkanShader.cpp</text>
</a>
</g>
</g>
<!-- Node2 -->
<g id="Node000002" class="node">
<title>Node2</title>
<g id="a_Node000002"><a xlink:href="abcgVulkanShader_8hpp.html" target="_top" xlink:title="Declaration of helper functions for creating Vulkan shaders.">
<polygon fill="white" stroke="#666666" points="356.5,-299.5 230.5,-299.5 230.5,-280.5 356.5,-280.5 356.5,-299.5"/>
<text text-anchor="middle" x="293.5" y="-287.5" font-family="Helvetica,sans-Serif" font-size="10.00">abcgVulkanShader.hpp</text>
</a>
</g>
</g>
<!-- Node1&#45;&gt;Node2 -->
<g id="edge1_Node000001_Node000002" class="edge">
<title>Node1&#45;&gt;Node2</title>
<g id="a_edge1_Node000001_Node000002"><a xlink:title=" ">
<path fill="none" stroke="#63b8ff" d="M842.97,-349.66C737.43,-341.98 542.75,-326.35 377.5,-305 368.87,-303.89 359.77,-302.54 350.87,-301.14"/>
<polygon fill="#63b8ff" stroke="#63b8ff" points="351.37,-297.67 340.94,-299.53 350.26,-304.58 351.37,-297.67"/>
</a>
</g>
</g>
<!-- Node14 -->
<g id="Node000014" class="node">
<title>Node14</title>
<g id="a_Node000014"><a xlink:href="abcgException_8hpp.html" target="_top" xlink:title="Header file of abcg::Exception and derived classes.">
<polygon fill="white" stroke="#666666" points="495,-299.5 386,-299.5 386,-280.5 495,-280.5 495,-299.5"/>
<text text-anchor="middle" x="440.5" y="-287.5" font-family="Helvetica,sans-Serif" font-size="10.00">abcgException.hpp</text>
</a>
</g>
</g>
<!-- Node1&#45;&gt;Node14 -->
<g id="edge13_Node000001_Node000014" class="edge">
<title>Node1&#45;&gt;Node14</title>
<g id="a_edge13_Node000001_Node000014"><a xlink:title=" ">
<path fill="none" stroke="#63b8ff" d="M842.74,-347.9C758.93,-339.72 621.77,-324.83 504.5,-305 498.68,-304.02 492.59,-302.86 486.58,-301.63"/>
<polygon fill="#63b8ff" stroke="#63b8ff" points="487.1,-298.17 476.6,-299.53 485.66,-305.01 487.1,-298.17"/>
</a>
</g>
</g>
<!-- Node17 -->
<g id="Node000017" class="node">
<title>Node17</title>
<g id="a_Node000017"><a xlink:title=" ">
<polygon fill="#e0e0e0" stroke="#999999" points="666,-299.5 513,-299.5 513,-280.5 666,-280.5 666,-299.5"/>
<text text-anchor="middle" x="589.5" y="-287.5" font-family="Helvetica,sans-Serif" font-size="10.00">glslang/Public/ShaderLang.h</text>
</a>
</g>
</g>
<!-- Node1&#45;&gt;Node17 -->
<g id="edge17_Node000001_Node000017" class="edge">
<title>Node1&#45;&gt;Node17</title>
<g id="a_edge17_Node000001_Node000017"><a xlink:title=" ">
<path fill="none" stroke="#63b8ff" d="M847.86,-340.95C786.23,-329.04 699.2,-312.21 643.56,-301.45"/>
<polygon fill="#63b8ff" stroke="#63b8ff" points="644.03,-297.98 633.55,-299.52 642.7,-304.85 644.03,-297.98"/>
</a>
</g>
</g>
<!-- Node18 -->
<g id="Node000018" class="node">
<title>Node18</title>
<g id="a_Node000018"><a xlink:title=" ">
<polygon fill="#e0e0e0" stroke="#999999" points="822.5,-305 684.5,-305 684.5,-275 822.5,-275 822.5,-305"/>
<text text-anchor="start" x="692.5" y="-293" font-family="Helvetica,sans-Serif" font-size="10.00">glslang/Include/Resource</text>
<text text-anchor="middle" x="753.5" y="-282" font-family="Helvetica,sans-Serif" font-size="10.00">Limits.h</text>
</a>
</g>
</g>
<!-- Node1&#45;&gt;Node18 -->
<g id="edge18_Node000001_Node000018" class="edge">
<title>Node1&#45;&gt;Node18</title>
<g id="a_edge18_Node000001_Node000018"><a xlink:title=" ">
<path fill="none" stroke="#63b8ff" d="M883.85,-340.95C859.05,-331.45 826.1,-318.82 799.54,-308.64"/>
<polygon fill="#63b8ff" stroke="#63b8ff" points="800.65,-305.32 790.06,-305.01 798.15,-311.86 800.65,-305.32"/>
</a>
</g>
</g>
<!-- Node19 -->
<g id="Node000019" class="node">
<title>Node19</title>
<g id="a_Node000019"><a xlink:title=" ">
<polygon fill="#e0e0e0" stroke="#999999" points="1000.5,-299.5 840.5,-299.5 840.5,-280.5 1000.5,-280.5 1000.5,-299.5"/>
<text text-anchor="middle" x="920.5" y="-287.5" font-family="Helvetica,sans-Serif" font-size="10.00">glslang/SPIRV/GlslangToSpv.h</text>
</a>
</g>
</g>
<!-- Node1&#45;&gt;Node19 -->
<g id="edge19_Node000001_Node000019" class="edge">
<title>Node1&#45;&gt;Node19</title>
<g id="a_edge19_Node000001_Node000019"><a xlink:title=" ">
<path fill="none" stroke="#63b8ff" d="M920.5,-340.8C920.5,-331.7 920.5,-319.79 920.5,-309.9"/>
<polygon fill="#63b8ff" stroke="#63b8ff" points="924,-309.84 920.5,-299.84 917,-309.84 924,-309.84"/>
</a>
</g>
</g>
<!-- Node20 -->
<g id="Node000020" class="node">
<title>Node20</title>
<g id="a_Node000020"><a xlink:title=" ">
<polygon fill="#e0e0e0" stroke="#999999" points="1086,-299.5 1019,-299.5 1019,-280.5 1086,-280.5 1086,-299.5"/>
<text text-anchor="middle" x="1052.5" y="-287.5" font-family="Helvetica,sans-Serif" font-size="10.00">fmt/core.h</text>
</a>
</g>
</g>
<!-- Node1&#45;&gt;Node20 -->
<g id="edge20_Node000001_Node000020" class="edge">
<title>Node1&#45;&gt;Node20</title>
<g id="a_edge20_Node000001_Node000020"><a xlink:title=" ">
<path fill="none" stroke="#63b8ff" d="M949.47,-340.95C972.21,-329.93 1003.62,-314.7 1025.77,-303.96"/>
<polygon fill="#63b8ff" stroke="#63b8ff" points="1027.46,-307.03 1034.93,-299.52 1024.41,-300.73 1027.46,-307.03"/>
</a>
</g>
</g>
<!-- Node21 -->
<g id="Node000021" class="node">
<title>Node21</title>
<g id="a_Node000021"><a xlink:title=" ">
<polygon fill="#e0e0e0" stroke="#999999" points="1152.5,-299.5 1104.5,-299.5 1104.5,-280.5 1152.5,-280.5 1152.5,-299.5"/>
<text text-anchor="middle" x="1128.5" y="-287.5" font-family="Helvetica,sans-Serif" font-size="10.00">gsl/gsl</text>
</a>
</g>
</g>
<!-- Node1&#45;&gt;Node21 -->
<g id="edge21_Node000001_Node000021" class="edge">
<title>Node1&#45;&gt;Node21</title>
<g id="a_edge21_Node000001_Node000021"><a xlink:title=" ">
<path fill="none" stroke="#63b8ff" d="M976.22,-340.96C1010.88,-331.76 1056.18,-318.9 1095.5,-305 1096.93,-304.49 1098.39,-303.96 1099.85,-303.4"/>
<polygon fill="#63b8ff" stroke="#63b8ff" points="1101.48,-306.52 1109.46,-299.55 1098.88,-300.02 1101.48,-306.52"/>
</a>
</g>
</g>
<!-- Node22 -->
<g id="Node000022" class="node">
<title>Node22</title>
<g id="a_Node000022"><a xlink:title=" ">
<polygon fill="#e0e0e0" stroke="#999999" points="1238.5,-299.5 1170.5,-299.5 1170.5,-280.5 1238.5,-280.5 1238.5,-299.5"/>
<text text-anchor="middle" x="1204.5" y="-287.5" font-family="Helvetica,sans-Serif" font-size="10.00">filesystem</text>
</a>
</g>
</g>
<!-- Node1&#45;&gt;Node22 -->
<g id="edge22_Node000001_Node000022" class="edge">
<title>Node1&#45;&gt;Node22</title>
<g id="a_edge22_Node000001_Node000022"><a xlink:title=" ">
<path fill="none" stroke="#63b8ff" d="M998.07,-341.16C1045.56,-332.13 1107.4,-319.37 1161.5,-305 1164.27,-304.26 1167.13,-303.45 1170,-302.6"/>
<polygon fill="#63b8ff" stroke="#63b8ff" points="1171.11,-305.92 1179.63,-299.61 1169.04,-299.23 1171.11,-305.92"/>
</a>
</g>
</g>
<!-- Node23 -->
<g id="Node000023" class="node">
<title>Node23</title>
<g id="a_Node000023"><a xlink:title=" ">
<polygon fill="#e0e0e0" stroke="#999999" points="1312,-299.5 1257,-299.5 1257,-280.5 1312,-280.5 1312,-299.5"/>
<text text-anchor="middle" x="1284.5" y="-287.5" font-family="Helvetica,sans-Serif" font-size="10.00">fstream</text>
</a>
</g>
</g>
<!-- Node1&#45;&gt;Node23 -->
<g id="edge23_Node000001_Node000023" class="edge">
<title>Node1&#45;&gt;Node23</title>
<g id="a_edge23_Node000001_Node000023"><a xlink:title=" ">
<path fill="none" stroke="#63b8ff" d="M998.07,-347.78C1064.93,-340.46 1163.62,-327.02 1247.5,-305 1249.8,-304.4 1252.15,-303.7 1254.5,-302.95"/>
<polygon fill="#63b8ff" stroke="#63b8ff" points="1255.72,-306.23 1264.01,-299.63 1253.41,-299.62 1255.72,-306.23"/>
</a>
</g>
</g>
<!-- Node3 -->
<g id="Node000003" class="node">
<title>Node3</title>
<g id="a_Node000003"><a xlink:href="abcgShader_8hpp.html" target="_top" xlink:title="Declaration of a structure for building shaders.">
<polygon fill="white" stroke="#666666" points="340.5,-239 246.5,-239 246.5,-220 340.5,-220 340.5,-239"/>
<text text-anchor="middle" x="293.5" y="-227" font-family="Helvetica,sans-Serif" font-size="10.00">abcgShader.hpp</text>
</a>
</g>
</g>
<!-- Node2&#45;&gt;Node3 -->
<g id="edge2_Node000002_Node000003" class="edge">
<title>Node2&#45;&gt;Node3</title>
<g id="a_edge2_Node000002_Node000003"><a xlink:title=" ">
<path fill="none" stroke="#63b8ff" d="M293.5,-280.37C293.5,-272.25 293.5,-259.81 293.5,-249.39"/>
<polygon fill="#63b8ff" stroke="#63b8ff" points="297,-249.17 293.5,-239.17 290,-249.17 297,-249.17"/>
</a>
</g>
</g>
<!-- Node6 -->
<g id="Node000006" class="node">
<title>Node6</title>
<g id="a_Node000006"><a xlink:href="abcgVulkanDevice_8hpp.html" target="_top" xlink:title="Header file of abcg::VulkanDevice.">
<polygon fill="white" stroke="#666666" points="228,-239 101,-239 101,-220 228,-220 228,-239"/>
<text text-anchor="middle" x="164.5" y="-227" font-family="Helvetica,sans-Serif" font-size="10.00">abcgVulkanDevice.hpp</text>
</a>
</g>
</g>
<!-- Node2&#45;&gt;Node6 -->
<g id="edge5_Node000002_Node000006" class="edge">
<title>Node2&#45;&gt;Node6</title>
<g id="a_edge5_Node000002_Node000006"><a xlink:title=" ">
<path fill="none" stroke="#63b8ff" d="M274.74,-280.49C253.15,-270.7 217.47,-254.52 192.57,-243.23"/>
<polygon fill="#63b8ff" stroke="#63b8ff" points="193.83,-239.96 183.28,-239.02 190.94,-246.33 193.83,-239.96"/>
</a>
</g>
</g>
<!-- Node4 -->
<g id="Node000004" class="node">
<title>Node4</title>
<g id="a_Node000004"><a xlink:title=" ">
<polygon fill="#e0e0e0" stroke="#999999" points="318.5,-184 268.5,-184 268.5,-165 318.5,-165 318.5,-184"/>
<text text-anchor="middle" x="293.5" y="-172" font-family="Helvetica,sans-Serif" font-size="10.00">cstdint</text>
</a>
</g>
</g>
<!-- Node3&#45;&gt;Node4 -->
<g id="edge3_Node000003_Node000004" class="edge">
<title>Node3&#45;&gt;Node4</title>
<g id="a_edge3_Node000003_Node000004"><a xlink:title=" ">
<path fill="none" stroke="#63b8ff" d="M293.5,-219.75C293.5,-212.8 293.5,-202.85 293.5,-194.13"/>
<polygon fill="#63b8ff" stroke="#63b8ff" points="297,-194.09 293.5,-184.09 290,-194.09 297,-194.09"/>
</a>
</g>
</g>
<!-- Node5 -->
<g id="Node000005" class="node">
<title>Node5</title>
<g id="a_Node000005"><a xlink:title=" ">
<polygon fill="#e0e0e0" stroke="#999999" points="427.5,-184 383.5,-184 383.5,-165 427.5,-165 427.5,-184"/>
<text text-anchor="middle" x="405.5" y="-172" font-family="Helvetica,sans-Serif" font-size="10.00">string</text>
</a>
</g>
</g>
<!-- Node3&#45;&gt;Node5 -->
<g id="edge4_Node000003_Node000005" class="edge">
<title>Node3&#45;&gt;Node5</title>
<g id="a_edge4_Node000003_Node000005"><a xlink:title=" ">
<path fill="none" stroke="#63b8ff" d="M311.49,-219.98C329.43,-211.5 357.22,-198.35 377.93,-188.54"/>
<polygon fill="#63b8ff" stroke="#63b8ff" points="379.64,-191.61 387.18,-184.17 376.64,-185.28 379.64,-191.61"/>
</a>
</g>
</g>
<!-- Node7 -->
<g id="Node000007" class="node">
<title>Node7</title>
<g id="a_Node000007"><a xlink:href="abcgVulkanPhysicalDevice_8hpp.html" target="_top" xlink:title="Header file of abcg::VulkanPhysicalDevice.">
<polygon fill="white" stroke="#666666" points="250,-184 83,-184 83,-165 250,-165 250,-184"/>
<text text-anchor="middle" x="166.5" y="-172" font-family="Helvetica,sans-Serif" font-size="10.00">abcgVulkanPhysicalDevice.hpp</text>
</a>
</g>
</g>
<!-- Node6&#45;&gt;Node7 -->
<g id="edge6_Node000006_Node000007" class="edge">
<title>Node6&#45;&gt;Node7</title>
<g id="a_edge6_Node000006_Node000007"><a xlink:title=" ">
<path fill="none" stroke="#63b8ff" d="M164.83,-219.75C165.09,-212.8 165.47,-202.85 165.8,-194.13"/>
<polygon fill="#63b8ff" stroke="#63b8ff" points="169.3,-194.21 166.18,-184.09 162.3,-193.95 169.3,-194.21"/>
</a>
</g>
</g>
<!-- Node13 -->
<g id="Node000013" class="node">
<title>Node13</title>
<g id="a_Node000013"><a xlink:title=" ">
<polygon fill="#e0e0e0" stroke="#999999" points="65,-184 0,-184 0,-165 65,-165 65,-184"/>
<text text-anchor="middle" x="32.5" y="-172" font-family="Helvetica,sans-Serif" font-size="10.00">functional</text>
</a>
</g>
</g>
<!-- Node6&#45;&gt;Node13 -->
<g id="edge12_Node000006_Node000013" class="edge">
<title>Node6&#45;&gt;Node13</title>
<g id="a_edge12_Node000006_Node000013"><a xlink:title=" ">
<path fill="none" stroke="#63b8ff" d="M143.29,-219.98C121.77,-211.34 88.22,-197.87 63.67,-188.02"/>
<polygon fill="#63b8ff" stroke="#63b8ff" points="64.68,-184.65 54.09,-184.17 62.07,-191.14 64.68,-184.65"/>
</a>
</g>
</g>
<!-- Node8 -->
<g id="Node000008" class="node">
<title>Node8</title>
<g id="a_Node000008"><a xlink:title=" ">
<polygon fill="#e0e0e0" stroke="#999999" points="138.5,-129 82.5,-129 82.5,-110 138.5,-110 138.5,-129"/>
<text text-anchor="middle" x="110.5" y="-117" font-family="Helvetica,sans-Serif" font-size="10.00">optional</text>
</a>
</g>
</g>
<!-- Node7&#45;&gt;Node8 -->
<g id="edge7_Node000007_Node000008" class="edge">
<title>Node7&#45;&gt;Node8</title>
<g id="a_edge7_Node000007_Node000008"><a xlink:title=" ">
<path fill="none" stroke="#63b8ff" d="M157.5,-164.98C149.31,-157.23 136.99,-145.58 127.03,-136.14"/>
<polygon fill="#63b8ff" stroke="#63b8ff" points="129.33,-133.5 119.66,-129.17 124.52,-138.59 129.33,-133.5"/>
</a>
</g>
</g>
<!-- Node9 -->
<g id="Node000009" class="node">
<title>Node9</title>
<g id="a_Node000009"><a xlink:href="abcgVulkanInstance_8hpp.html" target="_top" xlink:title="Header file of abcg::VulkanInstance.">
<polygon fill="white" stroke="#666666" points="290.5,-129 156.5,-129 156.5,-110 290.5,-110 290.5,-129"/>
<text text-anchor="middle" x="223.5" y="-117" font-family="Helvetica,sans-Serif" font-size="10.00">abcgVulkanInstance.hpp</text>
</a>
</g>
</g>
<!-- Node7&#45;&gt;Node9 -->
<g id="edge8_Node000007_Node000009" class="edge">
<title>Node7&#45;&gt;Node9</title>
<g id="a_edge8_Node000007_Node000009"><a xlink:title=" ">
<path fill="none" stroke="#63b8ff" d="M175.66,-164.98C184,-157.23 196.53,-145.58 206.68,-136.14"/>
<polygon fill="#63b8ff" stroke="#63b8ff" points="209.24,-138.54 214.18,-129.17 204.47,-133.42 209.24,-138.54"/>
</a>
</g>
</g>
<!-- Node10 -->
<g id="Node000010" class="node">
<title>Node10</title>
<g id="a_Node000010"><a xlink:href="abcgVulkanExternal_8hpp.html" target="_top" xlink:title="Header file for including Vulkan&#45;related dependencies.">
<polygon fill="white" stroke="#666666" points="290.5,-74 156.5,-74 156.5,-55 290.5,-55 290.5,-74"/>
<text text-anchor="middle" x="223.5" y="-62" font-family="Helvetica,sans-Serif" font-size="10.00">abcgVulkanExternal.hpp</text>
</a>
</g>
</g>
<!-- Node9&#45;&gt;Node10 -->
<g id="edge9_Node000009_Node000010" class="edge">
<title>Node9&#45;&gt;Node10</title>
<g id="a_edge9_Node000009_Node000010"><a xlink:title=" ">
<path fill="none" stroke="#63b8ff" d="M223.5,-109.75C223.5,-102.8 223.5,-92.85 223.5,-84.13"/>
<polygon fill="#63b8ff" stroke="#63b8ff" points="227,-84.09 223.5,-74.09 220,-84.09 227,-84.09"/>
</a>
</g>
</g>
<!-- Node11 -->
<g id="Node000011" class="node">
<title>Node11</title>
<g id="a_Node000011"><a xlink:title=" ">
<polygon fill="#e0e0e0" stroke="#999999" points="200,-19 153,-19 153,0 200,0 200,-19"/>
<text text-anchor="middle" x="176.5" y="-7" font-family="Helvetica,sans-Serif" font-size="10.00">volk.h</text>
</a>
</g>
</g>
<!-- Node10&#45;&gt;Node11 -->
<g id="edge10_Node000010_Node000011" class="edge">
<title>Node10&#45;&gt;Node11</title>
<g id="a_edge10_Node000010_Node000011"><a xlink:title=" ">
<path fill="none" stroke="#63b8ff" d="M215.74,-54.75C209.03,-47.18 199.16,-36.05 190.99,-26.84"/>
<polygon fill="#63b8ff" stroke="#63b8ff" points="193.37,-24.25 184.12,-19.09 188.13,-28.89 193.37,-24.25"/>
</a>
</g>
</g>
<!-- Node12 -->
<g id="Node000012" class="node">
<title>Node12</title>
<g id="a_Node000012"><a xlink:title=" ">
<polygon fill="#e0e0e0" stroke="#999999" points="323,-19 218,-19 218,0 323,0 323,-19"/>
<text text-anchor="middle" x="270.5" y="-7" font-family="Helvetica,sans-Serif" font-size="10.00">vulkan/vulkan.hpp</text>
</a>
</g>
</g>
<!-- Node10&#45;&gt;Node12 -->
<g id="edge11_Node000010_Node000012" class="edge">
<title>Node10&#45;&gt;Node12</title>
<g id="a_edge11_Node000010_Node000012"><a xlink:title=" ">
<path fill="none" stroke="#63b8ff" d="M231.26,-54.75C237.97,-47.18 247.84,-36.05 256.01,-26.84"/>
<polygon fill="#63b8ff" stroke="#63b8ff" points="258.87,-28.89 262.88,-19.09 253.63,-24.25 258.87,-28.89"/>
</a>
</g>
</g>
<!-- Node14&#45;&gt;Node5 -->
<g id="edge16_Node000014_Node000005" class="edge">
<title>Node14&#45;&gt;Node5</title>
<g id="a_edge16_Node000014_Node000005"><a xlink:title=" ">
<path fill="none" stroke="#63b8ff" d="M440.87,-280.23C441.16,-266.85 440.63,-240.72 433.5,-220 430.09,-210.09 424.11,-200.12 418.55,-192.14"/>
<polygon fill="#63b8ff" stroke="#63b8ff" points="421.36,-190.05 412.61,-184.08 415.72,-194.2 421.36,-190.05"/>
</a>
</g>
</g>
<!-- Node15 -->
<g id="Node000015" class="node">
<title>Node15</title>
<g id="a_Node000015"><a xlink:title=" ">
<polygon fill="#e0e0e0" stroke="#999999" points="574,-239 481,-239 481,-220 574,-220 574,-239"/>
<text text-anchor="middle" x="527.5" y="-227" font-family="Helvetica,sans-Serif" font-size="10.00">source_location</text>
</a>
</g>
</g>
<!-- Node14&#45;&gt;Node15 -->
<g id="edge14_Node000014_Node000015" class="edge">
<title>Node14&#45;&gt;Node15</title>
<g id="a_edge14_Node000014_Node000015"><a xlink:title=" ">
<path fill="none" stroke="#63b8ff" d="M453.34,-280.37C467.22,-271.04 489.57,-256.01 506.11,-244.88"/>
<polygon fill="#63b8ff" stroke="#63b8ff" points="508.26,-247.65 514.61,-239.17 504.36,-241.84 508.26,-247.65"/>
</a>
</g>
</g>
<!-- Node16 -->
<g id="Node000016" class="node">
<title>Node16</title>
<g id="a_Node000016"><a xlink:title=" ">
<polygon fill="#e0e0e0" stroke="#999999" points="424,-239 359,-239 359,-220 424,-220 424,-239"/>
<text text-anchor="middle" x="391.5" y="-227" font-family="Helvetica,sans-Serif" font-size="10.00">stdexcept</text>
</a>
</g>
</g>
<!-- Node14&#45;&gt;Node16 -->
<g id="edge15_Node000014_Node000016" class="edge">
<title>Node14&#45;&gt;Node16</title>
<g id="a_edge15_Node000014_Node000016"><a xlink:title=" ">
<path fill="none" stroke="#63b8ff" d="M433.27,-280.37C425.96,-271.64 414.48,-257.93 405.4,-247.09"/>
<polygon fill="#63b8ff" stroke="#63b8ff" points="407.86,-244.59 398.76,-239.17 402.5,-249.08 407.86,-244.59"/>
</a>
</g>
</g>
</g>
</svg>
