<?xml version="1.0" encoding="UTF-8" standalone="no"?>
<!DOCTYPE svg PUBLIC "-//W3C//DTD SVG 1.1//EN"
 "http://www.w3.org/Graphics/SVG/1.1/DTD/svg11.dtd">
<!-- Generated by graphviz version 2.43.0 (0)
 -->
<!-- Title: /home/harlen/dev/abcg/abcg/abcgOpenGLFunction.hpp Pages: 1 -->
<svg width="443pt" height="173pt"
 viewBox="0.00 0.00 443.00 173.00" xmlns="http://www.w3.org/2000/svg" xmlns:xlink="http://www.w3.org/1999/xlink">
<g id="graph0" class="graph" transform="scale(1 1) rotate(0) translate(4 169)">
<title>/home/harlen/dev/abcg/abcg/abcgOpenGLFunction.hpp</title>
<!-- Node1 -->
<g id="node1" class="node">
<title>Node1</title>
<g id="a_node1"><a xlink:title="Declaration of OpenGL&#45;related error checking functions.">
<polygon fill="#bfbfbf" stroke="black" points="92.5,-134.5 92.5,-164.5 262.5,-164.5 262.5,-134.5 92.5,-134.5"/>
<text text-anchor="start" x="100.5" y="-152.5" font-family="Helvetica,sans-Serif" font-size="10.00">/home/harlen/dev/abcg</text>
<text text-anchor="middle" x="177.5" y="-141.5" font-family="Helvetica,sans-Serif" font-size="10.00">/abcg/abcgOpenGLFunction.hpp</text>
</a>
</g>
</g>
<!-- Node2 -->
<g id="node2" class="node">
<title>Node2</title>
<g id="a_node2"><a xlink:href="abcgOpenGLFunction_8cpp.html" target="_top" xlink:title="Definition of OpenGL&#45;related error checking functions.">
<polygon fill="none" stroke="black" points="0,-67.5 0,-97.5 169,-97.5 169,-67.5 0,-67.5"/>
<text text-anchor="start" x="8" y="-85.5" font-family="Helvetica,sans-Serif" font-size="10.00">/home/harlen/dev/abcg</text>
<text text-anchor="middle" x="84.5" y="-74.5" font-family="Helvetica,sans-Serif" font-size="10.00">/abcg/abcgOpenGLFunction.cpp</text>
</a>
</g>
</g>
<!-- Node1&#45;&gt;Node2 -->
<g id="edge1" class="edge">
<title>Node1&#45;&gt;Node2</title>
<path fill="none" stroke="midnightblue" d="M148.81,-128.45C134.51,-118.45 117.55,-106.6 104.64,-97.58"/>
<polygon fill="midnightblue" stroke="midnightblue" points="147.12,-131.54 157.32,-134.4 151.13,-125.8 147.12,-131.54"/>
</g>
<!-- Node3 -->
<g id="node3" class="node">
<title>Node3</title>
<g id="a_node3"><a xlink:href="abcgOpenGLWindow_8hpp.html" target="_top" xlink:title="Header file of abcg::OpenGLWindow.">
<polygon fill="none" stroke="black" points="187.5,-67.5 187.5,-97.5 353.5,-97.5 353.5,-67.5 187.5,-67.5"/>
<text text-anchor="start" x="195.5" y="-85.5" font-family="Helvetica,sans-Serif" font-size="10.00">/home/harlen/dev/abcg</text>
<text text-anchor="middle" x="270.5" y="-74.5" font-family="Helvetica,sans-Serif" font-size="10.00">/abcg/abcgOpenGLWindow.hpp</text>
</a>
</g>
</g>
<!-- Node1&#45;&gt;Node3 -->
<g id="edge2" class="edge">
<title>Node1&#45;&gt;Node3</title>
<path fill="none" stroke="midnightblue" d="M206.19,-128.45C220.49,-118.45 237.45,-106.6 250.36,-97.58"/>
<polygon fill="midnightblue" stroke="midnightblue" points="203.87,-125.8 197.68,-134.4 207.88,-131.54 203.87,-125.8"/>
</g>
<!-- Node4 -->
<g id="node4" class="node">
<title>Node4</title>
<g id="a_node4"><a xlink:href="abcgOpenGL_8hpp.html" target="_top" xlink:title="Header file for OpenGL&#45;related functions and classes.">
<polygon fill="none" stroke="black" points="123.5,-0.5 123.5,-30.5 251.5,-30.5 251.5,-0.5 123.5,-0.5"/>
<text text-anchor="start" x="131.5" y="-18.5" font-family="Helvetica,sans-Serif" font-size="10.00">/home/harlen/dev/abcg</text>
<text text-anchor="middle" x="187.5" y="-7.5" font-family="Helvetica,sans-Serif" font-size="10.00">/abcg/abcgOpenGL.hpp</text>
</a>
</g>
</g>
<!-- Node3&#45;&gt;Node4 -->
<g id="edge3" class="edge">
<title>Node3&#45;&gt;Node4</title>
<path fill="none" stroke="midnightblue" d="M244.54,-61.17C231.85,-51.23 216.89,-39.51 205.47,-30.58"/>
<polygon fill="midnightblue" stroke="midnightblue" points="242.46,-63.99 252.49,-67.4 246.78,-58.47 242.46,-63.99"/>
</g>
<!-- Node5 -->
<g id="node5" class="node">
<title>Node5</title>
<g id="a_node5"><a xlink:href="abcgOpenGLWindow_8cpp.html" target="_top" xlink:title="Definition of abcg::OpenGLWindow members.">
<polygon fill="none" stroke="black" points="270,-0.5 270,-30.5 435,-30.5 435,-0.5 270,-0.5"/>
<text text-anchor="start" x="278" y="-18.5" font-family="Helvetica,sans-Serif" font-size="10.00">/home/harlen/dev/abcg</text>
<text text-anchor="middle" x="352.5" y="-7.5" font-family="Helvetica,sans-Serif" font-size="10.00">/abcg/abcgOpenGLWindow.cpp</text>
</a>
</g>
</g>
<!-- Node3&#45;&gt;Node5 -->
<g id="edge4" class="edge">
<title>Node3&#45;&gt;Node5</title>
<path fill="none" stroke="midnightblue" d="M296.15,-61.17C308.69,-51.23 323.47,-39.51 334.74,-30.58"/>
<polygon fill="midnightblue" stroke="midnightblue" points="293.96,-58.44 288.29,-67.4 298.3,-63.93 293.96,-58.44"/>
</g>
</g>
</svg>
