<?xml version="1.0" encoding="UTF-8" standalone="no"?>
<!DOCTYPE svg PUBLIC "-//W3C//DTD SVG 1.1//EN"
 "http://www.w3.org/Graphics/SVG/1.1/DTD/svg11.dtd">
<!-- Generated by graphviz version 2.43.0 (0)
 -->
<!-- Title: /home/harlen/dev/abcg/abcg/abcgVulkanPhysicalDevice.hpp Pages: 1 -->
<svg width="1125pt" height="441pt"
 viewBox="0.00 0.00 1125.00 441.00" xmlns="http://www.w3.org/2000/svg" xmlns:xlink="http://www.w3.org/1999/xlink">
<g id="graph0" class="graph" transform="scale(1 1) rotate(0) translate(4 437)">
<title>/home/harlen/dev/abcg/abcg/abcgVulkanPhysicalDevice.hpp</title>
<!-- Node1 -->
<g id="node1" class="node">
<title>Node1</title>
<g id="a_node1"><a xlink:title="Header file of abcg::VulkanPhysicalDevice.">
<polygon fill="#bfbfbf" stroke="black" points="123.5,-402.5 123.5,-432.5 320.5,-432.5 320.5,-402.5 123.5,-402.5"/>
<text text-anchor="start" x="131.5" y="-420.5" font-family="Helvetica,sans-Serif" font-size="10.00">/home/harlen/dev/abcg</text>
<text text-anchor="middle" x="222" y="-409.5" font-family="Helvetica,sans-Serif" font-size="10.00">/abcg/abcgVulkanPhysicalDevice.hpp</text>
</a>
</g>
</g>
<!-- Node2 -->
<g id="node2" class="node">
<title>Node2</title>
<g id="a_node2"><a xlink:href="abcgVulkanDevice_8hpp.html" target="_top" xlink:title="Header file of abcg::VulkanDevice.">
<polygon fill="none" stroke="black" points="259,-335.5 259,-365.5 415,-365.5 415,-335.5 259,-335.5"/>
<text text-anchor="start" x="267" y="-353.5" font-family="Helvetica,sans-Serif" font-size="10.00">/home/harlen/dev/abcg</text>
<text text-anchor="middle" x="337" y="-342.5" font-family="Helvetica,sans-Serif" font-size="10.00">/abcg/abcgVulkanDevice.hpp</text>
</a>
</g>
</g>
<!-- Node1&#45;&gt;Node2 -->
<g id="edge1" class="edge">
<title>Node1&#45;&gt;Node2</title>
<path fill="none" stroke="midnightblue" d="M255.98,-397.3C273.97,-387.12 295.68,-374.85 312.1,-365.58"/>
<polygon fill="midnightblue" stroke="midnightblue" points="253.94,-394.43 246.95,-402.4 257.38,-400.52 253.94,-394.43"/>
</g>
<!-- Node6 -->
<g id="node6" class="node">
<title>Node6</title>
<g id="a_node6"><a xlink:href="abcgVulkanPhysicalDevice_8cpp.html" target="_top" xlink:title="Definition of abcg::VulkanPhysicalDevice.">
<polygon fill="none" stroke="black" points="921,-0.5 921,-30.5 1117,-30.5 1117,-0.5 921,-0.5"/>
<text text-anchor="start" x="929" y="-18.5" font-family="Helvetica,sans-Serif" font-size="10.00">/home/harlen/dev/abcg</text>
<text text-anchor="middle" x="1019" y="-7.5" font-family="Helvetica,sans-Serif" font-size="10.00">/abcg/abcgVulkanPhysicalDevice.cpp</text>
</a>
</g>
</g>
<!-- Node1&#45;&gt;Node6 -->
<g id="edge30" class="edge">
<title>Node1&#45;&gt;Node6</title>
<path fill="none" stroke="midnightblue" d="M330.91,-410.38C556.51,-396.25 1054,-356.88 1054,-284.5 1054,-284.5 1054,-284.5 1054,-148.5 1054,-104.4 1035.52,-54.7 1025.42,-30.82"/>
<polygon fill="midnightblue" stroke="midnightblue" points="330.47,-406.9 320.71,-411.02 330.91,-413.89 330.47,-406.9"/>
</g>
<!-- Node14 -->
<g id="node14" class="node">
<title>Node14</title>
<g id="a_node14"><a xlink:href="abcgVulkanSwapchain_8cpp.html" target="_top" xlink:title="Definition of abcg::VulkanSwapchain.">
<polygon fill="none" stroke="black" points="0,-67.5 0,-97.5 174,-97.5 174,-67.5 0,-67.5"/>
<text text-anchor="start" x="8" y="-85.5" font-family="Helvetica,sans-Serif" font-size="10.00">/home/harlen/dev/abcg</text>
<text text-anchor="middle" x="87" y="-74.5" font-family="Helvetica,sans-Serif" font-size="10.00">/abcg/abcgVulkanSwapchain.cpp</text>
</a>
</g>
</g>
<!-- Node1&#45;&gt;Node14 -->
<g id="edge31" class="edge">
<title>Node1&#45;&gt;Node14</title>
<path fill="none" stroke="midnightblue" d="M173.29,-398.28C128.5,-377.99 69,-340.51 69,-284.5 69,-284.5 69,-284.5 69,-215.5 69,-172.25 78.6,-121.75 83.78,-97.67"/>
<polygon fill="midnightblue" stroke="midnightblue" points="172.03,-401.55 182.6,-402.35 174.84,-395.14 172.03,-401.55"/>
</g>
<!-- Node15 -->
<g id="node15" class="node">
<title>Node15</title>
<g id="a_node15"><a xlink:href="abcgVulkanWindow_8hpp.html" target="_top" xlink:title="Header file of abcg::VulkanWindow.">
<polygon fill="none" stroke="black" points="195.5,-134.5 195.5,-164.5 356.5,-164.5 356.5,-134.5 195.5,-134.5"/>
<text text-anchor="start" x="203.5" y="-152.5" font-family="Helvetica,sans-Serif" font-size="10.00">/home/harlen/dev/abcg</text>
<text text-anchor="middle" x="276" y="-141.5" font-family="Helvetica,sans-Serif" font-size="10.00">/abcg/abcgVulkanWindow.hpp</text>
</a>
</g>
</g>
<!-- Node1&#45;&gt;Node15 -->
<g id="edge32" class="edge">
<title>Node1&#45;&gt;Node15</title>
<path fill="none" stroke="midnightblue" d="M210.22,-392.99C191.19,-351.4 159.16,-263.38 194,-201 203.29,-184.36 220.57,-172.53 236.88,-164.52"/>
<polygon fill="midnightblue" stroke="midnightblue" points="207.18,-394.74 214.62,-402.29 213.51,-391.75 207.18,-394.74"/>
</g>
<!-- Node3 -->
<g id="node3" class="node">
<title>Node3</title>
<g id="a_node3"><a xlink:href="abcgVulkanBuffer_8hpp.html" target="_top" xlink:title="Header file of abcg::VulkanBuffer.">
<polygon fill="none" stroke="black" points="799.5,-268.5 799.5,-298.5 950.5,-298.5 950.5,-268.5 799.5,-268.5"/>
<text text-anchor="start" x="807.5" y="-286.5" font-family="Helvetica,sans-Serif" font-size="10.00">/home/harlen/dev/abcg</text>
<text text-anchor="middle" x="875" y="-275.5" font-family="Helvetica,sans-Serif" font-size="10.00">/abcg/abcgVulkanBuffer.hpp</text>
</a>
</g>
</g>
<!-- Node2&#45;&gt;Node3 -->
<g id="edge2" class="edge">
<title>Node2&#45;&gt;Node3</title>
<path fill="none" stroke="midnightblue" d="M425.41,-338.82C529.6,-326.23 700.95,-305.53 799.28,-293.65"/>
<polygon fill="midnightblue" stroke="midnightblue" points="424.74,-335.37 415.23,-340.05 425.58,-342.32 424.74,-335.37"/>
</g>
<!-- Node9 -->
<g id="node9" class="node">
<title>Node9</title>
<g id="a_node9"><a xlink:href="abcgVulkanDevice_8cpp.html" target="_top" xlink:title="Definition of abcg::VulkanDevice.">
<polygon fill="none" stroke="black" points="365.5,-268.5 365.5,-298.5 520.5,-298.5 520.5,-268.5 365.5,-268.5"/>
<text text-anchor="start" x="373.5" y="-286.5" font-family="Helvetica,sans-Serif" font-size="10.00">/home/harlen/dev/abcg</text>
<text text-anchor="middle" x="443" y="-275.5" font-family="Helvetica,sans-Serif" font-size="10.00">/abcg/abcgVulkanDevice.cpp</text>
</a>
</g>
</g>
<!-- Node2&#45;&gt;Node9 -->
<g id="edge8" class="edge">
<title>Node2&#45;&gt;Node9</title>
<path fill="none" stroke="midnightblue" d="M368.78,-330.02C385.27,-319.9 405.05,-307.77 420.04,-298.58"/>
<polygon fill="midnightblue" stroke="midnightblue" points="366.7,-327.18 360,-335.4 370.35,-333.15 366.7,-327.18"/>
</g>
<!-- Node10 -->
<g id="node10" class="node">
<title>Node10</title>
<g id="a_node10"><a xlink:href="abcgVulkanImage_8hpp.html" target="_top" xlink:title="Header file of abcg::VulkanImage.">
<polygon fill="none" stroke="black" points="577.5,-268.5 577.5,-298.5 730.5,-298.5 730.5,-268.5 577.5,-268.5"/>
<text text-anchor="start" x="585.5" y="-286.5" font-family="Helvetica,sans-Serif" font-size="10.00">/home/harlen/dev/abcg</text>
<text text-anchor="middle" x="654" y="-275.5" font-family="Helvetica,sans-Serif" font-size="10.00">/abcg/abcgVulkanImage.hpp</text>
</a>
</g>
</g>
<!-- Node2&#45;&gt;Node10 -->
<g id="edge9" class="edge">
<title>Node2&#45;&gt;Node10</title>
<path fill="none" stroke="midnightblue" d="M415.28,-333.45C467.46,-322.75 535.41,-308.82 585.46,-298.55"/>
<polygon fill="midnightblue" stroke="midnightblue" points="414.49,-330.04 405.39,-335.48 415.89,-336.9 414.49,-330.04"/>
</g>
<!-- Node11 -->
<g id="node11" class="node">
<title>Node11</title>
<g id="a_node11"><a xlink:href="abcgVulkanSwapchain_8hpp.html" target="_top" xlink:title="Header file of abcg::VulkanSwapchain.">
<polygon fill="none" stroke="black" points="211.5,-201.5 211.5,-231.5 386.5,-231.5 386.5,-201.5 211.5,-201.5"/>
<text text-anchor="start" x="219.5" y="-219.5" font-family="Helvetica,sans-Serif" font-size="10.00">/home/harlen/dev/abcg</text>
<text text-anchor="middle" x="299" y="-208.5" font-family="Helvetica,sans-Serif" font-size="10.00">/abcg/abcgVulkanSwapchain.hpp</text>
</a>
</g>
</g>
<!-- Node2&#45;&gt;Node11 -->
<g id="edge28" class="edge">
<title>Node2&#45;&gt;Node11</title>
<path fill="none" stroke="midnightblue" d="M330.16,-325.75C322.26,-298.29 309.5,-253.99 303.04,-231.52"/>
<polygon fill="midnightblue" stroke="midnightblue" points="326.8,-326.73 332.93,-335.37 333.53,-324.8 326.8,-326.73"/>
</g>
<!-- Node12 -->
<g id="node12" class="node">
<title>Node12</title>
<g id="a_node12"><a xlink:href="abcgVulkanPipeline_8hpp.html" target="_top" xlink:title="Header file of abcg::VulkanPipeline.">
<polygon fill="none" stroke="black" points="374.5,-134.5 374.5,-164.5 535.5,-164.5 535.5,-134.5 374.5,-134.5"/>
<text text-anchor="start" x="382.5" y="-152.5" font-family="Helvetica,sans-Serif" font-size="10.00">/home/harlen/dev/abcg</text>
<text text-anchor="middle" x="455" y="-141.5" font-family="Helvetica,sans-Serif" font-size="10.00">/abcg/abcgVulkanPipeline.hpp</text>
</a>
</g>
</g>
<!-- Node2&#45;&gt;Node12 -->
<g id="edge22" class="edge">
<title>Node2&#45;&gt;Node12</title>
<path fill="none" stroke="midnightblue" d="M338.89,-325.09C341.08,-308.13 345.81,-285.51 356,-268 367.87,-247.61 379.27,-249.58 395,-232 414.8,-209.87 434.61,-181.44 445.78,-164.67"/>
<polygon fill="midnightblue" stroke="midnightblue" points="335.38,-325 337.78,-335.31 342.34,-325.75 335.38,-325"/>
</g>
<!-- Node2&#45;&gt;Node14 -->
<g id="edge27" class="edge">
<title>Node2&#45;&gt;Node14</title>
<path fill="none" stroke="midnightblue" d="M279.66,-331.79C260.23,-323.88 239.33,-313.11 223,-299 153.7,-239.14 107.55,-135.19 92.42,-97.58"/>
<polygon fill="midnightblue" stroke="midnightblue" points="278.47,-335.08 289.06,-335.44 281,-328.55 278.47,-335.08"/>
</g>
<!-- Node2&#45;&gt;Node15 -->
<g id="edge29" class="edge">
<title>Node2&#45;&gt;Node15</title>
<path fill="none" stroke="midnightblue" d="M300.97,-330.2C268.27,-310.43 222.19,-276.33 202,-232 196.29,-219.46 195.56,-213.18 202,-201 210.57,-184.77 226.96,-172.77 242.15,-164.56"/>
<polygon fill="midnightblue" stroke="midnightblue" points="299.41,-333.35 309.8,-335.4 302.96,-327.31 299.41,-333.35"/>
</g>
<!-- Node18 -->
<g id="node18" class="node">
<title>Node18</title>
<g id="a_node18"><a xlink:href="abcgVulkanShader_8hpp.html" target="_top" xlink:title="Declaration of helper functions for creating Vulkan shaders.">
<polygon fill="none" stroke="black" points="456.5,-201.5 456.5,-231.5 611.5,-231.5 611.5,-201.5 456.5,-201.5"/>
<text text-anchor="start" x="464.5" y="-219.5" font-family="Helvetica,sans-Serif" font-size="10.00">/home/harlen/dev/abcg</text>
<text text-anchor="middle" x="534" y="-208.5" font-family="Helvetica,sans-Serif" font-size="10.00">/abcg/abcgVulkanShader.hpp</text>
</a>
</g>
</g>
<!-- Node2&#45;&gt;Node18 -->
<g id="edge23" class="edge">
<title>Node2&#45;&gt;Node18</title>
<path fill="none" stroke="midnightblue" d="M425.1,-336.54C468.86,-328.18 515.27,-315.72 529,-299 544.56,-280.05 541.37,-249.49 537.67,-231.67"/>
<polygon fill="midnightblue" stroke="midnightblue" points="424.43,-333.11 415.24,-338.37 425.71,-339.99 424.43,-333.11"/>
</g>
<!-- Node4 -->
<g id="node4" class="node">
<title>Node4</title>
<g id="a_node4"><a xlink:href="abcgVulkan_8hpp.html" target="_top" xlink:title="Header file for Vulkan&#45;related functions and classes.">
<polygon fill="none" stroke="black" points="723,-67.5 723,-97.5 851,-97.5 851,-67.5 723,-67.5"/>
<text text-anchor="start" x="731" y="-85.5" font-family="Helvetica,sans-Serif" font-size="10.00">/home/harlen/dev/abcg</text>
<text text-anchor="middle" x="787" y="-74.5" font-family="Helvetica,sans-Serif" font-size="10.00">/abcg/abcgVulkan.hpp</text>
</a>
</g>
</g>
<!-- Node3&#45;&gt;Node4 -->
<g id="edge3" class="edge">
<title>Node3&#45;&gt;Node4</title>
<path fill="none" stroke="midnightblue" d="M956.2,-264.46C972.28,-257.07 987.2,-246.66 997,-232 1004.66,-220.55 1003.97,-212.89 997,-201 964.03,-144.78 893.26,-113.45 843.01,-97.54"/>
<polygon fill="midnightblue" stroke="midnightblue" points="954.5,-261.37 946.63,-268.47 957.2,-267.83 954.5,-261.37"/>
</g>
<!-- Node7 -->
<g id="node7" class="node">
<title>Node7</title>
<g id="a_node7"><a xlink:href="abcgVulkanBuffer_8cpp.html" target="_top" xlink:title="Definition of abcg::VulkanBuffer.">
<polygon fill="none" stroke="black" points="838,-201.5 838,-231.5 988,-231.5 988,-201.5 838,-201.5"/>
<text text-anchor="start" x="846" y="-219.5" font-family="Helvetica,sans-Serif" font-size="10.00">/home/harlen/dev/abcg</text>
<text text-anchor="middle" x="913" y="-208.5" font-family="Helvetica,sans-Serif" font-size="10.00">/abcg/abcgVulkanBuffer.cpp</text>
</a>
</g>
</g>
<!-- Node3&#45;&gt;Node7 -->
<g id="edge6" class="edge">
<title>Node3&#45;&gt;Node7</title>
<path fill="none" stroke="midnightblue" d="M888.4,-259.58C893.86,-250.24 899.99,-239.75 904.77,-231.58"/>
<polygon fill="midnightblue" stroke="midnightblue" points="885.27,-258 883.25,-268.4 891.31,-261.53 885.27,-258"/>
</g>
<!-- Node8 -->
<g id="node8" class="node">
<title>Node8</title>
<g id="a_node8"><a xlink:href="abcgVulkanImage_8cpp.html" target="_top" xlink:title="Definition of abcg::VulkanImage.">
<polygon fill="none" stroke="black" points="668,-201.5 668,-231.5 820,-231.5 820,-201.5 668,-201.5"/>
<text text-anchor="start" x="676" y="-219.5" font-family="Helvetica,sans-Serif" font-size="10.00">/home/harlen/dev/abcg</text>
<text text-anchor="middle" x="744" y="-208.5" font-family="Helvetica,sans-Serif" font-size="10.00">/abcg/abcgVulkanImage.cpp</text>
</a>
</g>
</g>
<!-- Node3&#45;&gt;Node8 -->
<g id="edge7" class="edge">
<title>Node3&#45;&gt;Node8</title>
<path fill="none" stroke="midnightblue" d="M837.42,-263.85C816.71,-253.58 791.41,-241.03 772.37,-231.58"/>
<polygon fill="midnightblue" stroke="midnightblue" points="836.06,-267.09 846.57,-268.4 839.17,-260.82 836.06,-267.09"/>
</g>
<!-- Node5 -->
<g id="node5" class="node">
<title>Node5</title>
<g id="a_node5"><a xlink:href="abcgVulkanInstance_8cpp.html" target="_top" xlink:title="Definition of abcg::VulkanInstance.">
<polygon fill="none" stroke="black" points="705.5,-0.5 705.5,-30.5 868.5,-30.5 868.5,-0.5 705.5,-0.5"/>
<text text-anchor="start" x="713.5" y="-18.5" font-family="Helvetica,sans-Serif" font-size="10.00">/home/harlen/dev/abcg</text>
<text text-anchor="middle" x="787" y="-7.5" font-family="Helvetica,sans-Serif" font-size="10.00">/abcg/abcgVulkanInstance.cpp</text>
</a>
</g>
</g>
<!-- Node4&#45;&gt;Node5 -->
<g id="edge4" class="edge">
<title>Node4&#45;&gt;Node5</title>
<path fill="none" stroke="midnightblue" d="M787,-57.11C787,-48.15 787,-38.32 787,-30.58"/>
<polygon fill="midnightblue" stroke="midnightblue" points="783.5,-57.4 787,-67.4 790.5,-57.4 783.5,-57.4"/>
</g>
<!-- Node4&#45;&gt;Node6 -->
<g id="edge5" class="edge">
<title>Node4&#45;&gt;Node6</title>
<path fill="none" stroke="midnightblue" d="M846.91,-64.71C884.66,-54.14 932.86,-40.63 968.63,-30.61"/>
<polygon fill="midnightblue" stroke="midnightblue" points="845.74,-61.41 837.05,-67.48 847.63,-68.15 845.74,-61.41"/>
</g>
<!-- Node10&#45;&gt;Node4 -->
<g id="edge10" class="edge">
<title>Node10&#45;&gt;Node4</title>
<path fill="none" stroke="midnightblue" d="M650.88,-258.3C649.77,-241.43 650.5,-218.85 659,-201 681.52,-153.75 732.31,-116.58 762.7,-97.52"/>
<polygon fill="midnightblue" stroke="midnightblue" points="647.41,-258.81 651.8,-268.45 654.38,-258.18 647.41,-258.81"/>
</g>
<!-- Node10&#45;&gt;Node8 -->
<g id="edge11" class="edge">
<title>Node10&#45;&gt;Node8</title>
<path fill="none" stroke="midnightblue" d="M681.76,-262.45C695.61,-252.45 712.02,-240.6 724.51,-231.58"/>
<polygon fill="midnightblue" stroke="midnightblue" points="679.59,-259.7 673.53,-268.4 683.68,-265.38 679.59,-259.7"/>
</g>
<!-- Node10&#45;&gt;Node11 -->
<g id="edge12" class="edge">
<title>Node10&#45;&gt;Node11</title>
<path fill="none" stroke="midnightblue" d="M567.43,-266.65C508.85,-255.92 432.16,-241.88 375.76,-231.55"/>
<polygon fill="midnightblue" stroke="midnightblue" points="566.94,-270.12 577.41,-268.48 568.2,-263.23 566.94,-270.12"/>
</g>
<!-- Node11&#45;&gt;Node12 -->
<g id="edge13" class="edge">
<title>Node11&#45;&gt;Node12</title>
<path fill="none" stroke="midnightblue" d="M342.09,-197.54C367.06,-187.14 398.03,-174.24 421.22,-164.58"/>
<polygon fill="midnightblue" stroke="midnightblue" points="340.73,-194.32 332.85,-201.4 343.43,-200.78 340.73,-194.32"/>
</g>
<!-- Node11&#45;&gt;Node14 -->
<g id="edge16" class="edge">
<title>Node11&#45;&gt;Node14</title>
<path fill="none" stroke="midnightblue" d="M251.55,-197.64C230.78,-188.98 206.52,-177.71 186,-165 153.45,-144.84 119.95,-114.98 101.47,-97.55"/>
<polygon fill="midnightblue" stroke="midnightblue" points="250.24,-200.88 260.82,-201.43 252.89,-194.4 250.24,-200.88"/>
</g>
<!-- Node11&#45;&gt;Node15 -->
<g id="edge17" class="edge">
<title>Node11&#45;&gt;Node15</title>
<path fill="none" stroke="midnightblue" d="M290.58,-191.7C287.35,-182.59 283.78,-172.49 280.98,-164.58"/>
<polygon fill="midnightblue" stroke="midnightblue" points="287.37,-193.14 294.01,-201.4 293.97,-190.8 287.37,-193.14"/>
</g>
<!-- Node12&#45;&gt;Node4 -->
<g id="edge14" class="edge">
<title>Node12&#45;&gt;Node4</title>
<path fill="none" stroke="midnightblue" d="M537.27,-132.54C588.18,-122.64 654.9,-109.63 714,-98 716.92,-97.43 719.9,-96.84 722.91,-96.24"/>
<polygon fill="midnightblue" stroke="midnightblue" points="536.45,-129.13 527.3,-134.47 537.79,-136 536.45,-129.13"/>
</g>
<!-- Node13 -->
<g id="node13" class="node">
<title>Node13</title>
<g id="a_node13"><a xlink:href="abcgVulkanPipeline_8cpp.html" target="_top" xlink:title="Definition of abcg::VulkanPipeline.">
<polygon fill="none" stroke="black" points="370.5,-67.5 370.5,-97.5 531.5,-97.5 531.5,-67.5 370.5,-67.5"/>
<text text-anchor="start" x="378.5" y="-85.5" font-family="Helvetica,sans-Serif" font-size="10.00">/home/harlen/dev/abcg</text>
<text text-anchor="middle" x="451" y="-74.5" font-family="Helvetica,sans-Serif" font-size="10.00">/abcg/abcgVulkanPipeline.cpp</text>
</a>
</g>
</g>
<!-- Node12&#45;&gt;Node13 -->
<g id="edge15" class="edge">
<title>Node12&#45;&gt;Node13</title>
<path fill="none" stroke="midnightblue" d="M453.52,-124.4C452.96,-115.37 452.35,-105.41 451.87,-97.58"/>
<polygon fill="midnightblue" stroke="midnightblue" points="450.02,-124.63 454.13,-134.4 457.01,-124.2 450.02,-124.63"/>
</g>
<!-- Node15&#45;&gt;Node4 -->
<g id="edge18" class="edge">
<title>Node15&#45;&gt;Node4</title>
<path fill="none" stroke="midnightblue" d="M367.29,-133.75C521.36,-113.77 563.12,-120.72 714,-98 716.94,-97.56 719.94,-97.08 722.97,-96.57"/>
<polygon fill="midnightblue" stroke="midnightblue" points="366.44,-130.33 356.98,-135.1 367.35,-137.27 366.44,-130.33"/>
</g>
<!-- Node15&#45;&gt;Node14 -->
<g id="edge20" class="edge">
<title>Node15&#45;&gt;Node14</title>
<path fill="none" stroke="midnightblue" d="M225.38,-131.09C194.87,-120.6 156.52,-107.41 127.93,-97.58"/>
<polygon fill="midnightblue" stroke="midnightblue" points="224.4,-134.45 234.99,-134.4 226.67,-127.83 224.4,-134.45"/>
</g>
<!-- Node16 -->
<g id="node16" class="node">
<title>Node16</title>
<g id="a_node16"><a xlink:href="abcgVulkanShader_8cpp.html" target="_top" xlink:title="Definition of helper functions for creating Vulkan shaders.">
<polygon fill="none" stroke="black" points="549.5,-67.5 549.5,-97.5 704.5,-97.5 704.5,-67.5 549.5,-67.5"/>
<text text-anchor="start" x="557.5" y="-85.5" font-family="Helvetica,sans-Serif" font-size="10.00">/home/harlen/dev/abcg</text>
<text text-anchor="middle" x="627" y="-74.5" font-family="Helvetica,sans-Serif" font-size="10.00">/abcg/abcgVulkanShader.cpp</text>
</a>
</g>
</g>
<!-- Node15&#45;&gt;Node16 -->
<g id="edge19" class="edge">
<title>Node15&#45;&gt;Node16</title>
<path fill="none" stroke="midnightblue" d="M361.6,-132.65C419.52,-121.92 495.34,-107.88 551.1,-97.55"/>
<polygon fill="midnightblue" stroke="midnightblue" points="360.93,-129.21 351.73,-134.48 362.2,-136.1 360.93,-129.21"/>
</g>
<!-- Node17 -->
<g id="node17" class="node">
<title>Node17</title>
<g id="a_node17"><a xlink:href="abcgVulkanWindow_8cpp.html" target="_top" xlink:title="Definition of abcg::VulkanWindow members.">
<polygon fill="none" stroke="black" points="192,-67.5 192,-97.5 352,-97.5 352,-67.5 192,-67.5"/>
<text text-anchor="start" x="200" y="-85.5" font-family="Helvetica,sans-Serif" font-size="10.00">/home/harlen/dev/abcg</text>
<text text-anchor="middle" x="272" y="-74.5" font-family="Helvetica,sans-Serif" font-size="10.00">/abcg/abcgVulkanWindow.cpp</text>
</a>
</g>
</g>
<!-- Node15&#45;&gt;Node17 -->
<g id="edge21" class="edge">
<title>Node15&#45;&gt;Node17</title>
<path fill="none" stroke="midnightblue" d="M274.52,-124.4C273.96,-115.37 273.35,-105.41 272.87,-97.58"/>
<polygon fill="midnightblue" stroke="midnightblue" points="271.02,-124.63 275.13,-134.4 278.01,-124.2 271.02,-124.63"/>
</g>
<!-- Node18&#45;&gt;Node4 -->
<g id="edge24" class="edge">
<title>Node18&#45;&gt;Node4</title>
<path fill="none" stroke="midnightblue" d="M556.84,-194.36C581.49,-171.7 618.25,-138.38 626,-134 655.97,-117.06 692.34,-105.04 722.93,-96.98"/>
<polygon fill="midnightblue" stroke="midnightblue" points="554.3,-191.94 549.32,-201.29 559.05,-197.09 554.3,-191.94"/>
</g>
<!-- Node18&#45;&gt;Node12 -->
<g id="edge25" class="edge">
<title>Node18&#45;&gt;Node12</title>
<path fill="none" stroke="midnightblue" d="M508.94,-194.88C496.94,-185.01 482.87,-173.43 472.11,-164.58"/>
<polygon fill="midnightblue" stroke="midnightblue" points="506.91,-197.75 516.86,-201.4 511.36,-192.34 506.91,-197.75"/>
</g>
<!-- Node18&#45;&gt;Node16 -->
<g id="edge26" class="edge">
<title>Node18&#45;&gt;Node16</title>
<path fill="none" stroke="midnightblue" d="M548.3,-192.98C558.94,-176.45 573.99,-153.56 588,-134 596.9,-121.57 607.54,-107.87 615.45,-97.87"/>
<polygon fill="midnightblue" stroke="midnightblue" points="545.32,-191.14 542.87,-201.45 551.21,-194.92 545.32,-191.14"/>
</g>
</g>
</svg>
