<?xml version="1.0" encoding="UTF-8" standalone="no"?>
<!DOCTYPE svg PUBLIC "-//W3C//DTD SVG 1.1//EN"
 "http://www.w3.org/Graphics/SVG/1.1/DTD/svg11.dtd">
<!-- Generated by graphviz version 2.43.0 (0)
 -->
<!-- Title: /home/harlen/dev/abcg2/abcg/abcg_opengl_image.cpp Pages: 1 -->
<svg width="947pt" height="151pt"
 viewBox="0.00 0.00 946.50 151.00" xmlns="http://www.w3.org/2000/svg" xmlns:xlink="http://www.w3.org/1999/xlink">
<g id="graph0" class="graph" transform="scale(1 1) rotate(0) translate(4 147)">
<title>/home/harlen/dev/abcg2/abcg/abcg_opengl_image.cpp</title>
<!-- Node1 -->
<g id="node1" class="node">
<title>Node1</title>
<g id="a_node1"><a xlink:title="Definition of OpenGL texture loading helper functions.">
<polygon fill="#bfbfbf" stroke="black" points="514.5,-112.5 514.5,-142.5 678.5,-142.5 678.5,-112.5 514.5,-112.5"/>
<text text-anchor="start" x="522.5" y="-130.5" font-family="Helvetica,sans-Serif" font-size="10.00">/home/harlen/dev/abcg2</text>
<text text-anchor="middle" x="596.5" y="-119.5" font-family="Helvetica,sans-Serif" font-size="10.00">/abcg/abcg_opengl_image.cpp</text>
</a>
</g>
</g>
<!-- Node2 -->
<g id="node2" class="node">
<title>Node2</title>
<g id="a_node2"><a xlink:href="abcg__opengl__image_8hpp.html" target="_top" xlink:title="Declaration of OpenGL texture loading helper functions.">
<polygon fill="none" stroke="black" points="128,-56.5 128,-75.5 263,-75.5 263,-56.5 128,-56.5"/>
<text text-anchor="middle" x="195.5" y="-63.5" font-family="Helvetica,sans-Serif" font-size="10.00">abcg_opengl_image.hpp</text>
</a>
</g>
</g>
<!-- Node1&#45;&gt;Node2 -->
<g id="edge1" class="edge">
<title>Node1&#45;&gt;Node2</title>
<path fill="none" stroke="midnightblue" d="M514.38,-114.32C440.13,-103.3 332.12,-87.27 262.84,-76.99"/>
<polygon fill="midnightblue" stroke="midnightblue" points="263.31,-73.52 252.91,-75.52 262.28,-80.45 263.31,-73.52"/>
</g>
<!-- Node6 -->
<g id="node6" class="node">
<title>Node6</title>
<g id="a_node6"><a xlink:href="abcg__image_8hpp.html" target="_top" xlink:title="Declaration of texture loading helper functions.">
<polygon fill="none" stroke="black" points="291,-56.5 291,-75.5 388,-75.5 388,-56.5 291,-56.5"/>
<text text-anchor="middle" x="339.5" y="-63.5" font-family="Helvetica,sans-Serif" font-size="10.00">abcg_image.hpp</text>
</a>
</g>
</g>
<!-- Node1&#45;&gt;Node6 -->
<g id="edge5" class="edge">
<title>Node1&#45;&gt;Node6</title>
<path fill="none" stroke="midnightblue" d="M535.92,-112.47C490.13,-101.87 428.19,-87.53 386.2,-77.81"/>
<polygon fill="midnightblue" stroke="midnightblue" points="386.77,-74.35 376.24,-75.51 385.19,-81.17 386.77,-74.35"/>
</g>
<!-- Node9 -->
<g id="node9" class="node">
<title>Node9</title>
<g id="a_node9"><a xlink:title=" ">
<polygon fill="none" stroke="#bfbfbf" points="406,-56.5 406,-75.5 545,-75.5 545,-56.5 406,-56.5"/>
<text text-anchor="middle" x="475.5" y="-63.5" font-family="Helvetica,sans-Serif" font-size="10.00">cppitertools/itertools.hpp</text>
</a>
</g>
</g>
<!-- Node1&#45;&gt;Node9 -->
<g id="edge8" class="edge">
<title>Node1&#45;&gt;Node9</title>
<path fill="none" stroke="midnightblue" d="M567.82,-112.4C547.98,-102.64 521.74,-89.74 502.31,-80.18"/>
<polygon fill="midnightblue" stroke="midnightblue" points="503.62,-76.93 493.11,-75.66 500.54,-83.21 503.62,-76.93"/>
</g>
<!-- Node10 -->
<g id="node10" class="node">
<title>Node10</title>
<g id="a_node10"><a xlink:title=" ">
<polygon fill="none" stroke="#bfbfbf" points="563,-56.5 563,-75.5 630,-75.5 630,-56.5 563,-56.5"/>
<text text-anchor="middle" x="596.5" y="-63.5" font-family="Helvetica,sans-Serif" font-size="10.00">fmt/core.h</text>
</a>
</g>
</g>
<!-- Node1&#45;&gt;Node10 -->
<g id="edge9" class="edge">
<title>Node1&#45;&gt;Node10</title>
<path fill="none" stroke="midnightblue" d="M596.5,-112.4C596.5,-104.47 596.5,-94.46 596.5,-85.86"/>
<polygon fill="midnightblue" stroke="midnightblue" points="600,-85.66 596.5,-75.66 593,-85.66 600,-85.66"/>
</g>
<!-- Node11 -->
<g id="node11" class="node">
<title>Node11</title>
<g id="a_node11"><a xlink:title=" ">
<polygon fill="none" stroke="#bfbfbf" points="648,-56.5 648,-75.5 703,-75.5 703,-56.5 648,-56.5"/>
<text text-anchor="middle" x="675.5" y="-63.5" font-family="Helvetica,sans-Serif" font-size="10.00">fstream</text>
</a>
</g>
</g>
<!-- Node1&#45;&gt;Node11 -->
<g id="edge10" class="edge">
<title>Node1&#45;&gt;Node11</title>
<path fill="none" stroke="midnightblue" d="M615.22,-112.4C627.41,-103.22 643.29,-91.26 655.69,-81.92"/>
<polygon fill="midnightblue" stroke="midnightblue" points="658.12,-84.47 664,-75.66 653.91,-78.88 658.12,-84.47"/>
</g>
<!-- Node12 -->
<g id="node12" class="node">
<title>Node12</title>
<g id="a_node12"><a xlink:title=" ">
<polygon fill="none" stroke="#bfbfbf" points="721,-56.5 721,-75.5 768,-75.5 768,-56.5 721,-56.5"/>
<text text-anchor="middle" x="744.5" y="-63.5" font-family="Helvetica,sans-Serif" font-size="10.00">vector</text>
</a>
</g>
</g>
<!-- Node1&#45;&gt;Node12 -->
<g id="edge11" class="edge">
<title>Node1&#45;&gt;Node12</title>
<path fill="none" stroke="midnightblue" d="M631.57,-112.4C656.52,-102.37 689.71,-89.03 713.64,-79.4"/>
<polygon fill="midnightblue" stroke="midnightblue" points="714.99,-82.64 722.96,-75.66 712.38,-76.14 714.99,-82.64"/>
</g>
<!-- Node13 -->
<g id="node13" class="node">
<title>Node13</title>
<g id="a_node13"><a xlink:href="abcg__exception_8hpp.html" target="_top" xlink:title="Header file of abcg::Exception and derived classes.">
<polygon fill="none" stroke="black" points="786.5,-56.5 786.5,-75.5 900.5,-75.5 900.5,-56.5 786.5,-56.5"/>
<text text-anchor="middle" x="843.5" y="-63.5" font-family="Helvetica,sans-Serif" font-size="10.00">abcg_exception.hpp</text>
</a>
</g>
</g>
<!-- Node1&#45;&gt;Node13 -->
<g id="edge12" class="edge">
<title>Node1&#45;&gt;Node13</title>
<path fill="none" stroke="midnightblue" d="M654.72,-112.47C698.64,-101.9 758.01,-87.59 798.36,-77.87"/>
<polygon fill="midnightblue" stroke="midnightblue" points="799.29,-81.25 808.19,-75.51 797.65,-74.45 799.29,-81.25"/>
</g>
<!-- Node3 -->
<g id="node3" class="node">
<title>Node3</title>
<g id="a_node3"><a xlink:href="abcg__opengl__external_8hpp.html" target="_top" xlink:title="Header file for including OpenGL&#45;related third&#45;party dependencies.">
<polygon fill="none" stroke="black" points="0,-0.5 0,-19.5 145,-19.5 145,-0.5 0,-0.5"/>
<text text-anchor="middle" x="72.5" y="-7.5" font-family="Helvetica,sans-Serif" font-size="10.00">abcg_opengl_external.hpp</text>
</a>
</g>
</g>
<!-- Node2&#45;&gt;Node3 -->
<g id="edge2" class="edge">
<title>Node2&#45;&gt;Node3</title>
<path fill="none" stroke="midnightblue" d="M176.01,-56.44C155.86,-47.6 124.18,-33.69 101.17,-23.59"/>
<polygon fill="midnightblue" stroke="midnightblue" points="102.46,-20.33 91.9,-19.52 99.65,-26.74 102.46,-20.33"/>
</g>
<!-- Node4 -->
<g id="node4" class="node">
<title>Node4</title>
<g id="a_node4"><a xlink:title=" ">
<polygon fill="none" stroke="#bfbfbf" points="163.5,-0.5 163.5,-19.5 205.5,-19.5 205.5,-0.5 163.5,-0.5"/>
<text text-anchor="middle" x="184.5" y="-7.5" font-family="Helvetica,sans-Serif" font-size="10.00">array</text>
</a>
</g>
</g>
<!-- Node2&#45;&gt;Node4 -->
<g id="edge3" class="edge">
<title>Node2&#45;&gt;Node4</title>
<path fill="none" stroke="midnightblue" d="M193.68,-56.08C192.23,-48.93 190.13,-38.64 188.31,-29.69"/>
<polygon fill="midnightblue" stroke="midnightblue" points="191.71,-28.85 186.28,-19.75 184.85,-30.25 191.71,-28.85"/>
</g>
<!-- Node5 -->
<g id="node5" class="node">
<title>Node5</title>
<g id="a_node5"><a xlink:title=" ">
<polygon fill="none" stroke="#bfbfbf" points="224,-0.5 224,-19.5 297,-19.5 297,-0.5 224,-0.5"/>
<text text-anchor="middle" x="260.5" y="-7.5" font-family="Helvetica,sans-Serif" font-size="10.00">string_view</text>
</a>
</g>
</g>
<!-- Node2&#45;&gt;Node5 -->
<g id="edge4" class="edge">
<title>Node2&#45;&gt;Node5</title>
<path fill="none" stroke="midnightblue" d="M205.94,-56.32C215.65,-48.26 230.32,-36.08 242,-26.37"/>
<polygon fill="midnightblue" stroke="midnightblue" points="244.41,-28.92 249.87,-19.83 239.94,-23.53 244.41,-28.92"/>
</g>
<!-- Node7 -->
<g id="node7" class="node">
<title>Node7</title>
<g id="a_node7"><a xlink:title=" ">
<polygon fill="none" stroke="#bfbfbf" points="315.5,-0.5 315.5,-19.5 363.5,-19.5 363.5,-0.5 315.5,-0.5"/>
<text text-anchor="middle" x="339.5" y="-7.5" font-family="Helvetica,sans-Serif" font-size="10.00">gsl/gsl</text>
</a>
</g>
</g>
<!-- Node6&#45;&gt;Node7 -->
<g id="edge6" class="edge">
<title>Node6&#45;&gt;Node7</title>
<path fill="none" stroke="midnightblue" d="M339.5,-56.08C339.5,-49.01 339.5,-38.86 339.5,-29.99"/>
<polygon fill="midnightblue" stroke="midnightblue" points="343,-29.75 339.5,-19.75 336,-29.75 343,-29.75"/>
</g>
<!-- Node8 -->
<g id="node8" class="node">
<title>Node8</title>
<g id="a_node8"><a xlink:title=" ">
<polygon fill="none" stroke="#bfbfbf" points="381.5,-0.5 381.5,-19.5 461.5,-19.5 461.5,-0.5 381.5,-0.5"/>
<text text-anchor="middle" x="421.5" y="-7.5" font-family="Helvetica,sans-Serif" font-size="10.00">SDL_image.h</text>
</a>
</g>
</g>
<!-- Node6&#45;&gt;Node8 -->
<g id="edge7" class="edge">
<title>Node6&#45;&gt;Node8</title>
<path fill="none" stroke="midnightblue" d="M352.67,-56.32C365.35,-47.98 384.73,-35.21 399.71,-25.35"/>
<polygon fill="midnightblue" stroke="midnightblue" points="401.93,-28.08 408.36,-19.65 398.08,-22.23 401.93,-28.08"/>
</g>
<!-- Node14 -->
<g id="node14" class="node">
<title>Node14</title>
<g id="a_node14"><a xlink:title=" ">
<polygon fill="none" stroke="#bfbfbf" points="700,-0.5 700,-19.5 793,-19.5 793,-0.5 700,-0.5"/>
<text text-anchor="middle" x="746.5" y="-7.5" font-family="Helvetica,sans-Serif" font-size="10.00">source_location</text>
</a>
</g>
</g>
<!-- Node13&#45;&gt;Node14 -->
<g id="edge13" class="edge">
<title>Node13&#45;&gt;Node14</title>
<path fill="none" stroke="midnightblue" d="M827.92,-56.32C812.5,-47.74 788.69,-34.49 770.79,-24.52"/>
<polygon fill="midnightblue" stroke="midnightblue" points="772.49,-21.46 762.05,-19.65 769.08,-27.58 772.49,-21.46"/>
</g>
<!-- Node15 -->
<g id="node15" class="node">
<title>Node15</title>
<g id="a_node15"><a xlink:title=" ">
<polygon fill="none" stroke="#bfbfbf" points="811,-0.5 811,-19.5 876,-19.5 876,-0.5 811,-0.5"/>
<text text-anchor="middle" x="843.5" y="-7.5" font-family="Helvetica,sans-Serif" font-size="10.00">stdexcept</text>
</a>
</g>
</g>
<!-- Node13&#45;&gt;Node15 -->
<g id="edge14" class="edge">
<title>Node13&#45;&gt;Node15</title>
<path fill="none" stroke="midnightblue" d="M843.5,-56.08C843.5,-49.01 843.5,-38.86 843.5,-29.99"/>
<polygon fill="midnightblue" stroke="midnightblue" points="847,-29.75 843.5,-19.75 840,-29.75 847,-29.75"/>
</g>
<!-- Node16 -->
<g id="node16" class="node">
<title>Node16</title>
<g id="a_node16"><a xlink:title=" ">
<polygon fill="none" stroke="#bfbfbf" points="894.5,-0.5 894.5,-19.5 938.5,-19.5 938.5,-0.5 894.5,-0.5"/>
<text text-anchor="middle" x="916.5" y="-7.5" font-family="Helvetica,sans-Serif" font-size="10.00">string</text>
</a>
</g>
</g>
<!-- Node13&#45;&gt;Node16 -->
<g id="edge15" class="edge">
<title>Node13&#45;&gt;Node16</title>
<path fill="none" stroke="midnightblue" d="M855.23,-56.32C866.34,-48.11 883.24,-35.6 896.48,-25.81"/>
<polygon fill="midnightblue" stroke="midnightblue" points="898.6,-28.59 904.56,-19.83 894.44,-22.97 898.6,-28.59"/>
</g>
</g>
</svg>
