<?xml version="1.0" encoding="UTF-8" standalone="no"?>
<!DOCTYPE svg PUBLIC "-//W3C//DTD SVG 1.1//EN"
 "http://www.w3.org/Graphics/SVG/1.1/DTD/svg11.dtd">
<!-- Generated by graphviz version 2.43.0 (0)
 -->
<!-- Title: /home/harlen/dev/abcg/abcg/abcgOpenGLExternal.hpp Pages: 1 -->
<svg width="811pt" height="236pt"
 viewBox="0.00 0.00 811.00 236.00" xmlns="http://www.w3.org/2000/svg" xmlns:xlink="http://www.w3.org/1999/xlink">
<g id="graph0" class="graph" transform="scale(1 1) rotate(0) translate(4 232)">
<title>/home/harlen/dev/abcg/abcg/abcgOpenGLExternal.hpp</title>
<!-- Node1 -->
<g id="Node000001" class="node">
<title>Node1</title>
<g id="a_Node000001"><a xlink:title="Header file for including OpenGL&#45;related third&#45;party dependencies.">
<polygon fill="#999999" stroke="#666666" points="437,-228 268,-228 268,-198 437,-198 437,-228"/>
<text text-anchor="start" x="276" y="-216" font-family="Helvetica,sans-Serif" font-size="10.00">/home/harlen/dev/abcg</text>
<text text-anchor="middle" x="352.5" y="-205" font-family="Helvetica,sans-Serif" font-size="10.00">/abcg/abcgOpenGLExternal.hpp</text>
</a>
</g>
</g>
<!-- Node2 -->
<g id="Node000002" class="node">
<title>Node2</title>
<g id="a_Node000002"><a xlink:href="abcgOpenGLError_8cpp.html" target="_top" xlink:title="Definition of abcg::OpenGLError members.">
<polygon fill="white" stroke="#666666" points="158.5,-162 8.5,-162 8.5,-132 158.5,-132 158.5,-162"/>
<text text-anchor="start" x="16.5" y="-150" font-family="Helvetica,sans-Serif" font-size="10.00">/home/harlen/dev/abcg</text>
<text text-anchor="middle" x="83.5" y="-139" font-family="Helvetica,sans-Serif" font-size="10.00">/abcg/abcgOpenGLError.cpp</text>
</a>
</g>
</g>
<!-- Node1&#45;&gt;Node2 -->
<g id="edge1_Node000001_Node000002" class="edge">
<title>Node1&#45;&gt;Node2</title>
<g id="a_edge1_Node000001_Node000002"><a xlink:title=" ">
<path fill="none" stroke="#63b8ff" d="M283.5,-195.58C239.83,-185.19 183.97,-171.9 142.4,-162.01"/>
<polygon fill="#63b8ff" stroke="#63b8ff" points="282.93,-199.05 293.47,-197.95 284.55,-192.24 282.93,-199.05"/>
</a>
</g>
</g>
<!-- Node3 -->
<g id="Node000003" class="node">
<title>Node3</title>
<g id="a_Node000003"><a xlink:href="abcgOpenGLFunction_8hpp.html" target="_top" xlink:title="Declaration of OpenGL&#45;related error checking functions.">
<polygon fill="white" stroke="#666666" points="346.5,-162 176.5,-162 176.5,-132 346.5,-132 346.5,-162"/>
<text text-anchor="start" x="184.5" y="-150" font-family="Helvetica,sans-Serif" font-size="10.00">/home/harlen/dev/abcg</text>
<text text-anchor="middle" x="261.5" y="-139" font-family="Helvetica,sans-Serif" font-size="10.00">/abcg/abcgOpenGLFunction.hpp</text>
</a>
</g>
</g>
<!-- Node1&#45;&gt;Node3 -->
<g id="edge2_Node000001_Node000003" class="edge">
<title>Node1&#45;&gt;Node3</title>
<g id="a_edge2_Node000001_Node000003"><a xlink:title=" ">
<path fill="none" stroke="#63b8ff" d="M324.1,-192.03C310.33,-182.34 294.12,-170.94 281.64,-162.16"/>
<polygon fill="#63b8ff" stroke="#63b8ff" points="322.11,-194.91 332.3,-197.8 326.14,-189.18 322.11,-194.91"/>
</a>
</g>
</g>
<!-- Node8 -->
<g id="Node000008" class="node">
<title>Node8</title>
<g id="a_Node000008"><a xlink:href="abcgOpenGLImage_8hpp.html" target="_top" xlink:title="Declaration of OpenGL texture loading helper functions.">
<polygon fill="white" stroke="#666666" points="524,-162 365,-162 365,-132 524,-132 524,-162"/>
<text text-anchor="start" x="373" y="-150" font-family="Helvetica,sans-Serif" font-size="10.00">/home/harlen/dev/abcg</text>
<text text-anchor="middle" x="444.5" y="-139" font-family="Helvetica,sans-Serif" font-size="10.00">/abcg/abcgOpenGLImage.hpp</text>
</a>
</g>
</g>
<!-- Node1&#45;&gt;Node8 -->
<g id="edge7_Node000001_Node000008" class="edge">
<title>Node1&#45;&gt;Node8</title>
<g id="a_edge7_Node000001_Node000008"><a xlink:title=" ">
<path fill="none" stroke="#63b8ff" d="M381.21,-192.03C395.13,-182.34 411.53,-170.94 424.14,-162.16"/>
<polygon fill="#63b8ff" stroke="#63b8ff" points="379.13,-189.21 372.92,-197.8 383.13,-194.96 379.13,-189.21"/>
</a>
</g>
</g>
<!-- Node10 -->
<g id="Node000010" class="node">
<title>Node10</title>
<g id="a_Node000010"><a xlink:href="abcgOpenGLShader_8hpp.html" target="_top" xlink:title="Declaration of helper functions for building OpenGL shaders.">
<polygon fill="white" stroke="#666666" points="703,-162 542,-162 542,-132 703,-132 703,-162"/>
<text text-anchor="start" x="550" y="-150" font-family="Helvetica,sans-Serif" font-size="10.00">/home/harlen/dev/abcg</text>
<text text-anchor="middle" x="622.5" y="-139" font-family="Helvetica,sans-Serif" font-size="10.00">/abcg/abcgOpenGLShader.hpp</text>
</a>
</g>
</g>
<!-- Node1&#45;&gt;Node10 -->
<g id="edge10_Node000001_Node000010" class="edge">
<title>Node1&#45;&gt;Node10</title>
<g id="a_edge10_Node000001_Node000010"><a xlink:title=" ">
<path fill="none" stroke="#63b8ff" d="M421.48,-195.65C465.35,-185.25 521.57,-171.93 563.39,-162.01"/>
<polygon fill="#63b8ff" stroke="#63b8ff" points="420.68,-192.24 411.75,-197.95 422.29,-199.05 420.68,-192.24"/>
</a>
</g>
</g>
<!-- Node4 -->
<g id="Node000004" class="node">
<title>Node4</title>
<g id="a_Node000004"><a xlink:href="abcgOpenGLFunction_8cpp.html" target="_top" xlink:title="Definition of OpenGL&#45;related error checking functions.">
<polygon fill="white" stroke="#666666" points="169,-96 0,-96 0,-66 169,-66 169,-96"/>
<text text-anchor="start" x="8" y="-84" font-family="Helvetica,sans-Serif" font-size="10.00">/home/harlen/dev/abcg</text>
<text text-anchor="middle" x="84.5" y="-73" font-family="Helvetica,sans-Serif" font-size="10.00">/abcg/abcgOpenGLFunction.cpp</text>
</a>
</g>
</g>
<!-- Node3&#45;&gt;Node4 -->
<g id="edge3_Node000003_Node000004" class="edge">
<title>Node3&#45;&gt;Node4</title>
<g id="a_edge3_Node000003_Node000004"><a xlink:title=" ">
<path fill="none" stroke="#63b8ff" d="M212.98,-128.46C184.74,-118.25 149.63,-105.55 123.25,-96.01"/>
<polygon fill="#63b8ff" stroke="#63b8ff" points="212.06,-131.85 222.66,-131.95 214.44,-125.26 212.06,-131.85"/>
</a>
</g>
</g>
<!-- Node5 -->
<g id="Node000005" class="node">
<title>Node5</title>
<g id="a_Node000005"><a xlink:href="abcgOpenGLWindow_8hpp.html" target="_top" xlink:title="Header file of abcg::OpenGLWindow.">
<polygon fill="white" stroke="#666666" points="353.5,-96 187.5,-96 187.5,-66 353.5,-66 353.5,-96"/>
<text text-anchor="start" x="195.5" y="-84" font-family="Helvetica,sans-Serif" font-size="10.00">/home/harlen/dev/abcg</text>
<text text-anchor="middle" x="270.5" y="-73" font-family="Helvetica,sans-Serif" font-size="10.00">/abcg/abcgOpenGLWindow.hpp</text>
</a>
</g>
</g>
<!-- Node3&#45;&gt;Node5 -->
<g id="edge4_Node000003_Node000005" class="edge">
<title>Node3&#45;&gt;Node5</title>
<g id="a_edge4_Node000003_Node000005"><a xlink:title=" ">
<path fill="none" stroke="#63b8ff" d="M264.9,-121.83C266.12,-113.17 267.45,-103.7 268.51,-96.16"/>
<polygon fill="#63b8ff" stroke="#63b8ff" points="261.42,-121.41 263.5,-131.8 268.36,-122.38 261.42,-121.41"/>
</a>
</g>
</g>
<!-- Node6 -->
<g id="Node000006" class="node">
<title>Node6</title>
<g id="a_Node000006"><a xlink:href="abcgOpenGL_8hpp.html" target="_top" xlink:title="Header file for OpenGL&#45;related functions and classes.">
<polygon fill="white" stroke="#666666" points="481.5,-30 353.5,-30 353.5,0 481.5,0 481.5,-30"/>
<text text-anchor="start" x="361.5" y="-18" font-family="Helvetica,sans-Serif" font-size="10.00">/home/harlen/dev/abcg</text>
<text text-anchor="middle" x="417.5" y="-7" font-family="Helvetica,sans-Serif" font-size="10.00">/abcg/abcgOpenGL.hpp</text>
</a>
</g>
</g>
<!-- Node5&#45;&gt;Node6 -->
<g id="edge5_Node000005_Node000006" class="edge">
<title>Node5&#45;&gt;Node6</title>
<g id="a_edge5_Node000005_Node000006"><a xlink:title=" ">
<path fill="none" stroke="#63b8ff" d="M312.03,-61.92C335.26,-51.8 363.79,-39.38 385.32,-30.01"/>
<polygon fill="#63b8ff" stroke="#63b8ff" points="310.53,-58.75 302.76,-65.95 313.33,-65.17 310.53,-58.75"/>
</a>
</g>
</g>
<!-- Node7 -->
<g id="Node000007" class="node">
<title>Node7</title>
<g id="a_Node000007"><a xlink:href="abcgOpenGLWindow_8cpp.html" target="_top" xlink:title="Definition of abcg::OpenGLWindow members.">
<polygon fill="white" stroke="#666666" points="335,-30 170,-30 170,0 335,0 335,-30"/>
<text text-anchor="start" x="178" y="-18" font-family="Helvetica,sans-Serif" font-size="10.00">/home/harlen/dev/abcg</text>
<text text-anchor="middle" x="252.5" y="-7" font-family="Helvetica,sans-Serif" font-size="10.00">/abcg/abcgOpenGLWindow.cpp</text>
</a>
</g>
</g>
<!-- Node5&#45;&gt;Node7 -->
<g id="edge6_Node000005_Node000007" class="edge">
<title>Node5&#45;&gt;Node7</title>
<g id="a_edge6_Node000005_Node000007"><a xlink:title=" ">
<path fill="none" stroke="#63b8ff" d="M263.78,-56.11C261.32,-47.38 258.63,-37.78 256.48,-30.16"/>
<polygon fill="#63b8ff" stroke="#63b8ff" points="260.43,-57.12 266.51,-65.8 267.17,-55.22 260.43,-57.12"/>
</a>
</g>
</g>
<!-- Node8&#45;&gt;Node6 -->
<g id="edge8_Node000008_Node000006" class="edge">
<title>Node8&#45;&gt;Node6</title>
<g id="a_edge8_Node000008_Node000006"><a xlink:title=" ">
<path fill="none" stroke="#63b8ff" d="M429.79,-123.2C425.26,-114.96 420.85,-105.38 418.5,-96 412.85,-73.5 414.15,-46.31 415.73,-30.13"/>
<polygon fill="#63b8ff" stroke="#63b8ff" points="426.78,-124.99 434.85,-131.85 432.82,-121.45 426.78,-124.99"/>
</a>
</g>
</g>
<!-- Node9 -->
<g id="Node000009" class="node">
<title>Node9</title>
<g id="a_Node000009"><a xlink:href="abcgOpenGLImage_8cpp.html" target="_top" xlink:title="Definition of OpenGL texture loading helper functions.">
<polygon fill="white" stroke="#666666" points="585.5,-96 427.5,-96 427.5,-66 585.5,-66 585.5,-96"/>
<text text-anchor="start" x="435.5" y="-84" font-family="Helvetica,sans-Serif" font-size="10.00">/home/harlen/dev/abcg</text>
<text text-anchor="middle" x="506.5" y="-73" font-family="Helvetica,sans-Serif" font-size="10.00">/abcg/abcgOpenGLImage.cpp</text>
</a>
</g>
</g>
<!-- Node8&#45;&gt;Node9 -->
<g id="edge9_Node000008_Node000009" class="edge">
<title>Node8&#45;&gt;Node9</title>
<g id="a_edge9_Node000008_Node000009"><a xlink:title=" ">
<path fill="none" stroke="#63b8ff" d="M465.46,-124.37C474.47,-115.06 484.76,-104.44 492.78,-96.16"/>
<polygon fill="#63b8ff" stroke="#63b8ff" points="462.7,-122.18 458.26,-131.8 467.73,-127.05 462.7,-122.18"/>
</a>
</g>
</g>
<!-- Node10&#45;&gt;Node6 -->
<g id="edge11_Node000010_Node000006" class="edge">
<title>Node10&#45;&gt;Node6</title>
<g id="a_edge11_Node000010_Node000006"><a xlink:title=" ">
<path fill="none" stroke="#63b8ff" d="M619.97,-121.77C616.86,-104 609.93,-80.51 594.5,-66 564.14,-37.45 518.74,-25.02 481.52,-19.68"/>
<polygon fill="#63b8ff" stroke="#63b8ff" points="616.52,-122.34 621.43,-131.72 623.44,-121.32 616.52,-122.34"/>
</a>
</g>
</g>
<!-- Node11 -->
<g id="Node000011" class="node">
<title>Node11</title>
<g id="a_Node000011"><a xlink:href="abcgOpenGLShader_8cpp.html" target="_top" xlink:title="Definition of helper functions for building OpenGL shaders.">
<polygon fill="white" stroke="#666666" points="803,-96 642,-96 642,-66 803,-66 803,-96"/>
<text text-anchor="start" x="650" y="-84" font-family="Helvetica,sans-Serif" font-size="10.00">/home/harlen/dev/abcg</text>
<text text-anchor="middle" x="722.5" y="-73" font-family="Helvetica,sans-Serif" font-size="10.00">/abcg/abcgOpenGLShader.cpp</text>
</a>
</g>
</g>
<!-- Node10&#45;&gt;Node11 -->
<g id="edge12_Node000010_Node000011" class="edge">
<title>Node10&#45;&gt;Node11</title>
<g id="a_edge12_Node000010_Node000011"><a xlink:title=" ">
<path fill="none" stroke="#63b8ff" d="M653.28,-126.3C668.5,-116.56 686.53,-105.02 700.37,-96.16"/>
<polygon fill="#63b8ff" stroke="#63b8ff" points="651.23,-123.46 644.69,-131.8 655,-129.35 651.23,-123.46"/>
</a>
</g>
</g>
</g>
</svg>
