<?xml version="1.0" encoding="UTF-8" standalone="no"?>
<!DOCTYPE svg PUBLIC "-//W3C//DTD SVG 1.1//EN"
 "http://www.w3.org/Graphics/SVG/1.1/DTD/svg11.dtd">
<!-- Generated by graphviz version 2.43.0 (0)
 -->
<!-- Title: /home/harlen/dev/abcg/abcg/abcgVulkanSwapchain.cpp Pages: 1 -->
<svg width="1075pt" height="478pt"
 viewBox="0.00 0.00 1075.00 478.00" xmlns="http://www.w3.org/2000/svg" xmlns:xlink="http://www.w3.org/1999/xlink">
<g id="graph0" class="graph" transform="scale(1 1) rotate(0) translate(4 474)">
<title>/home/harlen/dev/abcg/abcg/abcgVulkanSwapchain.cpp</title>
<!-- Node1 -->
<g id="Node000001" class="node">
<title>Node1</title>
<g id="a_Node000001"><a xlink:title="Definition of abcg::VulkanSwapchain.">
<polygon fill="#999999" stroke="#666666" points="631,-470 457,-470 457,-440 631,-440 631,-470"/>
<text text-anchor="start" x="465" y="-458" font-family="Helvetica,sans-Serif" font-size="10.00">/home/harlen/dev/abcg</text>
<text text-anchor="middle" x="544" y="-447" font-family="Helvetica,sans-Serif" font-size="10.00">/abcg/abcgVulkanSwapchain.cpp</text>
</a>
</g>
</g>
<!-- Node2 -->
<g id="Node000002" class="node">
<title>Node2</title>
<g id="a_Node000002"><a xlink:href="abcgVulkanSwapchain_8hpp.html" target="_top" xlink:title="Header file of abcg::VulkanSwapchain.">
<polygon fill="white" stroke="#666666" points="322,-349 176,-349 176,-330 322,-330 322,-349"/>
<text text-anchor="middle" x="249" y="-337" font-family="Helvetica,sans-Serif" font-size="10.00">abcgVulkanSwapchain.hpp</text>
</a>
</g>
</g>
<!-- Node1&#45;&gt;Node2 -->
<g id="edge1_Node000001_Node000002" class="edge">
<title>Node1&#45;&gt;Node2</title>
<g id="a_edge1_Node000001_Node000002"><a xlink:title=" ">
<path fill="none" stroke="#63b8ff" d="M456.86,-440.5C419.21,-432.75 375.32,-421.07 338,-404 310.95,-391.63 283.67,-370.62 266.58,-356.17"/>
<polygon fill="#63b8ff" stroke="#63b8ff" points="268.48,-353.19 258.62,-349.3 263.9,-358.48 268.48,-353.19"/>
</a>
</g>
</g>
<!-- Node3 -->
<g id="Node000003" class="node">
<title>Node3</title>
<g id="a_Node000003"><a xlink:title=" ">
<polygon fill="#e0e0e0" stroke="#999999" points="70.5,-184 5.5,-184 5.5,-165 70.5,-165 70.5,-184"/>
<text text-anchor="middle" x="38" y="-172" font-family="Helvetica,sans-Serif" font-size="10.00">functional</text>
</a>
</g>
</g>
<!-- Node1&#45;&gt;Node3 -->
<g id="edge16_Node000001_Node000003" class="edge">
<title>Node1&#45;&gt;Node3</title>
<g id="a_edge16_Node000001_Node000003"><a xlink:title=" ">
<path fill="none" stroke="#63b8ff" d="M456.9,-453.59C303.22,-450.49 0,-432.7 0,-340.5 0,-340.5 0,-340.5 0,-283.5 0,-250.02 16.45,-213.84 27.7,-193.01"/>
<polygon fill="#63b8ff" stroke="#63b8ff" points="30.87,-194.53 32.72,-184.1 24.76,-191.1 30.87,-194.53"/>
</a>
</g>
</g>
<!-- Node5 -->
<g id="Node000005" class="node">
<title>Node5</title>
<g id="a_Node000005"><a xlink:href="abcgVulkanDevice_8hpp.html" target="_top" xlink:title="Header file of abcg::VulkanDevice.">
<polygon fill="white" stroke="#666666" points="388.5,-239 261.5,-239 261.5,-220 388.5,-220 388.5,-239"/>
<text text-anchor="middle" x="325" y="-227" font-family="Helvetica,sans-Serif" font-size="10.00">abcgVulkanDevice.hpp</text>
</a>
</g>
</g>
<!-- Node1&#45;&gt;Node5 -->
<g id="edge23_Node000001_Node000005" class="edge">
<title>Node1&#45;&gt;Node5</title>
<g id="a_edge23_Node000001_Node000005"><a xlink:title=" ">
<path fill="none" stroke="#63b8ff" d="M456.88,-443.02C429.98,-435.78 402.16,-423.8 382,-404 338.51,-361.29 328.19,-284.87 325.75,-249.46"/>
<polygon fill="#63b8ff" stroke="#63b8ff" points="329.23,-248.93 325.19,-239.14 322.24,-249.31 329.23,-248.93"/>
</a>
</g>
</g>
<!-- Node6 -->
<g id="Node000006" class="node">
<title>Node6</title>
<g id="a_Node000006"><a xlink:href="abcgVulkanPhysicalDevice_8hpp.html" target="_top" xlink:title="Header file of abcg::VulkanPhysicalDevice.">
<polygon fill="white" stroke="#666666" points="623.5,-184 456.5,-184 456.5,-165 623.5,-165 623.5,-184"/>
<text text-anchor="middle" x="540" y="-172" font-family="Helvetica,sans-Serif" font-size="10.00">abcgVulkanPhysicalDevice.hpp</text>
</a>
</g>
</g>
<!-- Node1&#45;&gt;Node6 -->
<g id="edge24_Node000001_Node000006" class="edge">
<title>Node1&#45;&gt;Node6</title>
<g id="a_edge24_Node000001_Node000006"><a xlink:title=" ">
<path fill="none" stroke="#63b8ff" d="M629.81,-439.94C721.86,-422.37 855,-388.64 855,-340.5 855,-340.5 855,-340.5 855,-283.5 855,-232.6 705.97,-200.63 612.93,-185.62"/>
<polygon fill="#63b8ff" stroke="#63b8ff" points="613.41,-182.16 602.99,-184.05 612.32,-189.07 613.41,-182.16"/>
</a>
</g>
</g>
<!-- Node14 -->
<g id="Node000014" class="node">
<title>Node14</title>
<g id="a_Node000014"><a xlink:title=" ">
<polygon fill="#e0e0e0" stroke="#999999" points="931,-404 883,-404 883,-385 931,-385 931,-404"/>
<text text-anchor="middle" x="907" y="-392" font-family="Helvetica,sans-Serif" font-size="10.00">gsl/gsl</text>
</a>
</g>
</g>
<!-- Node1&#45;&gt;Node14 -->
<g id="edge17_Node000001_Node000014" class="edge">
<title>Node1&#45;&gt;Node14</title>
<g id="a_edge17_Node000001_Node000014"><a xlink:title=" ">
<path fill="none" stroke="#63b8ff" d="M631.18,-442.22C696.77,-432.95 788.78,-419.13 869,-404 870.27,-403.76 871.56,-403.51 872.87,-403.25"/>
<polygon fill="#63b8ff" stroke="#63b8ff" points="873.86,-406.62 882.93,-401.14 872.42,-399.77 873.86,-406.62"/>
</a>
</g>
</g>
<!-- Node15 -->
<g id="Node000015" class="node">
<title>Node15</title>
<g id="a_Node000015"><a xlink:title=" ">
<polygon fill="#e0e0e0" stroke="#999999" points="1067,-404 949,-404 949,-385 1067,-385 1067,-404"/>
<text text-anchor="middle" x="1008" y="-392" font-family="Helvetica,sans-Serif" font-size="10.00">imgui_impl_vulkan.h</text>
</a>
</g>
</g>
<!-- Node1&#45;&gt;Node15 -->
<g id="edge18_Node000001_Node000015" class="edge">
<title>Node1&#45;&gt;Node15</title>
<g id="a_edge18_Node000001_Node000015"><a xlink:title=" ">
<path fill="none" stroke="#63b8ff" d="M631,-443.03C720.18,-431.79 857.05,-414.53 939.03,-404.2"/>
<polygon fill="#63b8ff" stroke="#63b8ff" points="939.51,-407.66 948.99,-402.94 938.63,-400.72 939.51,-407.66"/>
</a>
</g>
</g>
<!-- Node16 -->
<g id="Node000016" class="node">
<title>Node16</title>
<g id="a_Node000016"><a xlink:href="abcgException_8hpp.html" target="_top" xlink:title="Header file of abcg::Exception and derived classes.">
<polygon fill="white" stroke="#666666" points="713.5,-404 604.5,-404 604.5,-385 713.5,-385 713.5,-404"/>
<text text-anchor="middle" x="659" y="-392" font-family="Helvetica,sans-Serif" font-size="10.00">abcgException.hpp</text>
</a>
</g>
</g>
<!-- Node1&#45;&gt;Node16 -->
<g id="edge19_Node000001_Node000016" class="edge">
<title>Node1&#45;&gt;Node16</title>
<g id="a_edge19_Node000001_Node000016"><a xlink:title=" ">
<path fill="none" stroke="#63b8ff" d="M571.55,-439.99C590.22,-430.49 614.74,-418.02 633.06,-408.69"/>
<polygon fill="#63b8ff" stroke="#63b8ff" points="634.69,-411.79 642.02,-404.14 631.52,-405.55 634.69,-411.79"/>
</a>
</g>
</g>
<!-- Node20 -->
<g id="Node000020" class="node">
<title>Node20</title>
<g id="a_Node000020"><a xlink:href="abcgVulkanWindow_8hpp.html" target="_top" xlink:title="Header file of abcg::VulkanWindow.">
<polygon fill="white" stroke="#666666" points="521.5,-404 390.5,-404 390.5,-385 521.5,-385 521.5,-404"/>
<text text-anchor="middle" x="456" y="-392" font-family="Helvetica,sans-Serif" font-size="10.00">abcgVulkanWindow.hpp</text>
</a>
</g>
</g>
<!-- Node1&#45;&gt;Node20 -->
<g id="edge25_Node000001_Node000020" class="edge">
<title>Node1&#45;&gt;Node20</title>
<g id="a_edge25_Node000001_Node000020"><a xlink:title=" ">
<path fill="none" stroke="#63b8ff" d="M522.7,-439.84C508.93,-430.68 491.07,-418.82 477.3,-409.66"/>
<polygon fill="#63b8ff" stroke="#63b8ff" points="479.19,-406.72 468.93,-404.09 475.32,-412.55 479.19,-406.72"/>
</a>
</g>
</g>
<!-- Node2&#45;&gt;Node3 -->
<g id="edge2_Node000002_Node000003" class="edge">
<title>Node2&#45;&gt;Node3</title>
<g id="a_edge2_Node000002_Node000003"><a xlink:title=" ">
<path fill="none" stroke="#63b8ff" d="M175.77,-330.04C128.64,-323.05 73.26,-311.41 57,-294 31.61,-266.8 32.4,-219.89 35.2,-194"/>
<polygon fill="#63b8ff" stroke="#63b8ff" points="38.67,-194.39 36.49,-184.02 31.73,-193.48 38.67,-194.39"/>
</a>
</g>
</g>
<!-- Node4 -->
<g id="Node000004" class="node">
<title>Node4</title>
<g id="a_Node000004"><a xlink:title=" ">
<polygon fill="#e0e0e0" stroke="#999999" points="285.5,-294 208.5,-294 208.5,-275 285.5,-275 285.5,-294"/>
<text text-anchor="middle" x="247" y="-282" font-family="Helvetica,sans-Serif" font-size="10.00">glm/fwd.hpp</text>
</a>
</g>
</g>
<!-- Node2&#45;&gt;Node4 -->
<g id="edge3_Node000002_Node000004" class="edge">
<title>Node2&#45;&gt;Node4</title>
<g id="a_edge3_Node000002_Node000004"><a xlink:title=" ">
<path fill="none" stroke="#63b8ff" d="M248.67,-329.75C248.41,-322.8 248.03,-312.85 247.7,-304.13"/>
<polygon fill="#63b8ff" stroke="#63b8ff" points="251.2,-303.95 247.32,-294.09 244.2,-304.21 251.2,-303.95"/>
</a>
</g>
</g>
<!-- Node2&#45;&gt;Node5 -->
<g id="edge4_Node000002_Node000005" class="edge">
<title>Node2&#45;&gt;Node5</title>
<g id="a_edge4_Node000002_Node000005"><a xlink:title=" ">
<path fill="none" stroke="#63b8ff" d="M259.95,-329.88C270.03,-321.53 284.9,-308.09 295,-294 305.09,-279.92 313.21,-261.92 318.45,-248.68"/>
<polygon fill="#63b8ff" stroke="#63b8ff" points="321.76,-249.84 322.02,-239.25 315.21,-247.37 321.76,-249.84"/>
</a>
</g>
</g>
<!-- Node12 -->
<g id="Node000012" class="node">
<title>Node12</title>
<g id="a_Node000012"><a xlink:href="abcgVulkanImage_8hpp.html" target="_top" xlink:title="Header file of abcg::VulkanImage.">
<polygon fill="white" stroke="#666666" points="190,-294 66,-294 66,-275 190,-275 190,-294"/>
<text text-anchor="middle" x="128" y="-282" font-family="Helvetica,sans-Serif" font-size="10.00">abcgVulkanImage.hpp</text>
</a>
</g>
</g>
<!-- Node2&#45;&gt;Node12 -->
<g id="edge13_Node000002_Node000012" class="edge">
<title>Node2&#45;&gt;Node12</title>
<g id="a_edge13_Node000002_Node000012"><a xlink:title=" ">
<path fill="none" stroke="#63b8ff" d="M229.56,-329.98C210.01,-321.42 179.62,-308.11 157.18,-298.28"/>
<polygon fill="#63b8ff" stroke="#63b8ff" points="158.36,-294.98 147.79,-294.17 155.55,-301.39 158.36,-294.98"/>
</a>
</g>
</g>
<!-- Node5&#45;&gt;Node3 -->
<g id="edge12_Node000005_Node000003" class="edge">
<title>Node5&#45;&gt;Node3</title>
<g id="a_edge12_Node000005_Node000003"><a xlink:title=" ">
<path fill="none" stroke="#63b8ff" d="M278.89,-219.98C224.22,-209.89 133.85,-193.2 80.72,-183.39"/>
<polygon fill="#63b8ff" stroke="#63b8ff" points="81.08,-179.9 70.61,-181.52 79.81,-186.78 81.08,-179.9"/>
</a>
</g>
</g>
<!-- Node5&#45;&gt;Node6 -->
<g id="edge5_Node000005_Node000006" class="edge">
<title>Node5&#45;&gt;Node6</title>
<g id="a_edge5_Node000005_Node000006"><a xlink:title=" ">
<path fill="none" stroke="#63b8ff" d="M359.54,-219.98C396.42,-210.89 454.99,-196.46 495.34,-186.51"/>
<polygon fill="#63b8ff" stroke="#63b8ff" points="496.31,-189.87 505.19,-184.08 494.64,-183.08 496.31,-189.87"/>
</a>
</g>
</g>
<!-- Node7 -->
<g id="Node000007" class="node">
<title>Node7</title>
<g id="a_Node000007"><a xlink:title=" ">
<polygon fill="#e0e0e0" stroke="#999999" points="569,-129 513,-129 513,-110 569,-110 569,-129"/>
<text text-anchor="middle" x="541" y="-117" font-family="Helvetica,sans-Serif" font-size="10.00">optional</text>
</a>
</g>
</g>
<!-- Node6&#45;&gt;Node7 -->
<g id="edge6_Node000006_Node000007" class="edge">
<title>Node6&#45;&gt;Node7</title>
<g id="a_edge6_Node000006_Node000007"><a xlink:title=" ">
<path fill="none" stroke="#63b8ff" d="M540.17,-164.75C540.3,-157.8 540.48,-147.85 540.65,-139.13"/>
<polygon fill="#63b8ff" stroke="#63b8ff" points="544.15,-139.15 540.84,-129.09 537.15,-139.02 544.15,-139.15"/>
</a>
</g>
</g>
<!-- Node8 -->
<g id="Node000008" class="node">
<title>Node8</title>
<g id="a_Node000008"><a xlink:href="abcgVulkanExternal_8hpp.html" target="_top" xlink:title="Header file for including Vulkan&#45;related dependencies.">
<polygon fill="white" stroke="#666666" points="579,-74 445,-74 445,-55 579,-55 579,-74"/>
<text text-anchor="middle" x="512" y="-62" font-family="Helvetica,sans-Serif" font-size="10.00">abcgVulkanExternal.hpp</text>
</a>
</g>
</g>
<!-- Node6&#45;&gt;Node8 -->
<g id="edge7_Node000006_Node000008" class="edge">
<title>Node6&#45;&gt;Node8</title>
<g id="a_edge7_Node000006_Node000008"><a xlink:title=" ">
<path fill="none" stroke="#63b8ff" d="M551.92,-164.62C566.67,-152.49 588.62,-129.96 578,-110 570.69,-96.25 557.03,-85.99 544.03,-78.8"/>
<polygon fill="#63b8ff" stroke="#63b8ff" points="545.28,-75.51 534.78,-74.11 542.11,-81.75 545.28,-75.51"/>
</a>
</g>
</g>
<!-- Node11 -->
<g id="Node000011" class="node">
<title>Node11</title>
<g id="a_Node000011"><a xlink:href="abcgVulkanInstance_8hpp.html" target="_top" xlink:title="Header file of abcg::VulkanInstance.">
<polygon fill="white" stroke="#666666" points="495,-129 361,-129 361,-110 495,-110 495,-129"/>
<text text-anchor="middle" x="428" y="-117" font-family="Helvetica,sans-Serif" font-size="10.00">abcgVulkanInstance.hpp</text>
</a>
</g>
</g>
<!-- Node6&#45;&gt;Node11 -->
<g id="edge10_Node000006_Node000011" class="edge">
<title>Node6&#45;&gt;Node11</title>
<g id="a_edge10_Node000006_Node000011"><a xlink:title=" ">
<path fill="none" stroke="#63b8ff" d="M522.01,-164.98C504.07,-156.5 476.28,-143.35 455.57,-133.54"/>
<polygon fill="#63b8ff" stroke="#63b8ff" points="456.86,-130.28 446.32,-129.17 453.86,-136.61 456.86,-130.28"/>
</a>
</g>
</g>
<!-- Node9 -->
<g id="Node000009" class="node">
<title>Node9</title>
<g id="a_Node000009"><a xlink:title=" ">
<polygon fill="#e0e0e0" stroke="#999999" points="488.5,-19 441.5,-19 441.5,0 488.5,0 488.5,-19"/>
<text text-anchor="middle" x="465" y="-7" font-family="Helvetica,sans-Serif" font-size="10.00">volk.h</text>
</a>
</g>
</g>
<!-- Node8&#45;&gt;Node9 -->
<g id="edge8_Node000008_Node000009" class="edge">
<title>Node8&#45;&gt;Node9</title>
<g id="a_edge8_Node000008_Node000009"><a xlink:title=" ">
<path fill="none" stroke="#63b8ff" d="M504.24,-54.75C497.53,-47.18 487.66,-36.05 479.49,-26.84"/>
<polygon fill="#63b8ff" stroke="#63b8ff" points="481.87,-24.25 472.62,-19.09 476.63,-28.89 481.87,-24.25"/>
</a>
</g>
</g>
<!-- Node10 -->
<g id="Node000010" class="node">
<title>Node10</title>
<g id="a_Node000010"><a xlink:title=" ">
<polygon fill="#e0e0e0" stroke="#999999" points="611.5,-19 506.5,-19 506.5,0 611.5,0 611.5,-19"/>
<text text-anchor="middle" x="559" y="-7" font-family="Helvetica,sans-Serif" font-size="10.00">vulkan/vulkan.hpp</text>
</a>
</g>
</g>
<!-- Node8&#45;&gt;Node10 -->
<g id="edge9_Node000008_Node000010" class="edge">
<title>Node8&#45;&gt;Node10</title>
<g id="a_edge9_Node000008_Node000010"><a xlink:title=" ">
<path fill="none" stroke="#63b8ff" d="M519.76,-54.75C526.47,-47.18 536.34,-36.05 544.51,-26.84"/>
<polygon fill="#63b8ff" stroke="#63b8ff" points="547.37,-28.89 551.38,-19.09 542.13,-24.25 547.37,-28.89"/>
</a>
</g>
</g>
<!-- Node11&#45;&gt;Node8 -->
<g id="edge11_Node000011_Node000008" class="edge">
<title>Node11&#45;&gt;Node8</title>
<g id="a_edge11_Node000011_Node000008"><a xlink:title=" ">
<path fill="none" stroke="#63b8ff" d="M441.5,-109.98C454.4,-101.84 474.1,-89.41 489.4,-79.76"/>
<polygon fill="#63b8ff" stroke="#63b8ff" points="491.67,-82.47 498.26,-74.17 487.93,-76.55 491.67,-82.47"/>
</a>
</g>
</g>
<!-- Node12&#45;&gt;Node5 -->
<g id="edge14_Node000012_Node000005" class="edge">
<title>Node12&#45;&gt;Node5</title>
<g id="a_edge14_Node000012_Node000005"><a xlink:title=" ">
<path fill="none" stroke="#63b8ff" d="M159.65,-274.98C193.16,-265.97 246.2,-251.7 283.14,-241.76"/>
<polygon fill="#63b8ff" stroke="#63b8ff" points="284.35,-245.06 293.1,-239.08 282.53,-238.3 284.35,-245.06"/>
</a>
</g>
</g>
<!-- Node13 -->
<g id="Node000013" class="node">
<title>Node13</title>
<g id="a_Node000013"><a xlink:title=" ">
<polygon fill="#e0e0e0" stroke="#999999" points="165,-239 91,-239 91,-220 165,-220 165,-239"/>
<text text-anchor="middle" x="128" y="-227" font-family="Helvetica,sans-Serif" font-size="10.00">gsl/pointers</text>
</a>
</g>
</g>
<!-- Node12&#45;&gt;Node13 -->
<g id="edge15_Node000012_Node000013" class="edge">
<title>Node12&#45;&gt;Node13</title>
<g id="a_edge15_Node000012_Node000013"><a xlink:title=" ">
<path fill="none" stroke="#63b8ff" d="M128,-274.75C128,-267.8 128,-257.85 128,-249.13"/>
<polygon fill="#63b8ff" stroke="#63b8ff" points="131.5,-249.09 128,-239.09 124.5,-249.09 131.5,-249.09"/>
</a>
</g>
</g>
<!-- Node17 -->
<g id="Node000017" class="node">
<title>Node17</title>
<g id="a_Node000017"><a xlink:title=" ">
<polygon fill="#e0e0e0" stroke="#999999" points="743.5,-349 650.5,-349 650.5,-330 743.5,-330 743.5,-349"/>
<text text-anchor="middle" x="697" y="-337" font-family="Helvetica,sans-Serif" font-size="10.00">source_location</text>
</a>
</g>
</g>
<!-- Node16&#45;&gt;Node17 -->
<g id="edge20_Node000016_Node000017" class="edge">
<title>Node16&#45;&gt;Node17</title>
<g id="a_edge20_Node000016_Node000017"><a xlink:title=" ">
<path fill="none" stroke="#63b8ff" d="M665.27,-384.75C670.59,-377.34 678.36,-366.5 684.88,-357.41"/>
<polygon fill="#63b8ff" stroke="#63b8ff" points="687.86,-359.26 690.84,-349.09 682.17,-355.18 687.86,-359.26"/>
</a>
</g>
</g>
<!-- Node18 -->
<g id="Node000018" class="node">
<title>Node18</title>
<g id="a_Node000018"><a xlink:title=" ">
<polygon fill="#e0e0e0" stroke="#999999" points="826.5,-349 761.5,-349 761.5,-330 826.5,-330 826.5,-349"/>
<text text-anchor="middle" x="794" y="-337" font-family="Helvetica,sans-Serif" font-size="10.00">stdexcept</text>
</a>
</g>
</g>
<!-- Node16&#45;&gt;Node18 -->
<g id="edge21_Node000016_Node000018" class="edge">
<title>Node16&#45;&gt;Node18</title>
<g id="a_edge21_Node000016_Node000018"><a xlink:title=" ">
<path fill="none" stroke="#63b8ff" d="M680.69,-384.98C702.8,-376.3 737.32,-362.75 762.45,-352.88"/>
<polygon fill="#63b8ff" stroke="#63b8ff" points="763.89,-356.08 771.92,-349.17 761.33,-349.57 763.89,-356.08"/>
</a>
</g>
</g>
<!-- Node19 -->
<g id="Node000019" class="node">
<title>Node19</title>
<g id="a_Node000019"><a xlink:title=" ">
<polygon fill="#e0e0e0" stroke="#999999" points="765,-294 721,-294 721,-275 765,-275 765,-294"/>
<text text-anchor="middle" x="743" y="-282" font-family="Helvetica,sans-Serif" font-size="10.00">string</text>
</a>
</g>
</g>
<!-- Node16&#45;&gt;Node19 -->
<g id="edge22_Node000016_Node000019" class="edge">
<title>Node16&#45;&gt;Node19</title>
<g id="a_edge22_Node000016_Node000019"><a xlink:title=" ">
<path fill="none" stroke="#63b8ff" d="M652.43,-384.58C643.74,-371.61 630.78,-347.21 642,-330 650.03,-317.69 684.7,-304.15 711.2,-295.28"/>
<polygon fill="#63b8ff" stroke="#63b8ff" points="712.47,-298.55 720.89,-292.12 710.3,-291.9 712.47,-298.55"/>
</a>
</g>
</g>
<!-- Node20&#45;&gt;Node2 -->
<g id="edge29_Node000020_Node000002" class="edge">
<title>Node20&#45;&gt;Node2</title>
<g id="a_edge29_Node000020_Node000002"><a xlink:title=" ">
<path fill="none" stroke="#63b8ff" d="M422.74,-384.98C387.39,-375.93 331.33,-361.58 292.49,-351.64"/>
<polygon fill="#63b8ff" stroke="#63b8ff" points="293.07,-348.17 282.52,-349.08 291.34,-354.95 293.07,-348.17"/>
</a>
</g>
</g>
<!-- Node20&#45;&gt;Node5 -->
<g id="edge26_Node000020_Node000005" class="edge">
<title>Node20&#45;&gt;Node5</title>
<g id="a_edge26_Node000020_Node000005"><a xlink:title=" ">
<path fill="none" stroke="#63b8ff" d="M446.81,-384.73C437.94,-376.06 424.37,-362.2 414,-349 389.78,-318.17 390.03,-305.97 366,-275 358.37,-265.17 349.02,-254.9 341.17,-246.71"/>
<polygon fill="#63b8ff" stroke="#63b8ff" points="343.44,-244.02 333.95,-239.31 338.43,-248.91 343.44,-244.02"/>
</a>
</g>
</g>
<!-- Node20&#45;&gt;Node6 -->
<g id="edge28_Node000020_Node000006" class="edge">
<title>Node20&#45;&gt;Node6</title>
<g id="a_edge28_Node000020_Node000006"><a xlink:title=" ">
<path fill="none" stroke="#63b8ff" d="M457.08,-384.68C460.59,-358.25 473.36,-277.97 505,-220 510.52,-209.88 518.33,-199.7 525.17,-191.63"/>
<polygon fill="#63b8ff" stroke="#63b8ff" points="527.83,-193.9 531.81,-184.08 522.58,-189.27 527.83,-193.9"/>
</a>
</g>
</g>
<!-- Node20&#45;&gt;Node11 -->
<g id="edge27_Node000020_Node000011" class="edge">
<title>Node20&#45;&gt;Node11</title>
<g id="a_edge27_Node000020_Node000011"><a xlink:title=" ">
<path fill="none" stroke="#63b8ff" d="M452.11,-384.74C444.41,-366.6 428,-323.46 428,-285.5 428,-285.5 428,-285.5 428,-228.5 428,-197.19 428,-160.77 428,-139.23"/>
<polygon fill="#63b8ff" stroke="#63b8ff" points="431.5,-139.18 428,-129.18 424.5,-139.18 431.5,-139.18"/>
</a>
</g>
</g>
<!-- Node21 -->
<g id="Node000021" class="node">
<title>Node21</title>
<g id="a_Node000021"><a xlink:href="abcgWindow_8hpp.html" target="_top" xlink:title="Header file of abcg::Window.">
<polygon fill="white" stroke="#666666" points="593.5,-349 494.5,-349 494.5,-330 593.5,-330 593.5,-349"/>
<text text-anchor="middle" x="544" y="-337" font-family="Helvetica,sans-Serif" font-size="10.00">abcgWindow.hpp</text>
</a>
</g>
</g>
<!-- Node20&#45;&gt;Node21 -->
<g id="edge30_Node000020_Node000021" class="edge">
<title>Node20&#45;&gt;Node21</title>
<g id="a_edge30_Node000020_Node000021"><a xlink:title=" ">
<path fill="none" stroke="#63b8ff" d="M470.14,-384.98C483.79,-376.77 504.69,-364.18 520.78,-354.49"/>
<polygon fill="#63b8ff" stroke="#63b8ff" points="522.84,-357.33 529.6,-349.17 519.23,-351.33 522.84,-357.33"/>
</a>
</g>
</g>
<!-- Node21&#45;&gt;Node19 -->
<g id="edge31_Node000021_Node000019" class="edge">
<title>Node21&#45;&gt;Node19</title>
<g id="a_edge31_Node000021_Node000019"><a xlink:title=" ">
<path fill="none" stroke="#63b8ff" d="M576.54,-329.97C608.42,-321.59 658.63,-308.35 711.16,-294.21"/>
<polygon fill="#63b8ff" stroke="#63b8ff" points="712.25,-297.54 720.99,-291.56 710.42,-290.78 712.25,-297.54"/>
</a>
</g>
</g>
<!-- Node22 -->
<g id="Node000022" class="node">
<title>Node22</title>
<g id="a_Node000022"><a xlink:href="abcgExternal_8hpp.html" target="_top" xlink:title="Header file for including third&#45;party dependencies.">
<polygon fill="white" stroke="#666666" points="702.5,-294 601.5,-294 601.5,-275 702.5,-275 702.5,-294"/>
<text text-anchor="middle" x="652" y="-282" font-family="Helvetica,sans-Serif" font-size="10.00">abcgExternal.hpp</text>
</a>
</g>
</g>
<!-- Node21&#45;&gt;Node22 -->
<g id="edge32_Node000021_Node000022" class="edge">
<title>Node21&#45;&gt;Node22</title>
<g id="a_edge32_Node000021_Node000022"><a xlink:title=" ">
<path fill="none" stroke="#63b8ff" d="M561.35,-329.98C578.57,-321.54 605.2,-308.47 625.15,-298.68"/>
<polygon fill="#63b8ff" stroke="#63b8ff" points="626.9,-301.72 634.33,-294.17 623.81,-295.43 626.9,-301.72"/>
</a>
</g>
</g>
<!-- Node23 -->
<g id="Node000023" class="node">
<title>Node23</title>
<g id="a_Node000023"><a xlink:href="abcgTimer_8hpp.html" target="_top" xlink:title="Header file of abcg::Timer.">
<polygon fill="white" stroke="#666666" points="583.5,-294 494.5,-294 494.5,-275 583.5,-275 583.5,-294"/>
<text text-anchor="middle" x="539" y="-282" font-family="Helvetica,sans-Serif" font-size="10.00">abcgTimer.hpp</text>
</a>
</g>
</g>
<!-- Node21&#45;&gt;Node23 -->
<g id="edge33_Node000021_Node000023" class="edge">
<title>Node21&#45;&gt;Node23</title>
<g id="a_edge33_Node000021_Node000023"><a xlink:title=" ">
<path fill="none" stroke="#63b8ff" d="M543.17,-329.75C542.52,-322.8 541.58,-312.85 540.76,-304.13"/>
<polygon fill="#63b8ff" stroke="#63b8ff" points="544.23,-303.72 539.81,-294.09 537.27,-304.37 544.23,-303.72"/>
</a>
</g>
</g>
<!-- Node24 -->
<g id="Node000024" class="node">
<title>Node24</title>
<g id="a_Node000024"><a xlink:title=" ">
<polygon fill="#e0e0e0" stroke="#999999" points="564,-239 514,-239 514,-220 564,-220 564,-239"/>
<text text-anchor="middle" x="539" y="-227" font-family="Helvetica,sans-Serif" font-size="10.00">chrono</text>
</a>
</g>
</g>
<!-- Node23&#45;&gt;Node24 -->
<g id="edge34_Node000023_Node000024" class="edge">
<title>Node23&#45;&gt;Node24</title>
<g id="a_edge34_Node000023_Node000024"><a xlink:title=" ">
<path fill="none" stroke="#63b8ff" d="M539,-274.75C539,-267.8 539,-257.85 539,-249.13"/>
<polygon fill="#63b8ff" stroke="#63b8ff" points="542.5,-249.09 539,-239.09 535.5,-249.09 542.5,-249.09"/>
</a>
</g>
</g>
</g>
</svg>
