<?xml version="1.0" encoding="UTF-8" standalone="no"?>
<!DOCTYPE svg PUBLIC "-//W3C//DTD SVG 1.1//EN"
 "http://www.w3.org/Graphics/SVG/1.1/DTD/svg11.dtd">
<!-- Generated by graphviz version 2.43.0 (0)
 -->
<!-- Title: /home/harlen/dev/abcg/abcg/abcgVulkanBuffer.cpp Pages: 1 -->
<svg width="526pt" height="375pt"
 viewBox="0.00 0.00 525.50 375.00" xmlns="http://www.w3.org/2000/svg" xmlns:xlink="http://www.w3.org/1999/xlink">
<g id="graph0" class="graph" transform="scale(1 1) rotate(0) translate(4 371)">
<title>/home/harlen/dev/abcg/abcg/abcgVulkanBuffer.cpp</title>
<!-- Node1 -->
<g id="node1" class="node">
<title>Node1</title>
<g id="a_node1"><a xlink:title="Definition of abcg::VulkanBuffer.">
<polygon fill="#bfbfbf" stroke="black" points="229.5,-336.5 229.5,-366.5 379.5,-366.5 379.5,-336.5 229.5,-336.5"/>
<text text-anchor="start" x="237.5" y="-354.5" font-family="Helvetica,sans-Serif" font-size="10.00">/home/harlen/dev/abcg</text>
<text text-anchor="middle" x="304.5" y="-343.5" font-family="Helvetica,sans-Serif" font-size="10.00">/abcg/abcgVulkanBuffer.cpp</text>
</a>
</g>
</g>
<!-- Node2 -->
<g id="node2" class="node">
<title>Node2</title>
<g id="a_node2"><a xlink:href="abcgVulkanBuffer_8hpp.html" target="_top" xlink:title="Header file of abcg::VulkanBuffer.">
<polygon fill="none" stroke="black" points="111.5,-280.5 111.5,-299.5 233.5,-299.5 233.5,-280.5 111.5,-280.5"/>
<text text-anchor="middle" x="172.5" y="-287.5" font-family="Helvetica,sans-Serif" font-size="10.00">abcgVulkanBuffer.hpp</text>
</a>
</g>
</g>
<!-- Node1&#45;&gt;Node2 -->
<g id="edge1" class="edge">
<title>Node1&#45;&gt;Node2</title>
<path fill="none" stroke="midnightblue" d="M273.22,-336.4C251.27,-326.51 222.16,-313.38 200.88,-303.79"/>
<polygon fill="midnightblue" stroke="midnightblue" points="202.26,-300.58 191.71,-299.66 199.39,-306.96 202.26,-300.58"/>
</g>
<!-- Node11 -->
<g id="node11" class="node">
<title>Node11</title>
<g id="a_node11"><a xlink:title=" ">
<polygon fill="none" stroke="#bfbfbf" points="251.5,-280.5 251.5,-299.5 299.5,-299.5 299.5,-280.5 251.5,-280.5"/>
<text text-anchor="middle" x="275.5" y="-287.5" font-family="Helvetica,sans-Serif" font-size="10.00">gsl/gsl</text>
</a>
</g>
</g>
<!-- Node1&#45;&gt;Node11 -->
<g id="edge12" class="edge">
<title>Node1&#45;&gt;Node11</title>
<path fill="none" stroke="midnightblue" d="M297.63,-336.4C293.59,-328.11 288.44,-317.55 284.13,-308.71"/>
<polygon fill="midnightblue" stroke="midnightblue" points="287.25,-307.11 279.72,-299.66 280.95,-310.18 287.25,-307.11"/>
</g>
<!-- Node12 -->
<g id="node12" class="node">
<title>Node12</title>
<g id="a_node12"><a xlink:title=" ">
<polygon fill="none" stroke="#bfbfbf" points="317.5,-280.5 317.5,-299.5 349.5,-299.5 349.5,-280.5 317.5,-280.5"/>
<text text-anchor="middle" x="333.5" y="-287.5" font-family="Helvetica,sans-Serif" font-size="10.00">set</text>
</a>
</g>
</g>
<!-- Node1&#45;&gt;Node12 -->
<g id="edge13" class="edge">
<title>Node1&#45;&gt;Node12</title>
<path fill="none" stroke="midnightblue" d="M311.37,-336.4C315.41,-328.11 320.56,-317.55 324.87,-308.71"/>
<polygon fill="midnightblue" stroke="midnightblue" points="328.05,-310.18 329.28,-299.66 321.75,-307.11 328.05,-310.18"/>
</g>
<!-- Node13 -->
<g id="node13" class="node">
<title>Node13</title>
<g id="a_node13"><a xlink:href="abcgException_8hpp.html" target="_top" xlink:title="Header file of abcg::Exception and derived classes.">
<polygon fill="none" stroke="black" points="368,-280.5 368,-299.5 477,-299.5 477,-280.5 368,-280.5"/>
<text text-anchor="middle" x="422.5" y="-287.5" font-family="Helvetica,sans-Serif" font-size="10.00">abcgException.hpp</text>
</a>
</g>
</g>
<!-- Node1&#45;&gt;Node13 -->
<g id="edge14" class="edge">
<title>Node1&#45;&gt;Node13</title>
<path fill="none" stroke="midnightblue" d="M332.46,-336.4C351.82,-326.64 377.41,-313.74 396.36,-304.18"/>
<polygon fill="midnightblue" stroke="midnightblue" points="397.98,-307.29 405.33,-299.66 394.83,-301.04 397.98,-307.29"/>
</g>
<!-- Node3 -->
<g id="node3" class="node">
<title>Node3</title>
<g id="a_node3"><a xlink:href="abcgVulkanDevice_8hpp.html" target="_top" xlink:title="Header file of abcg::VulkanDevice.">
<polygon fill="none" stroke="black" points="16,-224.5 16,-243.5 143,-243.5 143,-224.5 16,-224.5"/>
<text text-anchor="middle" x="79.5" y="-231.5" font-family="Helvetica,sans-Serif" font-size="10.00">abcgVulkanDevice.hpp</text>
</a>
</g>
</g>
<!-- Node2&#45;&gt;Node3 -->
<g id="edge2" class="edge">
<title>Node2&#45;&gt;Node3</title>
<path fill="none" stroke="midnightblue" d="M157.56,-280.32C142.91,-271.82 120.37,-258.73 103.26,-248.8"/>
<polygon fill="midnightblue" stroke="midnightblue" points="104.81,-245.65 94.4,-243.65 101.3,-251.7 104.81,-245.65"/>
</g>
<!-- Node10 -->
<g id="node10" class="node">
<title>Node10</title>
<g id="a_node10"><a xlink:title=" ">
<polygon fill="none" stroke="#bfbfbf" points="161.5,-224.5 161.5,-243.5 235.5,-243.5 235.5,-224.5 161.5,-224.5"/>
<text text-anchor="middle" x="198.5" y="-231.5" font-family="Helvetica,sans-Serif" font-size="10.00">gsl/pointers</text>
</a>
</g>
</g>
<!-- Node2&#45;&gt;Node10 -->
<g id="edge11" class="edge">
<title>Node2&#45;&gt;Node10</title>
<path fill="none" stroke="midnightblue" d="M176.79,-280.08C180.35,-272.69 185.52,-261.95 189.92,-252.81"/>
<polygon fill="midnightblue" stroke="midnightblue" points="193.1,-254.28 194.29,-243.75 186.79,-251.24 193.1,-254.28"/>
</g>
<!-- Node4 -->
<g id="node4" class="node">
<title>Node4</title>
<g id="a_node4"><a xlink:href="abcgVulkanExternal_8hpp.html" target="_top" xlink:title="Header file for including Vulkan&#45;related dependencies.">
<polygon fill="none" stroke="black" points="3.5,-56.5 3.5,-75.5 137.5,-75.5 137.5,-56.5 3.5,-56.5"/>
<text text-anchor="middle" x="70.5" y="-63.5" font-family="Helvetica,sans-Serif" font-size="10.00">abcgVulkanExternal.hpp</text>
</a>
</g>
</g>
<!-- Node3&#45;&gt;Node4 -->
<g id="edge3" class="edge">
<title>Node3&#45;&gt;Node4</title>
<path fill="none" stroke="midnightblue" d="M69.06,-224.24C60.08,-215.97 47.75,-202.66 42.5,-188 29.71,-152.3 47.71,-108.54 60.23,-84.65"/>
<polygon fill="midnightblue" stroke="midnightblue" points="63.4,-86.15 65.15,-75.71 57.26,-82.78 63.4,-86.15"/>
</g>
<!-- Node7 -->
<g id="node7" class="node">
<title>Node7</title>
<g id="a_node7"><a xlink:href="abcgVulkanPhysicalDevice_8hpp.html" target="_top" xlink:title="Header file of abcg::VulkanPhysicalDevice.">
<polygon fill="none" stroke="black" points="52,-168.5 52,-187.5 219,-187.5 219,-168.5 52,-168.5"/>
<text text-anchor="middle" x="135.5" y="-175.5" font-family="Helvetica,sans-Serif" font-size="10.00">abcgVulkanPhysicalDevice.hpp</text>
</a>
</g>
</g>
<!-- Node3&#45;&gt;Node7 -->
<g id="edge6" class="edge">
<title>Node3&#45;&gt;Node7</title>
<path fill="none" stroke="midnightblue" d="M88.5,-224.32C96.69,-216.42 109.01,-204.55 118.97,-194.94"/>
<polygon fill="midnightblue" stroke="midnightblue" points="121.57,-197.29 126.34,-187.83 116.71,-192.26 121.57,-197.29"/>
</g>
<!-- Node5 -->
<g id="node5" class="node">
<title>Node5</title>
<g id="a_node5"><a xlink:title=" ">
<polygon fill="none" stroke="#bfbfbf" points="0,-0.5 0,-19.5 47,-19.5 47,-0.5 0,-0.5"/>
<text text-anchor="middle" x="23.5" y="-7.5" font-family="Helvetica,sans-Serif" font-size="10.00">volk.h</text>
</a>
</g>
</g>
<!-- Node4&#45;&gt;Node5 -->
<g id="edge4" class="edge">
<title>Node4&#45;&gt;Node5</title>
<path fill="none" stroke="midnightblue" d="M62.74,-56.08C55.96,-48.3 45.96,-36.8 37.74,-27.37"/>
<polygon fill="midnightblue" stroke="midnightblue" points="40.32,-25 31.12,-19.75 35.04,-29.59 40.32,-25"/>
</g>
<!-- Node6 -->
<g id="node6" class="node">
<title>Node6</title>
<g id="a_node6"><a xlink:title=" ">
<polygon fill="none" stroke="#bfbfbf" points="65,-0.5 65,-19.5 170,-19.5 170,-0.5 65,-0.5"/>
<text text-anchor="middle" x="117.5" y="-7.5" font-family="Helvetica,sans-Serif" font-size="10.00">vulkan/vulkan.hpp</text>
</a>
</g>
</g>
<!-- Node4&#45;&gt;Node6 -->
<g id="edge5" class="edge">
<title>Node4&#45;&gt;Node6</title>
<path fill="none" stroke="midnightblue" d="M78.26,-56.08C85.04,-48.3 95.04,-36.8 103.26,-27.37"/>
<polygon fill="midnightblue" stroke="midnightblue" points="105.96,-29.59 109.88,-19.75 100.68,-25 105.96,-29.59"/>
</g>
<!-- Node7&#45;&gt;Node4 -->
<g id="edge8" class="edge">
<title>Node7&#45;&gt;Node4</title>
<path fill="none" stroke="midnightblue" d="M123.63,-168.29C113.2,-160.04 98.35,-146.75 89.5,-132 80.9,-117.67 75.99,-99.2 73.33,-85.62"/>
<polygon fill="midnightblue" stroke="midnightblue" points="76.74,-84.81 71.59,-75.55 69.84,-86 76.74,-84.81"/>
</g>
<!-- Node8 -->
<g id="node8" class="node">
<title>Node8</title>
<g id="a_node8"><a xlink:title=" ">
<polygon fill="none" stroke="#bfbfbf" points="98.5,-112.5 98.5,-131.5 154.5,-131.5 154.5,-112.5 98.5,-112.5"/>
<text text-anchor="middle" x="126.5" y="-119.5" font-family="Helvetica,sans-Serif" font-size="10.00">optional</text>
</a>
</g>
</g>
<!-- Node7&#45;&gt;Node8 -->
<g id="edge7" class="edge">
<title>Node7&#45;&gt;Node8</title>
<path fill="none" stroke="midnightblue" d="M134.01,-168.08C132.82,-160.93 131.11,-150.64 129.62,-141.69"/>
<polygon fill="midnightblue" stroke="midnightblue" points="133.05,-141.04 127.96,-131.75 126.15,-142.19 133.05,-141.04"/>
</g>
<!-- Node9 -->
<g id="node9" class="node">
<title>Node9</title>
<g id="a_node9"><a xlink:href="abcgVulkanInstance_8hpp.html" target="_top" xlink:title="Header file of abcg::VulkanInstance.">
<polygon fill="none" stroke="black" points="172.5,-112.5 172.5,-131.5 306.5,-131.5 306.5,-112.5 172.5,-112.5"/>
<text text-anchor="middle" x="239.5" y="-119.5" font-family="Helvetica,sans-Serif" font-size="10.00">abcgVulkanInstance.hpp</text>
</a>
</g>
</g>
<!-- Node7&#45;&gt;Node9 -->
<g id="edge9" class="edge">
<title>Node7&#45;&gt;Node9</title>
<path fill="none" stroke="midnightblue" d="M152.21,-168.32C168.81,-159.7 194.5,-146.36 213.72,-136.39"/>
<polygon fill="midnightblue" stroke="midnightblue" points="215.57,-139.37 222.83,-131.65 212.34,-133.16 215.57,-139.37"/>
</g>
<!-- Node9&#45;&gt;Node4 -->
<g id="edge10" class="edge">
<title>Node9&#45;&gt;Node4</title>
<path fill="none" stroke="midnightblue" d="M212.72,-112.44C184.17,-103.32 138.77,-88.81 106.96,-78.65"/>
<polygon fill="midnightblue" stroke="midnightblue" points="107.74,-75.23 97.15,-75.52 105.61,-81.89 107.74,-75.23"/>
</g>
<!-- Node14 -->
<g id="node14" class="node">
<title>Node14</title>
<g id="a_node14"><a xlink:title=" ">
<polygon fill="none" stroke="#bfbfbf" points="279,-224.5 279,-243.5 372,-243.5 372,-224.5 279,-224.5"/>
<text text-anchor="middle" x="325.5" y="-231.5" font-family="Helvetica,sans-Serif" font-size="10.00">source_location</text>
</a>
</g>
</g>
<!-- Node13&#45;&gt;Node14 -->
<g id="edge15" class="edge">
<title>Node13&#45;&gt;Node14</title>
<path fill="none" stroke="midnightblue" d="M406.92,-280.32C391.5,-271.74 367.69,-258.49 349.79,-248.52"/>
<polygon fill="midnightblue" stroke="midnightblue" points="351.49,-245.46 341.05,-243.65 348.08,-251.58 351.49,-245.46"/>
</g>
<!-- Node15 -->
<g id="node15" class="node">
<title>Node15</title>
<g id="a_node15"><a xlink:title=" ">
<polygon fill="none" stroke="#bfbfbf" points="390,-224.5 390,-243.5 455,-243.5 455,-224.5 390,-224.5"/>
<text text-anchor="middle" x="422.5" y="-231.5" font-family="Helvetica,sans-Serif" font-size="10.00">stdexcept</text>
</a>
</g>
</g>
<!-- Node13&#45;&gt;Node15 -->
<g id="edge16" class="edge">
<title>Node13&#45;&gt;Node15</title>
<path fill="none" stroke="midnightblue" d="M422.5,-280.08C422.5,-273.01 422.5,-262.86 422.5,-253.99"/>
<polygon fill="midnightblue" stroke="midnightblue" points="426,-253.75 422.5,-243.75 419,-253.75 426,-253.75"/>
</g>
<!-- Node16 -->
<g id="node16" class="node">
<title>Node16</title>
<g id="a_node16"><a xlink:title=" ">
<polygon fill="none" stroke="#bfbfbf" points="473.5,-224.5 473.5,-243.5 517.5,-243.5 517.5,-224.5 473.5,-224.5"/>
<text text-anchor="middle" x="495.5" y="-231.5" font-family="Helvetica,sans-Serif" font-size="10.00">string</text>
</a>
</g>
</g>
<!-- Node13&#45;&gt;Node16 -->
<g id="edge17" class="edge">
<title>Node13&#45;&gt;Node16</title>
<path fill="none" stroke="midnightblue" d="M434.23,-280.32C445.34,-272.11 462.24,-259.6 475.48,-249.81"/>
<polygon fill="midnightblue" stroke="midnightblue" points="477.6,-252.59 483.56,-243.83 473.44,-246.97 477.6,-252.59"/>
</g>
</g>
</svg>
