<?xml version="1.0" encoding="UTF-8" standalone="no"?>
<!DOCTYPE svg PUBLIC "-//W3C//DTD SVG 1.1//EN"
 "http://www.w3.org/Graphics/SVG/1.1/DTD/svg11.dtd">
<!-- Generated by graphviz version 2.43.0 (0)
 -->
<!-- Title: /home/harlen/dev/abcg/abcg/abcgVulkanPipeline.hpp Pages: 1 -->
<svg width="474pt" height="423pt"
 viewBox="0.00 0.00 473.50 423.00" xmlns="http://www.w3.org/2000/svg" xmlns:xlink="http://www.w3.org/1999/xlink">
<g id="graph0" class="graph" transform="scale(1 1) rotate(0) translate(4 419)">
<title>/home/harlen/dev/abcg/abcg/abcgVulkanPipeline.hpp</title>
<!-- Node1 -->
<g id="Node000001" class="node">
<title>Node1</title>
<g id="a_Node000001"><a xlink:title="Header file of abcg::VulkanPipeline.">
<polygon fill="#999999" stroke="#666666" points="259.5,-415 98.5,-415 98.5,-385 259.5,-385 259.5,-415"/>
<text text-anchor="start" x="106.5" y="-403" font-family="Helvetica,sans-Serif" font-size="10.00">/home/harlen/dev/abcg</text>
<text text-anchor="middle" x="179" y="-392" font-family="Helvetica,sans-Serif" font-size="10.00">/abcg/abcgVulkanPipeline.hpp</text>
</a>
</g>
</g>
<!-- Node2 -->
<g id="Node000002" class="node">
<title>Node2</title>
<g id="a_Node000002"><a xlink:href="abcgVulkanShader_8hpp.html" target="_top" xlink:title="Declaration of helper functions for creating Vulkan shaders.">
<polygon fill="white" stroke="#666666" points="152,-294 26,-294 26,-275 152,-275 152,-294"/>
<text text-anchor="middle" x="89" y="-282" font-family="Helvetica,sans-Serif" font-size="10.00">abcgVulkanShader.hpp</text>
</a>
</g>
</g>
<!-- Node1&#45;&gt;Node2 -->
<g id="edge1_Node000001_Node000002" class="edge">
<title>Node1&#45;&gt;Node2</title>
<g id="a_edge1_Node000001_Node000002"><a xlink:title=" ">
<path fill="none" stroke="#63b8ff" d="M167.6,-384.63C150.9,-363.56 119.85,-324.4 102.18,-302.13"/>
<polygon fill="#63b8ff" stroke="#63b8ff" points="104.88,-299.89 95.92,-294.23 99.39,-304.24 104.88,-299.89"/>
</a>
</g>
</g>
<!-- Node13 -->
<g id="Node000013" class="node">
<title>Node13</title>
<g id="a_Node000013"><a xlink:href="abcgVulkanSwapchain_8hpp.html" target="_top" xlink:title="Header file of abcg::VulkanSwapchain.">
<polygon fill="white" stroke="#666666" points="343,-349 197,-349 197,-330 343,-330 343,-349"/>
<text text-anchor="middle" x="270" y="-337" font-family="Helvetica,sans-Serif" font-size="10.00">abcgVulkanSwapchain.hpp</text>
</a>
</g>
</g>
<!-- Node1&#45;&gt;Node13 -->
<g id="edge14_Node000001_Node000013" class="edge">
<title>Node1&#45;&gt;Node13</title>
<g id="a_edge14_Node000001_Node000013"><a xlink:title=" ">
<path fill="none" stroke="#63b8ff" d="M201.03,-384.84C215.27,-375.68 233.73,-363.82 247.97,-354.66"/>
<polygon fill="#63b8ff" stroke="#63b8ff" points="250.11,-357.45 256.63,-349.09 246.33,-351.56 250.11,-357.45"/>
</a>
</g>
</g>
<!-- Node3 -->
<g id="Node000003" class="node">
<title>Node3</title>
<g id="a_Node000003"><a xlink:href="abcgShader_8hpp.html" target="_top" xlink:title="Declaration of a structure for building shaders.">
<polygon fill="white" stroke="#666666" points="94,-239 0,-239 0,-220 94,-220 94,-239"/>
<text text-anchor="middle" x="47" y="-227" font-family="Helvetica,sans-Serif" font-size="10.00">abcgShader.hpp</text>
</a>
</g>
</g>
<!-- Node2&#45;&gt;Node3 -->
<g id="edge2_Node000002_Node000003" class="edge">
<title>Node2&#45;&gt;Node3</title>
<g id="a_edge2_Node000002_Node000003"><a xlink:title=" ">
<path fill="none" stroke="#63b8ff" d="M82.06,-274.75C76.13,-267.26 67.43,-256.28 60.18,-247.13"/>
<polygon fill="#63b8ff" stroke="#63b8ff" points="62.76,-244.75 53.81,-239.09 57.27,-249.1 62.76,-244.75"/>
</a>
</g>
</g>
<!-- Node6 -->
<g id="Node000006" class="node">
<title>Node6</title>
<g id="a_Node000006"><a xlink:href="abcgVulkanDevice_8hpp.html" target="_top" xlink:title="Header file of abcg::VulkanDevice.">
<polygon fill="white" stroke="#666666" points="239.5,-239 112.5,-239 112.5,-220 239.5,-220 239.5,-239"/>
<text text-anchor="middle" x="176" y="-227" font-family="Helvetica,sans-Serif" font-size="10.00">abcgVulkanDevice.hpp</text>
</a>
</g>
</g>
<!-- Node2&#45;&gt;Node6 -->
<g id="edge5_Node000002_Node000006" class="edge">
<title>Node2&#45;&gt;Node6</title>
<g id="a_edge5_Node000002_Node000006"><a xlink:title=" ">
<path fill="none" stroke="#63b8ff" d="M102.98,-274.98C116.47,-266.77 137.13,-254.18 153.04,-244.49"/>
<polygon fill="#63b8ff" stroke="#63b8ff" points="155.05,-247.36 161.77,-239.17 151.41,-241.38 155.05,-247.36"/>
</a>
</g>
</g>
<!-- Node4 -->
<g id="Node000004" class="node">
<title>Node4</title>
<g id="a_Node000004"><a xlink:title=" ">
<polygon fill="#e0e0e0" stroke="#999999" points="89,-129 33,-129 33,-110 89,-110 89,-129"/>
<text text-anchor="middle" x="61" y="-117" font-family="Helvetica,sans-Serif" font-size="10.00">optional</text>
</a>
</g>
</g>
<!-- Node3&#45;&gt;Node4 -->
<g id="edge3_Node000003_Node000004" class="edge">
<title>Node3&#45;&gt;Node4</title>
<g id="a_edge3_Node000003_Node000004"><a xlink:title=" ">
<path fill="none" stroke="#63b8ff" d="M39.38,-219.9C29.56,-207.73 14.57,-184.74 22,-165 26.18,-153.89 34.52,-143.75 42.43,-135.96"/>
<polygon fill="#63b8ff" stroke="#63b8ff" points="45.01,-138.35 50.01,-129.01 40.28,-133.19 45.01,-138.35"/>
</a>
</g>
</g>
<!-- Node5 -->
<g id="Node000005" class="node">
<title>Node5</title>
<g id="a_Node000005"><a xlink:title=" ">
<polygon fill="#e0e0e0" stroke="#999999" points="75,-184 31,-184 31,-165 75,-165 75,-184"/>
<text text-anchor="middle" x="53" y="-172" font-family="Helvetica,sans-Serif" font-size="10.00">string</text>
</a>
</g>
</g>
<!-- Node3&#45;&gt;Node5 -->
<g id="edge4_Node000003_Node000005" class="edge">
<title>Node3&#45;&gt;Node5</title>
<g id="a_edge4_Node000003_Node000005"><a xlink:title=" ">
<path fill="none" stroke="#63b8ff" d="M47.99,-219.75C48.78,-212.8 49.9,-202.85 50.89,-194.13"/>
<polygon fill="#63b8ff" stroke="#63b8ff" points="54.38,-194.42 52.03,-184.09 47.42,-193.63 54.38,-194.42"/>
</a>
</g>
</g>
<!-- Node7 -->
<g id="Node000007" class="node">
<title>Node7</title>
<g id="a_Node000007"><a xlink:href="abcgVulkanPhysicalDevice_8hpp.html" target="_top" xlink:title="Header file of abcg::VulkanPhysicalDevice.">
<polygon fill="white" stroke="#666666" points="259.5,-184 92.5,-184 92.5,-165 259.5,-165 259.5,-184"/>
<text text-anchor="middle" x="176" y="-172" font-family="Helvetica,sans-Serif" font-size="10.00">abcgVulkanPhysicalDevice.hpp</text>
</a>
</g>
</g>
<!-- Node6&#45;&gt;Node7 -->
<g id="edge6_Node000006_Node000007" class="edge">
<title>Node6&#45;&gt;Node7</title>
<g id="a_edge6_Node000006_Node000007"><a xlink:title=" ">
<path fill="none" stroke="#63b8ff" d="M176,-219.75C176,-212.8 176,-202.85 176,-194.13"/>
<polygon fill="#63b8ff" stroke="#63b8ff" points="179.5,-194.09 176,-184.09 172.5,-194.09 179.5,-194.09"/>
</a>
</g>
</g>
<!-- Node12 -->
<g id="Node000012" class="node">
<title>Node12</title>
<g id="a_Node000012"><a xlink:title=" ">
<polygon fill="#e0e0e0" stroke="#999999" points="367.5,-184 302.5,-184 302.5,-165 367.5,-165 367.5,-184"/>
<text text-anchor="middle" x="335" y="-172" font-family="Helvetica,sans-Serif" font-size="10.00">functional</text>
</a>
</g>
</g>
<!-- Node6&#45;&gt;Node12 -->
<g id="edge13_Node000006_Node000012" class="edge">
<title>Node6&#45;&gt;Node12</title>
<g id="a_edge13_Node000006_Node000012"><a xlink:title=" ">
<path fill="none" stroke="#63b8ff" d="M201.55,-219.98C228.12,-211.13 269.94,-197.19 299.67,-187.28"/>
<polygon fill="#63b8ff" stroke="#63b8ff" points="300.87,-190.56 309.25,-184.08 298.66,-183.92 300.87,-190.56"/>
</a>
</g>
</g>
<!-- Node7&#45;&gt;Node4 -->
<g id="edge7_Node000007_Node000004" class="edge">
<title>Node7&#45;&gt;Node4</title>
<g id="a_edge7_Node000007_Node000004"><a xlink:title=" ">
<path fill="none" stroke="#63b8ff" d="M157.52,-164.98C139.02,-156.46 110.32,-143.23 89.02,-133.41"/>
<polygon fill="#63b8ff" stroke="#63b8ff" points="90.36,-130.18 79.81,-129.17 87.43,-136.53 90.36,-130.18"/>
</a>
</g>
</g>
<!-- Node8 -->
<g id="Node000008" class="node">
<title>Node8</title>
<g id="a_Node000008"><a xlink:href="abcgVulkanExternal_8hpp.html" target="_top" xlink:title="Header file for including Vulkan&#45;related dependencies.">
<polygon fill="white" stroke="#666666" points="242,-74 108,-74 108,-55 242,-55 242,-74"/>
<text text-anchor="middle" x="175" y="-62" font-family="Helvetica,sans-Serif" font-size="10.00">abcgVulkanExternal.hpp</text>
</a>
</g>
</g>
<!-- Node7&#45;&gt;Node8 -->
<g id="edge8_Node000007_Node000008" class="edge">
<title>Node7&#45;&gt;Node8</title>
<g id="a_edge8_Node000007_Node000008"><a xlink:title=" ">
<path fill="none" stroke="#63b8ff" d="M168.06,-164.75C160.97,-156.3 151.1,-142.79 147,-129 142.14,-112.64 151.23,-94.95 160.32,-82.4"/>
<polygon fill="#63b8ff" stroke="#63b8ff" points="163.29,-84.29 166.74,-74.27 157.79,-79.95 163.29,-84.29"/>
</a>
</g>
</g>
<!-- Node11 -->
<g id="Node000011" class="node">
<title>Node11</title>
<g id="a_Node000011"><a xlink:href="abcgVulkanInstance_8hpp.html" target="_top" xlink:title="Header file of abcg::VulkanInstance.">
<polygon fill="white" stroke="#666666" points="290,-129 156,-129 156,-110 290,-110 290,-129"/>
<text text-anchor="middle" x="223" y="-117" font-family="Helvetica,sans-Serif" font-size="10.00">abcgVulkanInstance.hpp</text>
</a>
</g>
</g>
<!-- Node7&#45;&gt;Node11 -->
<g id="edge11_Node000007_Node000011" class="edge">
<title>Node7&#45;&gt;Node11</title>
<g id="a_edge11_Node000007_Node000011"><a xlink:title=" ">
<path fill="none" stroke="#63b8ff" d="M183.76,-164.75C190.47,-157.18 200.34,-146.05 208.51,-136.84"/>
<polygon fill="#63b8ff" stroke="#63b8ff" points="211.37,-138.89 215.38,-129.09 206.13,-134.25 211.37,-138.89"/>
</a>
</g>
</g>
<!-- Node9 -->
<g id="Node000009" class="node">
<title>Node9</title>
<g id="a_Node000009"><a xlink:title=" ">
<polygon fill="#e0e0e0" stroke="#999999" points="151.5,-19 104.5,-19 104.5,0 151.5,0 151.5,-19"/>
<text text-anchor="middle" x="128" y="-7" font-family="Helvetica,sans-Serif" font-size="10.00">volk.h</text>
</a>
</g>
</g>
<!-- Node8&#45;&gt;Node9 -->
<g id="edge9_Node000008_Node000009" class="edge">
<title>Node8&#45;&gt;Node9</title>
<g id="a_edge9_Node000008_Node000009"><a xlink:title=" ">
<path fill="none" stroke="#63b8ff" d="M167.24,-54.75C160.53,-47.18 150.66,-36.05 142.49,-26.84"/>
<polygon fill="#63b8ff" stroke="#63b8ff" points="144.87,-24.25 135.62,-19.09 139.63,-28.89 144.87,-24.25"/>
</a>
</g>
</g>
<!-- Node10 -->
<g id="Node000010" class="node">
<title>Node10</title>
<g id="a_Node000010"><a xlink:title=" ">
<polygon fill="#e0e0e0" stroke="#999999" points="274.5,-19 169.5,-19 169.5,0 274.5,0 274.5,-19"/>
<text text-anchor="middle" x="222" y="-7" font-family="Helvetica,sans-Serif" font-size="10.00">vulkan/vulkan.hpp</text>
</a>
</g>
</g>
<!-- Node8&#45;&gt;Node10 -->
<g id="edge10_Node000008_Node000010" class="edge">
<title>Node8&#45;&gt;Node10</title>
<g id="a_edge10_Node000008_Node000010"><a xlink:title=" ">
<path fill="none" stroke="#63b8ff" d="M182.76,-54.75C189.47,-47.18 199.34,-36.05 207.51,-26.84"/>
<polygon fill="#63b8ff" stroke="#63b8ff" points="210.37,-28.89 214.38,-19.09 205.13,-24.25 210.37,-28.89"/>
</a>
</g>
</g>
<!-- Node11&#45;&gt;Node8 -->
<g id="edge12_Node000011_Node000008" class="edge">
<title>Node11&#45;&gt;Node8</title>
<g id="a_edge12_Node000011_Node000008"><a xlink:title=" ">
<path fill="none" stroke="#63b8ff" d="M215.07,-109.75C208.15,-102.11 197.93,-90.82 189.55,-81.56"/>
<polygon fill="#63b8ff" stroke="#63b8ff" points="192.09,-79.15 182.78,-74.09 186.9,-83.85 192.09,-79.15"/>
</a>
</g>
</g>
<!-- Node13&#45;&gt;Node6 -->
<g id="edge17_Node000013_Node000006" class="edge">
<title>Node13&#45;&gt;Node6</title>
<g id="a_edge17_Node000013_Node000006"><a xlink:title=" ">
<path fill="none" stroke="#63b8ff" d="M249,-329.91C233.27,-322.51 212.25,-310.41 199,-294 188.53,-281.03 182.59,-262.88 179.39,-249.3"/>
<polygon fill="#63b8ff" stroke="#63b8ff" points="182.75,-248.27 177.29,-239.19 175.89,-249.69 182.75,-248.27"/>
</a>
</g>
</g>
<!-- Node13&#45;&gt;Node12 -->
<g id="edge15_Node000013_Node000012" class="edge">
<title>Node13&#45;&gt;Node12</title>
<g id="a_edge15_Node000013_Node000012"><a xlink:title=" ">
<path fill="none" stroke="#63b8ff" d="M295.51,-329.9C311.69,-322.96 331.35,-311.44 341,-294 358.47,-262.43 349.22,-218.58 341.64,-194.04"/>
<polygon fill="#63b8ff" stroke="#63b8ff" points="344.86,-192.62 338.38,-184.23 338.22,-194.83 344.86,-192.62"/>
</a>
</g>
</g>
<!-- Node14 -->
<g id="Node000014" class="node">
<title>Node14</title>
<g id="a_Node000014"><a xlink:title=" ">
<polygon fill="#e0e0e0" stroke="#999999" points="465.5,-294 388.5,-294 388.5,-275 465.5,-275 465.5,-294"/>
<text text-anchor="middle" x="427" y="-282" font-family="Helvetica,sans-Serif" font-size="10.00">glm/fwd.hpp</text>
</a>
</g>
</g>
<!-- Node13&#45;&gt;Node14 -->
<g id="edge16_Node000013_Node000014" class="edge">
<title>Node13&#45;&gt;Node14</title>
<g id="a_edge16_Node000013_Node000014"><a xlink:title=" ">
<path fill="none" stroke="#63b8ff" d="M295.22,-329.98C321.36,-321.16 362.4,-307.31 391.73,-297.41"/>
<polygon fill="#63b8ff" stroke="#63b8ff" points="393.22,-300.6 401.58,-294.08 390.98,-293.96 393.22,-300.6"/>
</a>
</g>
</g>
<!-- Node15 -->
<g id="Node000015" class="node">
<title>Node15</title>
<g id="a_Node000015"><a xlink:href="abcgVulkanImage_8hpp.html" target="_top" xlink:title="Header file of abcg::VulkanImage.">
<polygon fill="white" stroke="#666666" points="332,-294 208,-294 208,-275 332,-275 332,-294"/>
<text text-anchor="middle" x="270" y="-282" font-family="Helvetica,sans-Serif" font-size="10.00">abcgVulkanImage.hpp</text>
</a>
</g>
</g>
<!-- Node13&#45;&gt;Node15 -->
<g id="edge18_Node000013_Node000015" class="edge">
<title>Node13&#45;&gt;Node15</title>
<g id="a_edge18_Node000013_Node000015"><a xlink:title=" ">
<path fill="none" stroke="#63b8ff" d="M270,-329.75C270,-322.8 270,-312.85 270,-304.13"/>
<polygon fill="#63b8ff" stroke="#63b8ff" points="273.5,-304.09 270,-294.09 266.5,-304.09 273.5,-304.09"/>
</a>
</g>
</g>
<!-- Node15&#45;&gt;Node6 -->
<g id="edge19_Node000015_Node000006" class="edge">
<title>Node15&#45;&gt;Node6</title>
<g id="a_edge19_Node000015_Node000006"><a xlink:title=" ">
<path fill="none" stroke="#63b8ff" d="M254.9,-274.98C240.18,-266.69 217.58,-253.94 200.33,-244.22"/>
<polygon fill="#63b8ff" stroke="#63b8ff" points="201.81,-241.03 191.38,-239.17 198.37,-247.13 201.81,-241.03"/>
</a>
</g>
</g>
<!-- Node16 -->
<g id="Node000016" class="node">
<title>Node16</title>
<g id="a_Node000016"><a xlink:title=" ">
<polygon fill="#e0e0e0" stroke="#999999" points="332,-239 258,-239 258,-220 332,-220 332,-239"/>
<text text-anchor="middle" x="295" y="-227" font-family="Helvetica,sans-Serif" font-size="10.00">gsl/pointers</text>
</a>
</g>
</g>
<!-- Node15&#45;&gt;Node16 -->
<g id="edge20_Node000015_Node000016" class="edge">
<title>Node15&#45;&gt;Node16</title>
<g id="a_edge20_Node000015_Node000016"><a xlink:title=" ">
<path fill="none" stroke="#63b8ff" d="M274.13,-274.75C277.51,-267.57 282.42,-257.18 286.62,-248.27"/>
<polygon fill="#63b8ff" stroke="#63b8ff" points="289.85,-249.63 290.95,-239.09 283.52,-246.64 289.85,-249.63"/>
</a>
</g>
</g>
</g>
</svg>
