<?xml version="1.0" encoding="UTF-8" standalone="no"?>
<!DOCTYPE svg PUBLIC "-//W3C//DTD SVG 1.1//EN"
 "http://www.w3.org/Graphics/SVG/1.1/DTD/svg11.dtd">
<!-- Generated by graphviz version 2.43.0 (0)
 -->
<!-- Title: /home/harlen/dev/abcg/abcg/abcgWindow.hpp Pages: 1 -->
<svg width="897pt" height="240pt"
 viewBox="0.00 0.00 896.50 240.00" xmlns="http://www.w3.org/2000/svg" xmlns:xlink="http://www.w3.org/1999/xlink">
<g id="graph0" class="graph" transform="scale(1 1) rotate(0) translate(4 236)">
<title>/home/harlen/dev/abcg/abcg/abcgWindow.hpp</title>
<!-- Node1 -->
<g id="node1" class="node">
<title>Node1</title>
<g id="a_node1"><a xlink:title="Header file of abcg::Window.">
<polygon fill="#bfbfbf" stroke="black" points="396.5,-201.5 396.5,-231.5 524.5,-231.5 524.5,-201.5 396.5,-201.5"/>
<text text-anchor="start" x="404.5" y="-219.5" font-family="Helvetica,sans-Serif" font-size="10.00">/home/harlen/dev/abcg</text>
<text text-anchor="middle" x="460.5" y="-208.5" font-family="Helvetica,sans-Serif" font-size="10.00">/abcg/abcgWindow.hpp</text>
</a>
</g>
</g>
<!-- Node2 -->
<g id="node2" class="node">
<title>Node2</title>
<g id="a_node2"><a xlink:href="abcg_8hpp.html" target="_top" xlink:title="Shortcut header that includes the most common ABCg headers.">
<polygon fill="none" stroke="black" points="396.5,-134.5 396.5,-164.5 524.5,-164.5 524.5,-134.5 396.5,-134.5"/>
<text text-anchor="start" x="404.5" y="-152.5" font-family="Helvetica,sans-Serif" font-size="10.00">/home/harlen/dev/abcg</text>
<text text-anchor="middle" x="460.5" y="-141.5" font-family="Helvetica,sans-Serif" font-size="10.00">/abcg/abcg.hpp</text>
</a>
</g>
</g>
<!-- Node1&#45;&gt;Node2 -->
<g id="edge1" class="edge">
<title>Node1&#45;&gt;Node2</title>
<path fill="none" stroke="midnightblue" d="M460.5,-191.11C460.5,-182.15 460.5,-172.32 460.5,-164.58"/>
<polygon fill="midnightblue" stroke="midnightblue" points="457,-191.4 460.5,-201.4 464,-191.4 457,-191.4"/>
</g>
<!-- Node6 -->
<g id="node6" class="node">
<title>Node6</title>
<g id="a_node6"><a xlink:href="abcgApplication_8cpp.html" target="_top" xlink:title="Definition of abcg::Application members.">
<polygon fill="none" stroke="black" points="50.5,-134.5 50.5,-164.5 194.5,-164.5 194.5,-134.5 50.5,-134.5"/>
<text text-anchor="start" x="58.5" y="-152.5" font-family="Helvetica,sans-Serif" font-size="10.00">/home/harlen/dev/abcg</text>
<text text-anchor="middle" x="122.5" y="-141.5" font-family="Helvetica,sans-Serif" font-size="10.00">/abcg/abcgApplication.cpp</text>
</a>
</g>
</g>
<!-- Node1&#45;&gt;Node6 -->
<g id="edge5" class="edge">
<title>Node1&#45;&gt;Node6</title>
<path fill="none" stroke="midnightblue" d="M386.1,-201.19C329.11,-190.23 250.93,-175.2 194.54,-164.35"/>
<polygon fill="midnightblue" stroke="midnightblue" points="385.65,-204.67 396.13,-203.12 386.97,-197.8 385.65,-204.67"/>
</g>
<!-- Node7 -->
<g id="node7" class="node">
<title>Node7</title>
<g id="a_node7"><a xlink:href="abcgOpenGLWindow_8cpp.html" target="_top" xlink:title="Definition of abcg::OpenGLWindow members.">
<polygon fill="none" stroke="black" points="0,-67.5 0,-97.5 165,-97.5 165,-67.5 0,-67.5"/>
<text text-anchor="start" x="8" y="-85.5" font-family="Helvetica,sans-Serif" font-size="10.00">/home/harlen/dev/abcg</text>
<text text-anchor="middle" x="82.5" y="-74.5" font-family="Helvetica,sans-Serif" font-size="10.00">/abcg/abcgOpenGLWindow.cpp</text>
</a>
</g>
</g>
<!-- Node1&#45;&gt;Node7 -->
<g id="edge6" class="edge">
<title>Node1&#45;&gt;Node7</title>
<path fill="none" stroke="midnightblue" d="M386.28,-211.82C272.06,-205.38 63.94,-190.31 41.5,-165 23.53,-144.73 47.86,-115.18 66,-97.79"/>
<polygon fill="midnightblue" stroke="midnightblue" points="386.18,-215.32 396.36,-212.38 386.56,-208.33 386.18,-215.32"/>
</g>
<!-- Node8 -->
<g id="node8" class="node">
<title>Node8</title>
<g id="a_node8"><a xlink:href="abcgOpenGLWindow_8hpp.html" target="_top" xlink:title="Header file of abcg::OpenGLWindow.">
<polygon fill="none" stroke="black" points="212.5,-134.5 212.5,-164.5 378.5,-164.5 378.5,-134.5 212.5,-134.5"/>
<text text-anchor="start" x="220.5" y="-152.5" font-family="Helvetica,sans-Serif" font-size="10.00">/home/harlen/dev/abcg</text>
<text text-anchor="middle" x="295.5" y="-141.5" font-family="Helvetica,sans-Serif" font-size="10.00">/abcg/abcgOpenGLWindow.hpp</text>
</a>
</g>
</g>
<!-- Node1&#45;&gt;Node8 -->
<g id="edge7" class="edge">
<title>Node1&#45;&gt;Node8</title>
<path fill="none" stroke="midnightblue" d="M415.27,-197.68C388.81,-187.26 355.87,-174.28 331.23,-164.58"/>
<polygon fill="midnightblue" stroke="midnightblue" points="414.11,-200.99 424.7,-201.4 416.68,-194.47 414.11,-200.99"/>
</g>
<!-- Node9 -->
<g id="node9" class="node">
<title>Node9</title>
<g id="a_node9"><a xlink:href="abcgVulkanWindow_8cpp.html" target="_top" xlink:title="Definition of abcg::VulkanWindow members.">
<polygon fill="none" stroke="black" points="728.5,-67.5 728.5,-97.5 888.5,-97.5 888.5,-67.5 728.5,-67.5"/>
<text text-anchor="start" x="736.5" y="-85.5" font-family="Helvetica,sans-Serif" font-size="10.00">/home/harlen/dev/abcg</text>
<text text-anchor="middle" x="808.5" y="-74.5" font-family="Helvetica,sans-Serif" font-size="10.00">/abcg/abcgVulkanWindow.cpp</text>
</a>
</g>
</g>
<!-- Node1&#45;&gt;Node9 -->
<g id="edge10" class="edge">
<title>Node1&#45;&gt;Node9</title>
<path fill="none" stroke="midnightblue" d="M534.88,-210.66C587.05,-204.92 657.25,-192.39 713.5,-165 718.07,-162.78 766.65,-120.31 792.51,-97.59"/>
<polygon fill="midnightblue" stroke="midnightblue" points="534.28,-207.2 524.7,-211.72 535.01,-214.16 534.28,-207.2"/>
</g>
<!-- Node10 -->
<g id="node10" class="node">
<title>Node10</title>
<g id="a_node10"><a xlink:href="abcgVulkanWindow_8hpp.html" target="_top" xlink:title="Header file of abcg::VulkanWindow.">
<polygon fill="none" stroke="black" points="543,-134.5 543,-164.5 704,-164.5 704,-134.5 543,-134.5"/>
<text text-anchor="start" x="551" y="-152.5" font-family="Helvetica,sans-Serif" font-size="10.00">/home/harlen/dev/abcg</text>
<text text-anchor="middle" x="623.5" y="-141.5" font-family="Helvetica,sans-Serif" font-size="10.00">/abcg/abcgVulkanWindow.hpp</text>
</a>
</g>
</g>
<!-- Node1&#45;&gt;Node10 -->
<g id="edge11" class="edge">
<title>Node1&#45;&gt;Node10</title>
<path fill="none" stroke="midnightblue" d="M505.18,-197.68C531.33,-187.26 563.87,-174.28 588.2,-164.58"/>
<polygon fill="midnightblue" stroke="midnightblue" points="503.86,-194.44 495.87,-201.4 506.45,-200.94 503.86,-194.44"/>
</g>
<!-- Node12 -->
<g id="node12" class="node">
<title>Node12</title>
<g id="a_node12"><a xlink:href="abcgWindow_8cpp.html" target="_top" xlink:title="Definition of abcg::Window members.">
<polygon fill="none" stroke="black" points="760.5,-134.5 760.5,-164.5 888.5,-164.5 888.5,-134.5 760.5,-134.5"/>
<text text-anchor="start" x="768.5" y="-152.5" font-family="Helvetica,sans-Serif" font-size="10.00">/home/harlen/dev/abcg</text>
<text text-anchor="middle" x="824.5" y="-141.5" font-family="Helvetica,sans-Serif" font-size="10.00">/abcg/abcgWindow.cpp</text>
</a>
</g>
</g>
<!-- Node1&#45;&gt;Node12 -->
<g id="edge15" class="edge">
<title>Node1&#45;&gt;Node12</title>
<path fill="none" stroke="midnightblue" d="M534.84,-202.56C592.58,-192.47 674.66,-178.02 746.5,-165 750.97,-164.19 755.59,-163.35 760.24,-162.49"/>
<polygon fill="midnightblue" stroke="midnightblue" points="533.96,-199.16 524.71,-204.33 535.16,-206.06 533.96,-199.16"/>
</g>
<!-- Node3 -->
<g id="node3" class="node">
<title>Node3</title>
<g id="a_node3"><a xlink:href="abcgOpenGL_8hpp.html" target="_top" xlink:title="Header file for OpenGL&#45;related functions and classes.">
<polygon fill="none" stroke="black" points="237.5,-67.5 237.5,-97.5 365.5,-97.5 365.5,-67.5 237.5,-67.5"/>
<text text-anchor="start" x="245.5" y="-85.5" font-family="Helvetica,sans-Serif" font-size="10.00">/home/harlen/dev/abcg</text>
<text text-anchor="middle" x="301.5" y="-74.5" font-family="Helvetica,sans-Serif" font-size="10.00">/abcg/abcgOpenGL.hpp</text>
</a>
</g>
</g>
<!-- Node2&#45;&gt;Node3 -->
<g id="edge2" class="edge">
<title>Node2&#45;&gt;Node3</title>
<path fill="none" stroke="midnightblue" d="M416.58,-130.54C391.13,-120.14 359.57,-107.24 335.93,-97.58"/>
<polygon fill="midnightblue" stroke="midnightblue" points="415.42,-133.85 426,-134.4 418.07,-127.37 415.42,-133.85"/>
</g>
<!-- Node4 -->
<g id="node4" class="node">
<title>Node4</title>
<g id="a_node4"><a xlink:href="abcgVulkan_8hpp.html" target="_top" xlink:title="Header file for Vulkan&#45;related functions and classes.">
<polygon fill="none" stroke="black" points="390.5,-67.5 390.5,-97.5 518.5,-97.5 518.5,-67.5 390.5,-67.5"/>
<text text-anchor="start" x="398.5" y="-85.5" font-family="Helvetica,sans-Serif" font-size="10.00">/home/harlen/dev/abcg</text>
<text text-anchor="middle" x="454.5" y="-74.5" font-family="Helvetica,sans-Serif" font-size="10.00">/abcg/abcgVulkan.hpp</text>
</a>
</g>
</g>
<!-- Node2&#45;&gt;Node4 -->
<g id="edge3" class="edge">
<title>Node2&#45;&gt;Node4</title>
<path fill="none" stroke="midnightblue" d="M458.28,-124.4C457.44,-115.37 456.52,-105.41 455.8,-97.58"/>
<polygon fill="midnightblue" stroke="midnightblue" points="454.79,-124.76 459.2,-134.4 461.76,-124.12 454.79,-124.76"/>
</g>
<!-- Node5 -->
<g id="node5" class="node">
<title>Node5</title>
<g id="a_node5"><a xlink:href="abcgVulkanInstance_8cpp.html" target="_top" xlink:title="Definition of abcg::VulkanInstance.">
<polygon fill="none" stroke="black" points="373,-0.5 373,-30.5 536,-30.5 536,-0.5 373,-0.5"/>
<text text-anchor="start" x="381" y="-18.5" font-family="Helvetica,sans-Serif" font-size="10.00">/home/harlen/dev/abcg</text>
<text text-anchor="middle" x="454.5" y="-7.5" font-family="Helvetica,sans-Serif" font-size="10.00">/abcg/abcgVulkanInstance.cpp</text>
</a>
</g>
</g>
<!-- Node4&#45;&gt;Node5 -->
<g id="edge4" class="edge">
<title>Node4&#45;&gt;Node5</title>
<path fill="none" stroke="midnightblue" d="M454.5,-57.11C454.5,-48.15 454.5,-38.32 454.5,-30.58"/>
<polygon fill="midnightblue" stroke="midnightblue" points="451,-57.4 454.5,-67.4 458,-57.4 451,-57.4"/>
</g>
<!-- Node8&#45;&gt;Node3 -->
<g id="edge8" class="edge">
<title>Node8&#45;&gt;Node3</title>
<path fill="none" stroke="midnightblue" d="M297.72,-124.4C298.56,-115.37 299.48,-105.41 300.2,-97.58"/>
<polygon fill="midnightblue" stroke="midnightblue" points="294.24,-124.12 296.8,-134.4 301.21,-124.76 294.24,-124.12"/>
</g>
<!-- Node8&#45;&gt;Node7 -->
<g id="edge9" class="edge">
<title>Node8&#45;&gt;Node7</title>
<path fill="none" stroke="midnightblue" d="M239.61,-131.44C205.08,-120.91 161.31,-107.55 128.74,-97.61"/>
<polygon fill="midnightblue" stroke="midnightblue" points="238.96,-134.9 249.54,-134.48 241,-128.21 238.96,-134.9"/>
</g>
<!-- Node10&#45;&gt;Node4 -->
<g id="edge12" class="edge">
<title>Node10&#45;&gt;Node4</title>
<path fill="none" stroke="midnightblue" d="M577.17,-130.68C550.07,-120.26 516.33,-107.28 491.1,-97.58"/>
<polygon fill="midnightblue" stroke="midnightblue" points="576.24,-134.07 586.83,-134.4 578.75,-127.54 576.24,-134.07"/>
</g>
<!-- Node10&#45;&gt;Node9 -->
<g id="edge14" class="edge">
<title>Node10&#45;&gt;Node9</title>
<path fill="none" stroke="midnightblue" d="M673.44,-130.96C703.24,-120.48 740.57,-107.37 768.44,-97.58"/>
<polygon fill="midnightblue" stroke="midnightblue" points="671.92,-127.78 663.64,-134.4 674.24,-134.38 671.92,-127.78"/>
</g>
<!-- Node11 -->
<g id="node11" class="node">
<title>Node11</title>
<g id="a_node11"><a xlink:href="abcgVulkanSwapchain_8cpp.html" target="_top" xlink:title="Definition of abcg::VulkanSwapchain.">
<polygon fill="none" stroke="black" points="536.5,-67.5 536.5,-97.5 710.5,-97.5 710.5,-67.5 536.5,-67.5"/>
<text text-anchor="start" x="544.5" y="-85.5" font-family="Helvetica,sans-Serif" font-size="10.00">/home/harlen/dev/abcg</text>
<text text-anchor="middle" x="623.5" y="-74.5" font-family="Helvetica,sans-Serif" font-size="10.00">/abcg/abcgVulkanSwapchain.cpp</text>
</a>
</g>
</g>
<!-- Node10&#45;&gt;Node11 -->
<g id="edge13" class="edge">
<title>Node10&#45;&gt;Node11</title>
<path fill="none" stroke="midnightblue" d="M623.5,-124.11C623.5,-115.15 623.5,-105.32 623.5,-97.58"/>
<polygon fill="midnightblue" stroke="midnightblue" points="620,-124.4 623.5,-134.4 627,-124.4 620,-124.4"/>
</g>
</g>
</svg>
