<?xml version="1.0" encoding="UTF-8" standalone="no"?>
<!DOCTYPE svg PUBLIC "-//W3C//DTD SVG 1.1//EN"
 "http://www.w3.org/Graphics/SVG/1.1/DTD/svg11.dtd">
<!-- Generated by graphviz version 2.43.0 (0)
 -->
<!-- Title: /home/harlen/dev/abcg2/abcg/abcg_opengl_shader.hpp Pages: 1 -->
<svg width="393pt" height="173pt"
 viewBox="0.00 0.00 393.00 173.00" xmlns="http://www.w3.org/2000/svg" xmlns:xlink="http://www.w3.org/1999/xlink">
<g id="graph0" class="graph" transform="scale(1 1) rotate(0) translate(4 169)">
<title>/home/harlen/dev/abcg2/abcg/abcg_opengl_shader.hpp</title>
<!-- Node1 -->
<g id="node1" class="node">
<title>Node1</title>
<g id="a_node1"><a xlink:title="Declaration of helper functions for building OpenGL shaders.">
<polygon fill="#bfbfbf" stroke="black" points="31,-134.5 31,-164.5 197,-164.5 197,-134.5 31,-134.5"/>
<text text-anchor="start" x="39" y="-152.5" font-family="Helvetica,sans-Serif" font-size="10.00">/home/harlen/dev/abcg2</text>
<text text-anchor="middle" x="114" y="-141.5" font-family="Helvetica,sans-Serif" font-size="10.00">/abcg/abcg_opengl_shader.hpp</text>
</a>
</g>
</g>
<!-- Node2 -->
<g id="node2" class="node">
<title>Node2</title>
<g id="a_node2"><a xlink:href="abcg__opengl_8hpp.html" target="_top" xlink:title="Header file for OpenGL&#45;related functions and classes.">
<polygon fill="none" stroke="black" points="0,-0.5 0,-30.5 134,-30.5 134,-0.5 0,-0.5"/>
<text text-anchor="start" x="8" y="-18.5" font-family="Helvetica,sans-Serif" font-size="10.00">/home/harlen/dev/abcg2</text>
<text text-anchor="middle" x="67" y="-7.5" font-family="Helvetica,sans-Serif" font-size="10.00">/abcg/abcg_opengl.hpp</text>
</a>
</g>
</g>
<!-- Node1&#45;&gt;Node2 -->
<g id="edge1" class="edge">
<title>Node1&#45;&gt;Node2</title>
<path fill="none" stroke="midnightblue" d="M57.98,-129.78C43.77,-122.22 30.22,-111.89 22,-98 8.25,-74.77 31.59,-47.17 49.48,-30.78"/>
<polygon fill="midnightblue" stroke="midnightblue" points="56.83,-133.12 67.36,-134.36 59.91,-126.83 56.83,-133.12"/>
</g>
<!-- Node3 -->
<g id="node3" class="node">
<title>Node3</title>
<g id="a_node3"><a xlink:href="abcg__opengl__shader_8cpp.html" target="_top" xlink:title="Definition of helper functions for building OpenGL shaders.">
<polygon fill="none" stroke="black" points="31.5,-67.5 31.5,-97.5 196.5,-97.5 196.5,-67.5 31.5,-67.5"/>
<text text-anchor="start" x="39.5" y="-85.5" font-family="Helvetica,sans-Serif" font-size="10.00">/home/harlen/dev/abcg2</text>
<text text-anchor="middle" x="114" y="-74.5" font-family="Helvetica,sans-Serif" font-size="10.00">/abcg/abcg_opengl_shader.cpp</text>
</a>
</g>
</g>
<!-- Node1&#45;&gt;Node3 -->
<g id="edge2" class="edge">
<title>Node1&#45;&gt;Node3</title>
<path fill="none" stroke="midnightblue" d="M114,-124.11C114,-115.15 114,-105.32 114,-97.58"/>
<polygon fill="midnightblue" stroke="midnightblue" points="110.5,-124.4 114,-134.4 117.5,-124.4 110.5,-124.4"/>
</g>
<!-- Node4 -->
<g id="node4" class="node">
<title>Node4</title>
<g id="a_node4"><a xlink:href="abcg__opengl__window_8hpp.html" target="_top" xlink:title="Header file of abcg::OpenGLWindow.">
<polygon fill="none" stroke="black" points="215,-67.5 215,-97.5 385,-97.5 385,-67.5 215,-67.5"/>
<text text-anchor="start" x="223" y="-85.5" font-family="Helvetica,sans-Serif" font-size="10.00">/home/harlen/dev/abcg2</text>
<text text-anchor="middle" x="300" y="-74.5" font-family="Helvetica,sans-Serif" font-size="10.00">/abcg/abcg_opengl_window.hpp</text>
</a>
</g>
</g>
<!-- Node1&#45;&gt;Node4 -->
<g id="edge3" class="edge">
<title>Node1&#45;&gt;Node4</title>
<path fill="none" stroke="midnightblue" d="M163.81,-131.09C193.84,-120.6 231.59,-107.41 259.72,-97.58"/>
<polygon fill="midnightblue" stroke="midnightblue" points="162.64,-127.79 154.36,-134.4 164.95,-134.4 162.64,-127.79"/>
</g>
<!-- Node4&#45;&gt;Node2 -->
<g id="edge4" class="edge">
<title>Node4&#45;&gt;Node2</title>
<path fill="none" stroke="midnightblue" d="M239.83,-64.71C201.92,-54.14 153.51,-40.63 117.58,-30.61"/>
<polygon fill="midnightblue" stroke="midnightblue" points="239.16,-68.16 249.73,-67.48 241.04,-61.42 239.16,-68.16"/>
</g>
<!-- Node5 -->
<g id="node5" class="node">
<title>Node5</title>
<g id="a_node5"><a xlink:href="abcg__opengl__window_8cpp.html" target="_top" xlink:title="Definition of abcg::OpenGLWindow members.">
<polygon fill="none" stroke="black" points="215,-0.5 215,-30.5 385,-30.5 385,-0.5 215,-0.5"/>
<text text-anchor="start" x="223" y="-18.5" font-family="Helvetica,sans-Serif" font-size="10.00">/home/harlen/dev/abcg2</text>
<text text-anchor="middle" x="300" y="-7.5" font-family="Helvetica,sans-Serif" font-size="10.00">/abcg/abcg_opengl_window.cpp</text>
</a>
</g>
</g>
<!-- Node4&#45;&gt;Node5 -->
<g id="edge5" class="edge">
<title>Node4&#45;&gt;Node5</title>
<path fill="none" stroke="midnightblue" d="M300,-57.11C300,-48.15 300,-38.32 300,-30.58"/>
<polygon fill="midnightblue" stroke="midnightblue" points="296.5,-57.4 300,-67.4 303.5,-57.4 296.5,-57.4"/>
</g>
</g>
</svg>
