<?xml version="1.0" encoding="UTF-8" standalone="no"?>
<!DOCTYPE svg PUBLIC "-//W3C//DTD SVG 1.1//EN"
 "http://www.w3.org/Graphics/SVG/1.1/DTD/svg11.dtd">
<!-- Generated by graphviz version 2.43.0 (0)
 -->
<!-- Title: /home/harlen/dev/abcg2/abcg/abcg_application.cpp Pages: 1 -->
<svg width="794pt" height="207pt"
 viewBox="0.00 0.00 793.50 207.00" xmlns="http://www.w3.org/2000/svg" xmlns:xlink="http://www.w3.org/1999/xlink">
<g id="graph0" class="graph" transform="scale(1 1) rotate(0) translate(4 203)">
<title>/home/harlen/dev/abcg2/abcg/abcg_application.cpp</title>
<!-- Node1 -->
<g id="node1" class="node">
<title>Node1</title>
<g id="a_node1"><a xlink:title="Definition of abcg::Application members.">
<polygon fill="#bfbfbf" stroke="black" points="279,-168.5 279,-198.5 428,-198.5 428,-168.5 279,-168.5"/>
<text text-anchor="start" x="287" y="-186.5" font-family="Helvetica,sans-Serif" font-size="10.00">/home/harlen/dev/abcg2</text>
<text text-anchor="middle" x="353.5" y="-175.5" font-family="Helvetica,sans-Serif" font-size="10.00">/abcg/abcg_application.cpp</text>
</a>
</g>
</g>
<!-- Node2 -->
<g id="node2" class="node">
<title>Node2</title>
<g id="a_node2"><a xlink:href="abcg__application_8hpp.html" target="_top" xlink:title="Header file of abcg::Application.">
<polygon fill="none" stroke="black" points="411.5,-112.5 411.5,-131.5 531.5,-131.5 531.5,-112.5 411.5,-112.5"/>
<text text-anchor="middle" x="471.5" y="-119.5" font-family="Helvetica,sans-Serif" font-size="10.00">abcg_application.hpp</text>
</a>
</g>
</g>
<!-- Node1&#45;&gt;Node2 -->
<g id="edge1" class="edge">
<title>Node1&#45;&gt;Node2</title>
<path fill="none" stroke="midnightblue" d="M381.46,-168.4C400.82,-158.64 426.41,-145.74 445.36,-136.18"/>
<polygon fill="midnightblue" stroke="midnightblue" points="446.98,-139.29 454.33,-131.66 443.83,-133.04 446.98,-139.29"/>
</g>
<!-- Node4 -->
<g id="node4" class="node">
<title>Node4</title>
<g id="a_node4"><a xlink:title=" ">
<polygon fill="none" stroke="#bfbfbf" points="156,-112.5 156,-131.5 237,-131.5 237,-112.5 156,-112.5"/>
<text text-anchor="middle" x="196.5" y="-119.5" font-family="Helvetica,sans-Serif" font-size="10.00">SDL_thread.h</text>
</a>
</g>
</g>
<!-- Node1&#45;&gt;Node4 -->
<g id="edge3" class="edge">
<title>Node1&#45;&gt;Node4</title>
<path fill="none" stroke="midnightblue" d="M316.29,-168.4C289.72,-158.33 254.31,-144.91 228.89,-135.28"/>
<polygon fill="midnightblue" stroke="midnightblue" points="229.94,-131.93 219.34,-131.66 227.46,-138.47 229.94,-131.93"/>
</g>
<!-- Node5 -->
<g id="node5" class="node">
<title>Node5</title>
<g id="a_node5"><a xlink:title=" ">
<polygon fill="none" stroke="#bfbfbf" points="255.5,-112.5 255.5,-131.5 295.5,-131.5 295.5,-112.5 255.5,-112.5"/>
<text text-anchor="middle" x="275.5" y="-119.5" font-family="Helvetica,sans-Serif" font-size="10.00">span</text>
</a>
</g>
</g>
<!-- Node1&#45;&gt;Node5 -->
<g id="edge4" class="edge">
<title>Node1&#45;&gt;Node5</title>
<path fill="none" stroke="midnightblue" d="M335.02,-168.4C322.98,-159.22 307.3,-147.26 295.06,-137.92"/>
<polygon fill="midnightblue" stroke="midnightblue" points="296.92,-134.94 286.85,-131.66 292.68,-140.51 296.92,-134.94"/>
</g>
<!-- Node6 -->
<g id="node6" class="node">
<title>Node6</title>
<g id="a_node6"><a xlink:title=" ">
<polygon fill="none" stroke="#bfbfbf" points="313.5,-112.5 313.5,-131.5 393.5,-131.5 393.5,-112.5 313.5,-112.5"/>
<text text-anchor="middle" x="353.5" y="-119.5" font-family="Helvetica,sans-Serif" font-size="10.00">SDL_image.h</text>
</a>
</g>
</g>
<!-- Node1&#45;&gt;Node6 -->
<g id="edge5" class="edge">
<title>Node1&#45;&gt;Node6</title>
<path fill="none" stroke="midnightblue" d="M353.5,-168.4C353.5,-160.47 353.5,-150.46 353.5,-141.86"/>
<polygon fill="midnightblue" stroke="midnightblue" points="357,-141.66 353.5,-131.66 350,-141.66 357,-141.66"/>
</g>
<!-- Node7 -->
<g id="node7" class="node">
<title>Node7</title>
<g id="a_node7"><a xlink:href="abcg__exception_8hpp.html" target="_top" xlink:title="Header file of abcg::Exception and derived classes.">
<polygon fill="none" stroke="black" points="23.5,-112.5 23.5,-131.5 137.5,-131.5 137.5,-112.5 23.5,-112.5"/>
<text text-anchor="middle" x="80.5" y="-119.5" font-family="Helvetica,sans-Serif" font-size="10.00">abcg_exception.hpp</text>
</a>
</g>
</g>
<!-- Node1&#45;&gt;Node7 -->
<g id="edge6" class="edge">
<title>Node1&#45;&gt;Node7</title>
<path fill="none" stroke="midnightblue" d="M289.15,-168.47C240.3,-157.83 174.16,-143.41 129.54,-133.69"/>
<polygon fill="midnightblue" stroke="midnightblue" points="130.05,-130.22 119.53,-131.51 128.55,-137.06 130.05,-130.22"/>
</g>
<!-- Node10 -->
<g id="node10" class="node">
<title>Node10</title>
<g id="a_node10"><a xlink:href="abcg__window_8hpp.html" target="_top" xlink:title="Header file of abcg::Window.">
<polygon fill="none" stroke="black" points="550,-112.5 550,-131.5 653,-131.5 653,-112.5 550,-112.5"/>
<text text-anchor="middle" x="601.5" y="-119.5" font-family="Helvetica,sans-Serif" font-size="10.00">abcg_window.hpp</text>
</a>
</g>
</g>
<!-- Node1&#45;&gt;Node10 -->
<g id="edge10" class="edge">
<title>Node1&#45;&gt;Node10</title>
<path fill="none" stroke="midnightblue" d="M411.96,-168.47C456.05,-157.9 515.66,-143.59 556.18,-133.87"/>
<polygon fill="midnightblue" stroke="midnightblue" points="557.14,-137.24 566.04,-131.51 555.5,-130.44 557.14,-137.24"/>
</g>
<!-- Node14 -->
<g id="node14" class="node">
<title>Node14</title>
<g id="a_node14"><a xlink:title=" ">
<polygon fill="none" stroke="#bfbfbf" points="671.5,-112.5 671.5,-131.5 771.5,-131.5 771.5,-112.5 671.5,-112.5"/>
<text text-anchor="middle" x="721.5" y="-119.5" font-family="Helvetica,sans-Serif" font-size="10.00">tiny_obj_loader.h</text>
</a>
</g>
</g>
<!-- Node1&#45;&gt;Node14 -->
<g id="edge15" class="edge">
<title>Node1&#45;&gt;Node14</title>
<path fill="none" stroke="midnightblue" d="M428.41,-170.39C497.23,-159.26 597.92,-142.98 661.55,-132.69"/>
<polygon fill="midnightblue" stroke="midnightblue" points="662.13,-136.15 671.44,-131.09 661.01,-129.24 662.13,-136.15"/>
</g>
<!-- Node3 -->
<g id="node3" class="node">
<title>Node3</title>
<g id="a_node3"><a xlink:title=" ">
<polygon fill="none" stroke="#bfbfbf" points="449.5,-56.5 449.5,-75.5 493.5,-75.5 493.5,-56.5 449.5,-56.5"/>
<text text-anchor="middle" x="471.5" y="-63.5" font-family="Helvetica,sans-Serif" font-size="10.00">string</text>
</a>
</g>
</g>
<!-- Node2&#45;&gt;Node3 -->
<g id="edge2" class="edge">
<title>Node2&#45;&gt;Node3</title>
<path fill="none" stroke="midnightblue" d="M471.5,-112.08C471.5,-105.01 471.5,-94.86 471.5,-85.99"/>
<polygon fill="midnightblue" stroke="midnightblue" points="475,-85.75 471.5,-75.75 468,-85.75 475,-85.75"/>
</g>
<!-- Node7&#45;&gt;Node3 -->
<g id="edge9" class="edge">
<title>Node7&#45;&gt;Node3</title>
<path fill="none" stroke="midnightblue" d="M137.77,-113.09C220.96,-101.6 372.5,-80.67 438.88,-71.5"/>
<polygon fill="midnightblue" stroke="midnightblue" points="439.73,-74.92 449.15,-70.09 438.77,-67.99 439.73,-74.92"/>
</g>
<!-- Node8 -->
<g id="node8" class="node">
<title>Node8</title>
<g id="a_node8"><a xlink:title=" ">
<polygon fill="none" stroke="#bfbfbf" points="83,-56.5 83,-75.5 176,-75.5 176,-56.5 83,-56.5"/>
<text text-anchor="middle" x="129.5" y="-63.5" font-family="Helvetica,sans-Serif" font-size="10.00">source_location</text>
</a>
</g>
</g>
<!-- Node7&#45;&gt;Node8 -->
<g id="edge7" class="edge">
<title>Node7&#45;&gt;Node8</title>
<path fill="none" stroke="midnightblue" d="M88.59,-112.08C95.66,-104.3 106.09,-92.8 114.65,-83.37"/>
<polygon fill="midnightblue" stroke="midnightblue" points="117.43,-85.51 121.56,-75.75 112.25,-80.8 117.43,-85.51"/>
</g>
<!-- Node9 -->
<g id="node9" class="node">
<title>Node9</title>
<g id="a_node9"><a xlink:title=" ">
<polygon fill="none" stroke="#bfbfbf" points="0,-56.5 0,-75.5 65,-75.5 65,-56.5 0,-56.5"/>
<text text-anchor="middle" x="32.5" y="-63.5" font-family="Helvetica,sans-Serif" font-size="10.00">stdexcept</text>
</a>
</g>
</g>
<!-- Node7&#45;&gt;Node9 -->
<g id="edge8" class="edge">
<title>Node7&#45;&gt;Node9</title>
<path fill="none" stroke="midnightblue" d="M72.57,-112.08C65.65,-104.3 55.43,-92.8 47.05,-83.37"/>
<polygon fill="midnightblue" stroke="midnightblue" points="49.54,-80.9 40.28,-75.75 44.31,-85.55 49.54,-80.9"/>
</g>
<!-- Node10&#45;&gt;Node3 -->
<g id="edge11" class="edge">
<title>Node10&#45;&gt;Node3</title>
<path fill="none" stroke="midnightblue" d="M580.9,-112.44C559.51,-103.56 525.82,-89.56 501.48,-79.45"/>
<polygon fill="midnightblue" stroke="midnightblue" points="502.58,-76.12 492,-75.52 499.89,-82.58 502.58,-76.12"/>
</g>
<!-- Node11 -->
<g id="node11" class="node">
<title>Node11</title>
<g id="a_node11"><a xlink:href="abcg__elapsedtimer_8hpp.html" target="_top" xlink:title="Header file of abcg::ElapsedTimer.">
<polygon fill="none" stroke="black" points="655.5,-56.5 655.5,-75.5 785.5,-75.5 785.5,-56.5 655.5,-56.5"/>
<text text-anchor="middle" x="720.5" y="-63.5" font-family="Helvetica,sans-Serif" font-size="10.00">abcg_elapsedtimer.hpp</text>
</a>
</g>
</g>
<!-- Node10&#45;&gt;Node11 -->
<g id="edge12" class="edge">
<title>Node10&#45;&gt;Node11</title>
<path fill="none" stroke="midnightblue" d="M620.36,-112.44C639.77,-103.64 670.23,-89.81 692.46,-79.72"/>
<polygon fill="midnightblue" stroke="midnightblue" points="694.07,-82.84 701.73,-75.52 691.18,-76.46 694.07,-82.84"/>
</g>
<!-- Node13 -->
<g id="node13" class="node">
<title>Node13</title>
<g id="a_node13"><a xlink:href="abcg__external_8hpp.html" target="_top" xlink:title="Header file for including third&#45;party dependencies.">
<polygon fill="none" stroke="black" points="530,-56.5 530,-75.5 637,-75.5 637,-56.5 530,-56.5"/>
<text text-anchor="middle" x="583.5" y="-63.5" font-family="Helvetica,sans-Serif" font-size="10.00">abcg_external.hpp</text>
</a>
</g>
</g>
<!-- Node10&#45;&gt;Node13 -->
<g id="edge14" class="edge">
<title>Node10&#45;&gt;Node13</title>
<path fill="none" stroke="midnightblue" d="M598.53,-112.08C596.12,-104.85 592.64,-94.41 589.63,-85.4"/>
<polygon fill="midnightblue" stroke="midnightblue" points="592.9,-84.13 586.42,-75.75 586.26,-86.34 592.9,-84.13"/>
</g>
<!-- Node12 -->
<g id="node12" class="node">
<title>Node12</title>
<g id="a_node12"><a xlink:title=" ">
<polygon fill="none" stroke="#bfbfbf" points="695.5,-0.5 695.5,-19.5 745.5,-19.5 745.5,-0.5 695.5,-0.5"/>
<text text-anchor="middle" x="720.5" y="-7.5" font-family="Helvetica,sans-Serif" font-size="10.00">chrono</text>
</a>
</g>
</g>
<!-- Node11&#45;&gt;Node12 -->
<g id="edge13" class="edge">
<title>Node11&#45;&gt;Node12</title>
<path fill="none" stroke="midnightblue" d="M720.5,-56.08C720.5,-49.01 720.5,-38.86 720.5,-29.99"/>
<polygon fill="midnightblue" stroke="midnightblue" points="724,-29.75 720.5,-19.75 717,-29.75 724,-29.75"/>
</g>
</g>
</svg>
