<?xml version="1.0" encoding="UTF-8" standalone="no"?>
<!DOCTYPE svg PUBLIC "-//W3C//DTD SVG 1.1//EN"
 "http://www.w3.org/Graphics/SVG/1.1/DTD/svg11.dtd">
<!-- Generated by graphviz version 2.43.0 (0)
 -->
<!-- Title: /home/harlen/dev/abcg/abcg/abcgExternal.hpp Pages: 1 -->
<svg width="1055pt" height="307pt"
 viewBox="0.00 0.00 1055.00 307.00" xmlns="http://www.w3.org/2000/svg" xmlns:xlink="http://www.w3.org/1999/xlink">
<g id="graph0" class="graph" transform="scale(1 1) rotate(0) translate(4 303)">
<title>/home/harlen/dev/abcg/abcg/abcgExternal.hpp</title>
<!-- Node1 -->
<g id="node1" class="node">
<title>Node1</title>
<g id="a_node1"><a xlink:title="Header file for including third&#45;party dependencies.">
<polygon fill="#bfbfbf" stroke="black" points="651.5,-268.5 651.5,-298.5 782.5,-298.5 782.5,-268.5 651.5,-268.5"/>
<text text-anchor="start" x="659.5" y="-286.5" font-family="Helvetica,sans-Serif" font-size="10.00">/home/harlen/dev/abcg</text>
<text text-anchor="middle" x="717" y="-275.5" font-family="Helvetica,sans-Serif" font-size="10.00">/abcg/abcgExternal.hpp</text>
</a>
</g>
</g>
<!-- Node2 -->
<g id="node2" class="node">
<title>Node2</title>
<g id="a_node2"><a xlink:href="abcg_8hpp.html" target="_top" xlink:title="Shortcut header that includes the most common ABCg headers.">
<polygon fill="none" stroke="black" points="748,-134.5 748,-164.5 876,-164.5 876,-134.5 748,-134.5"/>
<text text-anchor="start" x="756" y="-152.5" font-family="Helvetica,sans-Serif" font-size="10.00">/home/harlen/dev/abcg</text>
<text text-anchor="middle" x="812" y="-141.5" font-family="Helvetica,sans-Serif" font-size="10.00">/abcg/abcg.hpp</text>
</a>
</g>
</g>
<!-- Node1&#45;&gt;Node2 -->
<g id="edge1" class="edge">
<title>Node1&#45;&gt;Node2</title>
<path fill="none" stroke="midnightblue" d="M718.01,-257.86C719.79,-240.61 724.38,-217.74 736,-201 746.93,-185.25 764.51,-173.11 780,-164.68"/>
<polygon fill="midnightblue" stroke="midnightblue" points="714.49,-258.02 717.21,-268.26 721.47,-258.56 714.49,-258.02"/>
</g>
<!-- Node6 -->
<g id="node6" class="node">
<title>Node6</title>
<g id="a_node6"><a xlink:href="abcgOpenGLError_8cpp.html" target="_top" xlink:title="Definition of abcg::OpenGLError members.">
<polygon fill="none" stroke="black" points="897,-201.5 897,-231.5 1047,-231.5 1047,-201.5 897,-201.5"/>
<text text-anchor="start" x="905" y="-219.5" font-family="Helvetica,sans-Serif" font-size="10.00">/home/harlen/dev/abcg</text>
<text text-anchor="middle" x="972" y="-208.5" font-family="Helvetica,sans-Serif" font-size="10.00">/abcg/abcgOpenGLError.cpp</text>
</a>
</g>
</g>
<!-- Node1&#45;&gt;Node6 -->
<g id="edge5" class="edge">
<title>Node1&#45;&gt;Node6</title>
<path fill="none" stroke="midnightblue" d="M781.79,-265.98C823.44,-255.37 876.98,-241.72 916.64,-231.61"/>
<polygon fill="midnightblue" stroke="midnightblue" points="780.84,-262.61 772.02,-268.48 782.57,-269.4 780.84,-262.61"/>
</g>
<!-- Node7 -->
<g id="node7" class="node">
<title>Node7</title>
<g id="a_node7"><a xlink:href="abcgOpenGLWindow_8hpp.html" target="_top" xlink:title="Header file of abcg::OpenGLWindow.">
<polygon fill="none" stroke="black" points="564,-134.5 564,-164.5 730,-164.5 730,-134.5 564,-134.5"/>
<text text-anchor="start" x="572" y="-152.5" font-family="Helvetica,sans-Serif" font-size="10.00">/home/harlen/dev/abcg</text>
<text text-anchor="middle" x="647" y="-141.5" font-family="Helvetica,sans-Serif" font-size="10.00">/abcg/abcgOpenGLWindow.hpp</text>
</a>
</g>
</g>
<!-- Node1&#45;&gt;Node7 -->
<g id="edge6" class="edge">
<title>Node1&#45;&gt;Node7</title>
<path fill="none" stroke="midnightblue" d="M704.79,-259.48C690.26,-232.07 666.45,-187.19 654.44,-164.52"/>
<polygon fill="midnightblue" stroke="midnightblue" points="701.73,-261.18 709.51,-268.37 707.92,-257.9 701.73,-261.18"/>
</g>
<!-- Node9 -->
<g id="node9" class="node">
<title>Node9</title>
<g id="a_node9"><a xlink:href="abcgTrackball_8hpp.html" target="_top" xlink:title="Header file of abcg::TrackBall.">
<polygon fill="none" stroke="black" points="745,-201.5 745,-231.5 879,-231.5 879,-201.5 745,-201.5"/>
<text text-anchor="start" x="753" y="-219.5" font-family="Helvetica,sans-Serif" font-size="10.00">/home/harlen/dev/abcg</text>
<text text-anchor="middle" x="812" y="-208.5" font-family="Helvetica,sans-Serif" font-size="10.00">/abcg/abcgTrackball.hpp</text>
</a>
</g>
</g>
<!-- Node1&#45;&gt;Node9 -->
<g id="edge9" class="edge">
<title>Node1&#45;&gt;Node9</title>
<path fill="none" stroke="midnightblue" d="M745.89,-262.73C760.59,-252.68 778.11,-240.68 791.43,-231.58"/>
<polygon fill="midnightblue" stroke="midnightblue" points="743.89,-259.86 737.61,-268.4 747.84,-265.64 743.89,-259.86"/>
</g>
<!-- Node11 -->
<g id="node11" class="node">
<title>Node11</title>
<g id="a_node11"><a xlink:href="abcgWindow_8hpp.html" target="_top" xlink:title="Header file of abcg::Window.">
<polygon fill="none" stroke="black" points="426,-201.5 426,-231.5 554,-231.5 554,-201.5 426,-201.5"/>
<text text-anchor="start" x="434" y="-219.5" font-family="Helvetica,sans-Serif" font-size="10.00">/home/harlen/dev/abcg</text>
<text text-anchor="middle" x="490" y="-208.5" font-family="Helvetica,sans-Serif" font-size="10.00">/abcg/abcgWindow.hpp</text>
</a>
</g>
</g>
<!-- Node1&#45;&gt;Node11 -->
<g id="edge12" class="edge">
<title>Node1&#45;&gt;Node11</title>
<path fill="none" stroke="midnightblue" d="M658.38,-265.71C621.44,-255.14 574.29,-241.63 539.28,-231.61"/>
<polygon fill="midnightblue" stroke="midnightblue" points="657.45,-269.09 668.02,-268.48 659.37,-262.36 657.45,-269.09"/>
</g>
<!-- Node3 -->
<g id="node3" class="node">
<title>Node3</title>
<g id="a_node3"><a xlink:href="abcgOpenGL_8hpp.html" target="_top" xlink:title="Header file for OpenGL&#45;related functions and classes.">
<polygon fill="none" stroke="black" points="748,-67.5 748,-97.5 876,-97.5 876,-67.5 748,-67.5"/>
<text text-anchor="start" x="756" y="-85.5" font-family="Helvetica,sans-Serif" font-size="10.00">/home/harlen/dev/abcg</text>
<text text-anchor="middle" x="812" y="-74.5" font-family="Helvetica,sans-Serif" font-size="10.00">/abcg/abcgOpenGL.hpp</text>
</a>
</g>
</g>
<!-- Node2&#45;&gt;Node3 -->
<g id="edge2" class="edge">
<title>Node2&#45;&gt;Node3</title>
<path fill="none" stroke="midnightblue" d="M812,-124.11C812,-115.15 812,-105.32 812,-97.58"/>
<polygon fill="midnightblue" stroke="midnightblue" points="808.5,-124.4 812,-134.4 815.5,-124.4 808.5,-124.4"/>
</g>
<!-- Node4 -->
<g id="node4" class="node">
<title>Node4</title>
<g id="a_node4"><a xlink:href="abcgVulkan_8hpp.html" target="_top" xlink:title="Header file for Vulkan&#45;related functions and classes.">
<polygon fill="none" stroke="black" points="418,-67.5 418,-97.5 546,-97.5 546,-67.5 418,-67.5"/>
<text text-anchor="start" x="426" y="-85.5" font-family="Helvetica,sans-Serif" font-size="10.00">/home/harlen/dev/abcg</text>
<text text-anchor="middle" x="482" y="-74.5" font-family="Helvetica,sans-Serif" font-size="10.00">/abcg/abcgVulkan.hpp</text>
</a>
</g>
</g>
<!-- Node2&#45;&gt;Node4 -->
<g id="edge3" class="edge">
<title>Node2&#45;&gt;Node4</title>
<path fill="none" stroke="midnightblue" d="M737.85,-133.78C655.6,-117.58 633.64,-113.5 555,-98 552.08,-97.43 549.1,-96.84 546.09,-96.24"/>
<polygon fill="midnightblue" stroke="midnightblue" points="737.42,-137.26 747.91,-135.76 738.77,-130.39 737.42,-137.26"/>
</g>
<!-- Node5 -->
<g id="node5" class="node">
<title>Node5</title>
<g id="a_node5"><a xlink:href="abcgVulkanInstance_8cpp.html" target="_top" xlink:title="Definition of abcg::VulkanInstance.">
<polygon fill="none" stroke="black" points="400.5,-0.5 400.5,-30.5 563.5,-30.5 563.5,-0.5 400.5,-0.5"/>
<text text-anchor="start" x="408.5" y="-18.5" font-family="Helvetica,sans-Serif" font-size="10.00">/home/harlen/dev/abcg</text>
<text text-anchor="middle" x="482" y="-7.5" font-family="Helvetica,sans-Serif" font-size="10.00">/abcg/abcgVulkanInstance.cpp</text>
</a>
</g>
</g>
<!-- Node4&#45;&gt;Node5 -->
<g id="edge4" class="edge">
<title>Node4&#45;&gt;Node5</title>
<path fill="none" stroke="midnightblue" d="M482,-57.11C482,-48.15 482,-38.32 482,-30.58"/>
<polygon fill="midnightblue" stroke="midnightblue" points="478.5,-57.4 482,-67.4 485.5,-57.4 478.5,-57.4"/>
</g>
<!-- Node7&#45;&gt;Node3 -->
<g id="edge7" class="edge">
<title>Node7&#45;&gt;Node3</title>
<path fill="none" stroke="midnightblue" d="M692.23,-130.68C718.69,-120.26 751.63,-107.28 776.27,-97.58"/>
<polygon fill="midnightblue" stroke="midnightblue" points="690.82,-127.47 682.8,-134.4 693.39,-133.99 690.82,-127.47"/>
</g>
<!-- Node8 -->
<g id="node8" class="node">
<title>Node8</title>
<g id="a_node8"><a xlink:href="abcgOpenGLWindow_8cpp.html" target="_top" xlink:title="Definition of abcg::OpenGLWindow members.">
<polygon fill="none" stroke="black" points="564.5,-67.5 564.5,-97.5 729.5,-97.5 729.5,-67.5 564.5,-67.5"/>
<text text-anchor="start" x="572.5" y="-85.5" font-family="Helvetica,sans-Serif" font-size="10.00">/home/harlen/dev/abcg</text>
<text text-anchor="middle" x="647" y="-74.5" font-family="Helvetica,sans-Serif" font-size="10.00">/abcg/abcgOpenGLWindow.cpp</text>
</a>
</g>
</g>
<!-- Node7&#45;&gt;Node8 -->
<g id="edge8" class="edge">
<title>Node7&#45;&gt;Node8</title>
<path fill="none" stroke="midnightblue" d="M647,-124.11C647,-115.15 647,-105.32 647,-97.58"/>
<polygon fill="midnightblue" stroke="midnightblue" points="643.5,-124.4 647,-134.4 650.5,-124.4 643.5,-124.4"/>
</g>
<!-- Node9&#45;&gt;Node2 -->
<g id="edge10" class="edge">
<title>Node9&#45;&gt;Node2</title>
<path fill="none" stroke="midnightblue" d="M812,-191.11C812,-182.15 812,-172.32 812,-164.58"/>
<polygon fill="midnightblue" stroke="midnightblue" points="808.5,-191.4 812,-201.4 815.5,-191.4 808.5,-191.4"/>
</g>
<!-- Node10 -->
<g id="node10" class="node">
<title>Node10</title>
<g id="a_node10"><a xlink:href="abcgTrackball_8cpp.html" target="_top" xlink:title="Definition of abcg::TrackBall members.">
<polygon fill="none" stroke="black" points="894.5,-134.5 894.5,-164.5 1027.5,-164.5 1027.5,-134.5 894.5,-134.5"/>
<text text-anchor="start" x="902.5" y="-152.5" font-family="Helvetica,sans-Serif" font-size="10.00">/home/harlen/dev/abcg</text>
<text text-anchor="middle" x="961" y="-141.5" font-family="Helvetica,sans-Serif" font-size="10.00">/abcg/abcgTrackball.cpp</text>
</a>
</g>
</g>
<!-- Node9&#45;&gt;Node10 -->
<g id="edge11" class="edge">
<title>Node9&#45;&gt;Node10</title>
<path fill="none" stroke="midnightblue" d="M853.79,-197.27C877.52,-186.92 906.78,-174.15 928.73,-164.58"/>
<polygon fill="midnightblue" stroke="midnightblue" points="852.1,-194.19 844.33,-201.4 854.9,-200.61 852.1,-194.19"/>
</g>
<!-- Node11&#45;&gt;Node2 -->
<g id="edge13" class="edge">
<title>Node11&#45;&gt;Node2</title>
<path fill="none" stroke="midnightblue" d="M564.13,-200.54C619.67,-189.33 694.88,-174.14 747.84,-163.45"/>
<polygon fill="midnightblue" stroke="midnightblue" points="563.11,-197.17 554,-202.58 564.5,-204.03 563.11,-197.17"/>
</g>
<!-- Node11&#45;&gt;Node7 -->
<g id="edge16" class="edge">
<title>Node11&#45;&gt;Node7</title>
<path fill="none" stroke="midnightblue" d="M533.37,-197.54C558.49,-187.14 589.66,-174.24 613,-164.58"/>
<polygon fill="midnightblue" stroke="midnightblue" points="531.97,-194.34 524.07,-201.4 534.64,-200.8 531.97,-194.34"/>
</g>
<!-- Node11&#45;&gt;Node8 -->
<g id="edge15" class="edge">
<title>Node11&#45;&gt;Node8</title>
<path fill="none" stroke="midnightblue" d="M504.38,-192.88C516.37,-175.29 534.72,-151.07 555,-134 572.7,-119.1 595.48,-106.55 613.95,-97.69"/>
<polygon fill="midnightblue" stroke="midnightblue" points="501.33,-191.14 498.71,-201.41 507.16,-195.02 501.33,-191.14"/>
</g>
<!-- Node12 -->
<g id="node12" class="node">
<title>Node12</title>
<g id="a_node12"><a xlink:href="abcgApplication_8cpp.html" target="_top" xlink:title="Definition of abcg::Application members.">
<polygon fill="none" stroke="black" points="0,-134.5 0,-164.5 144,-164.5 144,-134.5 0,-134.5"/>
<text text-anchor="start" x="8" y="-152.5" font-family="Helvetica,sans-Serif" font-size="10.00">/home/harlen/dev/abcg</text>
<text text-anchor="middle" x="72" y="-141.5" font-family="Helvetica,sans-Serif" font-size="10.00">/abcg/abcgApplication.cpp</text>
</a>
</g>
</g>
<!-- Node11&#45;&gt;Node12 -->
<g id="edge14" class="edge">
<title>Node11&#45;&gt;Node12</title>
<path fill="none" stroke="midnightblue" d="M415.91,-204.58C348.59,-194.57 246.57,-179.2 158,-165 153.51,-164.28 148.9,-163.53 144.25,-162.77"/>
<polygon fill="midnightblue" stroke="midnightblue" points="415.59,-208.07 426,-206.08 416.62,-201.15 415.59,-208.07"/>
</g>
<!-- Node13 -->
<g id="node13" class="node">
<title>Node13</title>
<g id="a_node13"><a xlink:href="abcgVulkanWindow_8cpp.html" target="_top" xlink:title="Definition of abcg::VulkanWindow members.">
<polygon fill="none" stroke="black" points="48,-67.5 48,-97.5 208,-97.5 208,-67.5 48,-67.5"/>
<text text-anchor="start" x="56" y="-85.5" font-family="Helvetica,sans-Serif" font-size="10.00">/home/harlen/dev/abcg</text>
<text text-anchor="middle" x="128" y="-74.5" font-family="Helvetica,sans-Serif" font-size="10.00">/abcg/abcgVulkanWindow.cpp</text>
</a>
</g>
</g>
<!-- Node11&#45;&gt;Node13 -->
<g id="edge17" class="edge">
<title>Node11&#45;&gt;Node13</title>
<path fill="none" stroke="midnightblue" d="M415.77,-209.17C339.85,-201.62 227.95,-187.15 191,-165 164,-148.82 144.35,-116.36 134.7,-97.66"/>
<polygon fill="midnightblue" stroke="midnightblue" points="415.48,-212.66 425.77,-210.15 416.16,-205.69 415.48,-212.66"/>
</g>
<!-- Node14 -->
<g id="node14" class="node">
<title>Node14</title>
<g id="a_node14"><a xlink:href="abcgVulkanWindow_8hpp.html" target="_top" xlink:title="Header file of abcg::VulkanWindow.">
<polygon fill="none" stroke="black" points="200.5,-134.5 200.5,-164.5 361.5,-164.5 361.5,-134.5 200.5,-134.5"/>
<text text-anchor="start" x="208.5" y="-152.5" font-family="Helvetica,sans-Serif" font-size="10.00">/home/harlen/dev/abcg</text>
<text text-anchor="middle" x="281" y="-141.5" font-family="Helvetica,sans-Serif" font-size="10.00">/abcg/abcgVulkanWindow.hpp</text>
</a>
</g>
</g>
<!-- Node11&#45;&gt;Node14 -->
<g id="edge18" class="edge">
<title>Node11&#45;&gt;Node14</title>
<path fill="none" stroke="midnightblue" d="M435.16,-198.44C401.28,-187.91 358.33,-174.55 326.37,-164.61"/>
<polygon fill="midnightblue" stroke="midnightblue" points="434.32,-201.85 444.91,-201.48 436.4,-195.16 434.32,-201.85"/>
</g>
<!-- Node16 -->
<g id="node16" class="node">
<title>Node16</title>
<g id="a_node16"><a xlink:href="abcgWindow_8cpp.html" target="_top" xlink:title="Definition of abcg::Window members.">
<polygon fill="none" stroke="black" points="380,-134.5 380,-164.5 508,-164.5 508,-134.5 380,-134.5"/>
<text text-anchor="start" x="388" y="-152.5" font-family="Helvetica,sans-Serif" font-size="10.00">/home/harlen/dev/abcg</text>
<text text-anchor="middle" x="444" y="-141.5" font-family="Helvetica,sans-Serif" font-size="10.00">/abcg/abcgWindow.cpp</text>
</a>
</g>
</g>
<!-- Node11&#45;&gt;Node16 -->
<g id="edge22" class="edge">
<title>Node11&#45;&gt;Node16</title>
<path fill="none" stroke="midnightblue" d="M474.19,-193.16C467.48,-183.68 459.87,-172.92 453.96,-164.58"/>
<polygon fill="midnightblue" stroke="midnightblue" points="471.38,-195.26 480.02,-201.4 477.1,-191.21 471.38,-195.26"/>
</g>
<!-- Node14&#45;&gt;Node4 -->
<g id="edge19" class="edge">
<title>Node14&#45;&gt;Node4</title>
<path fill="none" stroke="midnightblue" d="M334.41,-131.23C366.93,-120.71 407.94,-107.45 438.47,-97.58"/>
<polygon fill="midnightblue" stroke="midnightblue" points="333.05,-127.99 324.61,-134.4 335.21,-134.65 333.05,-127.99"/>
</g>
<!-- Node14&#45;&gt;Node13 -->
<g id="edge21" class="edge">
<title>Node14&#45;&gt;Node13</title>
<path fill="none" stroke="midnightblue" d="M238.41,-130.41C213.98,-120.03 183.78,-107.2 161.13,-97.58"/>
<polygon fill="midnightblue" stroke="midnightblue" points="237.23,-133.71 247.8,-134.4 239.97,-127.26 237.23,-133.71"/>
</g>
<!-- Node15 -->
<g id="node15" class="node">
<title>Node15</title>
<g id="a_node15"><a xlink:href="abcgVulkanSwapchain_8cpp.html" target="_top" xlink:title="Definition of abcg::VulkanSwapchain.">
<polygon fill="none" stroke="black" points="226,-67.5 226,-97.5 400,-97.5 400,-67.5 226,-67.5"/>
<text text-anchor="start" x="234" y="-85.5" font-family="Helvetica,sans-Serif" font-size="10.00">/home/harlen/dev/abcg</text>
<text text-anchor="middle" x="313" y="-74.5" font-family="Helvetica,sans-Serif" font-size="10.00">/abcg/abcgVulkanSwapchain.cpp</text>
</a>
</g>
</g>
<!-- Node14&#45;&gt;Node15 -->
<g id="edge20" class="edge">
<title>Node14&#45;&gt;Node15</title>
<path fill="none" stroke="midnightblue" d="M292.43,-125.28C296.99,-116.02 302.09,-105.66 306.07,-97.58"/>
<polygon fill="midnightblue" stroke="midnightblue" points="289.22,-123.88 287.94,-134.4 295.5,-126.97 289.22,-123.88"/>
</g>
</g>
</svg>
