<?xml version="1.0" encoding="UTF-8" standalone="no"?>
<!DOCTYPE svg PUBLIC "-//W3C//DTD SVG 1.1//EN"
 "http://www.w3.org/Graphics/SVG/1.1/DTD/svg11.dtd">
<!-- Generated by graphviz version 2.43.0 (0)
 -->
<!-- Title: /home/harlen/dev/abcg/abcg/abcgVulkan.hpp Pages: 1 -->
<svg width="1332pt" height="478pt"
 viewBox="0.00 0.00 1331.76 478.00" xmlns="http://www.w3.org/2000/svg" xmlns:xlink="http://www.w3.org/1999/xlink">
<g id="graph0" class="graph" transform="scale(1 1) rotate(0) translate(4 474)">
<title>/home/harlen/dev/abcg/abcg/abcgVulkan.hpp</title>
<!-- Node1 -->
<g id="Node000001" class="node">
<title>Node1</title>
<g id="a_Node000001"><a xlink:title="Header file for Vulkan&#45;related functions and classes.">
<polygon fill="#999999" stroke="#666666" points="904.76,-470 776.76,-470 776.76,-440 904.76,-440 904.76,-470"/>
<text text-anchor="start" x="784.76" y="-458" font-family="Helvetica,sans-Serif" font-size="10.00">/home/harlen/dev/abcg</text>
<text text-anchor="middle" x="840.76" y="-447" font-family="Helvetica,sans-Serif" font-size="10.00">/abcg/abcgVulkan.hpp</text>
</a>
</g>
</g>
<!-- Node2 -->
<g id="Node000002" class="node">
<title>Node2</title>
<g id="a_Node000002"><a xlink:href="abcg_8hpp.html" target="_top" xlink:title="Shortcut header that includes the most common ABCg headers.">
<polygon fill="white" stroke="#666666" points="338.26,-349 277.26,-349 277.26,-330 338.26,-330 338.26,-349"/>
<text text-anchor="middle" x="307.76" y="-337" font-family="Helvetica,sans-Serif" font-size="10.00">abcg.hpp</text>
</a>
</g>
</g>
<!-- Node1&#45;&gt;Node2 -->
<g id="edge1_Node000001_Node000002" class="edge">
<title>Node1&#45;&gt;Node2</title>
<g id="a_edge1_Node000001_Node000002"><a xlink:title=" ">
<path fill="none" stroke="#63b8ff" d="M776.73,-440.37C665.67,-416.72 440.38,-368.74 348.33,-349.14"/>
<polygon fill="#63b8ff" stroke="#63b8ff" points="348.8,-345.66 338.29,-347 347.35,-352.51 348.8,-345.66"/>
</a>
</g>
</g>
<!-- Node15 -->
<g id="Node000015" class="node">
<title>Node15</title>
<g id="a_Node000015"><a xlink:href="abcgVulkanBuffer_8hpp.html" target="_top" xlink:title="Header file of abcg::VulkanBuffer.">
<polygon fill="white" stroke="#666666" points="844.76,-294 722.76,-294 722.76,-275 844.76,-275 844.76,-294"/>
<text text-anchor="middle" x="783.76" y="-282" font-family="Helvetica,sans-Serif" font-size="10.00">abcgVulkanBuffer.hpp</text>
</a>
</g>
</g>
<!-- Node1&#45;&gt;Node15 -->
<g id="edge20_Node000001_Node000015" class="edge">
<title>Node1&#45;&gt;Node15</title>
<g id="a_edge20_Node000001_Node000015"><a xlink:title=" ">
<path fill="none" stroke="#63b8ff" d="M829.36,-439.96C822.14,-430.37 813.16,-417.07 807.76,-404 793.92,-370.49 787.83,-328.25 785.33,-304.32"/>
<polygon fill="#63b8ff" stroke="#63b8ff" points="788.8,-303.79 784.38,-294.16 781.83,-304.44 788.8,-303.79"/>
</a>
</g>
</g>
<!-- Node24 -->
<g id="Node000024" class="node">
<title>Node24</title>
<g id="a_Node000024"><a xlink:href="abcgVulkanImage_8hpp.html" target="_top" xlink:title="Header file of abcg::VulkanImage.">
<polygon fill="white" stroke="#666666" points="986.76,-294 862.76,-294 862.76,-275 986.76,-275 986.76,-294"/>
<text text-anchor="middle" x="924.76" y="-282" font-family="Helvetica,sans-Serif" font-size="10.00">abcgVulkanImage.hpp</text>
</a>
</g>
</g>
<!-- Node1&#45;&gt;Node24 -->
<g id="edge31_Node000001_Node000024" class="edge">
<title>Node1&#45;&gt;Node24</title>
<g id="a_edge31_Node000001_Node000024"><a xlink:title=" ">
<path fill="none" stroke="#63b8ff" d="M842.63,-440C846.34,-415.94 856.31,-365.88 878.76,-330 885.71,-318.89 896.02,-308.58 905.11,-300.68"/>
<polygon fill="#63b8ff" stroke="#63b8ff" points="907.52,-303.23 913,-294.16 903.06,-297.84 907.52,-303.23"/>
</a>
</g>
</g>
<!-- Node25 -->
<g id="Node000025" class="node">
<title>Node25</title>
<g id="a_Node000025"><a xlink:href="abcgVulkanPipeline_8hpp.html" target="_top" xlink:title="Header file of abcg::VulkanPipeline.">
<polygon fill="white" stroke="#666666" points="1019.76,-404 887.76,-404 887.76,-385 1019.76,-385 1019.76,-404"/>
<text text-anchor="middle" x="953.76" y="-392" font-family="Helvetica,sans-Serif" font-size="10.00">abcgVulkanPipeline.hpp</text>
</a>
</g>
</g>
<!-- Node1&#45;&gt;Node25 -->
<g id="edge34_Node000001_Node000025" class="edge">
<title>Node1&#45;&gt;Node25</title>
<g id="a_edge34_Node000001_Node000025"><a xlink:title=" ">
<path fill="none" stroke="#63b8ff" d="M867.83,-439.99C886.01,-430.58 909.83,-418.24 927.78,-408.95"/>
<polygon fill="#63b8ff" stroke="#63b8ff" points="929.8,-411.84 937.07,-404.14 926.58,-405.63 929.8,-411.84"/>
</a>
</g>
</g>
<!-- Node26 -->
<g id="Node000026" class="node">
<title>Node26</title>
<g id="a_Node000026"><a xlink:href="abcgVulkanShader_8hpp.html" target="_top" xlink:title="Declaration of helper functions for creating Vulkan shaders.">
<polygon fill="white" stroke="#666666" points="1013.76,-349 887.76,-349 887.76,-330 1013.76,-330 1013.76,-349"/>
<text text-anchor="middle" x="950.76" y="-337" font-family="Helvetica,sans-Serif" font-size="10.00">abcgVulkanShader.hpp</text>
</a>
</g>
</g>
<!-- Node1&#45;&gt;Node26 -->
<g id="edge45_Node000001_Node000026" class="edge">
<title>Node1&#45;&gt;Node26</title>
<g id="a_edge45_Node000001_Node000026"><a xlink:title=" ">
<path fill="none" stroke="#63b8ff" d="M845.97,-439.97C852.06,-425 863.3,-401.25 878.76,-385 891.14,-371.99 908.11,-361.25 922.47,-353.59"/>
<polygon fill="#63b8ff" stroke="#63b8ff" points="924.13,-356.67 931.45,-349.01 920.95,-350.44 924.13,-356.67"/>
</a>
</g>
</g>
<!-- Node30 -->
<g id="Node000030" class="node">
<title>Node30</title>
<g id="a_Node000030"><a xlink:href="abcgVulkanWindow_8hpp.html" target="_top" xlink:title="Header file of abcg::VulkanWindow.">
<polygon fill="white" stroke="#666666" points="1230.26,-404 1099.26,-404 1099.26,-385 1230.26,-385 1230.26,-404"/>
<text text-anchor="middle" x="1164.76" y="-392" font-family="Helvetica,sans-Serif" font-size="10.00">abcgVulkanWindow.hpp</text>
</a>
</g>
</g>
<!-- Node1&#45;&gt;Node30 -->
<g id="edge46_Node000001_Node000030" class="edge">
<title>Node1&#45;&gt;Node30</title>
<g id="a_edge46_Node000001_Node000030"><a xlink:title=" ">
<path fill="none" stroke="#63b8ff" d="M904.77,-442.44C963.92,-431.76 1050.99,-416.04 1107.79,-405.79"/>
<polygon fill="#63b8ff" stroke="#63b8ff" points="1108.46,-409.22 1117.68,-404 1107.22,-402.33 1108.46,-409.22"/>
</a>
</g>
</g>
<!-- Node3 -->
<g id="Node000003" class="node">
<title>Node3</title>
<g id="a_Node000003"><a xlink:href="abcgApplication_8hpp.html" target="_top" xlink:title="Header file of abcg::Application.">
<polygon fill="white" stroke="#666666" points="496.76,-294 380.76,-294 380.76,-275 496.76,-275 496.76,-294"/>
<text text-anchor="middle" x="438.76" y="-282" font-family="Helvetica,sans-Serif" font-size="10.00">abcgApplication.hpp</text>
</a>
</g>
</g>
<!-- Node2&#45;&gt;Node3 -->
<g id="edge2_Node000002_Node000003" class="edge">
<title>Node2&#45;&gt;Node3</title>
<g id="a_edge2_Node000002_Node000003"><a xlink:title=" ">
<path fill="none" stroke="#63b8ff" d="M328.81,-329.98C350.17,-321.34 383.47,-307.87 407.83,-298.02"/>
<polygon fill="#63b8ff" stroke="#63b8ff" points="409.37,-301.17 417.33,-294.17 406.75,-294.68 409.37,-301.17"/>
</a>
</g>
</g>
<!-- Node5 -->
<g id="Node000005" class="node">
<title>Node5</title>
<g id="a_Node000005"><a xlink:href="abcgException_8hpp.html" target="_top" xlink:title="Header file of abcg::Exception and derived classes.">
<polygon fill="white" stroke="#666666" points="362.26,-294 253.26,-294 253.26,-275 362.26,-275 362.26,-294"/>
<text text-anchor="middle" x="307.76" y="-282" font-family="Helvetica,sans-Serif" font-size="10.00">abcgException.hpp</text>
</a>
</g>
</g>
<!-- Node2&#45;&gt;Node5 -->
<g id="edge4_Node000002_Node000005" class="edge">
<title>Node2&#45;&gt;Node5</title>
<g id="a_edge4_Node000002_Node000005"><a xlink:title=" ">
<path fill="none" stroke="#63b8ff" d="M307.76,-329.75C307.76,-322.8 307.76,-312.85 307.76,-304.13"/>
<polygon fill="#63b8ff" stroke="#63b8ff" points="311.26,-304.09 307.76,-294.09 304.26,-304.09 311.26,-304.09"/>
</a>
</g>
</g>
<!-- Node8 -->
<g id="Node000008" class="node">
<title>Node8</title>
<g id="a_Node000008"><a xlink:href="abcgExternal_8hpp.html" target="_top" xlink:title="Header file for including third&#45;party dependencies.">
<polygon fill="white" stroke="#666666" points="107.26,-239 6.26,-239 6.26,-220 107.26,-220 107.26,-239"/>
<text text-anchor="middle" x="56.76" y="-227" font-family="Helvetica,sans-Serif" font-size="10.00">abcgExternal.hpp</text>
</a>
</g>
</g>
<!-- Node2&#45;&gt;Node8 -->
<g id="edge8_Node000002_Node000008" class="edge">
<title>Node2&#45;&gt;Node8</title>
<g id="a_edge8_Node000002_Node000008"><a xlink:title=" ">
<path fill="none" stroke="#63b8ff" d="M277.17,-338.82C207.39,-338.83 39.78,-334.54 4.76,-294 -9.7,-277.26 12.5,-257.48 32.21,-244.49"/>
<polygon fill="#63b8ff" stroke="#63b8ff" points="34.32,-247.3 40.95,-239.04 30.62,-241.36 34.32,-247.3"/>
</a>
</g>
</g>
<!-- Node9 -->
<g id="Node000009" class="node">
<title>Node9</title>
<g id="a_Node000009"><a xlink:href="abcgTrackball_8hpp.html" target="_top" xlink:title="Header file of abcg::TrackBall.">
<polygon fill="white" stroke="#666666" points="117.76,-294 13.76,-294 13.76,-275 117.76,-275 117.76,-294"/>
<text text-anchor="middle" x="65.76" y="-282" font-family="Helvetica,sans-Serif" font-size="10.00">abcgTrackball.hpp</text>
</a>
</g>
</g>
<!-- Node2&#45;&gt;Node9 -->
<g id="edge9_Node000002_Node000009" class="edge">
<title>Node2&#45;&gt;Node9</title>
<g id="a_edge9_Node000002_Node000009"><a xlink:title=" ">
<path fill="none" stroke="#63b8ff" d="M277.11,-331.79C236.27,-322.84 163.5,-306.91 114.94,-296.27"/>
<polygon fill="#63b8ff" stroke="#63b8ff" points="115.48,-292.81 104.96,-294.09 113.98,-299.64 115.48,-292.81"/>
</a>
</g>
</g>
<!-- Node12 -->
<g id="Node000012" class="node">
<title>Node12</title>
<g id="a_Node000012"><a xlink:href="abcgUtil_8hpp.html" target="_top" xlink:title="Declaration of general utility functions.">
<polygon fill="white" stroke="#666666" points="592.76,-294 514.76,-294 514.76,-275 592.76,-275 592.76,-294"/>
<text text-anchor="middle" x="553.76" y="-282" font-family="Helvetica,sans-Serif" font-size="10.00">abcgUtil.hpp</text>
</a>
</g>
</g>
<!-- Node2&#45;&gt;Node12 -->
<g id="edge13_Node000002_Node000012" class="edge">
<title>Node2&#45;&gt;Node12</title>
<g id="a_edge13_Node000002_Node000012"><a xlink:title=" ">
<path fill="none" stroke="#63b8ff" d="M338.42,-331.89C380.11,-322.91 455.16,-306.74 504.72,-296.07"/>
<polygon fill="#63b8ff" stroke="#63b8ff" points="505.55,-299.47 514.58,-293.94 504.07,-292.63 505.55,-299.47"/>
</a>
</g>
</g>
<!-- Node14 -->
<g id="Node000014" class="node">
<title>Node14</title>
<g id="a_Node000014"><a xlink:href="abcgWindow_8hpp.html" target="_top" xlink:title="Header file of abcg::Window.">
<polygon fill="white" stroke="#666666" points="235.26,-294 136.26,-294 136.26,-275 235.26,-275 235.26,-294"/>
<text text-anchor="middle" x="185.76" y="-282" font-family="Helvetica,sans-Serif" font-size="10.00">abcgWindow.hpp</text>
</a>
</g>
</g>
<!-- Node2&#45;&gt;Node14 -->
<g id="edge16_Node000002_Node000014" class="edge">
<title>Node2&#45;&gt;Node14</title>
<g id="a_edge16_Node000002_Node000014"><a xlink:title=" ">
<path fill="none" stroke="#63b8ff" d="M288.16,-329.98C268.45,-321.42 237.81,-308.11 215.18,-298.28"/>
<polygon fill="#63b8ff" stroke="#63b8ff" points="216.29,-294.94 205.72,-294.17 213.5,-301.37 216.29,-294.94"/>
</a>
</g>
</g>
<!-- Node4 -->
<g id="Node000004" class="node">
<title>Node4</title>
<g id="a_Node000004"><a xlink:title=" ">
<polygon fill="#e0e0e0" stroke="#999999" points="470.76,-239 426.76,-239 426.76,-220 470.76,-220 470.76,-239"/>
<text text-anchor="middle" x="448.76" y="-227" font-family="Helvetica,sans-Serif" font-size="10.00">string</text>
</a>
</g>
</g>
<!-- Node3&#45;&gt;Node4 -->
<g id="edge3_Node000003_Node000004" class="edge">
<title>Node3&#45;&gt;Node4</title>
<g id="a_edge3_Node000003_Node000004"><a xlink:title=" ">
<path fill="none" stroke="#63b8ff" d="M440.41,-274.75C441.72,-267.8 443.6,-257.85 445.25,-249.13"/>
<polygon fill="#63b8ff" stroke="#63b8ff" points="448.73,-249.56 447.14,-239.09 441.85,-248.27 448.73,-249.56"/>
</a>
</g>
</g>
<!-- Node5&#45;&gt;Node4 -->
<g id="edge7_Node000005_Node000004" class="edge">
<title>Node5&#45;&gt;Node4</title>
<g id="a_edge7_Node000005_Node000004"><a xlink:title=" ">
<path fill="none" stroke="#63b8ff" d="M330.42,-274.98C353.88,-266.16 390.75,-252.31 417.1,-242.4"/>
<polygon fill="#63b8ff" stroke="#63b8ff" points="418.5,-245.61 426.63,-238.82 416.04,-239.06 418.5,-245.61"/>
</a>
</g>
</g>
<!-- Node6 -->
<g id="Node000006" class="node">
<title>Node6</title>
<g id="a_Node000006"><a xlink:title=" ">
<polygon fill="#e0e0e0" stroke="#999999" points="408.26,-239 315.26,-239 315.26,-220 408.26,-220 408.26,-239"/>
<text text-anchor="middle" x="361.76" y="-227" font-family="Helvetica,sans-Serif" font-size="10.00">source_location</text>
</a>
</g>
</g>
<!-- Node5&#45;&gt;Node6 -->
<g id="edge5_Node000005_Node000006" class="edge">
<title>Node5&#45;&gt;Node6</title>
<g id="a_edge5_Node000005_Node000006"><a xlink:title=" ">
<path fill="none" stroke="#63b8ff" d="M316.68,-274.75C324.54,-267.03 336.19,-255.6 345.68,-246.28"/>
<polygon fill="#63b8ff" stroke="#63b8ff" points="348.32,-248.59 353.01,-239.09 343.42,-243.6 348.32,-248.59"/>
</a>
</g>
</g>
<!-- Node7 -->
<g id="Node000007" class="node">
<title>Node7</title>
<g id="a_Node000007"><a xlink:title=" ">
<polygon fill="#e0e0e0" stroke="#999999" points="297.26,-239 232.26,-239 232.26,-220 297.26,-220 297.26,-239"/>
<text text-anchor="middle" x="264.76" y="-227" font-family="Helvetica,sans-Serif" font-size="10.00">stdexcept</text>
</a>
</g>
</g>
<!-- Node5&#45;&gt;Node7 -->
<g id="edge6_Node000005_Node000007" class="edge">
<title>Node5&#45;&gt;Node7</title>
<g id="a_edge6_Node000005_Node000007"><a xlink:title=" ">
<path fill="none" stroke="#63b8ff" d="M300.66,-274.75C294.59,-267.26 285.68,-256.28 278.25,-247.13"/>
<polygon fill="#63b8ff" stroke="#63b8ff" points="280.75,-244.65 271.73,-239.09 275.31,-249.06 280.75,-244.65"/>
</a>
</g>
</g>
<!-- Node9&#45;&gt;Node8 -->
<g id="edge10_Node000009_Node000008" class="edge">
<title>Node9&#45;&gt;Node8</title>
<g id="a_edge10_Node000009_Node000008"><a xlink:title=" ">
<path fill="none" stroke="#63b8ff" d="M64.27,-274.75C63.1,-267.8 61.4,-257.85 59.93,-249.13"/>
<polygon fill="#63b8ff" stroke="#63b8ff" points="63.34,-248.36 58.22,-239.09 56.44,-249.53 63.34,-248.36"/>
</a>
</g>
</g>
<!-- Node10 -->
<g id="Node000010" class="node">
<title>Node10</title>
<g id="a_Node000010"><a xlink:href="abcgTimer_8hpp.html" target="_top" xlink:title="Header file of abcg::Timer.">
<polygon fill="white" stroke="#666666" points="214.26,-239 125.26,-239 125.26,-220 214.26,-220 214.26,-239"/>
<text text-anchor="middle" x="169.76" y="-227" font-family="Helvetica,sans-Serif" font-size="10.00">abcgTimer.hpp</text>
</a>
</g>
</g>
<!-- Node9&#45;&gt;Node10 -->
<g id="edge11_Node000009_Node000010" class="edge">
<title>Node9&#45;&gt;Node10</title>
<g id="a_edge11_Node000009_Node000010"><a xlink:title=" ">
<path fill="none" stroke="#63b8ff" d="M82.47,-274.98C98.97,-266.57 124.46,-253.59 143.64,-243.81"/>
<polygon fill="#63b8ff" stroke="#63b8ff" points="145.43,-246.83 152.75,-239.17 142.25,-240.59 145.43,-246.83"/>
</a>
</g>
</g>
<!-- Node11 -->
<g id="Node000011" class="node">
<title>Node11</title>
<g id="a_Node000011"><a xlink:title=" ">
<polygon fill="#e0e0e0" stroke="#999999" points="194.76,-184 144.76,-184 144.76,-165 194.76,-165 194.76,-184"/>
<text text-anchor="middle" x="169.76" y="-172" font-family="Helvetica,sans-Serif" font-size="10.00">chrono</text>
</a>
</g>
</g>
<!-- Node10&#45;&gt;Node11 -->
<g id="edge12_Node000010_Node000011" class="edge">
<title>Node10&#45;&gt;Node11</title>
<g id="a_edge12_Node000010_Node000011"><a xlink:title=" ">
<path fill="none" stroke="#63b8ff" d="M169.76,-219.75C169.76,-212.8 169.76,-202.85 169.76,-194.13"/>
<polygon fill="#63b8ff" stroke="#63b8ff" points="173.26,-194.09 169.76,-184.09 166.26,-194.09 173.26,-194.09"/>
</a>
</g>
</g>
<!-- Node12&#45;&gt;Node4 -->
<g id="edge15_Node000012_Node000004" class="edge">
<title>Node12&#45;&gt;Node4</title>
<g id="a_edge15_Node000012_Node000004"><a xlink:title=" ">
<path fill="none" stroke="#63b8ff" d="M536.89,-274.98C520.15,-266.54 494.26,-253.47 474.87,-243.68"/>
<polygon fill="#63b8ff" stroke="#63b8ff" points="476.44,-240.55 465.94,-239.17 473.29,-246.8 476.44,-240.55"/>
</a>
</g>
</g>
<!-- Node13 -->
<g id="Node000013" class="node">
<title>Node13</title>
<g id="a_Node000013"><a xlink:title=" ">
<polygon fill="#e0e0e0" stroke="#999999" points="1031.26,-184 966.26,-184 966.26,-165 1031.26,-165 1031.26,-184"/>
<text text-anchor="middle" x="998.76" y="-172" font-family="Helvetica,sans-Serif" font-size="10.00">functional</text>
</a>
</g>
</g>
<!-- Node12&#45;&gt;Node13 -->
<g id="edge14_Node000012_Node000013" class="edge">
<title>Node12&#45;&gt;Node13</title>
<g id="a_edge14_Node000012_Node000013"><a xlink:title=" ">
<path fill="none" stroke="#63b8ff" d="M586.46,-274.92C634.15,-262.48 725.62,-238.84 803.76,-220 856.09,-207.39 916.54,-193.73 956.09,-184.92"/>
<polygon fill="#63b8ff" stroke="#63b8ff" points="956.92,-188.32 965.93,-182.74 955.41,-181.49 956.92,-188.32"/>
</a>
</g>
</g>
<!-- Node14&#45;&gt;Node4 -->
<g id="edge17_Node000014_Node000004" class="edge">
<title>Node14&#45;&gt;Node4</title>
<g id="a_edge17_Node000014_Node000004"><a xlink:title=" ">
<path fill="none" stroke="#63b8ff" d="M235.54,-274.94C280.26,-267.02 347.94,-254.46 416.34,-238.95"/>
<polygon fill="#63b8ff" stroke="#63b8ff" points="417.46,-242.28 426.43,-236.64 415.9,-235.46 417.46,-242.28"/>
</a>
</g>
</g>
<!-- Node14&#45;&gt;Node8 -->
<g id="edge18_Node000014_Node000008" class="edge">
<title>Node14&#45;&gt;Node8</title>
<g id="a_edge18_Node000014_Node000008"><a xlink:title=" ">
<path fill="none" stroke="#63b8ff" d="M165.03,-274.98C144,-266.34 111.21,-252.87 87.22,-243.02"/>
<polygon fill="#63b8ff" stroke="#63b8ff" points="88.44,-239.73 77.86,-239.17 85.78,-246.21 88.44,-239.73"/>
</a>
</g>
</g>
<!-- Node14&#45;&gt;Node10 -->
<g id="edge19_Node000014_Node000010" class="edge">
<title>Node14&#45;&gt;Node10</title>
<g id="a_edge19_Node000014_Node000010"><a xlink:title=" ">
<path fill="none" stroke="#63b8ff" d="M183.12,-274.75C181,-267.72 177.95,-257.62 175.3,-248.84"/>
<polygon fill="#63b8ff" stroke="#63b8ff" points="178.59,-247.65 172.35,-239.09 171.89,-249.67 178.59,-247.65"/>
</a>
</g>
</g>
<!-- Node16 -->
<g id="Node000016" class="node">
<title>Node16</title>
<g id="a_Node000016"><a xlink:href="abcgVulkanDevice_8hpp.html" target="_top" xlink:title="Header file of abcg::VulkanDevice.">
<polygon fill="white" stroke="#666666" points="1062.26,-239 935.26,-239 935.26,-220 1062.26,-220 1062.26,-239"/>
<text text-anchor="middle" x="998.76" y="-227" font-family="Helvetica,sans-Serif" font-size="10.00">abcgVulkanDevice.hpp</text>
</a>
</g>
</g>
<!-- Node15&#45;&gt;Node16 -->
<g id="edge21_Node000015_Node000016" class="edge">
<title>Node15&#45;&gt;Node16</title>
<g id="a_edge21_Node000015_Node000016"><a xlink:title=" ">
<path fill="none" stroke="#63b8ff" d="M818.3,-274.98C855.18,-265.89 913.75,-251.46 954.1,-241.51"/>
<polygon fill="#63b8ff" stroke="#63b8ff" points="955.08,-244.87 963.95,-239.08 953.4,-238.08 955.08,-244.87"/>
</a>
</g>
</g>
<!-- Node23 -->
<g id="Node000023" class="node">
<title>Node23</title>
<g id="a_Node000023"><a xlink:title=" ">
<polygon fill="#e0e0e0" stroke="#999999" points="886.76,-239 812.76,-239 812.76,-220 886.76,-220 886.76,-239"/>
<text text-anchor="middle" x="849.76" y="-227" font-family="Helvetica,sans-Serif" font-size="10.00">gsl/pointers</text>
</a>
</g>
</g>
<!-- Node15&#45;&gt;Node23 -->
<g id="edge30_Node000015_Node000023" class="edge">
<title>Node15&#45;&gt;Node23</title>
<g id="a_edge30_Node000015_Node000023"><a xlink:title=" ">
<path fill="none" stroke="#63b8ff" d="M794.37,-274.98C804.22,-267.07 819.11,-255.11 830.98,-245.58"/>
<polygon fill="#63b8ff" stroke="#63b8ff" points="833.36,-248.16 838.96,-239.17 828.98,-242.7 833.36,-248.16"/>
</a>
</g>
</g>
<!-- Node16&#45;&gt;Node13 -->
<g id="edge29_Node000016_Node000013" class="edge">
<title>Node16&#45;&gt;Node13</title>
<g id="a_edge29_Node000016_Node000013"><a xlink:title=" ">
<path fill="none" stroke="#63b8ff" d="M998.76,-219.75C998.76,-212.8 998.76,-202.85 998.76,-194.13"/>
<polygon fill="#63b8ff" stroke="#63b8ff" points="1002.26,-194.09 998.76,-184.09 995.26,-194.09 1002.26,-194.09"/>
</a>
</g>
</g>
<!-- Node17 -->
<g id="Node000017" class="node">
<title>Node17</title>
<g id="a_Node000017"><a xlink:href="abcgVulkanPhysicalDevice_8hpp.html" target="_top" xlink:title="Header file of abcg::VulkanPhysicalDevice.">
<polygon fill="white" stroke="#666666" points="1245.26,-184 1078.26,-184 1078.26,-165 1245.26,-165 1245.26,-184"/>
<text text-anchor="middle" x="1161.76" y="-172" font-family="Helvetica,sans-Serif" font-size="10.00">abcgVulkanPhysicalDevice.hpp</text>
</a>
</g>
</g>
<!-- Node16&#45;&gt;Node17 -->
<g id="edge22_Node000016_Node000017" class="edge">
<title>Node16&#45;&gt;Node17</title>
<g id="a_edge22_Node000016_Node000017"><a xlink:title=" ">
<path fill="none" stroke="#63b8ff" d="M1024.95,-219.98C1052.2,-211.13 1095.06,-197.19 1125.54,-187.28"/>
<polygon fill="#63b8ff" stroke="#63b8ff" points="1126.94,-190.5 1135.37,-184.08 1124.77,-183.85 1126.94,-190.5"/>
</a>
</g>
</g>
<!-- Node18 -->
<g id="Node000018" class="node">
<title>Node18</title>
<g id="a_Node000018"><a xlink:title=" ">
<polygon fill="#e0e0e0" stroke="#999999" points="924.76,-129 868.76,-129 868.76,-110 924.76,-110 924.76,-129"/>
<text text-anchor="middle" x="896.76" y="-117" font-family="Helvetica,sans-Serif" font-size="10.00">optional</text>
</a>
</g>
</g>
<!-- Node17&#45;&gt;Node18 -->
<g id="edge23_Node000017_Node000018" class="edge">
<title>Node17&#45;&gt;Node18</title>
<g id="a_edge23_Node000017_Node000018"><a xlink:title=" ">
<path fill="none" stroke="#63b8ff" d="M1119.18,-164.98C1068.24,-154.79 983.7,-137.89 934.83,-128.11"/>
<polygon fill="#63b8ff" stroke="#63b8ff" points="935.47,-124.67 924.97,-126.14 934.09,-131.54 935.47,-124.67"/>
</a>
</g>
</g>
<!-- Node19 -->
<g id="Node000019" class="node">
<title>Node19</title>
<g id="a_Node000019"><a xlink:href="abcgVulkanExternal_8hpp.html" target="_top" xlink:title="Header file for including Vulkan&#45;related dependencies.">
<polygon fill="white" stroke="#666666" points="1275.76,-74 1141.76,-74 1141.76,-55 1275.76,-55 1275.76,-74"/>
<text text-anchor="middle" x="1208.76" y="-62" font-family="Helvetica,sans-Serif" font-size="10.00">abcgVulkanExternal.hpp</text>
</a>
</g>
</g>
<!-- Node17&#45;&gt;Node19 -->
<g id="edge24_Node000017_Node000019" class="edge">
<title>Node17&#45;&gt;Node19</title>
<g id="a_edge24_Node000017_Node000019"><a xlink:title=" ">
<path fill="none" stroke="#63b8ff" d="M1163.62,-164.6C1166.42,-152.06 1172.29,-128.65 1180.76,-110 1185.05,-100.56 1191.04,-90.74 1196.38,-82.73"/>
<polygon fill="#63b8ff" stroke="#63b8ff" points="1199.41,-84.51 1202.21,-74.3 1193.65,-80.53 1199.41,-84.51"/>
</a>
</g>
</g>
<!-- Node22 -->
<g id="Node000022" class="node">
<title>Node22</title>
<g id="a_Node000022"><a xlink:href="abcgVulkanInstance_8hpp.html" target="_top" xlink:title="Header file of abcg::VulkanInstance.">
<polygon fill="white" stroke="#666666" points="1323.76,-129 1189.76,-129 1189.76,-110 1323.76,-110 1323.76,-129"/>
<text text-anchor="middle" x="1256.76" y="-117" font-family="Helvetica,sans-Serif" font-size="10.00">abcgVulkanInstance.hpp</text>
</a>
</g>
</g>
<!-- Node17&#45;&gt;Node22 -->
<g id="edge27_Node000017_Node000022" class="edge">
<title>Node17&#45;&gt;Node22</title>
<g id="a_edge27_Node000017_Node000022"><a xlink:title=" ">
<path fill="none" stroke="#63b8ff" d="M1177.02,-164.98C1191.89,-156.69 1214.74,-143.94 1232.18,-134.22"/>
<polygon fill="#63b8ff" stroke="#63b8ff" points="1234.19,-137.1 1241.22,-129.17 1230.78,-130.99 1234.19,-137.1"/>
</a>
</g>
</g>
<!-- Node20 -->
<g id="Node000020" class="node">
<title>Node20</title>
<g id="a_Node000020"><a xlink:title=" ">
<polygon fill="#e0e0e0" stroke="#999999" points="1185.26,-19 1138.26,-19 1138.26,0 1185.26,0 1185.26,-19"/>
<text text-anchor="middle" x="1161.76" y="-7" font-family="Helvetica,sans-Serif" font-size="10.00">volk.h</text>
</a>
</g>
</g>
<!-- Node19&#45;&gt;Node20 -->
<g id="edge25_Node000019_Node000020" class="edge">
<title>Node19&#45;&gt;Node20</title>
<g id="a_edge25_Node000019_Node000020"><a xlink:title=" ">
<path fill="none" stroke="#63b8ff" d="M1201,-54.75C1194.29,-47.18 1184.42,-36.05 1176.26,-26.84"/>
<polygon fill="#63b8ff" stroke="#63b8ff" points="1178.63,-24.25 1169.38,-19.09 1173.39,-28.89 1178.63,-24.25"/>
</a>
</g>
</g>
<!-- Node21 -->
<g id="Node000021" class="node">
<title>Node21</title>
<g id="a_Node000021"><a xlink:title=" ">
<polygon fill="#e0e0e0" stroke="#999999" points="1308.26,-19 1203.26,-19 1203.26,0 1308.26,0 1308.26,-19"/>
<text text-anchor="middle" x="1255.76" y="-7" font-family="Helvetica,sans-Serif" font-size="10.00">vulkan/vulkan.hpp</text>
</a>
</g>
</g>
<!-- Node19&#45;&gt;Node21 -->
<g id="edge26_Node000019_Node000021" class="edge">
<title>Node19&#45;&gt;Node21</title>
<g id="a_edge26_Node000019_Node000021"><a xlink:title=" ">
<path fill="none" stroke="#63b8ff" d="M1216.52,-54.75C1223.23,-47.18 1233.1,-36.05 1241.27,-26.84"/>
<polygon fill="#63b8ff" stroke="#63b8ff" points="1244.13,-28.89 1248.14,-19.09 1238.89,-24.25 1244.13,-28.89"/>
</a>
</g>
</g>
<!-- Node22&#45;&gt;Node19 -->
<g id="edge28_Node000022_Node000019" class="edge">
<title>Node22&#45;&gt;Node19</title>
<g id="a_edge28_Node000022_Node000019"><a xlink:title=" ">
<path fill="none" stroke="#63b8ff" d="M1248.83,-109.75C1241.91,-102.11 1231.7,-90.82 1223.31,-81.56"/>
<polygon fill="#63b8ff" stroke="#63b8ff" points="1225.85,-79.15 1216.54,-74.09 1220.66,-83.85 1225.85,-79.15"/>
</a>
</g>
</g>
<!-- Node24&#45;&gt;Node16 -->
<g id="edge32_Node000024_Node000016" class="edge">
<title>Node24&#45;&gt;Node16</title>
<g id="a_edge32_Node000024_Node000016"><a xlink:title=" ">
<path fill="none" stroke="#63b8ff" d="M936.65,-274.98C947.91,-266.92 965.05,-254.65 978.47,-245.03"/>
<polygon fill="#63b8ff" stroke="#63b8ff" points="980.56,-247.84 986.66,-239.17 976.49,-242.15 980.56,-247.84"/>
</a>
</g>
</g>
<!-- Node24&#45;&gt;Node23 -->
<g id="edge33_Node000024_Node000023" class="edge">
<title>Node24&#45;&gt;Node23</title>
<g id="a_edge33_Node000024_Node000023"><a xlink:title=" ">
<path fill="none" stroke="#63b8ff" d="M912.71,-274.98C901.3,-266.92 883.93,-254.65 870.33,-245.03"/>
<polygon fill="#63b8ff" stroke="#63b8ff" points="872.22,-242.08 862.03,-239.17 868.18,-247.8 872.22,-242.08"/>
</a>
</g>
</g>
<!-- Node25&#45;&gt;Node26 -->
<g id="edge35_Node000025_Node000026" class="edge">
<title>Node25&#45;&gt;Node26</title>
<g id="a_edge35_Node000025_Node000026"><a xlink:title=" ">
<path fill="none" stroke="#63b8ff" d="M953.27,-384.75C952.87,-377.8 952.31,-367.85 951.82,-359.13"/>
<polygon fill="#63b8ff" stroke="#63b8ff" points="955.31,-358.88 951.25,-349.09 948.32,-359.27 955.31,-358.88"/>
</a>
</g>
</g>
<!-- Node28 -->
<g id="Node000028" class="node">
<title>Node28</title>
<g id="a_Node000028"><a xlink:href="abcgVulkanSwapchain_8hpp.html" target="_top" xlink:title="Header file of abcg::VulkanSwapchain.">
<polygon fill="white" stroke="#666666" points="1177.76,-349 1031.76,-349 1031.76,-330 1177.76,-330 1177.76,-349"/>
<text text-anchor="middle" x="1104.76" y="-337" font-family="Helvetica,sans-Serif" font-size="10.00">abcgVulkanSwapchain.hpp</text>
</a>
</g>
</g>
<!-- Node25&#45;&gt;Node28 -->
<g id="edge40_Node000025_Node000028" class="edge">
<title>Node25&#45;&gt;Node28</title>
<g id="a_edge40_Node000025_Node000028"><a xlink:title=" ">
<path fill="none" stroke="#63b8ff" d="M978.02,-384.98C1003.08,-376.19 1042.39,-362.39 1070.59,-352.49"/>
<polygon fill="#63b8ff" stroke="#63b8ff" points="1071.78,-355.78 1080.06,-349.17 1069.46,-349.18 1071.78,-355.78"/>
</a>
</g>
</g>
<!-- Node26&#45;&gt;Node16 -->
<g id="edge39_Node000026_Node000016" class="edge">
<title>Node26&#45;&gt;Node16</title>
<g id="a_edge39_Node000026_Node000016"><a xlink:title=" ">
<path fill="none" stroke="#63b8ff" d="M963.64,-329.99C974.37,-322.08 988.96,-309.26 995.76,-294 1002.01,-279.96 1002.35,-262.42 1001.36,-249.32"/>
<polygon fill="#63b8ff" stroke="#63b8ff" points="1004.82,-248.73 1000.26,-239.17 997.86,-249.49 1004.82,-248.73"/>
</a>
</g>
</g>
<!-- Node27 -->
<g id="Node000027" class="node">
<title>Node27</title>
<g id="a_Node000027"><a xlink:href="abcgShader_8hpp.html" target="_top" xlink:title="Declaration of a structure for building shaders.">
<polygon fill="white" stroke="#666666" points="704.76,-294 610.76,-294 610.76,-275 704.76,-275 704.76,-294"/>
<text text-anchor="middle" x="657.76" y="-282" font-family="Helvetica,sans-Serif" font-size="10.00">abcgShader.hpp</text>
</a>
</g>
</g>
<!-- Node26&#45;&gt;Node27 -->
<g id="edge36_Node000026_Node000027" class="edge">
<title>Node26&#45;&gt;Node27</title>
<g id="a_edge36_Node000026_Node000027"><a xlink:title=" ">
<path fill="none" stroke="#63b8ff" d="M903.69,-329.98C852.36,-320.7 770.22,-305.84 715.16,-295.88"/>
<polygon fill="#63b8ff" stroke="#63b8ff" points="715.67,-292.42 705.21,-294.08 714.42,-299.31 715.67,-292.42"/>
</a>
</g>
</g>
<!-- Node27&#45;&gt;Node4 -->
<g id="edge38_Node000027_Node000004" class="edge">
<title>Node27&#45;&gt;Node4</title>
<g id="a_edge38_Node000027_Node000004"><a xlink:title=" ">
<path fill="none" stroke="#63b8ff" d="M624.18,-274.98C584.67,-264.97 519.55,-248.45 480.75,-238.61"/>
<polygon fill="#63b8ff" stroke="#63b8ff" points="481.57,-235.21 471.01,-236.14 479.84,-241.99 481.57,-235.21"/>
</a>
</g>
</g>
<!-- Node27&#45;&gt;Node18 -->
<g id="edge37_Node000027_Node000018" class="edge">
<title>Node27&#45;&gt;Node18</title>
<g id="a_edge37_Node000027_Node000018"><a xlink:title=" ">
<path fill="none" stroke="#63b8ff" d="M670.27,-274.97C708.98,-248.57 827.09,-168.02 875.61,-134.93"/>
<polygon fill="#63b8ff" stroke="#63b8ff" points="877.79,-137.67 884.08,-129.15 873.85,-131.89 877.79,-137.67"/>
</a>
</g>
</g>
<!-- Node28&#45;&gt;Node13 -->
<g id="edge41_Node000028_Node000013" class="edge">
<title>Node28&#45;&gt;Node13</title>
<g id="a_edge41_Node000028_Node000013"><a xlink:title=" ">
<path fill="none" stroke="#63b8ff" d="M1104.37,-329.82C1103,-308.85 1097,-254.63 1070.76,-220 1060.35,-206.26 1044.36,-195.77 1030.1,-188.43"/>
<polygon fill="#63b8ff" stroke="#63b8ff" points="1031.57,-185.26 1021.05,-184.07 1028.53,-191.56 1031.57,-185.26"/>
</a>
</g>
</g>
<!-- Node28&#45;&gt;Node16 -->
<g id="edge43_Node000028_Node000016" class="edge">
<title>Node28&#45;&gt;Node16</title>
<g id="a_edge43_Node000028_Node000016"><a xlink:title=" ">
<path fill="none" stroke="#63b8ff" d="M1096.09,-329.66C1078.22,-311.46 1037.09,-269.55 1014.43,-246.47"/>
<polygon fill="#63b8ff" stroke="#63b8ff" points="1016.76,-243.84 1007.26,-239.16 1011.77,-248.75 1016.76,-243.84"/>
</a>
</g>
</g>
<!-- Node28&#45;&gt;Node24 -->
<g id="edge44_Node000028_Node000024" class="edge">
<title>Node28&#45;&gt;Node24</title>
<g id="a_edge44_Node000028_Node000024"><a xlink:title=" ">
<path fill="none" stroke="#63b8ff" d="M1075.84,-329.98C1045.49,-321.05 997.59,-306.94 963.88,-297.02"/>
<polygon fill="#63b8ff" stroke="#63b8ff" points="964.49,-293.55 953.91,-294.08 962.51,-300.26 964.49,-293.55"/>
</a>
</g>
</g>
<!-- Node29 -->
<g id="Node000029" class="node">
<title>Node29</title>
<g id="a_Node000029"><a xlink:title=" ">
<polygon fill="#e0e0e0" stroke="#999999" points="1196.26,-294 1119.26,-294 1119.26,-275 1196.26,-275 1196.26,-294"/>
<text text-anchor="middle" x="1157.76" y="-282" font-family="Helvetica,sans-Serif" font-size="10.00">glm/fwd.hpp</text>
</a>
</g>
</g>
<!-- Node28&#45;&gt;Node29 -->
<g id="edge42_Node000028_Node000029" class="edge">
<title>Node28&#45;&gt;Node29</title>
<g id="a_edge42_Node000028_Node000029"><a xlink:title=" ">
<path fill="none" stroke="#63b8ff" d="M1113.51,-329.75C1121.23,-322.03 1132.67,-310.6 1141.98,-301.28"/>
<polygon fill="#63b8ff" stroke="#63b8ff" points="1144.58,-303.64 1149.17,-294.09 1139.63,-298.69 1144.58,-303.64"/>
</a>
</g>
</g>
<!-- Node30&#45;&gt;Node14 -->
<g id="edge51_Node000030_Node000014" class="edge">
<title>Node30&#45;&gt;Node14</title>
<g id="a_edge51_Node000030_Node000014"><a xlink:title=" ">
<path fill="none" stroke="#63b8ff" d="M1099.05,-387.26C949.43,-372.88 571.69,-335.51 245.54,-294.19"/>
<polygon fill="#63b8ff" stroke="#63b8ff" points="245.78,-290.69 235.42,-292.9 244.9,-297.64 245.78,-290.69"/>
</a>
</g>
</g>
<!-- Node30&#45;&gt;Node16 -->
<g id="edge47_Node000030_Node000016" class="edge">
<title>Node30&#45;&gt;Node16</title>
<g id="a_edge47_Node000030_Node000016"><a xlink:title=" ">
<path fill="none" stroke="#63b8ff" d="M1172.75,-384.78C1191.07,-363.72 1232.44,-309.3 1204.76,-275 1188.17,-254.45 1124.78,-242.92 1072.64,-236.78"/>
<polygon fill="#63b8ff" stroke="#63b8ff" points="1072.71,-233.27 1062.38,-235.62 1071.93,-240.22 1072.71,-233.27"/>
</a>
</g>
</g>
<!-- Node30&#45;&gt;Node17 -->
<g id="edge49_Node000030_Node000017" class="edge">
<title>Node30&#45;&gt;Node17</title>
<g id="a_edge49_Node000030_Node000017"><a xlink:title=" ">
<path fill="none" stroke="#63b8ff" d="M1180.63,-384.8C1192.98,-377.11 1209.38,-364.69 1217.76,-349 1233.31,-319.89 1232.84,-306.72 1223.76,-275 1214.48,-242.57 1191.23,-210.42 1175.99,-191.79"/>
<polygon fill="#63b8ff" stroke="#63b8ff" points="1178.55,-189.4 1169.43,-184 1173.2,-193.91 1178.55,-189.4"/>
</a>
</g>
</g>
<!-- Node30&#45;&gt;Node22 -->
<g id="edge48_Node000030_Node000022" class="edge">
<title>Node30&#45;&gt;Node22</title>
<g id="a_edge48_Node000030_Node000022"><a xlink:title=" ">
<path fill="none" stroke="#63b8ff" d="M1193.6,-384.95C1233.52,-371.12 1300.76,-339.77 1300.76,-285.5 1300.76,-285.5 1300.76,-285.5 1300.76,-228.5 1300.76,-194.42 1281.74,-158.46 1268.71,-137.83"/>
<polygon fill="#63b8ff" stroke="#63b8ff" points="1271.48,-135.68 1263.07,-129.25 1265.63,-139.53 1271.48,-135.68"/>
</a>
</g>
</g>
<!-- Node30&#45;&gt;Node28 -->
<g id="edge50_Node000030_Node000028" class="edge">
<title>Node30&#45;&gt;Node28</title>
<g id="a_edge50_Node000030_Node000028"><a xlink:title=" ">
<path fill="none" stroke="#63b8ff" d="M1155.12,-384.98C1146.25,-377.15 1132.89,-365.34 1122.15,-355.86"/>
<polygon fill="#63b8ff" stroke="#63b8ff" points="1124.39,-353.17 1114.58,-349.17 1119.75,-358.41 1124.39,-353.17"/>
</a>
</g>
</g>
</g>
</svg>
