<?xml version="1.0" encoding="UTF-8" standalone="no"?>
<!DOCTYPE svg PUBLIC "-//W3C//DTD SVG 1.1//EN"
 "http://www.w3.org/Graphics/SVG/1.1/DTD/svg11.dtd">
<!-- Generated by graphviz version 2.43.0 (0)
 -->
<!-- Title: /home/harlen/dev/abcg/abcg/abcgVulkanInstance.hpp Pages: 1 -->
<svg width="1115pt" height="500pt"
 viewBox="0.00 0.00 1115.00 500.00" xmlns="http://www.w3.org/2000/svg" xmlns:xlink="http://www.w3.org/1999/xlink">
<g id="graph0" class="graph" transform="scale(1 1) rotate(0) translate(4 496)">
<title>/home/harlen/dev/abcg/abcg/abcgVulkanInstance.hpp</title>
<!-- Node1 -->
<g id="Node000001" class="node">
<title>Node1</title>
<g id="a_Node000001"><a xlink:title="Header file of abcg::VulkanInstance.">
<polygon fill="#999999" stroke="#666666" points="899,-492 735,-492 735,-462 899,-462 899,-492"/>
<text text-anchor="start" x="743" y="-480" font-family="Helvetica,sans-Serif" font-size="10.00">/home/harlen/dev/abcg</text>
<text text-anchor="middle" x="817" y="-469" font-family="Helvetica,sans-Serif" font-size="10.00">/abcg/abcgVulkanInstance.hpp</text>
</a>
</g>
</g>
<!-- Node2 -->
<g id="Node000002" class="node">
<title>Node2</title>
<g id="a_Node000002"><a xlink:href="abcgVulkanInstance_8cpp.html" target="_top" xlink:title="Definition of abcg::VulkanInstance.">
<polygon fill="white" stroke="#666666" points="206.5,-30 43.5,-30 43.5,0 206.5,0 206.5,-30"/>
<text text-anchor="start" x="51.5" y="-18" font-family="Helvetica,sans-Serif" font-size="10.00">/home/harlen/dev/abcg</text>
<text text-anchor="middle" x="125" y="-7" font-family="Helvetica,sans-Serif" font-size="10.00">/abcg/abcgVulkanInstance.cpp</text>
</a>
</g>
</g>
<!-- Node1&#45;&gt;Node2 -->
<g id="edge1_Node000001_Node000002" class="edge">
<title>Node1&#45;&gt;Node2</title>
<g id="a_edge1_Node000001_Node000002"><a xlink:title=" ">
<path fill="none" stroke="#63b8ff" d="M724.66,-470.85C510.87,-457.71 0,-418.69 0,-346 0,-346 0,-346 0,-146 0,-90.89 59.08,-50.11 96.01,-30.01"/>
<polygon fill="#63b8ff" stroke="#63b8ff" points="724.73,-474.36 734.92,-471.48 725.15,-467.38 724.73,-474.36"/>
</a>
</g>
</g>
<!-- Node3 -->
<g id="Node000003" class="node">
<title>Node3</title>
<g id="a_Node000003"><a xlink:href="abcgVulkanPhysicalDevice_8cpp.html" target="_top" xlink:title="Definition of abcg::VulkanPhysicalDevice.">
<polygon fill="white" stroke="#666666" points="675,-360 479,-360 479,-330 675,-330 675,-360"/>
<text text-anchor="start" x="487" y="-348" font-family="Helvetica,sans-Serif" font-size="10.00">/home/harlen/dev/abcg</text>
<text text-anchor="middle" x="577" y="-337" font-family="Helvetica,sans-Serif" font-size="10.00">/abcg/abcgVulkanPhysicalDevice.cpp</text>
</a>
</g>
</g>
<!-- Node1&#45;&gt;Node3 -->
<g id="edge2_Node000001_Node000003" class="edge">
<title>Node1&#45;&gt;Node3</title>
<g id="a_edge2_Node000001_Node000003"><a xlink:title=" ">
<path fill="none" stroke="#63b8ff" d="M774.69,-457.73C754.54,-448.69 730.26,-437.32 709,-426 669.03,-404.72 624.3,-376.67 598.52,-360.06"/>
<polygon fill="#63b8ff" stroke="#63b8ff" points="773.37,-460.97 783.93,-461.83 776.21,-454.57 773.37,-460.97"/>
</a>
</g>
</g>
<!-- Node4 -->
<g id="Node000004" class="node">
<title>Node4</title>
<g id="a_Node000004"><a xlink:href="abcgVulkanPhysicalDevice_8hpp.html" target="_top" xlink:title="Header file of abcg::VulkanPhysicalDevice.">
<polygon fill="white" stroke="#666666" points="915.5,-426 718.5,-426 718.5,-396 915.5,-396 915.5,-426"/>
<text text-anchor="start" x="726.5" y="-414" font-family="Helvetica,sans-Serif" font-size="10.00">/home/harlen/dev/abcg</text>
<text text-anchor="middle" x="817" y="-403" font-family="Helvetica,sans-Serif" font-size="10.00">/abcg/abcgVulkanPhysicalDevice.hpp</text>
</a>
</g>
</g>
<!-- Node1&#45;&gt;Node4 -->
<g id="edge3_Node000001_Node000004" class="edge">
<title>Node1&#45;&gt;Node4</title>
<g id="a_edge3_Node000001_Node000004"><a xlink:title=" ">
<path fill="none" stroke="#63b8ff" d="M817,-451.54C817,-442.96 817,-433.61 817,-426.16"/>
<polygon fill="#63b8ff" stroke="#63b8ff" points="813.5,-451.8 817,-461.8 820.5,-451.8 813.5,-451.8"/>
</a>
</g>
</g>
<!-- Node16 -->
<g id="Node000016" class="node">
<title>Node16</title>
<g id="a_Node000016"><a xlink:href="abcgVulkanWindow_8hpp.html" target="_top" xlink:title="Header file of abcg::VulkanWindow.">
<polygon fill="white" stroke="#666666" points="915.5,-162 754.5,-162 754.5,-132 915.5,-132 915.5,-162"/>
<text text-anchor="start" x="762.5" y="-150" font-family="Helvetica,sans-Serif" font-size="10.00">/home/harlen/dev/abcg</text>
<text text-anchor="middle" x="835" y="-139" font-family="Helvetica,sans-Serif" font-size="10.00">/abcg/abcgVulkanWindow.hpp</text>
</a>
</g>
</g>
<!-- Node1&#45;&gt;Node16 -->
<g id="edge34_Node000001_Node000016" class="edge">
<title>Node1&#45;&gt;Node16</title>
<g id="a_edge34_Node000001_Node000016"><a xlink:title=" ">
<path fill="none" stroke="#63b8ff" d="M886.45,-457.77C901.67,-450.43 915.92,-440.2 925,-426 982.77,-335.59 883.65,-204.82 847.45,-162.08"/>
<polygon fill="#63b8ff" stroke="#63b8ff" points="884.63,-454.75 876.89,-461.98 887.46,-461.16 884.63,-454.75"/>
</a>
</g>
</g>
<!-- Node17 -->
<g id="Node000017" class="node">
<title>Node17</title>
<g id="a_Node000017"><a xlink:href="abcgVulkanWindow_8cpp.html" target="_top" xlink:title="Definition of abcg::VulkanWindow members.">
<polygon fill="white" stroke="#666666" points="1107,-96 947,-96 947,-66 1107,-66 1107,-96"/>
<text text-anchor="start" x="955" y="-84" font-family="Helvetica,sans-Serif" font-size="10.00">/home/harlen/dev/abcg</text>
<text text-anchor="middle" x="1027" y="-73" font-family="Helvetica,sans-Serif" font-size="10.00">/abcg/abcgVulkanWindow.cpp</text>
</a>
</g>
</g>
<!-- Node1&#45;&gt;Node17 -->
<g id="edge33_Node000001_Node000017" class="edge">
<title>Node1&#45;&gt;Node17</title>
<g id="a_edge33_Node000001_Node000017"><a xlink:title=" ">
<path fill="none" stroke="#63b8ff" d="M901.8,-459.24C960.83,-442.07 1029,-408.68 1029,-346 1029,-346 1029,-346 1029,-212 1029,-169.79 1027.93,-119.88 1027.36,-96.04"/>
<polygon fill="#63b8ff" stroke="#63b8ff" points="900.74,-455.91 892.04,-461.96 902.61,-462.65 900.74,-455.91"/>
</a>
</g>
</g>
<!-- Node4&#45;&gt;Node3 -->
<g id="edge30_Node000004_Node000003" class="edge">
<title>Node4&#45;&gt;Node3</title>
<g id="a_edge30_Node000004_Node000003"><a xlink:title=" ">
<path fill="none" stroke="#63b8ff" d="M754.2,-393.25C715.43,-382.91 666.25,-369.8 629.55,-360.01"/>
<polygon fill="#63b8ff" stroke="#63b8ff" points="753.77,-396.76 764.33,-395.95 755.57,-390 753.77,-396.76"/>
</a>
</g>
</g>
<!-- Node5 -->
<g id="Node000005" class="node">
<title>Node5</title>
<g id="a_Node000005"><a xlink:href="abcgVulkanDevice_8hpp.html" target="_top" xlink:title="Header file of abcg::VulkanDevice.">
<polygon fill="white" stroke="#666666" points="849,-360 693,-360 693,-330 849,-330 849,-360"/>
<text text-anchor="start" x="701" y="-348" font-family="Helvetica,sans-Serif" font-size="10.00">/home/harlen/dev/abcg</text>
<text text-anchor="middle" x="771" y="-337" font-family="Helvetica,sans-Serif" font-size="10.00">/abcg/abcgVulkanDevice.hpp</text>
</a>
</g>
</g>
<!-- Node4&#45;&gt;Node5 -->
<g id="edge4_Node000004_Node000005" class="edge">
<title>Node4&#45;&gt;Node5</title>
<g id="a_edge4_Node000004_Node000005"><a xlink:title=" ">
<path fill="none" stroke="#63b8ff" d="M800.85,-387.53C794.31,-378.43 786.95,-368.19 781.18,-360.16"/>
<polygon fill="#63b8ff" stroke="#63b8ff" points="798.11,-389.72 806.79,-395.8 803.8,-385.63 798.11,-389.72"/>
</a>
</g>
</g>
<!-- Node15 -->
<g id="Node000015" class="node">
<title>Node15</title>
<g id="a_Node000015"><a xlink:href="abcgVulkanSwapchain_8cpp.html" target="_top" xlink:title="Definition of abcg::VulkanSwapchain.">
<polygon fill="white" stroke="#666666" points="923,-96 749,-96 749,-66 923,-66 923,-96"/>
<text text-anchor="start" x="757" y="-84" font-family="Helvetica,sans-Serif" font-size="10.00">/home/harlen/dev/abcg</text>
<text text-anchor="middle" x="836" y="-73" font-family="Helvetica,sans-Serif" font-size="10.00">/abcg/abcgVulkanSwapchain.cpp</text>
</a>
</g>
</g>
<!-- Node4&#45;&gt;Node15 -->
<g id="edge31_Node000004_Node000015" class="edge">
<title>Node4&#45;&gt;Node15</title>
<g id="a_edge31_Node000004_Node000015"><a xlink:title=" ">
<path fill="none" stroke="#63b8ff" d="M837.95,-387.99C845.03,-379.69 852.53,-369.87 858,-360 903.07,-278.76 909.91,-253.67 925,-162 927.17,-148.84 931.73,-143.51 925,-132 915.24,-115.33 897.66,-103.79 880.68,-96.03"/>
<polygon fill="#63b8ff" stroke="#63b8ff" points="835.11,-385.92 831.09,-395.72 840.34,-390.56 835.11,-385.92"/>
</a>
</g>
</g>
<!-- Node4&#45;&gt;Node16 -->
<g id="edge32_Node000004_Node000016" class="edge">
<title>Node4&#45;&gt;Node16</title>
<g id="a_edge32_Node000004_Node000016"><a xlink:title=" ">
<path fill="none" stroke="#63b8ff" d="M839.9,-388.71C847.13,-380.52 854.22,-370.57 858,-360 883.37,-289.06 853.87,-196.94 840.71,-162.14"/>
<polygon fill="#63b8ff" stroke="#63b8ff" points="837.35,-386.32 833.03,-395.99 842.44,-391.12 837.35,-386.32"/>
</a>
</g>
</g>
<!-- Node6 -->
<g id="Node000006" class="node">
<title>Node6</title>
<g id="a_Node000006"><a xlink:href="abcgVulkanBuffer_8hpp.html" target="_top" xlink:title="Header file of abcg::VulkanBuffer.">
<polygon fill="white" stroke="#666666" points="409.5,-294 258.5,-294 258.5,-264 409.5,-264 409.5,-294"/>
<text text-anchor="start" x="266.5" y="-282" font-family="Helvetica,sans-Serif" font-size="10.00">/home/harlen/dev/abcg</text>
<text text-anchor="middle" x="334" y="-271" font-family="Helvetica,sans-Serif" font-size="10.00">/abcg/abcgVulkanBuffer.hpp</text>
</a>
</g>
</g>
<!-- Node5&#45;&gt;Node6 -->
<g id="edge5_Node000005_Node000006" class="edge">
<title>Node5&#45;&gt;Node6</title>
<g id="a_edge5_Node000005_Node000006"><a xlink:title=" ">
<path fill="none" stroke="#63b8ff" d="M682.57,-329.81C564.28,-312.47 532.74,-311.32 418,-294 415.22,-293.58 412.39,-293.15 409.54,-292.7"/>
<polygon fill="#63b8ff" stroke="#63b8ff" points="682.36,-333.32 692.76,-331.31 683.38,-326.39 682.36,-333.32"/>
</a>
</g>
</g>
<!-- Node10 -->
<g id="Node000010" class="node">
<title>Node10</title>
<g id="a_Node000010"><a xlink:href="abcgVulkanDevice_8cpp.html" target="_top" xlink:title="Definition of abcg::VulkanDevice.">
<polygon fill="white" stroke="#666666" points="582.5,-294 427.5,-294 427.5,-264 582.5,-264 582.5,-294"/>
<text text-anchor="start" x="435.5" y="-282" font-family="Helvetica,sans-Serif" font-size="10.00">/home/harlen/dev/abcg</text>
<text text-anchor="middle" x="505" y="-271" font-family="Helvetica,sans-Serif" font-size="10.00">/abcg/abcgVulkanDevice.cpp</text>
</a>
</g>
</g>
<!-- Node5&#45;&gt;Node10 -->
<g id="edge10_Node000005_Node000010" class="edge">
<title>Node5&#45;&gt;Node10</title>
<g id="a_edge10_Node000005_Node000010"><a xlink:title=" ">
<path fill="none" stroke="#63b8ff" d="M702.77,-327.58C659.58,-317.19 604.35,-303.9 563.24,-294.01"/>
<polygon fill="#63b8ff" stroke="#63b8ff" points="702.08,-331.02 712.63,-329.95 703.72,-324.21 702.08,-331.02"/>
</a>
</g>
</g>
<!-- Node11 -->
<g id="Node000011" class="node">
<title>Node11</title>
<g id="a_Node000011"><a xlink:href="abcgVulkanImage_8hpp.html" target="_top" xlink:title="Header file of abcg::VulkanImage.">
<polygon fill="white" stroke="#666666" points="753.5,-294 600.5,-294 600.5,-264 753.5,-264 753.5,-294"/>
<text text-anchor="start" x="608.5" y="-282" font-family="Helvetica,sans-Serif" font-size="10.00">/home/harlen/dev/abcg</text>
<text text-anchor="middle" x="677" y="-271" font-family="Helvetica,sans-Serif" font-size="10.00">/abcg/abcgVulkanImage.hpp</text>
</a>
</g>
</g>
<!-- Node5&#45;&gt;Node11 -->
<g id="edge11_Node000005_Node000011" class="edge">
<title>Node5&#45;&gt;Node11</title>
<g id="a_edge11_Node000005_Node000011"><a xlink:title=" ">
<path fill="none" stroke="#63b8ff" d="M741.67,-324.03C727.44,-314.34 710.69,-302.94 697.8,-294.16"/>
<polygon fill="#63b8ff" stroke="#63b8ff" points="739.9,-327.06 750.14,-329.8 743.84,-321.28 739.9,-327.06"/>
</a>
</g>
</g>
<!-- Node12 -->
<g id="Node000012" class="node">
<title>Node12</title>
<g id="a_Node000012"><a xlink:href="abcgVulkanSwapchain_8hpp.html" target="_top" xlink:title="Header file of abcg::VulkanSwapchain.">
<polygon fill="white" stroke="#666666" points="810.5,-228 635.5,-228 635.5,-198 810.5,-198 810.5,-228"/>
<text text-anchor="start" x="643.5" y="-216" font-family="Helvetica,sans-Serif" font-size="10.00">/home/harlen/dev/abcg</text>
<text text-anchor="middle" x="723" y="-205" font-family="Helvetica,sans-Serif" font-size="10.00">/abcg/abcgVulkanSwapchain.hpp</text>
</a>
</g>
</g>
<!-- Node5&#45;&gt;Node12 -->
<g id="edge28_Node000005_Node000012" class="edge">
<title>Node5&#45;&gt;Node12</title>
<g id="a_edge28_Node000005_Node000012"><a xlink:title=" ">
<path fill="none" stroke="#63b8ff" d="M771.66,-319.53C771.28,-303.24 769.2,-281.67 762,-264 756.51,-250.54 746.32,-237.67 737.72,-228.36"/>
<polygon fill="#63b8ff" stroke="#63b8ff" points="768.16,-319.86 771.68,-329.85 775.16,-319.84 768.16,-319.86"/>
</a>
</g>
</g>
<!-- Node5&#45;&gt;Node15 -->
<g id="edge27_Node000005_Node000015" class="edge">
<title>Node5&#45;&gt;Node15</title>
<g id="a_edge27_Node000005_Node000015"><a xlink:title=" ">
<path fill="none" stroke="#63b8ff" d="M803.32,-324.59C847.96,-295.65 926.53,-236.54 958,-162 963.19,-149.72 965.43,-143.07 958,-132 946.46,-114.8 927.83,-103.51 908.57,-96.1"/>
<polygon fill="#63b8ff" stroke="#63b8ff" points="801.43,-321.65 794.87,-329.97 805.18,-327.55 801.43,-321.65"/>
</a>
</g>
</g>
<!-- Node5&#45;&gt;Node16 -->
<g id="edge29_Node000005_Node000016" class="edge">
<title>Node5&#45;&gt;Node16</title>
<g id="a_edge29_Node000005_Node000016"><a xlink:title=" ">
<path fill="none" stroke="#63b8ff" d="M782.39,-320.36C793.12,-297.26 809.01,-260.88 819,-228 825.87,-205.37 830.59,-178.22 833.04,-162.08"/>
<polygon fill="#63b8ff" stroke="#63b8ff" points="779.09,-319.15 777.99,-329.68 785.42,-322.13 779.09,-319.15"/>
</a>
</g>
</g>
<!-- Node18 -->
<g id="Node000018" class="node">
<title>Node18</title>
<g id="a_Node000018"><a xlink:href="abcgVulkanShader_8hpp.html" target="_top" xlink:title="Declaration of helper functions for creating Vulkan shaders.">
<polygon fill="white" stroke="#666666" points="202.5,-228 47.5,-228 47.5,-198 202.5,-198 202.5,-228"/>
<text text-anchor="start" x="55.5" y="-216" font-family="Helvetica,sans-Serif" font-size="10.00">/home/harlen/dev/abcg</text>
<text text-anchor="middle" x="125" y="-205" font-family="Helvetica,sans-Serif" font-size="10.00">/abcg/abcgVulkanShader.hpp</text>
</a>
</g>
</g>
<!-- Node5&#45;&gt;Node18 -->
<g id="edge23_Node000005_Node000018" class="edge">
<title>Node5&#45;&gt;Node18</title>
<g id="a_edge23_Node000005_Node000018"><a xlink:title=" ">
<path fill="none" stroke="#63b8ff" d="M682.59,-329.93C489.38,-308.24 429.53,-355.39 249,-294 206.31,-279.48 163.71,-247.12 141.25,-228.3"/>
<polygon fill="#63b8ff" stroke="#63b8ff" points="682.45,-333.44 692.79,-331.12 683.26,-326.48 682.45,-333.44"/>
</a>
</g>
</g>
<!-- Node7 -->
<g id="Node000007" class="node">
<title>Node7</title>
<g id="a_Node000007"><a xlink:href="abcgVulkan_8hpp.html" target="_top" xlink:title="Header file for Vulkan&#45;related functions and classes.">
<polygon fill="white" stroke="#666666" points="414,-96 286,-96 286,-66 414,-66 414,-96"/>
<text text-anchor="start" x="294" y="-84" font-family="Helvetica,sans-Serif" font-size="10.00">/home/harlen/dev/abcg</text>
<text text-anchor="middle" x="350" y="-73" font-family="Helvetica,sans-Serif" font-size="10.00">/abcg/abcgVulkan.hpp</text>
</a>
</g>
</g>
<!-- Node6&#45;&gt;Node7 -->
<g id="edge6_Node000006_Node000007" class="edge">
<title>Node6&#45;&gt;Node7</title>
<g id="a_edge6_Node000006_Node000007"><a xlink:title=" ">
<path fill="none" stroke="#63b8ff" d="M283.45,-258.99C270.22,-251.44 257.56,-241.31 250,-228 243.41,-216.41 245.36,-210.5 250,-198 266.3,-154.13 307.45,-115.75 331.58,-96.05"/>
<polygon fill="#63b8ff" stroke="#63b8ff" points="282.16,-262.27 292.64,-263.81 285.41,-256.07 282.16,-262.27"/>
</a>
</g>
</g>
<!-- Node8 -->
<g id="Node000008" class="node">
<title>Node8</title>
<g id="a_Node000008"><a xlink:href="abcgVulkanBuffer_8cpp.html" target="_top" xlink:title="Definition of abcg::VulkanBuffer.">
<polygon fill="white" stroke="#666666" points="409,-228 259,-228 259,-198 409,-198 409,-228"/>
<text text-anchor="start" x="267" y="-216" font-family="Helvetica,sans-Serif" font-size="10.00">/home/harlen/dev/abcg</text>
<text text-anchor="middle" x="334" y="-205" font-family="Helvetica,sans-Serif" font-size="10.00">/abcg/abcgVulkanBuffer.cpp</text>
</a>
</g>
</g>
<!-- Node6&#45;&gt;Node8 -->
<g id="edge8_Node000006_Node000008" class="edge">
<title>Node6&#45;&gt;Node8</title>
<g id="a_edge8_Node000006_Node000008"><a xlink:title=" ">
<path fill="none" stroke="#63b8ff" d="M334,-253.54C334,-244.96 334,-235.61 334,-228.16"/>
<polygon fill="#63b8ff" stroke="#63b8ff" points="330.5,-253.8 334,-263.8 337.5,-253.8 330.5,-253.8"/>
</a>
</g>
</g>
<!-- Node9 -->
<g id="Node000009" class="node">
<title>Node9</title>
<g id="a_Node000009"><a xlink:href="abcgVulkanImage_8cpp.html" target="_top" xlink:title="Definition of abcg::VulkanImage.">
<polygon fill="white" stroke="#666666" points="579,-228 427,-228 427,-198 579,-198 579,-228"/>
<text text-anchor="start" x="435" y="-216" font-family="Helvetica,sans-Serif" font-size="10.00">/home/harlen/dev/abcg</text>
<text text-anchor="middle" x="503" y="-205" font-family="Helvetica,sans-Serif" font-size="10.00">/abcg/abcgVulkanImage.cpp</text>
</a>
</g>
</g>
<!-- Node6&#45;&gt;Node9 -->
<g id="edge9_Node000006_Node000009" class="edge">
<title>Node6&#45;&gt;Node9</title>
<g id="a_edge9_Node000006_Node000009"><a xlink:title=" ">
<path fill="none" stroke="#63b8ff" d="M380.68,-260.32C407.58,-250.14 440.92,-237.51 466,-228.01"/>
<polygon fill="#63b8ff" stroke="#63b8ff" points="379.2,-257.14 371.09,-263.95 381.68,-263.69 379.2,-257.14"/>
</a>
</g>
</g>
<!-- Node7&#45;&gt;Node2 -->
<g id="edge7_Node000007_Node000002" class="edge">
<title>Node7&#45;&gt;Node2</title>
<g id="a_edge7_Node000007_Node000002"><a xlink:title=" ">
<path fill="none" stroke="#63b8ff" d="M290.66,-63.12C254.38,-52.8 208.53,-39.76 174.26,-30.01"/>
<polygon fill="#63b8ff" stroke="#63b8ff" points="290.05,-66.59 300.62,-65.95 291.96,-59.85 290.05,-66.59"/>
</a>
</g>
</g>
<!-- Node11&#45;&gt;Node7 -->
<g id="edge12_Node000011_Node000007" class="edge">
<title>Node11&#45;&gt;Node7</title>
<g id="a_edge12_Node000011_Node000007"><a xlink:title=" ">
<path fill="none" stroke="#63b8ff" d="M654.78,-256.72C633.23,-236.33 601.81,-207.3 588,-198 551.69,-173.54 437.63,-121.25 381.64,-96.09"/>
<polygon fill="#63b8ff" stroke="#63b8ff" points="652.56,-259.45 662.23,-263.8 657.39,-254.37 652.56,-259.45"/>
</a>
</g>
</g>
<!-- Node11&#45;&gt;Node9 -->
<g id="edge13_Node000011_Node000009" class="edge">
<title>Node11&#45;&gt;Node9</title>
<g id="a_edge13_Node000011_Node000009"><a xlink:title=" ">
<path fill="none" stroke="#63b8ff" d="M629.3,-260.46C601.54,-250.25 567.03,-237.55 541.1,-228.01"/>
<polygon fill="#63b8ff" stroke="#63b8ff" points="628.22,-263.79 638.81,-263.95 630.64,-257.22 628.22,-263.79"/>
</a>
</g>
</g>
<!-- Node11&#45;&gt;Node12 -->
<g id="edge14_Node000011_Node000012" class="edge">
<title>Node11&#45;&gt;Node12</title>
<g id="a_edge14_Node000011_Node000012"><a xlink:title=" ">
<path fill="none" stroke="#63b8ff" d="M693.15,-255.53C699.69,-246.43 707.05,-236.19 712.82,-228.16"/>
<polygon fill="#63b8ff" stroke="#63b8ff" points="690.2,-253.63 687.21,-263.8 695.89,-257.72 690.2,-253.63"/>
</a>
</g>
</g>
<!-- Node13 -->
<g id="Node000013" class="node">
<title>Node13</title>
<g id="a_Node000013"><a xlink:href="abcgVulkanPipeline_8hpp.html" target="_top" xlink:title="Header file of abcg::VulkanPipeline.">
<polygon fill="white" stroke="#666666" points="697.5,-162 536.5,-162 536.5,-132 697.5,-132 697.5,-162"/>
<text text-anchor="start" x="544.5" y="-150" font-family="Helvetica,sans-Serif" font-size="10.00">/home/harlen/dev/abcg</text>
<text text-anchor="middle" x="617" y="-139" font-family="Helvetica,sans-Serif" font-size="10.00">/abcg/abcgVulkanPipeline.hpp</text>
</a>
</g>
</g>
<!-- Node12&#45;&gt;Node13 -->
<g id="edge15_Node000012_Node000013" class="edge">
<title>Node12&#45;&gt;Node13</title>
<g id="a_edge15_Node000012_Node000013"><a xlink:title=" ">
<path fill="none" stroke="#63b8ff" d="M691.03,-192.69C674.66,-182.82 655.11,-171.01 640.21,-162.01"/>
<polygon fill="#63b8ff" stroke="#63b8ff" points="689.37,-195.78 699.74,-197.95 692.99,-189.79 689.37,-195.78"/>
</a>
</g>
</g>
<!-- Node12&#45;&gt;Node15 -->
<g id="edge18_Node000012_Node000015" class="edge">
<title>Node12&#45;&gt;Node15</title>
<g id="a_edge18_Node000012_Node000015"><a xlink:title=" ">
<path fill="none" stroke="#63b8ff" d="M724.75,-187.46C727.07,-170.36 732.48,-147.86 745,-132 757.74,-115.87 777.17,-104.19 794.82,-96.2"/>
<polygon fill="#63b8ff" stroke="#63b8ff" points="721.22,-187.47 723.62,-197.79 728.18,-188.23 721.22,-187.47"/>
</a>
</g>
</g>
<!-- Node12&#45;&gt;Node16 -->
<g id="edge19_Node000012_Node000016" class="edge">
<title>Node12&#45;&gt;Node16</title>
<g id="a_edge19_Node000012_Node000016"><a xlink:title=" ">
<path fill="none" stroke="#63b8ff" d="M756.31,-192.97C773.69,-183.03 794.59,-171.09 810.48,-162.01"/>
<polygon fill="#63b8ff" stroke="#63b8ff" points="754.52,-189.95 747.58,-197.95 758,-196.03 754.52,-189.95"/>
</a>
</g>
</g>
<!-- Node13&#45;&gt;Node7 -->
<g id="edge16_Node000013_Node000007" class="edge">
<title>Node13&#45;&gt;Node7</title>
<g id="a_edge16_Node000013_Node000007"><a xlink:title=" ">
<path fill="none" stroke="#63b8ff" d="M548.51,-129.58C505.17,-119.19 449.73,-105.9 408.46,-96.01"/>
<polygon fill="#63b8ff" stroke="#63b8ff" points="547.87,-133.03 558.41,-131.95 549.5,-126.22 547.87,-133.03"/>
</a>
</g>
</g>
<!-- Node14 -->
<g id="Node000014" class="node">
<title>Node14</title>
<g id="a_Node000014"><a xlink:href="abcgVulkanPipeline_8cpp.html" target="_top" xlink:title="Definition of abcg::VulkanPipeline.">
<polygon fill="white" stroke="#666666" points="697.5,-96 536.5,-96 536.5,-66 697.5,-66 697.5,-96"/>
<text text-anchor="start" x="544.5" y="-84" font-family="Helvetica,sans-Serif" font-size="10.00">/home/harlen/dev/abcg</text>
<text text-anchor="middle" x="617" y="-73" font-family="Helvetica,sans-Serif" font-size="10.00">/abcg/abcgVulkanPipeline.cpp</text>
</a>
</g>
</g>
<!-- Node13&#45;&gt;Node14 -->
<g id="edge17_Node000013_Node000014" class="edge">
<title>Node13&#45;&gt;Node14</title>
<g id="a_edge17_Node000013_Node000014"><a xlink:title=" ">
<path fill="none" stroke="#63b8ff" d="M617,-121.54C617,-112.96 617,-103.61 617,-96.16"/>
<polygon fill="#63b8ff" stroke="#63b8ff" points="613.5,-121.8 617,-131.8 620.5,-121.8 613.5,-121.8"/>
</a>
</g>
</g>
<!-- Node16&#45;&gt;Node7 -->
<g id="edge20_Node000016_Node000007" class="edge">
<title>Node16&#45;&gt;Node7</title>
<g id="a_edge20_Node000016_Node000007"><a xlink:title=" ">
<path fill="none" stroke="#63b8ff" d="M744.37,-134.04C648.22,-121.35 498.77,-101.63 414.14,-90.46"/>
<polygon fill="#63b8ff" stroke="#63b8ff" points="744,-137.52 754.37,-135.36 744.91,-130.58 744,-137.52"/>
</a>
</g>
</g>
<!-- Node16&#45;&gt;Node15 -->
<g id="edge21_Node000016_Node000015" class="edge">
<title>Node16&#45;&gt;Node15</title>
<g id="a_edge21_Node000016_Node000015"><a xlink:title=" ">
<path fill="none" stroke="#63b8ff" d="M835.38,-121.54C835.52,-112.96 835.66,-103.61 835.78,-96.16"/>
<polygon fill="#63b8ff" stroke="#63b8ff" points="831.88,-121.74 835.22,-131.8 838.88,-121.85 831.88,-121.74"/>
</a>
</g>
</g>
<!-- Node16&#45;&gt;Node17 -->
<g id="edge22_Node000016_Node000017" class="edge">
<title>Node16&#45;&gt;Node17</title>
<g id="a_edge22_Node000016_Node000017"><a xlink:title=" ">
<path fill="none" stroke="#63b8ff" d="M886.83,-128.72C917.59,-118.47 956.1,-105.63 984.96,-96.01"/>
<polygon fill="#63b8ff" stroke="#63b8ff" points="885.52,-125.47 877.14,-131.95 887.73,-132.11 885.52,-125.47"/>
</a>
</g>
</g>
<!-- Node18&#45;&gt;Node7 -->
<g id="edge24_Node000018_Node000007" class="edge">
<title>Node18&#45;&gt;Node7</title>
<g id="a_edge24_Node000018_Node000007"><a xlink:title=" ">
<path fill="none" stroke="#63b8ff" d="M89.86,-192.47C65.22,-176.29 39.54,-152.69 57,-132 85.7,-97.98 208.76,-87.11 285.98,-83.63"/>
<polygon fill="#63b8ff" stroke="#63b8ff" points="88.13,-195.51 98.46,-197.86 91.85,-189.59 88.13,-195.51"/>
</a>
</g>
</g>
<!-- Node18&#45;&gt;Node13 -->
<g id="edge25_Node000018_Node000013" class="edge">
<title>Node18&#45;&gt;Node13</title>
<g id="a_edge25_Node000018_Node000013"><a xlink:title=" ">
<path fill="none" stroke="#63b8ff" d="M212.79,-200.58C304.59,-188.64 447.45,-170.06 536.45,-158.48"/>
<polygon fill="#63b8ff" stroke="#63b8ff" points="212.15,-197.13 202.69,-201.89 213.06,-204.08 212.15,-197.13"/>
</a>
</g>
</g>
<!-- Node19 -->
<g id="Node000019" class="node">
<title>Node19</title>
<g id="a_Node000019"><a xlink:href="abcgVulkanShader_8cpp.html" target="_top" xlink:title="Definition of helper functions for creating Vulkan shaders.">
<polygon fill="white" stroke="#666666" points="221.5,-162 66.5,-162 66.5,-132 221.5,-132 221.5,-162"/>
<text text-anchor="start" x="74.5" y="-150" font-family="Helvetica,sans-Serif" font-size="10.00">/home/harlen/dev/abcg</text>
<text text-anchor="middle" x="144" y="-139" font-family="Helvetica,sans-Serif" font-size="10.00">/abcg/abcgVulkanShader.cpp</text>
</a>
</g>
</g>
<!-- Node18&#45;&gt;Node19 -->
<g id="edge26_Node000018_Node000019" class="edge">
<title>Node18&#45;&gt;Node19</title>
<g id="a_edge26_Node000018_Node000019"><a xlink:title=" ">
<path fill="none" stroke="#63b8ff" d="M132.09,-188.11C134.69,-179.38 137.53,-169.78 139.8,-162.16"/>
<polygon fill="#63b8ff" stroke="#63b8ff" points="128.71,-187.21 129.22,-197.8 135.42,-189.21 128.71,-187.21"/>
</a>
</g>
</g>
</g>
</svg>
