<?xml version="1.0" encoding="UTF-8" standalone="no"?>
<!DOCTYPE svg PUBLIC "-//W3C//DTD SVG 1.1//EN"
 "http://www.w3.org/Graphics/SVG/1.1/DTD/svg11.dtd">
<!-- Generated by graphviz version 2.43.0 (0)
 -->
<!-- Title: /home/harlen/dev/abcg/abcg/abcgVulkanBuffer.cpp Pages: 1 -->
<svg width="597pt" height="375pt"
 viewBox="0.00 0.00 597.00 375.00" xmlns="http://www.w3.org/2000/svg" xmlns:xlink="http://www.w3.org/1999/xlink">
<g id="graph0" class="graph" transform="scale(1 1) rotate(0) translate(4 371)">
<title>/home/harlen/dev/abcg/abcg/abcgVulkanBuffer.cpp</title>
<!-- Node1 -->
<g id="node1" class="node">
<title>Node1</title>
<g id="a_node1"><a xlink:title="Definition of abcg::VulkanBuffer.">
<polygon fill="#bfbfbf" stroke="black" points="301,-336.5 301,-366.5 451,-366.5 451,-336.5 301,-336.5"/>
<text text-anchor="start" x="309" y="-354.5" font-family="Helvetica,sans-Serif" font-size="10.00">/home/harlen/dev/abcg</text>
<text text-anchor="middle" x="376" y="-343.5" font-family="Helvetica,sans-Serif" font-size="10.00">/abcg/abcgVulkanBuffer.cpp</text>
</a>
</g>
</g>
<!-- Node2 -->
<g id="node2" class="node">
<title>Node2</title>
<g id="a_node2"><a xlink:href="abcgVulkanBuffer_8hpp.html" target="_top" xlink:title="Header file of abcg::VulkanBuffer.">
<polygon fill="none" stroke="black" points="183,-280.5 183,-299.5 305,-299.5 305,-280.5 183,-280.5"/>
<text text-anchor="middle" x="244" y="-287.5" font-family="Helvetica,sans-Serif" font-size="10.00">abcgVulkanBuffer.hpp</text>
</a>
</g>
</g>
<!-- Node1&#45;&gt;Node2 -->
<g id="edge1" class="edge">
<title>Node1&#45;&gt;Node2</title>
<path fill="none" stroke="midnightblue" d="M344.72,-336.4C322.77,-326.51 293.66,-313.38 272.38,-303.79"/>
<polygon fill="midnightblue" stroke="midnightblue" points="273.76,-300.58 263.21,-299.66 270.89,-306.96 273.76,-300.58"/>
</g>
<!-- Node12 -->
<g id="node12" class="node">
<title>Node12</title>
<g id="a_node12"><a xlink:title=" ">
<polygon fill="none" stroke="#bfbfbf" points="323,-280.5 323,-299.5 371,-299.5 371,-280.5 323,-280.5"/>
<text text-anchor="middle" x="347" y="-287.5" font-family="Helvetica,sans-Serif" font-size="10.00">gsl/gsl</text>
</a>
</g>
</g>
<!-- Node1&#45;&gt;Node12 -->
<g id="edge12" class="edge">
<title>Node1&#45;&gt;Node12</title>
<path fill="none" stroke="midnightblue" d="M369.13,-336.4C365.09,-328.11 359.94,-317.55 355.63,-308.71"/>
<polygon fill="midnightblue" stroke="midnightblue" points="358.75,-307.11 351.22,-299.66 352.45,-310.18 358.75,-307.11"/>
</g>
<!-- Node13 -->
<g id="node13" class="node">
<title>Node13</title>
<g id="a_node13"><a xlink:title=" ">
<polygon fill="none" stroke="#bfbfbf" points="389,-280.5 389,-299.5 421,-299.5 421,-280.5 389,-280.5"/>
<text text-anchor="middle" x="405" y="-287.5" font-family="Helvetica,sans-Serif" font-size="10.00">set</text>
</a>
</g>
</g>
<!-- Node1&#45;&gt;Node13 -->
<g id="edge13" class="edge">
<title>Node1&#45;&gt;Node13</title>
<path fill="none" stroke="midnightblue" d="M382.87,-336.4C386.91,-328.11 392.06,-317.55 396.37,-308.71"/>
<polygon fill="midnightblue" stroke="midnightblue" points="399.55,-310.18 400.78,-299.66 393.25,-307.11 399.55,-310.18"/>
</g>
<!-- Node14 -->
<g id="node14" class="node">
<title>Node14</title>
<g id="a_node14"><a xlink:href="abcgException_8hpp.html" target="_top" xlink:title="Header file of abcg::Exception and derived classes.">
<polygon fill="none" stroke="black" points="439.5,-280.5 439.5,-299.5 548.5,-299.5 548.5,-280.5 439.5,-280.5"/>
<text text-anchor="middle" x="494" y="-287.5" font-family="Helvetica,sans-Serif" font-size="10.00">abcgException.hpp</text>
</a>
</g>
</g>
<!-- Node1&#45;&gt;Node14 -->
<g id="edge14" class="edge">
<title>Node1&#45;&gt;Node14</title>
<path fill="none" stroke="midnightblue" d="M403.96,-336.4C423.32,-326.64 448.91,-313.74 467.86,-304.18"/>
<polygon fill="midnightblue" stroke="midnightblue" points="469.48,-307.29 476.83,-299.66 466.33,-301.04 469.48,-307.29"/>
</g>
<!-- Node3 -->
<g id="node3" class="node">
<title>Node3</title>
<g id="a_node3"><a xlink:href="abcgVulkanDevice_8hpp.html" target="_top" xlink:title="Header file of abcg::VulkanDevice.">
<polygon fill="none" stroke="black" points="87.5,-224.5 87.5,-243.5 214.5,-243.5 214.5,-224.5 87.5,-224.5"/>
<text text-anchor="middle" x="151" y="-231.5" font-family="Helvetica,sans-Serif" font-size="10.00">abcgVulkanDevice.hpp</text>
</a>
</g>
</g>
<!-- Node2&#45;&gt;Node3 -->
<g id="edge2" class="edge">
<title>Node2&#45;&gt;Node3</title>
<path fill="none" stroke="midnightblue" d="M229.06,-280.32C214.41,-271.82 191.87,-258.73 174.76,-248.8"/>
<polygon fill="midnightblue" stroke="midnightblue" points="176.31,-245.65 165.9,-243.65 172.8,-251.7 176.31,-245.65"/>
</g>
<!-- Node11 -->
<g id="node11" class="node">
<title>Node11</title>
<g id="a_node11"><a xlink:title=" ">
<polygon fill="none" stroke="#bfbfbf" points="233,-224.5 233,-243.5 307,-243.5 307,-224.5 233,-224.5"/>
<text text-anchor="middle" x="270" y="-231.5" font-family="Helvetica,sans-Serif" font-size="10.00">gsl/pointers</text>
</a>
</g>
</g>
<!-- Node2&#45;&gt;Node11 -->
<g id="edge11" class="edge">
<title>Node2&#45;&gt;Node11</title>
<path fill="none" stroke="midnightblue" d="M248.29,-280.08C251.85,-272.69 257.02,-261.95 261.42,-252.81"/>
<polygon fill="midnightblue" stroke="midnightblue" points="264.6,-254.28 265.79,-243.75 258.29,-251.24 264.6,-254.28"/>
</g>
<!-- Node4 -->
<g id="node4" class="node">
<title>Node4</title>
<g id="a_node4"><a xlink:href="abcgVulkanPhysicalDevice_8hpp.html" target="_top" xlink:title="Header file of abcg::VulkanPhysicalDevice.">
<polygon fill="none" stroke="black" points="0.5,-168.5 0.5,-187.5 167.5,-187.5 167.5,-168.5 0.5,-168.5"/>
<text text-anchor="middle" x="84" y="-175.5" font-family="Helvetica,sans-Serif" font-size="10.00">abcgVulkanPhysicalDevice.hpp</text>
</a>
</g>
</g>
<!-- Node3&#45;&gt;Node4 -->
<g id="edge3" class="edge">
<title>Node3&#45;&gt;Node4</title>
<path fill="none" stroke="midnightblue" d="M140.24,-224.32C130.23,-216.26 115.11,-204.08 103.07,-194.37"/>
<polygon fill="midnightblue" stroke="midnightblue" points="104.94,-191.38 94.96,-187.83 100.55,-196.83 104.94,-191.38"/>
</g>
<!-- Node10 -->
<g id="node10" class="node">
<title>Node10</title>
<g id="a_node10"><a xlink:title=" ">
<polygon fill="none" stroke="#bfbfbf" points="185.5,-168.5 185.5,-187.5 250.5,-187.5 250.5,-168.5 185.5,-168.5"/>
<text text-anchor="middle" x="218" y="-175.5" font-family="Helvetica,sans-Serif" font-size="10.00">functional</text>
</a>
</g>
</g>
<!-- Node3&#45;&gt;Node10 -->
<g id="edge10" class="edge">
<title>Node3&#45;&gt;Node10</title>
<path fill="none" stroke="midnightblue" d="M161.76,-224.32C171.77,-216.26 186.89,-204.08 198.93,-194.37"/>
<polygon fill="midnightblue" stroke="midnightblue" points="201.45,-196.83 207.04,-187.83 197.06,-191.38 201.45,-196.83"/>
</g>
<!-- Node5 -->
<g id="node5" class="node">
<title>Node5</title>
<g id="a_node5"><a xlink:title=" ">
<polygon fill="none" stroke="#bfbfbf" points="0,-112.5 0,-131.5 56,-131.5 56,-112.5 0,-112.5"/>
<text text-anchor="middle" x="28" y="-119.5" font-family="Helvetica,sans-Serif" font-size="10.00">optional</text>
</a>
</g>
</g>
<!-- Node4&#45;&gt;Node5 -->
<g id="edge4" class="edge">
<title>Node4&#45;&gt;Node5</title>
<path fill="none" stroke="midnightblue" d="M75,-168.32C66.81,-160.42 54.49,-148.55 44.53,-138.94"/>
<polygon fill="midnightblue" stroke="midnightblue" points="46.79,-136.26 37.16,-131.83 41.93,-141.29 46.79,-136.26"/>
</g>
<!-- Node6 -->
<g id="node6" class="node">
<title>Node6</title>
<g id="a_node6"><a xlink:href="abcgVulkanExternal_8hpp.html" target="_top" xlink:title="Header file for including Vulkan&#45;related dependencies.">
<polygon fill="none" stroke="black" points="64,-56.5 64,-75.5 198,-75.5 198,-56.5 64,-56.5"/>
<text text-anchor="middle" x="131" y="-63.5" font-family="Helvetica,sans-Serif" font-size="10.00">abcgVulkanExternal.hpp</text>
</a>
</g>
</g>
<!-- Node4&#45;&gt;Node6 -->
<g id="edge5" class="edge">
<title>Node4&#45;&gt;Node6</title>
<path fill="none" stroke="midnightblue" d="M85.75,-168.32C88.48,-155.61 94.36,-131.32 103,-112 107.37,-102.24 113.54,-92.06 118.98,-83.86"/>
<polygon fill="midnightblue" stroke="midnightblue" points="121.9,-85.79 124.68,-75.57 116.13,-81.83 121.9,-85.79"/>
</g>
<!-- Node9 -->
<g id="node9" class="node">
<title>Node9</title>
<g id="a_node9"><a xlink:href="abcgVulkanInstance_8hpp.html" target="_top" xlink:title="Header file of abcg::VulkanInstance.">
<polygon fill="none" stroke="black" points="112,-112.5 112,-131.5 246,-131.5 246,-112.5 112,-112.5"/>
<text text-anchor="middle" x="179" y="-119.5" font-family="Helvetica,sans-Serif" font-size="10.00">abcgVulkanInstance.hpp</text>
</a>
</g>
</g>
<!-- Node4&#45;&gt;Node9 -->
<g id="edge8" class="edge">
<title>Node4&#45;&gt;Node9</title>
<path fill="none" stroke="midnightblue" d="M99.26,-168.32C114.22,-159.82 137.25,-146.73 154.73,-136.8"/>
<polygon fill="midnightblue" stroke="midnightblue" points="156.81,-139.64 163.77,-131.65 153.35,-133.55 156.81,-139.64"/>
</g>
<!-- Node7 -->
<g id="node7" class="node">
<title>Node7</title>
<g id="a_node7"><a xlink:title=" ">
<polygon fill="none" stroke="#bfbfbf" points="60.5,-0.5 60.5,-19.5 107.5,-19.5 107.5,-0.5 60.5,-0.5"/>
<text text-anchor="middle" x="84" y="-7.5" font-family="Helvetica,sans-Serif" font-size="10.00">volk.h</text>
</a>
</g>
</g>
<!-- Node6&#45;&gt;Node7 -->
<g id="edge6" class="edge">
<title>Node6&#45;&gt;Node7</title>
<path fill="none" stroke="midnightblue" d="M123.24,-56.08C116.46,-48.3 106.46,-36.8 98.24,-27.37"/>
<polygon fill="midnightblue" stroke="midnightblue" points="100.82,-25 91.62,-19.75 95.54,-29.59 100.82,-25"/>
</g>
<!-- Node8 -->
<g id="node8" class="node">
<title>Node8</title>
<g id="a_node8"><a xlink:title=" ">
<polygon fill="none" stroke="#bfbfbf" points="125.5,-0.5 125.5,-19.5 230.5,-19.5 230.5,-0.5 125.5,-0.5"/>
<text text-anchor="middle" x="178" y="-7.5" font-family="Helvetica,sans-Serif" font-size="10.00">vulkan/vulkan.hpp</text>
</a>
</g>
</g>
<!-- Node6&#45;&gt;Node8 -->
<g id="edge7" class="edge">
<title>Node6&#45;&gt;Node8</title>
<path fill="none" stroke="midnightblue" d="M138.76,-56.08C145.54,-48.3 155.54,-36.8 163.76,-27.37"/>
<polygon fill="midnightblue" stroke="midnightblue" points="166.46,-29.59 170.38,-19.75 161.18,-25 166.46,-29.59"/>
</g>
<!-- Node9&#45;&gt;Node6 -->
<g id="edge9" class="edge">
<title>Node9&#45;&gt;Node6</title>
<path fill="none" stroke="midnightblue" d="M171.07,-112.08C164.15,-104.3 153.93,-92.8 145.55,-83.37"/>
<polygon fill="midnightblue" stroke="midnightblue" points="148.04,-80.9 138.78,-75.75 142.81,-85.55 148.04,-80.9"/>
</g>
<!-- Node15 -->
<g id="node15" class="node">
<title>Node15</title>
<g id="a_node15"><a xlink:title=" ">
<polygon fill="none" stroke="#bfbfbf" points="350.5,-224.5 350.5,-243.5 443.5,-243.5 443.5,-224.5 350.5,-224.5"/>
<text text-anchor="middle" x="397" y="-231.5" font-family="Helvetica,sans-Serif" font-size="10.00">source_location</text>
</a>
</g>
</g>
<!-- Node14&#45;&gt;Node15 -->
<g id="edge15" class="edge">
<title>Node14&#45;&gt;Node15</title>
<path fill="none" stroke="midnightblue" d="M478.42,-280.32C463,-271.74 439.19,-258.49 421.29,-248.52"/>
<polygon fill="midnightblue" stroke="midnightblue" points="422.99,-245.46 412.55,-243.65 419.58,-251.58 422.99,-245.46"/>
</g>
<!-- Node16 -->
<g id="node16" class="node">
<title>Node16</title>
<g id="a_node16"><a xlink:title=" ">
<polygon fill="none" stroke="#bfbfbf" points="461.5,-224.5 461.5,-243.5 526.5,-243.5 526.5,-224.5 461.5,-224.5"/>
<text text-anchor="middle" x="494" y="-231.5" font-family="Helvetica,sans-Serif" font-size="10.00">stdexcept</text>
</a>
</g>
</g>
<!-- Node14&#45;&gt;Node16 -->
<g id="edge16" class="edge">
<title>Node14&#45;&gt;Node16</title>
<path fill="none" stroke="midnightblue" d="M494,-280.08C494,-273.01 494,-262.86 494,-253.99"/>
<polygon fill="midnightblue" stroke="midnightblue" points="497.5,-253.75 494,-243.75 490.5,-253.75 497.5,-253.75"/>
</g>
<!-- Node17 -->
<g id="node17" class="node">
<title>Node17</title>
<g id="a_node17"><a xlink:title=" ">
<polygon fill="none" stroke="#bfbfbf" points="545,-224.5 545,-243.5 589,-243.5 589,-224.5 545,-224.5"/>
<text text-anchor="middle" x="567" y="-231.5" font-family="Helvetica,sans-Serif" font-size="10.00">string</text>
</a>
</g>
</g>
<!-- Node14&#45;&gt;Node17 -->
<g id="edge17" class="edge">
<title>Node14&#45;&gt;Node17</title>
<path fill="none" stroke="midnightblue" d="M505.73,-280.32C516.84,-272.11 533.74,-259.6 546.98,-249.81"/>
<polygon fill="midnightblue" stroke="midnightblue" points="549.1,-252.59 555.06,-243.83 544.94,-246.97 549.1,-252.59"/>
</g>
</g>
</svg>
