<?xml version="1.0" encoding="UTF-8" standalone="no"?>
<!DOCTYPE svg PUBLIC "-//W3C//DTD SVG 1.1//EN"
 "http://www.w3.org/Graphics/SVG/1.1/DTD/svg11.dtd">
<!-- Generated by graphviz version 2.43.0 (0)
 -->
<!-- Title: /home/harlen/dev/abcg/abcg/abcgOpenGLError.hpp Pages: 1 -->
<svg width="345pt" height="104pt"
 viewBox="0.00 0.00 344.50 104.00" xmlns="http://www.w3.org/2000/svg" xmlns:xlink="http://www.w3.org/1999/xlink">
<g id="graph0" class="graph" transform="scale(1 1) rotate(0) translate(4 100)">
<title>/home/harlen/dev/abcg/abcg/abcgOpenGLError.hpp</title>
<!-- Node1 -->
<g id="Node000001" class="node">
<title>Node1</title>
<g id="a_Node000001"><a xlink:title="Header file of abcg::OpenGLError and derived classes.">
<polygon fill="#999999" stroke="#666666" points="238.5,-96 87.5,-96 87.5,-66 238.5,-66 238.5,-96"/>
<text text-anchor="start" x="95.5" y="-84" font-family="Helvetica,sans-Serif" font-size="10.00">/home/harlen/dev/abcg</text>
<text text-anchor="middle" x="163" y="-73" font-family="Helvetica,sans-Serif" font-size="10.00">/abcg/abcgOpenGLError.hpp</text>
</a>
</g>
</g>
<!-- Node2 -->
<g id="Node000002" class="node">
<title>Node2</title>
<g id="a_Node000002"><a xlink:href="abcgOpenGLError_8cpp.html" target="_top" xlink:title="Definition of abcg::OpenGLError members.">
<polygon fill="white" stroke="#666666" points="150,-30 0,-30 0,0 150,0 150,-30"/>
<text text-anchor="start" x="8" y="-18" font-family="Helvetica,sans-Serif" font-size="10.00">/home/harlen/dev/abcg</text>
<text text-anchor="middle" x="75" y="-7" font-family="Helvetica,sans-Serif" font-size="10.00">/abcg/abcgOpenGLError.cpp</text>
</a>
</g>
</g>
<!-- Node1&#45;&gt;Node2 -->
<g id="edge1_Node000001_Node000002" class="edge">
<title>Node1&#45;&gt;Node2</title>
<g id="a_edge1_Node000001_Node000002"><a xlink:title=" ">
<path fill="none" stroke="#63b8ff" d="M135.16,-59.75C121.93,-50.13 106.43,-38.86 94.48,-30.16"/>
<polygon fill="#63b8ff" stroke="#63b8ff" points="133.32,-62.75 143.47,-65.8 137.44,-57.08 133.32,-62.75"/>
</a>
</g>
</g>
<!-- Node3 -->
<g id="Node000003" class="node">
<title>Node3</title>
<g id="a_Node000003"><a xlink:href="abcgOpenGLFunction_8cpp.html" target="_top" xlink:title="Definition of OpenGL&#45;related error checking functions.">
<polygon fill="white" stroke="#666666" points="336.5,-30 167.5,-30 167.5,0 336.5,0 336.5,-30"/>
<text text-anchor="start" x="175.5" y="-18" font-family="Helvetica,sans-Serif" font-size="10.00">/home/harlen/dev/abcg</text>
<text text-anchor="middle" x="252" y="-7" font-family="Helvetica,sans-Serif" font-size="10.00">/abcg/abcgOpenGLFunction.cpp</text>
</a>
</g>
</g>
<!-- Node1&#45;&gt;Node3 -->
<g id="edge2_Node000001_Node000003" class="edge">
<title>Node1&#45;&gt;Node3</title>
<g id="a_edge2_Node000001_Node000003"><a xlink:title=" ">
<path fill="none" stroke="#63b8ff" d="M191.16,-59.75C204.54,-50.13 220.22,-38.86 232.3,-30.16"/>
<polygon fill="#63b8ff" stroke="#63b8ff" points="188.83,-57.12 182.75,-65.8 192.91,-62.8 188.83,-57.12"/>
</a>
</g>
</g>
</g>
</svg>
