<?xml version="1.0" encoding="UTF-8" standalone="no"?>
<!DOCTYPE svg PUBLIC "-//W3C//DTD SVG 1.1//EN"
 "http://www.w3.org/Graphics/SVG/1.1/DTD/svg11.dtd">
<!-- Generated by graphviz version 2.43.0 (0)
 -->
<!-- Title: /home/harlen/dev/abcg/abcg/abcgVulkanExternal.hpp Pages: 1 -->
<svg width="1106pt" height="566pt"
 viewBox="0.00 0.00 1106.00 566.00" xmlns="http://www.w3.org/2000/svg" xmlns:xlink="http://www.w3.org/1999/xlink">
<g id="graph0" class="graph" transform="scale(1 1) rotate(0) translate(4 562)">
<title>/home/harlen/dev/abcg/abcg/abcgVulkanExternal.hpp</title>
<!-- Node1 -->
<g id="Node000001" class="node">
<title>Node1</title>
<g id="a_Node000001"><a xlink:title="Header file for including Vulkan&#45;related dependencies.">
<polygon fill="#999999" stroke="#666666" points="231.5,-558 68.5,-558 68.5,-528 231.5,-528 231.5,-558"/>
<text text-anchor="start" x="76.5" y="-546" font-family="Helvetica,sans-Serif" font-size="10.00">/home/harlen/dev/abcg</text>
<text text-anchor="middle" x="150" y="-535" font-family="Helvetica,sans-Serif" font-size="10.00">/abcg/abcgVulkanExternal.hpp</text>
</a>
</g>
</g>
<!-- Node2 -->
<g id="Node000002" class="node">
<title>Node2</title>
<g id="a_Node000002"><a xlink:href="abcgVulkanInstance_8hpp.html" target="_top" xlink:title="Header file of abcg::VulkanInstance.">
<polygon fill="white" stroke="#666666" points="177,-492 13,-492 13,-462 177,-462 177,-492"/>
<text text-anchor="start" x="21" y="-480" font-family="Helvetica,sans-Serif" font-size="10.00">/home/harlen/dev/abcg</text>
<text text-anchor="middle" x="95" y="-469" font-family="Helvetica,sans-Serif" font-size="10.00">/abcg/abcgVulkanInstance.hpp</text>
</a>
</g>
</g>
<!-- Node1&#45;&gt;Node2 -->
<g id="edge1_Node000001_Node000002" class="edge">
<title>Node1&#45;&gt;Node2</title>
<g id="a_edge1_Node000001_Node000002"><a xlink:title=" ">
<path fill="none" stroke="#63b8ff" d="M131.17,-520.09C123.23,-510.85 114.22,-500.36 107.17,-492.16"/>
<polygon fill="#63b8ff" stroke="#63b8ff" points="128.62,-522.49 137.79,-527.8 133.93,-517.93 128.62,-522.49"/>
</a>
</g>
</g>
<!-- Node5 -->
<g id="Node000005" class="node">
<title>Node5</title>
<g id="a_Node000005"><a xlink:href="abcgVulkanPhysicalDevice_8hpp.html" target="_top" xlink:title="Header file of abcg::VulkanPhysicalDevice.">
<polygon fill="white" stroke="#666666" points="404.5,-426 207.5,-426 207.5,-396 404.5,-396 404.5,-426"/>
<text text-anchor="start" x="215.5" y="-414" font-family="Helvetica,sans-Serif" font-size="10.00">/home/harlen/dev/abcg</text>
<text text-anchor="middle" x="306" y="-403" font-family="Helvetica,sans-Serif" font-size="10.00">/abcg/abcgVulkanPhysicalDevice.hpp</text>
</a>
</g>
</g>
<!-- Node1&#45;&gt;Node5 -->
<g id="edge36_Node000001_Node000005" class="edge">
<title>Node1&#45;&gt;Node5</title>
<g id="a_edge36_Node000001_Node000005"><a xlink:title=" ">
<path fill="none" stroke="#63b8ff" d="M174.99,-521.18C206.96,-494.53 261.5,-449.09 289.03,-426.14"/>
<polygon fill="#63b8ff" stroke="#63b8ff" points="172.43,-518.75 166.99,-527.84 176.91,-524.13 172.43,-518.75"/>
</a>
</g>
</g>
<!-- Node3 -->
<g id="Node000003" class="node">
<title>Node3</title>
<g id="a_Node000003"><a xlink:href="abcgVulkanInstance_8cpp.html" target="_top" xlink:title="Definition of abcg::VulkanInstance.">
<polygon fill="white" stroke="#666666" points="385.5,-30 222.5,-30 222.5,0 385.5,0 385.5,-30"/>
<text text-anchor="start" x="230.5" y="-18" font-family="Helvetica,sans-Serif" font-size="10.00">/home/harlen/dev/abcg</text>
<text text-anchor="middle" x="304" y="-7" font-family="Helvetica,sans-Serif" font-size="10.00">/abcg/abcgVulkanInstance.cpp</text>
</a>
</g>
</g>
<!-- Node2&#45;&gt;Node3 -->
<g id="edge2_Node000002_Node000003" class="edge">
<title>Node2&#45;&gt;Node3</title>
<g id="a_edge2_Node000002_Node000003"><a xlink:title=" ">
<path fill="none" stroke="#63b8ff" d="M66.92,-455.39C38.91,-432.22 0,-391.8 0,-346 0,-346 0,-346 0,-146 0,-106.44 7.55,-90 39,-66 67.29,-44.41 155.41,-30.83 222.33,-23.36"/>
<polygon fill="#63b8ff" stroke="#63b8ff" points="64.86,-458.22 74.85,-461.73 69.23,-452.75 64.86,-458.22"/>
</a>
</g>
</g>
<!-- Node4 -->
<g id="Node000004" class="node">
<title>Node4</title>
<g id="a_Node000004"><a xlink:href="abcgVulkanPhysicalDevice_8cpp.html" target="_top" xlink:title="Definition of abcg::VulkanPhysicalDevice.">
<polygon fill="white" stroke="#666666" points="300,-360 104,-360 104,-330 300,-330 300,-360"/>
<text text-anchor="start" x="112" y="-348" font-family="Helvetica,sans-Serif" font-size="10.00">/home/harlen/dev/abcg</text>
<text text-anchor="middle" x="202" y="-337" font-family="Helvetica,sans-Serif" font-size="10.00">/abcg/abcgVulkanPhysicalDevice.cpp</text>
</a>
</g>
</g>
<!-- Node2&#45;&gt;Node4 -->
<g id="edge3_Node000002_Node000004" class="edge">
<title>Node2&#45;&gt;Node4</title>
<g id="a_edge3_Node000002_Node000004"><a xlink:title=" ">
<path fill="none" stroke="#63b8ff" d="M113.27,-453.8C135.34,-426.99 171.8,-382.7 190.36,-360.14"/>
<polygon fill="#63b8ff" stroke="#63b8ff" points="110.31,-451.89 106.65,-461.84 115.71,-456.34 110.31,-451.89"/>
</a>
</g>
</g>
<!-- Node2&#45;&gt;Node5 -->
<g id="edge4_Node000002_Node000005" class="edge">
<title>Node2&#45;&gt;Node5</title>
<g id="a_edge4_Node000002_Node000005"><a xlink:title=" ">
<path fill="none" stroke="#63b8ff" d="M151.08,-458.99C185.03,-448.69 227.81,-435.72 259.8,-426.01"/>
<polygon fill="#63b8ff" stroke="#63b8ff" points="149.86,-455.7 141.3,-461.95 151.89,-462.4 149.86,-455.7"/>
</a>
</g>
</g>
<!-- Node17 -->
<g id="Node000017" class="node">
<title>Node17</title>
<g id="a_Node000017"><a xlink:href="abcgVulkanWindow_8hpp.html" target="_top" xlink:title="Header file of abcg::VulkanWindow.">
<polygon fill="white" stroke="#666666" points="227.5,-162 66.5,-162 66.5,-132 227.5,-132 227.5,-162"/>
<text text-anchor="start" x="74.5" y="-150" font-family="Helvetica,sans-Serif" font-size="10.00">/home/harlen/dev/abcg</text>
<text text-anchor="middle" x="147" y="-139" font-family="Helvetica,sans-Serif" font-size="10.00">/abcg/abcgVulkanWindow.hpp</text>
</a>
</g>
</g>
<!-- Node2&#45;&gt;Node17 -->
<g id="edge35_Node000002_Node000017" class="edge">
<title>Node2&#45;&gt;Node17</title>
<g id="a_edge35_Node000002_Node000017"><a xlink:title=" ">
<path fill="none" stroke="#63b8ff" d="M89.27,-451.6C83.68,-425.59 76,-383.12 76,-346 76,-346 76,-346 76,-278 76,-230.94 112.28,-184.73 132.97,-162.2"/>
<polygon fill="#63b8ff" stroke="#63b8ff" points="85.93,-452.67 91.52,-461.67 92.76,-451.15 85.93,-452.67"/>
</a>
</g>
</g>
<!-- Node18 -->
<g id="Node000018" class="node">
<title>Node18</title>
<g id="a_Node000018"><a xlink:href="abcgVulkanWindow_8cpp.html" target="_top" xlink:title="Definition of abcg::VulkanWindow members.">
<polygon fill="white" stroke="#666666" points="208,-96 48,-96 48,-66 208,-66 208,-96"/>
<text text-anchor="start" x="56" y="-84" font-family="Helvetica,sans-Serif" font-size="10.00">/home/harlen/dev/abcg</text>
<text text-anchor="middle" x="128" y="-73" font-family="Helvetica,sans-Serif" font-size="10.00">/abcg/abcgVulkanWindow.cpp</text>
</a>
</g>
</g>
<!-- Node2&#45;&gt;Node18 -->
<g id="edge34_Node000002_Node000018" class="edge">
<title>Node2&#45;&gt;Node18</title>
<g id="a_edge34_Node000002_Node000018"><a xlink:title=" ">
<path fill="none" stroke="#63b8ff" d="M78.17,-453.3C61.36,-428.34 38,-386.38 38,-346 38,-346 38,-346 38,-212 38,-175.46 36.51,-162.26 57,-132 67.4,-116.65 84.19,-104.5 98.84,-96.03"/>
<polygon fill="#63b8ff" stroke="#63b8ff" points="75.42,-455.49 84.01,-461.7 81.17,-451.49 75.42,-455.49"/>
</a>
</g>
</g>
<!-- Node5&#45;&gt;Node4 -->
<g id="edge31_Node000005_Node000004" class="edge">
<title>Node5&#45;&gt;Node4</title>
<g id="a_edge31_Node000005_Node000004"><a xlink:title=" ">
<path fill="none" stroke="#63b8ff" d="M274.63,-390.69C258.57,-380.82 239.39,-369.01 224.77,-360.01"/>
<polygon fill="#63b8ff" stroke="#63b8ff" points="272.83,-393.69 283.18,-395.95 276.49,-387.73 272.83,-393.69"/>
</a>
</g>
</g>
<!-- Node6 -->
<g id="Node000006" class="node">
<title>Node6</title>
<g id="a_Node000006"><a xlink:href="abcgVulkanDevice_8hpp.html" target="_top" xlink:title="Header file of abcg::VulkanDevice.">
<polygon fill="white" stroke="#666666" points="589,-360 433,-360 433,-330 589,-330 589,-360"/>
<text text-anchor="start" x="441" y="-348" font-family="Helvetica,sans-Serif" font-size="10.00">/home/harlen/dev/abcg</text>
<text text-anchor="middle" x="511" y="-337" font-family="Helvetica,sans-Serif" font-size="10.00">/abcg/abcgVulkanDevice.hpp</text>
</a>
</g>
</g>
<!-- Node5&#45;&gt;Node6 -->
<g id="edge5_Node000005_Node000006" class="edge">
<title>Node5&#45;&gt;Node6</title>
<g id="a_edge5_Node000005_Node000006"><a xlink:title=" ">
<path fill="none" stroke="#63b8ff" d="M360.91,-392.86C393.83,-382.58 435.16,-369.68 466.12,-360.01"/>
<polygon fill="#63b8ff" stroke="#63b8ff" points="359.49,-389.63 350.99,-395.95 361.58,-396.32 359.49,-389.63"/>
</a>
</g>
</g>
<!-- Node16 -->
<g id="Node000016" class="node">
<title>Node16</title>
<g id="a_Node000016"><a xlink:href="abcgVulkanSwapchain_8cpp.html" target="_top" xlink:title="Definition of abcg::VulkanSwapchain.">
<polygon fill="white" stroke="#666666" points="1095,-96 921,-96 921,-66 1095,-66 1095,-96"/>
<text text-anchor="start" x="929" y="-84" font-family="Helvetica,sans-Serif" font-size="10.00">/home/harlen/dev/abcg</text>
<text text-anchor="middle" x="1008" y="-73" font-family="Helvetica,sans-Serif" font-size="10.00">/abcg/abcgVulkanSwapchain.cpp</text>
</a>
</g>
</g>
<!-- Node5&#45;&gt;Node16 -->
<g id="edge32_Node000005_Node000016" class="edge">
<title>Node5&#45;&gt;Node16</title>
<g id="a_edge32_Node000005_Node000016"><a xlink:title=" ">
<path fill="none" stroke="#63b8ff" d="M414.85,-403.26C631.93,-388.36 1098,-348.41 1098,-280 1098,-280 1098,-280 1098,-212 1098,-162.31 1053.01,-117.9 1026.65,-96.14"/>
<polygon fill="#63b8ff" stroke="#63b8ff" points="414.45,-399.78 404.71,-403.95 414.92,-406.77 414.45,-399.78"/>
</a>
</g>
</g>
<!-- Node5&#45;&gt;Node17 -->
<g id="edge33_Node000005_Node000017" class="edge">
<title>Node5&#45;&gt;Node17</title>
<g id="a_edge33_Node000005_Node000017"><a xlink:title=" ">
<path fill="none" stroke="#63b8ff" d="M312.69,-385.87C315.94,-369.3 317.53,-347.28 309,-330 297.35,-306.41 280.73,-312.48 262,-294 217.67,-250.27 174.82,-189.49 156.41,-162.23"/>
<polygon fill="#63b8ff" stroke="#63b8ff" points="309.22,-385.33 310.41,-395.86 316.05,-386.89 309.22,-385.33"/>
</a>
</g>
</g>
<!-- Node7 -->
<g id="Node000007" class="node">
<title>Node7</title>
<g id="a_Node000007"><a xlink:href="abcgVulkanBuffer_8hpp.html" target="_top" xlink:title="Header file of abcg::VulkanBuffer.">
<polygon fill="white" stroke="#666666" points="910.5,-294 759.5,-294 759.5,-264 910.5,-264 910.5,-294"/>
<text text-anchor="start" x="767.5" y="-282" font-family="Helvetica,sans-Serif" font-size="10.00">/home/harlen/dev/abcg</text>
<text text-anchor="middle" x="835" y="-271" font-family="Helvetica,sans-Serif" font-size="10.00">/abcg/abcgVulkanBuffer.hpp</text>
</a>
</g>
</g>
<!-- Node6&#45;&gt;Node7 -->
<g id="edge6_Node000006_Node000007" class="edge">
<title>Node6&#45;&gt;Node7</title>
<g id="a_edge6_Node000006_Node000007"><a xlink:title=" ">
<path fill="none" stroke="#63b8ff" d="M592.13,-327.98C645.01,-317.53 713.35,-304.03 764.06,-294.01"/>
<polygon fill="#63b8ff" stroke="#63b8ff" points="591.24,-324.58 582.1,-329.95 592.59,-331.45 591.24,-324.58"/>
</a>
</g>
</g>
<!-- Node11 -->
<g id="Node000011" class="node">
<title>Node11</title>
<g id="a_Node000011"><a xlink:href="abcgVulkanDevice_8cpp.html" target="_top" xlink:title="Definition of abcg::VulkanDevice.">
<polygon fill="white" stroke="#666666" points="463.5,-294 308.5,-294 308.5,-264 463.5,-264 463.5,-294"/>
<text text-anchor="start" x="316.5" y="-282" font-family="Helvetica,sans-Serif" font-size="10.00">/home/harlen/dev/abcg</text>
<text text-anchor="middle" x="386" y="-271" font-family="Helvetica,sans-Serif" font-size="10.00">/abcg/abcgVulkanDevice.cpp</text>
</a>
</g>
</g>
<!-- Node6&#45;&gt;Node11 -->
<g id="edge11_Node000006_Node000011" class="edge">
<title>Node6&#45;&gt;Node11</title>
<g id="a_edge11_Node000006_Node000011"><a xlink:title=" ">
<path fill="none" stroke="#63b8ff" d="M474.63,-325.38C455.07,-315.36 431.35,-303.22 413.37,-294.01"/>
<polygon fill="#63b8ff" stroke="#63b8ff" points="473.07,-328.51 483.57,-329.95 476.26,-322.28 473.07,-328.51"/>
</a>
</g>
</g>
<!-- Node12 -->
<g id="Node000012" class="node">
<title>Node12</title>
<g id="a_Node000012"><a xlink:href="abcgVulkanImage_8hpp.html" target="_top" xlink:title="Header file of abcg::VulkanImage.">
<polygon fill="white" stroke="#666666" points="717.5,-294 564.5,-294 564.5,-264 717.5,-264 717.5,-294"/>
<text text-anchor="start" x="572.5" y="-282" font-family="Helvetica,sans-Serif" font-size="10.00">/home/harlen/dev/abcg</text>
<text text-anchor="middle" x="641" y="-271" font-family="Helvetica,sans-Serif" font-size="10.00">/abcg/abcgVulkanImage.hpp</text>
</a>
</g>
</g>
<!-- Node6&#45;&gt;Node12 -->
<g id="edge12_Node000006_Node000012" class="edge">
<title>Node6&#45;&gt;Node12</title>
<g id="a_edge12_Node000006_Node000012"><a xlink:title=" ">
<path fill="none" stroke="#63b8ff" d="M548.55,-325.51C568.95,-315.47 593.76,-303.26 612.54,-294.01"/>
<polygon fill="#63b8ff" stroke="#63b8ff" points="546.95,-322.4 539.53,-329.95 550.05,-328.68 546.95,-322.4"/>
</a>
</g>
</g>
<!-- Node13 -->
<g id="Node000013" class="node">
<title>Node13</title>
<g id="a_Node000013"><a xlink:href="abcgVulkanSwapchain_8hpp.html" target="_top" xlink:title="Header file of abcg::VulkanSwapchain.">
<polygon fill="white" stroke="#666666" points="617.5,-228 442.5,-228 442.5,-198 617.5,-198 617.5,-228"/>
<text text-anchor="start" x="450.5" y="-216" font-family="Helvetica,sans-Serif" font-size="10.00">/home/harlen/dev/abcg</text>
<text text-anchor="middle" x="530" y="-205" font-family="Helvetica,sans-Serif" font-size="10.00">/abcg/abcgVulkanSwapchain.hpp</text>
</a>
</g>
</g>
<!-- Node6&#45;&gt;Node13 -->
<g id="edge29_Node000006_Node000013" class="edge">
<title>Node6&#45;&gt;Node13</title>
<g id="a_edge29_Node000006_Node000013"><a xlink:title=" ">
<path fill="none" stroke="#63b8ff" d="M514.55,-319.68C518.5,-292.7 524.72,-250.11 527.93,-228.14"/>
<polygon fill="#63b8ff" stroke="#63b8ff" points="511.05,-319.44 513.07,-329.84 517.98,-320.45 511.05,-319.44"/>
</a>
</g>
</g>
<!-- Node6&#45;&gt;Node16 -->
<g id="edge28_Node000006_Node000016" class="edge">
<title>Node6&#45;&gt;Node16</title>
<g id="a_edge28_Node000006_Node000016"><a xlink:title=" ">
<path fill="none" stroke="#63b8ff" d="M599.42,-342.74C683.67,-339.33 813.15,-328.29 920,-294 978.33,-275.28 1009.73,-280.68 1041,-228 1066.6,-184.87 1034.84,-123.79 1017.66,-96.34"/>
<polygon fill="#63b8ff" stroke="#63b8ff" points="599.23,-339.24 589.37,-343.12 599.5,-346.24 599.23,-339.24"/>
</a>
</g>
</g>
<!-- Node6&#45;&gt;Node17 -->
<g id="edge30_Node000006_Node000017" class="edge">
<title>Node6&#45;&gt;Node17</title>
<g id="a_edge30_Node000006_Node000017"><a xlink:title=" ">
<path fill="none" stroke="#63b8ff" d="M422.94,-335.86C382.87,-329.09 336.2,-316.69 299,-294 251.1,-264.78 258.36,-235.92 217,-198 202.25,-184.48 183.76,-171.41 169.49,-162.03"/>
<polygon fill="#63b8ff" stroke="#63b8ff" points="422.55,-339.34 432.97,-337.46 423.65,-332.43 422.55,-339.34"/>
</a>
</g>
</g>
<!-- Node19 -->
<g id="Node000019" class="node">
<title>Node19</title>
<g id="a_Node000019"><a xlink:href="abcgVulkanShader_8hpp.html" target="_top" xlink:title="Declaration of helper functions for creating Vulkan shaders.">
<polygon fill="white" stroke="#666666" points="424.5,-228 269.5,-228 269.5,-198 424.5,-198 424.5,-228"/>
<text text-anchor="start" x="277.5" y="-216" font-family="Helvetica,sans-Serif" font-size="10.00">/home/harlen/dev/abcg</text>
<text text-anchor="middle" x="347" y="-205" font-family="Helvetica,sans-Serif" font-size="10.00">/abcg/abcgVulkanShader.hpp</text>
</a>
</g>
</g>
<!-- Node6&#45;&gt;Node19 -->
<g id="edge24_Node000006_Node000019" class="edge">
<title>Node6&#45;&gt;Node19</title>
<g id="a_edge24_Node000006_Node000019"><a xlink:title=" ">
<path fill="none" stroke="#63b8ff" d="M504.74,-319.88C499.06,-302.32 489.08,-279.06 473,-264 454.96,-247.11 430.52,-235.66 407.97,-228.04"/>
<polygon fill="#63b8ff" stroke="#63b8ff" points="501.53,-321.37 507.73,-329.96 508.24,-319.38 501.53,-321.37"/>
</a>
</g>
</g>
<!-- Node8 -->
<g id="Node000008" class="node">
<title>Node8</title>
<g id="a_Node000008"><a xlink:href="abcgVulkan_8hpp.html" target="_top" xlink:title="Header file for Vulkan&#45;related functions and classes.">
<polygon fill="white" stroke="#666666" points="672,-96 544,-96 544,-66 672,-66 672,-96"/>
<text text-anchor="start" x="552" y="-84" font-family="Helvetica,sans-Serif" font-size="10.00">/home/harlen/dev/abcg</text>
<text text-anchor="middle" x="608" y="-73" font-family="Helvetica,sans-Serif" font-size="10.00">/abcg/abcgVulkan.hpp</text>
</a>
</g>
</g>
<!-- Node7&#45;&gt;Node8 -->
<g id="edge7_Node000007_Node000008" class="edge">
<title>Node7&#45;&gt;Node8</title>
<g id="a_edge7_Node000007_Node000008"><a xlink:title=" ">
<path fill="none" stroke="#63b8ff" d="M841.29,-253.63C844.21,-236.78 845.11,-214.52 835,-198 799.77,-140.43 725.96,-110.29 672.04,-95.32"/>
<polygon fill="#63b8ff" stroke="#63b8ff" points="837.78,-253.3 839.17,-263.8 844.63,-254.72 837.78,-253.3"/>
</a>
</g>
</g>
<!-- Node9 -->
<g id="Node000009" class="node">
<title>Node9</title>
<g id="a_Node000009"><a xlink:href="abcgVulkanBuffer_8cpp.html" target="_top" xlink:title="Definition of abcg::VulkanBuffer.">
<polygon fill="white" stroke="#666666" points="1032,-228 882,-228 882,-198 1032,-198 1032,-228"/>
<text text-anchor="start" x="890" y="-216" font-family="Helvetica,sans-Serif" font-size="10.00">/home/harlen/dev/abcg</text>
<text text-anchor="middle" x="957" y="-205" font-family="Helvetica,sans-Serif" font-size="10.00">/abcg/abcgVulkanBuffer.cpp</text>
</a>
</g>
</g>
<!-- Node7&#45;&gt;Node9 -->
<g id="edge9_Node000007_Node000009" class="edge">
<title>Node7&#45;&gt;Node9</title>
<g id="a_edge9_Node000007_Node000009"><a xlink:title=" ">
<path fill="none" stroke="#63b8ff" d="M870.76,-259.24C889.8,-249.25 912.82,-237.18 930.29,-228.01"/>
<polygon fill="#63b8ff" stroke="#63b8ff" points="869,-256.21 861.77,-263.95 872.25,-262.41 869,-256.21"/>
</a>
</g>
</g>
<!-- Node10 -->
<g id="Node000010" class="node">
<title>Node10</title>
<g id="a_Node000010"><a xlink:href="abcgVulkanImage_8cpp.html" target="_top" xlink:title="Definition of abcg::VulkanImage.">
<polygon fill="white" stroke="#666666" points="826,-228 674,-228 674,-198 826,-198 826,-228"/>
<text text-anchor="start" x="682" y="-216" font-family="Helvetica,sans-Serif" font-size="10.00">/home/harlen/dev/abcg</text>
<text text-anchor="middle" x="750" y="-205" font-family="Helvetica,sans-Serif" font-size="10.00">/abcg/abcgVulkanImage.cpp</text>
</a>
</g>
</g>
<!-- Node7&#45;&gt;Node10 -->
<g id="edge10_Node000007_Node000010" class="edge">
<title>Node7&#45;&gt;Node10</title>
<g id="a_edge10_Node000007_Node000010"><a xlink:title=" ">
<path fill="none" stroke="#63b8ff" d="M808.11,-257.75C795.33,-248.13 780.36,-236.86 768.81,-228.16"/>
<polygon fill="#63b8ff" stroke="#63b8ff" points="806.04,-260.58 816.14,-263.8 810.25,-254.99 806.04,-260.58"/>
</a>
</g>
</g>
<!-- Node8&#45;&gt;Node3 -->
<g id="edge8_Node000008_Node000003" class="edge">
<title>Node8&#45;&gt;Node3</title>
<g id="a_edge8_Node000008_Node000003"><a xlink:title=" ">
<path fill="none" stroke="#63b8ff" d="M533.83,-64.38C483.98,-53.89 418.84,-40.18 370.64,-30.03"/>
<polygon fill="#63b8ff" stroke="#63b8ff" points="533.39,-67.87 543.9,-66.51 534.84,-61.02 533.39,-67.87"/>
</a>
</g>
</g>
<!-- Node12&#45;&gt;Node8 -->
<g id="edge13_Node000012_Node000008" class="edge">
<title>Node12&#45;&gt;Node8</title>
<g id="a_edge13_Node000012_Node000008"><a xlink:title=" ">
<path fill="none" stroke="#63b8ff" d="M636.94,-253.89C629.99,-212.58 615.99,-129.48 610.4,-96.23"/>
<polygon fill="#63b8ff" stroke="#63b8ff" points="633.51,-254.62 638.63,-263.9 640.42,-253.46 633.51,-254.62"/>
</a>
</g>
</g>
<!-- Node12&#45;&gt;Node10 -->
<g id="edge14_Node000012_Node000010" class="edge">
<title>Node12&#45;&gt;Node10</title>
<g id="a_edge14_Node000012_Node000010"><a xlink:title=" ">
<path fill="none" stroke="#63b8ff" d="M673.88,-258.69C690.71,-248.82 710.81,-237.01 726.14,-228.01"/>
<polygon fill="#63b8ff" stroke="#63b8ff" points="671.77,-255.87 664.92,-263.95 675.32,-261.91 671.77,-255.87"/>
</a>
</g>
</g>
<!-- Node12&#45;&gt;Node13 -->
<g id="edge15_Node000012_Node000013" class="edge">
<title>Node12&#45;&gt;Node13</title>
<g id="a_edge15_Node000012_Node000013"><a xlink:title=" ">
<path fill="none" stroke="#63b8ff" d="M607.52,-258.69C590.38,-248.82 569.91,-237.01 554.3,-228.01"/>
<polygon fill="#63b8ff" stroke="#63b8ff" points="606.23,-261.99 616.64,-263.95 609.73,-255.93 606.23,-261.99"/>
</a>
</g>
</g>
<!-- Node14 -->
<g id="Node000014" class="node">
<title>Node14</title>
<g id="a_Node000014"><a xlink:href="abcgVulkanPipeline_8hpp.html" target="_top" xlink:title="Header file of abcg::VulkanPipeline.">
<polygon fill="white" stroke="#666666" points="579.5,-162 418.5,-162 418.5,-132 579.5,-132 579.5,-162"/>
<text text-anchor="start" x="426.5" y="-150" font-family="Helvetica,sans-Serif" font-size="10.00">/home/harlen/dev/abcg</text>
<text text-anchor="middle" x="499" y="-139" font-family="Helvetica,sans-Serif" font-size="10.00">/abcg/abcgVulkanPipeline.hpp</text>
</a>
</g>
</g>
<!-- Node13&#45;&gt;Node14 -->
<g id="edge16_Node000013_Node000014" class="edge">
<title>Node13&#45;&gt;Node14</title>
<g id="a_edge16_Node000013_Node000014"><a xlink:title=" ">
<path fill="none" stroke="#63b8ff" d="M518.7,-188.68C514.4,-179.79 509.63,-169.95 505.86,-162.16"/>
<polygon fill="#63b8ff" stroke="#63b8ff" points="515.61,-190.32 523.12,-197.8 521.91,-187.27 515.61,-190.32"/>
</a>
</g>
</g>
<!-- Node13&#45;&gt;Node16 -->
<g id="edge19_Node000013_Node000016" class="edge">
<title>Node13&#45;&gt;Node16</title>
<g id="a_edge19_Node000013_Node000016"><a xlink:title=" ">
<path fill="none" stroke="#63b8ff" d="M591.37,-195.31C686.39,-169.47 867.43,-120.23 956.25,-96.08"/>
<polygon fill="#63b8ff" stroke="#63b8ff" points="590.34,-191.96 581.61,-197.96 592.18,-198.72 590.34,-191.96"/>
</a>
</g>
</g>
<!-- Node13&#45;&gt;Node17 -->
<g id="edge20_Node000013_Node000017" class="edge">
<title>Node13&#45;&gt;Node17</title>
<g id="a_edge20_Node000013_Node000017"><a xlink:title=" ">
<path fill="none" stroke="#63b8ff" d="M435.87,-196.27C371.98,-185.59 288.39,-171.63 227.58,-161.46"/>
<polygon fill="#63b8ff" stroke="#63b8ff" points="435.51,-199.76 445.95,-197.95 436.66,-192.85 435.51,-199.76"/>
</a>
</g>
</g>
<!-- Node14&#45;&gt;Node8 -->
<g id="edge17_Node000014_Node000008" class="edge">
<title>Node14&#45;&gt;Node8</title>
<g id="a_edge17_Node000014_Node000008"><a xlink:title=" ">
<path fill="none" stroke="#63b8ff" d="M531.88,-126.69C548.71,-116.82 568.81,-105.01 584.14,-96.01"/>
<polygon fill="#63b8ff" stroke="#63b8ff" points="529.77,-123.87 522.92,-131.95 533.32,-129.91 529.77,-123.87"/>
</a>
</g>
</g>
<!-- Node15 -->
<g id="Node000015" class="node">
<title>Node15</title>
<g id="a_Node000015"><a xlink:href="abcgVulkanPipeline_8cpp.html" target="_top" xlink:title="Definition of abcg::VulkanPipeline.">
<polygon fill="white" stroke="#666666" points="525.5,-96 364.5,-96 364.5,-66 525.5,-66 525.5,-96"/>
<text text-anchor="start" x="372.5" y="-84" font-family="Helvetica,sans-Serif" font-size="10.00">/home/harlen/dev/abcg</text>
<text text-anchor="middle" x="445" y="-73" font-family="Helvetica,sans-Serif" font-size="10.00">/abcg/abcgVulkanPipeline.cpp</text>
</a>
</g>
</g>
<!-- Node14&#45;&gt;Node15 -->
<g id="edge18_Node000014_Node000015" class="edge">
<title>Node14&#45;&gt;Node15</title>
<g id="a_edge18_Node000014_Node000015"><a xlink:title=" ">
<path fill="none" stroke="#63b8ff" d="M480.51,-124.09C472.72,-114.85 463.87,-104.36 456.95,-96.16"/>
<polygon fill="#63b8ff" stroke="#63b8ff" points="477.89,-126.41 487.02,-131.8 483.24,-121.9 477.89,-126.41"/>
</a>
</g>
</g>
<!-- Node17&#45;&gt;Node8 -->
<g id="edge21_Node000017_Node000008" class="edge">
<title>Node17&#45;&gt;Node8</title>
<g id="a_edge21_Node000017_Node000008"><a xlink:title=" ">
<path fill="none" stroke="#63b8ff" d="M237.65,-131.81C370.3,-113.73 405.98,-116.11 535,-96 537.93,-95.54 540.93,-95.05 543.95,-94.55"/>
<polygon fill="#63b8ff" stroke="#63b8ff" points="236.94,-128.37 227.51,-133.2 237.89,-135.31 236.94,-128.37"/>
</a>
</g>
</g>
<!-- Node17&#45;&gt;Node16 -->
<g id="edge22_Node000017_Node000016" class="edge">
<title>Node17&#45;&gt;Node16</title>
<g id="a_edge22_Node000017_Node000016"><a xlink:title=" ">
<path fill="none" stroke="#63b8ff" d="M238.1,-131.83C491.36,-104.2 779.62,-90.56 920.94,-85.04"/>
<polygon fill="#63b8ff" stroke="#63b8ff" points="237.52,-128.37 227.96,-132.94 238.29,-135.33 237.52,-128.37"/>
</a>
</g>
</g>
<!-- Node17&#45;&gt;Node18 -->
<g id="edge23_Node000017_Node000018" class="edge">
<title>Node17&#45;&gt;Node18</title>
<g id="a_edge23_Node000017_Node000018"><a xlink:title=" ">
<path fill="none" stroke="#63b8ff" d="M139.91,-122.11C137.31,-113.38 134.47,-103.78 132.2,-96.16"/>
<polygon fill="#63b8ff" stroke="#63b8ff" points="136.58,-123.21 142.78,-131.8 143.29,-121.21 136.58,-123.21"/>
</a>
</g>
</g>
<!-- Node19&#45;&gt;Node8 -->
<g id="edge25_Node000019_Node000008" class="edge">
<title>Node19&#45;&gt;Node8</title>
<g id="a_edge25_Node000019_Node000008"><a xlink:title=" ">
<path fill="none" stroke="#63b8ff" d="M434.72,-196.16C501.6,-183.71 583.25,-167.59 589,-162 606.82,-144.7 609.19,-113.96 608.89,-96.04"/>
<polygon fill="#63b8ff" stroke="#63b8ff" points="433.74,-192.78 424.55,-198.04 435.02,-199.66 433.74,-192.78"/>
</a>
</g>
</g>
<!-- Node19&#45;&gt;Node14 -->
<g id="edge26_Node000019_Node000014" class="edge">
<title>Node19&#45;&gt;Node14</title>
<g id="a_edge26_Node000019_Node000014"><a xlink:title=" ">
<path fill="none" stroke="#63b8ff" d="M389.62,-194.05C413.7,-183.91 443.36,-171.43 465.72,-162.01"/>
<polygon fill="#63b8ff" stroke="#63b8ff" points="388.22,-190.85 380.36,-197.95 390.93,-197.3 388.22,-190.85"/>
</a>
</g>
</g>
<!-- Node20 -->
<g id="Node000020" class="node">
<title>Node20</title>
<g id="a_Node000020"><a xlink:href="abcgVulkanShader_8cpp.html" target="_top" xlink:title="Definition of helper functions for creating Vulkan shaders.">
<polygon fill="white" stroke="#666666" points="400.5,-162 245.5,-162 245.5,-132 400.5,-132 400.5,-162"/>
<text text-anchor="start" x="253.5" y="-150" font-family="Helvetica,sans-Serif" font-size="10.00">/home/harlen/dev/abcg</text>
<text text-anchor="middle" x="323" y="-139" font-family="Helvetica,sans-Serif" font-size="10.00">/abcg/abcgVulkanShader.cpp</text>
</a>
</g>
</g>
<!-- Node19&#45;&gt;Node20 -->
<g id="edge27_Node000019_Node000020" class="edge">
<title>Node19&#45;&gt;Node20</title>
<g id="a_edge27_Node000019_Node000020"><a xlink:title=" ">
<path fill="none" stroke="#63b8ff" d="M338.15,-188.39C334.84,-179.59 331.2,-169.86 328.31,-162.16"/>
<polygon fill="#63b8ff" stroke="#63b8ff" points="334.89,-189.66 341.67,-197.8 341.44,-187.2 334.89,-189.66"/>
</a>
</g>
</g>
</g>
</svg>
