<?xml version="1.0" encoding="UTF-8" standalone="no"?>
<!DOCTYPE svg PUBLIC "-//W3C//DTD SVG 1.1//EN"
 "http://www.w3.org/Graphics/SVG/1.1/DTD/svg11.dtd">
<!-- Generated by graphviz version 2.43.0 (0)
 -->
<!-- Title: /home/harlen/dev/abcg/abcg/abcgVulkanSwapchain.hpp Pages: 1 -->
<svg width="337pt" height="375pt"
 viewBox="0.00 0.00 336.50 375.00" xmlns="http://www.w3.org/2000/svg" xmlns:xlink="http://www.w3.org/1999/xlink">
<g id="graph0" class="graph" transform="scale(1 1) rotate(0) translate(4 371)">
<title>/home/harlen/dev/abcg/abcg/abcgVulkanSwapchain.hpp</title>
<!-- Node1 -->
<g id="node1" class="node">
<title>Node1</title>
<g id="a_node1"><a xlink:title="Header file of abcg::VulkanSwapchain.">
<polygon fill="#bfbfbf" stroke="black" points="45,-336.5 45,-366.5 220,-366.5 220,-336.5 45,-336.5"/>
<text text-anchor="start" x="53" y="-354.5" font-family="Helvetica,sans-Serif" font-size="10.00">/home/harlen/dev/abcg</text>
<text text-anchor="middle" x="132.5" y="-343.5" font-family="Helvetica,sans-Serif" font-size="10.00">/abcg/abcgVulkanSwapchain.hpp</text>
</a>
</g>
</g>
<!-- Node2 -->
<g id="node2" class="node">
<title>Node2</title>
<g id="a_node2"><a xlink:title=" ">
<polygon fill="none" stroke="#bfbfbf" points="0,-168.5 0,-187.5 65,-187.5 65,-168.5 0,-168.5"/>
<text text-anchor="middle" x="32.5" y="-175.5" font-family="Helvetica,sans-Serif" font-size="10.00">functional</text>
</a>
</g>
</g>
<!-- Node1&#45;&gt;Node2 -->
<g id="edge1" class="edge">
<title>Node1&#45;&gt;Node2</title>
<path fill="none" stroke="midnightblue" d="M96.25,-336.3C80.04,-328.11 62.2,-316.17 51.5,-300 30.84,-268.78 29.61,-223.28 30.86,-197.9"/>
<polygon fill="midnightblue" stroke="midnightblue" points="34.36,-198 31.54,-187.78 27.37,-197.52 34.36,-198"/>
</g>
<!-- Node3 -->
<g id="node3" class="node">
<title>Node3</title>
<g id="a_node3"><a xlink:title=" ">
<polygon fill="none" stroke="#bfbfbf" points="61,-280.5 61,-299.5 138,-299.5 138,-280.5 61,-280.5"/>
<text text-anchor="middle" x="99.5" y="-287.5" font-family="Helvetica,sans-Serif" font-size="10.00">glm/fwd.hpp</text>
</a>
</g>
</g>
<!-- Node1&#45;&gt;Node3 -->
<g id="edge2" class="edge">
<title>Node1&#45;&gt;Node3</title>
<path fill="none" stroke="midnightblue" d="M124.68,-336.4C120.03,-328.02 114.1,-317.33 109.16,-308.42"/>
<polygon fill="midnightblue" stroke="midnightblue" points="112.21,-306.71 104.3,-299.66 106.09,-310.1 112.21,-306.71"/>
</g>
<!-- Node4 -->
<g id="node4" class="node">
<title>Node4</title>
<g id="a_node4"><a xlink:href="abcgVulkanDevice_8hpp.html" target="_top" xlink:title="Header file of abcg::VulkanDevice.">
<polygon fill="none" stroke="black" points="103,-224.5 103,-243.5 230,-243.5 230,-224.5 103,-224.5"/>
<text text-anchor="middle" x="166.5" y="-231.5" font-family="Helvetica,sans-Serif" font-size="10.00">abcgVulkanDevice.hpp</text>
</a>
</g>
</g>
<!-- Node1&#45;&gt;Node4 -->
<g id="edge3" class="edge">
<title>Node1&#45;&gt;Node4</title>
<path fill="none" stroke="midnightblue" d="M136.72,-336.36C139.73,-326.23 143.88,-312.28 147.5,-300 152.12,-284.32 157.33,-266.49 161.12,-253.48"/>
<polygon fill="midnightblue" stroke="midnightblue" points="164.49,-254.41 163.93,-243.83 157.77,-252.46 164.49,-254.41"/>
</g>
<!-- Node11 -->
<g id="node11" class="node">
<title>Node11</title>
<g id="a_node11"><a xlink:href="abcgVulkanImage_8hpp.html" target="_top" xlink:title="Header file of abcg::VulkanImage.">
<polygon fill="none" stroke="black" points="194.5,-280.5 194.5,-299.5 318.5,-299.5 318.5,-280.5 194.5,-280.5"/>
<text text-anchor="middle" x="256.5" y="-287.5" font-family="Helvetica,sans-Serif" font-size="10.00">abcgVulkanImage.hpp</text>
</a>
</g>
</g>
<!-- Node1&#45;&gt;Node11 -->
<g id="edge12" class="edge">
<title>Node1&#45;&gt;Node11</title>
<path fill="none" stroke="midnightblue" d="M161.89,-336.4C182.32,-326.59 209.36,-313.62 229.3,-304.05"/>
<polygon fill="midnightblue" stroke="midnightblue" points="230.96,-307.14 238.46,-299.66 227.93,-300.83 230.96,-307.14"/>
</g>
<!-- Node4&#45;&gt;Node2 -->
<g id="edge11" class="edge">
<title>Node4&#45;&gt;Node2</title>
<path fill="none" stroke="midnightblue" d="M145.27,-224.44C123.12,-215.52 88.18,-201.44 63.06,-191.32"/>
<polygon fill="midnightblue" stroke="midnightblue" points="64.22,-188.01 53.63,-187.52 61.6,-194.5 64.22,-188.01"/>
</g>
<!-- Node5 -->
<g id="node5" class="node">
<title>Node5</title>
<g id="a_node5"><a xlink:href="abcgVulkanPhysicalDevice_8hpp.html" target="_top" xlink:title="Header file of abcg::VulkanPhysicalDevice.">
<polygon fill="none" stroke="black" points="83,-168.5 83,-187.5 250,-187.5 250,-168.5 83,-168.5"/>
<text text-anchor="middle" x="166.5" y="-175.5" font-family="Helvetica,sans-Serif" font-size="10.00">abcgVulkanPhysicalDevice.hpp</text>
</a>
</g>
</g>
<!-- Node4&#45;&gt;Node5 -->
<g id="edge4" class="edge">
<title>Node4&#45;&gt;Node5</title>
<path fill="none" stroke="midnightblue" d="M166.5,-224.08C166.5,-217.01 166.5,-206.86 166.5,-197.99"/>
<polygon fill="midnightblue" stroke="midnightblue" points="170,-197.75 166.5,-187.75 163,-197.75 170,-197.75"/>
</g>
<!-- Node6 -->
<g id="node6" class="node">
<title>Node6</title>
<g id="a_node6"><a xlink:title=" ">
<polygon fill="none" stroke="#bfbfbf" points="82.5,-112.5 82.5,-131.5 138.5,-131.5 138.5,-112.5 82.5,-112.5"/>
<text text-anchor="middle" x="110.5" y="-119.5" font-family="Helvetica,sans-Serif" font-size="10.00">optional</text>
</a>
</g>
</g>
<!-- Node5&#45;&gt;Node6 -->
<g id="edge5" class="edge">
<title>Node5&#45;&gt;Node6</title>
<path fill="none" stroke="midnightblue" d="M157.5,-168.32C149.31,-160.42 136.99,-148.55 127.03,-138.94"/>
<polygon fill="midnightblue" stroke="midnightblue" points="129.29,-136.26 119.66,-131.83 124.43,-141.29 129.29,-136.26"/>
</g>
<!-- Node7 -->
<g id="node7" class="node">
<title>Node7</title>
<g id="a_node7"><a xlink:href="abcgVulkanExternal_8hpp.html" target="_top" xlink:title="Header file for including Vulkan&#45;related dependencies.">
<polygon fill="none" stroke="black" points="146.5,-56.5 146.5,-75.5 280.5,-75.5 280.5,-56.5 146.5,-56.5"/>
<text text-anchor="middle" x="213.5" y="-63.5" font-family="Helvetica,sans-Serif" font-size="10.00">abcgVulkanExternal.hpp</text>
</a>
</g>
</g>
<!-- Node5&#45;&gt;Node7 -->
<g id="edge6" class="edge">
<title>Node5&#45;&gt;Node7</title>
<path fill="none" stroke="midnightblue" d="M168.25,-168.32C170.98,-155.61 176.86,-131.32 185.5,-112 189.87,-102.24 196.04,-92.06 201.48,-83.86"/>
<polygon fill="midnightblue" stroke="midnightblue" points="204.4,-85.79 207.18,-75.57 198.63,-81.83 204.4,-85.79"/>
</g>
<!-- Node10 -->
<g id="node10" class="node">
<title>Node10</title>
<g id="a_node10"><a xlink:href="abcgVulkanInstance_8hpp.html" target="_top" xlink:title="Header file of abcg::VulkanInstance.">
<polygon fill="none" stroke="black" points="194.5,-112.5 194.5,-131.5 328.5,-131.5 328.5,-112.5 194.5,-112.5"/>
<text text-anchor="middle" x="261.5" y="-119.5" font-family="Helvetica,sans-Serif" font-size="10.00">abcgVulkanInstance.hpp</text>
</a>
</g>
</g>
<!-- Node5&#45;&gt;Node10 -->
<g id="edge9" class="edge">
<title>Node5&#45;&gt;Node10</title>
<path fill="none" stroke="midnightblue" d="M181.76,-168.32C196.72,-159.82 219.75,-146.73 237.23,-136.8"/>
<polygon fill="midnightblue" stroke="midnightblue" points="239.31,-139.64 246.27,-131.65 235.85,-133.55 239.31,-139.64"/>
</g>
<!-- Node8 -->
<g id="node8" class="node">
<title>Node8</title>
<g id="a_node8"><a xlink:title=" ">
<polygon fill="none" stroke="#bfbfbf" points="143,-0.5 143,-19.5 190,-19.5 190,-0.5 143,-0.5"/>
<text text-anchor="middle" x="166.5" y="-7.5" font-family="Helvetica,sans-Serif" font-size="10.00">volk.h</text>
</a>
</g>
</g>
<!-- Node7&#45;&gt;Node8 -->
<g id="edge7" class="edge">
<title>Node7&#45;&gt;Node8</title>
<path fill="none" stroke="midnightblue" d="M205.74,-56.08C198.96,-48.3 188.96,-36.8 180.74,-27.37"/>
<polygon fill="midnightblue" stroke="midnightblue" points="183.32,-25 174.12,-19.75 178.04,-29.59 183.32,-25"/>
</g>
<!-- Node9 -->
<g id="node9" class="node">
<title>Node9</title>
<g id="a_node9"><a xlink:title=" ">
<polygon fill="none" stroke="#bfbfbf" points="208,-0.5 208,-19.5 313,-19.5 313,-0.5 208,-0.5"/>
<text text-anchor="middle" x="260.5" y="-7.5" font-family="Helvetica,sans-Serif" font-size="10.00">vulkan/vulkan.hpp</text>
</a>
</g>
</g>
<!-- Node7&#45;&gt;Node9 -->
<g id="edge8" class="edge">
<title>Node7&#45;&gt;Node9</title>
<path fill="none" stroke="midnightblue" d="M221.26,-56.08C228.04,-48.3 238.04,-36.8 246.26,-27.37"/>
<polygon fill="midnightblue" stroke="midnightblue" points="248.96,-29.59 252.88,-19.75 243.68,-25 248.96,-29.59"/>
</g>
<!-- Node10&#45;&gt;Node7 -->
<g id="edge10" class="edge">
<title>Node10&#45;&gt;Node7</title>
<path fill="none" stroke="midnightblue" d="M253.57,-112.08C246.65,-104.3 236.43,-92.8 228.05,-83.37"/>
<polygon fill="midnightblue" stroke="midnightblue" points="230.54,-80.9 221.28,-75.75 225.31,-85.55 230.54,-80.9"/>
</g>
<!-- Node11&#45;&gt;Node4 -->
<g id="edge13" class="edge">
<title>Node11&#45;&gt;Node4</title>
<path fill="none" stroke="midnightblue" d="M242.04,-280.32C228,-271.9 206.45,-258.97 189.96,-249.07"/>
<polygon fill="midnightblue" stroke="midnightblue" points="191.3,-245.8 180.92,-243.65 187.7,-251.8 191.3,-245.8"/>
</g>
<!-- Node12 -->
<g id="node12" class="node">
<title>Node12</title>
<g id="a_node12"><a xlink:title=" ">
<polygon fill="none" stroke="#bfbfbf" points="248.5,-224.5 248.5,-243.5 322.5,-243.5 322.5,-224.5 248.5,-224.5"/>
<text text-anchor="middle" x="285.5" y="-231.5" font-family="Helvetica,sans-Serif" font-size="10.00">gsl/pointers</text>
</a>
</g>
</g>
<!-- Node11&#45;&gt;Node12 -->
<g id="edge14" class="edge">
<title>Node11&#45;&gt;Node12</title>
<path fill="none" stroke="midnightblue" d="M261.29,-280.08C265.26,-272.69 271.03,-261.95 275.93,-252.81"/>
<polygon fill="midnightblue" stroke="midnightblue" points="279.15,-254.22 280.8,-243.75 272.99,-250.91 279.15,-254.22"/>
</g>
</g>
</svg>
