<?xml version="1.0" encoding="UTF-8" standalone="no"?>
<!DOCTYPE svg PUBLIC "-//W3C//DTD SVG 1.1//EN"
 "http://www.w3.org/Graphics/SVG/1.1/DTD/svg11.dtd">
<!-- Generated by graphviz version 2.43.0 (0)
 -->
<!-- Title: /home/harlen/dev/abcg2/abcg/abcg_window.hpp Pages: 1 -->
<svg width="953pt" height="173pt"
 viewBox="0.00 0.00 952.50 173.00" xmlns="http://www.w3.org/2000/svg" xmlns:xlink="http://www.w3.org/1999/xlink">
<g id="graph0" class="graph" transform="scale(1 1) rotate(0) translate(4 169)">
<title>/home/harlen/dev/abcg2/abcg/abcg_window.hpp</title>
<!-- Node1 -->
<g id="node1" class="node">
<title>Node1</title>
<g id="a_node1"><a xlink:title="Header file of abcg::Window.">
<polygon fill="#bfbfbf" stroke="black" points="412.5,-134.5 412.5,-164.5 546.5,-164.5 546.5,-134.5 412.5,-134.5"/>
<text text-anchor="start" x="420.5" y="-152.5" font-family="Helvetica,sans-Serif" font-size="10.00">/home/harlen/dev/abcg2</text>
<text text-anchor="middle" x="479.5" y="-141.5" font-family="Helvetica,sans-Serif" font-size="10.00">/abcg/abcg_window.hpp</text>
</a>
</g>
</g>
<!-- Node2 -->
<g id="node2" class="node">
<title>Node2</title>
<g id="a_node2"><a xlink:href="abcg__application_8cpp.html" target="_top" xlink:title="Definition of abcg::Application members.">
<polygon fill="none" stroke="black" points="0,-67.5 0,-97.5 149,-97.5 149,-67.5 0,-67.5"/>
<text text-anchor="start" x="8" y="-85.5" font-family="Helvetica,sans-Serif" font-size="10.00">/home/harlen/dev/abcg2</text>
<text text-anchor="middle" x="74.5" y="-74.5" font-family="Helvetica,sans-Serif" font-size="10.00">/abcg/abcg_application.cpp</text>
</a>
</g>
</g>
<!-- Node1&#45;&gt;Node2 -->
<g id="edge1" class="edge">
<title>Node1&#45;&gt;Node2</title>
<path fill="none" stroke="midnightblue" d="M402.34,-136.33C338.14,-126.17 244.35,-111.26 162.5,-98 158.22,-97.31 153.82,-96.59 149.39,-95.87"/>
<polygon fill="midnightblue" stroke="midnightblue" points="401.96,-139.81 412.39,-137.91 403.06,-132.9 401.96,-139.81"/>
</g>
<!-- Node3 -->
<g id="node3" class="node">
<title>Node3</title>
<g id="a_node3"><a xlink:href="abcg__opengl__window_8cpp.html" target="_top" xlink:title="Definition of abcg::OpenGLWindow members.">
<polygon fill="none" stroke="black" points="91.5,-0.5 91.5,-30.5 261.5,-30.5 261.5,-0.5 91.5,-0.5"/>
<text text-anchor="start" x="99.5" y="-18.5" font-family="Helvetica,sans-Serif" font-size="10.00">/home/harlen/dev/abcg2</text>
<text text-anchor="middle" x="176.5" y="-7.5" font-family="Helvetica,sans-Serif" font-size="10.00">/abcg/abcg_opengl_window.cpp</text>
</a>
</g>
</g>
<!-- Node1&#45;&gt;Node3 -->
<g id="edge2" class="edge">
<title>Node1&#45;&gt;Node3</title>
<path fill="none" stroke="midnightblue" d="M402.2,-144.17C328.52,-138.44 224.61,-125.6 195.5,-98 177.05,-80.5 174.95,-48.84 175.46,-30.56"/>
<polygon fill="midnightblue" stroke="midnightblue" points="402.15,-147.68 412.39,-144.94 402.68,-140.7 402.15,-147.68"/>
</g>
<!-- Node4 -->
<g id="node4" class="node">
<title>Node4</title>
<g id="a_node4"><a xlink:href="abcg__opengl__window_8hpp.html" target="_top" xlink:title="Header file of abcg::OpenGLWindow.">
<polygon fill="none" stroke="black" points="204.5,-67.5 204.5,-97.5 374.5,-97.5 374.5,-67.5 204.5,-67.5"/>
<text text-anchor="start" x="212.5" y="-85.5" font-family="Helvetica,sans-Serif" font-size="10.00">/home/harlen/dev/abcg2</text>
<text text-anchor="middle" x="289.5" y="-74.5" font-family="Helvetica,sans-Serif" font-size="10.00">/abcg/abcg_opengl_window.hpp</text>
</a>
</g>
</g>
<!-- Node1&#45;&gt;Node4 -->
<g id="edge3" class="edge">
<title>Node1&#45;&gt;Node4</title>
<path fill="none" stroke="midnightblue" d="M428.61,-131.09C397.94,-120.6 359.39,-107.41 330.65,-97.58"/>
<polygon fill="midnightblue" stroke="midnightblue" points="427.68,-134.47 438.27,-134.4 429.94,-127.85 427.68,-134.47"/>
</g>
<!-- Node6 -->
<g id="node6" class="node">
<title>Node6</title>
<g id="a_node6"><a xlink:href="abcg__vulkan__instance_8cpp.html" target="_top" xlink:title="Definition of abcg::VulkanInstance.">
<polygon fill="none" stroke="black" points="393,-67.5 393,-97.5 566,-97.5 566,-67.5 393,-67.5"/>
<text text-anchor="start" x="401" y="-85.5" font-family="Helvetica,sans-Serif" font-size="10.00">/home/harlen/dev/abcg2</text>
<text text-anchor="middle" x="479.5" y="-74.5" font-family="Helvetica,sans-Serif" font-size="10.00">/abcg/abcg_vulkan_instance.cpp</text>
</a>
</g>
</g>
<!-- Node1&#45;&gt;Node6 -->
<g id="edge6" class="edge">
<title>Node1&#45;&gt;Node6</title>
<path fill="none" stroke="midnightblue" d="M479.5,-124.11C479.5,-115.15 479.5,-105.32 479.5,-97.58"/>
<polygon fill="midnightblue" stroke="midnightblue" points="476,-124.4 479.5,-134.4 483,-124.4 476,-124.4"/>
</g>
<!-- Node7 -->
<g id="node7" class="node">
<title>Node7</title>
<g id="a_node7"><a xlink:href="abcg__vulkan__window_8cpp.html" target="_top" xlink:title="Definition of abcg::VulkanWindow members.">
<polygon fill="none" stroke="black" points="510,-0.5 510,-30.5 679,-30.5 679,-0.5 510,-0.5"/>
<text text-anchor="start" x="518" y="-18.5" font-family="Helvetica,sans-Serif" font-size="10.00">/home/harlen/dev/abcg2</text>
<text text-anchor="middle" x="594.5" y="-7.5" font-family="Helvetica,sans-Serif" font-size="10.00">/abcg/abcg_vulkan_window.cpp</text>
</a>
</g>
</g>
<!-- Node1&#45;&gt;Node7 -->
<g id="edge7" class="edge">
<title>Node1&#45;&gt;Node7</title>
<path fill="none" stroke="midnightblue" d="M533.36,-130.16C548.99,-122.45 564.72,-111.95 575.5,-98 590.78,-78.22 594.1,-48.23 594.64,-30.68"/>
<polygon fill="midnightblue" stroke="midnightblue" points="531.83,-127.02 524.21,-134.38 534.76,-133.37 531.83,-127.02"/>
</g>
<!-- Node8 -->
<g id="node8" class="node">
<title>Node8</title>
<g id="a_node8"><a xlink:href="abcg__vulkan__window_8hpp.html" target="_top" xlink:title="Header file of abcg::VulkanWindow.">
<polygon fill="none" stroke="black" points="622.5,-67.5 622.5,-97.5 792.5,-97.5 792.5,-67.5 622.5,-67.5"/>
<text text-anchor="start" x="630.5" y="-85.5" font-family="Helvetica,sans-Serif" font-size="10.00">/home/harlen/dev/abcg2</text>
<text text-anchor="middle" x="707.5" y="-74.5" font-family="Helvetica,sans-Serif" font-size="10.00">/abcg/abcg_vulkan_window.hpp</text>
</a>
</g>
</g>
<!-- Node1&#45;&gt;Node8 -->
<g id="edge8" class="edge">
<title>Node1&#45;&gt;Node8</title>
<path fill="none" stroke="midnightblue" d="M538.38,-131.71C575.48,-121.14 622.84,-107.63 658,-97.61"/>
<polygon fill="midnightblue" stroke="midnightblue" points="537.35,-128.37 528.69,-134.48 539.27,-135.1 537.35,-128.37"/>
</g>
<!-- Node10 -->
<g id="node10" class="node">
<title>Node10</title>
<g id="a_node10"><a xlink:href="abcg__window_8cpp.html" target="_top" xlink:title="Definition of abcg::Window members.">
<polygon fill="none" stroke="black" points="810.5,-67.5 810.5,-97.5 944.5,-97.5 944.5,-67.5 810.5,-67.5"/>
<text text-anchor="start" x="818.5" y="-85.5" font-family="Helvetica,sans-Serif" font-size="10.00">/home/harlen/dev/abcg2</text>
<text text-anchor="middle" x="877.5" y="-74.5" font-family="Helvetica,sans-Serif" font-size="10.00">/abcg/abcg_window.cpp</text>
</a>
</g>
</g>
<!-- Node1&#45;&gt;Node10 -->
<g id="edge11" class="edge">
<title>Node1&#45;&gt;Node10</title>
<path fill="none" stroke="midnightblue" d="M556.73,-137.12C622.03,-127.32 718.02,-112.51 801.5,-98 804.41,-97.49 807.38,-96.97 810.39,-96.43"/>
<polygon fill="midnightblue" stroke="midnightblue" points="555.89,-133.7 546.52,-138.65 556.93,-140.63 555.89,-133.7"/>
</g>
<!-- Node4&#45;&gt;Node3 -->
<g id="edge5" class="edge">
<title>Node4&#45;&gt;Node3</title>
<path fill="none" stroke="midnightblue" d="M256.11,-62.3C238.43,-52.12 217.1,-39.85 200.97,-30.58"/>
<polygon fill="midnightblue" stroke="midnightblue" points="254.57,-65.44 264.98,-67.4 258.06,-59.38 254.57,-65.44"/>
</g>
<!-- Node5 -->
<g id="node5" class="node">
<title>Node5</title>
<g id="a_node5"><a xlink:href="abcg__opengl_8hpp.html" target="_top" xlink:title="Header file for OpenGL&#45;related functions and classes.">
<polygon fill="none" stroke="black" points="279.5,-0.5 279.5,-30.5 413.5,-30.5 413.5,-0.5 279.5,-0.5"/>
<text text-anchor="start" x="287.5" y="-18.5" font-family="Helvetica,sans-Serif" font-size="10.00">/home/harlen/dev/abcg2</text>
<text text-anchor="middle" x="346.5" y="-7.5" font-family="Helvetica,sans-Serif" font-size="10.00">/abcg/abcg_opengl.hpp</text>
</a>
</g>
</g>
<!-- Node4&#45;&gt;Node5 -->
<g id="edge4" class="edge">
<title>Node4&#45;&gt;Node5</title>
<path fill="none" stroke="midnightblue" d="M308.59,-59.74C317.02,-50.12 326.69,-39.09 334.16,-30.58"/>
<polygon fill="midnightblue" stroke="midnightblue" points="305.83,-57.57 301.87,-67.4 311.09,-62.18 305.83,-57.57"/>
</g>
<!-- Node8&#45;&gt;Node7 -->
<g id="edge10" class="edge">
<title>Node8&#45;&gt;Node7</title>
<path fill="none" stroke="midnightblue" d="M674.11,-62.3C656.43,-52.12 635.1,-39.85 618.97,-30.58"/>
<polygon fill="midnightblue" stroke="midnightblue" points="672.57,-65.44 682.98,-67.4 676.06,-59.38 672.57,-65.44"/>
</g>
<!-- Node9 -->
<g id="node9" class="node">
<title>Node9</title>
<g id="a_node9"><a xlink:href="abcg__vulkan__swapchain_8cpp.html" target="_top" xlink:title="Definition of abcg::VulkanSwapchain.">
<polygon fill="none" stroke="black" points="697.5,-0.5 697.5,-30.5 881.5,-30.5 881.5,-0.5 697.5,-0.5"/>
<text text-anchor="start" x="705.5" y="-18.5" font-family="Helvetica,sans-Serif" font-size="10.00">/home/harlen/dev/abcg2</text>
<text text-anchor="middle" x="789.5" y="-7.5" font-family="Helvetica,sans-Serif" font-size="10.00">/abcg/abcg_vulkan_swapchain.cpp</text>
</a>
</g>
</g>
<!-- Node8&#45;&gt;Node9 -->
<g id="edge9" class="edge">
<title>Node8&#45;&gt;Node9</title>
<path fill="none" stroke="midnightblue" d="M733.15,-61.17C745.69,-51.23 760.47,-39.51 771.74,-30.58"/>
<polygon fill="midnightblue" stroke="midnightblue" points="730.96,-58.44 725.29,-67.4 735.3,-63.93 730.96,-58.44"/>
</g>
</g>
</svg>
