<?xml version="1.0" encoding="UTF-8" standalone="no"?>
<!DOCTYPE svg PUBLIC "-//W3C//DTD SVG 1.1//EN"
 "http://www.w3.org/Graphics/SVG/1.1/DTD/svg11.dtd">
<!-- Generated by graphviz version 2.43.0 (0)
 -->
<!-- Title: /home/harlen/dev/abcg/abcg/abcgVulkanShader.hpp Pages: 1 -->
<svg width="551pt" height="240pt"
 viewBox="0.00 0.00 551.00 240.00" xmlns="http://www.w3.org/2000/svg" xmlns:xlink="http://www.w3.org/1999/xlink">
<g id="graph0" class="graph" transform="scale(1 1) rotate(0) translate(4 236)">
<title>/home/harlen/dev/abcg/abcg/abcgVulkanShader.hpp</title>
<!-- Node1 -->
<g id="node1" class="node">
<title>Node1</title>
<g id="a_node1"><a xlink:title="Declaration of helper functions for creating Vulkan shaders.">
<polygon fill="#bfbfbf" stroke="black" points="212,-201.5 212,-231.5 367,-231.5 367,-201.5 212,-201.5"/>
<text text-anchor="start" x="220" y="-219.5" font-family="Helvetica,sans-Serif" font-size="10.00">/home/harlen/dev/abcg</text>
<text text-anchor="middle" x="289.5" y="-208.5" font-family="Helvetica,sans-Serif" font-size="10.00">/abcg/abcgVulkanShader.hpp</text>
</a>
</g>
</g>
<!-- Node2 -->
<g id="node2" class="node">
<title>Node2</title>
<g id="a_node2"><a xlink:href="abcgVulkan_8hpp.html" target="_top" xlink:title="Header file for Vulkan&#45;related functions and classes.">
<polygon fill="none" stroke="black" points="116.5,-67.5 116.5,-97.5 244.5,-97.5 244.5,-67.5 116.5,-67.5"/>
<text text-anchor="start" x="124.5" y="-85.5" font-family="Helvetica,sans-Serif" font-size="10.00">/home/harlen/dev/abcg</text>
<text text-anchor="middle" x="180.5" y="-74.5" font-family="Helvetica,sans-Serif" font-size="10.00">/abcg/abcgVulkan.hpp</text>
</a>
</g>
</g>
<!-- Node1&#45;&gt;Node2 -->
<g id="edge1" class="edge">
<title>Node1&#45;&gt;Node2</title>
<path fill="none" stroke="midnightblue" d="M240.75,-196.93C225.9,-189.12 210.8,-178.61 200.5,-165 185.38,-145.02 181.55,-115.09 180.66,-97.61"/>
<polygon fill="midnightblue" stroke="midnightblue" points="239.4,-200.17 249.92,-201.46 242.5,-193.89 239.4,-200.17"/>
</g>
<!-- Node5 -->
<g id="node5" class="node">
<title>Node5</title>
<g id="a_node5"><a xlink:href="abcgVulkanPipeline_8hpp.html" target="_top" xlink:title="Header file of abcg::VulkanPipeline.">
<polygon fill="none" stroke="black" points="209,-134.5 209,-164.5 370,-164.5 370,-134.5 209,-134.5"/>
<text text-anchor="start" x="217" y="-152.5" font-family="Helvetica,sans-Serif" font-size="10.00">/home/harlen/dev/abcg</text>
<text text-anchor="middle" x="289.5" y="-141.5" font-family="Helvetica,sans-Serif" font-size="10.00">/abcg/abcgVulkanPipeline.hpp</text>
</a>
</g>
</g>
<!-- Node1&#45;&gt;Node5 -->
<g id="edge4" class="edge">
<title>Node1&#45;&gt;Node5</title>
<path fill="none" stroke="midnightblue" d="M289.5,-191.11C289.5,-182.15 289.5,-172.32 289.5,-164.58"/>
<polygon fill="midnightblue" stroke="midnightblue" points="286,-191.4 289.5,-201.4 293,-191.4 286,-191.4"/>
</g>
<!-- Node7 -->
<g id="node7" class="node">
<title>Node7</title>
<g id="a_node7"><a xlink:href="abcgVulkanShader_8cpp.html" target="_top" xlink:title="Definition of helper functions for creating Vulkan shaders.">
<polygon fill="none" stroke="black" points="388,-134.5 388,-164.5 543,-164.5 543,-134.5 388,-134.5"/>
<text text-anchor="start" x="396" y="-152.5" font-family="Helvetica,sans-Serif" font-size="10.00">/home/harlen/dev/abcg</text>
<text text-anchor="middle" x="465.5" y="-141.5" font-family="Helvetica,sans-Serif" font-size="10.00">/abcg/abcgVulkanShader.cpp</text>
</a>
</g>
</g>
<!-- Node1&#45;&gt;Node7 -->
<g id="edge7" class="edge">
<title>Node1&#45;&gt;Node7</title>
<path fill="none" stroke="midnightblue" d="M337.38,-197.82C365.67,-187.37 400.99,-174.32 427.39,-164.58"/>
<polygon fill="midnightblue" stroke="midnightblue" points="335.86,-194.65 327.69,-201.4 338.28,-201.21 335.86,-194.65"/>
</g>
<!-- Node3 -->
<g id="node3" class="node">
<title>Node3</title>
<g id="a_node3"><a xlink:href="abcgVulkanInstance_8cpp.html" target="_top" xlink:title="Definition of abcg::VulkanInstance.">
<polygon fill="none" stroke="black" points="0,-0.5 0,-30.5 163,-30.5 163,-0.5 0,-0.5"/>
<text text-anchor="start" x="8" y="-18.5" font-family="Helvetica,sans-Serif" font-size="10.00">/home/harlen/dev/abcg</text>
<text text-anchor="middle" x="81.5" y="-7.5" font-family="Helvetica,sans-Serif" font-size="10.00">/abcg/abcgVulkanInstance.cpp</text>
</a>
</g>
</g>
<!-- Node2&#45;&gt;Node3 -->
<g id="edge2" class="edge">
<title>Node2&#45;&gt;Node3</title>
<path fill="none" stroke="midnightblue" d="M150.39,-61.73C135.08,-51.68 116.81,-39.68 102.94,-30.58"/>
<polygon fill="midnightblue" stroke="midnightblue" points="148.74,-64.83 159.02,-67.4 152.58,-58.98 148.74,-64.83"/>
</g>
<!-- Node4 -->
<g id="node4" class="node">
<title>Node4</title>
<g id="a_node4"><a xlink:href="abcgVulkanPhysicalDevice_8cpp.html" target="_top" xlink:title="Definition of abcg::VulkanPhysicalDevice.">
<polygon fill="none" stroke="black" points="181.5,-0.5 181.5,-30.5 377.5,-30.5 377.5,-0.5 181.5,-0.5"/>
<text text-anchor="start" x="189.5" y="-18.5" font-family="Helvetica,sans-Serif" font-size="10.00">/home/harlen/dev/abcg</text>
<text text-anchor="middle" x="279.5" y="-7.5" font-family="Helvetica,sans-Serif" font-size="10.00">/abcg/abcgVulkanPhysicalDevice.cpp</text>
</a>
</g>
</g>
<!-- Node2&#45;&gt;Node4 -->
<g id="edge3" class="edge">
<title>Node2&#45;&gt;Node4</title>
<path fill="none" stroke="midnightblue" d="M210.61,-61.73C225.92,-51.68 244.19,-39.68 258.06,-30.58"/>
<polygon fill="midnightblue" stroke="midnightblue" points="208.42,-58.98 201.98,-67.4 212.26,-64.83 208.42,-58.98"/>
</g>
<!-- Node5&#45;&gt;Node2 -->
<g id="edge5" class="edge">
<title>Node5&#45;&gt;Node2</title>
<path fill="none" stroke="midnightblue" d="M256.83,-129.02C239.86,-118.9 219.52,-106.77 204.11,-97.58"/>
<polygon fill="midnightblue" stroke="midnightblue" points="255.47,-132.28 265.85,-134.4 259.05,-126.27 255.47,-132.28"/>
</g>
<!-- Node6 -->
<g id="node6" class="node">
<title>Node6</title>
<g id="a_node6"><a xlink:href="abcgVulkanPipeline_8cpp.html" target="_top" xlink:title="Definition of abcg::VulkanPipeline.">
<polygon fill="none" stroke="black" points="263,-67.5 263,-97.5 424,-97.5 424,-67.5 263,-67.5"/>
<text text-anchor="start" x="271" y="-85.5" font-family="Helvetica,sans-Serif" font-size="10.00">/home/harlen/dev/abcg</text>
<text text-anchor="middle" x="343.5" y="-74.5" font-family="Helvetica,sans-Serif" font-size="10.00">/abcg/abcgVulkanPipeline.cpp</text>
</a>
</g>
</g>
<!-- Node5&#45;&gt;Node6 -->
<g id="edge6" class="edge">
<title>Node5&#45;&gt;Node6</title>
<path fill="none" stroke="midnightblue" d="M307.82,-126.45C315.75,-116.9 324.8,-106 331.81,-97.58"/>
<polygon fill="midnightblue" stroke="midnightblue" points="304.92,-124.47 301.22,-134.4 310.3,-128.94 304.92,-124.47"/>
</g>
</g>
</svg>
