<?xml version="1.0" encoding="UTF-8" standalone="no"?>
<!DOCTYPE svg PUBLIC "-//W3C//DTD SVG 1.1//EN"
 "http://www.w3.org/Graphics/SVG/1.1/DTD/svg11.dtd">
<!-- Generated by graphviz version 2.43.0 (0)
 -->
<!-- Title: /home/harlen/dev/abcg/abcg/abcgVulkanShader.cpp Pages: 1 -->
<svg width="1181pt" height="487pt"
 viewBox="0.00 0.00 1180.50 487.00" xmlns="http://www.w3.org/2000/svg" xmlns:xlink="http://www.w3.org/1999/xlink">
<g id="graph0" class="graph" transform="scale(1 1) rotate(0) translate(4 483)">
<title>/home/harlen/dev/abcg/abcg/abcgVulkanShader.cpp</title>
<!-- Node1 -->
<g id="node1" class="node">
<title>Node1</title>
<g id="a_node1"><a xlink:title="Definition of helper functions for creating Vulkan shaders.">
<polygon fill="#bfbfbf" stroke="black" points="687.5,-448.5 687.5,-478.5 842.5,-478.5 842.5,-448.5 687.5,-448.5"/>
<text text-anchor="start" x="695.5" y="-466.5" font-family="Helvetica,sans-Serif" font-size="10.00">/home/harlen/dev/abcg</text>
<text text-anchor="middle" x="765" y="-455.5" font-family="Helvetica,sans-Serif" font-size="10.00">/abcg/abcgVulkanShader.cpp</text>
</a>
</g>
</g>
<!-- Node2 -->
<g id="node2" class="node">
<title>Node2</title>
<g id="a_node2"><a xlink:href="abcgVulkanShader_8hpp.html" target="_top" xlink:title="Declaration of helper functions for creating Vulkan shaders.">
<polygon fill="none" stroke="black" points="473,-392.5 473,-411.5 599,-411.5 599,-392.5 473,-392.5"/>
<text text-anchor="middle" x="536" y="-399.5" font-family="Helvetica,sans-Serif" font-size="10.00">abcgVulkanShader.hpp</text>
</a>
</g>
</g>
<!-- Node1&#45;&gt;Node2 -->
<g id="edge1" class="edge">
<title>Node1&#45;&gt;Node2</title>
<path fill="none" stroke="midnightblue" d="M711.02,-448.47C670.65,-437.99 616.2,-423.84 578.81,-414.12"/>
<polygon fill="midnightblue" stroke="midnightblue" points="579.3,-410.63 568.74,-411.51 577.54,-417.41 579.3,-410.63"/>
</g>
<!-- Node12 -->
<g id="node12" class="node">
<title>Node12</title>
<g id="a_node12"><a xlink:href="abcgApplication_8hpp.html" target="_top" xlink:title="Header file of abcg::Application.">
<polygon fill="none" stroke="black" points="0,-336.5 0,-355.5 116,-355.5 116,-336.5 0,-336.5"/>
<text text-anchor="middle" x="58" y="-343.5" font-family="Helvetica,sans-Serif" font-size="10.00">abcgApplication.hpp</text>
</a>
</g>
</g>
<!-- Node1&#45;&gt;Node12 -->
<g id="edge14" class="edge">
<title>Node1&#45;&gt;Node12</title>
<path fill="none" stroke="midnightblue" d="M687.11,-463.18C578.2,-462.39 375.01,-454.58 208,-412 161.55,-400.16 111.09,-375.64 82.14,-360.34"/>
<polygon fill="midnightblue" stroke="midnightblue" points="83.65,-357.18 73.18,-355.53 80.34,-363.34 83.65,-357.18"/>
</g>
<!-- Node13 -->
<g id="node13" class="node">
<title>Node13</title>
<g id="a_node13"><a xlink:href="abcgException_8hpp.html" target="_top" xlink:title="Header file of abcg::Exception and derived classes.">
<polygon fill="none" stroke="black" points="217.5,-392.5 217.5,-411.5 326.5,-411.5 326.5,-392.5 217.5,-392.5"/>
<text text-anchor="middle" x="272" y="-399.5" font-family="Helvetica,sans-Serif" font-size="10.00">abcgException.hpp</text>
</a>
</g>
</g>
<!-- Node1&#45;&gt;Node13 -->
<g id="edge16" class="edge">
<title>Node1&#45;&gt;Node13</title>
<path fill="none" stroke="midnightblue" d="M687.43,-453.14C590.69,-441.46 427.07,-421.72 336.74,-410.81"/>
<polygon fill="midnightblue" stroke="midnightblue" points="336.98,-407.32 326.63,-409.59 336.14,-414.27 336.98,-407.32"/>
</g>
<!-- Node16 -->
<g id="node16" class="node">
<title>Node16</title>
<g id="a_node16"><a xlink:href="abcgVulkanWindow_8hpp.html" target="_top" xlink:title="Header file of abcg::VulkanWindow.">
<polygon fill="none" stroke="black" points="617.5,-392.5 617.5,-411.5 748.5,-411.5 748.5,-392.5 617.5,-392.5"/>
<text text-anchor="middle" x="683" y="-399.5" font-family="Helvetica,sans-Serif" font-size="10.00">abcgVulkanWindow.hpp</text>
</a>
</g>
</g>
<!-- Node1&#45;&gt;Node16 -->
<g id="edge20" class="edge">
<title>Node1&#45;&gt;Node16</title>
<path fill="none" stroke="midnightblue" d="M745.57,-448.4C732.79,-439.13 716.11,-427.03 703.19,-417.65"/>
<polygon fill="midnightblue" stroke="midnightblue" points="705.08,-414.7 694.93,-411.66 700.97,-420.36 705.08,-414.7"/>
</g>
<!-- Node27 -->
<g id="node27" class="node">
<title>Node27</title>
<g id="a_node27"><a xlink:title=" ">
<polygon fill="none" stroke="#bfbfbf" points="767,-392.5 767,-411.5 927,-411.5 927,-392.5 767,-392.5"/>
<text text-anchor="middle" x="847" y="-399.5" font-family="Helvetica,sans-Serif" font-size="10.00">glslang/SPIRV/GlslangToSpv.h</text>
</a>
</g>
</g>
<!-- Node1&#45;&gt;Node27 -->
<g id="edge38" class="edge">
<title>Node1&#45;&gt;Node27</title>
<path fill="none" stroke="midnightblue" d="M784.43,-448.4C797.21,-439.13 813.89,-427.03 826.81,-417.65"/>
<polygon fill="midnightblue" stroke="midnightblue" points="829.03,-420.36 835.07,-411.66 824.92,-414.7 829.03,-420.36"/>
</g>
<!-- Node28 -->
<g id="node28" class="node">
<title>Node28</title>
<g id="a_node28"><a xlink:title=" ">
<polygon fill="none" stroke="#bfbfbf" points="945.5,-392.5 945.5,-411.5 1012.5,-411.5 1012.5,-392.5 945.5,-392.5"/>
<text text-anchor="middle" x="979" y="-399.5" font-family="Helvetica,sans-Serif" font-size="10.00">fmt/core.h</text>
</a>
</g>
</g>
<!-- Node1&#45;&gt;Node28 -->
<g id="edge39" class="edge">
<title>Node1&#45;&gt;Node28</title>
<path fill="none" stroke="midnightblue" d="M815.44,-448.47C853.01,-438.03 903.62,-423.96 938.55,-414.25"/>
<polygon fill="midnightblue" stroke="midnightblue" points="939.71,-417.56 948.41,-411.51 937.83,-410.81 939.71,-417.56"/>
</g>
<!-- Node29 -->
<g id="node29" class="node">
<title>Node29</title>
<g id="a_node29"><a xlink:title=" ">
<polygon fill="none" stroke="#bfbfbf" points="1031,-392.5 1031,-411.5 1099,-411.5 1099,-392.5 1031,-392.5"/>
<text text-anchor="middle" x="1065" y="-399.5" font-family="Helvetica,sans-Serif" font-size="10.00">filesystem</text>
</a>
</g>
</g>
<!-- Node1&#45;&gt;Node29 -->
<g id="edge40" class="edge">
<title>Node1&#45;&gt;Node29</title>
<path fill="none" stroke="midnightblue" d="M837.61,-448.48C886.69,-438.94 953.25,-425.9 1020.77,-412.23"/>
<polygon fill="midnightblue" stroke="midnightblue" points="1021.64,-415.63 1030.74,-410.21 1020.24,-408.77 1021.64,-415.63"/>
</g>
<!-- Node30 -->
<g id="node30" class="node">
<title>Node30</title>
<g id="a_node30"><a xlink:title=" ">
<polygon fill="none" stroke="#bfbfbf" points="1117.5,-392.5 1117.5,-411.5 1172.5,-411.5 1172.5,-392.5 1117.5,-392.5"/>
<text text-anchor="middle" x="1145" y="-399.5" font-family="Helvetica,sans-Serif" font-size="10.00">fstream</text>
</a>
</g>
</g>
<!-- Node1&#45;&gt;Node30 -->
<g id="edge41" class="edge">
<title>Node1&#45;&gt;Node30</title>
<path fill="none" stroke="midnightblue" d="M842.65,-453.15C910.09,-444.55 1010.52,-430.6 1107.23,-411.99"/>
<polygon fill="midnightblue" stroke="midnightblue" points="1108.03,-415.4 1117.18,-410.06 1106.7,-408.53 1108.03,-415.4"/>
</g>
<!-- Node3 -->
<g id="node3" class="node">
<title>Node3</title>
<g id="a_node3"><a xlink:href="abcgShader_8hpp.html" target="_top" xlink:title="Declaration of a structure for building shaders.">
<polygon fill="none" stroke="black" points="367,-336.5 367,-355.5 461,-355.5 461,-336.5 367,-336.5"/>
<text text-anchor="middle" x="414" y="-343.5" font-family="Helvetica,sans-Serif" font-size="10.00">abcgShader.hpp</text>
</a>
</g>
</g>
<!-- Node2&#45;&gt;Node3 -->
<g id="edge2" class="edge">
<title>Node2&#45;&gt;Node3</title>
<path fill="none" stroke="midnightblue" d="M516.67,-392.44C496.68,-383.6 465.26,-369.69 442.44,-359.59"/>
<polygon fill="midnightblue" stroke="midnightblue" points="443.8,-356.36 433.24,-355.52 440.97,-362.76 443.8,-356.36"/>
</g>
<!-- Node6 -->
<g id="node6" class="node">
<title>Node6</title>
<g id="a_node6"><a xlink:href="abcgVulkanDevice_8hpp.html" target="_top" xlink:title="Header file of abcg::VulkanDevice.">
<polygon fill="none" stroke="black" points="673.5,-224.5 673.5,-243.5 800.5,-243.5 800.5,-224.5 673.5,-224.5"/>
<text text-anchor="middle" x="737" y="-231.5" font-family="Helvetica,sans-Serif" font-size="10.00">abcgVulkanDevice.hpp</text>
</a>
</g>
</g>
<!-- Node2&#45;&gt;Node6 -->
<g id="edge5" class="edge">
<title>Node2&#45;&gt;Node6</title>
<path fill="none" stroke="midnightblue" d="M558.1,-392.44C576.91,-384.57 604.12,-371.74 625,-356 666.53,-324.69 705.52,-276.87 724.66,-251.75"/>
<polygon fill="midnightblue" stroke="midnightblue" points="727.58,-253.7 730.79,-243.6 721.98,-249.49 727.58,-253.7"/>
</g>
<!-- Node4 -->
<g id="node4" class="node">
<title>Node4</title>
<g id="a_node4"><a xlink:title=" ">
<polygon fill="none" stroke="#bfbfbf" points="437,-112.5 437,-131.5 493,-131.5 493,-112.5 437,-112.5"/>
<text text-anchor="middle" x="465" y="-119.5" font-family="Helvetica,sans-Serif" font-size="10.00">optional</text>
</a>
</g>
</g>
<!-- Node3&#45;&gt;Node4 -->
<g id="edge3" class="edge">
<title>Node3&#45;&gt;Node4</title>
<path fill="none" stroke="midnightblue" d="M409.69,-336.23C404.11,-323.8 395.48,-300.31 399,-280 408.3,-226.31 438.41,-168.57 454.55,-140.42"/>
<polygon fill="midnightblue" stroke="midnightblue" points="457.59,-142.16 459.62,-131.76 451.55,-138.62 457.59,-142.16"/>
</g>
<!-- Node5 -->
<g id="node5" class="node">
<title>Node5</title>
<g id="a_node5"><a xlink:title=" ">
<polygon fill="none" stroke="#bfbfbf" points="308,-280.5 308,-299.5 352,-299.5 352,-280.5 308,-280.5"/>
<text text-anchor="middle" x="330" y="-287.5" font-family="Helvetica,sans-Serif" font-size="10.00">string</text>
</a>
</g>
</g>
<!-- Node3&#45;&gt;Node5 -->
<g id="edge4" class="edge">
<title>Node3&#45;&gt;Node5</title>
<path fill="none" stroke="midnightblue" d="M400.5,-336.32C387.4,-327.9 367.29,-314.97 351.89,-305.07"/>
<polygon fill="midnightblue" stroke="midnightblue" points="353.77,-302.12 343.46,-299.65 349.98,-308.01 353.77,-302.12"/>
</g>
<!-- Node7 -->
<g id="node7" class="node">
<title>Node7</title>
<g id="a_node7"><a xlink:href="abcgVulkanExternal_8hpp.html" target="_top" xlink:title="Header file for including Vulkan&#45;related dependencies.">
<polygon fill="none" stroke="black" points="634,-56.5 634,-75.5 768,-75.5 768,-56.5 634,-56.5"/>
<text text-anchor="middle" x="701" y="-63.5" font-family="Helvetica,sans-Serif" font-size="10.00">abcgVulkanExternal.hpp</text>
</a>
</g>
</g>
<!-- Node6&#45;&gt;Node7 -->
<g id="edge6" class="edge">
<title>Node6&#45;&gt;Node7</title>
<path fill="none" stroke="midnightblue" d="M744.54,-224.3C761.43,-203.72 799.13,-150.83 777,-112 768.59,-97.25 753.23,-86.84 738.52,-79.77"/>
<polygon fill="midnightblue" stroke="midnightblue" points="739.58,-76.42 729.02,-75.6 736.76,-82.83 739.58,-76.42"/>
</g>
<!-- Node10 -->
<g id="node10" class="node">
<title>Node10</title>
<g id="a_node10"><a xlink:href="abcgVulkanPhysicalDevice_8hpp.html" target="_top" xlink:title="Header file of abcg::VulkanPhysicalDevice.">
<polygon fill="none" stroke="black" points="561.5,-168.5 561.5,-187.5 728.5,-187.5 728.5,-168.5 561.5,-168.5"/>
<text text-anchor="middle" x="645" y="-175.5" font-family="Helvetica,sans-Serif" font-size="10.00">abcgVulkanPhysicalDevice.hpp</text>
</a>
</g>
</g>
<!-- Node6&#45;&gt;Node10 -->
<g id="edge9" class="edge">
<title>Node6&#45;&gt;Node10</title>
<path fill="none" stroke="midnightblue" d="M722.22,-224.32C707.73,-215.82 685.43,-202.73 668.51,-192.8"/>
<polygon fill="midnightblue" stroke="midnightblue" points="670.14,-189.7 659.74,-187.65 666.6,-195.74 670.14,-189.7"/>
</g>
<!-- Node8 -->
<g id="node8" class="node">
<title>Node8</title>
<g id="a_node8"><a xlink:title=" ">
<polygon fill="none" stroke="#bfbfbf" points="630.5,-0.5 630.5,-19.5 677.5,-19.5 677.5,-0.5 630.5,-0.5"/>
<text text-anchor="middle" x="654" y="-7.5" font-family="Helvetica,sans-Serif" font-size="10.00">volk.h</text>
</a>
</g>
</g>
<!-- Node7&#45;&gt;Node8 -->
<g id="edge7" class="edge">
<title>Node7&#45;&gt;Node8</title>
<path fill="none" stroke="midnightblue" d="M693.24,-56.08C686.46,-48.3 676.46,-36.8 668.24,-27.37"/>
<polygon fill="midnightblue" stroke="midnightblue" points="670.82,-25 661.62,-19.75 665.54,-29.59 670.82,-25"/>
</g>
<!-- Node9 -->
<g id="node9" class="node">
<title>Node9</title>
<g id="a_node9"><a xlink:title=" ">
<polygon fill="none" stroke="#bfbfbf" points="695.5,-0.5 695.5,-19.5 800.5,-19.5 800.5,-0.5 695.5,-0.5"/>
<text text-anchor="middle" x="748" y="-7.5" font-family="Helvetica,sans-Serif" font-size="10.00">vulkan/vulkan.hpp</text>
</a>
</g>
</g>
<!-- Node7&#45;&gt;Node9 -->
<g id="edge8" class="edge">
<title>Node7&#45;&gt;Node9</title>
<path fill="none" stroke="midnightblue" d="M708.76,-56.08C715.54,-48.3 725.54,-36.8 733.76,-27.37"/>
<polygon fill="midnightblue" stroke="midnightblue" points="736.46,-29.59 740.38,-19.75 731.18,-25 736.46,-29.59"/>
</g>
<!-- Node10&#45;&gt;Node4 -->
<g id="edge10" class="edge">
<title>Node10&#45;&gt;Node4</title>
<path fill="none" stroke="midnightblue" d="M616.48,-168.44C585.84,-159.25 537.01,-144.6 503.1,-134.43"/>
<polygon fill="midnightblue" stroke="midnightblue" points="503.68,-130.95 493.09,-131.43 501.66,-137.65 503.68,-130.95"/>
</g>
<!-- Node10&#45;&gt;Node7 -->
<g id="edge11" class="edge">
<title>Node10&#45;&gt;Node7</title>
<path fill="none" stroke="midnightblue" d="M637.98,-168.1C628.64,-155.1 614.48,-130.46 625,-112 633.41,-97.25 648.77,-86.84 663.48,-79.77"/>
<polygon fill="midnightblue" stroke="midnightblue" points="665.24,-82.83 672.98,-75.6 662.42,-76.42 665.24,-82.83"/>
</g>
<!-- Node11 -->
<g id="node11" class="node">
<title>Node11</title>
<g id="a_node11"><a xlink:href="abcgVulkanInstance_8hpp.html" target="_top" xlink:title="Header file of abcg::VulkanInstance.">
<polygon fill="none" stroke="black" points="634,-112.5 634,-131.5 768,-131.5 768,-112.5 634,-112.5"/>
<text text-anchor="middle" x="701" y="-119.5" font-family="Helvetica,sans-Serif" font-size="10.00">abcgVulkanInstance.hpp</text>
</a>
</g>
</g>
<!-- Node10&#45;&gt;Node11 -->
<g id="edge12" class="edge">
<title>Node10&#45;&gt;Node11</title>
<path fill="none" stroke="midnightblue" d="M654,-168.32C662.19,-160.42 674.51,-148.55 684.47,-138.94"/>
<polygon fill="midnightblue" stroke="midnightblue" points="687.07,-141.29 691.84,-131.83 682.21,-136.26 687.07,-141.29"/>
</g>
<!-- Node11&#45;&gt;Node7 -->
<g id="edge13" class="edge">
<title>Node11&#45;&gt;Node7</title>
<path fill="none" stroke="midnightblue" d="M701,-112.08C701,-105.01 701,-94.86 701,-85.99"/>
<polygon fill="midnightblue" stroke="midnightblue" points="704.5,-85.75 701,-75.75 697.5,-85.75 704.5,-85.75"/>
</g>
<!-- Node12&#45;&gt;Node5 -->
<g id="edge15" class="edge">
<title>Node12&#45;&gt;Node5</title>
<path fill="none" stroke="midnightblue" d="M101.1,-336.44C155.81,-325.58 248.93,-307.09 297.83,-297.39"/>
<polygon fill="midnightblue" stroke="midnightblue" points="298.72,-300.78 307.85,-295.4 297.36,-293.91 298.72,-300.78"/>
</g>
<!-- Node13&#45;&gt;Node5 -->
<g id="edge19" class="edge">
<title>Node13&#45;&gt;Node5</title>
<path fill="none" stroke="midnightblue" d="M229.2,-392.42C190.1,-382.61 141.43,-364.16 163,-336 179.28,-314.75 253.89,-301.27 297.68,-295.05"/>
<polygon fill="midnightblue" stroke="midnightblue" points="298.41,-298.48 307.84,-293.66 297.46,-291.55 298.41,-298.48"/>
</g>
<!-- Node14 -->
<g id="node14" class="node">
<title>Node14</title>
<g id="a_node14"><a xlink:title=" ">
<polygon fill="none" stroke="#bfbfbf" points="172.5,-336.5 172.5,-355.5 265.5,-355.5 265.5,-336.5 172.5,-336.5"/>
<text text-anchor="middle" x="219" y="-343.5" font-family="Helvetica,sans-Serif" font-size="10.00">source_location</text>
</a>
</g>
</g>
<!-- Node13&#45;&gt;Node14 -->
<g id="edge17" class="edge">
<title>Node13&#45;&gt;Node14</title>
<path fill="none" stroke="midnightblue" d="M263.25,-392.08C255.53,-384.22 244.1,-372.57 234.78,-363.08"/>
<polygon fill="midnightblue" stroke="midnightblue" points="237.09,-360.44 227.59,-355.75 232.1,-365.34 237.09,-360.44"/>
</g>
<!-- Node15 -->
<g id="node15" class="node">
<title>Node15</title>
<g id="a_node15"><a xlink:title=" ">
<polygon fill="none" stroke="#bfbfbf" points="283.5,-336.5 283.5,-355.5 348.5,-355.5 348.5,-336.5 283.5,-336.5"/>
<text text-anchor="middle" x="316" y="-343.5" font-family="Helvetica,sans-Serif" font-size="10.00">stdexcept</text>
</a>
</g>
</g>
<!-- Node13&#45;&gt;Node15 -->
<g id="edge18" class="edge">
<title>Node13&#45;&gt;Node15</title>
<path fill="none" stroke="midnightblue" d="M279.27,-392.08C285.54,-384.38 294.79,-373.03 302.43,-363.65"/>
<polygon fill="midnightblue" stroke="midnightblue" points="305.27,-365.71 308.87,-355.75 299.84,-361.29 305.27,-365.71"/>
</g>
<!-- Node16&#45;&gt;Node5 -->
<g id="edge22" class="edge">
<title>Node16&#45;&gt;Node5</title>
<path fill="none" stroke="midnightblue" d="M638.24,-392.5C602.34,-384.97 551.03,-372.59 508,-356 490.19,-349.13 487.6,-343.39 470,-336 433.94,-320.85 390.91,-307.72 362.16,-299.61"/>
<polygon fill="midnightblue" stroke="midnightblue" points="362.82,-296.17 352.25,-296.86 360.95,-302.91 362.82,-296.17"/>
</g>
<!-- Node16&#45;&gt;Node6 -->
<g id="edge23" class="edge">
<title>Node16&#45;&gt;Node6</title>
<path fill="none" stroke="midnightblue" d="M685.9,-392.08C694.44,-365.83 719.58,-288.55 731.11,-253.12"/>
<polygon fill="midnightblue" stroke="midnightblue" points="734.45,-254.16 734.21,-243.57 727.79,-251.99 734.45,-254.16"/>
</g>
<!-- Node16&#45;&gt;Node10 -->
<g id="edge25" class="edge">
<title>Node16&#45;&gt;Node10</title>
<path fill="none" stroke="midnightblue" d="M681.51,-392.3C675.92,-359.63 656.1,-243.87 648.24,-197.96"/>
<polygon fill="midnightblue" stroke="midnightblue" points="651.66,-197.15 646.52,-187.88 644.76,-198.33 651.66,-197.15"/>
</g>
<!-- Node16&#45;&gt;Node11 -->
<g id="edge24" class="edge">
<title>Node16&#45;&gt;Node11</title>
<path fill="none" stroke="midnightblue" d="M748.51,-393.19C821.97,-384.05 936.27,-368.56 978,-356 1043.69,-336.22 1118,-359.6 1118,-291 1118,-291 1118,-291 1118,-233 1118,-163.61 899.41,-137.04 778.75,-127.66"/>
<polygon fill="midnightblue" stroke="midnightblue" points="778.7,-124.14 768.46,-126.88 778.17,-131.12 778.7,-124.14"/>
</g>
<!-- Node17 -->
<g id="node17" class="node">
<title>Node17</title>
<g id="a_node17"><a xlink:title=" ">
<polygon fill="none" stroke="#bfbfbf" points="927,-336.5 927,-355.5 969,-355.5 969,-336.5 927,-336.5"/>
<text text-anchor="middle" x="948" y="-343.5" font-family="Helvetica,sans-Serif" font-size="10.00">array</text>
</a>
</g>
</g>
<!-- Node16&#45;&gt;Node17 -->
<g id="edge21" class="edge">
<title>Node16&#45;&gt;Node17</title>
<path fill="none" stroke="midnightblue" d="M736.07,-392.43C781.67,-384.71 849.36,-372.4 916.82,-356.1"/>
<polygon fill="midnightblue" stroke="midnightblue" points="917.89,-359.44 926.77,-353.66 916.22,-352.64 917.89,-359.44"/>
</g>
<!-- Node18 -->
<g id="node18" class="node">
<title>Node18</title>
<g id="a_node18"><a xlink:href="abcgVulkanSwapchain_8hpp.html" target="_top" xlink:title="Header file of abcg::VulkanSwapchain.">
<polygon fill="none" stroke="black" points="763,-336.5 763,-355.5 909,-355.5 909,-336.5 763,-336.5"/>
<text text-anchor="middle" x="836" y="-343.5" font-family="Helvetica,sans-Serif" font-size="10.00">abcgVulkanSwapchain.hpp</text>
</a>
</g>
</g>
<!-- Node16&#45;&gt;Node18 -->
<g id="edge26" class="edge">
<title>Node16&#45;&gt;Node18</title>
<path fill="none" stroke="midnightblue" d="M707.24,-392.44C732.87,-383.4 773.49,-369.06 802.24,-358.92"/>
<polygon fill="midnightblue" stroke="midnightblue" points="803.61,-362.15 811.87,-355.52 801.28,-355.54 803.61,-362.15"/>
</g>
<!-- Node23 -->
<g id="node23" class="node">
<title>Node23</title>
<g id="a_node23"><a xlink:href="abcgWindow_8hpp.html" target="_top" xlink:title="Header file of abcg::Window.">
<polygon fill="none" stroke="black" points="517.5,-336.5 517.5,-355.5 616.5,-355.5 616.5,-336.5 517.5,-336.5"/>
<text text-anchor="middle" x="567" y="-343.5" font-family="Helvetica,sans-Serif" font-size="10.00">abcgWindow.hpp</text>
</a>
</g>
</g>
<!-- Node16&#45;&gt;Node23 -->
<g id="edge33" class="edge">
<title>Node16&#45;&gt;Node23</title>
<path fill="none" stroke="midnightblue" d="M664.62,-392.44C645.78,-383.68 616.27,-369.94 594.62,-359.86"/>
<polygon fill="midnightblue" stroke="midnightblue" points="595.84,-356.56 585.29,-355.52 592.88,-362.91 595.84,-356.56"/>
</g>
<!-- Node18&#45;&gt;Node6 -->
<g id="edge29" class="edge">
<title>Node18&#45;&gt;Node6</title>
<path fill="none" stroke="midnightblue" d="M822,-336.18C809.5,-327.87 791.19,-314.54 778,-300 764.87,-285.53 753.34,-266.34 745.88,-252.57"/>
<polygon fill="midnightblue" stroke="midnightblue" points="748.95,-250.88 741.21,-243.65 742.75,-254.13 748.95,-250.88"/>
</g>
<!-- Node19 -->
<g id="node19" class="node">
<title>Node19</title>
<g id="a_node19"><a xlink:title=" ">
<polygon fill="none" stroke="#bfbfbf" points="929.5,-280.5 929.5,-299.5 994.5,-299.5 994.5,-280.5 929.5,-280.5"/>
<text text-anchor="middle" x="962" y="-287.5" font-family="Helvetica,sans-Serif" font-size="10.00">functional</text>
</a>
</g>
</g>
<!-- Node18&#45;&gt;Node19 -->
<g id="edge27" class="edge">
<title>Node18&#45;&gt;Node19</title>
<path fill="none" stroke="midnightblue" d="M855.97,-336.44C876.61,-327.6 909.06,-313.69 932.63,-303.59"/>
<polygon fill="midnightblue" stroke="midnightblue" points="934.32,-306.67 942.13,-299.52 931.56,-300.24 934.32,-306.67"/>
</g>
<!-- Node20 -->
<g id="node20" class="node">
<title>Node20</title>
<g id="a_node20"><a xlink:title=" ">
<polygon fill="none" stroke="#bfbfbf" points="1012.5,-280.5 1012.5,-299.5 1089.5,-299.5 1089.5,-280.5 1012.5,-280.5"/>
<text text-anchor="middle" x="1051" y="-287.5" font-family="Helvetica,sans-Serif" font-size="10.00">glm/fwd.hpp</text>
</a>
</g>
</g>
<!-- Node18&#45;&gt;Node20 -->
<g id="edge28" class="edge">
<title>Node18&#45;&gt;Node20</title>
<path fill="none" stroke="midnightblue" d="M870.07,-336.44C907.18,-327.12 966.66,-312.18 1007.21,-302"/>
<polygon fill="midnightblue" stroke="midnightblue" points="1008.25,-305.35 1017.09,-299.52 1006.54,-298.56 1008.25,-305.35"/>
</g>
<!-- Node21 -->
<g id="node21" class="node">
<title>Node21</title>
<g id="a_node21"><a xlink:href="abcgVulkanImage_8hpp.html" target="_top" xlink:title="Header file of abcg::VulkanImage.">
<polygon fill="none" stroke="black" points="787,-280.5 787,-299.5 911,-299.5 911,-280.5 787,-280.5"/>
<text text-anchor="middle" x="849" y="-287.5" font-family="Helvetica,sans-Serif" font-size="10.00">abcgVulkanImage.hpp</text>
</a>
</g>
</g>
<!-- Node18&#45;&gt;Node21 -->
<g id="edge30" class="edge">
<title>Node18&#45;&gt;Node21</title>
<path fill="none" stroke="midnightblue" d="M838.15,-336.08C839.87,-328.93 842.35,-318.64 844.5,-309.69"/>
<polygon fill="midnightblue" stroke="midnightblue" points="847.96,-310.29 846.89,-299.75 841.15,-308.65 847.96,-310.29"/>
</g>
<!-- Node21&#45;&gt;Node6 -->
<g id="edge31" class="edge">
<title>Node21&#45;&gt;Node6</title>
<path fill="none" stroke="midnightblue" d="M831.01,-280.32C812.96,-271.62 784.95,-258.12 764.2,-248.11"/>
<polygon fill="midnightblue" stroke="midnightblue" points="765.48,-244.84 754.95,-243.65 762.44,-251.15 765.48,-244.84"/>
</g>
<!-- Node22 -->
<g id="node22" class="node">
<title>Node22</title>
<g id="a_node22"><a xlink:title=" ">
<polygon fill="none" stroke="#bfbfbf" points="819,-224.5 819,-243.5 893,-243.5 893,-224.5 819,-224.5"/>
<text text-anchor="middle" x="856" y="-231.5" font-family="Helvetica,sans-Serif" font-size="10.00">gsl/pointers</text>
</a>
</g>
</g>
<!-- Node21&#45;&gt;Node22 -->
<g id="edge32" class="edge">
<title>Node21&#45;&gt;Node22</title>
<path fill="none" stroke="midnightblue" d="M850.16,-280.08C851.08,-272.93 852.42,-262.64 853.58,-253.69"/>
<polygon fill="midnightblue" stroke="midnightblue" points="857.05,-254.12 854.87,-243.75 850.11,-253.22 857.05,-254.12"/>
</g>
<!-- Node23&#45;&gt;Node5 -->
<g id="edge34" class="edge">
<title>Node23&#45;&gt;Node5</title>
<path fill="none" stroke="midnightblue" d="M529.45,-336.44C483.17,-325.9 405.33,-308.16 361.85,-298.26"/>
<polygon fill="midnightblue" stroke="midnightblue" points="362.61,-294.84 352.08,-296.03 361.06,-301.67 362.61,-294.84"/>
</g>
<!-- Node24 -->
<g id="node24" class="node">
<title>Node24</title>
<g id="a_node24"><a xlink:href="abcgExternal_8hpp.html" target="_top" xlink:title="Header file for including third&#45;party dependencies.">
<polygon fill="none" stroke="black" points="515.5,-280.5 515.5,-299.5 616.5,-299.5 616.5,-280.5 515.5,-280.5"/>
<text text-anchor="middle" x="566" y="-287.5" font-family="Helvetica,sans-Serif" font-size="10.00">abcgExternal.hpp</text>
</a>
</g>
</g>
<!-- Node23&#45;&gt;Node24 -->
<g id="edge35" class="edge">
<title>Node23&#45;&gt;Node24</title>
<path fill="none" stroke="midnightblue" d="M566.83,-336.08C566.7,-329.01 566.52,-318.86 566.35,-309.99"/>
<polygon fill="midnightblue" stroke="midnightblue" points="569.85,-309.68 566.16,-299.75 562.85,-309.81 569.85,-309.68"/>
</g>
<!-- Node25 -->
<g id="node25" class="node">
<title>Node25</title>
<g id="a_node25"><a xlink:href="abcgTimer_8hpp.html" target="_top" xlink:title="Header file of abcg::Timer.">
<polygon fill="none" stroke="black" points="408.5,-280.5 408.5,-299.5 497.5,-299.5 497.5,-280.5 408.5,-280.5"/>
<text text-anchor="middle" x="453" y="-287.5" font-family="Helvetica,sans-Serif" font-size="10.00">abcgTimer.hpp</text>
</a>
</g>
</g>
<!-- Node23&#45;&gt;Node25 -->
<g id="edge36" class="edge">
<title>Node23&#45;&gt;Node25</title>
<path fill="none" stroke="midnightblue" d="M548.94,-336.44C530.43,-327.68 501.42,-313.94 480.14,-303.86"/>
<polygon fill="midnightblue" stroke="midnightblue" points="481.51,-300.63 470.98,-299.52 478.52,-306.96 481.51,-300.63"/>
</g>
<!-- Node26 -->
<g id="node26" class="node">
<title>Node26</title>
<g id="a_node26"><a xlink:title=" ">
<polygon fill="none" stroke="#bfbfbf" points="428,-224.5 428,-243.5 478,-243.5 478,-224.5 428,-224.5"/>
<text text-anchor="middle" x="453" y="-231.5" font-family="Helvetica,sans-Serif" font-size="10.00">chrono</text>
</a>
</g>
</g>
<!-- Node25&#45;&gt;Node26 -->
<g id="edge37" class="edge">
<title>Node25&#45;&gt;Node26</title>
<path fill="none" stroke="midnightblue" d="M453,-280.08C453,-273.01 453,-262.86 453,-253.99"/>
<polygon fill="midnightblue" stroke="midnightblue" points="456.5,-253.75 453,-243.75 449.5,-253.75 456.5,-253.75"/>
</g>
</g>
</svg>
