<?xml version="1.0" encoding="UTF-8" standalone="no"?>
<!DOCTYPE svg PUBLIC "-//W3C//DTD SVG 1.1//EN"
 "http://www.w3.org/Graphics/SVG/1.1/DTD/svg11.dtd">
<!-- Generated by graphviz version 2.43.0 (0)
 -->
<!-- Title: /home/harlen/dev/abcg2/abcg/abcg_exception.hpp Pages: 1 -->
<svg width="2157pt" height="184pt"
 viewBox="0.00 0.00 2157.00 184.00" xmlns="http://www.w3.org/2000/svg" xmlns:xlink="http://www.w3.org/1999/xlink">
<g id="graph0" class="graph" transform="scale(1 1) rotate(0) translate(4 180)">
<title>/home/harlen/dev/abcg2/abcg/abcg_exception.hpp</title>
<!-- Node1 -->
<g id="node1" class="node">
<title>Node1</title>
<g id="a_node1"><a xlink:title="Header file of abcg::Exception and derived classes.">
<polygon fill="#bfbfbf" stroke="black" points="1034.5,-145.5 1034.5,-175.5 1177.5,-175.5 1177.5,-145.5 1034.5,-145.5"/>
<text text-anchor="start" x="1042.5" y="-163.5" font-family="Helvetica,sans-Serif" font-size="10.00">/home/harlen/dev/abcg2</text>
<text text-anchor="middle" x="1106" y="-152.5" font-family="Helvetica,sans-Serif" font-size="10.00">/abcg/abcg_exception.hpp</text>
</a>
</g>
</g>
<!-- Node2 -->
<g id="node2" class="node">
<title>Node2</title>
<g id="a_node2"><a xlink:href="abcg_8hpp.html" target="_top" xlink:title="Shortcut header that includes the most common ABCg headers.">
<polygon fill="none" stroke="black" points="0,-73 0,-103 134,-103 134,-73 0,-73"/>
<text text-anchor="start" x="8" y="-91" font-family="Helvetica,sans-Serif" font-size="10.00">/home/harlen/dev/abcg2</text>
<text text-anchor="middle" x="67" y="-80" font-family="Helvetica,sans-Serif" font-size="10.00">/abcg/abcg.hpp</text>
</a>
</g>
</g>
<!-- Node1&#45;&gt;Node2 -->
<g id="edge1" class="edge">
<title>Node1&#45;&gt;Node2</title>
<path fill="none" stroke="midnightblue" d="M1024.05,-157.36C823.44,-151.78 311.79,-135.35 143,-109 133.7,-107.55 123.89,-105.43 114.52,-103.1"/>
<polygon fill="midnightblue" stroke="midnightblue" points="1024.14,-160.87 1034.23,-157.64 1024.33,-153.87 1024.14,-160.87"/>
</g>
<!-- Node3 -->
<g id="node3" class="node">
<title>Node3</title>
<g id="a_node3"><a xlink:href="abcg__application_8cpp.html" target="_top" xlink:title="Definition of abcg::Application members.">
<polygon fill="none" stroke="black" points="152.5,-73 152.5,-103 301.5,-103 301.5,-73 152.5,-73"/>
<text text-anchor="start" x="160.5" y="-91" font-family="Helvetica,sans-Serif" font-size="10.00">/home/harlen/dev/abcg2</text>
<text text-anchor="middle" x="227" y="-80" font-family="Helvetica,sans-Serif" font-size="10.00">/abcg/abcg_application.cpp</text>
</a>
</g>
</g>
<!-- Node1&#45;&gt;Node3 -->
<g id="edge2" class="edge">
<title>Node1&#45;&gt;Node3</title>
<path fill="none" stroke="midnightblue" d="M1024.35,-158.97C879.61,-156.99 568.9,-148.1 310,-109 300.03,-107.49 289.51,-105.38 279.42,-103.08"/>
<polygon fill="midnightblue" stroke="midnightblue" points="1024.43,-162.47 1034.48,-159.1 1024.52,-155.47 1024.43,-162.47"/>
</g>
<!-- Node4 -->
<g id="node4" class="node">
<title>Node4</title>
<g id="a_node4"><a xlink:href="abcg__exception_8cpp.html" target="_top" xlink:title="Definition of abcg::Exception members.">
<polygon fill="none" stroke="black" points="319.5,-73 319.5,-103 462.5,-103 462.5,-73 319.5,-73"/>
<text text-anchor="start" x="327.5" y="-91" font-family="Helvetica,sans-Serif" font-size="10.00">/home/harlen/dev/abcg2</text>
<text text-anchor="middle" x="391" y="-80" font-family="Helvetica,sans-Serif" font-size="10.00">/abcg/abcg_exception.cpp</text>
</a>
</g>
</g>
<!-- Node1&#45;&gt;Node4 -->
<g id="edge3" class="edge">
<title>Node1&#45;&gt;Node4</title>
<path fill="none" stroke="midnightblue" d="M1023.92,-157.22C902.57,-152.89 668.46,-140.86 472,-109 462.42,-107.45 452.31,-105.34 442.59,-103.07"/>
<polygon fill="midnightblue" stroke="midnightblue" points="1024.12,-160.73 1034.24,-157.58 1024.36,-153.73 1024.12,-160.73"/>
</g>
<!-- Node5 -->
<g id="node5" class="node">
<title>Node5</title>
<g id="a_node5"><a xlink:href="abcg__opengl__error_8hpp.html" target="_top" xlink:title="Header file of abcg::OpenGLError and derived classes.">
<polygon fill="none" stroke="black" points="481,-73 481,-103 637,-103 637,-73 481,-73"/>
<text text-anchor="start" x="489" y="-91" font-family="Helvetica,sans-Serif" font-size="10.00">/home/harlen/dev/abcg2</text>
<text text-anchor="middle" x="559" y="-80" font-family="Helvetica,sans-Serif" font-size="10.00">/abcg/abcg_opengl_error.hpp</text>
</a>
</g>
</g>
<!-- Node1&#45;&gt;Node5 -->
<g id="edge4" class="edge">
<title>Node1&#45;&gt;Node5</title>
<path fill="none" stroke="midnightblue" d="M1024.21,-153.42C931.92,-145.89 777.52,-131.26 646,-109 636.22,-107.34 625.89,-105.27 615.9,-103.08"/>
<polygon fill="midnightblue" stroke="midnightblue" points="1024.08,-156.92 1034.33,-154.24 1024.64,-149.94 1024.08,-156.92"/>
</g>
<!-- Node8 -->
<g id="node8" class="node">
<title>Node8</title>
<g id="a_node8"><a xlink:href="abcg__opengl__image_8cpp.html" target="_top" xlink:title="Definition of OpenGL texture loading helper functions.">
<polygon fill="none" stroke="black" points="655,-73 655,-103 819,-103 819,-73 655,-73"/>
<text text-anchor="start" x="663" y="-91" font-family="Helvetica,sans-Serif" font-size="10.00">/home/harlen/dev/abcg2</text>
<text text-anchor="middle" x="737" y="-80" font-family="Helvetica,sans-Serif" font-size="10.00">/abcg/abcg_opengl_image.cpp</text>
</a>
</g>
</g>
<!-- Node1&#45;&gt;Node8 -->
<g id="edge7" class="edge">
<title>Node1&#45;&gt;Node8</title>
<path fill="none" stroke="midnightblue" d="M1024.32,-145.47C968.85,-135.75 893.88,-122.22 828,-109 818.8,-107.15 809.1,-105.12 799.6,-103.07"/>
<polygon fill="midnightblue" stroke="midnightblue" points="1023.99,-148.97 1034.44,-147.24 1025.19,-142.07 1023.99,-148.97"/>
</g>
<!-- Node9 -->
<g id="node9" class="node">
<title>Node9</title>
<g id="a_node9"><a xlink:href="abcg__opengl__shader_8cpp.html" target="_top" xlink:title="Definition of helper functions for building OpenGL shaders.">
<polygon fill="none" stroke="black" points="837.5,-73 837.5,-103 1002.5,-103 1002.5,-73 837.5,-73"/>
<text text-anchor="start" x="845.5" y="-91" font-family="Helvetica,sans-Serif" font-size="10.00">/home/harlen/dev/abcg2</text>
<text text-anchor="middle" x="920" y="-80" font-family="Helvetica,sans-Serif" font-size="10.00">/abcg/abcg_opengl_shader.cpp</text>
</a>
</g>
</g>
<!-- Node1&#45;&gt;Node9 -->
<g id="edge8" class="edge">
<title>Node1&#45;&gt;Node9</title>
<path fill="none" stroke="midnightblue" d="M1059.33,-141.81C1027.72,-129.83 986.51,-114.21 957.13,-103.07"/>
<polygon fill="midnightblue" stroke="midnightblue" points="1058.22,-145.13 1068.81,-145.4 1060.7,-138.59 1058.22,-145.13"/>
</g>
<!-- Node10 -->
<g id="node10" class="node">
<title>Node10</title>
<g id="a_node10"><a xlink:href="abcg__opengl__window_8cpp.html" target="_top" xlink:title="Definition of abcg::OpenGLWindow members.">
<polygon fill="none" stroke="black" points="1021,-73 1021,-103 1191,-103 1191,-73 1021,-73"/>
<text text-anchor="start" x="1029" y="-91" font-family="Helvetica,sans-Serif" font-size="10.00">/home/harlen/dev/abcg2</text>
<text text-anchor="middle" x="1106" y="-80" font-family="Helvetica,sans-Serif" font-size="10.00">/abcg/abcg_opengl_window.cpp</text>
</a>
</g>
</g>
<!-- Node1&#45;&gt;Node10 -->
<g id="edge9" class="edge">
<title>Node1&#45;&gt;Node10</title>
<path fill="none" stroke="midnightblue" d="M1106,-135.23C1106,-124.57 1106,-112.41 1106,-103.25"/>
<polygon fill="midnightblue" stroke="midnightblue" points="1102.5,-135.23 1106,-145.23 1109.5,-135.23 1102.5,-135.23"/>
</g>
<!-- Node11 -->
<g id="node11" class="node">
<title>Node11</title>
<g id="a_node11"><a xlink:href="abcg__vulkan__device_8cpp.html" target="_top" xlink:title="Definition of abcg::VulkanDevice.">
<polygon fill="none" stroke="black" points="1209,-73 1209,-103 1373,-103 1373,-73 1209,-73"/>
<text text-anchor="start" x="1217" y="-91" font-family="Helvetica,sans-Serif" font-size="10.00">/home/harlen/dev/abcg2</text>
<text text-anchor="middle" x="1291" y="-80" font-family="Helvetica,sans-Serif" font-size="10.00">/abcg/abcg_vulkan_device.cpp</text>
</a>
</g>
</g>
<!-- Node1&#45;&gt;Node11 -->
<g id="edge10" class="edge">
<title>Node1&#45;&gt;Node11</title>
<path fill="none" stroke="midnightblue" d="M1152.42,-141.81C1183.86,-129.83 1224.85,-114.21 1254.07,-103.07"/>
<polygon fill="midnightblue" stroke="midnightblue" points="1151.09,-138.57 1142.99,-145.4 1153.58,-145.11 1151.09,-138.57"/>
</g>
<!-- Node12 -->
<g id="node12" class="node">
<title>Node12</title>
<g id="a_node12"><a xlink:href="abcg__vulkan__error_8hpp.html" target="_top" xlink:title="Header file of abcg::VulkanError and derived classes.">
<polygon fill="none" stroke="black" points="1391.5,-73 1391.5,-103 1546.5,-103 1546.5,-73 1391.5,-73"/>
<text text-anchor="start" x="1399.5" y="-91" font-family="Helvetica,sans-Serif" font-size="10.00">/home/harlen/dev/abcg2</text>
<text text-anchor="middle" x="1469" y="-80" font-family="Helvetica,sans-Serif" font-size="10.00">/abcg/abcg_vulkan_error.hpp</text>
</a>
</g>
</g>
<!-- Node1&#45;&gt;Node12 -->
<g id="edge11" class="edge">
<title>Node1&#45;&gt;Node12</title>
<path fill="none" stroke="midnightblue" d="M1187.7,-145.55C1242.73,-135.9 1316.88,-122.44 1382,-109 1390.96,-107.15 1400.4,-105.09 1409.64,-103.02"/>
<polygon fill="midnightblue" stroke="midnightblue" points="1186.9,-142.13 1177.65,-147.3 1188.11,-149.03 1186.9,-142.13"/>
</g>
<!-- Node14 -->
<g id="node14" class="node">
<title>Node14</title>
<g id="a_node14"><a xlink:href="abcg__vulkan__window_8cpp.html" target="_top" xlink:title="Definition of abcg::VulkanWindow members.">
<polygon fill="none" stroke="black" points="1490.5,-0.5 1490.5,-30.5 1659.5,-30.5 1659.5,-0.5 1490.5,-0.5"/>
<text text-anchor="start" x="1498.5" y="-18.5" font-family="Helvetica,sans-Serif" font-size="10.00">/home/harlen/dev/abcg2</text>
<text text-anchor="middle" x="1575" y="-7.5" font-family="Helvetica,sans-Serif" font-size="10.00">/abcg/abcg_vulkan_window.cpp</text>
</a>
</g>
</g>
<!-- Node1&#45;&gt;Node14 -->
<g id="edge17" class="edge">
<title>Node1&#45;&gt;Node14</title>
<path fill="none" stroke="midnightblue" d="M1188.01,-155.4C1310.13,-148.55 1528.36,-133.08 1555,-109 1577.06,-89.06 1577.93,-51.08 1576.54,-30.53"/>
<polygon fill="midnightblue" stroke="midnightblue" points="1187.73,-151.91 1177.94,-155.96 1188.12,-158.9 1187.73,-151.91"/>
</g>
<!-- Node15 -->
<g id="node15" class="node">
<title>Node15</title>
<g id="a_node15"><a xlink:href="abcg__vulkan__instance_8cpp.html" target="_top" xlink:title="Definition of abcg::VulkanInstance.">
<polygon fill="none" stroke="black" points="1603.5,-73 1603.5,-103 1776.5,-103 1776.5,-73 1603.5,-73"/>
<text text-anchor="start" x="1611.5" y="-91" font-family="Helvetica,sans-Serif" font-size="10.00">/home/harlen/dev/abcg2</text>
<text text-anchor="middle" x="1690" y="-80" font-family="Helvetica,sans-Serif" font-size="10.00">/abcg/abcg_vulkan_instance.cpp</text>
</a>
</g>
</g>
<!-- Node1&#45;&gt;Node15 -->
<g id="edge14" class="edge">
<title>Node1&#45;&gt;Node15</title>
<path fill="none" stroke="midnightblue" d="M1188.12,-153.21C1284.46,-145.31 1448.84,-130.16 1589,-109 1600.22,-107.31 1612.09,-105.22 1623.6,-103.04"/>
<polygon fill="midnightblue" stroke="midnightblue" points="1187.55,-149.75 1177.86,-154.05 1188.12,-156.73 1187.55,-149.75"/>
</g>
<!-- Node16 -->
<g id="node16" class="node">
<title>Node16</title>
<g id="a_node16"><a xlink:href="abcg__vulkan__physical__device_8cpp.html" target="_top" xlink:title="Definition of abcg::VulkanPhysicalDevice.">
<polygon fill="none" stroke="black" points="1795,-67.5 1795,-108.5 1947,-108.5 1947,-67.5 1795,-67.5"/>
<text text-anchor="start" x="1803" y="-96.5" font-family="Helvetica,sans-Serif" font-size="10.00">/home/harlen/dev/abcg2</text>
<text text-anchor="start" x="1803" y="-85.5" font-family="Helvetica,sans-Serif" font-size="10.00">/abcg/abcg_vulkan_physical</text>
<text text-anchor="middle" x="1871" y="-74.5" font-family="Helvetica,sans-Serif" font-size="10.00">_device.cpp</text>
</a>
</g>
</g>
<!-- Node1&#45;&gt;Node16 -->
<g id="edge15" class="edge">
<title>Node1&#45;&gt;Node16</title>
<path fill="none" stroke="midnightblue" d="M1188.02,-157.56C1316.28,-153.59 1571.83,-141.94 1786,-109 1788.85,-108.56 1791.74,-108.08 1794.66,-107.56"/>
<polygon fill="midnightblue" stroke="midnightblue" points="1187.78,-154.07 1177.89,-157.86 1187.99,-161.06 1187.78,-154.07"/>
</g>
<!-- Node17 -->
<g id="node17" class="node">
<title>Node17</title>
<g id="a_node17"><a xlink:href="abcg__vulkan__swapchain_8cpp.html" target="_top" xlink:title="Definition of abcg::VulkanSwapchain.">
<polygon fill="none" stroke="black" points="1965,-73 1965,-103 2149,-103 2149,-73 1965,-73"/>
<text text-anchor="start" x="1973" y="-91" font-family="Helvetica,sans-Serif" font-size="10.00">/home/harlen/dev/abcg2</text>
<text text-anchor="middle" x="2057" y="-80" font-family="Helvetica,sans-Serif" font-size="10.00">/abcg/abcg_vulkan_swapchain.cpp</text>
</a>
</g>
</g>
<!-- Node1&#45;&gt;Node17 -->
<g id="edge16" class="edge">
<title>Node1&#45;&gt;Node17</title>
<path fill="none" stroke="midnightblue" d="M1187.85,-158.34C1339.81,-155.36 1675.6,-144.92 1956,-109 1968.06,-107.46 1980.83,-105.32 1993.1,-103.02"/>
<polygon fill="midnightblue" stroke="midnightblue" points="1187.6,-154.84 1177.67,-158.53 1187.73,-161.84 1187.6,-154.84"/>
</g>
<!-- Node6 -->
<g id="node6" class="node">
<title>Node6</title>
<g id="a_node6"><a xlink:href="abcg__opengl__error_8cpp.html" target="_top" xlink:title="Definition of abcg::OpenGLError members.">
<polygon fill="none" stroke="black" points="390.5,-0.5 390.5,-30.5 545.5,-30.5 545.5,-0.5 390.5,-0.5"/>
<text text-anchor="start" x="398.5" y="-18.5" font-family="Helvetica,sans-Serif" font-size="10.00">/home/harlen/dev/abcg2</text>
<text text-anchor="middle" x="468" y="-7.5" font-family="Helvetica,sans-Serif" font-size="10.00">/abcg/abcg_opengl_error.cpp</text>
</a>
</g>
</g>
<!-- Node5&#45;&gt;Node6 -->
<g id="edge5" class="edge">
<title>Node5&#45;&gt;Node6</title>
<path fill="none" stroke="midnightblue" d="M532.26,-66.29C517.39,-54.77 499.28,-40.73 486.08,-30.5"/>
<polygon fill="midnightblue" stroke="midnightblue" points="530.54,-69.38 540.58,-72.73 534.82,-63.84 530.54,-69.38"/>
</g>
<!-- Node7 -->
<g id="node7" class="node">
<title>Node7</title>
<g id="a_node7"><a xlink:href="abcg__opengl__function_8cpp.html" target="_top" xlink:title="Definition of OpenGL&#45;related error checking functions.">
<polygon fill="none" stroke="black" points="563.5,-0.5 563.5,-30.5 736.5,-30.5 736.5,-0.5 563.5,-0.5"/>
<text text-anchor="start" x="571.5" y="-18.5" font-family="Helvetica,sans-Serif" font-size="10.00">/home/harlen/dev/abcg2</text>
<text text-anchor="middle" x="650" y="-7.5" font-family="Helvetica,sans-Serif" font-size="10.00">/abcg/abcg_opengl_function.cpp</text>
</a>
</g>
</g>
<!-- Node5&#45;&gt;Node7 -->
<g id="edge6" class="edge">
<title>Node5&#45;&gt;Node7</title>
<path fill="none" stroke="midnightblue" d="M585.74,-66.29C600.61,-54.77 618.72,-40.73 631.92,-30.5"/>
<polygon fill="midnightblue" stroke="midnightblue" points="583.18,-63.84 577.42,-72.73 587.46,-69.38 583.18,-63.84"/>
</g>
<!-- Node13 -->
<g id="node13" class="node">
<title>Node13</title>
<g id="a_node13"><a xlink:href="abcg__vulkan__error_8cpp.html" target="_top" xlink:title="Definition of abcg::VulkanError members.">
<polygon fill="none" stroke="black" points="1317.5,-0.5 1317.5,-30.5 1472.5,-30.5 1472.5,-0.5 1317.5,-0.5"/>
<text text-anchor="start" x="1325.5" y="-18.5" font-family="Helvetica,sans-Serif" font-size="10.00">/home/harlen/dev/abcg2</text>
<text text-anchor="middle" x="1395" y="-7.5" font-family="Helvetica,sans-Serif" font-size="10.00">/abcg/abcg_vulkan_error.cpp</text>
</a>
</g>
</g>
<!-- Node12&#45;&gt;Node13 -->
<g id="edge12" class="edge">
<title>Node12&#45;&gt;Node13</title>
<path fill="none" stroke="midnightblue" d="M1446.63,-65.69C1434.75,-54.37 1420.48,-40.77 1409.95,-30.75"/>
<polygon fill="midnightblue" stroke="midnightblue" points="1444.37,-68.37 1454.02,-72.73 1449.2,-63.3 1444.37,-68.37"/>
</g>
<!-- Node12&#45;&gt;Node14 -->
<g id="edge13" class="edge">
<title>Node12&#45;&gt;Node14</title>
<path fill="none" stroke="midnightblue" d="M1498.92,-67.1C1516.42,-55.46 1538.11,-41.04 1553.84,-30.57"/>
<polygon fill="midnightblue" stroke="midnightblue" points="1496.58,-64.45 1490.2,-72.9 1500.46,-70.28 1496.58,-64.45"/>
</g>
</g>
</svg>
