<?xml version="1.0" encoding="UTF-8" standalone="no"?>
<!DOCTYPE svg PUBLIC "-//W3C//DTD SVG 1.1//EN"
 "http://www.w3.org/Graphics/SVG/1.1/DTD/svg11.dtd">
<!-- Generated by graphviz version 2.43.0 (0)
 -->
<!-- Title: /home/harlen/dev/abcg2/abcg/abcg_opengl_window.cpp Pages: 1 -->
<svg width="1353pt" height="263pt"
 viewBox="0.00 0.00 1352.50 263.00" xmlns="http://www.w3.org/2000/svg" xmlns:xlink="http://www.w3.org/1999/xlink">
<g id="graph0" class="graph" transform="scale(1 1) rotate(0) translate(4 259)">
<title>/home/harlen/dev/abcg2/abcg/abcg_opengl_window.cpp</title>
<!-- Node1 -->
<g id="node1" class="node">
<title>Node1</title>
<g id="a_node1"><a xlink:title="Definition of abcg::OpenGLWindow members.">
<polygon fill="#bfbfbf" stroke="black" points="839.5,-224.5 839.5,-254.5 1009.5,-254.5 1009.5,-224.5 839.5,-224.5"/>
<text text-anchor="start" x="847.5" y="-242.5" font-family="Helvetica,sans-Serif" font-size="10.00">/home/harlen/dev/abcg2</text>
<text text-anchor="middle" x="924.5" y="-231.5" font-family="Helvetica,sans-Serif" font-size="10.00">/abcg/abcg_opengl_window.cpp</text>
</a>
</g>
</g>
<!-- Node2 -->
<g id="node2" class="node">
<title>Node2</title>
<g id="a_node2"><a xlink:href="abcg__opengl__window_8hpp.html" target="_top" xlink:title="Header file of abcg::OpenGLWindow.">
<polygon fill="none" stroke="black" points="525,-168.5 525,-187.5 666,-187.5 666,-168.5 525,-168.5"/>
<text text-anchor="middle" x="595.5" y="-175.5" font-family="Helvetica,sans-Serif" font-size="10.00">abcg_opengl_window.hpp</text>
</a>
</g>
</g>
<!-- Node1&#45;&gt;Node2 -->
<g id="edge1" class="edge">
<title>Node1&#45;&gt;Node2</title>
<path fill="none" stroke="midnightblue" d="M846.95,-224.47C787.34,-213.69 706.35,-199.05 652.58,-189.32"/>
<polygon fill="midnightblue" stroke="midnightblue" points="653,-185.84 642.54,-187.51 651.75,-192.73 653,-185.84"/>
</g>
<!-- Node13 -->
<g id="node13" class="node">
<title>Node13</title>
<g id="a_node13"><a xlink:href="abcg__window_8hpp.html" target="_top" xlink:title="Header file of abcg::Window.">
<polygon fill="none" stroke="black" points="749,-112.5 749,-131.5 852,-131.5 852,-112.5 749,-112.5"/>
<text text-anchor="middle" x="800.5" y="-119.5" font-family="Helvetica,sans-Serif" font-size="10.00">abcg_window.hpp</text>
</a>
</g>
</g>
<!-- Node1&#45;&gt;Node13 -->
<g id="edge31" class="edge">
<title>Node1&#45;&gt;Node13</title>
<path fill="none" stroke="midnightblue" d="M839.34,-228.87C787.92,-221.1 729.36,-208.11 713.5,-188 695.59,-165.29 730.38,-146.46 761.14,-135.01"/>
<polygon fill="midnightblue" stroke="midnightblue" points="762.66,-138.19 770.92,-131.56 760.33,-131.59 762.66,-138.19"/>
</g>
<!-- Node16 -->
<g id="node16" class="node">
<title>Node16</title>
<g id="a_node16"><a xlink:title=" ">
<polygon fill="none" stroke="#bfbfbf" points="723,-168.5 723,-187.5 806,-187.5 806,-168.5 723,-168.5"/>
<text text-anchor="middle" x="764.5" y="-175.5" font-family="Helvetica,sans-Serif" font-size="10.00">SDL_events.h</text>
</a>
</g>
</g>
<!-- Node1&#45;&gt;Node16 -->
<g id="edge21" class="edge">
<title>Node1&#45;&gt;Node16</title>
<path fill="none" stroke="midnightblue" d="M886.58,-224.4C859.38,-214.28 823.1,-200.79 797.17,-191.15"/>
<polygon fill="midnightblue" stroke="midnightblue" points="798.37,-187.86 787.78,-187.66 795.93,-194.42 798.37,-187.86"/>
</g>
<!-- Node17 -->
<g id="node17" class="node">
<title>Node17</title>
<g id="a_node17"><a xlink:title=" ">
<polygon fill="none" stroke="#bfbfbf" points="824.5,-168.5 824.5,-187.5 904.5,-187.5 904.5,-168.5 824.5,-168.5"/>
<text text-anchor="middle" x="864.5" y="-175.5" font-family="Helvetica,sans-Serif" font-size="10.00">SDL_image.h</text>
</a>
</g>
</g>
<!-- Node1&#45;&gt;Node17 -->
<g id="edge22" class="edge">
<title>Node1&#45;&gt;Node17</title>
<path fill="none" stroke="midnightblue" d="M910.28,-224.4C901.29,-215.49 889.66,-203.95 880.37,-194.74"/>
<polygon fill="midnightblue" stroke="midnightblue" points="882.8,-192.21 873.23,-187.66 877.87,-197.18 882.8,-192.21"/>
</g>
<!-- Node18 -->
<g id="node18" class="node">
<title>Node18</title>
<g id="a_node18"><a xlink:title=" ">
<polygon fill="none" stroke="#bfbfbf" points="923,-168.5 923,-187.5 1048,-187.5 1048,-168.5 923,-168.5"/>
<text text-anchor="middle" x="985.5" y="-175.5" font-family="Helvetica,sans-Serif" font-size="10.00">imgui_impl_opengl3.h</text>
</a>
</g>
</g>
<!-- Node1&#45;&gt;Node18 -->
<g id="edge23" class="edge">
<title>Node1&#45;&gt;Node18</title>
<path fill="none" stroke="midnightblue" d="M938.96,-224.4C948.09,-215.49 959.92,-203.95 969.36,-194.74"/>
<polygon fill="midnightblue" stroke="midnightblue" points="971.91,-197.15 976.62,-187.66 967.02,-192.13 971.91,-197.15"/>
</g>
<!-- Node19 -->
<g id="node19" class="node">
<title>Node19</title>
<g id="a_node19"><a xlink:title=" ">
<polygon fill="none" stroke="#bfbfbf" points="1066.5,-168.5 1066.5,-187.5 1166.5,-187.5 1166.5,-168.5 1066.5,-168.5"/>
<text text-anchor="middle" x="1116.5" y="-175.5" font-family="Helvetica,sans-Serif" font-size="10.00">imgui_impl_sdl.h</text>
</a>
</g>
</g>
<!-- Node1&#45;&gt;Node19 -->
<g id="edge24" class="edge">
<title>Node1&#45;&gt;Node19</title>
<path fill="none" stroke="midnightblue" d="M970,-224.4C1003.32,-214.07 1047.99,-200.23 1079.21,-190.56"/>
<polygon fill="midnightblue" stroke="midnightblue" points="1080.33,-193.87 1088.84,-187.57 1078.25,-187.19 1080.33,-193.87"/>
</g>
<!-- Node20 -->
<g id="node20" class="node">
<title>Node20</title>
<g id="a_node20"><a xlink:href="abcg__embeddedfonts_8hpp.html" target="_top" xlink:title=" ">
<polygon fill="none" stroke="black" points="1185,-168.5 1185,-187.5 1328,-187.5 1328,-168.5 1185,-168.5"/>
<text text-anchor="middle" x="1256.5" y="-175.5" font-family="Helvetica,sans-Serif" font-size="10.00">abcg_embeddedfonts.hpp</text>
</a>
</g>
</g>
<!-- Node1&#45;&gt;Node20 -->
<g id="edge25" class="edge">
<title>Node1&#45;&gt;Node20</title>
<path fill="none" stroke="midnightblue" d="M1002.76,-224.47C1062.91,-213.69 1144.64,-199.05 1198.9,-189.32"/>
<polygon fill="midnightblue" stroke="midnightblue" points="1199.81,-192.72 1209.04,-187.51 1198.58,-185.83 1199.81,-192.72"/>
</g>
<!-- Node22 -->
<g id="node22" class="node">
<title>Node22</title>
<g id="a_node22"><a xlink:href="abcg__exception_8hpp.html" target="_top" xlink:title="Header file of abcg::Exception and derived classes.">
<polygon fill="none" stroke="black" points="1230.5,-112.5 1230.5,-131.5 1344.5,-131.5 1344.5,-112.5 1230.5,-112.5"/>
<text text-anchor="middle" x="1287.5" y="-119.5" font-family="Helvetica,sans-Serif" font-size="10.00">abcg_exception.hpp</text>
</a>
</g>
</g>
<!-- Node1&#45;&gt;Node22 -->
<g id="edge27" class="edge">
<title>Node1&#45;&gt;Node22</title>
<path fill="none" stroke="midnightblue" d="M1009.74,-234.02C1124.31,-227.12 1316.16,-212.1 1337.5,-188 1352.23,-171.36 1330.41,-150.85 1311.13,-137.37"/>
<polygon fill="midnightblue" stroke="midnightblue" points="1312.86,-134.32 1302.59,-131.71 1309,-140.15 1312.86,-134.32"/>
</g>
<!-- Node3 -->
<g id="node3" class="node">
<title>Node3</title>
<g id="a_node3"><a xlink:title=" ">
<polygon fill="none" stroke="#bfbfbf" points="660.5,-0.5 660.5,-19.5 704.5,-19.5 704.5,-0.5 660.5,-0.5"/>
<text text-anchor="middle" x="682.5" y="-7.5" font-family="Helvetica,sans-Serif" font-size="10.00">string</text>
</a>
</g>
</g>
<!-- Node2&#45;&gt;Node3 -->
<g id="edge2" class="edge">
<title>Node2&#45;&gt;Node3</title>
<path fill="none" stroke="midnightblue" d="M602.52,-168.33C615.87,-151.47 645.12,-112.71 662.5,-76 669.6,-60.99 674.94,-42.86 678.3,-29.56"/>
<polygon fill="midnightblue" stroke="midnightblue" points="681.74,-30.25 680.66,-19.71 674.93,-28.62 681.74,-30.25"/>
</g>
<!-- Node4 -->
<g id="node4" class="node">
<title>Node4</title>
<g id="a_node4"><a xlink:href="abcg__external_8hpp.html" target="_top" xlink:title="Header file for including third&#45;party dependencies.">
<polygon fill="none" stroke="black" points="711,-56.5 711,-75.5 818,-75.5 818,-56.5 711,-56.5"/>
<text text-anchor="middle" x="764.5" y="-63.5" font-family="Helvetica,sans-Serif" font-size="10.00">abcg_external.hpp</text>
</a>
</g>
</g>
<!-- Node2&#45;&gt;Node4 -->
<g id="edge3" class="edge">
<title>Node2&#45;&gt;Node4</title>
<path fill="none" stroke="midnightblue" d="M620.81,-168.5C642.02,-160.74 672.59,-148.04 696.5,-132 717.36,-118 737.7,-97.36 750.62,-83.11"/>
<polygon fill="midnightblue" stroke="midnightblue" points="753.3,-85.36 757.31,-75.56 748.06,-80.72 753.3,-85.36"/>
</g>
<!-- Node5 -->
<g id="node5" class="node">
<title>Node5</title>
<g id="a_node5"><a xlink:href="abcg__opengl__function_8hpp.html" target="_top" xlink:title="Declaration of OpenGL&#45;related error checking functions.">
<polygon fill="none" stroke="black" points="436.5,-112.5 436.5,-131.5 580.5,-131.5 580.5,-112.5 436.5,-112.5"/>
<text text-anchor="middle" x="508.5" y="-119.5" font-family="Helvetica,sans-Serif" font-size="10.00">abcg_opengl_function.hpp</text>
</a>
</g>
</g>
<!-- Node2&#45;&gt;Node5 -->
<g id="edge4" class="edge">
<title>Node2&#45;&gt;Node5</title>
<path fill="none" stroke="midnightblue" d="M581.52,-168.32C567.95,-159.9 547.12,-146.97 531.18,-137.07"/>
<polygon fill="midnightblue" stroke="midnightblue" points="532.79,-133.95 522.44,-131.65 529.09,-139.9 532.79,-133.95"/>
</g>
<!-- Node10 -->
<g id="node10" class="node">
<title>Node10</title>
<g id="a_node10"><a xlink:href="abcg__opengl__shader_8hpp.html" target="_top" xlink:title="Declaration of helper functions for building OpenGL shaders.">
<polygon fill="none" stroke="black" points="154,-112.5 154,-131.5 291,-131.5 291,-112.5 154,-112.5"/>
<text text-anchor="middle" x="222.5" y="-119.5" font-family="Helvetica,sans-Serif" font-size="10.00">abcg_opengl_shader.hpp</text>
</a>
</g>
</g>
<!-- Node2&#45;&gt;Node10 -->
<g id="edge9" class="edge">
<title>Node2&#45;&gt;Node10</title>
<path fill="none" stroke="midnightblue" d="M536.4,-168.44C469.83,-158.81 361.78,-143.16 291.42,-132.98"/>
<polygon fill="midnightblue" stroke="midnightblue" points="291.72,-129.49 281.33,-131.52 290.72,-136.41 291.72,-129.49"/>
</g>
<!-- Node2&#45;&gt;Node13 -->
<g id="edge16" class="edge">
<title>Node2&#45;&gt;Node13</title>
<path fill="none" stroke="midnightblue" d="M627.98,-168.44C663.22,-159.16 719.6,-144.31 758.26,-134.13"/>
<polygon fill="midnightblue" stroke="midnightblue" points="759.39,-137.45 768.17,-131.52 757.61,-130.68 759.39,-137.45"/>
</g>
<!-- Node6 -->
<g id="node6" class="node">
<title>Node6</title>
<g id="a_node6"><a xlink:title=" ">
<polygon fill="none" stroke="#bfbfbf" points="561,-56.5 561,-75.5 654,-75.5 654,-56.5 561,-56.5"/>
<text text-anchor="middle" x="607.5" y="-63.5" font-family="Helvetica,sans-Serif" font-size="10.00">source_location</text>
</a>
</g>
</g>
<!-- Node5&#45;&gt;Node6 -->
<g id="edge5" class="edge">
<title>Node5&#45;&gt;Node6</title>
<path fill="none" stroke="midnightblue" d="M524.41,-112.32C540.14,-103.74 564.44,-90.49 582.71,-80.52"/>
<polygon fill="midnightblue" stroke="midnightblue" points="584.53,-83.52 591.63,-75.65 581.18,-77.37 584.53,-83.52"/>
</g>
<!-- Node7 -->
<g id="node7" class="node">
<title>Node7</title>
<g id="a_node7"><a xlink:title=" ">
<polygon fill="none" stroke="#bfbfbf" points="383,-56.5 383,-75.5 456,-75.5 456,-56.5 383,-56.5"/>
<text text-anchor="middle" x="419.5" y="-63.5" font-family="Helvetica,sans-Serif" font-size="10.00">string_view</text>
</a>
</g>
</g>
<!-- Node5&#45;&gt;Node7 -->
<g id="edge6" class="edge">
<title>Node5&#45;&gt;Node7</title>
<path fill="none" stroke="midnightblue" d="M494.2,-112.32C480.32,-103.9 459.01,-90.97 442.7,-81.07"/>
<polygon fill="midnightblue" stroke="midnightblue" points="444.13,-77.85 433.76,-75.65 440.5,-83.83 444.13,-77.85"/>
</g>
<!-- Node8 -->
<g id="node8" class="node">
<title>Node8</title>
<g id="a_node8"><a xlink:title=" ">
<polygon fill="none" stroke="#bfbfbf" points="474,-56.5 474,-75.5 543,-75.5 543,-56.5 474,-56.5"/>
<text text-anchor="middle" x="508.5" y="-63.5" font-family="Helvetica,sans-Serif" font-size="10.00">type_traits</text>
</a>
</g>
</g>
<!-- Node5&#45;&gt;Node8 -->
<g id="edge7" class="edge">
<title>Node5&#45;&gt;Node8</title>
<path fill="none" stroke="midnightblue" d="M508.5,-112.08C508.5,-105.01 508.5,-94.86 508.5,-85.99"/>
<polygon fill="midnightblue" stroke="midnightblue" points="512,-85.75 508.5,-75.75 505,-85.75 512,-85.75"/>
</g>
<!-- Node9 -->
<g id="node9" class="node">
<title>Node9</title>
<g id="a_node9"><a xlink:href="abcg__opengl__external_8hpp.html" target="_top" xlink:title="Header file for including OpenGL&#45;related third&#45;party dependencies.">
<polygon fill="none" stroke="black" points="220,-56.5 220,-75.5 365,-75.5 365,-56.5 220,-56.5"/>
<text text-anchor="middle" x="292.5" y="-63.5" font-family="Helvetica,sans-Serif" font-size="10.00">abcg_opengl_external.hpp</text>
</a>
</g>
</g>
<!-- Node5&#45;&gt;Node9 -->
<g id="edge8" class="edge">
<title>Node5&#45;&gt;Node9</title>
<path fill="none" stroke="midnightblue" d="M474.27,-112.44C436.99,-103.12 377.23,-88.18 336.49,-78"/>
<polygon fill="midnightblue" stroke="midnightblue" points="337.12,-74.55 326.57,-75.52 335.42,-81.34 337.12,-74.55"/>
</g>
<!-- Node10&#45;&gt;Node3 -->
<g id="edge13" class="edge">
<title>Node10&#45;&gt;Node3</title>
<path fill="none" stroke="midnightblue" d="M168.82,-112.42C122.77,-102.88 67.74,-84.89 94.5,-56 132.45,-15.03 532.84,-11.21 650.29,-10.97"/>
<polygon fill="midnightblue" stroke="midnightblue" points="650.45,-14.47 660.44,-10.96 650.44,-7.47 650.45,-14.47"/>
</g>
<!-- Node10&#45;&gt;Node7 -->
<g id="edge14" class="edge">
<title>Node10&#45;&gt;Node7</title>
<path fill="none" stroke="midnightblue" d="M253.72,-112.44C287.43,-103.2 341.3,-88.44 378.43,-78.26"/>
<polygon fill="midnightblue" stroke="midnightblue" points="379.71,-81.54 388.43,-75.52 377.86,-74.78 379.71,-81.54"/>
</g>
<!-- Node10&#45;&gt;Node9 -->
<g id="edge10" class="edge">
<title>Node10&#45;&gt;Node9</title>
<path fill="none" stroke="midnightblue" d="M233.75,-112.32C244.3,-104.18 260.3,-91.84 272.94,-82.09"/>
<polygon fill="midnightblue" stroke="midnightblue" points="275.27,-84.71 281.05,-75.83 270.99,-79.17 275.27,-84.71"/>
</g>
<!-- Node11 -->
<g id="node11" class="node">
<title>Node11</title>
<g id="a_node11"><a xlink:href="abcg__shader_8hpp.html" target="_top" xlink:title="Declaration of helper functions for building shaders and programs.">
<polygon fill="none" stroke="black" points="103.5,-56.5 103.5,-75.5 201.5,-75.5 201.5,-56.5 103.5,-56.5"/>
<text text-anchor="middle" x="152.5" y="-63.5" font-family="Helvetica,sans-Serif" font-size="10.00">abcg_shader.hpp</text>
</a>
</g>
</g>
<!-- Node10&#45;&gt;Node11 -->
<g id="edge11" class="edge">
<title>Node10&#45;&gt;Node11</title>
<path fill="none" stroke="midnightblue" d="M211.25,-112.32C200.7,-104.18 184.7,-91.84 172.06,-82.09"/>
<polygon fill="midnightblue" stroke="midnightblue" points="174.01,-79.17 163.95,-75.83 169.73,-84.71 174.01,-79.17"/>
</g>
<!-- Node12 -->
<g id="node12" class="node">
<title>Node12</title>
<g id="a_node12"><a xlink:title=" ">
<polygon fill="none" stroke="#bfbfbf" points="0,-56.5 0,-75.5 47,-75.5 47,-56.5 0,-56.5"/>
<text text-anchor="middle" x="23.5" y="-63.5" font-family="Helvetica,sans-Serif" font-size="10.00">vector</text>
</a>
</g>
</g>
<!-- Node10&#45;&gt;Node12 -->
<g id="edge15" class="edge">
<title>Node10&#45;&gt;Node12</title>
<path fill="none" stroke="midnightblue" d="M190.97,-112.44C154.4,-102.52 94.38,-86.23 57,-76.09"/>
<polygon fill="midnightblue" stroke="midnightblue" points="57.66,-72.64 47.09,-73.4 55.83,-79.4 57.66,-72.64"/>
</g>
<!-- Node11&#45;&gt;Node3 -->
<g id="edge12" class="edge">
<title>Node11&#45;&gt;Node3</title>
<path fill="none" stroke="midnightblue" d="M201.52,-57.19C204.56,-56.77 207.57,-56.37 210.5,-56 375.15,-35.39 573.17,-19.34 649.91,-13.44"/>
<polygon fill="midnightblue" stroke="midnightblue" points="650.63,-16.9 660.33,-12.65 650.09,-9.92 650.63,-16.9"/>
</g>
<!-- Node13&#45;&gt;Node3 -->
<g id="edge17" class="edge">
<title>Node13&#45;&gt;Node3</title>
<path fill="none" stroke="midnightblue" d="M809.05,-112.31C820.93,-99.16 839.6,-73.82 826.5,-56 801.02,-21.34 748.97,-12.63 714.93,-10.84"/>
<polygon fill="midnightblue" stroke="midnightblue" points="714.68,-7.33 704.56,-10.48 714.43,-14.33 714.68,-7.33"/>
</g>
<!-- Node13&#45;&gt;Node4 -->
<g id="edge20" class="edge">
<title>Node13&#45;&gt;Node4</title>
<path fill="none" stroke="midnightblue" d="M794.56,-112.08C789.52,-104.53 782.16,-93.49 775.99,-84.23"/>
<polygon fill="midnightblue" stroke="midnightblue" points="778.79,-82.13 770.33,-75.75 772.97,-86.01 778.79,-82.13"/>
</g>
<!-- Node14 -->
<g id="node14" class="node">
<title>Node14</title>
<g id="a_node14"><a xlink:href="abcg__elapsedtimer_8hpp.html" target="_top" xlink:title="Header file of abcg::ElapsedTimer.">
<polygon fill="none" stroke="black" points="874.5,-56.5 874.5,-75.5 1004.5,-75.5 1004.5,-56.5 874.5,-56.5"/>
<text text-anchor="middle" x="939.5" y="-63.5" font-family="Helvetica,sans-Serif" font-size="10.00">abcg_elapsedtimer.hpp</text>
</a>
</g>
</g>
<!-- Node13&#45;&gt;Node14 -->
<g id="edge18" class="edge">
<title>Node13&#45;&gt;Node14</title>
<path fill="none" stroke="midnightblue" d="M822.52,-112.44C845.6,-103.48 882.06,-89.31 908.14,-79.18"/>
<polygon fill="midnightblue" stroke="midnightblue" points="909.52,-82.4 917.58,-75.52 906.99,-75.88 909.52,-82.4"/>
</g>
<!-- Node15 -->
<g id="node15" class="node">
<title>Node15</title>
<g id="a_node15"><a xlink:title=" ">
<polygon fill="none" stroke="#bfbfbf" points="914.5,-0.5 914.5,-19.5 964.5,-19.5 964.5,-0.5 914.5,-0.5"/>
<text text-anchor="middle" x="939.5" y="-7.5" font-family="Helvetica,sans-Serif" font-size="10.00">chrono</text>
</a>
</g>
</g>
<!-- Node14&#45;&gt;Node15 -->
<g id="edge19" class="edge">
<title>Node14&#45;&gt;Node15</title>
<path fill="none" stroke="midnightblue" d="M939.5,-56.08C939.5,-49.01 939.5,-38.86 939.5,-29.99"/>
<polygon fill="midnightblue" stroke="midnightblue" points="943,-29.75 939.5,-19.75 936,-29.75 943,-29.75"/>
</g>
<!-- Node21 -->
<g id="node21" class="node">
<title>Node21</title>
<g id="a_node21"><a xlink:title=" ">
<polygon fill="none" stroke="#bfbfbf" points="1170.5,-112.5 1170.5,-131.5 1212.5,-131.5 1212.5,-112.5 1170.5,-112.5"/>
<text text-anchor="middle" x="1191.5" y="-119.5" font-family="Helvetica,sans-Serif" font-size="10.00">array</text>
</a>
</g>
</g>
<!-- Node20&#45;&gt;Node21 -->
<g id="edge26" class="edge">
<title>Node20&#45;&gt;Node21</title>
<path fill="none" stroke="midnightblue" d="M1246.06,-168.32C1236.35,-160.26 1221.68,-148.08 1210,-138.37"/>
<polygon fill="midnightblue" stroke="midnightblue" points="1212.06,-135.53 1202.13,-131.83 1207.59,-140.92 1212.06,-135.53"/>
</g>
<!-- Node22&#45;&gt;Node3 -->
<g id="edge30" class="edge">
<title>Node22&#45;&gt;Node3</title>
<path fill="none" stroke="midnightblue" d="M1256.07,-112.48C1205.35,-98.98 1102.18,-72.51 1013.5,-56 904.81,-35.77 774.45,-20.72 714.96,-14.35"/>
<polygon fill="midnightblue" stroke="midnightblue" points="715.01,-10.83 704.7,-13.26 714.27,-17.79 715.01,-10.83"/>
</g>
<!-- Node22&#45;&gt;Node6 -->
<g id="edge28" class="edge">
<title>Node22&#45;&gt;Node6</title>
<path fill="none" stroke="midnightblue" d="M1230.29,-112.96C1227.32,-112.62 1224.38,-112.3 1221.5,-112 991.05,-88.34 932.38,-95.04 701.5,-76 689.5,-75.01 676.65,-73.85 664.43,-72.69"/>
<polygon fill="midnightblue" stroke="midnightblue" points="664.62,-69.2 654.34,-71.73 663.96,-76.16 664.62,-69.2"/>
</g>
<!-- Node23 -->
<g id="node23" class="node">
<title>Node23</title>
<g id="a_node23"><a xlink:title=" ">
<polygon fill="none" stroke="#bfbfbf" points="1255,-56.5 1255,-75.5 1320,-75.5 1320,-56.5 1255,-56.5"/>
<text text-anchor="middle" x="1287.5" y="-63.5" font-family="Helvetica,sans-Serif" font-size="10.00">stdexcept</text>
</a>
</g>
</g>
<!-- Node22&#45;&gt;Node23 -->
<g id="edge29" class="edge">
<title>Node22&#45;&gt;Node23</title>
<path fill="none" stroke="midnightblue" d="M1287.5,-112.08C1287.5,-105.01 1287.5,-94.86 1287.5,-85.99"/>
<polygon fill="midnightblue" stroke="midnightblue" points="1291,-85.75 1287.5,-75.75 1284,-85.75 1291,-85.75"/>
</g>
</g>
</svg>
