<?xml version="1.0" encoding="UTF-8" standalone="no"?>
<!DOCTYPE svg PUBLIC "-//W3C//DTD SVG 1.1//EN"
 "http://www.w3.org/Graphics/SVG/1.1/DTD/svg11.dtd">
<!-- Generated by graphviz version 2.43.0 (0)
 -->
<!-- Title: /home/harlen/dev/abcg2/abcg/abcg_external.hpp Pages: 1 -->
<svg width="1776pt" height="329pt"
 viewBox="0.00 0.00 1776.00 329.00" xmlns="http://www.w3.org/2000/svg" xmlns:xlink="http://www.w3.org/1999/xlink">
<g id="graph0" class="graph" transform="scale(1 1) rotate(0) translate(4 325)">
<title>/home/harlen/dev/abcg2/abcg/abcg_external.hpp</title>
<!-- Node1 -->
<g id="node1" class="node">
<title>Node1</title>
<g id="a_node1"><a xlink:title="Header file for including third&#45;party dependencies.">
<polygon fill="#bfbfbf" stroke="black" points="556,-290.5 556,-320.5 692,-320.5 692,-290.5 556,-290.5"/>
<text text-anchor="start" x="564" y="-308.5" font-family="Helvetica,sans-Serif" font-size="10.00">/home/harlen/dev/abcg2</text>
<text text-anchor="middle" x="624" y="-297.5" font-family="Helvetica,sans-Serif" font-size="10.00">/abcg/abcg_external.hpp</text>
</a>
</g>
</g>
<!-- Node2 -->
<g id="node2" class="node">
<title>Node2</title>
<g id="a_node2"><a xlink:href="abcg_8hpp.html" target="_top" xlink:title="Shortcut header that includes the most common ABCg headers.">
<polygon fill="none" stroke="black" points="0,-151 0,-181 134,-181 134,-151 0,-151"/>
<text text-anchor="start" x="8" y="-169" font-family="Helvetica,sans-Serif" font-size="10.00">/home/harlen/dev/abcg2</text>
<text text-anchor="middle" x="67" y="-158" font-family="Helvetica,sans-Serif" font-size="10.00">/abcg/abcg.hpp</text>
</a>
</g>
</g>
<!-- Node1&#45;&gt;Node2 -->
<g id="edge1" class="edge">
<title>Node1&#45;&gt;Node2</title>
<path fill="none" stroke="midnightblue" d="M545.89,-302.7C402.46,-298.61 108.72,-286.35 76,-254 56.78,-234.99 59.94,-200.36 63.64,-181.02"/>
<polygon fill="midnightblue" stroke="midnightblue" points="545.86,-306.2 555.96,-302.98 546.06,-299.2 545.86,-306.2"/>
</g>
<!-- Node3 -->
<g id="node3" class="node">
<title>Node3</title>
<g id="a_node3"><a xlink:href="abcg__exception_8cpp.html" target="_top" xlink:title="Definition of abcg::Exception members.">
<polygon fill="none" stroke="black" points="85.5,-223.5 85.5,-253.5 228.5,-253.5 228.5,-223.5 85.5,-223.5"/>
<text text-anchor="start" x="93.5" y="-241.5" font-family="Helvetica,sans-Serif" font-size="10.00">/home/harlen/dev/abcg2</text>
<text text-anchor="middle" x="157" y="-230.5" font-family="Helvetica,sans-Serif" font-size="10.00">/abcg/abcg_exception.cpp</text>
</a>
</g>
</g>
<!-- Node1&#45;&gt;Node3 -->
<g id="edge2" class="edge">
<title>Node1&#45;&gt;Node3</title>
<path fill="none" stroke="midnightblue" d="M545.43,-295.4C467.12,-286.07 343.52,-270.59 237,-254 234.35,-253.59 231.65,-253.16 228.93,-252.71"/>
<polygon fill="midnightblue" stroke="midnightblue" points="545.35,-298.92 555.69,-296.62 546.18,-291.97 545.35,-298.92"/>
</g>
<!-- Node4 -->
<g id="node4" class="node">
<title>Node4</title>
<g id="a_node4"><a xlink:href="abcg__opengl__error_8cpp.html" target="_top" xlink:title="Definition of abcg::OpenGLError members.">
<polygon fill="none" stroke="black" points="246.5,-223.5 246.5,-253.5 401.5,-253.5 401.5,-223.5 246.5,-223.5"/>
<text text-anchor="start" x="254.5" y="-241.5" font-family="Helvetica,sans-Serif" font-size="10.00">/home/harlen/dev/abcg2</text>
<text text-anchor="middle" x="324" y="-230.5" font-family="Helvetica,sans-Serif" font-size="10.00">/abcg/abcg_opengl_error.cpp</text>
</a>
</g>
</g>
<!-- Node1&#45;&gt;Node4 -->
<g id="edge3" class="edge">
<title>Node1&#45;&gt;Node4</title>
<path fill="none" stroke="midnightblue" d="M549.3,-288.32C500,-277.63 436.04,-263.77 388.87,-253.55"/>
<polygon fill="midnightblue" stroke="midnightblue" points="548.76,-291.78 559.27,-290.48 550.24,-284.94 548.76,-291.78"/>
</g>
<!-- Node5 -->
<g id="node5" class="node">
<title>Node5</title>
<g id="a_node5"><a xlink:href="abcg__opengl__window_8hpp.html" target="_top" xlink:title="Header file of abcg::OpenGLWindow.">
<polygon fill="none" stroke="black" points="1598,-73 1598,-103 1768,-103 1768,-73 1598,-73"/>
<text text-anchor="start" x="1606" y="-91" font-family="Helvetica,sans-Serif" font-size="10.00">/home/harlen/dev/abcg2</text>
<text text-anchor="middle" x="1683" y="-80" font-family="Helvetica,sans-Serif" font-size="10.00">/abcg/abcg_opengl_window.hpp</text>
</a>
</g>
</g>
<!-- Node1&#45;&gt;Node5 -->
<g id="edge4" class="edge">
<title>Node1&#45;&gt;Node5</title>
<path fill="none" stroke="midnightblue" d="M702.29,-293.29C770.24,-283.42 871.22,-268.41 959,-254 1126.93,-226.42 1170.13,-225.06 1336,-187 1445.98,-161.76 1573.11,-123.48 1638.72,-103.03"/>
<polygon fill="midnightblue" stroke="midnightblue" points="701.49,-289.87 692.09,-294.77 702.49,-296.8 701.49,-289.87"/>
</g>
<!-- Node8 -->
<g id="node8" class="node">
<title>Node8</title>
<g id="a_node8"><a xlink:href="abcg__trackball_8hpp.html" target="_top" xlink:title="Header file of abcg::TrackBall.">
<polygon fill="none" stroke="black" points="420,-223.5 420,-253.5 558,-253.5 558,-223.5 420,-223.5"/>
<text text-anchor="start" x="428" y="-241.5" font-family="Helvetica,sans-Serif" font-size="10.00">/home/harlen/dev/abcg2</text>
<text text-anchor="middle" x="489" y="-230.5" font-family="Helvetica,sans-Serif" font-size="10.00">/abcg/abcg_trackball.hpp</text>
</a>
</g>
</g>
<!-- Node1&#45;&gt;Node8 -->
<g id="edge7" class="edge">
<title>Node1&#45;&gt;Node8</title>
<path fill="none" stroke="midnightblue" d="M585.56,-285.99C564.16,-275.69 537.95,-263.07 518.24,-253.58"/>
<polygon fill="midnightblue" stroke="midnightblue" points="584.18,-289.21 594.71,-290.4 587.22,-282.9 584.18,-289.21"/>
</g>
<!-- Node10 -->
<g id="node10" class="node">
<title>Node10</title>
<g id="a_node10"><a xlink:href="abcg__vulkan_8hpp.html" target="_top" xlink:title="Header file for Vulkan&#45;related functions and classes.">
<polygon fill="none" stroke="black" points="652,-223.5 652,-253.5 786,-253.5 786,-223.5 652,-223.5"/>
<text text-anchor="start" x="660" y="-241.5" font-family="Helvetica,sans-Serif" font-size="10.00">/home/harlen/dev/abcg2</text>
<text text-anchor="middle" x="719" y="-230.5" font-family="Helvetica,sans-Serif" font-size="10.00">/abcg/abcg_vulkan.hpp</text>
</a>
</g>
</g>
<!-- Node1&#45;&gt;Node10 -->
<g id="edge10" class="edge">
<title>Node1&#45;&gt;Node10</title>
<path fill="none" stroke="midnightblue" d="M652.89,-284.73C667.59,-274.68 685.11,-262.68 698.43,-253.58"/>
<polygon fill="midnightblue" stroke="midnightblue" points="650.89,-281.86 644.61,-290.4 654.84,-287.64 650.89,-281.86"/>
</g>
<!-- Node12 -->
<g id="node12" class="node">
<title>Node12</title>
<g id="a_node12"><a xlink:href="abcg__vulkan__device_8hpp.html" target="_top" xlink:title="Header file of abcg::VulkanDevice.">
<polygon fill="none" stroke="black" points="525.5,-151 525.5,-181 690.5,-181 690.5,-151 525.5,-151"/>
<text text-anchor="start" x="533.5" y="-169" font-family="Helvetica,sans-Serif" font-size="10.00">/home/harlen/dev/abcg2</text>
<text text-anchor="middle" x="608" y="-158" font-family="Helvetica,sans-Serif" font-size="10.00">/abcg/abcg_vulkan_device.hpp</text>
</a>
</g>
</g>
<!-- Node1&#45;&gt;Node12 -->
<g id="edge33" class="edge">
<title>Node1&#45;&gt;Node12</title>
<path fill="none" stroke="midnightblue" d="M621.18,-280.29C617.85,-251.61 612.4,-204.78 609.67,-181.33"/>
<polygon fill="midnightblue" stroke="midnightblue" points="617.72,-280.77 622.35,-290.3 624.67,-279.97 617.72,-280.77"/>
</g>
<!-- Node17 -->
<g id="node17" class="node">
<title>Node17</title>
<g id="a_node17"><a xlink:href="abcg__vulkan__instance_8hpp.html" target="_top" xlink:title="Header file of abcg::VulkanInstance.">
<polygon fill="none" stroke="black" points="950,-151 950,-181 1124,-181 1124,-151 950,-151"/>
<text text-anchor="start" x="958" y="-169" font-family="Helvetica,sans-Serif" font-size="10.00">/home/harlen/dev/abcg2</text>
<text text-anchor="middle" x="1037" y="-158" font-family="Helvetica,sans-Serif" font-size="10.00">/abcg/abcg_vulkan_instance.hpp</text>
</a>
</g>
</g>
<!-- Node1&#45;&gt;Node17 -->
<g id="edge34" class="edge">
<title>Node1&#45;&gt;Node17</title>
<path fill="none" stroke="midnightblue" d="M697.4,-288.12C734.75,-279.18 780.66,-267.23 821,-254 888.03,-232.01 964.04,-199.58 1005.64,-181.15"/>
<polygon fill="midnightblue" stroke="midnightblue" points="696.52,-284.73 687.6,-290.45 698.14,-291.54 696.52,-284.73"/>
</g>
<!-- Node20 -->
<g id="node20" class="node">
<title>Node20</title>
<g id="a_node20"><a xlink:href="abcg__vulkan__physical__device_8hpp.html" target="_top" xlink:title="Header file of abcg::VulkanPhysicalDevice.">
<polygon fill="none" stroke="black" points="355,-145.5 355,-186.5 507,-186.5 507,-145.5 355,-145.5"/>
<text text-anchor="start" x="363" y="-174.5" font-family="Helvetica,sans-Serif" font-size="10.00">/home/harlen/dev/abcg2</text>
<text text-anchor="start" x="363" y="-163.5" font-family="Helvetica,sans-Serif" font-size="10.00">/abcg/abcg_vulkan_physical</text>
<text text-anchor="middle" x="431" y="-152.5" font-family="Helvetica,sans-Serif" font-size="10.00">_device.hpp</text>
</a>
</g>
</g>
<!-- Node1&#45;&gt;Node20 -->
<g id="edge35" class="edge">
<title>Node1&#45;&gt;Node20</title>
<path fill="none" stroke="midnightblue" d="M612.36,-281.01C602.44,-263.04 586.67,-238.76 567,-223 547.27,-207.19 522.46,-195.24 499.46,-186.52"/>
<polygon fill="midnightblue" stroke="midnightblue" points="609.48,-283.05 617.26,-290.24 615.67,-279.77 609.48,-283.05"/>
</g>
<!-- Node21 -->
<g id="node21" class="node">
<title>Node21</title>
<g id="a_node21"><a xlink:href="abcg__vulkan__swapchain_8hpp.html" target="_top" xlink:title="Header file of abcg::VulkanSwapchain.">
<polygon fill="none" stroke="black" points="746.5,-151 746.5,-181 931.5,-181 931.5,-151 746.5,-151"/>
<text text-anchor="start" x="754.5" y="-169" font-family="Helvetica,sans-Serif" font-size="10.00">/home/harlen/dev/abcg2</text>
<text text-anchor="middle" x="839" y="-158" font-family="Helvetica,sans-Serif" font-size="10.00">/abcg/abcg_vulkan_swapchain.hpp</text>
</a>
</g>
</g>
<!-- Node1&#45;&gt;Node21 -->
<g id="edge36" class="edge">
<title>Node1&#45;&gt;Node21</title>
<path fill="none" stroke="midnightblue" d="M702.21,-295.16C733.83,-288.11 768.93,-275.73 795,-254 818.01,-234.82 830.24,-200.57 835.59,-181.26"/>
<polygon fill="midnightblue" stroke="midnightblue" points="701.16,-291.81 692.08,-297.27 702.59,-298.66 701.16,-291.81"/>
</g>
<!-- Node22 -->
<g id="node22" class="node">
<title>Node22</title>
<g id="a_node22"><a xlink:href="abcg__window_8hpp.html" target="_top" xlink:title="Header file of abcg::Window.">
<polygon fill="none" stroke="black" points="1193,-151 1193,-181 1327,-181 1327,-151 1193,-151"/>
<text text-anchor="start" x="1201" y="-169" font-family="Helvetica,sans-Serif" font-size="10.00">/home/harlen/dev/abcg2</text>
<text text-anchor="middle" x="1260" y="-158" font-family="Helvetica,sans-Serif" font-size="10.00">/abcg/abcg_window.hpp</text>
</a>
</g>
</g>
<!-- Node1&#45;&gt;Node22 -->
<g id="edge37" class="edge">
<title>Node1&#45;&gt;Node22</title>
<path fill="none" stroke="midnightblue" d="M702.13,-289.46C752.18,-279.68 818.5,-266.48 877,-254 991.7,-229.53 1125.16,-198.67 1200.4,-181.05"/>
<polygon fill="midnightblue" stroke="midnightblue" points="701.16,-286.08 692.02,-291.43 702.5,-292.95 701.16,-286.08"/>
</g>
<!-- Node6 -->
<g id="node6" class="node">
<title>Node6</title>
<g id="a_node6"><a xlink:href="abcg__opengl_8hpp.html" target="_top" xlink:title="Header file for OpenGL&#45;related functions and classes.">
<polygon fill="none" stroke="black" points="1616,-0.5 1616,-30.5 1750,-30.5 1750,-0.5 1616,-0.5"/>
<text text-anchor="start" x="1624" y="-18.5" font-family="Helvetica,sans-Serif" font-size="10.00">/home/harlen/dev/abcg2</text>
<text text-anchor="middle" x="1683" y="-7.5" font-family="Helvetica,sans-Serif" font-size="10.00">/abcg/abcg_opengl.hpp</text>
</a>
</g>
</g>
<!-- Node5&#45;&gt;Node6 -->
<g id="edge5" class="edge">
<title>Node5&#45;&gt;Node6</title>
<path fill="none" stroke="midnightblue" d="M1683,-62.73C1683,-52.07 1683,-39.91 1683,-30.75"/>
<polygon fill="midnightblue" stroke="midnightblue" points="1679.5,-62.73 1683,-72.73 1686.5,-62.73 1679.5,-62.73"/>
</g>
<!-- Node7 -->
<g id="node7" class="node">
<title>Node7</title>
<g id="a_node7"><a xlink:href="abcg__opengl__window_8cpp.html" target="_top" xlink:title="Definition of abcg::OpenGLWindow members.">
<polygon fill="none" stroke="black" points="1373,-0.5 1373,-30.5 1543,-30.5 1543,-0.5 1373,-0.5"/>
<text text-anchor="start" x="1381" y="-18.5" font-family="Helvetica,sans-Serif" font-size="10.00">/home/harlen/dev/abcg2</text>
<text text-anchor="middle" x="1458" y="-7.5" font-family="Helvetica,sans-Serif" font-size="10.00">/abcg/abcg_opengl_window.cpp</text>
</a>
</g>
</g>
<!-- Node5&#45;&gt;Node7 -->
<g id="edge6" class="edge">
<title>Node5&#45;&gt;Node7</title>
<path fill="none" stroke="midnightblue" d="M1628.29,-69.86C1589.87,-57.82 1539.1,-41.91 1503.02,-30.61"/>
<polygon fill="midnightblue" stroke="midnightblue" points="1627.69,-73.34 1638.28,-72.99 1629.78,-66.66 1627.69,-73.34"/>
</g>
<!-- Node8&#45;&gt;Node2 -->
<g id="edge8" class="edge">
<title>Node8&#45;&gt;Node2</title>
<path fill="none" stroke="midnightblue" d="M409.71,-223.01C294,-204.73 262.69,-207.7 152,-187 142.76,-185.27 133.01,-183.21 123.54,-181.07"/>
<polygon fill="midnightblue" stroke="midnightblue" points="409.24,-226.48 419.67,-224.6 410.35,-219.57 409.24,-226.48"/>
</g>
<!-- Node9 -->
<g id="node9" class="node">
<title>Node9</title>
<g id="a_node9"><a xlink:href="abcg__trackball_8cpp.html" target="_top" xlink:title="Definition of abcg::TrackBall members.">
<polygon fill="none" stroke="black" points="161.5,-151 161.5,-181 298.5,-181 298.5,-151 161.5,-151"/>
<text text-anchor="start" x="169.5" y="-169" font-family="Helvetica,sans-Serif" font-size="10.00">/home/harlen/dev/abcg2</text>
<text text-anchor="middle" x="230" y="-158" font-family="Helvetica,sans-Serif" font-size="10.00">/abcg/abcg_trackball.cpp</text>
</a>
</g>
</g>
<!-- Node8&#45;&gt;Node9 -->
<g id="edge9" class="edge">
<title>Node8&#45;&gt;Node9</title>
<path fill="none" stroke="midnightblue" d="M427.71,-220.82C383.29,-208.73 323.89,-192.56 281.83,-181.11"/>
<polygon fill="midnightblue" stroke="midnightblue" points="426.95,-224.24 437.52,-223.49 428.79,-217.48 426.95,-224.24"/>
</g>
<!-- Node11 -->
<g id="node11" class="node">
<title>Node11</title>
<g id="a_node11"><a xlink:href="abcg__vulkan_8cpp.html" target="_top" xlink:title=" ">
<polygon fill="none" stroke="black" points="167,-73 167,-103 301,-103 301,-73 167,-73"/>
<text text-anchor="start" x="175" y="-91" font-family="Helvetica,sans-Serif" font-size="10.00">/home/harlen/dev/abcg2</text>
<text text-anchor="middle" x="234" y="-80" font-family="Helvetica,sans-Serif" font-size="10.00">/abcg/abcg_vulkan.cpp</text>
</a>
</g>
</g>
<!-- Node10&#45;&gt;Node11 -->
<g id="edge11" class="edge">
<title>Node10&#45;&gt;Node11</title>
<path fill="none" stroke="midnightblue" d="M641.56,-229.83C540.01,-219.34 371.66,-200.31 346,-187 323.39,-175.27 325.84,-162.15 307,-145 290.11,-129.63 269.31,-113.95 254.24,-103.11"/>
<polygon fill="midnightblue" stroke="midnightblue" points="641.48,-233.34 651.78,-230.88 642.19,-226.38 641.48,-233.34"/>
</g>
<!-- Node10&#45;&gt;Node12 -->
<g id="edge12" class="edge">
<title>Node10&#45;&gt;Node12</title>
<path fill="none" stroke="midnightblue" d="M688.18,-217.92C669.76,-206.22 646.78,-191.63 630.16,-181.07"/>
<polygon fill="midnightblue" stroke="midnightblue" points="686.49,-221 696.8,-223.4 690.24,-215.09 686.49,-221"/>
</g>
<!-- Node15 -->
<g id="node15" class="node">
<title>Node15</title>
<g id="a_node15"><a xlink:href="abcg__vulkan__window_8hpp.html" target="_top" xlink:title="Header file of abcg::VulkanWindow.">
<polygon fill="none" stroke="black" points="747,-73 747,-103 917,-103 917,-73 747,-73"/>
<text text-anchor="start" x="755" y="-91" font-family="Helvetica,sans-Serif" font-size="10.00">/home/harlen/dev/abcg2</text>
<text text-anchor="middle" x="832" y="-80" font-family="Helvetica,sans-Serif" font-size="10.00">/abcg/abcg_vulkan_window.hpp</text>
</a>
</g>
</g>
<!-- Node10&#45;&gt;Node15 -->
<g id="edge32" class="edge">
<title>Node10&#45;&gt;Node15</title>
<path fill="none" stroke="midnightblue" d="M718.76,-213.1C719.71,-193.11 723.81,-164.95 738,-145 751.54,-125.96 773.77,-112.29 793.21,-103.22"/>
<polygon fill="midnightblue" stroke="midnightblue" points="715.26,-213.18 718.51,-223.27 722.25,-213.36 715.26,-213.18"/>
</g>
<!-- Node10&#45;&gt;Node17 -->
<g id="edge18" class="edge">
<title>Node10&#45;&gt;Node17</title>
<path fill="none" stroke="midnightblue" d="M792.21,-221.27C847.05,-209.11 921.34,-192.64 973.64,-181.05"/>
<polygon fill="midnightblue" stroke="midnightblue" points="791.21,-217.91 782.21,-223.49 792.73,-224.74 791.21,-217.91"/>
</g>
<!-- Node10&#45;&gt;Node20 -->
<g id="edge23" class="edge">
<title>Node10&#45;&gt;Node20</title>
<path fill="none" stroke="midnightblue" d="M651.89,-221.07C608.61,-210.48 552.21,-196.67 507.24,-185.66"/>
<polygon fill="midnightblue" stroke="midnightblue" points="651.21,-224.51 661.76,-223.49 652.88,-217.71 651.21,-224.51"/>
</g>
<!-- Node10&#45;&gt;Node21 -->
<g id="edge29" class="edge">
<title>Node10&#45;&gt;Node21</title>
<path fill="none" stroke="midnightblue" d="M751.78,-218.24C771.78,-206.49 796.91,-191.73 815.05,-181.07"/>
<polygon fill="midnightblue" stroke="midnightblue" points="749.84,-215.32 743,-223.4 753.39,-221.35 749.84,-215.32"/>
</g>
<!-- Node13 -->
<g id="node13" class="node">
<title>Node13</title>
<g id="a_node13"><a xlink:href="abcg__vulkan__device_8cpp.html" target="_top" xlink:title="Definition of abcg::VulkanDevice.">
<polygon fill="none" stroke="black" points="357,-73 357,-103 521,-103 521,-73 357,-73"/>
<text text-anchor="start" x="365" y="-91" font-family="Helvetica,sans-Serif" font-size="10.00">/home/harlen/dev/abcg2</text>
<text text-anchor="middle" x="439" y="-80" font-family="Helvetica,sans-Serif" font-size="10.00">/abcg/abcg_vulkan_device.cpp</text>
</a>
</g>
</g>
<!-- Node12&#45;&gt;Node13 -->
<g id="edge13" class="edge">
<title>Node12&#45;&gt;Node13</title>
<path fill="none" stroke="midnightblue" d="M567.3,-146.7C537.47,-133.28 497.56,-115.34 470.22,-103.04"/>
<polygon fill="midnightblue" stroke="midnightblue" points="566.05,-149.97 576.61,-150.88 568.92,-143.59 566.05,-149.97"/>
</g>
<!-- Node14 -->
<g id="node14" class="node">
<title>Node14</title>
<g id="a_node14"><a xlink:href="abcg__vulkan__swapchain_8cpp.html" target="_top" xlink:title="Definition of abcg::VulkanSwapchain.">
<polygon fill="none" stroke="black" points="577,-0.5 577,-30.5 761,-30.5 761,-0.5 577,-0.5"/>
<text text-anchor="start" x="585" y="-18.5" font-family="Helvetica,sans-Serif" font-size="10.00">/home/harlen/dev/abcg2</text>
<text text-anchor="middle" x="669" y="-7.5" font-family="Helvetica,sans-Serif" font-size="10.00">/abcg/abcg_vulkan_swapchain.cpp</text>
</a>
</g>
</g>
<!-- Node12&#45;&gt;Node14 -->
<g id="edge14" class="edge">
<title>Node12&#45;&gt;Node14</title>
<path fill="none" stroke="midnightblue" d="M587.7,-143.16C571.18,-122.62 552.89,-91.46 568,-67 578.67,-49.74 597.22,-38.18 615.53,-30.54"/>
<polygon fill="midnightblue" stroke="midnightblue" points="585.2,-145.63 594.33,-151 590.55,-141.11 585.2,-145.63"/>
</g>
<!-- Node12&#45;&gt;Node15 -->
<g id="edge15" class="edge">
<title>Node12&#45;&gt;Node15</title>
<path fill="none" stroke="midnightblue" d="M658.87,-147.74C698.68,-134.23 753.34,-115.69 790.52,-103.07"/>
<polygon fill="midnightblue" stroke="midnightblue" points="657.69,-144.44 649.35,-150.97 659.94,-151.07 657.69,-144.44"/>
</g>
<!-- Node15&#45;&gt;Node14 -->
<g id="edge16" class="edge">
<title>Node15&#45;&gt;Node14</title>
<path fill="none" stroke="midnightblue" d="M790.02,-68.84C762.46,-56.92 726.95,-41.57 701.54,-30.57"/>
<polygon fill="midnightblue" stroke="midnightblue" points="788.84,-72.15 799.41,-72.9 791.62,-65.72 788.84,-72.15"/>
</g>
<!-- Node16 -->
<g id="node16" class="node">
<title>Node16</title>
<g id="a_node16"><a xlink:href="abcg__vulkan__window_8cpp.html" target="_top" xlink:title="Definition of abcg::VulkanWindow members.">
<polygon fill="none" stroke="black" points="898.5,-0.5 898.5,-30.5 1067.5,-30.5 1067.5,-0.5 898.5,-0.5"/>
<text text-anchor="start" x="906.5" y="-18.5" font-family="Helvetica,sans-Serif" font-size="10.00">/home/harlen/dev/abcg2</text>
<text text-anchor="middle" x="983" y="-7.5" font-family="Helvetica,sans-Serif" font-size="10.00">/abcg/abcg_vulkan_window.cpp</text>
</a>
</g>
</g>
<!-- Node15&#45;&gt;Node16 -->
<g id="edge17" class="edge">
<title>Node15&#45;&gt;Node16</title>
<path fill="none" stroke="midnightblue" d="M871.56,-68.53C896.99,-56.66 929.52,-41.47 952.86,-30.57"/>
<polygon fill="midnightblue" stroke="midnightblue" points="869.77,-65.5 862.19,-72.9 872.74,-71.84 869.77,-65.5"/>
</g>
<!-- Node17&#45;&gt;Node15 -->
<g id="edge22" class="edge">
<title>Node17&#45;&gt;Node15</title>
<path fill="none" stroke="midnightblue" d="M989.5,-147.39C953.13,-133.9 903.61,-115.55 869.87,-103.04"/>
<polygon fill="midnightblue" stroke="midnightblue" points="988.33,-150.69 998.92,-150.88 990.76,-144.13 988.33,-150.69"/>
</g>
<!-- Node17&#45;&gt;Node16 -->
<g id="edge21" class="edge">
<title>Node17&#45;&gt;Node16</title>
<path fill="none" stroke="midnightblue" d="M1021,-142.54C1014.59,-132.65 1007.64,-120.65 1003,-109 992.41,-82.44 986.98,-49.25 984.58,-30.72"/>
<polygon fill="midnightblue" stroke="midnightblue" points="1018.17,-144.61 1026.65,-150.96 1023.99,-140.71 1018.17,-144.61"/>
</g>
<!-- Node18 -->
<g id="node18" class="node">
<title>Node18</title>
<g id="a_node18"><a xlink:href="abcg__vulkan__instance_8cpp.html" target="_top" xlink:title="Definition of abcg::VulkanInstance.">
<polygon fill="none" stroke="black" points="1011.5,-73 1011.5,-103 1184.5,-103 1184.5,-73 1011.5,-73"/>
<text text-anchor="start" x="1019.5" y="-91" font-family="Helvetica,sans-Serif" font-size="10.00">/home/harlen/dev/abcg2</text>
<text text-anchor="middle" x="1098" y="-80" font-family="Helvetica,sans-Serif" font-size="10.00">/abcg/abcg_vulkan_instance.cpp</text>
</a>
</g>
</g>
<!-- Node17&#45;&gt;Node18 -->
<g id="edge19" class="edge">
<title>Node17&#45;&gt;Node18</title>
<path fill="none" stroke="midnightblue" d="M1054.81,-142.81C1065.07,-130.03 1077.65,-114.36 1086.58,-103.23"/>
<polygon fill="midnightblue" stroke="midnightblue" points="1052,-140.72 1048.47,-150.7 1057.46,-145.1 1052,-140.72"/>
</g>
<!-- Node19 -->
<g id="node19" class="node">
<title>Node19</title>
<g id="a_node19"><a xlink:href="abcg__vulkan__physical__device_8cpp.html" target="_top" xlink:title="Definition of abcg::VulkanPhysicalDevice.">
<polygon fill="none" stroke="black" points="577,-67.5 577,-108.5 729,-108.5 729,-67.5 577,-67.5"/>
<text text-anchor="start" x="585" y="-96.5" font-family="Helvetica,sans-Serif" font-size="10.00">/home/harlen/dev/abcg2</text>
<text text-anchor="start" x="585" y="-85.5" font-family="Helvetica,sans-Serif" font-size="10.00">/abcg/abcg_vulkan_physical</text>
<text text-anchor="middle" x="653" y="-74.5" font-family="Helvetica,sans-Serif" font-size="10.00">_device.cpp</text>
</a>
</g>
</g>
<!-- Node17&#45;&gt;Node19 -->
<g id="edge20" class="edge">
<title>Node17&#45;&gt;Node19</title>
<path fill="none" stroke="midnightblue" d="M960.25,-148.98C953.4,-147.61 946.58,-146.26 940,-145 850.45,-127.79 827.31,-127.45 738,-109 735.18,-108.42 732.31,-107.81 729.41,-107.19"/>
<polygon fill="midnightblue" stroke="midnightblue" points="959.76,-152.45 970.26,-150.99 961.14,-145.59 959.76,-152.45"/>
</g>
<!-- Node20&#45;&gt;Node11 -->
<g id="edge24" class="edge">
<title>Node20&#45;&gt;Node11</title>
<path fill="none" stroke="midnightblue" d="M370.79,-141.77C338.06,-129.15 298.66,-113.94 270.57,-103.11"/>
<polygon fill="midnightblue" stroke="midnightblue" points="369.68,-145.09 380.27,-145.43 372.2,-138.56 369.68,-145.09"/>
</g>
<!-- Node20&#45;&gt;Node13 -->
<g id="edge25" class="edge">
<title>Node20&#45;&gt;Node13</title>
<path fill="none" stroke="midnightblue" d="M434.13,-135.28C435.29,-124.25 436.55,-112.25 437.5,-103.23"/>
<polygon fill="midnightblue" stroke="midnightblue" points="430.63,-135.12 433.06,-145.43 437.59,-135.85 430.63,-135.12"/>
</g>
<!-- Node20&#45;&gt;Node14 -->
<g id="edge27" class="edge">
<title>Node20&#45;&gt;Node14</title>
<path fill="none" stroke="midnightblue" d="M377.05,-139.78C365.42,-131.67 354.63,-121.47 348,-109 339.24,-92.52 335.87,-81.19 348,-67 376.96,-33.13 492.45,-21.83 576.63,-18.14"/>
<polygon fill="midnightblue" stroke="midnightblue" points="375.33,-142.83 385.63,-145.32 379.13,-136.95 375.33,-142.83"/>
</g>
<!-- Node20&#45;&gt;Node15 -->
<g id="edge28" class="edge">
<title>Node20&#45;&gt;Node15</title>
<path fill="none" stroke="midnightblue" d="M517.46,-144.78C615.78,-125.64 642.92,-126.81 738,-109 747.76,-107.17 758.06,-105.11 768.12,-103.03"/>
<polygon fill="midnightblue" stroke="midnightblue" points="516.54,-141.39 507.4,-146.76 517.89,-148.26 516.54,-141.39"/>
</g>
<!-- Node20&#45;&gt;Node19 -->
<g id="edge26" class="edge">
<title>Node20&#45;&gt;Node19</title>
<path fill="none" stroke="midnightblue" d="M497.7,-142.17C529.04,-131.44 566.02,-118.78 596.02,-108.51"/>
<polygon fill="midnightblue" stroke="midnightblue" points="496.5,-138.88 488.17,-145.43 498.77,-145.5 496.5,-138.88"/>
</g>
<!-- Node21&#45;&gt;Node14 -->
<g id="edge30" class="edge">
<title>Node21&#45;&gt;Node14</title>
<path fill="none" stroke="midnightblue" d="M886.05,-146.04C901.64,-137.24 917.23,-125.08 926,-109 934.94,-92.61 937.86,-81.42 926,-67 905.16,-41.67 826.21,-28.85 761.25,-22.49"/>
<polygon fill="midnightblue" stroke="midnightblue" points="884.15,-143.09 876.93,-150.85 887.41,-149.28 884.15,-143.09"/>
</g>
<!-- Node21&#45;&gt;Node15 -->
<g id="edge31" class="edge">
<title>Node21&#45;&gt;Node15</title>
<path fill="none" stroke="midnightblue" d="M836.75,-140.59C835.62,-128.26 834.28,-113.72 833.31,-103.23"/>
<polygon fill="midnightblue" stroke="midnightblue" points="833.28,-141.07 837.68,-150.7 840.25,-140.43 833.28,-141.07"/>
</g>
<!-- Node22&#45;&gt;Node5 -->
<g id="edge40" class="edge">
<title>Node22&#45;&gt;Node5</title>
<path fill="none" stroke="midnightblue" d="M1337.27,-152.77C1404.05,-141.97 1503.07,-125.45 1589,-109 1598.67,-107.15 1608.87,-105.09 1618.85,-103.02"/>
<polygon fill="midnightblue" stroke="midnightblue" points="1336.57,-149.33 1327.25,-154.38 1337.68,-156.25 1336.57,-149.33"/>
</g>
<!-- Node22&#45;&gt;Node7 -->
<g id="edge39" class="edge">
<title>Node22&#45;&gt;Node7</title>
<path fill="none" stroke="midnightblue" d="M1313.42,-147.3C1336.52,-138.08 1363.01,-125.3 1384,-109 1399.11,-97.27 1431.33,-53.76 1447.82,-30.84"/>
<polygon fill="midnightblue" stroke="midnightblue" points="1312.15,-144.04 1304.09,-150.91 1314.68,-150.57 1312.15,-144.04"/>
</g>
<!-- Node22&#45;&gt;Node15 -->
<g id="edge43" class="edge">
<title>Node22&#45;&gt;Node15</title>
<path fill="none" stroke="midnightblue" d="M1182.55,-151.25C1105.65,-137.59 988.36,-116.76 910.94,-103.02"/>
<polygon fill="midnightblue" stroke="midnightblue" points="1182.2,-154.74 1192.65,-153.04 1183.42,-147.85 1182.2,-154.74"/>
</g>
<!-- Node22&#45;&gt;Node16 -->
<g id="edge42" class="edge">
<title>Node22&#45;&gt;Node16</title>
<path fill="none" stroke="midnightblue" d="M1247.07,-141.85C1232.25,-116.11 1208.19,-76.84 1194,-67 1157.09,-41.4 1108.79,-28.69 1067.71,-22.42"/>
<polygon fill="midnightblue" stroke="midnightblue" points="1244.09,-143.69 1252.08,-150.65 1250.17,-140.22 1244.09,-143.69"/>
</g>
<!-- Node22&#45;&gt;Node18 -->
<g id="edge41" class="edge">
<title>Node22&#45;&gt;Node18</title>
<path fill="none" stroke="midnightblue" d="M1220.62,-146.52C1192.06,-133.13 1154.02,-115.28 1127.93,-103.04"/>
<polygon fill="midnightblue" stroke="midnightblue" points="1219.37,-149.8 1229.91,-150.88 1222.34,-143.47 1219.37,-149.8"/>
</g>
<!-- Node23 -->
<g id="node23" class="node">
<title>Node23</title>
<g id="a_node23"><a xlink:href="abcg__application_8cpp.html" target="_top" xlink:title="Definition of abcg::Application members.">
<polygon fill="none" stroke="black" points="1430.5,-73 1430.5,-103 1579.5,-103 1579.5,-73 1430.5,-73"/>
<text text-anchor="start" x="1438.5" y="-91" font-family="Helvetica,sans-Serif" font-size="10.00">/home/harlen/dev/abcg2</text>
<text text-anchor="middle" x="1505" y="-80" font-family="Helvetica,sans-Serif" font-size="10.00">/abcg/abcg_application.cpp</text>
</a>
</g>
</g>
<!-- Node22&#45;&gt;Node23 -->
<g id="edge38" class="edge">
<title>Node22&#45;&gt;Node23</title>
<path fill="none" stroke="midnightblue" d="M1314.81,-148C1358.42,-134.47 1418.7,-115.77 1459.63,-103.07"/>
<polygon fill="midnightblue" stroke="midnightblue" points="1313.74,-144.67 1305.22,-150.97 1315.81,-151.35 1313.74,-144.67"/>
</g>
<!-- Node24 -->
<g id="node24" class="node">
<title>Node24</title>
<g id="a_node24"><a xlink:href="abcg__window_8cpp.html" target="_top" xlink:title="Definition of abcg::Window members.">
<polygon fill="none" stroke="black" points="1241,-73 1241,-103 1375,-103 1375,-73 1241,-73"/>
<text text-anchor="start" x="1249" y="-91" font-family="Helvetica,sans-Serif" font-size="10.00">/home/harlen/dev/abcg2</text>
<text text-anchor="middle" x="1308" y="-80" font-family="Helvetica,sans-Serif" font-size="10.00">/abcg/abcg_window.cpp</text>
</a>
</g>
</g>
<!-- Node22&#45;&gt;Node24 -->
<g id="edge44" class="edge">
<title>Node22&#45;&gt;Node24</title>
<path fill="none" stroke="midnightblue" d="M1274.48,-142.07C1282.46,-129.44 1292.12,-114.15 1299.01,-103.23"/>
<polygon fill="midnightblue" stroke="midnightblue" points="1271.41,-140.38 1269.03,-150.7 1277.33,-144.12 1271.41,-140.38"/>
</g>
</g>
</svg>
