<?xml version="1.0" encoding="UTF-8" standalone="no"?>
<!DOCTYPE svg PUBLIC "-//W3C//DTD SVG 1.1//EN"
 "http://www.w3.org/Graphics/SVG/1.1/DTD/svg11.dtd">
<!-- Generated by graphviz version 2.43.0 (0)
 -->
<!-- Title: /home/harlen/dev/abcg2/abcg/abcg_vulkan_device.hpp Pages: 1 -->
<svg width="480pt" height="173pt"
 viewBox="0.00 0.00 479.50 173.00" xmlns="http://www.w3.org/2000/svg" xmlns:xlink="http://www.w3.org/1999/xlink">
<g id="graph0" class="graph" transform="scale(1 1) rotate(0) translate(4 169)">
<title>/home/harlen/dev/abcg2/abcg/abcg_vulkan_device.hpp</title>
<!-- Node1 -->
<g id="node1" class="node">
<title>Node1</title>
<g id="a_node1"><a xlink:title="Header file of abcg::VulkanDevice.">
<polygon fill="#bfbfbf" stroke="black" points="109.5,-134.5 109.5,-164.5 274.5,-164.5 274.5,-134.5 109.5,-134.5"/>
<text text-anchor="start" x="117.5" y="-152.5" font-family="Helvetica,sans-Serif" font-size="10.00">/home/harlen/dev/abcg2</text>
<text text-anchor="middle" x="192" y="-141.5" font-family="Helvetica,sans-Serif" font-size="10.00">/abcg/abcg_vulkan_device.hpp</text>
</a>
</g>
</g>
<!-- Node2 -->
<g id="node2" class="node">
<title>Node2</title>
<g id="a_node2"><a xlink:href="abcg__vulkan__device_8cpp.html" target="_top" xlink:title="Definition of abcg::VulkanDevice.">
<polygon fill="none" stroke="black" points="0,-67.5 0,-97.5 164,-97.5 164,-67.5 0,-67.5"/>
<text text-anchor="start" x="8" y="-85.5" font-family="Helvetica,sans-Serif" font-size="10.00">/home/harlen/dev/abcg2</text>
<text text-anchor="middle" x="82" y="-74.5" font-family="Helvetica,sans-Serif" font-size="10.00">/abcg/abcg_vulkan_device.cpp</text>
</a>
</g>
</g>
<!-- Node1&#45;&gt;Node2 -->
<g id="edge1" class="edge">
<title>Node1&#45;&gt;Node2</title>
<path fill="none" stroke="midnightblue" d="M159.5,-129.3C142.29,-119.12 121.52,-106.85 105.82,-97.58"/>
<polygon fill="midnightblue" stroke="midnightblue" points="157.74,-132.32 168.13,-134.4 161.3,-126.3 157.74,-132.32"/>
</g>
<!-- Node3 -->
<g id="node3" class="node">
<title>Node3</title>
<g id="a_node3"><a xlink:href="abcg__vulkan__swapchain_8cpp.html" target="_top" xlink:title="Definition of abcg::VulkanSwapchain.">
<polygon fill="none" stroke="black" points="100,-0.5 100,-30.5 284,-30.5 284,-0.5 100,-0.5"/>
<text text-anchor="start" x="108" y="-18.5" font-family="Helvetica,sans-Serif" font-size="10.00">/home/harlen/dev/abcg2</text>
<text text-anchor="middle" x="192" y="-7.5" font-family="Helvetica,sans-Serif" font-size="10.00">/abcg/abcg_vulkan_swapchain.cpp</text>
</a>
</g>
</g>
<!-- Node1&#45;&gt;Node3 -->
<g id="edge2" class="edge">
<title>Node1&#45;&gt;Node3</title>
<path fill="none" stroke="midnightblue" d="M192,-124.02C192,-96.51 192,-52.79 192,-30.52"/>
<polygon fill="midnightblue" stroke="midnightblue" points="188.5,-124.37 192,-134.37 195.5,-124.37 188.5,-124.37"/>
</g>
<!-- Node4 -->
<g id="node4" class="node">
<title>Node4</title>
<g id="a_node4"><a xlink:href="abcg__vulkan__window_8hpp.html" target="_top" xlink:title="Header file of abcg::VulkanWindow.">
<polygon fill="none" stroke="black" points="220,-67.5 220,-97.5 390,-97.5 390,-67.5 220,-67.5"/>
<text text-anchor="start" x="228" y="-85.5" font-family="Helvetica,sans-Serif" font-size="10.00">/home/harlen/dev/abcg2</text>
<text text-anchor="middle" x="305" y="-74.5" font-family="Helvetica,sans-Serif" font-size="10.00">/abcg/abcg_vulkan_window.hpp</text>
</a>
</g>
</g>
<!-- Node1&#45;&gt;Node4 -->
<g id="edge3" class="edge">
<title>Node1&#45;&gt;Node4</title>
<path fill="none" stroke="midnightblue" d="M225.39,-129.3C243.07,-119.12 264.4,-106.85 280.53,-97.58"/>
<polygon fill="midnightblue" stroke="midnightblue" points="223.44,-126.38 216.52,-134.4 226.93,-132.44 223.44,-126.38"/>
</g>
<!-- Node4&#45;&gt;Node3 -->
<g id="edge4" class="edge">
<title>Node4&#45;&gt;Node3</title>
<path fill="none" stroke="midnightblue" d="M271.61,-62.3C253.93,-52.12 232.6,-39.85 216.47,-30.58"/>
<polygon fill="midnightblue" stroke="midnightblue" points="270.07,-65.44 280.48,-67.4 273.56,-59.38 270.07,-65.44"/>
</g>
<!-- Node5 -->
<g id="node5" class="node">
<title>Node5</title>
<g id="a_node5"><a xlink:href="abcg__vulkan__window_8cpp.html" target="_top" xlink:title="Definition of abcg::VulkanWindow members.">
<polygon fill="none" stroke="black" points="302.5,-0.5 302.5,-30.5 471.5,-30.5 471.5,-0.5 302.5,-0.5"/>
<text text-anchor="start" x="310.5" y="-18.5" font-family="Helvetica,sans-Serif" font-size="10.00">/home/harlen/dev/abcg2</text>
<text text-anchor="middle" x="387" y="-7.5" font-family="Helvetica,sans-Serif" font-size="10.00">/abcg/abcg_vulkan_window.cpp</text>
</a>
</g>
</g>
<!-- Node4&#45;&gt;Node5 -->
<g id="edge5" class="edge">
<title>Node4&#45;&gt;Node5</title>
<path fill="none" stroke="midnightblue" d="M330.65,-61.17C343.19,-51.23 357.97,-39.51 369.24,-30.58"/>
<polygon fill="midnightblue" stroke="midnightblue" points="328.46,-58.44 322.79,-67.4 332.8,-63.93 328.46,-58.44"/>
</g>
</g>
</svg>
