<?xml version="1.0" encoding="UTF-8" standalone="no"?>
<!DOCTYPE svg PUBLIC "-//W3C//DTD SVG 1.1//EN"
 "http://www.w3.org/Graphics/SVG/1.1/DTD/svg11.dtd">
<!-- Generated by graphviz version 2.43.0 (0)
 -->
<!-- Title: /home/harlen/dev/abcg/abcg/abcgVulkan.hpp Pages: 1 -->
<svg width="1332pt" height="487pt"
 viewBox="0.00 0.00 1331.86 487.00" xmlns="http://www.w3.org/2000/svg" xmlns:xlink="http://www.w3.org/1999/xlink">
<g id="graph0" class="graph" transform="scale(1 1) rotate(0) translate(4 483)">
<title>/home/harlen/dev/abcg/abcg/abcgVulkan.hpp</title>
<!-- Node1 -->
<g id="node1" class="node">
<title>Node1</title>
<g id="a_node1"><a xlink:title="Header file for Vulkan&#45;related functions and classes.">
<polygon fill="#bfbfbf" stroke="black" points="776.86,-448.5 776.86,-478.5 904.86,-478.5 904.86,-448.5 776.86,-448.5"/>
<text text-anchor="start" x="784.86" y="-466.5" font-family="Helvetica,sans-Serif" font-size="10.00">/home/harlen/dev/abcg</text>
<text text-anchor="middle" x="840.86" y="-455.5" font-family="Helvetica,sans-Serif" font-size="10.00">/abcg/abcgVulkan.hpp</text>
</a>
</g>
</g>
<!-- Node2 -->
<g id="node2" class="node">
<title>Node2</title>
<g id="a_node2"><a xlink:href="abcg_8hpp.html" target="_top" xlink:title="Shortcut header that includes the most common ABCg headers.">
<polygon fill="none" stroke="black" points="277.36,-336.5 277.36,-355.5 338.36,-355.5 338.36,-336.5 277.36,-336.5"/>
<text text-anchor="middle" x="307.86" y="-343.5" font-family="Helvetica,sans-Serif" font-size="10.00">abcg.hpp</text>
</a>
</g>
</g>
<!-- Node1&#45;&gt;Node2 -->
<g id="edge1" class="edge">
<title>Node1&#45;&gt;Node2</title>
<path fill="none" stroke="midnightblue" d="M776.83,-448.63C665.77,-424.56 440.48,-375.74 348.43,-355.79"/>
<polygon fill="midnightblue" stroke="midnightblue" points="348.91,-352.31 338.39,-353.62 347.43,-359.15 348.91,-352.31"/>
</g>
<!-- Node15 -->
<g id="node15" class="node">
<title>Node15</title>
<g id="a_node15"><a xlink:href="abcgVulkanBuffer_8hpp.html" target="_top" xlink:title="Header file of abcg::VulkanBuffer.">
<polygon fill="none" stroke="black" points="722.86,-280.5 722.86,-299.5 844.86,-299.5 844.86,-280.5 722.86,-280.5"/>
<text text-anchor="middle" x="783.86" y="-287.5" font-family="Helvetica,sans-Serif" font-size="10.00">abcgVulkanBuffer.hpp</text>
</a>
</g>
</g>
<!-- Node1&#45;&gt;Node15 -->
<g id="edge20" class="edge">
<title>Node1&#45;&gt;Node15</title>
<path fill="none" stroke="midnightblue" d="M829.45,-448.31C822.22,-438.62 813.24,-425.19 807.86,-412 793.76,-377.42 787.73,-333.81 785.32,-309.51"/>
<polygon fill="midnightblue" stroke="midnightblue" points="788.81,-309.18 784.43,-299.53 781.84,-309.8 788.81,-309.18"/>
</g>
<!-- Node24 -->
<g id="node24" class="node">
<title>Node24</title>
<g id="a_node24"><a xlink:href="abcgVulkanImage_8hpp.html" target="_top" xlink:title="Header file of abcg::VulkanImage.">
<polygon fill="none" stroke="black" points="862.86,-280.5 862.86,-299.5 986.86,-299.5 986.86,-280.5 862.86,-280.5"/>
<text text-anchor="middle" x="924.86" y="-287.5" font-family="Helvetica,sans-Serif" font-size="10.00">abcgVulkanImage.hpp</text>
</a>
</g>
</g>
<!-- Node1&#45;&gt;Node24 -->
<g id="edge31" class="edge">
<title>Node1&#45;&gt;Node24</title>
<path fill="none" stroke="midnightblue" d="M842.68,-448.23C846.33,-423.7 856.19,-372.67 878.86,-336 885.79,-324.8 896.09,-314.37 905.19,-306.38"/>
<polygon fill="midnightblue" stroke="midnightblue" points="907.66,-308.87 913.08,-299.77 903.17,-303.51 907.66,-308.87"/>
</g>
<!-- Node25 -->
<g id="node25" class="node">
<title>Node25</title>
<g id="a_node25"><a xlink:href="abcgVulkanPipeline_8hpp.html" target="_top" xlink:title="Header file of abcg::VulkanPipeline.">
<polygon fill="none" stroke="black" points="887.86,-392.5 887.86,-411.5 1019.86,-411.5 1019.86,-392.5 887.86,-392.5"/>
<text text-anchor="middle" x="953.86" y="-399.5" font-family="Helvetica,sans-Serif" font-size="10.00">abcgVulkanPipeline.hpp</text>
</a>
</g>
</g>
<!-- Node1&#45;&gt;Node25 -->
<g id="edge34" class="edge">
<title>Node1&#45;&gt;Node25</title>
<path fill="none" stroke="midnightblue" d="M867.64,-448.4C885.92,-438.77 910.01,-426.09 928.08,-416.58"/>
<polygon fill="midnightblue" stroke="midnightblue" points="930.2,-419.41 937.42,-411.66 926.94,-413.22 930.2,-419.41"/>
</g>
<!-- Node26 -->
<g id="node26" class="node">
<title>Node26</title>
<g id="a_node26"><a xlink:href="abcgVulkanShader_8hpp.html" target="_top" xlink:title="Declaration of helper functions for creating Vulkan shaders.">
<polygon fill="none" stroke="black" points="887.86,-336.5 887.86,-355.5 1013.86,-355.5 1013.86,-336.5 887.86,-336.5"/>
<text text-anchor="middle" x="950.86" y="-343.5" font-family="Helvetica,sans-Serif" font-size="10.00">abcgVulkanShader.hpp</text>
</a>
</g>
</g>
<!-- Node1&#45;&gt;Node26 -->
<g id="edge45" class="edge">
<title>Node1&#45;&gt;Node26</title>
<path fill="none" stroke="midnightblue" d="M845.9,-448.45C851.92,-433.18 863.17,-408.74 878.86,-392 891.19,-378.86 908.15,-368.01 922.52,-360.26"/>
<polygon fill="midnightblue" stroke="midnightblue" points="924.23,-363.31 931.52,-355.62 921.02,-357.09 924.23,-363.31"/>
</g>
<!-- Node30 -->
<g id="node30" class="node">
<title>Node30</title>
<g id="a_node30"><a xlink:href="abcgVulkanWindow_8hpp.html" target="_top" xlink:title="Header file of abcg::VulkanWindow.">
<polygon fill="none" stroke="black" points="1099.36,-392.5 1099.36,-411.5 1230.36,-411.5 1230.36,-392.5 1099.36,-392.5"/>
<text text-anchor="middle" x="1164.86" y="-399.5" font-family="Helvetica,sans-Serif" font-size="10.00">abcgVulkanWindow.hpp</text>
</a>
</g>
</g>
<!-- Node1&#45;&gt;Node30 -->
<g id="edge46" class="edge">
<title>Node1&#45;&gt;Node30</title>
<path fill="none" stroke="midnightblue" d="M904.87,-450.74C964.2,-439.85 1051.61,-423.8 1108.39,-413.37"/>
<polygon fill="midnightblue" stroke="midnightblue" points="1109.07,-416.8 1118.28,-411.56 1107.81,-409.92 1109.07,-416.8"/>
</g>
<!-- Node3 -->
<g id="node3" class="node">
<title>Node3</title>
<g id="a_node3"><a xlink:href="abcgApplication_8hpp.html" target="_top" xlink:title="Header file of abcg::Application.">
<polygon fill="none" stroke="black" points="380.86,-280.5 380.86,-299.5 496.86,-299.5 496.86,-280.5 380.86,-280.5"/>
<text text-anchor="middle" x="438.86" y="-287.5" font-family="Helvetica,sans-Serif" font-size="10.00">abcgApplication.hpp</text>
</a>
</g>
</g>
<!-- Node2&#45;&gt;Node3 -->
<g id="edge2" class="edge">
<title>Node2&#45;&gt;Node3</title>
<path fill="none" stroke="midnightblue" d="M328.62,-336.44C350.18,-327.56 384.13,-313.56 408.66,-303.45"/>
<polygon fill="midnightblue" stroke="midnightblue" points="410.29,-306.56 418.2,-299.52 407.62,-300.09 410.29,-306.56"/>
</g>
<!-- Node5 -->
<g id="node5" class="node">
<title>Node5</title>
<g id="a_node5"><a xlink:href="abcgException_8hpp.html" target="_top" xlink:title="Header file of abcg::Exception and derived classes.">
<polygon fill="none" stroke="black" points="253.36,-280.5 253.36,-299.5 362.36,-299.5 362.36,-280.5 253.36,-280.5"/>
<text text-anchor="middle" x="307.86" y="-287.5" font-family="Helvetica,sans-Serif" font-size="10.00">abcgException.hpp</text>
</a>
</g>
</g>
<!-- Node2&#45;&gt;Node5 -->
<g id="edge4" class="edge">
<title>Node2&#45;&gt;Node5</title>
<path fill="none" stroke="midnightblue" d="M307.86,-336.08C307.86,-329.01 307.86,-318.86 307.86,-309.99"/>
<polygon fill="midnightblue" stroke="midnightblue" points="311.36,-309.75 307.86,-299.75 304.36,-309.75 311.36,-309.75"/>
</g>
<!-- Node8 -->
<g id="node8" class="node">
<title>Node8</title>
<g id="a_node8"><a xlink:href="abcgExternal_8hpp.html" target="_top" xlink:title="Header file for including third&#45;party dependencies.">
<polygon fill="none" stroke="black" points="6.36,-224.5 6.36,-243.5 107.36,-243.5 107.36,-224.5 6.36,-224.5"/>
<text text-anchor="middle" x="56.86" y="-231.5" font-family="Helvetica,sans-Serif" font-size="10.00">abcgExternal.hpp</text>
</a>
</g>
</g>
<!-- Node2&#45;&gt;Node8 -->
<g id="edge8" class="edge">
<title>Node2&#45;&gt;Node8</title>
<path fill="none" stroke="midnightblue" d="M277.27,-345.27C207.48,-345.16 39.86,-340.57 4.86,-300 -9.94,-282.84 12.9,-262.32 32.82,-248.99"/>
<polygon fill="midnightblue" stroke="midnightblue" points="34.78,-251.89 41.34,-243.58 31.02,-245.98 34.78,-251.89"/>
</g>
<!-- Node9 -->
<g id="node9" class="node">
<title>Node9</title>
<g id="a_node9"><a xlink:href="abcgTrackball_8hpp.html" target="_top" xlink:title="Header file of abcg::TrackBall.">
<polygon fill="none" stroke="black" points="13.86,-280.5 13.86,-299.5 117.86,-299.5 117.86,-280.5 13.86,-280.5"/>
<text text-anchor="middle" x="65.86" y="-287.5" font-family="Helvetica,sans-Serif" font-size="10.00">abcgTrackball.hpp</text>
</a>
</g>
</g>
<!-- Node2&#45;&gt;Node9 -->
<g id="edge9" class="edge">
<title>Node2&#45;&gt;Node9</title>
<path fill="none" stroke="midnightblue" d="M277.21,-338.16C236.13,-328.99 162.76,-312.62 114.19,-301.78"/>
<polygon fill="midnightblue" stroke="midnightblue" points="114.75,-298.32 104.23,-299.56 113.23,-305.16 114.75,-298.32"/>
</g>
<!-- Node12 -->
<g id="node12" class="node">
<title>Node12</title>
<g id="a_node12"><a xlink:href="abcgUtil_8hpp.html" target="_top" xlink:title="Declaration of general utility functions.">
<polygon fill="none" stroke="black" points="514.86,-280.5 514.86,-299.5 592.86,-299.5 592.86,-280.5 514.86,-280.5"/>
<text text-anchor="middle" x="553.86" y="-287.5" font-family="Helvetica,sans-Serif" font-size="10.00">abcgUtil.hpp</text>
</a>
</g>
</g>
<!-- Node2&#45;&gt;Node12 -->
<g id="edge13" class="edge">
<title>Node2&#45;&gt;Node12</title>
<path fill="none" stroke="midnightblue" d="M338.52,-338.27C380.33,-329.09 455.69,-312.55 505.25,-301.67"/>
<polygon fill="midnightblue" stroke="midnightblue" points="506.09,-305.07 515.11,-299.51 504.59,-298.23 506.09,-305.07"/>
</g>
<!-- Node14 -->
<g id="node14" class="node">
<title>Node14</title>
<g id="a_node14"><a xlink:href="abcgWindow_8hpp.html" target="_top" xlink:title="Header file of abcg::Window.">
<polygon fill="none" stroke="black" points="136.36,-280.5 136.36,-299.5 235.36,-299.5 235.36,-280.5 136.36,-280.5"/>
<text text-anchor="middle" x="185.86" y="-287.5" font-family="Helvetica,sans-Serif" font-size="10.00">abcgWindow.hpp</text>
</a>
</g>
</g>
<!-- Node2&#45;&gt;Node14 -->
<g id="edge16" class="edge">
<title>Node2&#45;&gt;Node14</title>
<path fill="none" stroke="midnightblue" d="M288.53,-336.44C268.54,-327.6 237.12,-313.69 214.3,-303.59"/>
<polygon fill="midnightblue" stroke="midnightblue" points="215.66,-300.36 205.1,-299.52 212.83,-306.76 215.66,-300.36"/>
</g>
<!-- Node4 -->
<g id="node4" class="node">
<title>Node4</title>
<g id="a_node4"><a xlink:title=" ">
<polygon fill="none" stroke="#bfbfbf" points="426.86,-224.5 426.86,-243.5 470.86,-243.5 470.86,-224.5 426.86,-224.5"/>
<text text-anchor="middle" x="448.86" y="-231.5" font-family="Helvetica,sans-Serif" font-size="10.00">string</text>
</a>
</g>
</g>
<!-- Node3&#45;&gt;Node4 -->
<g id="edge3" class="edge">
<title>Node3&#45;&gt;Node4</title>
<path fill="none" stroke="midnightblue" d="M440.51,-280.08C441.84,-272.93 443.74,-262.64 445.4,-253.69"/>
<polygon fill="midnightblue" stroke="midnightblue" points="448.86,-254.22 447.24,-243.75 441.98,-252.95 448.86,-254.22"/>
</g>
<!-- Node5&#45;&gt;Node4 -->
<g id="edge7" class="edge">
<title>Node5&#45;&gt;Node4</title>
<path fill="none" stroke="midnightblue" d="M330.2,-280.44C353.61,-271.48 390.6,-257.31 417.05,-247.18"/>
<polygon fill="midnightblue" stroke="midnightblue" points="418.54,-250.36 426.62,-243.52 416.03,-243.82 418.54,-250.36"/>
</g>
<!-- Node6 -->
<g id="node6" class="node">
<title>Node6</title>
<g id="a_node6"><a xlink:title=" ">
<polygon fill="none" stroke="#bfbfbf" points="315.36,-224.5 315.36,-243.5 408.36,-243.5 408.36,-224.5 315.36,-224.5"/>
<text text-anchor="middle" x="361.86" y="-231.5" font-family="Helvetica,sans-Serif" font-size="10.00">source_location</text>
</a>
</g>
</g>
<!-- Node5&#45;&gt;Node6 -->
<g id="edge5" class="edge">
<title>Node5&#45;&gt;Node6</title>
<path fill="none" stroke="midnightblue" d="M316.78,-280.08C324.64,-272.22 336.29,-260.57 345.78,-251.08"/>
<polygon fill="midnightblue" stroke="midnightblue" points="348.51,-253.3 353.11,-243.75 343.56,-248.35 348.51,-253.3"/>
</g>
<!-- Node7 -->
<g id="node7" class="node">
<title>Node7</title>
<g id="a_node7"><a xlink:title=" ">
<polygon fill="none" stroke="#bfbfbf" points="232.36,-224.5 232.36,-243.5 297.36,-243.5 297.36,-224.5 232.36,-224.5"/>
<text text-anchor="middle" x="264.86" y="-231.5" font-family="Helvetica,sans-Serif" font-size="10.00">stdexcept</text>
</a>
</g>
</g>
<!-- Node5&#45;&gt;Node7 -->
<g id="edge6" class="edge">
<title>Node5&#45;&gt;Node7</title>
<path fill="none" stroke="midnightblue" d="M300.76,-280.08C294.62,-272.38 285.59,-261.03 278.12,-251.65"/>
<polygon fill="midnightblue" stroke="midnightblue" points="280.8,-249.39 271.83,-243.75 275.32,-253.75 280.8,-249.39"/>
</g>
<!-- Node9&#45;&gt;Node8 -->
<g id="edge10" class="edge">
<title>Node9&#45;&gt;Node8</title>
<path fill="none" stroke="midnightblue" d="M64.38,-280.08C63.18,-272.93 61.47,-262.64 59.98,-253.69"/>
<polygon fill="midnightblue" stroke="midnightblue" points="63.42,-253.04 58.32,-243.75 56.51,-254.19 63.42,-253.04"/>
</g>
<!-- Node10 -->
<g id="node10" class="node">
<title>Node10</title>
<g id="a_node10"><a xlink:href="abcgTimer_8hpp.html" target="_top" xlink:title="Header file of abcg::Timer.">
<polygon fill="none" stroke="black" points="125.36,-224.5 125.36,-243.5 214.36,-243.5 214.36,-224.5 125.36,-224.5"/>
<text text-anchor="middle" x="169.86" y="-231.5" font-family="Helvetica,sans-Serif" font-size="10.00">abcgTimer.hpp</text>
</a>
</g>
</g>
<!-- Node9&#45;&gt;Node10 -->
<g id="edge11" class="edge">
<title>Node9&#45;&gt;Node10</title>
<path fill="none" stroke="midnightblue" d="M82.57,-280.32C99.17,-271.7 124.86,-258.36 144.08,-248.39"/>
<polygon fill="midnightblue" stroke="midnightblue" points="145.93,-251.37 153.19,-243.65 142.71,-245.16 145.93,-251.37"/>
</g>
<!-- Node11 -->
<g id="node11" class="node">
<title>Node11</title>
<g id="a_node11"><a xlink:title=" ">
<polygon fill="none" stroke="#bfbfbf" points="144.86,-168.5 144.86,-187.5 194.86,-187.5 194.86,-168.5 144.86,-168.5"/>
<text text-anchor="middle" x="169.86" y="-175.5" font-family="Helvetica,sans-Serif" font-size="10.00">chrono</text>
</a>
</g>
</g>
<!-- Node10&#45;&gt;Node11 -->
<g id="edge12" class="edge">
<title>Node10&#45;&gt;Node11</title>
<path fill="none" stroke="midnightblue" d="M169.86,-224.08C169.86,-217.01 169.86,-206.86 169.86,-197.99"/>
<polygon fill="midnightblue" stroke="midnightblue" points="173.36,-197.75 169.86,-187.75 166.36,-197.75 173.36,-197.75"/>
</g>
<!-- Node12&#45;&gt;Node4 -->
<g id="edge15" class="edge">
<title>Node12&#45;&gt;Node4</title>
<path fill="none" stroke="midnightblue" d="M536.99,-280.32C520.15,-271.66 494.06,-258.24 474.62,-248.25"/>
<polygon fill="midnightblue" stroke="midnightblue" points="476.18,-245.12 465.69,-243.65 472.98,-251.34 476.18,-245.12"/>
</g>
<!-- Node13 -->
<g id="node13" class="node">
<title>Node13</title>
<g id="a_node13"><a xlink:title=" ">
<polygon fill="none" stroke="#bfbfbf" points="966.36,-168.5 966.36,-187.5 1031.36,-187.5 1031.36,-168.5 966.36,-168.5"/>
<text text-anchor="middle" x="998.86" y="-175.5" font-family="Helvetica,sans-Serif" font-size="10.00">functional</text>
</a>
</g>
</g>
<!-- Node12&#45;&gt;Node13 -->
<g id="edge14" class="edge">
<title>Node12&#45;&gt;Node13</title>
<path fill="none" stroke="midnightblue" d="M585.76,-280.41C633.21,-267.69 725.25,-243.29 803.86,-224 856.17,-211.17 916.62,-197.38 956.18,-188.49"/>
<polygon fill="midnightblue" stroke="midnightblue" points="957.03,-191.89 966.02,-186.29 955.5,-185.06 957.03,-191.89"/>
</g>
<!-- Node14&#45;&gt;Node4 -->
<g id="edge17" class="edge">
<title>Node14&#45;&gt;Node4</title>
<path fill="none" stroke="midnightblue" d="M235.68,-280.51C280.43,-272.61 348.14,-259.99 416.46,-243.92"/>
<polygon fill="midnightblue" stroke="midnightblue" points="417.62,-247.24 426.54,-241.53 416,-240.43 417.62,-247.24"/>
</g>
<!-- Node14&#45;&gt;Node8 -->
<g id="edge18" class="edge">
<title>Node14&#45;&gt;Node8</title>
<path fill="none" stroke="midnightblue" d="M165.42,-280.44C144.19,-271.56 110.76,-257.56 86.61,-247.45"/>
<polygon fill="midnightblue" stroke="midnightblue" points="87.78,-244.15 77.21,-243.52 85.08,-250.61 87.78,-244.15"/>
</g>
<!-- Node14&#45;&gt;Node10 -->
<g id="edge19" class="edge">
<title>Node14&#45;&gt;Node10</title>
<path fill="none" stroke="midnightblue" d="M183.22,-280.08C181.08,-272.85 177.98,-262.41 175.31,-253.4"/>
<polygon fill="midnightblue" stroke="midnightblue" points="178.65,-252.34 172.45,-243.75 171.94,-254.33 178.65,-252.34"/>
</g>
<!-- Node16 -->
<g id="node16" class="node">
<title>Node16</title>
<g id="a_node16"><a xlink:href="abcgVulkanDevice_8hpp.html" target="_top" xlink:title="Header file of abcg::VulkanDevice.">
<polygon fill="none" stroke="black" points="935.36,-224.5 935.36,-243.5 1062.36,-243.5 1062.36,-224.5 935.36,-224.5"/>
<text text-anchor="middle" x="998.86" y="-231.5" font-family="Helvetica,sans-Serif" font-size="10.00">abcgVulkanDevice.hpp</text>
</a>
</g>
</g>
<!-- Node15&#45;&gt;Node16 -->
<g id="edge21" class="edge">
<title>Node15&#45;&gt;Node16</title>
<path fill="none" stroke="midnightblue" d="M817.93,-280.44C855.04,-271.12 914.52,-256.18 955.08,-246"/>
<polygon fill="midnightblue" stroke="midnightblue" points="956.11,-249.35 964.95,-243.52 954.4,-242.56 956.11,-249.35"/>
</g>
<!-- Node23 -->
<g id="node23" class="node">
<title>Node23</title>
<g id="a_node23"><a xlink:title=" ">
<polygon fill="none" stroke="#bfbfbf" points="812.86,-224.5 812.86,-243.5 886.86,-243.5 886.86,-224.5 812.86,-224.5"/>
<text text-anchor="middle" x="849.86" y="-231.5" font-family="Helvetica,sans-Serif" font-size="10.00">gsl/pointers</text>
</a>
</g>
</g>
<!-- Node15&#45;&gt;Node23 -->
<g id="edge30" class="edge">
<title>Node15&#45;&gt;Node23</title>
<path fill="none" stroke="midnightblue" d="M794.47,-280.32C804.32,-272.26 819.21,-260.08 831.08,-250.37"/>
<polygon fill="midnightblue" stroke="midnightblue" points="833.54,-252.88 839.06,-243.83 829.11,-247.46 833.54,-252.88"/>
</g>
<!-- Node16&#45;&gt;Node13 -->
<g id="edge29" class="edge">
<title>Node16&#45;&gt;Node13</title>
<path fill="none" stroke="midnightblue" d="M998.86,-224.08C998.86,-217.01 998.86,-206.86 998.86,-197.99"/>
<polygon fill="midnightblue" stroke="midnightblue" points="1002.36,-197.75 998.86,-187.75 995.36,-197.75 1002.36,-197.75"/>
</g>
<!-- Node17 -->
<g id="node17" class="node">
<title>Node17</title>
<g id="a_node17"><a xlink:href="abcgVulkanPhysicalDevice_8hpp.html" target="_top" xlink:title="Header file of abcg::VulkanPhysicalDevice.">
<polygon fill="none" stroke="black" points="1078.36,-168.5 1078.36,-187.5 1245.36,-187.5 1245.36,-168.5 1078.36,-168.5"/>
<text text-anchor="middle" x="1161.86" y="-175.5" font-family="Helvetica,sans-Serif" font-size="10.00">abcgVulkanPhysicalDevice.hpp</text>
</a>
</g>
</g>
<!-- Node16&#45;&gt;Node17 -->
<g id="edge22" class="edge">
<title>Node16&#45;&gt;Node17</title>
<path fill="none" stroke="midnightblue" d="M1024.69,-224.44C1052.11,-215.36 1095.64,-200.94 1126.29,-190.78"/>
<polygon fill="midnightblue" stroke="midnightblue" points="1127.76,-193.98 1136.15,-187.52 1125.56,-187.34 1127.76,-193.98"/>
</g>
<!-- Node18 -->
<g id="node18" class="node">
<title>Node18</title>
<g id="a_node18"><a xlink:title=" ">
<polygon fill="none" stroke="#bfbfbf" points="868.86,-112.5 868.86,-131.5 924.86,-131.5 924.86,-112.5 868.86,-112.5"/>
<text text-anchor="middle" x="896.86" y="-119.5" font-family="Helvetica,sans-Serif" font-size="10.00">optional</text>
</a>
</g>
</g>
<!-- Node17&#45;&gt;Node18 -->
<g id="edge23" class="edge">
<title>Node17&#45;&gt;Node18</title>
<path fill="none" stroke="midnightblue" d="M1119.87,-168.44C1069.05,-158.09 984.2,-140.8 935.12,-130.8"/>
<polygon fill="midnightblue" stroke="midnightblue" points="935.71,-127.34 925.21,-128.78 934.31,-134.2 935.71,-127.34"/>
</g>
<!-- Node19 -->
<g id="node19" class="node">
<title>Node19</title>
<g id="a_node19"><a xlink:href="abcgVulkanExternal_8hpp.html" target="_top" xlink:title="Header file for including Vulkan&#45;related dependencies.">
<polygon fill="none" stroke="black" points="1141.86,-56.5 1141.86,-75.5 1275.86,-75.5 1275.86,-56.5 1141.86,-56.5"/>
<text text-anchor="middle" x="1208.86" y="-63.5" font-family="Helvetica,sans-Serif" font-size="10.00">abcgVulkanExternal.hpp</text>
</a>
</g>
</g>
<!-- Node17&#45;&gt;Node19 -->
<g id="edge24" class="edge">
<title>Node17&#45;&gt;Node19</title>
<path fill="none" stroke="midnightblue" d="M1163.61,-168.32C1166.34,-155.61 1172.22,-131.32 1180.86,-112 1185.23,-102.24 1191.4,-92.06 1196.84,-83.86"/>
<polygon fill="midnightblue" stroke="midnightblue" points="1199.76,-85.79 1202.54,-75.57 1193.99,-81.83 1199.76,-85.79"/>
</g>
<!-- Node22 -->
<g id="node22" class="node">
<title>Node22</title>
<g id="a_node22"><a xlink:href="abcgVulkanInstance_8hpp.html" target="_top" xlink:title="Header file of abcg::VulkanInstance.">
<polygon fill="none" stroke="black" points="1189.86,-112.5 1189.86,-131.5 1323.86,-131.5 1323.86,-112.5 1189.86,-112.5"/>
<text text-anchor="middle" x="1256.86" y="-119.5" font-family="Helvetica,sans-Serif" font-size="10.00">abcgVulkanInstance.hpp</text>
</a>
</g>
</g>
<!-- Node17&#45;&gt;Node22 -->
<g id="edge27" class="edge">
<title>Node17&#45;&gt;Node22</title>
<path fill="none" stroke="midnightblue" d="M1177.13,-168.32C1192.08,-159.82 1215.12,-146.73 1232.59,-136.8"/>
<polygon fill="midnightblue" stroke="midnightblue" points="1234.67,-139.64 1241.64,-131.65 1231.21,-133.55 1234.67,-139.64"/>
</g>
<!-- Node20 -->
<g id="node20" class="node">
<title>Node20</title>
<g id="a_node20"><a xlink:title=" ">
<polygon fill="none" stroke="#bfbfbf" points="1138.36,-0.5 1138.36,-19.5 1185.36,-19.5 1185.36,-0.5 1138.36,-0.5"/>
<text text-anchor="middle" x="1161.86" y="-7.5" font-family="Helvetica,sans-Serif" font-size="10.00">volk.h</text>
</a>
</g>
</g>
<!-- Node19&#45;&gt;Node20 -->
<g id="edge25" class="edge">
<title>Node19&#45;&gt;Node20</title>
<path fill="none" stroke="midnightblue" d="M1201.1,-56.08C1194.32,-48.3 1184.32,-36.8 1176.11,-27.37"/>
<polygon fill="midnightblue" stroke="midnightblue" points="1178.68,-25 1169.48,-19.75 1173.4,-29.59 1178.68,-25"/>
</g>
<!-- Node21 -->
<g id="node21" class="node">
<title>Node21</title>
<g id="a_node21"><a xlink:title=" ">
<polygon fill="none" stroke="#bfbfbf" points="1203.36,-0.5 1203.36,-19.5 1308.36,-19.5 1308.36,-0.5 1203.36,-0.5"/>
<text text-anchor="middle" x="1255.86" y="-7.5" font-family="Helvetica,sans-Serif" font-size="10.00">vulkan/vulkan.hpp</text>
</a>
</g>
</g>
<!-- Node19&#45;&gt;Node21 -->
<g id="edge26" class="edge">
<title>Node19&#45;&gt;Node21</title>
<path fill="none" stroke="midnightblue" d="M1216.62,-56.08C1223.4,-48.3 1233.4,-36.8 1241.62,-27.37"/>
<polygon fill="midnightblue" stroke="midnightblue" points="1244.32,-29.59 1248.25,-19.75 1239.04,-25 1244.32,-29.59"/>
</g>
<!-- Node22&#45;&gt;Node19 -->
<g id="edge28" class="edge">
<title>Node22&#45;&gt;Node19</title>
<path fill="none" stroke="midnightblue" d="M1248.94,-112.08C1242.02,-104.3 1231.8,-92.8 1223.41,-83.37"/>
<polygon fill="midnightblue" stroke="midnightblue" points="1225.9,-80.9 1216.64,-75.75 1220.67,-85.55 1225.9,-80.9"/>
</g>
<!-- Node24&#45;&gt;Node16 -->
<g id="edge32" class="edge">
<title>Node24&#45;&gt;Node16</title>
<path fill="none" stroke="midnightblue" d="M936.75,-280.32C948.01,-272.11 965.15,-259.6 978.57,-249.81"/>
<polygon fill="midnightblue" stroke="midnightblue" points="980.74,-252.56 986.76,-243.83 976.61,-246.9 980.74,-252.56"/>
</g>
<!-- Node24&#45;&gt;Node23 -->
<g id="edge33" class="edge">
<title>Node24&#45;&gt;Node23</title>
<path fill="none" stroke="midnightblue" d="M912.81,-280.32C901.4,-272.11 884.03,-259.6 870.43,-249.81"/>
<polygon fill="midnightblue" stroke="midnightblue" points="872.29,-246.84 862.13,-243.83 868.2,-252.52 872.29,-246.84"/>
</g>
<!-- Node25&#45;&gt;Node26 -->
<g id="edge35" class="edge">
<title>Node25&#45;&gt;Node26</title>
<path fill="none" stroke="midnightblue" d="M953.37,-392.08C952.97,-385.01 952.41,-374.86 951.92,-365.99"/>
<polygon fill="midnightblue" stroke="midnightblue" points="955.4,-365.54 951.35,-355.75 948.41,-365.93 955.4,-365.54"/>
</g>
<!-- Node28 -->
<g id="node28" class="node">
<title>Node28</title>
<g id="a_node28"><a xlink:href="abcgVulkanSwapchain_8hpp.html" target="_top" xlink:title="Header file of abcg::VulkanSwapchain.">
<polygon fill="none" stroke="black" points="1031.86,-336.5 1031.86,-355.5 1177.86,-355.5 1177.86,-336.5 1031.86,-336.5"/>
<text text-anchor="middle" x="1104.86" y="-343.5" font-family="Helvetica,sans-Serif" font-size="10.00">abcgVulkanSwapchain.hpp</text>
</a>
</g>
</g>
<!-- Node25&#45;&gt;Node28 -->
<g id="edge40" class="edge">
<title>Node25&#45;&gt;Node28</title>
<path fill="none" stroke="midnightblue" d="M977.79,-392.44C1003.08,-383.4 1043.16,-369.06 1071.54,-358.92"/>
<polygon fill="midnightblue" stroke="midnightblue" points="1072.81,-362.18 1081.05,-355.52 1070.45,-355.59 1072.81,-362.18"/>
</g>
<!-- Node26&#45;&gt;Node16 -->
<g id="edge39" class="edge">
<title>Node26&#45;&gt;Node16</title>
<path fill="none" stroke="midnightblue" d="M963.75,-336.36C974.49,-328.35 989.08,-315.36 995.86,-300 1002.28,-285.47 1002.55,-267.29 1001.49,-253.85"/>
<polygon fill="midnightblue" stroke="midnightblue" points="1004.97,-253.42 1000.4,-243.87 998.01,-254.19 1004.97,-253.42"/>
</g>
<!-- Node27 -->
<g id="node27" class="node">
<title>Node27</title>
<g id="a_node27"><a xlink:href="abcgShader_8hpp.html" target="_top" xlink:title="Declaration of a structure for building shaders.">
<polygon fill="none" stroke="black" points="610.86,-280.5 610.86,-299.5 704.86,-299.5 704.86,-280.5 610.86,-280.5"/>
<text text-anchor="middle" x="657.86" y="-287.5" font-family="Helvetica,sans-Serif" font-size="10.00">abcgShader.hpp</text>
</a>
</g>
</g>
<!-- Node26&#45;&gt;Node27 -->
<g id="edge36" class="edge">
<title>Node26&#45;&gt;Node27</title>
<path fill="none" stroke="midnightblue" d="M904.44,-336.44C852.79,-326.92 769.35,-311.55 714.05,-301.36"/>
<polygon fill="midnightblue" stroke="midnightblue" points="714.54,-297.89 704.07,-299.52 713.27,-304.77 714.54,-297.89"/>
</g>
<!-- Node27&#45;&gt;Node4 -->
<g id="edge38" class="edge">
<title>Node27&#45;&gt;Node4</title>
<path fill="none" stroke="midnightblue" d="M624.75,-280.44C585.23,-270.23 519.62,-253.28 480.69,-243.22"/>
<polygon fill="midnightblue" stroke="midnightblue" points="481.48,-239.81 470.92,-240.7 479.73,-246.59 481.48,-239.81"/>
</g>
<!-- Node27&#45;&gt;Node18 -->
<g id="edge37" class="edge">
<title>Node27&#45;&gt;Node18</title>
<path fill="none" stroke="midnightblue" d="M670.37,-280.31C709.17,-253.36 827.74,-171.01 876.05,-137.46"/>
<polygon fill="midnightblue" stroke="midnightblue" points="878.26,-140.18 884.47,-131.61 874.26,-134.44 878.26,-140.18"/>
</g>
<!-- Node28&#45;&gt;Node13 -->
<g id="edge41" class="edge">
<title>Node28&#45;&gt;Node13</title>
<path fill="none" stroke="midnightblue" d="M1104.53,-336.46C1103.3,-315.31 1097.55,-259.62 1070.86,-224 1060.42,-210.07 1044.29,-199.41 1029.93,-191.97"/>
<polygon fill="midnightblue" stroke="midnightblue" points="1031.36,-188.78 1020.84,-187.55 1028.3,-195.07 1031.36,-188.78"/>
</g>
<!-- Node28&#45;&gt;Node16 -->
<g id="edge43" class="edge">
<title>Node28&#45;&gt;Node16</title>
<path fill="none" stroke="midnightblue" d="M1096.54,-336.37C1078.82,-317.97 1037.09,-274.67 1014.33,-251.05"/>
<polygon fill="midnightblue" stroke="midnightblue" points="1016.6,-248.36 1007.14,-243.59 1011.56,-253.22 1016.6,-248.36"/>
</g>
<!-- Node28&#45;&gt;Node24 -->
<g id="edge44" class="edge">
<title>Node28&#45;&gt;Node24</title>
<path fill="none" stroke="midnightblue" d="M1076.34,-336.44C1045.8,-327.28 997.15,-312.69 963.26,-302.52"/>
<polygon fill="midnightblue" stroke="midnightblue" points="963.83,-299.04 953.25,-299.52 961.82,-305.74 963.83,-299.04"/>
</g>
<!-- Node29 -->
<g id="node29" class="node">
<title>Node29</title>
<g id="a_node29"><a xlink:title=" ">
<polygon fill="none" stroke="#bfbfbf" points="1119.36,-280.5 1119.36,-299.5 1196.36,-299.5 1196.36,-280.5 1119.36,-280.5"/>
<text text-anchor="middle" x="1157.86" y="-287.5" font-family="Helvetica,sans-Serif" font-size="10.00">glm/fwd.hpp</text>
</a>
</g>
</g>
<!-- Node28&#45;&gt;Node29 -->
<g id="edge42" class="edge">
<title>Node28&#45;&gt;Node29</title>
<path fill="none" stroke="midnightblue" d="M1113.61,-336.08C1121.33,-328.22 1132.77,-316.57 1142.08,-307.08"/>
<polygon fill="midnightblue" stroke="midnightblue" points="1144.77,-309.34 1149.27,-299.75 1139.77,-304.44 1144.77,-309.34"/>
</g>
<!-- Node30&#45;&gt;Node14 -->
<g id="edge51" class="edge">
<title>Node30&#45;&gt;Node14</title>
<path fill="none" stroke="midnightblue" d="M1099.13,-394.81C949.47,-380.5 571.64,-343.12 245.63,-300.19"/>
<polygon fill="midnightblue" stroke="midnightblue" points="245.89,-296.69 235.51,-298.85 244.97,-303.63 245.89,-296.69"/>
</g>
<!-- Node30&#45;&gt;Node16 -->
<g id="edge47" class="edge">
<title>Node30&#45;&gt;Node16</title>
<path fill="none" stroke="midnightblue" d="M1172.65,-392.4C1190.96,-371.12 1233.17,-315.16 1204.86,-280 1188.25,-259.37 1124.63,-247.69 1072.43,-241.43"/>
<polygon fill="midnightblue" stroke="midnightblue" points="1072.83,-237.95 1062.49,-240.28 1072.03,-244.9 1072.83,-237.95"/>
</g>
<!-- Node30&#45;&gt;Node17 -->
<g id="edge49" class="edge">
<title>Node30&#45;&gt;Node17</title>
<path fill="none" stroke="midnightblue" d="M1180.24,-392.47C1192.65,-384.7 1209.39,-372 1217.86,-356 1233.71,-326.05 1233.07,-312.61 1223.86,-280 1214.59,-247.18 1191.34,-214.52 1176.09,-195.57"/>
<polygon fill="midnightblue" stroke="midnightblue" points="1178.61,-193.13 1169.54,-187.65 1173.22,-197.59 1178.61,-193.13"/>
</g>
<!-- Node30&#45;&gt;Node22 -->
<g id="edge48" class="edge">
<title>Node30&#45;&gt;Node22</title>
<path fill="none" stroke="midnightblue" d="M1192.71,-392.48C1232.5,-378.37 1300.86,-346.12 1300.86,-291 1300.86,-291 1300.86,-291 1300.86,-233 1300.86,-198.04 1281.47,-161.01 1268.43,-140.07"/>
<polygon fill="midnightblue" stroke="midnightblue" points="1271.35,-138.15 1262.98,-131.65 1265.47,-141.95 1271.35,-138.15"/>
</g>
<!-- Node30&#45;&gt;Node28 -->
<g id="edge50" class="edge">
<title>Node30&#45;&gt;Node28</title>
<path fill="none" stroke="midnightblue" d="M1155.22,-392.32C1146.35,-384.34 1132.99,-372.31 1122.25,-362.65"/>
<polygon fill="midnightblue" stroke="midnightblue" points="1124.45,-359.92 1114.68,-355.83 1119.77,-365.13 1124.45,-359.92"/>
</g>
</g>
</svg>
