<?xml version="1.0" encoding="UTF-8" standalone="no"?>
<!DOCTYPE svg PUBLIC "-//W3C//DTD SVG 1.1//EN"
 "http://www.w3.org/Graphics/SVG/1.1/DTD/svg11.dtd">
<!-- Generated by graphviz version 2.43.0 (0)
 -->
<!-- Title: /home/harlen/dev/abcg2/abcg/abcg_opengl_function.cpp Pages: 1 -->
<svg width="556pt" height="207pt"
 viewBox="0.00 0.00 556.25 207.00" xmlns="http://www.w3.org/2000/svg" xmlns:xlink="http://www.w3.org/1999/xlink">
<g id="graph0" class="graph" transform="scale(1 1) rotate(0) translate(4 203)">
<title>/home/harlen/dev/abcg2/abcg/abcg_opengl_function.cpp</title>
<!-- Node1 -->
<g id="node1" class="node">
<title>Node1</title>
<g id="a_node1"><a xlink:title="Definition of OpenGL&#45;related error checking functions.">
<polygon fill="#bfbfbf" stroke="black" points="168.75,-168.5 168.75,-198.5 341.75,-198.5 341.75,-168.5 168.75,-168.5"/>
<text text-anchor="start" x="176.75" y="-186.5" font-family="Helvetica,sans-Serif" font-size="10.00">/home/harlen/dev/abcg2</text>
<text text-anchor="middle" x="255.25" y="-175.5" font-family="Helvetica,sans-Serif" font-size="10.00">/abcg/abcg_opengl_function.cpp</text>
</a>
</g>
</g>
<!-- Node2 -->
<g id="node2" class="node">
<title>Node2</title>
<g id="a_node2"><a xlink:href="abcg__opengl__function_8hpp.html" target="_top" xlink:title="Declaration of OpenGL&#45;related error checking functions.">
<polygon fill="none" stroke="black" points="70.25,-112.5 70.25,-131.5 214.25,-131.5 214.25,-112.5 70.25,-112.5"/>
<text text-anchor="middle" x="142.25" y="-119.5" font-family="Helvetica,sans-Serif" font-size="10.00">abcg_opengl_function.hpp</text>
</a>
</g>
</g>
<!-- Node1&#45;&gt;Node2 -->
<g id="edge1" class="edge">
<title>Node1&#45;&gt;Node2</title>
<path fill="none" stroke="midnightblue" d="M228.47,-168.4C210.19,-158.77 186.11,-146.09 168.04,-136.58"/>
<polygon fill="midnightblue" stroke="midnightblue" points="169.18,-133.22 158.7,-131.66 165.91,-139.41 169.18,-133.22"/>
</g>
<!-- Node7 -->
<g id="node7" class="node">
<title>Node7</title>
<g id="a_node7"><a xlink:href="abcg__opengl__error_8hpp.html" target="_top" xlink:title="Header file of abcg::OpenGLError and derived classes.">
<polygon fill="none" stroke="black" points="304.75,-112.5 304.75,-131.5 431.75,-131.5 431.75,-112.5 304.75,-112.5"/>
<text text-anchor="middle" x="368.25" y="-119.5" font-family="Helvetica,sans-Serif" font-size="10.00">abcg_opengl_error.hpp</text>
</a>
</g>
</g>
<!-- Node1&#45;&gt;Node7 -->
<g id="edge6" class="edge">
<title>Node1&#45;&gt;Node7</title>
<path fill="none" stroke="midnightblue" d="M282.03,-168.4C300.32,-158.77 324.4,-146.09 342.47,-136.58"/>
<polygon fill="midnightblue" stroke="midnightblue" points="344.59,-139.41 351.81,-131.66 341.33,-133.22 344.59,-139.41"/>
</g>
<!-- Node3 -->
<g id="node3" class="node">
<title>Node3</title>
<g id="a_node3"><a xlink:title=" ">
<polygon fill="none" stroke="#bfbfbf" points="309.75,-0.5 309.75,-19.5 402.75,-19.5 402.75,-0.5 309.75,-0.5"/>
<text text-anchor="middle" x="356.25" y="-7.5" font-family="Helvetica,sans-Serif" font-size="10.00">source_location</text>
</a>
</g>
</g>
<!-- Node2&#45;&gt;Node3 -->
<g id="edge2" class="edge">
<title>Node2&#45;&gt;Node3</title>
<path fill="none" stroke="midnightblue" d="M81.51,-112.42C34.33,-103.27 -19.03,-85.89 7.25,-56 26.21,-34.44 205.46,-20.28 299.41,-14.28"/>
<polygon fill="midnightblue" stroke="midnightblue" points="299.84,-17.76 309.6,-13.64 299.4,-10.77 299.84,-17.76"/>
</g>
<!-- Node4 -->
<g id="node4" class="node">
<title>Node4</title>
<g id="a_node4"><a xlink:title=" ">
<polygon fill="none" stroke="#bfbfbf" points="16.75,-56.5 16.75,-75.5 89.75,-75.5 89.75,-56.5 16.75,-56.5"/>
<text text-anchor="middle" x="53.25" y="-63.5" font-family="Helvetica,sans-Serif" font-size="10.00">string_view</text>
</a>
</g>
</g>
<!-- Node2&#45;&gt;Node4 -->
<g id="edge3" class="edge">
<title>Node2&#45;&gt;Node4</title>
<path fill="none" stroke="midnightblue" d="M127.95,-112.32C114.07,-103.9 92.76,-90.97 76.45,-81.07"/>
<polygon fill="midnightblue" stroke="midnightblue" points="77.88,-77.85 67.52,-75.65 74.25,-83.83 77.88,-77.85"/>
</g>
<!-- Node5 -->
<g id="node5" class="node">
<title>Node5</title>
<g id="a_node5"><a xlink:title=" ">
<polygon fill="none" stroke="#bfbfbf" points="107.75,-56.5 107.75,-75.5 176.75,-75.5 176.75,-56.5 107.75,-56.5"/>
<text text-anchor="middle" x="142.25" y="-63.5" font-family="Helvetica,sans-Serif" font-size="10.00">type_traits</text>
</a>
</g>
</g>
<!-- Node2&#45;&gt;Node5 -->
<g id="edge4" class="edge">
<title>Node2&#45;&gt;Node5</title>
<path fill="none" stroke="midnightblue" d="M142.25,-112.08C142.25,-105.01 142.25,-94.86 142.25,-85.99"/>
<polygon fill="midnightblue" stroke="midnightblue" points="145.75,-85.75 142.25,-75.75 138.75,-85.75 145.75,-85.75"/>
</g>
<!-- Node6 -->
<g id="node6" class="node">
<title>Node6</title>
<g id="a_node6"><a xlink:href="abcg__opengl__external_8hpp.html" target="_top" xlink:title="Header file for including OpenGL&#45;related third&#45;party dependencies.">
<polygon fill="none" stroke="black" points="194.75,-56.5 194.75,-75.5 339.75,-75.5 339.75,-56.5 194.75,-56.5"/>
<text text-anchor="middle" x="267.25" y="-63.5" font-family="Helvetica,sans-Serif" font-size="10.00">abcg_opengl_external.hpp</text>
</a>
</g>
</g>
<!-- Node2&#45;&gt;Node6 -->
<g id="edge5" class="edge">
<title>Node2&#45;&gt;Node6</title>
<path fill="none" stroke="midnightblue" d="M162.06,-112.44C182.54,-103.6 214.74,-89.69 238.12,-79.59"/>
<polygon fill="midnightblue" stroke="midnightblue" points="239.75,-82.7 247.54,-75.52 236.97,-76.27 239.75,-82.7"/>
</g>
<!-- Node7&#45;&gt;Node3 -->
<g id="edge7" class="edge">
<title>Node7&#45;&gt;Node3</title>
<path fill="none" stroke="midnightblue" d="M367.31,-112.37C365.38,-94.62 360.91,-53.67 358.28,-29.6"/>
<polygon fill="midnightblue" stroke="midnightblue" points="361.76,-29.15 357.19,-19.59 354.8,-29.91 361.76,-29.15"/>
</g>
<!-- Node8 -->
<g id="node8" class="node">
<title>Node8</title>
<g id="a_node8"><a xlink:href="abcg__exception_8hpp.html" target="_top" xlink:title="Header file of abcg::Exception and derived classes.">
<polygon fill="none" stroke="black" points="396.25,-56.5 396.25,-75.5 510.25,-75.5 510.25,-56.5 396.25,-56.5"/>
<text text-anchor="middle" x="453.25" y="-63.5" font-family="Helvetica,sans-Serif" font-size="10.00">abcg_exception.hpp</text>
</a>
</g>
</g>
<!-- Node7&#45;&gt;Node8 -->
<g id="edge8" class="edge">
<title>Node7&#45;&gt;Node8</title>
<path fill="none" stroke="midnightblue" d="M381.91,-112.32C395.17,-103.9 415.52,-90.97 431.1,-81.07"/>
<polygon fill="midnightblue" stroke="midnightblue" points="433.07,-83.97 439.63,-75.65 429.31,-78.06 433.07,-83.97"/>
</g>
<!-- Node8&#45;&gt;Node3 -->
<g id="edge9" class="edge">
<title>Node8&#45;&gt;Node3</title>
<path fill="none" stroke="midnightblue" d="M437.67,-56.32C422.26,-47.74 398.44,-34.49 380.54,-24.52"/>
<polygon fill="midnightblue" stroke="midnightblue" points="382.24,-21.46 371.8,-19.65 378.84,-27.58 382.24,-21.46"/>
</g>
<!-- Node9 -->
<g id="node9" class="node">
<title>Node9</title>
<g id="a_node9"><a xlink:title=" ">
<polygon fill="none" stroke="#bfbfbf" points="420.75,-0.5 420.75,-19.5 485.75,-19.5 485.75,-0.5 420.75,-0.5"/>
<text text-anchor="middle" x="453.25" y="-7.5" font-family="Helvetica,sans-Serif" font-size="10.00">stdexcept</text>
</a>
</g>
</g>
<!-- Node8&#45;&gt;Node9 -->
<g id="edge10" class="edge">
<title>Node8&#45;&gt;Node9</title>
<path fill="none" stroke="midnightblue" d="M453.25,-56.08C453.25,-49.01 453.25,-38.86 453.25,-29.99"/>
<polygon fill="midnightblue" stroke="midnightblue" points="456.75,-29.75 453.25,-19.75 449.75,-29.75 456.75,-29.75"/>
</g>
<!-- Node10 -->
<g id="node10" class="node">
<title>Node10</title>
<g id="a_node10"><a xlink:title=" ">
<polygon fill="none" stroke="#bfbfbf" points="504.25,-0.5 504.25,-19.5 548.25,-19.5 548.25,-0.5 504.25,-0.5"/>
<text text-anchor="middle" x="526.25" y="-7.5" font-family="Helvetica,sans-Serif" font-size="10.00">string</text>
</a>
</g>
</g>
<!-- Node8&#45;&gt;Node10 -->
<g id="edge11" class="edge">
<title>Node8&#45;&gt;Node10</title>
<path fill="none" stroke="midnightblue" d="M464.98,-56.32C476.09,-48.11 493,-35.6 506.24,-25.81"/>
<polygon fill="midnightblue" stroke="midnightblue" points="508.35,-28.59 514.31,-19.83 504.19,-22.97 508.35,-28.59"/>
</g>
</g>
</svg>
