<?xml version="1.0" encoding="UTF-8" standalone="no"?>
<!DOCTYPE svg PUBLIC "-//W3C//DTD SVG 1.1//EN"
 "http://www.w3.org/Graphics/SVG/1.1/DTD/svg11.dtd">
<!-- Generated by graphviz version 2.43.0 (0)
 -->
<!-- Title: /home/harlen/dev/abcg/abcg/abcgVulkanError.cpp Pages: 1 -->
<svg width="321pt" height="203pt"
 viewBox="0.00 0.00 321.35 203.00" xmlns="http://www.w3.org/2000/svg" xmlns:xlink="http://www.w3.org/1999/xlink">
<g id="graph0" class="graph" transform="scale(1 1) rotate(0) translate(4 199)">
<title>/home/harlen/dev/abcg/abcg/abcgVulkanError.cpp</title>
<!-- Node1 -->
<g id="Node000001" class="node">
<title>Node1</title>
<g id="a_Node000001"><a xlink:title="Definition of abcg::VulkanError members.">
<polygon fill="#999999" stroke="#666666" points="210.35,-195 66.35,-195 66.35,-165 210.35,-165 210.35,-195"/>
<text text-anchor="start" x="74.35" y="-183" font-family="Helvetica,sans-Serif" font-size="10.00">/home/harlen/dev/abcg</text>
<text text-anchor="middle" x="138.35" y="-172" font-family="Helvetica,sans-Serif" font-size="10.00">/abcg/abcgVulkanError.cpp</text>
</a>
</g>
</g>
<!-- Node2 -->
<g id="Node000002" class="node">
<title>Node2</title>
<g id="a_Node000002"><a xlink:href="abcgVulkanError_8hpp.html" target="_top" xlink:title="Header file of abcg::VulkanError and derived classes.">
<polygon fill="white" stroke="#666666" points="141.35,-129 25.35,-129 25.35,-110 141.35,-110 141.35,-129"/>
<text text-anchor="middle" x="83.35" y="-117" font-family="Helvetica,sans-Serif" font-size="10.00">abcgVulkanError.hpp</text>
</a>
</g>
</g>
<!-- Node1&#45;&gt;Node2 -->
<g id="edge1_Node000001_Node000002" class="edge">
<title>Node1&#45;&gt;Node2</title>
<g id="a_edge1_Node000001_Node000002"><a xlink:title=" ">
<path fill="none" stroke="#63b8ff" d="M125.03,-164.84C117.05,-156.35 106.87,-145.52 98.57,-136.69"/>
<polygon fill="#63b8ff" stroke="#63b8ff" points="100.99,-134.15 91.59,-129.27 95.89,-138.95 100.99,-134.15"/>
</a>
</g>
</g>
<!-- Node9 -->
<g id="Node000009" class="node">
<title>Node9</title>
<g id="a_Node000009"><a xlink:title=" ">
<polygon fill="#e0e0e0" stroke="#999999" points="226.85,-129 159.85,-129 159.85,-110 226.85,-110 226.85,-129"/>
<text text-anchor="middle" x="193.35" y="-117" font-family="Helvetica,sans-Serif" font-size="10.00">fmt/core.h</text>
</a>
</g>
</g>
<!-- Node1&#45;&gt;Node9 -->
<g id="edge9_Node000001_Node000009" class="edge">
<title>Node1&#45;&gt;Node9</title>
<g id="a_edge9_Node000001_Node000009"><a xlink:title=" ">
<path fill="none" stroke="#63b8ff" d="M151.66,-164.84C159.64,-156.35 169.82,-145.52 178.13,-136.69"/>
<polygon fill="#63b8ff" stroke="#63b8ff" points="180.8,-138.95 185.1,-129.27 175.7,-134.15 180.8,-138.95"/>
</a>
</g>
</g>
<!-- Node3 -->
<g id="Node000003" class="node">
<title>Node3</title>
<g id="a_Node000003"><a xlink:title=" ">
<polygon fill="#e0e0e0" stroke="#999999" points="117.85,-19 24.85,-19 24.85,0 117.85,0 117.85,-19"/>
<text text-anchor="middle" x="71.35" y="-7" font-family="Helvetica,sans-Serif" font-size="10.00">source_location</text>
</a>
</g>
</g>
<!-- Node2&#45;&gt;Node3 -->
<g id="edge2_Node000002_Node000003" class="edge">
<title>Node2&#45;&gt;Node3</title>
<g id="a_edge2_Node000002_Node000003"><a xlink:title=" ">
<path fill="none" stroke="#63b8ff" d="M52.3,-109.87C34.6,-103.18 13.9,-91.95 3.35,-74 -8.89,-53.2 16.32,-35.05 39.44,-23.54"/>
<polygon fill="#63b8ff" stroke="#63b8ff" points="41.19,-26.58 48.77,-19.17 38.23,-20.24 41.19,-26.58"/>
</a>
</g>
</g>
<!-- Node4 -->
<g id="Node000004" class="node">
<title>Node4</title>
<g id="a_Node000004"><a xlink:title=" ">
<polygon fill="#e0e0e0" stroke="#999999" points="59.85,-74 12.85,-74 12.85,-55 59.85,-55 59.85,-74"/>
<text text-anchor="middle" x="36.35" y="-62" font-family="Helvetica,sans-Serif" font-size="10.00">volk.h</text>
</a>
</g>
</g>
<!-- Node2&#45;&gt;Node4 -->
<g id="edge3_Node000002_Node000004" class="edge">
<title>Node2&#45;&gt;Node4</title>
<g id="a_edge3_Node000002_Node000004"><a xlink:title=" ">
<path fill="none" stroke="#63b8ff" d="M75.58,-109.75C68.88,-102.18 59,-91.05 50.84,-81.84"/>
<polygon fill="#63b8ff" stroke="#63b8ff" points="53.22,-79.25 43.96,-74.09 47.98,-83.89 53.22,-79.25"/>
</a>
</g>
</g>
<!-- Node5 -->
<g id="Node000005" class="node">
<title>Node5</title>
<g id="a_Node000005"><a xlink:title=" ">
<polygon fill="#e0e0e0" stroke="#999999" points="182.85,-74 77.85,-74 77.85,-55 182.85,-55 182.85,-74"/>
<text text-anchor="middle" x="130.35" y="-62" font-family="Helvetica,sans-Serif" font-size="10.00">vulkan/vulkan.hpp</text>
</a>
</g>
</g>
<!-- Node2&#45;&gt;Node5 -->
<g id="edge4_Node000002_Node000005" class="edge">
<title>Node2&#45;&gt;Node5</title>
<g id="a_edge4_Node000002_Node000005"><a xlink:title=" ">
<path fill="none" stroke="#63b8ff" d="M91.11,-109.75C97.81,-102.18 107.69,-91.05 115.85,-81.84"/>
<polygon fill="#63b8ff" stroke="#63b8ff" points="118.71,-83.89 122.73,-74.09 113.48,-79.25 118.71,-83.89"/>
</a>
</g>
</g>
<!-- Node6 -->
<g id="Node000006" class="node">
<title>Node6</title>
<g id="a_Node000006"><a xlink:href="abcgException_8hpp.html" target="_top" xlink:title="Header file of abcg::Exception and derived classes.">
<polygon fill="white" stroke="#666666" points="309.85,-74 200.85,-74 200.85,-55 309.85,-55 309.85,-74"/>
<text text-anchor="middle" x="255.35" y="-62" font-family="Helvetica,sans-Serif" font-size="10.00">abcgException.hpp</text>
</a>
</g>
</g>
<!-- Node2&#45;&gt;Node6 -->
<g id="edge5_Node000002_Node000006" class="edge">
<title>Node2&#45;&gt;Node6</title>
<g id="a_edge5_Node000002_Node000006"><a xlink:title=" ">
<path fill="none" stroke="#63b8ff" d="M110.98,-109.98C139.86,-101.09 185.36,-87.07 217.55,-77.15"/>
<polygon fill="#63b8ff" stroke="#63b8ff" points="218.97,-80.37 227.49,-74.08 216.91,-73.68 218.97,-80.37"/>
</a>
</g>
</g>
<!-- Node6&#45;&gt;Node3 -->
<g id="edge6_Node000006_Node000003" class="edge">
<title>Node6&#45;&gt;Node3</title>
<g id="a_edge6_Node000006_Node000003"><a xlink:title=" ">
<path fill="none" stroke="#63b8ff" d="M225.78,-54.98C194.62,-46.01 145.37,-31.82 110.89,-21.89"/>
<polygon fill="#63b8ff" stroke="#63b8ff" points="111.72,-18.49 101.14,-19.08 109.78,-25.21 111.72,-18.49"/>
</a>
</g>
</g>
<!-- Node7 -->
<g id="Node000007" class="node">
<title>Node7</title>
<g id="a_Node000007"><a xlink:title=" ">
<polygon fill="#e0e0e0" stroke="#999999" points="250.85,-19 185.85,-19 185.85,0 250.85,0 250.85,-19"/>
<text text-anchor="middle" x="218.35" y="-7" font-family="Helvetica,sans-Serif" font-size="10.00">stdexcept</text>
</a>
</g>
</g>
<!-- Node6&#45;&gt;Node7 -->
<g id="edge7_Node000006_Node000007" class="edge">
<title>Node6&#45;&gt;Node7</title>
<g id="a_edge7_Node000006_Node000007"><a xlink:title=" ">
<path fill="none" stroke="#63b8ff" d="M249.24,-54.75C244.06,-47.34 236.5,-36.5 230.15,-27.41"/>
<polygon fill="#63b8ff" stroke="#63b8ff" points="232.94,-25.29 224.34,-19.09 227.2,-29.29 232.94,-25.29"/>
</a>
</g>
</g>
<!-- Node8 -->
<g id="Node000008" class="node">
<title>Node8</title>
<g id="a_Node000008"><a xlink:title=" ">
<polygon fill="#e0e0e0" stroke="#999999" points="313.35,-19 269.35,-19 269.35,0 313.35,0 313.35,-19"/>
<text text-anchor="middle" x="291.35" y="-7" font-family="Helvetica,sans-Serif" font-size="10.00">string</text>
</a>
</g>
</g>
<!-- Node6&#45;&gt;Node8 -->
<g id="edge8_Node000006_Node000008" class="edge">
<title>Node6&#45;&gt;Node8</title>
<g id="a_edge8_Node000006_Node000008"><a xlink:title=" ">
<path fill="none" stroke="#63b8ff" d="M261.29,-54.75C266.32,-47.34 273.68,-36.5 279.86,-27.41"/>
<polygon fill="#63b8ff" stroke="#63b8ff" points="282.79,-29.33 285.51,-19.09 277,-25.39 282.79,-29.33"/>
</a>
</g>
</g>
</g>
</svg>
