<?xml version="1.0" encoding="UTF-8" standalone="no"?>
<!DOCTYPE svg PUBLIC "-//W3C//DTD SVG 1.1//EN"
 "http://www.w3.org/Graphics/SVG/1.1/DTD/svg11.dtd">
<!-- Generated by graphviz version 2.43.0 (0)
 -->
<!-- Title: /home/harlen/dev/abcg/abcg/abcgVulkanInstance.hpp Pages: 1 -->
<svg width="1115pt" height="508pt"
 viewBox="0.00 0.00 1115.00 508.00" xmlns="http://www.w3.org/2000/svg" xmlns:xlink="http://www.w3.org/1999/xlink">
<g id="graph0" class="graph" transform="scale(1 1) rotate(0) translate(4 504)">
<title>/home/harlen/dev/abcg/abcg/abcgVulkanInstance.hpp</title>
<!-- Node1 -->
<g id="node1" class="node">
<title>Node1</title>
<g id="a_node1"><a xlink:title="Header file of abcg::VulkanInstance.">
<polygon fill="#bfbfbf" stroke="black" points="735,-469.5 735,-499.5 899,-499.5 899,-469.5 735,-469.5"/>
<text text-anchor="start" x="743" y="-487.5" font-family="Helvetica,sans-Serif" font-size="10.00">/home/harlen/dev/abcg</text>
<text text-anchor="middle" x="817" y="-476.5" font-family="Helvetica,sans-Serif" font-size="10.00">/abcg/abcgVulkanInstance.hpp</text>
</a>
</g>
</g>
<!-- Node2 -->
<g id="node2" class="node">
<title>Node2</title>
<g id="a_node2"><a xlink:href="abcgVulkanInstance_8cpp.html" target="_top" xlink:title="Definition of abcg::VulkanInstance.">
<polygon fill="none" stroke="black" points="43.5,-0.5 43.5,-30.5 206.5,-30.5 206.5,-0.5 43.5,-0.5"/>
<text text-anchor="start" x="51.5" y="-18.5" font-family="Helvetica,sans-Serif" font-size="10.00">/home/harlen/dev/abcg</text>
<text text-anchor="middle" x="125" y="-7.5" font-family="Helvetica,sans-Serif" font-size="10.00">/abcg/abcgVulkanInstance.cpp</text>
</a>
</g>
</g>
<!-- Node1&#45;&gt;Node2 -->
<g id="edge1" class="edge">
<title>Node1&#45;&gt;Node2</title>
<path fill="none" stroke="midnightblue" d="M724.66,-478.13C510.87,-464.47 0,-424.21 0,-351.5 0,-351.5 0,-351.5 0,-148.5 0,-92.79 59.42,-51.16 96.32,-30.67"/>
<polygon fill="midnightblue" stroke="midnightblue" points="724.72,-481.64 734.92,-478.78 725.16,-474.66 724.72,-481.64"/>
</g>
<!-- Node3 -->
<g id="node3" class="node">
<title>Node3</title>
<g id="a_node3"><a xlink:href="abcgVulkanPhysicalDevice_8cpp.html" target="_top" xlink:title="Definition of abcg::VulkanPhysicalDevice.">
<polygon fill="none" stroke="black" points="479,-335.5 479,-365.5 675,-365.5 675,-335.5 479,-335.5"/>
<text text-anchor="start" x="487" y="-353.5" font-family="Helvetica,sans-Serif" font-size="10.00">/home/harlen/dev/abcg</text>
<text text-anchor="middle" x="577" y="-342.5" font-family="Helvetica,sans-Serif" font-size="10.00">/abcg/abcgVulkanPhysicalDevice.cpp</text>
</a>
</g>
</g>
<!-- Node1&#45;&gt;Node3 -->
<g id="edge2" class="edge">
<title>Node1&#45;&gt;Node3</title>
<path fill="none" stroke="midnightblue" d="M775.11,-465.28C754.87,-456.13 730.38,-444.55 709,-433 668.72,-411.24 623.72,-382.44 598.04,-365.55"/>
<polygon fill="midnightblue" stroke="midnightblue" points="773.83,-468.54 784.38,-469.43 776.69,-462.15 773.83,-468.54"/>
</g>
<!-- Node4 -->
<g id="node4" class="node">
<title>Node4</title>
<g id="a_node4"><a xlink:href="abcgVulkanPhysicalDevice_8hpp.html" target="_top" xlink:title="Header file of abcg::VulkanPhysicalDevice.">
<polygon fill="none" stroke="black" points="718.5,-402.5 718.5,-432.5 915.5,-432.5 915.5,-402.5 718.5,-402.5"/>
<text text-anchor="start" x="726.5" y="-420.5" font-family="Helvetica,sans-Serif" font-size="10.00">/home/harlen/dev/abcg</text>
<text text-anchor="middle" x="817" y="-409.5" font-family="Helvetica,sans-Serif" font-size="10.00">/abcg/abcgVulkanPhysicalDevice.hpp</text>
</a>
</g>
</g>
<!-- Node1&#45;&gt;Node4 -->
<g id="edge3" class="edge">
<title>Node1&#45;&gt;Node4</title>
<path fill="none" stroke="midnightblue" d="M817,-459.11C817,-450.15 817,-440.32 817,-432.58"/>
<polygon fill="midnightblue" stroke="midnightblue" points="813.5,-459.4 817,-469.4 820.5,-459.4 813.5,-459.4"/>
</g>
<!-- Node16 -->
<g id="node16" class="node">
<title>Node16</title>
<g id="a_node16"><a xlink:href="abcgVulkanWindow_8hpp.html" target="_top" xlink:title="Header file of abcg::VulkanWindow.">
<polygon fill="none" stroke="black" points="754.5,-134.5 754.5,-164.5 915.5,-164.5 915.5,-134.5 754.5,-134.5"/>
<text text-anchor="start" x="762.5" y="-152.5" font-family="Helvetica,sans-Serif" font-size="10.00">/home/harlen/dev/abcg</text>
<text text-anchor="middle" x="835" y="-141.5" font-family="Helvetica,sans-Serif" font-size="10.00">/abcg/abcgVulkanWindow.hpp</text>
</a>
</g>
</g>
<!-- Node1&#45;&gt;Node16 -->
<g id="edge34" class="edge">
<title>Node1&#45;&gt;Node16</title>
<path fill="none" stroke="midnightblue" d="M885.57,-465.39C901.12,-457.94 915.76,-447.52 925,-433 983.58,-340.93 883.42,-207.62 847.25,-164.51"/>
<polygon fill="midnightblue" stroke="midnightblue" points="884.09,-462.21 876.34,-469.44 886.9,-468.62 884.09,-462.21"/>
</g>
<!-- Node17 -->
<g id="node17" class="node">
<title>Node17</title>
<g id="a_node17"><a xlink:href="abcgVulkanWindow_8cpp.html" target="_top" xlink:title="Definition of abcg::VulkanWindow members.">
<polygon fill="none" stroke="black" points="947,-67.5 947,-97.5 1107,-97.5 1107,-67.5 947,-67.5"/>
<text text-anchor="start" x="955" y="-85.5" font-family="Helvetica,sans-Serif" font-size="10.00">/home/harlen/dev/abcg</text>
<text text-anchor="middle" x="1027" y="-74.5" font-family="Helvetica,sans-Serif" font-size="10.00">/abcg/abcgVulkanWindow.cpp</text>
</a>
</g>
</g>
<!-- Node1&#45;&gt;Node17 -->
<g id="edge33" class="edge">
<title>Node1&#45;&gt;Node17</title>
<path fill="none" stroke="midnightblue" d="M899.78,-466.69C959.26,-449.22 1029,-415.16 1029,-351.5 1029,-351.5 1029,-351.5 1029,-215.5 1029,-172.64 1027.93,-121.96 1027.36,-97.76"/>
<polygon fill="midnightblue" stroke="midnightblue" points="898.64,-463.38 889.96,-469.45 900.53,-470.11 898.64,-463.38"/>
</g>
<!-- Node4&#45;&gt;Node3 -->
<g id="edge30" class="edge">
<title>Node4&#45;&gt;Node3</title>
<path fill="none" stroke="midnightblue" d="M755.52,-399.85C716.39,-389.25 666.27,-375.68 629.1,-365.61"/>
<polygon fill="midnightblue" stroke="midnightblue" points="754.65,-403.24 765.22,-402.48 756.48,-396.48 754.65,-403.24"/>
</g>
<!-- Node5 -->
<g id="node5" class="node">
<title>Node5</title>
<g id="a_node5"><a xlink:href="abcgVulkanDevice_8hpp.html" target="_top" xlink:title="Header file of abcg::VulkanDevice.">
<polygon fill="none" stroke="black" points="693,-335.5 693,-365.5 849,-365.5 849,-335.5 693,-335.5"/>
<text text-anchor="start" x="701" y="-353.5" font-family="Helvetica,sans-Serif" font-size="10.00">/home/harlen/dev/abcg</text>
<text text-anchor="middle" x="771" y="-342.5" font-family="Helvetica,sans-Serif" font-size="10.00">/abcg/abcgVulkanDevice.hpp</text>
</a>
</g>
</g>
<!-- Node4&#45;&gt;Node5 -->
<g id="edge4" class="edge">
<title>Node4&#45;&gt;Node5</title>
<path fill="none" stroke="midnightblue" d="M801.19,-394.16C794.48,-384.68 786.87,-373.92 780.96,-365.58"/>
<polygon fill="midnightblue" stroke="midnightblue" points="798.38,-396.26 807.02,-402.4 804.1,-392.21 798.38,-396.26"/>
</g>
<!-- Node15 -->
<g id="node15" class="node">
<title>Node15</title>
<g id="a_node15"><a xlink:href="abcgVulkanSwapchain_8cpp.html" target="_top" xlink:title="Definition of abcg::VulkanSwapchain.">
<polygon fill="none" stroke="black" points="749,-67.5 749,-97.5 923,-97.5 923,-67.5 749,-67.5"/>
<text text-anchor="start" x="757" y="-85.5" font-family="Helvetica,sans-Serif" font-size="10.00">/home/harlen/dev/abcg</text>
<text text-anchor="middle" x="836" y="-74.5" font-family="Helvetica,sans-Serif" font-size="10.00">/abcg/abcgVulkanSwapchain.cpp</text>
</a>
</g>
</g>
<!-- Node4&#45;&gt;Node15 -->
<g id="edge31" class="edge">
<title>Node4&#45;&gt;Node15</title>
<path fill="none" stroke="midnightblue" d="M837.42,-394.89C844.67,-386.38 852.4,-376.2 858,-366 903.3,-283.45 909.92,-257.95 925,-165 927.21,-151.4 931.93,-145.91 925,-134 915.17,-117.11 897.35,-105.41 880.23,-97.56"/>
<polygon fill="midnightblue" stroke="midnightblue" points="834.71,-392.68 830.71,-402.49 839.95,-397.31 834.71,-392.68"/>
</g>
<!-- Node4&#45;&gt;Node16 -->
<g id="edge32" class="edge">
<title>Node4&#45;&gt;Node16</title>
<path fill="none" stroke="midnightblue" d="M839.91,-394.96C847.14,-386.68 854.22,-376.65 858,-366 883.67,-293.66 853.82,-199.77 840.64,-164.61"/>
<polygon fill="midnightblue" stroke="midnightblue" points="837.3,-392.62 833.03,-402.32 842.41,-397.4 837.3,-392.62"/>
</g>
<!-- Node6 -->
<g id="node6" class="node">
<title>Node6</title>
<g id="a_node6"><a xlink:href="abcgVulkanBuffer_8hpp.html" target="_top" xlink:title="Header file of abcg::VulkanBuffer.">
<polygon fill="none" stroke="black" points="258.5,-268.5 258.5,-298.5 409.5,-298.5 409.5,-268.5 258.5,-268.5"/>
<text text-anchor="start" x="266.5" y="-286.5" font-family="Helvetica,sans-Serif" font-size="10.00">/home/harlen/dev/abcg</text>
<text text-anchor="middle" x="334" y="-275.5" font-family="Helvetica,sans-Serif" font-size="10.00">/abcg/abcgVulkanBuffer.hpp</text>
</a>
</g>
</g>
<!-- Node5&#45;&gt;Node6 -->
<g id="edge5" class="edge">
<title>Node5&#45;&gt;Node6</title>
<path fill="none" stroke="midnightblue" d="M682.58,-334.82C564.32,-317.18 532.69,-316.65 418,-299 415.22,-298.57 412.39,-298.13 409.53,-297.67"/>
<polygon fill="midnightblue" stroke="midnightblue" points="682.35,-338.32 692.76,-336.34 683.39,-331.4 682.35,-338.32"/>
</g>
<!-- Node10 -->
<g id="node10" class="node">
<title>Node10</title>
<g id="a_node10"><a xlink:href="abcgVulkanDevice_8cpp.html" target="_top" xlink:title="Definition of abcg::VulkanDevice.">
<polygon fill="none" stroke="black" points="427.5,-268.5 427.5,-298.5 582.5,-298.5 582.5,-268.5 427.5,-268.5"/>
<text text-anchor="start" x="435.5" y="-286.5" font-family="Helvetica,sans-Serif" font-size="10.00">/home/harlen/dev/abcg</text>
<text text-anchor="middle" x="505" y="-275.5" font-family="Helvetica,sans-Serif" font-size="10.00">/abcg/abcgVulkanDevice.cpp</text>
</a>
</g>
</g>
<!-- Node5&#45;&gt;Node10 -->
<g id="edge10" class="edge">
<title>Node5&#45;&gt;Node10</title>
<path fill="none" stroke="midnightblue" d="M703.69,-333.05C660.2,-322.43 604.2,-308.74 562.75,-298.61"/>
<polygon fill="midnightblue" stroke="midnightblue" points="703.06,-336.5 713.61,-335.48 704.73,-329.7 703.06,-336.5"/>
</g>
<!-- Node11 -->
<g id="node11" class="node">
<title>Node11</title>
<g id="a_node11"><a xlink:href="abcgVulkanImage_8hpp.html" target="_top" xlink:title="Header file of abcg::VulkanImage.">
<polygon fill="none" stroke="black" points="600.5,-268.5 600.5,-298.5 753.5,-298.5 753.5,-268.5 600.5,-268.5"/>
<text text-anchor="start" x="608.5" y="-286.5" font-family="Helvetica,sans-Serif" font-size="10.00">/home/harlen/dev/abcg</text>
<text text-anchor="middle" x="677" y="-275.5" font-family="Helvetica,sans-Serif" font-size="10.00">/abcg/abcgVulkanImage.hpp</text>
</a>
</g>
</g>
<!-- Node5&#45;&gt;Node11 -->
<g id="edge11" class="edge">
<title>Node5&#45;&gt;Node11</title>
<path fill="none" stroke="midnightblue" d="M742.01,-329.45C727.55,-319.45 710.41,-307.6 697.36,-298.58"/>
<polygon fill="midnightblue" stroke="midnightblue" points="740.39,-332.59 750.6,-335.4 744.37,-326.83 740.39,-332.59"/>
</g>
<!-- Node12 -->
<g id="node12" class="node">
<title>Node12</title>
<g id="a_node12"><a xlink:href="abcgVulkanSwapchain_8hpp.html" target="_top" xlink:title="Header file of abcg::VulkanSwapchain.">
<polygon fill="none" stroke="black" points="635.5,-201.5 635.5,-231.5 810.5,-231.5 810.5,-201.5 635.5,-201.5"/>
<text text-anchor="start" x="643.5" y="-219.5" font-family="Helvetica,sans-Serif" font-size="10.00">/home/harlen/dev/abcg</text>
<text text-anchor="middle" x="723" y="-208.5" font-family="Helvetica,sans-Serif" font-size="10.00">/abcg/abcgVulkanSwapchain.hpp</text>
</a>
</g>
</g>
<!-- Node5&#45;&gt;Node12 -->
<g id="edge28" class="edge">
<title>Node5&#45;&gt;Node12</title>
<path fill="none" stroke="midnightblue" d="M771.72,-325.35C771.42,-308.68 769.39,-286.3 762,-268 756.44,-254.24 746.02,-241.04 737.34,-231.6"/>
<polygon fill="midnightblue" stroke="midnightblue" points="768.22,-325.39 771.71,-335.39 775.22,-325.39 768.22,-325.39"/>
</g>
<!-- Node5&#45;&gt;Node15 -->
<g id="edge27" class="edge">
<title>Node5&#45;&gt;Node15</title>
<path fill="none" stroke="midnightblue" d="M802.98,-329.94C847.57,-300.55 926.49,-240.34 958,-165 963.32,-152.29 965.66,-145.45 958,-134 946.28,-116.47 927.23,-105.01 907.63,-97.53"/>
<polygon fill="midnightblue" stroke="midnightblue" points="801.04,-327.03 794.55,-335.4 804.84,-332.9 801.04,-327.03"/>
</g>
<!-- Node5&#45;&gt;Node16 -->
<g id="edge29" class="edge">
<title>Node5&#45;&gt;Node16</title>
<path fill="none" stroke="midnightblue" d="M782.07,-326.24C792.82,-302.88 808.94,-265.62 819,-232 825.95,-208.79 830.67,-180.95 833.09,-164.54"/>
<polygon fill="midnightblue" stroke="midnightblue" points="778.88,-324.81 777.83,-335.35 785.23,-327.77 778.88,-324.81"/>
</g>
<!-- Node18 -->
<g id="node18" class="node">
<title>Node18</title>
<g id="a_node18"><a xlink:href="abcgVulkanShader_8hpp.html" target="_top" xlink:title="Declaration of helper functions for creating Vulkan shaders.">
<polygon fill="none" stroke="black" points="47.5,-201.5 47.5,-231.5 202.5,-231.5 202.5,-201.5 47.5,-201.5"/>
<text text-anchor="start" x="55.5" y="-219.5" font-family="Helvetica,sans-Serif" font-size="10.00">/home/harlen/dev/abcg</text>
<text text-anchor="middle" x="125" y="-208.5" font-family="Helvetica,sans-Serif" font-size="10.00">/abcg/abcgVulkanShader.hpp</text>
</a>
</g>
</g>
<!-- Node5&#45;&gt;Node18 -->
<g id="edge23" class="edge">
<title>Node5&#45;&gt;Node18</title>
<path fill="none" stroke="midnightblue" d="M682.59,-334.93C489.44,-312.75 429.27,-361.15 249,-299 205.89,-284.14 163.12,-250.87 140.82,-231.75"/>
<polygon fill="midnightblue" stroke="midnightblue" points="682.44,-338.44 692.79,-336.15 683.28,-331.49 682.44,-338.44"/>
</g>
<!-- Node7 -->
<g id="node7" class="node">
<title>Node7</title>
<g id="a_node7"><a xlink:href="abcgVulkan_8hpp.html" target="_top" xlink:title="Header file for Vulkan&#45;related functions and classes.">
<polygon fill="none" stroke="black" points="286,-67.5 286,-97.5 414,-97.5 414,-67.5 286,-67.5"/>
<text text-anchor="start" x="294" y="-85.5" font-family="Helvetica,sans-Serif" font-size="10.00">/home/harlen/dev/abcg</text>
<text text-anchor="middle" x="350" y="-74.5" font-family="Helvetica,sans-Serif" font-size="10.00">/abcg/abcgVulkan.hpp</text>
</a>
</g>
</g>
<!-- Node6&#45;&gt;Node7 -->
<g id="edge6" class="edge">
<title>Node6&#45;&gt;Node7</title>
<path fill="none" stroke="midnightblue" d="M284.54,-263.83C270.92,-256.14 257.77,-245.73 250,-232 243.22,-220.01 245.24,-213.93 250,-201 266.28,-156.75 307.44,-117.81 331.58,-97.79"/>
<polygon fill="midnightblue" stroke="midnightblue" points="283.03,-266.98 293.51,-268.5 286.26,-260.78 283.03,-266.98"/>
</g>
<!-- Node8 -->
<g id="node8" class="node">
<title>Node8</title>
<g id="a_node8"><a xlink:href="abcgVulkanBuffer_8cpp.html" target="_top" xlink:title="Definition of abcg::VulkanBuffer.">
<polygon fill="none" stroke="black" points="259,-201.5 259,-231.5 409,-231.5 409,-201.5 259,-201.5"/>
<text text-anchor="start" x="267" y="-219.5" font-family="Helvetica,sans-Serif" font-size="10.00">/home/harlen/dev/abcg</text>
<text text-anchor="middle" x="334" y="-208.5" font-family="Helvetica,sans-Serif" font-size="10.00">/abcg/abcgVulkanBuffer.cpp</text>
</a>
</g>
</g>
<!-- Node6&#45;&gt;Node8 -->
<g id="edge8" class="edge">
<title>Node6&#45;&gt;Node8</title>
<path fill="none" stroke="midnightblue" d="M334,-258.11C334,-249.15 334,-239.32 334,-231.58"/>
<polygon fill="midnightblue" stroke="midnightblue" points="330.5,-258.4 334,-268.4 337.5,-258.4 330.5,-258.4"/>
</g>
<!-- Node9 -->
<g id="node9" class="node">
<title>Node9</title>
<g id="a_node9"><a xlink:href="abcgVulkanImage_8cpp.html" target="_top" xlink:title="Definition of abcg::VulkanImage.">
<polygon fill="none" stroke="black" points="427,-201.5 427,-231.5 579,-231.5 579,-201.5 427,-201.5"/>
<text text-anchor="start" x="435" y="-219.5" font-family="Helvetica,sans-Serif" font-size="10.00">/home/harlen/dev/abcg</text>
<text text-anchor="middle" x="503" y="-208.5" font-family="Helvetica,sans-Serif" font-size="10.00">/abcg/abcgVulkanImage.cpp</text>
</a>
</g>
</g>
<!-- Node6&#45;&gt;Node9 -->
<g id="edge9" class="edge">
<title>Node6&#45;&gt;Node9</title>
<path fill="none" stroke="midnightblue" d="M380.33,-264.68C407.43,-254.26 441.17,-241.28 466.4,-231.58"/>
<polygon fill="midnightblue" stroke="midnightblue" points="378.75,-261.54 370.67,-268.4 381.26,-268.07 378.75,-261.54"/>
</g>
<!-- Node7&#45;&gt;Node2 -->
<g id="edge7" class="edge">
<title>Node7&#45;&gt;Node2</title>
<path fill="none" stroke="midnightblue" d="M291.43,-64.58C254.89,-54.02 208.4,-40.59 173.85,-30.61"/>
<polygon fill="midnightblue" stroke="midnightblue" points="290.88,-68.06 301.46,-67.48 292.82,-61.34 290.88,-68.06"/>
</g>
<!-- Node11&#45;&gt;Node7 -->
<g id="edge12" class="edge">
<title>Node11&#45;&gt;Node7</title>
<path fill="none" stroke="midnightblue" d="M655.16,-261.17C633.61,-240.38 601.94,-210.54 588,-201 551.68,-176.15 437.07,-122.97 381.21,-97.57"/>
<polygon fill="midnightblue" stroke="midnightblue" points="652.97,-263.93 662.59,-268.37 657.84,-258.9 652.97,-263.93"/>
</g>
<!-- Node11&#45;&gt;Node9 -->
<g id="edge13" class="edge">
<title>Node11&#45;&gt;Node9</title>
<path fill="none" stroke="midnightblue" d="M629.67,-264.82C601.7,-254.37 566.77,-241.32 540.68,-231.58"/>
<polygon fill="midnightblue" stroke="midnightblue" points="628.65,-268.18 639.24,-268.4 631.1,-261.62 628.65,-268.18"/>
</g>
<!-- Node11&#45;&gt;Node12 -->
<g id="edge14" class="edge">
<title>Node11&#45;&gt;Node12</title>
<path fill="none" stroke="midnightblue" d="M692.81,-260.16C699.52,-250.68 707.13,-239.92 713.04,-231.58"/>
<polygon fill="midnightblue" stroke="midnightblue" points="689.9,-258.21 686.98,-268.4 695.62,-262.26 689.9,-258.21"/>
</g>
<!-- Node13 -->
<g id="node13" class="node">
<title>Node13</title>
<g id="a_node13"><a xlink:href="abcgVulkanPipeline_8hpp.html" target="_top" xlink:title="Header file of abcg::VulkanPipeline.">
<polygon fill="none" stroke="black" points="536.5,-134.5 536.5,-164.5 697.5,-164.5 697.5,-134.5 536.5,-134.5"/>
<text text-anchor="start" x="544.5" y="-152.5" font-family="Helvetica,sans-Serif" font-size="10.00">/home/harlen/dev/abcg</text>
<text text-anchor="middle" x="617" y="-141.5" font-family="Helvetica,sans-Serif" font-size="10.00">/abcg/abcgVulkanPipeline.hpp</text>
</a>
</g>
</g>
<!-- Node12&#45;&gt;Node13 -->
<g id="edge15" class="edge">
<title>Node12&#45;&gt;Node13</title>
<path fill="none" stroke="midnightblue" d="M691.22,-196.02C674.73,-185.9 654.95,-173.77 639.96,-164.58"/>
<polygon fill="midnightblue" stroke="midnightblue" points="689.65,-199.15 700,-201.4 693.3,-193.18 689.65,-199.15"/>
</g>
<!-- Node12&#45;&gt;Node15 -->
<g id="edge18" class="edge">
<title>Node12&#45;&gt;Node15</title>
<path fill="none" stroke="midnightblue" d="M724.55,-191.32C726.78,-173.82 732.14,-150.44 745,-134 757.8,-117.64 777.47,-105.78 795.24,-97.69"/>
<polygon fill="midnightblue" stroke="midnightblue" points="721.06,-191.04 723.53,-201.35 728.03,-191.75 721.06,-191.04"/>
</g>
<!-- Node12&#45;&gt;Node16 -->
<g id="edge19" class="edge">
<title>Node12&#45;&gt;Node16</title>
<path fill="none" stroke="midnightblue" d="M756.09,-196.3C773.62,-186.12 794.76,-173.85 810.75,-164.58"/>
<polygon fill="midnightblue" stroke="midnightblue" points="754.19,-193.35 747.3,-201.4 757.71,-199.4 754.19,-193.35"/>
</g>
<!-- Node13&#45;&gt;Node7 -->
<g id="edge16" class="edge">
<title>Node13&#45;&gt;Node7</title>
<path fill="none" stroke="midnightblue" d="M549.43,-132.05C505.78,-121.43 449.58,-107.74 407.96,-97.61"/>
<polygon fill="midnightblue" stroke="midnightblue" points="548.85,-135.51 559.39,-134.48 550.51,-128.71 548.85,-135.51"/>
</g>
<!-- Node14 -->
<g id="node14" class="node">
<title>Node14</title>
<g id="a_node14"><a xlink:href="abcgVulkanPipeline_8cpp.html" target="_top" xlink:title="Definition of abcg::VulkanPipeline.">
<polygon fill="none" stroke="black" points="536.5,-67.5 536.5,-97.5 697.5,-97.5 697.5,-67.5 536.5,-67.5"/>
<text text-anchor="start" x="544.5" y="-85.5" font-family="Helvetica,sans-Serif" font-size="10.00">/home/harlen/dev/abcg</text>
<text text-anchor="middle" x="617" y="-74.5" font-family="Helvetica,sans-Serif" font-size="10.00">/abcg/abcgVulkanPipeline.cpp</text>
</a>
</g>
</g>
<!-- Node13&#45;&gt;Node14 -->
<g id="edge17" class="edge">
<title>Node13&#45;&gt;Node14</title>
<path fill="none" stroke="midnightblue" d="M617,-124.11C617,-115.15 617,-105.32 617,-97.58"/>
<polygon fill="midnightblue" stroke="midnightblue" points="613.5,-124.4 617,-134.4 620.5,-124.4 613.5,-124.4"/>
</g>
<!-- Node16&#45;&gt;Node7 -->
<g id="edge20" class="edge">
<title>Node16&#45;&gt;Node7</title>
<path fill="none" stroke="midnightblue" d="M744.37,-136.35C648.22,-123.47 498.77,-103.44 414.14,-92.1"/>
<polygon fill="midnightblue" stroke="midnightblue" points="743.99,-139.83 754.37,-137.69 744.92,-132.9 743.99,-139.83"/>
</g>
<!-- Node16&#45;&gt;Node15 -->
<g id="edge21" class="edge">
<title>Node16&#45;&gt;Node15</title>
<path fill="none" stroke="midnightblue" d="M835.38,-124.11C835.51,-115.15 835.66,-105.32 835.78,-97.58"/>
<polygon fill="midnightblue" stroke="midnightblue" points="831.87,-124.34 835.22,-134.4 838.87,-124.45 831.87,-124.34"/>
</g>
<!-- Node16&#45;&gt;Node17 -->
<g id="edge22" class="edge">
<title>Node16&#45;&gt;Node17</title>
<path fill="none" stroke="midnightblue" d="M886.42,-131.09C917.42,-120.6 956.38,-107.41 985.42,-97.58"/>
<polygon fill="midnightblue" stroke="midnightblue" points="885.01,-127.87 876.66,-134.4 887.26,-134.5 885.01,-127.87"/>
</g>
<!-- Node18&#45;&gt;Node7 -->
<g id="edge24" class="edge">
<title>Node18&#45;&gt;Node7</title>
<path fill="none" stroke="midnightblue" d="M90.21,-195.82C65.38,-179.29 39.26,-155.05 57,-134 85.68,-99.95 208.75,-88.86 285.97,-85.25"/>
<polygon fill="midnightblue" stroke="midnightblue" points="88.55,-198.91 98.87,-201.33 92.31,-193.01 88.55,-198.91"/>
</g>
<!-- Node18&#45;&gt;Node13 -->
<g id="edge25" class="edge">
<title>Node18&#45;&gt;Node13</title>
<path fill="none" stroke="midnightblue" d="M212.79,-203.9C304.59,-191.77 447.45,-172.9 536.45,-161.14"/>
<polygon fill="midnightblue" stroke="midnightblue" points="212.14,-200.46 202.69,-205.24 213.06,-207.4 212.14,-200.46"/>
</g>
<!-- Node19 -->
<g id="node19" class="node">
<title>Node19</title>
<g id="a_node19"><a xlink:href="abcgVulkanShader_8cpp.html" target="_top" xlink:title="Definition of helper functions for creating Vulkan shaders.">
<polygon fill="none" stroke="black" points="66.5,-134.5 66.5,-164.5 221.5,-164.5 221.5,-134.5 66.5,-134.5"/>
<text text-anchor="start" x="74.5" y="-152.5" font-family="Helvetica,sans-Serif" font-size="10.00">/home/harlen/dev/abcg</text>
<text text-anchor="middle" x="144" y="-141.5" font-family="Helvetica,sans-Serif" font-size="10.00">/abcg/abcgVulkanShader.cpp</text>
</a>
</g>
</g>
<!-- Node18&#45;&gt;Node19 -->
<g id="edge26" class="edge">
<title>Node18&#45;&gt;Node19</title>
<path fill="none" stroke="midnightblue" d="M131.96,-191.7C134.62,-182.59 137.57,-172.49 139.89,-164.58"/>
<polygon fill="midnightblue" stroke="midnightblue" points="128.57,-190.82 129.12,-201.4 135.29,-192.78 128.57,-190.82"/>
</g>
</g>
</svg>
