<?xml version="1.0" encoding="UTF-8" standalone="no"?>
<!DOCTYPE svg PUBLIC "-//W3C//DTD SVG 1.1//EN"
 "http://www.w3.org/Graphics/SVG/1.1/DTD/svg11.dtd">
<!-- Generated by graphviz version 2.43.0 (0)
 -->
<!-- Title: /home/harlen/dev/abcg/abcg/abcgVulkanDevice.hpp Pages: 1 -->
<svg width="970pt" height="374pt"
 viewBox="0.00 0.00 969.92 374.00" xmlns="http://www.w3.org/2000/svg" xmlns:xlink="http://www.w3.org/1999/xlink">
<g id="graph0" class="graph" transform="scale(1 1) rotate(0) translate(4 370)">
<title>/home/harlen/dev/abcg/abcg/abcgVulkanDevice.hpp</title>
<!-- Node1 -->
<g id="node1" class="node">
<title>Node1</title>
<g id="a_node1"><a xlink:title="Header file of abcg::VulkanDevice.">
<polygon fill="#bfbfbf" stroke="black" points="442.92,-335.5 442.92,-365.5 598.92,-365.5 598.92,-335.5 442.92,-335.5"/>
<text text-anchor="start" x="450.92" y="-353.5" font-family="Helvetica,sans-Serif" font-size="10.00">/home/harlen/dev/abcg</text>
<text text-anchor="middle" x="520.92" y="-342.5" font-family="Helvetica,sans-Serif" font-size="10.00">/abcg/abcgVulkanDevice.hpp</text>
</a>
</g>
</g>
<!-- Node2 -->
<g id="node2" class="node">
<title>Node2</title>
<g id="a_node2"><a xlink:href="abcgVulkanBuffer_8hpp.html" target="_top" xlink:title="Header file of abcg::VulkanBuffer.">
<polygon fill="none" stroke="black" points="220.42,-268.5 220.42,-298.5 371.42,-298.5 371.42,-268.5 220.42,-268.5"/>
<text text-anchor="start" x="228.42" y="-286.5" font-family="Helvetica,sans-Serif" font-size="10.00">/home/harlen/dev/abcg</text>
<text text-anchor="middle" x="295.92" y="-275.5" font-family="Helvetica,sans-Serif" font-size="10.00">/abcg/abcgVulkanBuffer.hpp</text>
</a>
</g>
</g>
<!-- Node1&#45;&gt;Node2 -->
<g id="edge1" class="edge">
<title>Node1&#45;&gt;Node2</title>
<path fill="none" stroke="midnightblue" d="M462.35,-332.58C425.81,-322.02 379.32,-308.59 344.77,-298.61"/>
<polygon fill="midnightblue" stroke="midnightblue" points="461.8,-336.06 472.38,-335.48 463.74,-329.34 461.8,-336.06"/>
</g>
<!-- Node8 -->
<g id="node8" class="node">
<title>Node8</title>
<g id="a_node8"><a xlink:href="abcgVulkanDevice_8cpp.html" target="_top" xlink:title="Definition of abcg::VulkanDevice.">
<polygon fill="none" stroke="black" points="47.42,-268.5 47.42,-298.5 202.42,-298.5 202.42,-268.5 47.42,-268.5"/>
<text text-anchor="start" x="55.42" y="-286.5" font-family="Helvetica,sans-Serif" font-size="10.00">/home/harlen/dev/abcg</text>
<text text-anchor="middle" x="124.92" y="-275.5" font-family="Helvetica,sans-Serif" font-size="10.00">/abcg/abcgVulkanDevice.cpp</text>
</a>
</g>
</g>
<!-- Node1&#45;&gt;Node8 -->
<g id="edge7" class="edge">
<title>Node1&#45;&gt;Node8</title>
<path fill="none" stroke="midnightblue" d="M432.72,-335.27C370.68,-325.22 285.7,-311.4 210.92,-299 208.23,-298.55 205.5,-298.1 202.73,-297.64"/>
<polygon fill="midnightblue" stroke="midnightblue" points="432.44,-338.76 442.87,-336.91 433.56,-331.85 432.44,-338.76"/>
</g>
<!-- Node9 -->
<g id="node9" class="node">
<title>Node9</title>
<g id="a_node9"><a xlink:href="abcgVulkanImage_8hpp.html" target="_top" xlink:title="Header file of abcg::VulkanImage.">
<polygon fill="none" stroke="black" points="497.42,-268.5 497.42,-298.5 650.42,-298.5 650.42,-268.5 497.42,-268.5"/>
<text text-anchor="start" x="505.42" y="-286.5" font-family="Helvetica,sans-Serif" font-size="10.00">/home/harlen/dev/abcg</text>
<text text-anchor="middle" x="573.92" y="-275.5" font-family="Helvetica,sans-Serif" font-size="10.00">/abcg/abcgVulkanImage.hpp</text>
</a>
</g>
</g>
<!-- Node1&#45;&gt;Node9 -->
<g id="edge8" class="edge">
<title>Node1&#45;&gt;Node9</title>
<path fill="none" stroke="midnightblue" d="M538.9,-327.45C546.69,-317.9 555.57,-307 562.44,-298.58"/>
<polygon fill="midnightblue" stroke="midnightblue" points="536.03,-325.43 532.42,-335.4 541.45,-329.86 536.03,-325.43"/>
</g>
<!-- Node10 -->
<g id="node10" class="node">
<title>Node10</title>
<g id="a_node10"><a xlink:href="abcgVulkanSwapchain_8hpp.html" target="_top" xlink:title="Header file of abcg::VulkanSwapchain.">
<polygon fill="none" stroke="black" points="602.42,-201.5 602.42,-231.5 777.42,-231.5 777.42,-201.5 602.42,-201.5"/>
<text text-anchor="start" x="610.42" y="-219.5" font-family="Helvetica,sans-Serif" font-size="10.00">/home/harlen/dev/abcg</text>
<text text-anchor="middle" x="689.92" y="-208.5" font-family="Helvetica,sans-Serif" font-size="10.00">/abcg/abcgVulkanSwapchain.hpp</text>
</a>
</g>
</g>
<!-- Node1&#45;&gt;Node10 -->
<g id="edge27" class="edge">
<title>Node1&#45;&gt;Node10</title>
<path fill="none" stroke="midnightblue" d="M604.65,-332.17C624.75,-324.71 644.77,-314.09 659.92,-299 678.51,-280.49 685.69,-249.49 688.38,-231.53"/>
<polygon fill="midnightblue" stroke="midnightblue" points="603.41,-328.89 595.11,-335.48 605.71,-335.5 603.41,-328.89"/>
</g>
<!-- Node11 -->
<g id="node11" class="node">
<title>Node11</title>
<g id="a_node11"><a xlink:href="abcgVulkanPipeline_8hpp.html" target="_top" xlink:title="Header file of abcg::VulkanPipeline.">
<polygon fill="none" stroke="black" points="273.42,-134.5 273.42,-164.5 434.42,-164.5 434.42,-134.5 273.42,-134.5"/>
<text text-anchor="start" x="281.42" y="-152.5" font-family="Helvetica,sans-Serif" font-size="10.00">/home/harlen/dev/abcg</text>
<text text-anchor="middle" x="353.92" y="-141.5" font-family="Helvetica,sans-Serif" font-size="10.00">/abcg/abcgVulkanPipeline.hpp</text>
</a>
</g>
</g>
<!-- Node1&#45;&gt;Node11 -->
<g id="edge21" class="edge">
<title>Node1&#45;&gt;Node11</title>
<path fill="none" stroke="midnightblue" d="M432.86,-350.25C311.23,-349.64 99.82,-342.14 37.92,-299 10.69,-280.02 12.45,-264.33 4.92,-232 1.8,-218.58 -4.1,-211.42 4.92,-201 38.93,-161.71 181.29,-152.32 273.35,-150.46"/>
<polygon fill="midnightblue" stroke="midnightblue" points="432.88,-353.75 442.9,-350.29 432.91,-346.75 432.88,-353.75"/>
</g>
<!-- Node13 -->
<g id="node13" class="node">
<title>Node13</title>
<g id="a_node13"><a xlink:href="abcgVulkanSwapchain_8cpp.html" target="_top" xlink:title="Definition of abcg::VulkanSwapchain.">
<polygon fill="none" stroke="black" points="787.92,-67.5 787.92,-97.5 961.92,-97.5 961.92,-67.5 787.92,-67.5"/>
<text text-anchor="start" x="795.92" y="-85.5" font-family="Helvetica,sans-Serif" font-size="10.00">/home/harlen/dev/abcg</text>
<text text-anchor="middle" x="874.92" y="-74.5" font-family="Helvetica,sans-Serif" font-size="10.00">/abcg/abcgVulkanSwapchain.cpp</text>
</a>
</g>
</g>
<!-- Node1&#45;&gt;Node13 -->
<g id="edge26" class="edge">
<title>Node1&#45;&gt;Node13</title>
<path fill="none" stroke="midnightblue" d="M608.96,-345.02C654.88,-339.22 710.22,-326.49 752.92,-299 828.47,-250.36 861.98,-137.51 871.74,-97.71"/>
<polygon fill="midnightblue" stroke="midnightblue" points="608.54,-341.55 599.01,-346.19 609.35,-348.5 608.54,-341.55"/>
</g>
<!-- Node14 -->
<g id="node14" class="node">
<title>Node14</title>
<g id="a_node14"><a xlink:href="abcgVulkanWindow_8hpp.html" target="_top" xlink:title="Header file of abcg::VulkanWindow.">
<polygon fill="none" stroke="black" points="609.42,-134.5 609.42,-164.5 770.42,-164.5 770.42,-134.5 609.42,-134.5"/>
<text text-anchor="start" x="617.42" y="-152.5" font-family="Helvetica,sans-Serif" font-size="10.00">/home/harlen/dev/abcg</text>
<text text-anchor="middle" x="689.92" y="-141.5" font-family="Helvetica,sans-Serif" font-size="10.00">/abcg/abcgVulkanWindow.hpp</text>
</a>
</g>
</g>
<!-- Node1&#45;&gt;Node14 -->
<g id="edge28" class="edge">
<title>Node1&#45;&gt;Node14</title>
<path fill="none" stroke="midnightblue" d="M609.07,-338.37C672.25,-325.04 752.11,-295.85 786.92,-232 793.52,-219.9 794.07,-212.78 786.92,-201 776.53,-183.88 758.23,-172.29 740.3,-164.58"/>
<polygon fill="midnightblue" stroke="midnightblue" points="608.2,-334.98 599.08,-340.38 609.58,-341.84 608.2,-334.98"/>
</g>
<!-- Node17 -->
<g id="node17" class="node">
<title>Node17</title>
<g id="a_node17"><a xlink:href="abcgVulkanShader_8hpp.html" target="_top" xlink:title="Declaration of helper functions for creating Vulkan shaders.">
<polygon fill="none" stroke="black" points="390.42,-201.5 390.42,-231.5 545.42,-231.5 545.42,-201.5 390.42,-201.5"/>
<text text-anchor="start" x="398.42" y="-219.5" font-family="Helvetica,sans-Serif" font-size="10.00">/home/harlen/dev/abcg</text>
<text text-anchor="middle" x="467.92" y="-208.5" font-family="Helvetica,sans-Serif" font-size="10.00">/abcg/abcgVulkanShader.hpp</text>
</a>
</g>
</g>
<!-- Node1&#45;&gt;Node17 -->
<g id="edge22" class="edge">
<title>Node1&#45;&gt;Node17</title>
<path fill="none" stroke="midnightblue" d="M504.33,-326.68C498.82,-318.29 493.04,-308.51 488.92,-299 479.17,-276.47 473.17,-248.41 470.2,-231.78"/>
<polygon fill="midnightblue" stroke="midnightblue" points="501.59,-328.87 510.12,-335.15 507.37,-324.92 501.59,-328.87"/>
</g>
<!-- Node3 -->
<g id="node3" class="node">
<title>Node3</title>
<g id="a_node3"><a xlink:href="abcgVulkan_8hpp.html" target="_top" xlink:title="Header file for Vulkan&#45;related functions and classes.">
<polygon fill="none" stroke="black" points="289.92,-67.5 289.92,-97.5 417.92,-97.5 417.92,-67.5 289.92,-67.5"/>
<text text-anchor="start" x="297.92" y="-85.5" font-family="Helvetica,sans-Serif" font-size="10.00">/home/harlen/dev/abcg</text>
<text text-anchor="middle" x="353.92" y="-74.5" font-family="Helvetica,sans-Serif" font-size="10.00">/abcg/abcgVulkan.hpp</text>
</a>
</g>
</g>
<!-- Node2&#45;&gt;Node3 -->
<g id="edge2" class="edge">
<title>Node2&#45;&gt;Node3</title>
<path fill="none" stroke="midnightblue" d="M245.53,-263.75C231.87,-256.08 218.72,-245.71 210.92,-232 204.11,-220.03 206.4,-214.01 210.92,-201 228.65,-150.01 284.7,-115.34 321.13,-97.53"/>
<polygon fill="midnightblue" stroke="midnightblue" points="244.03,-266.91 254.52,-268.4 247.25,-260.7 244.03,-266.91"/>
</g>
<!-- Node6 -->
<g id="node6" class="node">
<title>Node6</title>
<g id="a_node6"><a xlink:href="abcgVulkanBuffer_8cpp.html" target="_top" xlink:title="Definition of abcg::VulkanBuffer.">
<polygon fill="none" stroke="black" points="13.92,-201.5 13.92,-231.5 163.92,-231.5 163.92,-201.5 13.92,-201.5"/>
<text text-anchor="start" x="21.92" y="-219.5" font-family="Helvetica,sans-Serif" font-size="10.00">/home/harlen/dev/abcg</text>
<text text-anchor="middle" x="88.92" y="-208.5" font-family="Helvetica,sans-Serif" font-size="10.00">/abcg/abcgVulkanBuffer.cpp</text>
</a>
</g>
</g>
<!-- Node2&#45;&gt;Node6 -->
<g id="edge5" class="edge">
<title>Node2&#45;&gt;Node6</title>
<path fill="none" stroke="midnightblue" d="M241.61,-265.44C208.05,-254.91 165.51,-241.55 133.86,-231.61"/>
<polygon fill="midnightblue" stroke="midnightblue" points="240.67,-268.82 251.26,-268.48 242.77,-262.14 240.67,-268.82"/>
</g>
<!-- Node7 -->
<g id="node7" class="node">
<title>Node7</title>
<g id="a_node7"><a xlink:href="abcgVulkanImage_8cpp.html" target="_top" xlink:title="Definition of abcg::VulkanImage.">
<polygon fill="none" stroke="black" points="219.92,-201.5 219.92,-231.5 371.92,-231.5 371.92,-201.5 219.92,-201.5"/>
<text text-anchor="start" x="227.92" y="-219.5" font-family="Helvetica,sans-Serif" font-size="10.00">/home/harlen/dev/abcg</text>
<text text-anchor="middle" x="295.92" y="-208.5" font-family="Helvetica,sans-Serif" font-size="10.00">/abcg/abcgVulkanImage.cpp</text>
</a>
</g>
</g>
<!-- Node2&#45;&gt;Node7 -->
<g id="edge6" class="edge">
<title>Node2&#45;&gt;Node7</title>
<path fill="none" stroke="midnightblue" d="M295.92,-258.11C295.92,-249.15 295.92,-239.32 295.92,-231.58"/>
<polygon fill="midnightblue" stroke="midnightblue" points="292.42,-258.4 295.92,-268.4 299.42,-258.4 292.42,-258.4"/>
</g>
<!-- Node4 -->
<g id="node4" class="node">
<title>Node4</title>
<g id="a_node4"><a xlink:href="abcgVulkanInstance_8cpp.html" target="_top" xlink:title="Definition of abcg::VulkanInstance.">
<polygon fill="none" stroke="black" points="173.42,-0.5 173.42,-30.5 336.42,-30.5 336.42,-0.5 173.42,-0.5"/>
<text text-anchor="start" x="181.42" y="-18.5" font-family="Helvetica,sans-Serif" font-size="10.00">/home/harlen/dev/abcg</text>
<text text-anchor="middle" x="254.92" y="-7.5" font-family="Helvetica,sans-Serif" font-size="10.00">/abcg/abcgVulkanInstance.cpp</text>
</a>
</g>
</g>
<!-- Node3&#45;&gt;Node4 -->
<g id="edge3" class="edge">
<title>Node3&#45;&gt;Node4</title>
<path fill="none" stroke="midnightblue" d="M323.82,-61.73C308.5,-51.68 290.23,-39.68 276.36,-30.58"/>
<polygon fill="midnightblue" stroke="midnightblue" points="322.16,-64.83 332.44,-67.4 326,-58.98 322.16,-64.83"/>
</g>
<!-- Node5 -->
<g id="node5" class="node">
<title>Node5</title>
<g id="a_node5"><a xlink:href="abcgVulkanPhysicalDevice_8cpp.html" target="_top" xlink:title="Definition of abcg::VulkanPhysicalDevice.">
<polygon fill="none" stroke="black" points="354.92,-0.5 354.92,-30.5 550.92,-30.5 550.92,-0.5 354.92,-0.5"/>
<text text-anchor="start" x="362.92" y="-18.5" font-family="Helvetica,sans-Serif" font-size="10.00">/home/harlen/dev/abcg</text>
<text text-anchor="middle" x="452.92" y="-7.5" font-family="Helvetica,sans-Serif" font-size="10.00">/abcg/abcgVulkanPhysicalDevice.cpp</text>
</a>
</g>
</g>
<!-- Node3&#45;&gt;Node5 -->
<g id="edge4" class="edge">
<title>Node3&#45;&gt;Node5</title>
<path fill="none" stroke="midnightblue" d="M384.03,-61.73C399.35,-51.68 417.61,-39.68 431.48,-30.58"/>
<polygon fill="midnightblue" stroke="midnightblue" points="381.84,-58.98 375.4,-67.4 385.68,-64.83 381.84,-58.98"/>
</g>
<!-- Node9&#45;&gt;Node3 -->
<g id="edge9" class="edge">
<title>Node9&#45;&gt;Node3</title>
<path fill="none" stroke="midnightblue" d="M572.63,-258.04C570.72,-240.88 566.09,-218.05 554.92,-201 519.26,-146.56 448.95,-114.12 401.68,-97.54"/>
<polygon fill="midnightblue" stroke="midnightblue" points="569.18,-258.73 573.53,-268.38 576.15,-258.12 569.18,-258.73"/>
</g>
<!-- Node9&#45;&gt;Node7 -->
<g id="edge10" class="edge">
<title>Node9&#45;&gt;Node7</title>
<path fill="none" stroke="midnightblue" d="M504.15,-266.19C458.62,-255.54 399.78,-241.78 356.27,-231.61"/>
<polygon fill="midnightblue" stroke="midnightblue" points="503.41,-269.61 513.94,-268.48 505,-262.79 503.41,-269.61"/>
</g>
<!-- Node9&#45;&gt;Node10 -->
<g id="edge11" class="edge">
<title>Node9&#45;&gt;Node10</title>
<path fill="none" stroke="midnightblue" d="M608.19,-263.3C626.35,-253.12 648.24,-240.85 664.8,-231.58"/>
<polygon fill="midnightblue" stroke="midnightblue" points="606.11,-260.45 599.09,-268.4 609.53,-266.56 606.11,-260.45"/>
</g>
<!-- Node10&#45;&gt;Node11 -->
<g id="edge12" class="edge">
<title>Node10&#45;&gt;Node11</title>
<path fill="none" stroke="midnightblue" d="M607.3,-199.52C551.94,-188.81 479.74,-174.84 426.57,-164.55"/>
<polygon fill="midnightblue" stroke="midnightblue" points="606.95,-203.01 617.43,-201.48 608.28,-196.14 606.95,-203.01"/>
</g>
<!-- Node10&#45;&gt;Node13 -->
<g id="edge15" class="edge">
<title>Node10&#45;&gt;Node13</title>
<path fill="none" stroke="midnightblue" d="M727.24,-196.71C743.83,-187.81 763.32,-176.61 779.92,-165 810.2,-143.83 842.16,-114.84 860.21,-97.75"/>
<polygon fill="midnightblue" stroke="midnightblue" points="725.56,-193.63 718.35,-201.4 728.83,-199.82 725.56,-193.63"/>
</g>
<!-- Node10&#45;&gt;Node14 -->
<g id="edge16" class="edge">
<title>Node10&#45;&gt;Node14</title>
<path fill="none" stroke="midnightblue" d="M689.92,-191.11C689.92,-182.15 689.92,-172.32 689.92,-164.58"/>
<polygon fill="midnightblue" stroke="midnightblue" points="686.42,-191.4 689.92,-201.4 693.42,-191.4 686.42,-191.4"/>
</g>
<!-- Node11&#45;&gt;Node3 -->
<g id="edge13" class="edge">
<title>Node11&#45;&gt;Node3</title>
<path fill="none" stroke="midnightblue" d="M353.92,-124.11C353.92,-115.15 353.92,-105.32 353.92,-97.58"/>
<polygon fill="midnightblue" stroke="midnightblue" points="350.42,-124.4 353.92,-134.4 357.42,-124.4 350.42,-124.4"/>
</g>
<!-- Node12 -->
<g id="node12" class="node">
<title>Node12</title>
<g id="a_node12"><a xlink:href="abcgVulkanPipeline_8cpp.html" target="_top" xlink:title="Definition of abcg::VulkanPipeline.">
<polygon fill="none" stroke="black" points="110.42,-67.5 110.42,-97.5 271.42,-97.5 271.42,-67.5 110.42,-67.5"/>
<text text-anchor="start" x="118.42" y="-85.5" font-family="Helvetica,sans-Serif" font-size="10.00">/home/harlen/dev/abcg</text>
<text text-anchor="middle" x="190.92" y="-74.5" font-family="Helvetica,sans-Serif" font-size="10.00">/abcg/abcgVulkanPipeline.cpp</text>
</a>
</g>
</g>
<!-- Node11&#45;&gt;Node12 -->
<g id="edge14" class="edge">
<title>Node11&#45;&gt;Node12</title>
<path fill="none" stroke="midnightblue" d="M309.24,-130.68C283.1,-120.26 250.56,-107.28 226.22,-97.58"/>
<polygon fill="midnightblue" stroke="midnightblue" points="307.97,-133.94 318.55,-134.4 310.56,-127.44 307.97,-133.94"/>
</g>
<!-- Node14&#45;&gt;Node3 -->
<g id="edge17" class="edge">
<title>Node14&#45;&gt;Node3</title>
<path fill="none" stroke="midnightblue" d="M606.1,-132.55C554.42,-122.68 486.81,-109.7 426.92,-98 424.01,-97.43 421.02,-96.85 418.01,-96.25"/>
<polygon fill="midnightblue" stroke="midnightblue" points="605.73,-136.04 616.21,-134.48 607.04,-129.16 605.73,-136.04"/>
</g>
<!-- Node14&#45;&gt;Node13 -->
<g id="edge19" class="edge">
<title>Node14&#45;&gt;Node13</title>
<path fill="none" stroke="midnightblue" d="M739.86,-130.96C769.66,-120.48 807,-107.37 834.86,-97.58"/>
<polygon fill="midnightblue" stroke="midnightblue" points="738.34,-127.78 730.06,-134.4 740.66,-134.38 738.34,-127.78"/>
</g>
<!-- Node15 -->
<g id="node15" class="node">
<title>Node15</title>
<g id="a_node15"><a xlink:href="abcgVulkanShader_8cpp.html" target="_top" xlink:title="Definition of helper functions for creating Vulkan shaders.">
<polygon fill="none" stroke="black" points="436.42,-67.5 436.42,-97.5 591.42,-97.5 591.42,-67.5 436.42,-67.5"/>
<text text-anchor="start" x="444.42" y="-85.5" font-family="Helvetica,sans-Serif" font-size="10.00">/home/harlen/dev/abcg</text>
<text text-anchor="middle" x="513.92" y="-74.5" font-family="Helvetica,sans-Serif" font-size="10.00">/abcg/abcgVulkanShader.cpp</text>
</a>
</g>
</g>
<!-- Node14&#45;&gt;Node15 -->
<g id="edge18" class="edge">
<title>Node14&#45;&gt;Node15</title>
<path fill="none" stroke="midnightblue" d="M642.05,-130.82C613.76,-120.37 578.43,-107.32 552.04,-97.58"/>
<polygon fill="midnightblue" stroke="midnightblue" points="641.14,-134.21 651.73,-134.4 643.56,-127.65 641.14,-134.21"/>
</g>
<!-- Node16 -->
<g id="node16" class="node">
<title>Node16</title>
<g id="a_node16"><a xlink:href="abcgVulkanWindow_8cpp.html" target="_top" xlink:title="Definition of abcg::VulkanWindow members.">
<polygon fill="none" stroke="black" points="609.92,-67.5 609.92,-97.5 769.92,-97.5 769.92,-67.5 609.92,-67.5"/>
<text text-anchor="start" x="617.92" y="-85.5" font-family="Helvetica,sans-Serif" font-size="10.00">/home/harlen/dev/abcg</text>
<text text-anchor="middle" x="689.92" y="-74.5" font-family="Helvetica,sans-Serif" font-size="10.00">/abcg/abcgVulkanWindow.cpp</text>
</a>
</g>
</g>
<!-- Node14&#45;&gt;Node16 -->
<g id="edge20" class="edge">
<title>Node14&#45;&gt;Node16</title>
<path fill="none" stroke="midnightblue" d="M689.92,-124.11C689.92,-115.15 689.92,-105.32 689.92,-97.58"/>
<polygon fill="midnightblue" stroke="midnightblue" points="686.42,-124.4 689.92,-134.4 693.42,-124.4 686.42,-124.4"/>
</g>
<!-- Node17&#45;&gt;Node3 -->
<g id="edge23" class="edge">
<title>Node17&#45;&gt;Node3</title>
<path fill="none" stroke="midnightblue" d="M465.32,-191.32C462.37,-173.82 456.11,-150.44 442.92,-134 429.91,-117.79 410.21,-105.85 392.64,-97.66"/>
<polygon fill="midnightblue" stroke="midnightblue" points="461.87,-191.95 466.76,-201.35 468.8,-190.95 461.87,-191.95"/>
</g>
<!-- Node17&#45;&gt;Node11 -->
<g id="edge24" class="edge">
<title>Node17&#45;&gt;Node11</title>
<path fill="none" stroke="midnightblue" d="M434.24,-196.3C416.4,-186.12 394.88,-173.85 378.61,-164.58"/>
<polygon fill="midnightblue" stroke="midnightblue" points="432.76,-199.48 443.19,-201.4 436.23,-193.4 432.76,-199.48"/>
</g>
<!-- Node17&#45;&gt;Node15 -->
<g id="edge25" class="edge">
<title>Node17&#45;&gt;Node15</title>
<path fill="none" stroke="midnightblue" d="M476.2,-191.75C485.77,-164.29 501.21,-119.99 509.03,-97.52"/>
<polygon fill="midnightblue" stroke="midnightblue" points="472.83,-190.78 472.84,-201.37 479.44,-193.08 472.83,-190.78"/>
</g>
</g>
</svg>
