<?xml version="1.0" encoding="UTF-8" standalone="no"?>
<!DOCTYPE svg PUBLIC "-//W3C//DTD SVG 1.1//EN"
 "http://www.w3.org/Graphics/SVG/1.1/DTD/svg11.dtd">
<!-- Generated by graphviz version 2.43.0 (0)
 -->
<!-- Title: /home/harlen/dev/abcg2/abcg/abcg_elapsedtimer.hpp Pages: 1 -->
<svg width="1284pt" height="240pt"
 viewBox="0.00 0.00 1284.00 240.00" xmlns="http://www.w3.org/2000/svg" xmlns:xlink="http://www.w3.org/1999/xlink">
<g id="graph0" class="graph" transform="scale(1 1) rotate(0) translate(4 236)">
<title>/home/harlen/dev/abcg2/abcg/abcg_elapsedtimer.hpp</title>
<!-- Node1 -->
<g id="node1" class="node">
<title>Node1</title>
<g id="a_node1"><a xlink:title="Header file of abcg::ElapsedTimer.">
<polygon fill="#bfbfbf" stroke="black" points="165.5,-201.5 165.5,-231.5 324.5,-231.5 324.5,-201.5 165.5,-201.5"/>
<text text-anchor="start" x="173.5" y="-219.5" font-family="Helvetica,sans-Serif" font-size="10.00">/home/harlen/dev/abcg2</text>
<text text-anchor="middle" x="245" y="-208.5" font-family="Helvetica,sans-Serif" font-size="10.00">/abcg/abcg_elapsedtimer.hpp</text>
</a>
</g>
</g>
<!-- Node2 -->
<g id="node2" class="node">
<title>Node2</title>
<g id="a_node2"><a xlink:href="abcg__elapsedtimer_8cpp.html" target="_top" xlink:title="Definition of abcg::ElapsedTimer members.">
<polygon fill="none" stroke="black" points="0,-134.5 0,-164.5 158,-164.5 158,-134.5 0,-134.5"/>
<text text-anchor="start" x="8" y="-152.5" font-family="Helvetica,sans-Serif" font-size="10.00">/home/harlen/dev/abcg2</text>
<text text-anchor="middle" x="79" y="-141.5" font-family="Helvetica,sans-Serif" font-size="10.00">/abcg/abcg_elapsedtimer.cpp</text>
</a>
</g>
</g>
<!-- Node1&#45;&gt;Node2 -->
<g id="edge1" class="edge">
<title>Node1&#45;&gt;Node2</title>
<path fill="none" stroke="midnightblue" d="M199.49,-197.68C172.87,-187.26 139.73,-174.28 114.95,-164.58"/>
<polygon fill="midnightblue" stroke="midnightblue" points="198.39,-201.01 208.98,-201.4 200.95,-194.49 198.39,-201.01"/>
</g>
<!-- Node3 -->
<g id="node3" class="node">
<title>Node3</title>
<g id="a_node3"><a xlink:href="abcg__trackball_8hpp.html" target="_top" xlink:title="Header file of abcg::TrackBall.">
<polygon fill="none" stroke="black" points="176,-134.5 176,-164.5 314,-164.5 314,-134.5 176,-134.5"/>
<text text-anchor="start" x="184" y="-152.5" font-family="Helvetica,sans-Serif" font-size="10.00">/home/harlen/dev/abcg2</text>
<text text-anchor="middle" x="245" y="-141.5" font-family="Helvetica,sans-Serif" font-size="10.00">/abcg/abcg_trackball.hpp</text>
</a>
</g>
</g>
<!-- Node1&#45;&gt;Node3 -->
<g id="edge2" class="edge">
<title>Node1&#45;&gt;Node3</title>
<path fill="none" stroke="midnightblue" d="M245,-191.11C245,-182.15 245,-172.32 245,-164.58"/>
<polygon fill="midnightblue" stroke="midnightblue" points="241.5,-191.4 245,-201.4 248.5,-191.4 241.5,-191.4"/>
</g>
<!-- Node6 -->
<g id="node6" class="node">
<title>Node6</title>
<g id="a_node6"><a xlink:href="abcg__window_8hpp.html" target="_top" xlink:title="Header file of abcg::Window.">
<polygon fill="none" stroke="black" points="649,-134.5 649,-164.5 783,-164.5 783,-134.5 649,-134.5"/>
<text text-anchor="start" x="657" y="-152.5" font-family="Helvetica,sans-Serif" font-size="10.00">/home/harlen/dev/abcg2</text>
<text text-anchor="middle" x="716" y="-141.5" font-family="Helvetica,sans-Serif" font-size="10.00">/abcg/abcg_window.hpp</text>
</a>
</g>
</g>
<!-- Node1&#45;&gt;Node6 -->
<g id="edge5" class="edge">
<title>Node1&#45;&gt;Node6</title>
<path fill="none" stroke="midnightblue" d="M334.73,-203.12C426.38,-190.47 566.58,-171.12 648.99,-159.75"/>
<polygon fill="midnightblue" stroke="midnightblue" points="334.06,-199.68 324.63,-204.51 335.02,-206.61 334.06,-199.68"/>
</g>
<!-- Node4 -->
<g id="node4" class="node">
<title>Node4</title>
<g id="a_node4"><a xlink:href="abcg_8hpp.html" target="_top" xlink:title="Shortcut header that includes the most common ABCg headers.">
<polygon fill="none" stroke="black" points="24,-67.5 24,-97.5 158,-97.5 158,-67.5 24,-67.5"/>
<text text-anchor="start" x="32" y="-85.5" font-family="Helvetica,sans-Serif" font-size="10.00">/home/harlen/dev/abcg2</text>
<text text-anchor="middle" x="91" y="-74.5" font-family="Helvetica,sans-Serif" font-size="10.00">/abcg/abcg.hpp</text>
</a>
</g>
</g>
<!-- Node3&#45;&gt;Node4 -->
<g id="edge3" class="edge">
<title>Node3&#45;&gt;Node4</title>
<path fill="none" stroke="midnightblue" d="M202.13,-130.41C177.55,-120.03 147.14,-107.2 124.35,-97.58"/>
<polygon fill="midnightblue" stroke="midnightblue" points="201.01,-133.73 211.58,-134.4 203.73,-127.28 201.01,-133.73"/>
</g>
<!-- Node5 -->
<g id="node5" class="node">
<title>Node5</title>
<g id="a_node5"><a xlink:href="abcg__trackball_8cpp.html" target="_top" xlink:title="Definition of abcg::TrackBall members.">
<polygon fill="none" stroke="black" points="176.5,-67.5 176.5,-97.5 313.5,-97.5 313.5,-67.5 176.5,-67.5"/>
<text text-anchor="start" x="184.5" y="-85.5" font-family="Helvetica,sans-Serif" font-size="10.00">/home/harlen/dev/abcg2</text>
<text text-anchor="middle" x="245" y="-74.5" font-family="Helvetica,sans-Serif" font-size="10.00">/abcg/abcg_trackball.cpp</text>
</a>
</g>
</g>
<!-- Node3&#45;&gt;Node5 -->
<g id="edge4" class="edge">
<title>Node3&#45;&gt;Node5</title>
<path fill="none" stroke="midnightblue" d="M245,-124.11C245,-115.15 245,-105.32 245,-97.58"/>
<polygon fill="midnightblue" stroke="midnightblue" points="241.5,-124.4 245,-134.4 248.5,-124.4 241.5,-124.4"/>
</g>
<!-- Node7 -->
<g id="node7" class="node">
<title>Node7</title>
<g id="a_node7"><a xlink:href="abcg__application_8cpp.html" target="_top" xlink:title="Definition of abcg::Application members.">
<polygon fill="none" stroke="black" points="331.5,-67.5 331.5,-97.5 480.5,-97.5 480.5,-67.5 331.5,-67.5"/>
<text text-anchor="start" x="339.5" y="-85.5" font-family="Helvetica,sans-Serif" font-size="10.00">/home/harlen/dev/abcg2</text>
<text text-anchor="middle" x="406" y="-74.5" font-family="Helvetica,sans-Serif" font-size="10.00">/abcg/abcg_application.cpp</text>
</a>
</g>
</g>
<!-- Node6&#45;&gt;Node7 -->
<g id="edge6" class="edge">
<title>Node6&#45;&gt;Node7</title>
<path fill="none" stroke="midnightblue" d="M639.13,-132.38C588.14,-121.69 521.87,-107.8 473.03,-97.55"/>
<polygon fill="midnightblue" stroke="midnightblue" points="638.61,-135.85 649.12,-134.48 640.05,-129 638.61,-135.85"/>
</g>
<!-- Node8 -->
<g id="node8" class="node">
<title>Node8</title>
<g id="a_node8"><a xlink:href="abcg__opengl__window_8cpp.html" target="_top" xlink:title="Definition of abcg::OpenGLWindow members.">
<polygon fill="none" stroke="black" points="423,-0.5 423,-30.5 593,-30.5 593,-0.5 423,-0.5"/>
<text text-anchor="start" x="431" y="-18.5" font-family="Helvetica,sans-Serif" font-size="10.00">/home/harlen/dev/abcg2</text>
<text text-anchor="middle" x="508" y="-7.5" font-family="Helvetica,sans-Serif" font-size="10.00">/abcg/abcg_opengl_window.cpp</text>
</a>
</g>
</g>
<!-- Node6&#45;&gt;Node8 -->
<g id="edge7" class="edge">
<title>Node6&#45;&gt;Node8</title>
<path fill="none" stroke="midnightblue" d="M638.64,-145.95C600.17,-140.65 555.85,-127.79 527,-98 509.41,-79.84 506.96,-48.72 507.19,-30.64"/>
<polygon fill="midnightblue" stroke="midnightblue" points="638.45,-149.46 648.8,-147.2 639.3,-142.51 638.45,-149.46"/>
</g>
<!-- Node9 -->
<g id="node9" class="node">
<title>Node9</title>
<g id="a_node9"><a xlink:href="abcg__opengl__window_8hpp.html" target="_top" xlink:title="Header file of abcg::OpenGLWindow.">
<polygon fill="none" stroke="black" points="536,-67.5 536,-97.5 706,-97.5 706,-67.5 536,-67.5"/>
<text text-anchor="start" x="544" y="-85.5" font-family="Helvetica,sans-Serif" font-size="10.00">/home/harlen/dev/abcg2</text>
<text text-anchor="middle" x="621" y="-74.5" font-family="Helvetica,sans-Serif" font-size="10.00">/abcg/abcg_opengl_window.hpp</text>
</a>
</g>
</g>
<!-- Node6&#45;&gt;Node9 -->
<g id="edge8" class="edge">
<title>Node6&#45;&gt;Node9</title>
<path fill="none" stroke="midnightblue" d="M687.11,-128.73C672.41,-118.68 654.89,-106.68 641.57,-97.58"/>
<polygon fill="midnightblue" stroke="midnightblue" points="685.16,-131.64 695.39,-134.4 689.11,-125.86 685.16,-131.64"/>
</g>
<!-- Node11 -->
<g id="node11" class="node">
<title>Node11</title>
<g id="a_node11"><a xlink:href="abcg__vulkan__instance_8cpp.html" target="_top" xlink:title="Definition of abcg::VulkanInstance.">
<polygon fill="none" stroke="black" points="724.5,-67.5 724.5,-97.5 897.5,-97.5 897.5,-67.5 724.5,-67.5"/>
<text text-anchor="start" x="732.5" y="-85.5" font-family="Helvetica,sans-Serif" font-size="10.00">/home/harlen/dev/abcg2</text>
<text text-anchor="middle" x="811" y="-74.5" font-family="Helvetica,sans-Serif" font-size="10.00">/abcg/abcg_vulkan_instance.cpp</text>
</a>
</g>
</g>
<!-- Node6&#45;&gt;Node11 -->
<g id="edge11" class="edge">
<title>Node6&#45;&gt;Node11</title>
<path fill="none" stroke="midnightblue" d="M744.89,-128.73C759.59,-118.68 777.11,-106.68 790.43,-97.58"/>
<polygon fill="midnightblue" stroke="midnightblue" points="742.89,-125.86 736.61,-134.4 746.84,-131.64 742.89,-125.86"/>
</g>
<!-- Node12 -->
<g id="node12" class="node">
<title>Node12</title>
<g id="a_node12"><a xlink:href="abcg__vulkan__window_8cpp.html" target="_top" xlink:title="Definition of abcg::VulkanWindow members.">
<polygon fill="none" stroke="black" points="841.5,-0.5 841.5,-30.5 1010.5,-30.5 1010.5,-0.5 841.5,-0.5"/>
<text text-anchor="start" x="849.5" y="-18.5" font-family="Helvetica,sans-Serif" font-size="10.00">/home/harlen/dev/abcg2</text>
<text text-anchor="middle" x="926" y="-7.5" font-family="Helvetica,sans-Serif" font-size="10.00">/abcg/abcg_vulkan_window.cpp</text>
</a>
</g>
</g>
<!-- Node6&#45;&gt;Node12 -->
<g id="edge12" class="edge">
<title>Node6&#45;&gt;Node12</title>
<path fill="none" stroke="midnightblue" d="M793.25,-136.38C838.93,-127.67 890.92,-114.56 907,-98 924.61,-79.86 927.06,-48.73 926.82,-30.65"/>
<polygon fill="midnightblue" stroke="midnightblue" points="792.51,-132.96 783.31,-138.22 793.78,-139.84 792.51,-132.96"/>
</g>
<!-- Node13 -->
<g id="node13" class="node">
<title>Node13</title>
<g id="a_node13"><a xlink:href="abcg__vulkan__window_8hpp.html" target="_top" xlink:title="Header file of abcg::VulkanWindow.">
<polygon fill="none" stroke="black" points="954,-67.5 954,-97.5 1124,-97.5 1124,-67.5 954,-67.5"/>
<text text-anchor="start" x="962" y="-85.5" font-family="Helvetica,sans-Serif" font-size="10.00">/home/harlen/dev/abcg2</text>
<text text-anchor="middle" x="1039" y="-74.5" font-family="Helvetica,sans-Serif" font-size="10.00">/abcg/abcg_vulkan_window.hpp</text>
</a>
</g>
</g>
<!-- Node6&#45;&gt;Node13 -->
<g id="edge13" class="edge">
<title>Node6&#45;&gt;Node13</title>
<path fill="none" stroke="midnightblue" d="M793.44,-132.92C846.94,-122.15 917.51,-107.95 969.26,-97.53"/>
<polygon fill="midnightblue" stroke="midnightblue" points="792.43,-129.55 783.32,-134.95 793.81,-136.41 792.43,-129.55"/>
</g>
<!-- Node15 -->
<g id="node15" class="node">
<title>Node15</title>
<g id="a_node15"><a xlink:href="abcg__window_8cpp.html" target="_top" xlink:title="Definition of abcg::Window members.">
<polygon fill="none" stroke="black" points="1142,-67.5 1142,-97.5 1276,-97.5 1276,-67.5 1142,-67.5"/>
<text text-anchor="start" x="1150" y="-85.5" font-family="Helvetica,sans-Serif" font-size="10.00">/home/harlen/dev/abcg2</text>
<text text-anchor="middle" x="1209" y="-74.5" font-family="Helvetica,sans-Serif" font-size="10.00">/abcg/abcg_window.cpp</text>
</a>
</g>
</g>
<!-- Node6&#45;&gt;Node15 -->
<g id="edge16" class="edge">
<title>Node6&#45;&gt;Node15</title>
<path fill="none" stroke="midnightblue" d="M793.32,-140.73C877.2,-131.92 1014.94,-116.39 1133,-98 1135.92,-97.55 1138.9,-97.06 1141.91,-96.56"/>
<polygon fill="midnightblue" stroke="midnightblue" points="792.94,-137.25 783.36,-141.77 793.67,-144.21 792.94,-137.25"/>
</g>
<!-- Node9&#45;&gt;Node8 -->
<g id="edge10" class="edge">
<title>Node9&#45;&gt;Node8</title>
<path fill="none" stroke="midnightblue" d="M587.61,-62.3C569.93,-52.12 548.6,-39.85 532.47,-30.58"/>
<polygon fill="midnightblue" stroke="midnightblue" points="586.07,-65.44 596.48,-67.4 589.56,-59.38 586.07,-65.44"/>
</g>
<!-- Node10 -->
<g id="node10" class="node">
<title>Node10</title>
<g id="a_node10"><a xlink:href="abcg__opengl_8hpp.html" target="_top" xlink:title="Header file for OpenGL&#45;related functions and classes.">
<polygon fill="none" stroke="black" points="611,-0.5 611,-30.5 745,-30.5 745,-0.5 611,-0.5"/>
<text text-anchor="start" x="619" y="-18.5" font-family="Helvetica,sans-Serif" font-size="10.00">/home/harlen/dev/abcg2</text>
<text text-anchor="middle" x="678" y="-7.5" font-family="Helvetica,sans-Serif" font-size="10.00">/abcg/abcg_opengl.hpp</text>
</a>
</g>
</g>
<!-- Node9&#45;&gt;Node10 -->
<g id="edge9" class="edge">
<title>Node9&#45;&gt;Node10</title>
<path fill="none" stroke="midnightblue" d="M640.09,-59.74C648.52,-50.12 658.19,-39.09 665.66,-30.58"/>
<polygon fill="midnightblue" stroke="midnightblue" points="637.33,-57.57 633.37,-67.4 642.59,-62.18 637.33,-57.57"/>
</g>
<!-- Node13&#45;&gt;Node12 -->
<g id="edge15" class="edge">
<title>Node13&#45;&gt;Node12</title>
<path fill="none" stroke="midnightblue" d="M1005.61,-62.3C987.93,-52.12 966.6,-39.85 950.47,-30.58"/>
<polygon fill="midnightblue" stroke="midnightblue" points="1004.07,-65.44 1014.48,-67.4 1007.56,-59.38 1004.07,-65.44"/>
</g>
<!-- Node14 -->
<g id="node14" class="node">
<title>Node14</title>
<g id="a_node14"><a xlink:href="abcg__vulkan__swapchain_8cpp.html" target="_top" xlink:title="Definition of abcg::VulkanSwapchain.">
<polygon fill="none" stroke="black" points="1029,-0.5 1029,-30.5 1213,-30.5 1213,-0.5 1029,-0.5"/>
<text text-anchor="start" x="1037" y="-18.5" font-family="Helvetica,sans-Serif" font-size="10.00">/home/harlen/dev/abcg2</text>
<text text-anchor="middle" x="1121" y="-7.5" font-family="Helvetica,sans-Serif" font-size="10.00">/abcg/abcg_vulkan_swapchain.cpp</text>
</a>
</g>
</g>
<!-- Node13&#45;&gt;Node14 -->
<g id="edge14" class="edge">
<title>Node13&#45;&gt;Node14</title>
<path fill="none" stroke="midnightblue" d="M1064.65,-61.17C1077.19,-51.23 1091.97,-39.51 1103.24,-30.58"/>
<polygon fill="midnightblue" stroke="midnightblue" points="1062.46,-58.44 1056.79,-67.4 1066.8,-63.93 1062.46,-58.44"/>
</g>
</g>
</svg>
