<?xml version="1.0" encoding="UTF-8" standalone="no"?>
<!DOCTYPE svg PUBLIC "-//W3C//DTD SVG 1.1//EN"
 "http://www.w3.org/Graphics/SVG/1.1/DTD/svg11.dtd">
<!-- Generated by graphviz version 2.43.0 (0)
 -->
<!-- Title: /home/harlen/dev/abcg2/abcg/abcg_opengl.hpp Pages: 1 -->
<svg width="1073pt" height="263pt"
 viewBox="0.00 0.00 1073.00 263.00" xmlns="http://www.w3.org/2000/svg" xmlns:xlink="http://www.w3.org/1999/xlink">
<g id="graph0" class="graph" transform="scale(1 1) rotate(0) translate(4 259)">
<title>/home/harlen/dev/abcg2/abcg/abcg_opengl.hpp</title>
<!-- Node1 -->
<g id="node1" class="node">
<title>Node1</title>
<g id="a_node1"><a xlink:title="Header file for OpenGL&#45;related functions and classes.">
<polygon fill="#bfbfbf" stroke="black" points="311.5,-224.5 311.5,-254.5 445.5,-254.5 445.5,-224.5 311.5,-224.5"/>
<text text-anchor="start" x="319.5" y="-242.5" font-family="Helvetica,sans-Serif" font-size="10.00">/home/harlen/dev/abcg2</text>
<text text-anchor="middle" x="378.5" y="-231.5" font-family="Helvetica,sans-Serif" font-size="10.00">/abcg/abcg_opengl.hpp</text>
</a>
</g>
</g>
<!-- Node2 -->
<g id="node2" class="node">
<title>Node2</title>
<g id="a_node2"><a xlink:href="abcg__opengl__image_8hpp.html" target="_top" xlink:title="Declaration of OpenGL texture loading helper functions.">
<polygon fill="none" stroke="black" points="311,-112.5 311,-131.5 446,-131.5 446,-112.5 311,-112.5"/>
<text text-anchor="middle" x="378.5" y="-119.5" font-family="Helvetica,sans-Serif" font-size="10.00">abcg_opengl_image.hpp</text>
</a>
</g>
</g>
<!-- Node1&#45;&gt;Node2 -->
<g id="edge1" class="edge">
<title>Node1&#45;&gt;Node2</title>
<path fill="none" stroke="midnightblue" d="M378.5,-224.34C378.5,-203.62 378.5,-165.02 378.5,-141.9"/>
<polygon fill="midnightblue" stroke="midnightblue" points="382,-141.67 378.5,-131.67 375,-141.67 382,-141.67"/>
</g>
<!-- Node6 -->
<g id="node6" class="node">
<title>Node6</title>
<g id="a_node6"><a xlink:href="abcg__opengl__shader_8hpp.html" target="_top" xlink:title="Declaration of helper functions for building OpenGL shaders.">
<polygon fill="none" stroke="black" points="156,-112.5 156,-131.5 293,-131.5 293,-112.5 156,-112.5"/>
<text text-anchor="middle" x="224.5" y="-119.5" font-family="Helvetica,sans-Serif" font-size="10.00">abcg_opengl_shader.hpp</text>
</a>
</g>
</g>
<!-- Node1&#45;&gt;Node6 -->
<g id="edge5" class="edge">
<title>Node1&#45;&gt;Node6</title>
<path fill="none" stroke="midnightblue" d="M359.62,-224.34C330.36,-202.39 274.33,-160.37 244.44,-137.95"/>
<polygon fill="midnightblue" stroke="midnightblue" points="246.16,-134.87 236.06,-131.67 241.96,-140.47 246.16,-134.87"/>
</g>
<!-- Node10 -->
<g id="node10" class="node">
<title>Node10</title>
<g id="a_node10"><a xlink:href="abcg__opengl__window_8hpp.html" target="_top" xlink:title="Header file of abcg::OpenGLWindow.">
<polygon fill="none" stroke="black" points="592,-168.5 592,-187.5 733,-187.5 733,-168.5 592,-168.5"/>
<text text-anchor="middle" x="662.5" y="-175.5" font-family="Helvetica,sans-Serif" font-size="10.00">abcg_opengl_window.hpp</text>
</a>
</g>
</g>
<!-- Node1&#45;&gt;Node10 -->
<g id="edge12" class="edge">
<title>Node1&#45;&gt;Node10</title>
<path fill="none" stroke="midnightblue" d="M445.44,-224.47C496.47,-213.78 565.65,-199.29 612.06,-189.57"/>
<polygon fill="midnightblue" stroke="midnightblue" points="612.83,-192.98 621.9,-187.51 611.39,-186.13 612.83,-192.98"/>
</g>
<!-- Node3 -->
<g id="node3" class="node">
<title>Node3</title>
<g id="a_node3"><a xlink:href="abcg__opengl__external_8hpp.html" target="_top" xlink:title="Header file for including OpenGL&#45;related third&#45;party dependencies.">
<polygon fill="none" stroke="black" points="372,-56.5 372,-75.5 517,-75.5 517,-56.5 372,-56.5"/>
<text text-anchor="middle" x="444.5" y="-63.5" font-family="Helvetica,sans-Serif" font-size="10.00">abcg_opengl_external.hpp</text>
</a>
</g>
</g>
<!-- Node2&#45;&gt;Node3 -->
<g id="edge2" class="edge">
<title>Node2&#45;&gt;Node3</title>
<path fill="none" stroke="midnightblue" d="M389.1,-112.32C398.96,-104.26 413.85,-92.08 425.72,-82.37"/>
<polygon fill="midnightblue" stroke="midnightblue" points="428.18,-84.88 433.7,-75.83 423.75,-79.46 428.18,-84.88"/>
</g>
<!-- Node4 -->
<g id="node4" class="node">
<title>Node4</title>
<g id="a_node4"><a xlink:title=" ">
<polygon fill="none" stroke="#bfbfbf" points="311.5,-56.5 311.5,-75.5 353.5,-75.5 353.5,-56.5 311.5,-56.5"/>
<text text-anchor="middle" x="332.5" y="-63.5" font-family="Helvetica,sans-Serif" font-size="10.00">array</text>
</a>
</g>
</g>
<!-- Node2&#45;&gt;Node4 -->
<g id="edge3" class="edge">
<title>Node2&#45;&gt;Node4</title>
<path fill="none" stroke="midnightblue" d="M370.9,-112.08C364.27,-104.3 354.48,-92.8 346.44,-83.37"/>
<polygon fill="midnightblue" stroke="midnightblue" points="349.1,-81.09 339.95,-75.75 343.77,-85.63 349.1,-81.09"/>
</g>
<!-- Node5 -->
<g id="node5" class="node">
<title>Node5</title>
<g id="a_node5"><a xlink:title=" ">
<polygon fill="none" stroke="#bfbfbf" points="220,-56.5 220,-75.5 293,-75.5 293,-56.5 220,-56.5"/>
<text text-anchor="middle" x="256.5" y="-63.5" font-family="Helvetica,sans-Serif" font-size="10.00">string_view</text>
</a>
</g>
</g>
<!-- Node2&#45;&gt;Node5 -->
<g id="edge4" class="edge">
<title>Node2&#45;&gt;Node5</title>
<path fill="none" stroke="midnightblue" d="M359.17,-112.44C339.18,-103.6 307.76,-89.69 284.94,-79.59"/>
<polygon fill="midnightblue" stroke="midnightblue" points="286.3,-76.36 275.74,-75.52 283.47,-82.76 286.3,-76.36"/>
</g>
<!-- Node6&#45;&gt;Node3 -->
<g id="edge6" class="edge">
<title>Node6&#45;&gt;Node3</title>
<path fill="none" stroke="midnightblue" d="M259.36,-112.44C297.42,-103.1 358.46,-88.12 399.96,-77.93"/>
<polygon fill="midnightblue" stroke="midnightblue" points="400.93,-81.3 409.8,-75.52 399.26,-74.5 400.93,-81.3"/>
</g>
<!-- Node6&#45;&gt;Node5 -->
<g id="edge10" class="edge">
<title>Node6&#45;&gt;Node5</title>
<path fill="none" stroke="midnightblue" d="M229.78,-112.08C234.21,-104.61 240.66,-93.72 246.12,-84.52"/>
<polygon fill="midnightblue" stroke="midnightblue" points="249.23,-86.14 251.31,-75.75 243.21,-82.57 249.23,-86.14"/>
</g>
<!-- Node7 -->
<g id="node7" class="node">
<title>Node7</title>
<g id="a_node7"><a xlink:href="abcg__shader_8hpp.html" target="_top" xlink:title="Declaration of helper functions for building shaders and programs.">
<polygon fill="none" stroke="black" points="65.5,-56.5 65.5,-75.5 163.5,-75.5 163.5,-56.5 65.5,-56.5"/>
<text text-anchor="middle" x="114.5" y="-63.5" font-family="Helvetica,sans-Serif" font-size="10.00">abcg_shader.hpp</text>
</a>
</g>
</g>
<!-- Node6&#45;&gt;Node7 -->
<g id="edge7" class="edge">
<title>Node6&#45;&gt;Node7</title>
<path fill="none" stroke="midnightblue" d="M206.83,-112.32C189.11,-103.62 161.6,-90.12 141.21,-80.11"/>
<polygon fill="midnightblue" stroke="midnightblue" points="142.65,-76.92 132.13,-75.65 139.56,-83.2 142.65,-76.92"/>
</g>
<!-- Node8 -->
<g id="node8" class="node">
<title>Node8</title>
<g id="a_node8"><a xlink:title=" ">
<polygon fill="none" stroke="#bfbfbf" points="445.5,-0.5 445.5,-19.5 489.5,-19.5 489.5,-0.5 445.5,-0.5"/>
<text text-anchor="middle" x="467.5" y="-7.5" font-family="Helvetica,sans-Serif" font-size="10.00">string</text>
</a>
</g>
</g>
<!-- Node6&#45;&gt;Node8 -->
<g id="edge9" class="edge">
<title>Node6&#45;&gt;Node8</title>
<path fill="none" stroke="midnightblue" d="M218.56,-112.33C210.05,-98.73 196.84,-72.26 210.5,-56 238.87,-22.23 372.79,-13.8 435.26,-11.7"/>
<polygon fill="midnightblue" stroke="midnightblue" points="435.46,-15.19 445.35,-11.39 435.25,-8.19 435.46,-15.19"/>
</g>
<!-- Node9 -->
<g id="node9" class="node">
<title>Node9</title>
<g id="a_node9"><a xlink:title=" ">
<polygon fill="none" stroke="#bfbfbf" points="0,-56.5 0,-75.5 47,-75.5 47,-56.5 0,-56.5"/>
<text text-anchor="middle" x="23.5" y="-63.5" font-family="Helvetica,sans-Serif" font-size="10.00">vector</text>
</a>
</g>
</g>
<!-- Node6&#45;&gt;Node9 -->
<g id="edge11" class="edge">
<title>Node6&#45;&gt;Node9</title>
<path fill="none" stroke="midnightblue" d="M192.59,-112.5C160.77,-104.01 110.23,-90.5 57.21,-76.18"/>
<polygon fill="midnightblue" stroke="midnightblue" points="57.86,-72.73 47.29,-73.5 56.03,-79.49 57.86,-72.73"/>
</g>
<!-- Node7&#45;&gt;Node8 -->
<g id="edge8" class="edge">
<title>Node7&#45;&gt;Node8</title>
<path fill="none" stroke="midnightblue" d="M163.58,-57.49C237.01,-46.26 373.42,-25.39 435.39,-15.91"/>
<polygon fill="midnightblue" stroke="midnightblue" points="436.01,-19.36 445.37,-14.39 434.95,-12.44 436.01,-19.36"/>
</g>
<!-- Node10&#45;&gt;Node6 -->
<g id="edge20" class="edge">
<title>Node10&#45;&gt;Node6</title>
<path fill="none" stroke="midnightblue" d="M593.1,-168.44C514.25,-158.72 385.85,-142.89 303.3,-132.72"/>
<polygon fill="midnightblue" stroke="midnightblue" points="303.57,-129.22 293.22,-131.47 302.71,-136.17 303.57,-129.22"/>
</g>
<!-- Node10&#45;&gt;Node8 -->
<g id="edge13" class="edge">
<title>Node10&#45;&gt;Node8</title>
<path fill="none" stroke="midnightblue" d="M673.34,-168.31C698.28,-147.28 755.32,-92.69 724.5,-56 696.13,-22.23 562.21,-13.8 499.74,-11.7"/>
<polygon fill="midnightblue" stroke="midnightblue" points="499.75,-8.19 489.65,-11.39 499.54,-15.19 499.75,-8.19"/>
</g>
<!-- Node11 -->
<g id="node11" class="node">
<title>Node11</title>
<g id="a_node11"><a xlink:href="abcg__external_8hpp.html" target="_top" xlink:title="Header file for including third&#45;party dependencies.">
<polygon fill="none" stroke="black" points="958,-56.5 958,-75.5 1065,-75.5 1065,-56.5 958,-56.5"/>
<text text-anchor="middle" x="1011.5" y="-63.5" font-family="Helvetica,sans-Serif" font-size="10.00">abcg_external.hpp</text>
</a>
</g>
</g>
<!-- Node10&#45;&gt;Node11 -->
<g id="edge14" class="edge">
<title>Node10&#45;&gt;Node11</title>
<path fill="none" stroke="midnightblue" d="M733.15,-171.44C783.66,-165.73 852.49,-154.36 909.5,-132 941.03,-119.63 973.32,-97.05 992.9,-82.03"/>
<polygon fill="midnightblue" stroke="midnightblue" points="995.23,-84.64 1000.95,-75.72 990.92,-79.13 995.23,-84.64"/>
</g>
<!-- Node12 -->
<g id="node12" class="node">
<title>Node12</title>
<g id="a_node12"><a xlink:href="abcg__opengl__function_8hpp.html" target="_top" xlink:title="Declaration of OpenGL&#45;related error checking functions.">
<polygon fill="none" stroke="black" points="509.5,-112.5 509.5,-131.5 653.5,-131.5 653.5,-112.5 509.5,-112.5"/>
<text text-anchor="middle" x="581.5" y="-119.5" font-family="Helvetica,sans-Serif" font-size="10.00">abcg_opengl_function.hpp</text>
</a>
</g>
</g>
<!-- Node10&#45;&gt;Node12 -->
<g id="edge15" class="edge">
<title>Node10&#45;&gt;Node12</title>
<path fill="none" stroke="midnightblue" d="M649.49,-168.32C636.97,-159.98 617.82,-147.21 603.03,-137.35"/>
<polygon fill="midnightblue" stroke="midnightblue" points="604.74,-134.29 594.48,-131.65 600.86,-140.11 604.74,-134.29"/>
</g>
<!-- Node15 -->
<g id="node15" class="node">
<title>Node15</title>
<g id="a_node15"><a xlink:href="abcg__window_8hpp.html" target="_top" xlink:title="Header file of abcg::Window.">
<polygon fill="none" stroke="black" points="797,-112.5 797,-131.5 900,-131.5 900,-112.5 797,-112.5"/>
<text text-anchor="middle" x="848.5" y="-119.5" font-family="Helvetica,sans-Serif" font-size="10.00">abcg_window.hpp</text>
</a>
</g>
</g>
<!-- Node10&#45;&gt;Node15 -->
<g id="edge21" class="edge">
<title>Node10&#45;&gt;Node15</title>
<path fill="none" stroke="midnightblue" d="M691.97,-168.44C723.67,-159.24 774.23,-144.56 809.27,-134.39"/>
<polygon fill="midnightblue" stroke="midnightblue" points="810.54,-137.67 819.17,-131.52 808.59,-130.94 810.54,-137.67"/>
</g>
<!-- Node12&#45;&gt;Node3 -->
<g id="edge19" class="edge">
<title>Node12&#45;&gt;Node3</title>
<path fill="none" stroke="midnightblue" d="M559.79,-112.44C537.15,-103.52 501.43,-89.44 475.75,-79.32"/>
<polygon fill="midnightblue" stroke="midnightblue" points="476.69,-75.93 466.11,-75.52 474.13,-82.44 476.69,-75.93"/>
</g>
<!-- Node12&#45;&gt;Node5 -->
<g id="edge17" class="edge">
<title>Node12&#45;&gt;Node5</title>
<path fill="none" stroke="midnightblue" d="M525.3,-112.5C471.03,-104.16 386.3,-90.81 303.02,-76.04"/>
<polygon fill="midnightblue" stroke="midnightblue" points="303.6,-72.59 293.14,-74.28 302.37,-79.48 303.6,-72.59"/>
</g>
<!-- Node13 -->
<g id="node13" class="node">
<title>Node13</title>
<g id="a_node13"><a xlink:title=" ">
<polygon fill="none" stroke="#bfbfbf" points="535,-56.5 535,-75.5 628,-75.5 628,-56.5 535,-56.5"/>
<text text-anchor="middle" x="581.5" y="-63.5" font-family="Helvetica,sans-Serif" font-size="10.00">source_location</text>
</a>
</g>
</g>
<!-- Node12&#45;&gt;Node13 -->
<g id="edge16" class="edge">
<title>Node12&#45;&gt;Node13</title>
<path fill="none" stroke="midnightblue" d="M581.5,-112.08C581.5,-105.01 581.5,-94.86 581.5,-85.99"/>
<polygon fill="midnightblue" stroke="midnightblue" points="585,-85.75 581.5,-75.75 578,-85.75 585,-85.75"/>
</g>
<!-- Node14 -->
<g id="node14" class="node">
<title>Node14</title>
<g id="a_node14"><a xlink:title=" ">
<polygon fill="none" stroke="#bfbfbf" points="646,-56.5 646,-75.5 715,-75.5 715,-56.5 646,-56.5"/>
<text text-anchor="middle" x="680.5" y="-63.5" font-family="Helvetica,sans-Serif" font-size="10.00">type_traits</text>
</a>
</g>
</g>
<!-- Node12&#45;&gt;Node14 -->
<g id="edge18" class="edge">
<title>Node12&#45;&gt;Node14</title>
<path fill="none" stroke="midnightblue" d="M597.41,-112.32C613.14,-103.74 637.44,-90.49 655.71,-80.52"/>
<polygon fill="midnightblue" stroke="midnightblue" points="657.53,-83.52 664.63,-75.65 654.18,-77.37 657.53,-83.52"/>
</g>
<!-- Node15&#45;&gt;Node8 -->
<g id="edge22" class="edge">
<title>Node15&#45;&gt;Node8</title>
<path fill="none" stroke="midnightblue" d="M839.31,-112.14C823.83,-97.77 790.94,-69.63 757.5,-56 669.04,-19.94 554.59,-12.56 499.68,-11.2"/>
<polygon fill="midnightblue" stroke="midnightblue" points="499.58,-7.69 489.51,-11 499.44,-14.69 499.58,-7.69"/>
</g>
<!-- Node15&#45;&gt;Node11 -->
<g id="edge25" class="edge">
<title>Node15&#45;&gt;Node11</title>
<path fill="none" stroke="midnightblue" d="M874.33,-112.44C901.75,-103.36 945.28,-88.94 975.93,-78.78"/>
<polygon fill="midnightblue" stroke="midnightblue" points="977.4,-81.98 985.79,-75.52 975.2,-75.34 977.4,-81.98"/>
</g>
<!-- Node16 -->
<g id="node16" class="node">
<title>Node16</title>
<g id="a_node16"><a xlink:href="abcg__elapsedtimer_8hpp.html" target="_top" xlink:title="Header file of abcg::ElapsedTimer.">
<polygon fill="none" stroke="black" points="809.5,-56.5 809.5,-75.5 939.5,-75.5 939.5,-56.5 809.5,-56.5"/>
<text text-anchor="middle" x="874.5" y="-63.5" font-family="Helvetica,sans-Serif" font-size="10.00">abcg_elapsedtimer.hpp</text>
</a>
</g>
</g>
<!-- Node15&#45;&gt;Node16 -->
<g id="edge23" class="edge">
<title>Node15&#45;&gt;Node16</title>
<path fill="none" stroke="midnightblue" d="M852.79,-112.08C856.35,-104.69 861.52,-93.95 865.92,-84.81"/>
<polygon fill="midnightblue" stroke="midnightblue" points="869.1,-86.28 870.29,-75.75 862.79,-83.24 869.1,-86.28"/>
</g>
<!-- Node17 -->
<g id="node17" class="node">
<title>Node17</title>
<g id="a_node17"><a xlink:title=" ">
<polygon fill="none" stroke="#bfbfbf" points="849.5,-0.5 849.5,-19.5 899.5,-19.5 899.5,-0.5 849.5,-0.5"/>
<text text-anchor="middle" x="874.5" y="-7.5" font-family="Helvetica,sans-Serif" font-size="10.00">chrono</text>
</a>
</g>
</g>
<!-- Node16&#45;&gt;Node17 -->
<g id="edge24" class="edge">
<title>Node16&#45;&gt;Node17</title>
<path fill="none" stroke="midnightblue" d="M874.5,-56.08C874.5,-49.01 874.5,-38.86 874.5,-29.99"/>
<polygon fill="midnightblue" stroke="midnightblue" points="878,-29.75 874.5,-19.75 871,-29.75 878,-29.75"/>
</g>
</g>
</svg>
