<?xml version="1.0" encoding="UTF-8" standalone="no"?>
<!DOCTYPE svg PUBLIC "-//W3C//DTD SVG 1.1//EN"
 "http://www.w3.org/Graphics/SVG/1.1/DTD/svg11.dtd">
<!-- Generated by graphviz version 2.43.0 (0)
 -->
<!-- Title: /home/harlen/dev/abcg/abcg/abcgVulkanInstance.hpp Pages: 1 -->
<svg width="1238pt" height="508pt"
 viewBox="0.00 0.00 1238.38 508.00" xmlns="http://www.w3.org/2000/svg" xmlns:xlink="http://www.w3.org/1999/xlink">
<g id="graph0" class="graph" transform="scale(1 1) rotate(0) translate(4 504)">
<title>/home/harlen/dev/abcg/abcg/abcgVulkanInstance.hpp</title>
<!-- Node1 -->
<g id="node1" class="node">
<title>Node1</title>
<g id="a_node1"><a xlink:title="Header file of abcg::VulkanInstance.">
<polygon fill="#bfbfbf" stroke="black" points="892.5,-469.5 892.5,-499.5 1056.5,-499.5 1056.5,-469.5 892.5,-469.5"/>
<text text-anchor="start" x="900.5" y="-487.5" font-family="Helvetica,sans-Serif" font-size="10.00">/home/harlen/dev/abcg</text>
<text text-anchor="middle" x="974.5" y="-476.5" font-family="Helvetica,sans-Serif" font-size="10.00">/abcg/abcgVulkanInstance.hpp</text>
</a>
</g>
</g>
<!-- Node2 -->
<g id="node2" class="node">
<title>Node2</title>
<g id="a_node2"><a xlink:href="abcgVulkanInstance_8cpp.html" target="_top" xlink:title="Definition of abcg::VulkanInstance.">
<polygon fill="none" stroke="black" points="0,-0.5 0,-30.5 163,-30.5 163,-0.5 0,-0.5"/>
<text text-anchor="start" x="8" y="-18.5" font-family="Helvetica,sans-Serif" font-size="10.00">/home/harlen/dev/abcg</text>
<text text-anchor="middle" x="81.5" y="-7.5" font-family="Helvetica,sans-Serif" font-size="10.00">/abcg/abcgVulkanInstance.cpp</text>
</a>
</g>
</g>
<!-- Node1&#45;&gt;Node2 -->
<g id="edge1" class="edge">
<title>Node1&#45;&gt;Node2</title>
<path fill="none" stroke="midnightblue" d="M882.08,-483.59C694.85,-482.84 277.05,-476.2 141.5,-433 76.17,-412.18 10.5,-420.07 10.5,-351.5 10.5,-351.5 10.5,-351.5 10.5,-148.5 10.5,-100.62 47.18,-53.38 67.81,-30.59"/>
<polygon fill="midnightblue" stroke="midnightblue" points="882.16,-487.09 892.17,-483.62 882.19,-480.09 882.16,-487.09"/>
</g>
<!-- Node3 -->
<g id="node3" class="node">
<title>Node3</title>
<g id="a_node3"><a xlink:href="abcgVulkanPhysicalDevice_8cpp.html" target="_top" xlink:title="Definition of abcg::VulkanPhysicalDevice.">
<polygon fill="none" stroke="black" points="277.5,-0.5 277.5,-30.5 473.5,-30.5 473.5,-0.5 277.5,-0.5"/>
<text text-anchor="start" x="285.5" y="-18.5" font-family="Helvetica,sans-Serif" font-size="10.00">/home/harlen/dev/abcg</text>
<text text-anchor="middle" x="375.5" y="-7.5" font-family="Helvetica,sans-Serif" font-size="10.00">/abcg/abcgVulkanPhysicalDevice.cpp</text>
</a>
</g>
</g>
<!-- Node1&#45;&gt;Node3 -->
<g id="edge2" class="edge">
<title>Node1&#45;&gt;Node3</title>
<path fill="none" stroke="midnightblue" d="M882.12,-479.92C647.75,-469.62 48.5,-435.11 48.5,-351.5 48.5,-351.5 48.5,-351.5 48.5,-148.5 48.5,-93.94 207.04,-51.36 303.33,-30.53"/>
<polygon fill="midnightblue" stroke="midnightblue" points="882.18,-483.43 892.32,-480.37 882.49,-476.43 882.18,-483.43"/>
</g>
<!-- Node4 -->
<g id="node4" class="node">
<title>Node4</title>
<g id="a_node4"><a xlink:href="abcgVulkanPhysicalDevice_8hpp.html" target="_top" xlink:title="Header file of abcg::VulkanPhysicalDevice.">
<polygon fill="none" stroke="black" points="1003,-402.5 1003,-432.5 1200,-432.5 1200,-402.5 1003,-402.5"/>
<text text-anchor="start" x="1011" y="-420.5" font-family="Helvetica,sans-Serif" font-size="10.00">/home/harlen/dev/abcg</text>
<text text-anchor="middle" x="1101.5" y="-409.5" font-family="Helvetica,sans-Serif" font-size="10.00">/abcg/abcgVulkanPhysicalDevice.hpp</text>
</a>
</g>
</g>
<!-- Node1&#45;&gt;Node4 -->
<g id="edge3" class="edge">
<title>Node1&#45;&gt;Node4</title>
<path fill="none" stroke="midnightblue" d="M1011.2,-464.71C1031.23,-454.46 1055.62,-441.98 1074,-432.58"/>
<polygon fill="midnightblue" stroke="midnightblue" points="1009.36,-461.72 1002.06,-469.4 1012.55,-467.96 1009.36,-461.72"/>
</g>
<!-- Node16 -->
<g id="node16" class="node">
<title>Node16</title>
<g id="a_node16"><a xlink:href="abcgVulkanWindow_8hpp.html" target="_top" xlink:title="Header file of abcg::VulkanWindow.">
<polygon fill="none" stroke="black" points="802,-134.5 802,-164.5 963,-164.5 963,-134.5 802,-134.5"/>
<text text-anchor="start" x="810" y="-152.5" font-family="Helvetica,sans-Serif" font-size="10.00">/home/harlen/dev/abcg</text>
<text text-anchor="middle" x="882.5" y="-141.5" font-family="Helvetica,sans-Serif" font-size="10.00">/abcg/abcgVulkanWindow.hpp</text>
</a>
</g>
</g>
<!-- Node1&#45;&gt;Node16 -->
<g id="edge37" class="edge">
<title>Node1&#45;&gt;Node16</title>
<path fill="none" stroke="midnightblue" d="M977.94,-459.39C984.04,-408.23 992.07,-286.52 945.5,-201 937.12,-185.61 921.9,-173.21 908.52,-164.55"/>
<polygon fill="midnightblue" stroke="midnightblue" points="974.45,-459.1 976.65,-469.47 981.4,-459.99 974.45,-459.1"/>
</g>
<!-- Node18 -->
<g id="node18" class="node">
<title>Node18</title>
<g id="a_node18"><a xlink:href="abcgVulkanWindow_8cpp.html" target="_top" xlink:title="Definition of abcg::VulkanWindow members.">
<polygon fill="none" stroke="black" points="1002.5,-67.5 1002.5,-97.5 1162.5,-97.5 1162.5,-67.5 1002.5,-67.5"/>
<text text-anchor="start" x="1010.5" y="-85.5" font-family="Helvetica,sans-Serif" font-size="10.00">/home/harlen/dev/abcg</text>
<text text-anchor="middle" x="1082.5" y="-74.5" font-family="Helvetica,sans-Serif" font-size="10.00">/abcg/abcgVulkanWindow.cpp</text>
</a>
</g>
</g>
<!-- Node1&#45;&gt;Node18 -->
<g id="edge36" class="edge">
<title>Node1&#45;&gt;Node18</title>
<path fill="none" stroke="midnightblue" d="M1066.68,-473.86C1123.45,-466.05 1189.14,-453.01 1209.5,-433 1236.03,-406.93 1228.5,-388.69 1228.5,-351.5 1228.5,-351.5 1228.5,-351.5 1228.5,-215.5 1228.5,-156.56 1162.21,-117.11 1118.97,-97.66"/>
<polygon fill="midnightblue" stroke="midnightblue" points="1066.01,-470.42 1056.56,-475.21 1066.93,-477.36 1066.01,-470.42"/>
</g>
<!-- Node4&#45;&gt;Node3 -->
<g id="edge33" class="edge">
<title>Node4&#45;&gt;Node3</title>
<path fill="none" stroke="midnightblue" d="M1127.27,-395.58C1153.56,-371.73 1190.5,-330.09 1190.5,-284.5 1190.5,-284.5 1190.5,-284.5 1190.5,-148.5 1190.5,-111.31 1199.89,-91.03 1171.5,-67 1119.39,-22.88 675.01,-16.77 473.79,-16.29"/>
<polygon fill="midnightblue" stroke="midnightblue" points="1124.71,-393.17 1119.51,-402.4 1129.33,-398.43 1124.71,-393.17"/>
</g>
<!-- Node5 -->
<g id="node5" class="node">
<title>Node5</title>
<g id="a_node5"><a xlink:href="abcgVulkanDevice_8hpp.html" target="_top" xlink:title="Header file of abcg::VulkanDevice.">
<polygon fill="none" stroke="black" points="684.5,-335.5 684.5,-365.5 840.5,-365.5 840.5,-335.5 684.5,-335.5"/>
<text text-anchor="start" x="692.5" y="-353.5" font-family="Helvetica,sans-Serif" font-size="10.00">/home/harlen/dev/abcg</text>
<text text-anchor="middle" x="762.5" y="-342.5" font-family="Helvetica,sans-Serif" font-size="10.00">/abcg/abcgVulkanDevice.hpp</text>
</a>
</g>
</g>
<!-- Node4&#45;&gt;Node5 -->
<g id="edge4" class="edge">
<title>Node4&#45;&gt;Node5</title>
<path fill="none" stroke="midnightblue" d="M1018.48,-400.58C962.59,-389.86 889.55,-375.86 835.8,-365.55"/>
<polygon fill="midnightblue" stroke="midnightblue" points="1017.88,-404.03 1028.36,-402.48 1019.2,-397.16 1017.88,-404.03"/>
</g>
<!-- Node15 -->
<g id="node15" class="node">
<title>Node15</title>
<g id="a_node15"><a xlink:href="abcgVulkanSwapchain_8cpp.html" target="_top" xlink:title="Definition of abcg::VulkanSwapchain.">
<polygon fill="none" stroke="black" points="810.5,-67.5 810.5,-97.5 984.5,-97.5 984.5,-67.5 810.5,-67.5"/>
<text text-anchor="start" x="818.5" y="-85.5" font-family="Helvetica,sans-Serif" font-size="10.00">/home/harlen/dev/abcg</text>
<text text-anchor="middle" x="897.5" y="-74.5" font-family="Helvetica,sans-Serif" font-size="10.00">/abcg/abcgVulkanSwapchain.cpp</text>
</a>
</g>
</g>
<!-- Node4&#45;&gt;Node15 -->
<g id="edge34" class="edge">
<title>Node4&#45;&gt;Node15</title>
<path fill="none" stroke="midnightblue" d="M1091.52,-392.74C1081.49,-366.67 1067.5,-323.36 1067.5,-284.5 1067.5,-284.5 1067.5,-284.5 1067.5,-215.5 1067.5,-153.1 995.16,-115.94 944.85,-97.64"/>
<polygon fill="midnightblue" stroke="midnightblue" points="1088.32,-394.16 1095.26,-402.16 1094.82,-391.58 1088.32,-394.16"/>
</g>
<!-- Node4&#45;&gt;Node16 -->
<g id="edge35" class="edge">
<title>Node4&#45;&gt;Node16</title>
<path fill="none" stroke="midnightblue" d="M1080.21,-394.95C1071.72,-386.14 1061.97,-375.75 1053.5,-366 989.75,-292.64 919.3,-199.73 893.08,-164.72"/>
<polygon fill="midnightblue" stroke="midnightblue" points="1077.81,-397.5 1087.29,-402.23 1082.83,-392.62 1077.81,-397.5"/>
</g>
<!-- Node6 -->
<g id="node6" class="node">
<title>Node6</title>
<g id="a_node6"><a xlink:href="abcgVulkanBuffer_8hpp.html" target="_top" xlink:title="Header file of abcg::VulkanBuffer.">
<polygon fill="none" stroke="black" points="153,-268.5 153,-298.5 304,-298.5 304,-268.5 153,-268.5"/>
<text text-anchor="start" x="161" y="-286.5" font-family="Helvetica,sans-Serif" font-size="10.00">/home/harlen/dev/abcg</text>
<text text-anchor="middle" x="228.5" y="-275.5" font-family="Helvetica,sans-Serif" font-size="10.00">/abcg/abcgVulkanBuffer.hpp</text>
</a>
</g>
</g>
<!-- Node5&#45;&gt;Node6 -->
<g id="edge5" class="edge">
<title>Node5&#45;&gt;Node6</title>
<path fill="none" stroke="midnightblue" d="M674.19,-338.75C570.97,-326.19 401.87,-305.6 304.34,-293.73"/>
<polygon fill="midnightblue" stroke="midnightblue" points="673.93,-342.24 684.28,-339.98 674.78,-335.3 673.93,-342.24"/>
</g>
<!-- Node10 -->
<g id="node10" class="node">
<title>Node10</title>
<g id="a_node10"><a xlink:href="abcgVulkanDevice_8cpp.html" target="_top" xlink:title="Definition of abcg::VulkanDevice.">
<polygon fill="none" stroke="black" points="685,-268.5 685,-298.5 840,-298.5 840,-268.5 685,-268.5"/>
<text text-anchor="start" x="693" y="-286.5" font-family="Helvetica,sans-Serif" font-size="10.00">/home/harlen/dev/abcg</text>
<text text-anchor="middle" x="762.5" y="-275.5" font-family="Helvetica,sans-Serif" font-size="10.00">/abcg/abcgVulkanDevice.cpp</text>
</a>
</g>
</g>
<!-- Node5&#45;&gt;Node10 -->
<g id="edge11" class="edge">
<title>Node5&#45;&gt;Node10</title>
<path fill="none" stroke="midnightblue" d="M762.5,-325.11C762.5,-316.15 762.5,-306.32 762.5,-298.58"/>
<polygon fill="midnightblue" stroke="midnightblue" points="759,-325.4 762.5,-335.4 766,-325.4 759,-325.4"/>
</g>
<!-- Node11 -->
<g id="node11" class="node">
<title>Node11</title>
<g id="a_node11"><a xlink:href="abcgVulkanImage_8hpp.html" target="_top" xlink:title="Header file of abcg::VulkanImage.">
<polygon fill="none" stroke="black" points="399,-268.5 399,-298.5 552,-298.5 552,-268.5 399,-268.5"/>
<text text-anchor="start" x="407" y="-286.5" font-family="Helvetica,sans-Serif" font-size="10.00">/home/harlen/dev/abcg</text>
<text text-anchor="middle" x="475.5" y="-275.5" font-family="Helvetica,sans-Serif" font-size="10.00">/abcg/abcgVulkanImage.hpp</text>
</a>
</g>
</g>
<!-- Node5&#45;&gt;Node11 -->
<g id="edge12" class="edge">
<title>Node5&#45;&gt;Node11</title>
<path fill="none" stroke="midnightblue" d="M690.76,-333.25C643.72,-322.6 582.82,-308.81 537.81,-298.61"/>
<polygon fill="midnightblue" stroke="midnightblue" points="690.05,-336.68 700.58,-335.48 691.6,-329.85 690.05,-336.68"/>
</g>
<!-- Node12 -->
<g id="node12" class="node">
<title>Node12</title>
<g id="a_node12"><a xlink:href="abcgVulkanSwapchain_8hpp.html" target="_top" xlink:title="Header file of abcg::VulkanSwapchain.">
<polygon fill="none" stroke="black" points="703,-201.5 703,-231.5 878,-231.5 878,-201.5 703,-201.5"/>
<text text-anchor="start" x="711" y="-219.5" font-family="Helvetica,sans-Serif" font-size="10.00">/home/harlen/dev/abcg</text>
<text text-anchor="middle" x="790.5" y="-208.5" font-family="Helvetica,sans-Serif" font-size="10.00">/abcg/abcgVulkanSwapchain.hpp</text>
</a>
</g>
</g>
<!-- Node5&#45;&gt;Node12 -->
<g id="edge31" class="edge">
<title>Node5&#45;&gt;Node12</title>
<path fill="none" stroke="midnightblue" d="M814.43,-330.78C828.27,-323.15 841.57,-312.78 849.5,-299 856.37,-287.06 855.26,-280.52 849.5,-268 842.45,-252.69 828.22,-240.29 815.5,-231.61"/>
<polygon fill="midnightblue" stroke="midnightblue" points="812.64,-327.77 805.31,-335.42 815.81,-334.01 812.64,-327.77"/>
</g>
<!-- Node13 -->
<g id="node13" class="node">
<title>Node13</title>
<g id="a_node13"><a xlink:href="abcgVulkanPipeline_8hpp.html" target="_top" xlink:title="Header file of abcg::VulkanPipeline.">
<polygon fill="none" stroke="black" points="584,-134.5 584,-164.5 745,-164.5 745,-134.5 584,-134.5"/>
<text text-anchor="start" x="592" y="-152.5" font-family="Helvetica,sans-Serif" font-size="10.00">/home/harlen/dev/abcg</text>
<text text-anchor="middle" x="664.5" y="-141.5" font-family="Helvetica,sans-Serif" font-size="10.00">/abcg/abcgVulkanPipeline.hpp</text>
</a>
</g>
</g>
<!-- Node5&#45;&gt;Node13 -->
<g id="edge25" class="edge">
<title>Node5&#45;&gt;Node13</title>
<path fill="none" stroke="midnightblue" d="M712.57,-330.67C698.66,-322.97 685.03,-312.6 676.5,-299 649.84,-256.49 656.69,-193.13 661.58,-164.93"/>
<polygon fill="midnightblue" stroke="midnightblue" points="711.21,-333.9 721.71,-335.35 714.4,-327.67 711.21,-333.9"/>
</g>
<!-- Node5&#45;&gt;Node15 -->
<g id="edge30" class="edge">
<title>Node5&#45;&gt;Node15</title>
<path fill="none" stroke="midnightblue" d="M827,-332.11C847.83,-324.33 870.04,-313.55 887.5,-299 941.68,-253.85 952.83,-232.73 972.5,-165 976.34,-151.77 978.97,-146.16 972.5,-134 963.87,-117.79 947.46,-105.85 932.19,-97.66"/>
<polygon fill="midnightblue" stroke="midnightblue" points="825.79,-328.82 817.54,-335.47 828.14,-335.42 825.79,-328.82"/>
</g>
<!-- Node5&#45;&gt;Node16 -->
<g id="edge32" class="edge">
<title>Node5&#45;&gt;Node16</title>
<path fill="none" stroke="midnightblue" d="M819.23,-331.41C836.03,-323.7 853.2,-313.13 865.5,-299 898.89,-260.63 891.12,-193.97 885.64,-164.83"/>
<polygon fill="midnightblue" stroke="midnightblue" points="817.77,-328.23 809.97,-335.41 820.54,-334.66 817.77,-328.23"/>
</g>
<!-- Node19 -->
<g id="node19" class="node">
<title>Node19</title>
<g id="a_node19"><a xlink:href="abcgVulkanShader_8hpp.html" target="_top" xlink:title="Declaration of helper functions for creating Vulkan shaders.">
<polygon fill="none" stroke="black" points="491,-201.5 491,-231.5 646,-231.5 646,-201.5 491,-201.5"/>
<text text-anchor="start" x="499" y="-219.5" font-family="Helvetica,sans-Serif" font-size="10.00">/home/harlen/dev/abcg</text>
<text text-anchor="middle" x="568.5" y="-208.5" font-family="Helvetica,sans-Serif" font-size="10.00">/abcg/abcgVulkanShader.hpp</text>
</a>
</g>
</g>
<!-- Node5&#45;&gt;Node19 -->
<g id="edge26" class="edge">
<title>Node5&#45;&gt;Node19</title>
<path fill="none" stroke="midnightblue" d="M706.94,-331.91C685.7,-323.75 661.94,-312.76 642.5,-299 615.51,-279.9 591.21,-249.39 578.28,-231.62"/>
<polygon fill="midnightblue" stroke="midnightblue" points="705.9,-335.26 716.5,-335.47 708.34,-328.7 705.9,-335.26"/>
</g>
<!-- Node7 -->
<g id="node7" class="node">
<title>Node7</title>
<g id="a_node7"><a xlink:href="abcgVulkan_8hpp.html" target="_top" xlink:title="Header file for Vulkan&#45;related functions and classes.">
<polygon fill="none" stroke="black" points="311.5,-67.5 311.5,-97.5 439.5,-97.5 439.5,-67.5 311.5,-67.5"/>
<text text-anchor="start" x="319.5" y="-85.5" font-family="Helvetica,sans-Serif" font-size="10.00">/home/harlen/dev/abcg</text>
<text text-anchor="middle" x="375.5" y="-74.5" font-family="Helvetica,sans-Serif" font-size="10.00">/abcg/abcgVulkan.hpp</text>
</a>
</g>
</g>
<!-- Node6&#45;&gt;Node7 -->
<g id="edge6" class="edge">
<title>Node6&#45;&gt;Node7</title>
<path fill="none" stroke="midnightblue" d="M161.31,-265.17C123.03,-251.74 86.21,-230.43 105.5,-201 150.9,-131.73 246.96,-103.08 311.39,-91.38"/>
<polygon fill="midnightblue" stroke="midnightblue" points="160.44,-268.57 171.03,-268.42 162.66,-261.93 160.44,-268.57"/>
</g>
<!-- Node8 -->
<g id="node8" class="node">
<title>Node8</title>
<g id="a_node8"><a xlink:href="abcgVulkanBuffer_8cpp.html" target="_top" xlink:title="Definition of abcg::VulkanBuffer.">
<polygon fill="none" stroke="black" points="114.5,-201.5 114.5,-231.5 264.5,-231.5 264.5,-201.5 114.5,-201.5"/>
<text text-anchor="start" x="122.5" y="-219.5" font-family="Helvetica,sans-Serif" font-size="10.00">/home/harlen/dev/abcg</text>
<text text-anchor="middle" x="189.5" y="-208.5" font-family="Helvetica,sans-Serif" font-size="10.00">/abcg/abcgVulkanBuffer.cpp</text>
</a>
</g>
</g>
<!-- Node6&#45;&gt;Node8 -->
<g id="edge9" class="edge">
<title>Node6&#45;&gt;Node8</title>
<path fill="none" stroke="midnightblue" d="M214.75,-259.58C209.14,-250.24 202.85,-239.75 197.95,-231.58"/>
<polygon fill="midnightblue" stroke="midnightblue" points="211.89,-261.62 220.04,-268.4 217.89,-258.02 211.89,-261.62"/>
</g>
<!-- Node9 -->
<g id="node9" class="node">
<title>Node9</title>
<g id="a_node9"><a xlink:href="abcgVulkanImage_8cpp.html" target="_top" xlink:title="Definition of abcg::VulkanImage.">
<polygon fill="none" stroke="black" points="282.5,-201.5 282.5,-231.5 434.5,-231.5 434.5,-201.5 282.5,-201.5"/>
<text text-anchor="start" x="290.5" y="-219.5" font-family="Helvetica,sans-Serif" font-size="10.00">/home/harlen/dev/abcg</text>
<text text-anchor="middle" x="358.5" y="-208.5" font-family="Helvetica,sans-Serif" font-size="10.00">/abcg/abcgVulkanImage.cpp</text>
</a>
</g>
</g>
<!-- Node6&#45;&gt;Node9 -->
<g id="edge10" class="edge">
<title>Node6&#45;&gt;Node9</title>
<path fill="none" stroke="midnightblue" d="M265.79,-263.85C286.35,-253.58 311.45,-241.03 330.35,-231.58"/>
<polygon fill="midnightblue" stroke="midnightblue" points="264.09,-260.79 256.71,-268.4 267.22,-267.05 264.09,-260.79"/>
</g>
<!-- Node7&#45;&gt;Node2 -->
<g id="edge7" class="edge">
<title>Node7&#45;&gt;Node2</title>
<path fill="none" stroke="midnightblue" d="M302.3,-65.32C253.98,-54.63 191.3,-40.77 145.07,-30.55"/>
<polygon fill="midnightblue" stroke="midnightblue" points="301.55,-68.73 312.07,-67.48 303.06,-61.9 301.55,-68.73"/>
</g>
<!-- Node7&#45;&gt;Node3 -->
<g id="edge8" class="edge">
<title>Node7&#45;&gt;Node3</title>
<path fill="none" stroke="midnightblue" d="M375.5,-57.11C375.5,-48.15 375.5,-38.32 375.5,-30.58"/>
<polygon fill="midnightblue" stroke="midnightblue" points="372,-57.4 375.5,-67.4 379,-57.4 372,-57.4"/>
</g>
<!-- Node11&#45;&gt;Node7 -->
<g id="edge13" class="edge">
<title>Node11&#45;&gt;Node7</title>
<path fill="none" stroke="midnightblue" d="M467.33,-258.96C461.34,-242.46 452.69,-220.05 443.5,-201 424.87,-162.36 398.36,-119.27 384.59,-97.59"/>
<polygon fill="midnightblue" stroke="midnightblue" points="464.03,-260.14 470.69,-268.38 470.62,-257.79 464.03,-260.14"/>
</g>
<!-- Node11&#45;&gt;Node9 -->
<g id="edge14" class="edge">
<title>Node11&#45;&gt;Node9</title>
<path fill="none" stroke="midnightblue" d="M441.18,-263.44C422.83,-253.24 400.62,-240.9 383.84,-231.58"/>
<polygon fill="midnightblue" stroke="midnightblue" points="439.67,-266.6 450.11,-268.4 443.07,-260.48 439.67,-266.6"/>
</g>
<!-- Node11&#45;&gt;Node12 -->
<g id="edge15" class="edge">
<title>Node11&#45;&gt;Node12</title>
<path fill="none" stroke="midnightblue" d="M553.28,-266.45C605.14,-255.75 672.65,-241.82 722.39,-231.55"/>
<polygon fill="midnightblue" stroke="midnightblue" points="552.55,-263.03 543.46,-268.48 553.96,-269.88 552.55,-263.03"/>
</g>
<!-- Node12&#45;&gt;Node13 -->
<g id="edge16" class="edge">
<title>Node12&#45;&gt;Node13</title>
<path fill="none" stroke="midnightblue" d="M754.08,-196.71C734.21,-186.46 710.02,-173.98 691.79,-164.58"/>
<polygon fill="midnightblue" stroke="midnightblue" points="752.67,-199.92 763.16,-201.4 755.88,-193.7 752.67,-199.92"/>
</g>
<!-- Node12&#45;&gt;Node15 -->
<g id="edge19" class="edge">
<title>Node12&#45;&gt;Node15</title>
<path fill="none" stroke="midnightblue" d="M785.2,-191.29C782.8,-173.95 782.55,-150.8 793.5,-134 804.74,-116.77 823.65,-105.24 842.29,-97.61"/>
<polygon fill="midnightblue" stroke="midnightblue" points="781.77,-191.95 786.9,-201.22 788.67,-190.77 781.77,-191.95"/>
</g>
<!-- Node12&#45;&gt;Node16 -->
<g id="edge20" class="edge">
<title>Node12&#45;&gt;Node16</title>
<path fill="none" stroke="midnightblue" d="M818.88,-195.45C833.03,-185.45 849.81,-173.6 862.58,-164.58"/>
<polygon fill="midnightblue" stroke="midnightblue" points="816.61,-192.77 810.46,-201.4 820.65,-198.48 816.61,-192.77"/>
</g>
<!-- Node13&#45;&gt;Node7 -->
<g id="edge17" class="edge">
<title>Node13&#45;&gt;Node7</title>
<path fill="none" stroke="midnightblue" d="M592.26,-132.25C544.89,-121.6 483.57,-107.81 438.24,-97.61"/>
<polygon fill="midnightblue" stroke="midnightblue" points="591.62,-135.7 602.15,-134.48 593.16,-128.87 591.62,-135.7"/>
</g>
<!-- Node14 -->
<g id="node14" class="node">
<title>Node14</title>
<g id="a_node14"><a xlink:href="abcgVulkanPipeline_8cpp.html" target="_top" xlink:title="Definition of abcg::VulkanPipeline.">
<polygon fill="none" stroke="black" points="631,-67.5 631,-97.5 792,-97.5 792,-67.5 631,-67.5"/>
<text text-anchor="start" x="639" y="-85.5" font-family="Helvetica,sans-Serif" font-size="10.00">/home/harlen/dev/abcg</text>
<text text-anchor="middle" x="711.5" y="-74.5" font-family="Helvetica,sans-Serif" font-size="10.00">/abcg/abcgVulkanPipeline.cpp</text>
</a>
</g>
</g>
<!-- Node13&#45;&gt;Node14 -->
<g id="edge18" class="edge">
<title>Node13&#45;&gt;Node14</title>
<path fill="none" stroke="midnightblue" d="M680.66,-126.16C687.51,-116.68 695.29,-105.92 701.32,-97.58"/>
<polygon fill="midnightblue" stroke="midnightblue" points="677.72,-124.24 674.7,-134.4 683.39,-128.34 677.72,-124.24"/>
</g>
<!-- Node16&#45;&gt;Node7 -->
<g id="edge21" class="edge">
<title>Node16&#45;&gt;Node7</title>
<path fill="none" stroke="midnightblue" d="M791.82,-138.14C669.58,-124.14 465.22,-100.63 448.5,-98 445.56,-97.54 442.57,-97.04 439.54,-96.52"/>
<polygon fill="midnightblue" stroke="midnightblue" points="791.59,-141.63 801.93,-139.29 792.39,-134.68 791.59,-141.63"/>
</g>
<!-- Node16&#45;&gt;Node15 -->
<g id="edge23" class="edge">
<title>Node16&#45;&gt;Node15</title>
<path fill="none" stroke="midnightblue" d="M888.06,-124.4C890.15,-115.37 892.44,-105.41 894.25,-97.58"/>
<polygon fill="midnightblue" stroke="midnightblue" points="884.59,-123.87 885.75,-134.4 891.41,-125.44 884.59,-123.87"/>
</g>
<!-- Node17 -->
<g id="node17" class="node">
<title>Node17</title>
<g id="a_node17"><a xlink:href="abcgVulkanShader_8cpp.html" target="_top" xlink:title="Definition of helper functions for creating Vulkan shaders.">
<polygon fill="none" stroke="black" points="458,-67.5 458,-97.5 613,-97.5 613,-67.5 458,-67.5"/>
<text text-anchor="start" x="466" y="-85.5" font-family="Helvetica,sans-Serif" font-size="10.00">/home/harlen/dev/abcg</text>
<text text-anchor="middle" x="535.5" y="-74.5" font-family="Helvetica,sans-Serif" font-size="10.00">/abcg/abcgVulkanShader.cpp</text>
</a>
</g>
</g>
<!-- Node16&#45;&gt;Node17 -->
<g id="edge22" class="edge">
<title>Node16&#45;&gt;Node17</title>
<path fill="none" stroke="midnightblue" d="M797.53,-132.58C740.31,-121.86 665.55,-107.86 610.53,-97.55"/>
<polygon fill="midnightblue" stroke="midnightblue" points="797.16,-136.07 807.63,-134.48 798.45,-129.19 797.16,-136.07"/>
</g>
<!-- Node16&#45;&gt;Node18 -->
<g id="edge24" class="edge">
<title>Node16&#45;&gt;Node18</title>
<path fill="none" stroke="midnightblue" d="M935.65,-131.23C968,-120.71 1008.81,-107.45 1039.19,-97.58"/>
<polygon fill="midnightblue" stroke="midnightblue" points="934.33,-127.98 925.9,-134.4 936.49,-134.63 934.33,-127.98"/>
</g>
<!-- Node19&#45;&gt;Node7 -->
<g id="edge27" class="edge">
<title>Node19&#45;&gt;Node7</title>
<path fill="none" stroke="midnightblue" d="M547.27,-193.77C529.43,-176.26 502.72,-151.72 476.5,-134 455.22,-119.62 429.27,-106.73 409.01,-97.58"/>
<polygon fill="midnightblue" stroke="midnightblue" points="545.25,-196.7 554.81,-201.27 550.19,-191.73 545.25,-196.7"/>
</g>
<!-- Node19&#45;&gt;Node13 -->
<g id="edge28" class="edge">
<title>Node19&#45;&gt;Node13</title>
<path fill="none" stroke="midnightblue" d="M597.69,-195.73C612.55,-185.68 630.26,-173.68 643.71,-164.58"/>
<polygon fill="midnightblue" stroke="midnightblue" points="595.65,-192.89 589.33,-201.4 599.57,-198.69 595.65,-192.89"/>
</g>
<!-- Node19&#45;&gt;Node17 -->
<g id="edge29" class="edge">
<title>Node19&#45;&gt;Node17</title>
<path fill="none" stroke="midnightblue" d="M562.47,-191.39C555.6,-163.9 544.6,-119.89 539.01,-97.52"/>
<polygon fill="midnightblue" stroke="midnightblue" points="559.15,-192.52 564.97,-201.37 565.94,-190.82 559.15,-192.52"/>
</g>
</g>
</svg>
