<?xml version="1.0" encoding="UTF-8" standalone="no"?>
<!DOCTYPE svg PUBLIC "-//W3C//DTD SVG 1.1//EN"
 "http://www.w3.org/Graphics/SVG/1.1/DTD/svg11.dtd">
<!-- Generated by graphviz version 2.43.0 (0)
 -->
<!-- Title: /home/harlen/dev/abcg2/abcg/abcg_vulkan.cpp Pages: 1 -->
<svg width="401pt" height="218pt"
 viewBox="0.00 0.00 400.50 218.00" xmlns="http://www.w3.org/2000/svg" xmlns:xlink="http://www.w3.org/1999/xlink">
<g id="graph0" class="graph" transform="scale(1 1) rotate(0) translate(4 214)">
<title>/home/harlen/dev/abcg2/abcg/abcg_vulkan.cpp</title>
<!-- Node1 -->
<g id="node1" class="node">
<title>Node1</title>
<g id="a_node1"><a xlink:title=" ">
<polygon fill="#bfbfbf" stroke="black" points="96,-179.5 96,-209.5 230,-209.5 230,-179.5 96,-179.5"/>
<text text-anchor="start" x="104" y="-197.5" font-family="Helvetica,sans-Serif" font-size="10.00">/home/harlen/dev/abcg2</text>
<text text-anchor="middle" x="163" y="-186.5" font-family="Helvetica,sans-Serif" font-size="10.00">/abcg/abcg_vulkan.cpp</text>
</a>
</g>
</g>
<!-- Node2 -->
<g id="node2" class="node">
<title>Node2</title>
<g id="a_node2"><a xlink:href="abcg__vulkan_8hpp.html" target="_top" xlink:title="Header file for Vulkan&#45;related functions and classes.">
<polygon fill="none" stroke="black" points="52,-56.5 52,-75.5 150,-75.5 150,-56.5 52,-56.5"/>
<text text-anchor="middle" x="101" y="-63.5" font-family="Helvetica,sans-Serif" font-size="10.00">abcg_vulkan.hpp</text>
</a>
</g>
</g>
<!-- Node1&#45;&gt;Node2 -->
<g id="edge1" class="edge">
<title>Node1&#45;&gt;Node2</title>
<path fill="none" stroke="midnightblue" d="M142.95,-179.47C131.64,-170.41 118.34,-157.62 111,-143 101.96,-125.01 100.12,-101.74 100.12,-85.72"/>
<polygon fill="midnightblue" stroke="midnightblue" points="103.62,-85.59 100.37,-75.51 96.62,-85.42 103.62,-85.59"/>
</g>
<!-- Node5 -->
<g id="node5" class="node">
<title>Node5</title>
<g id="a_node5"><a xlink:title=" ">
<polygon fill="none" stroke="#bfbfbf" points="120,-118 120,-137 152,-137 152,-118 120,-118"/>
<text text-anchor="middle" x="136" y="-125" font-family="Helvetica,sans-Serif" font-size="10.00">set</text>
</a>
</g>
</g>
<!-- Node1&#45;&gt;Node5 -->
<g id="edge4" class="edge">
<title>Node1&#45;&gt;Node5</title>
<path fill="none" stroke="midnightblue" d="M157.14,-179.4C153.14,-169.76 147.8,-156.91 143.49,-146.54"/>
<polygon fill="midnightblue" stroke="midnightblue" points="146.68,-145.09 139.61,-137.19 140.22,-147.77 146.68,-145.09"/>
</g>
<!-- Node6 -->
<g id="node6" class="node">
<title>Node6</title>
<g id="a_node6"><a xlink:title=" ">
<polygon fill="none" stroke="#bfbfbf" points="170,-118 170,-137 210,-137 210,-118 170,-118"/>
<text text-anchor="middle" x="190" y="-125" font-family="Helvetica,sans-Serif" font-size="10.00">span</text>
</a>
</g>
</g>
<!-- Node1&#45;&gt;Node6 -->
<g id="edge5" class="edge">
<title>Node1&#45;&gt;Node6</title>
<path fill="none" stroke="midnightblue" d="M168.86,-179.4C172.86,-169.76 178.2,-156.91 182.51,-146.54"/>
<polygon fill="midnightblue" stroke="midnightblue" points="185.78,-147.77 186.39,-137.19 179.32,-145.09 185.78,-147.77"/>
</g>
<!-- Node7 -->
<g id="node7" class="node">
<title>Node7</title>
<g id="a_node7"><a xlink:href="abcg__vulkan__physical__device_8hpp.html" target="_top" xlink:title="Header file of abcg::VulkanPhysicalDevice.">
<polygon fill="none" stroke="black" points="228.5,-112.5 228.5,-142.5 351.5,-142.5 351.5,-112.5 228.5,-112.5"/>
<text text-anchor="start" x="236.5" y="-130.5" font-family="Helvetica,sans-Serif" font-size="10.00">abcg_vulkan_physical</text>
<text text-anchor="middle" x="290" y="-119.5" font-family="Helvetica,sans-Serif" font-size="10.00">_device.hpp</text>
</a>
</g>
</g>
<!-- Node1&#45;&gt;Node7 -->
<g id="edge6" class="edge">
<title>Node1&#45;&gt;Node7</title>
<path fill="none" stroke="midnightblue" d="M190.56,-179.4C208.95,-169.98 233.33,-157.5 253.35,-147.26"/>
<polygon fill="midnightblue" stroke="midnightblue" points="255.19,-150.25 262.5,-142.58 252,-144.02 255.19,-150.25"/>
</g>
<!-- Node3 -->
<g id="node3" class="node">
<title>Node3</title>
<g id="a_node3"><a xlink:href="abcg__external_8hpp.html" target="_top" xlink:title="Header file for including third&#45;party dependencies.">
<polygon fill="none" stroke="black" points="162.5,-0.5 162.5,-19.5 269.5,-19.5 269.5,-0.5 162.5,-0.5"/>
<text text-anchor="middle" x="216" y="-7.5" font-family="Helvetica,sans-Serif" font-size="10.00">abcg_external.hpp</text>
</a>
</g>
</g>
<!-- Node2&#45;&gt;Node3 -->
<g id="edge2" class="edge">
<title>Node2&#45;&gt;Node3</title>
<path fill="none" stroke="midnightblue" d="M119.22,-56.44C137.9,-47.68 167.16,-33.94 188.62,-23.86"/>
<polygon fill="midnightblue" stroke="midnightblue" points="190.3,-26.93 197.86,-19.52 187.32,-20.6 190.3,-26.93"/>
</g>
<!-- Node4 -->
<g id="node4" class="node">
<title>Node4</title>
<g id="a_node4"><a xlink:href="abcg__vulkan__external_8hpp.html" target="_top" xlink:title="Header file for including Vulkan&#45;related dependencies.">
<polygon fill="none" stroke="black" points="0,-0.5 0,-19.5 144,-19.5 144,-0.5 0,-0.5"/>
<text text-anchor="middle" x="72" y="-7.5" font-family="Helvetica,sans-Serif" font-size="10.00">abcg_vulkan_external.hpp</text>
</a>
</g>
</g>
<!-- Node2&#45;&gt;Node4 -->
<g id="edge3" class="edge">
<title>Node2&#45;&gt;Node4</title>
<path fill="none" stroke="midnightblue" d="M96.21,-56.08C92.24,-48.69 86.47,-37.95 81.57,-28.81"/>
<polygon fill="midnightblue" stroke="midnightblue" points="84.51,-26.91 76.7,-19.75 78.35,-30.22 84.51,-26.91"/>
</g>
<!-- Node7&#45;&gt;Node2 -->
<g id="edge8" class="edge">
<title>Node7&#45;&gt;Node2</title>
<path fill="none" stroke="midnightblue" d="M245.21,-112.4C212.55,-102.12 168.82,-88.35 138.11,-78.68"/>
<polygon fill="midnightblue" stroke="midnightblue" points="138.81,-75.24 128.23,-75.57 136.71,-81.91 138.81,-75.24"/>
</g>
<!-- Node7&#45;&gt;Node3 -->
<g id="edge7" class="edge">
<title>Node7&#45;&gt;Node3</title>
<path fill="none" stroke="midnightblue" d="M269.88,-112.45C258.16,-103.31 243.97,-90.42 235,-76 226.17,-61.8 221.29,-43.32 218.69,-29.7"/>
<polygon fill="midnightblue" stroke="midnightblue" points="222.11,-28.89 217.01,-19.6 215.2,-30.04 222.11,-28.89"/>
</g>
<!-- Node8 -->
<g id="node8" class="node">
<title>Node8</title>
<g id="a_node8"><a xlink:title=" ">
<polygon fill="none" stroke="#bfbfbf" points="243.5,-56.5 243.5,-75.5 392.5,-75.5 392.5,-56.5 243.5,-56.5"/>
<text text-anchor="middle" x="318" y="-63.5" font-family="Helvetica,sans-Serif" font-size="10.00">vulkan/vulkan_handles.hpp</text>
</a>
</g>
</g>
<!-- Node7&#45;&gt;Node8 -->
<g id="edge9" class="edge">
<title>Node7&#45;&gt;Node8</title>
<path fill="none" stroke="midnightblue" d="M296.64,-112.4C300.54,-104.11 305.5,-93.55 309.67,-84.71"/>
<polygon fill="midnightblue" stroke="midnightblue" points="312.83,-86.2 313.93,-75.66 306.5,-83.22 312.83,-86.2"/>
</g>
</g>
</svg>
