<?xml version="1.0" encoding="UTF-8" standalone="no"?>
<!DOCTYPE svg PUBLIC "-//W3C//DTD SVG 1.1//EN"
 "http://www.w3.org/Graphics/SVG/1.1/DTD/svg11.dtd">
<!-- Generated by graphviz version 2.43.0 (0)
 -->
<!-- Title: /home/harlen/dev/abcg/abcg/abcgVulkanImage.cpp Pages: 1 -->
<svg width="864pt" height="375pt"
 viewBox="0.00 0.00 864.00 375.00" xmlns="http://www.w3.org/2000/svg" xmlns:xlink="http://www.w3.org/1999/xlink">
<g id="graph0" class="graph" transform="scale(1 1) rotate(0) translate(4 371)">
<title>/home/harlen/dev/abcg/abcg/abcgVulkanImage.cpp</title>
<!-- Node1 -->
<g id="node1" class="node">
<title>Node1</title>
<g id="a_node1"><a xlink:title="Definition of abcg::VulkanImage.">
<polygon fill="#bfbfbf" stroke="black" points="391,-336.5 391,-366.5 543,-366.5 543,-336.5 391,-336.5"/>
<text text-anchor="start" x="399" y="-354.5" font-family="Helvetica,sans-Serif" font-size="10.00">/home/harlen/dev/abcg</text>
<text text-anchor="middle" x="467" y="-343.5" font-family="Helvetica,sans-Serif" font-size="10.00">/abcg/abcgVulkanImage.cpp</text>
</a>
</g>
</g>
<!-- Node2 -->
<g id="node2" class="node">
<title>Node2</title>
<g id="a_node2"><a xlink:href="abcgVulkanImage_8hpp.html" target="_top" xlink:title="Header file of abcg::VulkanImage.">
<polygon fill="none" stroke="black" points="157,-280.5 157,-299.5 281,-299.5 281,-280.5 157,-280.5"/>
<text text-anchor="middle" x="219" y="-287.5" font-family="Helvetica,sans-Serif" font-size="10.00">abcgVulkanImage.hpp</text>
</a>
</g>
</g>
<!-- Node1&#45;&gt;Node2 -->
<g id="edge1" class="edge">
<title>Node1&#45;&gt;Node2</title>
<path fill="none" stroke="midnightblue" d="M408.54,-336.47C364.45,-325.9 304.84,-311.59 264.32,-301.87"/>
<polygon fill="midnightblue" stroke="midnightblue" points="265,-298.44 254.46,-299.51 263.36,-305.24 265,-298.44"/>
</g>
<!-- Node12 -->
<g id="node12" class="node">
<title>Node12</title>
<g id="a_node12"><a xlink:href="abcgVulkanBuffer_8hpp.html" target="_top" xlink:title="Header file of abcg::VulkanBuffer.">
<polygon fill="none" stroke="black" points="17,-280.5 17,-299.5 139,-299.5 139,-280.5 17,-280.5"/>
<text text-anchor="middle" x="78" y="-287.5" font-family="Helvetica,sans-Serif" font-size="10.00">abcgVulkanBuffer.hpp</text>
</a>
</g>
</g>
<!-- Node1&#45;&gt;Node12 -->
<g id="edge12" class="edge">
<title>Node1&#45;&gt;Node12</title>
<path fill="none" stroke="midnightblue" d="M390.61,-338.82C318.74,-327.82 212.24,-311.53 143.97,-301.09"/>
<polygon fill="midnightblue" stroke="midnightblue" points="144.19,-297.58 133.77,-299.53 143.13,-304.5 144.19,-297.58"/>
</g>
<!-- Node13 -->
<g id="node13" class="node">
<title>Node13</title>
<g id="a_node13"><a xlink:title=" ">
<polygon fill="none" stroke="#bfbfbf" points="299,-280.5 299,-299.5 379,-299.5 379,-280.5 299,-280.5"/>
<text text-anchor="middle" x="339" y="-287.5" font-family="Helvetica,sans-Serif" font-size="10.00">SDL_image.h</text>
</a>
</g>
</g>
<!-- Node1&#45;&gt;Node13 -->
<g id="edge15" class="edge">
<title>Node1&#45;&gt;Node13</title>
<path fill="none" stroke="midnightblue" d="M436.67,-336.4C415.48,-326.55 387.41,-313.5 366.8,-303.92"/>
<polygon fill="midnightblue" stroke="midnightblue" points="368.17,-300.7 357.63,-299.66 365.22,-307.05 368.17,-300.7"/>
</g>
<!-- Node14 -->
<g id="node14" class="node">
<title>Node14</title>
<g id="a_node14"><a xlink:title=" ">
<polygon fill="none" stroke="#bfbfbf" points="397.5,-280.5 397.5,-299.5 536.5,-299.5 536.5,-280.5 397.5,-280.5"/>
<text text-anchor="middle" x="467" y="-287.5" font-family="Helvetica,sans-Serif" font-size="10.00">cppitertools/itertools.hpp</text>
</a>
</g>
</g>
<!-- Node1&#45;&gt;Node14 -->
<g id="edge16" class="edge">
<title>Node1&#45;&gt;Node14</title>
<path fill="none" stroke="midnightblue" d="M467,-336.4C467,-328.47 467,-318.46 467,-309.86"/>
<polygon fill="midnightblue" stroke="midnightblue" points="470.5,-309.66 467,-299.66 463.5,-309.66 470.5,-309.66"/>
</g>
<!-- Node15 -->
<g id="node15" class="node">
<title>Node15</title>
<g id="a_node15"><a xlink:title=" ">
<polygon fill="none" stroke="#bfbfbf" points="554.5,-280.5 554.5,-299.5 621.5,-299.5 621.5,-280.5 554.5,-280.5"/>
<text text-anchor="middle" x="588" y="-287.5" font-family="Helvetica,sans-Serif" font-size="10.00">fmt/core.h</text>
</a>
</g>
</g>
<!-- Node1&#45;&gt;Node15 -->
<g id="edge17" class="edge">
<title>Node1&#45;&gt;Node15</title>
<path fill="none" stroke="midnightblue" d="M495.68,-336.4C515.52,-326.64 541.76,-313.74 561.19,-304.18"/>
<polygon fill="midnightblue" stroke="midnightblue" points="562.96,-307.21 570.39,-299.66 559.88,-300.93 562.96,-307.21"/>
</g>
<!-- Node16 -->
<g id="node16" class="node">
<title>Node16</title>
<g id="a_node16"><a xlink:title=" ">
<polygon fill="none" stroke="#bfbfbf" points="640,-280.5 640,-299.5 688,-299.5 688,-280.5 640,-280.5"/>
<text text-anchor="middle" x="664" y="-287.5" font-family="Helvetica,sans-Serif" font-size="10.00">gsl/gsl</text>
</a>
</g>
</g>
<!-- Node1&#45;&gt;Node16 -->
<g id="edge18" class="edge">
<title>Node1&#45;&gt;Node16</title>
<path fill="none" stroke="midnightblue" d="M513.69,-336.4C549.42,-325.61 597.86,-310.98 629.98,-301.27"/>
<polygon fill="midnightblue" stroke="midnightblue" points="631.24,-304.55 639.8,-298.31 629.22,-297.85 631.24,-304.55"/>
</g>
<!-- Node17 -->
<g id="node17" class="node">
<title>Node17</title>
<g id="a_node17"><a xlink:href="abcgException_8hpp.html" target="_top" xlink:title="Header file of abcg::Exception and derived classes.">
<polygon fill="none" stroke="black" points="706.5,-280.5 706.5,-299.5 815.5,-299.5 815.5,-280.5 706.5,-280.5"/>
<text text-anchor="middle" x="761" y="-287.5" font-family="Helvetica,sans-Serif" font-size="10.00">abcgException.hpp</text>
</a>
</g>
</g>
<!-- Node1&#45;&gt;Node17 -->
<g id="edge19" class="edge">
<title>Node1&#45;&gt;Node17</title>
<path fill="none" stroke="midnightblue" d="M536.3,-336.47C589.24,-325.76 661.04,-311.23 709.09,-301.51"/>
<polygon fill="midnightblue" stroke="midnightblue" points="709.86,-304.92 718.97,-299.51 708.47,-298.06 709.86,-304.92"/>
</g>
<!-- Node3 -->
<g id="node3" class="node">
<title>Node3</title>
<g id="a_node3"><a xlink:href="abcgVulkanDevice_8hpp.html" target="_top" xlink:title="Header file of abcg::VulkanDevice.">
<polygon fill="none" stroke="black" points="144.5,-224.5 144.5,-243.5 271.5,-243.5 271.5,-224.5 144.5,-224.5"/>
<text text-anchor="middle" x="208" y="-231.5" font-family="Helvetica,sans-Serif" font-size="10.00">abcgVulkanDevice.hpp</text>
</a>
</g>
</g>
<!-- Node2&#45;&gt;Node3 -->
<g id="edge2" class="edge">
<title>Node2&#45;&gt;Node3</title>
<path fill="none" stroke="midnightblue" d="M217.18,-280.08C215.73,-272.93 213.63,-262.64 211.81,-253.69"/>
<polygon fill="midnightblue" stroke="midnightblue" points="215.21,-252.85 209.78,-243.75 208.35,-254.25 215.21,-252.85"/>
</g>
<!-- Node11 -->
<g id="node11" class="node">
<title>Node11</title>
<g id="a_node11"><a xlink:title=" ">
<polygon fill="none" stroke="#bfbfbf" points="47,-224.5 47,-243.5 121,-243.5 121,-224.5 47,-224.5"/>
<text text-anchor="middle" x="84" y="-231.5" font-family="Helvetica,sans-Serif" font-size="10.00">gsl/pointers</text>
</a>
</g>
</g>
<!-- Node2&#45;&gt;Node11 -->
<g id="edge11" class="edge">
<title>Node2&#45;&gt;Node11</title>
<path fill="none" stroke="midnightblue" d="M197.61,-280.44C175.29,-271.52 140.1,-257.44 114.79,-247.32"/>
<polygon fill="midnightblue" stroke="midnightblue" points="115.88,-243.98 105.29,-243.52 113.28,-250.48 115.88,-243.98"/>
</g>
<!-- Node4 -->
<g id="node4" class="node">
<title>Node4</title>
<g id="a_node4"><a xlink:href="abcgVulkanPhysicalDevice_8hpp.html" target="_top" xlink:title="Header file of abcg::VulkanPhysicalDevice.">
<polygon fill="none" stroke="black" points="57.5,-168.5 57.5,-187.5 224.5,-187.5 224.5,-168.5 57.5,-168.5"/>
<text text-anchor="middle" x="141" y="-175.5" font-family="Helvetica,sans-Serif" font-size="10.00">abcgVulkanPhysicalDevice.hpp</text>
</a>
</g>
</g>
<!-- Node3&#45;&gt;Node4 -->
<g id="edge3" class="edge">
<title>Node3&#45;&gt;Node4</title>
<path fill="none" stroke="midnightblue" d="M197.24,-224.32C187.23,-216.26 172.11,-204.08 160.07,-194.37"/>
<polygon fill="midnightblue" stroke="midnightblue" points="161.94,-191.38 151.96,-187.83 157.55,-196.83 161.94,-191.38"/>
</g>
<!-- Node10 -->
<g id="node10" class="node">
<title>Node10</title>
<g id="a_node10"><a xlink:title=" ">
<polygon fill="none" stroke="#bfbfbf" points="242.5,-168.5 242.5,-187.5 307.5,-187.5 307.5,-168.5 242.5,-168.5"/>
<text text-anchor="middle" x="275" y="-175.5" font-family="Helvetica,sans-Serif" font-size="10.00">functional</text>
</a>
</g>
</g>
<!-- Node3&#45;&gt;Node10 -->
<g id="edge10" class="edge">
<title>Node3&#45;&gt;Node10</title>
<path fill="none" stroke="midnightblue" d="M218.76,-224.32C228.77,-216.26 243.89,-204.08 255.93,-194.37"/>
<polygon fill="midnightblue" stroke="midnightblue" points="258.45,-196.83 264.04,-187.83 254.06,-191.38 258.45,-196.83"/>
</g>
<!-- Node5 -->
<g id="node5" class="node">
<title>Node5</title>
<g id="a_node5"><a xlink:title=" ">
<polygon fill="none" stroke="#bfbfbf" points="0,-112.5 0,-131.5 56,-131.5 56,-112.5 0,-112.5"/>
<text text-anchor="middle" x="28" y="-119.5" font-family="Helvetica,sans-Serif" font-size="10.00">optional</text>
</a>
</g>
</g>
<!-- Node4&#45;&gt;Node5 -->
<g id="edge4" class="edge">
<title>Node4&#45;&gt;Node5</title>
<path fill="none" stroke="midnightblue" d="M123.09,-168.44C104.75,-159.68 75.99,-145.94 54.91,-135.86"/>
<polygon fill="midnightblue" stroke="midnightblue" points="56.35,-132.67 45.82,-131.52 53.33,-138.99 56.35,-132.67"/>
</g>
<!-- Node6 -->
<g id="node6" class="node">
<title>Node6</title>
<g id="a_node6"><a xlink:href="abcgVulkanExternal_8hpp.html" target="_top" xlink:title="Header file for including Vulkan&#45;related dependencies.">
<polygon fill="none" stroke="black" points="121,-56.5 121,-75.5 255,-75.5 255,-56.5 121,-56.5"/>
<text text-anchor="middle" x="188" y="-63.5" font-family="Helvetica,sans-Serif" font-size="10.00">abcgVulkanExternal.hpp</text>
</a>
</g>
</g>
<!-- Node4&#45;&gt;Node6 -->
<g id="edge5" class="edge">
<title>Node4&#45;&gt;Node6</title>
<path fill="none" stroke="midnightblue" d="M169.02,-168.4C186.17,-161.51 206.75,-149.98 217,-132 226.12,-116 214.79,-96.59 203.73,-83.17"/>
<polygon fill="midnightblue" stroke="midnightblue" points="206.32,-80.82 197.06,-75.68 201.09,-85.47 206.32,-80.82"/>
</g>
<!-- Node9 -->
<g id="node9" class="node">
<title>Node9</title>
<g id="a_node9"><a xlink:href="abcgVulkanInstance_8hpp.html" target="_top" xlink:title="Header file of abcg::VulkanInstance.">
<polygon fill="none" stroke="black" points="74,-112.5 74,-131.5 208,-131.5 208,-112.5 74,-112.5"/>
<text text-anchor="middle" x="141" y="-119.5" font-family="Helvetica,sans-Serif" font-size="10.00">abcgVulkanInstance.hpp</text>
</a>
</g>
</g>
<!-- Node4&#45;&gt;Node9 -->
<g id="edge8" class="edge">
<title>Node4&#45;&gt;Node9</title>
<path fill="none" stroke="midnightblue" d="M141,-168.08C141,-161.01 141,-150.86 141,-141.99"/>
<polygon fill="midnightblue" stroke="midnightblue" points="144.5,-141.75 141,-131.75 137.5,-141.75 144.5,-141.75"/>
</g>
<!-- Node7 -->
<g id="node7" class="node">
<title>Node7</title>
<g id="a_node7"><a xlink:title=" ">
<polygon fill="none" stroke="#bfbfbf" points="117.5,-0.5 117.5,-19.5 164.5,-19.5 164.5,-0.5 117.5,-0.5"/>
<text text-anchor="middle" x="141" y="-7.5" font-family="Helvetica,sans-Serif" font-size="10.00">volk.h</text>
</a>
</g>
</g>
<!-- Node6&#45;&gt;Node7 -->
<g id="edge6" class="edge">
<title>Node6&#45;&gt;Node7</title>
<path fill="none" stroke="midnightblue" d="M180.24,-56.08C173.46,-48.3 163.46,-36.8 155.24,-27.37"/>
<polygon fill="midnightblue" stroke="midnightblue" points="157.82,-25 148.62,-19.75 152.54,-29.59 157.82,-25"/>
</g>
<!-- Node8 -->
<g id="node8" class="node">
<title>Node8</title>
<g id="a_node8"><a xlink:title=" ">
<polygon fill="none" stroke="#bfbfbf" points="182.5,-0.5 182.5,-19.5 287.5,-19.5 287.5,-0.5 182.5,-0.5"/>
<text text-anchor="middle" x="235" y="-7.5" font-family="Helvetica,sans-Serif" font-size="10.00">vulkan/vulkan.hpp</text>
</a>
</g>
</g>
<!-- Node6&#45;&gt;Node8 -->
<g id="edge7" class="edge">
<title>Node6&#45;&gt;Node8</title>
<path fill="none" stroke="midnightblue" d="M195.76,-56.08C202.54,-48.3 212.54,-36.8 220.76,-27.37"/>
<polygon fill="midnightblue" stroke="midnightblue" points="223.46,-29.59 227.38,-19.75 218.18,-25 223.46,-29.59"/>
</g>
<!-- Node9&#45;&gt;Node6 -->
<g id="edge9" class="edge">
<title>Node9&#45;&gt;Node6</title>
<path fill="none" stroke="midnightblue" d="M148.76,-112.08C155.54,-104.3 165.54,-92.8 173.76,-83.37"/>
<polygon fill="midnightblue" stroke="midnightblue" points="176.46,-85.59 180.38,-75.75 171.18,-81 176.46,-85.59"/>
</g>
<!-- Node12&#45;&gt;Node3 -->
<g id="edge13" class="edge">
<title>Node12&#45;&gt;Node3</title>
<path fill="none" stroke="midnightblue" d="M98.6,-280.44C119.99,-271.56 153.68,-257.56 178.02,-247.45"/>
<polygon fill="midnightblue" stroke="midnightblue" points="179.61,-250.58 187.5,-243.52 176.92,-244.12 179.61,-250.58"/>
</g>
<!-- Node12&#45;&gt;Node11 -->
<g id="edge14" class="edge">
<title>Node12&#45;&gt;Node11</title>
<path fill="none" stroke="midnightblue" d="M78.99,-280.08C79.79,-272.93 80.93,-262.64 81.92,-253.69"/>
<polygon fill="midnightblue" stroke="midnightblue" points="85.4,-254.08 83.03,-243.75 78.44,-253.3 85.4,-254.08"/>
</g>
<!-- Node18 -->
<g id="node18" class="node">
<title>Node18</title>
<g id="a_node18"><a xlink:title=" ">
<polygon fill="none" stroke="#bfbfbf" points="617.5,-224.5 617.5,-243.5 710.5,-243.5 710.5,-224.5 617.5,-224.5"/>
<text text-anchor="middle" x="664" y="-231.5" font-family="Helvetica,sans-Serif" font-size="10.00">source_location</text>
</a>
</g>
</g>
<!-- Node17&#45;&gt;Node18 -->
<g id="edge20" class="edge">
<title>Node17&#45;&gt;Node18</title>
<path fill="none" stroke="midnightblue" d="M745.42,-280.32C730,-271.74 706.19,-258.49 688.29,-248.52"/>
<polygon fill="midnightblue" stroke="midnightblue" points="689.99,-245.46 679.55,-243.65 686.58,-251.58 689.99,-245.46"/>
</g>
<!-- Node19 -->
<g id="node19" class="node">
<title>Node19</title>
<g id="a_node19"><a xlink:title=" ">
<polygon fill="none" stroke="#bfbfbf" points="728.5,-224.5 728.5,-243.5 793.5,-243.5 793.5,-224.5 728.5,-224.5"/>
<text text-anchor="middle" x="761" y="-231.5" font-family="Helvetica,sans-Serif" font-size="10.00">stdexcept</text>
</a>
</g>
</g>
<!-- Node17&#45;&gt;Node19 -->
<g id="edge21" class="edge">
<title>Node17&#45;&gt;Node19</title>
<path fill="none" stroke="midnightblue" d="M761,-280.08C761,-273.01 761,-262.86 761,-253.99"/>
<polygon fill="midnightblue" stroke="midnightblue" points="764.5,-253.75 761,-243.75 757.5,-253.75 764.5,-253.75"/>
</g>
<!-- Node20 -->
<g id="node20" class="node">
<title>Node20</title>
<g id="a_node20"><a xlink:title=" ">
<polygon fill="none" stroke="#bfbfbf" points="812,-224.5 812,-243.5 856,-243.5 856,-224.5 812,-224.5"/>
<text text-anchor="middle" x="834" y="-231.5" font-family="Helvetica,sans-Serif" font-size="10.00">string</text>
</a>
</g>
</g>
<!-- Node17&#45;&gt;Node20 -->
<g id="edge22" class="edge">
<title>Node17&#45;&gt;Node20</title>
<path fill="none" stroke="midnightblue" d="M772.73,-280.32C783.84,-272.11 800.74,-259.6 813.98,-249.81"/>
<polygon fill="midnightblue" stroke="midnightblue" points="816.1,-252.59 822.06,-243.83 811.94,-246.97 816.1,-252.59"/>
</g>
</g>
</svg>
