<?xml version="1.0" encoding="UTF-8" standalone="no"?>
<!DOCTYPE svg PUBLIC "-//W3C//DTD SVG 1.1//EN"
 "http://www.w3.org/Graphics/SVG/1.1/DTD/svg11.dtd">
<!-- Generated by graphviz version 2.43.0 (0)
 -->
<!-- Title: /home/harlen/dev/abcg/abcg/abcgImage.cpp Pages: 1 -->
<svg width="626pt" height="151pt"
 viewBox="0.00 0.00 625.50 151.00" xmlns="http://www.w3.org/2000/svg" xmlns:xlink="http://www.w3.org/1999/xlink">
<g id="graph0" class="graph" transform="scale(1 1) rotate(0) translate(4 147)">
<title>/home/harlen/dev/abcg/abcg/abcgImage.cpp</title>
<!-- Node1 -->
<g id="node1" class="node">
<title>Node1</title>
<g id="a_node1"><a xlink:title="Definition of texture loading helper functions.">
<polygon fill="#bfbfbf" stroke="black" points="334,-112.5 334,-142.5 462,-142.5 462,-112.5 334,-112.5"/>
<text text-anchor="start" x="342" y="-130.5" font-family="Helvetica,sans-Serif" font-size="10.00">/home/harlen/dev/abcg</text>
<text text-anchor="middle" x="398" y="-119.5" font-family="Helvetica,sans-Serif" font-size="10.00">/abcg/abcgImage.cpp</text>
</a>
</g>
</g>
<!-- Node2 -->
<g id="node2" class="node">
<title>Node2</title>
<g id="a_node2"><a xlink:href="abcgImage_8hpp.html" target="_top" xlink:title="Declaration of texture loading helper functions.">
<polygon fill="none" stroke="black" points="41,-56.5 41,-75.5 133,-75.5 133,-56.5 41,-56.5"/>
<text text-anchor="middle" x="87" y="-63.5" font-family="Helvetica,sans-Serif" font-size="10.00">abcgImage.hpp</text>
</a>
</g>
</g>
<!-- Node1&#45;&gt;Node2 -->
<g id="edge1" class="edge">
<title>Node1&#45;&gt;Node2</title>
<path fill="none" stroke="midnightblue" d="M333.94,-114.24C277.31,-103.41 195.59,-87.77 141.9,-77.5"/>
<polygon fill="midnightblue" stroke="midnightblue" points="142.36,-74.03 131.88,-75.59 141.04,-80.9 142.36,-74.03"/>
</g>
<!-- Node5 -->
<g id="node5" class="node">
<title>Node5</title>
<g id="a_node5"><a xlink:title=" ">
<polygon fill="none" stroke="#bfbfbf" points="151.5,-56.5 151.5,-75.5 198.5,-75.5 198.5,-56.5 151.5,-56.5"/>
<text text-anchor="middle" x="175" y="-63.5" font-family="Helvetica,sans-Serif" font-size="10.00">cmath</text>
</a>
</g>
</g>
<!-- Node1&#45;&gt;Node5 -->
<g id="edge4" class="edge">
<title>Node1&#45;&gt;Node5</title>
<path fill="none" stroke="midnightblue" d="M344.74,-112.44C308.87,-102.95 260.24,-90.04 208.49,-76.12"/>
<polygon fill="midnightblue" stroke="midnightblue" points="209.35,-72.73 198.79,-73.51 207.53,-79.49 209.35,-72.73"/>
</g>
<!-- Node6 -->
<g id="node6" class="node">
<title>Node6</title>
<g id="a_node6"><a xlink:title=" ">
<polygon fill="none" stroke="#bfbfbf" points="216.5,-56.5 216.5,-75.5 355.5,-75.5 355.5,-56.5 216.5,-56.5"/>
<text text-anchor="middle" x="286" y="-63.5" font-family="Helvetica,sans-Serif" font-size="10.00">cppitertools/itertools.hpp</text>
</a>
</g>
</g>
<!-- Node1&#45;&gt;Node6 -->
<g id="edge5" class="edge">
<title>Node1&#45;&gt;Node6</title>
<path fill="none" stroke="midnightblue" d="M371.46,-112.4C353.34,-102.77 329.46,-90.09 311.56,-80.58"/>
<polygon fill="midnightblue" stroke="midnightblue" points="312.77,-77.26 302.3,-75.66 309.49,-83.44 312.77,-77.26"/>
</g>
<!-- Node7 -->
<g id="node7" class="node">
<title>Node7</title>
<g id="a_node7"><a xlink:title=" ">
<polygon fill="none" stroke="#bfbfbf" points="374,-56.5 374,-75.5 422,-75.5 422,-56.5 374,-56.5"/>
<text text-anchor="middle" x="398" y="-63.5" font-family="Helvetica,sans-Serif" font-size="10.00">gsl/gsl</text>
</a>
</g>
</g>
<!-- Node1&#45;&gt;Node7 -->
<g id="edge6" class="edge">
<title>Node1&#45;&gt;Node7</title>
<path fill="none" stroke="midnightblue" d="M398,-112.4C398,-104.47 398,-94.46 398,-85.86"/>
<polygon fill="midnightblue" stroke="midnightblue" points="401.5,-85.66 398,-75.66 394.5,-85.66 401.5,-85.66"/>
</g>
<!-- Node8 -->
<g id="node8" class="node">
<title>Node8</title>
<g id="a_node8"><a xlink:title=" ">
<polygon fill="none" stroke="#bfbfbf" points="440.5,-56.5 440.5,-75.5 493.5,-75.5 493.5,-56.5 440.5,-56.5"/>
<text text-anchor="middle" x="467" y="-63.5" font-family="Helvetica,sans-Serif" font-size="10.00">iterator</text>
</a>
</g>
</g>
<!-- Node1&#45;&gt;Node8 -->
<g id="edge7" class="edge">
<title>Node1&#45;&gt;Node8</title>
<path fill="none" stroke="midnightblue" d="M414.35,-112.4C424.9,-103.31 438.6,-91.49 449.38,-82.19"/>
<polygon fill="midnightblue" stroke="midnightblue" points="451.67,-84.84 456.96,-75.66 447.1,-79.54 451.67,-84.84"/>
</g>
<!-- Node9 -->
<g id="node9" class="node">
<title>Node9</title>
<g id="a_node9"><a xlink:title=" ">
<polygon fill="none" stroke="#bfbfbf" points="512,-56.5 512,-75.5 552,-75.5 552,-56.5 512,-56.5"/>
<text text-anchor="middle" x="532" y="-63.5" font-family="Helvetica,sans-Serif" font-size="10.00">span</text>
</a>
</g>
</g>
<!-- Node1&#45;&gt;Node9 -->
<g id="edge8" class="edge">
<title>Node1&#45;&gt;Node9</title>
<path fill="none" stroke="midnightblue" d="M429.76,-112.4C452.04,-102.51 481.59,-89.38 503.19,-79.79"/>
<polygon fill="midnightblue" stroke="midnightblue" points="504.78,-82.91 512.5,-75.66 501.94,-76.52 504.78,-82.91"/>
</g>
<!-- Node10 -->
<g id="node10" class="node">
<title>Node10</title>
<g id="a_node10"><a xlink:title=" ">
<polygon fill="none" stroke="#bfbfbf" points="570.5,-56.5 570.5,-75.5 617.5,-75.5 617.5,-56.5 570.5,-56.5"/>
<text text-anchor="middle" x="594" y="-63.5" font-family="Helvetica,sans-Serif" font-size="10.00">vector</text>
</a>
</g>
</g>
<!-- Node1&#45;&gt;Node10 -->
<g id="edge9" class="edge">
<title>Node1&#45;&gt;Node10</title>
<path fill="none" stroke="midnightblue" d="M444.45,-112.4C480.2,-101.55 528.75,-86.81 560.7,-77.11"/>
<polygon fill="midnightblue" stroke="midnightblue" points="561.91,-80.4 570.46,-74.15 559.87,-73.7 561.91,-80.4"/>
</g>
<!-- Node3 -->
<g id="node3" class="node">
<title>Node3</title>
<g id="a_node3"><a xlink:title=" ">
<polygon fill="none" stroke="#bfbfbf" points="0,-0.5 0,-19.5 80,-19.5 80,-0.5 0,-0.5"/>
<text text-anchor="middle" x="40" y="-7.5" font-family="Helvetica,sans-Serif" font-size="10.00">SDL_image.h</text>
</a>
</g>
</g>
<!-- Node2&#45;&gt;Node3 -->
<g id="edge2" class="edge">
<title>Node2&#45;&gt;Node3</title>
<path fill="none" stroke="midnightblue" d="M79.24,-56.08C72.46,-48.3 62.46,-36.8 54.24,-27.37"/>
<polygon fill="midnightblue" stroke="midnightblue" points="56.82,-25 47.62,-19.75 51.54,-29.59 56.82,-25"/>
</g>
<!-- Node4 -->
<g id="node4" class="node">
<title>Node4</title>
<g id="a_node4"><a xlink:title=" ">
<polygon fill="none" stroke="#bfbfbf" points="98,-0.5 98,-19.5 172,-19.5 172,-0.5 98,-0.5"/>
<text text-anchor="middle" x="135" y="-7.5" font-family="Helvetica,sans-Serif" font-size="10.00">gsl/pointers</text>
</a>
</g>
</g>
<!-- Node2&#45;&gt;Node4 -->
<g id="edge3" class="edge">
<title>Node2&#45;&gt;Node4</title>
<path fill="none" stroke="midnightblue" d="M94.93,-56.08C101.85,-48.3 112.07,-36.8 120.45,-27.37"/>
<polygon fill="midnightblue" stroke="midnightblue" points="123.19,-29.55 127.22,-19.75 117.96,-24.9 123.19,-29.55"/>
</g>
</g>
</svg>
