<?xml version="1.0" encoding="UTF-8" standalone="no"?>
<!DOCTYPE svg PUBLIC "-//W3C//DTD SVG 1.1//EN"
 "http://www.w3.org/Graphics/SVG/1.1/DTD/svg11.dtd">
<!-- Generated by graphviz version 2.43.0 (0)
 -->
<!-- Title: /home/harlen/dev/abcg/abcg/abcgException.hpp Pages: 1 -->
<svg width="2466pt" height="240pt"
 viewBox="0.00 0.00 2466.00 240.00" xmlns="http://www.w3.org/2000/svg" xmlns:xlink="http://www.w3.org/1999/xlink">
<g id="graph0" class="graph" transform="scale(1 1) rotate(0) translate(4 236)">
<title>/home/harlen/dev/abcg/abcg/abcgException.hpp</title>
<!-- Node1 -->
<g id="node1" class="node">
<title>Node1</title>
<g id="a_node1"><a xlink:title="Header file of abcg::Exception and derived classes.">
<polygon fill="#bfbfbf" stroke="black" points="1186,-201.5 1186,-231.5 1324,-231.5 1324,-201.5 1186,-201.5"/>
<text text-anchor="start" x="1194" y="-219.5" font-family="Helvetica,sans-Serif" font-size="10.00">/home/harlen/dev/abcg</text>
<text text-anchor="middle" x="1255" y="-208.5" font-family="Helvetica,sans-Serif" font-size="10.00">/abcg/abcgException.hpp</text>
</a>
</g>
</g>
<!-- Node2 -->
<g id="node2" class="node">
<title>Node2</title>
<g id="a_node2"><a xlink:href="abcg_8hpp.html" target="_top" xlink:title="Shortcut header that includes the most common ABCg headers.">
<polygon fill="none" stroke="black" points="146,-134.5 146,-164.5 274,-164.5 274,-134.5 146,-134.5"/>
<text text-anchor="start" x="154" y="-152.5" font-family="Helvetica,sans-Serif" font-size="10.00">/home/harlen/dev/abcg</text>
<text text-anchor="middle" x="210" y="-141.5" font-family="Helvetica,sans-Serif" font-size="10.00">/abcg/abcg.hpp</text>
</a>
</g>
</g>
<!-- Node1&#45;&gt;Node2 -->
<g id="edge1" class="edge">
<title>Node1&#45;&gt;Node2</title>
<path fill="none" stroke="midnightblue" d="M1175.76,-214.89C1010.26,-212.83 616.06,-203.89 288,-165 283.49,-164.46 278.84,-163.83 274.17,-163.12"/>
<polygon fill="midnightblue" stroke="midnightblue" points="1175.81,-218.39 1185.85,-215.01 1175.89,-211.39 1175.81,-218.39"/>
</g>
<!-- Node5 -->
<g id="node5" class="node">
<title>Node5</title>
<g id="a_node5"><a xlink:href="abcgVulkanInstance_8cpp.html" target="_top" xlink:title="Definition of abcg::VulkanInstance.">
<polygon fill="none" stroke="black" points="174.5,-0.5 174.5,-30.5 337.5,-30.5 337.5,-0.5 174.5,-0.5"/>
<text text-anchor="start" x="182.5" y="-18.5" font-family="Helvetica,sans-Serif" font-size="10.00">/home/harlen/dev/abcg</text>
<text text-anchor="middle" x="256" y="-7.5" font-family="Helvetica,sans-Serif" font-size="10.00">/abcg/abcgVulkanInstance.cpp</text>
</a>
</g>
</g>
<!-- Node1&#45;&gt;Node5 -->
<g id="edge18" class="edge">
<title>Node1&#45;&gt;Node5</title>
<path fill="none" stroke="midnightblue" d="M1175.54,-216.07C962.37,-216.92 389.31,-214.54 321,-165 283.18,-137.57 302.49,-109.45 283,-67 277.28,-54.53 269.88,-40.83 264.27,-30.85"/>
<polygon fill="midnightblue" stroke="midnightblue" points="1175.74,-219.57 1185.72,-216.03 1175.71,-212.57 1175.74,-219.57"/>
</g>
<!-- Node6 -->
<g id="node6" class="node">
<title>Node6</title>
<g id="a_node6"><a xlink:href="abcgApplication_8cpp.html" target="_top" xlink:title="Definition of abcg::Application members.">
<polygon fill="none" stroke="black" points="330,-134.5 330,-164.5 474,-164.5 474,-134.5 330,-134.5"/>
<text text-anchor="start" x="338" y="-152.5" font-family="Helvetica,sans-Serif" font-size="10.00">/home/harlen/dev/abcg</text>
<text text-anchor="middle" x="402" y="-141.5" font-family="Helvetica,sans-Serif" font-size="10.00">/abcg/abcgApplication.cpp</text>
</a>
</g>
</g>
<!-- Node1&#45;&gt;Node6 -->
<g id="edge5" class="edge">
<title>Node1&#45;&gt;Node6</title>
<path fill="none" stroke="midnightblue" d="M1175.59,-213.23C1035.36,-208.58 734.85,-195.68 483,-165 480.16,-164.65 477.28,-164.27 474.36,-163.87"/>
<polygon fill="midnightblue" stroke="midnightblue" points="1175.71,-216.74 1185.82,-213.57 1175.94,-209.74 1175.71,-216.74"/>
</g>
<!-- Node7 -->
<g id="node7" class="node">
<title>Node7</title>
<g id="a_node7"><a xlink:href="abcgException_8cpp.html" target="_top" xlink:title="Definition of abcg::Exception members.">
<polygon fill="none" stroke="black" points="492.5,-134.5 492.5,-164.5 629.5,-164.5 629.5,-134.5 492.5,-134.5"/>
<text text-anchor="start" x="500.5" y="-152.5" font-family="Helvetica,sans-Serif" font-size="10.00">/home/harlen/dev/abcg</text>
<text text-anchor="middle" x="561" y="-141.5" font-family="Helvetica,sans-Serif" font-size="10.00">/abcg/abcgException.cpp</text>
</a>
</g>
</g>
<!-- Node1&#45;&gt;Node7 -->
<g id="edge6" class="edge">
<title>Node1&#45;&gt;Node7</title>
<path fill="none" stroke="midnightblue" d="M1175.8,-211.67C1058.11,-205.38 830.25,-190.9 638,-165 635.3,-164.64 632.56,-164.24 629.79,-163.82"/>
<polygon fill="midnightblue" stroke="midnightblue" points="1175.64,-215.17 1185.81,-212.2 1176.01,-208.18 1175.64,-215.17"/>
</g>
<!-- Node8 -->
<g id="node8" class="node">
<title>Node8</title>
<g id="a_node8"><a xlink:href="abcgOpenGLError_8hpp.html" target="_top" xlink:title="Header file of abcg::OpenGLError and derived classes.">
<polygon fill="none" stroke="black" points="647.5,-134.5 647.5,-164.5 798.5,-164.5 798.5,-134.5 647.5,-134.5"/>
<text text-anchor="start" x="655.5" y="-152.5" font-family="Helvetica,sans-Serif" font-size="10.00">/home/harlen/dev/abcg</text>
<text text-anchor="middle" x="723" y="-141.5" font-family="Helvetica,sans-Serif" font-size="10.00">/abcg/abcgOpenGLError.hpp</text>
</a>
</g>
</g>
<!-- Node1&#45;&gt;Node8 -->
<g id="edge7" class="edge">
<title>Node1&#45;&gt;Node8</title>
<path fill="none" stroke="midnightblue" d="M1175.86,-207.92C1086.38,-199.04 936.44,-183.2 808,-165 804.89,-164.56 801.71,-164.09 798.51,-163.61"/>
<polygon fill="midnightblue" stroke="midnightblue" points="1175.63,-211.42 1185.93,-208.92 1176.32,-204.45 1175.63,-211.42"/>
</g>
<!-- Node11 -->
<g id="node11" class="node">
<title>Node11</title>
<g id="a_node11"><a xlink:href="abcgOpenGLImage_8cpp.html" target="_top" xlink:title="Definition of OpenGL texture loading helper functions.">
<polygon fill="none" stroke="black" points="817,-134.5 817,-164.5 975,-164.5 975,-134.5 817,-134.5"/>
<text text-anchor="start" x="825" y="-152.5" font-family="Helvetica,sans-Serif" font-size="10.00">/home/harlen/dev/abcg</text>
<text text-anchor="middle" x="896" y="-141.5" font-family="Helvetica,sans-Serif" font-size="10.00">/abcg/abcgOpenGLImage.cpp</text>
</a>
</g>
</g>
<!-- Node1&#45;&gt;Node11 -->
<g id="edge10" class="edge">
<title>Node1&#45;&gt;Node11</title>
<path fill="none" stroke="midnightblue" d="M1175.94,-201.18C1115.71,-190.28 1033.23,-175.35 973.41,-164.52"/>
<polygon fill="midnightblue" stroke="midnightblue" points="1175.32,-204.63 1185.78,-202.97 1176.56,-197.74 1175.32,-204.63"/>
</g>
<!-- Node12 -->
<g id="node12" class="node">
<title>Node12</title>
<g id="a_node12"><a xlink:href="abcgOpenGLShader_8cpp.html" target="_top" xlink:title="Definition of helper functions for building OpenGL shaders.">
<polygon fill="none" stroke="black" points="993.5,-134.5 993.5,-164.5 1154.5,-164.5 1154.5,-134.5 993.5,-134.5"/>
<text text-anchor="start" x="1001.5" y="-152.5" font-family="Helvetica,sans-Serif" font-size="10.00">/home/harlen/dev/abcg</text>
<text text-anchor="middle" x="1074" y="-141.5" font-family="Helvetica,sans-Serif" font-size="10.00">/abcg/abcgOpenGLShader.cpp</text>
</a>
</g>
</g>
<!-- Node1&#45;&gt;Node12 -->
<g id="edge11" class="edge">
<title>Node1&#45;&gt;Node12</title>
<path fill="none" stroke="midnightblue" d="M1206.14,-197.96C1176.99,-187.48 1140.46,-174.37 1113.2,-164.58"/>
<polygon fill="midnightblue" stroke="midnightblue" points="1205.13,-201.31 1215.73,-201.4 1207.5,-194.72 1205.13,-201.31"/>
</g>
<!-- Node13 -->
<g id="node13" class="node">
<title>Node13</title>
<g id="a_node13"><a xlink:href="abcgOpenGLWindow_8cpp.html" target="_top" xlink:title="Definition of abcg::OpenGLWindow members.">
<polygon fill="none" stroke="black" points="1172.5,-134.5 1172.5,-164.5 1337.5,-164.5 1337.5,-134.5 1172.5,-134.5"/>
<text text-anchor="start" x="1180.5" y="-152.5" font-family="Helvetica,sans-Serif" font-size="10.00">/home/harlen/dev/abcg</text>
<text text-anchor="middle" x="1255" y="-141.5" font-family="Helvetica,sans-Serif" font-size="10.00">/abcg/abcgOpenGLWindow.cpp</text>
</a>
</g>
</g>
<!-- Node1&#45;&gt;Node13 -->
<g id="edge12" class="edge">
<title>Node1&#45;&gt;Node13</title>
<path fill="none" stroke="midnightblue" d="M1255,-191.11C1255,-182.15 1255,-172.32 1255,-164.58"/>
<polygon fill="midnightblue" stroke="midnightblue" points="1251.5,-191.4 1255,-201.4 1258.5,-191.4 1251.5,-191.4"/>
</g>
<!-- Node14 -->
<g id="node14" class="node">
<title>Node14</title>
<g id="a_node14"><a xlink:href="abcgVulkanBuffer_8cpp.html" target="_top" xlink:title="Definition of abcg::VulkanBuffer.">
<polygon fill="none" stroke="black" points="1356,-134.5 1356,-164.5 1506,-164.5 1506,-134.5 1356,-134.5"/>
<text text-anchor="start" x="1364" y="-152.5" font-family="Helvetica,sans-Serif" font-size="10.00">/home/harlen/dev/abcg</text>
<text text-anchor="middle" x="1431" y="-141.5" font-family="Helvetica,sans-Serif" font-size="10.00">/abcg/abcgVulkanBuffer.cpp</text>
</a>
</g>
</g>
<!-- Node1&#45;&gt;Node14 -->
<g id="edge13" class="edge">
<title>Node1&#45;&gt;Node14</title>
<path fill="none" stroke="midnightblue" d="M1302.88,-197.82C1331.17,-187.37 1366.49,-174.32 1392.89,-164.58"/>
<polygon fill="midnightblue" stroke="midnightblue" points="1301.36,-194.65 1293.19,-201.4 1303.78,-201.21 1301.36,-194.65"/>
</g>
<!-- Node15 -->
<g id="node15" class="node">
<title>Node15</title>
<g id="a_node15"><a xlink:href="abcgVulkanError_8hpp.html" target="_top" xlink:title="Header file of abcg::VulkanError and derived classes.">
<polygon fill="none" stroke="black" points="1524.5,-134.5 1524.5,-164.5 1669.5,-164.5 1669.5,-134.5 1524.5,-134.5"/>
<text text-anchor="start" x="1532.5" y="-152.5" font-family="Helvetica,sans-Serif" font-size="10.00">/home/harlen/dev/abcg</text>
<text text-anchor="middle" x="1597" y="-141.5" font-family="Helvetica,sans-Serif" font-size="10.00">/abcg/abcgVulkanError.hpp</text>
</a>
</g>
</g>
<!-- Node1&#45;&gt;Node15 -->
<g id="edge14" class="edge">
<title>Node1&#45;&gt;Node15</title>
<path fill="none" stroke="midnightblue" d="M1334.32,-200.42C1391.68,-189.52 1468.59,-174.91 1524.35,-164.31"/>
<polygon fill="midnightblue" stroke="midnightblue" points="1333.38,-197.04 1324.21,-202.35 1334.69,-203.92 1333.38,-197.04"/>
</g>
<!-- Node17 -->
<g id="node17" class="node">
<title>Node17</title>
<g id="a_node17"><a xlink:href="abcgVulkanWindow_8cpp.html" target="_top" xlink:title="Definition of abcg::VulkanWindow members.">
<polygon fill="none" stroke="black" points="1618,-67.5 1618,-97.5 1778,-97.5 1778,-67.5 1618,-67.5"/>
<text text-anchor="start" x="1626" y="-85.5" font-family="Helvetica,sans-Serif" font-size="10.00">/home/harlen/dev/abcg</text>
<text text-anchor="middle" x="1698" y="-74.5" font-family="Helvetica,sans-Serif" font-size="10.00">/abcg/abcgVulkanWindow.cpp</text>
</a>
</g>
</g>
<!-- Node1&#45;&gt;Node17 -->
<g id="edge22" class="edge">
<title>Node1&#45;&gt;Node17</title>
<path fill="none" stroke="midnightblue" d="M1334.25,-216.45C1442.43,-216.04 1628.57,-208.75 1678,-165 1697.09,-148.1 1699.43,-116.22 1698.99,-97.74"/>
<polygon fill="midnightblue" stroke="midnightblue" points="1334.03,-212.95 1324.03,-216.46 1334.04,-219.95 1334.03,-212.95"/>
</g>
<!-- Node18 -->
<g id="node18" class="node">
<title>Node18</title>
<g id="a_node18"><a xlink:href="abcgVulkanImage_8cpp.html" target="_top" xlink:title="Definition of abcg::VulkanImage.">
<polygon fill="none" stroke="black" points="1726,-134.5 1726,-164.5 1878,-164.5 1878,-134.5 1726,-134.5"/>
<text text-anchor="start" x="1734" y="-152.5" font-family="Helvetica,sans-Serif" font-size="10.00">/home/harlen/dev/abcg</text>
<text text-anchor="middle" x="1802" y="-141.5" font-family="Helvetica,sans-Serif" font-size="10.00">/abcg/abcgVulkanImage.cpp</text>
</a>
</g>
</g>
<!-- Node1&#45;&gt;Node18 -->
<g id="edge17" class="edge">
<title>Node1&#45;&gt;Node18</title>
<path fill="none" stroke="midnightblue" d="M1334.03,-207.97C1425.25,-199 1579.72,-182.95 1712,-165 1716.55,-164.38 1721.22,-163.72 1725.93,-163.03"/>
<polygon fill="midnightblue" stroke="midnightblue" points="1333.65,-204.49 1324.04,-208.95 1334.33,-211.46 1333.65,-204.49"/>
</g>
<!-- Node19 -->
<g id="node19" class="node">
<title>Node19</title>
<g id="a_node19"><a xlink:href="abcgVulkanPhysicalDevice_8cpp.html" target="_top" xlink:title="Definition of abcg::VulkanPhysicalDevice.">
<polygon fill="none" stroke="black" points="1896,-134.5 1896,-164.5 2092,-164.5 2092,-134.5 1896,-134.5"/>
<text text-anchor="start" x="1904" y="-152.5" font-family="Helvetica,sans-Serif" font-size="10.00">/home/harlen/dev/abcg</text>
<text text-anchor="middle" x="1994" y="-141.5" font-family="Helvetica,sans-Serif" font-size="10.00">/abcg/abcgVulkanPhysicalDevice.cpp</text>
</a>
</g>
</g>
<!-- Node1&#45;&gt;Node19 -->
<g id="edge19" class="edge">
<title>Node1&#45;&gt;Node19</title>
<path fill="none" stroke="midnightblue" d="M1334.51,-210.55C1454.44,-202.78 1688.67,-186.35 1887,-165 1889.89,-164.69 1892.82,-164.36 1895.78,-164.02"/>
<polygon fill="midnightblue" stroke="midnightblue" points="1334.07,-207.07 1324.32,-211.21 1334.53,-214.06 1334.07,-207.07"/>
</g>
<!-- Node20 -->
<g id="node20" class="node">
<title>Node20</title>
<g id="a_node20"><a xlink:href="abcgVulkanShader_8cpp.html" target="_top" xlink:title="Definition of helper functions for creating Vulkan shaders.">
<polygon fill="none" stroke="black" points="2110.5,-134.5 2110.5,-164.5 2265.5,-164.5 2265.5,-134.5 2110.5,-134.5"/>
<text text-anchor="start" x="2118.5" y="-152.5" font-family="Helvetica,sans-Serif" font-size="10.00">/home/harlen/dev/abcg</text>
<text text-anchor="middle" x="2188" y="-141.5" font-family="Helvetica,sans-Serif" font-size="10.00">/abcg/abcgVulkanShader.cpp</text>
</a>
</g>
</g>
<!-- Node1&#45;&gt;Node20 -->
<g id="edge20" class="edge">
<title>Node1&#45;&gt;Node20</title>
<path fill="none" stroke="midnightblue" d="M1334.06,-213.56C1484.04,-209.27 1819.98,-196.72 2101,-165 2104.04,-164.66 2107.14,-164.28 2110.27,-163.87"/>
<polygon fill="midnightblue" stroke="midnightblue" points="1333.92,-210.07 1324.02,-213.85 1334.12,-217.06 1333.92,-210.07"/>
</g>
<!-- Node21 -->
<g id="node21" class="node">
<title>Node21</title>
<g id="a_node21"><a xlink:href="abcgVulkanSwapchain_8cpp.html" target="_top" xlink:title="Definition of abcg::VulkanSwapchain.">
<polygon fill="none" stroke="black" points="2284,-134.5 2284,-164.5 2458,-164.5 2458,-134.5 2284,-134.5"/>
<text text-anchor="start" x="2292" y="-152.5" font-family="Helvetica,sans-Serif" font-size="10.00">/home/harlen/dev/abcg</text>
<text text-anchor="middle" x="2371" y="-141.5" font-family="Helvetica,sans-Serif" font-size="10.00">/abcg/abcgVulkanSwapchain.cpp</text>
</a>
</g>
</g>
<!-- Node1&#45;&gt;Node21 -->
<g id="edge21" class="edge">
<title>Node1&#45;&gt;Node21</title>
<path fill="none" stroke="midnightblue" d="M1334.35,-214.28C1506.22,-211.05 1925.55,-199.95 2275,-165 2277.94,-164.71 2280.92,-164.39 2283.93,-164.04"/>
<polygon fill="midnightblue" stroke="midnightblue" points="1334.07,-210.79 1324.13,-214.47 1334.19,-217.79 1334.07,-210.79"/>
</g>
<!-- Node3 -->
<g id="node3" class="node">
<title>Node3</title>
<g id="a_node3"><a xlink:href="abcgOpenGL_8hpp.html" target="_top" xlink:title="Header file for OpenGL&#45;related functions and classes.">
<polygon fill="none" stroke="black" points="0,-67.5 0,-97.5 128,-97.5 128,-67.5 0,-67.5"/>
<text text-anchor="start" x="8" y="-85.5" font-family="Helvetica,sans-Serif" font-size="10.00">/home/harlen/dev/abcg</text>
<text text-anchor="middle" x="64" y="-74.5" font-family="Helvetica,sans-Serif" font-size="10.00">/abcg/abcgOpenGL.hpp</text>
</a>
</g>
</g>
<!-- Node2&#45;&gt;Node3 -->
<g id="edge2" class="edge">
<title>Node2&#45;&gt;Node3</title>
<path fill="none" stroke="midnightblue" d="M169.05,-130.27C145.8,-119.92 117.13,-107.15 95.62,-97.58"/>
<polygon fill="midnightblue" stroke="midnightblue" points="167.76,-133.53 178.32,-134.4 170.61,-127.13 167.76,-133.53"/>
</g>
<!-- Node4 -->
<g id="node4" class="node">
<title>Node4</title>
<g id="a_node4"><a xlink:href="abcgVulkan_8hpp.html" target="_top" xlink:title="Header file for Vulkan&#45;related functions and classes.">
<polygon fill="none" stroke="black" points="146,-67.5 146,-97.5 274,-97.5 274,-67.5 146,-67.5"/>
<text text-anchor="start" x="154" y="-85.5" font-family="Helvetica,sans-Serif" font-size="10.00">/home/harlen/dev/abcg</text>
<text text-anchor="middle" x="210" y="-74.5" font-family="Helvetica,sans-Serif" font-size="10.00">/abcg/abcgVulkan.hpp</text>
</a>
</g>
</g>
<!-- Node2&#45;&gt;Node4 -->
<g id="edge3" class="edge">
<title>Node2&#45;&gt;Node4</title>
<path fill="none" stroke="midnightblue" d="M210,-124.11C210,-115.15 210,-105.32 210,-97.58"/>
<polygon fill="midnightblue" stroke="midnightblue" points="206.5,-124.4 210,-134.4 213.5,-124.4 206.5,-124.4"/>
</g>
<!-- Node4&#45;&gt;Node5 -->
<g id="edge4" class="edge">
<title>Node4&#45;&gt;Node5</title>
<path fill="none" stroke="midnightblue" d="M225.81,-59.16C232.52,-49.68 240.13,-38.92 246.04,-30.58"/>
<polygon fill="midnightblue" stroke="midnightblue" points="222.9,-57.21 219.98,-67.4 228.62,-61.26 222.9,-57.21"/>
</g>
<!-- Node9 -->
<g id="node9" class="node">
<title>Node9</title>
<g id="a_node9"><a xlink:href="abcgOpenGLError_8cpp.html" target="_top" xlink:title="Definition of abcg::OpenGLError members.">
<polygon fill="none" stroke="black" points="560,-67.5 560,-97.5 710,-97.5 710,-67.5 560,-67.5"/>
<text text-anchor="start" x="568" y="-85.5" font-family="Helvetica,sans-Serif" font-size="10.00">/home/harlen/dev/abcg</text>
<text text-anchor="middle" x="635" y="-74.5" font-family="Helvetica,sans-Serif" font-size="10.00">/abcg/abcgOpenGLError.cpp</text>
</a>
</g>
</g>
<!-- Node8&#45;&gt;Node9 -->
<g id="edge8" class="edge">
<title>Node8&#45;&gt;Node9</title>
<path fill="none" stroke="midnightblue" d="M695.86,-128.45C682.32,-118.45 666.27,-106.6 654.06,-97.58"/>
<polygon fill="midnightblue" stroke="midnightblue" points="693.78,-131.27 703.91,-134.4 697.94,-125.64 693.78,-131.27"/>
</g>
<!-- Node10 -->
<g id="node10" class="node">
<title>Node10</title>
<g id="a_node10"><a xlink:href="abcgOpenGLFunction_8cpp.html" target="_top" xlink:title="Definition of OpenGL&#45;related error checking functions.">
<polygon fill="none" stroke="black" points="727.5,-67.5 727.5,-97.5 896.5,-97.5 896.5,-67.5 727.5,-67.5"/>
<text text-anchor="start" x="735.5" y="-85.5" font-family="Helvetica,sans-Serif" font-size="10.00">/home/harlen/dev/abcg</text>
<text text-anchor="middle" x="812" y="-74.5" font-family="Helvetica,sans-Serif" font-size="10.00">/abcg/abcgOpenGLFunction.cpp</text>
</a>
</g>
</g>
<!-- Node8&#45;&gt;Node10 -->
<g id="edge9" class="edge">
<title>Node8&#45;&gt;Node10</title>
<path fill="none" stroke="midnightblue" d="M750.45,-128.45C764.14,-118.45 780.37,-106.6 792.73,-97.58"/>
<polygon fill="midnightblue" stroke="midnightblue" points="748.32,-125.67 742.31,-134.4 752.45,-131.32 748.32,-125.67"/>
</g>
<!-- Node16 -->
<g id="node16" class="node">
<title>Node16</title>
<g id="a_node16"><a xlink:href="abcgVulkanError_8cpp.html" target="_top" xlink:title="Definition of abcg::VulkanError members.">
<polygon fill="none" stroke="black" points="1456,-67.5 1456,-97.5 1600,-97.5 1600,-67.5 1456,-67.5"/>
<text text-anchor="start" x="1464" y="-85.5" font-family="Helvetica,sans-Serif" font-size="10.00">/home/harlen/dev/abcg</text>
<text text-anchor="middle" x="1528" y="-74.5" font-family="Helvetica,sans-Serif" font-size="10.00">/abcg/abcgVulkanError.cpp</text>
</a>
</g>
</g>
<!-- Node15&#45;&gt;Node16 -->
<g id="edge15" class="edge">
<title>Node15&#45;&gt;Node16</title>
<path fill="none" stroke="midnightblue" d="M1574.51,-127.31C1564.16,-117.56 1552.16,-106.26 1542.94,-97.58"/>
<polygon fill="midnightblue" stroke="midnightblue" points="1572.35,-130.09 1582.03,-134.4 1577.15,-124.99 1572.35,-130.09"/>
</g>
<!-- Node15&#45;&gt;Node17 -->
<g id="edge16" class="edge">
<title>Node15&#45;&gt;Node17</title>
<path fill="none" stroke="midnightblue" d="M1627.71,-128.73C1643.34,-118.68 1661.97,-106.68 1676.13,-97.58"/>
<polygon fill="midnightblue" stroke="midnightblue" points="1625.43,-126.04 1618.92,-134.4 1629.22,-131.93 1625.43,-126.04"/>
</g>
</g>
</svg>
