<?xml version="1.0" encoding="UTF-8" standalone="no"?>
<!DOCTYPE svg PUBLIC "-//W3C//DTD SVG 1.1//EN"
 "http://www.w3.org/Graphics/SVG/1.1/DTD/svg11.dtd">
<!-- Generated by graphviz version 2.43.0 (0)
 -->
<!-- Title: /home/harlen/dev/abcg/abcg/abcgVulkanInstance.cpp Pages: 1 -->
<svg width="1419pt" height="533pt"
 viewBox="0.00 0.00 1418.50 533.00" xmlns="http://www.w3.org/2000/svg" xmlns:xlink="http://www.w3.org/1999/xlink">
<g id="graph0" class="graph" transform="scale(1 1) rotate(0) translate(4 529)">
<title>/home/harlen/dev/abcg/abcg/abcgVulkanInstance.cpp</title>
<!-- Node1 -->
<g id="Node000001" class="node">
<title>Node1</title>
<g id="a_Node000001"><a xlink:title="Definition of abcg::VulkanInstance.">
<polygon fill="#999999" stroke="#666666" points="1170.5,-525 1007.5,-525 1007.5,-495 1170.5,-495 1170.5,-525"/>
<text text-anchor="start" x="1015.5" y="-513" font-family="Helvetica,sans-Serif" font-size="10.00">/home/harlen/dev/abcg</text>
<text text-anchor="middle" x="1089" y="-502" font-family="Helvetica,sans-Serif" font-size="10.00">/abcg/abcgVulkanInstance.cpp</text>
</a>
</g>
</g>
<!-- Node2 -->
<g id="Node000002" class="node">
<title>Node2</title>
<g id="a_Node000002"><a xlink:href="abcgVulkanInstance_8hpp.html" target="_top" xlink:title="Header file of abcg::VulkanInstance.">
<polygon fill="white" stroke="#666666" points="134,-129 0,-129 0,-110 134,-110 134,-129"/>
<text text-anchor="middle" x="67" y="-117" font-family="Helvetica,sans-Serif" font-size="10.00">abcgVulkanInstance.hpp</text>
</a>
</g>
</g>
<!-- Node1&#45;&gt;Node2 -->
<g id="edge1_Node000001_Node000002" class="edge">
<title>Node1&#45;&gt;Node2</title>
<g id="a_edge1_Node000001_Node000002"><a xlink:title=" ">
<path fill="none" stroke="#63b8ff" d="M1007.41,-508.87C757.75,-507.38 21,-494.62 21,-395.5 21,-395.5 21,-395.5 21,-228.5 21,-194.04 41.07,-157.98 54.7,-137.47"/>
<polygon fill="#63b8ff" stroke="#63b8ff" points="57.6,-139.42 60.41,-129.2 51.85,-135.44 57.6,-139.42"/>
</a>
</g>
</g>
<!-- Node6 -->
<g id="Node000006" class="node">
<title>Node6</title>
<g id="a_Node000006"><a xlink:title=" ">
<polygon fill="#e0e0e0" stroke="#999999" points="1195,-459 1155,-459 1155,-440 1195,-440 1195,-459"/>
<text text-anchor="middle" x="1175" y="-447" font-family="Helvetica,sans-Serif" font-size="10.00">span</text>
</a>
</g>
</g>
<!-- Node1&#45;&gt;Node6 -->
<g id="edge5_Node000001_Node000006" class="edge">
<title>Node1&#45;&gt;Node6</title>
<g id="a_edge5_Node000001_Node000006"><a xlink:title=" ">
<path fill="none" stroke="#63b8ff" d="M1109.82,-494.84C1123.15,-485.77 1140.39,-474.04 1153.79,-464.92"/>
<polygon fill="#63b8ff" stroke="#63b8ff" points="1156.07,-467.61 1162.37,-459.09 1152.13,-461.83 1156.07,-467.61"/>
</a>
</g>
</g>
<!-- Node7 -->
<g id="Node000007" class="node">
<title>Node7</title>
<g id="a_Node000007"><a xlink:href="abcgApplication_8hpp.html" target="_top" xlink:title="Header file of abcg::Application.">
<polygon fill="white" stroke="#666666" points="1161,-294 1045,-294 1045,-275 1161,-275 1161,-294"/>
<text text-anchor="middle" x="1103" y="-282" font-family="Helvetica,sans-Serif" font-size="10.00">abcgApplication.hpp</text>
</a>
</g>
</g>
<!-- Node1&#45;&gt;Node7 -->
<g id="edge6_Node000001_Node000007" class="edge">
<title>Node1&#45;&gt;Node7</title>
<g id="a_edge6_Node000001_Node000007"><a xlink:title=" ">
<path fill="none" stroke="#63b8ff" d="M1089.9,-494.68C1092.33,-455.76 1099.08,-348.07 1101.82,-304.33"/>
<polygon fill="#63b8ff" stroke="#63b8ff" points="1105.32,-304.43 1102.45,-294.23 1098.33,-303.99 1105.32,-304.43"/>
</a>
</g>
</g>
<!-- Node9 -->
<g id="Node000009" class="node">
<title>Node9</title>
<g id="a_Node000009"><a xlink:href="abcgException_8hpp.html" target="_top" xlink:title="Header file of abcg::Exception and derived classes.">
<polygon fill="white" stroke="#666666" points="1384.5,-294 1275.5,-294 1275.5,-275 1384.5,-275 1384.5,-294"/>
<text text-anchor="middle" x="1330" y="-282" font-family="Helvetica,sans-Serif" font-size="10.00">abcgException.hpp</text>
</a>
</g>
</g>
<!-- Node1&#45;&gt;Node9 -->
<g id="edge8_Node000001_Node000009" class="edge">
<title>Node1&#45;&gt;Node9</title>
<g id="a_edge8_Node000001_Node000009"><a xlink:title=" ">
<path fill="none" stroke="#63b8ff" d="M1099.44,-494.88C1110.38,-480.47 1128.38,-457.76 1146,-440 1201.28,-384.27 1274.72,-326.99 1309.74,-300.55"/>
<polygon fill="#63b8ff" stroke="#63b8ff" points="1312.27,-303.03 1318.17,-294.22 1308.07,-297.43 1312.27,-303.03"/>
</a>
</g>
</g>
<!-- Node12 -->
<g id="Node000012" class="node">
<title>Node12</title>
<g id="a_Node000012"><a xlink:href="abcgVulkan_8hpp.html" target="_top" xlink:title="Header file for Vulkan&#45;related functions and classes.">
<polygon fill="white" stroke="#666666" points="573.5,-459 480.5,-459 480.5,-440 573.5,-440 573.5,-459"/>
<text text-anchor="middle" x="527" y="-447" font-family="Helvetica,sans-Serif" font-size="10.00">abcgVulkan.hpp</text>
</a>
</g>
</g>
<!-- Node1&#45;&gt;Node12 -->
<g id="edge12_Node000001_Node000012" class="edge">
<title>Node1&#45;&gt;Node12</title>
<g id="a_edge12_Node000001_Node000012"><a xlink:title=" ">
<path fill="none" stroke="#63b8ff" d="M1007.28,-500.49C891.87,-488.48 684.08,-466.85 583.96,-456.43"/>
<polygon fill="#63b8ff" stroke="#63b8ff" points="584.06,-452.92 573.75,-455.37 583.33,-459.88 584.06,-452.92"/>
</a>
</g>
</g>
<!-- Node3 -->
<g id="Node000003" class="node">
<title>Node3</title>
<g id="a_Node000003"><a xlink:href="abcgVulkanExternal_8hpp.html" target="_top" xlink:title="Header file for including Vulkan&#45;related dependencies.">
<polygon fill="white" stroke="#666666" points="181,-74 47,-74 47,-55 181,-55 181,-74"/>
<text text-anchor="middle" x="114" y="-62" font-family="Helvetica,sans-Serif" font-size="10.00">abcgVulkanExternal.hpp</text>
</a>
</g>
</g>
<!-- Node2&#45;&gt;Node3 -->
<g id="edge2_Node000002_Node000003" class="edge">
<title>Node2&#45;&gt;Node3</title>
<g id="a_edge2_Node000002_Node000003"><a xlink:title=" ">
<path fill="none" stroke="#63b8ff" d="M74.76,-109.75C81.47,-102.18 91.34,-91.05 99.51,-81.84"/>
<polygon fill="#63b8ff" stroke="#63b8ff" points="102.37,-83.89 106.38,-74.09 97.13,-79.25 102.37,-83.89"/>
</a>
</g>
</g>
<!-- Node4 -->
<g id="Node000004" class="node">
<title>Node4</title>
<g id="a_Node000004"><a xlink:title=" ">
<polygon fill="#e0e0e0" stroke="#999999" points="90.5,-19 43.5,-19 43.5,0 90.5,0 90.5,-19"/>
<text text-anchor="middle" x="67" y="-7" font-family="Helvetica,sans-Serif" font-size="10.00">volk.h</text>
</a>
</g>
</g>
<!-- Node3&#45;&gt;Node4 -->
<g id="edge3_Node000003_Node000004" class="edge">
<title>Node3&#45;&gt;Node4</title>
<g id="a_edge3_Node000003_Node000004"><a xlink:title=" ">
<path fill="none" stroke="#63b8ff" d="M106.24,-54.75C99.53,-47.18 89.66,-36.05 81.49,-26.84"/>
<polygon fill="#63b8ff" stroke="#63b8ff" points="83.87,-24.25 74.62,-19.09 78.63,-28.89 83.87,-24.25"/>
</a>
</g>
</g>
<!-- Node5 -->
<g id="Node000005" class="node">
<title>Node5</title>
<g id="a_Node000005"><a xlink:title=" ">
<polygon fill="#e0e0e0" stroke="#999999" points="213.5,-19 108.5,-19 108.5,0 213.5,0 213.5,-19"/>
<text text-anchor="middle" x="161" y="-7" font-family="Helvetica,sans-Serif" font-size="10.00">vulkan/vulkan.hpp</text>
</a>
</g>
</g>
<!-- Node3&#45;&gt;Node5 -->
<g id="edge4_Node000003_Node000005" class="edge">
<title>Node3&#45;&gt;Node5</title>
<g id="a_edge4_Node000003_Node000005"><a xlink:title=" ">
<path fill="none" stroke="#63b8ff" d="M121.76,-54.75C128.47,-47.18 138.34,-36.05 146.51,-26.84"/>
<polygon fill="#63b8ff" stroke="#63b8ff" points="149.37,-28.89 153.38,-19.09 144.13,-24.25 149.37,-28.89"/>
</a>
</g>
</g>
<!-- Node8 -->
<g id="Node000008" class="node">
<title>Node8</title>
<g id="a_Node000008"><a xlink:title=" ">
<polygon fill="#e0e0e0" stroke="#999999" points="1125,-239 1081,-239 1081,-220 1125,-220 1125,-239"/>
<text text-anchor="middle" x="1103" y="-227" font-family="Helvetica,sans-Serif" font-size="10.00">string</text>
</a>
</g>
</g>
<!-- Node7&#45;&gt;Node8 -->
<g id="edge7_Node000007_Node000008" class="edge">
<title>Node7&#45;&gt;Node8</title>
<g id="a_edge7_Node000007_Node000008"><a xlink:title=" ">
<path fill="none" stroke="#63b8ff" d="M1103,-274.75C1103,-267.8 1103,-257.85 1103,-249.13"/>
<polygon fill="#63b8ff" stroke="#63b8ff" points="1106.5,-249.09 1103,-239.09 1099.5,-249.09 1106.5,-249.09"/>
</a>
</g>
</g>
<!-- Node9&#45;&gt;Node8 -->
<g id="edge11_Node000009_Node000008" class="edge">
<title>Node9&#45;&gt;Node8</title>
<g id="a_edge11_Node000009_Node000008"><a xlink:title=" ">
<path fill="none" stroke="#63b8ff" d="M1293.53,-274.98C1249.74,-264.76 1176.99,-247.78 1135.2,-238.02"/>
<polygon fill="#63b8ff" stroke="#63b8ff" points="1135.81,-234.57 1125.27,-235.7 1134.22,-241.38 1135.81,-234.57"/>
</a>
</g>
</g>
<!-- Node10 -->
<g id="Node000010" class="node">
<title>Node10</title>
<g id="a_Node000010"><a xlink:title=" ">
<polygon fill="#e0e0e0" stroke="#999999" points="1327.5,-239 1234.5,-239 1234.5,-220 1327.5,-220 1327.5,-239"/>
<text text-anchor="middle" x="1281" y="-227" font-family="Helvetica,sans-Serif" font-size="10.00">source_location</text>
</a>
</g>
</g>
<!-- Node9&#45;&gt;Node10 -->
<g id="edge9_Node000009_Node000010" class="edge">
<title>Node9&#45;&gt;Node10</title>
<g id="a_edge9_Node000009_Node000010"><a xlink:title=" ">
<path fill="none" stroke="#63b8ff" d="M1321.91,-274.75C1314.84,-267.11 1304.41,-255.82 1295.85,-246.56"/>
<polygon fill="#63b8ff" stroke="#63b8ff" points="1298.3,-244.06 1288.94,-239.09 1293.16,-248.81 1298.3,-244.06"/>
</a>
</g>
</g>
<!-- Node11 -->
<g id="Node000011" class="node">
<title>Node11</title>
<g id="a_Node000011"><a xlink:title=" ">
<polygon fill="#e0e0e0" stroke="#999999" points="1410.5,-239 1345.5,-239 1345.5,-220 1410.5,-220 1410.5,-239"/>
<text text-anchor="middle" x="1378" y="-227" font-family="Helvetica,sans-Serif" font-size="10.00">stdexcept</text>
</a>
</g>
</g>
<!-- Node9&#45;&gt;Node11 -->
<g id="edge10_Node000009_Node000011" class="edge">
<title>Node9&#45;&gt;Node11</title>
<g id="a_edge10_Node000009_Node000011"><a xlink:title=" ">
<path fill="none" stroke="#63b8ff" d="M1337.93,-274.75C1344.85,-267.11 1355.07,-255.82 1363.45,-246.56"/>
<polygon fill="#63b8ff" stroke="#63b8ff" points="1366.1,-248.85 1370.22,-239.09 1360.91,-244.15 1366.1,-248.85"/>
</a>
</g>
</g>
<!-- Node13 -->
<g id="Node000013" class="node">
<title>Node13</title>
<g id="a_Node000013"><a xlink:href="abcg_8hpp.html" target="_top" xlink:title="Shortcut header that includes the most common ABCg headers.">
<polygon fill="white" stroke="#666666" points="1047.5,-349 986.5,-349 986.5,-330 1047.5,-330 1047.5,-349"/>
<text text-anchor="middle" x="1017" y="-337" font-family="Helvetica,sans-Serif" font-size="10.00">abcg.hpp</text>
</a>
</g>
</g>
<!-- Node12&#45;&gt;Node13 -->
<g id="edge13_Node000012_Node000013" class="edge">
<title>Node12&#45;&gt;Node13</title>
<g id="a_edge13_Node000012_Node000013"><a xlink:title=" ">
<path fill="none" stroke="#63b8ff" d="M565.86,-439.94C656.95,-419.86 883.54,-369.92 976.36,-349.46"/>
<polygon fill="#63b8ff" stroke="#63b8ff" points="977.21,-352.85 986.23,-347.28 975.71,-346.02 977.21,-352.85"/>
</a>
</g>
</g>
<!-- Node21 -->
<g id="Node000021" class="node">
<title>Node21</title>
<g id="a_Node000021"><a xlink:href="abcgVulkanBuffer_8hpp.html" target="_top" xlink:title="Header file of abcg::VulkanBuffer.">
<polygon fill="white" stroke="#666666" points="637,-294 515,-294 515,-275 637,-275 637,-294"/>
<text text-anchor="middle" x="576" y="-282" font-family="Helvetica,sans-Serif" font-size="10.00">abcgVulkanBuffer.hpp</text>
</a>
</g>
</g>
<!-- Node12&#45;&gt;Node21 -->
<g id="edge28_Node000012_Node000021" class="edge">
<title>Node12&#45;&gt;Node21</title>
<g id="a_edge28_Node000012_Node000021"><a xlink:title=" ">
<path fill="none" stroke="#63b8ff" d="M529.73,-439.98C532.58,-431.04 537.17,-416.55 541,-404 551.75,-368.73 563.84,-327.41 570.63,-304.05"/>
<polygon fill="#63b8ff" stroke="#63b8ff" points="574.08,-304.72 573.5,-294.14 567.36,-302.77 574.08,-304.72"/>
</a>
</g>
</g>
<!-- Node26 -->
<g id="Node000026" class="node">
<title>Node26</title>
<g id="a_Node000026"><a xlink:href="abcgVulkanImage_8hpp.html" target="_top" xlink:title="Header file of abcg::VulkanImage.">
<polygon fill="white" stroke="#666666" points="497,-294 373,-294 373,-275 497,-275 497,-294"/>
<text text-anchor="middle" x="435" y="-282" font-family="Helvetica,sans-Serif" font-size="10.00">abcgVulkanImage.hpp</text>
</a>
</g>
</g>
<!-- Node12&#45;&gt;Node26 -->
<g id="edge36_Node000012_Node000026" class="edge">
<title>Node12&#45;&gt;Node26</title>
<g id="a_edge36_Node000012_Node000026"><a xlink:title=" ">
<path fill="none" stroke="#63b8ff" d="M527.72,-439.89C529.02,-419.07 529.71,-365.17 506,-330 496.68,-316.18 481.49,-305.82 467.54,-298.59"/>
<polygon fill="#63b8ff" stroke="#63b8ff" points="468.7,-295.26 458.17,-294.08 465.66,-301.57 468.7,-295.26"/>
</a>
</g>
</g>
<!-- Node27 -->
<g id="Node000027" class="node">
<title>Node27</title>
<g id="a_Node000027"><a xlink:href="abcgVulkanPipeline_8hpp.html" target="_top" xlink:title="Header file of abcg::VulkanPipeline.">
<polygon fill="white" stroke="#666666" points="461,-404 329,-404 329,-385 461,-385 461,-404"/>
<text text-anchor="middle" x="395" y="-392" font-family="Helvetica,sans-Serif" font-size="10.00">abcgVulkanPipeline.hpp</text>
</a>
</g>
</g>
<!-- Node12&#45;&gt;Node27 -->
<g id="edge39_Node000012_Node000027" class="edge">
<title>Node12&#45;&gt;Node27</title>
<g id="a_edge39_Node000012_Node000027"><a xlink:title=" ">
<path fill="none" stroke="#63b8ff" d="M505.79,-439.98C484.27,-431.34 450.72,-417.87 426.17,-408.02"/>
<polygon fill="#63b8ff" stroke="#63b8ff" points="427.18,-404.65 416.59,-404.17 424.57,-411.14 427.18,-404.65"/>
</a>
</g>
</g>
<!-- Node28 -->
<g id="Node000028" class="node">
<title>Node28</title>
<g id="a_Node000028"><a xlink:href="abcgVulkanShader_8hpp.html" target="_top" xlink:title="Declaration of helper functions for creating Vulkan shaders.">
<polygon fill="white" stroke="#666666" points="497,-349 371,-349 371,-330 497,-330 497,-349"/>
<text text-anchor="middle" x="434" y="-337" font-family="Helvetica,sans-Serif" font-size="10.00">abcgVulkanShader.hpp</text>
</a>
</g>
</g>
<!-- Node12&#45;&gt;Node28 -->
<g id="edge50_Node000012_Node000028" class="edge">
<title>Node12&#45;&gt;Node28</title>
<g id="a_edge50_Node000012_Node000028"><a xlink:title=" ">
<path fill="none" stroke="#63b8ff" d="M519.39,-439.66C503.78,-421.54 467.94,-379.91 448.01,-356.77"/>
<polygon fill="#63b8ff" stroke="#63b8ff" points="450.63,-354.45 441.46,-349.16 445.33,-359.02 450.63,-354.45"/>
</a>
</g>
</g>
<!-- Node32 -->
<g id="Node000032" class="node">
<title>Node32</title>
<g id="a_Node000032"><a xlink:href="abcgVulkanWindow_8hpp.html" target="_top" xlink:title="Header file of abcg::VulkanWindow.">
<polygon fill="white" stroke="#666666" points="278.5,-404 147.5,-404 147.5,-385 278.5,-385 278.5,-404"/>
<text text-anchor="middle" x="213" y="-392" font-family="Helvetica,sans-Serif" font-size="10.00">abcgVulkanWindow.hpp</text>
</a>
</g>
</g>
<!-- Node12&#45;&gt;Node32 -->
<g id="edge51_Node000012_Node000032" class="edge">
<title>Node12&#45;&gt;Node32</title>
<g id="a_edge51_Node000012_Node000032"><a xlink:title=" ">
<path fill="none" stroke="#63b8ff" d="M480.33,-440.62C425.42,-431.35 334.1,-415.94 273.73,-405.75"/>
<polygon fill="#63b8ff" stroke="#63b8ff" points="274.02,-402.25 263.57,-404.04 272.85,-409.15 274.02,-402.25"/>
</a>
</g>
</g>
<!-- Node13&#45;&gt;Node7 -->
<g id="edge14_Node000013_Node000007" class="edge">
<title>Node13&#45;&gt;Node7</title>
<g id="a_edge14_Node000013_Node000007"><a xlink:title=" ">
<path fill="none" stroke="#63b8ff" d="M1030.82,-329.98C1044.15,-321.77 1064.58,-309.18 1080.31,-299.49"/>
<polygon fill="#63b8ff" stroke="#63b8ff" points="1082.25,-302.4 1088.93,-294.17 1078.58,-296.44 1082.25,-302.4"/>
</a>
</g>
</g>
<!-- Node13&#45;&gt;Node9 -->
<g id="edge15_Node000013_Node000009" class="edge">
<title>Node13&#45;&gt;Node9</title>
<g id="a_edge15_Node000013_Node000009"><a xlink:title=" ">
<path fill="none" stroke="#63b8ff" d="M1047.58,-333.32C1098.87,-324.64 1203.1,-306.99 1269.59,-295.73"/>
<polygon fill="#63b8ff" stroke="#63b8ff" points="1270.25,-299.17 1279.52,-294.05 1269.08,-292.27 1270.25,-299.17"/>
</a>
</g>
</g>
<!-- Node14 -->
<g id="Node000014" class="node">
<title>Node14</title>
<g id="a_Node000014"><a xlink:href="abcgExternal_8hpp.html" target="_top" xlink:title="Header file for including third&#45;party dependencies.">
<polygon fill="white" stroke="#666666" points="989.5,-239 888.5,-239 888.5,-220 989.5,-220 989.5,-239"/>
<text text-anchor="middle" x="939" y="-227" font-family="Helvetica,sans-Serif" font-size="10.00">abcgExternal.hpp</text>
</a>
</g>
</g>
<!-- Node13&#45;&gt;Node14 -->
<g id="edge16_Node000013_Node000014" class="edge">
<title>Node13&#45;&gt;Node14</title>
<g id="a_edge16_Node000013_Node000014"><a xlink:title=" ">
<path fill="none" stroke="#63b8ff" d="M1016.15,-329.96C1014.52,-317.04 1009.96,-292.19 998,-275 989.3,-262.49 975.98,-252.02 964.2,-244.37"/>
<polygon fill="#63b8ff" stroke="#63b8ff" points="965.94,-241.34 955.59,-239.1 962.28,-247.31 965.94,-241.34"/>
</a>
</g>
</g>
<!-- Node15 -->
<g id="Node000015" class="node">
<title>Node15</title>
<g id="a_Node000015"><a xlink:href="abcgTrackball_8hpp.html" target="_top" xlink:title="Header file of abcg::TrackBall.">
<polygon fill="white" stroke="#666666" points="871,-294 767,-294 767,-275 871,-275 871,-294"/>
<text text-anchor="middle" x="819" y="-282" font-family="Helvetica,sans-Serif" font-size="10.00">abcgTrackball.hpp</text>
</a>
</g>
</g>
<!-- Node13&#45;&gt;Node15 -->
<g id="edge17_Node000013_Node000015" class="edge">
<title>Node13&#45;&gt;Node15</title>
<g id="a_edge17_Node000013_Node000015"><a xlink:title=" ">
<path fill="none" stroke="#63b8ff" d="M986.5,-330.33C952.88,-321.34 898.61,-306.81 860.99,-296.74"/>
<polygon fill="#63b8ff" stroke="#63b8ff" points="861.42,-293.23 850.85,-294.03 859.61,-299.99 861.42,-293.23"/>
</a>
</g>
</g>
<!-- Node18 -->
<g id="Node000018" class="node">
<title>Node18</title>
<g id="a_Node000018"><a xlink:href="abcgUtil_8hpp.html" target="_top" xlink:title="Declaration of general utility functions.">
<polygon fill="white" stroke="#666666" points="1257,-294 1179,-294 1179,-275 1257,-275 1257,-294"/>
<text text-anchor="middle" x="1218" y="-282" font-family="Helvetica,sans-Serif" font-size="10.00">abcgUtil.hpp</text>
</a>
</g>
</g>
<!-- Node13&#45;&gt;Node18 -->
<g id="edge21_Node000013_Node000018" class="edge">
<title>Node13&#45;&gt;Node18</title>
<g id="a_edge21_Node000013_Node000018"><a xlink:title=" ">
<path fill="none" stroke="#63b8ff" d="M1047.53,-330.45C1081.7,-321.44 1137.31,-306.78 1175.67,-296.66"/>
<polygon fill="#63b8ff" stroke="#63b8ff" points="1176.74,-300 1185.52,-294.07 1174.95,-293.23 1176.74,-300"/>
</a>
</g>
</g>
<!-- Node20 -->
<g id="Node000020" class="node">
<title>Node20</title>
<g id="a_Node000020"><a xlink:href="abcgWindow_8hpp.html" target="_top" xlink:title="Header file of abcg::Window.">
<polygon fill="white" stroke="#666666" points="988.5,-294 889.5,-294 889.5,-275 988.5,-275 988.5,-294"/>
<text text-anchor="middle" x="939" y="-282" font-family="Helvetica,sans-Serif" font-size="10.00">abcgWindow.hpp</text>
</a>
</g>
</g>
<!-- Node13&#45;&gt;Node20 -->
<g id="edge24_Node000013_Node000020" class="edge">
<title>Node13&#45;&gt;Node20</title>
<g id="a_edge24_Node000013_Node000020"><a xlink:title=" ">
<path fill="none" stroke="#63b8ff" d="M1004.47,-329.98C992.6,-321.92 974.54,-309.65 960.39,-300.03"/>
<polygon fill="#63b8ff" stroke="#63b8ff" points="962,-296.9 951.76,-294.17 958.06,-302.69 962,-296.9"/>
</a>
</g>
</g>
<!-- Node15&#45;&gt;Node14 -->
<g id="edge18_Node000015_Node000014" class="edge">
<title>Node15&#45;&gt;Node14</title>
<g id="a_edge18_Node000015_Node000014"><a xlink:title=" ">
<path fill="none" stroke="#63b8ff" d="M838.28,-274.98C857.67,-266.42 887.81,-253.11 910.07,-243.28"/>
<polygon fill="#63b8ff" stroke="#63b8ff" points="911.64,-246.41 919.37,-239.17 908.81,-240.01 911.64,-246.41"/>
</a>
</g>
</g>
<!-- Node16 -->
<g id="Node000016" class="node">
<title>Node16</title>
<g id="a_Node000016"><a xlink:href="abcgTimer_8hpp.html" target="_top" xlink:title="Header file of abcg::Timer.">
<polygon fill="white" stroke="#666666" points="866.5,-239 777.5,-239 777.5,-220 866.5,-220 866.5,-239"/>
<text text-anchor="middle" x="822" y="-227" font-family="Helvetica,sans-Serif" font-size="10.00">abcgTimer.hpp</text>
</a>
</g>
</g>
<!-- Node15&#45;&gt;Node16 -->
<g id="edge19_Node000015_Node000016" class="edge">
<title>Node15&#45;&gt;Node16</title>
<g id="a_edge19_Node000015_Node000016"><a xlink:title=" ">
<path fill="none" stroke="#63b8ff" d="M819.5,-274.75C819.89,-267.8 820.45,-257.85 820.95,-249.13"/>
<polygon fill="#63b8ff" stroke="#63b8ff" points="824.44,-249.27 821.51,-239.09 817.45,-248.88 824.44,-249.27"/>
</a>
</g>
</g>
<!-- Node17 -->
<g id="Node000017" class="node">
<title>Node17</title>
<g id="a_Node000017"><a xlink:title=" ">
<polygon fill="#e0e0e0" stroke="#999999" points="847,-184 797,-184 797,-165 847,-165 847,-184"/>
<text text-anchor="middle" x="822" y="-172" font-family="Helvetica,sans-Serif" font-size="10.00">chrono</text>
</a>
</g>
</g>
<!-- Node16&#45;&gt;Node17 -->
<g id="edge20_Node000016_Node000017" class="edge">
<title>Node16&#45;&gt;Node17</title>
<g id="a_edge20_Node000016_Node000017"><a xlink:title=" ">
<path fill="none" stroke="#63b8ff" d="M822,-219.75C822,-212.8 822,-202.85 822,-194.13"/>
<polygon fill="#63b8ff" stroke="#63b8ff" points="825.5,-194.09 822,-184.09 818.5,-194.09 825.5,-194.09"/>
</a>
</g>
</g>
<!-- Node18&#45;&gt;Node8 -->
<g id="edge23_Node000018_Node000008" class="edge">
<title>Node18&#45;&gt;Node8</title>
<g id="a_edge23_Node000018_Node000008"><a xlink:title=" ">
<path fill="none" stroke="#63b8ff" d="M1199.52,-274.98C1181.02,-266.46 1152.32,-253.23 1131.02,-243.41"/>
<polygon fill="#63b8ff" stroke="#63b8ff" points="1132.36,-240.18 1121.81,-239.17 1129.43,-246.53 1132.36,-240.18"/>
</a>
</g>
</g>
<!-- Node19 -->
<g id="Node000019" class="node">
<title>Node19</title>
<g id="a_Node000019"><a xlink:title=" ">
<polygon fill="#e0e0e0" stroke="#999999" points="357.5,-184 292.5,-184 292.5,-165 357.5,-165 357.5,-184"/>
<text text-anchor="middle" x="325" y="-172" font-family="Helvetica,sans-Serif" font-size="10.00">functional</text>
</a>
</g>
</g>
<!-- Node18&#45;&gt;Node19 -->
<g id="edge22_Node000018_Node000019" class="edge">
<title>Node18&#45;&gt;Node19</title>
<g id="a_edge22_Node000018_Node000019"><a xlink:title=" ">
<path fill="none" stroke="#63b8ff" d="M1210.2,-274.94C1196.45,-260.53 1166.27,-231.82 1134,-220 1061.94,-193.6 524.82,-179.87 367.92,-176.4"/>
<polygon fill="#63b8ff" stroke="#63b8ff" points="367.79,-172.89 357.71,-176.17 367.63,-179.89 367.79,-172.89"/>
</a>
</g>
</g>
<!-- Node20&#45;&gt;Node8 -->
<g id="edge25_Node000020_Node000008" class="edge">
<title>Node20&#45;&gt;Node8</title>
<g id="a_edge25_Node000020_Node000008"><a xlink:title=" ">
<path fill="none" stroke="#63b8ff" d="M965.35,-274.98C994.15,-265.68 1040.28,-250.77 1071.1,-240.81"/>
<polygon fill="#63b8ff" stroke="#63b8ff" points="1072.48,-244.04 1080.92,-237.63 1070.33,-237.38 1072.48,-244.04"/>
</a>
</g>
</g>
<!-- Node20&#45;&gt;Node14 -->
<g id="edge26_Node000020_Node000014" class="edge">
<title>Node20&#45;&gt;Node14</title>
<g id="a_edge26_Node000020_Node000014"><a xlink:title=" ">
<path fill="none" stroke="#63b8ff" d="M939,-274.75C939,-267.8 939,-257.85 939,-249.13"/>
<polygon fill="#63b8ff" stroke="#63b8ff" points="942.5,-249.09 939,-239.09 935.5,-249.09 942.5,-249.09"/>
</a>
</g>
</g>
<!-- Node20&#45;&gt;Node16 -->
<g id="edge27_Node000020_Node000016" class="edge">
<title>Node20&#45;&gt;Node16</title>
<g id="a_edge27_Node000020_Node000016"><a xlink:title=" ">
<path fill="none" stroke="#63b8ff" d="M920.2,-274.98C901.38,-266.46 872.18,-253.23 850.5,-243.41"/>
<polygon fill="#63b8ff" stroke="#63b8ff" points="851.69,-240.11 841.14,-239.17 848.8,-246.48 851.69,-240.11"/>
</a>
</g>
</g>
<!-- Node22 -->
<g id="Node000022" class="node">
<title>Node22</title>
<g id="a_Node000022"><a xlink:href="abcgVulkanDevice_8hpp.html" target="_top" xlink:title="Header file of abcg::VulkanDevice.">
<polygon fill="white" stroke="#666666" points="388.5,-239 261.5,-239 261.5,-220 388.5,-220 388.5,-239"/>
<text text-anchor="middle" x="325" y="-227" font-family="Helvetica,sans-Serif" font-size="10.00">abcgVulkanDevice.hpp</text>
</a>
</g>
</g>
<!-- Node21&#45;&gt;Node22 -->
<g id="edge29_Node000021_Node000022" class="edge">
<title>Node21&#45;&gt;Node22</title>
<g id="a_edge29_Node000021_Node000022"><a xlink:title=" ">
<path fill="none" stroke="#63b8ff" d="M535.67,-274.98C492.16,-265.8 422.8,-251.15 375.65,-241.19"/>
<polygon fill="#63b8ff" stroke="#63b8ff" points="376.15,-237.72 365.64,-239.08 374.7,-244.57 376.15,-237.72"/>
</a>
</g>
</g>
<!-- Node25 -->
<g id="Node000025" class="node">
<title>Node25</title>
<g id="a_Node000025"><a xlink:title=" ">
<polygon fill="#e0e0e0" stroke="#999999" points="537,-239 463,-239 463,-220 537,-220 537,-239"/>
<text text-anchor="middle" x="500" y="-227" font-family="Helvetica,sans-Serif" font-size="10.00">gsl/pointers</text>
</a>
</g>
</g>
<!-- Node21&#45;&gt;Node25 -->
<g id="edge35_Node000021_Node000025" class="edge">
<title>Node21&#45;&gt;Node25</title>
<g id="a_edge35_Node000021_Node000025"><a xlink:title=" ">
<path fill="none" stroke="#63b8ff" d="M563.79,-274.98C552.22,-266.92 534.62,-254.65 520.84,-245.03"/>
<polygon fill="#63b8ff" stroke="#63b8ff" points="522.64,-242.02 512.43,-239.17 518.63,-247.76 522.64,-242.02"/>
</a>
</g>
</g>
<!-- Node22&#45;&gt;Node19 -->
<g id="edge34_Node000022_Node000019" class="edge">
<title>Node22&#45;&gt;Node19</title>
<g id="a_edge34_Node000022_Node000019"><a xlink:title=" ">
<path fill="none" stroke="#63b8ff" d="M325,-219.75C325,-212.8 325,-202.85 325,-194.13"/>
<polygon fill="#63b8ff" stroke="#63b8ff" points="328.5,-194.09 325,-184.09 321.5,-194.09 328.5,-194.09"/>
</a>
</g>
</g>
<!-- Node23 -->
<g id="Node000023" class="node">
<title>Node23</title>
<g id="a_Node000023"><a xlink:href="abcgVulkanPhysicalDevice_8hpp.html" target="_top" xlink:title="Header file of abcg::VulkanPhysicalDevice.">
<polygon fill="white" stroke="#666666" points="253.5,-184 86.5,-184 86.5,-165 253.5,-165 253.5,-184"/>
<text text-anchor="middle" x="170" y="-172" font-family="Helvetica,sans-Serif" font-size="10.00">abcgVulkanPhysicalDevice.hpp</text>
</a>
</g>
</g>
<!-- Node22&#45;&gt;Node23 -->
<g id="edge30_Node000022_Node000023" class="edge">
<title>Node22&#45;&gt;Node23</title>
<g id="a_edge30_Node000022_Node000023"><a xlink:title=" ">
<path fill="none" stroke="#63b8ff" d="M300.1,-219.98C274.3,-211.16 233.78,-197.31 204.82,-187.41"/>
<polygon fill="#63b8ff" stroke="#63b8ff" points="205.69,-184.01 195.1,-184.08 203.43,-190.63 205.69,-184.01"/>
</a>
</g>
</g>
<!-- Node23&#45;&gt;Node2 -->
<g id="edge33_Node000023_Node000002" class="edge">
<title>Node23&#45;&gt;Node2</title>
<g id="a_edge33_Node000023_Node000002"><a xlink:title=" ">
<path fill="none" stroke="#63b8ff" d="M153.45,-164.98C137.11,-156.57 111.87,-143.59 92.87,-133.81"/>
<polygon fill="#63b8ff" stroke="#63b8ff" points="94.34,-130.63 83.85,-129.17 91.14,-136.86 94.34,-130.63"/>
</a>
</g>
</g>
<!-- Node23&#45;&gt;Node3 -->
<g id="edge32_Node000023_Node000003" class="edge">
<title>Node23&#45;&gt;Node3</title>
<g id="a_edge32_Node000023_Node000003"><a xlink:title=" ">
<path fill="none" stroke="#63b8ff" d="M166.8,-164.65C162.17,-152.17 153.03,-128.82 143,-110 137.96,-100.54 131.51,-90.5 125.98,-82.35"/>
<polygon fill="#63b8ff" stroke="#63b8ff" points="128.83,-80.31 120.25,-74.09 123.08,-84.3 128.83,-80.31"/>
</a>
</g>
</g>
<!-- Node24 -->
<g id="Node000024" class="node">
<title>Node24</title>
<g id="a_Node000024"><a xlink:title=" ">
<polygon fill="#e0e0e0" stroke="#999999" points="460,-129 404,-129 404,-110 460,-110 460,-129"/>
<text text-anchor="middle" x="432" y="-117" font-family="Helvetica,sans-Serif" font-size="10.00">optional</text>
</a>
</g>
</g>
<!-- Node23&#45;&gt;Node24 -->
<g id="edge31_Node000023_Node000024" class="edge">
<title>Node23&#45;&gt;Node24</title>
<g id="a_edge31_Node000023_Node000024"><a xlink:title=" ">
<path fill="none" stroke="#63b8ff" d="M212.09,-164.98C262.23,-154.84 345.25,-138.05 393.66,-128.26"/>
<polygon fill="#63b8ff" stroke="#63b8ff" points="394.63,-131.63 403.74,-126.22 393.24,-124.77 394.63,-131.63"/>
</a>
</g>
</g>
<!-- Node26&#45;&gt;Node22 -->
<g id="edge37_Node000026_Node000022" class="edge">
<title>Node26&#45;&gt;Node22</title>
<g id="a_edge37_Node000026_Node000022"><a xlink:title=" ">
<path fill="none" stroke="#63b8ff" d="M417.33,-274.98C399.71,-266.5 372.42,-253.35 352.07,-243.54"/>
<polygon fill="#63b8ff" stroke="#63b8ff" points="353.52,-240.36 342.99,-239.17 350.48,-246.66 353.52,-240.36"/>
</a>
</g>
</g>
<!-- Node26&#45;&gt;Node25 -->
<g id="edge38_Node000026_Node000025" class="edge">
<title>Node26&#45;&gt;Node25</title>
<g id="a_edge38_Node000026_Node000025"><a xlink:title=" ">
<path fill="none" stroke="#63b8ff" d="M445.44,-274.98C455.15,-267.07 469.82,-255.11 481.5,-245.58"/>
<polygon fill="#63b8ff" stroke="#63b8ff" points="483.83,-248.2 489.37,-239.17 479.4,-242.78 483.83,-248.2"/>
</a>
</g>
</g>
<!-- Node27&#45;&gt;Node28 -->
<g id="edge40_Node000027_Node000028" class="edge">
<title>Node27&#45;&gt;Node28</title>
<g id="a_edge40_Node000027_Node000028"><a xlink:title=" ">
<path fill="none" stroke="#63b8ff" d="M401.44,-384.75C406.89,-377.34 414.86,-366.5 421.56,-357.41"/>
<polygon fill="#63b8ff" stroke="#63b8ff" points="424.57,-359.22 427.68,-349.09 418.93,-355.07 424.57,-359.22"/>
</a>
</g>
</g>
<!-- Node30 -->
<g id="Node000030" class="node">
<title>Node30</title>
<g id="a_Node000030"><a xlink:href="abcgVulkanSwapchain_8hpp.html" target="_top" xlink:title="Header file of abcg::VulkanSwapchain.">
<polygon fill="white" stroke="#666666" points="349,-349 203,-349 203,-330 349,-330 349,-349"/>
<text text-anchor="middle" x="276" y="-337" font-family="Helvetica,sans-Serif" font-size="10.00">abcgVulkanSwapchain.hpp</text>
</a>
</g>
</g>
<!-- Node27&#45;&gt;Node30 -->
<g id="edge45_Node000027_Node000030" class="edge">
<title>Node27&#45;&gt;Node30</title>
<g id="a_edge45_Node000027_Node000030"><a xlink:title=" ">
<path fill="none" stroke="#63b8ff" d="M375.88,-384.98C356.65,-376.42 326.77,-363.11 304.69,-353.28"/>
<polygon fill="#63b8ff" stroke="#63b8ff" points="306.03,-350.04 295.47,-349.17 303.18,-356.44 306.03,-350.04"/>
</a>
</g>
</g>
<!-- Node28&#45;&gt;Node22 -->
<g id="edge44_Node000028_Node000022" class="edge">
<title>Node28&#45;&gt;Node22</title>
<g id="a_edge44_Node000028_Node000022"><a xlink:title=" ">
<path fill="none" stroke="#63b8ff" d="M415.73,-329.85C400.58,-322.02 379.16,-309.39 364,-294 350.84,-280.63 340.07,-262.03 333.21,-248.41"/>
<polygon fill="#63b8ff" stroke="#63b8ff" points="336.24,-246.64 328.75,-239.14 329.93,-249.67 336.24,-246.64"/>
</a>
</g>
</g>
<!-- Node29 -->
<g id="Node000029" class="node">
<title>Node29</title>
<g id="a_Node000029"><a xlink:href="abcgShader_8hpp.html" target="_top" xlink:title="Declaration of a structure for building shaders.">
<polygon fill="white" stroke="#666666" points="749,-294 655,-294 655,-275 749,-275 749,-294"/>
<text text-anchor="middle" x="702" y="-282" font-family="Helvetica,sans-Serif" font-size="10.00">abcgShader.hpp</text>
</a>
</g>
</g>
<!-- Node28&#45;&gt;Node29 -->
<g id="edge41_Node000028_Node000029" class="edge">
<title>Node28&#45;&gt;Node29</title>
<g id="a_edge41_Node000028_Node000029"><a xlink:title=" ">
<path fill="none" stroke="#63b8ff" d="M477.06,-329.98C523.71,-320.76 598.2,-306.03 648.56,-296.07"/>
<polygon fill="#63b8ff" stroke="#63b8ff" points="649.47,-299.46 658.6,-294.08 648.11,-292.59 649.47,-299.46"/>
</a>
</g>
</g>
<!-- Node29&#45;&gt;Node8 -->
<g id="edge43_Node000029_Node000008" class="edge">
<title>Node29&#45;&gt;Node8</title>
<g id="a_edge43_Node000029_Node000008"><a xlink:title=" ">
<path fill="none" stroke="#63b8ff" d="M749.04,-276.28C752.07,-275.84 755.08,-275.41 758,-275 872.81,-258.88 1009.44,-241.91 1070.6,-234.43"/>
<polygon fill="#63b8ff" stroke="#63b8ff" points="1071.28,-237.88 1080.78,-233.19 1070.43,-230.93 1071.28,-237.88"/>
</a>
</g>
</g>
<!-- Node29&#45;&gt;Node24 -->
<g id="edge42_Node000029_Node000024" class="edge">
<title>Node29&#45;&gt;Node24</title>
<g id="a_edge42_Node000029_Node000024"><a xlink:title=" ">
<path fill="none" stroke="#63b8ff" d="M687.86,-274.97C643.95,-248.46 509.6,-167.35 455.22,-134.52"/>
<polygon fill="#63b8ff" stroke="#63b8ff" points="456.69,-131.32 446.32,-129.15 453.07,-137.31 456.69,-131.32"/>
</a>
</g>
</g>
<!-- Node30&#45;&gt;Node19 -->
<g id="edge46_Node000030_Node000019" class="edge">
<title>Node30&#45;&gt;Node19</title>
<g id="a_edge46_Node000030_Node000019"><a xlink:title=" ">
<path fill="none" stroke="#63b8ff" d="M259.42,-329.87C246.83,-322.3 230.46,-310.01 223,-294 219.43,-286.35 220.91,-283.18 223,-275 229.88,-248.02 233.85,-240.22 253,-220 265.27,-207.05 282.09,-196.37 296.39,-188.73"/>
<polygon fill="#63b8ff" stroke="#63b8ff" points="298.04,-191.81 305.35,-184.15 294.86,-185.58 298.04,-191.81"/>
</a>
</g>
</g>
<!-- Node30&#45;&gt;Node22 -->
<g id="edge48_Node000030_Node000022" class="edge">
<title>Node30&#45;&gt;Node22</title>
<g id="a_edge48_Node000030_Node000022"><a xlink:title=" ">
<path fill="none" stroke="#63b8ff" d="M262.13,-329.86C244.62,-317.83 218.21,-295.21 231,-275 240.85,-259.44 257.77,-249.22 274.56,-242.55"/>
<polygon fill="#63b8ff" stroke="#63b8ff" points="276.16,-245.69 284.38,-239.01 273.79,-239.1 276.16,-245.69"/>
</a>
</g>
</g>
<!-- Node30&#45;&gt;Node26 -->
<g id="edge49_Node000030_Node000026" class="edge">
<title>Node30&#45;&gt;Node26</title>
<g id="a_edge49_Node000030_Node000026"><a xlink:title=" ">
<path fill="none" stroke="#63b8ff" d="M301.55,-329.98C328.12,-321.13 369.94,-307.19 399.67,-297.28"/>
<polygon fill="#63b8ff" stroke="#63b8ff" points="400.87,-300.56 409.25,-294.08 398.66,-293.92 400.87,-300.56"/>
</a>
</g>
</g>
<!-- Node31 -->
<g id="Node000031" class="node">
<title>Node31</title>
<g id="a_Node000031"><a xlink:title=" ">
<polygon fill="#e0e0e0" stroke="#999999" points="316.5,-294 239.5,-294 239.5,-275 316.5,-275 316.5,-294"/>
<text text-anchor="middle" x="278" y="-282" font-family="Helvetica,sans-Serif" font-size="10.00">glm/fwd.hpp</text>
</a>
</g>
</g>
<!-- Node30&#45;&gt;Node31 -->
<g id="edge47_Node000030_Node000031" class="edge">
<title>Node30&#45;&gt;Node31</title>
<g id="a_edge47_Node000030_Node000031"><a xlink:title=" ">
<path fill="none" stroke="#63b8ff" d="M276.33,-329.75C276.59,-322.8 276.97,-312.85 277.3,-304.13"/>
<polygon fill="#63b8ff" stroke="#63b8ff" points="280.8,-304.21 277.68,-294.09 273.8,-303.95 280.8,-304.21"/>
</a>
</g>
</g>
<!-- Node32&#45;&gt;Node2 -->
<g id="edge53_Node000032_Node000002" class="edge">
<title>Node32&#45;&gt;Node2</title>
<g id="a_edge53_Node000032_Node000002"><a xlink:title=" ">
<path fill="none" stroke="#63b8ff" d="M176.11,-384.96C130.55,-371.96 59,-342.48 59,-285.5 59,-285.5 59,-285.5 59,-228.5 59,-197.1 62.4,-160.71 64.77,-139.2"/>
<polygon fill="#63b8ff" stroke="#63b8ff" points="68.26,-139.5 65.92,-129.16 61.31,-138.7 68.26,-139.5"/>
</a>
</g>
</g>
<!-- Node32&#45;&gt;Node20 -->
<g id="edge56_Node000032_Node000020" class="edge">
<title>Node32&#45;&gt;Node20</title>
<g id="a_edge56_Node000032_Node000020"><a xlink:title=" ">
<path fill="none" stroke="#63b8ff" d="M270.27,-384.98C405.18,-364.91 741.89,-314.82 879.24,-294.39"/>
<polygon fill="#63b8ff" stroke="#63b8ff" points="879.8,-297.85 889.17,-292.91 878.77,-290.92 879.8,-297.85"/>
</a>
</g>
</g>
<!-- Node32&#45;&gt;Node22 -->
<g id="edge52_Node000032_Node000022" class="edge">
<title>Node32&#45;&gt;Node22</title>
<g id="a_edge52_Node000032_Node000022"><a xlink:title=" ">
<path fill="none" stroke="#63b8ff" d="M208.12,-384.98C203.44,-376.26 196.69,-362.17 194,-349 186.92,-314.39 197.12,-299.04 223,-275 239.35,-259.82 261.71,-249.28 281.32,-242.28"/>
<polygon fill="#63b8ff" stroke="#63b8ff" points="282.62,-245.53 290.99,-239.03 280.39,-238.9 282.62,-245.53"/>
</a>
</g>
</g>
<!-- Node32&#45;&gt;Node23 -->
<g id="edge54_Node000032_Node000023" class="edge">
<title>Node32&#45;&gt;Node23</title>
<g id="a_edge54_Node000032_Node000023"><a xlink:title=" ">
<path fill="none" stroke="#63b8ff" d="M206.4,-384.84C200.24,-376.25 191.36,-362.45 187,-349 169.48,-294.89 168.52,-226.73 169.25,-194.3"/>
<polygon fill="#63b8ff" stroke="#63b8ff" points="172.75,-194.17 169.57,-184.07 165.76,-193.95 172.75,-194.17"/>
</a>
</g>
</g>
<!-- Node32&#45;&gt;Node30 -->
<g id="edge55_Node000032_Node000030" class="edge">
<title>Node32&#45;&gt;Node30</title>
<g id="a_edge55_Node000032_Node000030"><a xlink:title=" ">
<path fill="none" stroke="#63b8ff" d="M223.12,-384.98C232.44,-377.15 246.47,-365.34 257.74,-355.86"/>
<polygon fill="#63b8ff" stroke="#63b8ff" points="260.29,-358.29 265.69,-349.17 255.79,-352.93 260.29,-358.29"/>
</a>
</g>
</g>
</g>
</svg>
