<?xml version="1.0" encoding="UTF-8" standalone="no"?>
<!DOCTYPE svg PUBLIC "-//W3C//DTD SVG 1.1//EN"
 "http://www.w3.org/Graphics/SVG/1.1/DTD/svg11.dtd">
<!-- Generated by graphviz version 2.43.0 (0)
 -->
<!-- Title: /home/harlen/dev/abcg/abcg/abcgVulkanWindow.cpp Pages: 1 -->
<svg width="1287pt" height="478pt"
 viewBox="0.00 0.00 1287.08 478.00" xmlns="http://www.w3.org/2000/svg" xmlns:xlink="http://www.w3.org/1999/xlink">
<g id="graph0" class="graph" transform="scale(1 1) rotate(0) translate(4 474)">
<title>/home/harlen/dev/abcg/abcg/abcgVulkanWindow.cpp</title>
<!-- Node1 -->
<g id="Node000001" class="node">
<title>Node1</title>
<g id="a_Node000001"><a xlink:title="Definition of abcg::VulkanWindow members.">
<polygon fill="#999999" stroke="#666666" points="866.7,-470 706.7,-470 706.7,-440 866.7,-440 866.7,-470"/>
<text text-anchor="start" x="714.7" y="-458" font-family="Helvetica,sans-Serif" font-size="10.00">/home/harlen/dev/abcg</text>
<text text-anchor="middle" x="786.7" y="-447" font-family="Helvetica,sans-Serif" font-size="10.00">/abcg/abcgVulkanWindow.cpp</text>
</a>
</g>
</g>
<!-- Node2 -->
<g id="Node000002" class="node">
<title>Node2</title>
<g id="a_Node000002"><a xlink:href="abcgVulkanWindow_8hpp.html" target="_top" xlink:title="Header file of abcg::VulkanWindow.">
<polygon fill="white" stroke="#666666" points="366.2,-404 235.2,-404 235.2,-385 366.2,-385 366.2,-404"/>
<text text-anchor="middle" x="300.7" y="-392" font-family="Helvetica,sans-Serif" font-size="10.00">abcgVulkanWindow.hpp</text>
</a>
</g>
</g>
<!-- Node1&#45;&gt;Node2 -->
<g id="edge1_Node000001_Node000002" class="edge">
<title>Node1&#45;&gt;Node2</title>
<g id="a_edge1_Node000001_Node000002"><a xlink:title=" ">
<path fill="none" stroke="#63b8ff" d="M706.45,-444.34C614.81,-433.31 466.02,-415.4 376.35,-404.61"/>
<polygon fill="#63b8ff" stroke="#63b8ff" points="376.6,-401.11 366.25,-403.39 375.76,-408.06 376.6,-401.11"/>
</a>
</g>
</g>
<!-- Node9 -->
<g id="Node000009" class="node">
<title>Node9</title>
<g id="a_Node000009"><a xlink:href="abcgVulkanInstance_8hpp.html" target="_top" xlink:title="Header file of abcg::VulkanInstance.">
<polygon fill="white" stroke="#666666" points="847.7,-129 713.7,-129 713.7,-110 847.7,-110 847.7,-129"/>
<text text-anchor="middle" x="780.7" y="-117" font-family="Helvetica,sans-Serif" font-size="10.00">abcgVulkanInstance.hpp</text>
</a>
</g>
</g>
<!-- Node1&#45;&gt;Node9 -->
<g id="edge41_Node000001_Node000009" class="edge">
<title>Node1&#45;&gt;Node9</title>
<g id="a_edge41_Node000001_Node000009"><a xlink:title=" ">
<path fill="none" stroke="#63b8ff" d="M866.84,-451.11C993.06,-445.72 1226.5,-432.05 1251.7,-404 1384.49,-256.16 989.69,-161.27 837.68,-130.99"/>
<polygon fill="#63b8ff" stroke="#63b8ff" points="838.09,-127.5 827.6,-129.01 836.73,-134.37 838.09,-127.5"/>
</a>
</g>
</g>
<!-- Node15 -->
<g id="Node000015" class="node">
<title>Node15</title>
<g id="a_Node000015"><a xlink:href="abcgWindow_8hpp.html" target="_top" xlink:title="Header file of abcg::Window.">
<polygon fill="white" stroke="#666666" points="542.2,-349 443.2,-349 443.2,-330 542.2,-330 542.2,-349"/>
<text text-anchor="middle" x="492.7" y="-337" font-family="Helvetica,sans-Serif" font-size="10.00">abcgWindow.hpp</text>
</a>
</g>
</g>
<!-- Node1&#45;&gt;Node15 -->
<g id="edge42_Node000001_Node000015" class="edge">
<title>Node1&#45;&gt;Node15</title>
<g id="a_edge42_Node000001_Node000015"><a xlink:title=" ">
<path fill="none" stroke="#63b8ff" d="M706.39,-448.76C602.8,-441.17 433.6,-425.61 414.7,-404 396.83,-383.57 429.41,-364.54 457.77,-352.74"/>
<polygon fill="#63b8ff" stroke="#63b8ff" points="459.14,-355.96 467.15,-349.03 456.56,-349.46 459.14,-355.96"/>
</a>
</g>
</g>
<!-- Node20 -->
<g id="Node000020" class="node">
<title>Node20</title>
<g id="a_Node000020"><a xlink:title=" ">
<polygon fill="#e0e0e0" stroke="#999999" points="662.7,-404 580.7,-404 580.7,-385 662.7,-385 662.7,-404"/>
<text text-anchor="middle" x="621.7" y="-392" font-family="Helvetica,sans-Serif" font-size="10.00">SDL_vulkan.h</text>
</a>
</g>
</g>
<!-- Node1&#45;&gt;Node20 -->
<g id="edge25_Node000001_Node000020" class="edge">
<title>Node1&#45;&gt;Node20</title>
<g id="a_edge25_Node000001_Node000020"><a xlink:title=" ">
<path fill="none" stroke="#63b8ff" d="M747.18,-439.99C719.28,-430.1 682.28,-416.98 655.7,-407.56"/>
<polygon fill="#63b8ff" stroke="#63b8ff" points="656.66,-404.18 646.07,-404.14 654.32,-410.78 656.66,-404.18"/>
</a>
</g>
</g>
<!-- Node21 -->
<g id="Node000021" class="node">
<title>Node21</title>
<g id="a_Node000021"><a xlink:title=" ">
<polygon fill="#e0e0e0" stroke="#999999" points="744.7,-404 680.7,-404 680.7,-385 744.7,-385 744.7,-404"/>
<text text-anchor="middle" x="712.7" y="-392" font-family="Helvetica,sans-Serif" font-size="10.00">algorithm</text>
</a>
</g>
</g>
<!-- Node1&#45;&gt;Node21 -->
<g id="edge26_Node000001_Node000021" class="edge">
<title>Node1&#45;&gt;Node21</title>
<g id="a_edge26_Node000001_Node000021"><a xlink:title=" ">
<path fill="none" stroke="#63b8ff" d="M768.79,-439.84C757.61,-431 743.22,-419.63 731.82,-410.62"/>
<polygon fill="#63b8ff" stroke="#63b8ff" points="733.8,-407.72 723.79,-404.27 729.46,-413.21 733.8,-407.72"/>
</a>
</g>
</g>
<!-- Node22 -->
<g id="Node000022" class="node">
<title>Node22</title>
<g id="a_Node000022"><a xlink:title=" ">
<polygon fill="#e0e0e0" stroke="#999999" points="810.7,-404 762.7,-404 762.7,-385 810.7,-385 810.7,-404"/>
<text text-anchor="middle" x="786.7" y="-392" font-family="Helvetica,sans-Serif" font-size="10.00">gsl/gsl</text>
</a>
</g>
</g>
<!-- Node1&#45;&gt;Node22 -->
<g id="edge27_Node000001_Node000022" class="edge">
<title>Node1&#45;&gt;Node22</title>
<g id="a_edge27_Node000001_Node000022"><a xlink:title=" ">
<path fill="none" stroke="#63b8ff" d="M786.7,-439.84C786.7,-432.21 786.7,-422.7 786.7,-414.45"/>
<polygon fill="#63b8ff" stroke="#63b8ff" points="790.2,-414.27 786.7,-404.27 783.2,-414.27 790.2,-414.27"/>
</a>
</g>
</g>
<!-- Node23 -->
<g id="Node000023" class="node">
<title>Node23</title>
<g id="a_Node000023"><a xlink:title=" ">
<polygon fill="#e0e0e0" stroke="#999999" points="934.7,-404 828.7,-404 828.7,-385 934.7,-385 934.7,-404"/>
<text text-anchor="middle" x="881.7" y="-392" font-family="Helvetica,sans-Serif" font-size="10.00">imgui_impl_sdl2.h</text>
</a>
</g>
</g>
<!-- Node1&#45;&gt;Node23 -->
<g id="edge28_Node000001_Node000023" class="edge">
<title>Node1&#45;&gt;Node23</title>
<g id="a_edge28_Node000001_Node000023"><a xlink:title=" ">
<path fill="none" stroke="#63b8ff" d="M809.7,-439.84C824.7,-430.6 844.2,-418.59 859.12,-409.4"/>
<polygon fill="#63b8ff" stroke="#63b8ff" points="861.06,-412.32 867.74,-404.09 857.39,-406.36 861.06,-412.32"/>
</a>
</g>
</g>
<!-- Node24 -->
<g id="Node000024" class="node">
<title>Node24</title>
<g id="a_Node000024"><a xlink:title=" ">
<polygon fill="#e0e0e0" stroke="#999999" points="1070.7,-404 952.7,-404 952.7,-385 1070.7,-385 1070.7,-404"/>
<text text-anchor="middle" x="1011.7" y="-392" font-family="Helvetica,sans-Serif" font-size="10.00">imgui_impl_vulkan.h</text>
</a>
</g>
</g>
<!-- Node1&#45;&gt;Node24 -->
<g id="edge29_Node000001_Node000024" class="edge">
<title>Node1&#45;&gt;Node24</title>
<g id="a_edge29_Node000001_Node000024"><a xlink:title=" ">
<path fill="none" stroke="#63b8ff" d="M840.59,-439.99C879.93,-429.76 932.52,-416.09 968.97,-406.61"/>
<polygon fill="#63b8ff" stroke="#63b8ff" points="970,-409.96 978.8,-404.05 968.24,-403.18 970,-409.96"/>
</a>
</g>
</g>
<!-- Node25 -->
<g id="Node000025" class="node">
<title>Node25</title>
<g id="a_Node000025"><a xlink:href="abcgEmbeddedFonts_8hpp.html" target="_top" xlink:title=" ">
<polygon fill="white" stroke="#666666" points="562.2,-404 423.2,-404 423.2,-385 562.2,-385 562.2,-404"/>
<text text-anchor="middle" x="492.7" y="-392" font-family="Helvetica,sans-Serif" font-size="10.00">abcgEmbeddedFonts.hpp</text>
</a>
</g>
</g>
<!-- Node1&#45;&gt;Node25 -->
<g id="edge30_Node000001_Node000025" class="edge">
<title>Node1&#45;&gt;Node25</title>
<g id="a_edge30_Node000001_Node000025"><a xlink:title=" ">
<path fill="none" stroke="#63b8ff" d="M716.28,-439.99C663.78,-429.54 593.21,-415.5 545.5,-406.01"/>
<polygon fill="#63b8ff" stroke="#63b8ff" points="546.18,-402.57 535.69,-404.05 544.81,-409.44 546.18,-402.57"/>
</a>
</g>
</g>
<!-- Node27 -->
<g id="Node000027" class="node">
<title>Node27</title>
<g id="a_Node000027"><a xlink:href="abcgException_8hpp.html" target="_top" xlink:title="Header file of abcg::Exception and derived classes.">
<polygon fill="white" stroke="#666666" points="1104.2,-349 995.2,-349 995.2,-330 1104.2,-330 1104.2,-349"/>
<text text-anchor="middle" x="1049.7" y="-337" font-family="Helvetica,sans-Serif" font-size="10.00">abcgException.hpp</text>
</a>
</g>
</g>
<!-- Node1&#45;&gt;Node27 -->
<g id="edge32_Node000001_Node000027" class="edge">
<title>Node1&#45;&gt;Node27</title>
<g id="a_edge32_Node000001_Node000027"><a xlink:title=" ">
<path fill="none" stroke="#63b8ff" d="M866.73,-451.57C943.93,-447.34 1052.91,-435.75 1079.7,-404 1091.66,-389.82 1078.81,-370.07 1066.41,-356.37"/>
<polygon fill="#63b8ff" stroke="#63b8ff" points="1068.83,-353.84 1059.36,-349.1 1063.81,-358.71 1068.83,-353.84"/>
</a>
</g>
</g>
<!-- Node30 -->
<g id="Node000030" class="node">
<title>Node30</title>
<g id="a_Node000030"><a xlink:href="abcgVulkanError_8hpp.html" target="_top" xlink:title="Header file of abcg::VulkanError and derived classes.">
<polygon fill="white" stroke="#666666" points="1242.7,-404 1126.7,-404 1126.7,-385 1242.7,-385 1242.7,-404"/>
<text text-anchor="middle" x="1184.7" y="-392" font-family="Helvetica,sans-Serif" font-size="10.00">abcgVulkanError.hpp</text>
</a>
</g>
</g>
<!-- Node1&#45;&gt;Node30 -->
<g id="edge36_Node000001_Node000030" class="edge">
<title>Node1&#45;&gt;Node30</title>
<g id="a_edge36_Node000001_Node000030"><a xlink:title=" ">
<path fill="none" stroke="#63b8ff" d="M866.76,-442.23C940.11,-431.45 1047.5,-415.67 1116.76,-405.49"/>
<polygon fill="#63b8ff" stroke="#63b8ff" points="1117.3,-408.94 1126.69,-404.03 1116.29,-402.02 1117.3,-408.94"/>
</a>
</g>
</g>
<!-- Node3 -->
<g id="Node000003" class="node">
<title>Node3</title>
<g id="a_Node000003"><a xlink:href="abcgVulkanDevice_8hpp.html" target="_top" xlink:title="Header file of abcg::VulkanDevice.">
<polygon fill="white" stroke="#666666" points="247.2,-239 120.2,-239 120.2,-220 247.2,-220 247.2,-239"/>
<text text-anchor="middle" x="183.7" y="-227" font-family="Helvetica,sans-Serif" font-size="10.00">abcgVulkanDevice.hpp</text>
</a>
</g>
</g>
<!-- Node2&#45;&gt;Node3 -->
<g id="edge2_Node000002_Node000003" class="edge">
<title>Node2&#45;&gt;Node3</title>
<g id="a_edge2_Node000002_Node000003"><a xlink:title=" ">
<path fill="none" stroke="#63b8ff" d="M301.76,-385C303.92,-363.97 306.59,-308.78 280.7,-275 268.81,-259.49 250.25,-249.21 232.54,-242.48"/>
<polygon fill="#63b8ff" stroke="#63b8ff" points="233.43,-239.08 222.84,-239.09 231.13,-245.69 233.43,-239.08"/>
</a>
</g>
</g>
<!-- Node4 -->
<g id="Node000004" class="node">
<title>Node4</title>
<g id="a_Node000004"><a xlink:href="abcgVulkanPhysicalDevice_8hpp.html" target="_top" xlink:title="Header file of abcg::VulkanPhysicalDevice.">
<polygon fill="white" stroke="#666666" points="386.2,-184 219.2,-184 219.2,-165 386.2,-165 386.2,-184"/>
<text text-anchor="middle" x="302.7" y="-172" font-family="Helvetica,sans-Serif" font-size="10.00">abcgVulkanPhysicalDevice.hpp</text>
</a>
</g>
</g>
<!-- Node2&#45;&gt;Node4 -->
<g id="edge12_Node000002_Node000004" class="edge">
<title>Node2&#45;&gt;Node4</title>
<g id="a_edge12_Node000002_Node000004"><a xlink:title=" ">
<path fill="none" stroke="#63b8ff" d="M304.81,-384.88C308.76,-376.09 314.44,-361.94 316.7,-349 326.4,-293.32 314.46,-226.39 307.31,-194.37"/>
<polygon fill="#63b8ff" stroke="#63b8ff" points="310.63,-193.18 304.95,-184.24 303.81,-194.77 310.63,-193.18"/>
</a>
</g>
</g>
<!-- Node2&#45;&gt;Node9 -->
<g id="edge11_Node000002_Node000009" class="edge">
<title>Node2&#45;&gt;Node9</title>
<g id="a_edge11_Node000002_Node000009"><a xlink:title=" ">
<path fill="none" stroke="#63b8ff" d="M321.69,-384.89C354.37,-369.93 413.7,-335.84 413.7,-285.5 413.7,-285.5 413.7,-285.5 413.7,-228.5 413.7,-168.66 595.52,-139.55 703.2,-127.56"/>
<polygon fill="#63b8ff" stroke="#63b8ff" points="703.82,-131.02 713.39,-126.45 703.07,-124.06 703.82,-131.02"/>
</a>
</g>
</g>
<!-- Node11 -->
<g id="Node000011" class="node">
<title>Node11</title>
<g id="a_Node000011"><a xlink:href="abcgVulkanSwapchain_8hpp.html" target="_top" xlink:title="Header file of abcg::VulkanSwapchain.">
<polygon fill="white" stroke="#666666" points="239.7,-349 93.7,-349 93.7,-330 239.7,-330 239.7,-349"/>
<text text-anchor="middle" x="166.7" y="-337" font-family="Helvetica,sans-Serif" font-size="10.00">abcgVulkanSwapchain.hpp</text>
</a>
</g>
</g>
<!-- Node2&#45;&gt;Node11 -->
<g id="edge13_Node000002_Node000011" class="edge">
<title>Node2&#45;&gt;Node11</title>
<g id="a_edge13_Node000002_Node000011"><a xlink:title=" ">
<path fill="none" stroke="#63b8ff" d="M279.17,-384.98C257.22,-376.3 222.96,-362.75 198.01,-352.88"/>
<polygon fill="#63b8ff" stroke="#63b8ff" points="199.21,-349.59 188.62,-349.17 196.63,-356.1 199.21,-349.59"/>
</a>
</g>
</g>
<!-- Node2&#45;&gt;Node15 -->
<g id="edge20_Node000002_Node000015" class="edge">
<title>Node2&#45;&gt;Node15</title>
<g id="a_edge20_Node000002_Node000015"><a xlink:title=" ">
<path fill="none" stroke="#63b8ff" d="M331.55,-384.98C364.2,-375.97 415.89,-361.7 451.9,-351.76"/>
<polygon fill="#63b8ff" stroke="#63b8ff" points="452.9,-355.12 461.61,-349.08 451.04,-348.37 452.9,-355.12"/>
</a>
</g>
</g>
<!-- Node3&#45;&gt;Node4 -->
<g id="edge3_Node000003_Node000004" class="edge">
<title>Node3&#45;&gt;Node4</title>
<g id="a_edge3_Node000003_Node000004"><a xlink:title=" ">
<path fill="none" stroke="#63b8ff" d="M202.82,-219.98C222.05,-211.42 251.93,-198.11 274,-188.28"/>
<polygon fill="#63b8ff" stroke="#63b8ff" points="275.52,-191.44 283.23,-184.17 272.67,-185.04 275.52,-191.44"/>
</a>
</g>
</g>
<!-- Node10 -->
<g id="Node000010" class="node">
<title>Node10</title>
<g id="a_Node000010"><a xlink:title=" ">
<polygon fill="#e0e0e0" stroke="#999999" points="118.2,-184 53.2,-184 53.2,-165 118.2,-165 118.2,-184"/>
<text text-anchor="middle" x="85.7" y="-172" font-family="Helvetica,sans-Serif" font-size="10.00">functional</text>
</a>
</g>
</g>
<!-- Node3&#45;&gt;Node10 -->
<g id="edge10_Node000003_Node000010" class="edge">
<title>Node3&#45;&gt;Node10</title>
<g id="a_edge10_Node000003_Node000010"><a xlink:title=" ">
<path fill="none" stroke="#63b8ff" d="M167.95,-219.98C152.47,-211.61 128.61,-198.7 110.56,-188.95"/>
<polygon fill="#63b8ff" stroke="#63b8ff" points="112.19,-185.85 101.73,-184.17 108.86,-192.01 112.19,-185.85"/>
</a>
</g>
</g>
<!-- Node5 -->
<g id="Node000005" class="node">
<title>Node5</title>
<g id="a_Node000005"><a xlink:title=" ">
<polygon fill="#e0e0e0" stroke="#999999" points="386.7,-129 330.7,-129 330.7,-110 386.7,-110 386.7,-129"/>
<text text-anchor="middle" x="358.7" y="-117" font-family="Helvetica,sans-Serif" font-size="10.00">optional</text>
</a>
</g>
</g>
<!-- Node4&#45;&gt;Node5 -->
<g id="edge4_Node000004_Node000005" class="edge">
<title>Node4&#45;&gt;Node5</title>
<g id="a_edge4_Node000004_Node000005"><a xlink:title=" ">
<path fill="none" stroke="#63b8ff" d="M311.7,-164.98C319.89,-157.23 332.2,-145.58 342.17,-136.14"/>
<polygon fill="#63b8ff" stroke="#63b8ff" points="344.68,-138.59 349.54,-129.17 339.87,-133.5 344.68,-138.59"/>
</a>
</g>
</g>
<!-- Node6 -->
<g id="Node000006" class="node">
<title>Node6</title>
<g id="a_Node000006"><a xlink:href="abcgVulkanExternal_8hpp.html" target="_top" xlink:title="Header file for including Vulkan&#45;related dependencies.">
<polygon fill="white" stroke="#666666" points="995.7,-74 861.7,-74 861.7,-55 995.7,-55 995.7,-74"/>
<text text-anchor="middle" x="928.7" y="-62" font-family="Helvetica,sans-Serif" font-size="10.00">abcgVulkanExternal.hpp</text>
</a>
</g>
</g>
<!-- Node4&#45;&gt;Node6 -->
<g id="edge5_Node000004_Node000006" class="edge">
<title>Node4&#45;&gt;Node6</title>
<g id="a_edge5_Node000004_Node000006"><a xlink:title=" ">
<path fill="none" stroke="#63b8ff" d="M302.44,-164.86C302.54,-150.85 305.01,-123.4 321.7,-110 362.09,-77.56 696.84,-68.71 851.23,-66.34"/>
<polygon fill="#63b8ff" stroke="#63b8ff" points="851.64,-69.84 861.58,-66.19 851.53,-62.84 851.64,-69.84"/>
</a>
</g>
</g>
<!-- Node4&#45;&gt;Node9 -->
<g id="edge8_Node000004_Node000009" class="edge">
<title>Node4&#45;&gt;Node9</title>
<g id="a_edge8_Node000004_Node000009"><a xlink:title=" ">
<path fill="none" stroke="#63b8ff" d="M379.5,-164.98C468.44,-155.12 614.12,-138.97 703.31,-129.08"/>
<polygon fill="#63b8ff" stroke="#63b8ff" points="703.81,-132.55 713.36,-127.97 703.04,-125.59 703.81,-132.55"/>
</a>
</g>
</g>
<!-- Node7 -->
<g id="Node000007" class="node">
<title>Node7</title>
<g id="a_Node000007"><a xlink:title=" ">
<polygon fill="#e0e0e0" stroke="#999999" points="990.2,-19 943.2,-19 943.2,0 990.2,0 990.2,-19"/>
<text text-anchor="middle" x="966.7" y="-7" font-family="Helvetica,sans-Serif" font-size="10.00">volk.h</text>
</a>
</g>
</g>
<!-- Node6&#45;&gt;Node7 -->
<g id="edge6_Node000006_Node000007" class="edge">
<title>Node6&#45;&gt;Node7</title>
<g id="a_edge6_Node000006_Node000007"><a xlink:title=" ">
<path fill="none" stroke="#63b8ff" d="M934.97,-54.75C940.29,-47.34 948.05,-36.5 954.57,-27.41"/>
<polygon fill="#63b8ff" stroke="#63b8ff" points="957.56,-29.26 960.54,-19.09 951.87,-25.18 957.56,-29.26"/>
</a>
</g>
</g>
<!-- Node8 -->
<g id="Node000008" class="node">
<title>Node8</title>
<g id="a_Node000008"><a xlink:title=" ">
<polygon fill="#e0e0e0" stroke="#999999" points="1132.2,-19 1027.2,-19 1027.2,0 1132.2,0 1132.2,-19"/>
<text text-anchor="middle" x="1079.7" y="-7" font-family="Helvetica,sans-Serif" font-size="10.00">vulkan/vulkan.hpp</text>
</a>
</g>
</g>
<!-- Node6&#45;&gt;Node8 -->
<g id="edge7_Node000006_Node000008" class="edge">
<title>Node6&#45;&gt;Node8</title>
<g id="a_edge7_Node000006_Node000008"><a xlink:title=" ">
<path fill="none" stroke="#63b8ff" d="M952.96,-54.98C978.02,-46.19 1017.33,-32.39 1045.53,-22.49"/>
<polygon fill="#63b8ff" stroke="#63b8ff" points="1046.72,-25.78 1055,-19.17 1044.4,-19.18 1046.72,-25.78"/>
</a>
</g>
</g>
<!-- Node9&#45;&gt;Node6 -->
<g id="edge9_Node000009_Node000006" class="edge">
<title>Node9&#45;&gt;Node6</title>
<g id="a_edge9_Node000009_Node000006"><a xlink:title=" ">
<path fill="none" stroke="#63b8ff" d="M804.48,-109.98C828.93,-101.23 867.23,-87.51 894.84,-77.62"/>
<polygon fill="#63b8ff" stroke="#63b8ff" points="896.25,-80.84 904.49,-74.17 893.89,-74.25 896.25,-80.84"/>
</a>
</g>
</g>
<!-- Node11&#45;&gt;Node3 -->
<g id="edge16_Node000011_Node000003" class="edge">
<title>Node11&#45;&gt;Node3</title>
<g id="a_edge16_Node000011_Node000003"><a xlink:title=" ">
<path fill="none" stroke="#63b8ff" d="M168.09,-329.66C170.84,-312.17 177.04,-272.8 180.74,-249.27"/>
<polygon fill="#63b8ff" stroke="#63b8ff" points="184.24,-249.58 182.34,-239.16 177.32,-248.49 184.24,-249.58"/>
</a>
</g>
</g>
<!-- Node11&#45;&gt;Node10 -->
<g id="edge14_Node000011_Node000010" class="edge">
<title>Node11&#45;&gt;Node10</title>
<g id="a_edge14_Node000011_Node000010"><a xlink:title=" ">
<path fill="none" stroke="#63b8ff" d="M108.47,-329.94C67.7,-322.62 18.34,-310.61 5.7,-294 -6.06,-278.55 2.99,-242.55 18.7,-220 28.04,-206.59 42.83,-196.15 56.15,-188.75"/>
<polygon fill="#63b8ff" stroke="#63b8ff" points="57.79,-191.85 65.05,-184.12 54.56,-185.64 57.79,-191.85"/>
</a>
</g>
</g>
<!-- Node12 -->
<g id="Node000012" class="node">
<title>Node12</title>
<g id="a_Node000012"><a xlink:title=" ">
<polygon fill="#e0e0e0" stroke="#999999" points="272.2,-294 195.2,-294 195.2,-275 272.2,-275 272.2,-294"/>
<text text-anchor="middle" x="233.7" y="-282" font-family="Helvetica,sans-Serif" font-size="10.00">glm/fwd.hpp</text>
</a>
</g>
</g>
<!-- Node11&#45;&gt;Node12 -->
<g id="edge15_Node000011_Node000012" class="edge">
<title>Node11&#45;&gt;Node12</title>
<g id="a_edge15_Node000011_Node000012"><a xlink:title=" ">
<path fill="none" stroke="#63b8ff" d="M177.46,-329.98C187.46,-322.07 202.59,-310.11 214.63,-300.58"/>
<polygon fill="#63b8ff" stroke="#63b8ff" points="217.07,-303.12 222.74,-294.17 212.72,-297.63 217.07,-303.12"/>
</a>
</g>
</g>
<!-- Node13 -->
<g id="Node000013" class="node">
<title>Node13</title>
<g id="a_Node000013"><a xlink:href="abcgVulkanImage_8hpp.html" target="_top" xlink:title="Header file of abcg::VulkanImage.">
<polygon fill="white" stroke="#666666" points="138.7,-294 14.7,-294 14.7,-275 138.7,-275 138.7,-294"/>
<text text-anchor="middle" x="76.7" y="-282" font-family="Helvetica,sans-Serif" font-size="10.00">abcgVulkanImage.hpp</text>
</a>
</g>
</g>
<!-- Node11&#45;&gt;Node13 -->
<g id="edge17_Node000011_Node000013" class="edge">
<title>Node11&#45;&gt;Node13</title>
<g id="a_edge17_Node000011_Node000013"><a xlink:title=" ">
<path fill="none" stroke="#63b8ff" d="M152.24,-329.98C138.28,-321.77 116.9,-309.18 100.45,-299.49"/>
<polygon fill="#63b8ff" stroke="#63b8ff" points="101.81,-296.23 91.42,-294.17 98.26,-302.26 101.81,-296.23"/>
</a>
</g>
</g>
<!-- Node13&#45;&gt;Node3 -->
<g id="edge18_Node000013_Node000003" class="edge">
<title>Node13&#45;&gt;Node3</title>
<g id="a_edge18_Node000013_Node000003"><a xlink:title=" ">
<path fill="none" stroke="#63b8ff" d="M93.89,-274.98C110.95,-266.54 137.33,-253.47 157.09,-243.68"/>
<polygon fill="#63b8ff" stroke="#63b8ff" points="158.79,-246.75 166.19,-239.17 155.68,-240.47 158.79,-246.75"/>
</a>
</g>
</g>
<!-- Node14 -->
<g id="Node000014" class="node">
<title>Node14</title>
<g id="a_Node000014"><a xlink:title=" ">
<polygon fill="#e0e0e0" stroke="#999999" points="101.7,-239 27.7,-239 27.7,-220 101.7,-220 101.7,-239"/>
<text text-anchor="middle" x="64.7" y="-227" font-family="Helvetica,sans-Serif" font-size="10.00">gsl/pointers</text>
</a>
</g>
</g>
<!-- Node13&#45;&gt;Node14 -->
<g id="edge19_Node000013_Node000014" class="edge">
<title>Node13&#45;&gt;Node14</title>
<g id="a_edge19_Node000013_Node000014"><a xlink:title=" ">
<path fill="none" stroke="#63b8ff" d="M74.72,-274.75C73.13,-267.72 70.84,-257.62 68.85,-248.84"/>
<polygon fill="#63b8ff" stroke="#63b8ff" points="72.27,-248.07 66.64,-239.09 65.44,-249.62 72.27,-248.07"/>
</a>
</g>
</g>
<!-- Node16 -->
<g id="Node000016" class="node">
<title>Node16</title>
<g id="a_Node000016"><a xlink:title=" ">
<polygon fill="#e0e0e0" stroke="#999999" points="836.7,-294 792.7,-294 792.7,-275 836.7,-275 836.7,-294"/>
<text text-anchor="middle" x="814.7" y="-282" font-family="Helvetica,sans-Serif" font-size="10.00">string</text>
</a>
</g>
</g>
<!-- Node15&#45;&gt;Node16 -->
<g id="edge21_Node000015_Node000016" class="edge">
<title>Node15&#45;&gt;Node16</title>
<g id="a_edge21_Node000015_Node000016"><a xlink:title=" ">
<path fill="none" stroke="#63b8ff" d="M542.31,-330.33C609.1,-319.34 726.05,-300.09 782.46,-290.81"/>
<polygon fill="#63b8ff" stroke="#63b8ff" points="783.29,-294.22 792.59,-289.14 782.15,-287.31 783.29,-294.22"/>
</a>
</g>
</g>
<!-- Node17 -->
<g id="Node000017" class="node">
<title>Node17</title>
<g id="a_Node000017"><a xlink:href="abcgExternal_8hpp.html" target="_top" xlink:title="Header file for including third&#45;party dependencies.">
<polygon fill="white" stroke="#666666" points="543.2,-294 442.2,-294 442.2,-275 543.2,-275 543.2,-294"/>
<text text-anchor="middle" x="492.7" y="-282" font-family="Helvetica,sans-Serif" font-size="10.00">abcgExternal.hpp</text>
</a>
</g>
</g>
<!-- Node15&#45;&gt;Node17 -->
<g id="edge22_Node000015_Node000017" class="edge">
<title>Node15&#45;&gt;Node17</title>
<g id="a_edge22_Node000015_Node000017"><a xlink:title=" ">
<path fill="none" stroke="#63b8ff" d="M492.7,-329.75C492.7,-322.8 492.7,-312.85 492.7,-304.13"/>
<polygon fill="#63b8ff" stroke="#63b8ff" points="496.2,-304.09 492.7,-294.09 489.2,-304.09 496.2,-304.09"/>
</a>
</g>
</g>
<!-- Node18 -->
<g id="Node000018" class="node">
<title>Node18</title>
<g id="a_Node000018"><a xlink:href="abcgTimer_8hpp.html" target="_top" xlink:title="Header file of abcg::Timer.">
<polygon fill="white" stroke="#666666" points="650.2,-294 561.2,-294 561.2,-275 650.2,-275 650.2,-294"/>
<text text-anchor="middle" x="605.7" y="-282" font-family="Helvetica,sans-Serif" font-size="10.00">abcgTimer.hpp</text>
</a>
</g>
</g>
<!-- Node15&#45;&gt;Node18 -->
<g id="edge23_Node000015_Node000018" class="edge">
<title>Node15&#45;&gt;Node18</title>
<g id="a_edge23_Node000015_Node000018"><a xlink:title=" ">
<path fill="none" stroke="#63b8ff" d="M510.85,-329.98C528.95,-321.5 556.98,-308.35 577.89,-298.54"/>
<polygon fill="#63b8ff" stroke="#63b8ff" points="579.65,-301.59 587.21,-294.17 576.67,-295.25 579.65,-301.59"/>
</a>
</g>
</g>
<!-- Node19 -->
<g id="Node000019" class="node">
<title>Node19</title>
<g id="a_Node000019"><a xlink:title=" ">
<polygon fill="#e0e0e0" stroke="#999999" points="630.7,-239 580.7,-239 580.7,-220 630.7,-220 630.7,-239"/>
<text text-anchor="middle" x="605.7" y="-227" font-family="Helvetica,sans-Serif" font-size="10.00">chrono</text>
</a>
</g>
</g>
<!-- Node18&#45;&gt;Node19 -->
<g id="edge24_Node000018_Node000019" class="edge">
<title>Node18&#45;&gt;Node19</title>
<g id="a_edge24_Node000018_Node000019"><a xlink:title=" ">
<path fill="none" stroke="#63b8ff" d="M605.7,-274.75C605.7,-267.8 605.7,-257.85 605.7,-249.13"/>
<polygon fill="#63b8ff" stroke="#63b8ff" points="609.2,-249.09 605.7,-239.09 602.2,-249.09 609.2,-249.09"/>
</a>
</g>
</g>
<!-- Node26 -->
<g id="Node000026" class="node">
<title>Node26</title>
<g id="a_Node000026"><a xlink:title=" ">
<polygon fill="#e0e0e0" stroke="#999999" points="602.7,-349 560.7,-349 560.7,-330 602.7,-330 602.7,-349"/>
<text text-anchor="middle" x="581.7" y="-337" font-family="Helvetica,sans-Serif" font-size="10.00">array</text>
</a>
</g>
</g>
<!-- Node25&#45;&gt;Node26 -->
<g id="edge31_Node000025_Node000026" class="edge">
<title>Node25&#45;&gt;Node26</title>
<g id="a_edge31_Node000025_Node000026"><a xlink:title=" ">
<path fill="none" stroke="#63b8ff" d="M507,-384.98C520.8,-376.77 541.94,-364.18 558.21,-354.49"/>
<polygon fill="#63b8ff" stroke="#63b8ff" points="560.34,-357.29 567.14,-349.17 556.76,-351.28 560.34,-357.29"/>
</a>
</g>
</g>
<!-- Node27&#45;&gt;Node16 -->
<g id="edge35_Node000027_Node000016" class="edge">
<title>Node27&#45;&gt;Node16</title>
<g id="a_edge35_Node000027_Node000016"><a xlink:title=" ">
<path fill="none" stroke="#63b8ff" d="M1011.94,-329.98C966.15,-319.66 889.78,-302.43 846.74,-292.73"/>
<polygon fill="#63b8ff" stroke="#63b8ff" points="847.33,-289.27 836.8,-290.49 845.79,-296.1 847.33,-289.27"/>
</a>
</g>
</g>
<!-- Node28 -->
<g id="Node000028" class="node">
<title>Node28</title>
<g id="a_Node000028"><a xlink:title=" ">
<polygon fill="#e0e0e0" stroke="#999999" points="1142.2,-294 1049.2,-294 1049.2,-275 1142.2,-275 1142.2,-294"/>
<text text-anchor="middle" x="1095.7" y="-282" font-family="Helvetica,sans-Serif" font-size="10.00">source_location</text>
</a>
</g>
</g>
<!-- Node27&#45;&gt;Node28 -->
<g id="edge33_Node000027_Node000028" class="edge">
<title>Node27&#45;&gt;Node28</title>
<g id="a_edge33_Node000027_Node000028"><a xlink:title=" ">
<path fill="none" stroke="#63b8ff" d="M1057.29,-329.75C1063.86,-322.18 1073.52,-311.05 1081.51,-301.84"/>
<polygon fill="#63b8ff" stroke="#63b8ff" points="1084.33,-303.94 1088.24,-294.09 1079.05,-299.35 1084.33,-303.94"/>
</a>
</g>
</g>
<!-- Node29 -->
<g id="Node000029" class="node">
<title>Node29</title>
<g id="a_Node000029"><a xlink:title=" ">
<polygon fill="#e0e0e0" stroke="#999999" points="1031.2,-294 966.2,-294 966.2,-275 1031.2,-275 1031.2,-294"/>
<text text-anchor="middle" x="998.7" y="-282" font-family="Helvetica,sans-Serif" font-size="10.00">stdexcept</text>
</a>
</g>
</g>
<!-- Node27&#45;&gt;Node29 -->
<g id="edge34_Node000027_Node000029" class="edge">
<title>Node27&#45;&gt;Node29</title>
<g id="a_edge34_Node000027_Node000029"><a xlink:title=" ">
<path fill="none" stroke="#63b8ff" d="M1041.28,-329.75C1033.92,-322.11 1023.07,-310.82 1014.16,-301.56"/>
<polygon fill="#63b8ff" stroke="#63b8ff" points="1016.42,-298.87 1006.96,-294.09 1011.38,-303.72 1016.42,-298.87"/>
</a>
</g>
</g>
<!-- Node30&#45;&gt;Node7 -->
<g id="edge38_Node000030_Node000007" class="edge">
<title>Node30&#45;&gt;Node7</title>
<g id="a_edge38_Node000030_Node000007"><a xlink:title=" ">
<path fill="none" stroke="#63b8ff" d="M1182.81,-384.87C1178.99,-366.62 1170.7,-322.75 1170.7,-285.5 1170.7,-285.5 1170.7,-285.5 1170.7,-118.5 1170.7,-80.41 1058.22,-39.34 1000.31,-20.72"/>
<polygon fill="#63b8ff" stroke="#63b8ff" points="1001.09,-17.29 990.5,-17.61 998.98,-23.97 1001.09,-17.29"/>
</a>
</g>
</g>
<!-- Node30&#45;&gt;Node8 -->
<g id="edge39_Node000030_Node000008" class="edge">
<title>Node30&#45;&gt;Node8</title>
<g id="a_edge39_Node000030_Node000008"><a xlink:title=" ">
<path fill="none" stroke="#63b8ff" d="M1190.64,-384.76C1206.16,-361.07 1246.7,-293.17 1246.7,-230.5 1246.7,-230.5 1246.7,-230.5 1246.7,-118.5 1246.7,-63.59 1182.24,-35.22 1133.42,-21.61"/>
<polygon fill="#63b8ff" stroke="#63b8ff" points="1134.14,-18.18 1123.58,-19 1132.35,-24.95 1134.14,-18.18"/>
</a>
</g>
</g>
<!-- Node30&#45;&gt;Node27 -->
<g id="edge40_Node000030_Node000027" class="edge">
<title>Node30&#45;&gt;Node27</title>
<g id="a_edge40_Node000030_Node000027"><a xlink:title=" ">
<path fill="none" stroke="#63b8ff" d="M1163.01,-384.98C1140.9,-376.3 1106.38,-362.75 1081.24,-352.88"/>
<polygon fill="#63b8ff" stroke="#63b8ff" points="1082.37,-349.57 1071.78,-349.17 1079.81,-356.08 1082.37,-349.57"/>
</a>
</g>
</g>
<!-- Node30&#45;&gt;Node28 -->
<g id="edge37_Node000030_Node000028" class="edge">
<title>Node30&#45;&gt;Node28</title>
<g id="a_edge37_Node000030_Node000028"><a xlink:title=" ">
<path fill="none" stroke="#63b8ff" d="M1177.42,-384.66C1162.54,-366.61 1128.48,-325.28 1109.36,-302.08"/>
<polygon fill="#63b8ff" stroke="#63b8ff" points="1111.89,-299.65 1102.83,-294.16 1106.49,-304.1 1111.89,-299.65"/>
</a>
</g>
</g>
</g>
</svg>
