<?xml version="1.0" encoding="UTF-8" standalone="no"?>
<!DOCTYPE svg PUBLIC "-//W3C//DTD SVG 1.1//EN"
 "http://www.w3.org/Graphics/SVG/1.1/DTD/svg11.dtd">
<!-- Generated by graphviz version 2.43.0 (0)
 -->
<!-- Title: /home/harlen/dev/abcg2/abcg/abcg_vulkan_instance.hpp Pages: 1 -->
<svg width="667pt" height="184pt"
 viewBox="0.00 0.00 666.50 184.00" xmlns="http://www.w3.org/2000/svg" xmlns:xlink="http://www.w3.org/1999/xlink">
<g id="graph0" class="graph" transform="scale(1 1) rotate(0) translate(4 180)">
<title>/home/harlen/dev/abcg2/abcg/abcg_vulkan_instance.hpp</title>
<!-- Node1 -->
<g id="node1" class="node">
<title>Node1</title>
<g id="a_node1"><a xlink:title="Header file of abcg::VulkanInstance.">
<polygon fill="#bfbfbf" stroke="black" points="232.5,-145.5 232.5,-175.5 406.5,-175.5 406.5,-145.5 232.5,-145.5"/>
<text text-anchor="start" x="240.5" y="-163.5" font-family="Helvetica,sans-Serif" font-size="10.00">/home/harlen/dev/abcg2</text>
<text text-anchor="middle" x="319.5" y="-152.5" font-family="Helvetica,sans-Serif" font-size="10.00">/abcg/abcg_vulkan_instance.hpp</text>
</a>
</g>
</g>
<!-- Node2 -->
<g id="node2" class="node">
<title>Node2</title>
<g id="a_node2"><a xlink:href="abcg__vulkan__instance_8cpp.html" target="_top" xlink:title="Definition of abcg::VulkanInstance.">
<polygon fill="none" stroke="black" points="0,-73 0,-103 173,-103 173,-73 0,-73"/>
<text text-anchor="start" x="8" y="-91" font-family="Helvetica,sans-Serif" font-size="10.00">/home/harlen/dev/abcg2</text>
<text text-anchor="middle" x="86.5" y="-80" font-family="Helvetica,sans-Serif" font-size="10.00">/abcg/abcg_vulkan_instance.cpp</text>
</a>
</g>
</g>
<!-- Node1&#45;&gt;Node2 -->
<g id="edge1" class="edge">
<title>Node1&#45;&gt;Node2</title>
<path fill="none" stroke="midnightblue" d="M263.61,-142.59C223.73,-130.52 170.73,-114.48 133.12,-103.11"/>
<polygon fill="midnightblue" stroke="midnightblue" points="262.6,-145.94 273.19,-145.49 264.63,-139.24 262.6,-145.94"/>
</g>
<!-- Node3 -->
<g id="node3" class="node">
<title>Node3</title>
<g id="a_node3"><a xlink:href="abcg__vulkan__physical__device_8cpp.html" target="_top" xlink:title="Definition of abcg::VulkanPhysicalDevice.">
<polygon fill="none" stroke="black" points="191.5,-67.5 191.5,-108.5 343.5,-108.5 343.5,-67.5 191.5,-67.5"/>
<text text-anchor="start" x="199.5" y="-96.5" font-family="Helvetica,sans-Serif" font-size="10.00">/home/harlen/dev/abcg2</text>
<text text-anchor="start" x="199.5" y="-85.5" font-family="Helvetica,sans-Serif" font-size="10.00">/abcg/abcg_vulkan_physical</text>
<text text-anchor="middle" x="267.5" y="-74.5" font-family="Helvetica,sans-Serif" font-size="10.00">_device.cpp</text>
</a>
</g>
</g>
<!-- Node1&#45;&gt;Node3 -->
<g id="edge2" class="edge">
<title>Node1&#45;&gt;Node3</title>
<path fill="none" stroke="midnightblue" d="M302.89,-136.98C296.15,-127.85 288.45,-117.4 281.95,-108.59"/>
<polygon fill="midnightblue" stroke="midnightblue" points="300.22,-139.26 308.98,-145.23 305.86,-135.11 300.22,-139.26"/>
</g>
<!-- Node4 -->
<g id="node4" class="node">
<title>Node4</title>
<g id="a_node4"><a xlink:href="abcg__vulkan__window_8cpp.html" target="_top" xlink:title="Definition of abcg::VulkanWindow members.">
<polygon fill="none" stroke="black" points="287,-0.5 287,-30.5 456,-30.5 456,-0.5 287,-0.5"/>
<text text-anchor="start" x="295" y="-18.5" font-family="Helvetica,sans-Serif" font-size="10.00">/home/harlen/dev/abcg2</text>
<text text-anchor="middle" x="371.5" y="-7.5" font-family="Helvetica,sans-Serif" font-size="10.00">/abcg/abcg_vulkan_window.cpp</text>
</a>
</g>
</g>
<!-- Node1&#45;&gt;Node4 -->
<g id="edge3" class="edge">
<title>Node1&#45;&gt;Node4</title>
<path fill="none" stroke="midnightblue" d="M336.72,-137.12C342.49,-128.69 348.47,-118.77 352.5,-109 363.36,-82.62 368.24,-49.37 370.24,-30.77"/>
<polygon fill="midnightblue" stroke="midnightblue" points="333.85,-135.13 330.88,-145.3 339.54,-139.2 333.85,-135.13"/>
</g>
<!-- Node5 -->
<g id="node5" class="node">
<title>Node5</title>
<g id="a_node5"><a xlink:href="abcg__vulkan__window_8hpp.html" target="_top" xlink:title="Header file of abcg::VulkanWindow.">
<polygon fill="none" stroke="black" points="399.5,-73 399.5,-103 569.5,-103 569.5,-73 399.5,-73"/>
<text text-anchor="start" x="407.5" y="-91" font-family="Helvetica,sans-Serif" font-size="10.00">/home/harlen/dev/abcg2</text>
<text text-anchor="middle" x="484.5" y="-80" font-family="Helvetica,sans-Serif" font-size="10.00">/abcg/abcg_vulkan_window.hpp</text>
</a>
</g>
</g>
<!-- Node1&#45;&gt;Node5 -->
<g id="edge4" class="edge">
<title>Node1&#45;&gt;Node5</title>
<path fill="none" stroke="midnightblue" d="M361.99,-141.34C389.89,-129.42 425.84,-114.07 451.56,-103.07"/>
<polygon fill="midnightblue" stroke="midnightblue" points="360.31,-138.26 352.49,-145.4 363.06,-144.69 360.31,-138.26"/>
</g>
<!-- Node5&#45;&gt;Node4 -->
<g id="edge6" class="edge">
<title>Node5&#45;&gt;Node4</title>
<path fill="none" stroke="midnightblue" d="M453.38,-67.58C434.58,-55.86 411.06,-41.18 394.06,-30.57"/>
<polygon fill="midnightblue" stroke="midnightblue" points="451.57,-70.58 461.9,-72.9 455.27,-64.64 451.57,-70.58"/>
</g>
<!-- Node6 -->
<g id="node6" class="node">
<title>Node6</title>
<g id="a_node6"><a xlink:href="abcg__vulkan__swapchain_8cpp.html" target="_top" xlink:title="Definition of abcg::VulkanSwapchain.">
<polygon fill="none" stroke="black" points="474.5,-0.5 474.5,-30.5 658.5,-30.5 658.5,-0.5 474.5,-0.5"/>
<text text-anchor="start" x="482.5" y="-18.5" font-family="Helvetica,sans-Serif" font-size="10.00">/home/harlen/dev/abcg2</text>
<text text-anchor="middle" x="566.5" y="-7.5" font-family="Helvetica,sans-Serif" font-size="10.00">/abcg/abcg_vulkan_swapchain.cpp</text>
</a>
</g>
</g>
<!-- Node5&#45;&gt;Node6 -->
<g id="edge5" class="edge">
<title>Node5&#45;&gt;Node6</title>
<path fill="none" stroke="midnightblue" d="M508.97,-65.96C522.3,-54.5 538.43,-40.64 550.21,-30.5"/>
<polygon fill="midnightblue" stroke="midnightblue" points="506.39,-63.56 501.09,-72.73 510.96,-68.87 506.39,-63.56"/>
</g>
</g>
</svg>
