<?xml version="1.0" encoding="UTF-8" standalone="no"?>
<!DOCTYPE svg PUBLIC "-//W3C//DTD SVG 1.1//EN"
 "http://www.w3.org/Graphics/SVG/1.1/DTD/svg11.dtd">
<!-- Generated by graphviz version 2.43.0 (0)
 -->
<!-- Title: /home/harlen/dev/abcg/abcg/abcgOpenGLShader.cpp Pages: 1 -->
<svg width="947pt" height="207pt"
 viewBox="0.00 0.00 946.54 207.00" xmlns="http://www.w3.org/2000/svg" xmlns:xlink="http://www.w3.org/1999/xlink">
<g id="graph0" class="graph" transform="scale(1 1) rotate(0) translate(4 203)">
<title>/home/harlen/dev/abcg/abcg/abcgOpenGLShader.cpp</title>
<!-- Node1 -->
<g id="node1" class="node">
<title>Node1</title>
<g id="a_node1"><a xlink:title="Definition of helper functions for building OpenGL shaders.">
<polygon fill="#bfbfbf" stroke="black" points="367.54,-168.5 367.54,-198.5 528.54,-198.5 528.54,-168.5 367.54,-168.5"/>
<text text-anchor="start" x="375.54" y="-186.5" font-family="Helvetica,sans-Serif" font-size="10.00">/home/harlen/dev/abcg</text>
<text text-anchor="middle" x="448.04" y="-175.5" font-family="Helvetica,sans-Serif" font-size="10.00">/abcg/abcgOpenGLShader.cpp</text>
</a>
</g>
</g>
<!-- Node2 -->
<g id="node2" class="node">
<title>Node2</title>
<g id="a_node2"><a xlink:href="abcgOpenGLShader_8hpp.html" target="_top" xlink:title="Declaration of helper functions for building OpenGL shaders.">
<polygon fill="none" stroke="black" points="69.04,-112.5 69.04,-131.5 201.04,-131.5 201.04,-112.5 69.04,-112.5"/>
<text text-anchor="middle" x="135.04" y="-119.5" font-family="Helvetica,sans-Serif" font-size="10.00">abcgOpenGLShader.hpp</text>
</a>
</g>
</g>
<!-- Node1&#45;&gt;Node2 -->
<g id="edge1" class="edge">
<title>Node1&#45;&gt;Node2</title>
<path fill="none" stroke="midnightblue" d="M374.26,-168.47C317.67,-157.72 240.82,-143.11 189.66,-133.38"/>
<polygon fill="midnightblue" stroke="midnightblue" points="190.27,-129.94 179.79,-131.51 188.96,-136.81 190.27,-129.94"/>
</g>
<!-- Node5 -->
<g id="node5" class="node">
<title>Node5</title>
<g id="a_node5"><a xlink:title=" ">
<polygon fill="none" stroke="#bfbfbf" points="111.04,-0.5 111.04,-19.5 167.04,-19.5 167.04,-0.5 111.04,-0.5"/>
<text text-anchor="middle" x="139.04" y="-7.5" font-family="Helvetica,sans-Serif" font-size="10.00">optional</text>
</a>
</g>
</g>
<!-- Node1&#45;&gt;Node5 -->
<g id="edge14" class="edge">
<title>Node1&#45;&gt;Node5</title>
<path fill="none" stroke="midnightblue" d="M367.14,-180.4C264.98,-176.39 96.23,-164.86 44.04,-132 12.41,-112.09 -13.67,-86.42 8.04,-56 28.91,-26.76 70.03,-16.32 100.66,-12.7"/>
<polygon fill="midnightblue" stroke="midnightblue" points="101.4,-16.14 111.01,-11.68 100.72,-9.18 101.4,-16.14"/>
</g>
<!-- Node7 -->
<g id="node7" class="node">
<title>Node7</title>
<g id="a_node7"><a xlink:title=" ">
<polygon fill="none" stroke="#bfbfbf" points="17.54,-56.5 17.54,-75.5 64.54,-75.5 64.54,-56.5 17.54,-56.5"/>
<text text-anchor="middle" x="41.04" y="-63.5" font-family="Helvetica,sans-Serif" font-size="10.00">vector</text>
</a>
</g>
</g>
<!-- Node1&#45;&gt;Node7 -->
<g id="edge16" class="edge">
<title>Node1&#45;&gt;Node7</title>
<path fill="none" stroke="midnightblue" d="M367.51,-182.09C267.58,-179.92 104.87,-170.37 60.04,-132 46.8,-120.67 42.52,-100.67 41.27,-85.84"/>
<polygon fill="midnightblue" stroke="midnightblue" points="44.76,-85.56 40.8,-75.73 37.77,-85.88 44.76,-85.56"/>
</g>
<!-- Node8 -->
<g id="node8" class="node">
<title>Node8</title>
<g id="a_node8"><a xlink:href="abcgApplication_8hpp.html" target="_top" xlink:title="Header file of abcg::Application.">
<polygon fill="none" stroke="black" points="353.04,-56.5 353.04,-75.5 469.04,-75.5 469.04,-56.5 353.04,-56.5"/>
<text text-anchor="middle" x="411.04" y="-63.5" font-family="Helvetica,sans-Serif" font-size="10.00">abcgApplication.hpp</text>
</a>
</g>
</g>
<!-- Node1&#45;&gt;Node8 -->
<g id="edge7" class="edge">
<title>Node1&#45;&gt;Node8</title>
<path fill="none" stroke="midnightblue" d="M367.54,-172.32C318.72,-164.31 263.03,-151.25 248.04,-132 242.58,-124.99 242.66,-119.07 248.04,-112 259.93,-96.39 303.84,-84.81 343.1,-77.31"/>
<polygon fill="midnightblue" stroke="midnightblue" points="343.75,-80.75 352.95,-75.49 342.48,-73.87 343.75,-80.75"/>
</g>
<!-- Node9 -->
<g id="node9" class="node">
<title>Node9</title>
<g id="a_node9"><a xlink:title=" ">
<polygon fill="none" stroke="#bfbfbf" points="257.54,-112.5 257.54,-131.5 396.54,-131.5 396.54,-112.5 257.54,-112.5"/>
<text text-anchor="middle" x="327.04" y="-119.5" font-family="Helvetica,sans-Serif" font-size="10.00">cppitertools/itertools.hpp</text>
</a>
</g>
</g>
<!-- Node1&#45;&gt;Node9 -->
<g id="edge9" class="edge">
<title>Node1&#45;&gt;Node9</title>
<path fill="none" stroke="midnightblue" d="M419.37,-168.4C399.52,-158.64 373.28,-145.74 353.85,-136.18"/>
<polygon fill="midnightblue" stroke="midnightblue" points="355.17,-132.93 344.65,-131.66 352.08,-139.21 355.17,-132.93"/>
</g>
<!-- Node10 -->
<g id="node10" class="node">
<title>Node10</title>
<g id="a_node10"><a xlink:title=" ">
<polygon fill="none" stroke="#bfbfbf" points="414.54,-112.5 414.54,-131.5 481.54,-131.5 481.54,-112.5 414.54,-112.5"/>
<text text-anchor="middle" x="448.04" y="-119.5" font-family="Helvetica,sans-Serif" font-size="10.00">fmt/core.h</text>
</a>
</g>
</g>
<!-- Node1&#45;&gt;Node10 -->
<g id="edge10" class="edge">
<title>Node1&#45;&gt;Node10</title>
<path fill="none" stroke="midnightblue" d="M448.04,-168.4C448.04,-160.47 448.04,-150.46 448.04,-141.86"/>
<polygon fill="midnightblue" stroke="midnightblue" points="451.54,-141.66 448.04,-131.66 444.54,-141.66 451.54,-141.66"/>
</g>
<!-- Node11 -->
<g id="node11" class="node">
<title>Node11</title>
<g id="a_node11"><a xlink:title=" ">
<polygon fill="none" stroke="#bfbfbf" points="500.04,-112.5 500.04,-131.5 548.04,-131.5 548.04,-112.5 500.04,-112.5"/>
<text text-anchor="middle" x="524.04" y="-119.5" font-family="Helvetica,sans-Serif" font-size="10.00">gsl/gsl</text>
</a>
</g>
</g>
<!-- Node1&#45;&gt;Node11 -->
<g id="edge11" class="edge">
<title>Node1&#45;&gt;Node11</title>
<path fill="none" stroke="midnightblue" d="M466.05,-168.4C477.78,-159.22 493.06,-147.26 504.99,-137.92"/>
<polygon fill="midnightblue" stroke="midnightblue" points="507.27,-140.58 512.98,-131.66 502.95,-135.07 507.27,-140.58"/>
</g>
<!-- Node12 -->
<g id="node12" class="node">
<title>Node12</title>
<g id="a_node12"><a xlink:title=" ">
<polygon fill="none" stroke="#bfbfbf" points="566.04,-112.5 566.04,-131.5 634.04,-131.5 634.04,-112.5 566.04,-112.5"/>
<text text-anchor="middle" x="600.04" y="-119.5" font-family="Helvetica,sans-Serif" font-size="10.00">filesystem</text>
</a>
</g>
</g>
<!-- Node1&#45;&gt;Node12 -->
<g id="edge12" class="edge">
<title>Node1&#45;&gt;Node12</title>
<path fill="none" stroke="midnightblue" d="M484.06,-168.4C509.68,-158.37 543.77,-145.03 568.35,-135.4"/>
<polygon fill="midnightblue" stroke="midnightblue" points="569.89,-138.56 577.92,-131.66 567.34,-132.04 569.89,-138.56"/>
</g>
<!-- Node13 -->
<g id="node13" class="node">
<title>Node13</title>
<g id="a_node13"><a xlink:title=" ">
<polygon fill="none" stroke="#bfbfbf" points="652.54,-112.5 652.54,-131.5 707.54,-131.5 707.54,-112.5 652.54,-112.5"/>
<text text-anchor="middle" x="680.04" y="-119.5" font-family="Helvetica,sans-Serif" font-size="10.00">fstream</text>
</a>
</g>
</g>
<!-- Node1&#45;&gt;Node13 -->
<g id="edge13" class="edge">
<title>Node1&#45;&gt;Node13</title>
<path fill="none" stroke="midnightblue" d="M502.73,-168.47C545.71,-157.45 604.45,-142.39 642.32,-132.67"/>
<polygon fill="midnightblue" stroke="midnightblue" points="643.6,-135.96 652.42,-130.08 641.86,-129.18 643.6,-135.96"/>
</g>
<!-- Node14 -->
<g id="node14" class="node">
<title>Node14</title>
<g id="a_node14"><a xlink:title=" ">
<polygon fill="none" stroke="#bfbfbf" points="726.04,-112.5 726.04,-131.5 782.04,-131.5 782.04,-112.5 726.04,-112.5"/>
<text text-anchor="middle" x="754.04" y="-119.5" font-family="Helvetica,sans-Serif" font-size="10.00">sstream</text>
</a>
</g>
</g>
<!-- Node1&#45;&gt;Node14 -->
<g id="edge15" class="edge">
<title>Node1&#45;&gt;Node14</title>
<path fill="none" stroke="midnightblue" d="M528.6,-168.53C579.65,-159.41 647.29,-146.82 715.7,-132.21"/>
<polygon fill="midnightblue" stroke="midnightblue" points="716.75,-135.56 725.79,-130.03 715.28,-128.71 716.75,-135.56"/>
</g>
<!-- Node15 -->
<g id="node15" class="node">
<title>Node15</title>
<g id="a_node15"><a xlink:href="abcgException_8hpp.html" target="_top" xlink:title="Header file of abcg::Exception and derived classes.">
<polygon fill="none" stroke="black" points="800.54,-112.5 800.54,-131.5 909.54,-131.5 909.54,-112.5 800.54,-112.5"/>
<text text-anchor="middle" x="855.04" y="-119.5" font-family="Helvetica,sans-Serif" font-size="10.00">abcgException.hpp</text>
</a>
</g>
</g>
<!-- Node1&#45;&gt;Node15 -->
<g id="edge17" class="edge">
<title>Node1&#45;&gt;Node15</title>
<path fill="none" stroke="midnightblue" d="M528.94,-170.67C605.61,-159.46 719.3,-142.84 790.19,-132.48"/>
<polygon fill="midnightblue" stroke="midnightblue" points="790.94,-135.91 800.33,-131 789.93,-128.98 790.94,-135.91"/>
</g>
<!-- Node3 -->
<g id="node3" class="node">
<title>Node3</title>
<g id="a_node3"><a xlink:href="abcgOpenGLExternal_8hpp.html" target="_top" xlink:title="Header file for including OpenGL&#45;related third&#45;party dependencies.">
<polygon fill="none" stroke="black" points="83.04,-56.5 83.04,-75.5 223.04,-75.5 223.04,-56.5 83.04,-56.5"/>
<text text-anchor="middle" x="153.04" y="-63.5" font-family="Helvetica,sans-Serif" font-size="10.00">abcgOpenGLExternal.hpp</text>
</a>
</g>
</g>
<!-- Node2&#45;&gt;Node3 -->
<g id="edge2" class="edge">
<title>Node2&#45;&gt;Node3</title>
<path fill="none" stroke="midnightblue" d="M138.01,-112.08C140.42,-104.85 143.9,-94.41 146.91,-85.4"/>
<polygon fill="midnightblue" stroke="midnightblue" points="150.28,-86.34 150.12,-75.75 143.64,-84.13 150.28,-86.34"/>
</g>
<!-- Node4 -->
<g id="node4" class="node">
<title>Node4</title>
<g id="a_node4"><a xlink:href="abcgShader_8hpp.html" target="_top" xlink:title="Declaration of a structure for building shaders.">
<polygon fill="none" stroke="black" points="241.04,-56.5 241.04,-75.5 335.04,-75.5 335.04,-56.5 241.04,-56.5"/>
<text text-anchor="middle" x="288.04" y="-63.5" font-family="Helvetica,sans-Serif" font-size="10.00">abcgShader.hpp</text>
</a>
</g>
</g>
<!-- Node2&#45;&gt;Node4 -->
<g id="edge3" class="edge">
<title>Node2&#45;&gt;Node4</title>
<path fill="none" stroke="midnightblue" d="M159.28,-112.44C184.91,-103.4 225.53,-89.06 254.28,-78.92"/>
<polygon fill="midnightblue" stroke="midnightblue" points="255.65,-82.15 263.91,-75.52 253.32,-75.54 255.65,-82.15"/>
</g>
<!-- Node2&#45;&gt;Node7 -->
<g id="edge6" class="edge">
<title>Node2&#45;&gt;Node7</title>
<path fill="none" stroke="midnightblue" d="M119.94,-112.32C105.14,-103.82 82.35,-90.73 65.06,-80.8"/>
<polygon fill="midnightblue" stroke="midnightblue" points="66.52,-77.6 56.11,-75.65 63.03,-83.67 66.52,-77.6"/>
</g>
<!-- Node4&#45;&gt;Node5 -->
<g id="edge4" class="edge">
<title>Node4&#45;&gt;Node5</title>
<path fill="none" stroke="midnightblue" d="M264.43,-56.44C239.58,-47.44 200.27,-33.19 172.29,-23.05"/>
<polygon fill="midnightblue" stroke="midnightblue" points="173.13,-19.63 162.54,-19.52 170.75,-26.21 173.13,-19.63"/>
</g>
<!-- Node6 -->
<g id="node6" class="node">
<title>Node6</title>
<g id="a_node6"><a xlink:title=" ">
<polygon fill="none" stroke="#bfbfbf" points="389.04,-0.5 389.04,-19.5 433.04,-19.5 433.04,-0.5 389.04,-0.5"/>
<text text-anchor="middle" x="411.04" y="-7.5" font-family="Helvetica,sans-Serif" font-size="10.00">string</text>
</a>
</g>
</g>
<!-- Node4&#45;&gt;Node6 -->
<g id="edge5" class="edge">
<title>Node4&#45;&gt;Node6</title>
<path fill="none" stroke="midnightblue" d="M307.53,-56.44C327.68,-47.6 359.36,-33.69 382.37,-23.59"/>
<polygon fill="midnightblue" stroke="midnightblue" points="383.89,-26.74 391.64,-19.52 381.08,-20.33 383.89,-26.74"/>
</g>
<!-- Node8&#45;&gt;Node6 -->
<g id="edge8" class="edge">
<title>Node8&#45;&gt;Node6</title>
<path fill="none" stroke="midnightblue" d="M411.04,-56.08C411.04,-49.01 411.04,-38.86 411.04,-29.99"/>
<polygon fill="midnightblue" stroke="midnightblue" points="414.54,-29.75 411.04,-19.75 407.54,-29.75 414.54,-29.75"/>
</g>
<!-- Node15&#45;&gt;Node6 -->
<g id="edge20" class="edge">
<title>Node15&#45;&gt;Node6</title>
<path fill="none" stroke="midnightblue" d="M850.4,-112.45C842.05,-98.02 823.03,-69.11 798.04,-56 736.57,-23.74 524.83,-14.28 443.35,-11.8"/>
<polygon fill="midnightblue" stroke="midnightblue" points="443.29,-8.3 433.19,-11.51 443.08,-15.29 443.29,-8.3"/>
</g>
<!-- Node16 -->
<g id="node16" class="node">
<title>Node16</title>
<g id="a_node16"><a xlink:title=" ">
<polygon fill="none" stroke="#bfbfbf" points="845.54,-56.5 845.54,-75.5 938.54,-75.5 938.54,-56.5 845.54,-56.5"/>
<text text-anchor="middle" x="892.04" y="-63.5" font-family="Helvetica,sans-Serif" font-size="10.00">source_location</text>
</a>
</g>
</g>
<!-- Node15&#45;&gt;Node16 -->
<g id="edge18" class="edge">
<title>Node15&#45;&gt;Node16</title>
<path fill="none" stroke="midnightblue" d="M861.15,-112.08C866.32,-104.53 873.89,-93.49 880.24,-84.23"/>
<polygon fill="midnightblue" stroke="midnightblue" points="883.28,-85.98 886.04,-75.75 877.51,-82.02 883.28,-85.98"/>
</g>
<!-- Node17 -->
<g id="node17" class="node">
<title>Node17</title>
<g id="a_node17"><a xlink:title=" ">
<polygon fill="none" stroke="#bfbfbf" points="723.54,-56.5 723.54,-75.5 788.54,-75.5 788.54,-56.5 723.54,-56.5"/>
<text text-anchor="middle" x="756.04" y="-63.5" font-family="Helvetica,sans-Serif" font-size="10.00">stdexcept</text>
</a>
</g>
</g>
<!-- Node15&#45;&gt;Node17 -->
<g id="edge19" class="edge">
<title>Node15&#45;&gt;Node17</title>
<path fill="none" stroke="midnightblue" d="M839.13,-112.32C823.4,-103.74 799.1,-90.49 780.83,-80.52"/>
<polygon fill="midnightblue" stroke="midnightblue" points="782.36,-77.37 771.91,-75.65 779.01,-83.52 782.36,-77.37"/>
</g>
</g>
</svg>
