<?xml version="1.0" encoding="UTF-8" standalone="no"?>
<!DOCTYPE svg PUBLIC "-//W3C//DTD SVG 1.1//EN"
 "http://www.w3.org/Graphics/SVG/1.1/DTD/svg11.dtd">
<!-- Generated by graphviz version 2.43.0 (0)
 -->
<!-- Title: /home/harlen/dev/abcg/abcg/abcgUtil.hpp Pages: 1 -->
<svg width="679pt" height="236pt"
 viewBox="0.00 0.00 679.00 236.00" xmlns="http://www.w3.org/2000/svg" xmlns:xlink="http://www.w3.org/1999/xlink">
<g id="graph0" class="graph" transform="scale(1 1) rotate(0) translate(4 232)">
<title>/home/harlen/dev/abcg/abcg/abcgUtil.hpp</title>
<!-- Node1 -->
<g id="Node000001" class="node">
<title>Node1</title>
<g id="a_Node000001"><a xlink:title="Declaration of general utility functions.">
<polygon fill="#999999" stroke="#666666" points="433,-228 305,-228 305,-198 433,-198 433,-228"/>
<text text-anchor="start" x="313" y="-216" font-family="Helvetica,sans-Serif" font-size="10.00">/home/harlen/dev/abcg</text>
<text text-anchor="middle" x="369" y="-205" font-family="Helvetica,sans-Serif" font-size="10.00">/abcg/abcgUtil.hpp</text>
</a>
</g>
</g>
<!-- Node2 -->
<g id="Node000002" class="node">
<title>Node2</title>
<g id="a_Node000002"><a xlink:href="abcg_8hpp.html" target="_top" xlink:title="Shortcut header that includes the most common ABCg headers.">
<polygon fill="white" stroke="#666666" points="201,-162 73,-162 73,-132 201,-132 201,-162"/>
<text text-anchor="start" x="81" y="-150" font-family="Helvetica,sans-Serif" font-size="10.00">/home/harlen/dev/abcg</text>
<text text-anchor="middle" x="137" y="-139" font-family="Helvetica,sans-Serif" font-size="10.00">/abcg/abcg.hpp</text>
</a>
</g>
</g>
<!-- Node1&#45;&gt;Node2 -->
<g id="edge1_Node000001_Node000002" class="edge">
<title>Node1&#45;&gt;Node2</title>
<g id="a_edge1_Node000001_Node000002"><a xlink:title=" ">
<path fill="none" stroke="#63b8ff" d="M308.29,-195.25C270.81,-184.91 223.28,-171.8 187.79,-162.01"/>
<polygon fill="#63b8ff" stroke="#63b8ff" points="307.52,-198.67 318.09,-197.95 309.38,-191.92 307.52,-198.67"/>
</a>
</g>
</g>
<!-- Node6 -->
<g id="Node000006" class="node">
<title>Node6</title>
<g id="a_Node000006"><a xlink:href="abcgException_8cpp.html" target="_top" xlink:title="Definition of abcg::Exception members.">
<polygon fill="white" stroke="#666666" points="356.5,-162 219.5,-162 219.5,-132 356.5,-132 356.5,-162"/>
<text text-anchor="start" x="227.5" y="-150" font-family="Helvetica,sans-Serif" font-size="10.00">/home/harlen/dev/abcg</text>
<text text-anchor="middle" x="288" y="-139" font-family="Helvetica,sans-Serif" font-size="10.00">/abcg/abcgException.cpp</text>
</a>
</g>
</g>
<!-- Node1&#45;&gt;Node6 -->
<g id="edge5_Node000001_Node000006" class="edge">
<title>Node1&#45;&gt;Node6</title>
<g id="a_edge5_Node000001_Node000006"><a xlink:title=" ">
<path fill="none" stroke="#63b8ff" d="M343.03,-191.48C330.92,-181.91 316.82,-170.77 305.93,-162.16"/>
<polygon fill="#63b8ff" stroke="#63b8ff" points="341.01,-194.34 351.02,-197.8 345.35,-188.85 341.01,-194.34"/>
</a>
</g>
</g>
<!-- Node7 -->
<g id="Node000007" class="node">
<title>Node7</title>
<g id="a_Node000007"><a xlink:href="abcgOpenGLError_8cpp.html" target="_top" xlink:title="Definition of abcg::OpenGLError members.">
<polygon fill="white" stroke="#666666" points="525,-162 375,-162 375,-132 525,-132 525,-162"/>
<text text-anchor="start" x="383" y="-150" font-family="Helvetica,sans-Serif" font-size="10.00">/home/harlen/dev/abcg</text>
<text text-anchor="middle" x="450" y="-139" font-family="Helvetica,sans-Serif" font-size="10.00">/abcg/abcgOpenGLError.cpp</text>
</a>
</g>
</g>
<!-- Node1&#45;&gt;Node7 -->
<g id="edge6_Node000001_Node000007" class="edge">
<title>Node1&#45;&gt;Node7</title>
<g id="a_edge6_Node000001_Node000007"><a xlink:title=" ">
<path fill="none" stroke="#63b8ff" d="M394.97,-191.48C407.08,-181.91 421.18,-170.77 432.07,-162.16"/>
<polygon fill="#63b8ff" stroke="#63b8ff" points="392.65,-188.85 386.98,-197.8 396.99,-194.34 392.65,-188.85"/>
</a>
</g>
</g>
<!-- Node8 -->
<g id="Node000008" class="node">
<title>Node8</title>
<g id="a_Node000008"><a xlink:href="abcgUtil_8cpp.html" target="_top" xlink:title="General utility functions.">
<polygon fill="white" stroke="#666666" points="671,-162 543,-162 543,-132 671,-132 671,-162"/>
<text text-anchor="start" x="551" y="-150" font-family="Helvetica,sans-Serif" font-size="10.00">/home/harlen/dev/abcg</text>
<text text-anchor="middle" x="607" y="-139" font-family="Helvetica,sans-Serif" font-size="10.00">/abcg/abcgUtil.cpp</text>
</a>
</g>
</g>
<!-- Node1&#45;&gt;Node8 -->
<g id="edge7_Node000001_Node000008" class="edge">
<title>Node1&#45;&gt;Node8</title>
<g id="a_edge7_Node000001_Node000008"><a xlink:title=" ">
<path fill="none" stroke="#63b8ff" d="M431.28,-195.25C469.73,-184.91 518.49,-171.8 554.89,-162.01"/>
<polygon fill="#63b8ff" stroke="#63b8ff" points="429.98,-191.98 421.23,-197.95 431.8,-198.74 429.98,-191.98"/>
</a>
</g>
</g>
<!-- Node3 -->
<g id="Node000003" class="node">
<title>Node3</title>
<g id="a_Node000003"><a xlink:href="abcgOpenGL_8hpp.html" target="_top" xlink:title="Header file for OpenGL&#45;related functions and classes.">
<polygon fill="white" stroke="#666666" points="128,-96 0,-96 0,-66 128,-66 128,-96"/>
<text text-anchor="start" x="8" y="-84" font-family="Helvetica,sans-Serif" font-size="10.00">/home/harlen/dev/abcg</text>
<text text-anchor="middle" x="64" y="-73" font-family="Helvetica,sans-Serif" font-size="10.00">/abcg/abcgOpenGL.hpp</text>
</a>
</g>
</g>
<!-- Node2&#45;&gt;Node3 -->
<g id="edge2_Node000002_Node000003" class="edge">
<title>Node2&#45;&gt;Node3</title>
<g id="a_edge2_Node000002_Node000003"><a xlink:title=" ">
<path fill="none" stroke="#63b8ff" d="M113.28,-125.2C102.44,-115.7 89.88,-104.69 80.16,-96.16"/>
<polygon fill="#63b8ff" stroke="#63b8ff" points="110.97,-127.84 120.8,-131.8 115.59,-122.57 110.97,-127.84"/>
</a>
</g>
</g>
<!-- Node4 -->
<g id="Node000004" class="node">
<title>Node4</title>
<g id="a_Node000004"><a xlink:href="abcgVulkan_8hpp.html" target="_top" xlink:title="Header file for Vulkan&#45;related functions and classes.">
<polygon fill="white" stroke="#666666" points="274,-96 146,-96 146,-66 274,-66 274,-96"/>
<text text-anchor="start" x="154" y="-84" font-family="Helvetica,sans-Serif" font-size="10.00">/home/harlen/dev/abcg</text>
<text text-anchor="middle" x="210" y="-73" font-family="Helvetica,sans-Serif" font-size="10.00">/abcg/abcgVulkan.hpp</text>
</a>
</g>
</g>
<!-- Node2&#45;&gt;Node4 -->
<g id="edge3_Node000002_Node000004" class="edge">
<title>Node2&#45;&gt;Node4</title>
<g id="a_edge3_Node000002_Node000004"><a xlink:title=" ">
<path fill="none" stroke="#63b8ff" d="M160.72,-125.2C171.56,-115.7 184.12,-104.69 193.84,-96.16"/>
<polygon fill="#63b8ff" stroke="#63b8ff" points="158.41,-122.57 153.2,-131.8 163.03,-127.84 158.41,-122.57"/>
</a>
</g>
</g>
<!-- Node5 -->
<g id="Node000005" class="node">
<title>Node5</title>
<g id="a_Node000005"><a xlink:href="abcgVulkanInstance_8cpp.html" target="_top" xlink:title="Definition of abcg::VulkanInstance.">
<polygon fill="white" stroke="#666666" points="291.5,-30 128.5,-30 128.5,0 291.5,0 291.5,-30"/>
<text text-anchor="start" x="136.5" y="-18" font-family="Helvetica,sans-Serif" font-size="10.00">/home/harlen/dev/abcg</text>
<text text-anchor="middle" x="210" y="-7" font-family="Helvetica,sans-Serif" font-size="10.00">/abcg/abcgVulkanInstance.cpp</text>
</a>
</g>
</g>
<!-- Node4&#45;&gt;Node5 -->
<g id="edge4_Node000004_Node000005" class="edge">
<title>Node4&#45;&gt;Node5</title>
<g id="a_edge4_Node000004_Node000005"><a xlink:title=" ">
<path fill="none" stroke="#63b8ff" d="M210,-55.54C210,-46.96 210,-37.61 210,-30.16"/>
<polygon fill="#63b8ff" stroke="#63b8ff" points="206.5,-55.8 210,-65.8 213.5,-55.8 206.5,-55.8"/>
</a>
</g>
</g>
</g>
</svg>
