<?xml version="1.0" encoding="UTF-8" standalone="no"?>
<!DOCTYPE svg PUBLIC "-//W3C//DTD SVG 1.1//EN"
 "http://www.w3.org/Graphics/SVG/1.1/DTD/svg11.dtd">
<!-- Generated by graphviz version 2.43.0 (0)
 -->
<!-- Title: /home/harlen/dev/abcg/abcg/abcgVulkanShader.hpp Pages: 1 -->
<svg width="306pt" height="319pt"
 viewBox="0.00 0.00 305.50 319.00" xmlns="http://www.w3.org/2000/svg" xmlns:xlink="http://www.w3.org/1999/xlink">
<g id="graph0" class="graph" transform="scale(1 1) rotate(0) translate(4 315)">
<title>/home/harlen/dev/abcg/abcg/abcgVulkanShader.hpp</title>
<!-- Node1 -->
<g id="node1" class="node">
<title>Node1</title>
<g id="a_node1"><a xlink:title="Declaration of helper functions for creating Vulkan shaders.">
<polygon fill="#bfbfbf" stroke="black" points="42.5,-280.5 42.5,-310.5 197.5,-310.5 197.5,-280.5 42.5,-280.5"/>
<text text-anchor="start" x="50.5" y="-298.5" font-family="Helvetica,sans-Serif" font-size="10.00">/home/harlen/dev/abcg</text>
<text text-anchor="middle" x="120" y="-287.5" font-family="Helvetica,sans-Serif" font-size="10.00">/abcg/abcgVulkanShader.hpp</text>
</a>
</g>
</g>
<!-- Node2 -->
<g id="node2" class="node">
<title>Node2</title>
<g id="a_node2"><a xlink:href="abcgShader_8hpp.html" target="_top" xlink:title="Declaration of a structure for building shaders.">
<polygon fill="none" stroke="black" points="9,-224.5 9,-243.5 103,-243.5 103,-224.5 9,-224.5"/>
<text text-anchor="middle" x="56" y="-231.5" font-family="Helvetica,sans-Serif" font-size="10.00">abcgShader.hpp</text>
</a>
</g>
</g>
<!-- Node1&#45;&gt;Node2 -->
<g id="edge1" class="edge">
<title>Node1&#45;&gt;Node2</title>
<path fill="none" stroke="midnightblue" d="M104.83,-280.4C95.25,-271.49 82.84,-259.95 72.93,-250.74"/>
<polygon fill="midnightblue" stroke="midnightblue" points="75.02,-247.9 65.31,-243.66 70.25,-253.03 75.02,-247.9"/>
</g>
<!-- Node5 -->
<g id="node5" class="node">
<title>Node5</title>
<g id="a_node5"><a xlink:href="abcgVulkanDevice_8hpp.html" target="_top" xlink:title="Header file of abcg::VulkanDevice.">
<polygon fill="none" stroke="black" points="121.5,-224.5 121.5,-243.5 248.5,-243.5 248.5,-224.5 121.5,-224.5"/>
<text text-anchor="middle" x="185" y="-231.5" font-family="Helvetica,sans-Serif" font-size="10.00">abcgVulkanDevice.hpp</text>
</a>
</g>
</g>
<!-- Node1&#45;&gt;Node5 -->
<g id="edge4" class="edge">
<title>Node1&#45;&gt;Node5</title>
<path fill="none" stroke="midnightblue" d="M135.4,-280.4C145.24,-271.4 157.99,-259.72 168.11,-250.47"/>
<polygon fill="midnightblue" stroke="midnightblue" points="170.53,-252.99 175.54,-243.66 165.8,-247.83 170.53,-252.99"/>
</g>
<!-- Node3 -->
<g id="node3" class="node">
<title>Node3</title>
<g id="a_node3"><a xlink:title=" ">
<polygon fill="none" stroke="#bfbfbf" points="0,-112.5 0,-131.5 56,-131.5 56,-112.5 0,-112.5"/>
<text text-anchor="middle" x="28" y="-119.5" font-family="Helvetica,sans-Serif" font-size="10.00">optional</text>
</a>
</g>
</g>
<!-- Node2&#45;&gt;Node3 -->
<g id="edge2" class="edge">
<title>Node2&#45;&gt;Node3</title>
<path fill="none" stroke="midnightblue" d="M48.59,-224.41C41.72,-215.84 31.99,-201.98 28,-188 23.68,-172.89 24.06,-154.99 25.31,-141.81"/>
<polygon fill="midnightblue" stroke="midnightblue" points="28.81,-141.97 26.52,-131.62 21.86,-141.13 28.81,-141.97"/>
</g>
<!-- Node4 -->
<g id="node4" class="node">
<title>Node4</title>
<g id="a_node4"><a xlink:title=" ">
<polygon fill="none" stroke="#bfbfbf" points="37,-168.5 37,-187.5 81,-187.5 81,-168.5 37,-168.5"/>
<text text-anchor="middle" x="59" y="-175.5" font-family="Helvetica,sans-Serif" font-size="10.00">string</text>
</a>
</g>
</g>
<!-- Node2&#45;&gt;Node4 -->
<g id="edge3" class="edge">
<title>Node2&#45;&gt;Node4</title>
<path fill="none" stroke="midnightblue" d="M56.5,-224.08C56.89,-217.01 57.45,-206.86 57.95,-197.99"/>
<polygon fill="midnightblue" stroke="midnightblue" points="61.45,-197.93 58.51,-187.75 54.46,-197.54 61.45,-197.93"/>
</g>
<!-- Node6 -->
<g id="node6" class="node">
<title>Node6</title>
<g id="a_node6"><a xlink:href="abcgVulkanExternal_8hpp.html" target="_top" xlink:title="Header file for including Vulkan&#45;related dependencies.">
<polygon fill="none" stroke="black" points="131,-56.5 131,-75.5 265,-75.5 265,-56.5 131,-56.5"/>
<text text-anchor="middle" x="198" y="-63.5" font-family="Helvetica,sans-Serif" font-size="10.00">abcgVulkanExternal.hpp</text>
</a>
</g>
</g>
<!-- Node5&#45;&gt;Node6 -->
<g id="edge5" class="edge">
<title>Node5&#45;&gt;Node6</title>
<path fill="none" stroke="midnightblue" d="M221.7,-224.35C240.83,-217.77 262.57,-206.58 274,-188 291.69,-159.23 290.73,-141.34 274,-112 265.59,-97.25 250.23,-86.84 235.52,-79.77"/>
<polygon fill="midnightblue" stroke="midnightblue" points="236.58,-76.42 226.02,-75.6 233.76,-82.83 236.58,-76.42"/>
</g>
<!-- Node9 -->
<g id="node9" class="node">
<title>Node9</title>
<g id="a_node9"><a xlink:href="abcgVulkanPhysicalDevice_8hpp.html" target="_top" xlink:title="Header file of abcg::VulkanPhysicalDevice.">
<polygon fill="none" stroke="black" points="98.5,-168.5 98.5,-187.5 265.5,-187.5 265.5,-168.5 98.5,-168.5"/>
<text text-anchor="middle" x="182" y="-175.5" font-family="Helvetica,sans-Serif" font-size="10.00">abcgVulkanPhysicalDevice.hpp</text>
</a>
</g>
</g>
<!-- Node5&#45;&gt;Node9 -->
<g id="edge8" class="edge">
<title>Node5&#45;&gt;Node9</title>
<path fill="none" stroke="midnightblue" d="M184.5,-224.08C184.11,-217.01 183.55,-206.86 183.05,-197.99"/>
<polygon fill="midnightblue" stroke="midnightblue" points="186.54,-197.54 182.49,-187.75 179.55,-197.93 186.54,-197.54"/>
</g>
<!-- Node7 -->
<g id="node7" class="node">
<title>Node7</title>
<g id="a_node7"><a xlink:title=" ">
<polygon fill="none" stroke="#bfbfbf" points="127.5,-0.5 127.5,-19.5 174.5,-19.5 174.5,-0.5 127.5,-0.5"/>
<text text-anchor="middle" x="151" y="-7.5" font-family="Helvetica,sans-Serif" font-size="10.00">volk.h</text>
</a>
</g>
</g>
<!-- Node6&#45;&gt;Node7 -->
<g id="edge6" class="edge">
<title>Node6&#45;&gt;Node7</title>
<path fill="none" stroke="midnightblue" d="M190.24,-56.08C183.46,-48.3 173.46,-36.8 165.24,-27.37"/>
<polygon fill="midnightblue" stroke="midnightblue" points="167.82,-25 158.62,-19.75 162.54,-29.59 167.82,-25"/>
</g>
<!-- Node8 -->
<g id="node8" class="node">
<title>Node8</title>
<g id="a_node8"><a xlink:title=" ">
<polygon fill="none" stroke="#bfbfbf" points="192.5,-0.5 192.5,-19.5 297.5,-19.5 297.5,-0.5 192.5,-0.5"/>
<text text-anchor="middle" x="245" y="-7.5" font-family="Helvetica,sans-Serif" font-size="10.00">vulkan/vulkan.hpp</text>
</a>
</g>
</g>
<!-- Node6&#45;&gt;Node8 -->
<g id="edge7" class="edge">
<title>Node6&#45;&gt;Node8</title>
<path fill="none" stroke="midnightblue" d="M205.76,-56.08C212.54,-48.3 222.54,-36.8 230.76,-27.37"/>
<polygon fill="midnightblue" stroke="midnightblue" points="233.46,-29.59 237.38,-19.75 228.18,-25 233.46,-29.59"/>
</g>
<!-- Node9&#45;&gt;Node3 -->
<g id="edge9" class="edge">
<title>Node9&#45;&gt;Node3</title>
<path fill="none" stroke="midnightblue" d="M157.6,-168.44C131.8,-159.4 90.92,-145.06 61.98,-134.92"/>
<polygon fill="midnightblue" stroke="midnightblue" points="62.88,-131.52 52.29,-131.52 60.57,-138.13 62.88,-131.52"/>
</g>
<!-- Node9&#45;&gt;Node6 -->
<g id="edge10" class="edge">
<title>Node9&#45;&gt;Node6</title>
<path fill="none" stroke="midnightblue" d="M163.4,-168.41C141.24,-156.9 108.77,-135.22 122,-112 130.41,-97.25 145.77,-86.84 160.48,-79.77"/>
<polygon fill="midnightblue" stroke="midnightblue" points="162.24,-82.83 169.98,-75.6 159.42,-76.42 162.24,-82.83"/>
</g>
<!-- Node10 -->
<g id="node10" class="node">
<title>Node10</title>
<g id="a_node10"><a xlink:href="abcgVulkanInstance_8hpp.html" target="_top" xlink:title="Header file of abcg::VulkanInstance.">
<polygon fill="none" stroke="black" points="131,-112.5 131,-131.5 265,-131.5 265,-112.5 131,-112.5"/>
<text text-anchor="middle" x="198" y="-119.5" font-family="Helvetica,sans-Serif" font-size="10.00">abcgVulkanInstance.hpp</text>
</a>
</g>
</g>
<!-- Node9&#45;&gt;Node10 -->
<g id="edge11" class="edge">
<title>Node9&#45;&gt;Node10</title>
<path fill="none" stroke="midnightblue" d="M184.64,-168.08C186.79,-160.85 189.88,-150.41 192.55,-141.4"/>
<polygon fill="midnightblue" stroke="midnightblue" points="195.92,-142.33 195.41,-131.75 189.21,-140.34 195.92,-142.33"/>
</g>
<!-- Node10&#45;&gt;Node6 -->
<g id="edge12" class="edge">
<title>Node10&#45;&gt;Node6</title>
<path fill="none" stroke="midnightblue" d="M198,-112.08C198,-105.01 198,-94.86 198,-85.99"/>
<polygon fill="midnightblue" stroke="midnightblue" points="201.5,-85.75 198,-75.75 194.5,-85.75 201.5,-85.75"/>
</g>
</g>
</svg>
