<?xml version="1.0" encoding="UTF-8" standalone="no"?>
<!DOCTYPE svg PUBLIC "-//W3C//DTD SVG 1.1//EN"
 "http://www.w3.org/Graphics/SVG/1.1/DTD/svg11.dtd">
<!-- Generated by graphviz version 2.43.0 (0)
 -->
<!-- Title: /home/harlen/dev/abcg2/abcg/abcg_vulkan_physical_device.hpp Pages: 1 -->
<svg width="355pt" height="162pt"
 viewBox="0.00 0.00 355.00 162.00" xmlns="http://www.w3.org/2000/svg" xmlns:xlink="http://www.w3.org/1999/xlink">
<g id="graph0" class="graph" transform="scale(1 1) rotate(0) translate(4 158)">
<title>/home/harlen/dev/abcg2/abcg/abcg_vulkan_physical_device.hpp</title>
<!-- Node1 -->
<g id="node1" class="node">
<title>Node1</title>
<g id="a_node1"><a xlink:title="Header file of abcg::VulkanPhysicalDevice.">
<polygon fill="#bfbfbf" stroke="black" points="54.5,-112.5 54.5,-153.5 206.5,-153.5 206.5,-112.5 54.5,-112.5"/>
<text text-anchor="start" x="62.5" y="-141.5" font-family="Helvetica,sans-Serif" font-size="10.00">/home/harlen/dev/abcg2</text>
<text text-anchor="start" x="62.5" y="-130.5" font-family="Helvetica,sans-Serif" font-size="10.00">/abcg/abcg_vulkan_physical</text>
<text text-anchor="middle" x="130.5" y="-119.5" font-family="Helvetica,sans-Serif" font-size="10.00">_device.hpp</text>
</a>
</g>
</g>
<!-- Node2 -->
<g id="node2" class="node">
<title>Node2</title>
<g id="a_node2"><a xlink:href="abcg__external_8hpp.html" target="_top" xlink:title="Header file for including third&#45;party dependencies.">
<polygon fill="none" stroke="black" points="0,-0.5 0,-19.5 107,-19.5 107,-0.5 0,-0.5"/>
<text text-anchor="middle" x="53.5" y="-7.5" font-family="Helvetica,sans-Serif" font-size="10.00">abcg_external.hpp</text>
</a>
</g>
</g>
<!-- Node1&#45;&gt;Node2 -->
<g id="edge1" class="edge">
<title>Node1&#45;&gt;Node2</title>
<path fill="none" stroke="midnightblue" d="M104.67,-112.29C93.38,-102.48 80.83,-89.78 72.5,-76 63.85,-61.69 58.95,-43.23 56.3,-29.64"/>
<polygon fill="midnightblue" stroke="midnightblue" points="59.71,-28.83 54.57,-19.56 52.81,-30.01 59.71,-28.83"/>
</g>
<!-- Node3 -->
<g id="node3" class="node">
<title>Node3</title>
<g id="a_node3"><a xlink:href="abcg__vulkan_8hpp.html" target="_top" xlink:title="Header file for Vulkan&#45;related functions and classes.">
<polygon fill="none" stroke="black" points="81.5,-56.5 81.5,-75.5 179.5,-75.5 179.5,-56.5 81.5,-56.5"/>
<text text-anchor="middle" x="130.5" y="-63.5" font-family="Helvetica,sans-Serif" font-size="10.00">abcg_vulkan.hpp</text>
</a>
</g>
</g>
<!-- Node1&#45;&gt;Node3 -->
<g id="edge2" class="edge">
<title>Node1&#45;&gt;Node3</title>
<path fill="none" stroke="midnightblue" d="M130.5,-112.5C130.5,-104.07 130.5,-94.24 130.5,-85.87"/>
<polygon fill="midnightblue" stroke="midnightblue" points="134,-85.65 130.5,-75.65 127,-85.65 134,-85.65"/>
</g>
<!-- Node5 -->
<g id="node5" class="node">
<title>Node5</title>
<g id="a_node5"><a xlink:title=" ">
<polygon fill="none" stroke="#bfbfbf" points="198,-56.5 198,-75.5 347,-75.5 347,-56.5 198,-56.5"/>
<text text-anchor="middle" x="272.5" y="-63.5" font-family="Helvetica,sans-Serif" font-size="10.00">vulkan/vulkan_handles.hpp</text>
</a>
</g>
</g>
<!-- Node1&#45;&gt;Node5 -->
<g id="edge5" class="edge">
<title>Node1&#45;&gt;Node5</title>
<path fill="none" stroke="midnightblue" d="M173.1,-112.5C196.13,-101.96 223.93,-89.23 244.27,-79.92"/>
<polygon fill="midnightblue" stroke="midnightblue" points="245.96,-83 253.6,-75.65 243.05,-76.63 245.96,-83"/>
</g>
<!-- Node3&#45;&gt;Node2 -->
<g id="edge3" class="edge">
<title>Node3&#45;&gt;Node2</title>
<path fill="none" stroke="midnightblue" d="M118.13,-56.32C106.34,-48.06 88.37,-35.45 74.36,-25.63"/>
<polygon fill="midnightblue" stroke="midnightblue" points="76.04,-22.53 65.84,-19.65 72.02,-28.26 76.04,-22.53"/>
</g>
<!-- Node4 -->
<g id="node4" class="node">
<title>Node4</title>
<g id="a_node4"><a xlink:href="abcg__vulkan__external_8hpp.html" target="_top" xlink:title="Header file for including Vulkan&#45;related dependencies.">
<polygon fill="none" stroke="black" points="125.5,-0.5 125.5,-19.5 269.5,-19.5 269.5,-0.5 125.5,-0.5"/>
<text text-anchor="middle" x="197.5" y="-7.5" font-family="Helvetica,sans-Serif" font-size="10.00">abcg_vulkan_external.hpp</text>
</a>
</g>
</g>
<!-- Node3&#45;&gt;Node4 -->
<g id="edge4" class="edge">
<title>Node3&#45;&gt;Node4</title>
<path fill="none" stroke="midnightblue" d="M141.26,-56.32C151.27,-48.26 166.39,-36.08 178.43,-26.37"/>
<polygon fill="midnightblue" stroke="midnightblue" points="180.95,-28.83 186.54,-19.83 176.56,-23.38 180.95,-28.83"/>
</g>
</g>
</svg>
