<?xml version="1.0" encoding="UTF-8" standalone="no"?>
<!DOCTYPE svg PUBLIC "-//W3C//DTD SVG 1.1//EN"
 "http://www.w3.org/Graphics/SVG/1.1/DTD/svg11.dtd">
<!-- Generated by graphviz version 2.43.0 (0)
 -->
<!-- Title: /home/harlen/dev/abcg/abcg/abcgVulkanSwapchain.cpp Pages: 1 -->
<svg width="1075pt" height="487pt"
 viewBox="0.00 0.00 1075.00 487.00" xmlns="http://www.w3.org/2000/svg" xmlns:xlink="http://www.w3.org/1999/xlink">
<g id="graph0" class="graph" transform="scale(1 1) rotate(0) translate(4 483)">
<title>/home/harlen/dev/abcg/abcg/abcgVulkanSwapchain.cpp</title>
<!-- Node1 -->
<g id="node1" class="node">
<title>Node1</title>
<g id="a_node1"><a xlink:title="Definition of abcg::VulkanSwapchain.">
<polygon fill="#bfbfbf" stroke="black" points="457,-448.5 457,-478.5 631,-478.5 631,-448.5 457,-448.5"/>
<text text-anchor="start" x="465" y="-466.5" font-family="Helvetica,sans-Serif" font-size="10.00">/home/harlen/dev/abcg</text>
<text text-anchor="middle" x="544" y="-455.5" font-family="Helvetica,sans-Serif" font-size="10.00">/abcg/abcgVulkanSwapchain.cpp</text>
</a>
</g>
</g>
<!-- Node2 -->
<g id="node2" class="node">
<title>Node2</title>
<g id="a_node2"><a xlink:href="abcgVulkanSwapchain_8hpp.html" target="_top" xlink:title="Header file of abcg::VulkanSwapchain.">
<polygon fill="none" stroke="black" points="176,-336.5 176,-355.5 322,-355.5 322,-336.5 176,-336.5"/>
<text text-anchor="middle" x="249" y="-343.5" font-family="Helvetica,sans-Serif" font-size="10.00">abcgVulkanSwapchain.hpp</text>
</a>
</g>
</g>
<!-- Node1&#45;&gt;Node2 -->
<g id="edge1" class="edge">
<title>Node1&#45;&gt;Node2</title>
<path fill="none" stroke="midnightblue" d="M456.77,-448.95C419.1,-441.14 375.22,-429.32 338,-412 310.52,-399.21 282.98,-377.37 265.97,-362.57"/>
<polygon fill="midnightblue" stroke="midnightblue" points="267.88,-359.59 258.09,-355.55 263.23,-364.82 267.88,-359.59"/>
</g>
<!-- Node3 -->
<g id="node3" class="node">
<title>Node3</title>
<g id="a_node3"><a xlink:title=" ">
<polygon fill="none" stroke="#bfbfbf" points="5.5,-168.5 5.5,-187.5 70.5,-187.5 70.5,-168.5 5.5,-168.5"/>
<text text-anchor="middle" x="38" y="-175.5" font-family="Helvetica,sans-Serif" font-size="10.00">functional</text>
</a>
</g>
</g>
<!-- Node1&#45;&gt;Node3 -->
<g id="edge16" class="edge">
<title>Node1&#45;&gt;Node3</title>
<path fill="none" stroke="midnightblue" d="M456.9,-461.78C303.22,-458.14 0,-439.27 0,-347 0,-347 0,-347 0,-289 0,-254.81 16.6,-217.76 27.86,-196.57"/>
<polygon fill="midnightblue" stroke="midnightblue" points="30.95,-198.22 32.72,-187.77 24.82,-194.83 30.95,-198.22"/>
</g>
<!-- Node5 -->
<g id="node5" class="node">
<title>Node5</title>
<g id="a_node5"><a xlink:href="abcgVulkanDevice_8hpp.html" target="_top" xlink:title="Header file of abcg::VulkanDevice.">
<polygon fill="none" stroke="black" points="261.5,-224.5 261.5,-243.5 388.5,-243.5 388.5,-224.5 261.5,-224.5"/>
<text text-anchor="middle" x="325" y="-231.5" font-family="Helvetica,sans-Serif" font-size="10.00">abcgVulkanDevice.hpp</text>
</a>
</g>
</g>
<!-- Node1&#45;&gt;Node5 -->
<g id="edge23" class="edge">
<title>Node1&#45;&gt;Node5</title>
<path fill="none" stroke="midnightblue" d="M456.8,-451.3C429.9,-443.98 402.09,-431.9 382,-412 337.71,-368.13 327.81,-289.73 325.61,-253.86"/>
<polygon fill="midnightblue" stroke="midnightblue" points="329.1,-253.63 325.14,-243.8 322.11,-253.96 329.1,-253.63"/>
</g>
<!-- Node6 -->
<g id="node6" class="node">
<title>Node6</title>
<g id="a_node6"><a xlink:href="abcgVulkanPhysicalDevice_8hpp.html" target="_top" xlink:title="Header file of abcg::VulkanPhysicalDevice.">
<polygon fill="none" stroke="black" points="456.5,-168.5 456.5,-187.5 623.5,-187.5 623.5,-168.5 456.5,-168.5"/>
<text text-anchor="middle" x="540" y="-175.5" font-family="Helvetica,sans-Serif" font-size="10.00">abcgVulkanPhysicalDevice.hpp</text>
</a>
</g>
</g>
<!-- Node1&#45;&gt;Node6 -->
<g id="edge24" class="edge">
<title>Node1&#45;&gt;Node6</title>
<path fill="none" stroke="midnightblue" d="M626.93,-448.49C719.06,-430.52 855,-395.74 855,-347 855,-347 855,-347 855,-289 855,-237.51 703.1,-204.49 610.26,-189.11"/>
<polygon fill="midnightblue" stroke="midnightblue" points="610.79,-185.65 600.36,-187.5 609.67,-192.56 610.79,-185.65"/>
</g>
<!-- Node14 -->
<g id="node14" class="node">
<title>Node14</title>
<g id="a_node14"><a xlink:title=" ">
<polygon fill="none" stroke="#bfbfbf" points="883,-392.5 883,-411.5 931,-411.5 931,-392.5 883,-392.5"/>
<text text-anchor="middle" x="907" y="-399.5" font-family="Helvetica,sans-Serif" font-size="10.00">gsl/gsl</text>
</a>
</g>
</g>
<!-- Node1&#45;&gt;Node14 -->
<g id="edge17" class="edge">
<title>Node1&#45;&gt;Node14</title>
<path fill="none" stroke="midnightblue" d="M631.23,-450.84C696.85,-441.61 788.87,-427.69 869,-412 870.27,-411.75 871.57,-411.49 872.87,-411.22"/>
<polygon fill="midnightblue" stroke="midnightblue" points="873.93,-414.57 882.94,-409 872.42,-407.73 873.93,-414.57"/>
</g>
<!-- Node15 -->
<g id="node15" class="node">
<title>Node15</title>
<g id="a_node15"><a xlink:title=" ">
<polygon fill="none" stroke="#bfbfbf" points="949,-392.5 949,-411.5 1067,-411.5 1067,-392.5 949,-392.5"/>
<text text-anchor="middle" x="1008" y="-399.5" font-family="Helvetica,sans-Serif" font-size="10.00">imgui_impl_vulkan.h</text>
</a>
</g>
</g>
<!-- Node1&#45;&gt;Node15 -->
<g id="edge18" class="edge">
<title>Node1&#45;&gt;Node15</title>
<path fill="none" stroke="midnightblue" d="M631.31,-451.49C709.21,-441.63 826.69,-426.7 938.55,-412.18"/>
<polygon fill="midnightblue" stroke="midnightblue" points="939.2,-415.63 948.66,-410.87 938.3,-408.69 939.2,-415.63"/>
</g>
<!-- Node16 -->
<g id="node16" class="node">
<title>Node16</title>
<g id="a_node16"><a xlink:href="abcgException_8hpp.html" target="_top" xlink:title="Header file of abcg::Exception and derived classes.">
<polygon fill="none" stroke="black" points="604.5,-392.5 604.5,-411.5 713.5,-411.5 713.5,-392.5 604.5,-392.5"/>
<text text-anchor="middle" x="659" y="-399.5" font-family="Helvetica,sans-Serif" font-size="10.00">abcgException.hpp</text>
</a>
</g>
</g>
<!-- Node1&#45;&gt;Node16 -->
<g id="edge19" class="edge">
<title>Node1&#45;&gt;Node16</title>
<path fill="none" stroke="midnightblue" d="M571.25,-448.4C590.03,-438.68 614.83,-425.86 633.27,-416.31"/>
<polygon fill="midnightblue" stroke="midnightblue" points="634.99,-419.36 642.27,-411.66 631.78,-413.14 634.99,-419.36"/>
</g>
<!-- Node20 -->
<g id="node20" class="node">
<title>Node20</title>
<g id="a_node20"><a xlink:href="abcgVulkanWindow_8hpp.html" target="_top" xlink:title="Header file of abcg::VulkanWindow.">
<polygon fill="none" stroke="black" points="390.5,-392.5 390.5,-411.5 521.5,-411.5 521.5,-392.5 390.5,-392.5"/>
<text text-anchor="middle" x="456" y="-399.5" font-family="Helvetica,sans-Serif" font-size="10.00">abcgVulkanWindow.hpp</text>
</a>
</g>
</g>
<!-- Node1&#45;&gt;Node20 -->
<g id="edge25" class="edge">
<title>Node1&#45;&gt;Node20</title>
<path fill="none" stroke="midnightblue" d="M523.15,-448.4C509.3,-439.04 491.19,-426.79 477.26,-417.38"/>
<polygon fill="midnightblue" stroke="midnightblue" points="479.05,-414.36 468.8,-411.66 475.13,-420.16 479.05,-414.36"/>
</g>
<!-- Node2&#45;&gt;Node3 -->
<g id="edge2" class="edge">
<title>Node2&#45;&gt;Node3</title>
<path fill="none" stroke="midnightblue" d="M176.5,-336.47C129.2,-329.38 73.3,-317.57 57,-300 31.17,-272.17 32.13,-224.29 35.07,-197.87"/>
<polygon fill="midnightblue" stroke="midnightblue" points="38.58,-198.06 36.43,-187.69 31.64,-197.14 38.58,-198.06"/>
</g>
<!-- Node4 -->
<g id="node4" class="node">
<title>Node4</title>
<g id="a_node4"><a xlink:title=" ">
<polygon fill="none" stroke="#bfbfbf" points="208.5,-280.5 208.5,-299.5 285.5,-299.5 285.5,-280.5 208.5,-280.5"/>
<text text-anchor="middle" x="247" y="-287.5" font-family="Helvetica,sans-Serif" font-size="10.00">glm/fwd.hpp</text>
</a>
</g>
</g>
<!-- Node2&#45;&gt;Node4 -->
<g id="edge3" class="edge">
<title>Node2&#45;&gt;Node4</title>
<path fill="none" stroke="midnightblue" d="M248.67,-336.08C248.41,-329.01 248.03,-318.86 247.7,-309.99"/>
<polygon fill="midnightblue" stroke="midnightblue" points="251.19,-309.61 247.32,-299.75 244.2,-309.87 251.19,-309.61"/>
</g>
<!-- Node2&#45;&gt;Node5 -->
<g id="edge4" class="edge">
<title>Node2&#45;&gt;Node5</title>
<path fill="none" stroke="midnightblue" d="M259.97,-336.28C270.07,-327.84 284.95,-314.24 295,-300 305.29,-285.42 313.48,-266.74 318.68,-253.15"/>
<polygon fill="midnightblue" stroke="midnightblue" points="322.05,-254.11 322.2,-243.52 315.48,-251.71 322.05,-254.11"/>
</g>
<!-- Node12 -->
<g id="node12" class="node">
<title>Node12</title>
<g id="a_node12"><a xlink:href="abcgVulkanImage_8hpp.html" target="_top" xlink:title="Header file of abcg::VulkanImage.">
<polygon fill="none" stroke="black" points="66,-280.5 66,-299.5 190,-299.5 190,-280.5 66,-280.5"/>
<text text-anchor="middle" x="128" y="-287.5" font-family="Helvetica,sans-Serif" font-size="10.00">abcgVulkanImage.hpp</text>
</a>
</g>
</g>
<!-- Node2&#45;&gt;Node12 -->
<g id="edge13" class="edge">
<title>Node2&#45;&gt;Node12</title>
<path fill="none" stroke="midnightblue" d="M229.83,-336.44C210.09,-327.64 179.11,-313.81 156.51,-303.72"/>
<polygon fill="midnightblue" stroke="midnightblue" points="157.64,-300.4 147.08,-299.52 154.79,-306.79 157.64,-300.4"/>
</g>
<!-- Node5&#45;&gt;Node3 -->
<g id="edge12" class="edge">
<title>Node5&#45;&gt;Node3</title>
<path fill="none" stroke="midnightblue" d="M279.52,-224.44C224.99,-214.18 134.29,-197.12 80.92,-187.08"/>
<polygon fill="midnightblue" stroke="midnightblue" points="81.24,-183.57 70.77,-185.16 79.95,-190.45 81.24,-183.57"/>
</g>
<!-- Node5&#45;&gt;Node6 -->
<g id="edge5" class="edge">
<title>Node5&#45;&gt;Node6</title>
<path fill="none" stroke="midnightblue" d="M359.07,-224.44C396.18,-215.12 455.66,-200.18 496.21,-190"/>
<polygon fill="midnightblue" stroke="midnightblue" points="497.25,-193.35 506.09,-187.52 495.54,-186.56 497.25,-193.35"/>
</g>
<!-- Node7 -->
<g id="node7" class="node">
<title>Node7</title>
<g id="a_node7"><a xlink:title=" ">
<polygon fill="none" stroke="#bfbfbf" points="513,-112.5 513,-131.5 569,-131.5 569,-112.5 513,-112.5"/>
<text text-anchor="middle" x="541" y="-119.5" font-family="Helvetica,sans-Serif" font-size="10.00">optional</text>
</a>
</g>
</g>
<!-- Node6&#45;&gt;Node7 -->
<g id="edge6" class="edge">
<title>Node6&#45;&gt;Node7</title>
<path fill="none" stroke="midnightblue" d="M540.17,-168.08C540.3,-161.01 540.48,-150.86 540.65,-141.99"/>
<polygon fill="midnightblue" stroke="midnightblue" points="544.15,-141.81 540.84,-131.75 537.15,-141.68 544.15,-141.81"/>
</g>
<!-- Node8 -->
<g id="node8" class="node">
<title>Node8</title>
<g id="a_node8"><a xlink:href="abcgVulkanExternal_8hpp.html" target="_top" xlink:title="Header file for including Vulkan&#45;related dependencies.">
<polygon fill="none" stroke="black" points="445,-56.5 445,-75.5 579,-75.5 579,-56.5 445,-56.5"/>
<text text-anchor="middle" x="512" y="-63.5" font-family="Helvetica,sans-Serif" font-size="10.00">abcgVulkanExternal.hpp</text>
</a>
</g>
</g>
<!-- Node6&#45;&gt;Node8 -->
<g id="edge7" class="edge">
<title>Node6&#45;&gt;Node8</title>
<path fill="none" stroke="midnightblue" d="M551.46,-168.3C566.25,-155.96 588.87,-132.57 578,-112 570.58,-97.95 556.58,-87.47 543.38,-80.17"/>
<polygon fill="midnightblue" stroke="midnightblue" points="544.96,-77.04 534.46,-75.62 541.78,-83.28 544.96,-77.04"/>
</g>
<!-- Node11 -->
<g id="node11" class="node">
<title>Node11</title>
<g id="a_node11"><a xlink:href="abcgVulkanInstance_8hpp.html" target="_top" xlink:title="Header file of abcg::VulkanInstance.">
<polygon fill="none" stroke="black" points="361,-112.5 361,-131.5 495,-131.5 495,-112.5 361,-112.5"/>
<text text-anchor="middle" x="428" y="-119.5" font-family="Helvetica,sans-Serif" font-size="10.00">abcgVulkanInstance.hpp</text>
</a>
</g>
</g>
<!-- Node6&#45;&gt;Node11 -->
<g id="edge10" class="edge">
<title>Node6&#45;&gt;Node11</title>
<path fill="none" stroke="midnightblue" d="M522.01,-168.32C503.96,-159.62 475.95,-146.12 455.2,-136.11"/>
<polygon fill="midnightblue" stroke="midnightblue" points="456.48,-132.84 445.95,-131.65 453.44,-139.15 456.48,-132.84"/>
</g>
<!-- Node9 -->
<g id="node9" class="node">
<title>Node9</title>
<g id="a_node9"><a xlink:title=" ">
<polygon fill="none" stroke="#bfbfbf" points="441.5,-0.5 441.5,-19.5 488.5,-19.5 488.5,-0.5 441.5,-0.5"/>
<text text-anchor="middle" x="465" y="-7.5" font-family="Helvetica,sans-Serif" font-size="10.00">volk.h</text>
</a>
</g>
</g>
<!-- Node8&#45;&gt;Node9 -->
<g id="edge8" class="edge">
<title>Node8&#45;&gt;Node9</title>
<path fill="none" stroke="midnightblue" d="M504.24,-56.08C497.46,-48.3 487.46,-36.8 479.24,-27.37"/>
<polygon fill="midnightblue" stroke="midnightblue" points="481.82,-25 472.62,-19.75 476.54,-29.59 481.82,-25"/>
</g>
<!-- Node10 -->
<g id="node10" class="node">
<title>Node10</title>
<g id="a_node10"><a xlink:title=" ">
<polygon fill="none" stroke="#bfbfbf" points="506.5,-0.5 506.5,-19.5 611.5,-19.5 611.5,-0.5 506.5,-0.5"/>
<text text-anchor="middle" x="559" y="-7.5" font-family="Helvetica,sans-Serif" font-size="10.00">vulkan/vulkan.hpp</text>
</a>
</g>
</g>
<!-- Node8&#45;&gt;Node10 -->
<g id="edge9" class="edge">
<title>Node8&#45;&gt;Node10</title>
<path fill="none" stroke="midnightblue" d="M519.76,-56.08C526.54,-48.3 536.54,-36.8 544.76,-27.37"/>
<polygon fill="midnightblue" stroke="midnightblue" points="547.46,-29.59 551.38,-19.75 542.18,-25 547.46,-29.59"/>
</g>
<!-- Node11&#45;&gt;Node8 -->
<g id="edge11" class="edge">
<title>Node11&#45;&gt;Node8</title>
<path fill="none" stroke="midnightblue" d="M441.5,-112.32C454.6,-103.9 474.71,-90.97 490.11,-81.07"/>
<polygon fill="midnightblue" stroke="midnightblue" points="492.02,-84.01 498.54,-75.65 488.23,-78.12 492.02,-84.01"/>
</g>
<!-- Node12&#45;&gt;Node5 -->
<g id="edge14" class="edge">
<title>Node12&#45;&gt;Node5</title>
<path fill="none" stroke="midnightblue" d="M159.22,-280.44C192.93,-271.2 246.8,-256.44 283.93,-246.26"/>
<polygon fill="midnightblue" stroke="midnightblue" points="285.21,-249.54 293.93,-243.52 283.36,-242.78 285.21,-249.54"/>
</g>
<!-- Node13 -->
<g id="node13" class="node">
<title>Node13</title>
<g id="a_node13"><a xlink:title=" ">
<polygon fill="none" stroke="#bfbfbf" points="91,-224.5 91,-243.5 165,-243.5 165,-224.5 91,-224.5"/>
<text text-anchor="middle" x="128" y="-231.5" font-family="Helvetica,sans-Serif" font-size="10.00">gsl/pointers</text>
</a>
</g>
</g>
<!-- Node12&#45;&gt;Node13 -->
<g id="edge15" class="edge">
<title>Node12&#45;&gt;Node13</title>
<path fill="none" stroke="midnightblue" d="M128,-280.08C128,-273.01 128,-262.86 128,-253.99"/>
<polygon fill="midnightblue" stroke="midnightblue" points="131.5,-253.75 128,-243.75 124.5,-253.75 131.5,-253.75"/>
</g>
<!-- Node17 -->
<g id="node17" class="node">
<title>Node17</title>
<g id="a_node17"><a xlink:title=" ">
<polygon fill="none" stroke="#bfbfbf" points="650.5,-336.5 650.5,-355.5 743.5,-355.5 743.5,-336.5 650.5,-336.5"/>
<text text-anchor="middle" x="697" y="-343.5" font-family="Helvetica,sans-Serif" font-size="10.00">source_location</text>
</a>
</g>
</g>
<!-- Node16&#45;&gt;Node17 -->
<g id="edge20" class="edge">
<title>Node16&#45;&gt;Node17</title>
<path fill="none" stroke="midnightblue" d="M665.27,-392.08C670.64,-384.46 678.52,-373.26 685.08,-363.94"/>
<polygon fill="midnightblue" stroke="midnightblue" points="687.95,-365.94 690.84,-355.75 682.22,-361.91 687.95,-365.94"/>
</g>
<!-- Node18 -->
<g id="node18" class="node">
<title>Node18</title>
<g id="a_node18"><a xlink:title=" ">
<polygon fill="none" stroke="#bfbfbf" points="761.5,-336.5 761.5,-355.5 826.5,-355.5 826.5,-336.5 761.5,-336.5"/>
<text text-anchor="middle" x="794" y="-343.5" font-family="Helvetica,sans-Serif" font-size="10.00">stdexcept</text>
</a>
</g>
</g>
<!-- Node16&#45;&gt;Node18 -->
<g id="edge21" class="edge">
<title>Node16&#45;&gt;Node18</title>
<path fill="none" stroke="midnightblue" d="M680.39,-392.44C702.71,-383.52 737.9,-369.44 763.21,-359.32"/>
<polygon fill="midnightblue" stroke="midnightblue" points="764.72,-362.48 772.71,-355.52 762.12,-355.98 764.72,-362.48"/>
</g>
<!-- Node19 -->
<g id="node19" class="node">
<title>Node19</title>
<g id="a_node19"><a xlink:title=" ">
<polygon fill="none" stroke="#bfbfbf" points="721,-280.5 721,-299.5 765,-299.5 765,-280.5 721,-280.5"/>
<text text-anchor="middle" x="743" y="-287.5" font-family="Helvetica,sans-Serif" font-size="10.00">string</text>
</a>
</g>
</g>
<!-- Node16&#45;&gt;Node19 -->
<g id="edge22" class="edge">
<title>Node16&#45;&gt;Node19</title>
<path fill="none" stroke="midnightblue" d="M652.66,-392.31C643.91,-379.15 630.44,-353.81 642,-336 650.02,-323.65 684.69,-309.94 711.2,-300.94"/>
<polygon fill="midnightblue" stroke="midnightblue" points="712.49,-304.2 720.89,-297.73 710.29,-297.55 712.49,-304.2"/>
</g>
<!-- Node20&#45;&gt;Node2 -->
<g id="edge29" class="edge">
<title>Node20&#45;&gt;Node2</title>
<path fill="none" stroke="midnightblue" d="M423.2,-392.44C387.62,-383.16 330.69,-368.31 291.65,-358.13"/>
<polygon fill="midnightblue" stroke="midnightblue" points="292.21,-354.65 281.65,-355.52 290.44,-361.43 292.21,-354.65"/>
</g>
<!-- Node20&#45;&gt;Node5 -->
<g id="edge26" class="edge">
<title>Node20&#45;&gt;Node5</title>
<path fill="none" stroke="midnightblue" d="M447.12,-392.47C438.24,-383.73 424.44,-369.54 414,-356 389.6,-324.37 390.21,-311.78 366,-280 358.23,-269.81 348.63,-259.17 340.66,-250.81"/>
<polygon fill="midnightblue" stroke="midnightblue" points="343.12,-248.31 333.65,-243.56 338.09,-253.18 343.12,-248.31"/>
</g>
<!-- Node20&#45;&gt;Node6 -->
<g id="edge28" class="edge">
<title>Node20&#45;&gt;Node6</title>
<path fill="none" stroke="midnightblue" d="M457,-392.39C460.38,-365.84 472.95,-283.51 505,-224 510.5,-213.78 518.31,-203.48 525.15,-195.32"/>
<polygon fill="midnightblue" stroke="midnightblue" points="527.88,-197.52 531.8,-187.68 522.6,-192.93 527.88,-197.52"/>
</g>
<!-- Node20&#45;&gt;Node11 -->
<g id="edge27" class="edge">
<title>Node20&#45;&gt;Node11</title>
<path fill="none" stroke="midnightblue" d="M452.22,-392.35C444.58,-374.03 428,-329.82 428,-291 428,-291 428,-291 428,-233 428,-200.95 428,-163.64 428,-141.75"/>
<polygon fill="midnightblue" stroke="midnightblue" points="431.5,-141.56 428,-131.56 424.5,-141.56 431.5,-141.56"/>
</g>
<!-- Node21 -->
<g id="node21" class="node">
<title>Node21</title>
<g id="a_node21"><a xlink:href="abcgWindow_8hpp.html" target="_top" xlink:title="Header file of abcg::Window.">
<polygon fill="none" stroke="black" points="494.5,-336.5 494.5,-355.5 593.5,-355.5 593.5,-336.5 494.5,-336.5"/>
<text text-anchor="middle" x="544" y="-343.5" font-family="Helvetica,sans-Serif" font-size="10.00">abcgWindow.hpp</text>
</a>
</g>
</g>
<!-- Node20&#45;&gt;Node21 -->
<g id="edge30" class="edge">
<title>Node20&#45;&gt;Node21</title>
<path fill="none" stroke="midnightblue" d="M470.14,-392.32C483.87,-383.9 504.94,-370.97 521.06,-361.07"/>
<polygon fill="midnightblue" stroke="midnightblue" points="523.2,-363.87 529.9,-355.65 519.54,-357.9 523.2,-363.87"/>
</g>
<!-- Node21&#45;&gt;Node19 -->
<g id="edge31" class="edge">
<title>Node21&#45;&gt;Node19</title>
<path fill="none" stroke="midnightblue" d="M576.58,-336.49C608.48,-328.11 658.71,-314.78 710.9,-300.27"/>
<polygon fill="midnightblue" stroke="midnightblue" points="711.97,-303.6 720.66,-297.54 710.09,-296.86 711.97,-303.6"/>
</g>
<!-- Node22 -->
<g id="node22" class="node">
<title>Node22</title>
<g id="a_node22"><a xlink:href="abcgExternal_8hpp.html" target="_top" xlink:title="Header file for including third&#45;party dependencies.">
<polygon fill="none" stroke="black" points="601.5,-280.5 601.5,-299.5 702.5,-299.5 702.5,-280.5 601.5,-280.5"/>
<text text-anchor="middle" x="652" y="-287.5" font-family="Helvetica,sans-Serif" font-size="10.00">abcgExternal.hpp</text>
</a>
</g>
</g>
<!-- Node21&#45;&gt;Node22 -->
<g id="edge32" class="edge">
<title>Node21&#45;&gt;Node22</title>
<path fill="none" stroke="midnightblue" d="M561.35,-336.32C578.67,-327.66 605.52,-314.24 625.5,-304.25"/>
<polygon fill="midnightblue" stroke="midnightblue" points="627.31,-307.26 634.69,-299.65 624.18,-301 627.31,-307.26"/>
</g>
<!-- Node23 -->
<g id="node23" class="node">
<title>Node23</title>
<g id="a_node23"><a xlink:href="abcgTimer_8hpp.html" target="_top" xlink:title="Header file of abcg::Timer.">
<polygon fill="none" stroke="black" points="494.5,-280.5 494.5,-299.5 583.5,-299.5 583.5,-280.5 494.5,-280.5"/>
<text text-anchor="middle" x="539" y="-287.5" font-family="Helvetica,sans-Serif" font-size="10.00">abcgTimer.hpp</text>
</a>
</g>
</g>
<!-- Node21&#45;&gt;Node23 -->
<g id="edge33" class="edge">
<title>Node21&#45;&gt;Node23</title>
<path fill="none" stroke="midnightblue" d="M543.17,-336.08C542.52,-329.01 541.58,-318.86 540.76,-309.99"/>
<polygon fill="midnightblue" stroke="midnightblue" points="544.22,-309.39 539.81,-299.75 537.25,-310.03 544.22,-309.39"/>
</g>
<!-- Node24 -->
<g id="node24" class="node">
<title>Node24</title>
<g id="a_node24"><a xlink:title=" ">
<polygon fill="none" stroke="#bfbfbf" points="514,-224.5 514,-243.5 564,-243.5 564,-224.5 514,-224.5"/>
<text text-anchor="middle" x="539" y="-231.5" font-family="Helvetica,sans-Serif" font-size="10.00">chrono</text>
</a>
</g>
</g>
<!-- Node23&#45;&gt;Node24 -->
<g id="edge34" class="edge">
<title>Node23&#45;&gt;Node24</title>
<path fill="none" stroke="midnightblue" d="M539,-280.08C539,-273.01 539,-262.86 539,-253.99"/>
<polygon fill="midnightblue" stroke="midnightblue" points="542.5,-253.75 539,-243.75 535.5,-253.75 542.5,-253.75"/>
</g>
</g>
</svg>
