<?xml version="1.0" encoding="UTF-8" standalone="no"?>
<!DOCTYPE svg PUBLIC "-//W3C//DTD SVG 1.1//EN"
 "http://www.w3.org/Graphics/SVG/1.1/DTD/svg11.dtd">
<!-- Generated by graphviz version 2.43.0 (0)
 -->
<!-- Title: /home/harlen/dev/abcg2/abcg/abcg_image.cpp Pages: 1 -->
<svg width="403pt" height="151pt"
 viewBox="0.00 0.00 402.50 151.00" xmlns="http://www.w3.org/2000/svg" xmlns:xlink="http://www.w3.org/1999/xlink">
<g id="graph0" class="graph" transform="scale(1 1) rotate(0) translate(4 147)">
<title>/home/harlen/dev/abcg2/abcg/abcg_image.cpp</title>
<!-- Node1 -->
<g id="node1" class="node">
<title>Node1</title>
<g id="a_node1"><a xlink:title="Definition of texture loading helper functions.">
<polygon fill="#bfbfbf" stroke="black" points="188,-112.5 188,-142.5 322,-142.5 322,-112.5 188,-112.5"/>
<text text-anchor="start" x="196" y="-130.5" font-family="Helvetica,sans-Serif" font-size="10.00">/home/harlen/dev/abcg2</text>
<text text-anchor="middle" x="255" y="-119.5" font-family="Helvetica,sans-Serif" font-size="10.00">/abcg/abcg_image.cpp</text>
</a>
</g>
</g>
<!-- Node2 -->
<g id="node2" class="node">
<title>Node2</title>
<g id="a_node2"><a xlink:href="abcg__image_8hpp.html" target="_top" xlink:title="Declaration of texture loading helper functions.">
<polygon fill="none" stroke="black" points="16.5,-56.5 16.5,-75.5 113.5,-75.5 113.5,-56.5 16.5,-56.5"/>
<text text-anchor="middle" x="65" y="-63.5" font-family="Helvetica,sans-Serif" font-size="10.00">abcg_image.hpp</text>
</a>
</g>
</g>
<!-- Node1&#45;&gt;Node2 -->
<g id="edge1" class="edge">
<title>Node1&#45;&gt;Node2</title>
<path fill="none" stroke="midnightblue" d="M209.97,-112.4C177.14,-102.12 133.18,-88.35 102.3,-78.68"/>
<polygon fill="midnightblue" stroke="midnightblue" points="102.96,-75.22 92.37,-75.57 100.87,-81.9 102.96,-75.22"/>
</g>
<!-- Node5 -->
<g id="node5" class="node">
<title>Node5</title>
<g id="a_node5"><a xlink:title=" ">
<polygon fill="none" stroke="#bfbfbf" points="131.5,-56.5 131.5,-75.5 270.5,-75.5 270.5,-56.5 131.5,-56.5"/>
<text text-anchor="middle" x="201" y="-63.5" font-family="Helvetica,sans-Serif" font-size="10.00">cppitertools/itertools.hpp</text>
</a>
</g>
</g>
<!-- Node1&#45;&gt;Node5 -->
<g id="edge4" class="edge">
<title>Node1&#45;&gt;Node5</title>
<path fill="none" stroke="midnightblue" d="M242.2,-112.4C234.28,-103.66 224.06,-92.41 215.79,-83.3"/>
<polygon fill="midnightblue" stroke="midnightblue" points="218.17,-80.71 208.86,-75.66 212.99,-85.42 218.17,-80.71"/>
</g>
<!-- Node6 -->
<g id="node6" class="node">
<title>Node6</title>
<g id="a_node6"><a xlink:title=" ">
<polygon fill="none" stroke="#bfbfbf" points="289,-56.5 289,-75.5 329,-75.5 329,-56.5 289,-56.5"/>
<text text-anchor="middle" x="309" y="-63.5" font-family="Helvetica,sans-Serif" font-size="10.00">span</text>
</a>
</g>
</g>
<!-- Node1&#45;&gt;Node6 -->
<g id="edge5" class="edge">
<title>Node1&#45;&gt;Node6</title>
<path fill="none" stroke="midnightblue" d="M267.8,-112.4C275.72,-103.66 285.94,-92.41 294.21,-83.3"/>
<polygon fill="midnightblue" stroke="midnightblue" points="297.01,-85.42 301.14,-75.66 291.83,-80.71 297.01,-85.42"/>
</g>
<!-- Node7 -->
<g id="node7" class="node">
<title>Node7</title>
<g id="a_node7"><a xlink:title=" ">
<polygon fill="none" stroke="#bfbfbf" points="347.5,-56.5 347.5,-75.5 394.5,-75.5 394.5,-56.5 347.5,-56.5"/>
<text text-anchor="middle" x="371" y="-63.5" font-family="Helvetica,sans-Serif" font-size="10.00">vector</text>
</a>
</g>
</g>
<!-- Node1&#45;&gt;Node7 -->
<g id="edge6" class="edge">
<title>Node1&#45;&gt;Node7</title>
<path fill="none" stroke="midnightblue" d="M282.49,-112.4C301.43,-102.68 326.44,-89.86 345.04,-80.31"/>
<polygon fill="midnightblue" stroke="midnightblue" points="346.82,-83.34 354.12,-75.66 343.63,-77.11 346.82,-83.34"/>
</g>
<!-- Node3 -->
<g id="node3" class="node">
<title>Node3</title>
<g id="a_node3"><a xlink:title=" ">
<polygon fill="none" stroke="#bfbfbf" points="0,-0.5 0,-19.5 48,-19.5 48,-0.5 0,-0.5"/>
<text text-anchor="middle" x="24" y="-7.5" font-family="Helvetica,sans-Serif" font-size="10.00">gsl/gsl</text>
</a>
</g>
</g>
<!-- Node2&#45;&gt;Node3 -->
<g id="edge2" class="edge">
<title>Node2&#45;&gt;Node3</title>
<path fill="none" stroke="midnightblue" d="M58.23,-56.08C52.44,-48.46 43.94,-37.26 36.86,-27.94"/>
<polygon fill="midnightblue" stroke="midnightblue" points="39.48,-25.6 30.64,-19.75 33.9,-29.83 39.48,-25.6"/>
</g>
<!-- Node4 -->
<g id="node4" class="node">
<title>Node4</title>
<g id="a_node4"><a xlink:title=" ">
<polygon fill="none" stroke="#bfbfbf" points="66,-0.5 66,-19.5 146,-19.5 146,-0.5 66,-0.5"/>
<text text-anchor="middle" x="106" y="-7.5" font-family="Helvetica,sans-Serif" font-size="10.00">SDL_image.h</text>
</a>
</g>
</g>
<!-- Node2&#45;&gt;Node4 -->
<g id="edge3" class="edge">
<title>Node2&#45;&gt;Node4</title>
<path fill="none" stroke="midnightblue" d="M71.77,-56.08C77.56,-48.46 86.06,-37.26 93.14,-27.94"/>
<polygon fill="midnightblue" stroke="midnightblue" points="96.1,-29.83 99.36,-19.75 90.52,-25.6 96.1,-29.83"/>
</g>
</g>
</svg>
