<?xml version="1.0" encoding="UTF-8" standalone="no"?>
<!DOCTYPE svg PUBLIC "-//W3C//DTD SVG 1.1//EN"
 "http://www.w3.org/Graphics/SVG/1.1/DTD/svg11.dtd">
<!-- Generated by graphviz version 2.43.0 (0)
 -->
<!-- Title: /home/harlen/dev/abcg/abcg/abcgVulkanImage.hpp Pages: 1 -->
<svg width="315pt" height="319pt"
 viewBox="0.00 0.00 314.50 319.00" xmlns="http://www.w3.org/2000/svg" xmlns:xlink="http://www.w3.org/1999/xlink">
<g id="graph0" class="graph" transform="scale(1 1) rotate(0) translate(4 315)">
<title>/home/harlen/dev/abcg/abcg/abcgVulkanImage.hpp</title>
<!-- Node1 -->
<g id="node1" class="node">
<title>Node1</title>
<g id="a_node1"><a xlink:title="Header file of abcg::VulkanImage.">
<polygon fill="#bfbfbf" stroke="black" points="62,-280.5 62,-310.5 215,-310.5 215,-280.5 62,-280.5"/>
<text text-anchor="start" x="70" y="-298.5" font-family="Helvetica,sans-Serif" font-size="10.00">/home/harlen/dev/abcg</text>
<text text-anchor="middle" x="138.5" y="-287.5" font-family="Helvetica,sans-Serif" font-size="10.00">/abcg/abcgVulkanImage.hpp</text>
</a>
</g>
</g>
<!-- Node2 -->
<g id="node2" class="node">
<title>Node2</title>
<g id="a_node2"><a xlink:href="abcgVulkanDevice_8hpp.html" target="_top" xlink:title="Header file of abcg::VulkanDevice.">
<polygon fill="none" stroke="black" points="16,-224.5 16,-243.5 143,-243.5 143,-224.5 16,-224.5"/>
<text text-anchor="middle" x="79.5" y="-231.5" font-family="Helvetica,sans-Serif" font-size="10.00">abcgVulkanDevice.hpp</text>
</a>
</g>
</g>
<!-- Node1&#45;&gt;Node2 -->
<g id="edge1" class="edge">
<title>Node1&#45;&gt;Node2</title>
<path fill="none" stroke="midnightblue" d="M124.52,-280.4C115.77,-271.58 104.47,-260.18 95.38,-251.02"/>
<polygon fill="midnightblue" stroke="midnightblue" points="97.61,-248.29 88.09,-243.66 92.64,-253.22 97.61,-248.29"/>
</g>
<!-- Node9 -->
<g id="node9" class="node">
<title>Node9</title>
<g id="a_node9"><a xlink:title=" ">
<polygon fill="none" stroke="#bfbfbf" points="161.5,-224.5 161.5,-243.5 235.5,-243.5 235.5,-224.5 161.5,-224.5"/>
<text text-anchor="middle" x="198.5" y="-231.5" font-family="Helvetica,sans-Serif" font-size="10.00">gsl/pointers</text>
</a>
</g>
</g>
<!-- Node1&#45;&gt;Node9 -->
<g id="edge10" class="edge">
<title>Node1&#45;&gt;Node9</title>
<path fill="none" stroke="midnightblue" d="M152.72,-280.4C161.71,-271.49 173.34,-259.95 182.63,-250.74"/>
<polygon fill="midnightblue" stroke="midnightblue" points="185.13,-253.18 189.77,-243.66 180.2,-248.21 185.13,-253.18"/>
</g>
<!-- Node3 -->
<g id="node3" class="node">
<title>Node3</title>
<g id="a_node3"><a xlink:href="abcgVulkanExternal_8hpp.html" target="_top" xlink:title="Header file for including Vulkan&#45;related dependencies.">
<polygon fill="none" stroke="black" points="3.5,-56.5 3.5,-75.5 137.5,-75.5 137.5,-56.5 3.5,-56.5"/>
<text text-anchor="middle" x="70.5" y="-63.5" font-family="Helvetica,sans-Serif" font-size="10.00">abcgVulkanExternal.hpp</text>
</a>
</g>
</g>
<!-- Node2&#45;&gt;Node3 -->
<g id="edge2" class="edge">
<title>Node2&#45;&gt;Node3</title>
<path fill="none" stroke="midnightblue" d="M69.06,-224.24C60.08,-215.97 47.75,-202.66 42.5,-188 29.71,-152.3 47.71,-108.54 60.23,-84.65"/>
<polygon fill="midnightblue" stroke="midnightblue" points="63.4,-86.15 65.15,-75.71 57.26,-82.78 63.4,-86.15"/>
</g>
<!-- Node6 -->
<g id="node6" class="node">
<title>Node6</title>
<g id="a_node6"><a xlink:href="abcgVulkanPhysicalDevice_8hpp.html" target="_top" xlink:title="Header file of abcg::VulkanPhysicalDevice.">
<polygon fill="none" stroke="black" points="52,-168.5 52,-187.5 219,-187.5 219,-168.5 52,-168.5"/>
<text text-anchor="middle" x="135.5" y="-175.5" font-family="Helvetica,sans-Serif" font-size="10.00">abcgVulkanPhysicalDevice.hpp</text>
</a>
</g>
</g>
<!-- Node2&#45;&gt;Node6 -->
<g id="edge5" class="edge">
<title>Node2&#45;&gt;Node6</title>
<path fill="none" stroke="midnightblue" d="M88.5,-224.32C96.69,-216.42 109.01,-204.55 118.97,-194.94"/>
<polygon fill="midnightblue" stroke="midnightblue" points="121.57,-197.29 126.34,-187.83 116.71,-192.26 121.57,-197.29"/>
</g>
<!-- Node4 -->
<g id="node4" class="node">
<title>Node4</title>
<g id="a_node4"><a xlink:title=" ">
<polygon fill="none" stroke="#bfbfbf" points="0,-0.5 0,-19.5 47,-19.5 47,-0.5 0,-0.5"/>
<text text-anchor="middle" x="23.5" y="-7.5" font-family="Helvetica,sans-Serif" font-size="10.00">volk.h</text>
</a>
</g>
</g>
<!-- Node3&#45;&gt;Node4 -->
<g id="edge3" class="edge">
<title>Node3&#45;&gt;Node4</title>
<path fill="none" stroke="midnightblue" d="M62.74,-56.08C55.96,-48.3 45.96,-36.8 37.74,-27.37"/>
<polygon fill="midnightblue" stroke="midnightblue" points="40.32,-25 31.12,-19.75 35.04,-29.59 40.32,-25"/>
</g>
<!-- Node5 -->
<g id="node5" class="node">
<title>Node5</title>
<g id="a_node5"><a xlink:title=" ">
<polygon fill="none" stroke="#bfbfbf" points="65,-0.5 65,-19.5 170,-19.5 170,-0.5 65,-0.5"/>
<text text-anchor="middle" x="117.5" y="-7.5" font-family="Helvetica,sans-Serif" font-size="10.00">vulkan/vulkan.hpp</text>
</a>
</g>
</g>
<!-- Node3&#45;&gt;Node5 -->
<g id="edge4" class="edge">
<title>Node3&#45;&gt;Node5</title>
<path fill="none" stroke="midnightblue" d="M78.26,-56.08C85.04,-48.3 95.04,-36.8 103.26,-27.37"/>
<polygon fill="midnightblue" stroke="midnightblue" points="105.96,-29.59 109.88,-19.75 100.68,-25 105.96,-29.59"/>
</g>
<!-- Node6&#45;&gt;Node3 -->
<g id="edge7" class="edge">
<title>Node6&#45;&gt;Node3</title>
<path fill="none" stroke="midnightblue" d="M123.63,-168.29C113.2,-160.04 98.35,-146.75 89.5,-132 80.9,-117.67 75.99,-99.2 73.33,-85.62"/>
<polygon fill="midnightblue" stroke="midnightblue" points="76.74,-84.81 71.59,-75.55 69.84,-86 76.74,-84.81"/>
</g>
<!-- Node7 -->
<g id="node7" class="node">
<title>Node7</title>
<g id="a_node7"><a xlink:title=" ">
<polygon fill="none" stroke="#bfbfbf" points="98.5,-112.5 98.5,-131.5 154.5,-131.5 154.5,-112.5 98.5,-112.5"/>
<text text-anchor="middle" x="126.5" y="-119.5" font-family="Helvetica,sans-Serif" font-size="10.00">optional</text>
</a>
</g>
</g>
<!-- Node6&#45;&gt;Node7 -->
<g id="edge6" class="edge">
<title>Node6&#45;&gt;Node7</title>
<path fill="none" stroke="midnightblue" d="M134.01,-168.08C132.82,-160.93 131.11,-150.64 129.62,-141.69"/>
<polygon fill="midnightblue" stroke="midnightblue" points="133.05,-141.04 127.96,-131.75 126.15,-142.19 133.05,-141.04"/>
</g>
<!-- Node8 -->
<g id="node8" class="node">
<title>Node8</title>
<g id="a_node8"><a xlink:href="abcgVulkanInstance_8hpp.html" target="_top" xlink:title="Header file of abcg::VulkanInstance.">
<polygon fill="none" stroke="black" points="172.5,-112.5 172.5,-131.5 306.5,-131.5 306.5,-112.5 172.5,-112.5"/>
<text text-anchor="middle" x="239.5" y="-119.5" font-family="Helvetica,sans-Serif" font-size="10.00">abcgVulkanInstance.hpp</text>
</a>
</g>
</g>
<!-- Node6&#45;&gt;Node8 -->
<g id="edge8" class="edge">
<title>Node6&#45;&gt;Node8</title>
<path fill="none" stroke="midnightblue" d="M152.21,-168.32C168.81,-159.7 194.5,-146.36 213.72,-136.39"/>
<polygon fill="midnightblue" stroke="midnightblue" points="215.57,-139.37 222.83,-131.65 212.34,-133.16 215.57,-139.37"/>
</g>
<!-- Node8&#45;&gt;Node3 -->
<g id="edge9" class="edge">
<title>Node8&#45;&gt;Node3</title>
<path fill="none" stroke="midnightblue" d="M212.72,-112.44C184.17,-103.32 138.77,-88.81 106.96,-78.65"/>
<polygon fill="midnightblue" stroke="midnightblue" points="107.74,-75.23 97.15,-75.52 105.61,-81.89 107.74,-75.23"/>
</g>
</g>
</svg>
