<?xml version="1.0" encoding="UTF-8" standalone="no"?>
<!DOCTYPE svg PUBLIC "-//W3C//DTD SVG 1.1//EN"
 "http://www.w3.org/Graphics/SVG/1.1/DTD/svg11.dtd">
<!-- Generated by graphviz version 2.43.0 (0)
 -->
<!-- Title: /home/harlen/dev/abcg/abcg/abcgVulkanInstance.cpp Pages: 1 -->
<svg width="1419pt" height="543pt"
 viewBox="0.00 0.00 1418.50 543.00" xmlns="http://www.w3.org/2000/svg" xmlns:xlink="http://www.w3.org/1999/xlink">
<g id="graph0" class="graph" transform="scale(1 1) rotate(0) translate(4 539)">
<title>/home/harlen/dev/abcg/abcg/abcgVulkanInstance.cpp</title>
<!-- Node1 -->
<g id="node1" class="node">
<title>Node1</title>
<g id="a_node1"><a xlink:title="Definition of abcg::VulkanInstance.">
<polygon fill="#bfbfbf" stroke="black" points="1007.5,-504.5 1007.5,-534.5 1170.5,-534.5 1170.5,-504.5 1007.5,-504.5"/>
<text text-anchor="start" x="1015.5" y="-522.5" font-family="Helvetica,sans-Serif" font-size="10.00">/home/harlen/dev/abcg</text>
<text text-anchor="middle" x="1089" y="-511.5" font-family="Helvetica,sans-Serif" font-size="10.00">/abcg/abcgVulkanInstance.cpp</text>
</a>
</g>
</g>
<!-- Node2 -->
<g id="node2" class="node">
<title>Node2</title>
<g id="a_node2"><a xlink:href="abcgVulkanInstance_8hpp.html" target="_top" xlink:title="Header file of abcg::VulkanInstance.">
<polygon fill="none" stroke="black" points="0,-112.5 0,-131.5 134,-131.5 134,-112.5 0,-112.5"/>
<text text-anchor="middle" x="67" y="-119.5" font-family="Helvetica,sans-Serif" font-size="10.00">abcgVulkanInstance.hpp</text>
</a>
</g>
</g>
<!-- Node1&#45;&gt;Node2 -->
<g id="edge1" class="edge">
<title>Node1&#45;&gt;Node2</title>
<path fill="none" stroke="midnightblue" d="M1007.41,-518.21C757.75,-516.27 21,-502.14 21,-403 21,-403 21,-403 21,-233 21,-197.82 41.28,-160.86 54.91,-140"/>
<polygon fill="midnightblue" stroke="midnightblue" points="57.88,-141.85 60.6,-131.61 52.09,-137.92 57.88,-141.85"/>
</g>
<!-- Node6 -->
<g id="node6" class="node">
<title>Node6</title>
<g id="a_node6"><a xlink:title=" ">
<polygon fill="none" stroke="#bfbfbf" points="1155,-448.5 1155,-467.5 1195,-467.5 1195,-448.5 1155,-448.5"/>
<text text-anchor="middle" x="1175" y="-455.5" font-family="Helvetica,sans-Serif" font-size="10.00">span</text>
</a>
</g>
</g>
<!-- Node1&#45;&gt;Node6 -->
<g id="edge5" class="edge">
<title>Node1&#45;&gt;Node6</title>
<path fill="none" stroke="midnightblue" d="M1109.38,-504.4C1122.91,-495.04 1140.61,-482.79 1154.22,-473.38"/>
<polygon fill="midnightblue" stroke="midnightblue" points="1156.25,-476.23 1162.49,-467.66 1152.27,-470.47 1156.25,-476.23"/>
</g>
<!-- Node7 -->
<g id="node7" class="node">
<title>Node7</title>
<g id="a_node7"><a xlink:href="abcgApplication_8hpp.html" target="_top" xlink:title="Header file of abcg::Application.">
<polygon fill="none" stroke="black" points="1045,-280.5 1045,-299.5 1161,-299.5 1161,-280.5 1045,-280.5"/>
<text text-anchor="middle" x="1103" y="-287.5" font-family="Helvetica,sans-Serif" font-size="10.00">abcgApplication.hpp</text>
</a>
</g>
</g>
<!-- Node1&#45;&gt;Node7 -->
<g id="edge6" class="edge">
<title>Node1&#45;&gt;Node7</title>
<path fill="none" stroke="midnightblue" d="M1089.88,-504.27C1092.3,-464.89 1099.09,-354.49 1101.83,-309.97"/>
<polygon fill="midnightblue" stroke="midnightblue" points="1105.33,-310.12 1102.45,-299.93 1098.34,-309.69 1105.33,-310.12"/>
</g>
<!-- Node9 -->
<g id="node9" class="node">
<title>Node9</title>
<g id="a_node9"><a xlink:href="abcgException_8hpp.html" target="_top" xlink:title="Header file of abcg::Exception and derived classes.">
<polygon fill="none" stroke="black" points="1275.5,-280.5 1275.5,-299.5 1384.5,-299.5 1384.5,-280.5 1275.5,-280.5"/>
<text text-anchor="middle" x="1330" y="-287.5" font-family="Helvetica,sans-Serif" font-size="10.00">abcgException.hpp</text>
</a>
</g>
</g>
<!-- Node1&#45;&gt;Node9 -->
<g id="edge8" class="edge">
<title>Node1&#45;&gt;Node9</title>
<path fill="none" stroke="midnightblue" d="M1099.22,-504.35C1110.11,-489.65 1128.21,-466.27 1146,-448 1201.4,-391.11 1275.35,-332.6 1310.22,-305.91"/>
<polygon fill="midnightblue" stroke="midnightblue" points="1312.75,-308.38 1318.59,-299.54 1308.51,-302.81 1312.75,-308.38"/>
</g>
<!-- Node12 -->
<g id="node12" class="node">
<title>Node12</title>
<g id="a_node12"><a xlink:href="abcgVulkan_8hpp.html" target="_top" xlink:title="Header file for Vulkan&#45;related functions and classes.">
<polygon fill="none" stroke="black" points="480.5,-448.5 480.5,-467.5 573.5,-467.5 573.5,-448.5 480.5,-448.5"/>
<text text-anchor="middle" x="527" y="-455.5" font-family="Helvetica,sans-Serif" font-size="10.00">abcgVulkan.hpp</text>
</a>
</g>
</g>
<!-- Node1&#45;&gt;Node12 -->
<g id="edge12" class="edge">
<title>Node1&#45;&gt;Node12</title>
<path fill="none" stroke="midnightblue" d="M1007.28,-509.85C891.87,-497.63 684.08,-475.63 583.96,-465.03"/>
<polygon fill="midnightblue" stroke="midnightblue" points="584.06,-461.52 573.75,-463.95 583.33,-468.48 584.06,-461.52"/>
</g>
<!-- Node3 -->
<g id="node3" class="node">
<title>Node3</title>
<g id="a_node3"><a xlink:href="abcgVulkanExternal_8hpp.html" target="_top" xlink:title="Header file for including Vulkan&#45;related dependencies.">
<polygon fill="none" stroke="black" points="47,-56.5 47,-75.5 181,-75.5 181,-56.5 47,-56.5"/>
<text text-anchor="middle" x="114" y="-63.5" font-family="Helvetica,sans-Serif" font-size="10.00">abcgVulkanExternal.hpp</text>
</a>
</g>
</g>
<!-- Node2&#45;&gt;Node3 -->
<g id="edge2" class="edge">
<title>Node2&#45;&gt;Node3</title>
<path fill="none" stroke="midnightblue" d="M74.76,-112.08C81.54,-104.3 91.54,-92.8 99.76,-83.37"/>
<polygon fill="midnightblue" stroke="midnightblue" points="102.46,-85.59 106.38,-75.75 97.18,-81 102.46,-85.59"/>
</g>
<!-- Node4 -->
<g id="node4" class="node">
<title>Node4</title>
<g id="a_node4"><a xlink:title=" ">
<polygon fill="none" stroke="#bfbfbf" points="43.5,-0.5 43.5,-19.5 90.5,-19.5 90.5,-0.5 43.5,-0.5"/>
<text text-anchor="middle" x="67" y="-7.5" font-family="Helvetica,sans-Serif" font-size="10.00">volk.h</text>
</a>
</g>
</g>
<!-- Node3&#45;&gt;Node4 -->
<g id="edge3" class="edge">
<title>Node3&#45;&gt;Node4</title>
<path fill="none" stroke="midnightblue" d="M106.24,-56.08C99.46,-48.3 89.46,-36.8 81.24,-27.37"/>
<polygon fill="midnightblue" stroke="midnightblue" points="83.82,-25 74.62,-19.75 78.54,-29.59 83.82,-25"/>
</g>
<!-- Node5 -->
<g id="node5" class="node">
<title>Node5</title>
<g id="a_node5"><a xlink:title=" ">
<polygon fill="none" stroke="#bfbfbf" points="108.5,-0.5 108.5,-19.5 213.5,-19.5 213.5,-0.5 108.5,-0.5"/>
<text text-anchor="middle" x="161" y="-7.5" font-family="Helvetica,sans-Serif" font-size="10.00">vulkan/vulkan.hpp</text>
</a>
</g>
</g>
<!-- Node3&#45;&gt;Node5 -->
<g id="edge4" class="edge">
<title>Node3&#45;&gt;Node5</title>
<path fill="none" stroke="midnightblue" d="M121.76,-56.08C128.54,-48.3 138.54,-36.8 146.76,-27.37"/>
<polygon fill="midnightblue" stroke="midnightblue" points="149.46,-29.59 153.38,-19.75 144.18,-25 149.46,-29.59"/>
</g>
<!-- Node8 -->
<g id="node8" class="node">
<title>Node8</title>
<g id="a_node8"><a xlink:title=" ">
<polygon fill="none" stroke="#bfbfbf" points="1081,-224.5 1081,-243.5 1125,-243.5 1125,-224.5 1081,-224.5"/>
<text text-anchor="middle" x="1103" y="-231.5" font-family="Helvetica,sans-Serif" font-size="10.00">string</text>
</a>
</g>
</g>
<!-- Node7&#45;&gt;Node8 -->
<g id="edge7" class="edge">
<title>Node7&#45;&gt;Node8</title>
<path fill="none" stroke="midnightblue" d="M1103,-280.08C1103,-273.01 1103,-262.86 1103,-253.99"/>
<polygon fill="midnightblue" stroke="midnightblue" points="1106.5,-253.75 1103,-243.75 1099.5,-253.75 1106.5,-253.75"/>
</g>
<!-- Node9&#45;&gt;Node8 -->
<g id="edge11" class="edge">
<title>Node9&#45;&gt;Node8</title>
<path fill="none" stroke="midnightblue" d="M1294.03,-280.44C1250.24,-270.03 1176.94,-252.59 1135.02,-242.62"/>
<polygon fill="midnightblue" stroke="midnightblue" points="1135.61,-239.16 1125.07,-240.25 1133.99,-245.97 1135.61,-239.16"/>
</g>
<!-- Node10 -->
<g id="node10" class="node">
<title>Node10</title>
<g id="a_node10"><a xlink:title=" ">
<polygon fill="none" stroke="#bfbfbf" points="1234.5,-224.5 1234.5,-243.5 1327.5,-243.5 1327.5,-224.5 1234.5,-224.5"/>
<text text-anchor="middle" x="1281" y="-231.5" font-family="Helvetica,sans-Serif" font-size="10.00">source_location</text>
</a>
</g>
</g>
<!-- Node9&#45;&gt;Node10 -->
<g id="edge9" class="edge">
<title>Node9&#45;&gt;Node10</title>
<path fill="none" stroke="midnightblue" d="M1321.91,-280.08C1314.84,-272.3 1304.41,-260.8 1295.85,-251.37"/>
<polygon fill="midnightblue" stroke="midnightblue" points="1298.25,-248.8 1288.94,-243.75 1293.07,-253.51 1298.25,-248.8"/>
</g>
<!-- Node11 -->
<g id="node11" class="node">
<title>Node11</title>
<g id="a_node11"><a xlink:title=" ">
<polygon fill="none" stroke="#bfbfbf" points="1345.5,-224.5 1345.5,-243.5 1410.5,-243.5 1410.5,-224.5 1345.5,-224.5"/>
<text text-anchor="middle" x="1378" y="-231.5" font-family="Helvetica,sans-Serif" font-size="10.00">stdexcept</text>
</a>
</g>
</g>
<!-- Node9&#45;&gt;Node11 -->
<g id="edge10" class="edge">
<title>Node9&#45;&gt;Node11</title>
<path fill="none" stroke="midnightblue" d="M1337.93,-280.08C1344.85,-272.3 1355.07,-260.8 1363.45,-251.37"/>
<polygon fill="midnightblue" stroke="midnightblue" points="1366.19,-253.55 1370.22,-243.75 1360.96,-248.9 1366.19,-253.55"/>
</g>
<!-- Node13 -->
<g id="node13" class="node">
<title>Node13</title>
<g id="a_node13"><a xlink:href="abcg_8hpp.html" target="_top" xlink:title="Shortcut header that includes the most common ABCg headers.">
<polygon fill="none" stroke="black" points="986.5,-336.5 986.5,-355.5 1047.5,-355.5 1047.5,-336.5 986.5,-336.5"/>
<text text-anchor="middle" x="1017" y="-343.5" font-family="Helvetica,sans-Serif" font-size="10.00">abcg.hpp</text>
</a>
</g>
</g>
<!-- Node12&#45;&gt;Node13 -->
<g id="edge13" class="edge">
<title>Node12&#45;&gt;Node13</title>
<path fill="none" stroke="midnightblue" d="M565.04,-448.46C655.64,-428.12 883.51,-376.97 976.52,-356.09"/>
<polygon fill="midnightblue" stroke="midnightblue" points="977.41,-359.48 986.4,-353.87 975.87,-352.65 977.41,-359.48"/>
</g>
<!-- Node21 -->
<g id="node21" class="node">
<title>Node21</title>
<g id="a_node21"><a xlink:href="abcgVulkanBuffer_8hpp.html" target="_top" xlink:title="Header file of abcg::VulkanBuffer.">
<polygon fill="none" stroke="black" points="515,-280.5 515,-299.5 637,-299.5 637,-280.5 515,-280.5"/>
<text text-anchor="middle" x="576" y="-287.5" font-family="Helvetica,sans-Serif" font-size="10.00">abcgVulkanBuffer.hpp</text>
</a>
</g>
</g>
<!-- Node12&#45;&gt;Node21 -->
<g id="edge28" class="edge">
<title>Node12&#45;&gt;Node21</title>
<path fill="none" stroke="midnightblue" d="M529.74,-448.39C532.6,-439.34 537.19,-424.7 541,-412 551.91,-375.66 564.11,-332.99 570.84,-309.27"/>
<polygon fill="midnightblue" stroke="midnightblue" points="574.24,-310.1 573.6,-299.53 567.51,-308.19 574.24,-310.1"/>
</g>
<!-- Node26 -->
<g id="node26" class="node">
<title>Node26</title>
<g id="a_node26"><a xlink:href="abcgVulkanImage_8hpp.html" target="_top" xlink:title="Header file of abcg::VulkanImage.">
<polygon fill="none" stroke="black" points="373,-280.5 373,-299.5 497,-299.5 497,-280.5 373,-280.5"/>
<text text-anchor="middle" x="435" y="-287.5" font-family="Helvetica,sans-Serif" font-size="10.00">abcgVulkanImage.hpp</text>
</a>
</g>
</g>
<!-- Node12&#45;&gt;Node26 -->
<g id="edge36" class="edge">
<title>Node12&#45;&gt;Node26</title>
<path fill="none" stroke="midnightblue" d="M527.76,-448.22C529.16,-426.99 530.04,-371.99 506,-336 496.56,-321.86 481.01,-311.28 466.86,-303.93"/>
<polygon fill="midnightblue" stroke="midnightblue" points="468.38,-300.78 457.85,-299.57 465.33,-307.08 468.38,-300.78"/>
</g>
<!-- Node27 -->
<g id="node27" class="node">
<title>Node27</title>
<g id="a_node27"><a xlink:href="abcgVulkanPipeline_8hpp.html" target="_top" xlink:title="Header file of abcg::VulkanPipeline.">
<polygon fill="none" stroke="black" points="329,-392.5 329,-411.5 461,-411.5 461,-392.5 329,-392.5"/>
<text text-anchor="middle" x="395" y="-399.5" font-family="Helvetica,sans-Serif" font-size="10.00">abcgVulkanPipeline.hpp</text>
</a>
</g>
</g>
<!-- Node12&#45;&gt;Node27 -->
<g id="edge39" class="edge">
<title>Node12&#45;&gt;Node27</title>
<path fill="none" stroke="midnightblue" d="M506.08,-448.44C484.26,-439.52 449.85,-425.44 425.11,-415.32"/>
<polygon fill="midnightblue" stroke="midnightblue" points="426.4,-412.06 415.82,-411.52 423.75,-418.54 426.4,-412.06"/>
</g>
<!-- Node28 -->
<g id="node28" class="node">
<title>Node28</title>
<g id="a_node28"><a xlink:href="abcgVulkanShader_8hpp.html" target="_top" xlink:title="Declaration of helper functions for creating Vulkan shaders.">
<polygon fill="none" stroke="black" points="371,-336.5 371,-355.5 497,-355.5 497,-336.5 371,-336.5"/>
<text text-anchor="middle" x="434" y="-343.5" font-family="Helvetica,sans-Serif" font-size="10.00">abcgVulkanShader.hpp</text>
</a>
</g>
</g>
<!-- Node12&#45;&gt;Node28 -->
<g id="edge50" class="edge">
<title>Node12&#45;&gt;Node28</title>
<path fill="none" stroke="midnightblue" d="M519.7,-448.37C504.22,-430.05 467.86,-387.05 447.83,-363.36"/>
<polygon fill="midnightblue" stroke="midnightblue" points="450.39,-360.97 441.26,-355.59 445.05,-365.49 450.39,-360.97"/>
</g>
<!-- Node32 -->
<g id="node32" class="node">
<title>Node32</title>
<g id="a_node32"><a xlink:href="abcgVulkanWindow_8hpp.html" target="_top" xlink:title="Header file of abcg::VulkanWindow.">
<polygon fill="none" stroke="black" points="147.5,-392.5 147.5,-411.5 278.5,-411.5 278.5,-392.5 147.5,-392.5"/>
<text text-anchor="middle" x="213" y="-399.5" font-family="Helvetica,sans-Serif" font-size="10.00">abcgVulkanWindow.hpp</text>
</a>
</g>
</g>
<!-- Node12&#45;&gt;Node32 -->
<g id="edge51" class="edge">
<title>Node12&#45;&gt;Node32</title>
<path fill="none" stroke="midnightblue" d="M480.33,-448.97C425.1,-439.48 333.03,-423.64 272.66,-413.26"/>
<polygon fill="midnightblue" stroke="midnightblue" points="272.97,-409.76 262.52,-411.52 271.78,-416.66 272.97,-409.76"/>
</g>
<!-- Node13&#45;&gt;Node7 -->
<g id="edge14" class="edge">
<title>Node13&#45;&gt;Node7</title>
<path fill="none" stroke="midnightblue" d="M1030.82,-336.32C1044.23,-327.9 1064.82,-314.97 1080.59,-305.07"/>
<polygon fill="midnightblue" stroke="midnightblue" points="1082.61,-307.94 1089.22,-299.65 1078.89,-302.01 1082.61,-307.94"/>
</g>
<!-- Node13&#45;&gt;Node9 -->
<g id="edge15" class="edge">
<title>Node13&#45;&gt;Node9</title>
<path fill="none" stroke="midnightblue" d="M1047.58,-339.72C1099.16,-330.83 1204.3,-312.69 1270.73,-301.23"/>
<polygon fill="midnightblue" stroke="midnightblue" points="1271.38,-304.67 1280.64,-299.52 1270.19,-297.77 1271.38,-304.67"/>
</g>
<!-- Node14 -->
<g id="node14" class="node">
<title>Node14</title>
<g id="a_node14"><a xlink:href="abcgExternal_8hpp.html" target="_top" xlink:title="Header file for including third&#45;party dependencies.">
<polygon fill="none" stroke="black" points="888.5,-224.5 888.5,-243.5 989.5,-243.5 989.5,-224.5 888.5,-224.5"/>
<text text-anchor="middle" x="939" y="-231.5" font-family="Helvetica,sans-Serif" font-size="10.00">abcgExternal.hpp</text>
</a>
</g>
</g>
<!-- Node13&#45;&gt;Node14 -->
<g id="edge16" class="edge">
<title>Node13&#45;&gt;Node14</title>
<path fill="none" stroke="midnightblue" d="M1016.19,-336.27C1014.61,-323.05 1010.11,-297.64 998,-280 989.28,-267.31 975.84,-256.66 963.99,-248.91"/>
<polygon fill="midnightblue" stroke="midnightblue" points="965.69,-245.84 955.34,-243.56 962.01,-251.8 965.69,-245.84"/>
</g>
<!-- Node15 -->
<g id="node15" class="node">
<title>Node15</title>
<g id="a_node15"><a xlink:href="abcgTrackball_8hpp.html" target="_top" xlink:title="Header file of abcg::TrackBall.">
<polygon fill="none" stroke="black" points="767,-280.5 767,-299.5 871,-299.5 871,-280.5 767,-280.5"/>
<text text-anchor="middle" x="819" y="-287.5" font-family="Helvetica,sans-Serif" font-size="10.00">abcgTrackball.hpp</text>
</a>
</g>
</g>
<!-- Node13&#45;&gt;Node15 -->
<g id="edge17" class="edge">
<title>Node13&#45;&gt;Node15</title>
<path fill="none" stroke="midnightblue" d="M986.5,-336.68C952.54,-327.42 897.5,-312.41 859.84,-302.14"/>
<polygon fill="midnightblue" stroke="midnightblue" points="860.76,-298.76 850.19,-299.51 858.92,-305.51 860.76,-298.76"/>
</g>
<!-- Node18 -->
<g id="node18" class="node">
<title>Node18</title>
<g id="a_node18"><a xlink:href="abcgUtil_8hpp.html" target="_top" xlink:title="Declaration of general utility functions.">
<polygon fill="none" stroke="black" points="1179,-280.5 1179,-299.5 1257,-299.5 1257,-280.5 1179,-280.5"/>
<text text-anchor="middle" x="1218" y="-287.5" font-family="Helvetica,sans-Serif" font-size="10.00">abcgUtil.hpp</text>
</a>
</g>
</g>
<!-- Node13&#45;&gt;Node18 -->
<g id="edge21" class="edge">
<title>Node13&#45;&gt;Node18</title>
<path fill="none" stroke="midnightblue" d="M1047.53,-336.8C1081.91,-327.56 1137.97,-312.5 1176.35,-302.19"/>
<polygon fill="midnightblue" stroke="midnightblue" points="1177.44,-305.52 1186.19,-299.55 1175.62,-298.76 1177.44,-305.52"/>
</g>
<!-- Node20 -->
<g id="node20" class="node">
<title>Node20</title>
<g id="a_node20"><a xlink:href="abcgWindow_8hpp.html" target="_top" xlink:title="Header file of abcg::Window.">
<polygon fill="none" stroke="black" points="889.5,-280.5 889.5,-299.5 988.5,-299.5 988.5,-280.5 889.5,-280.5"/>
<text text-anchor="middle" x="939" y="-287.5" font-family="Helvetica,sans-Serif" font-size="10.00">abcgWindow.hpp</text>
</a>
</g>
</g>
<!-- Node13&#45;&gt;Node20 -->
<g id="edge24" class="edge">
<title>Node13&#45;&gt;Node20</title>
<path fill="none" stroke="midnightblue" d="M1004.47,-336.32C992.41,-327.98 973.97,-315.21 959.73,-305.35"/>
<polygon fill="midnightblue" stroke="midnightblue" points="961.72,-302.47 951.5,-299.65 957.73,-308.22 961.72,-302.47"/>
</g>
<!-- Node15&#45;&gt;Node14 -->
<g id="edge18" class="edge">
<title>Node15&#45;&gt;Node14</title>
<path fill="none" stroke="midnightblue" d="M838.01,-280.44C857.59,-271.64 888.31,-257.81 910.73,-247.72"/>
<polygon fill="midnightblue" stroke="midnightblue" points="912.39,-250.81 920.07,-243.52 909.52,-244.43 912.39,-250.81"/>
</g>
<!-- Node16 -->
<g id="node16" class="node">
<title>Node16</title>
<g id="a_node16"><a xlink:href="abcgTimer_8hpp.html" target="_top" xlink:title="Header file of abcg::Timer.">
<polygon fill="none" stroke="black" points="777.5,-224.5 777.5,-243.5 866.5,-243.5 866.5,-224.5 777.5,-224.5"/>
<text text-anchor="middle" x="822" y="-231.5" font-family="Helvetica,sans-Serif" font-size="10.00">abcgTimer.hpp</text>
</a>
</g>
</g>
<!-- Node15&#45;&gt;Node16 -->
<g id="edge19" class="edge">
<title>Node15&#45;&gt;Node16</title>
<path fill="none" stroke="midnightblue" d="M819.5,-280.08C819.89,-273.01 820.45,-262.86 820.95,-253.99"/>
<polygon fill="midnightblue" stroke="midnightblue" points="824.45,-253.93 821.51,-243.75 817.46,-253.54 824.45,-253.93"/>
</g>
<!-- Node17 -->
<g id="node17" class="node">
<title>Node17</title>
<g id="a_node17"><a xlink:title=" ">
<polygon fill="none" stroke="#bfbfbf" points="797,-168.5 797,-187.5 847,-187.5 847,-168.5 797,-168.5"/>
<text text-anchor="middle" x="822" y="-175.5" font-family="Helvetica,sans-Serif" font-size="10.00">chrono</text>
</a>
</g>
</g>
<!-- Node16&#45;&gt;Node17 -->
<g id="edge20" class="edge">
<title>Node16&#45;&gt;Node17</title>
<path fill="none" stroke="midnightblue" d="M822,-224.08C822,-217.01 822,-206.86 822,-197.99"/>
<polygon fill="midnightblue" stroke="midnightblue" points="825.5,-197.75 822,-187.75 818.5,-197.75 825.5,-197.75"/>
</g>
<!-- Node18&#45;&gt;Node8 -->
<g id="edge23" class="edge">
<title>Node18&#45;&gt;Node8</title>
<path fill="none" stroke="midnightblue" d="M1199.78,-280.44C1181.1,-271.68 1151.84,-257.94 1130.38,-247.86"/>
<polygon fill="midnightblue" stroke="midnightblue" points="1131.68,-244.6 1121.14,-243.52 1128.7,-250.93 1131.68,-244.6"/>
</g>
<!-- Node19 -->
<g id="node19" class="node">
<title>Node19</title>
<g id="a_node19"><a xlink:title=" ">
<polygon fill="none" stroke="#bfbfbf" points="292.5,-168.5 292.5,-187.5 357.5,-187.5 357.5,-168.5 292.5,-168.5"/>
<text text-anchor="middle" x="325" y="-175.5" font-family="Helvetica,sans-Serif" font-size="10.00">functional</text>
</a>
</g>
</g>
<!-- Node18&#45;&gt;Node19 -->
<g id="edge22" class="edge">
<title>Node18&#45;&gt;Node19</title>
<path fill="none" stroke="midnightblue" d="M1210.24,-280.24C1196.56,-265.49 1166.48,-236.12 1134,-224 1062.09,-197.17 524.86,-183.38 367.93,-179.9"/>
<polygon fill="midnightblue" stroke="midnightblue" points="367.8,-176.39 357.72,-179.67 367.64,-183.39 367.8,-176.39"/>
</g>
<!-- Node20&#45;&gt;Node8 -->
<g id="edge25" class="edge">
<title>Node20&#45;&gt;Node8</title>
<path fill="none" stroke="midnightblue" d="M964.99,-280.44C993.71,-270.99 1040.01,-255.74 1070.96,-245.55"/>
<polygon fill="midnightblue" stroke="midnightblue" points="1072.41,-248.76 1080.82,-242.3 1070.22,-242.11 1072.41,-248.76"/>
</g>
<!-- Node20&#45;&gt;Node14 -->
<g id="edge26" class="edge">
<title>Node20&#45;&gt;Node14</title>
<path fill="none" stroke="midnightblue" d="M939,-280.08C939,-273.01 939,-262.86 939,-253.99"/>
<polygon fill="midnightblue" stroke="midnightblue" points="942.5,-253.75 939,-243.75 935.5,-253.75 942.5,-253.75"/>
</g>
<!-- Node20&#45;&gt;Node16 -->
<g id="edge27" class="edge">
<title>Node20&#45;&gt;Node16</title>
<path fill="none" stroke="midnightblue" d="M920.46,-280.44C901.38,-271.64 871.43,-257.81 849.56,-247.72"/>
<polygon fill="midnightblue" stroke="midnightblue" points="851,-244.53 840.45,-243.52 848.07,-250.88 851,-244.53"/>
</g>
<!-- Node22 -->
<g id="node22" class="node">
<title>Node22</title>
<g id="a_node22"><a xlink:href="abcgVulkanDevice_8hpp.html" target="_top" xlink:title="Header file of abcg::VulkanDevice.">
<polygon fill="none" stroke="black" points="261.5,-224.5 261.5,-243.5 388.5,-243.5 388.5,-224.5 261.5,-224.5"/>
<text text-anchor="middle" x="325" y="-231.5" font-family="Helvetica,sans-Serif" font-size="10.00">abcgVulkanDevice.hpp</text>
</a>
</g>
</g>
<!-- Node21&#45;&gt;Node22 -->
<g id="edge29" class="edge">
<title>Node21&#45;&gt;Node22</title>
<path fill="none" stroke="midnightblue" d="M536.23,-280.44C492.44,-271.02 421.99,-255.87 374.62,-245.68"/>
<polygon fill="midnightblue" stroke="midnightblue" points="375.1,-242.2 364.59,-243.52 373.63,-249.04 375.1,-242.2"/>
</g>
<!-- Node25 -->
<g id="node25" class="node">
<title>Node25</title>
<g id="a_node25"><a xlink:title=" ">
<polygon fill="none" stroke="#bfbfbf" points="463,-224.5 463,-243.5 537,-243.5 537,-224.5 463,-224.5"/>
<text text-anchor="middle" x="500" y="-231.5" font-family="Helvetica,sans-Serif" font-size="10.00">gsl/pointers</text>
</a>
</g>
</g>
<!-- Node21&#45;&gt;Node25 -->
<g id="edge35" class="edge">
<title>Node21&#45;&gt;Node25</title>
<path fill="none" stroke="midnightblue" d="M563.79,-280.32C552.22,-272.11 534.62,-259.6 520.84,-249.81"/>
<polygon fill="midnightblue" stroke="midnightblue" points="522.61,-246.77 512.43,-243.83 518.56,-252.48 522.61,-246.77"/>
</g>
<!-- Node22&#45;&gt;Node19 -->
<g id="edge34" class="edge">
<title>Node22&#45;&gt;Node19</title>
<path fill="none" stroke="midnightblue" d="M325,-224.08C325,-217.01 325,-206.86 325,-197.99"/>
<polygon fill="midnightblue" stroke="midnightblue" points="328.5,-197.75 325,-187.75 321.5,-197.75 328.5,-197.75"/>
</g>
<!-- Node23 -->
<g id="node23" class="node">
<title>Node23</title>
<g id="a_node23"><a xlink:href="abcgVulkanPhysicalDevice_8hpp.html" target="_top" xlink:title="Header file of abcg::VulkanPhysicalDevice.">
<polygon fill="none" stroke="black" points="86.5,-168.5 86.5,-187.5 253.5,-187.5 253.5,-168.5 86.5,-168.5"/>
<text text-anchor="middle" x="170" y="-175.5" font-family="Helvetica,sans-Serif" font-size="10.00">abcgVulkanPhysicalDevice.hpp</text>
</a>
</g>
</g>
<!-- Node22&#45;&gt;Node23 -->
<g id="edge30" class="edge">
<title>Node22&#45;&gt;Node23</title>
<path fill="none" stroke="midnightblue" d="M300.44,-224.44C274.48,-215.4 233.33,-201.06 204.2,-190.92"/>
<polygon fill="midnightblue" stroke="midnightblue" points="205.04,-187.5 194.45,-187.52 202.74,-194.11 205.04,-187.5"/>
</g>
<!-- Node23&#45;&gt;Node2 -->
<g id="edge33" class="edge">
<title>Node23&#45;&gt;Node2</title>
<path fill="none" stroke="midnightblue" d="M153.45,-168.32C137.01,-159.7 111.57,-146.36 92.53,-136.39"/>
<polygon fill="midnightblue" stroke="midnightblue" points="93.99,-133.2 83.51,-131.65 90.74,-139.4 93.99,-133.2"/>
</g>
<!-- Node23&#45;&gt;Node3 -->
<g id="edge32" class="edge">
<title>Node23&#45;&gt;Node3</title>
<path fill="none" stroke="midnightblue" d="M166.98,-168.37C162.41,-155.7 153.22,-131.48 143,-112 137.98,-102.43 131.54,-92.27 126,-84.04"/>
<polygon fill="midnightblue" stroke="midnightblue" points="128.81,-81.94 120.26,-75.68 123.04,-85.91 128.81,-81.94"/>
</g>
<!-- Node24 -->
<g id="node24" class="node">
<title>Node24</title>
<g id="a_node24"><a xlink:title=" ">
<polygon fill="none" stroke="#bfbfbf" points="404,-112.5 404,-131.5 460,-131.5 460,-112.5 404,-112.5"/>
<text text-anchor="middle" x="432" y="-119.5" font-family="Helvetica,sans-Serif" font-size="10.00">optional</text>
</a>
</g>
</g>
<!-- Node23&#45;&gt;Node24 -->
<g id="edge31" class="edge">
<title>Node23&#45;&gt;Node24</title>
<path fill="none" stroke="midnightblue" d="M211.51,-168.44C261.66,-158.11 345.3,-140.87 393.87,-130.86"/>
<polygon fill="midnightblue" stroke="midnightblue" points="394.88,-134.22 403.97,-128.78 393.47,-127.37 394.88,-134.22"/>
</g>
<!-- Node26&#45;&gt;Node22 -->
<g id="edge37" class="edge">
<title>Node26&#45;&gt;Node22</title>
<path fill="none" stroke="midnightblue" d="M417.33,-280.32C399.61,-271.62 372.1,-258.12 351.71,-248.11"/>
<polygon fill="midnightblue" stroke="midnightblue" points="353.15,-244.92 342.63,-243.65 350.06,-251.2 353.15,-244.92"/>
</g>
<!-- Node26&#45;&gt;Node25 -->
<g id="edge38" class="edge">
<title>Node26&#45;&gt;Node25</title>
<path fill="none" stroke="midnightblue" d="M445.44,-280.32C455.15,-272.26 469.82,-260.08 481.5,-250.37"/>
<polygon fill="midnightblue" stroke="midnightblue" points="483.91,-252.92 489.37,-243.83 479.44,-247.53 483.91,-252.92"/>
</g>
<!-- Node27&#45;&gt;Node28 -->
<g id="edge40" class="edge">
<title>Node27&#45;&gt;Node28</title>
<path fill="none" stroke="midnightblue" d="M401.44,-392.08C406.95,-384.46 415.03,-373.26 421.76,-363.94"/>
<polygon fill="midnightblue" stroke="midnightblue" points="424.66,-365.91 427.68,-355.75 418.99,-361.81 424.66,-365.91"/>
</g>
<!-- Node30 -->
<g id="node30" class="node">
<title>Node30</title>
<g id="a_node30"><a xlink:href="abcgVulkanSwapchain_8hpp.html" target="_top" xlink:title="Header file of abcg::VulkanSwapchain.">
<polygon fill="none" stroke="black" points="203,-336.5 203,-355.5 349,-355.5 349,-336.5 203,-336.5"/>
<text text-anchor="middle" x="276" y="-343.5" font-family="Helvetica,sans-Serif" font-size="10.00">abcgVulkanSwapchain.hpp</text>
</a>
</g>
</g>
<!-- Node27&#45;&gt;Node30 -->
<g id="edge45" class="edge">
<title>Node27&#45;&gt;Node30</title>
<path fill="none" stroke="midnightblue" d="M376.14,-392.44C356.73,-383.64 326.27,-369.81 304.04,-359.72"/>
<polygon fill="midnightblue" stroke="midnightblue" points="305.32,-356.46 294.77,-355.52 302.43,-362.84 305.32,-356.46"/>
</g>
<!-- Node28&#45;&gt;Node22 -->
<g id="edge44" class="edge">
<title>Node28&#45;&gt;Node22</title>
<path fill="none" stroke="midnightblue" d="M416,-336.4C400.81,-328.5 379.19,-315.66 364,-300 350.58,-286.16 339.75,-266.88 332.94,-252.92"/>
<polygon fill="midnightblue" stroke="midnightblue" points="336.11,-251.43 328.71,-243.84 329.76,-254.39 336.11,-251.43"/>
</g>
<!-- Node29 -->
<g id="node29" class="node">
<title>Node29</title>
<g id="a_node29"><a xlink:href="abcgShader_8hpp.html" target="_top" xlink:title="Declaration of a structure for building shaders.">
<polygon fill="none" stroke="black" points="655,-280.5 655,-299.5 749,-299.5 749,-280.5 655,-280.5"/>
<text text-anchor="middle" x="702" y="-287.5" font-family="Helvetica,sans-Serif" font-size="10.00">abcgShader.hpp</text>
</a>
</g>
</g>
<!-- Node28&#45;&gt;Node29 -->
<g id="edge41" class="edge">
<title>Node28&#45;&gt;Node29</title>
<path fill="none" stroke="midnightblue" d="M476.47,-336.44C523.41,-326.98 599.08,-311.74 649.65,-301.55"/>
<polygon fill="midnightblue" stroke="midnightblue" points="650.62,-304.92 659.73,-299.52 649.24,-298.06 650.62,-304.92"/>
</g>
<!-- Node29&#45;&gt;Node8 -->
<g id="edge43" class="edge">
<title>Node29&#45;&gt;Node8</title>
<path fill="none" stroke="midnightblue" d="M749.04,-281.34C752.07,-280.87 755.08,-280.43 758,-280 872.75,-263.3 1009.41,-246.34 1070.59,-238.9"/>
<polygon fill="midnightblue" stroke="midnightblue" points="1071.26,-242.35 1080.77,-237.67 1070.42,-235.4 1071.26,-242.35"/>
</g>
<!-- Node29&#45;&gt;Node24 -->
<g id="edge42" class="edge">
<title>Node29&#45;&gt;Node24</title>
<path fill="none" stroke="midnightblue" d="M687.86,-280.31C643.85,-253.25 508.97,-170.32 454.84,-137.04"/>
<polygon fill="midnightblue" stroke="midnightblue" points="456.35,-133.86 446,-131.61 452.68,-139.82 456.35,-133.86"/>
</g>
<!-- Node30&#45;&gt;Node19 -->
<g id="edge46" class="edge">
<title>Node30&#45;&gt;Node19</title>
<path fill="none" stroke="midnightblue" d="M259.67,-336.39C247.04,-328.72 230.5,-316.21 223,-300 219.27,-291.93 220.84,-288.62 223,-280 229.87,-252.61 233.71,-244.62 253,-224 265.31,-210.84 282.28,-199.99 296.65,-192.24"/>
<polygon fill="midnightblue" stroke="midnightblue" points="298.36,-195.3 305.64,-187.61 295.15,-189.08 298.36,-195.3"/>
</g>
<!-- Node30&#45;&gt;Node22 -->
<g id="edge48" class="edge">
<title>Node30&#45;&gt;Node22</title>
<path fill="none" stroke="midnightblue" d="M262.39,-336.33C244.82,-324.02 217.98,-300.67 231,-280 241.01,-264.11 258.35,-253.71 275.44,-246.96"/>
<polygon fill="midnightblue" stroke="midnightblue" points="276.63,-250.25 284.85,-243.57 274.26,-243.66 276.63,-250.25"/>
</g>
<!-- Node30&#45;&gt;Node26 -->
<g id="edge49" class="edge">
<title>Node30&#45;&gt;Node26</title>
<path fill="none" stroke="midnightblue" d="M301.19,-336.44C327.94,-327.36 370.4,-312.94 400.31,-302.78"/>
<polygon fill="midnightblue" stroke="midnightblue" points="401.58,-306.05 409.92,-299.52 399.33,-299.42 401.58,-306.05"/>
</g>
<!-- Node31 -->
<g id="node31" class="node">
<title>Node31</title>
<g id="a_node31"><a xlink:title=" ">
<polygon fill="none" stroke="#bfbfbf" points="239.5,-280.5 239.5,-299.5 316.5,-299.5 316.5,-280.5 239.5,-280.5"/>
<text text-anchor="middle" x="278" y="-287.5" font-family="Helvetica,sans-Serif" font-size="10.00">glm/fwd.hpp</text>
</a>
</g>
</g>
<!-- Node30&#45;&gt;Node31 -->
<g id="edge47" class="edge">
<title>Node30&#45;&gt;Node31</title>
<path fill="none" stroke="midnightblue" d="M276.33,-336.08C276.59,-329.01 276.97,-318.86 277.3,-309.99"/>
<polygon fill="midnightblue" stroke="midnightblue" points="280.8,-309.87 277.68,-299.75 273.81,-309.61 280.8,-309.87"/>
</g>
<!-- Node32&#45;&gt;Node2 -->
<g id="edge53" class="edge">
<title>Node32&#45;&gt;Node2</title>
<path fill="none" stroke="midnightblue" d="M177.28,-392.43C131.79,-379.13 59,-348.83 59,-291 59,-291 59,-291 59,-233 59,-200.86 62.44,-163.58 64.81,-141.72"/>
<polygon fill="midnightblue" stroke="midnightblue" points="68.31,-141.87 65.95,-131.54 61.36,-141.09 68.31,-141.87"/>
</g>
<!-- Node32&#45;&gt;Node20 -->
<g id="edge56" class="edge">
<title>Node32&#45;&gt;Node20</title>
<path fill="none" stroke="midnightblue" d="M269.66,-392.44C383.08,-375.31 646.33,-335.51 879.4,-300.09"/>
<polygon fill="midnightblue" stroke="midnightblue" points="880.07,-303.53 889.43,-298.57 879.01,-296.61 880.07,-303.53"/>
</g>
<!-- Node32&#45;&gt;Node22 -->
<g id="edge52" class="edge">
<title>Node32&#45;&gt;Node22</title>
<path fill="none" stroke="midnightblue" d="M208.12,-392.37C203.44,-383.55 196.69,-369.3 194,-356 186.83,-320.57 196.65,-304.76 223,-280 239.41,-264.58 261.97,-253.88 281.71,-246.8"/>
<polygon fill="midnightblue" stroke="midnightblue" points="283.07,-250.03 291.42,-243.51 280.83,-243.4 283.07,-250.03"/>
</g>
<!-- Node32&#45;&gt;Node23 -->
<g id="edge54" class="edge">
<title>Node32&#45;&gt;Node23</title>
<path fill="none" stroke="midnightblue" d="M206.4,-392.23C200.23,-383.54 191.35,-369.58 187,-356 169.23,-300.51 168.42,-230.63 169.22,-197.74"/>
<polygon fill="midnightblue" stroke="midnightblue" points="172.72,-197.84 169.55,-187.73 165.73,-197.62 172.72,-197.84"/>
</g>
<!-- Node32&#45;&gt;Node30 -->
<g id="edge55" class="edge">
<title>Node32&#45;&gt;Node30</title>
<path fill="none" stroke="midnightblue" d="M223.12,-392.32C232.53,-384.26 246.74,-372.08 258.07,-362.37"/>
<polygon fill="midnightblue" stroke="midnightblue" points="260.38,-365 265.69,-355.83 255.82,-359.68 260.38,-365"/>
</g>
</g>
</svg>
