<?xml version="1.0" encoding="UTF-8" standalone="no"?>
<!DOCTYPE svg PUBLIC "-//W3C//DTD SVG 1.1//EN"
 "http://www.w3.org/Graphics/SVG/1.1/DTD/svg11.dtd">
<!-- Generated by graphviz version 2.43.0 (0)
 -->
<!-- Title: /home/harlen/dev/abcg/abcg/abcgVulkanExternal.hpp Pages: 1 -->
<svg width="1191pt" height="575pt"
 viewBox="0.00 0.00 1191.00 575.00" xmlns="http://www.w3.org/2000/svg" xmlns:xlink="http://www.w3.org/1999/xlink">
<g id="graph0" class="graph" transform="scale(1 1) rotate(0) translate(4 571)">
<title>/home/harlen/dev/abcg/abcg/abcgVulkanExternal.hpp</title>
<!-- Node1 -->
<g id="node1" class="node">
<title>Node1</title>
<g id="a_node1"><a xlink:title="Header file for including Vulkan&#45;related dependencies.">
<polygon fill="#bfbfbf" stroke="black" points="408.5,-536.5 408.5,-566.5 571.5,-566.5 571.5,-536.5 408.5,-536.5"/>
<text text-anchor="start" x="416.5" y="-554.5" font-family="Helvetica,sans-Serif" font-size="10.00">/home/harlen/dev/abcg</text>
<text text-anchor="middle" x="490" y="-543.5" font-family="Helvetica,sans-Serif" font-size="10.00">/abcg/abcgVulkanExternal.hpp</text>
</a>
</g>
</g>
<!-- Node2 -->
<g id="node2" class="node">
<title>Node2</title>
<g id="a_node2"><a xlink:href="abcgVulkanDevice_8hpp.html" target="_top" xlink:title="Header file of abcg::VulkanDevice.">
<polygon fill="none" stroke="black" points="539,-335.5 539,-365.5 695,-365.5 695,-335.5 539,-335.5"/>
<text text-anchor="start" x="547" y="-353.5" font-family="Helvetica,sans-Serif" font-size="10.00">/home/harlen/dev/abcg</text>
<text text-anchor="middle" x="617" y="-342.5" font-family="Helvetica,sans-Serif" font-size="10.00">/abcg/abcgVulkanDevice.hpp</text>
</a>
</g>
</g>
<!-- Node1&#45;&gt;Node2 -->
<g id="edge1" class="edge">
<title>Node1&#45;&gt;Node2</title>
<path fill="none" stroke="midnightblue" d="M486.42,-526.03C483.15,-494.28 482.28,-438.63 509,-402 521.57,-384.78 541.5,-373.24 560.85,-365.6"/>
<polygon fill="midnightblue" stroke="midnightblue" points="482.97,-526.68 487.63,-536.2 489.92,-525.85 482.97,-526.68"/>
</g>
<!-- Node19 -->
<g id="node19" class="node">
<title>Node19</title>
<g id="a_node19"><a xlink:href="abcgVulkanInstance_8hpp.html" target="_top" xlink:title="Header file of abcg::VulkanInstance.">
<polygon fill="none" stroke="black" points="146,-469.5 146,-499.5 310,-499.5 310,-469.5 146,-469.5"/>
<text text-anchor="start" x="154" y="-487.5" font-family="Helvetica,sans-Serif" font-size="10.00">/home/harlen/dev/abcg</text>
<text text-anchor="middle" x="228" y="-476.5" font-family="Helvetica,sans-Serif" font-size="10.00">/abcg/abcgVulkanInstance.hpp</text>
</a>
</g>
</g>
<!-- Node1&#45;&gt;Node19 -->
<g id="edge30" class="edge">
<title>Node1&#45;&gt;Node19</title>
<path fill="none" stroke="midnightblue" d="M423.7,-534.05C380.87,-523.43 325.71,-509.74 284.88,-499.61"/>
<polygon fill="midnightblue" stroke="midnightblue" points="422.92,-537.47 433.47,-536.48 424.61,-530.67 422.92,-537.47"/>
</g>
<!-- Node20 -->
<g id="node20" class="node">
<title>Node20</title>
<g id="a_node20"><a xlink:href="abcgVulkanPhysicalDevice_8hpp.html" target="_top" xlink:title="Header file of abcg::VulkanPhysicalDevice.">
<polygon fill="none" stroke="black" points="518.5,-402.5 518.5,-432.5 715.5,-432.5 715.5,-402.5 518.5,-402.5"/>
<text text-anchor="start" x="526.5" y="-420.5" font-family="Helvetica,sans-Serif" font-size="10.00">/home/harlen/dev/abcg</text>
<text text-anchor="middle" x="617" y="-409.5" font-family="Helvetica,sans-Serif" font-size="10.00">/abcg/abcgVulkanPhysicalDevice.hpp</text>
</a>
</g>
</g>
<!-- Node1&#45;&gt;Node20 -->
<g id="edge40" class="edge">
<title>Node1&#45;&gt;Node20</title>
<path fill="none" stroke="midnightblue" d="M510.79,-528.9C537,-501.65 581.32,-455.58 603.51,-432.52"/>
<polygon fill="midnightblue" stroke="midnightblue" points="508,-526.74 503.59,-536.37 513.05,-531.59 508,-526.74"/>
</g>
<!-- Node3 -->
<g id="node3" class="node">
<title>Node3</title>
<g id="a_node3"><a xlink:href="abcgVulkanBuffer_8hpp.html" target="_top" xlink:title="Header file of abcg::VulkanBuffer.">
<polygon fill="none" stroke="black" points="198.5,-268.5 198.5,-298.5 349.5,-298.5 349.5,-268.5 198.5,-268.5"/>
<text text-anchor="start" x="206.5" y="-286.5" font-family="Helvetica,sans-Serif" font-size="10.00">/home/harlen/dev/abcg</text>
<text text-anchor="middle" x="274" y="-275.5" font-family="Helvetica,sans-Serif" font-size="10.00">/abcg/abcgVulkanBuffer.hpp</text>
</a>
</g>
</g>
<!-- Node2&#45;&gt;Node3 -->
<g id="edge2" class="edge">
<title>Node2&#45;&gt;Node3</title>
<path fill="none" stroke="midnightblue" d="M533,-333.58C476.45,-322.86 402.55,-308.86 348.17,-298.55"/>
<polygon fill="midnightblue" stroke="midnightblue" points="532.52,-337.05 543,-335.48 533.82,-330.18 532.52,-337.05"/>
</g>
<!-- Node9 -->
<g id="node9" class="node">
<title>Node9</title>
<g id="a_node9"><a xlink:href="abcgVulkanDevice_8cpp.html" target="_top" xlink:title="Definition of abcg::VulkanDevice.">
<polygon fill="none" stroke="black" points="367.5,-268.5 367.5,-298.5 522.5,-298.5 522.5,-268.5 367.5,-268.5"/>
<text text-anchor="start" x="375.5" y="-286.5" font-family="Helvetica,sans-Serif" font-size="10.00">/home/harlen/dev/abcg</text>
<text text-anchor="middle" x="445" y="-275.5" font-family="Helvetica,sans-Serif" font-size="10.00">/abcg/abcgVulkanDevice.cpp</text>
</a>
</g>
</g>
<!-- Node2&#45;&gt;Node9 -->
<g id="edge8" class="edge">
<title>Node2&#45;&gt;Node9</title>
<path fill="none" stroke="midnightblue" d="M570.21,-331.82C542.57,-321.37 508.04,-308.32 482.25,-298.58"/>
<polygon fill="midnightblue" stroke="midnightblue" points="569.09,-335.13 579.68,-335.4 571.56,-328.59 569.09,-335.13"/>
</g>
<!-- Node10 -->
<g id="node10" class="node">
<title>Node10</title>
<g id="a_node10"><a xlink:href="abcgVulkanImage_8hpp.html" target="_top" xlink:title="Header file of abcg::VulkanImage.">
<polygon fill="none" stroke="black" points="540.5,-268.5 540.5,-298.5 693.5,-298.5 693.5,-268.5 540.5,-268.5"/>
<text text-anchor="start" x="548.5" y="-286.5" font-family="Helvetica,sans-Serif" font-size="10.00">/home/harlen/dev/abcg</text>
<text text-anchor="middle" x="617" y="-275.5" font-family="Helvetica,sans-Serif" font-size="10.00">/abcg/abcgVulkanImage.hpp</text>
</a>
</g>
</g>
<!-- Node2&#45;&gt;Node10 -->
<g id="edge9" class="edge">
<title>Node2&#45;&gt;Node10</title>
<path fill="none" stroke="midnightblue" d="M617,-325.11C617,-316.15 617,-306.32 617,-298.58"/>
<polygon fill="midnightblue" stroke="midnightblue" points="613.5,-325.4 617,-335.4 620.5,-325.4 613.5,-325.4"/>
</g>
<!-- Node11 -->
<g id="node11" class="node">
<title>Node11</title>
<g id="a_node11"><a xlink:href="abcgVulkanSwapchain_8hpp.html" target="_top" xlink:title="Header file of abcg::VulkanSwapchain.">
<polygon fill="none" stroke="black" points="767.5,-201.5 767.5,-231.5 942.5,-231.5 942.5,-201.5 767.5,-201.5"/>
<text text-anchor="start" x="775.5" y="-219.5" font-family="Helvetica,sans-Serif" font-size="10.00">/home/harlen/dev/abcg</text>
<text text-anchor="middle" x="855" y="-208.5" font-family="Helvetica,sans-Serif" font-size="10.00">/abcg/abcgVulkanSwapchain.hpp</text>
</a>
</g>
</g>
<!-- Node2&#45;&gt;Node11 -->
<g id="edge28" class="edge">
<title>Node2&#45;&gt;Node11</title>
<path fill="none" stroke="midnightblue" d="M656.25,-330.98C675.37,-321.72 698.58,-310.15 719,-299 759.83,-276.71 806.02,-248.33 832.7,-231.62"/>
<polygon fill="midnightblue" stroke="midnightblue" points="654.72,-327.83 647.23,-335.32 657.76,-334.14 654.72,-327.83"/>
</g>
<!-- Node12 -->
<g id="node12" class="node">
<title>Node12</title>
<g id="a_node12"><a xlink:href="abcgVulkanPipeline_8hpp.html" target="_top" xlink:title="Header file of abcg::VulkanPipeline.">
<polygon fill="none" stroke="black" points="656.5,-134.5 656.5,-164.5 817.5,-164.5 817.5,-134.5 656.5,-134.5"/>
<text text-anchor="start" x="664.5" y="-152.5" font-family="Helvetica,sans-Serif" font-size="10.00">/home/harlen/dev/abcg</text>
<text text-anchor="middle" x="737" y="-141.5" font-family="Helvetica,sans-Serif" font-size="10.00">/abcg/abcgVulkanPipeline.hpp</text>
</a>
</g>
</g>
<!-- Node2&#45;&gt;Node12 -->
<g id="edge22" class="edge">
<title>Node2&#45;&gt;Node12</title>
<path fill="none" stroke="midnightblue" d="M705.21,-345.6C784.39,-336.85 896.45,-310.35 952,-232 989.4,-179.25 893.37,-160.62 817.8,-154.06"/>
<polygon fill="midnightblue" stroke="midnightblue" points="704.83,-342.12 695.24,-346.62 705.54,-349.08 704.83,-342.12"/>
</g>
<!-- Node14 -->
<g id="node14" class="node">
<title>Node14</title>
<g id="a_node14"><a xlink:href="abcgVulkanSwapchain_8cpp.html" target="_top" xlink:title="Definition of abcg::VulkanSwapchain.">
<polygon fill="none" stroke="black" points="860,-67.5 860,-97.5 1034,-97.5 1034,-67.5 860,-67.5"/>
<text text-anchor="start" x="868" y="-85.5" font-family="Helvetica,sans-Serif" font-size="10.00">/home/harlen/dev/abcg</text>
<text text-anchor="middle" x="947" y="-74.5" font-family="Helvetica,sans-Serif" font-size="10.00">/abcg/abcgVulkanSwapchain.cpp</text>
</a>
</g>
</g>
<!-- Node2&#45;&gt;Node14 -->
<g id="edge27" class="edge">
<title>Node2&#45;&gt;Node14</title>
<path fill="none" stroke="midnightblue" d="M705.31,-340.6C778.08,-332.1 874.7,-317.82 909,-299 944.31,-279.63 955.46,-269.56 970,-232 988.17,-185.04 965.87,-124.48 953.8,-97.52"/>
<polygon fill="midnightblue" stroke="midnightblue" points="704.74,-337.14 695.21,-341.76 705.54,-344.09 704.74,-337.14"/>
</g>
<!-- Node15 -->
<g id="node15" class="node">
<title>Node15</title>
<g id="a_node15"><a xlink:href="abcgVulkanWindow_8hpp.html" target="_top" xlink:title="Header file of abcg::VulkanWindow.">
<polygon fill="none" stroke="black" points="66.5,-134.5 66.5,-164.5 227.5,-164.5 227.5,-134.5 66.5,-134.5"/>
<text text-anchor="start" x="74.5" y="-152.5" font-family="Helvetica,sans-Serif" font-size="10.00">/home/harlen/dev/abcg</text>
<text text-anchor="middle" x="147" y="-141.5" font-family="Helvetica,sans-Serif" font-size="10.00">/abcg/abcgVulkanWindow.hpp</text>
</a>
</g>
</g>
<!-- Node2&#45;&gt;Node15 -->
<g id="edge29" class="edge">
<title>Node2&#45;&gt;Node15</title>
<path fill="none" stroke="midnightblue" d="M528.76,-350.28C418.59,-349.4 238.54,-341.26 189,-299 148.64,-264.57 145.59,-194.57 146.28,-164.61"/>
<polygon fill="midnightblue" stroke="midnightblue" points="528.85,-353.78 538.87,-350.34 528.89,-346.78 528.85,-353.78"/>
</g>
<!-- Node18 -->
<g id="node18" class="node">
<title>Node18</title>
<g id="a_node18"><a xlink:href="abcgVulkanShader_8hpp.html" target="_top" xlink:title="Declaration of helper functions for creating Vulkan shaders.">
<polygon fill="none" stroke="black" points="594.5,-201.5 594.5,-231.5 749.5,-231.5 749.5,-201.5 594.5,-201.5"/>
<text text-anchor="start" x="602.5" y="-219.5" font-family="Helvetica,sans-Serif" font-size="10.00">/home/harlen/dev/abcg</text>
<text text-anchor="middle" x="672" y="-208.5" font-family="Helvetica,sans-Serif" font-size="10.00">/abcg/abcgVulkanShader.hpp</text>
</a>
</g>
</g>
<!-- Node2&#45;&gt;Node18 -->
<g id="edge23" class="edge">
<title>Node2&#45;&gt;Node18</title>
<path fill="none" stroke="midnightblue" d="M667.4,-330.75C681.05,-323.08 694.2,-312.71 702,-299 714.6,-276.85 697.49,-248.43 684.41,-231.67"/>
<polygon fill="midnightblue" stroke="midnightblue" points="665.67,-327.7 658.4,-335.4 668.89,-333.91 665.67,-327.7"/>
</g>
<!-- Node4 -->
<g id="node4" class="node">
<title>Node4</title>
<g id="a_node4"><a xlink:href="abcgVulkan_8hpp.html" target="_top" xlink:title="Header file for Vulkan&#45;related functions and classes.">
<polygon fill="none" stroke="black" points="502,-67.5 502,-97.5 630,-97.5 630,-67.5 502,-67.5"/>
<text text-anchor="start" x="510" y="-85.5" font-family="Helvetica,sans-Serif" font-size="10.00">/home/harlen/dev/abcg</text>
<text text-anchor="middle" x="566" y="-74.5" font-family="Helvetica,sans-Serif" font-size="10.00">/abcg/abcgVulkan.hpp</text>
</a>
</g>
</g>
<!-- Node3&#45;&gt;Node4 -->
<g id="edge3" class="edge">
<title>Node3&#45;&gt;Node4</title>
<path fill="none" stroke="midnightblue" d="M237.05,-262.72C225.95,-254.76 215.11,-244.48 209,-232 202.94,-219.62 200.92,-212.16 209,-201 243.71,-153.03 408.65,-114.02 501.71,-95.37"/>
<polygon fill="midnightblue" stroke="midnightblue" points="235.25,-265.72 245.52,-268.35 239.13,-259.9 235.25,-265.72"/>
</g>
<!-- Node7 -->
<g id="node7" class="node">
<title>Node7</title>
<g id="a_node7"><a xlink:href="abcgVulkanBuffer_8cpp.html" target="_top" xlink:title="Definition of abcg::VulkanBuffer.">
<polygon fill="none" stroke="black" points="218,-201.5 218,-231.5 368,-231.5 368,-201.5 218,-201.5"/>
<text text-anchor="start" x="226" y="-219.5" font-family="Helvetica,sans-Serif" font-size="10.00">/home/harlen/dev/abcg</text>
<text text-anchor="middle" x="293" y="-208.5" font-family="Helvetica,sans-Serif" font-size="10.00">/abcg/abcgVulkanBuffer.cpp</text>
</a>
</g>
</g>
<!-- Node3&#45;&gt;Node7 -->
<g id="edge6" class="edge">
<title>Node3&#45;&gt;Node7</title>
<path fill="none" stroke="midnightblue" d="M280.96,-258.7C283.62,-249.59 286.57,-239.49 288.89,-231.58"/>
<polygon fill="midnightblue" stroke="midnightblue" points="277.57,-257.82 278.12,-268.4 284.29,-259.78 277.57,-257.82"/>
</g>
<!-- Node8 -->
<g id="node8" class="node">
<title>Node8</title>
<g id="a_node8"><a xlink:href="abcgVulkanImage_8cpp.html" target="_top" xlink:title="Definition of abcg::VulkanImage.">
<polygon fill="none" stroke="black" points="386,-201.5 386,-231.5 538,-231.5 538,-201.5 386,-201.5"/>
<text text-anchor="start" x="394" y="-219.5" font-family="Helvetica,sans-Serif" font-size="10.00">/home/harlen/dev/abcg</text>
<text text-anchor="middle" x="462" y="-208.5" font-family="Helvetica,sans-Serif" font-size="10.00">/abcg/abcgVulkanImage.cpp</text>
</a>
</g>
</g>
<!-- Node3&#45;&gt;Node8 -->
<g id="edge7" class="edge">
<title>Node3&#45;&gt;Node8</title>
<path fill="none" stroke="midnightblue" d="M324.35,-265.09C354.7,-254.6 392.85,-241.41 421.29,-231.58"/>
<polygon fill="midnightblue" stroke="midnightblue" points="323.1,-261.82 314.79,-268.4 325.39,-268.44 323.1,-261.82"/>
</g>
<!-- Node5 -->
<g id="node5" class="node">
<title>Node5</title>
<g id="a_node5"><a xlink:href="abcgVulkanInstance_8cpp.html" target="_top" xlink:title="Definition of abcg::VulkanInstance.">
<polygon fill="none" stroke="black" points="201.5,-0.5 201.5,-30.5 364.5,-30.5 364.5,-0.5 201.5,-0.5"/>
<text text-anchor="start" x="209.5" y="-18.5" font-family="Helvetica,sans-Serif" font-size="10.00">/home/harlen/dev/abcg</text>
<text text-anchor="middle" x="283" y="-7.5" font-family="Helvetica,sans-Serif" font-size="10.00">/abcg/abcgVulkanInstance.cpp</text>
</a>
</g>
</g>
<!-- Node4&#45;&gt;Node5 -->
<g id="edge4" class="edge">
<title>Node4&#45;&gt;Node5</title>
<path fill="none" stroke="midnightblue" d="M494.97,-65.19C448.62,-54.54 388.73,-40.78 344.44,-30.61"/>
<polygon fill="midnightblue" stroke="midnightblue" points="494.41,-68.65 504.94,-67.48 495.98,-61.83 494.41,-68.65"/>
</g>
<!-- Node6 -->
<g id="node6" class="node">
<title>Node6</title>
<g id="a_node6"><a xlink:href="abcgVulkanPhysicalDevice_8cpp.html" target="_top" xlink:title="Definition of abcg::VulkanPhysicalDevice.">
<polygon fill="none" stroke="black" points="987,-0.5 987,-30.5 1183,-30.5 1183,-0.5 987,-0.5"/>
<text text-anchor="start" x="995" y="-18.5" font-family="Helvetica,sans-Serif" font-size="10.00">/home/harlen/dev/abcg</text>
<text text-anchor="middle" x="1085" y="-7.5" font-family="Helvetica,sans-Serif" font-size="10.00">/abcg/abcgVulkanPhysicalDevice.cpp</text>
</a>
</g>
</g>
<!-- Node4&#45;&gt;Node6 -->
<g id="edge5" class="edge">
<title>Node4&#45;&gt;Node6</title>
<path fill="none" stroke="midnightblue" d="M639.93,-68.07C642.31,-67.7 644.67,-67.34 647,-67 763.44,-49.88 898,-35.11 986.92,-26.04"/>
<polygon fill="midnightblue" stroke="midnightblue" points="639.37,-64.61 630.05,-69.65 640.48,-71.53 639.37,-64.61"/>
</g>
<!-- Node10&#45;&gt;Node4 -->
<g id="edge10" class="edge">
<title>Node10&#45;&gt;Node4</title>
<path fill="none" stroke="midnightblue" d="M599.73,-259.94C594.16,-251.58 588.52,-241.75 585,-232 568.07,-185.05 565.85,-125 565.8,-97.9"/>
<polygon fill="midnightblue" stroke="midnightblue" points="597.04,-262.2 605.65,-268.37 602.77,-258.17 597.04,-262.2"/>
</g>
<!-- Node10&#45;&gt;Node8 -->
<g id="edge11" class="edge">
<title>Node10&#45;&gt;Node8</title>
<path fill="none" stroke="midnightblue" d="M573.85,-264.41C549.11,-254.03 518.5,-241.2 495.57,-231.58"/>
<polygon fill="midnightblue" stroke="midnightblue" points="572.79,-267.76 583.37,-268.4 575.5,-261.3 572.79,-267.76"/>
</g>
<!-- Node10&#45;&gt;Node11 -->
<g id="edge12" class="edge">
<title>Node10&#45;&gt;Node11</title>
<path fill="none" stroke="midnightblue" d="M678.46,-265.71C717.19,-255.14 766.63,-241.63 803.33,-231.61"/>
<polygon fill="midnightblue" stroke="midnightblue" points="677.07,-262.46 668.35,-268.48 678.92,-269.22 677.07,-262.46"/>
</g>
<!-- Node11&#45;&gt;Node12 -->
<g id="edge13" class="edge">
<title>Node11&#45;&gt;Node12</title>
<path fill="none" stroke="midnightblue" d="M820.39,-196.44C801.88,-186.24 779.48,-173.9 762.55,-164.58"/>
<polygon fill="midnightblue" stroke="midnightblue" points="818.95,-199.64 829.4,-201.4 822.33,-193.51 818.95,-199.64"/>
</g>
<!-- Node11&#45;&gt;Node14 -->
<g id="edge16" class="edge">
<title>Node11&#45;&gt;Node14</title>
<path fill="none" stroke="midnightblue" d="M870.8,-192.83C889.87,-165.47 921.36,-120.28 937.23,-97.52"/>
<polygon fill="midnightblue" stroke="midnightblue" points="867.69,-191.17 864.85,-201.37 873.43,-195.17 867.69,-191.17"/>
</g>
<!-- Node11&#45;&gt;Node15 -->
<g id="edge17" class="edge">
<title>Node11&#45;&gt;Node15</title>
<path fill="none" stroke="midnightblue" d="M757.21,-200.84C561.56,-178.32 343.13,-162.84 227.86,-155.43"/>
<polygon fill="midnightblue" stroke="midnightblue" points="757.06,-204.34 767.4,-202.02 757.87,-197.39 757.06,-204.34"/>
</g>
<!-- Node12&#45;&gt;Node4 -->
<g id="edge14" class="edge">
<title>Node12&#45;&gt;Node4</title>
<path fill="none" stroke="midnightblue" d="M690.48,-130.82C663,-120.37 628.67,-107.32 603.03,-97.58"/>
<polygon fill="midnightblue" stroke="midnightblue" points="689.3,-134.11 699.9,-134.4 691.79,-127.57 689.3,-134.11"/>
</g>
<!-- Node13 -->
<g id="node13" class="node">
<title>Node13</title>
<g id="a_node13"><a xlink:href="abcgVulkanPipeline_8cpp.html" target="_top" xlink:title="Definition of abcg::VulkanPipeline.">
<polygon fill="none" stroke="black" points="656.5,-67.5 656.5,-97.5 817.5,-97.5 817.5,-67.5 656.5,-67.5"/>
<text text-anchor="start" x="664.5" y="-85.5" font-family="Helvetica,sans-Serif" font-size="10.00">/home/harlen/dev/abcg</text>
<text text-anchor="middle" x="737" y="-74.5" font-family="Helvetica,sans-Serif" font-size="10.00">/abcg/abcgVulkanPipeline.cpp</text>
</a>
</g>
</g>
<!-- Node12&#45;&gt;Node13 -->
<g id="edge15" class="edge">
<title>Node12&#45;&gt;Node13</title>
<path fill="none" stroke="midnightblue" d="M737,-124.11C737,-115.15 737,-105.32 737,-97.58"/>
<polygon fill="midnightblue" stroke="midnightblue" points="733.5,-124.4 737,-134.4 740.5,-124.4 733.5,-124.4"/>
</g>
<!-- Node15&#45;&gt;Node4 -->
<g id="edge18" class="edge">
<title>Node15&#45;&gt;Node4</title>
<path fill="none" stroke="midnightblue" d="M237.82,-134.41C317.51,-122.05 431.39,-104.38 501.91,-93.44"/>
<polygon fill="midnightblue" stroke="midnightblue" points="237.13,-130.98 227.79,-135.97 238.21,-137.89 237.13,-130.98"/>
</g>
<!-- Node15&#45;&gt;Node14 -->
<g id="edge20" class="edge">
<title>Node15&#45;&gt;Node14</title>
<path fill="none" stroke="midnightblue" d="M238.05,-143.08C368.61,-135 616.5,-118.52 827,-98 837.65,-96.96 848.82,-95.76 859.88,-94.51"/>
<polygon fill="midnightblue" stroke="midnightblue" points="237.47,-139.61 227.7,-143.72 237.9,-146.59 237.47,-139.61"/>
</g>
<!-- Node16 -->
<g id="node16" class="node">
<title>Node16</title>
<g id="a_node16"><a xlink:href="abcgVulkanShader_8cpp.html" target="_top" xlink:title="Definition of helper functions for creating Vulkan shaders.">
<polygon fill="none" stroke="black" points="277.5,-67.5 277.5,-97.5 432.5,-97.5 432.5,-67.5 277.5,-67.5"/>
<text text-anchor="start" x="285.5" y="-85.5" font-family="Helvetica,sans-Serif" font-size="10.00">/home/harlen/dev/abcg</text>
<text text-anchor="middle" x="355" y="-74.5" font-family="Helvetica,sans-Serif" font-size="10.00">/abcg/abcgVulkanShader.cpp</text>
</a>
</g>
</g>
<!-- Node15&#45;&gt;Node16 -->
<g id="edge19" class="edge">
<title>Node15&#45;&gt;Node16</title>
<path fill="none" stroke="midnightblue" d="M201.58,-131.44C235.3,-120.91 278.04,-107.55 309.85,-97.61"/>
<polygon fill="midnightblue" stroke="midnightblue" points="200.38,-128.15 191.88,-134.48 202.47,-134.83 200.38,-128.15"/>
</g>
<!-- Node17 -->
<g id="node17" class="node">
<title>Node17</title>
<g id="a_node17"><a xlink:href="abcgVulkanWindow_8cpp.html" target="_top" xlink:title="Definition of abcg::VulkanWindow members.">
<polygon fill="none" stroke="black" points="48,-67.5 48,-97.5 208,-97.5 208,-67.5 48,-67.5"/>
<text text-anchor="start" x="56" y="-85.5" font-family="Helvetica,sans-Serif" font-size="10.00">/home/harlen/dev/abcg</text>
<text text-anchor="middle" x="128" y="-74.5" font-family="Helvetica,sans-Serif" font-size="10.00">/abcg/abcgVulkanWindow.cpp</text>
</a>
</g>
</g>
<!-- Node15&#45;&gt;Node17 -->
<g id="edge21" class="edge">
<title>Node15&#45;&gt;Node17</title>
<path fill="none" stroke="midnightblue" d="M140.04,-124.7C137.38,-115.59 134.43,-105.49 132.11,-97.58"/>
<polygon fill="midnightblue" stroke="midnightblue" points="136.71,-125.78 142.88,-134.4 143.43,-123.82 136.71,-125.78"/>
</g>
<!-- Node18&#45;&gt;Node4 -->
<g id="edge24" class="edge">
<title>Node18&#45;&gt;Node4</title>
<path fill="none" stroke="midnightblue" d="M654.37,-193.54C632.45,-166.25 595.7,-120.48 577.26,-97.52"/>
<polygon fill="midnightblue" stroke="midnightblue" points="651.67,-195.77 660.66,-201.37 657.12,-191.39 651.67,-195.77"/>
</g>
<!-- Node18&#45;&gt;Node12 -->
<g id="edge25" class="edge">
<title>Node18&#45;&gt;Node12</title>
<path fill="none" stroke="midnightblue" d="M693.19,-194.31C702.94,-184.56 714.24,-173.26 722.92,-164.58"/>
<polygon fill="midnightblue" stroke="midnightblue" points="690.7,-191.85 686.1,-201.4 695.65,-196.8 690.7,-191.85"/>
</g>
<!-- Node18&#45;&gt;Node16 -->
<g id="edge26" class="edge">
<title>Node18&#45;&gt;Node16</title>
<path fill="none" stroke="midnightblue" d="M629,-197.59C565.19,-171.02 446.75,-121.7 388.76,-97.56"/>
<polygon fill="midnightblue" stroke="midnightblue" points="627.8,-200.89 638.38,-201.5 630.49,-194.42 627.8,-200.89"/>
</g>
<!-- Node19&#45;&gt;Node5 -->
<g id="edge31" class="edge">
<title>Node19&#45;&gt;Node5</title>
<path fill="none" stroke="midnightblue" d="M135.63,-467.73C72.42,-451.03 0,-417.49 0,-351.5 0,-351.5 0,-351.5 0,-148.5 0,-108.34 7.38,-91.76 39,-67 63.99,-47.43 140.51,-33.7 201.27,-25.55"/>
<polygon fill="midnightblue" stroke="midnightblue" points="135.13,-471.21 145.69,-470.27 136.85,-464.43 135.13,-471.21"/>
</g>
<!-- Node19&#45;&gt;Node6 -->
<g id="edge32" class="edge">
<title>Node19&#45;&gt;Node6</title>
<path fill="none" stroke="midnightblue" d="M320.49,-479.45C549.22,-468.21 1123,-431.98 1123,-351.5 1123,-351.5 1123,-351.5 1123,-148.5 1123,-104.14 1102.94,-54.56 1091.97,-30.76"/>
<polygon fill="midnightblue" stroke="midnightblue" points="320.01,-475.97 310.2,-479.95 320.35,-482.96 320.01,-475.97"/>
</g>
<!-- Node19&#45;&gt;Node15 -->
<g id="edge39" class="edge">
<title>Node19&#45;&gt;Node15</title>
<path fill="none" stroke="midnightblue" d="M180,-465.37C135.46,-445.06 76,-407.46 76,-351.5 76,-351.5 76,-351.5 76,-282.5 76,-234.62 112.68,-187.38 133.31,-164.59"/>
<polygon fill="midnightblue" stroke="midnightblue" points="178.69,-468.62 189.25,-469.44 181.51,-462.21 178.69,-468.62"/>
</g>
<!-- Node19&#45;&gt;Node17 -->
<g id="edge38" class="edge">
<title>Node19&#45;&gt;Node17</title>
<path fill="none" stroke="midnightblue" d="M160.29,-466.37C105.71,-448.02 38,-412.88 38,-351.5 38,-351.5 38,-351.5 38,-215.5 38,-178.31 36.28,-164.89 57,-134 67.45,-118.42 84.43,-106.09 99.17,-97.51"/>
<polygon fill="midnightblue" stroke="midnightblue" points="159.37,-469.75 169.96,-469.5 161.52,-463.09 159.37,-469.75"/>
</g>
<!-- Node19&#45;&gt;Node20 -->
<g id="edge33" class="edge">
<title>Node19&#45;&gt;Node20</title>
<path fill="none" stroke="midnightblue" d="M320.2,-468.09C384.78,-457.3 470.4,-443 533.08,-432.52"/>
<polygon fill="midnightblue" stroke="midnightblue" points="319.31,-464.69 310.02,-469.79 320.46,-471.6 319.31,-464.69"/>
</g>
<!-- Node20&#45;&gt;Node2 -->
<g id="edge34" class="edge">
<title>Node20&#45;&gt;Node2</title>
<path fill="none" stroke="midnightblue" d="M617,-392.11C617,-383.15 617,-373.32 617,-365.58"/>
<polygon fill="midnightblue" stroke="midnightblue" points="613.5,-392.4 617,-402.4 620.5,-392.4 613.5,-392.4"/>
</g>
<!-- Node20&#45;&gt;Node6 -->
<g id="edge35" class="edge">
<title>Node20&#45;&gt;Node6</title>
<path fill="none" stroke="midnightblue" d="M725.9,-407.58C815.75,-399.08 935.43,-384.8 980,-366 1034.43,-343.04 1085,-343.57 1085,-284.5 1085,-284.5 1085,-284.5 1085,-148.5 1085,-105.65 1085,-54.97 1085,-30.76"/>
<polygon fill="midnightblue" stroke="midnightblue" points="725.56,-404.1 715.93,-408.51 726.21,-411.07 725.56,-404.1"/>
</g>
<!-- Node20&#45;&gt;Node14 -->
<g id="edge36" class="edge">
<title>Node20&#45;&gt;Node14</title>
<path fill="none" stroke="midnightblue" d="M725.85,-404.84C853.24,-388.09 1047,-351.6 1047,-284.5 1047,-284.5 1047,-284.5 1047,-215.5 1047,-163.75 997.56,-119.51 968.21,-97.81"/>
<polygon fill="midnightblue" stroke="midnightblue" points="725.12,-401.4 715.65,-406.15 726.02,-408.35 725.12,-401.4"/>
</g>
<!-- Node20&#45;&gt;Node15 -->
<g id="edge37" class="edge">
<title>Node20&#45;&gt;Node15</title>
<path fill="none" stroke="midnightblue" d="M508.08,-401.19C389.56,-382.39 210.44,-346.97 162,-299 125.73,-263.08 136.4,-194.5 143.24,-164.8"/>
<polygon fill="midnightblue" stroke="midnightblue" points="507.87,-404.7 518.29,-402.8 508.95,-397.79 507.87,-404.7"/>
</g>
</g>
</svg>
