<?xml version="1.0" encoding="UTF-8" standalone="no"?>
<!DOCTYPE svg PUBLIC "-//W3C//DTD SVG 1.1//EN"
 "http://www.w3.org/Graphics/SVG/1.1/DTD/svg11.dtd">
<!-- Generated by graphviz version 2.43.0 (0)
 -->
<!-- Title: /home/harlen/dev/abcg/abcg/abcgVulkan.hpp Pages: 1 -->
<svg width="1598pt" height="487pt"
 viewBox="0.00 0.00 1597.50 487.00" xmlns="http://www.w3.org/2000/svg" xmlns:xlink="http://www.w3.org/1999/xlink">
<g id="graph0" class="graph" transform="scale(1 1) rotate(0) translate(4 483)">
<title>/home/harlen/dev/abcg/abcg/abcgVulkan.hpp</title>
<!-- Node1 -->
<g id="node1" class="node">
<title>Node1</title>
<g id="a_node1"><a xlink:title="Header file for Vulkan&#45;related functions and classes.">
<polygon fill="#bfbfbf" stroke="black" points="1138.5,-448.5 1138.5,-478.5 1266.5,-478.5 1266.5,-448.5 1138.5,-448.5"/>
<text text-anchor="start" x="1146.5" y="-466.5" font-family="Helvetica,sans-Serif" font-size="10.00">/home/harlen/dev/abcg</text>
<text text-anchor="middle" x="1202.5" y="-455.5" font-family="Helvetica,sans-Serif" font-size="10.00">/abcg/abcgVulkan.hpp</text>
</a>
</g>
</g>
<!-- Node2 -->
<g id="node2" class="node">
<title>Node2</title>
<g id="a_node2"><a xlink:href="abcg_8hpp.html" target="_top" xlink:title="Shortcut header that includes the most common ABCg headers.">
<polygon fill="none" stroke="black" points="379,-392.5 379,-411.5 440,-411.5 440,-392.5 379,-392.5"/>
<text text-anchor="middle" x="409.5" y="-399.5" font-family="Helvetica,sans-Serif" font-size="10.00">abcg.hpp</text>
</a>
</g>
</g>
<!-- Node1&#45;&gt;Node2 -->
<g id="edge1" class="edge">
<title>Node1&#45;&gt;Node2</title>
<path fill="none" stroke="midnightblue" d="M1138.28,-457.68C981.01,-445.88 580.04,-415.8 450.52,-406.08"/>
<polygon fill="midnightblue" stroke="midnightblue" points="450.48,-402.57 440.25,-405.31 449.96,-409.55 450.48,-402.57"/>
</g>
<!-- Node15 -->
<g id="node15" class="node">
<title>Node15</title>
<g id="a_node15"><a xlink:href="abcgVulkanBuffer_8hpp.html" target="_top" xlink:title="Header file of abcg::VulkanBuffer.">
<polygon fill="none" stroke="black" points="1467.5,-280.5 1467.5,-299.5 1589.5,-299.5 1589.5,-280.5 1467.5,-280.5"/>
<text text-anchor="middle" x="1528.5" y="-287.5" font-family="Helvetica,sans-Serif" font-size="10.00">abcgVulkanBuffer.hpp</text>
</a>
</g>
</g>
<!-- Node1&#45;&gt;Node15 -->
<g id="edge19" class="edge">
<title>Node1&#45;&gt;Node15</title>
<path fill="none" stroke="midnightblue" d="M1252.07,-448.48C1280.43,-439.64 1316.26,-427.06 1346.5,-412 1409.83,-380.46 1477.47,-330.67 1509.53,-305.95"/>
<polygon fill="midnightblue" stroke="midnightblue" points="1511.85,-308.58 1517.6,-299.68 1507.56,-303.05 1511.85,-308.58"/>
</g>
<!-- Node24 -->
<g id="node24" class="node">
<title>Node24</title>
<g id="a_node24"><a xlink:href="abcgVulkanImage_8hpp.html" target="_top" xlink:title="Header file of abcg::VulkanImage.">
<polygon fill="none" stroke="black" points="1325.5,-280.5 1325.5,-299.5 1449.5,-299.5 1449.5,-280.5 1325.5,-280.5"/>
<text text-anchor="middle" x="1387.5" y="-287.5" font-family="Helvetica,sans-Serif" font-size="10.00">abcgVulkanImage.hpp</text>
</a>
</g>
</g>
<!-- Node1&#45;&gt;Node24 -->
<g id="edge30" class="edge">
<title>Node1&#45;&gt;Node24</title>
<path fill="none" stroke="midnightblue" d="M1258.45,-448.47C1280.99,-440.65 1305.99,-428.96 1324.5,-412 1355.83,-383.3 1374.18,-335.42 1382.37,-309.32"/>
<polygon fill="midnightblue" stroke="midnightblue" points="1385.76,-310.17 1385.26,-299.59 1379.05,-308.18 1385.76,-310.17"/>
</g>
<!-- Node25 -->
<g id="node25" class="node">
<title>Node25</title>
<g id="a_node25"><a xlink:href="abcgVulkanPipeline_8hpp.html" target="_top" xlink:title="Header file of abcg::VulkanPipeline.">
<polygon fill="none" stroke="black" points="1183.5,-392.5 1183.5,-411.5 1315.5,-411.5 1315.5,-392.5 1183.5,-392.5"/>
<text text-anchor="middle" x="1249.5" y="-399.5" font-family="Helvetica,sans-Serif" font-size="10.00">abcgVulkanPipeline.hpp</text>
</a>
</g>
</g>
<!-- Node1&#45;&gt;Node25 -->
<g id="edge33" class="edge">
<title>Node1&#45;&gt;Node25</title>
<path fill="none" stroke="midnightblue" d="M1213.64,-448.4C1220.47,-439.75 1229.24,-428.64 1236.41,-419.58"/>
<polygon fill="midnightblue" stroke="midnightblue" points="1239.21,-421.67 1242.66,-411.66 1233.72,-417.34 1239.21,-421.67"/>
</g>
<!-- Node26 -->
<g id="node26" class="node">
<title>Node26</title>
<g id="a_node26"><a xlink:href="abcgVulkanShader_8hpp.html" target="_top" xlink:title="Declaration of helper functions for creating Vulkan shaders.">
<polygon fill="none" stroke="black" points="1156.5,-336.5 1156.5,-355.5 1282.5,-355.5 1282.5,-336.5 1156.5,-336.5"/>
<text text-anchor="middle" x="1219.5" y="-343.5" font-family="Helvetica,sans-Serif" font-size="10.00">abcgVulkanShader.hpp</text>
</a>
</g>
</g>
<!-- Node1&#45;&gt;Node26 -->
<g id="edge45" class="edge">
<title>Node1&#45;&gt;Node26</title>
<path fill="none" stroke="midnightblue" d="M1190.24,-448.41C1179.39,-434.14 1166.44,-411.47 1174.5,-392 1179.42,-380.12 1189.17,-369.74 1198.33,-361.96"/>
<polygon fill="midnightblue" stroke="midnightblue" points="1200.75,-364.51 1206.44,-355.56 1196.42,-359.01 1200.75,-364.51"/>
</g>
<!-- Node30 -->
<g id="node30" class="node">
<title>Node30</title>
<g id="a_node30"><a xlink:href="abcgVulkanWindow_8hpp.html" target="_top" xlink:title="Header file of abcg::VulkanWindow.">
<polygon fill="none" stroke="black" points="769,-392.5 769,-411.5 900,-411.5 900,-392.5 769,-392.5"/>
<text text-anchor="middle" x="834.5" y="-399.5" font-family="Helvetica,sans-Serif" font-size="10.00">abcgVulkanWindow.hpp</text>
</a>
</g>
</g>
<!-- Node1&#45;&gt;Node30 -->
<g id="edge46" class="edge">
<title>Node1&#45;&gt;Node30</title>
<path fill="none" stroke="midnightblue" d="M1138.4,-452.14C1070.63,-441.18 964.42,-424.01 897.19,-413.14"/>
<polygon fill="midnightblue" stroke="midnightblue" points="897.58,-409.65 887.15,-411.51 896.47,-416.56 897.58,-409.65"/>
</g>
<!-- Node3 -->
<g id="node3" class="node">
<title>Node3</title>
<g id="a_node3"><a xlink:href="abcgApplication_8hpp.html" target="_top" xlink:title="Header file of abcg::Application.">
<polygon fill="none" stroke="black" points="477.5,-336.5 477.5,-355.5 593.5,-355.5 593.5,-336.5 477.5,-336.5"/>
<text text-anchor="middle" x="535.5" y="-343.5" font-family="Helvetica,sans-Serif" font-size="10.00">abcgApplication.hpp</text>
</a>
</g>
</g>
<!-- Node2&#45;&gt;Node3 -->
<g id="edge2" class="edge">
<title>Node2&#45;&gt;Node3</title>
<path fill="none" stroke="midnightblue" d="M429.47,-392.44C450.11,-383.6 482.56,-369.69 506.13,-359.59"/>
<polygon fill="midnightblue" stroke="midnightblue" points="507.82,-362.67 515.63,-355.52 505.06,-356.24 507.82,-362.67"/>
</g>
<!-- Node5 -->
<g id="node5" class="node">
<title>Node5</title>
<g id="a_node5"><a xlink:href="abcgException_8hpp.html" target="_top" xlink:title="Header file of abcg::Exception and derived classes.">
<polygon fill="none" stroke="black" points="72,-336.5 72,-355.5 181,-355.5 181,-336.5 72,-336.5"/>
<text text-anchor="middle" x="126.5" y="-343.5" font-family="Helvetica,sans-Serif" font-size="10.00">abcgException.hpp</text>
</a>
</g>
</g>
<!-- Node2&#45;&gt;Node5 -->
<g id="edge4" class="edge">
<title>Node2&#45;&gt;Node5</title>
<path fill="none" stroke="midnightblue" d="M378.95,-395.17C331.66,-386.15 240.07,-368.67 181.18,-357.43"/>
<polygon fill="midnightblue" stroke="midnightblue" points="181.78,-353.99 171.3,-355.55 180.47,-360.86 181.78,-353.99"/>
</g>
<!-- Node8 -->
<g id="node8" class="node">
<title>Node8</title>
<g id="a_node8"><a xlink:href="abcgExternal_8hpp.html" target="_top" xlink:title="Header file for including third&#45;party dependencies.">
<polygon fill="none" stroke="black" points="239,-280.5 239,-299.5 340,-299.5 340,-280.5 239,-280.5"/>
<text text-anchor="middle" x="289.5" y="-287.5" font-family="Helvetica,sans-Serif" font-size="10.00">abcgExternal.hpp</text>
</a>
</g>
</g>
<!-- Node2&#45;&gt;Node8 -->
<g id="edge8" class="edge">
<title>Node2&#45;&gt;Node8</title>
<path fill="none" stroke="midnightblue" d="M378.96,-397.89C332.33,-392.45 246.85,-379.47 228.5,-356 213.67,-337.03 239.39,-317.12 261.85,-304.41"/>
<polygon fill="midnightblue" stroke="midnightblue" points="263.68,-307.4 270.84,-299.58 260.37,-301.23 263.68,-307.4"/>
</g>
<!-- Node9 -->
<g id="node9" class="node">
<title>Node9</title>
<g id="a_node9"><a xlink:href="abcgTrackball_8hpp.html" target="_top" xlink:title="Header file of abcg::TrackBall.">
<polygon fill="none" stroke="black" points="237.5,-336.5 237.5,-355.5 341.5,-355.5 341.5,-336.5 237.5,-336.5"/>
<text text-anchor="middle" x="289.5" y="-343.5" font-family="Helvetica,sans-Serif" font-size="10.00">abcgTrackball.hpp</text>
</a>
</g>
</g>
<!-- Node2&#45;&gt;Node9 -->
<g id="edge9" class="edge">
<title>Node2&#45;&gt;Node9</title>
<path fill="none" stroke="midnightblue" d="M390.49,-392.44C370.91,-383.64 340.19,-369.81 317.77,-359.72"/>
<polygon fill="midnightblue" stroke="midnightblue" points="318.98,-356.43 308.43,-355.52 316.11,-362.81 318.98,-356.43"/>
</g>
<!-- Node12 -->
<g id="node12" class="node">
<title>Node12</title>
<g id="a_node12"><a xlink:href="abcgUtil_8hpp.html" target="_top" xlink:title="Declaration of general utility functions.">
<polygon fill="none" stroke="black" points="649.5,-336.5 649.5,-355.5 727.5,-355.5 727.5,-336.5 649.5,-336.5"/>
<text text-anchor="middle" x="688.5" y="-343.5" font-family="Helvetica,sans-Serif" font-size="10.00">abcgUtil.hpp</text>
</a>
</g>
</g>
<!-- Node2&#45;&gt;Node12 -->
<g id="edge13" class="edge">
<title>Node2&#45;&gt;Node12</title>
<path fill="none" stroke="midnightblue" d="M440.16,-395.07C488.23,-385.76 581.79,-367.65 639.35,-356.51"/>
<polygon fill="midnightblue" stroke="midnightblue" points="640.15,-359.92 649.31,-354.59 638.82,-353.05 640.15,-359.92"/>
</g>
<!-- Node14 -->
<g id="node14" class="node">
<title>Node14</title>
<g id="a_node14"><a xlink:href="abcgWindow_8hpp.html" target="_top" xlink:title="Header file of abcg::Window.">
<polygon fill="none" stroke="black" points="360,-336.5 360,-355.5 459,-355.5 459,-336.5 360,-336.5"/>
<text text-anchor="middle" x="409.5" y="-343.5" font-family="Helvetica,sans-Serif" font-size="10.00">abcgWindow.hpp</text>
</a>
</g>
</g>
<!-- Node2&#45;&gt;Node14 -->
<g id="edge15" class="edge">
<title>Node2&#45;&gt;Node14</title>
<path fill="none" stroke="midnightblue" d="M409.5,-392.08C409.5,-385.01 409.5,-374.86 409.5,-365.99"/>
<polygon fill="midnightblue" stroke="midnightblue" points="413,-365.75 409.5,-355.75 406,-365.75 413,-365.75"/>
</g>
<!-- Node4 -->
<g id="node4" class="node">
<title>Node4</title>
<g id="a_node4"><a xlink:title=" ">
<polygon fill="none" stroke="#bfbfbf" points="513.5,-224.5 513.5,-243.5 557.5,-243.5 557.5,-224.5 513.5,-224.5"/>
<text text-anchor="middle" x="535.5" y="-231.5" font-family="Helvetica,sans-Serif" font-size="10.00">string</text>
</a>
</g>
</g>
<!-- Node3&#45;&gt;Node4 -->
<g id="edge3" class="edge">
<title>Node3&#45;&gt;Node4</title>
<path fill="none" stroke="midnightblue" d="M535.5,-336.37C535.5,-318.62 535.5,-277.67 535.5,-253.6"/>
<polygon fill="midnightblue" stroke="midnightblue" points="539,-253.59 535.5,-243.59 532,-253.59 539,-253.59"/>
</g>
<!-- Node5&#45;&gt;Node4 -->
<g id="edge7" class="edge">
<title>Node5&#45;&gt;Node4</title>
<path fill="none" stroke="midnightblue" d="M136.83,-336.37C154.55,-322.08 192.42,-293.72 229.5,-280 279.33,-261.56 435,-244.73 503.08,-238.05"/>
<polygon fill="midnightblue" stroke="midnightblue" points="503.61,-241.52 513.23,-237.07 502.94,-234.55 503.61,-241.52"/>
</g>
<!-- Node6 -->
<g id="node6" class="node">
<title>Node6</title>
<g id="a_node6"><a xlink:title=" ">
<polygon fill="none" stroke="#bfbfbf" points="83,-280.5 83,-299.5 176,-299.5 176,-280.5 83,-280.5"/>
<text text-anchor="middle" x="129.5" y="-287.5" font-family="Helvetica,sans-Serif" font-size="10.00">source_location</text>
</a>
</g>
</g>
<!-- Node5&#45;&gt;Node6 -->
<g id="edge5" class="edge">
<title>Node5&#45;&gt;Node6</title>
<path fill="none" stroke="midnightblue" d="M127,-336.08C127.39,-329.01 127.95,-318.86 128.45,-309.99"/>
<polygon fill="midnightblue" stroke="midnightblue" points="131.95,-309.93 129.01,-299.75 124.96,-309.54 131.95,-309.93"/>
</g>
<!-- Node7 -->
<g id="node7" class="node">
<title>Node7</title>
<g id="a_node7"><a xlink:title=" ">
<polygon fill="none" stroke="#bfbfbf" points="0,-280.5 0,-299.5 65,-299.5 65,-280.5 0,-280.5"/>
<text text-anchor="middle" x="32.5" y="-287.5" font-family="Helvetica,sans-Serif" font-size="10.00">stdexcept</text>
</a>
</g>
</g>
<!-- Node5&#45;&gt;Node7 -->
<g id="edge6" class="edge">
<title>Node5&#45;&gt;Node7</title>
<path fill="none" stroke="midnightblue" d="M111.4,-336.32C96.6,-327.82 73.81,-314.73 56.52,-304.8"/>
<polygon fill="midnightblue" stroke="midnightblue" points="57.98,-301.6 47.57,-299.65 54.49,-307.67 57.98,-301.6"/>
</g>
<!-- Node9&#45;&gt;Node8 -->
<g id="edge10" class="edge">
<title>Node9&#45;&gt;Node8</title>
<path fill="none" stroke="midnightblue" d="M289.5,-336.08C289.5,-329.01 289.5,-318.86 289.5,-309.99"/>
<polygon fill="midnightblue" stroke="midnightblue" points="293,-309.75 289.5,-299.75 286,-309.75 293,-309.75"/>
</g>
<!-- Node10 -->
<g id="node10" class="node">
<title>Node10</title>
<g id="a_node10"><a xlink:href="abcgTimer_8hpp.html" target="_top" xlink:title="Header file of abcg::Timer.">
<polygon fill="none" stroke="black" points="362,-280.5 362,-299.5 451,-299.5 451,-280.5 362,-280.5"/>
<text text-anchor="middle" x="406.5" y="-287.5" font-family="Helvetica,sans-Serif" font-size="10.00">abcgTimer.hpp</text>
</a>
</g>
</g>
<!-- Node9&#45;&gt;Node10 -->
<g id="edge11" class="edge">
<title>Node9&#45;&gt;Node10</title>
<path fill="none" stroke="midnightblue" d="M308.04,-336.44C327.12,-327.64 357.07,-313.81 378.94,-303.72"/>
<polygon fill="midnightblue" stroke="midnightblue" points="380.43,-306.88 388.05,-299.52 377.5,-300.53 380.43,-306.88"/>
</g>
<!-- Node11 -->
<g id="node11" class="node">
<title>Node11</title>
<g id="a_node11"><a xlink:title=" ">
<polygon fill="none" stroke="#bfbfbf" points="381.5,-224.5 381.5,-243.5 431.5,-243.5 431.5,-224.5 381.5,-224.5"/>
<text text-anchor="middle" x="406.5" y="-231.5" font-family="Helvetica,sans-Serif" font-size="10.00">chrono</text>
</a>
</g>
</g>
<!-- Node10&#45;&gt;Node11 -->
<g id="edge12" class="edge">
<title>Node10&#45;&gt;Node11</title>
<path fill="none" stroke="midnightblue" d="M406.5,-280.08C406.5,-273.01 406.5,-262.86 406.5,-253.99"/>
<polygon fill="midnightblue" stroke="midnightblue" points="410,-253.75 406.5,-243.75 403,-253.75 410,-253.75"/>
</g>
<!-- Node13 -->
<g id="node13" class="node">
<title>Node13</title>
<g id="a_node13"><a xlink:title=" ">
<polygon fill="none" stroke="#bfbfbf" points="882,-280.5 882,-299.5 947,-299.5 947,-280.5 882,-280.5"/>
<text text-anchor="middle" x="914.5" y="-287.5" font-family="Helvetica,sans-Serif" font-size="10.00">functional</text>
</a>
</g>
</g>
<!-- Node12&#45;&gt;Node13 -->
<g id="edge14" class="edge">
<title>Node12&#45;&gt;Node13</title>
<path fill="none" stroke="midnightblue" d="M724.31,-336.44C764.41,-326.86 829.35,-311.35 871.99,-301.16"/>
<polygon fill="midnightblue" stroke="midnightblue" points="872.88,-304.54 881.79,-298.82 871.25,-297.73 872.88,-304.54"/>
</g>
<!-- Node14&#45;&gt;Node4 -->
<g id="edge16" class="edge">
<title>Node14&#45;&gt;Node4</title>
<path fill="none" stroke="midnightblue" d="M419.39,-336.37C440.64,-317.81 490.93,-273.91 517.82,-250.44"/>
<polygon fill="midnightblue" stroke="midnightblue" points="520.43,-252.8 525.66,-243.59 515.82,-247.53 520.43,-252.8"/>
</g>
<!-- Node14&#45;&gt;Node8 -->
<g id="edge17" class="edge">
<title>Node14&#45;&gt;Node8</title>
<path fill="none" stroke="midnightblue" d="M390.49,-336.44C370.91,-327.64 340.19,-313.81 317.77,-303.72"/>
<polygon fill="midnightblue" stroke="midnightblue" points="318.98,-300.43 308.43,-299.52 316.11,-306.81 318.98,-300.43"/>
</g>
<!-- Node14&#45;&gt;Node10 -->
<g id="edge18" class="edge">
<title>Node14&#45;&gt;Node10</title>
<path fill="none" stroke="midnightblue" d="M409,-336.08C408.61,-329.01 408.05,-318.86 407.55,-309.99"/>
<polygon fill="midnightblue" stroke="midnightblue" points="411.04,-309.54 406.99,-299.75 404.05,-309.93 411.04,-309.54"/>
</g>
<!-- Node16 -->
<g id="node16" class="node">
<title>Node16</title>
<g id="a_node16"><a xlink:href="abcgVulkanDevice_8hpp.html" target="_top" xlink:title="Header file of abcg::VulkanDevice.">
<polygon fill="none" stroke="black" points="1177,-224.5 1177,-243.5 1304,-243.5 1304,-224.5 1177,-224.5"/>
<text text-anchor="middle" x="1240.5" y="-231.5" font-family="Helvetica,sans-Serif" font-size="10.00">abcgVulkanDevice.hpp</text>
</a>
</g>
</g>
<!-- Node15&#45;&gt;Node16 -->
<g id="edge20" class="edge">
<title>Node15&#45;&gt;Node16</title>
<path fill="none" stroke="midnightblue" d="M1482.87,-280.44C1432.2,-270.94 1350.43,-255.61 1296.07,-245.42"/>
<polygon fill="midnightblue" stroke="midnightblue" points="1296.39,-241.92 1285.92,-243.52 1295.1,-248.8 1296.39,-241.92"/>
</g>
<!-- Node23 -->
<g id="node23" class="node">
<title>Node23</title>
<g id="a_node23"><a xlink:title=" ">
<polygon fill="none" stroke="#bfbfbf" points="1420.5,-224.5 1420.5,-243.5 1494.5,-243.5 1494.5,-224.5 1420.5,-224.5"/>
<text text-anchor="middle" x="1457.5" y="-231.5" font-family="Helvetica,sans-Serif" font-size="10.00">gsl/pointers</text>
</a>
</g>
</g>
<!-- Node15&#45;&gt;Node23 -->
<g id="edge29" class="edge">
<title>Node15&#45;&gt;Node23</title>
<path fill="none" stroke="midnightblue" d="M1517.09,-280.32C1506.39,-272.18 1490.16,-259.84 1477.34,-250.09"/>
<polygon fill="midnightblue" stroke="midnightblue" points="1479.19,-247.1 1469.11,-243.83 1474.96,-252.67 1479.19,-247.1"/>
</g>
<!-- Node17 -->
<g id="node17" class="node">
<title>Node17</title>
<g id="a_node17"><a xlink:href="abcgVulkanExternal_8hpp.html" target="_top" xlink:title="Header file for including Vulkan&#45;related dependencies.">
<polygon fill="none" stroke="black" points="877.5,-56.5 877.5,-75.5 1011.5,-75.5 1011.5,-56.5 877.5,-56.5"/>
<text text-anchor="middle" x="944.5" y="-63.5" font-family="Helvetica,sans-Serif" font-size="10.00">abcgVulkanExternal.hpp</text>
</a>
</g>
</g>
<!-- Node16&#45;&gt;Node17 -->
<g id="edge21" class="edge">
<title>Node16&#45;&gt;Node17</title>
<path fill="none" stroke="midnightblue" d="M1228.95,-224.21C1200.68,-202.98 1125.27,-147.97 1056.5,-112 1031.59,-98.97 1002.03,-87.24 979.54,-79.03"/>
<polygon fill="midnightblue" stroke="midnightblue" points="980.65,-75.71 970.05,-75.62 978.28,-82.29 980.65,-75.71"/>
</g>
<!-- Node20 -->
<g id="node20" class="node">
<title>Node20</title>
<g id="a_node20"><a xlink:href="abcgVulkanPhysicalDevice_8hpp.html" target="_top" xlink:title="Header file of abcg::VulkanPhysicalDevice.">
<polygon fill="none" stroke="black" points="843,-168.5 843,-187.5 1010,-187.5 1010,-168.5 843,-168.5"/>
<text text-anchor="middle" x="926.5" y="-175.5" font-family="Helvetica,sans-Serif" font-size="10.00">abcgVulkanPhysicalDevice.hpp</text>
</a>
</g>
</g>
<!-- Node16&#45;&gt;Node20 -->
<g id="edge24" class="edge">
<title>Node16&#45;&gt;Node20</title>
<path fill="none" stroke="midnightblue" d="M1190.75,-224.44C1135.17,-214.89 1045.24,-199.42 985.98,-189.23"/>
<polygon fill="midnightblue" stroke="midnightblue" points="986.47,-185.76 976.02,-187.52 985.28,-192.66 986.47,-185.76"/>
</g>
<!-- Node18 -->
<g id="node18" class="node">
<title>Node18</title>
<g id="a_node18"><a xlink:title=" ">
<polygon fill="none" stroke="#bfbfbf" points="874,-0.5 874,-19.5 921,-19.5 921,-0.5 874,-0.5"/>
<text text-anchor="middle" x="897.5" y="-7.5" font-family="Helvetica,sans-Serif" font-size="10.00">volk.h</text>
</a>
</g>
</g>
<!-- Node17&#45;&gt;Node18 -->
<g id="edge22" class="edge">
<title>Node17&#45;&gt;Node18</title>
<path fill="none" stroke="midnightblue" d="M936.74,-56.08C929.96,-48.3 919.96,-36.8 911.74,-27.37"/>
<polygon fill="midnightblue" stroke="midnightblue" points="914.32,-25 905.12,-19.75 909.04,-29.59 914.32,-25"/>
</g>
<!-- Node19 -->
<g id="node19" class="node">
<title>Node19</title>
<g id="a_node19"><a xlink:title=" ">
<polygon fill="none" stroke="#bfbfbf" points="939,-0.5 939,-19.5 1044,-19.5 1044,-0.5 939,-0.5"/>
<text text-anchor="middle" x="991.5" y="-7.5" font-family="Helvetica,sans-Serif" font-size="10.00">vulkan/vulkan.hpp</text>
</a>
</g>
</g>
<!-- Node17&#45;&gt;Node19 -->
<g id="edge23" class="edge">
<title>Node17&#45;&gt;Node19</title>
<path fill="none" stroke="midnightblue" d="M952.26,-56.08C959.04,-48.3 969.04,-36.8 977.26,-27.37"/>
<polygon fill="midnightblue" stroke="midnightblue" points="979.96,-29.59 983.88,-19.75 974.68,-25 979.96,-29.59"/>
</g>
<!-- Node20&#45;&gt;Node17 -->
<g id="edge26" class="edge">
<title>Node20&#45;&gt;Node17</title>
<path fill="none" stroke="midnightblue" d="M927.91,-168.37C930.82,-150.62 937.52,-109.67 941.46,-85.6"/>
<polygon fill="midnightblue" stroke="midnightblue" points="944.93,-86.03 943.09,-75.59 938.03,-84.89 944.93,-86.03"/>
</g>
<!-- Node21 -->
<g id="node21" class="node">
<title>Node21</title>
<g id="a_node21"><a xlink:title=" ">
<polygon fill="none" stroke="#bfbfbf" points="991.5,-112.5 991.5,-131.5 1047.5,-131.5 1047.5,-112.5 991.5,-112.5"/>
<text text-anchor="middle" x="1019.5" y="-119.5" font-family="Helvetica,sans-Serif" font-size="10.00">optional</text>
</a>
</g>
</g>
<!-- Node20&#45;&gt;Node21 -->
<g id="edge25" class="edge">
<title>Node20&#45;&gt;Node21</title>
<path fill="none" stroke="midnightblue" d="M941.44,-168.32C956.09,-159.82 978.63,-146.73 995.74,-136.8"/>
<polygon fill="midnightblue" stroke="midnightblue" points="997.7,-139.7 1004.6,-131.65 994.19,-133.65 997.7,-139.7"/>
</g>
<!-- Node22 -->
<g id="node22" class="node">
<title>Node22</title>
<g id="a_node22"><a xlink:href="abcgVulkanInstance_8hpp.html" target="_top" xlink:title="Header file of abcg::VulkanInstance.">
<polygon fill="none" stroke="black" points="782.5,-112.5 782.5,-131.5 916.5,-131.5 916.5,-112.5 782.5,-112.5"/>
<text text-anchor="middle" x="849.5" y="-119.5" font-family="Helvetica,sans-Serif" font-size="10.00">abcgVulkanInstance.hpp</text>
</a>
</g>
</g>
<!-- Node20&#45;&gt;Node22 -->
<g id="edge27" class="edge">
<title>Node20&#45;&gt;Node22</title>
<path fill="none" stroke="midnightblue" d="M914.13,-168.32C902.34,-160.06 884.37,-147.45 870.36,-137.63"/>
<polygon fill="midnightblue" stroke="midnightblue" points="872.04,-134.53 861.84,-131.65 868.02,-140.26 872.04,-134.53"/>
</g>
<!-- Node22&#45;&gt;Node17 -->
<g id="edge28" class="edge">
<title>Node22&#45;&gt;Node17</title>
<path fill="none" stroke="midnightblue" d="M864.76,-112.32C879.72,-103.82 902.75,-90.73 920.23,-80.8"/>
<polygon fill="midnightblue" stroke="midnightblue" points="922.31,-83.64 929.27,-75.65 918.85,-77.55 922.31,-83.64"/>
</g>
<!-- Node24&#45;&gt;Node16 -->
<g id="edge31" class="edge">
<title>Node24&#45;&gt;Node16</title>
<path fill="none" stroke="midnightblue" d="M1364.21,-280.44C1339.69,-271.44 1300.9,-257.19 1273.3,-247.05"/>
<polygon fill="midnightblue" stroke="midnightblue" points="1274.28,-243.68 1263.68,-243.52 1271.86,-250.25 1274.28,-243.68"/>
</g>
<!-- Node24&#45;&gt;Node23 -->
<g id="edge32" class="edge">
<title>Node24&#45;&gt;Node23</title>
<path fill="none" stroke="midnightblue" d="M1398.75,-280.32C1409.3,-272.18 1425.3,-259.84 1437.94,-250.09"/>
<polygon fill="midnightblue" stroke="midnightblue" points="1440.27,-252.71 1446.05,-243.83 1435.99,-247.17 1440.27,-252.71"/>
</g>
<!-- Node25&#45;&gt;Node16 -->
<g id="edge34" class="edge">
<title>Node25&#45;&gt;Node16</title>
<path fill="none" stroke="midnightblue" d="M1261.71,-392.24C1271.85,-384.14 1285.54,-371.11 1291.5,-356 1294.76,-347.73 1293.56,-344.65 1291.5,-336 1283.95,-304.31 1264.78,-271.28 1252.21,-251.96"/>
<polygon fill="midnightblue" stroke="midnightblue" points="1255.12,-250.01 1246.65,-243.64 1249.29,-253.9 1255.12,-250.01"/>
</g>
<!-- Node25&#45;&gt;Node26 -->
<g id="edge35" class="edge">
<title>Node25&#45;&gt;Node26</title>
<path fill="none" stroke="midnightblue" d="M1244.55,-392.08C1240.4,-384.61 1234.35,-373.72 1229.23,-364.52"/>
<polygon fill="midnightblue" stroke="midnightblue" points="1232.28,-362.79 1224.36,-355.75 1226.16,-366.19 1232.28,-362.79"/>
</g>
<!-- Node28 -->
<g id="node28" class="node">
<title>Node28</title>
<g id="a_node28"><a xlink:href="abcgVulkanSwapchain_8hpp.html" target="_top" xlink:title="Header file of abcg::VulkanSwapchain.">
<polygon fill="none" stroke="black" points="992.5,-336.5 992.5,-355.5 1138.5,-355.5 1138.5,-336.5 992.5,-336.5"/>
<text text-anchor="middle" x="1065.5" y="-343.5" font-family="Helvetica,sans-Serif" font-size="10.00">abcgVulkanSwapchain.hpp</text>
</a>
</g>
</g>
<!-- Node25&#45;&gt;Node28 -->
<g id="edge40" class="edge">
<title>Node25&#45;&gt;Node28</title>
<path fill="none" stroke="midnightblue" d="M1220.34,-392.44C1188.99,-383.24 1138.97,-368.56 1104.3,-358.39"/>
<polygon fill="midnightblue" stroke="midnightblue" points="1105.1,-354.97 1094.52,-355.52 1103.13,-361.69 1105.1,-354.97"/>
</g>
<!-- Node26&#45;&gt;Node16 -->
<g id="edge39" class="edge">
<title>Node26&#45;&gt;Node16</title>
<path fill="none" stroke="midnightblue" d="M1223.4,-336.24C1227.18,-327.31 1232.74,-312.98 1235.5,-300 1238.77,-284.59 1239.96,-266.71 1240.37,-253.62"/>
<polygon fill="midnightblue" stroke="midnightblue" points="1243.87,-253.58 1240.56,-243.52 1236.87,-253.45 1243.87,-253.58"/>
</g>
<!-- Node27 -->
<g id="node27" class="node">
<title>Node27</title>
<g id="a_node27"><a xlink:href="abcgShader_8hpp.html" target="_top" xlink:title="Declaration of a structure for building shaders.">
<polygon fill="none" stroke="black" points="965.5,-280.5 965.5,-299.5 1059.5,-299.5 1059.5,-280.5 965.5,-280.5"/>
<text text-anchor="middle" x="1012.5" y="-287.5" font-family="Helvetica,sans-Serif" font-size="10.00">abcgShader.hpp</text>
</a>
</g>
</g>
<!-- Node26&#45;&gt;Node27 -->
<g id="edge36" class="edge">
<title>Node26&#45;&gt;Node27</title>
<path fill="none" stroke="midnightblue" d="M1186.7,-336.44C1151.12,-327.16 1094.19,-312.31 1055.15,-302.13"/>
<polygon fill="midnightblue" stroke="midnightblue" points="1055.71,-298.65 1045.15,-299.52 1053.94,-305.43 1055.71,-298.65"/>
</g>
<!-- Node27&#45;&gt;Node4 -->
<g id="edge38" class="edge">
<title>Node27&#45;&gt;Node4</title>
<path fill="none" stroke="midnightblue" d="M965.47,-281.26C962.44,-280.81 959.43,-280.39 956.5,-280 812.01,-260.68 638.73,-244.29 567.98,-237.88"/>
<polygon fill="midnightblue" stroke="midnightblue" points="568.19,-234.39 557.91,-236.98 567.56,-241.36 568.19,-234.39"/>
</g>
<!-- Node27&#45;&gt;Node21 -->
<g id="edge37" class="edge">
<title>Node27&#45;&gt;Node21</title>
<path fill="none" stroke="midnightblue" d="M1013.3,-280.36C1014.87,-262.93 1018.31,-222.25 1019.5,-188 1020.04,-172.47 1020,-154.85 1019.84,-141.87"/>
<polygon fill="midnightblue" stroke="midnightblue" points="1023.34,-141.78 1019.69,-131.83 1016.34,-141.89 1023.34,-141.78"/>
</g>
<!-- Node28&#45;&gt;Node13 -->
<g id="edge41" class="edge">
<title>Node28&#45;&gt;Node13</title>
<path fill="none" stroke="midnightblue" d="M1041.57,-336.44C1016.28,-327.4 976.2,-313.06 947.82,-302.92"/>
<polygon fill="midnightblue" stroke="midnightblue" points="948.91,-299.59 938.31,-299.52 946.55,-306.18 948.91,-299.59"/>
</g>
<!-- Node28&#45;&gt;Node16 -->
<g id="edge43" class="edge">
<title>Node28&#45;&gt;Node16</title>
<path fill="none" stroke="midnightblue" d="M1120.29,-336.46C1147.31,-330.04 1179.03,-318.96 1202.5,-300 1217.55,-287.84 1227.91,-268 1233.96,-253.43"/>
<polygon fill="midnightblue" stroke="midnightblue" points="1237.29,-254.54 1237.61,-243.95 1230.75,-252.02 1237.29,-254.54"/>
</g>
<!-- Node28&#45;&gt;Node24 -->
<g id="edge44" class="edge">
<title>Node28&#45;&gt;Node24</title>
<path fill="none" stroke="midnightblue" d="M1116.52,-336.44C1173.52,-326.89 1265.74,-311.42 1326.5,-301.23"/>
<polygon fill="midnightblue" stroke="midnightblue" points="1327.43,-304.62 1336.72,-299.52 1326.28,-297.72 1327.43,-304.62"/>
</g>
<!-- Node29 -->
<g id="node29" class="node">
<title>Node29</title>
<g id="a_node29"><a xlink:title=" ">
<polygon fill="none" stroke="#bfbfbf" points="1116,-280.5 1116,-299.5 1193,-299.5 1193,-280.5 1116,-280.5"/>
<text text-anchor="middle" x="1154.5" y="-287.5" font-family="Helvetica,sans-Serif" font-size="10.00">glm/fwd.hpp</text>
</a>
</g>
</g>
<!-- Node28&#45;&gt;Node29 -->
<g id="edge42" class="edge">
<title>Node28&#45;&gt;Node29</title>
<path fill="none" stroke="midnightblue" d="M1079.8,-336.32C1093.68,-327.9 1114.99,-314.97 1131.3,-305.07"/>
<polygon fill="midnightblue" stroke="midnightblue" points="1133.5,-307.83 1140.24,-299.65 1129.87,-301.85 1133.5,-307.83"/>
</g>
<!-- Node30&#45;&gt;Node4 -->
<g id="edge48" class="edge">
<title>Node30&#45;&gt;Node4</title>
<path fill="none" stroke="midnightblue" d="M768.66,-396C729.19,-390.6 679.3,-379.36 640.5,-356 596.78,-329.68 561.8,-278.94 545.48,-252.3"/>
<polygon fill="midnightblue" stroke="midnightblue" points="548.46,-250.46 540.33,-243.66 542.45,-254.04 548.46,-250.46"/>
</g>
<!-- Node30&#45;&gt;Node14 -->
<g id="edge53" class="edge">
<title>Node30&#45;&gt;Node14</title>
<path fill="none" stroke="midnightblue" d="M768.97,-393.52C697.83,-385.28 580.58,-371.3 469.13,-356.05"/>
<polygon fill="midnightblue" stroke="midnightblue" points="469.44,-352.56 459.06,-354.67 468.49,-359.5 469.44,-352.56"/>
</g>
<!-- Node30&#45;&gt;Node16 -->
<g id="edge49" class="edge">
<title>Node30&#45;&gt;Node16</title>
<path fill="none" stroke="midnightblue" d="M854.23,-392.31C882.73,-379.78 937.09,-355.95 983.5,-336 1021.19,-319.8 1031.33,-317.37 1068.5,-300 1086.15,-291.75 1089.56,-287.59 1107.5,-280 1138.46,-266.91 1174.65,-254.87 1201.46,-246.54"/>
<polygon fill="midnightblue" stroke="midnightblue" points="1202.71,-249.82 1211.24,-243.54 1200.66,-243.12 1202.71,-249.82"/>
</g>
<!-- Node30&#45;&gt;Node20 -->
<g id="edge51" class="edge">
<title>Node30&#45;&gt;Node20</title>
<path fill="none" stroke="midnightblue" d="M836.75,-392.31C842.08,-372.17 856.33,-320.9 873.5,-280 886.22,-249.7 904.72,-216.24 916.16,-196.45"/>
<polygon fill="midnightblue" stroke="midnightblue" points="919.27,-198.07 921.3,-187.67 913.23,-194.54 919.27,-198.07"/>
</g>
<!-- Node30&#45;&gt;Node22 -->
<g id="edge50" class="edge">
<title>Node30&#45;&gt;Node22</title>
<path fill="none" stroke="midnightblue" d="M831.94,-392.25C826.75,-373.74 815.5,-329.18 815.5,-291 815.5,-291 815.5,-291 815.5,-233 815.5,-199.16 830.37,-161.97 840.44,-140.66"/>
<polygon fill="midnightblue" stroke="midnightblue" points="843.64,-142.08 844.91,-131.56 837.36,-138.99 843.64,-142.08"/>
</g>
<!-- Node30&#45;&gt;Node28 -->
<g id="edge52" class="edge">
<title>Node30&#45;&gt;Node28</title>
<path fill="none" stroke="midnightblue" d="M871.1,-392.44C911.23,-383.06 975.7,-367.99 1019.28,-357.8"/>
<polygon fill="midnightblue" stroke="midnightblue" points="1020.13,-361.2 1029.07,-355.52 1018.53,-354.38 1020.13,-361.2"/>
</g>
<!-- Node31 -->
<g id="node31" class="node">
<title>Node31</title>
<g id="a_node31"><a xlink:title=" ">
<polygon fill="none" stroke="#bfbfbf" points="745.5,-336.5 745.5,-355.5 787.5,-355.5 787.5,-336.5 745.5,-336.5"/>
<text text-anchor="middle" x="766.5" y="-343.5" font-family="Helvetica,sans-Serif" font-size="10.00">array</text>
</a>
</g>
</g>
<!-- Node30&#45;&gt;Node31 -->
<g id="edge47" class="edge">
<title>Node30&#45;&gt;Node31</title>
<path fill="none" stroke="midnightblue" d="M823.57,-392.32C813.33,-384.18 797.78,-371.84 785.5,-362.09"/>
<polygon fill="midnightblue" stroke="midnightblue" points="787.63,-359.31 777.62,-355.83 783.28,-364.79 787.63,-359.31"/>
</g>
</g>
</svg>
