<?xml version="1.0" encoding="UTF-8" standalone="no"?>
<!DOCTYPE svg PUBLIC "-//W3C//DTD SVG 1.1//EN"
 "http://www.w3.org/Graphics/SVG/1.1/DTD/svg11.dtd">
<!-- Generated by graphviz version 2.43.0 (0)
 -->
<!-- Title: /home/harlen/dev/abcg2/abcg/abcg_vulkan_device.cpp Pages: 1 -->
<svg width="621pt" height="218pt"
 viewBox="0.00 0.00 620.50 218.00" xmlns="http://www.w3.org/2000/svg" xmlns:xlink="http://www.w3.org/1999/xlink">
<g id="graph0" class="graph" transform="scale(1 1) rotate(0) translate(4 214)">
<title>/home/harlen/dev/abcg2/abcg/abcg_vulkan_device.cpp</title>
<!-- Node1 -->
<g id="node1" class="node">
<title>Node1</title>
<g id="a_node1"><a xlink:title="Definition of abcg::VulkanDevice.">
<polygon fill="#bfbfbf" stroke="black" points="293.5,-179.5 293.5,-209.5 457.5,-209.5 457.5,-179.5 293.5,-179.5"/>
<text text-anchor="start" x="301.5" y="-197.5" font-family="Helvetica,sans-Serif" font-size="10.00">/home/harlen/dev/abcg2</text>
<text text-anchor="middle" x="375.5" y="-186.5" font-family="Helvetica,sans-Serif" font-size="10.00">/abcg/abcg_vulkan_device.cpp</text>
</a>
</g>
</g>
<!-- Node2 -->
<g id="node2" class="node">
<title>Node2</title>
<g id="a_node2"><a xlink:href="abcg__vulkan__device_8hpp.html" target="_top" xlink:title="Header file of abcg::VulkanDevice.">
<polygon fill="none" stroke="black" points="256.5,-118 256.5,-137 392.5,-137 392.5,-118 256.5,-118"/>
<text text-anchor="middle" x="324.5" y="-125" font-family="Helvetica,sans-Serif" font-size="10.00">abcg_vulkan_device.hpp</text>
</a>
</g>
</g>
<!-- Node1&#45;&gt;Node2 -->
<g id="edge1" class="edge">
<title>Node1&#45;&gt;Node2</title>
<path fill="none" stroke="midnightblue" d="M364.43,-179.4C356.56,-169.36 345.95,-155.84 337.65,-145.25"/>
<polygon fill="midnightblue" stroke="midnightblue" points="340.25,-142.9 331.32,-137.19 334.74,-147.22 340.25,-142.9"/>
</g>
<!-- Node6 -->
<g id="node6" class="node">
<title>Node6</title>
<g id="a_node6"><a xlink:title=" ">
<polygon fill="none" stroke="#bfbfbf" points="410.5,-118 410.5,-137 442.5,-137 442.5,-118 410.5,-118"/>
<text text-anchor="middle" x="426.5" y="-125" font-family="Helvetica,sans-Serif" font-size="10.00">set</text>
</a>
</g>
</g>
<!-- Node1&#45;&gt;Node6 -->
<g id="edge6" class="edge">
<title>Node1&#45;&gt;Node6</title>
<path fill="none" stroke="midnightblue" d="M386.57,-179.4C394.44,-169.36 405.05,-155.84 413.35,-145.25"/>
<polygon fill="midnightblue" stroke="midnightblue" points="416.26,-147.22 419.68,-137.19 410.75,-142.9 416.26,-147.22"/>
</g>
<!-- Node7 -->
<g id="node7" class="node">
<title>Node7</title>
<g id="a_node7"><a xlink:href="abcg__exception_8hpp.html" target="_top" xlink:title="Header file of abcg::Exception and derived classes.">
<polygon fill="none" stroke="black" points="460.5,-118 460.5,-137 574.5,-137 574.5,-118 460.5,-118"/>
<text text-anchor="middle" x="517.5" y="-125" font-family="Helvetica,sans-Serif" font-size="10.00">abcg_exception.hpp</text>
</a>
</g>
</g>
<!-- Node1&#45;&gt;Node7 -->
<g id="edge7" class="edge">
<title>Node1&#45;&gt;Node7</title>
<path fill="none" stroke="midnightblue" d="M406.31,-179.4C431.12,-168.04 465.68,-152.22 489.66,-141.24"/>
<polygon fill="midnightblue" stroke="midnightblue" points="491.28,-144.35 498.92,-137.01 488.37,-137.99 491.28,-144.35"/>
</g>
<!-- Node11 -->
<g id="node11" class="node">
<title>Node11</title>
<g id="a_node11"><a xlink:href="abcg__vulkan__physical__device_8hpp.html" target="_top" xlink:title="Header file of abcg::VulkanPhysicalDevice.">
<polygon fill="none" stroke="black" points="115,-112.5 115,-142.5 238,-142.5 238,-112.5 115,-112.5"/>
<text text-anchor="start" x="123" y="-130.5" font-family="Helvetica,sans-Serif" font-size="10.00">abcg_vulkan_physical</text>
<text text-anchor="middle" x="176.5" y="-119.5" font-family="Helvetica,sans-Serif" font-size="10.00">_device.hpp</text>
</a>
</g>
</g>
<!-- Node1&#45;&gt;Node11 -->
<g id="edge11" class="edge">
<title>Node1&#45;&gt;Node11</title>
<path fill="none" stroke="midnightblue" d="M332.32,-179.4C302.07,-169.52 261.47,-156.25 229.29,-145.74"/>
<polygon fill="midnightblue" stroke="midnightblue" points="230.19,-142.35 219.6,-142.58 228.01,-149.01 230.19,-142.35"/>
</g>
<!-- Node3 -->
<g id="node3" class="node">
<title>Node3</title>
<g id="a_node3"><a xlink:href="abcg__external_8hpp.html" target="_top" xlink:title="Header file for including third&#45;party dependencies.">
<polygon fill="none" stroke="black" points="161,-0.5 161,-19.5 268,-19.5 268,-0.5 161,-0.5"/>
<text text-anchor="middle" x="214.5" y="-7.5" font-family="Helvetica,sans-Serif" font-size="10.00">abcg_external.hpp</text>
</a>
</g>
</g>
<!-- Node2&#45;&gt;Node3 -->
<g id="edge2" class="edge">
<title>Node2&#45;&gt;Node3</title>
<path fill="none" stroke="midnightblue" d="M325.3,-117.67C326.12,-103.22 325.68,-74.3 311.5,-56 299.31,-40.28 280.33,-29.83 262.38,-23"/>
<polygon fill="midnightblue" stroke="midnightblue" points="263.16,-19.57 252.57,-19.57 260.85,-26.17 263.16,-19.57"/>
</g>
<!-- Node4 -->
<g id="node4" class="node">
<title>Node4</title>
<g id="a_node4"><a xlink:href="abcg__vulkan_8hpp.html" target="_top" xlink:title="Header file for Vulkan&#45;related functions and classes.">
<polygon fill="none" stroke="black" points="204.5,-56.5 204.5,-75.5 302.5,-75.5 302.5,-56.5 204.5,-56.5"/>
<text text-anchor="middle" x="253.5" y="-63.5" font-family="Helvetica,sans-Serif" font-size="10.00">abcg_vulkan.hpp</text>
</a>
</g>
</g>
<!-- Node2&#45;&gt;Node4 -->
<g id="edge3" class="edge">
<title>Node2&#45;&gt;Node4</title>
<path fill="none" stroke="midnightblue" d="M314.33,-117.98C303.15,-108.61 284.98,-93.38 271.41,-82.01"/>
<polygon fill="midnightblue" stroke="midnightblue" points="273.57,-79.25 263.65,-75.51 269.07,-84.61 273.57,-79.25"/>
</g>
<!-- Node4&#45;&gt;Node3 -->
<g id="edge4" class="edge">
<title>Node4&#45;&gt;Node3</title>
<path fill="none" stroke="midnightblue" d="M247.06,-56.08C241.55,-48.46 233.47,-37.26 226.74,-27.94"/>
<polygon fill="midnightblue" stroke="midnightblue" points="229.51,-25.81 220.82,-19.75 223.84,-29.91 229.51,-25.81"/>
</g>
<!-- Node5 -->
<g id="node5" class="node">
<title>Node5</title>
<g id="a_node5"><a xlink:href="abcg__vulkan__external_8hpp.html" target="_top" xlink:title="Header file for including Vulkan&#45;related dependencies.">
<polygon fill="none" stroke="black" points="286.5,-0.5 286.5,-19.5 430.5,-19.5 430.5,-0.5 286.5,-0.5"/>
<text text-anchor="middle" x="358.5" y="-7.5" font-family="Helvetica,sans-Serif" font-size="10.00">abcg_vulkan_external.hpp</text>
</a>
</g>
</g>
<!-- Node4&#45;&gt;Node5 -->
<g id="edge5" class="edge">
<title>Node4&#45;&gt;Node5</title>
<path fill="none" stroke="midnightblue" d="M270.37,-56.32C287.21,-47.66 313.31,-34.24 332.74,-24.25"/>
<polygon fill="midnightblue" stroke="midnightblue" points="334.38,-27.34 341.67,-19.65 331.18,-21.12 334.38,-27.34"/>
</g>
<!-- Node8 -->
<g id="node8" class="node">
<title>Node8</title>
<g id="a_node8"><a xlink:title=" ">
<polygon fill="none" stroke="#bfbfbf" points="374,-56.5 374,-75.5 467,-75.5 467,-56.5 374,-56.5"/>
<text text-anchor="middle" x="420.5" y="-63.5" font-family="Helvetica,sans-Serif" font-size="10.00">source_location</text>
</a>
</g>
</g>
<!-- Node7&#45;&gt;Node8 -->
<g id="edge8" class="edge">
<title>Node7&#45;&gt;Node8</title>
<path fill="none" stroke="midnightblue" d="M503.6,-117.98C487.83,-108.3 461.86,-92.37 443.15,-80.89"/>
<polygon fill="midnightblue" stroke="midnightblue" points="444.73,-77.75 434.37,-75.51 441.07,-83.72 444.73,-77.75"/>
</g>
<!-- Node9 -->
<g id="node9" class="node">
<title>Node9</title>
<g id="a_node9"><a xlink:title=" ">
<polygon fill="none" stroke="#bfbfbf" points="485,-56.5 485,-75.5 550,-75.5 550,-56.5 485,-56.5"/>
<text text-anchor="middle" x="517.5" y="-63.5" font-family="Helvetica,sans-Serif" font-size="10.00">stdexcept</text>
</a>
</g>
</g>
<!-- Node7&#45;&gt;Node9 -->
<g id="edge9" class="edge">
<title>Node7&#45;&gt;Node9</title>
<path fill="none" stroke="midnightblue" d="M517.5,-117.98C517.5,-109.58 517.5,-96.48 517.5,-85.66"/>
<polygon fill="midnightblue" stroke="midnightblue" points="521,-85.51 517.5,-75.51 514,-85.51 521,-85.51"/>
</g>
<!-- Node10 -->
<g id="node10" class="node">
<title>Node10</title>
<g id="a_node10"><a xlink:title=" ">
<polygon fill="none" stroke="#bfbfbf" points="568.5,-56.5 568.5,-75.5 612.5,-75.5 612.5,-56.5 568.5,-56.5"/>
<text text-anchor="middle" x="590.5" y="-63.5" font-family="Helvetica,sans-Serif" font-size="10.00">string</text>
</a>
</g>
</g>
<!-- Node7&#45;&gt;Node10 -->
<g id="edge10" class="edge">
<title>Node7&#45;&gt;Node10</title>
<path fill="none" stroke="midnightblue" d="M527.96,-117.98C539.45,-108.61 558.13,-93.38 572.09,-82.01"/>
<polygon fill="midnightblue" stroke="midnightblue" points="574.52,-84.54 580.06,-75.51 570.1,-79.11 574.52,-84.54"/>
</g>
<!-- Node11&#45;&gt;Node3 -->
<g id="edge12" class="edge">
<title>Node11&#45;&gt;Node3</title>
<path fill="none" stroke="midnightblue" d="M179.73,-112.28C183.13,-97.92 188.9,-75.18 195.5,-56 198.6,-46.98 202.65,-37.2 206.21,-29.06"/>
<polygon fill="midnightblue" stroke="midnightblue" points="209.45,-30.38 210.35,-19.83 203.07,-27.52 209.45,-30.38"/>
</g>
<!-- Node11&#45;&gt;Node4 -->
<g id="edge13" class="edge">
<title>Node11&#45;&gt;Node4</title>
<path fill="none" stroke="midnightblue" d="M194.75,-112.4C206.63,-103.22 222.11,-91.26 234.19,-81.92"/>
<polygon fill="midnightblue" stroke="midnightblue" points="236.52,-84.54 242.3,-75.66 232.24,-79 236.52,-84.54"/>
</g>
<!-- Node12 -->
<g id="node12" class="node">
<title>Node12</title>
<g id="a_node12"><a xlink:title=" ">
<polygon fill="none" stroke="#bfbfbf" points="0,-56.5 0,-75.5 149,-75.5 149,-56.5 0,-56.5"/>
<text text-anchor="middle" x="74.5" y="-63.5" font-family="Helvetica,sans-Serif" font-size="10.00">vulkan/vulkan_handles.hpp</text>
</a>
</g>
</g>
<!-- Node11&#45;&gt;Node12 -->
<g id="edge14" class="edge">
<title>Node11&#45;&gt;Node12</title>
<path fill="none" stroke="midnightblue" d="M152.33,-112.4C135.98,-102.86 114.49,-90.32 98.23,-80.84"/>
<polygon fill="midnightblue" stroke="midnightblue" points="99.74,-77.67 89.34,-75.66 96.22,-83.72 99.74,-77.67"/>
</g>
</g>
</svg>
