<?xml version="1.0" encoding="UTF-8" standalone="no"?>
<!DOCTYPE svg PUBLIC "-//W3C//DTD SVG 1.1//EN"
 "http://www.w3.org/Graphics/SVG/1.1/DTD/svg11.dtd">
<!-- Generated by graphviz version 2.43.0 (0)
 -->
<!-- Title: /home/harlen/dev/abcg/abcg/abcgVulkanWindow.cpp Pages: 1 -->
<svg width="1287pt" height="487pt"
 viewBox="0.00 0.00 1287.18 487.00" xmlns="http://www.w3.org/2000/svg" xmlns:xlink="http://www.w3.org/1999/xlink">
<g id="graph0" class="graph" transform="scale(1 1) rotate(0) translate(4 483)">
<title>/home/harlen/dev/abcg/abcg/abcgVulkanWindow.cpp</title>
<!-- Node1 -->
<g id="node1" class="node">
<title>Node1</title>
<g id="a_node1"><a xlink:title="Definition of abcg::VulkanWindow members.">
<polygon fill="#bfbfbf" stroke="black" points="706.6,-448.5 706.6,-478.5 866.6,-478.5 866.6,-448.5 706.6,-448.5"/>
<text text-anchor="start" x="714.6" y="-466.5" font-family="Helvetica,sans-Serif" font-size="10.00">/home/harlen/dev/abcg</text>
<text text-anchor="middle" x="786.6" y="-455.5" font-family="Helvetica,sans-Serif" font-size="10.00">/abcg/abcgVulkanWindow.cpp</text>
</a>
</g>
</g>
<!-- Node2 -->
<g id="node2" class="node">
<title>Node2</title>
<g id="a_node2"><a xlink:href="abcgVulkanWindow_8hpp.html" target="_top" xlink:title="Header file of abcg::VulkanWindow.">
<polygon fill="none" stroke="black" points="235.1,-392.5 235.1,-411.5 366.1,-411.5 366.1,-392.5 235.1,-392.5"/>
<text text-anchor="middle" x="300.6" y="-399.5" font-family="Helvetica,sans-Serif" font-size="10.00">abcgVulkanWindow.hpp</text>
</a>
</g>
</g>
<!-- Node1&#45;&gt;Node2 -->
<g id="edge1" class="edge">
<title>Node1&#45;&gt;Node2</title>
<path fill="none" stroke="midnightblue" d="M706.35,-452.67C614.71,-441.46 465.92,-423.24 376.25,-412.26"/>
<polygon fill="midnightblue" stroke="midnightblue" points="376.5,-408.77 366.15,-411.03 375.65,-415.71 376.5,-408.77"/>
</g>
<!-- Node9 -->
<g id="node9" class="node">
<title>Node9</title>
<g id="a_node9"><a xlink:href="abcgVulkanInstance_8hpp.html" target="_top" xlink:title="Header file of abcg::VulkanInstance.">
<polygon fill="none" stroke="black" points="713.6,-112.5 713.6,-131.5 847.6,-131.5 847.6,-112.5 713.6,-112.5"/>
<text text-anchor="middle" x="780.6" y="-119.5" font-family="Helvetica,sans-Serif" font-size="10.00">abcgVulkanInstance.hpp</text>
</a>
</g>
</g>
<!-- Node1&#45;&gt;Node9 -->
<g id="edge41" class="edge">
<title>Node1&#45;&gt;Node9</title>
<path fill="none" stroke="midnightblue" d="M866.74,-459.52C992.97,-453.99 1226.42,-440.07 1251.6,-412 1385.47,-262.8 987.03,-164.63 836.05,-133.58"/>
<polygon fill="midnightblue" stroke="midnightblue" points="836.54,-130.11 826.04,-131.55 835.14,-136.97 836.54,-130.11"/>
</g>
<!-- Node15 -->
<g id="node15" class="node">
<title>Node15</title>
<g id="a_node15"><a xlink:href="abcgWindow_8hpp.html" target="_top" xlink:title="Header file of abcg::Window.">
<polygon fill="none" stroke="black" points="443.1,-336.5 443.1,-355.5 542.1,-355.5 542.1,-336.5 443.1,-336.5"/>
<text text-anchor="middle" x="492.6" y="-343.5" font-family="Helvetica,sans-Serif" font-size="10.00">abcgWindow.hpp</text>
</a>
</g>
</g>
<!-- Node1&#45;&gt;Node15 -->
<g id="edge42" class="edge">
<title>Node1&#45;&gt;Node15</title>
<path fill="none" stroke="midnightblue" d="M706.34,-463.41C608.53,-462.6 451.69,-454.46 414.6,-412 396.42,-391.19 429.76,-371.49 458.34,-359.34"/>
<polygon fill="midnightblue" stroke="midnightblue" points="459.81,-362.52 467.76,-355.52 457.18,-356.04 459.81,-362.52"/>
</g>
<!-- Node20 -->
<g id="node20" class="node">
<title>Node20</title>
<g id="a_node20"><a xlink:title=" ">
<polygon fill="none" stroke="#bfbfbf" points="580.6,-392.5 580.6,-411.5 662.6,-411.5 662.6,-392.5 580.6,-392.5"/>
<text text-anchor="middle" x="621.6" y="-399.5" font-family="Helvetica,sans-Serif" font-size="10.00">SDL_vulkan.h</text>
</a>
</g>
</g>
<!-- Node1&#45;&gt;Node20 -->
<g id="edge25" class="edge">
<title>Node1&#45;&gt;Node20</title>
<path fill="none" stroke="midnightblue" d="M747.5,-448.4C719.44,-438.28 682.03,-424.79 655.29,-415.15"/>
<polygon fill="midnightblue" stroke="midnightblue" points="656.2,-411.76 645.61,-411.66 653.83,-418.34 656.2,-411.76"/>
</g>
<!-- Node21 -->
<g id="node21" class="node">
<title>Node21</title>
<g id="a_node21"><a xlink:title=" ">
<polygon fill="none" stroke="#bfbfbf" points="680.6,-392.5 680.6,-411.5 744.6,-411.5 744.6,-392.5 680.6,-392.5"/>
<text text-anchor="middle" x="712.6" y="-399.5" font-family="Helvetica,sans-Serif" font-size="10.00">algorithm</text>
</a>
</g>
</g>
<!-- Node1&#45;&gt;Node21 -->
<g id="edge26" class="edge">
<title>Node1&#45;&gt;Node21</title>
<path fill="none" stroke="midnightblue" d="M769.06,-448.4C757.75,-439.31 743.06,-427.49 731.49,-418.19"/>
<polygon fill="midnightblue" stroke="midnightblue" points="733.35,-415.2 723.37,-411.66 728.97,-420.65 733.35,-415.2"/>
</g>
<!-- Node22 -->
<g id="node22" class="node">
<title>Node22</title>
<g id="a_node22"><a xlink:title=" ">
<polygon fill="none" stroke="#bfbfbf" points="762.6,-392.5 762.6,-411.5 810.6,-411.5 810.6,-392.5 762.6,-392.5"/>
<text text-anchor="middle" x="786.6" y="-399.5" font-family="Helvetica,sans-Serif" font-size="10.00">gsl/gsl</text>
</a>
</g>
</g>
<!-- Node1&#45;&gt;Node22 -->
<g id="edge27" class="edge">
<title>Node1&#45;&gt;Node22</title>
<path fill="none" stroke="midnightblue" d="M786.6,-448.4C786.6,-440.47 786.6,-430.46 786.6,-421.86"/>
<polygon fill="midnightblue" stroke="midnightblue" points="790.1,-421.66 786.6,-411.66 783.1,-421.66 790.1,-421.66"/>
</g>
<!-- Node23 -->
<g id="node23" class="node">
<title>Node23</title>
<g id="a_node23"><a xlink:title=" ">
<polygon fill="none" stroke="#bfbfbf" points="828.6,-392.5 828.6,-411.5 934.6,-411.5 934.6,-392.5 828.6,-392.5"/>
<text text-anchor="middle" x="881.6" y="-399.5" font-family="Helvetica,sans-Serif" font-size="10.00">imgui_impl_sdl2.h</text>
</a>
</g>
</g>
<!-- Node1&#45;&gt;Node23 -->
<g id="edge28" class="edge">
<title>Node1&#45;&gt;Node23</title>
<path fill="none" stroke="midnightblue" d="M809.11,-448.4C824.2,-438.95 843.98,-426.56 859.07,-417.11"/>
<polygon fill="midnightblue" stroke="midnightblue" points="861.16,-419.93 867.78,-411.66 857.44,-414 861.16,-419.93"/>
</g>
<!-- Node24 -->
<g id="node24" class="node">
<title>Node24</title>
<g id="a_node24"><a xlink:title=" ">
<polygon fill="none" stroke="#bfbfbf" points="952.6,-392.5 952.6,-411.5 1070.6,-411.5 1070.6,-392.5 952.6,-392.5"/>
<text text-anchor="middle" x="1011.6" y="-399.5" font-family="Helvetica,sans-Serif" font-size="10.00">imgui_impl_vulkan.h</text>
</a>
</g>
</g>
<!-- Node1&#45;&gt;Node24 -->
<g id="edge29" class="edge">
<title>Node1&#45;&gt;Node24</title>
<path fill="none" stroke="midnightblue" d="M839.64,-448.47C879.3,-437.99 932.8,-423.84 969.54,-414.12"/>
<polygon fill="midnightblue" stroke="midnightblue" points="970.66,-417.45 979.43,-411.51 968.87,-410.68 970.66,-417.45"/>
</g>
<!-- Node25 -->
<g id="node25" class="node">
<title>Node25</title>
<g id="a_node25"><a xlink:href="abcgEmbeddedFonts_8hpp.html" target="_top" xlink:title=" ">
<polygon fill="none" stroke="black" points="423.1,-392.5 423.1,-411.5 562.1,-411.5 562.1,-392.5 423.1,-392.5"/>
<text text-anchor="middle" x="492.6" y="-399.5" font-family="Helvetica,sans-Serif" font-size="10.00">abcgEmbeddedFonts.hpp</text>
</a>
</g>
</g>
<!-- Node1&#45;&gt;Node25 -->
<g id="edge30" class="edge">
<title>Node1&#45;&gt;Node25</title>
<path fill="none" stroke="midnightblue" d="M717.3,-448.47C664.36,-437.76 592.56,-423.23 544.51,-413.51"/>
<polygon fill="midnightblue" stroke="midnightblue" points="545.13,-410.06 534.63,-411.51 543.74,-416.92 545.13,-410.06"/>
</g>
<!-- Node27 -->
<g id="node27" class="node">
<title>Node27</title>
<g id="a_node27"><a xlink:href="abcgException_8hpp.html" target="_top" xlink:title="Header file of abcg::Exception and derived classes.">
<polygon fill="none" stroke="black" points="995.1,-336.5 995.1,-355.5 1104.1,-355.5 1104.1,-336.5 995.1,-336.5"/>
<text text-anchor="middle" x="1049.6" y="-343.5" font-family="Helvetica,sans-Serif" font-size="10.00">abcgException.hpp</text>
</a>
</g>
</g>
<!-- Node1&#45;&gt;Node27 -->
<g id="edge32" class="edge">
<title>Node1&#45;&gt;Node27</title>
<path fill="none" stroke="midnightblue" d="M866.64,-459.93C943.84,-455.56 1052.83,-443.78 1079.6,-412 1091.78,-397.54 1078.89,-377.31 1066.42,-363.27"/>
<polygon fill="midnightblue" stroke="midnightblue" points="1068.75,-360.65 1059.32,-355.82 1063.68,-365.47 1068.75,-360.65"/>
</g>
<!-- Node30 -->
<g id="node30" class="node">
<title>Node30</title>
<g id="a_node30"><a xlink:href="abcgVulkanError_8hpp.html" target="_top" xlink:title="Header file of abcg::VulkanError and derived classes.">
<polygon fill="none" stroke="black" points="1126.6,-392.5 1126.6,-411.5 1242.6,-411.5 1242.6,-392.5 1126.6,-392.5"/>
<text text-anchor="middle" x="1184.6" y="-399.5" font-family="Helvetica,sans-Serif" font-size="10.00">abcgVulkanError.hpp</text>
</a>
</g>
</g>
<!-- Node1&#45;&gt;Node30 -->
<g id="edge36" class="edge">
<title>Node1&#45;&gt;Node30</title>
<path fill="none" stroke="midnightblue" d="M866.66,-450.53C940.33,-439.52 1048.35,-423.37 1117.57,-413.02"/>
<polygon fill="midnightblue" stroke="midnightblue" points="1118.12,-416.48 1127.5,-411.54 1117.09,-409.55 1118.12,-416.48"/>
</g>
<!-- Node3 -->
<g id="node3" class="node">
<title>Node3</title>
<g id="a_node3"><a xlink:href="abcgVulkanDevice_8hpp.html" target="_top" xlink:title="Header file of abcg::VulkanDevice.">
<polygon fill="none" stroke="black" points="120.1,-224.5 120.1,-243.5 247.1,-243.5 247.1,-224.5 120.1,-224.5"/>
<text text-anchor="middle" x="183.6" y="-231.5" font-family="Helvetica,sans-Serif" font-size="10.00">abcgVulkanDevice.hpp</text>
</a>
</g>
</g>
<!-- Node2&#45;&gt;Node3 -->
<g id="edge2" class="edge">
<title>Node2&#45;&gt;Node3</title>
<path fill="none" stroke="midnightblue" d="M301.71,-392.33C303.98,-370.88 306.89,-314.58 280.6,-280 268.65,-264.29 249.9,-253.87 232.05,-247.05"/>
<polygon fill="midnightblue" stroke="midnightblue" points="232.88,-243.63 222.28,-243.62 230.56,-250.24 232.88,-243.63"/>
</g>
<!-- Node4 -->
<g id="node4" class="node">
<title>Node4</title>
<g id="a_node4"><a xlink:href="abcgVulkanPhysicalDevice_8hpp.html" target="_top" xlink:title="Header file of abcg::VulkanPhysicalDevice.">
<polygon fill="none" stroke="black" points="219.1,-168.5 219.1,-187.5 386.1,-187.5 386.1,-168.5 219.1,-168.5"/>
<text text-anchor="middle" x="302.6" y="-175.5" font-family="Helvetica,sans-Serif" font-size="10.00">abcgVulkanPhysicalDevice.hpp</text>
</a>
</g>
</g>
<!-- Node2&#45;&gt;Node4 -->
<g id="edge12" class="edge">
<title>Node2&#45;&gt;Node4</title>
<path fill="none" stroke="midnightblue" d="M304.71,-392.28C308.66,-383.38 314.34,-369.07 316.6,-356 326.49,-298.67 314.18,-229.66 307.04,-197.36"/>
<polygon fill="midnightblue" stroke="midnightblue" points="310.43,-196.5 304.77,-187.54 303.61,-198.07 310.43,-196.5"/>
</g>
<!-- Node2&#45;&gt;Node9 -->
<g id="edge11" class="edge">
<title>Node2&#45;&gt;Node9</title>
<path fill="none" stroke="midnightblue" d="M320.8,-392.49C353.3,-377.29 413.6,-342.2 413.6,-291 413.6,-291 413.6,-291 413.6,-233 413.6,-173.07 595.42,-143.01 703.1,-130.46"/>
<polygon fill="midnightblue" stroke="midnightblue" points="703.75,-133.91 713.29,-129.3 702.95,-126.96 703.75,-133.91"/>
</g>
<!-- Node11 -->
<g id="node11" class="node">
<title>Node11</title>
<g id="a_node11"><a xlink:href="abcgVulkanSwapchain_8hpp.html" target="_top" xlink:title="Header file of abcg::VulkanSwapchain.">
<polygon fill="none" stroke="black" points="93.6,-336.5 93.6,-355.5 239.6,-355.5 239.6,-336.5 93.6,-336.5"/>
<text text-anchor="middle" x="166.6" y="-343.5" font-family="Helvetica,sans-Serif" font-size="10.00">abcgVulkanSwapchain.hpp</text>
</a>
</g>
</g>
<!-- Node2&#45;&gt;Node11 -->
<g id="edge13" class="edge">
<title>Node2&#45;&gt;Node11</title>
<path fill="none" stroke="midnightblue" d="M279.37,-392.44C257.22,-383.52 222.28,-369.44 197.16,-359.32"/>
<polygon fill="midnightblue" stroke="midnightblue" points="198.32,-356.01 187.73,-355.52 195.7,-362.5 198.32,-356.01"/>
</g>
<!-- Node2&#45;&gt;Node15 -->
<g id="edge20" class="edge">
<title>Node2&#45;&gt;Node15</title>
<path fill="none" stroke="midnightblue" d="M331.02,-392.44C363.88,-383.2 416.38,-368.44 452.57,-358.26"/>
<polygon fill="midnightblue" stroke="midnightblue" points="453.64,-361.59 462.32,-355.52 451.74,-354.85 453.64,-361.59"/>
</g>
<!-- Node3&#45;&gt;Node4 -->
<g id="edge3" class="edge">
<title>Node3&#45;&gt;Node4</title>
<path fill="none" stroke="midnightblue" d="M202.45,-224.44C221.86,-215.64 252.33,-201.81 274.56,-191.72"/>
<polygon fill="midnightblue" stroke="midnightblue" points="276.17,-194.84 283.83,-187.52 273.28,-188.46 276.17,-194.84"/>
</g>
<!-- Node10 -->
<g id="node10" class="node">
<title>Node10</title>
<g id="a_node10"><a xlink:title=" ">
<polygon fill="none" stroke="#bfbfbf" points="53.1,-168.5 53.1,-187.5 118.1,-187.5 118.1,-168.5 53.1,-168.5"/>
<text text-anchor="middle" x="85.6" y="-175.5" font-family="Helvetica,sans-Serif" font-size="10.00">functional</text>
</a>
</g>
</g>
<!-- Node3&#45;&gt;Node10 -->
<g id="edge10" class="edge">
<title>Node3&#45;&gt;Node10</title>
<path fill="none" stroke="midnightblue" d="M167.85,-224.32C152.28,-215.74 128.22,-202.49 110.14,-192.52"/>
<polygon fill="midnightblue" stroke="midnightblue" points="111.75,-189.42 101.31,-187.65 108.37,-195.55 111.75,-189.42"/>
</g>
<!-- Node5 -->
<g id="node5" class="node">
<title>Node5</title>
<g id="a_node5"><a xlink:title=" ">
<polygon fill="none" stroke="#bfbfbf" points="330.6,-112.5 330.6,-131.5 386.6,-131.5 386.6,-112.5 330.6,-112.5"/>
<text text-anchor="middle" x="358.6" y="-119.5" font-family="Helvetica,sans-Serif" font-size="10.00">optional</text>
</a>
</g>
</g>
<!-- Node4&#45;&gt;Node5 -->
<g id="edge4" class="edge">
<title>Node4&#45;&gt;Node5</title>
<path fill="none" stroke="midnightblue" d="M311.6,-168.32C319.79,-160.42 332.1,-148.55 342.07,-138.94"/>
<polygon fill="midnightblue" stroke="midnightblue" points="344.67,-141.29 349.44,-131.83 339.81,-136.26 344.67,-141.29"/>
</g>
<!-- Node6 -->
<g id="node6" class="node">
<title>Node6</title>
<g id="a_node6"><a xlink:href="abcgVulkanExternal_8hpp.html" target="_top" xlink:title="Header file for including Vulkan&#45;related dependencies.">
<polygon fill="none" stroke="black" points="861.6,-56.5 861.6,-75.5 995.6,-75.5 995.6,-56.5 861.6,-56.5"/>
<text text-anchor="middle" x="928.6" y="-63.5" font-family="Helvetica,sans-Serif" font-size="10.00">abcgVulkanExternal.hpp</text>
</a>
</g>
</g>
<!-- Node4&#45;&gt;Node6 -->
<g id="edge5" class="edge">
<title>Node4&#45;&gt;Node6</title>
<path fill="none" stroke="midnightblue" d="M302.27,-168.16C302.27,-153.83 304.6,-125.75 321.6,-112 361.88,-79.41 696.69,-70.35 851.11,-67.89"/>
<polygon fill="midnightblue" stroke="midnightblue" points="851.52,-71.38 861.47,-67.73 851.41,-64.38 851.52,-71.38"/>
</g>
<!-- Node4&#45;&gt;Node9 -->
<g id="edge8" class="edge">
<title>Node4&#45;&gt;Node9</title>
<path fill="none" stroke="midnightblue" d="M378.08,-168.47C466.86,-158.44 613.5,-141.88 703.14,-131.75"/>
<polygon fill="midnightblue" stroke="midnightblue" points="703.7,-135.21 713.24,-130.61 702.91,-128.25 703.7,-135.21"/>
</g>
<!-- Node7 -->
<g id="node7" class="node">
<title>Node7</title>
<g id="a_node7"><a xlink:title=" ">
<polygon fill="none" stroke="#bfbfbf" points="943.1,-0.5 943.1,-19.5 990.1,-19.5 990.1,-0.5 943.1,-0.5"/>
<text text-anchor="middle" x="966.6" y="-7.5" font-family="Helvetica,sans-Serif" font-size="10.00">volk.h</text>
</a>
</g>
</g>
<!-- Node6&#45;&gt;Node7 -->
<g id="edge6" class="edge">
<title>Node6&#45;&gt;Node7</title>
<path fill="none" stroke="midnightblue" d="M934.87,-56.08C940.24,-48.46 948.12,-37.26 954.68,-27.94"/>
<polygon fill="midnightblue" stroke="midnightblue" points="957.55,-29.94 960.44,-19.75 951.82,-25.91 957.55,-29.94"/>
</g>
<!-- Node8 -->
<g id="node8" class="node">
<title>Node8</title>
<g id="a_node8"><a xlink:title=" ">
<polygon fill="none" stroke="#bfbfbf" points="1027.1,-0.5 1027.1,-19.5 1132.1,-19.5 1132.1,-0.5 1027.1,-0.5"/>
<text text-anchor="middle" x="1079.6" y="-7.5" font-family="Helvetica,sans-Serif" font-size="10.00">vulkan/vulkan.hpp</text>
</a>
</g>
</g>
<!-- Node6&#45;&gt;Node8 -->
<g id="edge7" class="edge">
<title>Node6&#45;&gt;Node8</title>
<path fill="none" stroke="midnightblue" d="M952.53,-56.44C977.82,-47.4 1017.9,-33.06 1046.28,-22.92"/>
<polygon fill="midnightblue" stroke="midnightblue" points="1047.55,-26.18 1055.78,-19.52 1045.19,-19.59 1047.55,-26.18"/>
</g>
<!-- Node9&#45;&gt;Node6 -->
<g id="edge9" class="edge">
<title>Node9&#45;&gt;Node6</title>
<path fill="none" stroke="midnightblue" d="M804.05,-112.44C828.73,-103.44 867.78,-89.19 895.58,-79.05"/>
<polygon fill="midnightblue" stroke="midnightblue" points="897.06,-82.23 905.26,-75.52 894.66,-75.66 897.06,-82.23"/>
</g>
<!-- Node11&#45;&gt;Node3 -->
<g id="edge16" class="edge">
<title>Node11&#45;&gt;Node3</title>
<path fill="none" stroke="midnightblue" d="M167.93,-336.37C170.68,-318.62 177.01,-277.67 180.72,-253.6"/>
<polygon fill="midnightblue" stroke="midnightblue" points="184.2,-254.01 182.27,-243.59 177.28,-252.94 184.2,-254.01"/>
</g>
<!-- Node11&#45;&gt;Node10 -->
<g id="edge14" class="edge">
<title>Node11&#45;&gt;Node10</title>
<path fill="none" stroke="midnightblue" d="M109.64,-336.49C68.63,-329.06 18.36,-316.82 5.6,-300 -6.32,-284.29 3.68,-245.63 18.6,-224 27.97,-210.41 42.91,-199.8 56.3,-192.3"/>
<polygon fill="midnightblue" stroke="midnightblue" points="58.01,-195.36 65.24,-187.61 54.76,-189.16 58.01,-195.36"/>
</g>
<!-- Node12 -->
<g id="node12" class="node">
<title>Node12</title>
<g id="a_node12"><a xlink:title=" ">
<polygon fill="none" stroke="#bfbfbf" points="195.1,-280.5 195.1,-299.5 272.1,-299.5 272.1,-280.5 195.1,-280.5"/>
<text text-anchor="middle" x="233.6" y="-287.5" font-family="Helvetica,sans-Serif" font-size="10.00">glm/fwd.hpp</text>
</a>
</g>
</g>
<!-- Node11&#45;&gt;Node12 -->
<g id="edge15" class="edge">
<title>Node11&#45;&gt;Node12</title>
<path fill="none" stroke="midnightblue" d="M177.36,-336.32C187.37,-328.26 202.49,-316.08 214.53,-306.37"/>
<polygon fill="midnightblue" stroke="midnightblue" points="217.05,-308.83 222.64,-299.83 212.66,-303.38 217.05,-308.83"/>
</g>
<!-- Node13 -->
<g id="node13" class="node">
<title>Node13</title>
<g id="a_node13"><a xlink:href="abcgVulkanImage_8hpp.html" target="_top" xlink:title="Header file of abcg::VulkanImage.">
<polygon fill="none" stroke="black" points="14.6,-280.5 14.6,-299.5 138.6,-299.5 138.6,-280.5 14.6,-280.5"/>
<text text-anchor="middle" x="76.6" y="-287.5" font-family="Helvetica,sans-Serif" font-size="10.00">abcgVulkanImage.hpp</text>
</a>
</g>
</g>
<!-- Node11&#45;&gt;Node13 -->
<g id="edge17" class="edge">
<title>Node11&#45;&gt;Node13</title>
<path fill="none" stroke="midnightblue" d="M152.14,-336.32C138.1,-327.9 116.55,-314.97 100.06,-305.07"/>
<polygon fill="midnightblue" stroke="midnightblue" points="101.4,-301.8 91.02,-299.65 97.8,-307.8 101.4,-301.8"/>
</g>
<!-- Node13&#45;&gt;Node3 -->
<g id="edge18" class="edge">
<title>Node13&#45;&gt;Node3</title>
<path fill="none" stroke="midnightblue" d="M93.79,-280.32C110.95,-271.66 137.54,-258.24 157.35,-248.25"/>
<polygon fill="midnightblue" stroke="midnightblue" points="159.1,-251.28 166.45,-243.65 155.95,-245.04 159.1,-251.28"/>
</g>
<!-- Node14 -->
<g id="node14" class="node">
<title>Node14</title>
<g id="a_node14"><a xlink:title=" ">
<polygon fill="none" stroke="#bfbfbf" points="27.6,-224.5 27.6,-243.5 101.6,-243.5 101.6,-224.5 27.6,-224.5"/>
<text text-anchor="middle" x="64.6" y="-231.5" font-family="Helvetica,sans-Serif" font-size="10.00">gsl/pointers</text>
</a>
</g>
</g>
<!-- Node13&#45;&gt;Node14 -->
<g id="edge19" class="edge">
<title>Node13&#45;&gt;Node14</title>
<path fill="none" stroke="midnightblue" d="M74.62,-280.08C73.03,-272.93 70.74,-262.64 68.75,-253.69"/>
<polygon fill="midnightblue" stroke="midnightblue" points="72.13,-252.75 66.54,-243.75 65.3,-254.27 72.13,-252.75"/>
</g>
<!-- Node16 -->
<g id="node16" class="node">
<title>Node16</title>
<g id="a_node16"><a xlink:title=" ">
<polygon fill="none" stroke="#bfbfbf" points="792.6,-280.5 792.6,-299.5 836.6,-299.5 836.6,-280.5 792.6,-280.5"/>
<text text-anchor="middle" x="814.6" y="-287.5" font-family="Helvetica,sans-Serif" font-size="10.00">string</text>
</a>
</g>
</g>
<!-- Node15&#45;&gt;Node16 -->
<g id="edge21" class="edge">
<title>Node15&#45;&gt;Node16</title>
<path fill="none" stroke="midnightblue" d="M542.21,-336.68C609,-325.48 725.95,-305.87 782.36,-296.41"/>
<polygon fill="midnightblue" stroke="midnightblue" points="783.2,-299.81 792.49,-294.71 782.04,-292.91 783.2,-299.81"/>
</g>
<!-- Node17 -->
<g id="node17" class="node">
<title>Node17</title>
<g id="a_node17"><a xlink:href="abcgExternal_8hpp.html" target="_top" xlink:title="Header file for including third&#45;party dependencies.">
<polygon fill="none" stroke="black" points="442.1,-280.5 442.1,-299.5 543.1,-299.5 543.1,-280.5 442.1,-280.5"/>
<text text-anchor="middle" x="492.6" y="-287.5" font-family="Helvetica,sans-Serif" font-size="10.00">abcgExternal.hpp</text>
</a>
</g>
</g>
<!-- Node15&#45;&gt;Node17 -->
<g id="edge22" class="edge">
<title>Node15&#45;&gt;Node17</title>
<path fill="none" stroke="midnightblue" d="M492.6,-336.08C492.6,-329.01 492.6,-318.86 492.6,-309.99"/>
<polygon fill="midnightblue" stroke="midnightblue" points="496.1,-309.75 492.6,-299.75 489.1,-309.75 496.1,-309.75"/>
</g>
<!-- Node18 -->
<g id="node18" class="node">
<title>Node18</title>
<g id="a_node18"><a xlink:href="abcgTimer_8hpp.html" target="_top" xlink:title="Header file of abcg::Timer.">
<polygon fill="none" stroke="black" points="561.1,-280.5 561.1,-299.5 650.1,-299.5 650.1,-280.5 561.1,-280.5"/>
<text text-anchor="middle" x="605.6" y="-287.5" font-family="Helvetica,sans-Serif" font-size="10.00">abcgTimer.hpp</text>
</a>
</g>
</g>
<!-- Node15&#45;&gt;Node18 -->
<g id="edge23" class="edge">
<title>Node15&#45;&gt;Node18</title>
<path fill="none" stroke="midnightblue" d="M510.5,-336.44C528.85,-327.68 557.6,-313.94 578.69,-303.86"/>
<polygon fill="midnightblue" stroke="midnightblue" points="580.26,-306.99 587.78,-299.52 577.25,-300.67 580.26,-306.99"/>
</g>
<!-- Node19 -->
<g id="node19" class="node">
<title>Node19</title>
<g id="a_node19"><a xlink:title=" ">
<polygon fill="none" stroke="#bfbfbf" points="580.6,-224.5 580.6,-243.5 630.6,-243.5 630.6,-224.5 580.6,-224.5"/>
<text text-anchor="middle" x="605.6" y="-231.5" font-family="Helvetica,sans-Serif" font-size="10.00">chrono</text>
</a>
</g>
</g>
<!-- Node18&#45;&gt;Node19 -->
<g id="edge24" class="edge">
<title>Node18&#45;&gt;Node19</title>
<path fill="none" stroke="midnightblue" d="M605.6,-280.08C605.6,-273.01 605.6,-262.86 605.6,-253.99"/>
<polygon fill="midnightblue" stroke="midnightblue" points="609.1,-253.75 605.6,-243.75 602.1,-253.75 609.1,-253.75"/>
</g>
<!-- Node26 -->
<g id="node26" class="node">
<title>Node26</title>
<g id="a_node26"><a xlink:title=" ">
<polygon fill="none" stroke="#bfbfbf" points="560.6,-336.5 560.6,-355.5 602.6,-355.5 602.6,-336.5 560.6,-336.5"/>
<text text-anchor="middle" x="581.6" y="-343.5" font-family="Helvetica,sans-Serif" font-size="10.00">array</text>
</a>
</g>
</g>
<!-- Node25&#45;&gt;Node26 -->
<g id="edge31" class="edge">
<title>Node25&#45;&gt;Node26</title>
<path fill="none" stroke="midnightblue" d="M506.9,-392.32C520.78,-383.9 542.09,-370.97 558.4,-361.07"/>
<polygon fill="midnightblue" stroke="midnightblue" points="560.6,-363.83 567.33,-355.65 556.97,-357.85 560.6,-363.83"/>
</g>
<!-- Node27&#45;&gt;Node16 -->
<g id="edge35" class="edge">
<title>Node27&#45;&gt;Node16</title>
<path fill="none" stroke="midnightblue" d="M1012.36,-336.44C966.69,-325.95 890.02,-308.33 846.79,-298.4"/>
<polygon fill="midnightblue" stroke="midnightblue" points="847.34,-294.93 836.81,-296.1 845.77,-301.75 847.34,-294.93"/>
</g>
<!-- Node28 -->
<g id="node28" class="node">
<title>Node28</title>
<g id="a_node28"><a xlink:title=" ">
<polygon fill="none" stroke="#bfbfbf" points="1049.1,-280.5 1049.1,-299.5 1142.1,-299.5 1142.1,-280.5 1049.1,-280.5"/>
<text text-anchor="middle" x="1095.6" y="-287.5" font-family="Helvetica,sans-Serif" font-size="10.00">source_location</text>
</a>
</g>
</g>
<!-- Node27&#45;&gt;Node28 -->
<g id="edge33" class="edge">
<title>Node27&#45;&gt;Node28</title>
<path fill="none" stroke="midnightblue" d="M1057.19,-336.08C1063.83,-328.3 1073.62,-316.8 1081.66,-307.37"/>
<polygon fill="midnightblue" stroke="midnightblue" points="1084.32,-309.63 1088.14,-299.75 1079,-305.09 1084.32,-309.63"/>
</g>
<!-- Node29 -->
<g id="node29" class="node">
<title>Node29</title>
<g id="a_node29"><a xlink:title=" ">
<polygon fill="none" stroke="#bfbfbf" points="966.1,-280.5 966.1,-299.5 1031.1,-299.5 1031.1,-280.5 966.1,-280.5"/>
<text text-anchor="middle" x="998.6" y="-287.5" font-family="Helvetica,sans-Serif" font-size="10.00">stdexcept</text>
</a>
</g>
</g>
<!-- Node27&#45;&gt;Node29 -->
<g id="edge34" class="edge">
<title>Node27&#45;&gt;Node29</title>
<path fill="none" stroke="midnightblue" d="M1041.18,-336.08C1033.75,-328.22 1022.75,-316.57 1013.79,-307.08"/>
<polygon fill="midnightblue" stroke="midnightblue" points="1016.27,-304.62 1006.86,-299.75 1011.19,-309.42 1016.27,-304.62"/>
</g>
<!-- Node30&#45;&gt;Node7 -->
<g id="edge38" class="edge">
<title>Node30&#45;&gt;Node7</title>
<path fill="none" stroke="midnightblue" d="M1182.77,-392.49C1178.97,-374.07 1170.6,-329.12 1170.6,-291 1170.6,-291 1170.6,-291 1170.6,-121 1170.6,-82.76 1058.12,-40.66 1000.21,-21.52"/>
<polygon fill="midnightblue" stroke="midnightblue" points="1000.99,-18.09 990.4,-18.32 998.82,-24.75 1000.99,-18.09"/>
</g>
<!-- Node30&#45;&gt;Node8 -->
<g id="edge39" class="edge">
<title>Node30&#45;&gt;Node8</title>
<path fill="none" stroke="midnightblue" d="M1190.32,-392.43C1205.67,-368.58 1246.6,-298.99 1246.6,-235 1246.6,-235 1246.6,-235 1246.6,-121 1246.6,-65.3 1181,-36.21 1132.03,-22.25"/>
<polygon fill="midnightblue" stroke="midnightblue" points="1132.74,-18.82 1122.17,-19.58 1130.91,-25.58 1132.74,-18.82"/>
</g>
<!-- Node30&#45;&gt;Node27 -->
<g id="edge40" class="edge">
<title>Node30&#45;&gt;Node27</title>
<path fill="none" stroke="midnightblue" d="M1163.21,-392.44C1140.89,-383.52 1105.7,-369.44 1080.39,-359.32"/>
<polygon fill="midnightblue" stroke="midnightblue" points="1081.47,-355.98 1070.89,-355.52 1078.87,-362.48 1081.47,-355.98"/>
</g>
<!-- Node30&#45;&gt;Node28 -->
<g id="edge37" class="edge">
<title>Node30&#45;&gt;Node28</title>
<path fill="none" stroke="midnightblue" d="M1177.62,-392.37C1162.86,-374.14 1128.31,-331.43 1109.09,-307.68"/>
<polygon fill="midnightblue" stroke="midnightblue" points="1111.56,-305.16 1102.55,-299.59 1106.12,-309.57 1111.56,-305.16"/>
</g>
</g>
</svg>
