<?xml version="1.0" encoding="UTF-8" standalone="no"?>
<!DOCTYPE svg PUBLIC "-//W3C//DTD SVG 1.1//EN"
 "http://www.w3.org/Graphics/SVG/1.1/DTD/svg11.dtd">
<!-- Generated by graphviz version 2.43.0 (0)
 -->
<!-- Title: /home/harlen/dev/abcg/abcg/abcgOpenGL.hpp Pages: 1 -->
<svg width="1247pt" height="258pt"
 viewBox="0.00 0.00 1247.00 258.00" xmlns="http://www.w3.org/2000/svg" xmlns:xlink="http://www.w3.org/1999/xlink">
<g id="graph0" class="graph" transform="scale(1 1) rotate(0) translate(4 254)">
<title>/home/harlen/dev/abcg/abcg/abcgOpenGL.hpp</title>
<!-- Node1 -->
<g id="Node000001" class="node">
<title>Node1</title>
<g id="a_Node000001"><a xlink:title="Header file for OpenGL&#45;related functions and classes.">
<polygon fill="#999999" stroke="#666666" points="696,-250 568,-250 568,-220 696,-220 696,-250"/>
<text text-anchor="start" x="576" y="-238" font-family="Helvetica,sans-Serif" font-size="10.00">/home/harlen/dev/abcg</text>
<text text-anchor="middle" x="632" y="-227" font-family="Helvetica,sans-Serif" font-size="10.00">/abcg/abcgOpenGL.hpp</text>
</a>
</g>
</g>
<!-- Node2 -->
<g id="Node000002" class="node">
<title>Node2</title>
<g id="a_Node000002"><a xlink:href="abcg_8hpp.html" target="_top" xlink:title="Shortcut header that includes the most common ABCg headers.">
<polygon fill="white" stroke="#666666" points="385.5,-184 324.5,-184 324.5,-165 385.5,-165 385.5,-184"/>
<text text-anchor="middle" x="355" y="-172" font-family="Helvetica,sans-Serif" font-size="10.00">abcg.hpp</text>
</a>
</g>
</g>
<!-- Node1&#45;&gt;Node2 -->
<g id="edge1_Node000001_Node000002" class="edge">
<title>Node1&#45;&gt;Node2</title>
<g id="a_edge1_Node000001_Node000002"><a xlink:title=" ">
<path fill="none" stroke="#63b8ff" d="M567.75,-220.43C514.67,-209.22 440.93,-193.65 395.67,-184.09"/>
<polygon fill="#63b8ff" stroke="#63b8ff" points="396.14,-180.61 385.64,-181.97 394.7,-187.46 396.14,-180.61"/>
</a>
</g>
</g>
<!-- Node15 -->
<g id="Node000015" class="node">
<title>Node15</title>
<g id="a_Node000015"><a xlink:href="abcgOpenGLImage_8hpp.html" target="_top" xlink:title="Declaration of OpenGL texture loading helper functions.">
<polygon fill="white" stroke="#666666" points="1216,-129 1086,-129 1086,-110 1216,-110 1216,-129"/>
<text text-anchor="middle" x="1151" y="-117" font-family="Helvetica,sans-Serif" font-size="10.00">abcgOpenGLImage.hpp</text>
</a>
</g>
</g>
<!-- Node1&#45;&gt;Node15 -->
<g id="edge20_Node000001_Node000015" class="edge">
<title>Node1&#45;&gt;Node15</title>
<g id="a_edge20_Node000001_Node000015"><a xlink:title=" ">
<path fill="none" stroke="#63b8ff" d="M696.11,-225.04C755.72,-216.24 846.84,-201.6 925,-184 992.5,-168.8 1069.87,-145.83 1114.33,-132.09"/>
<polygon fill="#63b8ff" stroke="#63b8ff" points="1115.59,-135.36 1124.1,-129.05 1113.51,-128.67 1115.59,-135.36"/>
</a>
</g>
</g>
<!-- Node19 -->
<g id="Node000019" class="node">
<title>Node19</title>
<g id="a_Node000019"><a xlink:href="abcgOpenGLShader_8hpp.html" target="_top" xlink:title="Declaration of helper functions for building OpenGL shaders.">
<polygon fill="white" stroke="#666666" points="916,-184 784,-184 784,-165 916,-165 916,-184"/>
<text text-anchor="middle" x="850" y="-172" font-family="Helvetica,sans-Serif" font-size="10.00">abcgOpenGLShader.hpp</text>
</a>
</g>
</g>
<!-- Node1&#45;&gt;Node19 -->
<g id="edge24_Node000001_Node000019" class="edge">
<title>Node1&#45;&gt;Node19</title>
<g id="a_edge24_Node000001_Node000019"><a xlink:title=" ">
<path fill="none" stroke="#63b8ff" d="M684.22,-219.99C722.16,-209.8 772.85,-196.2 808.15,-186.73"/>
<polygon fill="#63b8ff" stroke="#63b8ff" points="809.37,-190.03 818.12,-184.05 807.56,-183.27 809.37,-190.03"/>
</a>
</g>
</g>
<!-- Node23 -->
<g id="Node000023" class="node">
<title>Node23</title>
<g id="a_Node000023"><a xlink:href="abcgOpenGLWindow_8hpp.html" target="_top" xlink:title="Header file of abcg::OpenGLWindow.">
<polygon fill="white" stroke="#666666" points="624.5,-184 487.5,-184 487.5,-165 624.5,-165 624.5,-184"/>
<text text-anchor="middle" x="556" y="-172" font-family="Helvetica,sans-Serif" font-size="10.00">abcgOpenGLWindow.hpp</text>
</a>
</g>
</g>
<!-- Node1&#45;&gt;Node23 -->
<g id="edge30_Node000001_Node000023" class="edge">
<title>Node1&#45;&gt;Node23</title>
<g id="a_edge30_Node000001_Node000023"><a xlink:title=" ">
<path fill="none" stroke="#63b8ff" d="M613.6,-219.84C602.12,-211 587.35,-199.63 575.64,-190.62"/>
<polygon fill="#63b8ff" stroke="#63b8ff" points="577.45,-187.59 567.39,-184.27 573.18,-193.14 577.45,-187.59"/>
</a>
</g>
</g>
<!-- Node3 -->
<g id="Node000003" class="node">
<title>Node3</title>
<g id="a_Node000003"><a xlink:href="abcgApplication_8hpp.html" target="_top" xlink:title="Header file of abcg::Application.">
<polygon fill="white" stroke="#666666" points="528,-129 412,-129 412,-110 528,-110 528,-129"/>
<text text-anchor="middle" x="470" y="-117" font-family="Helvetica,sans-Serif" font-size="10.00">abcgApplication.hpp</text>
</a>
</g>
</g>
<!-- Node2&#45;&gt;Node3 -->
<g id="edge2_Node000002_Node000003" class="edge">
<title>Node2&#45;&gt;Node3</title>
<g id="a_edge2_Node000002_Node000003"><a xlink:title=" ">
<path fill="none" stroke="#63b8ff" d="M373.48,-164.98C391.98,-156.46 420.68,-143.23 441.98,-133.41"/>
<polygon fill="#63b8ff" stroke="#63b8ff" points="443.57,-136.53 451.19,-129.17 440.64,-130.18 443.57,-136.53"/>
</a>
</g>
</g>
<!-- Node5 -->
<g id="Node000005" class="node">
<title>Node5</title>
<g id="a_Node000005"><a xlink:href="abcgException_8hpp.html" target="_top" xlink:title="Header file of abcg::Exception and derived classes.">
<polygon fill="white" stroke="#666666" points="805.5,-129 696.5,-129 696.5,-110 805.5,-110 805.5,-129"/>
<text text-anchor="middle" x="751" y="-117" font-family="Helvetica,sans-Serif" font-size="10.00">abcgException.hpp</text>
</a>
</g>
</g>
<!-- Node2&#45;&gt;Node5 -->
<g id="edge4_Node000002_Node000005" class="edge">
<title>Node2&#45;&gt;Node5</title>
<g id="a_edge4_Node000002_Node000005"><a xlink:title=" ">
<path fill="none" stroke="#63b8ff" d="M385.74,-169.39C450.07,-160.78 600.04,-140.7 686.48,-129.13"/>
<polygon fill="#63b8ff" stroke="#63b8ff" points="687,-132.6 696.44,-127.8 686.07,-125.66 687,-132.6"/>
</a>
</g>
</g>
<!-- Node8 -->
<g id="Node000008" class="node">
<title>Node8</title>
<g id="a_Node000008"><a xlink:href="abcgExternal_8hpp.html" target="_top" xlink:title="Header file for including third&#45;party dependencies.">
<polygon fill="white" stroke="#666666" points="249.5,-74 148.5,-74 148.5,-55 249.5,-55 249.5,-74"/>
<text text-anchor="middle" x="199" y="-62" font-family="Helvetica,sans-Serif" font-size="10.00">abcgExternal.hpp</text>
</a>
</g>
</g>
<!-- Node2&#45;&gt;Node8 -->
<g id="edge8_Node000002_Node000008" class="edge">
<title>Node2&#45;&gt;Node8</title>
<g id="a_edge8_Node000002_Node000008"><a xlink:title=" ">
<path fill="none" stroke="#63b8ff" d="M324.4,-171.4C272.91,-167.16 172.43,-155.61 151,-129 137.67,-112.44 157.69,-92.86 175.79,-79.86"/>
<polygon fill="#63b8ff" stroke="#63b8ff" points="178.06,-82.55 184.37,-74.05 174.13,-76.76 178.06,-82.55"/>
</a>
</g>
</g>
<!-- Node9 -->
<g id="Node000009" class="node">
<title>Node9</title>
<g id="a_Node000009"><a xlink:href="abcgTrackball_8hpp.html" target="_top" xlink:title="Header file of abcg::TrackBall.">
<polygon fill="white" stroke="#666666" points="104,-129 0,-129 0,-110 104,-110 104,-129"/>
<text text-anchor="middle" x="52" y="-117" font-family="Helvetica,sans-Serif" font-size="10.00">abcgTrackball.hpp</text>
</a>
</g>
</g>
<!-- Node2&#45;&gt;Node9 -->
<g id="edge9_Node000002_Node000009" class="edge">
<title>Node2&#45;&gt;Node9</title>
<g id="a_edge9_Node000002_Node000009"><a xlink:title=" ">
<path fill="none" stroke="#63b8ff" d="M324.28,-168.13C274.3,-159.38 174.54,-141.93 110.64,-130.76"/>
<polygon fill="#63b8ff" stroke="#63b8ff" points="111.16,-127.3 100.71,-129.02 109.96,-134.19 111.16,-127.3"/>
</a>
</g>
</g>
<!-- Node12 -->
<g id="Node000012" class="node">
<title>Node12</title>
<g id="a_Node000012"><a xlink:href="abcgUtil_8hpp.html" target="_top" xlink:title="Declaration of general utility functions.">
<polygon fill="white" stroke="#666666" points="394,-129 316,-129 316,-110 394,-110 394,-129"/>
<text text-anchor="middle" x="355" y="-117" font-family="Helvetica,sans-Serif" font-size="10.00">abcgUtil.hpp</text>
</a>
</g>
</g>
<!-- Node2&#45;&gt;Node12 -->
<g id="edge13_Node000002_Node000012" class="edge">
<title>Node2&#45;&gt;Node12</title>
<g id="a_edge13_Node000002_Node000012"><a xlink:title=" ">
<path fill="none" stroke="#63b8ff" d="M355,-164.75C355,-157.8 355,-147.85 355,-139.13"/>
<polygon fill="#63b8ff" stroke="#63b8ff" points="358.5,-139.09 355,-129.09 351.5,-139.09 358.5,-139.09"/>
</a>
</g>
</g>
<!-- Node14 -->
<g id="Node000014" class="node">
<title>Node14</title>
<g id="a_Node000014"><a xlink:href="abcgWindow_8hpp.html" target="_top" xlink:title="Header file of abcg::Window.">
<polygon fill="white" stroke="#666666" points="259.5,-129 160.5,-129 160.5,-110 259.5,-110 259.5,-129"/>
<text text-anchor="middle" x="210" y="-117" font-family="Helvetica,sans-Serif" font-size="10.00">abcgWindow.hpp</text>
</a>
</g>
</g>
<!-- Node2&#45;&gt;Node14 -->
<g id="edge16_Node000002_Node000014" class="edge">
<title>Node2&#45;&gt;Node14</title>
<g id="a_edge16_Node000002_Node000014"><a xlink:title=" ">
<path fill="none" stroke="#63b8ff" d="M331.7,-164.98C307.75,-156.23 270.22,-142.51 243.17,-132.62"/>
<polygon fill="#63b8ff" stroke="#63b8ff" points="244.31,-129.32 233.72,-129.17 241.91,-135.89 244.31,-129.32"/>
</a>
</g>
</g>
<!-- Node4 -->
<g id="Node000004" class="node">
<title>Node4</title>
<g id="a_Node000004"><a xlink:title=" ">
<polygon fill="#e0e0e0" stroke="#999999" points="532,-74 488,-74 488,-55 532,-55 532,-74"/>
<text text-anchor="middle" x="510" y="-62" font-family="Helvetica,sans-Serif" font-size="10.00">string</text>
</a>
</g>
</g>
<!-- Node3&#45;&gt;Node4 -->
<g id="edge3_Node000003_Node000004" class="edge">
<title>Node3&#45;&gt;Node4</title>
<g id="a_edge3_Node000003_Node000004"><a xlink:title=" ">
<path fill="none" stroke="#63b8ff" d="M476.61,-109.75C482.26,-102.26 490.54,-91.28 497.45,-82.13"/>
<polygon fill="#63b8ff" stroke="#63b8ff" points="500.29,-84.18 503.52,-74.09 494.7,-79.96 500.29,-84.18"/>
</a>
</g>
</g>
<!-- Node5&#45;&gt;Node4 -->
<g id="edge7_Node000005_Node000004" class="edge">
<title>Node5&#45;&gt;Node4</title>
<g id="a_edge7_Node000005_Node000004"><a xlink:title=" ">
<path fill="none" stroke="#63b8ff" d="M712.28,-109.98C664.98,-99.58 585.84,-82.18 541.89,-72.51"/>
<polygon fill="#63b8ff" stroke="#63b8ff" points="542.54,-69.07 532.03,-70.34 541.04,-75.91 542.54,-69.07"/>
</a>
</g>
</g>
<!-- Node6 -->
<g id="Node000006" class="node">
<title>Node6</title>
<g id="a_Node000006"><a xlink:title=" ">
<polygon fill="#e0e0e0" stroke="#999999" points="841.5,-74 748.5,-74 748.5,-55 841.5,-55 841.5,-74"/>
<text text-anchor="middle" x="795" y="-62" font-family="Helvetica,sans-Serif" font-size="10.00">source_location</text>
</a>
</g>
</g>
<!-- Node5&#45;&gt;Node6 -->
<g id="edge5_Node000005_Node000006" class="edge">
<title>Node5&#45;&gt;Node6</title>
<g id="a_edge5_Node000005_Node000006"><a xlink:title=" ">
<path fill="none" stroke="#63b8ff" d="M758.27,-109.75C764.54,-102.18 773.79,-91.05 781.43,-81.84"/>
<polygon fill="#63b8ff" stroke="#63b8ff" points="784.17,-84.02 787.87,-74.09 778.79,-79.55 784.17,-84.02"/>
</a>
</g>
</g>
<!-- Node7 -->
<g id="Node000007" class="node">
<title>Node7</title>
<g id="a_Node000007"><a xlink:title=" ">
<polygon fill="#e0e0e0" stroke="#999999" points="730.5,-74 665.5,-74 665.5,-55 730.5,-55 730.5,-74"/>
<text text-anchor="middle" x="698" y="-62" font-family="Helvetica,sans-Serif" font-size="10.00">stdexcept</text>
</a>
</g>
</g>
<!-- Node5&#45;&gt;Node7 -->
<g id="edge6_Node000005_Node000007" class="edge">
<title>Node5&#45;&gt;Node7</title>
<g id="a_edge6_Node000005_Node000007"><a xlink:title=" ">
<path fill="none" stroke="#63b8ff" d="M742.25,-109.75C734.53,-102.03 723.1,-90.6 713.78,-81.28"/>
<polygon fill="#63b8ff" stroke="#63b8ff" points="716.14,-78.69 706.59,-74.09 711.19,-83.64 716.14,-78.69"/>
</a>
</g>
</g>
<!-- Node9&#45;&gt;Node8 -->
<g id="edge10_Node000009_Node000008" class="edge">
<title>Node9&#45;&gt;Node8</title>
<g id="a_edge10_Node000009_Node000008"><a xlink:title=" ">
<path fill="none" stroke="#63b8ff" d="M75.62,-109.98C99.9,-101.23 137.95,-87.51 165.37,-77.62"/>
<polygon fill="#63b8ff" stroke="#63b8ff" points="166.73,-80.85 174.95,-74.17 164.36,-74.27 166.73,-80.85"/>
</a>
</g>
</g>
<!-- Node10 -->
<g id="Node000010" class="node">
<title>Node10</title>
<g id="a_Node000010"><a xlink:href="abcgTimer_8hpp.html" target="_top" xlink:title="Header file of abcg::Timer.">
<polygon fill="white" stroke="#666666" points="108.5,-74 19.5,-74 19.5,-55 108.5,-55 108.5,-74"/>
<text text-anchor="middle" x="64" y="-62" font-family="Helvetica,sans-Serif" font-size="10.00">abcgTimer.hpp</text>
</a>
</g>
</g>
<!-- Node9&#45;&gt;Node10 -->
<g id="edge11_Node000009_Node000010" class="edge">
<title>Node9&#45;&gt;Node10</title>
<g id="a_edge11_Node000009_Node000010"><a xlink:title=" ">
<path fill="none" stroke="#63b8ff" d="M53.98,-109.75C55.57,-102.72 57.86,-92.62 59.85,-83.84"/>
<polygon fill="#63b8ff" stroke="#63b8ff" points="63.26,-84.62 62.06,-74.09 56.43,-83.07 63.26,-84.62"/>
</a>
</g>
</g>
<!-- Node11 -->
<g id="Node000011" class="node">
<title>Node11</title>
<g id="a_Node000011"><a xlink:title=" ">
<polygon fill="#e0e0e0" stroke="#999999" points="89,-19 39,-19 39,0 89,0 89,-19"/>
<text text-anchor="middle" x="64" y="-7" font-family="Helvetica,sans-Serif" font-size="10.00">chrono</text>
</a>
</g>
</g>
<!-- Node10&#45;&gt;Node11 -->
<g id="edge12_Node000010_Node000011" class="edge">
<title>Node10&#45;&gt;Node11</title>
<g id="a_edge12_Node000010_Node000011"><a xlink:title=" ">
<path fill="none" stroke="#63b8ff" d="M64,-54.75C64,-47.8 64,-37.85 64,-29.13"/>
<polygon fill="#63b8ff" stroke="#63b8ff" points="67.5,-29.09 64,-19.09 60.5,-29.09 67.5,-29.09"/>
</a>
</g>
</g>
<!-- Node12&#45;&gt;Node4 -->
<g id="edge15_Node000012_Node000004" class="edge">
<title>Node12&#45;&gt;Node4</title>
<g id="a_edge15_Node000012_Node000004"><a xlink:title=" ">
<path fill="none" stroke="#63b8ff" d="M379.9,-109.98C406.54,-100.88 448.88,-86.4 477.98,-76.45"/>
<polygon fill="#63b8ff" stroke="#63b8ff" points="479.34,-79.68 487.67,-73.13 477.08,-73.06 479.34,-79.68"/>
</a>
</g>
</g>
<!-- Node13 -->
<g id="Node000013" class="node">
<title>Node13</title>
<g id="a_Node000013"><a xlink:title=" ">
<polygon fill="#e0e0e0" stroke="#999999" points="387.5,-74 322.5,-74 322.5,-55 387.5,-55 387.5,-74"/>
<text text-anchor="middle" x="355" y="-62" font-family="Helvetica,sans-Serif" font-size="10.00">functional</text>
</a>
</g>
</g>
<!-- Node12&#45;&gt;Node13 -->
<g id="edge14_Node000012_Node000013" class="edge">
<title>Node12&#45;&gt;Node13</title>
<g id="a_edge14_Node000012_Node000013"><a xlink:title=" ">
<path fill="none" stroke="#63b8ff" d="M355,-109.75C355,-102.8 355,-92.85 355,-84.13"/>
<polygon fill="#63b8ff" stroke="#63b8ff" points="358.5,-84.09 355,-74.09 351.5,-84.09 358.5,-84.09"/>
</a>
</g>
</g>
<!-- Node14&#45;&gt;Node4 -->
<g id="edge17_Node000014_Node000004" class="edge">
<title>Node14&#45;&gt;Node4</title>
<g id="a_edge17_Node000014_Node000004"><a xlink:title=" ">
<path fill="none" stroke="#63b8ff" d="M258.2,-109.98C319.87,-99.09 425.02,-80.51 477.78,-71.19"/>
<polygon fill="#63b8ff" stroke="#63b8ff" points="478.68,-74.59 487.91,-69.4 477.46,-67.7 478.68,-74.59"/>
</a>
</g>
</g>
<!-- Node14&#45;&gt;Node8 -->
<g id="edge18_Node000014_Node000008" class="edge">
<title>Node14&#45;&gt;Node8</title>
<g id="a_edge18_Node000014_Node000008"><a xlink:title=" ">
<path fill="none" stroke="#63b8ff" d="M208.18,-109.75C206.74,-102.8 204.68,-92.85 202.87,-84.13"/>
<polygon fill="#63b8ff" stroke="#63b8ff" points="206.24,-83.17 200.78,-74.09 199.39,-84.59 206.24,-83.17"/>
</a>
</g>
</g>
<!-- Node14&#45;&gt;Node10 -->
<g id="edge19_Node000014_Node000010" class="edge">
<title>Node14&#45;&gt;Node10</title>
<g id="a_edge19_Node000014_Node000010"><a xlink:title=" ">
<path fill="none" stroke="#63b8ff" d="M186.54,-109.98C162.42,-101.23 124.63,-87.51 97.4,-77.62"/>
<polygon fill="#63b8ff" stroke="#63b8ff" points="98.48,-74.29 87.88,-74.17 96.09,-80.87 98.48,-74.29"/>
</a>
</g>
</g>
<!-- Node16 -->
<g id="Node000016" class="node">
<title>Node16</title>
<g id="a_Node000016"><a xlink:href="abcgOpenGLExternal_8hpp.html" target="_top" xlink:title="Header file for including OpenGL&#45;related third&#45;party dependencies.">
<polygon fill="white" stroke="#666666" points="1087,-74 947,-74 947,-55 1087,-55 1087,-74"/>
<text text-anchor="middle" x="1017" y="-62" font-family="Helvetica,sans-Serif" font-size="10.00">abcgOpenGLExternal.hpp</text>
</a>
</g>
</g>
<!-- Node15&#45;&gt;Node16 -->
<g id="edge21_Node000015_Node000016" class="edge">
<title>Node15&#45;&gt;Node16</title>
<g id="a_edge21_Node000015_Node000016"><a xlink:title=" ">
<path fill="none" stroke="#63b8ff" d="M1129.47,-109.98C1107.53,-101.3 1073.26,-87.75 1048.31,-77.88"/>
<polygon fill="#63b8ff" stroke="#63b8ff" points="1049.51,-74.59 1038.92,-74.17 1046.93,-81.1 1049.51,-74.59"/>
</a>
</g>
</g>
<!-- Node17 -->
<g id="Node000017" class="node">
<title>Node17</title>
<g id="a_Node000017"><a xlink:title=" ">
<polygon fill="#e0e0e0" stroke="#999999" points="1239,-74 1197,-74 1197,-55 1239,-55 1239,-74"/>
<text text-anchor="middle" x="1218" y="-62" font-family="Helvetica,sans-Serif" font-size="10.00">array</text>
</a>
</g>
</g>
<!-- Node15&#45;&gt;Node17 -->
<g id="edge22_Node000015_Node000017" class="edge">
<title>Node15&#45;&gt;Node17</title>
<g id="a_edge22_Node000015_Node000017"><a xlink:title=" ">
<path fill="none" stroke="#63b8ff" d="M1161.76,-109.98C1171.77,-102.07 1186.89,-90.11 1198.93,-80.58"/>
<polygon fill="#63b8ff" stroke="#63b8ff" points="1201.37,-83.12 1207.04,-74.17 1197.03,-77.63 1201.37,-83.12"/>
</a>
</g>
</g>
<!-- Node18 -->
<g id="Node000018" class="node">
<title>Node18</title>
<g id="a_Node000018"><a xlink:title=" ">
<polygon fill="#e0e0e0" stroke="#999999" points="1178.5,-74 1105.5,-74 1105.5,-55 1178.5,-55 1178.5,-74"/>
<text text-anchor="middle" x="1142" y="-62" font-family="Helvetica,sans-Serif" font-size="10.00">string_view</text>
</a>
</g>
</g>
<!-- Node15&#45;&gt;Node18 -->
<g id="edge23_Node000015_Node000018" class="edge">
<title>Node15&#45;&gt;Node18</title>
<g id="a_edge23_Node000015_Node000018"><a xlink:title=" ">
<path fill="none" stroke="#63b8ff" d="M1149.51,-109.75C1148.33,-102.8 1146.64,-92.85 1145.16,-84.13"/>
<polygon fill="#63b8ff" stroke="#63b8ff" points="1148.58,-83.36 1143.46,-74.09 1141.68,-84.53 1148.58,-83.36"/>
</a>
</g>
</g>
<!-- Node19&#45;&gt;Node16 -->
<g id="edge25_Node000019_Node000016" class="edge">
<title>Node19&#45;&gt;Node16</title>
<g id="a_edge25_Node000019_Node000016"><a xlink:title=" ">
<path fill="none" stroke="#63b8ff" d="M892.77,-164.93C918.01,-158.29 949.52,-147.08 973,-129 988.74,-116.89 1000.99,-97.54 1008.52,-83.39"/>
<polygon fill="#63b8ff" stroke="#63b8ff" points="1011.79,-84.68 1013.16,-74.17 1005.54,-81.53 1011.79,-84.68"/>
</a>
</g>
</g>
<!-- Node20 -->
<g id="Node000020" class="node">
<title>Node20</title>
<g id="a_Node000020"><a xlink:href="abcgShader_8hpp.html" target="_top" xlink:title="Declaration of a structure for building shaders.">
<polygon fill="white" stroke="#666666" points="678,-129 584,-129 584,-110 678,-110 678,-129"/>
<text text-anchor="middle" x="631" y="-117" font-family="Helvetica,sans-Serif" font-size="10.00">abcgShader.hpp</text>
</a>
</g>
</g>
<!-- Node19&#45;&gt;Node20 -->
<g id="edge26_Node000019_Node000020" class="edge">
<title>Node19&#45;&gt;Node20</title>
<g id="a_edge26_Node000019_Node000020"><a xlink:title=" ">
<path fill="none" stroke="#63b8ff" d="M814.81,-164.98C777.17,-155.87 717.34,-141.4 676.23,-131.45"/>
<polygon fill="#63b8ff" stroke="#63b8ff" points="677,-128.03 666.46,-129.08 675.36,-134.84 677,-128.03"/>
</a>
</g>
</g>
<!-- Node22 -->
<g id="Node000022" class="node">
<title>Node22</title>
<g id="a_Node000022"><a xlink:title=" ">
<polygon fill="#e0e0e0" stroke="#999999" points="1067.5,-129 1020.5,-129 1020.5,-110 1067.5,-110 1067.5,-129"/>
<text text-anchor="middle" x="1044" y="-117" font-family="Helvetica,sans-Serif" font-size="10.00">vector</text>
</a>
</g>
</g>
<!-- Node19&#45;&gt;Node22 -->
<g id="edge29_Node000019_Node000022" class="edge">
<title>Node19&#45;&gt;Node22</title>
<g id="a_edge29_Node000019_Node000022"><a xlink:title=" ">
<path fill="none" stroke="#63b8ff" d="M881.17,-164.98C916.61,-155.3 974.25,-139.56 1010.6,-129.63"/>
<polygon fill="#63b8ff" stroke="#63b8ff" points="1011.52,-133 1020.25,-126.99 1009.68,-126.25 1011.52,-133"/>
</a>
</g>
</g>
<!-- Node20&#45;&gt;Node4 -->
<g id="edge28_Node000020_Node000004" class="edge">
<title>Node20&#45;&gt;Node4</title>
<g id="a_edge28_Node000020_Node000004"><a xlink:title=" ">
<path fill="none" stroke="#63b8ff" d="M611.56,-109.98C592.01,-101.42 561.62,-88.11 539.18,-78.28"/>
<polygon fill="#63b8ff" stroke="#63b8ff" points="540.36,-74.98 529.79,-74.17 537.55,-81.39 540.36,-74.98"/>
</a>
</g>
</g>
<!-- Node21 -->
<g id="Node000021" class="node">
<title>Node21</title>
<g id="a_Node000021"><a xlink:title=" ">
<polygon fill="#e0e0e0" stroke="#999999" points="647,-74 591,-74 591,-55 647,-55 647,-74"/>
<text text-anchor="middle" x="619" y="-62" font-family="Helvetica,sans-Serif" font-size="10.00">optional</text>
</a>
</g>
</g>
<!-- Node20&#45;&gt;Node21 -->
<g id="edge27_Node000020_Node000021" class="edge">
<title>Node20&#45;&gt;Node21</title>
<g id="a_edge27_Node000020_Node000021"><a xlink:title=" ">
<path fill="none" stroke="#63b8ff" d="M629.02,-109.75C627.43,-102.72 625.14,-92.62 623.15,-83.84"/>
<polygon fill="#63b8ff" stroke="#63b8ff" points="626.57,-83.07 620.94,-74.09 619.74,-84.62 626.57,-83.07"/>
</a>
</g>
</g>
<!-- Node23&#45;&gt;Node4 -->
<g id="edge31_Node000023_Node000004" class="edge">
<title>Node23&#45;&gt;Node4</title>
<g id="a_edge31_Node000023_Node000004"><a xlink:title=" ">
<path fill="none" stroke="#63b8ff" d="M554.1,-164.62C551.25,-152.11 545.32,-128.72 537,-110 532.78,-100.5 526.9,-90.56 521.71,-82.48"/>
<polygon fill="#63b8ff" stroke="#63b8ff" points="524.52,-80.39 516.07,-74.01 518.69,-84.27 524.52,-80.39"/>
</a>
</g>
</g>
<!-- Node23&#45;&gt;Node8 -->
<g id="edge32_Node000023_Node000008" class="edge">
<title>Node23&#45;&gt;Node8</title>
<g id="a_edge32_Node000023_Node000008"><a xlink:title=" ">
<path fill="none" stroke="#63b8ff" d="M487.44,-167.84C436.44,-162.07 365.8,-150.74 307,-129 289.48,-122.52 246.86,-96.15 220.7,-79.5"/>
<polygon fill="#63b8ff" stroke="#63b8ff" points="222.51,-76.51 212.2,-74.06 218.74,-82.4 222.51,-76.51"/>
</a>
</g>
</g>
<!-- Node23&#45;&gt;Node14 -->
<g id="edge38_Node000023_Node000014" class="edge">
<title>Node23&#45;&gt;Node14</title>
<g id="a_edge38_Node000023_Node000014"><a xlink:title=" ">
<path fill="none" stroke="#63b8ff" d="M500.41,-164.98C437.22,-155.3 334.45,-139.56 269.63,-129.63"/>
<polygon fill="#63b8ff" stroke="#63b8ff" points="269.98,-126.15 259.56,-128.09 268.92,-133.07 269.98,-126.15"/>
</a>
</g>
</g>
<!-- Node24 -->
<g id="Node000024" class="node">
<title>Node24</title>
<g id="a_Node000024"><a xlink:href="abcgOpenGLFunction_8hpp.html" target="_top" xlink:title="Declaration of OpenGL&#45;related error checking functions.">
<polygon fill="white" stroke="#666666" points="964,-129 824,-129 824,-110 964,-110 964,-129"/>
<text text-anchor="middle" x="894" y="-117" font-family="Helvetica,sans-Serif" font-size="10.00">abcgOpenGLFunction.hpp</text>
</a>
</g>
</g>
<!-- Node23&#45;&gt;Node24 -->
<g id="edge33_Node000023_Node000024" class="edge">
<title>Node23&#45;&gt;Node24</title>
<g id="a_edge33_Node000023_Node000024"><a xlink:title=" ">
<path fill="none" stroke="#63b8ff" d="M610.31,-164.98C670.09,-155.61 766.13,-140.55 829.64,-130.59"/>
<polygon fill="#63b8ff" stroke="#63b8ff" points="830.21,-134.05 839.55,-129.04 829.13,-127.13 830.21,-134.05"/>
</a>
</g>
</g>
<!-- Node24&#45;&gt;Node6 -->
<g id="edge34_Node000024_Node000006" class="edge">
<title>Node24&#45;&gt;Node6</title>
<g id="a_edge34_Node000024_Node000006"><a xlink:title=" ">
<path fill="none" stroke="#63b8ff" d="M878.09,-109.98C862.45,-101.61 838.34,-88.7 820.12,-78.95"/>
<polygon fill="#63b8ff" stroke="#63b8ff" points="821.66,-75.8 811.2,-74.17 818.36,-81.98 821.66,-75.8"/>
</a>
</g>
</g>
<!-- Node24&#45;&gt;Node16 -->
<g id="edge37_Node000024_Node000016" class="edge">
<title>Node24&#45;&gt;Node16</title>
<g id="a_edge37_Node000024_Node000016"><a xlink:title=" ">
<path fill="none" stroke="#63b8ff" d="M913.76,-109.98C933.73,-101.38 964.8,-87.99 987.65,-78.15"/>
<polygon fill="#63b8ff" stroke="#63b8ff" points="989.08,-81.34 996.88,-74.17 986.31,-74.91 989.08,-81.34"/>
</a>
</g>
</g>
<!-- Node24&#45;&gt;Node18 -->
<g id="edge35_Node000024_Node000018" class="edge">
<title>Node24&#45;&gt;Node18</title>
<g id="a_edge35_Node000024_Node000018"><a xlink:title=" ">
<path fill="none" stroke="#63b8ff" d="M933.85,-109.98C977.98,-100.55 1049.05,-85.36 1095.64,-75.41"/>
<polygon fill="#63b8ff" stroke="#63b8ff" points="1096.44,-78.82 1105.49,-73.3 1094.98,-71.97 1096.44,-78.82"/>
</a>
</g>
</g>
<!-- Node25 -->
<g id="Node000025" class="node">
<title>Node25</title>
<g id="a_Node000025"><a xlink:title=" ">
<polygon fill="#e0e0e0" stroke="#999999" points="928.5,-74 859.5,-74 859.5,-55 928.5,-55 928.5,-74"/>
<text text-anchor="middle" x="894" y="-62" font-family="Helvetica,sans-Serif" font-size="10.00">type_traits</text>
</a>
</g>
</g>
<!-- Node24&#45;&gt;Node25 -->
<g id="edge36_Node000024_Node000025" class="edge">
<title>Node24&#45;&gt;Node25</title>
<g id="a_edge36_Node000024_Node000025"><a xlink:title=" ">
<path fill="none" stroke="#63b8ff" d="M894,-109.75C894,-102.8 894,-92.85 894,-84.13"/>
<polygon fill="#63b8ff" stroke="#63b8ff" points="897.5,-84.09 894,-74.09 890.5,-84.09 897.5,-84.09"/>
</a>
</g>
</g>
</g>
</svg>
