<?xml version="1.0" encoding="UTF-8" standalone="no"?>
<!DOCTYPE svg PUBLIC "-//W3C//DTD SVG 1.1//EN"
 "http://www.w3.org/Graphics/SVG/1.1/DTD/svg11.dtd">
<!-- Generated by graphviz version 2.43.0 (0)
 -->
<!-- Title: /home/harlen/dev/abcg/abcg/abcgTimer.cpp Pages: 1 -->
<svg width="136pt" height="151pt"
 viewBox="0.00 0.00 136.00 151.00" xmlns="http://www.w3.org/2000/svg" xmlns:xlink="http://www.w3.org/1999/xlink">
<g id="graph0" class="graph" transform="scale(1 1) rotate(0) translate(4 147)">
<title>/home/harlen/dev/abcg/abcg/abcgTimer.cpp</title>
<!-- Node1 -->
<g id="node1" class="node">
<title>Node1</title>
<g id="a_node1"><a xlink:title="Definition of abcg::Timer members.">
<polygon fill="#bfbfbf" stroke="black" points="0,-112.5 0,-142.5 128,-142.5 128,-112.5 0,-112.5"/>
<text text-anchor="start" x="8" y="-130.5" font-family="Helvetica,sans-Serif" font-size="10.00">/home/harlen/dev/abcg</text>
<text text-anchor="middle" x="64" y="-119.5" font-family="Helvetica,sans-Serif" font-size="10.00">/abcg/abcgTimer.cpp</text>
</a>
</g>
</g>
<!-- Node2 -->
<g id="node2" class="node">
<title>Node2</title>
<g id="a_node2"><a xlink:href="abcgTimer_8hpp.html" target="_top" xlink:title="Header file of abcg::Timer.">
<polygon fill="none" stroke="black" points="19.5,-56.5 19.5,-75.5 108.5,-75.5 108.5,-56.5 19.5,-56.5"/>
<text text-anchor="middle" x="64" y="-63.5" font-family="Helvetica,sans-Serif" font-size="10.00">abcgTimer.hpp</text>
</a>
</g>
</g>
<!-- Node1&#45;&gt;Node2 -->
<g id="edge1" class="edge">
<title>Node1&#45;&gt;Node2</title>
<path fill="none" stroke="midnightblue" d="M64,-112.4C64,-104.47 64,-94.46 64,-85.86"/>
<polygon fill="midnightblue" stroke="midnightblue" points="67.5,-85.66 64,-75.66 60.5,-85.66 67.5,-85.66"/>
</g>
<!-- Node3 -->
<g id="node3" class="node">
<title>Node3</title>
<g id="a_node3"><a xlink:title=" ">
<polygon fill="none" stroke="#bfbfbf" points="39,-0.5 39,-19.5 89,-19.5 89,-0.5 39,-0.5"/>
<text text-anchor="middle" x="64" y="-7.5" font-family="Helvetica,sans-Serif" font-size="10.00">chrono</text>
</a>
</g>
</g>
<!-- Node2&#45;&gt;Node3 -->
<g id="edge2" class="edge">
<title>Node2&#45;&gt;Node3</title>
<path fill="none" stroke="midnightblue" d="M64,-56.08C64,-49.01 64,-38.86 64,-29.99"/>
<polygon fill="midnightblue" stroke="midnightblue" points="67.5,-29.75 64,-19.75 60.5,-29.75 67.5,-29.75"/>
</g>
</g>
</svg>
