<?xml version="1.0" encoding="UTF-8" standalone="no"?>
<!DOCTYPE svg PUBLIC "-//W3C//DTD SVG 1.1//EN"
 "http://www.w3.org/Graphics/SVG/1.1/DTD/svg11.dtd">
<!-- Generated by graphviz version 2.43.0 (0)
 -->
<!-- Title: /home/harlen/dev/abcg/abcg/abcgVulkanDevice.hpp Pages: 1 -->
<svg width="315pt" height="263pt"
 viewBox="0.00 0.00 314.50 263.00" xmlns="http://www.w3.org/2000/svg" xmlns:xlink="http://www.w3.org/1999/xlink">
<g id="graph0" class="graph" transform="scale(1 1) rotate(0) translate(4 259)">
<title>/home/harlen/dev/abcg/abcg/abcgVulkanDevice.hpp</title>
<!-- Node1 -->
<g id="node1" class="node">
<title>Node1</title>
<g id="a_node1"><a xlink:title="Header file of abcg::VulkanDevice.">
<polygon fill="#bfbfbf" stroke="black" points="1.5,-224.5 1.5,-254.5 157.5,-254.5 157.5,-224.5 1.5,-224.5"/>
<text text-anchor="start" x="9.5" y="-242.5" font-family="Helvetica,sans-Serif" font-size="10.00">/home/harlen/dev/abcg</text>
<text text-anchor="middle" x="79.5" y="-231.5" font-family="Helvetica,sans-Serif" font-size="10.00">/abcg/abcgVulkanDevice.hpp</text>
</a>
</g>
</g>
<!-- Node2 -->
<g id="node2" class="node">
<title>Node2</title>
<g id="a_node2"><a xlink:href="abcgVulkanExternal_8hpp.html" target="_top" xlink:title="Header file for including Vulkan&#45;related dependencies.">
<polygon fill="none" stroke="black" points="3.5,-56.5 3.5,-75.5 137.5,-75.5 137.5,-56.5 3.5,-56.5"/>
<text text-anchor="middle" x="70.5" y="-63.5" font-family="Helvetica,sans-Serif" font-size="10.00">abcgVulkanExternal.hpp</text>
</a>
</g>
</g>
<!-- Node1&#45;&gt;Node2 -->
<g id="edge1" class="edge">
<title>Node1&#45;&gt;Node2</title>
<path fill="none" stroke="midnightblue" d="M65.76,-224.39C57.55,-214.93 47.9,-201.74 43.5,-188 31.96,-151.95 49.02,-108.32 60.83,-84.54"/>
<polygon fill="midnightblue" stroke="midnightblue" points="63.95,-86.13 65.47,-75.65 57.74,-82.9 63.95,-86.13"/>
</g>
<!-- Node5 -->
<g id="node5" class="node">
<title>Node5</title>
<g id="a_node5"><a xlink:href="abcgVulkanPhysicalDevice_8hpp.html" target="_top" xlink:title="Header file of abcg::VulkanPhysicalDevice.">
<polygon fill="none" stroke="black" points="52,-168.5 52,-187.5 219,-187.5 219,-168.5 52,-168.5"/>
<text text-anchor="middle" x="135.5" y="-175.5" font-family="Helvetica,sans-Serif" font-size="10.00">abcgVulkanPhysicalDevice.hpp</text>
</a>
</g>
</g>
<!-- Node1&#45;&gt;Node5 -->
<g id="edge4" class="edge">
<title>Node1&#45;&gt;Node5</title>
<path fill="none" stroke="midnightblue" d="M92.77,-224.4C101.08,-215.58 111.8,-204.18 120.42,-195.02"/>
<polygon fill="midnightblue" stroke="midnightblue" points="123.05,-197.34 127.35,-187.66 117.95,-192.54 123.05,-197.34"/>
</g>
<!-- Node3 -->
<g id="node3" class="node">
<title>Node3</title>
<g id="a_node3"><a xlink:title=" ">
<polygon fill="none" stroke="#bfbfbf" points="0,-0.5 0,-19.5 47,-19.5 47,-0.5 0,-0.5"/>
<text text-anchor="middle" x="23.5" y="-7.5" font-family="Helvetica,sans-Serif" font-size="10.00">volk.h</text>
</a>
</g>
</g>
<!-- Node2&#45;&gt;Node3 -->
<g id="edge2" class="edge">
<title>Node2&#45;&gt;Node3</title>
<path fill="none" stroke="midnightblue" d="M62.74,-56.08C55.96,-48.3 45.96,-36.8 37.74,-27.37"/>
<polygon fill="midnightblue" stroke="midnightblue" points="40.32,-25 31.12,-19.75 35.04,-29.59 40.32,-25"/>
</g>
<!-- Node4 -->
<g id="node4" class="node">
<title>Node4</title>
<g id="a_node4"><a xlink:title=" ">
<polygon fill="none" stroke="#bfbfbf" points="65,-0.5 65,-19.5 170,-19.5 170,-0.5 65,-0.5"/>
<text text-anchor="middle" x="117.5" y="-7.5" font-family="Helvetica,sans-Serif" font-size="10.00">vulkan/vulkan.hpp</text>
</a>
</g>
</g>
<!-- Node2&#45;&gt;Node4 -->
<g id="edge3" class="edge">
<title>Node2&#45;&gt;Node4</title>
<path fill="none" stroke="midnightblue" d="M78.26,-56.08C85.04,-48.3 95.04,-36.8 103.26,-27.37"/>
<polygon fill="midnightblue" stroke="midnightblue" points="105.96,-29.59 109.88,-19.75 100.68,-25 105.96,-29.59"/>
</g>
<!-- Node5&#45;&gt;Node2 -->
<g id="edge6" class="edge">
<title>Node5&#45;&gt;Node2</title>
<path fill="none" stroke="midnightblue" d="M123.63,-168.29C113.2,-160.04 98.35,-146.75 89.5,-132 80.9,-117.67 75.99,-99.2 73.33,-85.62"/>
<polygon fill="midnightblue" stroke="midnightblue" points="76.74,-84.81 71.59,-75.55 69.84,-86 76.74,-84.81"/>
</g>
<!-- Node6 -->
<g id="node6" class="node">
<title>Node6</title>
<g id="a_node6"><a xlink:title=" ">
<polygon fill="none" stroke="#bfbfbf" points="98.5,-112.5 98.5,-131.5 154.5,-131.5 154.5,-112.5 98.5,-112.5"/>
<text text-anchor="middle" x="126.5" y="-119.5" font-family="Helvetica,sans-Serif" font-size="10.00">optional</text>
</a>
</g>
</g>
<!-- Node5&#45;&gt;Node6 -->
<g id="edge5" class="edge">
<title>Node5&#45;&gt;Node6</title>
<path fill="none" stroke="midnightblue" d="M134.01,-168.08C132.82,-160.93 131.11,-150.64 129.62,-141.69"/>
<polygon fill="midnightblue" stroke="midnightblue" points="133.05,-141.04 127.96,-131.75 126.15,-142.19 133.05,-141.04"/>
</g>
<!-- Node7 -->
<g id="node7" class="node">
<title>Node7</title>
<g id="a_node7"><a xlink:href="abcgVulkanInstance_8hpp.html" target="_top" xlink:title="Header file of abcg::VulkanInstance.">
<polygon fill="none" stroke="black" points="172.5,-112.5 172.5,-131.5 306.5,-131.5 306.5,-112.5 172.5,-112.5"/>
<text text-anchor="middle" x="239.5" y="-119.5" font-family="Helvetica,sans-Serif" font-size="10.00">abcgVulkanInstance.hpp</text>
</a>
</g>
</g>
<!-- Node5&#45;&gt;Node7 -->
<g id="edge7" class="edge">
<title>Node5&#45;&gt;Node7</title>
<path fill="none" stroke="midnightblue" d="M152.21,-168.32C168.81,-159.7 194.5,-146.36 213.72,-136.39"/>
<polygon fill="midnightblue" stroke="midnightblue" points="215.57,-139.37 222.83,-131.65 212.34,-133.16 215.57,-139.37"/>
</g>
<!-- Node7&#45;&gt;Node2 -->
<g id="edge8" class="edge">
<title>Node7&#45;&gt;Node2</title>
<path fill="none" stroke="midnightblue" d="M212.72,-112.44C184.17,-103.32 138.77,-88.81 106.96,-78.65"/>
<polygon fill="midnightblue" stroke="midnightblue" points="107.74,-75.23 97.15,-75.52 105.61,-81.89 107.74,-75.23"/>
</g>
</g>
</svg>
