<?xml version="1.0" encoding="UTF-8" standalone="no"?>
<!DOCTYPE svg PUBLIC "-//W3C//DTD SVG 1.1//EN"
 "http://www.w3.org/Graphics/SVG/1.1/DTD/svg11.dtd">
<!-- Generated by graphviz version 2.43.0 (0)
 -->
<!-- Title: /home/harlen/dev/abcg/abcg/abcgVulkanError.hpp Pages: 1 -->
<svg width="321pt" height="151pt"
 viewBox="0.00 0.00 321.16 151.00" xmlns="http://www.w3.org/2000/svg" xmlns:xlink="http://www.w3.org/1999/xlink">
<g id="graph0" class="graph" transform="scale(1 1) rotate(0) translate(4 147)">
<title>/home/harlen/dev/abcg/abcg/abcgVulkanError.hpp</title>
<!-- Node1 -->
<g id="node1" class="node">
<title>Node1</title>
<g id="a_node1"><a xlink:title="Header file of abcg::VulkanError and derived classes.">
<polygon fill="#bfbfbf" stroke="black" points="10.66,-112.5 10.66,-142.5 155.66,-142.5 155.66,-112.5 10.66,-112.5"/>
<text text-anchor="start" x="18.66" y="-130.5" font-family="Helvetica,sans-Serif" font-size="10.00">/home/harlen/dev/abcg</text>
<text text-anchor="middle" x="83.16" y="-119.5" font-family="Helvetica,sans-Serif" font-size="10.00">/abcg/abcgVulkanError.hpp</text>
</a>
</g>
</g>
<!-- Node2 -->
<g id="node2" class="node">
<title>Node2</title>
<g id="a_node2"><a xlink:title=" ">
<polygon fill="none" stroke="#bfbfbf" points="24.66,-0.5 24.66,-19.5 117.66,-19.5 117.66,-0.5 24.66,-0.5"/>
<text text-anchor="middle" x="71.16" y="-7.5" font-family="Helvetica,sans-Serif" font-size="10.00">source_location</text>
</a>
</g>
</g>
<!-- Node1&#45;&gt;Node2 -->
<g id="edge1" class="edge">
<title>Node1&#45;&gt;Node2</title>
<path fill="none" stroke="midnightblue" d="M45.39,-112.47C29.35,-104.41 12.28,-92.54 3.16,-76 -8.69,-54.51 16.81,-35.85 39.89,-24.1"/>
<polygon fill="midnightblue" stroke="midnightblue" points="41.68,-27.12 49.19,-19.65 38.66,-20.81 41.68,-27.12"/>
</g>
<!-- Node3 -->
<g id="node3" class="node">
<title>Node3</title>
<g id="a_node3"><a xlink:title=" ">
<polygon fill="none" stroke="#bfbfbf" points="12.66,-56.5 12.66,-75.5 59.66,-75.5 59.66,-56.5 12.66,-56.5"/>
<text text-anchor="middle" x="36.16" y="-63.5" font-family="Helvetica,sans-Serif" font-size="10.00">volk.h</text>
</a>
</g>
</g>
<!-- Node1&#45;&gt;Node3 -->
<g id="edge2" class="edge">
<title>Node1&#45;&gt;Node3</title>
<path fill="none" stroke="midnightblue" d="M72.02,-112.4C65.19,-103.75 56.42,-92.64 49.26,-83.58"/>
<polygon fill="midnightblue" stroke="midnightblue" points="51.95,-81.34 43,-75.66 46.45,-85.67 51.95,-81.34"/>
</g>
<!-- Node4 -->
<g id="node4" class="node">
<title>Node4</title>
<g id="a_node4"><a xlink:title=" ">
<polygon fill="none" stroke="#bfbfbf" points="77.66,-56.5 77.66,-75.5 182.66,-75.5 182.66,-56.5 77.66,-56.5"/>
<text text-anchor="middle" x="130.16" y="-63.5" font-family="Helvetica,sans-Serif" font-size="10.00">vulkan/vulkan.hpp</text>
</a>
</g>
</g>
<!-- Node1&#45;&gt;Node4 -->
<g id="edge3" class="edge">
<title>Node1&#45;&gt;Node4</title>
<path fill="none" stroke="midnightblue" d="M94.3,-112.4C101.13,-103.75 109.91,-92.64 117.07,-83.58"/>
<polygon fill="midnightblue" stroke="midnightblue" points="119.87,-85.67 123.32,-75.66 114.38,-81.34 119.87,-85.67"/>
</g>
<!-- Node5 -->
<g id="node5" class="node">
<title>Node5</title>
<g id="a_node5"><a xlink:href="abcgException_8hpp.html" target="_top" xlink:title="Header file of abcg::Exception and derived classes.">
<polygon fill="none" stroke="black" points="200.66,-56.5 200.66,-75.5 309.66,-75.5 309.66,-56.5 200.66,-56.5"/>
<text text-anchor="middle" x="255.16" y="-63.5" font-family="Helvetica,sans-Serif" font-size="10.00">abcgException.hpp</text>
</a>
</g>
</g>
<!-- Node1&#45;&gt;Node5 -->
<g id="edge4" class="edge">
<title>Node1&#45;&gt;Node5</title>
<path fill="none" stroke="midnightblue" d="M123.92,-112.4C153.39,-102.21 192.75,-88.59 220.66,-78.93"/>
<polygon fill="midnightblue" stroke="midnightblue" points="222.08,-82.15 230.39,-75.57 219.79,-75.53 222.08,-82.15"/>
</g>
<!-- Node5&#45;&gt;Node2 -->
<g id="edge5" class="edge">
<title>Node5&#45;&gt;Node2</title>
<path fill="none" stroke="midnightblue" d="M226.01,-56.44C194.65,-47.24 144.63,-32.56 109.97,-22.39"/>
<polygon fill="midnightblue" stroke="midnightblue" points="110.76,-18.97 100.18,-19.52 108.79,-25.69 110.76,-18.97"/>
</g>
<!-- Node6 -->
<g id="node6" class="node">
<title>Node6</title>
<g id="a_node6"><a xlink:title=" ">
<polygon fill="none" stroke="#bfbfbf" points="185.66,-0.5 185.66,-19.5 250.66,-19.5 250.66,-0.5 185.66,-0.5"/>
<text text-anchor="middle" x="218.16" y="-7.5" font-family="Helvetica,sans-Serif" font-size="10.00">stdexcept</text>
</a>
</g>
</g>
<!-- Node5&#45;&gt;Node6 -->
<g id="edge6" class="edge">
<title>Node5&#45;&gt;Node6</title>
<path fill="none" stroke="midnightblue" d="M249.05,-56.08C243.88,-48.53 236.32,-37.49 229.97,-28.23"/>
<polygon fill="midnightblue" stroke="midnightblue" points="232.7,-26.02 224.16,-19.75 226.92,-29.98 232.7,-26.02"/>
</g>
<!-- Node7 -->
<g id="node7" class="node">
<title>Node7</title>
<g id="a_node7"><a xlink:title=" ">
<polygon fill="none" stroke="#bfbfbf" points="269.16,-0.5 269.16,-19.5 313.16,-19.5 313.16,-0.5 269.16,-0.5"/>
<text text-anchor="middle" x="291.16" y="-7.5" font-family="Helvetica,sans-Serif" font-size="10.00">string</text>
</a>
</g>
</g>
<!-- Node5&#45;&gt;Node7 -->
<g id="edge7" class="edge">
<title>Node5&#45;&gt;Node7</title>
<path fill="none" stroke="midnightblue" d="M261.11,-56.08C266.14,-48.53 273.5,-37.49 279.68,-28.23"/>
<polygon fill="midnightblue" stroke="midnightblue" points="282.69,-30.01 285.33,-19.75 276.87,-26.13 282.69,-30.01"/>
</g>
</g>
</svg>
