<?xml version="1.0" encoding="UTF-8" standalone="no"?>
<!DOCTYPE svg PUBLIC "-//W3C//DTD SVG 1.1//EN"
 "http://www.w3.org/Graphics/SVG/1.1/DTD/svg11.dtd">
<!-- Generated by graphviz version 2.43.0 (0)
 -->
<!-- Title: /home/harlen/dev/abcg/abcg/abcgVulkanWindow.hpp Pages: 1 -->
<svg width="766pt" height="431pt"
 viewBox="0.00 0.00 766.00 431.00" xmlns="http://www.w3.org/2000/svg" xmlns:xlink="http://www.w3.org/1999/xlink">
<g id="graph0" class="graph" transform="scale(1 1) rotate(0) translate(4 427)">
<title>/home/harlen/dev/abcg/abcg/abcgVulkanWindow.hpp</title>
<!-- Node1 -->
<g id="node1" class="node">
<title>Node1</title>
<g id="a_node1"><a xlink:title="Header file of abcg::VulkanWindow.">
<polygon fill="#bfbfbf" stroke="black" points="218.5,-392.5 218.5,-422.5 379.5,-422.5 379.5,-392.5 218.5,-392.5"/>
<text text-anchor="start" x="226.5" y="-410.5" font-family="Helvetica,sans-Serif" font-size="10.00">/home/harlen/dev/abcg</text>
<text text-anchor="middle" x="299" y="-399.5" font-family="Helvetica,sans-Serif" font-size="10.00">/abcg/abcgVulkanWindow.hpp</text>
</a>
</g>
</g>
<!-- Node2 -->
<g id="node2" class="node">
<title>Node2</title>
<g id="a_node2"><a xlink:title=" ">
<polygon fill="none" stroke="#bfbfbf" points="73,-336.5 73,-355.5 115,-355.5 115,-336.5 73,-336.5"/>
<text text-anchor="middle" x="94" y="-343.5" font-family="Helvetica,sans-Serif" font-size="10.00">array</text>
</a>
</g>
</g>
<!-- Node1&#45;&gt;Node2 -->
<g id="edge1" class="edge">
<title>Node1&#45;&gt;Node2</title>
<path fill="none" stroke="midnightblue" d="M250.68,-392.47C211.74,-381.17 158.16,-365.62 124.82,-355.95"/>
<polygon fill="midnightblue" stroke="midnightblue" points="125.75,-352.57 115.17,-353.14 123.79,-359.29 125.75,-352.57"/>
</g>
<!-- Node3 -->
<g id="node3" class="node">
<title>Node3</title>
<g id="a_node3"><a xlink:title=" ">
<polygon fill="none" stroke="#bfbfbf" points="0,-280.5 0,-299.5 44,-299.5 44,-280.5 0,-280.5"/>
<text text-anchor="middle" x="22" y="-287.5" font-family="Helvetica,sans-Serif" font-size="10.00">string</text>
</a>
</g>
</g>
<!-- Node1&#45;&gt;Node3 -->
<g id="edge2" class="edge">
<title>Node1&#45;&gt;Node3</title>
<path fill="none" stroke="midnightblue" d="M256.46,-392.44C229.11,-383 193.03,-369.81 162,-356 144.56,-348.24 141.19,-344.3 124,-336 100.04,-324.42 72.39,-312.3 51.93,-303.56"/>
<polygon fill="midnightblue" stroke="midnightblue" points="53.08,-300.25 42.51,-299.56 50.34,-306.69 53.08,-300.25"/>
</g>
<!-- Node4 -->
<g id="node4" class="node">
<title>Node4</title>
<g id="a_node4"><a xlink:href="abcgVulkanDevice_8hpp.html" target="_top" xlink:title="Header file of abcg::VulkanDevice.">
<polygon fill="none" stroke="black" points="295.5,-224.5 295.5,-243.5 422.5,-243.5 422.5,-224.5 295.5,-224.5"/>
<text text-anchor="middle" x="359" y="-231.5" font-family="Helvetica,sans-Serif" font-size="10.00">abcgVulkanDevice.hpp</text>
</a>
</g>
</g>
<!-- Node1&#45;&gt;Node4 -->
<g id="edge3" class="edge">
<title>Node1&#45;&gt;Node4</title>
<path fill="none" stroke="midnightblue" d="M303.91,-392.47C314.72,-361.57 340.57,-287.69 352.61,-253.25"/>
<polygon fill="midnightblue" stroke="midnightblue" points="356.01,-254.15 356.01,-243.56 349.4,-251.84 356.01,-254.15"/>
</g>
<!-- Node8 -->
<g id="node8" class="node">
<title>Node8</title>
<g id="a_node8"><a xlink:href="abcgVulkanPhysicalDevice_8hpp.html" target="_top" xlink:title="Header file of abcg::VulkanPhysicalDevice.">
<polygon fill="none" stroke="black" points="494.5,-168.5 494.5,-187.5 661.5,-187.5 661.5,-168.5 494.5,-168.5"/>
<text text-anchor="middle" x="578" y="-175.5" font-family="Helvetica,sans-Serif" font-size="10.00">abcgVulkanPhysicalDevice.hpp</text>
</a>
</g>
</g>
<!-- Node1&#45;&gt;Node8 -->
<g id="edge13" class="edge">
<title>Node1&#45;&gt;Node8</title>
<path fill="none" stroke="midnightblue" d="M379.83,-395.53C480.15,-380.03 642.32,-348.12 677,-300 706.26,-259.4 642.02,-214.52 603.78,-192.58"/>
<polygon fill="midnightblue" stroke="midnightblue" points="605.13,-189.33 594.7,-187.52 601.73,-195.44 605.13,-189.33"/>
</g>
<!-- Node10 -->
<g id="node10" class="node">
<title>Node10</title>
<g id="a_node10"><a xlink:href="abcgVulkanInstance_8hpp.html" target="_top" xlink:title="Header file of abcg::VulkanInstance.">
<polygon fill="none" stroke="black" points="624,-112.5 624,-131.5 758,-131.5 758,-112.5 624,-112.5"/>
<text text-anchor="middle" x="691" y="-119.5" font-family="Helvetica,sans-Serif" font-size="10.00">abcgVulkanInstance.hpp</text>
</a>
</g>
</g>
<!-- Node1&#45;&gt;Node10 -->
<g id="edge12" class="edge">
<title>Node1&#45;&gt;Node10</title>
<path fill="none" stroke="midnightblue" d="M379.55,-401.56C505.29,-391.6 734,-363.52 734,-291 734,-291 734,-291 734,-233 734,-198.31 715.22,-161.42 702.48,-140.4"/>
<polygon fill="midnightblue" stroke="midnightblue" points="705.27,-138.27 696.98,-131.67 699.35,-142 705.27,-138.27"/>
</g>
<!-- Node11 -->
<g id="node11" class="node">
<title>Node11</title>
<g id="a_node11"><a xlink:href="abcgVulkanSwapchain_8hpp.html" target="_top" xlink:title="Header file of abcg::VulkanSwapchain.">
<polygon fill="none" stroke="black" points="354,-336.5 354,-355.5 500,-355.5 500,-336.5 354,-336.5"/>
<text text-anchor="middle" x="427" y="-343.5" font-family="Helvetica,sans-Serif" font-size="10.00">abcgVulkanSwapchain.hpp</text>
</a>
</g>
</g>
<!-- Node1&#45;&gt;Node11 -->
<g id="edge14" class="edge">
<title>Node1&#45;&gt;Node11</title>
<path fill="none" stroke="midnightblue" d="M329.33,-392.4C350.52,-382.55 378.59,-369.5 399.2,-359.92"/>
<polygon fill="midnightblue" stroke="midnightblue" points="400.78,-363.05 408.37,-355.66 397.83,-356.7 400.78,-363.05"/>
</g>
<!-- Node16 -->
<g id="node16" class="node">
<title>Node16</title>
<g id="a_node16"><a xlink:href="abcgWindow_8hpp.html" target="_top" xlink:title="Header file of abcg::Window.">
<polygon fill="none" stroke="black" points="171.5,-336.5 171.5,-355.5 270.5,-355.5 270.5,-336.5 171.5,-336.5"/>
<text text-anchor="middle" x="221" y="-343.5" font-family="Helvetica,sans-Serif" font-size="10.00">abcgWindow.hpp</text>
</a>
</g>
</g>
<!-- Node1&#45;&gt;Node16 -->
<g id="edge21" class="edge">
<title>Node1&#45;&gt;Node16</title>
<path fill="none" stroke="midnightblue" d="M280.52,-392.4C268.48,-383.22 252.8,-371.26 240.56,-361.92"/>
<polygon fill="midnightblue" stroke="midnightblue" points="242.42,-358.94 232.35,-355.66 238.18,-364.51 242.42,-358.94"/>
</g>
<!-- Node5 -->
<g id="node5" class="node">
<title>Node5</title>
<g id="a_node5"><a xlink:href="abcgVulkanExternal_8hpp.html" target="_top" xlink:title="Header file for including Vulkan&#45;related dependencies.">
<polygon fill="none" stroke="black" points="455,-56.5 455,-75.5 589,-75.5 589,-56.5 455,-56.5"/>
<text text-anchor="middle" x="522" y="-63.5" font-family="Helvetica,sans-Serif" font-size="10.00">abcgVulkanExternal.hpp</text>
</a>
</g>
</g>
<!-- Node4&#45;&gt;Node5 -->
<g id="edge4" class="edge">
<title>Node4&#45;&gt;Node5</title>
<path fill="none" stroke="midnightblue" d="M367.76,-224.08C394.09,-197.27 472.72,-117.19 506.4,-82.89"/>
<polygon fill="midnightblue" stroke="midnightblue" points="509.08,-85.16 513.59,-75.57 504.08,-80.25 509.08,-85.16"/>
</g>
<!-- Node4&#45;&gt;Node8 -->
<g id="edge7" class="edge">
<title>Node4&#45;&gt;Node8</title>
<path fill="none" stroke="midnightblue" d="M393.7,-224.44C431.58,-215.1 492.35,-200.12 533.66,-189.93"/>
<polygon fill="midnightblue" stroke="midnightblue" points="534.59,-193.31 543.46,-187.52 532.91,-186.51 534.59,-193.31"/>
</g>
<!-- Node6 -->
<g id="node6" class="node">
<title>Node6</title>
<g id="a_node6"><a xlink:title=" ">
<polygon fill="none" stroke="#bfbfbf" points="451.5,-0.5 451.5,-19.5 498.5,-19.5 498.5,-0.5 451.5,-0.5"/>
<text text-anchor="middle" x="475" y="-7.5" font-family="Helvetica,sans-Serif" font-size="10.00">volk.h</text>
</a>
</g>
</g>
<!-- Node5&#45;&gt;Node6 -->
<g id="edge5" class="edge">
<title>Node5&#45;&gt;Node6</title>
<path fill="none" stroke="midnightblue" d="M514.24,-56.08C507.46,-48.3 497.46,-36.8 489.24,-27.37"/>
<polygon fill="midnightblue" stroke="midnightblue" points="491.82,-25 482.62,-19.75 486.54,-29.59 491.82,-25"/>
</g>
<!-- Node7 -->
<g id="node7" class="node">
<title>Node7</title>
<g id="a_node7"><a xlink:title=" ">
<polygon fill="none" stroke="#bfbfbf" points="516.5,-0.5 516.5,-19.5 621.5,-19.5 621.5,-0.5 516.5,-0.5"/>
<text text-anchor="middle" x="569" y="-7.5" font-family="Helvetica,sans-Serif" font-size="10.00">vulkan/vulkan.hpp</text>
</a>
</g>
</g>
<!-- Node5&#45;&gt;Node7 -->
<g id="edge6" class="edge">
<title>Node5&#45;&gt;Node7</title>
<path fill="none" stroke="midnightblue" d="M529.76,-56.08C536.54,-48.3 546.54,-36.8 554.76,-27.37"/>
<polygon fill="midnightblue" stroke="midnightblue" points="557.46,-29.59 561.38,-19.75 552.18,-25 557.46,-29.59"/>
</g>
<!-- Node8&#45;&gt;Node5 -->
<g id="edge9" class="edge">
<title>Node8&#45;&gt;Node5</title>
<path fill="none" stroke="midnightblue" d="M569.17,-168.48C560.81,-159.96 548.47,-146.13 541,-132 533.27,-117.38 528.3,-99.21 525.39,-85.8"/>
<polygon fill="midnightblue" stroke="midnightblue" points="528.79,-84.97 523.41,-75.84 521.93,-86.33 528.79,-84.97"/>
</g>
<!-- Node9 -->
<g id="node9" class="node">
<title>Node9</title>
<g id="a_node9"><a xlink:title=" ">
<polygon fill="none" stroke="#bfbfbf" points="550,-112.5 550,-131.5 606,-131.5 606,-112.5 550,-112.5"/>
<text text-anchor="middle" x="578" y="-119.5" font-family="Helvetica,sans-Serif" font-size="10.00">optional</text>
</a>
</g>
</g>
<!-- Node8&#45;&gt;Node9 -->
<g id="edge8" class="edge">
<title>Node8&#45;&gt;Node9</title>
<path fill="none" stroke="midnightblue" d="M578,-168.08C578,-161.01 578,-150.86 578,-141.99"/>
<polygon fill="midnightblue" stroke="midnightblue" points="581.5,-141.75 578,-131.75 574.5,-141.75 581.5,-141.75"/>
</g>
<!-- Node8&#45;&gt;Node10 -->
<g id="edge10" class="edge">
<title>Node8&#45;&gt;Node10</title>
<path fill="none" stroke="midnightblue" d="M595.91,-168.44C614.25,-159.68 643.01,-145.94 664.09,-135.86"/>
<polygon fill="midnightblue" stroke="midnightblue" points="665.67,-138.99 673.18,-131.52 662.65,-132.67 665.67,-138.99"/>
</g>
<!-- Node10&#45;&gt;Node5 -->
<g id="edge11" class="edge">
<title>Node10&#45;&gt;Node5</title>
<path fill="none" stroke="midnightblue" d="M664.22,-112.44C635.67,-103.32 590.27,-88.81 558.46,-78.65"/>
<polygon fill="midnightblue" stroke="midnightblue" points="559.24,-75.23 548.65,-75.52 557.11,-81.89 559.24,-75.23"/>
</g>
<!-- Node11&#45;&gt;Node4 -->
<g id="edge17" class="edge">
<title>Node11&#45;&gt;Node4</title>
<path fill="none" stroke="midnightblue" d="M401.84,-336.38C385.58,-329.34 365.71,-317.65 356,-300 348.18,-285.79 350.08,-267.06 353.25,-253.37"/>
<polygon fill="midnightblue" stroke="midnightblue" points="356.65,-254.21 355.91,-243.64 349.9,-252.36 356.65,-254.21"/>
</g>
<!-- Node12 -->
<g id="node12" class="node">
<title>Node12</title>
<g id="a_node12"><a xlink:title=" ">
<polygon fill="none" stroke="#bfbfbf" points="507.5,-280.5 507.5,-299.5 572.5,-299.5 572.5,-280.5 507.5,-280.5"/>
<text text-anchor="middle" x="540" y="-287.5" font-family="Helvetica,sans-Serif" font-size="10.00">functional</text>
</a>
</g>
</g>
<!-- Node11&#45;&gt;Node12 -->
<g id="edge15" class="edge">
<title>Node11&#45;&gt;Node12</title>
<path fill="none" stroke="midnightblue" d="M444.91,-336.44C463.25,-327.68 492.01,-313.94 513.09,-303.86"/>
<polygon fill="midnightblue" stroke="midnightblue" points="514.67,-306.99 522.18,-299.52 511.65,-300.67 514.67,-306.99"/>
</g>
<!-- Node13 -->
<g id="node13" class="node">
<title>Node13</title>
<g id="a_node13"><a xlink:title=" ">
<polygon fill="none" stroke="#bfbfbf" points="590.5,-280.5 590.5,-299.5 667.5,-299.5 667.5,-280.5 590.5,-280.5"/>
<text text-anchor="middle" x="629" y="-287.5" font-family="Helvetica,sans-Serif" font-size="10.00">glm/fwd.hpp</text>
</a>
</g>
</g>
<!-- Node11&#45;&gt;Node13 -->
<g id="edge16" class="edge">
<title>Node11&#45;&gt;Node13</title>
<path fill="none" stroke="midnightblue" d="M459.01,-336.44C493.73,-327.16 549.29,-312.31 587.38,-302.13"/>
<polygon fill="midnightblue" stroke="midnightblue" points="588.39,-305.48 597.14,-299.52 586.58,-298.72 588.39,-305.48"/>
</g>
<!-- Node14 -->
<g id="node14" class="node">
<title>Node14</title>
<g id="a_node14"><a xlink:href="abcgVulkanImage_8hpp.html" target="_top" xlink:title="Header file of abcg::VulkanImage.">
<polygon fill="none" stroke="black" points="365,-280.5 365,-299.5 489,-299.5 489,-280.5 365,-280.5"/>
<text text-anchor="middle" x="427" y="-287.5" font-family="Helvetica,sans-Serif" font-size="10.00">abcgVulkanImage.hpp</text>
</a>
</g>
</g>
<!-- Node11&#45;&gt;Node14 -->
<g id="edge18" class="edge">
<title>Node11&#45;&gt;Node14</title>
<path fill="none" stroke="midnightblue" d="M427,-336.08C427,-329.01 427,-318.86 427,-309.99"/>
<polygon fill="midnightblue" stroke="midnightblue" points="430.5,-309.75 427,-299.75 423.5,-309.75 430.5,-309.75"/>
</g>
<!-- Node14&#45;&gt;Node4 -->
<g id="edge19" class="edge">
<title>Node14&#45;&gt;Node4</title>
<path fill="none" stroke="midnightblue" d="M416.07,-280.32C405.83,-272.18 390.28,-259.84 378,-250.09"/>
<polygon fill="midnightblue" stroke="midnightblue" points="380.13,-247.31 370.12,-243.83 375.78,-252.79 380.13,-247.31"/>
</g>
<!-- Node15 -->
<g id="node15" class="node">
<title>Node15</title>
<g id="a_node15"><a xlink:title=" ">
<polygon fill="none" stroke="#bfbfbf" points="441,-224.5 441,-243.5 515,-243.5 515,-224.5 441,-224.5"/>
<text text-anchor="middle" x="478" y="-231.5" font-family="Helvetica,sans-Serif" font-size="10.00">gsl/pointers</text>
</a>
</g>
</g>
<!-- Node14&#45;&gt;Node15 -->
<g id="edge20" class="edge">
<title>Node14&#45;&gt;Node15</title>
<path fill="none" stroke="midnightblue" d="M435.42,-280.08C442.85,-272.22 453.85,-260.57 462.81,-251.08"/>
<polygon fill="midnightblue" stroke="midnightblue" points="465.41,-253.42 469.74,-243.75 460.32,-248.62 465.41,-253.42"/>
</g>
<!-- Node16&#45;&gt;Node3 -->
<g id="edge22" class="edge">
<title>Node16&#45;&gt;Node3</title>
<path fill="none" stroke="midnightblue" d="M188.42,-336.49C156.52,-328.11 106.29,-314.78 54.1,-300.27"/>
<polygon fill="midnightblue" stroke="midnightblue" points="54.91,-296.86 44.34,-297.54 53.03,-303.6 54.91,-296.86"/>
</g>
<!-- Node17 -->
<g id="node17" class="node">
<title>Node17</title>
<g id="a_node17"><a xlink:href="abcgExternal_8hpp.html" target="_top" xlink:title="Header file for including third&#45;party dependencies.">
<polygon fill="none" stroke="black" points="62.5,-280.5 62.5,-299.5 163.5,-299.5 163.5,-280.5 62.5,-280.5"/>
<text text-anchor="middle" x="113" y="-287.5" font-family="Helvetica,sans-Serif" font-size="10.00">abcgExternal.hpp</text>
</a>
</g>
</g>
<!-- Node16&#45;&gt;Node17 -->
<g id="edge23" class="edge">
<title>Node16&#45;&gt;Node17</title>
<path fill="none" stroke="midnightblue" d="M203.65,-336.32C186.33,-327.66 159.48,-314.24 139.5,-304.25"/>
<polygon fill="midnightblue" stroke="midnightblue" points="140.82,-301 130.31,-299.65 137.69,-307.26 140.82,-301"/>
</g>
<!-- Node18 -->
<g id="node18" class="node">
<title>Node18</title>
<g id="a_node18"><a xlink:href="abcgTimer_8hpp.html" target="_top" xlink:title="Header file of abcg::Timer.">
<polygon fill="none" stroke="black" points="181.5,-280.5 181.5,-299.5 270.5,-299.5 270.5,-280.5 181.5,-280.5"/>
<text text-anchor="middle" x="226" y="-287.5" font-family="Helvetica,sans-Serif" font-size="10.00">abcgTimer.hpp</text>
</a>
</g>
</g>
<!-- Node16&#45;&gt;Node18 -->
<g id="edge24" class="edge">
<title>Node16&#45;&gt;Node18</title>
<path fill="none" stroke="midnightblue" d="M221.83,-336.08C222.48,-329.01 223.42,-318.86 224.24,-309.99"/>
<polygon fill="midnightblue" stroke="midnightblue" points="227.75,-310.03 225.19,-299.75 220.78,-309.39 227.75,-310.03"/>
</g>
<!-- Node19 -->
<g id="node19" class="node">
<title>Node19</title>
<g id="a_node19"><a xlink:title=" ">
<polygon fill="none" stroke="#bfbfbf" points="201,-224.5 201,-243.5 251,-243.5 251,-224.5 201,-224.5"/>
<text text-anchor="middle" x="226" y="-231.5" font-family="Helvetica,sans-Serif" font-size="10.00">chrono</text>
</a>
</g>
</g>
<!-- Node18&#45;&gt;Node19 -->
<g id="edge25" class="edge">
<title>Node18&#45;&gt;Node19</title>
<path fill="none" stroke="midnightblue" d="M226,-280.08C226,-273.01 226,-262.86 226,-253.99"/>
<polygon fill="midnightblue" stroke="midnightblue" points="229.5,-253.75 226,-243.75 222.5,-253.75 229.5,-253.75"/>
</g>
</g>
</svg>
