<?xml version="1.0" encoding="UTF-8" standalone="no"?>
<!DOCTYPE svg PUBLIC "-//W3C//DTD SVG 1.1//EN"
 "http://www.w3.org/Graphics/SVG/1.1/DTD/svg11.dtd">
<!-- Generated by graphviz version 2.43.0 (0)
 -->
<!-- Title: /home/harlen/dev/abcg/abcg/abcgTimer.hpp Pages: 1 -->
<svg width="1036pt" height="307pt"
 viewBox="0.00 0.00 1035.50 307.00" xmlns="http://www.w3.org/2000/svg" xmlns:xlink="http://www.w3.org/1999/xlink">
<g id="graph0" class="graph" transform="scale(1 1) rotate(0) translate(4 303)">
<title>/home/harlen/dev/abcg/abcg/abcgTimer.hpp</title>
<!-- Node1 -->
<g id="node1" class="node">
<title>Node1</title>
<g id="a_node1"><a xlink:title="Header file of abcg::Timer.">
<polygon fill="#bfbfbf" stroke="black" points="372,-268.5 372,-298.5 500,-298.5 500,-268.5 372,-268.5"/>
<text text-anchor="start" x="380" y="-286.5" font-family="Helvetica,sans-Serif" font-size="10.00">/home/harlen/dev/abcg</text>
<text text-anchor="middle" x="436" y="-275.5" font-family="Helvetica,sans-Serif" font-size="10.00">/abcg/abcgTimer.hpp</text>
</a>
</g>
</g>
<!-- Node2 -->
<g id="node2" class="node">
<title>Node2</title>
<g id="a_node2"><a xlink:href="abcgTimer_8cpp.html" target="_top" xlink:title="Definition of abcg::Timer members.">
<polygon fill="none" stroke="black" points="226,-201.5 226,-231.5 354,-231.5 354,-201.5 226,-201.5"/>
<text text-anchor="start" x="234" y="-219.5" font-family="Helvetica,sans-Serif" font-size="10.00">/home/harlen/dev/abcg</text>
<text text-anchor="middle" x="290" y="-208.5" font-family="Helvetica,sans-Serif" font-size="10.00">/abcg/abcgTimer.cpp</text>
</a>
</g>
</g>
<!-- Node1&#45;&gt;Node2 -->
<g id="edge1" class="edge">
<title>Node1&#45;&gt;Node2</title>
<path fill="none" stroke="midnightblue" d="M395.05,-264.27C371.8,-253.92 343.13,-241.15 321.62,-231.58"/>
<polygon fill="midnightblue" stroke="midnightblue" points="393.76,-267.53 404.32,-268.4 396.61,-261.13 393.76,-267.53"/>
</g>
<!-- Node3 -->
<g id="node3" class="node">
<title>Node3</title>
<g id="a_node3"><a xlink:href="abcgTrackball_8hpp.html" target="_top" xlink:title="Header file of abcg::TrackBall.">
<polygon fill="none" stroke="black" points="745,-201.5 745,-231.5 879,-231.5 879,-201.5 745,-201.5"/>
<text text-anchor="start" x="753" y="-219.5" font-family="Helvetica,sans-Serif" font-size="10.00">/home/harlen/dev/abcg</text>
<text text-anchor="middle" x="812" y="-208.5" font-family="Helvetica,sans-Serif" font-size="10.00">/abcg/abcgTrackball.hpp</text>
</a>
</g>
</g>
<!-- Node1&#45;&gt;Node3 -->
<g id="edge2" class="edge">
<title>Node1&#45;&gt;Node3</title>
<path fill="none" stroke="midnightblue" d="M510.47,-269.63C578.76,-257.82 679.01,-240.49 744.89,-229.1"/>
<polygon fill="midnightblue" stroke="midnightblue" points="509.47,-266.25 500.21,-271.4 510.66,-273.15 509.47,-266.25"/>
</g>
<!-- Node9 -->
<g id="node9" class="node">
<title>Node9</title>
<g id="a_node9"><a xlink:href="abcgWindow_8hpp.html" target="_top" xlink:title="Header file of abcg::Window.">
<polygon fill="none" stroke="black" points="372,-201.5 372,-231.5 500,-231.5 500,-201.5 372,-201.5"/>
<text text-anchor="start" x="380" y="-219.5" font-family="Helvetica,sans-Serif" font-size="10.00">/home/harlen/dev/abcg</text>
<text text-anchor="middle" x="436" y="-208.5" font-family="Helvetica,sans-Serif" font-size="10.00">/abcg/abcgWindow.hpp</text>
</a>
</g>
</g>
<!-- Node1&#45;&gt;Node9 -->
<g id="edge8" class="edge">
<title>Node1&#45;&gt;Node9</title>
<path fill="none" stroke="midnightblue" d="M436,-258.11C436,-249.15 436,-239.32 436,-231.58"/>
<polygon fill="midnightblue" stroke="midnightblue" points="432.5,-258.4 436,-268.4 439.5,-258.4 432.5,-258.4"/>
</g>
<!-- Node4 -->
<g id="node4" class="node">
<title>Node4</title>
<g id="a_node4"><a xlink:href="abcg_8hpp.html" target="_top" xlink:title="Shortcut header that includes the most common ABCg headers.">
<polygon fill="none" stroke="black" points="748,-134.5 748,-164.5 876,-164.5 876,-134.5 748,-134.5"/>
<text text-anchor="start" x="756" y="-152.5" font-family="Helvetica,sans-Serif" font-size="10.00">/home/harlen/dev/abcg</text>
<text text-anchor="middle" x="812" y="-141.5" font-family="Helvetica,sans-Serif" font-size="10.00">/abcg/abcg.hpp</text>
</a>
</g>
</g>
<!-- Node3&#45;&gt;Node4 -->
<g id="edge3" class="edge">
<title>Node3&#45;&gt;Node4</title>
<path fill="none" stroke="midnightblue" d="M812,-191.11C812,-182.15 812,-172.32 812,-164.58"/>
<polygon fill="midnightblue" stroke="midnightblue" points="808.5,-191.4 812,-201.4 815.5,-191.4 808.5,-191.4"/>
</g>
<!-- Node8 -->
<g id="node8" class="node">
<title>Node8</title>
<g id="a_node8"><a xlink:href="abcgTrackball_8cpp.html" target="_top" xlink:title="Definition of abcg::TrackBall members.">
<polygon fill="none" stroke="black" points="894.5,-134.5 894.5,-164.5 1027.5,-164.5 1027.5,-134.5 894.5,-134.5"/>
<text text-anchor="start" x="902.5" y="-152.5" font-family="Helvetica,sans-Serif" font-size="10.00">/home/harlen/dev/abcg</text>
<text text-anchor="middle" x="961" y="-141.5" font-family="Helvetica,sans-Serif" font-size="10.00">/abcg/abcgTrackball.cpp</text>
</a>
</g>
</g>
<!-- Node3&#45;&gt;Node8 -->
<g id="edge7" class="edge">
<title>Node3&#45;&gt;Node8</title>
<path fill="none" stroke="midnightblue" d="M853.79,-197.27C877.52,-186.92 906.78,-174.15 928.73,-164.58"/>
<polygon fill="midnightblue" stroke="midnightblue" points="852.1,-194.19 844.33,-201.4 854.9,-200.61 852.1,-194.19"/>
</g>
<!-- Node5 -->
<g id="node5" class="node">
<title>Node5</title>
<g id="a_node5"><a xlink:href="abcgOpenGL_8hpp.html" target="_top" xlink:title="Header file for OpenGL&#45;related functions and classes.">
<polygon fill="none" stroke="black" points="748,-67.5 748,-97.5 876,-97.5 876,-67.5 748,-67.5"/>
<text text-anchor="start" x="756" y="-85.5" font-family="Helvetica,sans-Serif" font-size="10.00">/home/harlen/dev/abcg</text>
<text text-anchor="middle" x="812" y="-74.5" font-family="Helvetica,sans-Serif" font-size="10.00">/abcg/abcgOpenGL.hpp</text>
</a>
</g>
</g>
<!-- Node4&#45;&gt;Node5 -->
<g id="edge4" class="edge">
<title>Node4&#45;&gt;Node5</title>
<path fill="none" stroke="midnightblue" d="M812,-124.11C812,-115.15 812,-105.32 812,-97.58"/>
<polygon fill="midnightblue" stroke="midnightblue" points="808.5,-124.4 812,-134.4 815.5,-124.4 808.5,-124.4"/>
</g>
<!-- Node6 -->
<g id="node6" class="node">
<title>Node6</title>
<g id="a_node6"><a xlink:href="abcgVulkan_8hpp.html" target="_top" xlink:title="Header file for Vulkan&#45;related functions and classes.">
<polygon fill="none" stroke="black" points="602,-67.5 602,-97.5 730,-97.5 730,-67.5 602,-67.5"/>
<text text-anchor="start" x="610" y="-85.5" font-family="Helvetica,sans-Serif" font-size="10.00">/home/harlen/dev/abcg</text>
<text text-anchor="middle" x="666" y="-74.5" font-family="Helvetica,sans-Serif" font-size="10.00">/abcg/abcgVulkan.hpp</text>
</a>
</g>
</g>
<!-- Node4&#45;&gt;Node6 -->
<g id="edge5" class="edge">
<title>Node4&#45;&gt;Node6</title>
<path fill="none" stroke="midnightblue" d="M771.05,-130.27C747.8,-119.92 719.13,-107.15 697.62,-97.58"/>
<polygon fill="midnightblue" stroke="midnightblue" points="769.76,-133.53 780.32,-134.4 772.61,-127.13 769.76,-133.53"/>
</g>
<!-- Node7 -->
<g id="node7" class="node">
<title>Node7</title>
<g id="a_node7"><a xlink:href="abcgVulkanInstance_8cpp.html" target="_top" xlink:title="Definition of abcg::VulkanInstance.">
<polygon fill="none" stroke="black" points="584.5,-0.5 584.5,-30.5 747.5,-30.5 747.5,-0.5 584.5,-0.5"/>
<text text-anchor="start" x="592.5" y="-18.5" font-family="Helvetica,sans-Serif" font-size="10.00">/home/harlen/dev/abcg</text>
<text text-anchor="middle" x="666" y="-7.5" font-family="Helvetica,sans-Serif" font-size="10.00">/abcg/abcgVulkanInstance.cpp</text>
</a>
</g>
</g>
<!-- Node6&#45;&gt;Node7 -->
<g id="edge6" class="edge">
<title>Node6&#45;&gt;Node7</title>
<path fill="none" stroke="midnightblue" d="M666,-57.11C666,-48.15 666,-38.32 666,-30.58"/>
<polygon fill="midnightblue" stroke="midnightblue" points="662.5,-57.4 666,-67.4 669.5,-57.4 662.5,-57.4"/>
</g>
<!-- Node9&#45;&gt;Node4 -->
<g id="edge9" class="edge">
<title>Node9&#45;&gt;Node4</title>
<path fill="none" stroke="midnightblue" d="M510.22,-203.79C571.63,-193.94 661.1,-179.22 739,-165 741.92,-164.47 744.91,-163.91 747.93,-163.34"/>
<polygon fill="midnightblue" stroke="midnightblue" points="509.56,-200.35 500.23,-205.39 510.66,-207.26 509.56,-200.35"/>
</g>
<!-- Node10 -->
<g id="node10" class="node">
<title>Node10</title>
<g id="a_node10"><a xlink:href="abcgApplication_8cpp.html" target="_top" xlink:title="Definition of abcg::Application members.">
<polygon fill="none" stroke="black" points="0,-134.5 0,-164.5 144,-164.5 144,-134.5 0,-134.5"/>
<text text-anchor="start" x="8" y="-152.5" font-family="Helvetica,sans-Serif" font-size="10.00">/home/harlen/dev/abcg</text>
<text text-anchor="middle" x="72" y="-141.5" font-family="Helvetica,sans-Serif" font-size="10.00">/abcg/abcgApplication.cpp</text>
</a>
</g>
</g>
<!-- Node9&#45;&gt;Node10 -->
<g id="edge10" class="edge">
<title>Node9&#45;&gt;Node10</title>
<path fill="none" stroke="midnightblue" d="M361.95,-200.84C308.99,-191.13 211.65,-174.37 144.04,-162.8"/>
<polygon fill="midnightblue" stroke="midnightblue" points="361.45,-204.31 371.92,-202.68 362.73,-197.42 361.45,-204.31"/>
</g>
<!-- Node11 -->
<g id="node11" class="node">
<title>Node11</title>
<g id="a_node11"><a xlink:href="abcgOpenGLWindow_8cpp.html" target="_top" xlink:title="Definition of abcg::OpenGLWindow members.">
<polygon fill="none" stroke="black" points="418.5,-67.5 418.5,-97.5 583.5,-97.5 583.5,-67.5 418.5,-67.5"/>
<text text-anchor="start" x="426.5" y="-85.5" font-family="Helvetica,sans-Serif" font-size="10.00">/home/harlen/dev/abcg</text>
<text text-anchor="middle" x="501" y="-74.5" font-family="Helvetica,sans-Serif" font-size="10.00">/abcg/abcgOpenGLWindow.cpp</text>
</a>
</g>
</g>
<!-- Node9&#45;&gt;Node11 -->
<g id="edge11" class="edge">
<title>Node9&#45;&gt;Node11</title>
<path fill="none" stroke="midnightblue" d="M418.61,-192.76C407.9,-175.77 398.11,-152.4 409,-134 419.02,-117.07 436.96,-105.43 454.36,-97.64"/>
<polygon fill="midnightblue" stroke="midnightblue" points="416.02,-195.17 424.54,-201.47 421.81,-191.23 416.02,-195.17"/>
</g>
<!-- Node12 -->
<g id="node12" class="node">
<title>Node12</title>
<g id="a_node12"><a xlink:href="abcgOpenGLWindow_8hpp.html" target="_top" xlink:title="Header file of abcg::OpenGLWindow.">
<polygon fill="none" stroke="black" points="564,-134.5 564,-164.5 730,-164.5 730,-134.5 564,-134.5"/>
<text text-anchor="start" x="572" y="-152.5" font-family="Helvetica,sans-Serif" font-size="10.00">/home/harlen/dev/abcg</text>
<text text-anchor="middle" x="647" y="-141.5" font-family="Helvetica,sans-Serif" font-size="10.00">/abcg/abcgOpenGLWindow.hpp</text>
</a>
</g>
</g>
<!-- Node9&#45;&gt;Node12 -->
<g id="edge12" class="edge">
<title>Node9&#45;&gt;Node12</title>
<path fill="none" stroke="midnightblue" d="M491.37,-198.44C525.57,-187.91 568.93,-174.55 601.19,-164.61"/>
<polygon fill="midnightblue" stroke="midnightblue" points="490.05,-195.19 481.52,-201.48 492.11,-201.88 490.05,-195.19"/>
</g>
<!-- Node13 -->
<g id="node13" class="node">
<title>Node13</title>
<g id="a_node13"><a xlink:href="abcgVulkanWindow_8cpp.html" target="_top" xlink:title="Definition of abcg::VulkanWindow members.">
<polygon fill="none" stroke="black" points="48,-67.5 48,-97.5 208,-97.5 208,-67.5 48,-67.5"/>
<text text-anchor="start" x="56" y="-85.5" font-family="Helvetica,sans-Serif" font-size="10.00">/home/harlen/dev/abcg</text>
<text text-anchor="middle" x="128" y="-74.5" font-family="Helvetica,sans-Serif" font-size="10.00">/abcg/abcgVulkanWindow.cpp</text>
</a>
</g>
</g>
<!-- Node9&#45;&gt;Node13 -->
<g id="edge15" class="edge">
<title>Node9&#45;&gt;Node13</title>
<path fill="none" stroke="midnightblue" d="M362.08,-200.58C290.63,-186.11 192.87,-166.17 191,-165 164.3,-148.33 144.53,-116.06 134.79,-97.52"/>
<polygon fill="midnightblue" stroke="midnightblue" points="361.48,-204.03 371.97,-202.58 362.87,-197.17 361.48,-204.03"/>
</g>
<!-- Node14 -->
<g id="node14" class="node">
<title>Node14</title>
<g id="a_node14"><a xlink:href="abcgVulkanWindow_8hpp.html" target="_top" xlink:title="Header file of abcg::VulkanWindow.">
<polygon fill="none" stroke="black" points="200.5,-134.5 200.5,-164.5 361.5,-164.5 361.5,-134.5 200.5,-134.5"/>
<text text-anchor="start" x="208.5" y="-152.5" font-family="Helvetica,sans-Serif" font-size="10.00">/home/harlen/dev/abcg</text>
<text text-anchor="middle" x="281" y="-141.5" font-family="Helvetica,sans-Serif" font-size="10.00">/abcg/abcgVulkanWindow.hpp</text>
</a>
</g>
</g>
<!-- Node9&#45;&gt;Node14 -->
<g id="edge16" class="edge">
<title>Node9&#45;&gt;Node14</title>
<path fill="none" stroke="midnightblue" d="M392.85,-197.41C368.11,-187.03 337.5,-174.2 314.57,-164.58"/>
<polygon fill="midnightblue" stroke="midnightblue" points="391.79,-200.76 402.37,-201.4 394.5,-194.3 391.79,-200.76"/>
</g>
<!-- Node16 -->
<g id="node16" class="node">
<title>Node16</title>
<g id="a_node16"><a xlink:href="abcgWindow_8cpp.html" target="_top" xlink:title="Definition of abcg::Window members.">
<polygon fill="none" stroke="black" points="418,-134.5 418,-164.5 546,-164.5 546,-134.5 418,-134.5"/>
<text text-anchor="start" x="426" y="-152.5" font-family="Helvetica,sans-Serif" font-size="10.00">/home/harlen/dev/abcg</text>
<text text-anchor="middle" x="482" y="-141.5" font-family="Helvetica,sans-Serif" font-size="10.00">/abcg/abcgWindow.cpp</text>
</a>
</g>
</g>
<!-- Node9&#45;&gt;Node16 -->
<g id="edge20" class="edge">
<title>Node9&#45;&gt;Node16</title>
<path fill="none" stroke="midnightblue" d="M451.81,-193.16C458.52,-183.68 466.13,-172.92 472.04,-164.58"/>
<polygon fill="midnightblue" stroke="midnightblue" points="448.9,-191.21 445.98,-201.4 454.62,-195.26 448.9,-191.21"/>
</g>
<!-- Node12&#45;&gt;Node5 -->
<g id="edge13" class="edge">
<title>Node12&#45;&gt;Node5</title>
<path fill="none" stroke="midnightblue" d="M692.23,-130.68C718.69,-120.26 751.63,-107.28 776.27,-97.58"/>
<polygon fill="midnightblue" stroke="midnightblue" points="690.82,-127.47 682.8,-134.4 693.39,-133.99 690.82,-127.47"/>
</g>
<!-- Node12&#45;&gt;Node11 -->
<g id="edge14" class="edge">
<title>Node12&#45;&gt;Node11</title>
<path fill="none" stroke="midnightblue" d="M606.05,-130.27C582.8,-119.92 554.13,-107.15 532.62,-97.58"/>
<polygon fill="midnightblue" stroke="midnightblue" points="604.76,-133.53 615.32,-134.4 607.61,-127.13 604.76,-133.53"/>
</g>
<!-- Node14&#45;&gt;Node6 -->
<g id="edge17" class="edge">
<title>Node14&#45;&gt;Node6</title>
<path fill="none" stroke="midnightblue" d="M371.81,-134.68C434.14,-124.97 518.7,-111.39 593,-98 595.92,-97.47 598.91,-96.92 601.93,-96.36"/>
<polygon fill="midnightblue" stroke="midnightblue" points="370.96,-131.27 361.62,-136.26 372.03,-138.18 370.96,-131.27"/>
</g>
<!-- Node14&#45;&gt;Node13 -->
<g id="edge19" class="edge">
<title>Node14&#45;&gt;Node13</title>
<path fill="none" stroke="midnightblue" d="M238.41,-130.41C213.98,-120.03 183.78,-107.2 161.13,-97.58"/>
<polygon fill="midnightblue" stroke="midnightblue" points="237.23,-133.71 247.8,-134.4 239.97,-127.26 237.23,-133.71"/>
</g>
<!-- Node15 -->
<g id="node15" class="node">
<title>Node15</title>
<g id="a_node15"><a xlink:href="abcgVulkanSwapchain_8cpp.html" target="_top" xlink:title="Definition of abcg::VulkanSwapchain.">
<polygon fill="none" stroke="black" points="226,-67.5 226,-97.5 400,-97.5 400,-67.5 226,-67.5"/>
<text text-anchor="start" x="234" y="-85.5" font-family="Helvetica,sans-Serif" font-size="10.00">/home/harlen/dev/abcg</text>
<text text-anchor="middle" x="313" y="-74.5" font-family="Helvetica,sans-Serif" font-size="10.00">/abcg/abcgVulkanSwapchain.cpp</text>
</a>
</g>
</g>
<!-- Node14&#45;&gt;Node15 -->
<g id="edge18" class="edge">
<title>Node14&#45;&gt;Node15</title>
<path fill="none" stroke="midnightblue" d="M292.43,-125.28C296.99,-116.02 302.09,-105.66 306.07,-97.58"/>
<polygon fill="midnightblue" stroke="midnightblue" points="289.22,-123.88 287.94,-134.4 295.5,-126.97 289.22,-123.88"/>
</g>
</g>
</svg>
