<?xml version="1.0" encoding="UTF-8" standalone="no"?>
<!DOCTYPE svg PUBLIC "-//W3C//DTD SVG 1.1//EN"
 "http://www.w3.org/Graphics/SVG/1.1/DTD/svg11.dtd">
<!-- Generated by graphviz version 2.43.0 (0)
 -->
<!-- Title: /home/harlen/dev/abcg/abcg/abcgVulkanWindow.cpp Pages: 1 -->
<svg width="1477pt" height="478pt"
 viewBox="0.00 0.00 1476.50 478.00" xmlns="http://www.w3.org/2000/svg" xmlns:xlink="http://www.w3.org/1999/xlink">
<g id="graph0" class="graph" transform="scale(1 1) rotate(0) translate(4 474)">
<title>/home/harlen/dev/abcg/abcg/abcgVulkanWindow.cpp</title>
<!-- Node1 -->
<g id="Node000001" class="node">
<title>Node1</title>
<g id="a_Node000001"><a xlink:title="Definition of abcg::VulkanWindow members.">
<polygon fill="#999999" stroke="#666666" points="926,-470 766,-470 766,-440 926,-440 926,-470"/>
<text text-anchor="start" x="774" y="-458" font-family="Helvetica,sans-Serif" font-size="10.00">/home/harlen/dev/abcg</text>
<text text-anchor="middle" x="846" y="-447" font-family="Helvetica,sans-Serif" font-size="10.00">/abcg/abcgVulkanWindow.cpp</text>
</a>
</g>
</g>
<!-- Node2 -->
<g id="Node000002" class="node">
<title>Node2</title>
<g id="a_Node000002"><a xlink:href="abcgVulkanWindow_8hpp.html" target="_top" xlink:title="Header file of abcg::VulkanWindow.">
<polygon fill="white" stroke="#666666" points="404.5,-404 273.5,-404 273.5,-385 404.5,-385 404.5,-404"/>
<text text-anchor="middle" x="339" y="-392" font-family="Helvetica,sans-Serif" font-size="10.00">abcgVulkanWindow.hpp</text>
</a>
</g>
</g>
<!-- Node1&#45;&gt;Node2 -->
<g id="edge1_Node000001_Node000002" class="edge">
<title>Node1&#45;&gt;Node2</title>
<g id="a_edge1_Node000001_Node000002"><a xlink:title=" ">
<path fill="none" stroke="#63b8ff" d="M765.94,-444.76C669.56,-433.64 508.91,-415.1 414.57,-404.22"/>
<polygon fill="#63b8ff" stroke="#63b8ff" points="414.86,-400.73 404.53,-403.06 414.06,-407.68 414.86,-400.73"/>
</a>
</g>
</g>
<!-- Node6 -->
<g id="Node000006" class="node">
<title>Node6</title>
<g id="a_Node000006"><a xlink:href="abcgVulkanInstance_8hpp.html" target="_top" xlink:title="Header file of abcg::VulkanInstance.">
<polygon fill="white" stroke="#666666" points="558,-129 424,-129 424,-110 558,-110 558,-129"/>
<text text-anchor="middle" x="491" y="-117" font-family="Helvetica,sans-Serif" font-size="10.00">abcgVulkanInstance.hpp</text>
</a>
</g>
</g>
<!-- Node1&#45;&gt;Node6 -->
<g id="edge40_Node000001_Node000006" class="edge">
<title>Node1&#45;&gt;Node6</title>
<g id="a_edge40_Node000001_Node000006"><a xlink:title=" ">
<path fill="none" stroke="#63b8ff" d="M765.99,-445.33C712.4,-437.75 648.57,-424.65 631,-404 596.8,-363.79 623,-338.29 623,-285.5 623,-285.5 623,-285.5 623,-228.5 623,-179.09 566.92,-148.21 527.87,-132.69"/>
<polygon fill="#63b8ff" stroke="#63b8ff" points="528.94,-129.36 518.35,-129.08 526.46,-135.9 528.94,-129.36"/>
</a>
</g>
</g>
<!-- Node15 -->
<g id="Node000015" class="node">
<title>Node15</title>
<g id="a_Node000015"><a xlink:href="abcgWindow_8hpp.html" target="_top" xlink:title="Header file of abcg::Window.">
<polygon fill="white" stroke="#666666" points="593.5,-349 494.5,-349 494.5,-330 593.5,-330 593.5,-349"/>
<text text-anchor="middle" x="544" y="-337" font-family="Helvetica,sans-Serif" font-size="10.00">abcgWindow.hpp</text>
</a>
</g>
</g>
<!-- Node1&#45;&gt;Node15 -->
<g id="edge41_Node000001_Node000015" class="edge">
<title>Node1&#45;&gt;Node15</title>
<g id="a_edge41_Node000001_Node000015"><a xlink:title=" ">
<path fill="none" stroke="#63b8ff" d="M765.83,-451.17C714.77,-446.27 648.9,-433.99 598,-404 578.98,-392.79 563.45,-372.39 554,-357.73"/>
<polygon fill="#63b8ff" stroke="#63b8ff" points="556.91,-355.78 548.7,-349.08 550.95,-359.44 556.91,-355.78"/>
</a>
</g>
</g>
<!-- Node20 -->
<g id="Node000020" class="node">
<title>Node20</title>
<g id="a_Node000020"><a xlink:title=" ">
<polygon fill="#e0e0e0" stroke="#999999" points="722,-404 640,-404 640,-385 722,-385 722,-404"/>
<text text-anchor="middle" x="681" y="-392" font-family="Helvetica,sans-Serif" font-size="10.00">SDL_vulkan.h</text>
</a>
</g>
</g>
<!-- Node1&#45;&gt;Node20 -->
<g id="edge24_Node000001_Node000020" class="edge">
<title>Node1&#45;&gt;Node20</title>
<g id="a_edge24_Node000001_Node000020"><a xlink:title=" ">
<path fill="none" stroke="#63b8ff" d="M806.48,-439.99C778.58,-430.1 741.59,-416.98 715,-407.56"/>
<polygon fill="#63b8ff" stroke="#63b8ff" points="715.96,-404.18 705.37,-404.14 713.62,-410.78 715.96,-404.18"/>
</a>
</g>
</g>
<!-- Node21 -->
<g id="Node000021" class="node">
<title>Node21</title>
<g id="a_Node000021"><a xlink:title=" ">
<polygon fill="#e0e0e0" stroke="#999999" points="804,-404 740,-404 740,-385 804,-385 804,-404"/>
<text text-anchor="middle" x="772" y="-392" font-family="Helvetica,sans-Serif" font-size="10.00">algorithm</text>
</a>
</g>
</g>
<!-- Node1&#45;&gt;Node21 -->
<g id="edge25_Node000001_Node000021" class="edge">
<title>Node1&#45;&gt;Node21</title>
<g id="a_edge25_Node000001_Node000021"><a xlink:title=" ">
<path fill="none" stroke="#63b8ff" d="M828.09,-439.84C816.91,-431 802.52,-419.63 791.12,-410.62"/>
<polygon fill="#63b8ff" stroke="#63b8ff" points="793.1,-407.72 783.09,-404.27 788.76,-413.21 793.1,-407.72"/>
</a>
</g>
</g>
<!-- Node22 -->
<g id="Node000022" class="node">
<title>Node22</title>
<g id="a_Node000022"><a xlink:title=" ">
<polygon fill="#e0e0e0" stroke="#999999" points="870,-404 822,-404 822,-385 870,-385 870,-404"/>
<text text-anchor="middle" x="846" y="-392" font-family="Helvetica,sans-Serif" font-size="10.00">gsl/gsl</text>
</a>
</g>
</g>
<!-- Node1&#45;&gt;Node22 -->
<g id="edge26_Node000001_Node000022" class="edge">
<title>Node1&#45;&gt;Node22</title>
<g id="a_edge26_Node000001_Node000022"><a xlink:title=" ">
<path fill="none" stroke="#63b8ff" d="M846,-439.84C846,-432.21 846,-422.7 846,-414.45"/>
<polygon fill="#63b8ff" stroke="#63b8ff" points="849.5,-414.27 846,-404.27 842.5,-414.27 849.5,-414.27"/>
</a>
</g>
</g>
<!-- Node23 -->
<g id="Node000023" class="node">
<title>Node23</title>
<g id="a_Node000023"><a xlink:title=" ">
<polygon fill="#e0e0e0" stroke="#999999" points="994,-404 888,-404 888,-385 994,-385 994,-404"/>
<text text-anchor="middle" x="941" y="-392" font-family="Helvetica,sans-Serif" font-size="10.00">imgui_impl_sdl2.h</text>
</a>
</g>
</g>
<!-- Node1&#45;&gt;Node23 -->
<g id="edge27_Node000001_Node000023" class="edge">
<title>Node1&#45;&gt;Node23</title>
<g id="a_edge27_Node000001_Node000023"><a xlink:title=" ">
<path fill="none" stroke="#63b8ff" d="M869,-439.84C884,-430.6 903.5,-418.59 918.43,-409.4"/>
<polygon fill="#63b8ff" stroke="#63b8ff" points="920.36,-412.32 927.04,-404.09 916.69,-406.36 920.36,-412.32"/>
</a>
</g>
</g>
<!-- Node24 -->
<g id="Node000024" class="node">
<title>Node24</title>
<g id="a_Node000024"><a xlink:title=" ">
<polygon fill="#e0e0e0" stroke="#999999" points="1130,-404 1012,-404 1012,-385 1130,-385 1130,-404"/>
<text text-anchor="middle" x="1071" y="-392" font-family="Helvetica,sans-Serif" font-size="10.00">imgui_impl_vulkan.h</text>
</a>
</g>
</g>
<!-- Node1&#45;&gt;Node24 -->
<g id="edge28_Node000001_Node000024" class="edge">
<title>Node1&#45;&gt;Node24</title>
<g id="a_edge28_Node000001_Node000024"><a xlink:title=" ">
<path fill="none" stroke="#63b8ff" d="M899.89,-439.99C939.23,-429.76 991.82,-416.09 1028.27,-406.61"/>
<polygon fill="#63b8ff" stroke="#63b8ff" points="1029.3,-409.96 1038.1,-404.05 1027.54,-403.18 1029.3,-409.96"/>
</a>
</g>
</g>
<!-- Node25 -->
<g id="Node000025" class="node">
<title>Node25</title>
<g id="a_Node000025"><a xlink:href="abcgEmbeddedFonts_8hpp.html" target="_top" xlink:title=" ">
<polygon fill="white" stroke="#666666" points="1287.5,-404 1148.5,-404 1148.5,-385 1287.5,-385 1287.5,-404"/>
<text text-anchor="middle" x="1218" y="-392" font-family="Helvetica,sans-Serif" font-size="10.00">abcgEmbeddedFonts.hpp</text>
</a>
</g>
</g>
<!-- Node1&#45;&gt;Node25 -->
<g id="edge29_Node000001_Node000025" class="edge">
<title>Node1&#45;&gt;Node25</title>
<g id="a_edge29_Node000001_Node000025"><a xlink:title=" ">
<path fill="none" stroke="#63b8ff" d="M926.26,-441.38C994.24,-430.69 1090.44,-415.56 1153.51,-405.64"/>
<polygon fill="#63b8ff" stroke="#63b8ff" points="1154.39,-409.05 1163.72,-404.04 1153.3,-402.13 1154.39,-409.05"/>
</a>
</g>
</g>
<!-- Node27 -->
<g id="Node000027" class="node">
<title>Node27</title>
<g id="a_Node000027"><a xlink:href="abcgException_8hpp.html" target="_top" xlink:title="Header file of abcg::Exception and derived classes.">
<polygon fill="white" stroke="#666666" points="1350.5,-349 1241.5,-349 1241.5,-330 1350.5,-330 1350.5,-349"/>
<text text-anchor="middle" x="1296" y="-337" font-family="Helvetica,sans-Serif" font-size="10.00">abcgException.hpp</text>
</a>
</g>
</g>
<!-- Node1&#45;&gt;Node27 -->
<g id="edge31_Node000001_Node000027" class="edge">
<title>Node1&#45;&gt;Node27</title>
<g id="a_edge31_Node000001_Node000027"><a xlink:title=" ">
<path fill="none" stroke="#63b8ff" d="M926.22,-450.81C1049.21,-445.09 1272.76,-431.07 1297,-404 1307.78,-391.96 1305.89,-372.88 1302.3,-358.77"/>
<polygon fill="#63b8ff" stroke="#63b8ff" points="1305.64,-357.72 1299.4,-349.16 1298.93,-359.74 1305.64,-357.72"/>
</a>
</g>
</g>
<!-- Node30 -->
<g id="Node000030" class="node">
<title>Node30</title>
<g id="a_Node000030"><a xlink:href="abcgVulkanError_8hpp.html" target="_top" xlink:title="Header file of abcg::VulkanError and derived classes.">
<polygon fill="white" stroke="#666666" points="1460,-404 1344,-404 1344,-385 1460,-385 1460,-404"/>
<text text-anchor="middle" x="1402" y="-392" font-family="Helvetica,sans-Serif" font-size="10.00">abcgVulkanError.hpp</text>
</a>
</g>
</g>
<!-- Node1&#45;&gt;Node30 -->
<g id="edge35_Node000001_Node000030" class="edge">
<title>Node1&#45;&gt;Node30</title>
<g id="a_edge35_Node000001_Node000030"><a xlink:title=" ">
<path fill="none" stroke="#63b8ff" d="M926.11,-446.08C1022.13,-436.51 1187.89,-419.73 1330,-404 1331.27,-403.86 1332.55,-403.72 1333.83,-403.57"/>
<polygon fill="#63b8ff" stroke="#63b8ff" points="1334.31,-407.04 1343.85,-402.44 1333.52,-400.09 1334.31,-407.04"/>
</a>
</g>
</g>
<!-- Node3 -->
<g id="Node000003" class="node">
<title>Node3</title>
<g id="a_Node000003"><a xlink:href="abcgVulkanDevice_8hpp.html" target="_top" xlink:title="Header file of abcg::VulkanDevice.">
<polygon fill="white" stroke="#666666" points="273.5,-239 146.5,-239 146.5,-220 273.5,-220 273.5,-239"/>
<text text-anchor="middle" x="210" y="-227" font-family="Helvetica,sans-Serif" font-size="10.00">abcgVulkanDevice.hpp</text>
</a>
</g>
</g>
<!-- Node2&#45;&gt;Node3 -->
<g id="edge2_Node000002_Node000003" class="edge">
<title>Node2&#45;&gt;Node3</title>
<g id="a_edge2_Node000002_Node000003"><a xlink:title=" ">
<path fill="none" stroke="#63b8ff" d="M332.13,-384.84C325.24,-376.02 314.46,-361.85 306,-349 285.08,-317.23 287.49,-304.11 263,-275 253.57,-263.79 241.11,-253.17 230.64,-245.12"/>
<polygon fill="#63b8ff" stroke="#63b8ff" points="232.53,-242.16 222.42,-239 228.35,-247.78 232.53,-242.16"/>
</a>
</g>
</g>
<!-- Node4 -->
<g id="Node000004" class="node">
<title>Node4</title>
<g id="a_Node000004"><a xlink:href="abcgVulkanPhysicalDevice_8hpp.html" target="_top" xlink:title="Header file of abcg::VulkanPhysicalDevice.">
<polygon fill="white" stroke="#666666" points="330.5,-184 163.5,-184 163.5,-165 330.5,-165 330.5,-184"/>
<text text-anchor="middle" x="247" y="-172" font-family="Helvetica,sans-Serif" font-size="10.00">abcgVulkanPhysicalDevice.hpp</text>
</a>
</g>
</g>
<!-- Node2&#45;&gt;Node4 -->
<g id="edge11_Node000002_Node000004" class="edge">
<title>Node2&#45;&gt;Node4</title>
<g id="a_edge11_Node000002_Node000004"><a xlink:title=" ">
<path fill="none" stroke="#63b8ff" d="M337.26,-384.77C331.83,-358.59 313.6,-278.97 282,-220 276.56,-209.84 268.76,-199.65 261.9,-191.59"/>
<polygon fill="#63b8ff" stroke="#63b8ff" points="264.48,-189.23 255.24,-184.05 259.24,-193.86 264.48,-189.23"/>
</a>
</g>
</g>
<!-- Node2&#45;&gt;Node6 -->
<g id="edge10_Node000002_Node000006" class="edge">
<title>Node2&#45;&gt;Node6</title>
<g id="a_edge10_Node000002_Node000006"><a xlink:title=" ">
<path fill="none" stroke="#63b8ff" d="M341.56,-384.91C346.75,-366.74 358,-323 358,-285.5 358,-285.5 358,-285.5 358,-228.5 358,-178.87 414.5,-148.05 453.85,-132.61"/>
<polygon fill="#63b8ff" stroke="#63b8ff" points="455.31,-135.8 463.44,-129.02 452.85,-129.25 455.31,-135.8"/>
</a>
</g>
</g>
<!-- Node11 -->
<g id="Node000011" class="node">
<title>Node11</title>
<g id="a_Node000011"><a xlink:href="abcgVulkanSwapchain_8hpp.html" target="_top" xlink:title="Header file of abcg::VulkanSwapchain.">
<polygon fill="white" stroke="#666666" points="146,-349 0,-349 0,-330 146,-330 146,-349"/>
<text text-anchor="middle" x="73" y="-337" font-family="Helvetica,sans-Serif" font-size="10.00">abcgVulkanSwapchain.hpp</text>
</a>
</g>
</g>
<!-- Node2&#45;&gt;Node11 -->
<g id="edge12_Node000002_Node000011" class="edge">
<title>Node2&#45;&gt;Node11</title>
<g id="a_edge12_Node000002_Node000011"><a xlink:title=" ">
<path fill="none" stroke="#63b8ff" d="M296.26,-384.98C249.96,-375.76 176.02,-361.03 126.04,-351.07"/>
<polygon fill="#63b8ff" stroke="#63b8ff" points="126.56,-347.6 116.07,-349.08 125.2,-354.47 126.56,-347.6"/>
</a>
</g>
</g>
<!-- Node2&#45;&gt;Node15 -->
<g id="edge19_Node000002_Node000015" class="edge">
<title>Node2&#45;&gt;Node15</title>
<g id="a_edge19_Node000002_Node000015"><a xlink:title=" ">
<path fill="none" stroke="#63b8ff" d="M371.94,-384.98C406.95,-375.93 462.47,-361.58 500.93,-351.64"/>
<polygon fill="#63b8ff" stroke="#63b8ff" points="502,-354.97 510.81,-349.08 500.25,-348.2 502,-354.97"/>
</a>
</g>
</g>
<!-- Node3&#45;&gt;Node4 -->
<g id="edge3_Node000003_Node000004" class="edge">
<title>Node3&#45;&gt;Node4</title>
<g id="a_edge3_Node000003_Node000004"><a xlink:title=" ">
<path fill="none" stroke="#63b8ff" d="M216.11,-219.75C221.28,-212.34 228.85,-201.5 235.19,-192.41"/>
<polygon fill="#63b8ff" stroke="#63b8ff" points="238.15,-194.29 241,-184.09 232.41,-190.29 238.15,-194.29"/>
</a>
</g>
</g>
<!-- Node10 -->
<g id="Node000010" class="node">
<title>Node10</title>
<g id="a_Node000010"><a xlink:title=" ">
<polygon fill="#e0e0e0" stroke="#999999" points="73.5,-184 8.5,-184 8.5,-165 73.5,-165 73.5,-184"/>
<text text-anchor="middle" x="41" y="-172" font-family="Helvetica,sans-Serif" font-size="10.00">functional</text>
</a>
</g>
</g>
<!-- Node3&#45;&gt;Node10 -->
<g id="edge9_Node000003_Node000010" class="edge">
<title>Node3&#45;&gt;Node10</title>
<g id="a_edge9_Node000003_Node000010"><a xlink:title=" ">
<path fill="none" stroke="#63b8ff" d="M182.85,-219.98C154.47,-211.09 109.77,-197.07 78.14,-187.15"/>
<polygon fill="#63b8ff" stroke="#63b8ff" points="78.95,-183.73 68.37,-184.08 76.86,-190.41 78.95,-183.73"/>
</a>
</g>
</g>
<!-- Node5 -->
<g id="Node000005" class="node">
<title>Node5</title>
<g id="a_Node000005"><a xlink:title=" ">
<polygon fill="#e0e0e0" stroke="#999999" points="275,-129 219,-129 219,-110 275,-110 275,-129"/>
<text text-anchor="middle" x="247" y="-117" font-family="Helvetica,sans-Serif" font-size="10.00">optional</text>
</a>
</g>
</g>
<!-- Node4&#45;&gt;Node5 -->
<g id="edge4_Node000004_Node000005" class="edge">
<title>Node4&#45;&gt;Node5</title>
<g id="a_edge4_Node000004_Node000005"><a xlink:title=" ">
<path fill="none" stroke="#63b8ff" d="M247,-164.75C247,-157.8 247,-147.85 247,-139.13"/>
<polygon fill="#63b8ff" stroke="#63b8ff" points="250.5,-139.09 247,-129.09 243.5,-139.09 250.5,-139.09"/>
</a>
</g>
</g>
<!-- Node4&#45;&gt;Node6 -->
<g id="edge5_Node000004_Node000006" class="edge">
<title>Node4&#45;&gt;Node6</title>
<g id="a_edge5_Node000004_Node000006"><a xlink:title=" ">
<path fill="none" stroke="#63b8ff" d="M286.2,-164.98C328.41,-155.82 395.65,-141.21 441.48,-131.26"/>
<polygon fill="#63b8ff" stroke="#63b8ff" points="442.46,-134.63 451.49,-129.08 440.97,-127.78 442.46,-134.63"/>
</a>
</g>
</g>
<!-- Node7 -->
<g id="Node000007" class="node">
<title>Node7</title>
<g id="a_Node000007"><a xlink:href="abcgVulkanExternal_8hpp.html" target="_top" xlink:title="Header file for including Vulkan&#45;related dependencies.">
<polygon fill="white" stroke="#666666" points="1389,-74 1255,-74 1255,-55 1389,-55 1389,-74"/>
<text text-anchor="middle" x="1322" y="-62" font-family="Helvetica,sans-Serif" font-size="10.00">abcgVulkanExternal.hpp</text>
</a>
</g>
</g>
<!-- Node6&#45;&gt;Node7 -->
<g id="edge6_Node000006_Node000007" class="edge">
<title>Node6&#45;&gt;Node7</title>
<g id="a_edge6_Node000006_Node000007"><a xlink:title=" ">
<path fill="none" stroke="#63b8ff" d="M558.3,-114.21C710.95,-104.47 1082.74,-80.76 1244.59,-70.44"/>
<polygon fill="#63b8ff" stroke="#63b8ff" points="1245.19,-73.91 1254.94,-69.78 1244.74,-66.92 1245.19,-73.91"/>
</a>
</g>
</g>
<!-- Node8 -->
<g id="Node000008" class="node">
<title>Node8</title>
<g id="a_Node000008"><a xlink:title=" ">
<polygon fill="#e0e0e0" stroke="#999999" points="1468.5,-19 1421.5,-19 1421.5,0 1468.5,0 1468.5,-19"/>
<text text-anchor="middle" x="1445" y="-7" font-family="Helvetica,sans-Serif" font-size="10.00">volk.h</text>
</a>
</g>
</g>
<!-- Node7&#45;&gt;Node8 -->
<g id="edge7_Node000007_Node000008" class="edge">
<title>Node7&#45;&gt;Node8</title>
<g id="a_edge7_Node000007_Node000008"><a xlink:title=" ">
<path fill="none" stroke="#63b8ff" d="M1341.76,-54.98C1361.73,-46.38 1392.8,-32.99 1415.65,-23.15"/>
<polygon fill="#63b8ff" stroke="#63b8ff" points="1417.08,-26.34 1424.88,-19.17 1414.31,-19.91 1417.08,-26.34"/>
</a>
</g>
</g>
<!-- Node9 -->
<g id="Node000009" class="node">
<title>Node9</title>
<g id="a_Node000009"><a xlink:title=" ">
<polygon fill="#e0e0e0" stroke="#999999" points="1393.5,-19 1288.5,-19 1288.5,0 1393.5,0 1393.5,-19"/>
<text text-anchor="middle" x="1341" y="-7" font-family="Helvetica,sans-Serif" font-size="10.00">vulkan/vulkan.hpp</text>
</a>
</g>
</g>
<!-- Node7&#45;&gt;Node9 -->
<g id="edge8_Node000007_Node000009" class="edge">
<title>Node7&#45;&gt;Node9</title>
<g id="a_edge8_Node000007_Node000009"><a xlink:title=" ">
<path fill="none" stroke="#63b8ff" d="M1325.14,-54.75C1327.68,-47.65 1331.36,-37.4 1334.53,-28.56"/>
<polygon fill="#63b8ff" stroke="#63b8ff" points="1337.84,-29.68 1337.92,-19.09 1331.25,-27.32 1337.84,-29.68"/>
</a>
</g>
</g>
<!-- Node11&#45;&gt;Node3 -->
<g id="edge15_Node000011_Node000003" class="edge">
<title>Node11&#45;&gt;Node3</title>
<g id="a_edge15_Node000011_Node000003"><a xlink:title=" ">
<path fill="none" stroke="#63b8ff" d="M58.43,-329.99C39.26,-317.73 9.69,-294.43 25,-275 32.98,-264.87 100.01,-250.55 151.11,-240.92"/>
<polygon fill="#63b8ff" stroke="#63b8ff" points="151.91,-244.33 161.1,-239.05 150.62,-237.45 151.91,-244.33"/>
</a>
</g>
</g>
<!-- Node11&#45;&gt;Node10 -->
<g id="edge13_Node000011_Node000010" class="edge">
<title>Node11&#45;&gt;Node10</title>
<g id="a_edge13_Node000011_Node000010"><a xlink:title=" ">
<path fill="none" stroke="#63b8ff" d="M55.23,-329.96C41.99,-322.51 24.88,-310.33 17,-294 0.95,-260.75 18.28,-217.26 30.7,-193.29"/>
<polygon fill="#63b8ff" stroke="#63b8ff" points="33.89,-194.75 35.61,-184.3 27.75,-191.4 33.89,-194.75"/>
</a>
</g>
</g>
<!-- Node12 -->
<g id="Node000012" class="node">
<title>Node12</title>
<g id="a_Node000012"><a xlink:title=" ">
<polygon fill="#e0e0e0" stroke="#999999" points="111.5,-294 34.5,-294 34.5,-275 111.5,-275 111.5,-294"/>
<text text-anchor="middle" x="73" y="-282" font-family="Helvetica,sans-Serif" font-size="10.00">glm/fwd.hpp</text>
</a>
</g>
</g>
<!-- Node11&#45;&gt;Node12 -->
<g id="edge14_Node000011_Node000012" class="edge">
<title>Node11&#45;&gt;Node12</title>
<g id="a_edge14_Node000011_Node000012"><a xlink:title=" ">
<path fill="none" stroke="#63b8ff" d="M73,-329.75C73,-322.8 73,-312.85 73,-304.13"/>
<polygon fill="#63b8ff" stroke="#63b8ff" points="76.5,-304.09 73,-294.09 69.5,-304.09 76.5,-304.09"/>
</a>
</g>
</g>
<!-- Node13 -->
<g id="Node000013" class="node">
<title>Node13</title>
<g id="a_Node000013"><a xlink:href="abcgVulkanImage_8hpp.html" target="_top" xlink:title="Header file of abcg::VulkanImage.">
<polygon fill="white" stroke="#666666" points="254,-294 130,-294 130,-275 254,-275 254,-294"/>
<text text-anchor="middle" x="192" y="-282" font-family="Helvetica,sans-Serif" font-size="10.00">abcgVulkanImage.hpp</text>
</a>
</g>
</g>
<!-- Node11&#45;&gt;Node13 -->
<g id="edge16_Node000011_Node000013" class="edge">
<title>Node11&#45;&gt;Node13</title>
<g id="a_edge16_Node000011_Node000013"><a xlink:title=" ">
<path fill="none" stroke="#63b8ff" d="M92.12,-329.98C111.35,-321.42 141.23,-308.11 163.31,-298.28"/>
<polygon fill="#63b8ff" stroke="#63b8ff" points="164.82,-301.44 172.53,-294.17 161.97,-295.04 164.82,-301.44"/>
</a>
</g>
</g>
<!-- Node13&#45;&gt;Node3 -->
<g id="edge17_Node000013_Node000003" class="edge">
<title>Node13&#45;&gt;Node3</title>
<g id="a_edge17_Node000013_Node000003"><a xlink:title=" ">
<path fill="none" stroke="#63b8ff" d="M194.97,-274.75C197.36,-267.72 200.79,-257.62 203.77,-248.84"/>
<polygon fill="#63b8ff" stroke="#63b8ff" points="207.18,-249.68 207.08,-239.09 200.55,-247.43 207.18,-249.68"/>
</a>
</g>
</g>
<!-- Node14 -->
<g id="Node000014" class="node">
<title>Node14</title>
<g id="a_Node000014"><a xlink:title=" ">
<polygon fill="#e0e0e0" stroke="#999999" points="128,-239 54,-239 54,-220 128,-220 128,-239"/>
<text text-anchor="middle" x="91" y="-227" font-family="Helvetica,sans-Serif" font-size="10.00">gsl/pointers</text>
</a>
</g>
</g>
<!-- Node13&#45;&gt;Node14 -->
<g id="edge18_Node000013_Node000014" class="edge">
<title>Node13&#45;&gt;Node14</title>
<g id="a_edge18_Node000013_Node000014"><a xlink:title=" ">
<path fill="none" stroke="#63b8ff" d="M175.77,-274.98C159.82,-266.61 135.22,-253.7 116.62,-243.95"/>
<polygon fill="#63b8ff" stroke="#63b8ff" points="118,-240.72 107.52,-239.17 114.75,-246.92 118,-240.72"/>
</a>
</g>
</g>
<!-- Node16 -->
<g id="Node000016" class="node">
<title>Node16</title>
<g id="a_Node000016"><a xlink:title=" ">
<polygon fill="#e0e0e0" stroke="#999999" points="957,-294 913,-294 913,-275 957,-275 957,-294"/>
<text text-anchor="middle" x="935" y="-282" font-family="Helvetica,sans-Serif" font-size="10.00">string</text>
</a>
</g>
</g>
<!-- Node15&#45;&gt;Node16 -->
<g id="edge20_Node000015_Node000016" class="edge">
<title>Node15&#45;&gt;Node16</title>
<g id="a_edge20_Node000015_Node000016"><a xlink:title=" ">
<path fill="none" stroke="#63b8ff" d="M593.52,-331.79C674.86,-320.76 834.53,-299.12 902.8,-289.87"/>
<polygon fill="#63b8ff" stroke="#63b8ff" points="903.5,-293.3 912.94,-288.49 902.56,-286.36 903.5,-293.3"/>
</a>
</g>
</g>
<!-- Node17 -->
<g id="Node000017" class="node">
<title>Node17</title>
<g id="a_Node000017"><a xlink:href="abcgExternal_8hpp.html" target="_top" xlink:title="Header file for including third&#45;party dependencies.">
<polygon fill="white" stroke="#666666" points="594.5,-294 493.5,-294 493.5,-275 594.5,-275 594.5,-294"/>
<text text-anchor="middle" x="544" y="-282" font-family="Helvetica,sans-Serif" font-size="10.00">abcgExternal.hpp</text>
</a>
</g>
</g>
<!-- Node15&#45;&gt;Node17 -->
<g id="edge21_Node000015_Node000017" class="edge">
<title>Node15&#45;&gt;Node17</title>
<g id="a_edge21_Node000015_Node000017"><a xlink:title=" ">
<path fill="none" stroke="#63b8ff" d="M544,-329.75C544,-322.8 544,-312.85 544,-304.13"/>
<polygon fill="#63b8ff" stroke="#63b8ff" points="547.5,-304.09 544,-294.09 540.5,-304.09 547.5,-304.09"/>
</a>
</g>
</g>
<!-- Node18 -->
<g id="Node000018" class="node">
<title>Node18</title>
<g id="a_Node000018"><a xlink:href="abcgTimer_8hpp.html" target="_top" xlink:title="Header file of abcg::Timer.">
<polygon fill="white" stroke="#666666" points="475.5,-294 386.5,-294 386.5,-275 475.5,-275 475.5,-294"/>
<text text-anchor="middle" x="431" y="-282" font-family="Helvetica,sans-Serif" font-size="10.00">abcgTimer.hpp</text>
</a>
</g>
</g>
<!-- Node15&#45;&gt;Node18 -->
<g id="edge22_Node000015_Node000018" class="edge">
<title>Node15&#45;&gt;Node18</title>
<g id="a_edge22_Node000015_Node000018"><a xlink:title=" ">
<path fill="none" stroke="#63b8ff" d="M525.84,-329.98C507.75,-321.5 479.72,-308.35 458.81,-298.54"/>
<polygon fill="#63b8ff" stroke="#63b8ff" points="460.03,-295.25 449.49,-294.17 457.05,-301.59 460.03,-295.25"/>
</a>
</g>
</g>
<!-- Node19 -->
<g id="Node000019" class="node">
<title>Node19</title>
<g id="a_Node000019"><a xlink:title=" ">
<polygon fill="#e0e0e0" stroke="#999999" points="456,-239 406,-239 406,-220 456,-220 456,-239"/>
<text text-anchor="middle" x="431" y="-227" font-family="Helvetica,sans-Serif" font-size="10.00">chrono</text>
</a>
</g>
</g>
<!-- Node18&#45;&gt;Node19 -->
<g id="edge23_Node000018_Node000019" class="edge">
<title>Node18&#45;&gt;Node19</title>
<g id="a_edge23_Node000018_Node000019"><a xlink:title=" ">
<path fill="none" stroke="#63b8ff" d="M431,-274.75C431,-267.8 431,-257.85 431,-249.13"/>
<polygon fill="#63b8ff" stroke="#63b8ff" points="434.5,-249.09 431,-239.09 427.5,-249.09 434.5,-249.09"/>
</a>
</g>
</g>
<!-- Node26 -->
<g id="Node000026" class="node">
<title>Node26</title>
<g id="a_Node000026"><a xlink:title=" ">
<polygon fill="#e0e0e0" stroke="#999999" points="1223,-349 1181,-349 1181,-330 1223,-330 1223,-349"/>
<text text-anchor="middle" x="1202" y="-337" font-family="Helvetica,sans-Serif" font-size="10.00">array</text>
</a>
</g>
</g>
<!-- Node25&#45;&gt;Node26 -->
<g id="edge30_Node000025_Node000026" class="edge">
<title>Node25&#45;&gt;Node26</title>
<g id="a_edge30_Node000025_Node000026"><a xlink:title=" ">
<path fill="none" stroke="#63b8ff" d="M1215.36,-384.75C1213.24,-377.72 1210.19,-367.62 1207.54,-358.84"/>
<polygon fill="#63b8ff" stroke="#63b8ff" points="1210.83,-357.65 1204.59,-349.09 1204.13,-359.67 1210.83,-357.65"/>
</a>
</g>
</g>
<!-- Node27&#45;&gt;Node16 -->
<g id="edge34_Node000027_Node000016" class="edge">
<title>Node27&#45;&gt;Node16</title>
<g id="a_edge34_Node000027_Node000016"><a xlink:title=" ">
<path fill="none" stroke="#63b8ff" d="M1241.17,-330.45C1164.91,-319.25 1029.23,-299.33 967.36,-290.25"/>
<polygon fill="#63b8ff" stroke="#63b8ff" points="967.79,-286.78 957.39,-288.79 966.78,-293.7 967.79,-286.78"/>
</a>
</g>
</g>
<!-- Node28 -->
<g id="Node000028" class="node">
<title>Node28</title>
<g id="a_Node000028"><a xlink:title=" ">
<polygon fill="#e0e0e0" stroke="#999999" points="1388.5,-294 1295.5,-294 1295.5,-275 1388.5,-275 1388.5,-294"/>
<text text-anchor="middle" x="1342" y="-282" font-family="Helvetica,sans-Serif" font-size="10.00">source_location</text>
</a>
</g>
</g>
<!-- Node27&#45;&gt;Node28 -->
<g id="edge32_Node000027_Node000028" class="edge">
<title>Node27&#45;&gt;Node28</title>
<g id="a_edge32_Node000027_Node000028"><a xlink:title=" ">
<path fill="none" stroke="#63b8ff" d="M1303.6,-329.75C1310.16,-322.18 1319.82,-311.05 1327.81,-301.84"/>
<polygon fill="#63b8ff" stroke="#63b8ff" points="1330.63,-303.94 1334.55,-294.09 1325.35,-299.35 1330.63,-303.94"/>
</a>
</g>
</g>
<!-- Node29 -->
<g id="Node000029" class="node">
<title>Node29</title>
<g id="a_Node000029"><a xlink:title=" ">
<polygon fill="#e0e0e0" stroke="#999999" points="1277.5,-294 1212.5,-294 1212.5,-275 1277.5,-275 1277.5,-294"/>
<text text-anchor="middle" x="1245" y="-282" font-family="Helvetica,sans-Serif" font-size="10.00">stdexcept</text>
</a>
</g>
</g>
<!-- Node27&#45;&gt;Node29 -->
<g id="edge33_Node000027_Node000029" class="edge">
<title>Node27&#45;&gt;Node29</title>
<g id="a_edge33_Node000027_Node000029"><a xlink:title=" ">
<path fill="none" stroke="#63b8ff" d="M1287.58,-329.75C1280.23,-322.11 1269.37,-310.82 1260.46,-301.56"/>
<polygon fill="#63b8ff" stroke="#63b8ff" points="1262.72,-298.87 1253.26,-294.09 1257.68,-303.72 1262.72,-298.87"/>
</a>
</g>
</g>
<!-- Node30&#45;&gt;Node8 -->
<g id="edge37_Node000030_Node000008" class="edge">
<title>Node30&#45;&gt;Node8</title>
<g id="a_edge37_Node000030_Node000008"><a xlink:title=" ">
<path fill="none" stroke="#63b8ff" d="M1409.59,-384.96C1424.25,-367.57 1455,-326.23 1455,-285.5 1455,-285.5 1455,-285.5 1455,-118.5 1455,-87.06 1450.75,-50.68 1447.79,-29.19"/>
<polygon fill="#63b8ff" stroke="#63b8ff" points="1451.23,-28.56 1446.35,-19.15 1444.3,-29.55 1451.23,-28.56"/>
</a>
</g>
</g>
<!-- Node30&#45;&gt;Node9 -->
<g id="edge38_Node000030_Node000009" class="edge">
<title>Node30&#45;&gt;Node9</title>
<g id="a_edge38_Node000030_Node000009"><a xlink:title=" ">
<path fill="none" stroke="#63b8ff" d="M1404.02,-384.88C1408.12,-366.64 1417,-322.79 1417,-285.5 1417,-285.5 1417,-285.5 1417,-118.5 1417,-89.04 1414.62,-79.32 1398,-55 1389.62,-42.73 1376.8,-32.29 1365.44,-24.62"/>
<polygon fill="#63b8ff" stroke="#63b8ff" points="1367.07,-21.51 1356.76,-19.07 1363.3,-27.4 1367.07,-21.51"/>
</a>
</g>
</g>
<!-- Node30&#45;&gt;Node27 -->
<g id="edge39_Node000030_Node000027" class="edge">
<title>Node30&#45;&gt;Node27</title>
<g id="a_edge39_Node000030_Node000027"><a xlink:title=" ">
<path fill="none" stroke="#63b8ff" d="M1384.97,-384.98C1368.07,-376.54 1341.94,-363.47 1322.36,-353.68"/>
<polygon fill="#63b8ff" stroke="#63b8ff" points="1323.85,-350.51 1313.34,-349.17 1320.72,-356.77 1323.85,-350.51"/>
</a>
</g>
</g>
<!-- Node30&#45;&gt;Node28 -->
<g id="edge36_Node000030_Node000028" class="edge">
<title>Node30&#45;&gt;Node28</title>
<g id="a_edge36_Node000030_Node000028"><a xlink:title=" ">
<path fill="none" stroke="#63b8ff" d="M1397.09,-384.66C1387.2,-366.85 1364.7,-326.37 1351.73,-303.01"/>
<polygon fill="#63b8ff" stroke="#63b8ff" points="1354.73,-301.2 1346.81,-294.16 1348.61,-304.6 1354.73,-301.2"/>
</a>
</g>
</g>
</g>
</svg>
