<?xml version="1.0" encoding="UTF-8" standalone="no"?>
<!DOCTYPE svg PUBLIC "-//W3C//DTD SVG 1.1//EN"
 "http://www.w3.org/Graphics/SVG/1.1/DTD/svg11.dtd">
<!-- Generated by graphviz version 2.43.0 (0)
 -->
<!-- Title: /home/harlen/dev/abcg/abcg/abcgOpenGLImage.hpp Pages: 1 -->
<svg width="312pt" height="104pt"
 viewBox="0.00 0.00 312.00 104.00" xmlns="http://www.w3.org/2000/svg" xmlns:xlink="http://www.w3.org/1999/xlink">
<g id="graph0" class="graph" transform="scale(1 1) rotate(0) translate(4 100)">
<title>/home/harlen/dev/abcg/abcg/abcgOpenGLImage.hpp</title>
<!-- Node1 -->
<g id="Node000001" class="node">
<title>Node1</title>
<g id="a_Node000001"><a xlink:title="Declaration of OpenGL texture loading helper functions.">
<polygon fill="#999999" stroke="#666666" points="223.5,-96 64.5,-96 64.5,-66 223.5,-66 223.5,-96"/>
<text text-anchor="start" x="72.5" y="-84" font-family="Helvetica,sans-Serif" font-size="10.00">/home/harlen/dev/abcg</text>
<text text-anchor="middle" x="144" y="-73" font-family="Helvetica,sans-Serif" font-size="10.00">/abcg/abcgOpenGLImage.hpp</text>
</a>
</g>
</g>
<!-- Node2 -->
<g id="Node000002" class="node">
<title>Node2</title>
<g id="a_Node000002"><a xlink:href="abcgOpenGL_8hpp.html" target="_top" xlink:title="Header file for OpenGL&#45;related functions and classes.">
<polygon fill="white" stroke="#666666" points="128,-30 0,-30 0,0 128,0 128,-30"/>
<text text-anchor="start" x="8" y="-18" font-family="Helvetica,sans-Serif" font-size="10.00">/home/harlen/dev/abcg</text>
<text text-anchor="middle" x="64" y="-7" font-family="Helvetica,sans-Serif" font-size="10.00">/abcg/abcgOpenGL.hpp</text>
</a>
</g>
</g>
<!-- Node1&#45;&gt;Node2 -->
<g id="edge1_Node000001_Node000002" class="edge">
<title>Node1&#45;&gt;Node2</title>
<g id="a_edge1_Node000001_Node000002"><a xlink:title=" ">
<path fill="none" stroke="#63b8ff" d="M118.35,-59.48C106.39,-49.91 92.47,-38.77 81.7,-30.16"/>
<polygon fill="#63b8ff" stroke="#63b8ff" points="116.25,-62.28 126.25,-65.8 120.62,-56.82 116.25,-62.28"/>
</a>
</g>
</g>
<!-- Node3 -->
<g id="Node000003" class="node">
<title>Node3</title>
<g id="a_Node000003"><a xlink:href="abcgOpenGLImage_8cpp.html" target="_top" xlink:title="Definition of OpenGL texture loading helper functions.">
<polygon fill="white" stroke="#666666" points="304,-30 146,-30 146,0 304,0 304,-30"/>
<text text-anchor="start" x="154" y="-18" font-family="Helvetica,sans-Serif" font-size="10.00">/home/harlen/dev/abcg</text>
<text text-anchor="middle" x="225" y="-7" font-family="Helvetica,sans-Serif" font-size="10.00">/abcg/abcgOpenGLImage.cpp</text>
</a>
</g>
</g>
<!-- Node1&#45;&gt;Node3 -->
<g id="edge2_Node000001_Node000003" class="edge">
<title>Node1&#45;&gt;Node3</title>
<g id="a_edge2_Node000001_Node000003"><a xlink:title=" ">
<path fill="none" stroke="#63b8ff" d="M169.97,-59.48C182.08,-49.91 196.18,-38.77 207.07,-30.16"/>
<polygon fill="#63b8ff" stroke="#63b8ff" points="167.65,-56.85 161.98,-65.8 171.99,-62.34 167.65,-56.85"/>
</a>
</g>
</g>
</g>
</svg>
