<?xml version="1.0" encoding="UTF-8" standalone="no"?>
<!DOCTYPE svg PUBLIC "-//W3C//DTD SVG 1.1//EN"
 "http://www.w3.org/Graphics/SVG/1.1/DTD/svg11.dtd">
<!-- Generated by graphviz version 2.43.0 (0)
 -->
<!-- Title: /home/harlen/dev/abcg/abcg/abcgApplication.cpp Pages: 1 -->
<svg width="770pt" height="207pt"
 viewBox="0.00 0.00 769.50 207.00" xmlns="http://www.w3.org/2000/svg" xmlns:xlink="http://www.w3.org/1999/xlink">
<g id="graph0" class="graph" transform="scale(1 1) rotate(0) translate(4 203)">
<title>/home/harlen/dev/abcg/abcg/abcgApplication.cpp</title>
<!-- Node1 -->
<g id="node1" class="node">
<title>Node1</title>
<g id="a_node1"><a xlink:title="Definition of abcg::Application members.">
<polygon fill="#bfbfbf" stroke="black" points="299.5,-168.5 299.5,-198.5 443.5,-198.5 443.5,-168.5 299.5,-168.5"/>
<text text-anchor="start" x="307.5" y="-186.5" font-family="Helvetica,sans-Serif" font-size="10.00">/home/harlen/dev/abcg</text>
<text text-anchor="middle" x="371.5" y="-175.5" font-family="Helvetica,sans-Serif" font-size="10.00">/abcg/abcgApplication.cpp</text>
</a>
</g>
</g>
<!-- Node2 -->
<g id="node2" class="node">
<title>Node2</title>
<g id="a_node2"><a xlink:href="abcgApplication_8hpp.html" target="_top" xlink:title="Header file of abcg::Application.">
<polygon fill="none" stroke="black" points="409.5,-112.5 409.5,-131.5 525.5,-131.5 525.5,-112.5 409.5,-112.5"/>
<text text-anchor="middle" x="467.5" y="-119.5" font-family="Helvetica,sans-Serif" font-size="10.00">abcgApplication.hpp</text>
</a>
</g>
</g>
<!-- Node1&#45;&gt;Node2 -->
<g id="edge1" class="edge">
<title>Node1&#45;&gt;Node2</title>
<path fill="none" stroke="midnightblue" d="M394.25,-168.4C409.49,-158.95 429.49,-146.56 444.74,-137.11"/>
<polygon fill="midnightblue" stroke="midnightblue" points="446.88,-139.9 453.53,-131.66 443.19,-133.95 446.88,-139.9"/>
</g>
<!-- Node4 -->
<g id="node4" class="node">
<title>Node4</title>
<g id="a_node4"><a xlink:title=" ">
<polygon fill="none" stroke="#bfbfbf" points="153.5,-112.5 153.5,-131.5 233.5,-131.5 233.5,-112.5 153.5,-112.5"/>
<text text-anchor="middle" x="193.5" y="-119.5" font-family="Helvetica,sans-Serif" font-size="10.00">SDL_image.h</text>
</a>
</g>
</g>
<!-- Node1&#45;&gt;Node4 -->
<g id="edge3" class="edge">
<title>Node1&#45;&gt;Node4</title>
<path fill="none" stroke="midnightblue" d="M329.32,-168.4C298.69,-158.16 257.73,-144.47 228.83,-134.81"/>
<polygon fill="midnightblue" stroke="midnightblue" points="229.73,-131.42 219.14,-131.57 227.52,-138.06 229.73,-131.42"/>
</g>
<!-- Node5 -->
<g id="node5" class="node">
<title>Node5</title>
<g id="a_node5"><a xlink:title=" ">
<polygon fill="none" stroke="#bfbfbf" points="252,-112.5 252,-131.5 333,-131.5 333,-112.5 252,-112.5"/>
<text text-anchor="middle" x="292.5" y="-119.5" font-family="Helvetica,sans-Serif" font-size="10.00">SDL_thread.h</text>
</a>
</g>
</g>
<!-- Node1&#45;&gt;Node5 -->
<g id="edge4" class="edge">
<title>Node1&#45;&gt;Node5</title>
<path fill="none" stroke="midnightblue" d="M352.78,-168.4C340.59,-159.22 324.71,-147.26 312.31,-137.92"/>
<polygon fill="midnightblue" stroke="midnightblue" points="314.09,-134.88 304,-131.66 309.88,-140.47 314.09,-134.88"/>
</g>
<!-- Node6 -->
<g id="node6" class="node">
<title>Node6</title>
<g id="a_node6"><a xlink:title=" ">
<polygon fill="none" stroke="#bfbfbf" points="351.5,-112.5 351.5,-131.5 391.5,-131.5 391.5,-112.5 351.5,-112.5"/>
<text text-anchor="middle" x="371.5" y="-119.5" font-family="Helvetica,sans-Serif" font-size="10.00">span</text>
</a>
</g>
</g>
<!-- Node1&#45;&gt;Node6 -->
<g id="edge5" class="edge">
<title>Node1&#45;&gt;Node6</title>
<path fill="none" stroke="midnightblue" d="M371.5,-168.4C371.5,-160.47 371.5,-150.46 371.5,-141.86"/>
<polygon fill="midnightblue" stroke="midnightblue" points="375,-141.66 371.5,-131.66 368,-141.66 375,-141.66"/>
</g>
<!-- Node7 -->
<g id="node7" class="node">
<title>Node7</title>
<g id="a_node7"><a xlink:href="abcgException_8hpp.html" target="_top" xlink:title="Header file of abcg::Exception and derived classes.">
<polygon fill="none" stroke="black" points="26,-112.5 26,-131.5 135,-131.5 135,-112.5 26,-112.5"/>
<text text-anchor="middle" x="80.5" y="-119.5" font-family="Helvetica,sans-Serif" font-size="10.00">abcgException.hpp</text>
</a>
</g>
</g>
<!-- Node1&#45;&gt;Node7 -->
<g id="edge6" class="edge">
<title>Node1&#45;&gt;Node7</title>
<path fill="none" stroke="midnightblue" d="M302.91,-168.47C250.62,-157.78 179.74,-143.29 132.18,-133.57"/>
<polygon fill="midnightblue" stroke="midnightblue" points="132.6,-130.08 122.1,-131.51 131.2,-136.94 132.6,-130.08"/>
</g>
<!-- Node10 -->
<g id="node10" class="node">
<title>Node10</title>
<g id="a_node10"><a xlink:href="abcgWindow_8hpp.html" target="_top" xlink:title="Header file of abcg::Window.">
<polygon fill="none" stroke="black" points="544,-112.5 544,-131.5 643,-131.5 643,-112.5 544,-112.5"/>
<text text-anchor="middle" x="593.5" y="-119.5" font-family="Helvetica,sans-Serif" font-size="10.00">abcgWindow.hpp</text>
</a>
</g>
</g>
<!-- Node1&#45;&gt;Node10 -->
<g id="edge10" class="edge">
<title>Node1&#45;&gt;Node10</title>
<path fill="none" stroke="midnightblue" d="M423.83,-168.47C462.97,-157.99 515.76,-143.84 552,-134.12"/>
<polygon fill="midnightblue" stroke="midnightblue" points="553.01,-137.48 561.76,-131.51 551.2,-130.71 553.01,-137.48"/>
</g>
<!-- Node14 -->
<g id="node14" class="node">
<title>Node14</title>
<g id="a_node14"><a xlink:title=" ">
<polygon fill="none" stroke="#bfbfbf" points="661.5,-112.5 661.5,-131.5 761.5,-131.5 761.5,-112.5 661.5,-112.5"/>
<text text-anchor="middle" x="711.5" y="-119.5" font-family="Helvetica,sans-Serif" font-size="10.00">tiny_obj_loader.h</text>
</a>
</g>
</g>
<!-- Node1&#45;&gt;Node14 -->
<g id="edge15" class="edge">
<title>Node1&#45;&gt;Node14</title>
<path fill="none" stroke="midnightblue" d="M443.61,-169.88C505.85,-158.99 594.66,-143.45 652.69,-133.29"/>
<polygon fill="midnightblue" stroke="midnightblue" points="653.54,-136.7 662.79,-131.52 652.34,-129.8 653.54,-136.7"/>
</g>
<!-- Node3 -->
<g id="node3" class="node">
<title>Node3</title>
<g id="a_node3"><a xlink:title=" ">
<polygon fill="none" stroke="#bfbfbf" points="445.5,-56.5 445.5,-75.5 489.5,-75.5 489.5,-56.5 445.5,-56.5"/>
<text text-anchor="middle" x="467.5" y="-63.5" font-family="Helvetica,sans-Serif" font-size="10.00">string</text>
</a>
</g>
</g>
<!-- Node2&#45;&gt;Node3 -->
<g id="edge2" class="edge">
<title>Node2&#45;&gt;Node3</title>
<path fill="none" stroke="midnightblue" d="M467.5,-112.08C467.5,-105.01 467.5,-94.86 467.5,-85.99"/>
<polygon fill="midnightblue" stroke="midnightblue" points="471,-85.75 467.5,-75.75 464,-85.75 471,-85.75"/>
</g>
<!-- Node7&#45;&gt;Node3 -->
<g id="edge9" class="edge">
<title>Node7&#45;&gt;Node3</title>
<path fill="none" stroke="midnightblue" d="M135.31,-113.29C138.42,-112.85 141.5,-112.42 144.5,-112 250.86,-97.11 376.95,-79.58 435.12,-71.5"/>
<polygon fill="midnightblue" stroke="midnightblue" points="435.75,-74.94 445.18,-70.1 434.79,-68.01 435.75,-74.94"/>
</g>
<!-- Node8 -->
<g id="node8" class="node">
<title>Node8</title>
<g id="a_node8"><a xlink:title=" ">
<polygon fill="none" stroke="#bfbfbf" points="83,-56.5 83,-75.5 176,-75.5 176,-56.5 83,-56.5"/>
<text text-anchor="middle" x="129.5" y="-63.5" font-family="Helvetica,sans-Serif" font-size="10.00">source_location</text>
</a>
</g>
</g>
<!-- Node7&#45;&gt;Node8 -->
<g id="edge7" class="edge">
<title>Node7&#45;&gt;Node8</title>
<path fill="none" stroke="midnightblue" d="M88.59,-112.08C95.66,-104.3 106.09,-92.8 114.65,-83.37"/>
<polygon fill="midnightblue" stroke="midnightblue" points="117.43,-85.51 121.56,-75.75 112.25,-80.8 117.43,-85.51"/>
</g>
<!-- Node9 -->
<g id="node9" class="node">
<title>Node9</title>
<g id="a_node9"><a xlink:title=" ">
<polygon fill="none" stroke="#bfbfbf" points="0,-56.5 0,-75.5 65,-75.5 65,-56.5 0,-56.5"/>
<text text-anchor="middle" x="32.5" y="-63.5" font-family="Helvetica,sans-Serif" font-size="10.00">stdexcept</text>
</a>
</g>
</g>
<!-- Node7&#45;&gt;Node9 -->
<g id="edge8" class="edge">
<title>Node7&#45;&gt;Node9</title>
<path fill="none" stroke="midnightblue" d="M72.57,-112.08C65.65,-104.3 55.43,-92.8 47.05,-83.37"/>
<polygon fill="midnightblue" stroke="midnightblue" points="49.54,-80.9 40.28,-75.75 44.31,-85.55 49.54,-80.9"/>
</g>
<!-- Node10&#45;&gt;Node3 -->
<g id="edge11" class="edge">
<title>Node10&#45;&gt;Node3</title>
<path fill="none" stroke="midnightblue" d="M573.53,-112.44C552.89,-103.6 520.44,-89.69 496.87,-79.59"/>
<polygon fill="midnightblue" stroke="midnightblue" points="497.94,-76.24 487.37,-75.52 495.18,-82.67 497.94,-76.24"/>
</g>
<!-- Node11 -->
<g id="node11" class="node">
<title>Node11</title>
<g id="a_node11"><a xlink:href="abcgExternal_8hpp.html" target="_top" xlink:title="Header file for including third&#45;party dependencies.">
<polygon fill="none" stroke="black" points="635,-56.5 635,-75.5 736,-75.5 736,-56.5 635,-56.5"/>
<text text-anchor="middle" x="685.5" y="-63.5" font-family="Helvetica,sans-Serif" font-size="10.00">abcgExternal.hpp</text>
</a>
</g>
</g>
<!-- Node10&#45;&gt;Node11 -->
<g id="edge12" class="edge">
<title>Node10&#45;&gt;Node11</title>
<path fill="none" stroke="midnightblue" d="M608.28,-112.32C622.77,-103.82 645.07,-90.73 661.99,-80.8"/>
<polygon fill="midnightblue" stroke="midnightblue" points="663.9,-83.74 670.76,-75.65 660.36,-77.7 663.9,-83.74"/>
</g>
<!-- Node12 -->
<g id="node12" class="node">
<title>Node12</title>
<g id="a_node12"><a xlink:href="abcgTimer_8hpp.html" target="_top" xlink:title="Header file of abcg::Timer.">
<polygon fill="none" stroke="black" points="528,-56.5 528,-75.5 617,-75.5 617,-56.5 528,-56.5"/>
<text text-anchor="middle" x="572.5" y="-63.5" font-family="Helvetica,sans-Serif" font-size="10.00">abcgTimer.hpp</text>
</a>
</g>
</g>
<!-- Node10&#45;&gt;Node12 -->
<g id="edge13" class="edge">
<title>Node10&#45;&gt;Node12</title>
<path fill="none" stroke="midnightblue" d="M590.03,-112.08C587.19,-104.77 583.07,-94.18 579.54,-85.1"/>
<polygon fill="midnightblue" stroke="midnightblue" points="582.79,-83.8 575.9,-75.75 576.27,-86.34 582.79,-83.8"/>
</g>
<!-- Node13 -->
<g id="node13" class="node">
<title>Node13</title>
<g id="a_node13"><a xlink:title=" ">
<polygon fill="none" stroke="#bfbfbf" points="547.5,-0.5 547.5,-19.5 597.5,-19.5 597.5,-0.5 547.5,-0.5"/>
<text text-anchor="middle" x="572.5" y="-7.5" font-family="Helvetica,sans-Serif" font-size="10.00">chrono</text>
</a>
</g>
</g>
<!-- Node12&#45;&gt;Node13 -->
<g id="edge14" class="edge">
<title>Node12&#45;&gt;Node13</title>
<path fill="none" stroke="midnightblue" d="M572.5,-56.08C572.5,-49.01 572.5,-38.86 572.5,-29.99"/>
<polygon fill="midnightblue" stroke="midnightblue" points="576,-29.75 572.5,-19.75 569,-29.75 576,-29.75"/>
</g>
</g>
</svg>
