<?xml version="1.0" encoding="UTF-8" standalone="no"?>
<!DOCTYPE svg PUBLIC "-//W3C//DTD SVG 1.1//EN"
 "http://www.w3.org/Graphics/SVG/1.1/DTD/svg11.dtd">
<!-- Generated by graphviz version 2.43.0 (0)
 -->
<!-- Title: /home/harlen/dev/abcg/abcg/abcgOpenGLWindow.cpp Pages: 1 -->
<svg width="961pt" height="263pt"
 viewBox="0.00 0.00 960.50 263.00" xmlns="http://www.w3.org/2000/svg" xmlns:xlink="http://www.w3.org/1999/xlink">
<g id="graph0" class="graph" transform="scale(1 1) rotate(0) translate(4 259)">
<title>/home/harlen/dev/abcg/abcg/abcgOpenGLWindow.cpp</title>
<!-- Node1 -->
<g id="node1" class="node">
<title>Node1</title>
<g id="a_node1"><a xlink:title="Definition of abcg::OpenGLWindow members.">
<polygon fill="#bfbfbf" stroke="black" points="354.5,-224.5 354.5,-254.5 519.5,-254.5 519.5,-224.5 354.5,-224.5"/>
<text text-anchor="start" x="362.5" y="-242.5" font-family="Helvetica,sans-Serif" font-size="10.00">/home/harlen/dev/abcg</text>
<text text-anchor="middle" x="437" y="-231.5" font-family="Helvetica,sans-Serif" font-size="10.00">/abcg/abcgOpenGLWindow.cpp</text>
</a>
</g>
</g>
<!-- Node2 -->
<g id="node2" class="node">
<title>Node2</title>
<g id="a_node2"><a xlink:href="abcgOpenGLWindow_8hpp.html" target="_top" xlink:title="Header file of abcg::OpenGLWindow.">
<polygon fill="none" stroke="black" points="151.5,-168.5 151.5,-187.5 288.5,-187.5 288.5,-168.5 151.5,-168.5"/>
<text text-anchor="middle" x="220" y="-175.5" font-family="Helvetica,sans-Serif" font-size="10.00">abcgOpenGLWindow.hpp</text>
</a>
</g>
</g>
<!-- Node1&#45;&gt;Node2 -->
<g id="edge1" class="edge">
<title>Node1&#45;&gt;Node2</title>
<path fill="none" stroke="midnightblue" d="M385.85,-224.47C347.76,-214.03 296.43,-199.96 261.02,-190.25"/>
<polygon fill="midnightblue" stroke="midnightblue" points="261.59,-186.78 251.02,-187.51 259.74,-193.53 261.59,-186.78"/>
</g>
<!-- Node10 -->
<g id="node10" class="node">
<title>Node10</title>
<g id="a_node10"><a xlink:href="abcgWindow_8hpp.html" target="_top" xlink:title="Header file of abcg::Window.">
<polygon fill="none" stroke="black" points="73.5,-112.5 73.5,-131.5 172.5,-131.5 172.5,-112.5 73.5,-112.5"/>
<text text-anchor="middle" x="123" y="-119.5" font-family="Helvetica,sans-Serif" font-size="10.00">abcgWindow.hpp</text>
</a>
</g>
</g>
<!-- Node1&#45;&gt;Node10 -->
<g id="edge24" class="edge">
<title>Node1&#45;&gt;Node10</title>
<path fill="none" stroke="midnightblue" d="M354.24,-234C278.17,-228.19 172.69,-215.36 142,-188 128.99,-176.41 124.68,-156.45 123.35,-141.7"/>
<polygon fill="midnightblue" stroke="midnightblue" points="126.84,-141.46 122.82,-131.66 119.85,-141.83 126.84,-141.46"/>
</g>
<!-- Node13 -->
<g id="node13" class="node">
<title>Node13</title>
<g id="a_node13"><a xlink:title=" ">
<polygon fill="none" stroke="#bfbfbf" points="345.5,-168.5 345.5,-187.5 428.5,-187.5 428.5,-168.5 345.5,-168.5"/>
<text text-anchor="middle" x="387" y="-175.5" font-family="Helvetica,sans-Serif" font-size="10.00">SDL_events.h</text>
</a>
</g>
</g>
<!-- Node1&#45;&gt;Node13 -->
<g id="edge14" class="edge">
<title>Node1&#45;&gt;Node13</title>
<path fill="none" stroke="midnightblue" d="M425.15,-224.4C417.89,-215.75 408.55,-204.64 400.93,-195.58"/>
<polygon fill="midnightblue" stroke="midnightblue" points="403.39,-193.06 394.28,-187.66 398.03,-197.57 403.39,-193.06"/>
</g>
<!-- Node14 -->
<g id="node14" class="node">
<title>Node14</title>
<g id="a_node14"><a xlink:title=" ">
<polygon fill="none" stroke="#bfbfbf" points="447,-168.5 447,-187.5 527,-187.5 527,-168.5 447,-168.5"/>
<text text-anchor="middle" x="487" y="-175.5" font-family="Helvetica,sans-Serif" font-size="10.00">SDL_image.h</text>
</a>
</g>
</g>
<!-- Node1&#45;&gt;Node14 -->
<g id="edge15" class="edge">
<title>Node1&#45;&gt;Node14</title>
<path fill="none" stroke="midnightblue" d="M448.85,-224.4C456.11,-215.75 465.45,-204.64 473.07,-195.58"/>
<polygon fill="midnightblue" stroke="midnightblue" points="475.97,-197.57 479.72,-187.66 470.61,-193.06 475.97,-197.57"/>
</g>
<!-- Node15 -->
<g id="node15" class="node">
<title>Node15</title>
<g id="a_node15"><a xlink:title=" ">
<polygon fill="none" stroke="#bfbfbf" points="545.5,-168.5 545.5,-187.5 670.5,-187.5 670.5,-168.5 545.5,-168.5"/>
<text text-anchor="middle" x="608" y="-175.5" font-family="Helvetica,sans-Serif" font-size="10.00">imgui_impl_opengl3.h</text>
</a>
</g>
</g>
<!-- Node1&#45;&gt;Node15 -->
<g id="edge16" class="edge">
<title>Node1&#45;&gt;Node15</title>
<path fill="none" stroke="midnightblue" d="M477.52,-224.4C506.73,-214.24 545.72,-200.67 573.45,-191.02"/>
<polygon fill="midnightblue" stroke="midnightblue" points="574.82,-194.25 583.12,-187.66 572.52,-187.64 574.82,-194.25"/>
</g>
<!-- Node16 -->
<g id="node16" class="node">
<title>Node16</title>
<g id="a_node16"><a xlink:title=" ">
<polygon fill="none" stroke="#bfbfbf" points="689,-168.5 689,-187.5 795,-187.5 795,-168.5 689,-168.5"/>
<text text-anchor="middle" x="742" y="-175.5" font-family="Helvetica,sans-Serif" font-size="10.00">imgui_impl_sdl2.h</text>
</a>
</g>
</g>
<!-- Node1&#45;&gt;Node16 -->
<g id="edge17" class="edge">
<title>Node1&#45;&gt;Node16</title>
<path fill="none" stroke="midnightblue" d="M508.89,-224.47C563.93,-213.74 638.61,-199.17 688.46,-189.44"/>
<polygon fill="midnightblue" stroke="midnightblue" points="689.25,-192.86 698.4,-187.51 687.91,-185.99 689.25,-192.86"/>
</g>
<!-- Node17 -->
<g id="node17" class="node">
<title>Node17</title>
<g id="a_node17"><a xlink:href="abcgEmbeddedFonts_8hpp.html" target="_top" xlink:title=" ">
<polygon fill="none" stroke="black" points="813.5,-168.5 813.5,-187.5 952.5,-187.5 952.5,-168.5 813.5,-168.5"/>
<text text-anchor="middle" x="883" y="-175.5" font-family="Helvetica,sans-Serif" font-size="10.00">abcgEmbeddedFonts.hpp</text>
</a>
</g>
</g>
<!-- Node1&#45;&gt;Node17 -->
<g id="edge18" class="edge">
<title>Node1&#45;&gt;Node17</title>
<path fill="none" stroke="midnightblue" d="M519.58,-227.48C602.65,-216.4 729.55,-199.47 809.31,-188.83"/>
<polygon fill="midnightblue" stroke="midnightblue" points="809.82,-192.29 819.27,-187.5 808.9,-185.35 809.82,-192.29"/>
</g>
<!-- Node19 -->
<g id="node19" class="node">
<title>Node19</title>
<g id="a_node19"><a xlink:href="abcgException_8hpp.html" target="_top" xlink:title="Header file of abcg::Exception and derived classes.">
<polygon fill="none" stroke="black" points="264.5,-112.5 264.5,-131.5 373.5,-131.5 373.5,-112.5 264.5,-112.5"/>
<text text-anchor="middle" x="319" y="-119.5" font-family="Helvetica,sans-Serif" font-size="10.00">abcgException.hpp</text>
</a>
</g>
</g>
<!-- Node1&#45;&gt;Node19 -->
<g id="edge20" class="edge">
<title>Node1&#45;&gt;Node19</title>
<path fill="none" stroke="midnightblue" d="M389.43,-224.41C370.33,-216.53 349.65,-204.82 336,-188 325.33,-174.85 321.3,-155.71 319.8,-141.6"/>
<polygon fill="midnightblue" stroke="midnightblue" points="323.29,-141.3 319.07,-131.58 316.31,-141.81 323.29,-141.3"/>
</g>
<!-- Node3 -->
<g id="node3" class="node">
<title>Node3</title>
<g id="a_node3"><a xlink:title=" ">
<polygon fill="none" stroke="#bfbfbf" points="0,-56.5 0,-75.5 44,-75.5 44,-56.5 0,-56.5"/>
<text text-anchor="middle" x="22" y="-63.5" font-family="Helvetica,sans-Serif" font-size="10.00">string</text>
</a>
</g>
</g>
<!-- Node2&#45;&gt;Node3 -->
<g id="edge2" class="edge">
<title>Node2&#45;&gt;Node3</title>
<path fill="none" stroke="midnightblue" d="M152.67,-168.43C123.25,-162.09 89.68,-151.08 64,-132 47.86,-120.01 36.23,-99.82 29.36,-85.12"/>
<polygon fill="midnightblue" stroke="midnightblue" points="32.41,-83.35 25.2,-75.58 25.99,-86.14 32.41,-83.35"/>
</g>
<!-- Node4 -->
<g id="node4" class="node">
<title>Node4</title>
<g id="a_node4"><a xlink:href="abcgExternal_8hpp.html" target="_top" xlink:title="Header file for including third&#45;party dependencies.">
<polygon fill="none" stroke="black" points="169.5,-56.5 169.5,-75.5 270.5,-75.5 270.5,-56.5 169.5,-56.5"/>
<text text-anchor="middle" x="220" y="-63.5" font-family="Helvetica,sans-Serif" font-size="10.00">abcgExternal.hpp</text>
</a>
</g>
</g>
<!-- Node2&#45;&gt;Node4 -->
<g id="edge3" class="edge">
<title>Node2&#45;&gt;Node4</title>
<path fill="none" stroke="midnightblue" d="M220,-168.37C220,-150.62 220,-109.67 220,-85.6"/>
<polygon fill="midnightblue" stroke="midnightblue" points="223.5,-85.59 220,-75.59 216.5,-85.59 223.5,-85.59"/>
</g>
<!-- Node5 -->
<g id="node5" class="node">
<title>Node5</title>
<g id="a_node5"><a xlink:href="abcgOpenGLFunction_8hpp.html" target="_top" xlink:title="Declaration of OpenGL&#45;related error checking functions.">
<polygon fill="none" stroke="black" points="449,-112.5 449,-131.5 589,-131.5 589,-112.5 449,-112.5"/>
<text text-anchor="middle" x="519" y="-119.5" font-family="Helvetica,sans-Serif" font-size="10.00">abcgOpenGLFunction.hpp</text>
</a>
</g>
</g>
<!-- Node2&#45;&gt;Node5 -->
<g id="edge4" class="edge">
<title>Node2&#45;&gt;Node5</title>
<path fill="none" stroke="midnightblue" d="M267.38,-168.44C320.08,-158.92 405.23,-143.55 461.66,-133.36"/>
<polygon fill="midnightblue" stroke="midnightblue" points="462.63,-136.74 471.84,-131.52 461.38,-129.85 462.63,-136.74"/>
</g>
<!-- Node2&#45;&gt;Node10 -->
<g id="edge9" class="edge">
<title>Node2&#45;&gt;Node10</title>
<path fill="none" stroke="midnightblue" d="M204.42,-168.32C189,-159.74 165.19,-146.49 147.29,-136.52"/>
<polygon fill="midnightblue" stroke="midnightblue" points="148.99,-133.46 138.55,-131.65 145.58,-139.58 148.99,-133.46"/>
</g>
<!-- Node6 -->
<g id="node6" class="node">
<title>Node6</title>
<g id="a_node6"><a xlink:title=" ">
<polygon fill="none" stroke="#bfbfbf" points="371.5,-56.5 371.5,-75.5 464.5,-75.5 464.5,-56.5 371.5,-56.5"/>
<text text-anchor="middle" x="418" y="-63.5" font-family="Helvetica,sans-Serif" font-size="10.00">source_location</text>
</a>
</g>
</g>
<!-- Node5&#45;&gt;Node6 -->
<g id="edge5" class="edge">
<title>Node5&#45;&gt;Node6</title>
<path fill="none" stroke="midnightblue" d="M502.77,-112.32C486.65,-103.7 461.7,-90.36 443.04,-80.39"/>
<polygon fill="midnightblue" stroke="midnightblue" points="444.66,-77.28 434.19,-75.65 441.36,-83.46 444.66,-77.28"/>
</g>
<!-- Node7 -->
<g id="node7" class="node">
<title>Node7</title>
<g id="a_node7"><a xlink:title=" ">
<polygon fill="none" stroke="#bfbfbf" points="482.5,-56.5 482.5,-75.5 555.5,-75.5 555.5,-56.5 482.5,-56.5"/>
<text text-anchor="middle" x="519" y="-63.5" font-family="Helvetica,sans-Serif" font-size="10.00">string_view</text>
</a>
</g>
</g>
<!-- Node5&#45;&gt;Node7 -->
<g id="edge6" class="edge">
<title>Node5&#45;&gt;Node7</title>
<path fill="none" stroke="midnightblue" d="M519,-112.08C519,-105.01 519,-94.86 519,-85.99"/>
<polygon fill="midnightblue" stroke="midnightblue" points="522.5,-85.75 519,-75.75 515.5,-85.75 522.5,-85.75"/>
</g>
<!-- Node8 -->
<g id="node8" class="node">
<title>Node8</title>
<g id="a_node8"><a xlink:title=" ">
<polygon fill="none" stroke="#bfbfbf" points="573.5,-56.5 573.5,-75.5 642.5,-75.5 642.5,-56.5 573.5,-56.5"/>
<text text-anchor="middle" x="608" y="-63.5" font-family="Helvetica,sans-Serif" font-size="10.00">type_traits</text>
</a>
</g>
</g>
<!-- Node5&#45;&gt;Node8 -->
<g id="edge7" class="edge">
<title>Node5&#45;&gt;Node8</title>
<path fill="none" stroke="midnightblue" d="M533.3,-112.32C547.18,-103.9 568.49,-90.97 584.8,-81.07"/>
<polygon fill="midnightblue" stroke="midnightblue" points="587,-83.83 593.74,-75.65 583.37,-77.85 587,-83.83"/>
</g>
<!-- Node9 -->
<g id="node9" class="node">
<title>Node9</title>
<g id="a_node9"><a xlink:href="abcgOpenGLExternal_8hpp.html" target="_top" xlink:title="Header file for including OpenGL&#45;related third&#45;party dependencies.">
<polygon fill="none" stroke="black" points="661,-56.5 661,-75.5 801,-75.5 801,-56.5 661,-56.5"/>
<text text-anchor="middle" x="731" y="-63.5" font-family="Helvetica,sans-Serif" font-size="10.00">abcgOpenGLExternal.hpp</text>
</a>
</g>
</g>
<!-- Node5&#45;&gt;Node9 -->
<g id="edge8" class="edge">
<title>Node5&#45;&gt;Node9</title>
<path fill="none" stroke="midnightblue" d="M552.59,-112.44C589.19,-103.12 647.84,-88.18 687.83,-78"/>
<polygon fill="midnightblue" stroke="midnightblue" points="688.74,-81.38 697.57,-75.52 687.01,-74.59 688.74,-81.38"/>
</g>
<!-- Node10&#45;&gt;Node3 -->
<g id="edge10" class="edge">
<title>Node10&#45;&gt;Node3</title>
<path fill="none" stroke="midnightblue" d="M106.77,-112.32C90.65,-103.7 65.7,-90.36 47.04,-80.39"/>
<polygon fill="midnightblue" stroke="midnightblue" points="48.66,-77.28 38.19,-75.65 45.36,-83.46 48.66,-77.28"/>
</g>
<!-- Node10&#45;&gt;Node4 -->
<g id="edge11" class="edge">
<title>Node10&#45;&gt;Node4</title>
<path fill="none" stroke="midnightblue" d="M138.58,-112.32C154,-103.74 177.81,-90.49 195.71,-80.52"/>
<polygon fill="midnightblue" stroke="midnightblue" points="197.42,-83.58 204.45,-75.65 194.01,-77.46 197.42,-83.58"/>
</g>
<!-- Node11 -->
<g id="node11" class="node">
<title>Node11</title>
<g id="a_node11"><a xlink:href="abcgTimer_8hpp.html" target="_top" xlink:title="Header file of abcg::Timer.">
<polygon fill="none" stroke="black" points="62.5,-56.5 62.5,-75.5 151.5,-75.5 151.5,-56.5 62.5,-56.5"/>
<text text-anchor="middle" x="107" y="-63.5" font-family="Helvetica,sans-Serif" font-size="10.00">abcgTimer.hpp</text>
</a>
</g>
</g>
<!-- Node10&#45;&gt;Node11 -->
<g id="edge12" class="edge">
<title>Node10&#45;&gt;Node11</title>
<path fill="none" stroke="midnightblue" d="M120.36,-112.08C118.21,-104.85 115.12,-94.41 112.45,-85.4"/>
<polygon fill="midnightblue" stroke="midnightblue" points="115.79,-84.34 109.59,-75.75 109.08,-86.33 115.79,-84.34"/>
</g>
<!-- Node12 -->
<g id="node12" class="node">
<title>Node12</title>
<g id="a_node12"><a xlink:title=" ">
<polygon fill="none" stroke="#bfbfbf" points="82,-0.5 82,-19.5 132,-19.5 132,-0.5 82,-0.5"/>
<text text-anchor="middle" x="107" y="-7.5" font-family="Helvetica,sans-Serif" font-size="10.00">chrono</text>
</a>
</g>
</g>
<!-- Node11&#45;&gt;Node12 -->
<g id="edge13" class="edge">
<title>Node11&#45;&gt;Node12</title>
<path fill="none" stroke="midnightblue" d="M107,-56.08C107,-49.01 107,-38.86 107,-29.99"/>
<polygon fill="midnightblue" stroke="midnightblue" points="110.5,-29.75 107,-19.75 103.5,-29.75 110.5,-29.75"/>
</g>
<!-- Node18 -->
<g id="node18" class="node">
<title>Node18</title>
<g id="a_node18"><a xlink:title=" ">
<polygon fill="none" stroke="#bfbfbf" points="862,-112.5 862,-131.5 904,-131.5 904,-112.5 862,-112.5"/>
<text text-anchor="middle" x="883" y="-119.5" font-family="Helvetica,sans-Serif" font-size="10.00">array</text>
</a>
</g>
</g>
<!-- Node17&#45;&gt;Node18 -->
<g id="edge19" class="edge">
<title>Node17&#45;&gt;Node18</title>
<path fill="none" stroke="midnightblue" d="M883,-168.08C883,-161.01 883,-150.86 883,-141.99"/>
<polygon fill="midnightblue" stroke="midnightblue" points="886.5,-141.75 883,-131.75 879.5,-141.75 886.5,-141.75"/>
</g>
<!-- Node19&#45;&gt;Node3 -->
<g id="edge23" class="edge">
<title>Node19&#45;&gt;Node3</title>
<path fill="none" stroke="midnightblue" d="M264.38,-113.64C212.57,-106.23 132.39,-93.68 54.28,-76.08"/>
<polygon fill="midnightblue" stroke="midnightblue" points="54.8,-72.61 44.27,-73.8 53.24,-79.44 54.8,-72.61"/>
</g>
<!-- Node19&#45;&gt;Node6 -->
<g id="edge21" class="edge">
<title>Node19&#45;&gt;Node6</title>
<path fill="none" stroke="midnightblue" d="M334.91,-112.32C350.64,-103.74 374.94,-90.49 393.21,-80.52"/>
<polygon fill="midnightblue" stroke="midnightblue" points="395.03,-83.52 402.13,-75.65 391.68,-77.37 395.03,-83.52"/>
</g>
<!-- Node20 -->
<g id="node20" class="node">
<title>Node20</title>
<g id="a_node20"><a xlink:title=" ">
<polygon fill="none" stroke="#bfbfbf" points="288.5,-56.5 288.5,-75.5 353.5,-75.5 353.5,-56.5 288.5,-56.5"/>
<text text-anchor="middle" x="321" y="-63.5" font-family="Helvetica,sans-Serif" font-size="10.00">stdexcept</text>
</a>
</g>
</g>
<!-- Node19&#45;&gt;Node20 -->
<g id="edge22" class="edge">
<title>Node19&#45;&gt;Node20</title>
<path fill="none" stroke="midnightblue" d="M319.33,-112.08C319.59,-105.01 319.97,-94.86 320.3,-85.99"/>
<polygon fill="midnightblue" stroke="midnightblue" points="323.8,-85.87 320.68,-75.75 316.81,-85.61 323.8,-85.87"/>
</g>
</g>
</svg>
