<?xml version="1.0" encoding="UTF-8" standalone="no"?>
<!DOCTYPE svg PUBLIC "-//W3C//DTD SVG 1.1//EN"
 "http://www.w3.org/Graphics/SVG/1.1/DTD/svg11.dtd">
<!-- Generated by graphviz version 2.43.0 (0)
 -->
<!-- Title: /home/harlen/dev/abcg2/abcg/abcg_trackball.cpp Pages: 1 -->
<svg width="340pt" height="207pt"
 viewBox="0.00 0.00 340.00 207.00" xmlns="http://www.w3.org/2000/svg" xmlns:xlink="http://www.w3.org/1999/xlink">
<g id="graph0" class="graph" transform="scale(1 1) rotate(0) translate(4 203)">
<title>/home/harlen/dev/abcg2/abcg/abcg_trackball.cpp</title>
<!-- Node1 -->
<g id="node1" class="node">
<title>Node1</title>
<g id="a_node1"><a xlink:title="Definition of abcg::TrackBall members.">
<polygon fill="#bfbfbf" stroke="black" points="169.5,-168.5 169.5,-198.5 306.5,-198.5 306.5,-168.5 169.5,-168.5"/>
<text text-anchor="start" x="177.5" y="-186.5" font-family="Helvetica,sans-Serif" font-size="10.00">/home/harlen/dev/abcg2</text>
<text text-anchor="middle" x="238" y="-175.5" font-family="Helvetica,sans-Serif" font-size="10.00">/abcg/abcg_trackball.cpp</text>
</a>
</g>
</g>
<!-- Node2 -->
<g id="node2" class="node">
<title>Node2</title>
<g id="a_node2"><a xlink:href="abcg__trackball_8hpp.html" target="_top" xlink:title="Header file of abcg::TrackBall.">
<polygon fill="none" stroke="black" points="78.5,-112.5 78.5,-131.5 187.5,-131.5 187.5,-112.5 78.5,-112.5"/>
<text text-anchor="middle" x="133" y="-119.5" font-family="Helvetica,sans-Serif" font-size="10.00">abcg_trackball.hpp</text>
</a>
</g>
</g>
<!-- Node1&#45;&gt;Node2 -->
<g id="edge1" class="edge">
<title>Node1&#45;&gt;Node2</title>
<path fill="none" stroke="midnightblue" d="M213.12,-168.4C196.29,-158.86 174.16,-146.32 157.43,-136.84"/>
<polygon fill="midnightblue" stroke="midnightblue" points="158.7,-133.54 148.28,-131.66 155.25,-139.63 158.7,-133.54"/>
</g>
<!-- Node6 -->
<g id="node6" class="node">
<title>Node6</title>
<g id="a_node6"><a xlink:title=" ">
<polygon fill="none" stroke="#bfbfbf" points="206,-112.5 206,-131.5 270,-131.5 270,-112.5 206,-112.5"/>
<text text-anchor="middle" x="238" y="-119.5" font-family="Helvetica,sans-Serif" font-size="10.00">algorithm</text>
</a>
</g>
</g>
<!-- Node1&#45;&gt;Node6 -->
<g id="edge5" class="edge">
<title>Node1&#45;&gt;Node6</title>
<path fill="none" stroke="midnightblue" d="M238,-168.4C238,-160.47 238,-150.46 238,-141.86"/>
<polygon fill="midnightblue" stroke="midnightblue" points="241.5,-141.66 238,-131.66 234.5,-141.66 241.5,-141.66"/>
</g>
<!-- Node7 -->
<g id="node7" class="node">
<title>Node7</title>
<g id="a_node7"><a xlink:title=" ">
<polygon fill="none" stroke="#bfbfbf" points="288,-112.5 288,-131.5 332,-131.5 332,-112.5 288,-112.5"/>
<text text-anchor="middle" x="310" y="-119.5" font-family="Helvetica,sans-Serif" font-size="10.00">limits</text>
</a>
</g>
</g>
<!-- Node1&#45;&gt;Node7 -->
<g id="edge6" class="edge">
<title>Node1&#45;&gt;Node7</title>
<path fill="none" stroke="midnightblue" d="M255.06,-168.4C266.06,-159.31 280.37,-147.49 291.62,-138.19"/>
<polygon fill="midnightblue" stroke="midnightblue" points="294.04,-140.73 299.52,-131.66 289.59,-135.33 294.04,-140.73"/>
</g>
<!-- Node3 -->
<g id="node3" class="node">
<title>Node3</title>
<g id="a_node3"><a xlink:href="abcg__elapsedtimer_8hpp.html" target="_top" xlink:title="Header file of abcg::ElapsedTimer.">
<polygon fill="none" stroke="black" points="0,-56.5 0,-75.5 130,-75.5 130,-56.5 0,-56.5"/>
<text text-anchor="middle" x="65" y="-63.5" font-family="Helvetica,sans-Serif" font-size="10.00">abcg_elapsedtimer.hpp</text>
</a>
</g>
</g>
<!-- Node2&#45;&gt;Node3 -->
<g id="edge2" class="edge">
<title>Node2&#45;&gt;Node3</title>
<path fill="none" stroke="midnightblue" d="M122.07,-112.32C111.83,-104.18 96.28,-91.84 84,-82.09"/>
<polygon fill="midnightblue" stroke="midnightblue" points="86.13,-79.31 76.12,-75.83 81.78,-84.79 86.13,-79.31"/>
</g>
<!-- Node5 -->
<g id="node5" class="node">
<title>Node5</title>
<g id="a_node5"><a xlink:href="abcg__external_8hpp.html" target="_top" xlink:title="Header file for including third&#45;party dependencies.">
<polygon fill="none" stroke="black" points="148.5,-56.5 148.5,-75.5 255.5,-75.5 255.5,-56.5 148.5,-56.5"/>
<text text-anchor="middle" x="202" y="-63.5" font-family="Helvetica,sans-Serif" font-size="10.00">abcg_external.hpp</text>
</a>
</g>
</g>
<!-- Node2&#45;&gt;Node5 -->
<g id="edge4" class="edge">
<title>Node2&#45;&gt;Node5</title>
<path fill="none" stroke="midnightblue" d="M144.09,-112.32C154.49,-104.18 170.26,-91.84 182.72,-82.09"/>
<polygon fill="midnightblue" stroke="midnightblue" points="184.99,-84.75 190.71,-75.83 180.68,-79.24 184.99,-84.75"/>
</g>
<!-- Node4 -->
<g id="node4" class="node">
<title>Node4</title>
<g id="a_node4"><a xlink:title=" ">
<polygon fill="none" stroke="#bfbfbf" points="40,-0.5 40,-19.5 90,-19.5 90,-0.5 40,-0.5"/>
<text text-anchor="middle" x="65" y="-7.5" font-family="Helvetica,sans-Serif" font-size="10.00">chrono</text>
</a>
</g>
</g>
<!-- Node3&#45;&gt;Node4 -->
<g id="edge3" class="edge">
<title>Node3&#45;&gt;Node4</title>
<path fill="none" stroke="midnightblue" d="M65,-56.08C65,-49.01 65,-38.86 65,-29.99"/>
<polygon fill="midnightblue" stroke="midnightblue" points="68.5,-29.75 65,-19.75 61.5,-29.75 68.5,-29.75"/>
</g>
</g>
</svg>
