<?xml version="1.0" encoding="UTF-8" standalone="no"?>
<!DOCTYPE svg PUBLIC "-//W3C//DTD SVG 1.1//EN"
 "http://www.w3.org/Graphics/SVG/1.1/DTD/svg11.dtd">
<!-- Generated by graphviz version 2.43.0 (0)
 -->
<!-- Title: /home/harlen/dev/abcg/abcg/abcgVulkanDevice.hpp Pages: 1 -->
<svg width="1210pt" height="368pt"
 viewBox="0.00 0.00 1210.00 368.00" xmlns="http://www.w3.org/2000/svg" xmlns:xlink="http://www.w3.org/1999/xlink">
<g id="graph0" class="graph" transform="scale(1 1) rotate(0) translate(4 364)">
<title>/home/harlen/dev/abcg/abcg/abcgVulkanDevice.hpp</title>
<!-- Node1 -->
<g id="Node000001" class="node">
<title>Node1</title>
<g id="a_Node000001"><a xlink:title="Header file of abcg::VulkanDevice.">
<polygon fill="#999999" stroke="#666666" points="942.5,-360 786.5,-360 786.5,-330 942.5,-330 942.5,-360"/>
<text text-anchor="start" x="794.5" y="-348" font-family="Helvetica,sans-Serif" font-size="10.00">/home/harlen/dev/abcg</text>
<text text-anchor="middle" x="864.5" y="-337" font-family="Helvetica,sans-Serif" font-size="10.00">/abcg/abcgVulkanDevice.hpp</text>
</a>
</g>
</g>
<!-- Node2 -->
<g id="Node000002" class="node">
<title>Node2</title>
<g id="a_Node000002"><a xlink:href="abcgVulkanBuffer_8hpp.html" target="_top" xlink:title="Header file of abcg::VulkanBuffer.">
<polygon fill="white" stroke="#666666" points="605,-294 454,-294 454,-264 605,-264 605,-294"/>
<text text-anchor="start" x="462" y="-282" font-family="Helvetica,sans-Serif" font-size="10.00">/home/harlen/dev/abcg</text>
<text text-anchor="middle" x="529.5" y="-271" font-family="Helvetica,sans-Serif" font-size="10.00">/abcg/abcgVulkanBuffer.hpp</text>
</a>
</g>
</g>
<!-- Node1&#45;&gt;Node2 -->
<g id="edge1_Node000001_Node000002" class="edge">
<title>Node1&#45;&gt;Node2</title>
<g id="a_edge1_Node000001_Node000002"><a xlink:title=" ">
<path fill="none" stroke="#63b8ff" d="M780.96,-328.04C726.24,-317.59 655.39,-304.05 602.85,-294.01"/>
<polygon fill="#63b8ff" stroke="#63b8ff" points="780.5,-331.52 790.98,-329.95 781.82,-324.64 780.5,-331.52"/>
</a>
</g>
</g>
<!-- Node7 -->
<g id="Node000007" class="node">
<title>Node7</title>
<g id="a_Node000007"><a xlink:href="abcgVulkanDevice_8cpp.html" target="_top" xlink:title="Definition of abcg::VulkanDevice.">
<polygon fill="white" stroke="#666666" points="1202,-294 1047,-294 1047,-264 1202,-264 1202,-294"/>
<text text-anchor="start" x="1055" y="-282" font-family="Helvetica,sans-Serif" font-size="10.00">/home/harlen/dev/abcg</text>
<text text-anchor="middle" x="1124.5" y="-271" font-family="Helvetica,sans-Serif" font-size="10.00">/abcg/abcgVulkanDevice.cpp</text>
</a>
</g>
</g>
<!-- Node1&#45;&gt;Node7 -->
<g id="edge6_Node000001_Node000007" class="edge">
<title>Node1&#45;&gt;Node7</title>
<g id="a_edge6_Node000001_Node000007"><a xlink:title=" ">
<path fill="none" stroke="#63b8ff" d="M931.46,-327.52C973.63,-317.14 1027.47,-303.88 1067.57,-294.01"/>
<polygon fill="#63b8ff" stroke="#63b8ff" points="930.43,-324.17 921.56,-329.95 932.1,-330.96 930.43,-324.17"/>
</a>
</g>
</g>
<!-- Node8 -->
<g id="Node000008" class="node">
<title>Node8</title>
<g id="a_Node000008"><a xlink:href="abcgVulkanImage_8hpp.html" target="_top" xlink:title="Header file of abcg::VulkanImage.">
<polygon fill="white" stroke="#666666" points="831,-294 678,-294 678,-264 831,-264 831,-294"/>
<text text-anchor="start" x="686" y="-282" font-family="Helvetica,sans-Serif" font-size="10.00">/home/harlen/dev/abcg</text>
<text text-anchor="middle" x="754.5" y="-271" font-family="Helvetica,sans-Serif" font-size="10.00">/abcg/abcgVulkanImage.hpp</text>
</a>
</g>
</g>
<!-- Node1&#45;&gt;Node8 -->
<g id="edge7_Node000001_Node000008" class="edge">
<title>Node1&#45;&gt;Node8</title>
<g id="a_edge7_Node000001_Node000008"><a xlink:title=" ">
<path fill="none" stroke="#63b8ff" d="M831.32,-324.69C814.34,-314.82 794.05,-303.01 778.58,-294.01"/>
<polygon fill="#63b8ff" stroke="#63b8ff" points="829.96,-327.95 840.36,-329.95 833.48,-321.9 829.96,-327.95"/>
</a>
</g>
</g>
<!-- Node9 -->
<g id="Node000009" class="node">
<title>Node9</title>
<g id="a_Node000009"><a xlink:href="abcgVulkanSwapchain_8hpp.html" target="_top" xlink:title="Header file of abcg::VulkanSwapchain.">
<polygon fill="white" stroke="#666666" points="952,-228 777,-228 777,-198 952,-198 952,-228"/>
<text text-anchor="start" x="785" y="-216" font-family="Helvetica,sans-Serif" font-size="10.00">/home/harlen/dev/abcg</text>
<text text-anchor="middle" x="864.5" y="-205" font-family="Helvetica,sans-Serif" font-size="10.00">/abcg/abcgVulkanSwapchain.hpp</text>
</a>
</g>
</g>
<!-- Node1&#45;&gt;Node9 -->
<g id="edge24_Node000001_Node000009" class="edge">
<title>Node1&#45;&gt;Node9</title>
<g id="a_edge24_Node000001_Node000009"><a xlink:title=" ">
<path fill="none" stroke="#63b8ff" d="M864.5,-319.68C864.5,-292.7 864.5,-250.11 864.5,-228.14"/>
<polygon fill="#63b8ff" stroke="#63b8ff" points="861,-319.84 864.5,-329.84 868,-319.84 861,-319.84"/>
</a>
</g>
</g>
<!-- Node12 -->
<g id="Node000012" class="node">
<title>Node12</title>
<g id="a_Node000012"><a xlink:href="abcgVulkanSwapchain_8cpp.html" target="_top" xlink:title="Definition of abcg::VulkanSwapchain.">
<polygon fill="white" stroke="#666666" points="1084.5,-96 910.5,-96 910.5,-66 1084.5,-66 1084.5,-96"/>
<text text-anchor="start" x="918.5" y="-84" font-family="Helvetica,sans-Serif" font-size="10.00">/home/harlen/dev/abcg</text>
<text text-anchor="middle" x="997.5" y="-73" font-family="Helvetica,sans-Serif" font-size="10.00">/abcg/abcgVulkanSwapchain.cpp</text>
</a>
</g>
</g>
<!-- Node1&#45;&gt;Node12 -->
<g id="edge23_Node000001_Node000012" class="edge">
<title>Node1&#45;&gt;Node12</title>
<g id="a_edge23_Node000001_Node000012"><a xlink:title=" ">
<path fill="none" stroke="#63b8ff" d="M914.23,-325.51C929.53,-317.77 945.29,-307.39 956.5,-294 1006.21,-234.66 1002.4,-133.11 999.07,-96.06"/>
<polygon fill="#63b8ff" stroke="#63b8ff" points="912.33,-322.54 904.8,-330 915.33,-328.86 912.33,-322.54"/>
</a>
</g>
</g>
<!-- Node13 -->
<g id="Node000013" class="node">
<title>Node13</title>
<g id="a_Node000013"><a xlink:href="abcgVulkanWindow_8hpp.html" target="_top" xlink:title="Header file of abcg::VulkanWindow.">
<polygon fill="white" stroke="#666666" points="945,-162 784,-162 784,-132 945,-132 945,-162"/>
<text text-anchor="start" x="792" y="-150" font-family="Helvetica,sans-Serif" font-size="10.00">/home/harlen/dev/abcg</text>
<text text-anchor="middle" x="864.5" y="-139" font-family="Helvetica,sans-Serif" font-size="10.00">/abcg/abcgVulkanWindow.hpp</text>
</a>
</g>
</g>
<!-- Node1&#45;&gt;Node13 -->
<g id="edge25_Node000001_Node000013" class="edge">
<title>Node1&#45;&gt;Node13</title>
<g id="a_edge25_Node000001_Node000013"><a xlink:title=" ">
<path fill="none" stroke="#63b8ff" d="M894.45,-324.06C932.37,-296.24 989.55,-244.02 961.5,-198 951.2,-181.09 933.14,-169.66 915.38,-162.05"/>
<polygon fill="#63b8ff" stroke="#63b8ff" points="892.33,-321.28 886.23,-329.94 896.4,-326.97 892.33,-321.28"/>
</a>
</g>
</g>
<!-- Node15 -->
<g id="Node000015" class="node">
<title>Node15</title>
<g id="a_Node000015"><a xlink:href="abcgVulkanShader_8hpp.html" target="_top" xlink:title="Declaration of helper functions for creating Vulkan shaders.">
<polygon fill="white" stroke="#666666" points="315,-228 160,-228 160,-198 315,-198 315,-228"/>
<text text-anchor="start" x="168" y="-216" font-family="Helvetica,sans-Serif" font-size="10.00">/home/harlen/dev/abcg</text>
<text text-anchor="middle" x="237.5" y="-205" font-family="Helvetica,sans-Serif" font-size="10.00">/abcg/abcgVulkanShader.hpp</text>
</a>
</g>
</g>
<!-- Node1&#45;&gt;Node15 -->
<g id="edge19_Node000001_Node000015" class="edge">
<title>Node1&#45;&gt;Node15</title>
<g id="a_edge19_Node000001_Node000015"><a xlink:title=" ">
<path fill="none" stroke="#63b8ff" d="M776.21,-339.92C690.41,-334.45 556.98,-321.96 444.5,-294 379.07,-277.73 306.36,-246.32 266.9,-228.07"/>
<polygon fill="#63b8ff" stroke="#63b8ff" points="776.23,-343.42 786.43,-340.55 776.66,-336.44 776.23,-343.42"/>
</a>
</g>
</g>
<!-- Node3 -->
<g id="Node000003" class="node">
<title>Node3</title>
<g id="a_Node000003"><a xlink:href="abcgVulkan_8hpp.html" target="_top" xlink:title="Header file for Vulkan&#45;related functions and classes.">
<polygon fill="white" stroke="#666666" points="492.5,-96 364.5,-96 364.5,-66 492.5,-66 492.5,-96"/>
<text text-anchor="start" x="372.5" y="-84" font-family="Helvetica,sans-Serif" font-size="10.00">/home/harlen/dev/abcg</text>
<text text-anchor="middle" x="428.5" y="-73" font-family="Helvetica,sans-Serif" font-size="10.00">/abcg/abcgVulkan.hpp</text>
</a>
</g>
</g>
<!-- Node2&#45;&gt;Node3 -->
<g id="edge2_Node000002_Node000003" class="edge">
<title>Node2&#45;&gt;Node3</title>
<g id="a_edge2_Node000002_Node000003"><a xlink:title=" ">
<path fill="none" stroke="#63b8ff" d="M444.02,-264.73C423.54,-257.33 404,-245.83 391.5,-228 362.37,-186.47 398.64,-124.04 417.92,-96.23"/>
<polygon fill="#63b8ff" stroke="#63b8ff" points="443.2,-268.15 453.8,-267.95 445.39,-261.5 443.2,-268.15"/>
</a>
</g>
</g>
<!-- Node5 -->
<g id="Node000005" class="node">
<title>Node5</title>
<g id="a_Node000005"><a xlink:href="abcgVulkanBuffer_8cpp.html" target="_top" xlink:title="Definition of abcg::VulkanBuffer.">
<polygon fill="white" stroke="#666666" points="550.5,-228 400.5,-228 400.5,-198 550.5,-198 550.5,-228"/>
<text text-anchor="start" x="408.5" y="-216" font-family="Helvetica,sans-Serif" font-size="10.00">/home/harlen/dev/abcg</text>
<text text-anchor="middle" x="475.5" y="-205" font-family="Helvetica,sans-Serif" font-size="10.00">/abcg/abcgVulkanBuffer.cpp</text>
</a>
</g>
</g>
<!-- Node2&#45;&gt;Node5 -->
<g id="edge4_Node000002_Node000005" class="edge">
<title>Node2&#45;&gt;Node5</title>
<g id="a_edge4_Node000002_Node000005"><a xlink:title=" ">
<path fill="none" stroke="#63b8ff" d="M511.01,-256.09C503.22,-246.85 494.37,-236.36 487.45,-228.16"/>
<polygon fill="#63b8ff" stroke="#63b8ff" points="508.39,-258.41 517.52,-263.8 513.74,-253.9 508.39,-258.41"/>
</a>
</g>
</g>
<!-- Node6 -->
<g id="Node000006" class="node">
<title>Node6</title>
<g id="a_Node000006"><a xlink:href="abcgVulkanImage_8cpp.html" target="_top" xlink:title="Definition of abcg::VulkanImage.">
<polygon fill="white" stroke="#666666" points="720.5,-228 568.5,-228 568.5,-198 720.5,-198 720.5,-228"/>
<text text-anchor="start" x="576.5" y="-216" font-family="Helvetica,sans-Serif" font-size="10.00">/home/harlen/dev/abcg</text>
<text text-anchor="middle" x="644.5" y="-205" font-family="Helvetica,sans-Serif" font-size="10.00">/abcg/abcgVulkanImage.cpp</text>
</a>
</g>
</g>
<!-- Node2&#45;&gt;Node6 -->
<g id="edge5_Node000002_Node000006" class="edge">
<title>Node2&#45;&gt;Node6</title>
<g id="a_edge5_Node000002_Node000006"><a xlink:title=" ">
<path fill="none" stroke="#63b8ff" d="M563.7,-258.97C581.55,-249.03 603.01,-237.09 619.32,-228.01"/>
<polygon fill="#63b8ff" stroke="#63b8ff" points="561.77,-256.03 554.74,-263.95 565.18,-262.15 561.77,-256.03"/>
</a>
</g>
</g>
<!-- Node4 -->
<g id="Node000004" class="node">
<title>Node4</title>
<g id="a_Node000004"><a xlink:href="abcgVulkanInstance_8cpp.html" target="_top" xlink:title="Definition of abcg::VulkanInstance.">
<polygon fill="white" stroke="#666666" points="510,-30 347,-30 347,0 510,0 510,-30"/>
<text text-anchor="start" x="355" y="-18" font-family="Helvetica,sans-Serif" font-size="10.00">/home/harlen/dev/abcg</text>
<text text-anchor="middle" x="428.5" y="-7" font-family="Helvetica,sans-Serif" font-size="10.00">/abcg/abcgVulkanInstance.cpp</text>
</a>
</g>
</g>
<!-- Node3&#45;&gt;Node4 -->
<g id="edge3_Node000003_Node000004" class="edge">
<title>Node3&#45;&gt;Node4</title>
<g id="a_edge3_Node000003_Node000004"><a xlink:title=" ">
<path fill="none" stroke="#63b8ff" d="M428.5,-55.54C428.5,-46.96 428.5,-37.61 428.5,-30.16"/>
<polygon fill="#63b8ff" stroke="#63b8ff" points="425,-55.8 428.5,-65.8 432,-55.8 425,-55.8"/>
</a>
</g>
</g>
<!-- Node8&#45;&gt;Node3 -->
<g id="edge8_Node000008_Node000003" class="edge">
<title>Node8&#45;&gt;Node3</title>
<g id="a_edge8_Node000008_Node000003"><a xlink:title=" ">
<path fill="none" stroke="#63b8ff" d="M752.47,-253.67C749.81,-236.18 743.67,-213.12 729.5,-198 666.6,-130.88 560.51,-102.14 492.54,-90.15"/>
<polygon fill="#63b8ff" stroke="#63b8ff" points="749.01,-254.22 753.72,-263.71 755.96,-253.36 749.01,-254.22"/>
</a>
</g>
</g>
<!-- Node8&#45;&gt;Node6 -->
<g id="edge9_Node000008_Node000006" class="edge">
<title>Node8&#45;&gt;Node6</title>
<g id="a_edge9_Node000008_Node000006"><a xlink:title=" ">
<path fill="none" stroke="#63b8ff" d="M721.32,-258.69C704.34,-248.82 684.05,-237.01 668.58,-228.01"/>
<polygon fill="#63b8ff" stroke="#63b8ff" points="719.96,-261.95 730.36,-263.95 723.48,-255.9 719.96,-261.95"/>
</a>
</g>
</g>
<!-- Node8&#45;&gt;Node9 -->
<g id="edge10_Node000008_Node000009" class="edge">
<title>Node8&#45;&gt;Node9</title>
<g id="a_edge10_Node000008_Node000009"><a xlink:title=" ">
<path fill="none" stroke="#63b8ff" d="M787.68,-258.69C804.66,-248.82 824.95,-237.01 840.42,-228.01"/>
<polygon fill="#63b8ff" stroke="#63b8ff" points="785.52,-255.9 778.64,-263.95 789.04,-261.95 785.52,-255.9"/>
</a>
</g>
</g>
<!-- Node10 -->
<g id="Node000010" class="node">
<title>Node10</title>
<g id="a_Node000010"><a xlink:href="abcgVulkanPipeline_8hpp.html" target="_top" xlink:title="Header file of abcg::VulkanPipeline.">
<polygon fill="white" stroke="#666666" points="373,-162 212,-162 212,-132 373,-132 373,-162"/>
<text text-anchor="start" x="220" y="-150" font-family="Helvetica,sans-Serif" font-size="10.00">/home/harlen/dev/abcg</text>
<text text-anchor="middle" x="292.5" y="-139" font-family="Helvetica,sans-Serif" font-size="10.00">/abcg/abcgVulkanPipeline.hpp</text>
</a>
</g>
</g>
<!-- Node9&#45;&gt;Node10 -->
<g id="edge11_Node000009_Node000010" class="edge">
<title>Node9&#45;&gt;Node10</title>
<g id="a_edge11_Node000009_Node000010"><a xlink:title=" ">
<path fill="none" stroke="#63b8ff" d="M766.5,-201.04C655.53,-188.62 476.78,-168.62 373.41,-157.05"/>
<polygon fill="#63b8ff" stroke="#63b8ff" points="766.36,-204.54 776.69,-202.18 767.14,-197.58 766.36,-204.54"/>
</a>
</g>
</g>
<!-- Node9&#45;&gt;Node12 -->
<g id="edge14_Node000009_Node000012" class="edge">
<title>Node9&#45;&gt;Node12</title>
<g id="a_edge14_Node000009_Node000012"><a xlink:title=" ">
<path fill="none" stroke="#63b8ff" d="M909.52,-193.38C925.09,-185.38 941.8,-174.87 954.5,-162 973.43,-142.8 986.26,-113.56 992.69,-96.25"/>
<polygon fill="#63b8ff" stroke="#63b8ff" points="907.95,-190.25 900.52,-197.8 911.04,-196.53 907.95,-190.25"/>
</a>
</g>
</g>
<!-- Node9&#45;&gt;Node13 -->
<g id="edge15_Node000009_Node000013" class="edge">
<title>Node9&#45;&gt;Node13</title>
<g id="a_edge15_Node000009_Node000013"><a xlink:title=" ">
<path fill="none" stroke="#63b8ff" d="M864.5,-187.54C864.5,-178.96 864.5,-169.61 864.5,-162.16"/>
<polygon fill="#63b8ff" stroke="#63b8ff" points="861,-187.8 864.5,-197.8 868,-187.8 861,-187.8"/>
</a>
</g>
</g>
<!-- Node10&#45;&gt;Node3 -->
<g id="edge12_Node000010_Node000003" class="edge">
<title>Node10&#45;&gt;Node3</title>
<g id="a_edge12_Node000010_Node000003"><a xlink:title=" ">
<path fill="none" stroke="#63b8ff" d="M331.5,-127.65C352.89,-117.58 378.99,-105.3 398.72,-96.01"/>
<polygon fill="#63b8ff" stroke="#63b8ff" points="329.9,-124.53 322.35,-131.95 332.88,-130.86 329.9,-124.53"/>
</a>
</g>
</g>
<!-- Node11 -->
<g id="Node000011" class="node">
<title>Node11</title>
<g id="a_Node000011"><a xlink:href="abcgVulkanPipeline_8cpp.html" target="_top" xlink:title="Definition of abcg::VulkanPipeline.">
<polygon fill="white" stroke="#666666" points="346,-96 185,-96 185,-66 346,-66 346,-96"/>
<text text-anchor="start" x="193" y="-84" font-family="Helvetica,sans-Serif" font-size="10.00">/home/harlen/dev/abcg</text>
<text text-anchor="middle" x="265.5" y="-73" font-family="Helvetica,sans-Serif" font-size="10.00">/abcg/abcgVulkanPipeline.cpp</text>
</a>
</g>
</g>
<!-- Node10&#45;&gt;Node11 -->
<g id="edge13_Node000010_Node000011" class="edge">
<title>Node10&#45;&gt;Node11</title>
<g id="a_edge13_Node000010_Node000011"><a xlink:title=" ">
<path fill="none" stroke="#63b8ff" d="M282.54,-122.39C278.83,-113.59 274.72,-103.86 271.48,-96.16"/>
<polygon fill="#63b8ff" stroke="#63b8ff" points="279.4,-123.94 286.51,-131.8 285.85,-121.22 279.4,-123.94"/>
</a>
</g>
</g>
<!-- Node13&#45;&gt;Node3 -->
<g id="edge16_Node000013_Node000003" class="edge">
<title>Node13&#45;&gt;Node3</title>
<g id="a_edge16_Node000013_Node000003"><a xlink:title=" ">
<path fill="none" stroke="#63b8ff" d="M773.73,-132.68C689.77,-120.35 567.09,-102.34 492.83,-91.44"/>
<polygon fill="#63b8ff" stroke="#63b8ff" points="773.37,-136.16 783.77,-134.15 774.38,-129.23 773.37,-136.16"/>
</a>
</g>
</g>
<!-- Node13&#45;&gt;Node12 -->
<g id="edge17_Node000013_Node000012" class="edge">
<title>Node13&#45;&gt;Node12</title>
<g id="a_edge17_Node000013_Node000012"><a xlink:title=" ">
<path fill="none" stroke="#63b8ff" d="M902.92,-127.51C923.78,-117.47 949.17,-105.26 968.38,-96.01"/>
<polygon fill="#63b8ff" stroke="#63b8ff" points="901.18,-124.46 893.69,-131.95 904.22,-130.77 901.18,-124.46"/>
</a>
</g>
</g>
<!-- Node14 -->
<g id="Node000014" class="node">
<title>Node14</title>
<g id="a_Node000014"><a xlink:href="abcgVulkanWindow_8cpp.html" target="_top" xlink:title="Definition of abcg::VulkanWindow members.">
<polygon fill="white" stroke="#666666" points="892.5,-96 732.5,-96 732.5,-66 892.5,-66 892.5,-96"/>
<text text-anchor="start" x="740.5" y="-84" font-family="Helvetica,sans-Serif" font-size="10.00">/home/harlen/dev/abcg</text>
<text text-anchor="middle" x="812.5" y="-73" font-family="Helvetica,sans-Serif" font-size="10.00">/abcg/abcgVulkanWindow.cpp</text>
</a>
</g>
</g>
<!-- Node13&#45;&gt;Node14 -->
<g id="edge18_Node000013_Node000014" class="edge">
<title>Node13&#45;&gt;Node14</title>
<g id="a_edge18_Node000013_Node000014"><a xlink:title=" ">
<path fill="none" stroke="#63b8ff" d="M846.47,-123.81C839.02,-114.64 830.6,-104.28 824.01,-96.16"/>
<polygon fill="#63b8ff" stroke="#63b8ff" points="843.94,-126.24 852.96,-131.8 849.37,-121.83 843.94,-126.24"/>
</a>
</g>
</g>
<!-- Node15&#45;&gt;Node3 -->
<g id="edge20_Node000015_Node000003" class="edge">
<title>Node15&#45;&gt;Node3</title>
<g id="a_edge20_Node000015_Node000003"><a xlink:title=" ">
<path fill="none" stroke="#63b8ff" d="M216.02,-189.97C201.99,-172.88 188.63,-149.27 202.5,-132 207.67,-125.57 299.24,-106.81 364.21,-94.18"/>
<polygon fill="#63b8ff" stroke="#63b8ff" points="213.63,-192.56 222.84,-197.78 218.9,-187.95 213.63,-192.56"/>
</a>
</g>
</g>
<!-- Node15&#45;&gt;Node10 -->
<g id="edge21_Node000015_Node000010" class="edge">
<title>Node15&#45;&gt;Node10</title>
<g id="a_edge21_Node000015_Node000010"><a xlink:title=" ">
<path fill="none" stroke="#63b8ff" d="M256.33,-190.09C264.27,-180.85 273.28,-170.36 280.33,-162.16"/>
<polygon fill="#63b8ff" stroke="#63b8ff" points="253.57,-187.93 249.71,-197.8 258.88,-192.49 253.57,-187.93"/>
</a>
</g>
</g>
<!-- Node16 -->
<g id="Node000016" class="node">
<title>Node16</title>
<g id="a_Node000016"><a xlink:href="abcgVulkanShader_8cpp.html" target="_top" xlink:title="Definition of helper functions for creating Vulkan shaders.">
<polygon fill="white" stroke="#666666" points="155,-162 0,-162 0,-132 155,-132 155,-162"/>
<text text-anchor="start" x="8" y="-150" font-family="Helvetica,sans-Serif" font-size="10.00">/home/harlen/dev/abcg</text>
<text text-anchor="middle" x="77.5" y="-139" font-family="Helvetica,sans-Serif" font-size="10.00">/abcg/abcgVulkanShader.cpp</text>
</a>
</g>
</g>
<!-- Node15&#45;&gt;Node16 -->
<g id="edge22_Node000015_Node000016" class="edge">
<title>Node15&#45;&gt;Node16</title>
<g id="a_edge22_Node000015_Node000016"><a xlink:title=" ">
<path fill="none" stroke="#63b8ff" d="M192.97,-194.19C167.56,-184.02 136.17,-171.47 112.53,-162.01"/>
<polygon fill="#63b8ff" stroke="#63b8ff" points="191.8,-197.49 202.39,-197.95 194.4,-190.99 191.8,-197.49"/>
</a>
</g>
</g>
</g>
</svg>
