<?xml version="1.0" encoding="UTF-8" standalone="no"?>
<!DOCTYPE svg PUBLIC "-//W3C//DTD SVG 1.1//EN"
 "http://www.w3.org/Graphics/SVG/1.1/DTD/svg11.dtd">
<!-- Generated by graphviz version 2.43.0 (0)
 -->
<!-- Title: /home/harlen/dev/abcg2/abcg/abcg_vulkan_window.hpp Pages: 1 -->
<svg width="956pt" height="218pt"
 viewBox="0.00 0.00 956.00 218.00" xmlns="http://www.w3.org/2000/svg" xmlns:xlink="http://www.w3.org/1999/xlink">
<g id="graph0" class="graph" transform="scale(1 1) rotate(0) translate(4 214)">
<title>/home/harlen/dev/abcg2/abcg/abcg_vulkan_window.hpp</title>
<!-- Node1 -->
<g id="node1" class="node">
<title>Node1</title>
<g id="a_node1"><a xlink:title="Header file of abcg::VulkanWindow.">
<polygon fill="#bfbfbf" stroke="black" points="324,-179.5 324,-209.5 494,-209.5 494,-179.5 324,-179.5"/>
<text text-anchor="start" x="332" y="-197.5" font-family="Helvetica,sans-Serif" font-size="10.00">/home/harlen/dev/abcg2</text>
<text text-anchor="middle" x="409" y="-186.5" font-family="Helvetica,sans-Serif" font-size="10.00">/abcg/abcg_vulkan_window.hpp</text>
</a>
</g>
</g>
<!-- Node2 -->
<g id="node2" class="node">
<title>Node2</title>
<g id="a_node2"><a xlink:title=" ">
<polygon fill="none" stroke="#bfbfbf" points="0,-118 0,-137 42,-137 42,-118 0,-118"/>
<text text-anchor="middle" x="21" y="-125" font-family="Helvetica,sans-Serif" font-size="10.00">array</text>
</a>
</g>
</g>
<!-- Node1&#45;&gt;Node2 -->
<g id="edge1" class="edge">
<title>Node1&#45;&gt;Node2</title>
<path fill="none" stroke="midnightblue" d="M323.86,-188.93C250.3,-183.23 141.83,-170.62 51,-143 49.33,-142.49 47.63,-141.9 45.94,-141.25"/>
<polygon fill="midnightblue" stroke="midnightblue" points="47.07,-137.93 36.51,-137.12 44.27,-144.34 47.07,-137.93"/>
</g>
<!-- Node3 -->
<g id="node3" class="node">
<title>Node3</title>
<g id="a_node3"><a xlink:title=" ">
<polygon fill="none" stroke="#bfbfbf" points="718,-56.5 718,-75.5 762,-75.5 762,-56.5 718,-56.5"/>
<text text-anchor="middle" x="740" y="-63.5" font-family="Helvetica,sans-Serif" font-size="10.00">string</text>
</a>
</g>
</g>
<!-- Node1&#45;&gt;Node3 -->
<g id="edge2" class="edge">
<title>Node1&#45;&gt;Node3</title>
<path fill="none" stroke="midnightblue" d="M494.11,-189.91C574.57,-184.75 687.65,-172.37 720,-143 735.91,-128.55 739.81,-103.12 740.46,-85.68"/>
<polygon fill="midnightblue" stroke="midnightblue" points="743.96,-85.59 740.51,-75.57 736.96,-85.56 743.96,-85.59"/>
</g>
<!-- Node4 -->
<g id="node4" class="node">
<title>Node4</title>
<g id="a_node4"><a xlink:href="abcg__vulkan_8hpp.html" target="_top" xlink:title="Header file for Vulkan&#45;related functions and classes.">
<polygon fill="none" stroke="black" points="276,-56.5 276,-75.5 374,-75.5 374,-56.5 276,-56.5"/>
<text text-anchor="middle" x="325" y="-63.5" font-family="Helvetica,sans-Serif" font-size="10.00">abcg_vulkan.hpp</text>
</a>
</g>
</g>
<!-- Node1&#45;&gt;Node4 -->
<g id="edge3" class="edge">
<title>Node1&#45;&gt;Node4</title>
<path fill="none" stroke="midnightblue" d="M323.96,-188.14C293.44,-181.6 261.92,-168.53 243,-143 234.8,-131.93 235.98,-123.86 243,-112 251.97,-96.84 268.07,-86.45 283.63,-79.5"/>
<polygon fill="midnightblue" stroke="midnightblue" points="285.25,-82.63 293.19,-75.62 282.61,-76.14 285.25,-82.63"/>
</g>
<!-- Node7 -->
<g id="node7" class="node">
<title>Node7</title>
<g id="a_node7"><a xlink:href="abcg__vulkan__device_8hpp.html" target="_top" xlink:title="Header file of abcg::VulkanDevice.">
<polygon fill="none" stroke="black" points="60,-118 60,-137 196,-137 196,-118 60,-118"/>
<text text-anchor="middle" x="128" y="-125" font-family="Helvetica,sans-Serif" font-size="10.00">abcg_vulkan_device.hpp</text>
</a>
</g>
</g>
<!-- Node1&#45;&gt;Node7 -->
<g id="edge6" class="edge">
<title>Node1&#45;&gt;Node7</title>
<path fill="none" stroke="midnightblue" d="M348.37,-179.48C296.37,-167.45 222.49,-150.36 174.9,-139.35"/>
<polygon fill="midnightblue" stroke="midnightblue" points="175.4,-135.87 164.87,-137.03 173.82,-142.69 175.4,-135.87"/>
</g>
<!-- Node8 -->
<g id="node8" class="node">
<title>Node8</title>
<g id="a_node8"><a xlink:href="abcg__vulkan__instance_8hpp.html" target="_top" xlink:title="Header file of abcg::VulkanInstance.">
<polygon fill="none" stroke="black" points="252.5,-118 252.5,-137 397.5,-137 397.5,-118 252.5,-118"/>
<text text-anchor="middle" x="325" y="-125" font-family="Helvetica,sans-Serif" font-size="10.00">abcg_vulkan_instance.hpp</text>
</a>
</g>
</g>
<!-- Node1&#45;&gt;Node8 -->
<g id="edge9" class="edge">
<title>Node1&#45;&gt;Node8</title>
<path fill="none" stroke="midnightblue" d="M390.77,-179.4C377.03,-168.76 358.22,-154.2 344.23,-143.38"/>
<polygon fill="midnightblue" stroke="midnightblue" points="346.29,-140.55 336.24,-137.19 342,-146.08 346.29,-140.55"/>
</g>
<!-- Node9 -->
<g id="node9" class="node">
<title>Node9</title>
<g id="a_node9"><a xlink:href="abcg__vulkan__physical__device_8hpp.html" target="_top" xlink:title="Header file of abcg::VulkanPhysicalDevice.">
<polygon fill="none" stroke="black" points="588.5,-112.5 588.5,-142.5 711.5,-142.5 711.5,-112.5 588.5,-112.5"/>
<text text-anchor="start" x="596.5" y="-130.5" font-family="Helvetica,sans-Serif" font-size="10.00">abcg_vulkan_physical</text>
<text text-anchor="middle" x="650" y="-119.5" font-family="Helvetica,sans-Serif" font-size="10.00">_device.hpp</text>
</a>
</g>
</g>
<!-- Node1&#45;&gt;Node9 -->
<g id="edge12" class="edge">
<title>Node1&#45;&gt;Node9</title>
<path fill="none" stroke="midnightblue" d="M461,-179.48C498.25,-169.43 548.57,-155.86 587.93,-145.24"/>
<polygon fill="midnightblue" stroke="midnightblue" points="588.94,-148.59 597.68,-142.61 587.11,-141.84 588.94,-148.59"/>
</g>
<!-- Node11 -->
<g id="node11" class="node">
<title>Node11</title>
<g id="a_node11"><a xlink:href="abcg__vulkan__swapchain_8hpp.html" target="_top" xlink:title="Header file of abcg::VulkanSwapchain.">
<polygon fill="none" stroke="black" points="415.5,-118 415.5,-137 570.5,-137 570.5,-118 415.5,-118"/>
<text text-anchor="middle" x="493" y="-125" font-family="Helvetica,sans-Serif" font-size="10.00">abcg_vulkan_swapchain.hpp</text>
</a>
</g>
</g>
<!-- Node1&#45;&gt;Node11 -->
<g id="edge16" class="edge">
<title>Node1&#45;&gt;Node11</title>
<path fill="none" stroke="midnightblue" d="M427.23,-179.4C440.97,-168.76 459.78,-154.2 473.77,-143.38"/>
<polygon fill="midnightblue" stroke="midnightblue" points="476,-146.08 481.76,-137.19 471.71,-140.55 476,-146.08"/>
</g>
<!-- Node12 -->
<g id="node12" class="node">
<title>Node12</title>
<g id="a_node12"><a xlink:href="abcg__window_8hpp.html" target="_top" xlink:title="Header file of abcg::Window.">
<polygon fill="none" stroke="black" points="768.5,-118 768.5,-137 871.5,-137 871.5,-118 768.5,-118"/>
<text text-anchor="middle" x="820" y="-125" font-family="Helvetica,sans-Serif" font-size="10.00">abcg_window.hpp</text>
</a>
</g>
</g>
<!-- Node1&#45;&gt;Node12 -->
<g id="edge19" class="edge">
<title>Node1&#45;&gt;Node12</title>
<path fill="none" stroke="midnightblue" d="M494.34,-182.72C564.33,-173.47 665.87,-159.11 754,-143 760.29,-141.85 766.88,-140.53 773.38,-139.17"/>
<polygon fill="midnightblue" stroke="midnightblue" points="774.39,-142.54 783.44,-137.02 772.93,-135.69 774.39,-142.54"/>
</g>
<!-- Node5 -->
<g id="node5" class="node">
<title>Node5</title>
<g id="a_node5"><a xlink:href="abcg__external_8hpp.html" target="_top" xlink:title="Header file for including third&#45;party dependencies.">
<polygon fill="none" stroke="black" points="403.5,-0.5 403.5,-19.5 510.5,-19.5 510.5,-0.5 403.5,-0.5"/>
<text text-anchor="middle" x="457" y="-7.5" font-family="Helvetica,sans-Serif" font-size="10.00">abcg_external.hpp</text>
</a>
</g>
</g>
<!-- Node4&#45;&gt;Node5 -->
<g id="edge4" class="edge">
<title>Node4&#45;&gt;Node5</title>
<path fill="none" stroke="midnightblue" d="M345.92,-56.44C367.74,-47.52 402.15,-33.44 426.89,-23.32"/>
<polygon fill="midnightblue" stroke="midnightblue" points="428.25,-26.54 436.18,-19.52 425.6,-20.06 428.25,-26.54"/>
</g>
<!-- Node6 -->
<g id="node6" class="node">
<title>Node6</title>
<g id="a_node6"><a xlink:href="abcg__vulkan__external_8hpp.html" target="_top" xlink:title="Header file for including Vulkan&#45;related dependencies.">
<polygon fill="none" stroke="black" points="241,-0.5 241,-19.5 385,-19.5 385,-0.5 241,-0.5"/>
<text text-anchor="middle" x="313" y="-7.5" font-family="Helvetica,sans-Serif" font-size="10.00">abcg_vulkan_external.hpp</text>
</a>
</g>
</g>
<!-- Node4&#45;&gt;Node6 -->
<g id="edge5" class="edge">
<title>Node4&#45;&gt;Node6</title>
<path fill="none" stroke="midnightblue" d="M323.02,-56.08C321.43,-48.93 319.14,-38.64 317.15,-29.69"/>
<polygon fill="midnightblue" stroke="midnightblue" points="320.53,-28.75 314.94,-19.75 313.7,-30.27 320.53,-28.75"/>
</g>
<!-- Node7&#45;&gt;Node4 -->
<g id="edge8" class="edge">
<title>Node7&#45;&gt;Node4</title>
<path fill="none" stroke="midnightblue" d="M156.23,-117.98C190.6,-107.59 248.81,-90.01 287.08,-78.45"/>
<polygon fill="midnightblue" stroke="midnightblue" points="288.27,-81.75 296.83,-75.51 286.24,-75.05 288.27,-81.75"/>
</g>
<!-- Node7&#45;&gt;Node5 -->
<g id="edge7" class="edge">
<title>Node7&#45;&gt;Node5</title>
<path fill="none" stroke="midnightblue" d="M142.1,-117.92C166.66,-103.31 219.23,-73.49 267,-56 309.37,-40.49 359.05,-28.94 396.97,-21.43"/>
<polygon fill="midnightblue" stroke="midnightblue" points="397.7,-24.85 406.85,-19.51 396.36,-17.98 397.7,-24.85"/>
</g>
<!-- Node8&#45;&gt;Node4 -->
<g id="edge11" class="edge">
<title>Node8&#45;&gt;Node4</title>
<path fill="none" stroke="midnightblue" d="M325,-117.98C325,-109.58 325,-96.48 325,-85.66"/>
<polygon fill="midnightblue" stroke="midnightblue" points="328.5,-85.51 325,-75.51 321.5,-85.51 328.5,-85.51"/>
</g>
<!-- Node8&#45;&gt;Node5 -->
<g id="edge10" class="edge">
<title>Node8&#45;&gt;Node5</title>
<path fill="none" stroke="midnightblue" d="M334.86,-117.94C346.41,-107.9 366.12,-90.77 383,-76 402.33,-59.09 424.45,-39.65 439.43,-26.47"/>
<polygon fill="midnightblue" stroke="midnightblue" points="441.76,-29.08 446.96,-19.85 437.14,-23.83 441.76,-29.08"/>
</g>
<!-- Node9&#45;&gt;Node4 -->
<g id="edge14" class="edge">
<title>Node9&#45;&gt;Node4</title>
<path fill="none" stroke="midnightblue" d="M588.45,-113.83C585.25,-113.2 582.09,-112.59 579,-112 512.39,-99.3 435.73,-85.88 384.2,-77.04"/>
<polygon fill="midnightblue" stroke="midnightblue" points="384.69,-73.57 374.24,-75.33 383.5,-80.47 384.69,-73.57"/>
</g>
<!-- Node9&#45;&gt;Node5 -->
<g id="edge13" class="edge">
<title>Node9&#45;&gt;Node5</title>
<path fill="none" stroke="midnightblue" d="M652.7,-112.46C654.86,-96.73 655.6,-71.43 642,-56 626.01,-37.87 567.9,-25.76 521.02,-18.72"/>
<polygon fill="midnightblue" stroke="midnightblue" points="521.3,-15.23 510.9,-17.25 520.3,-22.15 521.3,-15.23"/>
</g>
<!-- Node10 -->
<g id="node10" class="node">
<title>Node10</title>
<g id="a_node10"><a xlink:title=" ">
<polygon fill="none" stroke="#bfbfbf" points="484.5,-56.5 484.5,-75.5 633.5,-75.5 633.5,-56.5 484.5,-56.5"/>
<text text-anchor="middle" x="559" y="-63.5" font-family="Helvetica,sans-Serif" font-size="10.00">vulkan/vulkan_handles.hpp</text>
</a>
</g>
</g>
<!-- Node9&#45;&gt;Node10 -->
<g id="edge15" class="edge">
<title>Node9&#45;&gt;Node10</title>
<path fill="none" stroke="midnightblue" d="M628.43,-112.4C614.12,-103.04 595.39,-90.79 580.99,-81.38"/>
<polygon fill="midnightblue" stroke="midnightblue" points="582.53,-78.2 572.24,-75.66 578.7,-84.06 582.53,-78.2"/>
</g>
<!-- Node11&#45;&gt;Node4 -->
<g id="edge18" class="edge">
<title>Node11&#45;&gt;Node4</title>
<path fill="none" stroke="midnightblue" d="M468.93,-117.98C439.99,-107.72 391.24,-90.46 358.6,-78.9"/>
<polygon fill="midnightblue" stroke="midnightblue" points="359.62,-75.55 349.03,-75.51 357.28,-82.15 359.62,-75.55"/>
</g>
<!-- Node11&#45;&gt;Node5 -->
<g id="edge17" class="edge">
<title>Node11&#45;&gt;Node5</title>
<path fill="none" stroke="midnightblue" d="M489.75,-117.99C485.99,-108 479.71,-90.91 475,-76 470.09,-60.47 465.2,-42.64 461.76,-29.58"/>
<polygon fill="midnightblue" stroke="midnightblue" points="465.15,-28.69 459.24,-19.89 458.37,-30.45 465.15,-28.69"/>
</g>
<!-- Node12&#45;&gt;Node3 -->
<g id="edge20" class="edge">
<title>Node12&#45;&gt;Node3</title>
<path fill="none" stroke="midnightblue" d="M808.54,-117.98C795.83,-108.52 775.09,-93.1 759.75,-81.69"/>
<polygon fill="midnightblue" stroke="midnightblue" points="761.55,-78.67 751.44,-75.51 757.38,-84.29 761.55,-78.67"/>
</g>
<!-- Node12&#45;&gt;Node5 -->
<g id="edge23" class="edge">
<title>Node12&#45;&gt;Node5</title>
<path fill="none" stroke="midnightblue" d="M816.71,-117.82C810.42,-102.5 795.1,-70.87 771,-56 730.35,-30.92 600.62,-19.17 521.2,-14.19"/>
<polygon fill="midnightblue" stroke="midnightblue" points="521.01,-10.68 510.82,-13.57 520.59,-17.66 521.01,-10.68"/>
</g>
<!-- Node13 -->
<g id="node13" class="node">
<title>Node13</title>
<g id="a_node13"><a xlink:href="abcg__elapsedtimer_8hpp.html" target="_top" xlink:title="Header file of abcg::ElapsedTimer.">
<polygon fill="none" stroke="black" points="818,-56.5 818,-75.5 948,-75.5 948,-56.5 818,-56.5"/>
<text text-anchor="middle" x="883" y="-63.5" font-family="Helvetica,sans-Serif" font-size="10.00">abcg_elapsedtimer.hpp</text>
</a>
</g>
</g>
<!-- Node12&#45;&gt;Node13 -->
<g id="edge21" class="edge">
<title>Node12&#45;&gt;Node13</title>
<path fill="none" stroke="midnightblue" d="M829.03,-117.98C838.76,-108.78 854.46,-93.96 866.42,-82.66"/>
<polygon fill="midnightblue" stroke="midnightblue" points="869.12,-84.92 873.99,-75.51 864.32,-79.83 869.12,-84.92"/>
</g>
<!-- Node14 -->
<g id="node14" class="node">
<title>Node14</title>
<g id="a_node14"><a xlink:title=" ">
<polygon fill="none" stroke="#bfbfbf" points="858,-0.5 858,-19.5 908,-19.5 908,-0.5 858,-0.5"/>
<text text-anchor="middle" x="883" y="-7.5" font-family="Helvetica,sans-Serif" font-size="10.00">chrono</text>
</a>
</g>
</g>
<!-- Node13&#45;&gt;Node14 -->
<g id="edge22" class="edge">
<title>Node13&#45;&gt;Node14</title>
<path fill="none" stroke="midnightblue" d="M883,-56.08C883,-49.01 883,-38.86 883,-29.99"/>
<polygon fill="midnightblue" stroke="midnightblue" points="886.5,-29.75 883,-19.75 879.5,-29.75 886.5,-29.75"/>
</g>
</g>
</svg>
