<?xml version="1.0" encoding="UTF-8" standalone="no"?>
<!DOCTYPE svg PUBLIC "-//W3C//DTD SVG 1.1//EN"
 "http://www.w3.org/Graphics/SVG/1.1/DTD/svg11.dtd">
<!-- Generated by graphviz version 2.43.0 (0)
 -->
<!-- Title: /home/harlen/dev/abcg/abcg/abcgVulkanPipeline.cpp Pages: 1 -->
<svg width="532pt" height="487pt"
 viewBox="0.00 0.00 531.50 487.00" xmlns="http://www.w3.org/2000/svg" xmlns:xlink="http://www.w3.org/1999/xlink">
<g id="graph0" class="graph" transform="scale(1 1) rotate(0) translate(4 483)">
<title>/home/harlen/dev/abcg/abcg/abcgVulkanPipeline.cpp</title>
<!-- Node1 -->
<g id="node1" class="node">
<title>Node1</title>
<g id="a_node1"><a xlink:title="Definition of abcg::VulkanPipeline.">
<polygon fill="#bfbfbf" stroke="black" points="127.5,-448.5 127.5,-478.5 288.5,-478.5 288.5,-448.5 127.5,-448.5"/>
<text text-anchor="start" x="135.5" y="-466.5" font-family="Helvetica,sans-Serif" font-size="10.00">/home/harlen/dev/abcg</text>
<text text-anchor="middle" x="208" y="-455.5" font-family="Helvetica,sans-Serif" font-size="10.00">/abcg/abcgVulkanPipeline.cpp</text>
</a>
</g>
</g>
<!-- Node2 -->
<g id="node2" class="node">
<title>Node2</title>
<g id="a_node2"><a xlink:href="abcgVulkanPipeline_8hpp.html" target="_top" xlink:title="Header file of abcg::VulkanPipeline.">
<polygon fill="none" stroke="black" points="88,-392.5 88,-411.5 220,-411.5 220,-392.5 88,-392.5"/>
<text text-anchor="middle" x="154" y="-399.5" font-family="Helvetica,sans-Serif" font-size="10.00">abcgVulkanPipeline.hpp</text>
</a>
</g>
</g>
<!-- Node1&#45;&gt;Node2 -->
<g id="edge1" class="edge">
<title>Node1&#45;&gt;Node2</title>
<path fill="none" stroke="midnightblue" d="M195.2,-448.4C187.28,-439.66 177.06,-428.41 168.79,-419.3"/>
<polygon fill="midnightblue" stroke="midnightblue" points="171.17,-416.71 161.86,-411.66 165.99,-421.42 171.17,-416.71"/>
</g>
<!-- Node18 -->
<g id="node18" class="node">
<title>Node18</title>
<g id="a_node18"><a xlink:title=" ">
<polygon fill="none" stroke="#bfbfbf" points="238,-392.5 238,-411.5 286,-411.5 286,-392.5 238,-392.5"/>
<text text-anchor="middle" x="262" y="-399.5" font-family="Helvetica,sans-Serif" font-size="10.00">gsl/gsl</text>
</a>
</g>
</g>
<!-- Node1&#45;&gt;Node18 -->
<g id="edge23" class="edge">
<title>Node1&#45;&gt;Node18</title>
<path fill="none" stroke="midnightblue" d="M220.8,-448.4C228.72,-439.66 238.94,-428.41 247.21,-419.3"/>
<polygon fill="midnightblue" stroke="midnightblue" points="250.01,-421.42 254.14,-411.66 244.83,-416.71 250.01,-421.42"/>
</g>
<!-- Node3 -->
<g id="node3" class="node">
<title>Node3</title>
<g id="a_node3"><a xlink:href="abcgVulkanDevice_8hpp.html" target="_top" xlink:title="Header file of abcg::VulkanDevice.">
<polygon fill="none" stroke="black" points="172.5,-224.5 172.5,-243.5 299.5,-243.5 299.5,-224.5 172.5,-224.5"/>
<text text-anchor="middle" x="236" y="-231.5" font-family="Helvetica,sans-Serif" font-size="10.00">abcgVulkanDevice.hpp</text>
</a>
</g>
</g>
<!-- Node2&#45;&gt;Node3 -->
<g id="edge2" class="edge">
<title>Node2&#45;&gt;Node3</title>
<path fill="none" stroke="midnightblue" d="M153.19,-392.31C151.66,-371.29 150.32,-316.73 173,-280 181.3,-266.56 195.25,-255.98 207.91,-248.47"/>
<polygon fill="midnightblue" stroke="midnightblue" points="209.76,-251.44 216.81,-243.54 206.37,-245.32 209.76,-251.44"/>
</g>
<!-- Node10 -->
<g id="node10" class="node">
<title>Node10</title>
<g id="a_node10"><a xlink:href="abcgVulkanShader_8hpp.html" target="_top" xlink:title="Declaration of helper functions for creating Vulkan shaders.">
<polygon fill="none" stroke="black" points="0,-280.5 0,-299.5 126,-299.5 126,-280.5 0,-280.5"/>
<text text-anchor="middle" x="63" y="-287.5" font-family="Helvetica,sans-Serif" font-size="10.00">abcgVulkanShader.hpp</text>
</a>
</g>
</g>
<!-- Node2&#45;&gt;Node10 -->
<g id="edge11" class="edge">
<title>Node2&#45;&gt;Node10</title>
<path fill="none" stroke="midnightblue" d="M146.86,-392.37C131.71,-374.05 96.13,-331.05 76.54,-307.36"/>
<polygon fill="midnightblue" stroke="midnightblue" points="79.18,-305.07 70.11,-299.59 73.78,-309.53 79.18,-305.07"/>
</g>
<!-- Node13 -->
<g id="node13" class="node">
<title>Node13</title>
<g id="a_node13"><a xlink:href="abcgVulkanSwapchain_8hpp.html" target="_top" xlink:title="Header file of abcg::VulkanSwapchain.">
<polygon fill="none" stroke="black" points="215,-336.5 215,-355.5 361,-355.5 361,-336.5 215,-336.5"/>
<text text-anchor="middle" x="288" y="-343.5" font-family="Helvetica,sans-Serif" font-size="10.00">abcgVulkanSwapchain.hpp</text>
</a>
</g>
</g>
<!-- Node2&#45;&gt;Node13 -->
<g id="edge16" class="edge">
<title>Node2&#45;&gt;Node13</title>
<path fill="none" stroke="midnightblue" d="M175.23,-392.44C197.38,-383.52 232.32,-369.44 257.44,-359.32"/>
<polygon fill="midnightblue" stroke="midnightblue" points="258.9,-362.5 266.87,-355.52 256.28,-356.01 258.9,-362.5"/>
</g>
<!-- Node4 -->
<g id="node4" class="node">
<title>Node4</title>
<g id="a_node4"><a xlink:href="abcgVulkanExternal_8hpp.html" target="_top" xlink:title="Header file for including Vulkan&#45;related dependencies.">
<polygon fill="none" stroke="black" points="163,-56.5 163,-75.5 297,-75.5 297,-56.5 163,-56.5"/>
<text text-anchor="middle" x="230" y="-63.5" font-family="Helvetica,sans-Serif" font-size="10.00">abcgVulkanExternal.hpp</text>
</a>
</g>
</g>
<!-- Node3&#45;&gt;Node4 -->
<g id="edge3" class="edge">
<title>Node3&#45;&gt;Node4</title>
<path fill="none" stroke="midnightblue" d="M260.47,-224.44C276.57,-217.38 296.38,-205.63 306,-188 322.19,-158.35 322.73,-141.34 306,-112 297.59,-97.25 282.23,-86.84 267.52,-79.77"/>
<polygon fill="midnightblue" stroke="midnightblue" points="268.58,-76.42 258.02,-75.6 265.76,-82.83 268.58,-76.42"/>
</g>
<!-- Node7 -->
<g id="node7" class="node">
<title>Node7</title>
<g id="a_node7"><a xlink:href="abcgVulkanPhysicalDevice_8hpp.html" target="_top" xlink:title="Header file of abcg::VulkanPhysicalDevice.">
<polygon fill="none" stroke="black" points="130.5,-168.5 130.5,-187.5 297.5,-187.5 297.5,-168.5 130.5,-168.5"/>
<text text-anchor="middle" x="214" y="-175.5" font-family="Helvetica,sans-Serif" font-size="10.00">abcgVulkanPhysicalDevice.hpp</text>
</a>
</g>
</g>
<!-- Node3&#45;&gt;Node7 -->
<g id="edge6" class="edge">
<title>Node3&#45;&gt;Node7</title>
<path fill="none" stroke="midnightblue" d="M232.37,-224.08C229.39,-216.77 225.07,-206.18 221.38,-197.1"/>
<polygon fill="midnightblue" stroke="midnightblue" points="224.58,-195.69 217.57,-187.75 218.1,-198.33 224.58,-195.69"/>
</g>
<!-- Node5 -->
<g id="node5" class="node">
<title>Node5</title>
<g id="a_node5"><a xlink:title=" ">
<polygon fill="none" stroke="#bfbfbf" points="159.5,-0.5 159.5,-19.5 206.5,-19.5 206.5,-0.5 159.5,-0.5"/>
<text text-anchor="middle" x="183" y="-7.5" font-family="Helvetica,sans-Serif" font-size="10.00">volk.h</text>
</a>
</g>
</g>
<!-- Node4&#45;&gt;Node5 -->
<g id="edge4" class="edge">
<title>Node4&#45;&gt;Node5</title>
<path fill="none" stroke="midnightblue" d="M222.24,-56.08C215.46,-48.3 205.46,-36.8 197.24,-27.37"/>
<polygon fill="midnightblue" stroke="midnightblue" points="199.82,-25 190.62,-19.75 194.54,-29.59 199.82,-25"/>
</g>
<!-- Node6 -->
<g id="node6" class="node">
<title>Node6</title>
<g id="a_node6"><a xlink:title=" ">
<polygon fill="none" stroke="#bfbfbf" points="224.5,-0.5 224.5,-19.5 329.5,-19.5 329.5,-0.5 224.5,-0.5"/>
<text text-anchor="middle" x="277" y="-7.5" font-family="Helvetica,sans-Serif" font-size="10.00">vulkan/vulkan.hpp</text>
</a>
</g>
</g>
<!-- Node4&#45;&gt;Node6 -->
<g id="edge5" class="edge">
<title>Node4&#45;&gt;Node6</title>
<path fill="none" stroke="midnightblue" d="M237.76,-56.08C244.54,-48.3 254.54,-36.8 262.76,-27.37"/>
<polygon fill="midnightblue" stroke="midnightblue" points="265.46,-29.59 269.38,-19.75 260.18,-25 265.46,-29.59"/>
</g>
<!-- Node7&#45;&gt;Node4 -->
<g id="edge8" class="edge">
<title>Node7&#45;&gt;Node4</title>
<path fill="none" stroke="midnightblue" d="M195.4,-168.41C173.24,-156.9 140.77,-135.22 154,-112 162.41,-97.25 177.77,-86.84 192.48,-79.77"/>
<polygon fill="midnightblue" stroke="midnightblue" points="194.24,-82.83 201.98,-75.6 191.42,-76.42 194.24,-82.83"/>
</g>
<!-- Node8 -->
<g id="node8" class="node">
<title>Node8</title>
<g id="a_node8"><a xlink:title=" ">
<polygon fill="none" stroke="#bfbfbf" points="32,-112.5 32,-131.5 88,-131.5 88,-112.5 32,-112.5"/>
<text text-anchor="middle" x="60" y="-119.5" font-family="Helvetica,sans-Serif" font-size="10.00">optional</text>
</a>
</g>
</g>
<!-- Node7&#45;&gt;Node8 -->
<g id="edge7" class="edge">
<title>Node7&#45;&gt;Node8</title>
<path fill="none" stroke="midnightblue" d="M189.6,-168.44C163.8,-159.4 122.92,-145.06 93.98,-134.92"/>
<polygon fill="midnightblue" stroke="midnightblue" points="94.88,-131.52 84.29,-131.52 92.57,-138.13 94.88,-131.52"/>
</g>
<!-- Node9 -->
<g id="node9" class="node">
<title>Node9</title>
<g id="a_node9"><a xlink:href="abcgVulkanInstance_8hpp.html" target="_top" xlink:title="Header file of abcg::VulkanInstance.">
<polygon fill="none" stroke="black" points="163,-112.5 163,-131.5 297,-131.5 297,-112.5 163,-112.5"/>
<text text-anchor="middle" x="230" y="-119.5" font-family="Helvetica,sans-Serif" font-size="10.00">abcgVulkanInstance.hpp</text>
</a>
</g>
</g>
<!-- Node7&#45;&gt;Node9 -->
<g id="edge9" class="edge">
<title>Node7&#45;&gt;Node9</title>
<path fill="none" stroke="midnightblue" d="M216.64,-168.08C218.79,-160.85 221.88,-150.41 224.55,-141.4"/>
<polygon fill="midnightblue" stroke="midnightblue" points="227.92,-142.33 227.41,-131.75 221.21,-140.34 227.92,-142.33"/>
</g>
<!-- Node9&#45;&gt;Node4 -->
<g id="edge10" class="edge">
<title>Node9&#45;&gt;Node4</title>
<path fill="none" stroke="midnightblue" d="M230,-112.08C230,-105.01 230,-94.86 230,-85.99"/>
<polygon fill="midnightblue" stroke="midnightblue" points="233.5,-85.75 230,-75.75 226.5,-85.75 233.5,-85.75"/>
</g>
<!-- Node10&#45;&gt;Node3 -->
<g id="edge15" class="edge">
<title>Node10&#45;&gt;Node3</title>
<path fill="none" stroke="midnightblue" d="M90.41,-280.44C119.77,-271.28 166.52,-256.69 199.1,-246.52"/>
<polygon fill="midnightblue" stroke="midnightblue" points="200.21,-249.84 208.72,-243.52 198.13,-243.16 200.21,-249.84"/>
</g>
<!-- Node11 -->
<g id="node11" class="node">
<title>Node11</title>
<g id="a_node11"><a xlink:href="abcgShader_8hpp.html" target="_top" xlink:title="Declaration of a structure for building shaders.">
<polygon fill="none" stroke="black" points="16,-224.5 16,-243.5 110,-243.5 110,-224.5 16,-224.5"/>
<text text-anchor="middle" x="63" y="-231.5" font-family="Helvetica,sans-Serif" font-size="10.00">abcgShader.hpp</text>
</a>
</g>
</g>
<!-- Node10&#45;&gt;Node11 -->
<g id="edge12" class="edge">
<title>Node10&#45;&gt;Node11</title>
<path fill="none" stroke="midnightblue" d="M63,-280.08C63,-273.01 63,-262.86 63,-253.99"/>
<polygon fill="midnightblue" stroke="midnightblue" points="66.5,-253.75 63,-243.75 59.5,-253.75 66.5,-253.75"/>
</g>
<!-- Node11&#45;&gt;Node8 -->
<g id="edge13" class="edge">
<title>Node11&#45;&gt;Node8</title>
<path fill="none" stroke="midnightblue" d="M62.25,-224.38C61.51,-215.33 60.42,-200.68 60,-188 59.48,-172.47 59.52,-154.85 59.67,-141.87"/>
<polygon fill="midnightblue" stroke="midnightblue" points="63.17,-141.88 59.81,-131.83 56.17,-141.78 63.17,-141.88"/>
</g>
<!-- Node12 -->
<g id="node12" class="node">
<title>Node12</title>
<g id="a_node12"><a xlink:title=" ">
<polygon fill="none" stroke="#bfbfbf" points="69,-168.5 69,-187.5 113,-187.5 113,-168.5 69,-168.5"/>
<text text-anchor="middle" x="91" y="-175.5" font-family="Helvetica,sans-Serif" font-size="10.00">string</text>
</a>
</g>
</g>
<!-- Node11&#45;&gt;Node12 -->
<g id="edge14" class="edge">
<title>Node11&#45;&gt;Node12</title>
<path fill="none" stroke="midnightblue" d="M67.62,-224.08C71.46,-216.69 77.02,-205.95 81.76,-196.81"/>
<polygon fill="midnightblue" stroke="midnightblue" points="84.97,-198.24 86.46,-187.75 78.75,-195.02 84.97,-198.24"/>
</g>
<!-- Node13&#45;&gt;Node3 -->
<g id="edge19" class="edge">
<title>Node13&#45;&gt;Node3</title>
<path fill="none" stroke="midnightblue" d="M286.45,-336.23C283.96,-323.4 278.37,-298.98 269,-280 264.02,-269.92 256.78,-259.73 250.34,-251.61"/>
<polygon fill="midnightblue" stroke="midnightblue" points="252.89,-249.19 243.83,-243.7 247.49,-253.64 252.89,-249.19"/>
</g>
<!-- Node14 -->
<g id="node14" class="node">
<title>Node14</title>
<g id="a_node14"><a xlink:title=" ">
<polygon fill="none" stroke="#bfbfbf" points="458.5,-280.5 458.5,-299.5 523.5,-299.5 523.5,-280.5 458.5,-280.5"/>
<text text-anchor="middle" x="491" y="-287.5" font-family="Helvetica,sans-Serif" font-size="10.00">functional</text>
</a>
</g>
</g>
<!-- Node13&#45;&gt;Node14 -->
<g id="edge17" class="edge">
<title>Node13&#45;&gt;Node14</title>
<path fill="none" stroke="midnightblue" d="M320.17,-336.44C355.06,-327.16 410.89,-312.31 449.17,-302.13"/>
<polygon fill="midnightblue" stroke="midnightblue" points="450.22,-305.47 458.98,-299.52 448.42,-298.7 450.22,-305.47"/>
</g>
<!-- Node15 -->
<g id="node15" class="node">
<title>Node15</title>
<g id="a_node15"><a xlink:title=" ">
<polygon fill="none" stroke="#bfbfbf" points="182.5,-280.5 182.5,-299.5 259.5,-299.5 259.5,-280.5 182.5,-280.5"/>
<text text-anchor="middle" x="221" y="-287.5" font-family="Helvetica,sans-Serif" font-size="10.00">glm/fwd.hpp</text>
</a>
</g>
</g>
<!-- Node13&#45;&gt;Node15 -->
<g id="edge18" class="edge">
<title>Node13&#45;&gt;Node15</title>
<path fill="none" stroke="midnightblue" d="M277.24,-336.32C267.23,-328.26 252.11,-316.08 240.07,-306.37"/>
<polygon fill="midnightblue" stroke="midnightblue" points="241.94,-303.38 231.96,-299.83 237.55,-308.83 241.94,-303.38"/>
</g>
<!-- Node16 -->
<g id="node16" class="node">
<title>Node16</title>
<g id="a_node16"><a xlink:href="abcgVulkanImage_8hpp.html" target="_top" xlink:title="Header file of abcg::VulkanImage.">
<polygon fill="none" stroke="black" points="316,-280.5 316,-299.5 440,-299.5 440,-280.5 316,-280.5"/>
<text text-anchor="middle" x="378" y="-287.5" font-family="Helvetica,sans-Serif" font-size="10.00">abcgVulkanImage.hpp</text>
</a>
</g>
</g>
<!-- Node13&#45;&gt;Node16 -->
<g id="edge20" class="edge">
<title>Node13&#45;&gt;Node16</title>
<path fill="none" stroke="midnightblue" d="M302.46,-336.32C316.5,-327.9 338.05,-314.97 354.54,-305.07"/>
<polygon fill="midnightblue" stroke="midnightblue" points="356.8,-307.8 363.58,-299.65 353.2,-301.8 356.8,-307.8"/>
</g>
<!-- Node16&#45;&gt;Node3 -->
<g id="edge21" class="edge">
<title>Node16&#45;&gt;Node3</title>
<path fill="none" stroke="midnightblue" d="M355.5,-280.44C331.92,-271.48 294.68,-257.31 268.04,-247.18"/>
<polygon fill="midnightblue" stroke="midnightblue" points="268.99,-243.8 258.4,-243.52 266.5,-250.34 268.99,-243.8"/>
</g>
<!-- Node17 -->
<g id="node17" class="node">
<title>Node17</title>
<g id="a_node17"><a xlink:title=" ">
<polygon fill="none" stroke="#bfbfbf" points="341,-224.5 341,-243.5 415,-243.5 415,-224.5 341,-224.5"/>
<text text-anchor="middle" x="378" y="-231.5" font-family="Helvetica,sans-Serif" font-size="10.00">gsl/pointers</text>
</a>
</g>
</g>
<!-- Node16&#45;&gt;Node17 -->
<g id="edge22" class="edge">
<title>Node16&#45;&gt;Node17</title>
<path fill="none" stroke="midnightblue" d="M378,-280.08C378,-273.01 378,-262.86 378,-253.99"/>
<polygon fill="midnightblue" stroke="midnightblue" points="381.5,-253.75 378,-243.75 374.5,-253.75 381.5,-253.75"/>
</g>
</g>
</svg>
