<?xml version="1.0" encoding="UTF-8" standalone="no"?>
<!DOCTYPE svg PUBLIC "-//W3C//DTD SVG 1.1//EN"
 "http://www.w3.org/Graphics/SVG/1.1/DTD/svg11.dtd">
<!-- Generated by graphviz version 2.43.0 (0)
 -->
<!-- Title: /home/harlen/dev/abcg2/abcg/abcg_vulkan_window.hpp Pages: 1 -->
<svg width="380pt" height="106pt"
 viewBox="0.00 0.00 379.50 106.00" xmlns="http://www.w3.org/2000/svg" xmlns:xlink="http://www.w3.org/1999/xlink">
<g id="graph0" class="graph" transform="scale(1 1) rotate(0) translate(4 102)">
<title>/home/harlen/dev/abcg2/abcg/abcg_vulkan_window.hpp</title>
<!-- Node1 -->
<g id="node1" class="node">
<title>Node1</title>
<g id="a_node1"><a xlink:title="Header file of abcg::VulkanWindow.">
<polygon fill="#bfbfbf" stroke="black" points="104,-67.5 104,-97.5 274,-97.5 274,-67.5 104,-67.5"/>
<text text-anchor="start" x="112" y="-85.5" font-family="Helvetica,sans-Serif" font-size="10.00">/home/harlen/dev/abcg2</text>
<text text-anchor="middle" x="189" y="-74.5" font-family="Helvetica,sans-Serif" font-size="10.00">/abcg/abcg_vulkan_window.hpp</text>
</a>
</g>
</g>
<!-- Node2 -->
<g id="node2" class="node">
<title>Node2</title>
<g id="a_node2"><a xlink:href="abcg__vulkan__swapchain_8cpp.html" target="_top" xlink:title="Definition of abcg::VulkanSwapchain.">
<polygon fill="none" stroke="black" points="0,-0.5 0,-30.5 184,-30.5 184,-0.5 0,-0.5"/>
<text text-anchor="start" x="8" y="-18.5" font-family="Helvetica,sans-Serif" font-size="10.00">/home/harlen/dev/abcg2</text>
<text text-anchor="middle" x="92" y="-7.5" font-family="Helvetica,sans-Serif" font-size="10.00">/abcg/abcg_vulkan_swapchain.cpp</text>
</a>
</g>
</g>
<!-- Node1&#45;&gt;Node2 -->
<g id="edge1" class="edge">
<title>Node1&#45;&gt;Node2</title>
<path fill="none" stroke="midnightblue" d="M159.5,-61.73C144.49,-51.68 126.6,-39.68 113.01,-30.58"/>
<polygon fill="midnightblue" stroke="midnightblue" points="157.7,-64.74 167.95,-67.4 161.59,-58.92 157.7,-64.74"/>
</g>
<!-- Node3 -->
<g id="node3" class="node">
<title>Node3</title>
<g id="a_node3"><a xlink:href="abcg__vulkan__window_8cpp.html" target="_top" xlink:title="Definition of abcg::VulkanWindow members.">
<polygon fill="none" stroke="black" points="202.5,-0.5 202.5,-30.5 371.5,-30.5 371.5,-0.5 202.5,-0.5"/>
<text text-anchor="start" x="210.5" y="-18.5" font-family="Helvetica,sans-Serif" font-size="10.00">/home/harlen/dev/abcg2</text>
<text text-anchor="middle" x="287" y="-7.5" font-family="Helvetica,sans-Serif" font-size="10.00">/abcg/abcg_vulkan_window.cpp</text>
</a>
</g>
</g>
<!-- Node1&#45;&gt;Node3 -->
<g id="edge2" class="edge">
<title>Node1&#45;&gt;Node3</title>
<path fill="none" stroke="midnightblue" d="M218.8,-61.73C233.97,-51.68 252.04,-39.68 265.78,-30.58"/>
<polygon fill="midnightblue" stroke="midnightblue" points="216.66,-58.95 210.26,-67.4 220.53,-64.79 216.66,-58.95"/>
</g>
</g>
</svg>
