<?xml version="1.0" encoding="UTF-8" standalone="no"?>
<!DOCTYPE svg PUBLIC "-//W3C//DTD SVG 1.1//EN"
 "http://www.w3.org/Graphics/SVG/1.1/DTD/svg11.dtd">
<!-- Generated by graphviz version 2.43.0 (0)
 -->
<!-- Title: /home/harlen/dev/abcg/abcg/abcgVulkanSwapchain.cpp Pages: 1 -->
<svg width="1106pt" height="487pt"
 viewBox="0.00 0.00 1106.00 487.00" xmlns="http://www.w3.org/2000/svg" xmlns:xlink="http://www.w3.org/1999/xlink">
<g id="graph0" class="graph" transform="scale(1 1) rotate(0) translate(4 483)">
<title>/home/harlen/dev/abcg/abcg/abcgVulkanSwapchain.cpp</title>
<!-- Node1 -->
<g id="node1" class="node">
<title>Node1</title>
<g id="a_node1"><a xlink:title="Definition of abcg::VulkanSwapchain.">
<polygon fill="#bfbfbf" stroke="black" points="424,-448.5 424,-478.5 598,-478.5 598,-448.5 424,-448.5"/>
<text text-anchor="start" x="432" y="-466.5" font-family="Helvetica,sans-Serif" font-size="10.00">/home/harlen/dev/abcg</text>
<text text-anchor="middle" x="511" y="-455.5" font-family="Helvetica,sans-Serif" font-size="10.00">/abcg/abcgVulkanSwapchain.cpp</text>
</a>
</g>
</g>
<!-- Node2 -->
<g id="node2" class="node">
<title>Node2</title>
<g id="a_node2"><a xlink:href="abcgVulkanSwapchain_8hpp.html" target="_top" xlink:title="Header file of abcg::VulkanSwapchain.">
<polygon fill="none" stroke="black" points="210,-336.5 210,-355.5 356,-355.5 356,-336.5 210,-336.5"/>
<text text-anchor="middle" x="283" y="-343.5" font-family="Helvetica,sans-Serif" font-size="10.00">abcgVulkanSwapchain.hpp</text>
</a>
</g>
</g>
<!-- Node1&#45;&gt;Node2 -->
<g id="edge1" class="edge">
<title>Node1&#45;&gt;Node2</title>
<path fill="none" stroke="midnightblue" d="M469.14,-448.4C443.68,-439.23 410.81,-426.34 383,-412 353.79,-396.94 322.37,-375.57 302.7,-361.51"/>
<polygon fill="midnightblue" stroke="midnightblue" points="304.7,-358.63 294.54,-355.61 300.59,-364.3 304.7,-358.63"/>
</g>
<!-- Node3 -->
<g id="node3" class="node">
<title>Node3</title>
<g id="a_node3"><a xlink:title=" ">
<polygon fill="none" stroke="#bfbfbf" points="28.5,-280.5 28.5,-299.5 93.5,-299.5 93.5,-280.5 28.5,-280.5"/>
<text text-anchor="middle" x="61" y="-287.5" font-family="Helvetica,sans-Serif" font-size="10.00">functional</text>
</a>
</g>
</g>
<!-- Node1&#45;&gt;Node3 -->
<g id="edge16" class="edge">
<title>Node1&#45;&gt;Node3</title>
<path fill="none" stroke="midnightblue" d="M461.29,-448.44C428.15,-438.81 383.72,-425.4 345,-412 280.11,-389.55 264.17,-382.92 201,-356 161.08,-338.99 115.66,-317.5 87.66,-303.99"/>
<polygon fill="midnightblue" stroke="midnightblue" points="89.04,-300.78 78.52,-299.57 86,-307.08 89.04,-300.78"/>
</g>
<!-- Node5 -->
<g id="node5" class="node">
<title>Node5</title>
<g id="a_node5"><a xlink:href="abcgVulkanDevice_8hpp.html" target="_top" xlink:title="Header file of abcg::VulkanDevice.">
<polygon fill="none" stroke="black" points="317.5,-224.5 317.5,-243.5 444.5,-243.5 444.5,-224.5 317.5,-224.5"/>
<text text-anchor="middle" x="381" y="-231.5" font-family="Helvetica,sans-Serif" font-size="10.00">abcgVulkanDevice.hpp</text>
</a>
</g>
</g>
<!-- Node1&#45;&gt;Node5 -->
<g id="edge25" class="edge">
<title>Node1&#45;&gt;Node5</title>
<path fill="none" stroke="midnightblue" d="M481.44,-448.41C466.23,-439.81 448.51,-427.48 437,-412 400.21,-362.5 387.13,-288.1 382.87,-253.68"/>
<polygon fill="midnightblue" stroke="midnightblue" points="386.34,-253.19 381.74,-243.64 379.38,-253.97 386.34,-253.19"/>
</g>
<!-- Node9 -->
<g id="node9" class="node">
<title>Node9</title>
<g id="a_node9"><a xlink:href="abcgVulkanPhysicalDevice_8hpp.html" target="_top" xlink:title="Header file of abcg::VulkanPhysicalDevice.">
<polygon fill="none" stroke="black" points="229.5,-168.5 229.5,-187.5 396.5,-187.5 396.5,-168.5 229.5,-168.5"/>
<text text-anchor="middle" x="313" y="-175.5" font-family="Helvetica,sans-Serif" font-size="10.00">abcgVulkanPhysicalDevice.hpp</text>
</a>
</g>
</g>
<!-- Node1&#45;&gt;Node9 -->
<g id="edge26" class="edge">
<title>Node1&#45;&gt;Node9</title>
<path fill="none" stroke="midnightblue" d="M423.74,-460.55C277.79,-454.89 0,-432.84 0,-347 0,-347 0,-347 0,-289 0,-237.79 151.04,-204.64 243.28,-189.18"/>
<polygon fill="midnightblue" stroke="midnightblue" points="244.09,-192.59 253.39,-187.51 242.95,-185.69 244.09,-192.59"/>
</g>
<!-- Node14 -->
<g id="node14" class="node">
<title>Node14</title>
<g id="a_node14"><a xlink:title=" ">
<polygon fill="none" stroke="#bfbfbf" points="914,-392.5 914,-411.5 962,-411.5 962,-392.5 914,-392.5"/>
<text text-anchor="middle" x="938" y="-399.5" font-family="Helvetica,sans-Serif" font-size="10.00">gsl/gsl</text>
</a>
</g>
</g>
<!-- Node1&#45;&gt;Node14 -->
<g id="edge17" class="edge">
<title>Node1&#45;&gt;Node14</title>
<path fill="none" stroke="midnightblue" d="M598.03,-454.85C675.89,-447.2 793.22,-433.69 903.94,-411.97"/>
<polygon fill="midnightblue" stroke="midnightblue" points="904.82,-415.36 913.94,-409.98 903.45,-408.49 904.82,-415.36"/>
</g>
<!-- Node15 -->
<g id="node15" class="node">
<title>Node15</title>
<g id="a_node15"><a xlink:title=" ">
<polygon fill="none" stroke="#bfbfbf" points="980,-392.5 980,-411.5 1098,-411.5 1098,-392.5 980,-392.5"/>
<text text-anchor="middle" x="1039" y="-399.5" font-family="Helvetica,sans-Serif" font-size="10.00">imgui_impl_vulkan.h</text>
</a>
</g>
</g>
<!-- Node1&#45;&gt;Node15 -->
<g id="edge18" class="edge">
<title>Node1&#45;&gt;Node15</title>
<path fill="none" stroke="midnightblue" d="M598.4,-453.49C688.72,-444.04 834.08,-428.47 969.52,-412.16"/>
<polygon fill="midnightblue" stroke="midnightblue" points="970.16,-415.61 979.67,-410.93 969.32,-408.66 970.16,-415.61"/>
</g>
<!-- Node16 -->
<g id="node16" class="node">
<title>Node16</title>
<g id="a_node16"><a xlink:href="abcgApplication_8hpp.html" target="_top" xlink:title="Header file of abcg::Application.">
<polygon fill="none" stroke="black" points="780,-392.5 780,-411.5 896,-411.5 896,-392.5 780,-392.5"/>
<text text-anchor="middle" x="838" y="-399.5" font-family="Helvetica,sans-Serif" font-size="10.00">abcgApplication.hpp</text>
</a>
</g>
</g>
<!-- Node1&#45;&gt;Node16 -->
<g id="edge19" class="edge">
<title>Node1&#45;&gt;Node16</title>
<path fill="none" stroke="midnightblue" d="M588.08,-448.47C647.33,-437.69 727.82,-423.05 781.27,-413.32"/>
<polygon fill="midnightblue" stroke="midnightblue" points="782.04,-416.74 791.25,-411.51 780.79,-409.85 782.04,-416.74"/>
</g>
<!-- Node18 -->
<g id="node18" class="node">
<title>Node18</title>
<g id="a_node18"><a xlink:href="abcgException_8hpp.html" target="_top" xlink:title="Header file of abcg::Exception and derived classes.">
<polygon fill="none" stroke="black" points="652.5,-392.5 652.5,-411.5 761.5,-411.5 761.5,-392.5 652.5,-392.5"/>
<text text-anchor="middle" x="707" y="-399.5" font-family="Helvetica,sans-Serif" font-size="10.00">abcgException.hpp</text>
</a>
</g>
</g>
<!-- Node1&#45;&gt;Node18 -->
<g id="edge21" class="edge">
<title>Node1&#45;&gt;Node18</title>
<path fill="none" stroke="midnightblue" d="M557.45,-448.4C591.46,-438.07 637.06,-424.23 668.93,-414.56"/>
<polygon fill="midnightblue" stroke="midnightblue" points="670.21,-417.82 678.77,-411.57 668.18,-411.13 670.21,-417.82"/>
</g>
<!-- Node21 -->
<g id="node21" class="node">
<title>Node21</title>
<g id="a_node21"><a xlink:href="abcgVulkanWindow_8hpp.html" target="_top" xlink:title="Header file of abcg::VulkanWindow.">
<polygon fill="none" stroke="black" points="445.5,-392.5 445.5,-411.5 576.5,-411.5 576.5,-392.5 445.5,-392.5"/>
<text text-anchor="middle" x="511" y="-399.5" font-family="Helvetica,sans-Serif" font-size="10.00">abcgVulkanWindow.hpp</text>
</a>
</g>
</g>
<!-- Node1&#45;&gt;Node21 -->
<g id="edge27" class="edge">
<title>Node1&#45;&gt;Node21</title>
<path fill="none" stroke="midnightblue" d="M511,-448.4C511,-440.47 511,-430.46 511,-421.86"/>
<polygon fill="midnightblue" stroke="midnightblue" points="514.5,-421.66 511,-411.66 507.5,-421.66 514.5,-421.66"/>
</g>
<!-- Node2&#45;&gt;Node3 -->
<g id="edge2" class="edge">
<title>Node2&#45;&gt;Node3</title>
<path fill="none" stroke="midnightblue" d="M247.82,-336.44C208.74,-326.94 145.64,-311.59 103.75,-301.4"/>
<polygon fill="midnightblue" stroke="midnightblue" points="104.38,-297.95 93.84,-298.99 102.73,-304.75 104.38,-297.95"/>
</g>
<!-- Node4 -->
<g id="node4" class="node">
<title>Node4</title>
<g id="a_node4"><a xlink:title=" ">
<polygon fill="none" stroke="#bfbfbf" points="111.5,-280.5 111.5,-299.5 188.5,-299.5 188.5,-280.5 111.5,-280.5"/>
<text text-anchor="middle" x="150" y="-287.5" font-family="Helvetica,sans-Serif" font-size="10.00">glm/fwd.hpp</text>
</a>
</g>
</g>
<!-- Node2&#45;&gt;Node4 -->
<g id="edge3" class="edge">
<title>Node2&#45;&gt;Node4</title>
<path fill="none" stroke="midnightblue" d="M261.93,-336.44C239.94,-327.52 205.27,-313.44 180.34,-303.32"/>
<polygon fill="midnightblue" stroke="midnightblue" points="181.56,-300.04 170.98,-299.52 178.92,-306.52 181.56,-300.04"/>
</g>
<!-- Node2&#45;&gt;Node5 -->
<g id="edge4" class="edge">
<title>Node2&#45;&gt;Node5</title>
<path fill="none" stroke="midnightblue" d="M296.28,-336.46C308.56,-328.13 326.85,-314.62 340,-300 353.07,-285.47 364.6,-266.29 372.08,-252.54"/>
<polygon fill="midnightblue" stroke="midnightblue" points="375.21,-254.11 376.77,-243.63 369.02,-250.85 375.21,-254.11"/>
</g>
<!-- Node12 -->
<g id="node12" class="node">
<title>Node12</title>
<g id="a_node12"><a xlink:href="abcgVulkanImage_8hpp.html" target="_top" xlink:title="Header file of abcg::VulkanImage.">
<polygon fill="none" stroke="black" points="207,-280.5 207,-299.5 331,-299.5 331,-280.5 207,-280.5"/>
<text text-anchor="middle" x="269" y="-287.5" font-family="Helvetica,sans-Serif" font-size="10.00">abcgVulkanImage.hpp</text>
</a>
</g>
</g>
<!-- Node2&#45;&gt;Node12 -->
<g id="edge13" class="edge">
<title>Node2&#45;&gt;Node12</title>
<path fill="none" stroke="midnightblue" d="M280.69,-336.08C278.83,-328.93 276.16,-318.64 273.85,-309.69"/>
<polygon fill="midnightblue" stroke="midnightblue" points="277.17,-308.55 271.27,-299.75 270.39,-310.31 277.17,-308.55"/>
</g>
<!-- Node6 -->
<g id="node6" class="node">
<title>Node6</title>
<g id="a_node6"><a xlink:href="abcgVulkanExternal_8hpp.html" target="_top" xlink:title="Header file for including Vulkan&#45;related dependencies.">
<polygon fill="none" stroke="black" points="311,-56.5 311,-75.5 445,-75.5 445,-56.5 311,-56.5"/>
<text text-anchor="middle" x="378" y="-63.5" font-family="Helvetica,sans-Serif" font-size="10.00">abcgVulkanExternal.hpp</text>
</a>
</g>
</g>
<!-- Node5&#45;&gt;Node6 -->
<g id="edge5" class="edge">
<title>Node5&#45;&gt;Node6</title>
<path fill="none" stroke="midnightblue" d="M393.44,-224.28C420.08,-204.5 478.3,-154.63 454,-112 445.59,-97.25 430.23,-86.84 415.52,-79.77"/>
<polygon fill="midnightblue" stroke="midnightblue" points="416.58,-76.42 406.02,-75.6 413.76,-82.83 416.58,-76.42"/>
</g>
<!-- Node5&#45;&gt;Node9 -->
<g id="edge8" class="edge">
<title>Node5&#45;&gt;Node9</title>
<path fill="none" stroke="midnightblue" d="M370.07,-224.32C359.83,-216.18 344.28,-203.84 332,-194.09"/>
<polygon fill="midnightblue" stroke="midnightblue" points="334.13,-191.31 324.12,-187.83 329.78,-196.79 334.13,-191.31"/>
</g>
<!-- Node7 -->
<g id="node7" class="node">
<title>Node7</title>
<g id="a_node7"><a xlink:title=" ">
<polygon fill="none" stroke="#bfbfbf" points="307.5,-0.5 307.5,-19.5 354.5,-19.5 354.5,-0.5 307.5,-0.5"/>
<text text-anchor="middle" x="331" y="-7.5" font-family="Helvetica,sans-Serif" font-size="10.00">volk.h</text>
</a>
</g>
</g>
<!-- Node6&#45;&gt;Node7 -->
<g id="edge6" class="edge">
<title>Node6&#45;&gt;Node7</title>
<path fill="none" stroke="midnightblue" d="M370.24,-56.08C363.46,-48.3 353.46,-36.8 345.24,-27.37"/>
<polygon fill="midnightblue" stroke="midnightblue" points="347.82,-25 338.62,-19.75 342.54,-29.59 347.82,-25"/>
</g>
<!-- Node8 -->
<g id="node8" class="node">
<title>Node8</title>
<g id="a_node8"><a xlink:title=" ">
<polygon fill="none" stroke="#bfbfbf" points="372.5,-0.5 372.5,-19.5 477.5,-19.5 477.5,-0.5 372.5,-0.5"/>
<text text-anchor="middle" x="425" y="-7.5" font-family="Helvetica,sans-Serif" font-size="10.00">vulkan/vulkan.hpp</text>
</a>
</g>
</g>
<!-- Node6&#45;&gt;Node8 -->
<g id="edge7" class="edge">
<title>Node6&#45;&gt;Node8</title>
<path fill="none" stroke="midnightblue" d="M385.76,-56.08C392.54,-48.3 402.54,-36.8 410.76,-27.37"/>
<polygon fill="midnightblue" stroke="midnightblue" points="413.46,-29.59 417.38,-19.75 408.18,-25 413.46,-29.59"/>
</g>
<!-- Node9&#45;&gt;Node6 -->
<g id="edge10" class="edge">
<title>Node9&#45;&gt;Node6</title>
<path fill="none" stroke="midnightblue" d="M284.01,-168.4C252.56,-157.57 209.2,-137.26 228,-112 245.06,-89.08 273.39,-77.39 300.86,-71.58"/>
<polygon fill="midnightblue" stroke="midnightblue" points="301.74,-74.97 310.92,-69.69 300.45,-68.09 301.74,-74.97"/>
</g>
<!-- Node10 -->
<g id="node10" class="node">
<title>Node10</title>
<g id="a_node10"><a xlink:title=" ">
<polygon fill="none" stroke="#bfbfbf" points="237,-112.5 237,-131.5 293,-131.5 293,-112.5 237,-112.5"/>
<text text-anchor="middle" x="265" y="-119.5" font-family="Helvetica,sans-Serif" font-size="10.00">optional</text>
</a>
</g>
</g>
<!-- Node9&#45;&gt;Node10 -->
<g id="edge9" class="edge">
<title>Node9&#45;&gt;Node10</title>
<path fill="none" stroke="midnightblue" d="M305.07,-168.08C298.15,-160.3 287.93,-148.8 279.55,-139.37"/>
<polygon fill="midnightblue" stroke="midnightblue" points="282.04,-136.9 272.78,-131.75 276.81,-141.55 282.04,-136.9"/>
</g>
<!-- Node11 -->
<g id="node11" class="node">
<title>Node11</title>
<g id="a_node11"><a xlink:href="abcgVulkanInstance_8hpp.html" target="_top" xlink:title="Header file of abcg::VulkanInstance.">
<polygon fill="none" stroke="black" points="311,-112.5 311,-131.5 445,-131.5 445,-112.5 311,-112.5"/>
<text text-anchor="middle" x="378" y="-119.5" font-family="Helvetica,sans-Serif" font-size="10.00">abcgVulkanInstance.hpp</text>
</a>
</g>
</g>
<!-- Node9&#45;&gt;Node11 -->
<g id="edge11" class="edge">
<title>Node9&#45;&gt;Node11</title>
<path fill="none" stroke="midnightblue" d="M323.44,-168.32C333.15,-160.26 347.82,-148.08 359.5,-138.37"/>
<polygon fill="midnightblue" stroke="midnightblue" points="361.91,-140.92 367.37,-131.83 357.44,-135.53 361.91,-140.92"/>
</g>
<!-- Node11&#45;&gt;Node6 -->
<g id="edge12" class="edge">
<title>Node11&#45;&gt;Node6</title>
<path fill="none" stroke="midnightblue" d="M378,-112.08C378,-105.01 378,-94.86 378,-85.99"/>
<polygon fill="midnightblue" stroke="midnightblue" points="381.5,-85.75 378,-75.75 374.5,-85.75 381.5,-85.75"/>
</g>
<!-- Node12&#45;&gt;Node5 -->
<g id="edge14" class="edge">
<title>Node12&#45;&gt;Node5</title>
<path fill="none" stroke="midnightblue" d="M286.99,-280.32C305.04,-271.62 333.05,-258.12 353.8,-248.11"/>
<polygon fill="midnightblue" stroke="midnightblue" points="355.56,-251.15 363.05,-243.65 352.52,-244.84 355.56,-251.15"/>
</g>
<!-- Node13 -->
<g id="node13" class="node">
<title>Node13</title>
<g id="a_node13"><a xlink:title=" ">
<polygon fill="none" stroke="#bfbfbf" points="225,-224.5 225,-243.5 299,-243.5 299,-224.5 225,-224.5"/>
<text text-anchor="middle" x="262" y="-231.5" font-family="Helvetica,sans-Serif" font-size="10.00">gsl/pointers</text>
</a>
</g>
</g>
<!-- Node12&#45;&gt;Node13 -->
<g id="edge15" class="edge">
<title>Node12&#45;&gt;Node13</title>
<path fill="none" stroke="midnightblue" d="M267.84,-280.08C266.92,-272.93 265.58,-262.64 264.42,-253.69"/>
<polygon fill="midnightblue" stroke="midnightblue" points="267.89,-253.22 263.13,-243.75 260.95,-254.12 267.89,-253.22"/>
</g>
<!-- Node17 -->
<g id="node17" class="node">
<title>Node17</title>
<g id="a_node17"><a xlink:title=" ">
<polygon fill="none" stroke="#bfbfbf" points="766,-280.5 766,-299.5 810,-299.5 810,-280.5 766,-280.5"/>
<text text-anchor="middle" x="788" y="-287.5" font-family="Helvetica,sans-Serif" font-size="10.00">string</text>
</a>
</g>
</g>
<!-- Node16&#45;&gt;Node17 -->
<g id="edge20" class="edge">
<title>Node16&#45;&gt;Node17</title>
<path fill="none" stroke="midnightblue" d="M883.56,-392.48C920.24,-384.59 967.52,-371.72 979,-356 984.24,-348.82 984.52,-342.97 979,-336 959.54,-311.43 869.39,-298.93 820.21,-293.85"/>
<polygon fill="midnightblue" stroke="midnightblue" points="820.39,-290.35 810.09,-292.84 819.7,-297.31 820.39,-290.35"/>
</g>
<!-- Node18&#45;&gt;Node17 -->
<g id="edge24" class="edge">
<title>Node18&#45;&gt;Node17</title>
<path fill="none" stroke="midnightblue" d="M713.57,-392.41C720.46,-383.39 731.57,-368.76 741,-356 752.97,-339.8 766.42,-321.16 775.85,-308.01"/>
<polygon fill="midnightblue" stroke="midnightblue" points="778.7,-310.04 781.67,-299.87 773.01,-305.97 778.7,-310.04"/>
</g>
<!-- Node19 -->
<g id="node19" class="node">
<title>Node19</title>
<g id="a_node19"><a xlink:title=" ">
<polygon fill="none" stroke="#bfbfbf" points="876.5,-336.5 876.5,-355.5 969.5,-355.5 969.5,-336.5 876.5,-336.5"/>
<text text-anchor="middle" x="923" y="-343.5" font-family="Helvetica,sans-Serif" font-size="10.00">source_location</text>
</a>
</g>
</g>
<!-- Node18&#45;&gt;Node19 -->
<g id="edge22" class="edge">
<title>Node18&#45;&gt;Node19</title>
<path fill="none" stroke="midnightblue" d="M741.23,-392.44C778.51,-383.12 838.27,-368.18 879.01,-358"/>
<polygon fill="midnightblue" stroke="midnightblue" points="880.08,-361.34 888.93,-355.52 878.38,-354.55 880.08,-361.34"/>
</g>
<!-- Node20 -->
<g id="node20" class="node">
<title>Node20</title>
<g id="a_node20"><a xlink:title=" ">
<polygon fill="none" stroke="#bfbfbf" points="793.5,-336.5 793.5,-355.5 858.5,-355.5 858.5,-336.5 793.5,-336.5"/>
<text text-anchor="middle" x="826" y="-343.5" font-family="Helvetica,sans-Serif" font-size="10.00">stdexcept</text>
</a>
</g>
</g>
<!-- Node18&#45;&gt;Node20 -->
<g id="edge23" class="edge">
<title>Node18&#45;&gt;Node20</title>
<path fill="none" stroke="midnightblue" d="M725.86,-392.44C745.27,-383.64 775.73,-369.81 797.96,-359.72"/>
<polygon fill="midnightblue" stroke="midnightblue" points="799.57,-362.84 807.23,-355.52 796.68,-356.46 799.57,-362.84"/>
</g>
<!-- Node21&#45;&gt;Node2 -->
<g id="edge33" class="edge">
<title>Node21&#45;&gt;Node2</title>
<path fill="none" stroke="midnightblue" d="M474.87,-392.44C435.35,-383.08 371.9,-368.06 328.89,-357.87"/>
<polygon fill="midnightblue" stroke="midnightblue" points="329.5,-354.42 318.96,-355.52 327.88,-361.23 329.5,-354.42"/>
</g>
<!-- Node21&#45;&gt;Node5 -->
<g id="edge30" class="edge">
<title>Node21&#45;&gt;Node5</title>
<path fill="none" stroke="midnightblue" d="M498.95,-392.23C487.8,-383.74 471.15,-370.12 459,-356 432.95,-325.71 432.75,-313.51 411,-280 404.98,-270.73 398.16,-260.47 392.54,-252.09"/>
<polygon fill="midnightblue" stroke="midnightblue" points="395.3,-249.93 386.81,-243.59 389.49,-253.84 395.3,-249.93"/>
</g>
<!-- Node21&#45;&gt;Node9 -->
<g id="edge32" class="edge">
<title>Node21&#45;&gt;Node9</title>
<path fill="none" stroke="midnightblue" d="M508.18,-392.07C496.91,-356.34 455.58,-225.57 454,-224 437.28,-207.32 414.39,-196.82 391.92,-190.21"/>
<polygon fill="midnightblue" stroke="midnightblue" points="392.56,-186.76 382,-187.52 390.73,-193.51 392.56,-186.76"/>
</g>
<!-- Node21&#45;&gt;Node11 -->
<g id="edge31" class="edge">
<title>Node21&#45;&gt;Node11</title>
<path fill="none" stroke="midnightblue" d="M511,-392.44C511,-373.94 511,-328.81 511,-291 511,-291 511,-291 511,-233 511,-182.73 453.87,-151.1 414.5,-135.27"/>
<polygon fill="midnightblue" stroke="midnightblue" points="415.5,-131.91 404.91,-131.59 412.99,-138.45 415.5,-131.91"/>
</g>
<!-- Node21&#45;&gt;Node17 -->
<g id="edge29" class="edge">
<title>Node21&#45;&gt;Node17</title>
<path fill="none" stroke="midnightblue" d="M576.94,-393.62C616.46,-387.36 666.84,-376.06 708,-356 733.25,-343.7 757.6,-322.05 772.67,-307.14"/>
<polygon fill="midnightblue" stroke="midnightblue" points="775.52,-309.24 780.04,-299.65 770.53,-304.33 775.52,-309.24"/>
</g>
<!-- Node22 -->
<g id="node22" class="node">
<title>Node22</title>
<g id="a_node22"><a xlink:title=" ">
<polygon fill="none" stroke="#bfbfbf" points="657,-336.5 657,-355.5 699,-355.5 699,-336.5 657,-336.5"/>
<text text-anchor="middle" x="678" y="-343.5" font-family="Helvetica,sans-Serif" font-size="10.00">array</text>
</a>
</g>
</g>
<!-- Node21&#45;&gt;Node22 -->
<g id="edge28" class="edge">
<title>Node21&#45;&gt;Node22</title>
<path fill="none" stroke="midnightblue" d="M537.46,-392.44C567.34,-382.78 615.88,-367.09 647.37,-356.9"/>
<polygon fill="midnightblue" stroke="midnightblue" points="648.51,-360.21 656.95,-353.81 646.36,-353.55 648.51,-360.21"/>
</g>
<!-- Node23 -->
<g id="node23" class="node">
<title>Node23</title>
<g id="a_node23"><a xlink:href="abcgWindow_8hpp.html" target="_top" xlink:title="Header file of abcg::Window.">
<polygon fill="none" stroke="black" points="539.5,-336.5 539.5,-355.5 638.5,-355.5 638.5,-336.5 539.5,-336.5"/>
<text text-anchor="middle" x="589" y="-343.5" font-family="Helvetica,sans-Serif" font-size="10.00">abcgWindow.hpp</text>
</a>
</g>
</g>
<!-- Node21&#45;&gt;Node23 -->
<g id="edge34" class="edge">
<title>Node21&#45;&gt;Node23</title>
<path fill="none" stroke="midnightblue" d="M523.53,-392.32C535.59,-383.98 554.03,-371.21 568.27,-361.35"/>
<polygon fill="midnightblue" stroke="midnightblue" points="570.27,-364.22 576.5,-355.65 566.28,-358.47 570.27,-364.22"/>
</g>
<!-- Node23&#45;&gt;Node17 -->
<g id="edge35" class="edge">
<title>Node23&#45;&gt;Node17</title>
<path fill="none" stroke="midnightblue" d="M621.58,-336.49C653.48,-328.11 703.71,-314.78 755.9,-300.27"/>
<polygon fill="midnightblue" stroke="midnightblue" points="756.97,-303.6 765.66,-297.54 755.09,-296.86 756.97,-303.6"/>
</g>
<!-- Node24 -->
<g id="node24" class="node">
<title>Node24</title>
<g id="a_node24"><a xlink:href="abcgExternal_8hpp.html" target="_top" xlink:title="Header file for including third&#45;party dependencies.">
<polygon fill="none" stroke="black" points="646.5,-280.5 646.5,-299.5 747.5,-299.5 747.5,-280.5 646.5,-280.5"/>
<text text-anchor="middle" x="697" y="-287.5" font-family="Helvetica,sans-Serif" font-size="10.00">abcgExternal.hpp</text>
</a>
</g>
</g>
<!-- Node23&#45;&gt;Node24 -->
<g id="edge36" class="edge">
<title>Node23&#45;&gt;Node24</title>
<path fill="none" stroke="midnightblue" d="M606.35,-336.32C623.67,-327.66 650.52,-314.24 670.5,-304.25"/>
<polygon fill="midnightblue" stroke="midnightblue" points="672.31,-307.26 679.69,-299.65 669.18,-301 672.31,-307.26"/>
</g>
<!-- Node25 -->
<g id="node25" class="node">
<title>Node25</title>
<g id="a_node25"><a xlink:href="abcgTimer_8hpp.html" target="_top" xlink:title="Header file of abcg::Timer.">
<polygon fill="none" stroke="black" points="539.5,-280.5 539.5,-299.5 628.5,-299.5 628.5,-280.5 539.5,-280.5"/>
<text text-anchor="middle" x="584" y="-287.5" font-family="Helvetica,sans-Serif" font-size="10.00">abcgTimer.hpp</text>
</a>
</g>
</g>
<!-- Node23&#45;&gt;Node25 -->
<g id="edge37" class="edge">
<title>Node23&#45;&gt;Node25</title>
<path fill="none" stroke="midnightblue" d="M588.17,-336.08C587.52,-329.01 586.58,-318.86 585.76,-309.99"/>
<polygon fill="midnightblue" stroke="midnightblue" points="589.22,-309.39 584.81,-299.75 582.25,-310.03 589.22,-309.39"/>
</g>
<!-- Node26 -->
<g id="node26" class="node">
<title>Node26</title>
<g id="a_node26"><a xlink:title=" ">
<polygon fill="none" stroke="#bfbfbf" points="559,-224.5 559,-243.5 609,-243.5 609,-224.5 559,-224.5"/>
<text text-anchor="middle" x="584" y="-231.5" font-family="Helvetica,sans-Serif" font-size="10.00">chrono</text>
</a>
</g>
</g>
<!-- Node25&#45;&gt;Node26 -->
<g id="edge38" class="edge">
<title>Node25&#45;&gt;Node26</title>
<path fill="none" stroke="midnightblue" d="M584,-280.08C584,-273.01 584,-262.86 584,-253.99"/>
<polygon fill="midnightblue" stroke="midnightblue" points="587.5,-253.75 584,-243.75 580.5,-253.75 587.5,-253.75"/>
</g>
</g>
</svg>
