<?xml version="1.0" encoding="UTF-8" standalone="no"?>
<!DOCTYPE svg PUBLIC "-//W3C//DTD SVG 1.1//EN"
 "http://www.w3.org/Graphics/SVG/1.1/DTD/svg11.dtd">
<!-- Generated by graphviz version 2.43.0 (0)
 -->
<!-- Title: /home/harlen/dev/abcg/abcg/abcgVulkanShader.cpp Pages: 1 -->
<svg width="979pt" height="368pt"
 viewBox="0.00 0.00 979.00 368.00" xmlns="http://www.w3.org/2000/svg" xmlns:xlink="http://www.w3.org/1999/xlink">
<g id="graph0" class="graph" transform="scale(1 1) rotate(0) translate(4 364)">
<title>/home/harlen/dev/abcg/abcg/abcgVulkanShader.cpp</title>
<!-- Node1 -->
<g id="Node000001" class="node">
<title>Node1</title>
<g id="a_Node000001"><a xlink:title="Definition of helper functions for creating Vulkan shaders.">
<polygon fill="#999999" stroke="#666666" points="789,-360 634,-360 634,-330 789,-330 789,-360"/>
<text text-anchor="start" x="642" y="-348" font-family="Helvetica,sans-Serif" font-size="10.00">/home/harlen/dev/abcg</text>
<text text-anchor="middle" x="711.5" y="-337" font-family="Helvetica,sans-Serif" font-size="10.00">/abcg/abcgVulkanShader.cpp</text>
</a>
</g>
</g>
<!-- Node2 -->
<g id="Node000002" class="node">
<title>Node2</title>
<g id="a_Node000002"><a xlink:href="abcgVulkanShader_8hpp.html" target="_top" xlink:title="Declaration of helper functions for creating Vulkan shaders.">
<polygon fill="white" stroke="#666666" points="342.5,-294 216.5,-294 216.5,-275 342.5,-275 342.5,-294"/>
<text text-anchor="middle" x="279.5" y="-282" font-family="Helvetica,sans-Serif" font-size="10.00">abcgVulkanShader.hpp</text>
</a>
</g>
</g>
<!-- Node1&#45;&gt;Node2 -->
<g id="edge1_Node000001_Node000002" class="edge">
<title>Node1&#45;&gt;Node2</title>
<g id="a_edge1_Node000001_Node000002"><a xlink:title=" ">
<path fill="none" stroke="#63b8ff" d="M633.77,-333.47C554.03,-322.68 430.91,-306 352.82,-295.43"/>
<polygon fill="#63b8ff" stroke="#63b8ff" points="352.96,-291.92 342.58,-294.04 352.02,-298.85 352.96,-291.92"/>
</a>
</g>
</g>
<!-- Node13 -->
<g id="Node000013" class="node">
<title>Node13</title>
<g id="a_Node000013"><a xlink:href="abcgException_8hpp.html" target="_top" xlink:title="Header file of abcg::Exception and derived classes.">
<polygon fill="white" stroke="#666666" points="481,-294 372,-294 372,-275 481,-275 481,-294"/>
<text text-anchor="middle" x="426.5" y="-282" font-family="Helvetica,sans-Serif" font-size="10.00">abcgException.hpp</text>
</a>
</g>
</g>
<!-- Node1&#45;&gt;Node13 -->
<g id="edge14_Node000001_Node000013" class="edge">
<title>Node1&#45;&gt;Node13</title>
<g id="a_edge14_Node000001_Node000013"><a xlink:title=" ">
<path fill="none" stroke="#63b8ff" d="M643.24,-329.99C592.45,-319.56 524.22,-305.56 477.98,-296.07"/>
<polygon fill="#63b8ff" stroke="#63b8ff" points="478.67,-292.64 468.17,-294.05 477.26,-299.49 478.67,-292.64"/>
</a>
</g>
</g>
<!-- Node16 -->
<g id="Node000016" class="node">
<title>Node16</title>
<g id="a_Node000016"><a xlink:title=" ">
<polygon fill="#e0e0e0" stroke="#999999" points="659.5,-294 499.5,-294 499.5,-275 659.5,-275 659.5,-294"/>
<text text-anchor="middle" x="579.5" y="-282" font-family="Helvetica,sans-Serif" font-size="10.00">glslang/SPIRV/GlslangToSpv.h</text>
</a>
</g>
</g>
<!-- Node1&#45;&gt;Node16 -->
<g id="edge18_Node000001_Node000016" class="edge">
<title>Node1&#45;&gt;Node16</title>
<g id="a_edge18_Node000001_Node000016"><a xlink:title=" ">
<path fill="none" stroke="#63b8ff" d="M679.88,-329.99C658.15,-320.36 629.53,-307.67 608.41,-298.31"/>
<polygon fill="#63b8ff" stroke="#63b8ff" points="609.55,-294.99 598.99,-294.14 606.72,-301.39 609.55,-294.99"/>
</a>
</g>
</g>
<!-- Node17 -->
<g id="Node000017" class="node">
<title>Node17</title>
<g id="a_Node000017"><a xlink:title=" ">
<polygon fill="#e0e0e0" stroke="#999999" points="745,-294 678,-294 678,-275 745,-275 745,-294"/>
<text text-anchor="middle" x="711.5" y="-282" font-family="Helvetica,sans-Serif" font-size="10.00">fmt/core.h</text>
</a>
</g>
</g>
<!-- Node1&#45;&gt;Node17 -->
<g id="edge19_Node000001_Node000017" class="edge">
<title>Node1&#45;&gt;Node17</title>
<g id="a_edge19_Node000001_Node000017"><a xlink:title=" ">
<path fill="none" stroke="#63b8ff" d="M711.5,-329.84C711.5,-322.21 711.5,-312.7 711.5,-304.45"/>
<polygon fill="#63b8ff" stroke="#63b8ff" points="715,-304.27 711.5,-294.27 708,-304.27 715,-304.27"/>
</a>
</g>
</g>
<!-- Node18 -->
<g id="Node000018" class="node">
<title>Node18</title>
<g id="a_Node000018"><a xlink:title=" ">
<polygon fill="#e0e0e0" stroke="#999999" points="811.5,-294 763.5,-294 763.5,-275 811.5,-275 811.5,-294"/>
<text text-anchor="middle" x="787.5" y="-282" font-family="Helvetica,sans-Serif" font-size="10.00">gsl/gsl</text>
</a>
</g>
</g>
<!-- Node1&#45;&gt;Node18 -->
<g id="edge20_Node000001_Node000018" class="edge">
<title>Node1&#45;&gt;Node18</title>
<g id="a_edge20_Node000001_Node000018"><a xlink:title=" ">
<path fill="none" stroke="#63b8ff" d="M729.9,-329.84C741.38,-321 756.15,-309.63 767.86,-300.62"/>
<polygon fill="#63b8ff" stroke="#63b8ff" points="770.32,-303.14 776.11,-294.27 766.05,-297.59 770.32,-303.14"/>
</a>
</g>
</g>
<!-- Node19 -->
<g id="Node000019" class="node">
<title>Node19</title>
<g id="a_Node000019"><a xlink:title=" ">
<polygon fill="#e0e0e0" stroke="#999999" points="897.5,-294 829.5,-294 829.5,-275 897.5,-275 897.5,-294"/>
<text text-anchor="middle" x="863.5" y="-282" font-family="Helvetica,sans-Serif" font-size="10.00">filesystem</text>
</a>
</g>
</g>
<!-- Node1&#45;&gt;Node19 -->
<g id="edge21_Node000001_Node000019" class="edge">
<title>Node1&#45;&gt;Node19</title>
<g id="a_edge21_Node000001_Node000019"><a xlink:title=" ">
<path fill="none" stroke="#63b8ff" d="M747.91,-329.99C773.38,-320.18 807.09,-307.21 831.53,-297.81"/>
<polygon fill="#63b8ff" stroke="#63b8ff" points="832.98,-301 841.05,-294.14 830.46,-294.46 832.98,-301"/>
</a>
</g>
</g>
<!-- Node20 -->
<g id="Node000020" class="node">
<title>Node20</title>
<g id="a_Node000020"><a xlink:title=" ">
<polygon fill="#e0e0e0" stroke="#999999" points="971,-294 916,-294 916,-275 971,-275 971,-294"/>
<text text-anchor="middle" x="943.5" y="-282" font-family="Helvetica,sans-Serif" font-size="10.00">fstream</text>
</a>
</g>
</g>
<!-- Node1&#45;&gt;Node20 -->
<g id="edge22_Node000001_Node000020" class="edge">
<title>Node1&#45;&gt;Node20</title>
<g id="a_edge22_Node000001_Node000020"><a xlink:title=" ">
<path fill="none" stroke="#63b8ff" d="M767.07,-329.99C809.96,-319.17 868.13,-304.5 905.75,-295.02"/>
<polygon fill="#63b8ff" stroke="#63b8ff" points="906.94,-298.33 915.78,-292.49 905.23,-291.54 906.94,-298.33"/>
</a>
</g>
</g>
<!-- Node3 -->
<g id="Node000003" class="node">
<title>Node3</title>
<g id="a_Node000003"><a xlink:href="abcgShader_8hpp.html" target="_top" xlink:title="Declaration of a structure for building shaders.">
<polygon fill="white" stroke="#666666" points="326.5,-239 232.5,-239 232.5,-220 326.5,-220 326.5,-239"/>
<text text-anchor="middle" x="279.5" y="-227" font-family="Helvetica,sans-Serif" font-size="10.00">abcgShader.hpp</text>
</a>
</g>
</g>
<!-- Node2&#45;&gt;Node3 -->
<g id="edge2_Node000002_Node000003" class="edge">
<title>Node2&#45;&gt;Node3</title>
<g id="a_edge2_Node000002_Node000003"><a xlink:title=" ">
<path fill="none" stroke="#63b8ff" d="M279.5,-274.75C279.5,-267.8 279.5,-257.85 279.5,-249.13"/>
<polygon fill="#63b8ff" stroke="#63b8ff" points="283,-249.09 279.5,-239.09 276,-249.09 283,-249.09"/>
</a>
</g>
</g>
<!-- Node6 -->
<g id="Node000006" class="node">
<title>Node6</title>
<g id="a_Node000006"><a xlink:href="abcgVulkanDevice_8hpp.html" target="_top" xlink:title="Header file of abcg::VulkanDevice.">
<polygon fill="white" stroke="#666666" points="214,-239 87,-239 87,-220 214,-220 214,-239"/>
<text text-anchor="middle" x="150.5" y="-227" font-family="Helvetica,sans-Serif" font-size="10.00">abcgVulkanDevice.hpp</text>
</a>
</g>
</g>
<!-- Node2&#45;&gt;Node6 -->
<g id="edge5_Node000002_Node000006" class="edge">
<title>Node2&#45;&gt;Node6</title>
<g id="a_edge5_Node000002_Node000006"><a xlink:title=" ">
<path fill="none" stroke="#63b8ff" d="M258.77,-274.98C237.74,-266.34 204.95,-252.87 180.96,-243.02"/>
<polygon fill="#63b8ff" stroke="#63b8ff" points="182.18,-239.73 171.6,-239.17 179.52,-246.21 182.18,-239.73"/>
</a>
</g>
</g>
<!-- Node4 -->
<g id="Node000004" class="node">
<title>Node4</title>
<g id="a_Node000004"><a xlink:title=" ">
<polygon fill="#e0e0e0" stroke="#999999" points="307.5,-129 251.5,-129 251.5,-110 307.5,-110 307.5,-129"/>
<text text-anchor="middle" x="279.5" y="-117" font-family="Helvetica,sans-Serif" font-size="10.00">optional</text>
</a>
</g>
</g>
<!-- Node3&#45;&gt;Node4 -->
<g id="edge3_Node000003_Node000004" class="edge">
<title>Node3&#45;&gt;Node4</title>
<g id="a_edge3_Node000003_Node000004"><a xlink:title=" ">
<path fill="none" stroke="#63b8ff" d="M279.5,-219.66C279.5,-202.17 279.5,-162.8 279.5,-139.27"/>
<polygon fill="#63b8ff" stroke="#63b8ff" points="283,-139.16 279.5,-129.16 276,-139.16 283,-139.16"/>
</a>
</g>
</g>
<!-- Node5 -->
<g id="Node000005" class="node">
<title>Node5</title>
<g id="a_Node000005"><a xlink:title=" ">
<polygon fill="#e0e0e0" stroke="#999999" points="406.5,-184 362.5,-184 362.5,-165 406.5,-165 406.5,-184"/>
<text text-anchor="middle" x="384.5" y="-172" font-family="Helvetica,sans-Serif" font-size="10.00">string</text>
</a>
</g>
</g>
<!-- Node3&#45;&gt;Node5 -->
<g id="edge4_Node000003_Node000005" class="edge">
<title>Node3&#45;&gt;Node5</title>
<g id="a_edge4_Node000003_Node000005"><a xlink:title=" ">
<path fill="none" stroke="#63b8ff" d="M296.37,-219.98C313.11,-211.54 339,-198.47 358.39,-188.68"/>
<polygon fill="#63b8ff" stroke="#63b8ff" points="359.97,-191.8 367.32,-184.17 356.82,-185.55 359.97,-191.8"/>
</a>
</g>
</g>
<!-- Node7 -->
<g id="Node000007" class="node">
<title>Node7</title>
<g id="a_Node000007"><a xlink:href="abcgVulkanPhysicalDevice_8hpp.html" target="_top" xlink:title="Header file of abcg::VulkanPhysicalDevice.">
<polygon fill="white" stroke="#666666" points="250,-184 83,-184 83,-165 250,-165 250,-184"/>
<text text-anchor="middle" x="166.5" y="-172" font-family="Helvetica,sans-Serif" font-size="10.00">abcgVulkanPhysicalDevice.hpp</text>
</a>
</g>
</g>
<!-- Node6&#45;&gt;Node7 -->
<g id="edge6_Node000006_Node000007" class="edge">
<title>Node6&#45;&gt;Node7</title>
<g id="a_edge6_Node000006_Node000007"><a xlink:title=" ">
<path fill="none" stroke="#63b8ff" d="M153.14,-219.75C155.26,-212.72 158.31,-202.62 160.96,-193.84"/>
<polygon fill="#63b8ff" stroke="#63b8ff" points="164.37,-194.67 163.91,-184.09 157.67,-192.65 164.37,-194.67"/>
</a>
</g>
</g>
<!-- Node12 -->
<g id="Node000012" class="node">
<title>Node12</title>
<g id="a_Node000012"><a xlink:title=" ">
<polygon fill="#e0e0e0" stroke="#999999" points="65,-184 0,-184 0,-165 65,-165 65,-184"/>
<text text-anchor="middle" x="32.5" y="-172" font-family="Helvetica,sans-Serif" font-size="10.00">functional</text>
</a>
</g>
</g>
<!-- Node6&#45;&gt;Node12 -->
<g id="edge13_Node000006_Node000012" class="edge">
<title>Node6&#45;&gt;Node12</title>
<g id="a_edge13_Node000006_Node000012"><a xlink:title=" ">
<path fill="none" stroke="#63b8ff" d="M131.54,-219.98C112.47,-211.42 82.84,-198.11 60.95,-188.28"/>
<polygon fill="#63b8ff" stroke="#63b8ff" points="62.36,-185.07 51.8,-184.17 59.49,-191.46 62.36,-185.07"/>
</a>
</g>
</g>
<!-- Node7&#45;&gt;Node4 -->
<g id="edge7_Node000007_Node000004" class="edge">
<title>Node7&#45;&gt;Node4</title>
<g id="a_edge7_Node000007_Node000004"><a xlink:title=" ">
<path fill="none" stroke="#63b8ff" d="M184.66,-164.98C202.75,-156.5 230.78,-143.35 251.69,-133.54"/>
<polygon fill="#63b8ff" stroke="#63b8ff" points="253.45,-136.59 261.01,-129.17 250.47,-130.25 253.45,-136.59"/>
</a>
</g>
</g>
<!-- Node8 -->
<g id="Node000008" class="node">
<title>Node8</title>
<g id="a_Node000008"><a xlink:href="abcgVulkanExternal_8hpp.html" target="_top" xlink:title="Header file for including Vulkan&#45;related dependencies.">
<polygon fill="white" stroke="#666666" points="185.5,-74 51.5,-74 51.5,-55 185.5,-55 185.5,-74"/>
<text text-anchor="middle" x="118.5" y="-62" font-family="Helvetica,sans-Serif" font-size="10.00">abcgVulkanExternal.hpp</text>
</a>
</g>
</g>
<!-- Node7&#45;&gt;Node8 -->
<g id="edge8_Node000007_Node000008" class="edge">
<title>Node7&#45;&gt;Node8</title>
<g id="a_edge8_Node000007_Node000008"><a xlink:title=" ">
<path fill="none" stroke="#63b8ff" d="M138.11,-164.92C121.04,-158.13 100.69,-146.77 90.5,-129 81.75,-113.74 92.09,-95.23 102.59,-82.14"/>
<polygon fill="#63b8ff" stroke="#63b8ff" points="105.39,-84.25 109.32,-74.41 100.11,-79.66 105.39,-84.25"/>
</a>
</g>
</g>
<!-- Node11 -->
<g id="Node000011" class="node">
<title>Node11</title>
<g id="a_Node000011"><a xlink:href="abcgVulkanInstance_8hpp.html" target="_top" xlink:title="Header file of abcg::VulkanInstance.">
<polygon fill="white" stroke="#666666" points="233.5,-129 99.5,-129 99.5,-110 233.5,-110 233.5,-129"/>
<text text-anchor="middle" x="166.5" y="-117" font-family="Helvetica,sans-Serif" font-size="10.00">abcgVulkanInstance.hpp</text>
</a>
</g>
</g>
<!-- Node7&#45;&gt;Node11 -->
<g id="edge11_Node000007_Node000011" class="edge">
<title>Node7&#45;&gt;Node11</title>
<g id="a_edge11_Node000007_Node000011"><a xlink:title=" ">
<path fill="none" stroke="#63b8ff" d="M166.5,-164.75C166.5,-157.8 166.5,-147.85 166.5,-139.13"/>
<polygon fill="#63b8ff" stroke="#63b8ff" points="170,-139.09 166.5,-129.09 163,-139.09 170,-139.09"/>
</a>
</g>
</g>
<!-- Node9 -->
<g id="Node000009" class="node">
<title>Node9</title>
<g id="a_Node000009"><a xlink:title=" ">
<polygon fill="#e0e0e0" stroke="#999999" points="95,-19 48,-19 48,0 95,0 95,-19"/>
<text text-anchor="middle" x="71.5" y="-7" font-family="Helvetica,sans-Serif" font-size="10.00">volk.h</text>
</a>
</g>
</g>
<!-- Node8&#45;&gt;Node9 -->
<g id="edge9_Node000008_Node000009" class="edge">
<title>Node8&#45;&gt;Node9</title>
<g id="a_edge9_Node000008_Node000009"><a xlink:title=" ">
<path fill="none" stroke="#63b8ff" d="M110.74,-54.75C104.03,-47.18 94.16,-36.05 85.99,-26.84"/>
<polygon fill="#63b8ff" stroke="#63b8ff" points="88.37,-24.25 79.12,-19.09 83.13,-28.89 88.37,-24.25"/>
</a>
</g>
</g>
<!-- Node10 -->
<g id="Node000010" class="node">
<title>Node10</title>
<g id="a_Node000010"><a xlink:title=" ">
<polygon fill="#e0e0e0" stroke="#999999" points="218,-19 113,-19 113,0 218,0 218,-19"/>
<text text-anchor="middle" x="165.5" y="-7" font-family="Helvetica,sans-Serif" font-size="10.00">vulkan/vulkan.hpp</text>
</a>
</g>
</g>
<!-- Node8&#45;&gt;Node10 -->
<g id="edge10_Node000008_Node000010" class="edge">
<title>Node8&#45;&gt;Node10</title>
<g id="a_edge10_Node000008_Node000010"><a xlink:title=" ">
<path fill="none" stroke="#63b8ff" d="M126.26,-54.75C132.97,-47.18 142.84,-36.05 151.01,-26.84"/>
<polygon fill="#63b8ff" stroke="#63b8ff" points="153.87,-28.89 157.88,-19.09 148.63,-24.25 153.87,-28.89"/>
</a>
</g>
</g>
<!-- Node11&#45;&gt;Node8 -->
<g id="edge12_Node000011_Node000008" class="edge">
<title>Node11&#45;&gt;Node8</title>
<g id="a_edge12_Node000011_Node000008"><a xlink:title=" ">
<path fill="none" stroke="#63b8ff" d="M158.57,-109.75C151.65,-102.11 141.43,-90.82 133.05,-81.56"/>
<polygon fill="#63b8ff" stroke="#63b8ff" points="135.59,-79.15 126.28,-74.09 130.4,-83.85 135.59,-79.15"/>
</a>
</g>
</g>
<!-- Node13&#45;&gt;Node5 -->
<g id="edge17_Node000013_Node000005" class="edge">
<title>Node13&#45;&gt;Node5</title>
<g id="a_edge17_Node000013_Node000005"><a xlink:title=" ">
<path fill="none" stroke="#63b8ff" d="M427.01,-274.92C427.45,-262.37 427.06,-238.48 419.5,-220 415.19,-209.47 407.62,-199.36 400.62,-191.45"/>
<polygon fill="#63b8ff" stroke="#63b8ff" points="403.09,-188.96 393.69,-184.07 397.99,-193.75 403.09,-188.96"/>
</a>
</g>
</g>
<!-- Node14 -->
<g id="Node000014" class="node">
<title>Node14</title>
<g id="a_Node000014"><a xlink:title=" ">
<polygon fill="#e0e0e0" stroke="#999999" points="560,-239 467,-239 467,-220 560,-220 560,-239"/>
<text text-anchor="middle" x="513.5" y="-227" font-family="Helvetica,sans-Serif" font-size="10.00">source_location</text>
</a>
</g>
</g>
<!-- Node13&#45;&gt;Node14 -->
<g id="edge15_Node000013_Node000014" class="edge">
<title>Node13&#45;&gt;Node14</title>
<g id="a_edge15_Node000013_Node000014"><a xlink:title=" ">
<path fill="none" stroke="#63b8ff" d="M440.48,-274.98C453.97,-266.77 474.63,-254.18 490.54,-244.49"/>
<polygon fill="#63b8ff" stroke="#63b8ff" points="492.55,-247.36 499.27,-239.17 488.91,-241.38 492.55,-247.36"/>
</a>
</g>
</g>
<!-- Node15 -->
<g id="Node000015" class="node">
<title>Node15</title>
<g id="a_Node000015"><a xlink:title=" ">
<polygon fill="#e0e0e0" stroke="#999999" points="410,-239 345,-239 345,-220 410,-220 410,-239"/>
<text text-anchor="middle" x="377.5" y="-227" font-family="Helvetica,sans-Serif" font-size="10.00">stdexcept</text>
</a>
</g>
</g>
<!-- Node13&#45;&gt;Node15 -->
<g id="edge16_Node000013_Node000015" class="edge">
<title>Node13&#45;&gt;Node15</title>
<g id="a_edge16_Node000013_Node000015"><a xlink:title=" ">
<path fill="none" stroke="#63b8ff" d="M418.41,-274.75C411.34,-267.11 400.91,-255.82 392.35,-246.56"/>
<polygon fill="#63b8ff" stroke="#63b8ff" points="394.8,-244.06 385.44,-239.09 389.66,-248.81 394.8,-244.06"/>
</a>
</g>
</g>
</g>
</svg>
