<?xml version="1.0" encoding="UTF-8" standalone="no"?>
<!DOCTYPE svg PUBLIC "-//W3C//DTD SVG 1.1//EN"
 "http://www.w3.org/Graphics/SVG/1.1/DTD/svg11.dtd">
<!-- Generated by graphviz version 2.43.0 (0)
 -->
<!-- Title: abcg::Window Pages: 1 -->
<svg width="266pt" height="82pt"
 viewBox="0.00 0.00 265.50 82.00" xmlns="http://www.w3.org/2000/svg" xmlns:xlink="http://www.w3.org/1999/xlink">
<g id="graph0" class="graph" transform="scale(1 1) rotate(0) translate(4 78)">
<title>abcg::Window</title>
<!-- Node1 -->
<g id="Node000001" class="node">
<title>Node1</title>
<g id="a_Node000001"><a xlink:title="Base abstract class that represents a SDL window.">
<polygon fill="#999999" stroke="#666666" points="172.5,-74 87.5,-74 87.5,-55 172.5,-55 172.5,-74"/>
<text text-anchor="middle" x="130" y="-62" font-family="Helvetica,sans-Serif" font-size="10.00">abcg::Window</text>
</a>
</g>
</g>
<!-- Node2 -->
<g id="Node000002" class="node">
<title>Node2</title>
<g id="a_Node000002"><a xlink:href="classabcg_1_1OpenGLWindow.html" target="_top" xlink:title="Base class for a window that displays graphics using an OpenGL context.">
<polygon fill="white" stroke="#666666" points="122,-19 0,-19 0,0 122,0 122,-19"/>
<text text-anchor="middle" x="61" y="-7" font-family="Helvetica,sans-Serif" font-size="10.00">abcg::OpenGLWindow</text>
</a>
</g>
</g>
<!-- Node1&#45;&gt;Node2 -->
<g id="edge1_Node000001_Node000002" class="edge">
<title>Node1&#45;&gt;Node2</title>
<g id="a_edge1_Node000001_Node000002"><a xlink:title=" ">
<path fill="none" stroke="#63b8ff" d="M110.96,-48.88C98.54,-39.34 82.76,-27.21 72.29,-19.17"/>
<polygon fill="#63b8ff" stroke="#63b8ff" points="108.85,-51.67 118.91,-54.98 113.12,-46.12 108.85,-51.67"/>
</a>
</g>
</g>
<!-- Node3 -->
<g id="Node000003" class="node">
<title>Node3</title>
<g id="a_Node000003"><a xlink:href="classabcg_1_1VulkanWindow.html" target="_top" xlink:title="Base class for a window that displays graphics using a Vulkan context.">
<polygon fill="white" stroke="#666666" points="257.5,-19 140.5,-19 140.5,0 257.5,0 257.5,-19"/>
<text text-anchor="middle" x="199" y="-7" font-family="Helvetica,sans-Serif" font-size="10.00">abcg::VulkanWindow</text>
</a>
</g>
</g>
<!-- Node1&#45;&gt;Node3 -->
<g id="edge2_Node000001_Node000003" class="edge">
<title>Node1&#45;&gt;Node3</title>
<g id="a_edge2_Node000001_Node000003"><a xlink:title=" ">
<path fill="none" stroke="#63b8ff" d="M149.04,-48.88C161.46,-39.34 177.24,-27.21 187.71,-19.17"/>
<polygon fill="#63b8ff" stroke="#63b8ff" points="146.88,-46.12 141.09,-54.98 151.15,-51.67 146.88,-46.12"/>
</a>
</g>
</g>
</g>
</svg>
