<?xml version="1.0" encoding="UTF-8" standalone="no"?>
<!DOCTYPE svg PUBLIC "-//W3C//DTD SVG 1.1//EN"
 "http://www.w3.org/Graphics/SVG/1.1/DTD/svg11.dtd">
<!-- Generated by graphviz version 2.43.0 (0)
 -->
<!-- Title: abcg::Exception Pages: 1 -->
<svg width="379pt" height="180pt"
 viewBox="0.00 0.00 379.00 180.00" xmlns="http://www.w3.org/2000/svg" xmlns:xlink="http://www.w3.org/1999/xlink">
<g id="graph0" class="graph" transform="scale(1 1) rotate(0) translate(4 176)">
<title>abcg::Exception</title>
<!-- Node1 -->
<g id="node1" class="node">
<title>Node1</title>
<g id="a_node1"><a xlink:title="Base class for ABCg exception objects.">
<polygon fill="#bfbfbf" stroke="black" points="122,-76.5 122,-95.5 216,-95.5 216,-76.5 122,-76.5"/>
<text text-anchor="middle" x="169" y="-83.5" font-family="Helvetica,sans-Serif" font-size="10.00">abcg::Exception</text>
</a>
</g>
</g>
<!-- Node3 -->
<g id="node3" class="node">
<title>Node3</title>
<g id="a_node3"><a xlink:href="classabcg_1_1OpenGLError.html" target="_top" xlink:title="Represents an exception object for OpenGL errors.">
<polygon fill="none" stroke="black" points="258,-152.5 258,-171.5 365,-171.5 365,-152.5 258,-152.5"/>
<text text-anchor="middle" x="311.5" y="-159.5" font-family="Helvetica,sans-Serif" font-size="10.00">abcg::OpenGLError</text>
</a>
</g>
</g>
<!-- Node1&#45;&gt;Node3 -->
<g id="edge2" class="edge">
<title>Node1&#45;&gt;Node3</title>
<path fill="none" stroke="midnightblue" d="M189.58,-102.09C205.58,-114.6 229.2,-131.68 252,-143 259.37,-146.66 267.59,-149.83 275.5,-152.48"/>
<polygon fill="midnightblue" stroke="midnightblue" points="191.53,-99.17 181.53,-95.67 187.17,-104.64 191.53,-99.17"/>
</g>
<!-- Node4 -->
<g id="node4" class="node">
<title>Node4</title>
<g id="a_node4"><a xlink:href="classabcg_1_1RuntimeError.html" target="_top" xlink:title="Represents an exception object for runtime errors.">
<polygon fill="none" stroke="black" points="256.5,-114.5 256.5,-133.5 366.5,-133.5 366.5,-114.5 256.5,-114.5"/>
<text text-anchor="middle" x="311.5" y="-121.5" font-family="Helvetica,sans-Serif" font-size="10.00">abcg::RuntimeError</text>
</a>
</g>
</g>
<!-- Node1&#45;&gt;Node4 -->
<g id="edge3" class="edge">
<title>Node1&#45;&gt;Node4</title>
<path fill="none" stroke="midnightblue" d="M215.28,-98.25C234.64,-103.48 256.92,-109.51 275.06,-114.41"/>
<polygon fill="midnightblue" stroke="midnightblue" points="216.02,-94.82 205.45,-95.59 214.19,-101.58 216.02,-94.82"/>
</g>
<!-- Node5 -->
<g id="node5" class="node">
<title>Node5</title>
<g id="a_node5"><a xlink:href="classabcg_1_1SDLError.html" target="_top" xlink:title="Represents an exception object for SDL errors.">
<polygon fill="none" stroke="black" points="267.5,-76.5 267.5,-95.5 355.5,-95.5 355.5,-76.5 267.5,-76.5"/>
<text text-anchor="middle" x="311.5" y="-83.5" font-family="Helvetica,sans-Serif" font-size="10.00">abcg::SDLError</text>
</a>
</g>
</g>
<!-- Node1&#45;&gt;Node5 -->
<g id="edge4" class="edge">
<title>Node1&#45;&gt;Node5</title>
<path fill="none" stroke="midnightblue" d="M226.27,-86C239.92,-86 254.31,-86 267.25,-86"/>
<polygon fill="midnightblue" stroke="midnightblue" points="226,-82.5 216,-86 226,-89.5 226,-82.5"/>
</g>
<!-- Node6 -->
<g id="node6" class="node">
<title>Node6</title>
<g id="a_node6"><a xlink:href="classabcg_1_1SDLImageError.html" target="_top" xlink:title="Represents an exception object for SDL_image errors.">
<polygon fill="none" stroke="black" points="252,-38.5 252,-57.5 371,-57.5 371,-38.5 252,-38.5"/>
<text text-anchor="middle" x="311.5" y="-45.5" font-family="Helvetica,sans-Serif" font-size="10.00">abcg::SDLImageError</text>
</a>
</g>
</g>
<!-- Node1&#45;&gt;Node6 -->
<g id="edge5" class="edge">
<title>Node1&#45;&gt;Node6</title>
<path fill="none" stroke="midnightblue" d="M215.28,-73.75C234.64,-68.52 256.92,-62.49 275.06,-57.59"/>
<polygon fill="midnightblue" stroke="midnightblue" points="214.19,-70.42 205.45,-76.41 216.02,-77.18 214.19,-70.42"/>
</g>
<!-- Node7 -->
<g id="node7" class="node">
<title>Node7</title>
<g id="a_node7"><a xlink:href="classabcg_1_1VulkanError.html" target="_top" xlink:title="Represents an exception object for Vulkan runtime errors.">
<polygon fill="none" stroke="black" points="261,-0.5 261,-19.5 362,-19.5 362,-0.5 261,-0.5"/>
<text text-anchor="middle" x="311.5" y="-7.5" font-family="Helvetica,sans-Serif" font-size="10.00">abcg::VulkanError</text>
</a>
</g>
</g>
<!-- Node1&#45;&gt;Node7 -->
<g id="edge6" class="edge">
<title>Node1&#45;&gt;Node7</title>
<path fill="none" stroke="midnightblue" d="M189.58,-69.91C205.58,-57.4 229.2,-40.32 252,-29 259.37,-25.34 267.59,-22.17 275.5,-19.52"/>
<polygon fill="midnightblue" stroke="midnightblue" points="187.17,-67.36 181.53,-76.33 191.53,-72.83 187.17,-67.36"/>
</g>
<!-- Node2 -->
<g id="node2" class="node">
<title>Node2</title>
<g id="a_node2"><a xlink:title=" ">
<polygon fill="none" stroke="#bfbfbf" points="0,-76.5 0,-95.5 86,-95.5 86,-76.5 0,-76.5"/>
<text text-anchor="middle" x="43" y="-83.5" font-family="Helvetica,sans-Serif" font-size="10.00">std::exception</text>
</a>
</g>
</g>
<!-- Node2&#45;&gt;Node1 -->
<g id="edge1" class="edge">
<title>Node2&#45;&gt;Node1</title>
<path fill="none" stroke="midnightblue" d="M96.39,-86C104.77,-86 113.39,-86 121.62,-86"/>
<polygon fill="midnightblue" stroke="midnightblue" points="96.33,-82.5 86.33,-86 96.33,-89.5 96.33,-82.5"/>
</g>
</g>
</svg>
