<?xml version="1.0" encoding="UTF-8" standalone="no"?>
<!DOCTYPE svg PUBLIC "-//W3C//DTD SVG 1.1//EN"
 "http://www.w3.org/Graphics/SVG/1.1/DTD/svg11.dtd">
<!-- Generated by graphviz version 2.43.0 (0)
 -->
<!-- Title: abcg::Exception Pages: 1 -->
<svg width="379pt" height="175pt"
 viewBox="0.00 0.00 379.00 175.00" xmlns="http://www.w3.org/2000/svg" xmlns:xlink="http://www.w3.org/1999/xlink">
<g id="graph0" class="graph" transform="scale(1 1) rotate(0) translate(4 171)">
<title>abcg::Exception</title>
<!-- Node1 -->
<g id="Node000001" class="node">
<title>Node1</title>
<g id="a_Node000001"><a xlink:title="Base class for ABCg exception objects.">
<polygon fill="#999999" stroke="#666666" points="216,-93 122,-93 122,-74 216,-74 216,-93"/>
<text text-anchor="middle" x="169" y="-81" font-family="Helvetica,sans-Serif" font-size="10.00">abcg::Exception</text>
</a>
</g>
</g>
<!-- Node3 -->
<g id="Node000003" class="node">
<title>Node3</title>
<g id="a_Node000003"><a xlink:href="classabcg_1_1OpenGLError.html" target="_top" xlink:title="Represents an exception object for OpenGL errors.">
<polygon fill="white" stroke="#666666" points="365,-167 258,-167 258,-148 365,-148 365,-167"/>
<text text-anchor="middle" x="311.5" y="-155" font-family="Helvetica,sans-Serif" font-size="10.00">abcg::OpenGLError</text>
</a>
</g>
</g>
<!-- Node1&#45;&gt;Node3 -->
<g id="edge2_Node000001_Node000003" class="edge">
<title>Node1&#45;&gt;Node3</title>
<g id="a_edge2_Node000001_Node000003"><a xlink:title=" ">
<path fill="none" stroke="#63b8ff" d="M189.58,-99.38C205.58,-111.71 229.2,-128.52 252,-139.5 258.7,-142.73 266.11,-145.54 273.34,-147.91"/>
<polygon fill="#63b8ff" stroke="#63b8ff" points="191.56,-96.48 181.53,-93.05 187.23,-101.98 191.56,-96.48"/>
</a>
</g>
</g>
<!-- Node4 -->
<g id="Node000004" class="node">
<title>Node4</title>
<g id="a_Node000004"><a xlink:href="classabcg_1_1RuntimeError.html" target="_top" xlink:title="Represents an exception object for runtime errors.">
<polygon fill="white" stroke="#666666" points="366.5,-130 256.5,-130 256.5,-111 366.5,-111 366.5,-130"/>
<text text-anchor="middle" x="311.5" y="-118" font-family="Helvetica,sans-Serif" font-size="10.00">abcg::RuntimeError</text>
</a>
</g>
</g>
<!-- Node1&#45;&gt;Node4 -->
<g id="edge3_Node000001_Node000004" class="edge">
<title>Node1&#45;&gt;Node4</title>
<g id="a_edge3_Node000001_Node000004"><a xlink:title=" ">
<path fill="none" stroke="#63b8ff" d="M216.02,-95.62C234.82,-100.57 256.26,-106.22 273.95,-110.88"/>
<polygon fill="#63b8ff" stroke="#63b8ff" points="216.74,-92.19 206.18,-93.03 214.96,-98.96 216.74,-92.19"/>
</a>
</g>
</g>
<!-- Node5 -->
<g id="Node000005" class="node">
<title>Node5</title>
<g id="a_Node000005"><a xlink:href="classabcg_1_1SDLError.html" target="_top" xlink:title="Represents an exception object for SDL errors.">
<polygon fill="white" stroke="#666666" points="355.5,-93 267.5,-93 267.5,-74 355.5,-74 355.5,-93"/>
<text text-anchor="middle" x="311.5" y="-81" font-family="Helvetica,sans-Serif" font-size="10.00">abcg::SDLError</text>
</a>
</g>
</g>
<!-- Node1&#45;&gt;Node5 -->
<g id="edge4_Node000001_Node000005" class="edge">
<title>Node1&#45;&gt;Node5</title>
<g id="a_edge4_Node000001_Node000005"><a xlink:title=" ">
<path fill="none" stroke="#63b8ff" d="M226.27,-83.5C239.92,-83.5 254.31,-83.5 267.25,-83.5"/>
<polygon fill="#63b8ff" stroke="#63b8ff" points="226,-80 216,-83.5 226,-87 226,-80"/>
</a>
</g>
</g>
<!-- Node6 -->
<g id="Node000006" class="node">
<title>Node6</title>
<g id="a_Node000006"><a xlink:href="classabcg_1_1SDLImageError.html" target="_top" xlink:title="Represents an exception object for SDL_image errors.">
<polygon fill="white" stroke="#666666" points="371,-56 252,-56 252,-37 371,-37 371,-56"/>
<text text-anchor="middle" x="311.5" y="-44" font-family="Helvetica,sans-Serif" font-size="10.00">abcg::SDLImageError</text>
</a>
</g>
</g>
<!-- Node1&#45;&gt;Node6 -->
<g id="edge5_Node000001_Node000006" class="edge">
<title>Node1&#45;&gt;Node6</title>
<g id="a_edge5_Node000001_Node000006"><a xlink:title=" ">
<path fill="none" stroke="#63b8ff" d="M216.02,-71.38C234.82,-66.43 256.26,-60.78 273.95,-56.12"/>
<polygon fill="#63b8ff" stroke="#63b8ff" points="214.96,-68.04 206.18,-73.97 216.74,-74.81 214.96,-68.04"/>
</a>
</g>
</g>
<!-- Node7 -->
<g id="Node000007" class="node">
<title>Node7</title>
<g id="a_Node000007"><a xlink:href="classabcg_1_1VulkanError.html" target="_top" xlink:title="Represents an exception object for Vulkan runtime errors.">
<polygon fill="white" stroke="#666666" points="362,-19 261,-19 261,0 362,0 362,-19"/>
<text text-anchor="middle" x="311.5" y="-7" font-family="Helvetica,sans-Serif" font-size="10.00">abcg::VulkanError</text>
</a>
</g>
</g>
<!-- Node1&#45;&gt;Node7 -->
<g id="edge6_Node000001_Node000007" class="edge">
<title>Node1&#45;&gt;Node7</title>
<g id="a_edge6_Node000001_Node000007"><a xlink:title=" ">
<path fill="none" stroke="#63b8ff" d="M189.58,-67.62C205.58,-55.29 229.2,-38.48 252,-27.5 258.7,-24.27 266.11,-21.46 273.34,-19.09"/>
<polygon fill="#63b8ff" stroke="#63b8ff" points="187.23,-65.02 181.53,-73.95 191.56,-70.52 187.23,-65.02"/>
</a>
</g>
</g>
<!-- Node2 -->
<g id="Node000002" class="node">
<title>Node2</title>
<g id="a_Node000002"><a xlink:title=" ">
<polygon fill="white" stroke="#666666" points="86,-93 0,-93 0,-74 86,-74 86,-93"/>
<text text-anchor="middle" x="43" y="-81" font-family="Helvetica,sans-Serif" font-size="10.00">std::exception</text>
</a>
</g>
</g>
<!-- Node2&#45;&gt;Node1 -->
<g id="edge1_Node000001_Node000002" class="edge">
<title>Node2&#45;&gt;Node1</title>
<g id="a_edge1_Node000001_Node000002"><a xlink:title=" ">
<path fill="none" stroke="#63b8ff" d="M96.39,-83.5C104.77,-83.5 113.39,-83.5 121.62,-83.5"/>
<polygon fill="#63b8ff" stroke="#63b8ff" points="96.33,-80 86.33,-83.5 96.33,-87 96.33,-80"/>
</a>
</g>
</g>
</g>
</svg>
