<?xml version="1.0" encoding="UTF-8" standalone="no"?>
<!DOCTYPE svg PUBLIC "-//W3C//DTD SVG 1.1//EN"
 "http://www.w3.org/Graphics/SVG/1.1/DTD/svg11.dtd">
<!-- Generated by graphviz version 2.43.0 (0)
 -->
<!-- Title: Graphical Class Hierarchy Pages: 1 -->
<svg width="251pt" height="64pt"
 viewBox="0.00 0.00 251.00 64.00" xmlns="http://www.w3.org/2000/svg" xmlns:xlink="http://www.w3.org/1999/xlink">
<g id="graph0" class="graph" transform="scale(1 1) rotate(0) translate(4 60)">
<title>Graphical Class Hierarchy</title>
<!-- Node0 -->
<g id="Node000000" class="node">
<title>Node0</title>
<g id="a_Node000000"><a xlink:href="classabcg_1_1Window.html" target="_top" xlink:title="Base abstract class that represents a SDL window.">
<polygon fill="white" stroke="#666666" points="85,-37 0,-37 0,-18 85,-18 85,-37"/>
<text text-anchor="middle" x="42.5" y="-25" font-family="Helvetica,sans-Serif" font-size="10.00">abcg::Window</text>
</a>
</g>
</g>
<!-- Node1 -->
<g id="Node000001" class="node">
<title>Node1</title>
<g id="a_Node000001"><a xlink:href="classabcg_1_1OpenGLWindow.html" target="_top" xlink:title="Base class for a window that displays graphics using an OpenGL context.">
<polygon fill="white" stroke="#666666" points="243,-56 121,-56 121,-37 243,-37 243,-56"/>
<text text-anchor="middle" x="182" y="-44" font-family="Helvetica,sans-Serif" font-size="10.00">abcg::OpenGLWindow</text>
</a>
</g>
</g>
<!-- Node0&#45;&gt;Node1 -->
<g id="edge1_Node000000_Node000001" class="edge">
<title>Node0&#45;&gt;Node1</title>
<g id="a_edge1_Node000000_Node000001"><a xlink:title=" ">
<path fill="none" stroke="#63b8ff" d="M95.18,-34.64C103.61,-35.81 112.4,-37.02 121,-38.21"/>
<polygon fill="#63b8ff" stroke="#63b8ff" points="95.51,-31.15 85.13,-33.25 94.55,-38.09 95.51,-31.15"/>
</a>
</g>
</g>
<!-- Node2 -->
<g id="Node000002" class="node">
<title>Node2</title>
<g id="a_Node000002"><a xlink:href="classabcg_1_1VulkanWindow.html" target="_top" xlink:title="Base class for a window that displays graphics using a Vulkan context.">
<polygon fill="white" stroke="#666666" points="240.5,-19 123.5,-19 123.5,0 240.5,0 240.5,-19"/>
<text text-anchor="middle" x="182" y="-7" font-family="Helvetica,sans-Serif" font-size="10.00">abcg::VulkanWindow</text>
</a>
</g>
</g>
<!-- Node0&#45;&gt;Node2 -->
<g id="edge2_Node000000_Node000002" class="edge">
<title>Node0&#45;&gt;Node2</title>
<g id="a_edge2_Node000000_Node000002"><a xlink:title=" ">
<path fill="none" stroke="#63b8ff" d="M95.24,-20.73C104.39,-19.53 113.97,-18.27 123.28,-17.06"/>
<polygon fill="#63b8ff" stroke="#63b8ff" points="94.59,-17.28 85.13,-22.05 95.5,-24.22 94.59,-17.28"/>
</a>
</g>
</g>
</g>
</svg>
