<?xml version="1.0" encoding="UTF-8" standalone="no"?>
<!DOCTYPE svg PUBLIC "-//W3C//DTD SVG 1.1//EN"
 "http://www.w3.org/Graphics/SVG/1.1/DTD/svg11.dtd">
<!-- Generated by graphviz version 2.43.0 (0)
 -->
<!-- Title: Graphical Class Hierarchy Pages: 1 -->
<svg width="251pt" height="66pt"
 viewBox="0.00 0.00 251.00 66.00" xmlns="http://www.w3.org/2000/svg" xmlns:xlink="http://www.w3.org/1999/xlink">
<g id="graph0" class="graph" transform="scale(1 1) rotate(0) translate(4 62)">
<title>Graphical Class Hierarchy</title>
<!-- Node0 -->
<g id="node1" class="node">
<title>Node0</title>
<g id="a_node1"><a xlink:href="classabcg_1_1Window.html" target="_top" xlink:title="Base abstract class that represents a SDL window.">
<polygon fill="none" stroke="black" points="0,-19.5 0,-38.5 85,-38.5 85,-19.5 0,-19.5"/>
<text text-anchor="middle" x="42.5" y="-26.5" font-family="Helvetica,sans-Serif" font-size="10.00">abcg::Window</text>
</a>
</g>
</g>
<!-- Node1 -->
<g id="node2" class="node">
<title>Node1</title>
<g id="a_node2"><a xlink:href="classabcg_1_1OpenGLWindow.html" target="_top" xlink:title="Base class for a window that displays graphics using an OpenGL context.">
<polygon fill="none" stroke="black" points="121,-38.5 121,-57.5 243,-57.5 243,-38.5 121,-38.5"/>
<text text-anchor="middle" x="182" y="-45.5" font-family="Helvetica,sans-Serif" font-size="10.00">abcg::OpenGLWindow</text>
</a>
</g>
</g>
<!-- Node0&#45;&gt;Node1 -->
<g id="edge1" class="edge">
<title>Node0&#45;&gt;Node1</title>
<path fill="none" stroke="midnightblue" d="M95.18,-36.14C103.61,-37.31 112.4,-38.52 121,-39.71"/>
<polygon fill="midnightblue" stroke="midnightblue" points="95.51,-32.65 85.13,-34.75 94.55,-39.59 95.51,-32.65"/>
</g>
<!-- Node2 -->
<g id="node3" class="node">
<title>Node2</title>
<g id="a_node3"><a xlink:href="classabcg_1_1VulkanWindow.html" target="_top" xlink:title="Base class for a window that displays graphics using a Vulkan context.">
<polygon fill="none" stroke="black" points="123.5,-0.5 123.5,-19.5 240.5,-19.5 240.5,-0.5 123.5,-0.5"/>
<text text-anchor="middle" x="182" y="-7.5" font-family="Helvetica,sans-Serif" font-size="10.00">abcg::VulkanWindow</text>
</a>
</g>
</g>
<!-- Node0&#45;&gt;Node2 -->
<g id="edge2" class="edge">
<title>Node0&#45;&gt;Node2</title>
<path fill="none" stroke="midnightblue" d="M95.24,-21.85C104.39,-20.59 113.97,-19.26 123.28,-17.98"/>
<polygon fill="midnightblue" stroke="midnightblue" points="94.55,-18.41 85.13,-23.25 95.51,-25.35 94.55,-18.41"/>
</g>
</g>
</svg>
