<?xml version="1.0" encoding="UTF-8" standalone="no"?>
<!DOCTYPE svg PUBLIC "-//W3C//DTD SVG 1.1//EN"
 "http://www.w3.org/Graphics/SVG/1.1/DTD/svg11.dtd">
<!-- Generated by graphviz version 2.43.0 (0)
 -->
<!-- Title: Graphical Class Hierarchy Pages: 1 -->
<svg width="403pt" height="142pt"
 viewBox="0.00 0.00 403.00 142.00" xmlns="http://www.w3.org/2000/svg" xmlns:xlink="http://www.w3.org/1999/xlink">
<g id="graph0" class="graph" transform="scale(1 1) rotate(0) translate(4 138)">
<title>Graphical Class Hierarchy</title>
<!-- Node2 -->
<g id="node1" class="node">
<title>Node2</title>
<g id="a_node1"><a xlink:href="classabcg_1_1RuntimeError.html" target="_top" xlink:title="Represents an exception object for runtime errors.">
<polygon fill="none" stroke="black" points="0,-57.5 0,-76.5 110,-76.5 110,-57.5 0,-57.5"/>
<text text-anchor="middle" x="55" y="-64.5" font-family="Helvetica,sans-Serif" font-size="10.00">abcg::RuntimeError</text>
</a>
</g>
</g>
<!-- Node0 -->
<g id="node2" class="node">
<title>Node0</title>
<g id="a_node2"><a xlink:href="classabcg_1_1Exception.html" target="_top" xlink:title="Base class for ABCg exception objects.">
<polygon fill="none" stroke="black" points="146,-57.5 146,-76.5 240,-76.5 240,-57.5 146,-57.5"/>
<text text-anchor="middle" x="193" y="-64.5" font-family="Helvetica,sans-Serif" font-size="10.00">abcg::Exception</text>
</a>
</g>
</g>
<!-- Node2&#45;&gt;Node0 -->
<g id="edge1" class="edge">
<title>Node2&#45;&gt;Node0</title>
<path fill="none" stroke="midnightblue" d="M120.25,-60.26C128.92,-60.22 137.67,-60.32 145.93,-60.57"/>
<polygon fill="midnightblue" stroke="midnightblue" points="120.1,-56.76 110.14,-60.38 120.18,-63.76 120.1,-56.76"/>
</g>
<!-- Node0&#45;&gt;Node2 -->
<g id="edge3" class="edge">
<title>Node0&#45;&gt;Node2</title>
<path fill="none" stroke="midnightblue" d="M135.76,-73.66C127.29,-73.79 118.57,-73.78 110.14,-73.62"/>
<polygon fill="midnightblue" stroke="midnightblue" points="136.02,-77.15 145.93,-73.43 135.86,-70.16 136.02,-77.15"/>
</g>
<!-- Node1 -->
<g id="node3" class="node">
<title>Node1</title>
<g id="a_node3"><a xlink:href="classabcg_1_1OpenGLError.html" target="_top" xlink:title="Represents an exception object for OpenGL errors.">
<polygon fill="none" stroke="black" points="282,-114.5 282,-133.5 389,-133.5 389,-114.5 282,-114.5"/>
<text text-anchor="middle" x="335.5" y="-121.5" font-family="Helvetica,sans-Serif" font-size="10.00">abcg::OpenGLError</text>
</a>
</g>
</g>
<!-- Node0&#45;&gt;Node1 -->
<g id="edge2" class="edge">
<title>Node0&#45;&gt;Node1</title>
<path fill="none" stroke="midnightblue" d="M222.08,-81.03C237.75,-88.6 257.74,-97.83 276,-105 284.55,-108.36 293.96,-111.6 302.68,-114.43"/>
<polygon fill="midnightblue" stroke="midnightblue" points="223.46,-77.81 212.94,-76.57 220.39,-84.1 223.46,-77.81"/>
</g>
<!-- Node3 -->
<g id="node4" class="node">
<title>Node3</title>
<g id="a_node4"><a xlink:href="classabcg_1_1SDLError.html" target="_top" xlink:title="Represents an exception object for SDL errors.">
<polygon fill="none" stroke="black" points="291.5,-76.5 291.5,-95.5 379.5,-95.5 379.5,-76.5 291.5,-76.5"/>
<text text-anchor="middle" x="335.5" y="-83.5" font-family="Helvetica,sans-Serif" font-size="10.00">abcg::SDLError</text>
</a>
</g>
</g>
<!-- Node0&#45;&gt;Node3 -->
<g id="edge4" class="edge">
<title>Node0&#45;&gt;Node3</title>
<path fill="none" stroke="midnightblue" d="M250.27,-74.61C263.92,-76.46 278.31,-78.4 291.25,-80.15"/>
<polygon fill="midnightblue" stroke="midnightblue" points="250.38,-71.09 240,-73.22 249.45,-78.03 250.38,-71.09"/>
</g>
<!-- Node4 -->
<g id="node5" class="node">
<title>Node4</title>
<g id="a_node5"><a xlink:href="classabcg_1_1SDLImageError.html" target="_top" xlink:title="Represents an exception object for SDL_image errors.">
<polygon fill="none" stroke="black" points="276,-38.5 276,-57.5 395,-57.5 395,-38.5 276,-38.5"/>
<text text-anchor="middle" x="335.5" y="-45.5" font-family="Helvetica,sans-Serif" font-size="10.00">abcg::SDLImageError</text>
</a>
</g>
</g>
<!-- Node0&#45;&gt;Node4 -->
<g id="edge5" class="edge">
<title>Node0&#45;&gt;Node4</title>
<path fill="none" stroke="midnightblue" d="M250.14,-59.41C258.59,-58.27 267.33,-57.08 275.83,-55.93"/>
<polygon fill="midnightblue" stroke="midnightblue" points="249.45,-55.97 240,-60.78 250.38,-62.91 249.45,-55.97"/>
</g>
<!-- Node5 -->
<g id="node6" class="node">
<title>Node5</title>
<g id="a_node6"><a xlink:href="classabcg_1_1VulkanError.html" target="_top" xlink:title="Represents an exception object for Vulkan runtime errors.">
<polygon fill="none" stroke="black" points="285,-0.5 285,-19.5 386,-19.5 386,-0.5 285,-0.5"/>
<text text-anchor="middle" x="335.5" y="-7.5" font-family="Helvetica,sans-Serif" font-size="10.00">abcg::VulkanError</text>
</a>
</g>
</g>
<!-- Node0&#45;&gt;Node5 -->
<g id="edge6" class="edge">
<title>Node0&#45;&gt;Node5</title>
<path fill="none" stroke="midnightblue" d="M222.08,-52.97C237.75,-45.4 257.74,-36.17 276,-29 284.55,-25.64 293.96,-22.4 302.68,-19.57"/>
<polygon fill="midnightblue" stroke="midnightblue" points="220.39,-49.9 212.94,-57.43 223.46,-56.19 220.39,-49.9"/>
</g>
</g>
</svg>
